<?xml version="1.0" encoding="UTF-8" standalone="no"?>
<!DOCTYPE svg PUBLIC "-//W3C//DTD SVG 1.1//EN"
 "http://www.w3.org/Graphics/SVG/1.1/DTD/svg11.dtd">
<!-- Generated by graphviz version 2.38.0 (20140413.2041)
 -->
<!-- Title: EEPROM_readAnything Pages: 1 -->
<svg width="359pt" height="66pt"
 viewBox="0.00 0.00 359.00 66.00" xmlns="http://www.w3.org/2000/svg" xmlns:xlink="http://www.w3.org/1999/xlink">
<g id="graph0" class="graph" transform="scale(1 1) rotate(0) translate(4 62)">
<title>EEPROM_readAnything</title>
<polygon fill="white" stroke="none" points="-4,4 -4,-62 355,-62 355,4 -4,4"/>
<!-- Node1 -->
<g id="node1" class="node"><title>Node1</title>
<polygon fill="#bfbfbf" stroke="black" points="0,-19.5 0,-38.5 122,-38.5 122,-19.5 0,-19.5"/>
<text text-anchor="middle" x="61" y="-26.5" font-family="Helvetica,sans-Serif" font-size="10.00">EEPROM_readAnything</text>
</g>
<!-- Node2 -->
<g id="node2" class="node"><title>Node2</title>
<g id="a_node2"><a xlink:href="settings_8h.html#a98c2398d8260d9517353a1a7e33b73ea" target="_top" xlink:title="Load the settings from non&#45;volatile memory. ">
<polygon fill="white" stroke="black" points="158,-19.5 158,-38.5 223,-38.5 223,-19.5 158,-19.5"/>
<text text-anchor="middle" x="190.5" y="-26.5" font-family="Helvetica,sans-Serif" font-size="10.00">initSettings</text>
</a>
</g>
</g>
<!-- Node1&#45;&gt;Node2 -->
<g id="edge1" class="edge"><title>Node1&#45;&gt;Node2</title>
<path fill="none" stroke="midnightblue" d="M132.193,-29C141.176,-29 149.986,-29 157.901,-29"/>
<polygon fill="midnightblue" stroke="midnightblue" points="132.017,-25.5001 122.017,-29 132.017,-32.5001 132.017,-25.5001"/>
</g>
<!-- Node3 -->
<g id="node3" class="node"><title>Node3</title>
<g id="a_node3"><a xlink:href="actions_8h.html#a1fec7da4166b9612d2deec3d0262d60f" target="_top" xlink:title="dispatchOnStack">
<polygon fill="white" stroke="black" points="259,-38.5 259,-57.5 351,-57.5 351,-38.5 259,-38.5"/>
<text text-anchor="middle" x="305" y="-45.5" font-family="Helvetica,sans-Serif" font-size="10.00">dispatchOnStack</text>
</a>
</g>
</g>
<!-- Node2&#45;&gt;Node3 -->
<g id="edge2" class="edge"><title>Node2&#45;&gt;Node3</title>
<path fill="none" stroke="midnightblue" d="M233.059,-36.0188C241.427,-37.4322 250.262,-38.9243 258.75,-40.3577"/>
<polygon fill="midnightblue" stroke="midnightblue" points="233.58,-32.5574 223.137,-34.3431 232.414,-39.4596 233.58,-32.5574"/>
</g>
<!-- Node4 -->
<g id="node4" class="node"><title>Node4</title>
<g id="a_node4"><a xlink:href="actions_8h.html#a9c9466bf6676f35ff08e8dc33518e483" target="_top" xlink:title="Respond to commands from the serial port. ">
<polygon fill="white" stroke="black" points="267.5,-0.5 267.5,-19.5 342.5,-19.5 342.5,-0.5 267.5,-0.5"/>
<text text-anchor="middle" x="305" y="-7.5" font-family="Helvetica,sans-Serif" font-size="10.00">readEvalPrint</text>
</a>
</g>
</g>
<!-- Node2&#45;&gt;Node4 -->
<g id="edge3" class="edge"><title>Node2&#45;&gt;Node4</title>
<path fill="none" stroke="midnightblue" d="M233.172,-21.962C244.417,-20.0629 256.496,-18.0229 267.438,-16.1749"/>
<polygon fill="midnightblue" stroke="midnightblue" points="232.414,-18.5404 223.137,-23.6569 233.58,-25.4426 232.414,-18.5404"/>
</g>
</g>
</svg>
