<?xml version="1.0" encoding="UTF-8" standalone="no"?>
<!DOCTYPE svg PUBLIC "-//W3C//DTD SVG 1.1//EN"
 "http://www.w3.org/Graphics/SVG/1.1/DTD/svg11.dtd">
<!-- Generated by graphviz version 2.38.0 (20140413.2041)
 -->
<!-- Title: EEPROM_writeAnything Pages: 1 -->
<svg width="357pt" height="66pt"
 viewBox="0.00 0.00 357.00 66.00" xmlns="http://www.w3.org/2000/svg" xmlns:xlink="http://www.w3.org/1999/xlink">
<g id="graph0" class="graph" transform="scale(1 1) rotate(0) translate(4 62)">
<title>EEPROM_writeAnything</title>
<polygon fill="white" stroke="none" points="-4,4 -4,-62 353,-62 353,4 -4,4"/>
<!-- Node1 -->
<g id="node1" class="node"><title>Node1</title>
<polygon fill="#bfbfbf" stroke="black" points="0,-19.5 0,-38.5 125,-38.5 125,-19.5 0,-19.5"/>
<text text-anchor="middle" x="62.5" y="-26.5" font-family="Helvetica,sans-Serif" font-size="10.00">EEPROM_writeAnything</text>
</g>
<!-- Node2 -->
<g id="node2" class="node"><title>Node2</title>
<g id="a_node2"><a xlink:href="settings_8h.html#ac7142ee2baa705d2dd402769467d5a4e" target="_top" xlink:title="Save the settings to non&#45;volatile memory. ">
<polygon fill="white" stroke="black" points="162.5,-38.5 162.5,-57.5 236.5,-57.5 236.5,-38.5 162.5,-38.5"/>
<text text-anchor="middle" x="199.5" y="-45.5" font-family="Helvetica,sans-Serif" font-size="10.00">saveSettings</text>
</a>
</g>
</g>
<!-- Node1&#45;&gt;Node2 -->
<g id="edge1" class="edge"><title>Node1&#45;&gt;Node2</title>
<path fill="none" stroke="midnightblue" d="M134.996,-39.0624C144.51,-40.4015 153.919,-41.7256 162.461,-42.9279"/>
<polygon fill="midnightblue" stroke="midnightblue" points="135.464,-35.5939 125.074,-37.666 134.489,-42.5256 135.464,-35.5939"/>
</g>
<!-- Node4 -->
<g id="node4" class="node"><title>Node4</title>
<g id="a_node4"><a xlink:href="settings_8h.html#a3525b6c2e13713de68dd08dbb1a6f933" target="_top" xlink:title="If 15 minutes have elapsed since last time, write to EEPROM. ">
<polygon fill="white" stroke="black" points="161,-0.5 161,-19.5 238,-19.5 238,-0.5 161,-0.5"/>
<text text-anchor="middle" x="199.5" y="-7.5" font-family="Helvetica,sans-Serif" font-size="10.00">updateUptime</text>
</a>
</g>
</g>
<!-- Node1&#45;&gt;Node4 -->
<g id="edge3" class="edge"><title>Node1&#45;&gt;Node4</title>
<path fill="none" stroke="midnightblue" d="M135.14,-18.9174C144.048,-17.6636 152.86,-16.4235 160.951,-15.2847"/>
<polygon fill="midnightblue" stroke="midnightblue" points="134.489,-15.4744 125.074,-20.334 135.464,-22.4061 134.489,-15.4744"/>
</g>
<!-- Node3 -->
<g id="node3" class="node"><title>Node3</title>
<g id="a_node3"><a xlink:href="actions_8h.html#a9c9466bf6676f35ff08e8dc33518e483" target="_top" xlink:title="Respond to commands from the serial port. ">
<polygon fill="white" stroke="black" points="274,-19.5 274,-38.5 349,-38.5 349,-19.5 274,-19.5"/>
<text text-anchor="middle" x="311.5" y="-26.5" font-family="Helvetica,sans-Serif" font-size="10.00">readEvalPrint</text>
</a>
</g>
</g>
<!-- Node2&#45;&gt;Node3 -->
<g id="edge2" class="edge"><title>Node2&#45;&gt;Node3</title>
<path fill="none" stroke="midnightblue" d="M246.533,-40.0488C255.577,-38.4868 264.952,-36.8673 273.647,-35.3655"/>
<polygon fill="midnightblue" stroke="midnightblue" points="245.776,-36.6276 236.518,-41.7787 246.968,-43.5255 245.776,-36.6276"/>
</g>
<!-- Node4&#45;&gt;Node3 -->
<g id="edge4" class="edge"><title>Node4&#45;&gt;Node3</title>
<path fill="none" stroke="midnightblue" d="M248.036,-18.2108C256.688,-19.7051 265.59,-21.2428 273.866,-22.6722"/>
<polygon fill="midnightblue" stroke="midnightblue" points="248.498,-14.7388 238.048,-16.4856 247.306,-21.6367 248.498,-14.7388"/>
</g>
</g>
</svg>
