<?xml version="1.0" encoding="UTF-8" standalone="no"?>
<!DOCTYPE svg PUBLIC "-//W3C//DTD SVG 1.1//EN"
 "http://www.w3.org/Graphics/SVG/1.1/DTD/svg11.dtd">
<!-- Generated by graphviz version 2.38.0 (20140413.2041)
 -->
<!-- Title: txGreeting Pages: 1 -->
<svg width="1142pt" height="469pt"
 viewBox="0.00 0.00 1142.00 468.81" xmlns="http://www.w3.org/2000/svg" xmlns:xlink="http://www.w3.org/1999/xlink">
<g id="graph0" class="graph" transform="scale(1 1) rotate(0) translate(4 464.808)">
<title>txGreeting</title>
<polygon fill="white" stroke="none" points="-4,4 -4,-464.808 1138,-464.808 1138,4 -4,4"/>
<!-- Node1 -->
<g id="node1" class="node"><title>Node1</title>
<polygon fill="#bfbfbf" stroke="black" points="0,-209.5 0,-228.5 62,-228.5 62,-209.5 0,-209.5"/>
<text text-anchor="middle" x="31" y="-216.5" font-family="Helvetica,sans-Serif" font-size="10.00">txGreeting</text>
</g>
<!-- Node2 -->
<g id="node2" class="node"><title>Node2</title>
<g id="a_node2"><a xlink:href="libmorse_8cpp.html#a0ee2308940264ea9ac8e50afc1a4d285" target="_top" xlink:title="txString">
<polygon fill="white" stroke="black" points="98,-209.5 98,-228.5 148,-228.5 148,-209.5 98,-209.5"/>
<text text-anchor="middle" x="123" y="-216.5" font-family="Helvetica,sans-Serif" font-size="10.00">txString</text>
</a>
</g>
</g>
<!-- Node1&#45;&gt;Node2 -->
<g id="edge1" class="edge"><title>Node1&#45;&gt;Node2</title>
<path fill="none" stroke="midnightblue" d="M62.4699,-219C70.5734,-219 79.3811,-219 87.6753,-219"/>
<polygon fill="midnightblue" stroke="midnightblue" points="87.8151,-222.5 97.8151,-219 87.815,-215.5 87.8151,-222.5"/>
</g>
<!-- Node3 -->
<g id="node3" class="node"><title>Node3</title>
<g id="a_node3"><a xlink:href="teensy3__morse__bsp_8cpp.html#ab306f692c5c9455a0c82782a67ff0147" target="_top" xlink:title="touchPoll">
<polygon fill="white" stroke="black" points="530,-399.5 530,-418.5 587,-418.5 587,-399.5 530,-399.5"/>
<text text-anchor="middle" x="558.5" y="-406.5" font-family="Helvetica,sans-Serif" font-size="10.00">touchPoll</text>
</a>
</g>
</g>
<!-- Node2&#45;&gt;Node3 -->
<g id="edge2" class="edge"><title>Node2&#45;&gt;Node3</title>
<path fill="none" stroke="midnightblue" d="M123.512,-228.838C122.48,-261.634 124.059,-367.878 184,-416 284.262,-496.493 453.23,-448.118 524.361,-422.197"/>
<polygon fill="midnightblue" stroke="midnightblue" points="525.981,-425.328 534.126,-418.553 523.533,-418.77 525.981,-425.328"/>
</g>
<!-- Node5 -->
<g id="node5" class="node"><title>Node5</title>
<g id="a_node5"><a xlink:href="settings_8cpp.html#a960551e90dfdad18f3c9b1338ccba7db" target="_top" xlink:title="Get the dit duration in microseconds. ">
<polygon fill="white" stroke="black" points="771.5,-323.5 771.5,-342.5 843.5,-342.5 843.5,-323.5 771.5,-323.5"/>
<text text-anchor="middle" x="807.5" y="-330.5" font-family="Helvetica,sans-Serif" font-size="10.00">getDitMicros</text>
</a>
</g>
</g>
<!-- Node2&#45;&gt;Node5 -->
<g id="edge4" class="edge"><title>Node2&#45;&gt;Node5</title>
<path fill="none" stroke="midnightblue" d="M125.103,-228.782C128.528,-254.08 141.45,-321.792 184,-352 262.581,-407.788 303.629,-371 400,-371 400,-371 400,-371 559.5,-371 630.587,-371 711.858,-355.434 761.157,-344.227"/>
<polygon fill="midnightblue" stroke="midnightblue" points="762.223,-347.573 771.177,-341.909 760.645,-340.753 762.223,-347.573"/>
</g>
<!-- Node6 -->
<g id="node6" class="node"><title>Node6</title>
<g id="a_node6"><a xlink:href="libmorse_8cpp.html#a9fdfce728595d72b78dc7c834ab99a40" target="_top" xlink:title="Transmit a literal Morse code value. ">
<polygon fill="white" stroke="black" points="662.5,-171.5 662.5,-190.5 713.5,-190.5 713.5,-171.5 662.5,-171.5"/>
<text text-anchor="middle" x="688" y="-178.5" font-family="Helvetica,sans-Serif" font-size="10.00">txLiteral</text>
</a>
</g>
</g>
<!-- Node2&#45;&gt;Node6 -->
<g id="edge5" class="edge"><title>Node2&#45;&gt;Node6</title>
<path fill="none" stroke="midnightblue" d="M148.191,-217.367C237.317,-211.352 547.582,-190.41 652.228,-183.347"/>
<polygon fill="midnightblue" stroke="midnightblue" points="652.523,-186.835 662.265,-182.67 652.052,-179.851 652.523,-186.835"/>
</g>
<!-- Node16 -->
<g id="node16" class="node"><title>Node16</title>
<g id="a_node16"><a xlink:href="libmorse_8cpp.html#acd4b292f5e412ee4f05aed9dafbc072d" target="_top" xlink:title="Convert an ASCII character into Morse code and transmit it. ">
<polygon fill="white" stroke="black" points="533.5,-133.5 533.5,-152.5 583.5,-152.5 583.5,-133.5 533.5,-133.5"/>
<text text-anchor="middle" x="558.5" y="-140.5" font-family="Helvetica,sans-Serif" font-size="10.00">txLetter</text>
</a>
</g>
</g>
<!-- Node2&#45;&gt;Node16 -->
<g id="edge17" class="edge"><title>Node2&#45;&gt;Node16</title>
<path fill="none" stroke="midnightblue" d="M131.694,-209.213C142.065,-196.852 161.808,-176.099 184,-167 300.702,-119.148 455.171,-130.066 523.033,-138.14"/>
<polygon fill="midnightblue" stroke="midnightblue" points="522.806,-141.639 533.162,-139.403 523.671,-134.693 522.806,-141.639"/>
</g>
<!-- Node17 -->
<g id="node17" class="node"><title>Node17</title>
<g id="a_node17"><a xlink:href="teensy3__morse__bsp_8cpp.html#a8761e874366e227690fba2964e1bc445" target="_top" xlink:title="getInternalTemperatureC">
<polygon fill="white" stroke="black" points="338.5,-228.5 338.5,-247.5 463.5,-247.5 463.5,-228.5 338.5,-228.5"/>
<text text-anchor="middle" x="401" y="-235.5" font-family="Helvetica,sans-Serif" font-size="10.00">getInternalTemperatureC</text>
</a>
</g>
</g>
<!-- Node2&#45;&gt;Node17 -->
<g id="edge20" class="edge"><title>Node2&#45;&gt;Node17</title>
<path fill="none" stroke="midnightblue" d="M148.01,-220.653C187.745,-223.388 268.691,-228.961 328.162,-233.055"/>
<polygon fill="midnightblue" stroke="midnightblue" points="328.039,-236.554 338.256,-233.749 328.52,-229.571 328.039,-236.554"/>
</g>
<!-- Node18 -->
<g id="node18" class="node"><title>Node18</title>
<g id="a_node18"><a xlink:href="libmorse_8cpp.html#a47abdd74b66d7180c47d192bab8bdccb" target="_top" xlink:title="Transmit an unsigned integer in Morse code. ">
<polygon fill="white" stroke="black" points="368,-285.5 368,-304.5 434,-304.5 434,-285.5 368,-285.5"/>
<text text-anchor="middle" x="401" y="-292.5" font-family="Helvetica,sans-Serif" font-size="10.00">txUnsigned</text>
</a>
</g>
</g>
<!-- Node2&#45;&gt;Node18 -->
<g id="edge21" class="edge"><title>Node2&#45;&gt;Node18</title>
<path fill="none" stroke="midnightblue" d="M130.823,-228.721C140.786,-242.035 160.687,-265.484 184,-276 240.19,-301.346 312.869,-302.041 357.955,-299.251"/>
<polygon fill="midnightblue" stroke="midnightblue" points="358.239,-302.74 367.968,-298.545 357.747,-295.757 358.239,-302.74"/>
</g>
<!-- Node19 -->
<g id="node19" class="node"><title>Node19</title>
<g id="a_node19"><a xlink:href="actions_8cpp.html#aed718ec1bd4cc7adb2f65d40a6784496" target="_top" xlink:title="Transmit the internal temperature in integer in Fahrenheit. ">
<polygon fill="white" stroke="black" points="184,-247.5 184,-266.5 302,-266.5 302,-247.5 184,-247.5"/>
<text text-anchor="middle" x="243" y="-254.5" font-family="Helvetica,sans-Serif" font-size="10.00">txInternalTemperatureF</text>
</a>
</g>
</g>
<!-- Node2&#45;&gt;Node19 -->
<g id="edge24" class="edge"><title>Node2&#45;&gt;Node19</title>
<path fill="none" stroke="midnightblue" d="M148.164,-226.782C163.866,-231.838 184.696,-238.546 202.742,-244.358"/>
<polygon fill="midnightblue" stroke="midnightblue" points="201.839,-247.744 212.431,-247.478 203.985,-241.081 201.839,-247.744"/>
</g>
<!-- Node20 -->
<g id="node20" class="node"><title>Node20</title>
<g id="a_node20"><a xlink:href="actions_8cpp.html#aaabb3ac0c23f35a499bc17efe829f326" target="_top" xlink:title="Transmit the 24&#45;hr time. ">
<polygon fill="white" stroke="black" points="204,-57.5 204,-76.5 282,-76.5 282,-57.5 204,-57.5"/>
<text text-anchor="middle" x="243" y="-64.5" font-family="Helvetica,sans-Serif" font-size="10.00">txTimeHHMM</text>
</a>
</g>
</g>
<!-- Node2&#45;&gt;Node20 -->
<g id="edge27" class="edge"><title>Node2&#45;&gt;Node20</title>
<path fill="none" stroke="midnightblue" d="M125.188,-209.338C129.457,-183.957 145.84,-118.444 184,-82 187.28,-78.8671 191.027,-76.1185 195.003,-73.7508"/>
<polygon fill="midnightblue" stroke="midnightblue" points="196.658,-76.8353 203.977,-69.1743 193.478,-70.5993 196.658,-76.8353"/>
</g>
<!-- Node21 -->
<g id="node21" class="node"><title>Node21</title>
<g id="a_node21"><a xlink:href="actions_8cpp.html#ad02149679fa3cc6a4957d1a318408ffd" target="_top" xlink:title="Transmit the uptime. ">
<polygon fill="white" stroke="black" points="215,-323.5 215,-342.5 271,-342.5 271,-323.5 215,-323.5"/>
<text text-anchor="middle" x="243" y="-330.5" font-family="Helvetica,sans-Serif" font-size="10.00">txUptime</text>
</a>
</g>
</g>
<!-- Node2&#45;&gt;Node21 -->
<g id="edge29" class="edge"><title>Node2&#45;&gt;Node21</title>
<path fill="none" stroke="midnightblue" d="M128.151,-228.772C136.318,-246.934 156.137,-286.117 184,-309 190.277,-314.155 197.815,-318.342 205.348,-321.689"/>
<polygon fill="midnightblue" stroke="midnightblue" points="204.208,-325.003 214.791,-325.488 206.82,-318.508 204.208,-325.003"/>
</g>
<!-- Node23 -->
<g id="node23" class="node"><title>Node23</title>
<g id="a_node23"><a xlink:href="teensy3__morse__bsp_8cpp.html#ae8dd28759e56dbd2ee9bc9ae96d1783c" target="_top" xlink:title="Return the most recent ADC measurement of the input voltage. Perform analog to digital conversion on ...">
<polygon fill="white" stroke="black" points="206,-19.5 206,-38.5 280,-38.5 280,-19.5 206,-19.5"/>
<text text-anchor="middle" x="243" y="-26.5" font-family="Helvetica,sans-Serif" font-size="10.00">readMillivolts</text>
</a>
</g>
</g>
<!-- Node2&#45;&gt;Node23 -->
<g id="edge32" class="edge"><title>Node2&#45;&gt;Node23</title>
<path fill="none" stroke="midnightblue" d="M124.514,-209.312C126.566,-180.496 136.571,-94.4483 184,-48 187.551,-44.5225 191.748,-41.6814 196.235,-39.3603"/>
<polygon fill="midnightblue" stroke="midnightblue" points="197.924,-42.4442 205.738,-35.289 195.168,-36.0098 197.924,-42.4442"/>
</g>
<!-- Node27 -->
<g id="node27" class="node"><title>Node27</title>
<g id="a_node27"><a xlink:href="libmorse_8cpp.html#ac3f000c98271c6d0a7710135e18189bc" target="_top" xlink:title="On my hardware there is cross&#45;coupling between the serial port and the touch sensors. Without the code below, long messages to the serial port trigger a touch input. ">
<polygon fill="white" stroke="black" points="368.5,-399.5 368.5,-418.5 433.5,-418.5 433.5,-399.5 368.5,-399.5"/>
<text text-anchor="middle" x="401" y="-406.5" font-family="Helvetica,sans-Serif" font-size="10.00">flushTouch</text>
</a>
</g>
</g>
<!-- Node2&#45;&gt;Node27 -->
<g id="edge36" class="edge"><title>Node2&#45;&gt;Node27</title>
<path fill="none" stroke="midnightblue" d="M124.202,-228.875C125.384,-258.162 133.211,-344.984 184,-385 233.7,-424.158 310.973,-422.313 358.369,-416.381"/>
<polygon fill="midnightblue" stroke="midnightblue" points="358.863,-419.846 368.297,-415.023 357.915,-412.91 358.863,-419.846"/>
</g>
<!-- Node4 -->
<g id="node4" class="node"><title>Node4</title>
<g id="a_node4"><a xlink:href="teensy3__morse__bsp_8cpp.html#af6899cd9b83df54106b259ab81ea5cb2" target="_top" xlink:title="touchMargin">
<polygon fill="white" stroke="black" points="653,-399.5 653,-418.5 723,-418.5 723,-399.5 653,-399.5"/>
<text text-anchor="middle" x="688" y="-406.5" font-family="Helvetica,sans-Serif" font-size="10.00">touchMargin</text>
</a>
</g>
</g>
<!-- Node3&#45;&gt;Node4 -->
<g id="edge3" class="edge"><title>Node3&#45;&gt;Node4</title>
<path fill="none" stroke="midnightblue" d="M587.166,-409C603.281,-409 623.984,-409 642.355,-409"/>
<polygon fill="midnightblue" stroke="midnightblue" points="642.562,-412.5 652.562,-409 642.562,-405.5 642.562,-412.5"/>
</g>
<!-- Node6&#45;&gt;Node5 -->
<g id="edge14" class="edge"><title>Node6&#45;&gt;Node5</title>
<path fill="none" stroke="midnightblue" d="M696.35,-190.508C715.638,-215.46 767.93,-283.106 792.888,-315.392"/>
<polygon fill="midnightblue" stroke="midnightblue" points="790.268,-317.724 799.153,-323.495 795.806,-313.443 790.268,-317.724"/>
</g>
<!-- Node7 -->
<g id="node7" class="node"><title>Node7</title>
<g id="a_node7"><a xlink:href="class_morse_token.html#a48cd72aeb868391449d1f51c1d0bf5cc" target="_top" xlink:title="Treat code == 0 as the error token. ">
<polygon fill="white" stroke="black" points="759,-152.5 759,-171.5 856,-171.5 856,-152.5 759,-152.5"/>
<text text-anchor="middle" x="807.5" y="-159.5" font-family="Helvetica,sans-Serif" font-size="10.00">MorseToken::valid</text>
</a>
</g>
</g>
<!-- Node6&#45;&gt;Node7 -->
<g id="edge6" class="edge"><title>Node6&#45;&gt;Node7</title>
<path fill="none" stroke="midnightblue" d="M713.632,-177.017C723.933,-175.351 736.376,-173.339 748.759,-171.337"/>
<polygon fill="midnightblue" stroke="midnightblue" points="749.322,-174.791 758.635,-169.74 748.205,-167.881 749.322,-174.791"/>
</g>
<!-- Node8 -->
<g id="node8" class="node"><title>Node8</title>
<g id="a_node8"><a xlink:href="teensy3__morse__bsp_8cpp.html#af66e71e3fac9b6a2c6532bc8a513bfde" target="_top" xlink:title="Output a square wave on pin 10 at the given frequency for the given duration. ">
<polygon fill="white" stroke="black" points="788.5,-228.5 788.5,-247.5 826.5,-247.5 826.5,-228.5 788.5,-228.5"/>
<text text-anchor="middle" x="807.5" y="-235.5" font-family="Helvetica,sans-Serif" font-size="10.00">beep</text>
</a>
</g>
</g>
<!-- Node6&#45;&gt;Node8 -->
<g id="edge7" class="edge"><title>Node6&#45;&gt;Node8</title>
<path fill="none" stroke="midnightblue" d="M705.408,-190.616C719.419,-198.654 740.224,-210.185 759,-219 765.226,-221.923 772.031,-224.816 778.496,-227.43"/>
<polygon fill="midnightblue" stroke="midnightblue" points="777.656,-230.861 788.243,-231.272 780.223,-224.348 777.656,-230.861"/>
</g>
<!-- Node14 -->
<g id="node14" class="node"><title>Node14</title>
<g id="a_node14"><a xlink:href="settings_8cpp.html#a8575b9b52638114a4f32d1462cf9b7c1" target="_top" xlink:title="Get the transmission frequency (side tone). ">
<polygon fill="white" stroke="black" points="780.5,-190.5 780.5,-209.5 834.5,-209.5 834.5,-190.5 780.5,-190.5"/>
<text text-anchor="middle" x="807.5" y="-197.5" font-family="Helvetica,sans-Serif" font-size="10.00">getTxHz</text>
</a>
</g>
</g>
<!-- Node6&#45;&gt;Node14 -->
<g id="edge13" class="edge"><title>Node6&#45;&gt;Node14</title>
<path fill="none" stroke="midnightblue" d="M713.632,-184.983C730.022,-187.633 751.833,-191.16 770.199,-194.13"/>
<polygon fill="midnightblue" stroke="midnightblue" points="769.838,-197.617 780.269,-195.758 770.956,-190.707 769.838,-197.617"/>
</g>
<!-- Node15 -->
<g id="node15" class="node"><title>Node15</title>
<g id="a_node15"><a xlink:href="libmorse_8cpp.html#ab94e088615119d1faae7df22ce50aedf" target="_top" xlink:title="Transmit a Morse code prosign indicating an error. ">
<polygon fill="white" stroke="black" points="784.5,-114.5 784.5,-133.5 830.5,-133.5 830.5,-114.5 784.5,-114.5"/>
<text text-anchor="middle" x="807.5" y="-121.5" font-family="Helvetica,sans-Serif" font-size="10.00">txError</text>
</a>
</g>
</g>
<!-- Node6&#45;&gt;Node15 -->
<g id="edge15" class="edge"><title>Node6&#45;&gt;Node15</title>
<path fill="none" stroke="midnightblue" d="M705.408,-171.384C719.419,-163.346 740.224,-151.815 759,-143 764.025,-140.641 769.427,-138.301 774.724,-136.112"/>
<polygon fill="midnightblue" stroke="midnightblue" points="776.068,-139.344 784.038,-132.363 773.454,-132.85 776.068,-139.344"/>
</g>
<!-- Node9 -->
<g id="node9" class="node"><title>Node9</title>
<g id="a_node9"><a xlink:href="teensy3__morse__bsp_8cpp.html#a6f674d5b9985ea3a7eeb0df299c2e405" target="_top" xlink:title="pollEarphonePresent">
<polygon fill="white" stroke="black" points="892,-285.5 892,-304.5 999,-304.5 999,-285.5 892,-285.5"/>
<text text-anchor="middle" x="945.5" y="-292.5" font-family="Helvetica,sans-Serif" font-size="10.00">pollEarphonePresent</text>
</a>
</g>
</g>
<!-- Node8&#45;&gt;Node9 -->
<g id="edge8" class="edge"><title>Node8&#45;&gt;Node9</title>
<path fill="none" stroke="midnightblue" d="M826.561,-246.725C843.352,-254.715 869.14,-266.679 892,-276 896.868,-277.985 902.03,-279.981 907.142,-281.896"/>
<polygon fill="midnightblue" stroke="midnightblue" points="906.229,-285.289 916.823,-285.451 908.642,-278.718 906.229,-285.289"/>
</g>
<!-- Node10 -->
<g id="node10" class="node"><title>Node10</title>
<g id="a_node10"><a xlink:href="teensy3__morse__bsp_8cpp.html#a2d6b4ace33ed5e497dedd03217540c63" target="_top" xlink:title="Set the PWM frequency for the audio output pins. ">
<polygon fill="white" stroke="black" points="904,-247.5 904,-266.5 987,-266.5 987,-247.5 904,-247.5"/>
<text text-anchor="middle" x="945.5" y="-254.5" font-family="Helvetica,sans-Serif" font-size="10.00">pwmFrequency</text>
</a>
</g>
</g>
<!-- Node8&#45;&gt;Node10 -->
<g id="edge9" class="edge"><title>Node8&#45;&gt;Node10</title>
<path fill="none" stroke="midnightblue" d="M826.56,-240.523C843.617,-242.906 870.017,-246.594 893.519,-249.878"/>
<polygon fill="midnightblue" stroke="midnightblue" points="893.334,-253.386 903.722,-251.303 894.303,-246.453 893.334,-253.386"/>
</g>
<!-- Node11 -->
<g id="node11" class="node"><title>Node11</title>
<g id="a_node11"><a xlink:href="teensy3__morse__bsp_8cpp.html#a82911eac3bf13d6f36d10102a4c4d3c4" target="_top" xlink:title="Generate a tone on the audio output pins. ">
<polygon fill="white" stroke="black" points="915,-209.5 915,-228.5 976,-228.5 976,-209.5 915,-209.5"/>
<text text-anchor="middle" x="945.5" y="-216.5" font-family="Helvetica,sans-Serif" font-size="10.00">pwmWrite</text>
</a>
</g>
</g>
<!-- Node8&#45;&gt;Node11 -->
<g id="edge10" class="edge"><title>Node8&#45;&gt;Node11</title>
<path fill="none" stroke="midnightblue" d="M826.56,-235.477C846.462,-232.697 879.083,-228.139 904.979,-224.521"/>
<polygon fill="midnightblue" stroke="midnightblue" points="905.471,-227.987 914.89,-223.137 904.502,-221.054 905.471,-227.987"/>
</g>
<!-- Node13 -->
<g id="node13" class="node"><title>Node13</title>
<g id="a_node13"><a xlink:href="teensy3__morse__bsp_8cpp.html#a6c982a7d7805f1dd5426eb98c915cfdd" target="_top" xlink:title="Turn the red LED on (1) or off (0). ">
<polygon fill="white" stroke="black" points="920.5,-171.5 920.5,-190.5 970.5,-190.5 970.5,-171.5 920.5,-171.5"/>
<text text-anchor="middle" x="945.5" y="-178.5" font-family="Helvetica,sans-Serif" font-size="10.00">redLED</text>
</a>
</g>
</g>
<!-- Node8&#45;&gt;Node13 -->
<g id="edge12" class="edge"><title>Node8&#45;&gt;Node13</title>
<path fill="none" stroke="midnightblue" d="M826.734,-231.223C835.652,-227.779 846.487,-223.398 856,-219 872.422,-211.408 875.454,-207.318 892,-200 897.992,-197.35 904.48,-194.774 910.784,-192.419"/>
<polygon fill="midnightblue" stroke="midnightblue" points="912.232,-195.617 920.442,-188.92 909.847,-189.036 912.232,-195.617"/>
</g>
<!-- Node12 -->
<g id="node12" class="node"><title>Node12</title>
<g id="a_node12"><a xlink:href="teensy3__morse__bsp_8cpp.html#ac70998cee1bf97f00aec4a1b4e5a4f60" target="_top" xlink:title="isEarphonePresent">
<polygon fill="white" stroke="black" points="1035,-209.5 1035,-228.5 1134,-228.5 1134,-209.5 1035,-209.5"/>
<text text-anchor="middle" x="1084.5" y="-216.5" font-family="Helvetica,sans-Serif" font-size="10.00">isEarphonePresent</text>
</a>
</g>
</g>
<!-- Node11&#45;&gt;Node12 -->
<g id="edge11" class="edge"><title>Node11&#45;&gt;Node12</title>
<path fill="none" stroke="midnightblue" d="M976.227,-219C990.434,-219 1007.96,-219 1024.7,-219"/>
<polygon fill="midnightblue" stroke="midnightblue" points="1024.98,-222.5 1034.98,-219 1024.98,-215.5 1024.98,-222.5"/>
</g>
<!-- Node15&#45;&gt;Node2 -->
<g id="edge16" class="edge"><title>Node15&#45;&gt;Node2</title>
<path fill="none" stroke="midnightblue" d="M784.403,-121.156C741.252,-115.855 642.722,-105 559.5,-105 400,-105 400,-105 400,-105 303.139,-105 266.839,-83.8021 184,-134 158.611,-149.385 141.092,-180.05 131.802,-200.034"/>
<polygon fill="midnightblue" stroke="midnightblue" points="128.516,-198.81 127.696,-209.373 134.924,-201.627 128.516,-198.81"/>
</g>
<!-- Node16&#45;&gt;Node6 -->
<g id="edge18" class="edge"><title>Node16&#45;&gt;Node6</title>
<path fill="none" stroke="midnightblue" d="M583.782,-150.237C603.242,-156.037 630.793,-164.248 652.536,-170.728"/>
<polygon fill="midnightblue" stroke="midnightblue" points="651.791,-174.158 662.374,-173.661 653.791,-167.45 651.791,-174.158"/>
</g>
<!-- Node16&#45;&gt;Node15 -->
<g id="edge19" class="edge"><title>Node16&#45;&gt;Node15</title>
<path fill="none" stroke="midnightblue" d="M583.633,-141.144C628.398,-137.7 724.294,-130.324 774.444,-126.466"/>
<polygon fill="midnightblue" stroke="midnightblue" points="774.715,-129.955 784.417,-125.699 774.178,-122.976 774.715,-129.955"/>
</g>
<!-- Node18&#45;&gt;Node3 -->
<g id="edge22" class="edge"><title>Node18&#45;&gt;Node3</title>
<path fill="none" stroke="midnightblue" d="M434.192,-301.601C444.19,-304.491 454.953,-308.511 464,-314 497.757,-334.482 528.051,-369.863 544.502,-391.184"/>
<polygon fill="midnightblue" stroke="midnightblue" points="541.862,-393.496 550.675,-399.376 547.453,-389.283 541.862,-393.496"/>
</g>
<!-- Node18&#45;&gt;Node16 -->
<g id="edge23" class="edge"><title>Node18&#45;&gt;Node16</title>
<path fill="none" stroke="midnightblue" d="M421.284,-285.367C434.122,-278.448 450.961,-268.364 464,-257 497.73,-227.603 528.99,-185.202 545.427,-161.26"/>
<polygon fill="midnightblue" stroke="midnightblue" points="548.461,-163.021 551.16,-152.776 542.661,-159.102 548.461,-163.021"/>
</g>
<!-- Node19&#45;&gt;Node17 -->
<g id="edge25" class="edge"><title>Node19&#45;&gt;Node17</title>
<path fill="none" stroke="midnightblue" d="M302.089,-249.925C310.711,-248.875 319.682,-247.782 328.54,-246.704"/>
<polygon fill="midnightblue" stroke="midnightblue" points="328.964,-250.178 338.467,-245.494 328.117,-243.229 328.964,-250.178"/>
</g>
<!-- Node19&#45;&gt;Node18 -->
<g id="edge26" class="edge"><title>Node19&#45;&gt;Node18</title>
<path fill="none" stroke="midnightblue" d="M283.365,-266.589C306.167,-272.143 334.861,-279.133 358.083,-284.789"/>
<polygon fill="midnightblue" stroke="midnightblue" points="357.451,-288.238 367.996,-287.204 359.108,-281.437 357.451,-288.238"/>
</g>
<!-- Node20&#45;&gt;Node2 -->
<g id="edge28" class="edge"><title>Node20&#45;&gt;Node2</title>
<path fill="none" stroke="midnightblue" d="M228.483,-76.5146C215.627,-81.7533 196.452,-88.1082 184,-100 154.648,-128.032 138.18,-173.263 130.199,-199.347"/>
<polygon fill="midnightblue" stroke="midnightblue" points="126.751,-198.667 127.285,-209.248 133.466,-200.643 126.751,-198.667"/>
</g>
<!-- Node21&#45;&gt;Node18 -->
<g id="edge31" class="edge"><title>Node21&#45;&gt;Node18</title>
<path fill="none" stroke="midnightblue" d="M271.173,-326.381C295.119,-320.548 330.386,-311.957 357.968,-305.238"/>
<polygon fill="midnightblue" stroke="midnightblue" points="358.86,-308.624 367.748,-302.856 357.203,-301.823 358.86,-308.624"/>
</g>
<!-- Node22 -->
<g id="node22" class="node"><title>Node22</title>
<g id="a_node22"><a xlink:href="settings_8cpp.html#a7b4efa097b94f9a90c5bbafcdf93fe4f" target="_top" xlink:title="getUptime">
<polygon fill="white" stroke="black" points="370,-323.5 370,-342.5 432,-342.5 432,-323.5 370,-323.5"/>
<text text-anchor="middle" x="401" y="-330.5" font-family="Helvetica,sans-Serif" font-size="10.00">getUptime</text>
</a>
</g>
</g>
<!-- Node21&#45;&gt;Node22 -->
<g id="edge30" class="edge"><title>Node21&#45;&gt;Node22</title>
<path fill="none" stroke="midnightblue" d="M271.173,-333C295.633,-333 331.905,-333 359.735,-333"/>
<polygon fill="midnightblue" stroke="midnightblue" points="359.945,-336.5 369.945,-333 359.945,-329.5 359.945,-336.5"/>
</g>
<!-- Node24 -->
<g id="node24" class="node"><title>Node24</title>
<g id="a_node24"><a xlink:href="class_voltage_monitor.html#a70902b84f9864c95d5553a0644a64f4f" target="_top" xlink:title="Return the latest voltage reading. ">
<polygon fill="white" stroke="black" points="338,-19.5 338,-38.5 464,-38.5 464,-19.5 338,-19.5"/>
<text text-anchor="middle" x="401" y="-26.5" font-family="Helvetica,sans-Serif" font-size="10.00">VoltageMonitor::getValue</text>
</a>
</g>
</g>
<!-- Node23&#45;&gt;Node24 -->
<g id="edge33" class="edge"><title>Node23&#45;&gt;Node24</title>
<path fill="none" stroke="midnightblue" d="M280.182,-29C294.344,-29 311.117,-29 327.56,-29"/>
<polygon fill="midnightblue" stroke="midnightblue" points="327.728,-32.5001 337.728,-29 327.728,-25.5001 327.728,-32.5001"/>
</g>
<!-- Node25 -->
<g id="node25" class="node"><title>Node25</title>
<g id="a_node25"><a xlink:href="actions_8cpp.html#a2b8c3769e2aa32a2da9e2f3f85ac73dd" target="_top" xlink:title="A sample ADC reading is taken each time through the main loop, and written to a ring buffer...">
<polygon fill="white" stroke="black" points="502.5,-38.5 502.5,-57.5 614.5,-57.5 614.5,-38.5 502.5,-38.5"/>
<text text-anchor="middle" x="558.5" y="-45.5" font-family="Helvetica,sans-Serif" font-size="10.00">getVoltagePollInterval</text>
</a>
</g>
</g>
<!-- Node24&#45;&gt;Node25 -->
<g id="edge34" class="edge"><title>Node24&#45;&gt;Node25</title>
<path fill="none" stroke="midnightblue" d="M464.352,-36.6185C473.438,-37.7287 482.816,-38.8746 491.963,-39.9922"/>
<polygon fill="midnightblue" stroke="midnightblue" points="491.813,-43.4998 502.163,-41.2386 492.662,-36.5515 491.813,-43.4998"/>
</g>
<!-- Node26 -->
<g id="node26" class="node"><title>Node26</title>
<g id="a_node26"><a xlink:href="class_voltage_monitor.html#a75871331808c34b40d04059ee2af0f27" target="_top" xlink:title="Filter and scale raw ADC values to millivolts. ">
<polygon fill="white" stroke="black" points="500,-0.5 500,-19.5 617,-19.5 617,-0.5 500,-0.5"/>
<text text-anchor="middle" x="558.5" y="-7.5" font-family="Helvetica,sans-Serif" font-size="10.00">VoltageMonitor::update</text>
</a>
</g>
</g>
<!-- Node24&#45;&gt;Node26 -->
<g id="edge35" class="edge"><title>Node24&#45;&gt;Node26</title>
<path fill="none" stroke="midnightblue" d="M464.352,-21.3815C472.702,-20.3612 481.298,-19.3108 489.735,-18.2799"/>
<polygon fill="midnightblue" stroke="midnightblue" points="490.419,-21.7226 499.92,-17.0355 489.57,-14.7742 490.419,-21.7226"/>
</g>
<!-- Node27&#45;&gt;Node3 -->
<g id="edge37" class="edge"><title>Node27&#45;&gt;Node3</title>
<path fill="none" stroke="midnightblue" d="M433.843,-409C458.677,-409 493.247,-409 519.522,-409"/>
<polygon fill="midnightblue" stroke="midnightblue" points="519.864,-412.5 529.864,-409 519.863,-405.5 519.864,-412.5"/>
</g>
</g>
</svg>
