<?xml version="1.0" encoding="UTF-8" standalone="no"?>
<!DOCTYPE svg PUBLIC "-//W3C//DTD SVG 1.1//EN"
 "http://www.w3.org/Graphics/SVG/1.1/DTD/svg11.dtd">
<!-- Generated by graphviz version 2.38.0 (20140413.2041)
 -->
<!-- Title: matchScore Pages: 1 -->
<svg width="1213pt" height="689pt"
 viewBox="0.00 0.00 1213.00 689.46" xmlns="http://www.w3.org/2000/svg" xmlns:xlink="http://www.w3.org/1999/xlink">
<g id="graph0" class="graph" transform="scale(1 1) rotate(0) translate(4 685.458)">
<title>matchScore</title>
<polygon fill="white" stroke="none" points="-4,4 -4,-685.458 1209,-685.458 1209,4 -4,4"/>
<!-- Node1 -->
<g id="node1" class="node"><title>Node1</title>
<polygon fill="#bfbfbf" stroke="black" points="0,-414.958 0,-433.958 69,-433.958 69,-414.958 0,-414.958"/>
<text text-anchor="middle" x="34.5" y="-421.958" font-family="Helvetica,sans-Serif" font-size="10.00">matchScore</text>
</g>
<!-- Node2 -->
<g id="node2" class="node"><title>Node2</title>
<g id="a_node2"><a xlink:href="stack_8cpp.html#abefdfbf9131b5ea5926f9ecbecb6b1e6" target="_top" xlink:title="Access the stack using an index where 0 is the top of the stack. ">
<polygon fill="white" stroke="black" points="130.5,-642.958 130.5,-661.958 159.5,-661.958 159.5,-642.958 130.5,-642.958"/>
<text text-anchor="middle" x="145" y="-649.958" font-family="Helvetica,sans-Serif" font-size="10.00">s</text>
</a>
</g>
</g>
<!-- Node1&#45;&gt;Node2 -->
<g id="edge1" class="edge"><title>Node1&#45;&gt;Node2</title>
<path fill="none" stroke="midnightblue" d="M38.8878,-434.067C48.1486,-459.952 75.1925,-533.063 105,-590.458 112.94,-605.746 123.397,-622.216 131.485,-634.335"/>
<polygon fill="midnightblue" stroke="midnightblue" points="128.62,-636.348 137.126,-642.664 134.416,-632.422 128.62,-636.348"/>
</g>
<!-- Node3 -->
<g id="node3" class="node"><title>Node3</title>
<g id="a_node3"><a xlink:href="stack_8cpp.html#aafac4a86d14d59c34565bc295024e511" target="_top" xlink:title="symbolStackSize">
<polygon fill="white" stroke="black" points="233.5,-661.958 233.5,-680.958 326.5,-680.958 326.5,-661.958 233.5,-661.958"/>
<text text-anchor="middle" x="280" y="-668.958" font-family="Helvetica,sans-Serif" font-size="10.00">symbolStackSize</text>
</a>
</g>
</g>
<!-- Node1&#45;&gt;Node3 -->
<g id="edge4" class="edge"><title>Node1&#45;&gt;Node3</title>
<path fill="none" stroke="midnightblue" d="M41.2555,-434.367C61.5665,-468.548 133.405,-582.967 221,-647.458 226.298,-651.359 232.323,-654.755 238.438,-657.667"/>
<polygon fill="midnightblue" stroke="midnightblue" points="237.463,-661.06 248.028,-661.848 240.26,-654.643 237.463,-661.06"/>
</g>
<!-- Node5 -->
<g id="node5" class="node"><title>Node5</title>
<g id="a_node5"><a xlink:href="libmorse_8h.html#a8861be4ba681255772f156a773aee7be" target="_top" xlink:title="keyboardMode">
<polygon fill="white" stroke="black" points="105,-452.958 105,-471.958 185,-471.958 185,-452.958 105,-452.958"/>
<text text-anchor="middle" x="145" y="-459.958" font-family="Helvetica,sans-Serif" font-size="10.00">keyboardMode</text>
</a>
</g>
</g>
<!-- Node1&#45;&gt;Node5 -->
<g id="edge5" class="edge"><title>Node1&#45;&gt;Node5</title>
<path fill="none" stroke="midnightblue" d="M62.8791,-434.047C76.243,-438.728 92.5172,-444.428 106.972,-449.49"/>
<polygon fill="midnightblue" stroke="midnightblue" points="106.035,-452.87 116.63,-452.872 108.349,-446.264 106.035,-452.87"/>
</g>
<!-- Node6 -->
<g id="node6" class="node"><title>Node6</title>
<g id="a_node6"><a xlink:href="libmorse_8cpp.html#a0ee2308940264ea9ac8e50afc1a4d285" target="_top" xlink:title="txString">
<polygon fill="white" stroke="black" points="120,-414.958 120,-433.958 170,-433.958 170,-414.958 120,-414.958"/>
<text text-anchor="middle" x="145" y="-421.958" font-family="Helvetica,sans-Serif" font-size="10.00">txString</text>
</a>
</g>
</g>
<!-- Node1&#45;&gt;Node6 -->
<g id="edge6" class="edge"><title>Node1&#45;&gt;Node6</title>
<path fill="none" stroke="midnightblue" d="M69.2353,-424.458C82.0657,-424.458 96.6914,-424.458 109.584,-424.458"/>
<polygon fill="midnightblue" stroke="midnightblue" points="109.929,-427.958 119.929,-424.458 109.929,-420.958 109.929,-427.958"/>
</g>
<!-- Node9 -->
<g id="node9" class="node"><title>Node9</title>
<g id="a_node9"><a xlink:href="settings_8cpp.html#a960551e90dfdad18f3c9b1338ccba7db" target="_top" xlink:title="Get the dit duration in microseconds. ">
<polygon fill="white" stroke="black" points="842.5,-243.958 842.5,-262.958 914.5,-262.958 914.5,-243.958 842.5,-243.958"/>
<text text-anchor="middle" x="878.5" y="-250.958" font-family="Helvetica,sans-Serif" font-size="10.00">getDitMicros</text>
</a>
</g>
</g>
<!-- Node1&#45;&gt;Node9 -->
<g id="edge58" class="edge"><title>Node1&#45;&gt;Node9</title>
<path fill="none" stroke="midnightblue" d="M36.6678,-414.553C40.7884,-383.235 57.0792,-284.698 105,-221.458 161.736,-146.586 185.059,-101.458 279,-101.458 279,-101.458 279,-101.458 596.5,-101.458 633.315,-101.458 746.894,-147.759 794,-177.458 820.505,-194.169 846.464,-219.641 862.226,-236.419"/>
<polygon fill="midnightblue" stroke="midnightblue" points="859.752,-238.899 869.103,-243.88 864.9,-234.155 859.752,-238.899"/>
</g>
<!-- Node32 -->
<g id="node32" class="node"><title>Node32</title>
<g id="a_node32"><a xlink:href="libmorse_8cpp.html#ac4a29ea9b7bb06c2d9e8c4d74f486b91" target="_top" xlink:title="Accumulate a Morse token. ">
<polygon fill="white" stroke="black" points="409.5,-167.958 409.5,-186.958 466.5,-186.958 466.5,-167.958 409.5,-167.958"/>
<text text-anchor="middle" x="438" y="-174.958" font-family="Helvetica,sans-Serif" font-size="10.00">getMorse</text>
</a>
</g>
</g>
<!-- Node1&#45;&gt;Node32 -->
<g id="edge43" class="edge"><title>Node1&#45;&gt;Node32</title>
<path fill="none" stroke="midnightblue" d="M40.1585,-414.616C57.7848,-378.616 124.332,-253.493 221,-201.458 277.286,-171.161 353.674,-170.453 398.905,-173.44"/>
<polygon fill="midnightblue" stroke="midnightblue" points="398.921,-176.951 409.157,-174.217 399.45,-169.971 398.921,-176.951"/>
</g>
<!-- Node40 -->
<g id="node40" class="node"><title>Node40</title>
<g id="a_node40"><a xlink:href="actions_8cpp.html#a7b222d103bfa3f308965abdf4b9d8d8e" target="_top" xlink:title="txTock">
<polygon fill="white" stroke="black" points="572,-15.9584 572,-34.9584 619,-34.9584 619,-15.9584 572,-15.9584"/>
<text text-anchor="middle" x="595.5" y="-22.9584" font-family="Helvetica,sans-Serif" font-size="10.00">txTock</text>
</a>
</g>
</g>
<!-- Node1&#45;&gt;Node40 -->
<g id="edge59" class="edge"><title>Node1&#45;&gt;Node40</title>
<path fill="none" stroke="midnightblue" d="M36.0186,-414.906C38.9382,-364.89 55.0181,-133.714 105,-87.4584 235.192,33.0287 475.056,-0.842423 561.972,-18.1865"/>
<polygon fill="midnightblue" stroke="midnightblue" points="561.295,-21.6205 571.795,-20.2082 562.706,-14.7642 561.295,-21.6205"/>
</g>
<!-- Node2&#45;&gt;Node3 -->
<g id="edge2" class="edge"><title>Node2&#45;&gt;Node3</title>
<path fill="none" stroke="midnightblue" d="M159.732,-654.42C174.764,-656.568 199.835,-660.149 223.122,-663.476"/>
<polygon fill="midnightblue" stroke="midnightblue" points="222.91,-666.981 233.305,-664.93 223.9,-660.051 222.91,-666.981"/>
</g>
<!-- Node4 -->
<g id="node4" class="node"><title>Node4</title>
<g id="a_node4"><a xlink:href="class_stack.html#afc30a7ee287e14f08802c2d43613f2b4" target="_top" xlink:title="Return the number of elements currently in the stack. ">
<polygon fill="white" stroke="black" points="405,-661.958 405,-680.958 471,-680.958 471,-661.958 405,-661.958"/>
<text text-anchor="middle" x="438" y="-668.958" font-family="Helvetica,sans-Serif" font-size="10.00">Stack::size</text>
</a>
</g>
</g>
<!-- Node3&#45;&gt;Node4 -->
<g id="edge3" class="edge"><title>Node3&#45;&gt;Node4</title>
<path fill="none" stroke="midnightblue" d="M326.541,-671.458C347.929,-671.458 373.28,-671.458 394.297,-671.458"/>
<polygon fill="midnightblue" stroke="midnightblue" points="394.539,-674.958 404.539,-671.458 394.539,-667.958 394.539,-674.958"/>
</g>
<!-- Node7 -->
<g id="node7" class="node"><title>Node7</title>
<g id="a_node7"><a xlink:href="teensy3__morse__bsp_8cpp.html#ab306f692c5c9455a0c82782a67ff0147" target="_top" xlink:title="touchPoll">
<polygon fill="white" stroke="black" points="567,-357.958 567,-376.958 624,-376.958 624,-357.958 567,-357.958"/>
<text text-anchor="middle" x="595.5" y="-364.958" font-family="Helvetica,sans-Serif" font-size="10.00">touchPoll</text>
</a>
</g>
</g>
<!-- Node6&#45;&gt;Node7 -->
<g id="edge7" class="edge"><title>Node6&#45;&gt;Node7</title>
<path fill="none" stroke="midnightblue" d="M149.843,-414.949C158.746,-394.384 182.973,-346.124 221,-327.458 234.341,-320.91 472.878,-323.782 501,-329.458 504.255,-330.116 536.456,-343.325 562.171,-353.987"/>
<polygon fill="midnightblue" stroke="midnightblue" points="561.058,-357.315 571.636,-357.918 563.743,-350.85 561.058,-357.315"/>
</g>
<!-- Node6&#45;&gt;Node9 -->
<g id="edge9" class="edge"><title>Node6&#45;&gt;Node9</title>
<path fill="none" stroke="midnightblue" d="M148.354,-414.579C157.125,-378.694 189.041,-256.202 221,-234.458 246.206,-217.309 687.607,-242.082 832.114,-250.694"/>
<polygon fill="midnightblue" stroke="midnightblue" points="832.203,-254.206 842.394,-251.309 832.621,-247.218 832.203,-254.206"/>
</g>
<!-- Node10 -->
<g id="node10" class="node"><title>Node10</title>
<g id="a_node10"><a xlink:href="libmorse_8cpp.html#a9fdfce728595d72b78dc7c834ab99a40" target="_top" xlink:title="Transmit a literal Morse code value. ">
<polygon fill="white" stroke="black" points="716.5,-471.958 716.5,-490.958 767.5,-490.958 767.5,-471.958 716.5,-471.958"/>
<text text-anchor="middle" x="742" y="-478.958" font-family="Helvetica,sans-Serif" font-size="10.00">txLiteral</text>
</a>
</g>
</g>
<!-- Node6&#45;&gt;Node10 -->
<g id="edge10" class="edge"><title>Node6&#45;&gt;Node10</title>
<path fill="none" stroke="midnightblue" d="M170.295,-432.11C175.835,-434.889 181.201,-438.589 185,-443.458 232.77,-504.696 160.69,-565.523 221,-614.458 258.36,-644.772 611.681,-637.345 654,-614.458 698.94,-590.154 724.385,-531.426 735.026,-500.788"/>
<polygon fill="midnightblue" stroke="midnightblue" points="738.372,-501.818 738.18,-491.225 731.724,-499.625 738.372,-501.818"/>
</g>
<!-- Node20 -->
<g id="node20" class="node"><title>Node20</title>
<g id="a_node20"><a xlink:href="libmorse_8cpp.html#acd4b292f5e412ee4f05aed9dafbc072d" target="_top" xlink:title="Convert an ASCII character into Morse code and transmit it. ">
<polygon fill="white" stroke="black" points="570.5,-395.958 570.5,-414.958 620.5,-414.958 620.5,-395.958 570.5,-395.958"/>
<text text-anchor="middle" x="595.5" y="-402.958" font-family="Helvetica,sans-Serif" font-size="10.00">txLetter</text>
</a>
</g>
</g>
<!-- Node6&#45;&gt;Node20 -->
<g id="edge22" class="edge"><title>Node6&#45;&gt;Node20</title>
<path fill="none" stroke="midnightblue" d="M165.902,-434.001C172.046,-436.988 178.821,-440.324 185,-443.458 201.134,-451.643 203.439,-458.109 221,-462.458 341.794,-492.379 381.189,-496.099 501,-462.458 529.313,-454.509 557.548,-435.355 575.462,-421.439"/>
<polygon fill="midnightblue" stroke="midnightblue" points="577.761,-424.082 583.382,-415.101 573.388,-418.616 577.761,-424.082"/>
</g>
<!-- Node21 -->
<g id="node21" class="node"><title>Node21</title>
<g id="a_node21"><a xlink:href="teensy3__morse__bsp_8cpp.html#a8761e874366e227690fba2964e1bc445" target="_top" xlink:title="getInternalTemperatureC">
<polygon fill="white" stroke="black" points="375.5,-338.958 375.5,-357.958 500.5,-357.958 500.5,-338.958 375.5,-338.958"/>
<text text-anchor="middle" x="438" y="-345.958" font-family="Helvetica,sans-Serif" font-size="10.00">getInternalTemperatureC</text>
</a>
</g>
</g>
<!-- Node6&#45;&gt;Node21 -->
<g id="edge25" class="edge"><title>Node6&#45;&gt;Node21</title>
<path fill="none" stroke="midnightblue" d="M151.732,-414.889C162.662,-397.7 188.334,-362.116 221,-348.458 272.947,-326.74 338.26,-330.497 383.393,-337.318"/>
<polygon fill="midnightblue" stroke="midnightblue" points="382.843,-340.774 393.272,-338.908 383.955,-333.863 382.843,-340.774"/>
</g>
<!-- Node22 -->
<g id="node22" class="node"><title>Node22</title>
<g id="a_node22"><a xlink:href="libmorse_8cpp.html#a47abdd74b66d7180c47d192bab8bdccb" target="_top" xlink:title="Transmit an unsigned integer in Morse code. ">
<polygon fill="white" stroke="black" points="405,-395.958 405,-414.958 471,-414.958 471,-395.958 405,-395.958"/>
<text text-anchor="middle" x="438" y="-402.958" font-family="Helvetica,sans-Serif" font-size="10.00">txUnsigned</text>
</a>
</g>
</g>
<!-- Node6&#45;&gt;Node22 -->
<g id="edge26" class="edge"><title>Node6&#45;&gt;Node22</title>
<path fill="none" stroke="midnightblue" d="M170.31,-422.871C219.766,-419.642 332.635,-412.273 394.502,-408.233"/>
<polygon fill="midnightblue" stroke="midnightblue" points="394.955,-411.711 404.706,-407.567 394.499,-404.726 394.955,-411.711"/>
</g>
<!-- Node23 -->
<g id="node23" class="node"><title>Node23</title>
<g id="a_node23"><a xlink:href="actions_8cpp.html#aed718ec1bd4cc7adb2f65d40a6784496" target="_top" xlink:title="Transmit the internal temperature in integer in Fahrenheit. ">
<polygon fill="white" stroke="black" points="221,-357.958 221,-376.958 339,-376.958 339,-357.958 221,-357.958"/>
<text text-anchor="middle" x="280" y="-364.958" font-family="Helvetica,sans-Serif" font-size="10.00">txInternalTemperatureF</text>
</a>
</g>
</g>
<!-- Node6&#45;&gt;Node23 -->
<g id="edge29" class="edge"><title>Node6&#45;&gt;Node23</title>
<path fill="none" stroke="midnightblue" d="M167.282,-414.944C182.266,-408.283 202.814,-399.221 221,-391.458 229.14,-387.984 237.953,-384.298 246.193,-380.885"/>
<polygon fill="midnightblue" stroke="midnightblue" points="247.619,-384.083 255.527,-377.033 244.948,-377.613 247.619,-384.083"/>
</g>
<!-- Node24 -->
<g id="node24" class="node"><title>Node24</title>
<g id="a_node24"><a xlink:href="actions_8cpp.html#aaabb3ac0c23f35a499bc17efe829f326" target="_top" xlink:title="Transmit the 24&#45;hr time. ">
<polygon fill="white" stroke="black" points="241,-547.958 241,-566.958 319,-566.958 319,-547.958 241,-547.958"/>
<text text-anchor="middle" x="280" y="-554.958" font-family="Helvetica,sans-Serif" font-size="10.00">txTimeHHMM</text>
</a>
</g>
</g>
<!-- Node6&#45;&gt;Node24 -->
<g id="edge32" class="edge"><title>Node6&#45;&gt;Node24</title>
<path fill="none" stroke="midnightblue" d="M170.137,-424.069C175.55,-426.535 180.897,-430.046 185,-434.458 214.334,-466.01 190.718,-493.816 221,-524.458 230.242,-533.811 243.656,-539.678 255.257,-544.211"/>
<polygon fill="midnightblue" stroke="midnightblue" points="254.244,-547.572 264.834,-547.905 256.763,-541.041 254.244,-547.572"/>
</g>
<!-- Node25 -->
<g id="node25" class="node"><title>Node25</title>
<g id="a_node25"><a xlink:href="actions_8cpp.html#ad02149679fa3cc6a4957d1a318408ffd" target="_top" xlink:title="Transmit the uptime. ">
<polygon fill="white" stroke="black" points="252,-433.958 252,-452.958 308,-452.958 308,-433.958 252,-433.958"/>
<text text-anchor="middle" x="280" y="-440.958" font-family="Helvetica,sans-Serif" font-size="10.00">txUptime</text>
</a>
</g>
</g>
<!-- Node6&#45;&gt;Node25 -->
<g id="edge34" class="edge"><title>Node6&#45;&gt;Node25</title>
<path fill="none" stroke="midnightblue" d="M170.085,-427.899C190.079,-430.755 218.852,-434.866 241.804,-438.145"/>
<polygon fill="midnightblue" stroke="midnightblue" points="241.493,-441.636 251.888,-439.585 242.483,-434.706 241.493,-441.636"/>
</g>
<!-- Node27 -->
<g id="node27" class="node"><title>Node27</title>
<g id="a_node27"><a xlink:href="teensy3__morse__bsp_8cpp.html#ae8dd28759e56dbd2ee9bc9ae96d1783c" target="_top" xlink:title="Return the most recent ADC measurement of the input voltage. Perform analog to digital conversion on ...">
<polygon fill="white" stroke="black" points="243,-585.958 243,-604.958 317,-604.958 317,-585.958 243,-585.958"/>
<text text-anchor="middle" x="280" y="-592.958" font-family="Helvetica,sans-Serif" font-size="10.00">readMillivolts</text>
</a>
</g>
</g>
<!-- Node6&#45;&gt;Node27 -->
<g id="edge37" class="edge"><title>Node6&#45;&gt;Node27</title>
<path fill="none" stroke="midnightblue" d="M170.105,-432.263C175.649,-435.039 181.065,-438.699 185,-443.458 224.023,-490.653 178.843,-532.041 221,-576.458 224.556,-580.205 228.861,-583.214 233.501,-585.63"/>
<polygon fill="midnightblue" stroke="midnightblue" points="232.156,-588.862 242.727,-589.583 234.914,-582.427 232.156,-588.862"/>
</g>
<!-- Node31 -->
<g id="node31" class="node"><title>Node31</title>
<g id="a_node31"><a xlink:href="libmorse_8cpp.html#ac3f000c98271c6d0a7710135e18189bc" target="_top" xlink:title="On my hardware there is cross&#45;coupling between the serial port and the touch sensors. Without the code below, long messages to the serial port trigger a touch input. ">
<polygon fill="white" stroke="black" points="247.5,-243.958 247.5,-262.958 312.5,-262.958 312.5,-243.958 247.5,-243.958"/>
<text text-anchor="middle" x="280" y="-250.958" font-family="Helvetica,sans-Serif" font-size="10.00">flushTouch</text>
</a>
</g>
</g>
<!-- Node6&#45;&gt;Node31 -->
<g id="edge41" class="edge"><title>Node6&#45;&gt;Node31</title>
<path fill="none" stroke="midnightblue" d="M148.403,-414.786C155.285,-388.974 177.432,-317.696 221,-277.458 226.002,-272.839 232.018,-269.044 238.254,-265.947"/>
<polygon fill="midnightblue" stroke="midnightblue" points="239.716,-269.128 247.457,-261.895 236.894,-262.722 239.716,-269.128"/>
</g>
<!-- Node8 -->
<g id="node8" class="node"><title>Node8</title>
<g id="a_node8"><a xlink:href="teensy3__morse__bsp_8cpp.html#af6899cd9b83df54106b259ab81ea5cb2" target="_top" xlink:title="touchMargin">
<polygon fill="white" stroke="black" points="707,-357.958 707,-376.958 777,-376.958 777,-357.958 707,-357.958"/>
<text text-anchor="middle" x="742" y="-364.958" font-family="Helvetica,sans-Serif" font-size="10.00">touchMargin</text>
</a>
</g>
</g>
<!-- Node7&#45;&gt;Node8 -->
<g id="edge8" class="edge"><title>Node7&#45;&gt;Node8</title>
<path fill="none" stroke="midnightblue" d="M624.019,-367.458C644.562,-367.458 673.06,-367.458 696.784,-367.458"/>
<polygon fill="midnightblue" stroke="midnightblue" points="696.961,-370.958 706.961,-367.458 696.961,-363.958 696.961,-370.958"/>
</g>
<!-- Node10&#45;&gt;Node9 -->
<g id="edge19" class="edge"><title>Node10&#45;&gt;Node9</title>
<path fill="none" stroke="midnightblue" d="M748.368,-471.78C761.815,-447.603 798.15,-382.685 830,-329.458 841.909,-309.556 856.054,-287.064 865.793,-271.745"/>
<polygon fill="midnightblue" stroke="midnightblue" points="868.803,-273.535 871.229,-263.222 862.901,-269.771 868.803,-273.535"/>
</g>
<!-- Node11 -->
<g id="node11" class="node"><title>Node11</title>
<g id="a_node11"><a xlink:href="class_morse_token.html#a48cd72aeb868391449d1f51c1d0bf5cc" target="_top" xlink:title="Treat code == 0 as the error token. ">
<polygon fill="white" stroke="black" points="830,-471.958 830,-490.958 927,-490.958 927,-471.958 830,-471.958"/>
<text text-anchor="middle" x="878.5" y="-478.958" font-family="Helvetica,sans-Serif" font-size="10.00">MorseToken::valid</text>
</a>
</g>
</g>
<!-- Node10&#45;&gt;Node11 -->
<g id="edge11" class="edge"><title>Node10&#45;&gt;Node11</title>
<path fill="none" stroke="midnightblue" d="M767.669,-481.458C782.323,-481.458 801.558,-481.458 819.83,-481.458"/>
<polygon fill="midnightblue" stroke="midnightblue" points="819.847,-484.958 829.847,-481.458 819.847,-477.958 819.847,-484.958"/>
</g>
<!-- Node12 -->
<g id="node12" class="node"><title>Node12</title>
<g id="a_node12"><a xlink:href="teensy3__morse__bsp_8cpp.html#af66e71e3fac9b6a2c6532bc8a513bfde" target="_top" xlink:title="Output a square wave on pin 10 at the given frequency for the given duration. ">
<polygon fill="white" stroke="black" points="859.5,-433.958 859.5,-452.958 897.5,-452.958 897.5,-433.958 859.5,-433.958"/>
<text text-anchor="middle" x="878.5" y="-440.958" font-family="Helvetica,sans-Serif" font-size="10.00">beep</text>
</a>
</g>
</g>
<!-- Node10&#45;&gt;Node12 -->
<g id="edge12" class="edge"><title>Node10&#45;&gt;Node12</title>
<path fill="none" stroke="midnightblue" d="M767.669,-474.489C790.895,-467.927 825.631,-458.113 849.798,-451.285"/>
<polygon fill="midnightblue" stroke="midnightblue" points="850.772,-454.647 859.444,-448.56 848.869,-447.911 850.772,-454.647"/>
</g>
<!-- Node18 -->
<g id="node18" class="node"><title>Node18</title>
<g id="a_node18"><a xlink:href="settings_8cpp.html#a8575b9b52638114a4f32d1462cf9b7c1" target="_top" xlink:title="Get the transmission frequency (side tone). ">
<polygon fill="white" stroke="black" points="851.5,-338.958 851.5,-357.958 905.5,-357.958 905.5,-338.958 851.5,-338.958"/>
<text text-anchor="middle" x="878.5" y="-345.958" font-family="Helvetica,sans-Serif" font-size="10.00">getTxHz</text>
</a>
</g>
</g>
<!-- Node10&#45;&gt;Node18 -->
<g id="edge18" class="edge"><title>Node10&#45;&gt;Node18</title>
<path fill="none" stroke="midnightblue" d="M750.945,-471.839C765.73,-454.159 798.805,-415.638 830,-386.458 838.128,-378.855 847.614,-371.072 855.963,-364.545"/>
<polygon fill="midnightblue" stroke="midnightblue" points="858.348,-367.127 864.146,-358.259 854.084,-361.575 858.348,-367.127"/>
</g>
<!-- Node19 -->
<g id="node19" class="node"><title>Node19</title>
<g id="a_node19"><a xlink:href="libmorse_8cpp.html#ab94e088615119d1faae7df22ce50aedf" target="_top" xlink:title="Transmit a Morse code prosign indicating an error. ">
<polygon fill="white" stroke="black" points="855.5,-395.958 855.5,-414.958 901.5,-414.958 901.5,-395.958 855.5,-395.958"/>
<text text-anchor="middle" x="878.5" y="-402.958" font-family="Helvetica,sans-Serif" font-size="10.00">txError</text>
</a>
</g>
</g>
<!-- Node10&#45;&gt;Node19 -->
<g id="edge20" class="edge"><title>Node10&#45;&gt;Node19</title>
<path fill="none" stroke="midnightblue" d="M767.164,-471.889C775.931,-467.959 785.711,-463.019 794,-457.458 812.025,-445.366 811.624,-436.01 830,-424.458 834.888,-421.386 840.355,-418.649 845.794,-416.275"/>
<polygon fill="midnightblue" stroke="midnightblue" points="847.45,-419.381 855.419,-412.4 844.836,-412.887 847.45,-419.381"/>
</g>
<!-- Node13 -->
<g id="node13" class="node"><title>Node13</title>
<g id="a_node13"><a xlink:href="teensy3__morse__bsp_8cpp.html#a6f674d5b9985ea3a7eeb0df299c2e405" target="_top" xlink:title="pollEarphonePresent">
<polygon fill="white" stroke="black" points="963,-452.958 963,-471.958 1070,-471.958 1070,-452.958 963,-452.958"/>
<text text-anchor="middle" x="1016.5" y="-459.958" font-family="Helvetica,sans-Serif" font-size="10.00">pollEarphonePresent</text>
</a>
</g>
</g>
<!-- Node12&#45;&gt;Node13 -->
<g id="edge13" class="edge"><title>Node12&#45;&gt;Node13</title>
<path fill="none" stroke="midnightblue" d="M897.56,-445.981C911.777,-447.968 932.484,-450.861 952.594,-453.67"/>
<polygon fill="midnightblue" stroke="midnightblue" points="952.313,-457.165 962.701,-455.082 953.282,-450.232 952.313,-457.165"/>
</g>
<!-- Node14 -->
<g id="node14" class="node"><title>Node14</title>
<g id="a_node14"><a xlink:href="teensy3__morse__bsp_8cpp.html#a2d6b4ace33ed5e497dedd03217540c63" target="_top" xlink:title="Set the PWM frequency for the audio output pins. ">
<polygon fill="white" stroke="black" points="975,-295.958 975,-314.958 1058,-314.958 1058,-295.958 975,-295.958"/>
<text text-anchor="middle" x="1016.5" y="-302.958" font-family="Helvetica,sans-Serif" font-size="10.00">pwmFrequency</text>
</a>
</g>
</g>
<!-- Node12&#45;&gt;Node14 -->
<g id="edge14" class="edge"><title>Node12&#45;&gt;Node14</title>
<path fill="none" stroke="midnightblue" d="M897.86,-438.723C907.222,-435.692 918.413,-431.067 927,-424.458 963.206,-396.595 991.74,-350.185 1005.84,-324.326"/>
<polygon fill="midnightblue" stroke="midnightblue" points="1009.09,-325.68 1010.68,-315.206 1002.9,-322.4 1009.09,-325.68"/>
</g>
<!-- Node15 -->
<g id="node15" class="node"><title>Node15</title>
<g id="a_node15"><a xlink:href="teensy3__morse__bsp_8cpp.html#a82911eac3bf13d6f36d10102a4c4d3c4" target="_top" xlink:title="Generate a tone on the audio output pins. ">
<polygon fill="white" stroke="black" points="986,-96.9584 986,-115.958 1047,-115.958 1047,-96.9584 986,-96.9584"/>
<text text-anchor="middle" x="1016.5" y="-103.958" font-family="Helvetica,sans-Serif" font-size="10.00">pwmWrite</text>
</a>
</g>
</g>
<!-- Node12&#45;&gt;Node15 -->
<g id="edge15" class="edge"><title>Node12&#45;&gt;Node15</title>
<path fill="none" stroke="midnightblue" d="M897.61,-440.353C907.605,-437.735 919.48,-432.985 927,-424.458 968.926,-376.919 946.124,-347.557 963,-286.458 979.196,-227.822 999.722,-158.876 1009.63,-125.917"/>
<polygon fill="midnightblue" stroke="midnightblue" points="1013.02,-126.771 1012.56,-116.186 1006.32,-124.753 1013.02,-126.771"/>
</g>
<!-- Node17 -->
<g id="node17" class="node"><title>Node17</title>
<g id="a_node17"><a xlink:href="teensy3__morse__bsp_8cpp.html#a6c982a7d7805f1dd5426eb98c915cfdd" target="_top" xlink:title="Turn the red LED on (1) or off (0). ">
<polygon fill="white" stroke="black" points="991.5,-414.958 991.5,-433.958 1041.5,-433.958 1041.5,-414.958 991.5,-414.958"/>
<text text-anchor="middle" x="1016.5" y="-421.958" font-family="Helvetica,sans-Serif" font-size="10.00">redLED</text>
</a>
</g>
</g>
<!-- Node12&#45;&gt;Node17 -->
<g id="edge17" class="edge"><title>Node12&#45;&gt;Node17</title>
<path fill="none" stroke="midnightblue" d="M897.56,-440.935C918.865,-437.959 954.747,-432.946 981.35,-429.229"/>
<polygon fill="midnightblue" stroke="midnightblue" points="981.978,-432.676 991.398,-427.826 981.01,-425.743 981.978,-432.676"/>
</g>
<!-- Node16 -->
<g id="node16" class="node"><title>Node16</title>
<g id="a_node16"><a xlink:href="teensy3__morse__bsp_8cpp.html#ac70998cee1bf97f00aec4a1b4e5a4f60" target="_top" xlink:title="isEarphonePresent">
<polygon fill="white" stroke="black" points="1106,-96.9584 1106,-115.958 1205,-115.958 1205,-96.9584 1106,-96.9584"/>
<text text-anchor="middle" x="1155.5" y="-103.958" font-family="Helvetica,sans-Serif" font-size="10.00">isEarphonePresent</text>
</a>
</g>
</g>
<!-- Node15&#45;&gt;Node16 -->
<g id="edge16" class="edge"><title>Node15&#45;&gt;Node16</title>
<path fill="none" stroke="midnightblue" d="M1047.23,-106.458C1061.43,-106.458 1078.96,-106.458 1095.7,-106.458"/>
<polygon fill="midnightblue" stroke="midnightblue" points="1095.98,-109.958 1105.98,-106.458 1095.98,-102.958 1095.98,-109.958"/>
</g>
<!-- Node19&#45;&gt;Node6 -->
<g id="edge21" class="edge"><title>Node19&#45;&gt;Node6</title>
<path fill="none" stroke="midnightblue" d="M855.284,-412.055C797.536,-428.815 637.684,-472.746 501,-487.458 377.27,-500.776 333.457,-540.749 221,-487.458 198.167,-476.638 204.817,-459.133 185,-443.458 183.176,-442.016 181.225,-440.645 179.204,-439.349"/>
<polygon fill="midnightblue" stroke="midnightblue" points="180.495,-436.057 170.071,-434.162 177.038,-442.144 180.495,-436.057"/>
</g>
<!-- Node20&#45;&gt;Node10 -->
<g id="edge23" class="edge"><title>Node20&#45;&gt;Node10</title>
<path fill="none" stroke="midnightblue" d="M614.801,-415.084C639.773,-428.218 684.723,-451.859 713.689,-467.094"/>
<polygon fill="midnightblue" stroke="midnightblue" points="712.368,-470.354 722.848,-471.911 715.626,-464.158 712.368,-470.354"/>
</g>
<!-- Node20&#45;&gt;Node19 -->
<g id="edge24" class="edge"><title>Node20&#45;&gt;Node19</title>
<path fill="none" stroke="midnightblue" d="M620.945,-405.458C671.624,-405.458 788.146,-405.458 845.046,-405.458"/>
<polygon fill="midnightblue" stroke="midnightblue" points="845.271,-408.958 855.271,-405.458 845.271,-401.958 845.271,-408.958"/>
</g>
<!-- Node22&#45;&gt;Node7 -->
<g id="edge27" class="edge"><title>Node22&#45;&gt;Node7</title>
<path fill="none" stroke="midnightblue" d="M471.22,-397.585C496.193,-391.482 530.844,-383.014 557.051,-376.61"/>
<polygon fill="midnightblue" stroke="midnightblue" points="558.116,-379.953 566.999,-374.179 556.454,-373.153 558.116,-379.953"/>
</g>
<!-- Node22&#45;&gt;Node20 -->
<g id="edge28" class="edge"><title>Node22&#45;&gt;Node20</title>
<path fill="none" stroke="midnightblue" d="M471.22,-405.458C497.178,-405.458 533.59,-405.458 560.109,-405.458"/>
<polygon fill="midnightblue" stroke="midnightblue" points="560.454,-408.958 570.454,-405.458 560.454,-401.958 560.454,-408.958"/>
</g>
<!-- Node23&#45;&gt;Node21 -->
<g id="edge30" class="edge"><title>Node23&#45;&gt;Node21</title>
<path fill="none" stroke="midnightblue" d="M339.089,-360.383C347.711,-359.333 356.682,-358.241 365.54,-357.162"/>
<polygon fill="midnightblue" stroke="midnightblue" points="365.964,-360.636 375.467,-355.953 365.117,-353.688 365.964,-360.636"/>
</g>
<!-- Node23&#45;&gt;Node22 -->
<g id="edge31" class="edge"><title>Node23&#45;&gt;Node22</title>
<path fill="none" stroke="midnightblue" d="M320.365,-377.047C343.167,-382.602 371.861,-389.591 395.083,-395.248"/>
<polygon fill="midnightblue" stroke="midnightblue" points="394.451,-398.696 404.996,-397.662 396.108,-391.895 394.451,-398.696"/>
</g>
<!-- Node24&#45;&gt;Node6 -->
<g id="edge33" class="edge"><title>Node24&#45;&gt;Node6</title>
<path fill="none" stroke="midnightblue" d="M240.73,-555.535C233.516,-552.379 226.515,-548.039 221,-542.458 190.718,-511.816 214.334,-484.01 185,-452.458 179.57,-446.618 171.961,-442.359 164.904,-438.735"/>
<polygon fill="midnightblue" stroke="midnightblue" points="166.373,-435.555 155.879,-434.099 163.175,-441.782 166.373,-435.555"/>
</g>
<!-- Node25&#45;&gt;Node22 -->
<g id="edge36" class="edge"><title>Node25&#45;&gt;Node22</title>
<path fill="none" stroke="midnightblue" d="M308.173,-436.839C332.119,-431.006 367.386,-422.416 394.968,-415.697"/>
<polygon fill="midnightblue" stroke="midnightblue" points="395.86,-419.082 404.748,-413.315 394.203,-412.281 395.86,-419.082"/>
</g>
<!-- Node26 -->
<g id="node26" class="node"><title>Node26</title>
<g id="a_node26"><a xlink:href="settings_8cpp.html#a7b4efa097b94f9a90c5bbafcdf93fe4f" target="_top" xlink:title="getUptime">
<polygon fill="white" stroke="black" points="407,-433.958 407,-452.958 469,-452.958 469,-433.958 407,-433.958"/>
<text text-anchor="middle" x="438" y="-440.958" font-family="Helvetica,sans-Serif" font-size="10.00">getUptime</text>
</a>
</g>
</g>
<!-- Node25&#45;&gt;Node26 -->
<g id="edge35" class="edge"><title>Node25&#45;&gt;Node26</title>
<path fill="none" stroke="midnightblue" d="M308.173,-443.458C332.633,-443.458 368.905,-443.458 396.735,-443.458"/>
<polygon fill="midnightblue" stroke="midnightblue" points="396.945,-446.958 406.945,-443.458 396.945,-439.958 396.945,-446.958"/>
</g>
<!-- Node28 -->
<g id="node28" class="node"><title>Node28</title>
<g id="a_node28"><a xlink:href="class_voltage_monitor.html#a70902b84f9864c95d5553a0644a64f4f" target="_top" xlink:title="Return the latest voltage reading. ">
<polygon fill="white" stroke="black" points="375,-585.958 375,-604.958 501,-604.958 501,-585.958 375,-585.958"/>
<text text-anchor="middle" x="438" y="-592.958" font-family="Helvetica,sans-Serif" font-size="10.00">VoltageMonitor::getValue</text>
</a>
</g>
</g>
<!-- Node27&#45;&gt;Node28 -->
<g id="edge38" class="edge"><title>Node27&#45;&gt;Node28</title>
<path fill="none" stroke="midnightblue" d="M317.182,-595.458C331.344,-595.458 348.117,-595.458 364.56,-595.458"/>
<polygon fill="midnightblue" stroke="midnightblue" points="364.728,-598.958 374.728,-595.458 364.728,-591.958 364.728,-598.958"/>
</g>
<!-- Node29 -->
<g id="node29" class="node"><title>Node29</title>
<g id="a_node29"><a xlink:href="actions_8cpp.html#a2b8c3769e2aa32a2da9e2f3f85ac73dd" target="_top" xlink:title="A sample ADC reading is taken each time through the main loop, and written to a ring buffer...">
<polygon fill="white" stroke="black" points="539.5,-585.958 539.5,-604.958 651.5,-604.958 651.5,-585.958 539.5,-585.958"/>
<text text-anchor="middle" x="595.5" y="-592.958" font-family="Helvetica,sans-Serif" font-size="10.00">getVoltagePollInterval</text>
</a>
</g>
</g>
<!-- Node28&#45;&gt;Node29 -->
<g id="edge39" class="edge"><title>Node28&#45;&gt;Node29</title>
<path fill="none" stroke="midnightblue" d="M501.352,-595.458C510.438,-595.458 519.816,-595.458 528.963,-595.458"/>
<polygon fill="midnightblue" stroke="midnightblue" points="529.163,-598.958 539.163,-595.458 529.163,-591.958 529.163,-598.958"/>
</g>
<!-- Node30 -->
<g id="node30" class="node"><title>Node30</title>
<g id="a_node30"><a xlink:href="class_voltage_monitor.html#a75871331808c34b40d04059ee2af0f27" target="_top" xlink:title="Filter and scale raw ADC values to millivolts. ">
<polygon fill="white" stroke="black" points="537,-547.958 537,-566.958 654,-566.958 654,-547.958 537,-547.958"/>
<text text-anchor="middle" x="595.5" y="-554.958" font-family="Helvetica,sans-Serif" font-size="10.00">VoltageMonitor::update</text>
</a>
</g>
</g>
<!-- Node28&#45;&gt;Node30 -->
<g id="edge40" class="edge"><title>Node28&#45;&gt;Node30</title>
<path fill="none" stroke="midnightblue" d="M478.239,-585.869C498.759,-580.855 524.067,-574.67 545.825,-569.353"/>
<polygon fill="midnightblue" stroke="midnightblue" points="546.66,-572.752 555.543,-566.978 544.998,-565.952 546.66,-572.752"/>
</g>
<!-- Node31&#45;&gt;Node7 -->
<g id="edge42" class="edge"><title>Node31&#45;&gt;Node7</title>
<path fill="none" stroke="midnightblue" d="M312.844,-248.327C358.59,-242.725 443.696,-239.085 501,-277.458 528.763,-296.05 512.178,-321.091 537,-343.458 542.933,-348.805 550.226,-353.063 557.601,-356.417"/>
<polygon fill="midnightblue" stroke="midnightblue" points="556.309,-359.67 566.891,-360.195 558.946,-353.186 556.309,-359.67"/>
</g>
<!-- Node32&#45;&gt;Node7 -->
<g id="edge44" class="edge"><title>Node32&#45;&gt;Node7</title>
<path fill="none" stroke="midnightblue" d="M450.511,-187.141C463.766,-198.68 485.679,-218.982 501,-239.458 521.018,-266.212 517.489,-278.333 537,-305.458 548.814,-321.882 564.571,-338.591 576.603,-350.518"/>
<polygon fill="midnightblue" stroke="midnightblue" points="574.286,-353.147 583.893,-357.614 579.169,-348.131 574.286,-353.147"/>
</g>
<!-- Node32&#45;&gt;Node18 -->
<g id="edge45" class="edge"><title>Node32&#45;&gt;Node18</title>
<path fill="none" stroke="midnightblue" d="M466.588,-185.655C477.72,-189.584 490.41,-194.883 501,-201.458 519.44,-212.908 518.203,-223.605 537,-234.458 588.857,-264.4 737.564,-295.441 794,-315.458 810.992,-321.485 829.675,-328.803 845.052,-335.014"/>
<polygon fill="midnightblue" stroke="midnightblue" points="844.047,-338.384 854.629,-338.911 846.686,-331.9 844.047,-338.384"/>
</g>
<!-- Node32&#45;&gt;Node19 -->
<g id="edge49" class="edge"><title>Node32&#45;&gt;Node19</title>
<path fill="none" stroke="midnightblue" d="M448.439,-187.261C468.881,-208.314 517.01,-256.878 537,-268.458 640.513,-328.426 686.301,-296.384 794,-348.458 817.199,-359.676 841.252,-376.774 857.549,-389.318"/>
<polygon fill="midnightblue" stroke="midnightblue" points="855.722,-392.333 865.75,-395.752 860.043,-386.826 855.722,-392.333"/>
</g>
<!-- Node32&#45;&gt;Node20 -->
<g id="edge47" class="edge"><title>Node32&#45;&gt;Node20</title>
<path fill="none" stroke="midnightblue" d="M442.955,-187.02C459.16,-226.025 520.4,-371.73 537,-386.458 543.67,-392.376 552.231,-396.458 560.699,-399.272"/>
<polygon fill="midnightblue" stroke="midnightblue" points="559.903,-402.684 570.477,-402.025 561.801,-395.946 559.903,-402.684"/>
</g>
<!-- Node33 -->
<g id="node33" class="node"><title>Node33</title>
<g id="a_node33"><a xlink:href="settings_8cpp.html#af33969eee39a5fffb3ceb43a77772dc9" target="_top" xlink:title="Set the transmission frequency (side tone). ">
<polygon fill="white" stroke="black" points="568.5,-205.958 568.5,-224.958 622.5,-224.958 622.5,-205.958 568.5,-205.958"/>
<text text-anchor="middle" x="595.5" y="-212.958" font-family="Helvetica,sans-Serif" font-size="10.00">setTxHz</text>
</a>
</g>
</g>
<!-- Node32&#45;&gt;Node33 -->
<g id="edge46" class="edge"><title>Node32&#45;&gt;Node33</title>
<path fill="none" stroke="midnightblue" d="M466.8,-184.252C492.475,-190.526 530.753,-199.88 558.704,-206.711"/>
<polygon fill="midnightblue" stroke="midnightblue" points="557.947,-210.129 568.492,-209.103 559.609,-203.329 557.947,-210.129"/>
</g>
<!-- Node34 -->
<g id="node34" class="node"><title>Node34</title>
<g id="a_node34"><a xlink:href="morse__token_8h.html#af9722722b93869c9f37ef10573b31655" target="_top" xlink:title="wordBits">
<polygon fill="white" stroke="black" points="568,-129.958 568,-148.958 623,-148.958 623,-129.958 568,-129.958"/>
<text text-anchor="middle" x="595.5" y="-136.958" font-family="Helvetica,sans-Serif" font-size="10.00">wordBits</text>
</a>
</g>
</g>
<!-- Node32&#45;&gt;Node34 -->
<g id="edge48" class="edge"><title>Node32&#45;&gt;Node34</title>
<path fill="none" stroke="midnightblue" d="M466.8,-170.665C492.32,-164.428 530.289,-155.15 558.195,-148.33"/>
<polygon fill="midnightblue" stroke="midnightblue" points="559.095,-151.713 567.978,-145.94 557.433,-144.914 559.095,-151.713"/>
</g>
<!-- Node35 -->
<g id="node35" class="node"><title>Node35</title>
<g id="a_node35"><a xlink:href="libmorse_8cpp.html#a2ec9b75e50f41e98e97ff42e6fa9ca54" target="_top" xlink:title="Has it been long enough that the word under construction should be considered complete? ">
<polygon fill="white" stroke="black" points="706.5,-186.958 706.5,-205.958 777.5,-205.958 777.5,-186.958 706.5,-186.958"/>
<text text-anchor="middle" x="742" y="-193.958" font-family="Helvetica,sans-Serif" font-size="10.00">wordExpired</text>
</a>
</g>
</g>
<!-- Node32&#45;&gt;Node35 -->
<g id="edge50" class="edge"><title>Node32&#45;&gt;Node35</title>
<path fill="none" stroke="midnightblue" d="M466.601,-179.195C518.877,-182.484 632.758,-189.648 696.146,-193.636"/>
<polygon fill="midnightblue" stroke="midnightblue" points="696.043,-197.137 706.243,-194.272 696.483,-190.151 696.043,-197.137"/>
</g>
<!-- Node36 -->
<g id="node36" class="node"><title>Node36</title>
<g id="a_node36"><a xlink:href="actions_8cpp.html#a40fea7a424d292e239a5e7a8271728ec" target="_top" xlink:title="txTick">
<polygon fill="white" stroke="black" points="573.5,-53.9584 573.5,-72.9584 617.5,-72.9584 617.5,-53.9584 573.5,-53.9584"/>
<text text-anchor="middle" x="595.5" y="-60.9584" font-family="Helvetica,sans-Serif" font-size="10.00">txTick</text>
</a>
</g>
</g>
<!-- Node32&#45;&gt;Node36 -->
<g id="edge52" class="edge"><title>Node32&#45;&gt;Node36</title>
<path fill="none" stroke="midnightblue" d="M451.99,-167.935C478.679,-148.369 539.924,-103.469 572.761,-79.3958"/>
<polygon fill="midnightblue" stroke="midnightblue" points="575.221,-81.9317 581.217,-73.1964 571.083,-76.2863 575.221,-81.9317"/>
</g>
<!-- Node35&#45;&gt;Node9 -->
<g id="edge51" class="edge"><title>Node35&#45;&gt;Node9</title>
<path fill="none" stroke="midnightblue" d="M765.512,-205.999C787.431,-215.288 820.953,-229.494 845.611,-239.944"/>
<polygon fill="midnightblue" stroke="midnightblue" points="844.341,-243.207 854.914,-243.887 847.073,-236.762 844.341,-243.207"/>
</g>
<!-- Node37 -->
<g id="node37" class="node"><title>Node37</title>
<g id="a_node37"><a xlink:href="sound_8cpp.html#a77ffd11f8a990ba2130061186e49535a" target="_top" xlink:title="Play a PWM tone at a given frequency and duration. ">
<polygon fill="white" stroke="black" points="714,-15.9584 714,-34.9584 770,-34.9584 770,-15.9584 714,-15.9584"/>
<text text-anchor="middle" x="742" y="-22.9584" font-family="Helvetica,sans-Serif" font-size="10.00">playTone</text>
</a>
</g>
</g>
<!-- Node36&#45;&gt;Node37 -->
<g id="edge53" class="edge"><title>Node36&#45;&gt;Node37</title>
<path fill="none" stroke="midnightblue" d="M617.512,-57.9329C640.069,-52.0008 676.356,-42.4583 703.77,-35.2491"/>
<polygon fill="midnightblue" stroke="midnightblue" points="705.014,-38.541 713.795,-32.6127 703.233,-31.7711 705.014,-38.541"/>
</g>
<!-- Node39 -->
<g id="node39" class="node"><title>Node39</title>
<g id="a_node39"><a xlink:href="settings_8cpp.html#ad02597259b5753e0c98605bce44a9fc8" target="_top" xlink:title="Get the default dit duration in microseconds. ">
<polygon fill="white" stroke="black" points="690,-53.9584 690,-72.9584 794,-72.9584 794,-53.9584 690,-53.9584"/>
<text text-anchor="middle" x="742" y="-60.9584" font-family="Helvetica,sans-Serif" font-size="10.00">getDitMicrosDefault</text>
</a>
</g>
</g>
<!-- Node36&#45;&gt;Node39 -->
<g id="edge57" class="edge"><title>Node36&#45;&gt;Node39</title>
<path fill="none" stroke="midnightblue" d="M617.512,-63.4584C633.938,-63.4584 657.645,-63.4584 679.905,-63.4584"/>
<polygon fill="midnightblue" stroke="midnightblue" points="679.999,-66.9585 689.999,-63.4584 679.999,-59.9585 679.999,-66.9585"/>
</g>
<!-- Node37&#45;&gt;Node14 -->
<g id="edge54" class="edge"><title>Node37&#45;&gt;Node14</title>
<path fill="none" stroke="midnightblue" d="M770.257,-33.2309C820.03,-47.5172 921.094,-76.9927 927,-82.4584 987.896,-138.815 1007.61,-242.487 1013.36,-285.719"/>
<polygon fill="midnightblue" stroke="midnightblue" points="1009.9,-286.28 1014.58,-295.783 1016.85,-285.433 1009.9,-286.28"/>
</g>
<!-- Node37&#45;&gt;Node15 -->
<g id="edge55" class="edge"><title>Node37&#45;&gt;Node15</title>
<path fill="none" stroke="midnightblue" d="M770.077,-25.3142C806.755,-25.932 873.757,-29.9661 927,-49.4584 953.013,-58.982 979.248,-77.211 996.323,-90.4977"/>
<polygon fill="midnightblue" stroke="midnightblue" points="994.369,-93.4165 1004.37,-96.9229 998.738,-87.9471 994.369,-93.4165"/>
</g>
<!-- Node38 -->
<g id="node38" class="node"><title>Node38</title>
<g id="a_node38"><a xlink:href="teensy3__morse__bsp_8cpp.html#a36cda3a6dd77f2141cfc703c55a47ff8" target="_top" xlink:title="getDuty">
<polygon fill="white" stroke="black" points="853,-91.9584 853,-110.958 904,-110.958 904,-91.9584 853,-91.9584"/>
<text text-anchor="middle" x="878.5" y="-98.9584" font-family="Helvetica,sans-Serif" font-size="10.00">getDuty</text>
</a>
</g>
</g>
<!-- Node37&#45;&gt;Node38 -->
<g id="edge56" class="edge"><title>Node37&#45;&gt;Node38</title>
<path fill="none" stroke="midnightblue" d="M770.109,-33.3684C778.102,-36.271 786.667,-39.9694 794,-44.4584 812.512,-55.7901 812.146,-65.1152 830,-77.4584 835.063,-80.959 840.709,-84.2631 846.29,-87.2359"/>
<polygon fill="midnightblue" stroke="midnightblue" points="845.005,-90.5085 855.508,-91.9022 848.167,-84.2631 845.005,-90.5085"/>
</g>
<!-- Node40&#45;&gt;Node37 -->
<g id="edge60" class="edge"><title>Node40&#45;&gt;Node37</title>
<path fill="none" stroke="midnightblue" d="M619.078,-25.4584C641.712,-25.4584 676.952,-25.4584 703.736,-25.4584"/>
<polygon fill="midnightblue" stroke="midnightblue" points="703.905,-28.9585 713.905,-25.4584 703.905,-21.9585 703.905,-28.9585"/>
</g>
<!-- Node40&#45;&gt;Node39 -->
<g id="edge61" class="edge"><title>Node40&#45;&gt;Node39</title>
<path fill="none" stroke="midnightblue" d="M619.078,-31.3959C639.33,-36.7215 669.673,-44.701 695.021,-51.367"/>
<polygon fill="midnightblue" stroke="midnightblue" points="694.255,-54.7845 704.816,-53.9429 696.035,-48.0147 694.255,-54.7845"/>
</g>
</g>
</svg>
