<?xml version="1.0" encoding="UTF-8" standalone="no"?>
<!DOCTYPE svg PUBLIC "-//W3C//DTD SVG 1.1//EN"
 "http://www.w3.org/Graphics/SVG/1.1/DTD/svg11.dtd">
<!-- Generated by graphviz version 2.38.0 (20140413.2041)
 -->
<!-- Title: readEvalPrint Pages: 1 -->
<!--zoomable 1168 -->
<svg id="main" version="1.1" xmlns="http://www.w3.org/2000/svg" xmlns:xlink="http://www.w3.org/1999/xlink" xml:space="preserve" onload="init(evt)">
<style type="text/css"><![CDATA[
.edge:hover path { stroke: red; }
.edge:hover polygon { stroke: red; fill: red; }
]]></style>
<script type="text/javascript"><![CDATA[
var edges = document.getElementsByTagName('g');
if (edges && edges.length) {
  for (var i=0;i<edges.length;i++) {
    if (edges[i].id.substr(0,4)=='edge') {
      edges[i].setAttribute('class','edge');
    }
  }
}
]]></script>
        <defs>
                <circle id="rim" cx="0" cy="0" r="7"/>
                <circle id="rim2" cx="0" cy="0" r="3.5"/>
                <g id="zoomPlus">
                        <use xlink:href="#rim" fill="#404040">
                                <set attributeName="fill" to="#808080" begin="zoomplus.mouseover" end="zoomplus.mouseout"/>
                        </use>
                        <path d="M-4,0h8M0,-4v8" fill="none" stroke="white" stroke-width="1.5" pointer-events="none"/>
                </g>
                <g id="zoomMin">
                        <use xlink:href="#rim" fill="#404040">
                                <set attributeName="fill" to="#808080" begin="zoomminus.mouseover" end="zoomminus.mouseout"/>
                        </use>
                        <path d="M-4,0h8" fill="none" stroke="white" stroke-width="1.5" pointer-events="none"/>
                </g>
                <g id="dirArrow">
                        <path fill="none" stroke="white" stroke-width="1.5" d="M0,-3.0v7 M-2.5,-0.5L0,-3.0L2.5,-0.5"/>
                </g>
               <g id="resetDef">
                       <use xlink:href="#rim2" fill="#404040">
                               <set attributeName="fill" to="#808080" begin="reset.mouseover" end="reset.mouseout"/>
                       </use>
               </g>
        </defs>

<script type="text/javascript">
var viewWidth = 468;
var viewHeight = 1168;
var sectionId = 'dynsection-26';
</script>
<script xlink:href="svgpan.js"/>
<svg id="graph" class="graph">
<g id="viewport">
<title>readEvalPrint</title>
<polygon fill="white" stroke="none" points="-4,4 -4,-1164 464,-1164 464,4 -4,4"/>
<!-- Node1 -->
<g id="node1" class="node"><title>Node1</title>
<polygon fill="#bfbfbf" stroke="black" points="0,-494.5 0,-513.5 75,-513.5 75,-494.5 0,-494.5"/>
<text text-anchor="middle" x="37.5" y="-501.5" font-family="Helvetica,sans-Serif" font-size="10.00">readEvalPrint</text>
</g>
<!-- Node2 -->
<g id="node2" class="node"><title>Node2</title>
<g id="a_node2"><a xlink:href="actions_8cpp.html#a7cb54685ddb3c45facf6daadcc4a5f4b" target="_top" xlink:title="Report settings and measurements over the serial port. ">
<polygon fill="white" stroke="black" points="163,-874.5 163,-893.5 214,-893.5 214,-874.5 163,-874.5"/>
<text text-anchor="middle" x="188.5" y="-881.5" font-family="Helvetica,sans-Serif" font-size="10.00">printLog</text>
</a>
</g>
</g>
<!-- Node1&#45;&gt;Node2 -->
<g id="edge1" class="edge"><title>Node1&#45;&gt;Node2</title>
<path fill="none" stroke="midnightblue" d="M39.0832,-513.774C42.3982,-566.05 60.5383,-812.202 111,-865 121.652,-876.145 137.743,-881.161 152.424,-883.283"/>
<polygon fill="midnightblue" stroke="midnightblue" points="152.457,-886.805 162.767,-884.363 153.185,-879.843 152.457,-886.805"/>
</g>
<!-- Node3 -->
<g id="node3" class="node"><title>Node3</title>
<g id="a_node3"><a xlink:href="libmorse_8h.html#a485b054263abcc51f9987c8a9c824602" target="_top" xlink:title="printLabelValueUnits">
<polygon fill="white" stroke="black" points="327.5,-1140.5 327.5,-1159.5 434.5,-1159.5 434.5,-1140.5 327.5,-1140.5"/>
<text text-anchor="middle" x="381" y="-1147.5" font-family="Helvetica,sans-Serif" font-size="10.00">printLabelValueUnits</text>
</a>
</g>
</g>
<!-- Node1&#45;&gt;Node3 -->
<g id="edge23" class="edge"><title>Node1&#45;&gt;Node3</title>
<path fill="none" stroke="midnightblue" d="M39.2969,-513.804C44.0735,-571.059 70.0877,-862.374 111,-941 155.537,-1026.59 198.365,-1024.19 266,-1093 282.308,-1109.59 281.877,-1119.33 302,-1131 306.822,-1133.8 312.042,-1136.18 317.417,-1138.22"/>
<polygon fill="midnightblue" stroke="midnightblue" points="316.614,-1141.64 327.208,-1141.52 318.85,-1135.01 316.614,-1141.64"/>
</g>
<!-- Node19 -->
<g id="node19" class="node"><title>Node19</title>
<g id="a_node19"><a xlink:href="actions_8cpp.html#aeb93e25e95d089d3e1c79baf4a71b594" target="_top" xlink:title="Print documentation for the commands via the serial port. ">
<polygon fill="white" stroke="black" points="155.5,-912.5 155.5,-931.5 221.5,-931.5 221.5,-912.5 155.5,-912.5"/>
<text text-anchor="middle" x="188.5" y="-919.5" font-family="Helvetica,sans-Serif" font-size="10.00">printBanner</text>
</a>
</g>
</g>
<!-- Node1&#45;&gt;Node19 -->
<g id="edge18" class="edge"><title>Node1&#45;&gt;Node19</title>
<path fill="none" stroke="midnightblue" d="M38.8773,-513.684C41.2257,-568.938 55.6006,-843.954 111,-903 119.866,-912.45 132.639,-917.508 145.216,-920.131"/>
<polygon fill="midnightblue" stroke="midnightblue" points="144.75,-923.601 155.182,-921.75 145.873,-916.692 144.75,-923.601"/>
</g>
<!-- Node20 -->
<g id="node20" class="node"><title>Node20</title>
<g id="a_node20"><a xlink:href="actions_8cpp.html#a578278ac08b3288454ac5a86fbb15d76" target="_top" xlink:title="Prompt for a value from the serial port. ">
<polygon fill="white" stroke="black" points="156.5,-608.5 156.5,-627.5 220.5,-627.5 220.5,-608.5 156.5,-608.5"/>
<text text-anchor="middle" x="188.5" y="-615.5" font-family="Helvetica,sans-Serif" font-size="10.00">readRange</text>
</a>
</g>
</g>
<!-- Node1&#45;&gt;Node20 -->
<g id="edge19" class="edge"><title>Node1&#45;&gt;Node20</title>
<path fill="none" stroke="midnightblue" d="M42.9798,-513.53C52.5699,-532.848 77.012,-576.675 111,-599 121.455,-605.867 134.197,-610.253 146.26,-613.054"/>
<polygon fill="midnightblue" stroke="midnightblue" points="145.673,-616.506 156.167,-615.053 147.057,-609.644 145.673,-616.506"/>
</g>
<!-- Node22 -->
<g id="node22" class="node"><title>Node22</title>
<g id="a_node22"><a xlink:href="settings_8cpp.html#a81ea267d0c442d02cd93f2f6579f01d8" target="_top" xlink:title="The default low&#45;voltage threshold is the minimum voltage. ">
<polygon fill="white" stroke="black" points="111,-836.5 111,-855.5 266,-855.5 266,-836.5 111,-836.5"/>
<text text-anchor="middle" x="188.5" y="-843.5" font-family="Helvetica,sans-Serif" font-size="10.00">getLowVoltageThresholdDefault</text>
</a>
</g>
</g>
<!-- Node1&#45;&gt;Node22 -->
<g id="edge21" class="edge"><title>Node1&#45;&gt;Node22</title>
<path fill="none" stroke="midnightblue" d="M39.3248,-513.7C43.6642,-562.467 65.4003,-780.356 111,-827 112.282,-828.312 113.64,-829.538 115.062,-830.685"/>
<polygon fill="midnightblue" stroke="midnightblue" points="113.542,-833.873 123.828,-836.415 117.372,-828.014 113.542,-833.873"/>
</g>
<!-- Node23 -->
<g id="node23" class="node"><title>Node23</title>
<g id="a_node23"><a xlink:href="settings_8cpp.html#a8101cb931b50444b67c6cc9e532f6287" target="_top" xlink:title="getMaximumVoltage">
<polygon fill="white" stroke="black" points="135.5,-798.5 135.5,-817.5 241.5,-817.5 241.5,-798.5 135.5,-798.5"/>
<text text-anchor="middle" x="188.5" y="-805.5" font-family="Helvetica,sans-Serif" font-size="10.00">getMaximumVoltage</text>
</a>
</g>
</g>
<!-- Node1&#45;&gt;Node23 -->
<g id="edge22" class="edge"><title>Node1&#45;&gt;Node23</title>
<path fill="none" stroke="midnightblue" d="M39.6402,-513.744C45.1315,-559.036 70.2712,-748.501 111,-789 115.289,-793.265 120.378,-796.624 125.863,-799.262"/>
<polygon fill="midnightblue" stroke="midnightblue" points="124.809,-802.61 135.395,-803.054 127.397,-796.106 124.809,-802.61"/>
</g>
<!-- Node24 -->
<g id="node24" class="node"><title>Node24</title>
<g id="a_node24"><a xlink:href="settings_8cpp.html#a17a6da0c26e4ba90eead6a336997f59c" target="_top" xlink:title="Set the low&#45;voltage alarm threshold. ">
<polygon fill="white" stroke="black" points="126.5,-760.5 126.5,-779.5 250.5,-779.5 250.5,-760.5 126.5,-760.5"/>
<text text-anchor="middle" x="188.5" y="-767.5" font-family="Helvetica,sans-Serif" font-size="10.00">setLowVoltageThreshold</text>
</a>
</g>
</g>
<!-- Node1&#45;&gt;Node24 -->
<g id="edge24" class="edge"><title>Node1&#45;&gt;Node24</title>
<path fill="none" stroke="midnightblue" d="M38.1783,-513.743C37.5211,-550.659 40.353,-683.264 111,-751 112.945,-752.865 115.043,-754.555 117.259,-756.086"/>
<polygon fill="midnightblue" stroke="midnightblue" points="115.897,-759.338 126.319,-761.241 119.358,-753.254 115.897,-759.338"/>
</g>
<!-- Node25 -->
<g id="node25" class="node"><title>Node25</title>
<g id="a_node25"><a xlink:href="settings_8cpp.html#a3b400380ca80d3134cc0ed60040a56de" target="_top" xlink:title="Set the high&#45;voltage alarm threshold. ">
<polygon fill="white" stroke="black" points="125.5,-722.5 125.5,-741.5 251.5,-741.5 251.5,-722.5 125.5,-722.5"/>
<text text-anchor="middle" x="188.5" y="-729.5" font-family="Helvetica,sans-Serif" font-size="10.00">setHighVoltageThreshold</text>
</a>
</g>
</g>
<!-- Node1&#45;&gt;Node25 -->
<g id="edge25" class="edge"><title>Node1&#45;&gt;Node25</title>
<path fill="none" stroke="midnightblue" d="M38.7707,-513.615C40.2451,-546.727 49.7485,-657.053 111,-713 112.724,-714.575 114.558,-716.024 116.48,-717.357"/>
<polygon fill="midnightblue" stroke="midnightblue" points="114.986,-720.536 125.398,-722.492 118.479,-714.469 114.986,-720.536"/>
</g>
<!-- Node26 -->
<g id="node26" class="node"><title>Node26</title>
<g id="a_node26"><a xlink:href="settings_8cpp.html#ab053475f1136a97fda0c5cf8db0ca9e0" target="_top" xlink:title="Set the dit duration in microseconds. ">
<polygon fill="white" stroke="black" points="152.5,-684.5 152.5,-703.5 224.5,-703.5 224.5,-684.5 152.5,-684.5"/>
<text text-anchor="middle" x="188.5" y="-691.5" font-family="Helvetica,sans-Serif" font-size="10.00">setDitMicros</text>
</a>
</g>
</g>
<!-- Node1&#45;&gt;Node26 -->
<g id="edge26" class="edge"><title>Node1&#45;&gt;Node26</title>
<path fill="none" stroke="midnightblue" d="M39.6362,-513.899C43.5557,-543.303 59.2527,-630.825 111,-675 119.855,-682.559 131.274,-687.193 142.574,-690.01"/>
<polygon fill="midnightblue" stroke="midnightblue" points="141.904,-693.445 152.406,-692.046 143.324,-686.591 141.904,-693.445"/>
</g>
<!-- Node27 -->
<g id="node27" class="node"><title>Node27</title>
<g id="a_node27"><a xlink:href="settings_8cpp.html#aa03924c8c19d92479a55b69a20804c8a" target="_top" xlink:title="Returns the buffer size so updates can be done safely. ">
<polygon fill="white" stroke="black" points="118,-646.5 118,-665.5 259,-665.5 259,-646.5 118,-646.5"/>
<text text-anchor="middle" x="188.5" y="-653.5" font-family="Helvetica,sans-Serif" font-size="10.00">getAnnouncementBufferSize</text>
</a>
</g>
</g>
<!-- Node1&#45;&gt;Node27 -->
<g id="edge27" class="edge"><title>Node1&#45;&gt;Node27</title>
<path fill="none" stroke="midnightblue" d="M40.9053,-513.809C47.5083,-538.585 68.3307,-604.05 111,-637 113.335,-638.804 115.82,-640.438 118.413,-641.919"/>
<polygon fill="midnightblue" stroke="midnightblue" points="117.058,-645.152 127.58,-646.387 120.124,-638.86 117.058,-645.152"/>
</g>
<!-- Node28 -->
<g id="node28" class="node"><title>Node28</title>
<g id="a_node28"><a xlink:href="actions_8cpp.html#a76fe6d50deae647113180dc5f9f844c6" target="_top" xlink:title="Get a message format from the serial console. ">
<polygon fill="white" stroke="black" points="135.5,-304.5 135.5,-323.5 241.5,-323.5 241.5,-304.5 135.5,-304.5"/>
<text text-anchor="middle" x="188.5" y="-311.5" font-family="Helvetica,sans-Serif" font-size="10.00">readMessageFormat</text>
</a>
</g>
</g>
<!-- Node1&#45;&gt;Node28 -->
<g id="edge28" class="edge"><title>Node1&#45;&gt;Node28</title>
<path fill="none" stroke="midnightblue" d="M39.6362,-494.101C43.5557,-464.697 59.2527,-377.175 111,-333 115.467,-329.186 120.587,-326.117 126.015,-323.651"/>
<polygon fill="midnightblue" stroke="midnightblue" points="127.307,-326.904 135.38,-320.043 124.79,-320.372 127.307,-326.904"/>
</g>
<!-- Node33 -->
<g id="node33" class="node"><title>Node33</title>
<g id="a_node33"><a xlink:href="settings_8cpp.html#a86fdb2505d80e28861e86de2e9d75204" target="_top" xlink:title="getAnnouncementBuffer">
<polygon fill="white" stroke="black" points="127.5,-570.5 127.5,-589.5 249.5,-589.5 249.5,-570.5 127.5,-570.5"/>
<text text-anchor="middle" x="188.5" y="-577.5" font-family="Helvetica,sans-Serif" font-size="10.00">getAnnouncementBuffer</text>
</a>
</g>
</g>
<!-- Node1&#45;&gt;Node33 -->
<g id="edge33" class="edge"><title>Node1&#45;&gt;Node33</title>
<path fill="none" stroke="midnightblue" d="M47.8989,-513.593C60.911,-526.321 85.6857,-548.62 111,-561 115.917,-563.405 121.166,-565.522 126.522,-567.383"/>
<polygon fill="midnightblue" stroke="midnightblue" points="125.64,-570.775 136.23,-570.462 127.756,-564.102 125.64,-570.775"/>
</g>
<!-- Node34 -->
<g id="node34" class="node"><title>Node34</title>
<g id="a_node34"><a xlink:href="settings_8cpp.html#acc02e70b9ca256c3768520b6f643bcf5" target="_top" xlink:title="Returns the buffer size so updates can be done safely. ">
<polygon fill="white" stroke="black" points="129,-532.5 129,-551.5 248,-551.5 248,-532.5 129,-532.5"/>
<text text-anchor="middle" x="188.5" y="-539.5" font-family="Helvetica,sans-Serif" font-size="10.00">getAlarmLowBufferSize</text>
</a>
</g>
</g>
<!-- Node1&#45;&gt;Node34 -->
<g id="edge34" class="edge"><title>Node1&#45;&gt;Node34</title>
<path fill="none" stroke="midnightblue" d="M74.6161,-513.563C86.2258,-516.61 99.1487,-519.975 111,-523 119.959,-525.286 129.517,-527.689 138.734,-529.988"/>
<polygon fill="midnightblue" stroke="midnightblue" points="138.009,-533.414 148.558,-532.431 139.698,-526.621 138.009,-533.414"/>
</g>
<!-- Node35 -->
<g id="node35" class="node"><title>Node35</title>
<g id="a_node35"><a xlink:href="settings_8cpp.html#ae9dcab258acba34c7148936fc8125046" target="_top" xlink:title="getAlarmLowBuffer">
<polygon fill="white" stroke="black" points="138.5,-494.5 138.5,-513.5 238.5,-513.5 238.5,-494.5 138.5,-494.5"/>
<text text-anchor="middle" x="188.5" y="-501.5" font-family="Helvetica,sans-Serif" font-size="10.00">getAlarmLowBuffer</text>
</a>
</g>
</g>
<!-- Node1&#45;&gt;Node35 -->
<g id="edge35" class="edge"><title>Node1&#45;&gt;Node35</title>
<path fill="none" stroke="midnightblue" d="M75.3315,-504C91.3266,-504 110.465,-504 128.367,-504"/>
<polygon fill="midnightblue" stroke="midnightblue" points="128.443,-507.5 138.443,-504 128.443,-500.5 128.443,-507.5"/>
</g>
<!-- Node36 -->
<g id="node36" class="node"><title>Node36</title>
<g id="a_node36"><a xlink:href="settings_8cpp.html#a6d9005af9908b251e6c2fcf82f26a2c0" target="_top" xlink:title="Returns the buffer size so updates can be done safely. ">
<polygon fill="white" stroke="black" points="127.5,-456.5 127.5,-475.5 249.5,-475.5 249.5,-456.5 127.5,-456.5"/>
<text text-anchor="middle" x="188.5" y="-463.5" font-family="Helvetica,sans-Serif" font-size="10.00">getAlarmHighBufferSize</text>
</a>
</g>
</g>
<!-- Node1&#45;&gt;Node36 -->
<g id="edge36" class="edge"><title>Node1&#45;&gt;Node36</title>
<path fill="none" stroke="midnightblue" d="M74.6161,-494.437C86.2258,-491.39 99.1487,-488.025 111,-485 119.959,-482.714 129.517,-480.311 138.734,-478.012"/>
<polygon fill="midnightblue" stroke="midnightblue" points="139.698,-481.379 148.558,-475.569 138.009,-474.586 139.698,-481.379"/>
</g>
<!-- Node37 -->
<g id="node37" class="node"><title>Node37</title>
<g id="a_node37"><a xlink:href="settings_8cpp.html#ae8a6d27a7a56ed065d6e37aad21c1ce2" target="_top" xlink:title="getAlarmHighBuffer">
<polygon fill="white" stroke="black" points="137.5,-418.5 137.5,-437.5 239.5,-437.5 239.5,-418.5 137.5,-418.5"/>
<text text-anchor="middle" x="188.5" y="-425.5" font-family="Helvetica,sans-Serif" font-size="10.00">getAlarmHighBuffer</text>
</a>
</g>
</g>
<!-- Node1&#45;&gt;Node37 -->
<g id="edge37" class="edge"><title>Node1&#45;&gt;Node37</title>
<path fill="none" stroke="midnightblue" d="M47.8989,-494.407C60.911,-481.679 85.6857,-459.38 111,-447 116.277,-444.419 121.934,-442.17 127.697,-440.214"/>
<polygon fill="midnightblue" stroke="midnightblue" points="128.931,-443.495 137.445,-437.19 126.857,-436.809 128.931,-443.495"/>
</g>
<!-- Node38 -->
<g id="node38" class="node"><title>Node38</title>
<g id="a_node38"><a xlink:href="settings_8cpp.html#abffd4cdd469e5aa3bee2e3762c4807a7" target="_top" xlink:title="Set the normal announcement interval in seconds. ">
<polygon fill="white" stroke="black" points="124.5,-380.5 124.5,-399.5 252.5,-399.5 252.5,-380.5 124.5,-380.5"/>
<text text-anchor="middle" x="188.5" y="-387.5" font-family="Helvetica,sans-Serif" font-size="10.00">setAnnouncementInterval</text>
</a>
</g>
</g>
<!-- Node1&#45;&gt;Node38 -->
<g id="edge38" class="edge"><title>Node1&#45;&gt;Node38</title>
<path fill="none" stroke="midnightblue" d="M42.9798,-494.47C52.5699,-475.152 77.012,-431.325 111,-409 114.16,-406.925 117.528,-405.076 121.024,-403.429"/>
<polygon fill="midnightblue" stroke="midnightblue" points="122.601,-406.565 130.517,-399.524 119.938,-400.091 122.601,-406.565"/>
</g>
<!-- Node39 -->
<g id="node39" class="node"><title>Node39</title>
<g id="a_node39"><a xlink:href="settings_8cpp.html#acd04b810317945dc6e24f58dedb56c66" target="_top" xlink:title="Get the repetition inteval in seconds of when in the alarm state. ">
<polygon fill="white" stroke="black" points="144.5,-342.5 144.5,-361.5 232.5,-361.5 232.5,-342.5 144.5,-342.5"/>
<text text-anchor="middle" x="188.5" y="-349.5" font-family="Helvetica,sans-Serif" font-size="10.00">setAlarmInterval</text>
</a>
</g>
</g>
<!-- Node1&#45;&gt;Node39 -->
<g id="edge39" class="edge"><title>Node1&#45;&gt;Node39</title>
<path fill="none" stroke="midnightblue" d="M40.9053,-494.191C47.5083,-469.415 68.3307,-403.95 111,-371 117.851,-365.71 125.986,-361.874 134.353,-359.096"/>
<polygon fill="midnightblue" stroke="midnightblue" points="135.553,-362.394 144.218,-356.299 133.643,-355.66 135.553,-362.394"/>
</g>
<!-- Node40 -->
<g id="node40" class="node"><title>Node40</title>
<g id="a_node40"><a xlink:href="settings_8cpp.html#a98c2398d8260d9517353a1a7e33b73ea" target="_top" xlink:title="Load the settings from non&#45;volatile memory. ">
<polygon fill="white" stroke="black" points="156,-228.5 156,-247.5 221,-247.5 221,-228.5 156,-228.5"/>
<text text-anchor="middle" x="188.5" y="-235.5" font-family="Helvetica,sans-Serif" font-size="10.00">initSettings</text>
</a>
</g>
</g>
<!-- Node1&#45;&gt;Node40 -->
<g id="edge40" class="edge"><title>Node1&#45;&gt;Node40</title>
<path fill="none" stroke="midnightblue" d="M38.1783,-494.257C37.5211,-457.341 40.353,-324.736 111,-257 120.353,-248.032 133.253,-243.099 145.796,-240.443"/>
<polygon fill="midnightblue" stroke="midnightblue" points="146.429,-243.885 155.705,-238.767 145.261,-236.984 146.429,-243.885"/>
</g>
<!-- Node42 -->
<g id="node42" class="node"><title>Node42</title>
<g id="a_node42"><a xlink:href="settings_8cpp.html#af33969eee39a5fffb3ceb43a77772dc9" target="_top" xlink:title="Set the transmission frequency (side tone). ">
<polygon fill="white" stroke="black" points="161.5,-266.5 161.5,-285.5 215.5,-285.5 215.5,-266.5 161.5,-266.5"/>
<text text-anchor="middle" x="188.5" y="-273.5" font-family="Helvetica,sans-Serif" font-size="10.00">setTxHz</text>
</a>
</g>
</g>
<!-- Node1&#45;&gt;Node42 -->
<g id="edge42" class="edge"><title>Node1&#45;&gt;Node42</title>
<path fill="none" stroke="midnightblue" d="M38.7707,-494.385C40.2451,-461.273 49.7485,-350.947 111,-295 121.895,-285.048 137.184,-280.109 151.233,-277.726"/>
<polygon fill="midnightblue" stroke="midnightblue" points="151.711,-281.193 161.163,-276.406 150.789,-274.254 151.711,-281.193"/>
</g>
<!-- Node43 -->
<g id="node43" class="node"><title>Node43</title>
<g id="a_node43"><a xlink:href="actions_8cpp.html#a4dda4125d9a3fc8abbc9b2803e4497c4" target="_top" xlink:title="Get the raw analog input. ">
<polygon fill="white" stroke="black" points="166,-76.5 166,-95.5 211,-95.5 211,-76.5 166,-76.5"/>
<text text-anchor="middle" x="188.5" y="-83.5" font-family="Helvetica,sans-Serif" font-size="10.00">txRaw</text>
</a>
</g>
</g>
<!-- Node1&#45;&gt;Node43 -->
<g id="edge43" class="edge"><title>Node1&#45;&gt;Node43</title>
<path fill="none" stroke="midnightblue" d="M38.8773,-494.316C41.2257,-439.062 55.6006,-164.046 111,-105 122.336,-92.9182 140.058,-88.0143 155.592,-86.2014"/>
<polygon fill="midnightblue" stroke="midnightblue" points="156.196,-89.6647 165.891,-85.3899 155.647,-82.6863 156.196,-89.6647"/>
</g>
<!-- Node45 -->
<g id="node45" class="node"><title>Node45</title>
<g id="a_node45"><a xlink:href="settings_8cpp.html#ac7142ee2baa705d2dd402769467d5a4e" target="_top" xlink:title="Save the settings to non&#45;volatile memory. ">
<polygon fill="white" stroke="red" points="151.5,-190.5 151.5,-209.5 225.5,-209.5 225.5,-190.5 151.5,-190.5"/>
<text text-anchor="middle" x="188.5" y="-197.5" font-family="Helvetica,sans-Serif" font-size="10.00">saveSettings</text>
</a>
</g>
</g>
<!-- Node1&#45;&gt;Node45 -->
<g id="edge45" class="edge"><title>Node1&#45;&gt;Node45</title>
<path fill="none" stroke="midnightblue" d="M39.6402,-494.256C45.1315,-448.964 70.2712,-259.499 111,-219 119.098,-210.947 130.046,-206.126 141.125,-203.285"/>
<polygon fill="midnightblue" stroke="midnightblue" points="142.171,-206.643 151.259,-201.196 140.758,-199.787 142.171,-206.643"/>
</g>
<!-- Node46 -->
<g id="node46" class="node"><title>Node46</title>
<g id="a_node46"><a xlink:href="settings_8cpp.html#a4efca13f3a2b85e3e76a07e848dc9116" target="_top" xlink:title="setUptime">
<polygon fill="white" stroke="red" points="157.5,-152.5 157.5,-171.5 219.5,-171.5 219.5,-152.5 157.5,-152.5"/>
<text text-anchor="middle" x="188.5" y="-159.5" font-family="Helvetica,sans-Serif" font-size="10.00">setUptime</text>
</a>
</g>
</g>
<!-- Node1&#45;&gt;Node46 -->
<g id="edge46" class="edge"><title>Node1&#45;&gt;Node46</title>
<path fill="none" stroke="midnightblue" d="M39.3248,-494.3C43.6642,-445.533 65.4003,-227.644 111,-181 120.529,-171.253 134.225,-166.214 147.402,-163.696"/>
<polygon fill="midnightblue" stroke="midnightblue" points="147.922,-167.157 157.299,-162.225 146.893,-160.233 147.922,-167.157"/>
</g>
<!-- Node47 -->
<g id="node47" class="node"><title>Node47</title>
<g id="a_node47"><a xlink:href="teensy3__morse__bsp_8cpp.html#ae455f2b0f6df93bdf0c57ab61fc3cc18" target="_top" xlink:title="Sense whether or not a realtime clock crystal is present. ">
<polygon fill="white" stroke="black" points="162,-114.5 162,-133.5 215,-133.5 215,-114.5 162,-114.5"/>
<text text-anchor="middle" x="188.5" y="-121.5" font-family="Helvetica,sans-Serif" font-size="10.00">hasRTC</text>
</a>
</g>
</g>
<!-- Node1&#45;&gt;Node47 -->
<g id="edge47" class="edge"><title>Node1&#45;&gt;Node47</title>
<path fill="none" stroke="midnightblue" d="M39.0832,-494.226C42.3982,-441.95 60.5383,-195.798 111,-143 121.424,-132.094 137.056,-127.057 151.479,-124.858"/>
<polygon fill="midnightblue" stroke="midnightblue" points="152.127,-128.307 161.675,-123.714 151.347,-121.35 152.127,-128.307"/>
</g>
<!-- Node48 -->
<g id="node48" class="node"><title>Node48</title>
<g id="a_node48"><a xlink:href="teensy3__morse__bsp_8cpp.html#a4e9ec9948bd3c498f1d4b7780a4e0fdd" target="_top" xlink:title="Report register settings related to the external clock crystal. ">
<polygon fill="white" stroke="black" points="151.5,-1102.5 151.5,-1121.5 225.5,-1121.5 225.5,-1102.5 151.5,-1102.5"/>
<text text-anchor="middle" x="188.5" y="-1109.5" font-family="Helvetica,sans-Serif" font-size="10.00">describeRTC</text>
</a>
</g>
</g>
<!-- Node1&#45;&gt;Node48 -->
<g id="edge48" class="edge"><title>Node1&#45;&gt;Node48</title>
<path fill="none" stroke="midnightblue" d="M39.2074,-513.642C43.8409,-575.453 70.9185,-916.506 111,-1012 124.842,-1044.98 152.242,-1076.65 170.213,-1095.22"/>
<polygon fill="midnightblue" stroke="midnightblue" points="167.745,-1097.7 177.271,-1102.34 172.716,-1092.77 167.745,-1097.7"/>
</g>
<!-- Node49 -->
<g id="node49" class="node"><title>Node49</title>
<g id="a_node49"><a xlink:href="settings_8cpp.html#a3525b6c2e13713de68dd08dbb1a6f933" target="_top" xlink:title="If 15 minutes have elapsed since last time, write to EEPROM. ">
<polygon fill="white" stroke="red" points="150,-38.5 150,-57.5 227,-57.5 227,-38.5 150,-38.5"/>
<text text-anchor="middle" x="188.5" y="-45.5" font-family="Helvetica,sans-Serif" font-size="10.00">updateUptime</text>
</a>
</g>
</g>
<!-- Node1&#45;&gt;Node49 -->
<g id="edge50" class="edge"><title>Node1&#45;&gt;Node49</title>
<path fill="none" stroke="midnightblue" d="M38.7146,-494.178C40.1956,-435.558 50.7214,-132.241 111,-67 118.537,-58.8427 128.983,-53.9479 139.737,-51.0669"/>
<polygon fill="midnightblue" stroke="midnightblue" points="140.578,-54.4662 149.625,-48.9514 139.114,-47.6211 140.578,-54.4662"/>
</g>
<!-- Node50 -->
<g id="node50" class="node"><title>Node50</title>
<g id="a_node50"><a xlink:href="libmorse_8cpp.html#ac3f000c98271c6d0a7710135e18189bc" target="_top" xlink:title="On my hardware there is cross&#45;coupling between the serial port and the touch sensors. Without the code below, long messages to the serial port trigger a touch input. ">
<polygon fill="white" stroke="red" points="156,-0.5 156,-19.5 221,-19.5 221,-0.5 156,-0.5"/>
<text text-anchor="middle" x="188.5" y="-7.5" font-family="Helvetica,sans-Serif" font-size="10.00">flushTouch</text>
</a>
</g>
</g>
<!-- Node1&#45;&gt;Node50 -->
<g id="edge51" class="edge"><title>Node1&#45;&gt;Node50</title>
<path fill="none" stroke="midnightblue" d="M38.5728,-494.144C39.2302,-432.518 45.793,-100.498 111,-29 119.877,-19.2664 132.895,-14.1665 145.685,-11.5918"/>
<polygon fill="midnightblue" stroke="midnightblue" points="146.461,-15.0135 155.81,-10.028 145.393,-8.09555 146.461,-15.0135"/>
</g>
<!-- Node2&#45;&gt;Node3 -->
<g id="edge2" class="edge"><title>Node2&#45;&gt;Node3</title>
<path fill="none" stroke="midnightblue" d="M214.049,-883.447C231.078,-884.457 252.961,-888.777 266,-903 335.324,-978.621 232.506,-1055.53 302,-1131 306.399,-1135.78 311.781,-1139.44 317.642,-1142.25"/>
<polygon fill="midnightblue" stroke="midnightblue" points="316.586,-1145.59 327.173,-1145.98 319.136,-1139.07 316.586,-1145.59"/>
</g>
<!-- Node4 -->
<g id="node4" class="node"><title>Node4</title>
<g id="a_node4"><a xlink:href="actions_8cpp.html#a492edd5621b1b6f219c1138beb303fe1" target="_top" xlink:title="getVersion">
<polygon fill="white" stroke="red" points="349.5,-836.5 349.5,-855.5 412.5,-855.5 412.5,-836.5 349.5,-836.5"/>
<text text-anchor="middle" x="381" y="-843.5" font-family="Helvetica,sans-Serif" font-size="10.00">getVersion</text>
</a>
</g>
</g>
<!-- Node2&#45;&gt;Node4 -->
<g id="edge3" class="edge"><title>Node2&#45;&gt;Node4</title>
<path fill="none" stroke="midnightblue" d="M214.015,-879.11C245.612,-872.807 301.003,-861.758 339.045,-854.17"/>
<polygon fill="midnightblue" stroke="midnightblue" points="340.158,-857.516 349.28,-852.128 338.789,-850.652 340.158,-857.516"/>
</g>
<!-- Node5 -->
<g id="node5" class="node"><title>Node5</title>
<g id="a_node5"><a xlink:href="settings_8cpp.html#af63c25c773ddd97f32d6d0d364eda35a" target="_top" xlink:title="isTimeSet">
<polygon fill="white" stroke="red" points="350.5,-798.5 350.5,-817.5 411.5,-817.5 411.5,-798.5 350.5,-798.5"/>
<text text-anchor="middle" x="381" y="-805.5" font-family="Helvetica,sans-Serif" font-size="10.00">isTimeSet</text>
</a>
</g>
</g>
<!-- Node2&#45;&gt;Node5 -->
<g id="edge4" class="edge"><title>Node2&#45;&gt;Node5</title>
<path fill="none" stroke="midnightblue" d="M214.27,-881.461C229.942,-879.01 250.159,-874.237 266,-865 286.097,-853.281 281.877,-838.674 302,-827 313.606,-820.267 327.512,-815.911 340.349,-813.097"/>
<polygon fill="midnightblue" stroke="midnightblue" points="341.2,-816.497 350.349,-811.154 339.865,-809.625 341.2,-816.497"/>
</g>
<!-- Node6 -->
<g id="node6" class="node"><title>Node6</title>
<g id="a_node6"><a xlink:href="settings_8cpp.html#a7b4efa097b94f9a90c5bbafcdf93fe4f" target="_top" xlink:title="getUptime">
<polygon fill="white" stroke="black" points="350,-760.5 350,-779.5 412,-779.5 412,-760.5 350,-760.5"/>
<text text-anchor="middle" x="381" y="-767.5" font-family="Helvetica,sans-Serif" font-size="10.00">getUptime</text>
</a>
</g>
</g>
<!-- Node2&#45;&gt;Node6 -->
<g id="edge5" class="edge"><title>Node2&#45;&gt;Node6</title>
<path fill="none" stroke="midnightblue" d="M214.318,-883.198C230.603,-881.481 251.492,-876.875 266,-865 294.922,-841.327 273.024,-812.608 302,-789 312.677,-780.301 326.732,-775.486 339.968,-772.854"/>
<polygon fill="midnightblue" stroke="midnightblue" points="340.554,-776.305 349.859,-771.238 339.426,-769.396 340.554,-776.305"/>
</g>
<!-- Node7 -->
<g id="node7" class="node"><title>Node7</title>
<g id="a_node7"><a xlink:href="actions_8cpp.html#a9d7f936c10ce844cabda3cc094b91921" target="_top" xlink:title="Get the low&#45;voltage alarm state. This determines the message format and repetition interval...">
<polygon fill="white" stroke="black" points="341.5,-722.5 341.5,-741.5 420.5,-741.5 420.5,-722.5 341.5,-722.5"/>
<text text-anchor="middle" x="381" y="-729.5" font-family="Helvetica,sans-Serif" font-size="10.00">getAlarmState</text>
</a>
</g>
</g>
<!-- Node2&#45;&gt;Node7 -->
<g id="edge6" class="edge"><title>Node2&#45;&gt;Node7</title>
<path fill="none" stroke="midnightblue" d="M214.144,-883.883C230.774,-882.506 252.136,-878.024 266,-865 304.725,-828.62 263.193,-787.292 302,-751 310.106,-743.42 320.715,-738.717 331.486,-735.835"/>
<polygon fill="midnightblue" stroke="midnightblue" points="332.339,-739.231 341.357,-733.669 330.839,-732.393 332.339,-739.231"/>
</g>
<!-- Node8 -->
<g id="node8" class="node"><title>Node8</title>
<g id="a_node8"><a xlink:href="teensy3__morse__bsp_8cpp.html#ae8dd28759e56dbd2ee9bc9ae96d1783c" target="_top" xlink:title="Return the most recent ADC measurement of the input voltage. Perform analog to digital conversion on ...">
<polygon fill="white" stroke="red" points="344,-684.5 344,-703.5 418,-703.5 418,-684.5 344,-684.5"/>
<text text-anchor="middle" x="381" y="-691.5" font-family="Helvetica,sans-Serif" font-size="10.00">readMillivolts</text>
</a>
</g>
</g>
<!-- Node2&#45;&gt;Node8 -->
<g id="edge7" class="edge"><title>Node2&#45;&gt;Node8</title>
<path fill="none" stroke="midnightblue" d="M214.088,-884.222C230.911,-883.026 252.527,-878.621 266,-865 314.823,-815.643 253.066,-762.247 302,-713 310.434,-704.512 321.983,-699.58 333.61,-696.774"/>
<polygon fill="midnightblue" stroke="midnightblue" points="334.613,-700.145 343.771,-694.819 333.29,-693.272 334.613,-700.145"/>
</g>
<!-- Node9 -->
<g id="node9" class="node"><title>Node9</title>
<g id="a_node9"><a xlink:href="teensy3__morse__bsp_8cpp.html#a8761e874366e227690fba2964e1bc445" target="_top" xlink:title="getInternalTemperatureC">
<polygon fill="white" stroke="black" points="318.5,-646.5 318.5,-665.5 443.5,-665.5 443.5,-646.5 318.5,-646.5"/>
<text text-anchor="middle" x="381" y="-653.5" font-family="Helvetica,sans-Serif" font-size="10.00">getInternalTemperatureC</text>
</a>
</g>
</g>
<!-- Node2&#45;&gt;Node9 -->
<g id="edge8" class="edge"><title>Node2&#45;&gt;Node9</title>
<path fill="none" stroke="midnightblue" d="M214.28,-884.408C231.194,-883.3 252.839,-878.922 266,-865 325.043,-802.543 242.817,-737.324 302,-675 304.303,-672.574 306.86,-670.437 309.603,-668.554"/>
<polygon fill="midnightblue" stroke="midnightblue" points="311.33,-671.599 318.322,-663.639 307.892,-665.501 311.33,-671.599"/>
</g>
<!-- Node10 -->
<g id="node10" class="node"><title>Node10</title>
<g id="a_node10"><a xlink:href="settings_8cpp.html#a088799682590552129c153e36ce09a52" target="_top" xlink:title="Get the periodic announcement format. ">
<polygon fill="white" stroke="black" points="318,-608.5 318,-627.5 444,-627.5 444,-608.5 318,-608.5"/>
<text text-anchor="middle" x="381" y="-615.5" font-family="Helvetica,sans-Serif" font-size="10.00">getAnnouncementFormat</text>
</a>
</g>
</g>
<!-- Node2&#45;&gt;Node10 -->
<g id="edge9" class="edge"><title>Node2&#45;&gt;Node10</title>
<path fill="none" stroke="midnightblue" d="M214.049,-884.553C231.078,-883.543 252.961,-879.223 266,-865 335.324,-789.379 232.506,-712.465 302,-637 304.08,-634.741 306.38,-632.73 308.846,-630.942"/>
<polygon fill="midnightblue" stroke="midnightblue" points="310.95,-633.765 317.795,-625.679 307.401,-627.731 310.95,-633.765"/>
</g>
<!-- Node11 -->
<g id="node11" class="node"><title>Node11</title>
<g id="a_node11"><a xlink:href="settings_8cpp.html#ab38fd90c96469830fd799d88bc8099a6" target="_top" xlink:title="Get the normal announcement interval in seconds. ">
<polygon fill="white" stroke="black" points="317,-570.5 317,-589.5 445,-589.5 445,-570.5 317,-570.5"/>
<text text-anchor="middle" x="381" y="-577.5" font-family="Helvetica,sans-Serif" font-size="10.00">getAnnouncementInterval</text>
</a>
</g>
</g>
<!-- Node2&#45;&gt;Node11 -->
<g id="edge10" class="edge"><title>Node2&#45;&gt;Node11</title>
<path fill="none" stroke="midnightblue" d="M214.145,-884.64C231.22,-883.671 253.119,-879.366 266,-865 345.641,-776.175 222.159,-687.645 302,-599 303.836,-596.961 305.852,-595.123 308.007,-593.468"/>
<polygon fill="midnightblue" stroke="midnightblue" points="310.272,-596.183 316.938,-587.947 306.591,-590.229 310.272,-596.183"/>
</g>
<!-- Node12 -->
<g id="node12" class="node"><title>Node12</title>
<g id="a_node12"><a xlink:href="settings_8cpp.html#a6742b95e92feeab64383890dcb8a51d2" target="_top" xlink:title="Get the low&#45;voltage alarm threshold. ">
<polygon fill="white" stroke="black" points="319,-1102.5 319,-1121.5 443,-1121.5 443,-1102.5 319,-1102.5"/>
<text text-anchor="middle" x="381" y="-1109.5" font-family="Helvetica,sans-Serif" font-size="10.00">getLowVoltageThreshold</text>
</a>
</g>
</g>
<!-- Node2&#45;&gt;Node12 -->
<g id="edge11" class="edge"><title>Node2&#45;&gt;Node12</title>
<path fill="none" stroke="midnightblue" d="M214.28,-883.592C231.194,-884.7 252.839,-889.078 266,-903 325.043,-965.457 242.817,-1030.68 302,-1093 304.351,-1095.48 306.967,-1097.65 309.775,-1099.56"/>
<polygon fill="midnightblue" stroke="midnightblue" points="308.264,-1102.73 318.703,-1104.54 311.67,-1096.61 308.264,-1102.73"/>
</g>
<!-- Node13 -->
<g id="node13" class="node"><title>Node13</title>
<g id="a_node13"><a xlink:href="settings_8cpp.html#a846e579c0e4875f098993e2a44e44182" target="_top" xlink:title="Get the format of periodic low&#45;voltage alarm messages. ">
<polygon fill="white" stroke="black" points="329,-1064.5 329,-1083.5 433,-1083.5 433,-1064.5 329,-1064.5"/>
<text text-anchor="middle" x="381" y="-1071.5" font-family="Helvetica,sans-Serif" font-size="10.00">getAlarmLowFormat</text>
</a>
</g>
</g>
<!-- Node2&#45;&gt;Node13 -->
<g id="edge12" class="edge"><title>Node2&#45;&gt;Node13</title>
<path fill="none" stroke="midnightblue" d="M214.088,-883.778C230.911,-884.974 252.527,-889.379 266,-903 314.823,-952.357 253.066,-1005.75 302,-1055 306.884,-1059.92 312.814,-1063.64 319.198,-1066.45"/>
<polygon fill="midnightblue" stroke="midnightblue" points="318.213,-1069.81 328.807,-1069.94 320.604,-1063.23 318.213,-1069.81"/>
</g>
<!-- Node14 -->
<g id="node14" class="node"><title>Node14</title>
<g id="a_node14"><a xlink:href="settings_8cpp.html#a6b0bcdf814f86e78aadb0dbd4d80eda2" target="_top" xlink:title="Get the high&#45;voltage alarm threshold. ">
<polygon fill="white" stroke="black" points="318,-1026.5 318,-1045.5 444,-1045.5 444,-1026.5 318,-1026.5"/>
<text text-anchor="middle" x="381" y="-1033.5" font-family="Helvetica,sans-Serif" font-size="10.00">getHighVoltageThreshold</text>
</a>
</g>
</g>
<!-- Node2&#45;&gt;Node14 -->
<g id="edge13" class="edge"><title>Node2&#45;&gt;Node14</title>
<path fill="none" stroke="midnightblue" d="M214.144,-884.117C230.774,-885.494 252.136,-889.976 266,-903 304.725,-939.38 263.193,-980.708 302,-1017 304.147,-1019.01 306.47,-1020.81 308.925,-1022.44"/>
<polygon fill="midnightblue" stroke="midnightblue" points="307.272,-1025.52 317.719,-1027.29 310.651,-1019.39 307.272,-1025.52"/>
</g>
<!-- Node15 -->
<g id="node15" class="node"><title>Node15</title>
<g id="a_node15"><a xlink:href="settings_8cpp.html#a0508347a0269b133a9dbc300904807e8" target="_top" xlink:title="Get the format of periodic high&#45;voltage alarm messages. ">
<polygon fill="white" stroke="black" points="327.5,-988.5 327.5,-1007.5 434.5,-1007.5 434.5,-988.5 327.5,-988.5"/>
<text text-anchor="middle" x="381" y="-995.5" font-family="Helvetica,sans-Serif" font-size="10.00">getAlarmHighFormat</text>
</a>
</g>
</g>
<!-- Node2&#45;&gt;Node15 -->
<g id="edge14" class="edge"><title>Node2&#45;&gt;Node15</title>
<path fill="none" stroke="midnightblue" d="M214.318,-884.802C230.603,-886.519 251.492,-891.125 266,-903 294.922,-926.673 273.024,-955.392 302,-979 306.707,-982.835 312.071,-985.915 317.731,-988.386"/>
<polygon fill="midnightblue" stroke="midnightblue" points="316.881,-991.804 327.474,-991.995 319.313,-985.239 316.881,-991.804"/>
</g>
<!-- Node16 -->
<g id="node16" class="node"><title>Node16</title>
<g id="a_node16"><a xlink:href="settings_8cpp.html#a09b2a494a5b9fec41d2cbb6c34484cc0" target="_top" xlink:title="Set the repetition inteval in seconds of when in the alarm state. ">
<polygon fill="white" stroke="black" points="337,-950.5 337,-969.5 425,-969.5 425,-950.5 337,-950.5"/>
<text text-anchor="middle" x="381" y="-957.5" font-family="Helvetica,sans-Serif" font-size="10.00">getAlarmInterval</text>
</a>
</g>
</g>
<!-- Node2&#45;&gt;Node16 -->
<g id="edge15" class="edge"><title>Node2&#45;&gt;Node16</title>
<path fill="none" stroke="midnightblue" d="M214.27,-886.539C229.942,-888.99 250.159,-893.763 266,-903 286.097,-914.719 281.877,-929.326 302,-941 309.621,-945.421 318.233,-948.817 326.884,-951.425"/>
<polygon fill="midnightblue" stroke="midnightblue" points="326.049,-954.825 336.616,-954.047 327.87,-948.066 326.049,-954.825"/>
</g>
<!-- Node17 -->
<g id="node17" class="node"><title>Node17</title>
<g id="a_node17"><a xlink:href="settings_8cpp.html#a960551e90dfdad18f3c9b1338ccba7db" target="_top" xlink:title="Get the dit duration in microseconds. ">
<polygon fill="white" stroke="black" points="345,-912.5 345,-931.5 417,-931.5 417,-912.5 345,-912.5"/>
<text text-anchor="middle" x="381" y="-919.5" font-family="Helvetica,sans-Serif" font-size="10.00">getDitMicros</text>
</a>
</g>
</g>
<!-- Node2&#45;&gt;Node17 -->
<g id="edge16" class="edge"><title>Node2&#45;&gt;Node17</title>
<path fill="none" stroke="midnightblue" d="M214.015,-888.89C244.418,-894.955 296.851,-905.414 334.66,-912.956"/>
<polygon fill="midnightblue" stroke="midnightblue" points="334.414,-916.476 344.906,-915 335.784,-909.611 334.414,-916.476"/>
</g>
<!-- Node18 -->
<g id="node18" class="node"><title>Node18</title>
<g id="a_node18"><a xlink:href="settings_8cpp.html#a8575b9b52638114a4f32d1462cf9b7c1" target="_top" xlink:title="Get the transmission frequency (side tone). ">
<polygon fill="white" stroke="black" points="354,-874.5 354,-893.5 408,-893.5 408,-874.5 354,-874.5"/>
<text text-anchor="middle" x="381" y="-881.5" font-family="Helvetica,sans-Serif" font-size="10.00">getTxHz</text>
</a>
</g>
</g>
<!-- Node2&#45;&gt;Node18 -->
<g id="edge17" class="edge"><title>Node2&#45;&gt;Node18</title>
<path fill="none" stroke="midnightblue" d="M214.015,-884C246.898,-884 305.551,-884 343.601,-884"/>
<polygon fill="midnightblue" stroke="midnightblue" points="343.748,-887.5 353.748,-884 343.748,-880.5 343.748,-887.5"/>
</g>
<!-- Node21 -->
<g id="node21" class="node"><title>Node21</title>
<g id="a_node21"><a xlink:href="actions_8cpp.html#aa6eb8a5787ae2b2cae45f6df3847c936" target="_top" xlink:title="readNumber">
<polygon fill="white" stroke="red" points="346,-532.5 346,-551.5 416,-551.5 416,-532.5 346,-532.5"/>
<text text-anchor="middle" x="381" y="-539.5" font-family="Helvetica,sans-Serif" font-size="10.00">readNumber</text>
</a>
</g>
</g>
<!-- Node20&#45;&gt;Node21 -->
<g id="edge20" class="edge"><title>Node20&#45;&gt;Node21</title>
<path fill="none" stroke="midnightblue" d="M220.81,-614.343C235.294,-611.647 252.287,-606.997 266,-599 286.097,-587.281 281.877,-572.674 302,-561 312.257,-555.05 324.311,-550.956 335.835,-548.142"/>
<polygon fill="midnightblue" stroke="midnightblue" points="336.739,-551.527 345.768,-545.984 335.253,-544.687 336.739,-551.527"/>
</g>
<!-- Node29 -->
<g id="node29" class="node"><title>Node29</title>
<g id="a_node29"><a xlink:href="actions_8cpp.html#a61292cbf2195723405664063ddd74f20" target="_top" xlink:title="Read a string from the serial terminal up to a return or the end of the buffer. Return false if timeo...">
<polygon fill="white" stroke="red" points="354.5,-266.5 354.5,-285.5 407.5,-285.5 407.5,-266.5 354.5,-266.5"/>
<text text-anchor="middle" x="381" y="-273.5" font-family="Helvetica,sans-Serif" font-size="10.00">readLine</text>
</a>
</g>
</g>
<!-- Node28&#45;&gt;Node29 -->
<g id="edge29" class="edge"><title>Node28&#45;&gt;Node29</title>
<path fill="none" stroke="midnightblue" d="M237.571,-304.411C270.799,-297.783 314.274,-289.111 344.41,-283.099"/>
<polygon fill="midnightblue" stroke="midnightblue" points="345.353,-286.48 354.475,-281.092 343.984,-279.615 345.353,-286.48"/>
</g>
<!-- Node30 -->
<g id="node30" class="node"><title>Node30</title>
<g id="a_node30"><a xlink:href="actions_8cpp.html#a59fabf5710b8a28d43d988e855aa8eec" target="_top" xlink:title="Perform in&#45;place conversion of the given buffer to upper case. ">
<polygon fill="white" stroke="black" points="344.5,-380.5 344.5,-399.5 417.5,-399.5 417.5,-380.5 344.5,-380.5"/>
<text text-anchor="middle" x="381" y="-387.5" font-family="Helvetica,sans-Serif" font-size="10.00">mapToUpper</text>
</a>
</g>
</g>
<!-- Node28&#45;&gt;Node30 -->
<g id="edge30" class="edge"><title>Node28&#45;&gt;Node30</title>
<path fill="none" stroke="midnightblue" d="M241.682,-322.709C250.137,-325.301 258.552,-328.657 266,-333 286.097,-344.719 281.877,-359.326 302,-371 311.784,-376.676 323.204,-380.663 334.239,-383.461"/>
<polygon fill="midnightblue" stroke="midnightblue" points="333.681,-386.923 344.206,-385.711 335.222,-380.095 333.681,-386.923"/>
</g>
<!-- Node31 -->
<g id="node31" class="node"><title>Node31</title>
<g id="a_node31"><a xlink:href="actions_8cpp.html#af32495a4b35631dfa2faacf5c46e78a4" target="_top" xlink:title="Check for unsupported punctuation and some invalid escape sequences. ">
<polygon fill="white" stroke="black" points="329,-342.5 329,-361.5 433,-361.5 433,-342.5 329,-342.5"/>
<text text-anchor="middle" x="381" y="-349.5" font-family="Helvetica,sans-Serif" font-size="10.00">isValidMorseFormat</text>
</a>
</g>
</g>
<!-- Node28&#45;&gt;Node31 -->
<g id="edge31" class="edge"><title>Node28&#45;&gt;Node31</title>
<path fill="none" stroke="midnightblue" d="M237.571,-323.589C263.276,-328.716 295.113,-335.067 322.164,-340.463"/>
<polygon fill="midnightblue" stroke="midnightblue" points="321.783,-343.956 332.274,-342.48 323.152,-337.091 321.783,-343.956"/>
</g>
<!-- Node32 -->
<g id="node32" class="node"><title>Node32</title>
<g id="a_node32"><a xlink:href="settings_8cpp.html#a4d7d051b0e06002f98b24455142d1f2e" target="_top" xlink:title="getAnnouncementFormatDefault">
<polygon fill="white" stroke="black" points="302,-304.5 302,-323.5 460,-323.5 460,-304.5 302,-304.5"/>
<text text-anchor="middle" x="381" y="-311.5" font-family="Helvetica,sans-Serif" font-size="10.00">getAnnouncementFormatDefault</text>
</a>
</g>
</g>
<!-- Node28&#45;&gt;Node32 -->
<g id="edge32" class="edge"><title>Node28&#45;&gt;Node32</title>
<path fill="none" stroke="midnightblue" d="M241.555,-314C257.118,-314 274.633,-314 291.838,-314"/>
<polygon fill="midnightblue" stroke="midnightblue" points="291.915,-317.5 301.915,-314 291.915,-310.5 291.915,-317.5"/>
</g>
<!-- Node41 -->
<g id="node41" class="node"><title>Node41</title>
<g id="a_node41"><a xlink:href="_e_e_p_r_o_m_anything_8h.html#a15fc5dc360b561e03651fd94aa72800f" target="_top" xlink:title="Read a raw value from EEPROM (or Flash) location ee. ">
<polygon fill="white" stroke="black" points="320,-228.5 320,-247.5 442,-247.5 442,-228.5 320,-228.5"/>
<text text-anchor="middle" x="381" y="-235.5" font-family="Helvetica,sans-Serif" font-size="10.00">EEPROM_readAnything</text>
</a>
</g>
</g>
<!-- Node40&#45;&gt;Node41 -->
<g id="edge41" class="edge"><title>Node40&#45;&gt;Node41</title>
<path fill="none" stroke="midnightblue" d="M221.385,-238C245.461,-238 279.422,-238 309.746,-238"/>
<polygon fill="midnightblue" stroke="midnightblue" points="309.871,-241.5 319.871,-238 309.871,-234.5 309.871,-241.5"/>
</g>
<!-- Node44 -->
<g id="node44" class="node"><title>Node44</title>
<g id="a_node44"><a xlink:href="teensy3__morse__bsp_8cpp.html#a0e2da33375826e329ea5f4c8d1d10224" target="_top" xlink:title="Get the raw analog input. ">
<polygon fill="white" stroke="red" points="339.5,-76.5 339.5,-95.5 422.5,-95.5 422.5,-76.5 339.5,-76.5"/>
<text text-anchor="middle" x="381" y="-83.5" font-family="Helvetica,sans-Serif" font-size="10.00">getRawVoltage</text>
</a>
</g>
</g>
<!-- Node43&#45;&gt;Node44 -->
<g id="edge44" class="edge"><title>Node43&#45;&gt;Node44</title>
<path fill="none" stroke="midnightblue" d="M211.353,-86C239.85,-86 290.587,-86 328.989,-86"/>
<polygon fill="midnightblue" stroke="midnightblue" points="329.465,-89.5001 339.465,-86 329.465,-82.5001 329.465,-89.5001"/>
</g>
<!-- Node48&#45;&gt;Node3 -->
<g id="edge49" class="edge"><title>Node48&#45;&gt;Node3</title>
<path fill="none" stroke="midnightblue" d="M225.78,-1119.24C253.055,-1124.68 290.966,-1132.24 322.373,-1138.5"/>
<polygon fill="midnightblue" stroke="midnightblue" points="321.829,-1141.97 332.321,-1140.49 323.198,-1135.1 321.829,-1141.97"/>
</g>
</g>
</svg>
        <g id="navigator" transform="translate(0 0)" fill="#404254">
                <rect fill="#f2f5e9" fill-opacity="0.5" stroke="#606060" stroke-width=".5" x="0" y="0" width="60" height="60"/>
                <use id="zoomplus" xlink:href="#zoomPlus" x="17" y="9" onmousedown="handleZoom(evt,'in')"/>
                <use id="zoomminus" xlink:href="#zoomMin" x="42" y="9" onmousedown="handleZoom(evt,'out')"/>
                <use id="reset" xlink:href="#resetDef" x="30" y="36" onmousedown="handleReset()"/>
                <g id="arrowUp" xlink:href="#dirArrow" transform="translate(30 24)" onmousedown="handlePan(0,-1)">
                  <use xlink:href="#rim" fill="#404040">
                        <set attributeName="fill" to="#808080" begin="arrowUp.mouseover" end="arrowUp.mouseout"/>
                  </use>
                  <path fill="none" stroke="white" stroke-width="1.5" d="M0,-3.0v7 M-2.5,-0.5L0,-3.0L2.5,-0.5"/>
                </g>
                <g id="arrowRight" xlink:href="#dirArrow" transform="rotate(90) translate(36 -43)" onmousedown="handlePan(1,0)">
                  <use xlink:href="#rim" fill="#404040">
                        <set attributeName="fill" to="#808080" begin="arrowRight.mouseover" end="arrowRight.mouseout"/>
                  </use>
                  <path fill="none" stroke="white" stroke-width="1.5" d="M0,-3.0v7 M-2.5,-0.5L0,-3.0L2.5,-0.5"/>
                </g>
                <g id="arrowDown" xlink:href="#dirArrow" transform="rotate(180) translate(-30 -48)" onmousedown="handlePan(0,1)">
                  <use xlink:href="#rim" fill="#404040">
                        <set attributeName="fill" to="#808080" begin="arrowDown.mouseover" end="arrowDown.mouseout"/>
                  </use>
                  <path fill="none" stroke="white" stroke-width="1.5" d="M0,-3.0v7 M-2.5,-0.5L0,-3.0L2.5,-0.5"/>
                </g>
                <g id="arrowLeft" xlink:href="#dirArrow" transform="rotate(270) translate(-36 17)" onmousedown="handlePan(-1,0)">
                  <use xlink:href="#rim" fill="#404040">
                        <set attributeName="fill" to="#808080" begin="arrowLeft.mouseover" end="arrowLeft.mouseout"/>
                  </use>
                  <path fill="none" stroke="white" stroke-width="1.5" d="M0,-3.0v7 M-2.5,-0.5L0,-3.0L2.5,-0.5"/>
                </g>
        </g>
        <svg viewBox="0 0 15 15" width="100%" height="30px" preserveAspectRatio="xMaxYMin meet">
         <g id="arrow_out" transform="scale(0.3 0.3)">
          <a xlink:href="actions_8h_a9c9466bf6676f35ff08e8dc33518e483_cgraph_org.svg" target="_base">
           <rect id="button" ry="5" rx="5" y="6" x="6" height="38" width="38"
                fill="#f2f5e9" fill-opacity="0.5" stroke="#606060" stroke-width="1.0"/>
           <path id="arrow"
             d="M 11.500037,31.436501 C 11.940474,20.09759 22.043105,11.32322 32.158766,21.979434 L 37.068811,17.246167 C 37.068811,17.246167 37.088388,32 37.088388,32 L 22.160133,31.978069 C 22.160133,31.978069 26.997745,27.140456 26.997745,27.140456 C 18.528582,18.264221 13.291696,25.230495 11.500037,31.436501 z"
             style="fill:#404040;"/>
          </a>
         </g>
        </svg>
</svg>
