<?xml version="1.0" encoding="UTF-8" standalone="no"?>
<!DOCTYPE svg PUBLIC "-//W3C//DTD SVG 1.1//EN"
 "http://www.w3.org/Graphics/SVG/1.1/DTD/svg11.dtd">
<!-- Generated by graphviz version 2.38.0 (20140413.2041)
 -->
<!-- Title: actions.h Pages: 1 -->
<svg width="727pt" height="140pt"
 viewBox="0.00 0.00 727.00 140.00" xmlns="http://www.w3.org/2000/svg" xmlns:xlink="http://www.w3.org/1999/xlink">
<g id="graph0" class="graph" transform="scale(1 1) rotate(0) translate(4 136)">
<title>actions.h</title>
<polygon fill="white" stroke="none" points="-4,4 -4,-136 723,-136 723,4 -4,4"/>
<!-- Node1 -->
<g id="node1" class="node"><title>Node1</title>
<polygon fill="#bfbfbf" stroke="black" points="317.5,-112.5 317.5,-131.5 373.5,-131.5 373.5,-112.5 317.5,-112.5"/>
<text text-anchor="middle" x="345.5" y="-119.5" font-family="Helvetica,sans-Serif" font-size="10.00">actions.h</text>
</g>
<!-- Node2 -->
<g id="node2" class="node"><title>Node2</title>
<g id="a_node2"><a xlink:href="actions_8cpp.html" target="_top" xlink:title="Implementation of application&#45;specific actions. ">
<polygon fill="white" stroke="black" points="0,-56.5 0,-75.5 67,-75.5 67,-56.5 0,-56.5"/>
<text text-anchor="middle" x="33.5" y="-63.5" font-family="Helvetica,sans-Serif" font-size="10.00">actions.cpp</text>
</a>
</g>
</g>
<!-- Node1&#45;&gt;Node2 -->
<g id="edge1" class="edge"><title>Node1&#45;&gt;Node2</title>
<path fill="none" stroke="midnightblue" d="M306.999,-115.063C254.703,-106.883 158.344,-91.4042 76.5,-76 73.5018,-75.4357 70.3908,-74.828 67.2753,-74.2043"/>
<polygon fill="midnightblue" stroke="midnightblue" points="306.741,-118.565 317.161,-116.647 307.82,-111.648 306.741,-118.565"/>
</g>
<!-- Node3 -->
<g id="node3" class="node"><title>Node3</title>
<g id="a_node3"><a xlink:href="didah_8ino.html" target="_top" xlink:title="Top&#45;level entry points for the Morse code PDA/Application. ">
<polygon fill="white" stroke="black" points="85.5,-56.5 85.5,-75.5 141.5,-75.5 141.5,-56.5 85.5,-56.5"/>
<text text-anchor="middle" x="113.5" y="-63.5" font-family="Helvetica,sans-Serif" font-size="10.00">didah.ino</text>
</a>
</g>
</g>
<!-- Node1&#45;&gt;Node3 -->
<g id="edge2" class="edge"><title>Node1&#45;&gt;Node3</title>
<path fill="none" stroke="midnightblue" d="M307.432,-112.355C268.105,-103.391 204.965,-88.9081 150.5,-76 147.67,-75.3292 144.719,-74.6231 141.773,-73.9137"/>
<polygon fill="midnightblue" stroke="midnightblue" points="306.854,-115.813 317.382,-114.621 308.408,-108.988 306.854,-115.813"/>
</g>
<!-- Node4 -->
<g id="node4" class="node"><title>Node4</title>
<g id="a_node4"><a xlink:href="libmorse_8cpp.html" target="_top" xlink:title="Implementation of Morse code operations. ">
<polygon fill="white" stroke="black" points="159.5,-56.5 159.5,-75.5 231.5,-75.5 231.5,-56.5 159.5,-56.5"/>
<text text-anchor="middle" x="195.5" y="-63.5" font-family="Helvetica,sans-Serif" font-size="10.00">libmorse.cpp</text>
</a>
</g>
</g>
<!-- Node1&#45;&gt;Node4 -->
<g id="edge3" class="edge"><title>Node1&#45;&gt;Node4</title>
<path fill="none" stroke="midnightblue" d="M312.275,-109.039C284.052,-98.8786 244.238,-84.5457 219.157,-75.5164"/>
<polygon fill="midnightblue" stroke="midnightblue" points="311.138,-112.349 321.732,-112.444 313.509,-105.763 311.138,-112.349"/>
</g>
<!-- Node5 -->
<g id="node5" class="node"><title>Node5</title>
<g id="a_node5"><a xlink:href="morse__digit_8cpp.html" target="_top" xlink:title="Implementation of decimal digit to Morse code conversion. ">
<polygon fill="white" stroke="black" points="249.5,-56.5 249.5,-75.5 335.5,-75.5 335.5,-56.5 249.5,-56.5"/>
<text text-anchor="middle" x="292.5" y="-63.5" font-family="Helvetica,sans-Serif" font-size="10.00">morse_digit.cpp</text>
</a>
</g>
</g>
<!-- Node1&#45;&gt;Node5 -->
<g id="edge4" class="edge"><title>Node1&#45;&gt;Node5</title>
<path fill="none" stroke="midnightblue" d="M329.519,-104.718C320.178,-95.1997 308.754,-83.5608 301.089,-75.7511"/>
<polygon fill="midnightblue" stroke="midnightblue" points="327.246,-107.398 336.748,-112.083 332.241,-102.494 327.246,-107.398"/>
</g>
<!-- Node6 -->
<g id="node6" class="node"><title>Node6</title>
<g id="a_node6"><a xlink:href="morse__token_8cpp.html" target="_top" xlink:title="Implementation of Morse code operations. ">
<polygon fill="white" stroke="black" points="353.5,-56.5 353.5,-75.5 445.5,-75.5 445.5,-56.5 353.5,-56.5"/>
<text text-anchor="middle" x="399.5" y="-63.5" font-family="Helvetica,sans-Serif" font-size="10.00">morse_token.cpp</text>
</a>
</g>
</g>
<!-- Node1&#45;&gt;Node6 -->
<g id="edge5" class="edge"><title>Node1&#45;&gt;Node6</title>
<path fill="none" stroke="midnightblue" d="M361.498,-105.002C371.067,-95.4329 382.861,-83.6389 390.749,-75.7511"/>
<polygon fill="midnightblue" stroke="midnightblue" points="359.013,-102.537 354.417,-112.083 363.963,-107.487 359.013,-102.537"/>
</g>
<!-- Node7 -->
<g id="node7" class="node"><title>Node7</title>
<g id="a_node7"><a xlink:href="pda_8cpp.html" target="_top" xlink:title="Implementation of Personal Digital Assistant functions. ">
<polygon fill="white" stroke="black" points="464,-56.5 464,-75.5 515,-75.5 515,-56.5 464,-56.5"/>
<text text-anchor="middle" x="489.5" y="-63.5" font-family="Helvetica,sans-Serif" font-size="10.00">pda.cpp</text>
</a>
</g>
</g>
<!-- Node1&#45;&gt;Node7 -->
<g id="edge6" class="edge"><title>Node1&#45;&gt;Node7</title>
<path fill="none" stroke="midnightblue" d="M377.751,-108.906C404.824,-98.7536 442.817,-84.5063 466.79,-75.5164"/>
<polygon fill="midnightblue" stroke="midnightblue" points="376.452,-105.655 368.317,-112.444 378.909,-112.209 376.452,-105.655"/>
</g>
<!-- Node8 -->
<g id="node8" class="node"><title>Node8</title>
<g id="a_node8"><a xlink:href="stack_8cpp.html" target="_top" xlink:title="Implementation of Stack&#45;related convenience functions. ">
<polygon fill="white" stroke="black" points="533,-56.5 533,-75.5 592,-75.5 592,-56.5 533,-56.5"/>
<text text-anchor="middle" x="562.5" y="-63.5" font-family="Helvetica,sans-Serif" font-size="10.00">stack.cpp</text>
</a>
</g>
</g>
<!-- Node1&#45;&gt;Node8 -->
<g id="edge7" class="edge"><title>Node1&#45;&gt;Node8</title>
<path fill="none" stroke="midnightblue" d="M383.841,-111.459C426.354,-100.88 494.025,-84.0399 532.732,-74.4076"/>
<polygon fill="midnightblue" stroke="midnightblue" points="382.728,-108.129 373.869,-113.94 384.418,-114.922 382.728,-108.129"/>
</g>
<!-- Node9 -->
<g id="node9" class="node"><title>Node9</title>
<g id="a_node9"><a xlink:href="voltage__monitor_8h.html" target="_top" xlink:title="Trivial co&#45;routine to gather and filter ADC samples. ">
<polygon fill="white" stroke="black" points="610.5,-56.5 610.5,-75.5 704.5,-75.5 704.5,-56.5 610.5,-56.5"/>
<text text-anchor="middle" x="657.5" y="-63.5" font-family="Helvetica,sans-Serif" font-size="10.00">voltage_monitor.h</text>
</a>
</g>
</g>
<!-- Node1&#45;&gt;Node9 -->
<g id="edge8" class="edge"><title>Node1&#45;&gt;Node9</title>
<path fill="none" stroke="midnightblue" d="M383.795,-114.372C440.909,-104.487 548.302,-85.8996 610.227,-75.1818"/>
<polygon fill="midnightblue" stroke="midnightblue" points="382.995,-110.958 373.738,-116.113 384.189,-117.856 382.995,-110.958"/>
</g>
<!-- Node10 -->
<g id="node10" class="node"><title>Node10</title>
<g id="a_node10"><a xlink:href="teensy3__morse__bsp_8cpp.html" target="_top" xlink:title="Implementation of Teensy 3.0 board support package. ">
<polygon fill="white" stroke="black" points="596,-0.5 596,-19.5 719,-19.5 719,-0.5 596,-0.5"/>
<text text-anchor="middle" x="657.5" y="-7.5" font-family="Helvetica,sans-Serif" font-size="10.00">teensy3_morse_bsp.cpp</text>
</a>
</g>
</g>
<!-- Node9&#45;&gt;Node10 -->
<g id="edge9" class="edge"><title>Node9&#45;&gt;Node10</title>
<path fill="none" stroke="midnightblue" d="M657.5,-45.8045C657.5,-36.9102 657.5,-26.7798 657.5,-19.7511"/>
<polygon fill="midnightblue" stroke="midnightblue" points="654,-46.083 657.5,-56.083 661,-46.083 654,-46.083"/>
</g>
</g>
</svg>
