<?xml version="1.0" encoding="UTF-8" standalone="no"?>
<!DOCTYPE svg PUBLIC "-//W3C//DTD SVG 1.1//EN"
 "http://www.w3.org/Graphics/SVG/1.1/DTD/svg11.dtd">
<!-- Generated by graphviz version 2.38.0 (20140413.2041)
 -->
<!-- Title: txSymbolStackTop Pages: 1 -->
<svg width="1046pt" height="522pt"
 viewBox="0.00 0.00 1046.00 522.00" xmlns="http://www.w3.org/2000/svg" xmlns:xlink="http://www.w3.org/1999/xlink">
<g id="graph0" class="graph" transform="scale(1 1) rotate(0) translate(4 518)">
<title>txSymbolStackTop</title>
<polygon fill="white" stroke="none" points="-4,4 -4,-518 1042,-518 1042,4 -4,4"/>
<!-- Node1 -->
<g id="node1" class="node"><title>Node1</title>
<polygon fill="#bfbfbf" stroke="black" points="0,-174.5 0,-193.5 100,-193.5 100,-174.5 0,-174.5"/>
<text text-anchor="middle" x="50" y="-181.5" font-family="Helvetica,sans-Serif" font-size="10.00">txSymbolStackTop</text>
</g>
<!-- Node2 -->
<g id="node2" class="node"><title>Node2</title>
<g id="a_node2"><a xlink:href="libmorse_8cpp.html#a9fdfce728595d72b78dc7c834ab99a40" target="_top" xlink:title="Transmit a literal Morse code value. ">
<polygon fill="white" stroke="black" points="136,-252.5 136,-271.5 187,-271.5 187,-252.5 136,-252.5"/>
<text text-anchor="middle" x="161.5" y="-259.5" font-family="Helvetica,sans-Serif" font-size="10.00">txLiteral</text>
</a>
</g>
</g>
<!-- Node1&#45;&gt;Node2 -->
<g id="edge1" class="edge"><title>Node1&#45;&gt;Node2</title>
<path fill="none" stroke="midnightblue" d="M64.4268,-193.564C82.98,-206.78 116.669,-230.778 138.816,-246.554"/>
<polygon fill="midnightblue" stroke="midnightblue" points="136.788,-249.406 146.963,-252.357 140.849,-243.705 136.788,-249.406"/>
</g>
<!-- Node28 -->
<g id="node28" class="node"><title>Node28</title>
<g id="a_node28"><a xlink:href="stack_8cpp.html#abefdfbf9131b5ea5926f9ecbecb6b1e6" target="_top" xlink:title="Access the stack using an index where 0 is the top of the stack. ">
<polygon fill="white" stroke="black" points="147,-58.5 147,-77.5 176,-77.5 176,-58.5 147,-58.5"/>
<text text-anchor="middle" x="161.5" y="-65.5" font-family="Helvetica,sans-Serif" font-size="10.00">s</text>
</a>
</g>
</g>
<!-- Node1&#45;&gt;Node28 -->
<g id="edge38" class="edge"><title>Node1&#45;&gt;Node28</title>
<path fill="none" stroke="midnightblue" d="M60.3359,-174.11C79.0154,-154.322 121.184,-109.65 144.407,-85.0479"/>
<polygon fill="midnightblue" stroke="midnightblue" points="147.176,-87.2134 151.496,-77.539 142.086,-82.4083 147.176,-87.2134"/>
</g>
<!-- Node3 -->
<g id="node3" class="node"><title>Node3</title>
<g id="a_node3"><a xlink:href="class_morse_token.html#a48cd72aeb868391449d1f51c1d0bf5cc" target="_top" xlink:title="Treat code == 0 as the error token. ">
<polygon fill="white" stroke="black" points="223,-347.5 223,-366.5 320,-366.5 320,-347.5 223,-347.5"/>
<text text-anchor="middle" x="271.5" y="-354.5" font-family="Helvetica,sans-Serif" font-size="10.00">MorseToken::valid</text>
</a>
</g>
</g>
<!-- Node2&#45;&gt;Node3 -->
<g id="edge2" class="edge"><title>Node2&#45;&gt;Node3</title>
<path fill="none" stroke="midnightblue" d="M168.936,-271.8C179.028,-286.58 199.833,-314.779 223,-333 227.539,-336.57 232.693,-339.827 237.891,-342.712"/>
<polygon fill="midnightblue" stroke="midnightblue" points="236.678,-346.024 247.172,-347.488 239.882,-339.8 236.678,-346.024"/>
</g>
<!-- Node4 -->
<g id="node4" class="node"><title>Node4</title>
<g id="a_node4"><a xlink:href="teensy3__morse__bsp_8cpp.html#af66e71e3fac9b6a2c6532bc8a513bfde" target="_top" xlink:title="Output a square wave on pin 10 at the given frequency for the given duration. ">
<polygon fill="white" stroke="black" points="252.5,-394.5 252.5,-413.5 290.5,-413.5 290.5,-394.5 252.5,-394.5"/>
<text text-anchor="middle" x="271.5" y="-401.5" font-family="Helvetica,sans-Serif" font-size="10.00">beep</text>
</a>
</g>
</g>
<!-- Node2&#45;&gt;Node4 -->
<g id="edge3" class="edge"><title>Node2&#45;&gt;Node4</title>
<path fill="none" stroke="midnightblue" d="M165.579,-271.645C172.72,-292.763 192.185,-343.774 223,-376 228.768,-382.032 236.117,-387.203 243.301,-391.4"/>
<polygon fill="midnightblue" stroke="midnightblue" points="241.717,-394.523 252.18,-396.187 245.038,-388.361 241.717,-394.523"/>
</g>
<!-- Node10 -->
<g id="node10" class="node"><title>Node10</title>
<g id="a_node10"><a xlink:href="settings_8cpp.html#a8575b9b52638114a4f32d1462cf9b7c1" target="_top" xlink:title="Get the transmission frequency (side tone). ">
<polygon fill="white" stroke="black" points="244.5,-271.5 244.5,-290.5 298.5,-290.5 298.5,-271.5 244.5,-271.5"/>
<text text-anchor="middle" x="271.5" y="-278.5" font-family="Helvetica,sans-Serif" font-size="10.00">getTxHz</text>
</a>
</g>
</g>
<!-- Node2&#45;&gt;Node10 -->
<g id="edge9" class="edge"><title>Node2&#45;&gt;Node10</title>
<path fill="none" stroke="midnightblue" d="M187.007,-266.311C200.862,-268.749 218.454,-271.844 233.913,-274.563"/>
<polygon fill="midnightblue" stroke="midnightblue" points="233.748,-278.088 244.203,-276.374 234.961,-271.194 233.748,-278.088"/>
</g>
<!-- Node11 -->
<g id="node11" class="node"><title>Node11</title>
<g id="a_node11"><a xlink:href="settings_8cpp.html#a960551e90dfdad18f3c9b1338ccba7db" target="_top" xlink:title="Get the dit duration in microseconds. ">
<polygon fill="white" stroke="black" points="522,-456.5 522,-475.5 594,-475.5 594,-456.5 522,-456.5"/>
<text text-anchor="middle" x="558" y="-463.5" font-family="Helvetica,sans-Serif" font-size="10.00">getDitMicros</text>
</a>
</g>
</g>
<!-- Node2&#45;&gt;Node11 -->
<g id="edge10" class="edge"><title>Node2&#45;&gt;Node11</title>
<path fill="none" stroke="midnightblue" d="M174.747,-271.603C186.48,-280.323 205.01,-292.875 223,-300 324.055,-340.024 380.523,-276.207 463,-347 498.844,-377.766 465.118,-414.086 499,-447 502.943,-450.83 507.669,-453.888 512.7,-456.33"/>
<polygon fill="midnightblue" stroke="midnightblue" points="511.397,-459.578 521.98,-460.092 514.028,-453.091 511.397,-459.578"/>
</g>
<!-- Node12 -->
<g id="node12" class="node"><title>Node12</title>
<g id="a_node12"><a xlink:href="libmorse_8cpp.html#ab94e088615119d1faae7df22ce50aedf" target="_top" xlink:title="Transmit a Morse code prosign indicating an error. ">
<polygon fill="white" stroke="black" points="248.5,-195.5 248.5,-214.5 294.5,-214.5 294.5,-195.5 248.5,-195.5"/>
<text text-anchor="middle" x="271.5" y="-202.5" font-family="Helvetica,sans-Serif" font-size="10.00">txError</text>
</a>
</g>
</g>
<!-- Node2&#45;&gt;Node12 -->
<g id="edge11" class="edge"><title>Node2&#45;&gt;Node12</title>
<path fill="none" stroke="midnightblue" d="M179.634,-252.467C191.706,-245.797 208.277,-236.733 223,-229 229.012,-225.842 235.488,-222.52 241.665,-219.387"/>
<polygon fill="midnightblue" stroke="midnightblue" points="243.663,-222.299 251.016,-214.671 240.511,-216.049 243.663,-222.299"/>
</g>
<!-- Node5 -->
<g id="node5" class="node"><title>Node5</title>
<g id="a_node5"><a xlink:href="teensy3__morse__bsp_8cpp.html#a6f674d5b9985ea3a7eeb0df299c2e405" target="_top" xlink:title="pollEarphonePresent">
<polygon fill="white" stroke="black" points="356,-432.5 356,-451.5 463,-451.5 463,-432.5 356,-432.5"/>
<text text-anchor="middle" x="409.5" y="-439.5" font-family="Helvetica,sans-Serif" font-size="10.00">pollEarphonePresent</text>
</a>
</g>
</g>
<!-- Node4&#45;&gt;Node5 -->
<g id="edge4" class="edge"><title>Node4&#45;&gt;Node5</title>
<path fill="none" stroke="midnightblue" d="M290.56,-409.046C309.377,-414.304 339.566,-422.739 364.689,-429.759"/>
<polygon fill="midnightblue" stroke="midnightblue" points="363.815,-433.148 374.388,-432.469 365.699,-426.407 363.815,-433.148"/>
</g>
<!-- Node6 -->
<g id="node6" class="node"><title>Node6</title>
<g id="a_node6"><a xlink:href="teensy3__morse__bsp_8cpp.html#a2d6b4ace33ed5e497dedd03217540c63" target="_top" xlink:title="Set the PWM frequency for the audio output pins. ">
<polygon fill="white" stroke="black" points="368,-394.5 368,-413.5 451,-413.5 451,-394.5 368,-394.5"/>
<text text-anchor="middle" x="409.5" y="-401.5" font-family="Helvetica,sans-Serif" font-size="10.00">pwmFrequency</text>
</a>
</g>
</g>
<!-- Node4&#45;&gt;Node6 -->
<g id="edge5" class="edge"><title>Node4&#45;&gt;Node6</title>
<path fill="none" stroke="midnightblue" d="M290.56,-404C307.617,-404 334.017,-404 357.519,-404"/>
<polygon fill="midnightblue" stroke="midnightblue" points="357.722,-407.5 367.722,-404 357.722,-400.5 357.722,-407.5"/>
</g>
<!-- Node7 -->
<g id="node7" class="node"><title>Node7</title>
<g id="a_node7"><a xlink:href="teensy3__morse__bsp_8cpp.html#a82911eac3bf13d6f36d10102a4c4d3c4" target="_top" xlink:title="Generate a tone on the audio output pins. ">
<polygon fill="white" stroke="black" points="379,-489.5 379,-508.5 440,-508.5 440,-489.5 379,-489.5"/>
<text text-anchor="middle" x="409.5" y="-496.5" font-family="Helvetica,sans-Serif" font-size="10.00">pwmWrite</text>
</a>
</g>
</g>
<!-- Node4&#45;&gt;Node7 -->
<g id="edge6" class="edge"><title>Node4&#45;&gt;Node7</title>
<path fill="none" stroke="midnightblue" d="M286.289,-413.632C309.81,-430.062 357.886,-463.645 386.224,-483.439"/>
<polygon fill="midnightblue" stroke="midnightblue" points="384.472,-486.485 394.675,-489.343 388.481,-480.747 384.472,-486.485"/>
</g>
<!-- Node9 -->
<g id="node9" class="node"><title>Node9</title>
<g id="a_node9"><a xlink:href="teensy3__morse__bsp_8cpp.html#a6c982a7d7805f1dd5426eb98c915cfdd" target="_top" xlink:title="Turn the red LED on (1) or off (0). ">
<polygon fill="white" stroke="black" points="384.5,-356.5 384.5,-375.5 434.5,-375.5 434.5,-356.5 384.5,-356.5"/>
<text text-anchor="middle" x="409.5" y="-363.5" font-family="Helvetica,sans-Serif" font-size="10.00">redLED</text>
</a>
</g>
</g>
<!-- Node4&#45;&gt;Node9 -->
<g id="edge8" class="edge"><title>Node4&#45;&gt;Node9</title>
<path fill="none" stroke="midnightblue" d="M290.56,-398.954C311.959,-392.975 348.064,-382.886 374.702,-375.443"/>
<polygon fill="midnightblue" stroke="midnightblue" points="375.708,-378.796 384.398,-372.734 373.825,-372.055 375.708,-378.796"/>
</g>
<!-- Node8 -->
<g id="node8" class="node"><title>Node8</title>
<g id="a_node8"><a xlink:href="teensy3__morse__bsp_8cpp.html#ac70998cee1bf97f00aec4a1b4e5a4f60" target="_top" xlink:title="isEarphonePresent">
<polygon fill="white" stroke="black" points="508.5,-494.5 508.5,-513.5 607.5,-513.5 607.5,-494.5 508.5,-494.5"/>
<text text-anchor="middle" x="558" y="-501.5" font-family="Helvetica,sans-Serif" font-size="10.00">isEarphonePresent</text>
</a>
</g>
</g>
<!-- Node7&#45;&gt;Node8 -->
<g id="edge7" class="edge"><title>Node7&#45;&gt;Node8</title>
<path fill="none" stroke="midnightblue" d="M440.146,-500.012C456.807,-500.58 478.199,-501.311 498.116,-501.99"/>
<polygon fill="midnightblue" stroke="midnightblue" points="498.25,-505.497 508.364,-502.34 498.489,-498.501 498.25,-505.497"/>
</g>
<!-- Node13 -->
<g id="node13" class="node"><title>Node13</title>
<g id="a_node13"><a xlink:href="libmorse_8cpp.html#a0ee2308940264ea9ac8e50afc1a4d285" target="_top" xlink:title="txString">
<polygon fill="white" stroke="black" points="384.5,-233.5 384.5,-252.5 434.5,-252.5 434.5,-233.5 384.5,-233.5"/>
<text text-anchor="middle" x="409.5" y="-240.5" font-family="Helvetica,sans-Serif" font-size="10.00">txString</text>
</a>
</g>
</g>
<!-- Node12&#45;&gt;Node13 -->
<g id="edge12" class="edge"><title>Node12&#45;&gt;Node13</title>
<path fill="none" stroke="midnightblue" d="M294.653,-211.19C316.219,-217.216 349.301,-226.459 374.257,-233.432"/>
<polygon fill="midnightblue" stroke="midnightblue" points="373.484,-236.85 384.057,-236.17 375.368,-230.108 373.484,-236.85"/>
</g>
<!-- Node13&#45;&gt;Node2 -->
<g id="edge16" class="edge"><title>Node13&#45;&gt;Node2</title>
<path fill="none" stroke="midnightblue" d="M384.222,-244.875C340.46,-248.255 248.205,-255.381 197.58,-259.291"/>
<polygon fill="midnightblue" stroke="midnightblue" points="197.142,-255.814 187.442,-260.074 197.681,-262.793 197.142,-255.814"/>
</g>
<!-- Node13&#45;&gt;Node11 -->
<g id="edge15" class="edge"><title>Node13&#45;&gt;Node11</title>
<path fill="none" stroke="midnightblue" d="M421.43,-252.882C433.39,-264.294 452.283,-284.183 463,-305 492.803,-362.886 454.56,-399.417 499,-447 502.797,-451.066 507.476,-454.263 512.515,-456.777"/>
<polygon fill="midnightblue" stroke="midnightblue" points="511.283,-460.054 521.863,-460.604 513.935,-453.576 511.283,-460.054"/>
</g>
<!-- Node14 -->
<g id="node14" class="node"><title>Node14</title>
<g id="a_node14"><a xlink:href="teensy3__morse__bsp_8cpp.html#ab306f692c5c9455a0c82782a67ff0147" target="_top" xlink:title="touchPoll">
<polygon fill="white" stroke="black" points="845,-342.5 845,-361.5 902,-361.5 902,-342.5 845,-342.5"/>
<text text-anchor="middle" x="873.5" y="-349.5" font-family="Helvetica,sans-Serif" font-size="10.00">touchPoll</text>
</a>
</g>
</g>
<!-- Node13&#45;&gt;Node14 -->
<g id="edge13" class="edge"><title>Node13&#45;&gt;Node14</title>
<path fill="none" stroke="midnightblue" d="M419.411,-252.804C430.159,-264.789 448.579,-285.844 463,-305 480.348,-328.044 474.117,-344.411 499,-359 606.718,-422.154 763.67,-386.356 834.873,-364.723"/>
<polygon fill="midnightblue" stroke="midnightblue" points="836.235,-367.965 844.741,-361.648 834.152,-361.282 836.235,-367.965"/>
</g>
<!-- Node16 -->
<g id="node16" class="node"><title>Node16</title>
<g id="a_node16"><a xlink:href="libmorse_8cpp.html#acd4b292f5e412ee4f05aed9dafbc072d" target="_top" xlink:title="Convert an ASCII character into Morse code and transmit it. ">
<polygon fill="white" stroke="black" points="848.5,-114.5 848.5,-133.5 898.5,-133.5 898.5,-114.5 848.5,-114.5"/>
<text text-anchor="middle" x="873.5" y="-121.5" font-family="Helvetica,sans-Serif" font-size="10.00">txLetter</text>
</a>
</g>
</g>
<!-- Node13&#45;&gt;Node16 -->
<g id="edge17" class="edge"><title>Node13&#45;&gt;Node16</title>
<path fill="none" stroke="midnightblue" d="M432.743,-233.436C450.457,-226.068 476.009,-215.993 499,-209 621.899,-171.617 771.983,-142.254 838.254,-130.092"/>
<polygon fill="midnightblue" stroke="midnightblue" points="838.943,-133.524 848.154,-128.289 837.689,-126.638 838.943,-133.524"/>
</g>
<!-- Node17 -->
<g id="node17" class="node"><title>Node17</title>
<g id="a_node17"><a xlink:href="teensy3__morse__bsp_8cpp.html#a8761e874366e227690fba2964e1bc445" target="_top" xlink:title="getInternalTemperatureC">
<polygon fill="white" stroke="black" points="653.5,-209.5 653.5,-228.5 778.5,-228.5 778.5,-209.5 653.5,-209.5"/>
<text text-anchor="middle" x="716" y="-216.5" font-family="Helvetica,sans-Serif" font-size="10.00">getInternalTemperatureC</text>
</a>
</g>
</g>
<!-- Node13&#45;&gt;Node17 -->
<g id="edge20" class="edge"><title>Node13&#45;&gt;Node17</title>
<path fill="none" stroke="midnightblue" d="M434.562,-234.616C452.162,-228.943 476.75,-221.963 499,-219 546.733,-212.643 600.928,-212.663 643.091,-214.263"/>
<polygon fill="midnightblue" stroke="midnightblue" points="643.127,-217.767 653.265,-214.688 643.42,-210.773 643.127,-217.767"/>
</g>
<!-- Node18 -->
<g id="node18" class="node"><title>Node18</title>
<g id="a_node18"><a xlink:href="libmorse_8cpp.html#a47abdd74b66d7180c47d192bab8bdccb" target="_top" xlink:title="Transmit an unsigned integer in Morse code. ">
<polygon fill="white" stroke="black" points="683,-266.5 683,-285.5 749,-285.5 749,-266.5 683,-266.5"/>
<text text-anchor="middle" x="716" y="-273.5" font-family="Helvetica,sans-Serif" font-size="10.00">txUnsigned</text>
</a>
</g>
</g>
<!-- Node13&#45;&gt;Node18 -->
<g id="edge21" class="edge"><title>Node13&#45;&gt;Node18</title>
<path fill="none" stroke="midnightblue" d="M434.853,-247.317C452.594,-250.349 477.23,-254.324 499,-257 559.06,-264.383 628.859,-269.986 672.486,-273.133"/>
<polygon fill="midnightblue" stroke="midnightblue" points="672.5,-276.642 682.723,-273.861 672.997,-269.66 672.5,-276.642"/>
</g>
<!-- Node19 -->
<g id="node19" class="node"><title>Node19</title>
<g id="a_node19"><a xlink:href="actions_8cpp.html#aed718ec1bd4cc7adb2f65d40a6784496" target="_top" xlink:title="Transmit the internal temperature in integer in Fahrenheit. ">
<polygon fill="white" stroke="black" points="499,-228.5 499,-247.5 617,-247.5 617,-228.5 499,-228.5"/>
<text text-anchor="middle" x="558" y="-235.5" font-family="Helvetica,sans-Serif" font-size="10.00">txInternalTemperatureF</text>
</a>
</g>
</g>
<!-- Node13&#45;&gt;Node19 -->
<g id="edge24" class="edge"><title>Node13&#45;&gt;Node19</title>
<path fill="none" stroke="midnightblue" d="M434.691,-242.174C449.571,-241.667 469.448,-240.988 488.847,-240.326"/>
<polygon fill="midnightblue" stroke="midnightblue" points="489.044,-243.821 498.919,-239.982 488.805,-236.826 489.044,-243.821"/>
</g>
<!-- Node20 -->
<g id="node20" class="node"><title>Node20</title>
<g id="a_node20"><a xlink:href="actions_8cpp.html#aaabb3ac0c23f35a499bc17efe829f326" target="_top" xlink:title="Transmit the 24&#45;hr time. ">
<polygon fill="white" stroke="black" points="519,-114.5 519,-133.5 597,-133.5 597,-114.5 519,-114.5"/>
<text text-anchor="middle" x="558" y="-121.5" font-family="Helvetica,sans-Serif" font-size="10.00">txTimeHHMM</text>
</a>
</g>
</g>
<!-- Node13&#45;&gt;Node20 -->
<g id="edge27" class="edge"><title>Node13&#45;&gt;Node20</title>
<path fill="none" stroke="midnightblue" d="M414.278,-233.482C425.471,-212.624 460.109,-165.984 499,-139 502.33,-136.69 505.916,-134.544 509.614,-132.592"/>
<polygon fill="midnightblue" stroke="midnightblue" points="511.424,-135.607 518.953,-128.154 508.419,-129.285 511.424,-135.607"/>
</g>
<!-- Node21 -->
<g id="node21" class="node"><title>Node21</title>
<g id="a_node21"><a xlink:href="actions_8cpp.html#ad02149679fa3cc6a4957d1a318408ffd" target="_top" xlink:title="Transmit the uptime. ">
<polygon fill="white" stroke="black" points="530,-304.5 530,-323.5 586,-323.5 586,-304.5 530,-304.5"/>
<text text-anchor="middle" x="558" y="-311.5" font-family="Helvetica,sans-Serif" font-size="10.00">txUptime</text>
</a>
</g>
</g>
<!-- Node13&#45;&gt;Node21 -->
<g id="edge29" class="edge"><title>Node13&#45;&gt;Node21</title>
<path fill="none" stroke="midnightblue" d="M427.549,-252.682C445.191,-262.551 473.662,-278.063 499,-290 506.709,-293.632 515.121,-297.285 523.087,-300.606"/>
<polygon fill="midnightblue" stroke="midnightblue" points="521.924,-303.913 532.504,-304.47 524.581,-297.436 521.924,-303.913"/>
</g>
<!-- Node23 -->
<g id="node23" class="node"><title>Node23</title>
<g id="a_node23"><a xlink:href="teensy3__morse__bsp_8cpp.html#ae8dd28759e56dbd2ee9bc9ae96d1783c" target="_top" xlink:title="Return the most recent ADC measurement of the input voltage. Perform analog to digital conversion on ...">
<polygon fill="white" stroke="black" points="521,-418.5 521,-437.5 595,-437.5 595,-418.5 521,-418.5"/>
<text text-anchor="middle" x="558" y="-425.5" font-family="Helvetica,sans-Serif" font-size="10.00">readMillivolts</text>
</a>
</g>
</g>
<!-- Node13&#45;&gt;Node23 -->
<g id="edge32" class="edge"><title>Node13&#45;&gt;Node23</title>
<path fill="none" stroke="midnightblue" d="M420.631,-252.676C432.215,-264.208 451.109,-284.504 463,-305 486.494,-345.497 466.623,-370.181 499,-404 502.674,-407.837 507.052,-411.084 511.732,-413.825"/>
<polygon fill="midnightblue" stroke="midnightblue" points="510.496,-417.121 521.001,-418.496 513.646,-410.87 510.496,-417.121"/>
</g>
<!-- Node27 -->
<g id="node27" class="node"><title>Node27</title>
<g id="a_node27"><a xlink:href="libmorse_8cpp.html#ac3f000c98271c6d0a7710135e18189bc" target="_top" xlink:title="On my hardware there is cross&#45;coupling between the serial port and the touch sensors. Without the code below, long messages to the serial port trigger a touch input. ">
<polygon fill="white" stroke="black" points="683.5,-342.5 683.5,-361.5 748.5,-361.5 748.5,-342.5 683.5,-342.5"/>
<text text-anchor="middle" x="716" y="-349.5" font-family="Helvetica,sans-Serif" font-size="10.00">flushTouch</text>
</a>
</g>
</g>
<!-- Node13&#45;&gt;Node27 -->
<g id="edge36" class="edge"><title>Node13&#45;&gt;Node27</title>
<path fill="none" stroke="midnightblue" d="M418.507,-252.694C436.313,-273.978 479.181,-323.651 499,-333 554.908,-359.373 627.965,-359.73 673.168,-356.595"/>
<polygon fill="midnightblue" stroke="midnightblue" points="673.506,-360.08 683.203,-355.81 672.96,-353.101 673.506,-360.08"/>
</g>
<!-- Node15 -->
<g id="node15" class="node"><title>Node15</title>
<g id="a_node15"><a xlink:href="teensy3__morse__bsp_8cpp.html#af6899cd9b83df54106b259ab81ea5cb2" target="_top" xlink:title="touchMargin">
<polygon fill="white" stroke="black" points="968,-342.5 968,-361.5 1038,-361.5 1038,-342.5 968,-342.5"/>
<text text-anchor="middle" x="1003" y="-349.5" font-family="Helvetica,sans-Serif" font-size="10.00">touchMargin</text>
</a>
</g>
</g>
<!-- Node14&#45;&gt;Node15 -->
<g id="edge14" class="edge"><title>Node14&#45;&gt;Node15</title>
<path fill="none" stroke="midnightblue" d="M902.166,-352C918.281,-352 938.984,-352 957.355,-352"/>
<polygon fill="midnightblue" stroke="midnightblue" points="957.562,-355.5 967.562,-352 957.562,-348.5 957.562,-355.5"/>
</g>
<!-- Node16&#45;&gt;Node2 -->
<g id="edge18" class="edge"><title>Node16&#45;&gt;Node2</title>
<path fill="none" stroke="midnightblue" d="M849.37,-114.375C798.065,-93.924 670.447,-48 559,-48 408.5,-48 408.5,-48 408.5,-48 289.91,-48 200.671,-191.316 172.163,-243.382"/>
<polygon fill="midnightblue" stroke="midnightblue" points="169.05,-241.781 167.417,-252.249 175.222,-245.084 169.05,-241.781"/>
</g>
<!-- Node16&#45;&gt;Node12 -->
<g id="edge19" class="edge"><title>Node16&#45;&gt;Node12</title>
<path fill="none" stroke="midnightblue" d="M848.13,-118.49C788.041,-105.821 628.283,-77.7305 499,-105 420.93,-121.467 336.994,-166.628 296.743,-190.215"/>
<polygon fill="midnightblue" stroke="midnightblue" points="294.743,-187.332 287.931,-195.446 298.316,-193.351 294.743,-187.332"/>
</g>
<!-- Node18&#45;&gt;Node14 -->
<g id="edge22" class="edge"><title>Node18&#45;&gt;Node14</title>
<path fill="none" stroke="midnightblue" d="M749.102,-284.174C758.889,-287.106 769.553,-290.754 779,-295 804.929,-306.654 832.468,-324.141 850.889,-336.671"/>
<polygon fill="midnightblue" stroke="midnightblue" points="848.935,-339.575 859.153,-342.376 852.912,-333.814 848.935,-339.575"/>
</g>
<!-- Node18&#45;&gt;Node16 -->
<g id="edge23" class="edge"><title>Node18&#45;&gt;Node16</title>
<path fill="none" stroke="midnightblue" d="M736.284,-266.367C749.122,-259.448 765.961,-249.364 779,-238 812.73,-208.603 843.99,-166.202 860.427,-142.26"/>
<polygon fill="midnightblue" stroke="midnightblue" points="863.461,-144.021 866.16,-133.776 857.661,-140.102 863.461,-144.021"/>
</g>
<!-- Node19&#45;&gt;Node17 -->
<g id="edge25" class="edge"><title>Node19&#45;&gt;Node17</title>
<path fill="none" stroke="midnightblue" d="M617.089,-230.925C625.711,-229.875 634.682,-228.782 643.54,-227.704"/>
<polygon fill="midnightblue" stroke="midnightblue" points="643.964,-231.178 653.467,-226.494 643.117,-224.229 643.964,-231.178"/>
</g>
<!-- Node19&#45;&gt;Node18 -->
<g id="edge26" class="edge"><title>Node19&#45;&gt;Node18</title>
<path fill="none" stroke="midnightblue" d="M598.365,-247.589C621.167,-253.143 649.861,-260.133 673.083,-265.789"/>
<polygon fill="midnightblue" stroke="midnightblue" points="672.451,-269.238 682.996,-268.204 674.108,-262.437 672.451,-269.238"/>
</g>
<!-- Node20&#45;&gt;Node13 -->
<g id="edge28" class="edge"><title>Node20&#45;&gt;Node13</title>
<path fill="none" stroke="midnightblue" d="M546.046,-133.536C533.838,-139.658 513.863,-146.688 499,-157 470.768,-176.588 444.778,-206.534 428.37,-225.656"/>
<polygon fill="midnightblue" stroke="midnightblue" points="425.607,-223.501 421.739,-233.365 430.914,-228.066 425.607,-223.501"/>
</g>
<!-- Node21&#45;&gt;Node18 -->
<g id="edge31" class="edge"><title>Node21&#45;&gt;Node18</title>
<path fill="none" stroke="midnightblue" d="M586.173,-307.381C610.119,-301.548 645.386,-292.957 672.968,-286.238"/>
<polygon fill="midnightblue" stroke="midnightblue" points="673.86,-289.624 682.748,-283.856 672.203,-282.823 673.86,-289.624"/>
</g>
<!-- Node22 -->
<g id="node22" class="node"><title>Node22</title>
<g id="a_node22"><a xlink:href="settings_8cpp.html#a7b4efa097b94f9a90c5bbafcdf93fe4f" target="_top" xlink:title="getUptime">
<polygon fill="white" stroke="black" points="685,-304.5 685,-323.5 747,-323.5 747,-304.5 685,-304.5"/>
<text text-anchor="middle" x="716" y="-311.5" font-family="Helvetica,sans-Serif" font-size="10.00">getUptime</text>
</a>
</g>
</g>
<!-- Node21&#45;&gt;Node22 -->
<g id="edge30" class="edge"><title>Node21&#45;&gt;Node22</title>
<path fill="none" stroke="midnightblue" d="M586.173,-314C610.633,-314 646.905,-314 674.735,-314"/>
<polygon fill="midnightblue" stroke="midnightblue" points="674.945,-317.5 684.945,-314 674.945,-310.5 674.945,-317.5"/>
</g>
<!-- Node24 -->
<g id="node24" class="node"><title>Node24</title>
<g id="a_node24"><a xlink:href="class_voltage_monitor.html#a70902b84f9864c95d5553a0644a64f4f" target="_top" xlink:title="Return the latest voltage reading. ">
<polygon fill="white" stroke="black" points="653,-418.5 653,-437.5 779,-437.5 779,-418.5 653,-418.5"/>
<text text-anchor="middle" x="716" y="-425.5" font-family="Helvetica,sans-Serif" font-size="10.00">VoltageMonitor::getValue</text>
</a>
</g>
</g>
<!-- Node23&#45;&gt;Node24 -->
<g id="edge33" class="edge"><title>Node23&#45;&gt;Node24</title>
<path fill="none" stroke="midnightblue" d="M595.182,-428C609.344,-428 626.117,-428 642.56,-428"/>
<polygon fill="midnightblue" stroke="midnightblue" points="642.728,-431.5 652.728,-428 642.728,-424.5 642.728,-431.5"/>
</g>
<!-- Node25 -->
<g id="node25" class="node"><title>Node25</title>
<g id="a_node25"><a xlink:href="actions_8cpp.html#a2b8c3769e2aa32a2da9e2f3f85ac73dd" target="_top" xlink:title="A sample ADC reading is taken each time through the main loop, and written to a ring buffer...">
<polygon fill="white" stroke="black" points="817.5,-437.5 817.5,-456.5 929.5,-456.5 929.5,-437.5 817.5,-437.5"/>
<text text-anchor="middle" x="873.5" y="-444.5" font-family="Helvetica,sans-Serif" font-size="10.00">getVoltagePollInterval</text>
</a>
</g>
</g>
<!-- Node24&#45;&gt;Node25 -->
<g id="edge34" class="edge"><title>Node24&#45;&gt;Node25</title>
<path fill="none" stroke="midnightblue" d="M779.352,-435.619C788.438,-436.729 797.816,-437.875 806.963,-438.992"/>
<polygon fill="midnightblue" stroke="midnightblue" points="806.813,-442.5 817.163,-440.239 807.662,-435.552 806.813,-442.5"/>
</g>
<!-- Node26 -->
<g id="node26" class="node"><title>Node26</title>
<g id="a_node26"><a xlink:href="class_voltage_monitor.html#a75871331808c34b40d04059ee2af0f27" target="_top" xlink:title="Filter and scale raw ADC values to millivolts. ">
<polygon fill="white" stroke="black" points="815,-399.5 815,-418.5 932,-418.5 932,-399.5 815,-399.5"/>
<text text-anchor="middle" x="873.5" y="-406.5" font-family="Helvetica,sans-Serif" font-size="10.00">VoltageMonitor::update</text>
</a>
</g>
</g>
<!-- Node24&#45;&gt;Node26 -->
<g id="edge35" class="edge"><title>Node24&#45;&gt;Node26</title>
<path fill="none" stroke="midnightblue" d="M779.352,-420.381C787.702,-419.361 796.298,-418.311 804.735,-417.28"/>
<polygon fill="midnightblue" stroke="midnightblue" points="805.419,-420.723 814.92,-416.035 804.57,-413.774 805.419,-420.723"/>
</g>
<!-- Node27&#45;&gt;Node14 -->
<g id="edge37" class="edge"><title>Node27&#45;&gt;Node14</title>
<path fill="none" stroke="midnightblue" d="M748.843,-352C773.677,-352 808.247,-352 834.522,-352"/>
<polygon fill="midnightblue" stroke="midnightblue" points="834.864,-355.5 844.864,-352 834.863,-348.5 834.864,-355.5"/>
</g>
<!-- Node29 -->
<g id="node29" class="node"><title>Node29</title>
<g id="a_node29"><a xlink:href="stack_8cpp.html#aafac4a86d14d59c34565bc295024e511" target="_top" xlink:title="symbolStackSize">
<polygon fill="white" stroke="black" points="225,-0.5 225,-19.5 318,-19.5 318,-0.5 225,-0.5"/>
<text text-anchor="middle" x="271.5" y="-7.5" font-family="Helvetica,sans-Serif" font-size="10.00">symbolStackSize</text>
</a>
</g>
</g>
<!-- Node28&#45;&gt;Node29 -->
<g id="edge39" class="edge"><title>Node28&#45;&gt;Node29</title>
<path fill="none" stroke="midnightblue" d="M176.341,-59.992C188.542,-52.9882 206.841,-42.6176 223,-34 228.992,-30.8045 235.459,-27.4655 241.634,-24.3289"/>
<polygon fill="midnightblue" stroke="midnightblue" points="243.632,-27.2416 250.987,-19.6162 240.482,-20.9902 243.632,-27.2416"/>
</g>
<!-- Node30 -->
<g id="node30" class="node"><title>Node30</title>
<g id="a_node30"><a xlink:href="class_stack.html#afc30a7ee287e14f08802c2d43613f2b4" target="_top" xlink:title="Return the number of elements currently in the stack. ">
<polygon fill="white" stroke="black" points="376.5,-0.5 376.5,-19.5 442.5,-19.5 442.5,-0.5 376.5,-0.5"/>
<text text-anchor="middle" x="409.5" y="-7.5" font-family="Helvetica,sans-Serif" font-size="10.00">Stack::size</text>
</a>
</g>
</g>
<!-- Node29&#45;&gt;Node30 -->
<g id="edge40" class="edge"><title>Node29&#45;&gt;Node30</title>
<path fill="none" stroke="midnightblue" d="M318.164,-10C333.713,-10 351.015,-10 366.282,-10"/>
<polygon fill="midnightblue" stroke="midnightblue" points="366.48,-13.5001 376.48,-10 366.48,-6.5001 366.48,-13.5001"/>
</g>
</g>
</svg>
