<?xml version="1.0" encoding="UTF-8" standalone="no"?>
<!DOCTYPE svg PUBLIC "-//W3C//DTD SVG 1.1//EN"
 "http://www.w3.org/Graphics/SVG/1.1/DTD/svg11.dtd">
<!-- Generated by graphviz version 2.38.0 (20140413.2041)
 -->
<!-- Title: txHelp Pages: 1 -->
<svg width="1125pt" height="469pt"
 viewBox="0.00 0.00 1125.00 468.81" xmlns="http://www.w3.org/2000/svg" xmlns:xlink="http://www.w3.org/1999/xlink">
<g id="graph0" class="graph" transform="scale(1 1) rotate(0) translate(4 464.808)">
<title>txHelp</title>
<polygon fill="white" stroke="none" points="-4,4 -4,-464.808 1121,-464.808 1121,4 -4,4"/>
<!-- Node1 -->
<g id="node1" class="node"><title>Node1</title>
<polygon fill="#bfbfbf" stroke="black" points="0,-209.5 0,-228.5 45,-228.5 45,-209.5 0,-209.5"/>
<text text-anchor="middle" x="22.5" y="-216.5" font-family="Helvetica,sans-Serif" font-size="10.00">txHelp</text>
</g>
<!-- Node2 -->
<g id="node2" class="node"><title>Node2</title>
<g id="a_node2"><a xlink:href="libmorse_8cpp.html#a0ee2308940264ea9ac8e50afc1a4d285" target="_top" xlink:title="txString">
<polygon fill="white" stroke="black" points="81,-209.5 81,-228.5 131,-228.5 131,-209.5 81,-209.5"/>
<text text-anchor="middle" x="106" y="-216.5" font-family="Helvetica,sans-Serif" font-size="10.00">txString</text>
</a>
</g>
</g>
<!-- Node1&#45;&gt;Node2 -->
<g id="edge1" class="edge"><title>Node1&#45;&gt;Node2</title>
<path fill="none" stroke="midnightblue" d="M45.3405,-219C53.1175,-219 62.0751,-219 70.6456,-219"/>
<polygon fill="midnightblue" stroke="midnightblue" points="70.8024,-222.5 80.8024,-219 70.8024,-215.5 70.8024,-222.5"/>
</g>
<!-- Node3 -->
<g id="node3" class="node"><title>Node3</title>
<g id="a_node3"><a xlink:href="teensy3__morse__bsp_8cpp.html#ab306f692c5c9455a0c82782a67ff0147" target="_top" xlink:title="touchPoll">
<polygon fill="white" stroke="black" points="513,-399.5 513,-418.5 570,-418.5 570,-399.5 513,-399.5"/>
<text text-anchor="middle" x="541.5" y="-406.5" font-family="Helvetica,sans-Serif" font-size="10.00">touchPoll</text>
</a>
</g>
</g>
<!-- Node2&#45;&gt;Node3 -->
<g id="edge2" class="edge"><title>Node2&#45;&gt;Node3</title>
<path fill="none" stroke="midnightblue" d="M106.512,-228.838C105.48,-261.634 107.059,-367.878 167,-416 267.262,-496.493 436.23,-448.118 507.361,-422.197"/>
<polygon fill="midnightblue" stroke="midnightblue" points="508.981,-425.328 517.126,-418.553 506.533,-418.77 508.981,-425.328"/>
</g>
<!-- Node5 -->
<g id="node5" class="node"><title>Node5</title>
<g id="a_node5"><a xlink:href="settings_8cpp.html#a960551e90dfdad18f3c9b1338ccba7db" target="_top" xlink:title="Get the dit duration in microseconds. ">
<polygon fill="white" stroke="black" points="754.5,-323.5 754.5,-342.5 826.5,-342.5 826.5,-323.5 754.5,-323.5"/>
<text text-anchor="middle" x="790.5" y="-330.5" font-family="Helvetica,sans-Serif" font-size="10.00">getDitMicros</text>
</a>
</g>
</g>
<!-- Node2&#45;&gt;Node5 -->
<g id="edge4" class="edge"><title>Node2&#45;&gt;Node5</title>
<path fill="none" stroke="midnightblue" d="M108.103,-228.782C111.528,-254.08 124.45,-321.792 167,-352 245.581,-407.788 286.629,-371 383,-371 383,-371 383,-371 542.5,-371 613.587,-371 694.858,-355.434 744.157,-344.227"/>
<polygon fill="midnightblue" stroke="midnightblue" points="745.223,-347.573 754.177,-341.909 743.645,-340.753 745.223,-347.573"/>
</g>
<!-- Node6 -->
<g id="node6" class="node"><title>Node6</title>
<g id="a_node6"><a xlink:href="libmorse_8cpp.html#a9fdfce728595d72b78dc7c834ab99a40" target="_top" xlink:title="Transmit a literal Morse code value. ">
<polygon fill="white" stroke="black" points="645.5,-171.5 645.5,-190.5 696.5,-190.5 696.5,-171.5 645.5,-171.5"/>
<text text-anchor="middle" x="671" y="-178.5" font-family="Helvetica,sans-Serif" font-size="10.00">txLiteral</text>
</a>
</g>
</g>
<!-- Node2&#45;&gt;Node6 -->
<g id="edge5" class="edge"><title>Node2&#45;&gt;Node6</title>
<path fill="none" stroke="midnightblue" d="M131.191,-217.367C220.317,-211.352 530.582,-190.41 635.228,-183.347"/>
<polygon fill="midnightblue" stroke="midnightblue" points="635.523,-186.835 645.265,-182.67 635.052,-179.851 635.523,-186.835"/>
</g>
<!-- Node16 -->
<g id="node16" class="node"><title>Node16</title>
<g id="a_node16"><a xlink:href="libmorse_8cpp.html#acd4b292f5e412ee4f05aed9dafbc072d" target="_top" xlink:title="Convert an ASCII character into Morse code and transmit it. ">
<polygon fill="white" stroke="black" points="516.5,-133.5 516.5,-152.5 566.5,-152.5 566.5,-133.5 516.5,-133.5"/>
<text text-anchor="middle" x="541.5" y="-140.5" font-family="Helvetica,sans-Serif" font-size="10.00">txLetter</text>
</a>
</g>
</g>
<!-- Node2&#45;&gt;Node16 -->
<g id="edge17" class="edge"><title>Node2&#45;&gt;Node16</title>
<path fill="none" stroke="midnightblue" d="M114.694,-209.213C125.065,-196.852 144.808,-176.099 167,-167 283.702,-119.148 438.171,-130.066 506.033,-138.14"/>
<polygon fill="midnightblue" stroke="midnightblue" points="505.806,-141.639 516.162,-139.403 506.671,-134.693 505.806,-141.639"/>
</g>
<!-- Node17 -->
<g id="node17" class="node"><title>Node17</title>
<g id="a_node17"><a xlink:href="teensy3__morse__bsp_8cpp.html#a8761e874366e227690fba2964e1bc445" target="_top" xlink:title="getInternalTemperatureC">
<polygon fill="white" stroke="black" points="321.5,-228.5 321.5,-247.5 446.5,-247.5 446.5,-228.5 321.5,-228.5"/>
<text text-anchor="middle" x="384" y="-235.5" font-family="Helvetica,sans-Serif" font-size="10.00">getInternalTemperatureC</text>
</a>
</g>
</g>
<!-- Node2&#45;&gt;Node17 -->
<g id="edge20" class="edge"><title>Node2&#45;&gt;Node17</title>
<path fill="none" stroke="midnightblue" d="M131.01,-220.653C170.745,-223.388 251.691,-228.961 311.162,-233.055"/>
<polygon fill="midnightblue" stroke="midnightblue" points="311.039,-236.554 321.256,-233.749 311.52,-229.571 311.039,-236.554"/>
</g>
<!-- Node18 -->
<g id="node18" class="node"><title>Node18</title>
<g id="a_node18"><a xlink:href="libmorse_8cpp.html#a47abdd74b66d7180c47d192bab8bdccb" target="_top" xlink:title="Transmit an unsigned integer in Morse code. ">
<polygon fill="white" stroke="black" points="351,-285.5 351,-304.5 417,-304.5 417,-285.5 351,-285.5"/>
<text text-anchor="middle" x="384" y="-292.5" font-family="Helvetica,sans-Serif" font-size="10.00">txUnsigned</text>
</a>
</g>
</g>
<!-- Node2&#45;&gt;Node18 -->
<g id="edge21" class="edge"><title>Node2&#45;&gt;Node18</title>
<path fill="none" stroke="midnightblue" d="M113.823,-228.721C123.786,-242.035 143.687,-265.484 167,-276 223.19,-301.346 295.869,-302.041 340.955,-299.251"/>
<polygon fill="midnightblue" stroke="midnightblue" points="341.239,-302.74 350.968,-298.545 340.747,-295.757 341.239,-302.74"/>
</g>
<!-- Node19 -->
<g id="node19" class="node"><title>Node19</title>
<g id="a_node19"><a xlink:href="actions_8cpp.html#aed718ec1bd4cc7adb2f65d40a6784496" target="_top" xlink:title="Transmit the internal temperature in integer in Fahrenheit. ">
<polygon fill="white" stroke="black" points="167,-247.5 167,-266.5 285,-266.5 285,-247.5 167,-247.5"/>
<text text-anchor="middle" x="226" y="-254.5" font-family="Helvetica,sans-Serif" font-size="10.00">txInternalTemperatureF</text>
</a>
</g>
</g>
<!-- Node2&#45;&gt;Node19 -->
<g id="edge24" class="edge"><title>Node2&#45;&gt;Node19</title>
<path fill="none" stroke="midnightblue" d="M131.164,-226.782C146.866,-231.838 167.696,-238.546 185.742,-244.358"/>
<polygon fill="midnightblue" stroke="midnightblue" points="184.839,-247.744 195.431,-247.478 186.985,-241.081 184.839,-247.744"/>
</g>
<!-- Node20 -->
<g id="node20" class="node"><title>Node20</title>
<g id="a_node20"><a xlink:href="actions_8cpp.html#aaabb3ac0c23f35a499bc17efe829f326" target="_top" xlink:title="Transmit the 24&#45;hr time. ">
<polygon fill="white" stroke="black" points="187,-57.5 187,-76.5 265,-76.5 265,-57.5 187,-57.5"/>
<text text-anchor="middle" x="226" y="-64.5" font-family="Helvetica,sans-Serif" font-size="10.00">txTimeHHMM</text>
</a>
</g>
</g>
<!-- Node2&#45;&gt;Node20 -->
<g id="edge27" class="edge"><title>Node2&#45;&gt;Node20</title>
<path fill="none" stroke="midnightblue" d="M108.188,-209.338C112.457,-183.957 128.84,-118.444 167,-82 170.28,-78.8671 174.027,-76.1185 178.003,-73.7508"/>
<polygon fill="midnightblue" stroke="midnightblue" points="179.658,-76.8353 186.977,-69.1743 176.478,-70.5993 179.658,-76.8353"/>
</g>
<!-- Node21 -->
<g id="node21" class="node"><title>Node21</title>
<g id="a_node21"><a xlink:href="actions_8cpp.html#ad02149679fa3cc6a4957d1a318408ffd" target="_top" xlink:title="Transmit the uptime. ">
<polygon fill="white" stroke="black" points="198,-323.5 198,-342.5 254,-342.5 254,-323.5 198,-323.5"/>
<text text-anchor="middle" x="226" y="-330.5" font-family="Helvetica,sans-Serif" font-size="10.00">txUptime</text>
</a>
</g>
</g>
<!-- Node2&#45;&gt;Node21 -->
<g id="edge29" class="edge"><title>Node2&#45;&gt;Node21</title>
<path fill="none" stroke="midnightblue" d="M111.151,-228.772C119.318,-246.934 139.137,-286.117 167,-309 173.277,-314.155 180.815,-318.342 188.348,-321.689"/>
<polygon fill="midnightblue" stroke="midnightblue" points="187.208,-325.003 197.791,-325.488 189.82,-318.508 187.208,-325.003"/>
</g>
<!-- Node23 -->
<g id="node23" class="node"><title>Node23</title>
<g id="a_node23"><a xlink:href="teensy3__morse__bsp_8cpp.html#ae8dd28759e56dbd2ee9bc9ae96d1783c" target="_top" xlink:title="Return the most recent ADC measurement of the input voltage. Perform analog to digital conversion on ...">
<polygon fill="white" stroke="black" points="189,-19.5 189,-38.5 263,-38.5 263,-19.5 189,-19.5"/>
<text text-anchor="middle" x="226" y="-26.5" font-family="Helvetica,sans-Serif" font-size="10.00">readMillivolts</text>
</a>
</g>
</g>
<!-- Node2&#45;&gt;Node23 -->
<g id="edge32" class="edge"><title>Node2&#45;&gt;Node23</title>
<path fill="none" stroke="midnightblue" d="M107.514,-209.312C109.566,-180.496 119.571,-94.4483 167,-48 170.551,-44.5225 174.748,-41.6814 179.235,-39.3603"/>
<polygon fill="midnightblue" stroke="midnightblue" points="180.924,-42.4442 188.738,-35.289 178.168,-36.0098 180.924,-42.4442"/>
</g>
<!-- Node27 -->
<g id="node27" class="node"><title>Node27</title>
<g id="a_node27"><a xlink:href="libmorse_8cpp.html#ac3f000c98271c6d0a7710135e18189bc" target="_top" xlink:title="On my hardware there is cross&#45;coupling between the serial port and the touch sensors. Without the code below, long messages to the serial port trigger a touch input. ">
<polygon fill="white" stroke="black" points="351.5,-399.5 351.5,-418.5 416.5,-418.5 416.5,-399.5 351.5,-399.5"/>
<text text-anchor="middle" x="384" y="-406.5" font-family="Helvetica,sans-Serif" font-size="10.00">flushTouch</text>
</a>
</g>
</g>
<!-- Node2&#45;&gt;Node27 -->
<g id="edge36" class="edge"><title>Node2&#45;&gt;Node27</title>
<path fill="none" stroke="midnightblue" d="M107.202,-228.875C108.384,-258.162 116.211,-344.984 167,-385 216.7,-424.158 293.973,-422.313 341.369,-416.381"/>
<polygon fill="midnightblue" stroke="midnightblue" points="341.863,-419.846 351.297,-415.023 340.915,-412.91 341.863,-419.846"/>
</g>
<!-- Node4 -->
<g id="node4" class="node"><title>Node4</title>
<g id="a_node4"><a xlink:href="teensy3__morse__bsp_8cpp.html#af6899cd9b83df54106b259ab81ea5cb2" target="_top" xlink:title="touchMargin">
<polygon fill="white" stroke="black" points="636,-399.5 636,-418.5 706,-418.5 706,-399.5 636,-399.5"/>
<text text-anchor="middle" x="671" y="-406.5" font-family="Helvetica,sans-Serif" font-size="10.00">touchMargin</text>
</a>
</g>
</g>
<!-- Node3&#45;&gt;Node4 -->
<g id="edge3" class="edge"><title>Node3&#45;&gt;Node4</title>
<path fill="none" stroke="midnightblue" d="M570.166,-409C586.281,-409 606.984,-409 625.355,-409"/>
<polygon fill="midnightblue" stroke="midnightblue" points="625.562,-412.5 635.562,-409 625.562,-405.5 625.562,-412.5"/>
</g>
<!-- Node6&#45;&gt;Node5 -->
<g id="edge14" class="edge"><title>Node6&#45;&gt;Node5</title>
<path fill="none" stroke="midnightblue" d="M679.35,-190.508C698.638,-215.46 750.93,-283.106 775.888,-315.392"/>
<polygon fill="midnightblue" stroke="midnightblue" points="773.268,-317.724 782.153,-323.495 778.806,-313.443 773.268,-317.724"/>
</g>
<!-- Node7 -->
<g id="node7" class="node"><title>Node7</title>
<g id="a_node7"><a xlink:href="class_morse_token.html#a48cd72aeb868391449d1f51c1d0bf5cc" target="_top" xlink:title="Treat code == 0 as the error token. ">
<polygon fill="white" stroke="black" points="742,-152.5 742,-171.5 839,-171.5 839,-152.5 742,-152.5"/>
<text text-anchor="middle" x="790.5" y="-159.5" font-family="Helvetica,sans-Serif" font-size="10.00">MorseToken::valid</text>
</a>
</g>
</g>
<!-- Node6&#45;&gt;Node7 -->
<g id="edge6" class="edge"><title>Node6&#45;&gt;Node7</title>
<path fill="none" stroke="midnightblue" d="M696.632,-177.017C706.933,-175.351 719.376,-173.339 731.759,-171.337"/>
<polygon fill="midnightblue" stroke="midnightblue" points="732.322,-174.791 741.635,-169.74 731.205,-167.881 732.322,-174.791"/>
</g>
<!-- Node8 -->
<g id="node8" class="node"><title>Node8</title>
<g id="a_node8"><a xlink:href="teensy3__morse__bsp_8cpp.html#af66e71e3fac9b6a2c6532bc8a513bfde" target="_top" xlink:title="Output a square wave on pin 10 at the given frequency for the given duration. ">
<polygon fill="white" stroke="black" points="771.5,-228.5 771.5,-247.5 809.5,-247.5 809.5,-228.5 771.5,-228.5"/>
<text text-anchor="middle" x="790.5" y="-235.5" font-family="Helvetica,sans-Serif" font-size="10.00">beep</text>
</a>
</g>
</g>
<!-- Node6&#45;&gt;Node8 -->
<g id="edge7" class="edge"><title>Node6&#45;&gt;Node8</title>
<path fill="none" stroke="midnightblue" d="M688.408,-190.616C702.419,-198.654 723.224,-210.185 742,-219 748.226,-221.923 755.031,-224.816 761.496,-227.43"/>
<polygon fill="midnightblue" stroke="midnightblue" points="760.656,-230.861 771.243,-231.272 763.223,-224.348 760.656,-230.861"/>
</g>
<!-- Node14 -->
<g id="node14" class="node"><title>Node14</title>
<g id="a_node14"><a xlink:href="settings_8cpp.html#a8575b9b52638114a4f32d1462cf9b7c1" target="_top" xlink:title="Get the transmission frequency (side tone). ">
<polygon fill="white" stroke="black" points="763.5,-190.5 763.5,-209.5 817.5,-209.5 817.5,-190.5 763.5,-190.5"/>
<text text-anchor="middle" x="790.5" y="-197.5" font-family="Helvetica,sans-Serif" font-size="10.00">getTxHz</text>
</a>
</g>
</g>
<!-- Node6&#45;&gt;Node14 -->
<g id="edge13" class="edge"><title>Node6&#45;&gt;Node14</title>
<path fill="none" stroke="midnightblue" d="M696.632,-184.983C713.022,-187.633 734.833,-191.16 753.199,-194.13"/>
<polygon fill="midnightblue" stroke="midnightblue" points="752.838,-197.617 763.269,-195.758 753.956,-190.707 752.838,-197.617"/>
</g>
<!-- Node15 -->
<g id="node15" class="node"><title>Node15</title>
<g id="a_node15"><a xlink:href="libmorse_8cpp.html#ab94e088615119d1faae7df22ce50aedf" target="_top" xlink:title="Transmit a Morse code prosign indicating an error. ">
<polygon fill="white" stroke="black" points="767.5,-114.5 767.5,-133.5 813.5,-133.5 813.5,-114.5 767.5,-114.5"/>
<text text-anchor="middle" x="790.5" y="-121.5" font-family="Helvetica,sans-Serif" font-size="10.00">txError</text>
</a>
</g>
</g>
<!-- Node6&#45;&gt;Node15 -->
<g id="edge15" class="edge"><title>Node6&#45;&gt;Node15</title>
<path fill="none" stroke="midnightblue" d="M688.408,-171.384C702.419,-163.346 723.224,-151.815 742,-143 747.025,-140.641 752.427,-138.301 757.724,-136.112"/>
<polygon fill="midnightblue" stroke="midnightblue" points="759.068,-139.344 767.038,-132.363 756.454,-132.85 759.068,-139.344"/>
</g>
<!-- Node9 -->
<g id="node9" class="node"><title>Node9</title>
<g id="a_node9"><a xlink:href="teensy3__morse__bsp_8cpp.html#a6f674d5b9985ea3a7eeb0df299c2e405" target="_top" xlink:title="pollEarphonePresent">
<polygon fill="white" stroke="black" points="875,-285.5 875,-304.5 982,-304.5 982,-285.5 875,-285.5"/>
<text text-anchor="middle" x="928.5" y="-292.5" font-family="Helvetica,sans-Serif" font-size="10.00">pollEarphonePresent</text>
</a>
</g>
</g>
<!-- Node8&#45;&gt;Node9 -->
<g id="edge8" class="edge"><title>Node8&#45;&gt;Node9</title>
<path fill="none" stroke="midnightblue" d="M809.561,-246.725C826.352,-254.715 852.14,-266.679 875,-276 879.868,-277.985 885.03,-279.981 890.142,-281.896"/>
<polygon fill="midnightblue" stroke="midnightblue" points="889.229,-285.289 899.823,-285.451 891.642,-278.718 889.229,-285.289"/>
</g>
<!-- Node10 -->
<g id="node10" class="node"><title>Node10</title>
<g id="a_node10"><a xlink:href="teensy3__morse__bsp_8cpp.html#a2d6b4ace33ed5e497dedd03217540c63" target="_top" xlink:title="Set the PWM frequency for the audio output pins. ">
<polygon fill="white" stroke="black" points="887,-247.5 887,-266.5 970,-266.5 970,-247.5 887,-247.5"/>
<text text-anchor="middle" x="928.5" y="-254.5" font-family="Helvetica,sans-Serif" font-size="10.00">pwmFrequency</text>
</a>
</g>
</g>
<!-- Node8&#45;&gt;Node10 -->
<g id="edge9" class="edge"><title>Node8&#45;&gt;Node10</title>
<path fill="none" stroke="midnightblue" d="M809.56,-240.523C826.617,-242.906 853.017,-246.594 876.519,-249.878"/>
<polygon fill="midnightblue" stroke="midnightblue" points="876.334,-253.386 886.722,-251.303 877.303,-246.453 876.334,-253.386"/>
</g>
<!-- Node11 -->
<g id="node11" class="node"><title>Node11</title>
<g id="a_node11"><a xlink:href="teensy3__morse__bsp_8cpp.html#a82911eac3bf13d6f36d10102a4c4d3c4" target="_top" xlink:title="Generate a tone on the audio output pins. ">
<polygon fill="white" stroke="black" points="898,-209.5 898,-228.5 959,-228.5 959,-209.5 898,-209.5"/>
<text text-anchor="middle" x="928.5" y="-216.5" font-family="Helvetica,sans-Serif" font-size="10.00">pwmWrite</text>
</a>
</g>
</g>
<!-- Node8&#45;&gt;Node11 -->
<g id="edge10" class="edge"><title>Node8&#45;&gt;Node11</title>
<path fill="none" stroke="midnightblue" d="M809.56,-235.477C829.462,-232.697 862.083,-228.139 887.979,-224.521"/>
<polygon fill="midnightblue" stroke="midnightblue" points="888.471,-227.987 897.89,-223.137 887.502,-221.054 888.471,-227.987"/>
</g>
<!-- Node13 -->
<g id="node13" class="node"><title>Node13</title>
<g id="a_node13"><a xlink:href="teensy3__morse__bsp_8cpp.html#a6c982a7d7805f1dd5426eb98c915cfdd" target="_top" xlink:title="Turn the red LED on (1) or off (0). ">
<polygon fill="white" stroke="black" points="903.5,-171.5 903.5,-190.5 953.5,-190.5 953.5,-171.5 903.5,-171.5"/>
<text text-anchor="middle" x="928.5" y="-178.5" font-family="Helvetica,sans-Serif" font-size="10.00">redLED</text>
</a>
</g>
</g>
<!-- Node8&#45;&gt;Node13 -->
<g id="edge12" class="edge"><title>Node8&#45;&gt;Node13</title>
<path fill="none" stroke="midnightblue" d="M809.734,-231.223C818.652,-227.779 829.487,-223.398 839,-219 855.422,-211.408 858.454,-207.318 875,-200 880.992,-197.35 887.48,-194.774 893.784,-192.419"/>
<polygon fill="midnightblue" stroke="midnightblue" points="895.232,-195.617 903.442,-188.92 892.847,-189.036 895.232,-195.617"/>
</g>
<!-- Node12 -->
<g id="node12" class="node"><title>Node12</title>
<g id="a_node12"><a xlink:href="teensy3__morse__bsp_8cpp.html#ac70998cee1bf97f00aec4a1b4e5a4f60" target="_top" xlink:title="isEarphonePresent">
<polygon fill="white" stroke="black" points="1018,-209.5 1018,-228.5 1117,-228.5 1117,-209.5 1018,-209.5"/>
<text text-anchor="middle" x="1067.5" y="-216.5" font-family="Helvetica,sans-Serif" font-size="10.00">isEarphonePresent</text>
</a>
</g>
</g>
<!-- Node11&#45;&gt;Node12 -->
<g id="edge11" class="edge"><title>Node11&#45;&gt;Node12</title>
<path fill="none" stroke="midnightblue" d="M959.227,-219C973.434,-219 990.959,-219 1007.7,-219"/>
<polygon fill="midnightblue" stroke="midnightblue" points="1007.98,-222.5 1017.98,-219 1007.98,-215.5 1007.98,-222.5"/>
</g>
<!-- Node15&#45;&gt;Node2 -->
<g id="edge16" class="edge"><title>Node15&#45;&gt;Node2</title>
<path fill="none" stroke="midnightblue" d="M767.403,-121.156C724.252,-115.855 625.722,-105 542.5,-105 383,-105 383,-105 383,-105 286.139,-105 249.839,-83.8021 167,-134 141.611,-149.385 124.092,-180.05 114.802,-200.034"/>
<polygon fill="midnightblue" stroke="midnightblue" points="111.516,-198.81 110.696,-209.373 117.924,-201.627 111.516,-198.81"/>
</g>
<!-- Node16&#45;&gt;Node6 -->
<g id="edge18" class="edge"><title>Node16&#45;&gt;Node6</title>
<path fill="none" stroke="midnightblue" d="M566.782,-150.237C586.242,-156.037 613.793,-164.248 635.536,-170.728"/>
<polygon fill="midnightblue" stroke="midnightblue" points="634.791,-174.158 645.374,-173.661 636.791,-167.45 634.791,-174.158"/>
</g>
<!-- Node16&#45;&gt;Node15 -->
<g id="edge19" class="edge"><title>Node16&#45;&gt;Node15</title>
<path fill="none" stroke="midnightblue" d="M566.633,-141.144C611.398,-137.7 707.294,-130.324 757.444,-126.466"/>
<polygon fill="midnightblue" stroke="midnightblue" points="757.715,-129.955 767.417,-125.699 757.178,-122.976 757.715,-129.955"/>
</g>
<!-- Node18&#45;&gt;Node3 -->
<g id="edge22" class="edge"><title>Node18&#45;&gt;Node3</title>
<path fill="none" stroke="midnightblue" d="M417.192,-301.601C427.19,-304.491 437.953,-308.511 447,-314 480.757,-334.482 511.051,-369.863 527.502,-391.184"/>
<polygon fill="midnightblue" stroke="midnightblue" points="524.862,-393.496 533.675,-399.376 530.453,-389.283 524.862,-393.496"/>
</g>
<!-- Node18&#45;&gt;Node16 -->
<g id="edge23" class="edge"><title>Node18&#45;&gt;Node16</title>
<path fill="none" stroke="midnightblue" d="M404.284,-285.367C417.122,-278.448 433.961,-268.364 447,-257 480.73,-227.603 511.99,-185.202 528.427,-161.26"/>
<polygon fill="midnightblue" stroke="midnightblue" points="531.461,-163.021 534.16,-152.776 525.661,-159.102 531.461,-163.021"/>
</g>
<!-- Node19&#45;&gt;Node17 -->
<g id="edge25" class="edge"><title>Node19&#45;&gt;Node17</title>
<path fill="none" stroke="midnightblue" d="M285.089,-249.925C293.711,-248.875 302.682,-247.782 311.54,-246.704"/>
<polygon fill="midnightblue" stroke="midnightblue" points="311.964,-250.178 321.467,-245.494 311.117,-243.229 311.964,-250.178"/>
</g>
<!-- Node19&#45;&gt;Node18 -->
<g id="edge26" class="edge"><title>Node19&#45;&gt;Node18</title>
<path fill="none" stroke="midnightblue" d="M266.365,-266.589C289.167,-272.143 317.861,-279.133 341.083,-284.789"/>
<polygon fill="midnightblue" stroke="midnightblue" points="340.451,-288.238 350.996,-287.204 342.108,-281.437 340.451,-288.238"/>
</g>
<!-- Node20&#45;&gt;Node2 -->
<g id="edge28" class="edge"><title>Node20&#45;&gt;Node2</title>
<path fill="none" stroke="midnightblue" d="M211.483,-76.5146C198.627,-81.7533 179.452,-88.1082 167,-100 137.648,-128.032 121.18,-173.263 113.199,-199.347"/>
<polygon fill="midnightblue" stroke="midnightblue" points="109.751,-198.667 110.285,-209.248 116.466,-200.643 109.751,-198.667"/>
</g>
<!-- Node21&#45;&gt;Node18 -->
<g id="edge31" class="edge"><title>Node21&#45;&gt;Node18</title>
<path fill="none" stroke="midnightblue" d="M254.173,-326.381C278.119,-320.548 313.386,-311.957 340.968,-305.238"/>
<polygon fill="midnightblue" stroke="midnightblue" points="341.86,-308.624 350.748,-302.856 340.203,-301.823 341.86,-308.624"/>
</g>
<!-- Node22 -->
<g id="node22" class="node"><title>Node22</title>
<g id="a_node22"><a xlink:href="settings_8cpp.html#a7b4efa097b94f9a90c5bbafcdf93fe4f" target="_top" xlink:title="getUptime">
<polygon fill="white" stroke="black" points="353,-323.5 353,-342.5 415,-342.5 415,-323.5 353,-323.5"/>
<text text-anchor="middle" x="384" y="-330.5" font-family="Helvetica,sans-Serif" font-size="10.00">getUptime</text>
</a>
</g>
</g>
<!-- Node21&#45;&gt;Node22 -->
<g id="edge30" class="edge"><title>Node21&#45;&gt;Node22</title>
<path fill="none" stroke="midnightblue" d="M254.173,-333C278.633,-333 314.905,-333 342.735,-333"/>
<polygon fill="midnightblue" stroke="midnightblue" points="342.945,-336.5 352.945,-333 342.945,-329.5 342.945,-336.5"/>
</g>
<!-- Node24 -->
<g id="node24" class="node"><title>Node24</title>
<g id="a_node24"><a xlink:href="class_voltage_monitor.html#a70902b84f9864c95d5553a0644a64f4f" target="_top" xlink:title="Return the latest voltage reading. ">
<polygon fill="white" stroke="black" points="321,-19.5 321,-38.5 447,-38.5 447,-19.5 321,-19.5"/>
<text text-anchor="middle" x="384" y="-26.5" font-family="Helvetica,sans-Serif" font-size="10.00">VoltageMonitor::getValue</text>
</a>
</g>
</g>
<!-- Node23&#45;&gt;Node24 -->
<g id="edge33" class="edge"><title>Node23&#45;&gt;Node24</title>
<path fill="none" stroke="midnightblue" d="M263.182,-29C277.344,-29 294.117,-29 310.56,-29"/>
<polygon fill="midnightblue" stroke="midnightblue" points="310.728,-32.5001 320.728,-29 310.728,-25.5001 310.728,-32.5001"/>
</g>
<!-- Node25 -->
<g id="node25" class="node"><title>Node25</title>
<g id="a_node25"><a xlink:href="actions_8cpp.html#a2b8c3769e2aa32a2da9e2f3f85ac73dd" target="_top" xlink:title="A sample ADC reading is taken each time through the main loop, and written to a ring buffer...">
<polygon fill="white" stroke="black" points="485.5,-38.5 485.5,-57.5 597.5,-57.5 597.5,-38.5 485.5,-38.5"/>
<text text-anchor="middle" x="541.5" y="-45.5" font-family="Helvetica,sans-Serif" font-size="10.00">getVoltagePollInterval</text>
</a>
</g>
</g>
<!-- Node24&#45;&gt;Node25 -->
<g id="edge34" class="edge"><title>Node24&#45;&gt;Node25</title>
<path fill="none" stroke="midnightblue" d="M447.352,-36.6185C456.438,-37.7287 465.816,-38.8746 474.963,-39.9922"/>
<polygon fill="midnightblue" stroke="midnightblue" points="474.813,-43.4998 485.163,-41.2386 475.662,-36.5515 474.813,-43.4998"/>
</g>
<!-- Node26 -->
<g id="node26" class="node"><title>Node26</title>
<g id="a_node26"><a xlink:href="class_voltage_monitor.html#a75871331808c34b40d04059ee2af0f27" target="_top" xlink:title="Filter and scale raw ADC values to millivolts. ">
<polygon fill="white" stroke="black" points="483,-0.5 483,-19.5 600,-19.5 600,-0.5 483,-0.5"/>
<text text-anchor="middle" x="541.5" y="-7.5" font-family="Helvetica,sans-Serif" font-size="10.00">VoltageMonitor::update</text>
</a>
</g>
</g>
<!-- Node24&#45;&gt;Node26 -->
<g id="edge35" class="edge"><title>Node24&#45;&gt;Node26</title>
<path fill="none" stroke="midnightblue" d="M447.352,-21.3815C455.702,-20.3612 464.298,-19.3108 472.735,-18.2799"/>
<polygon fill="midnightblue" stroke="midnightblue" points="473.419,-21.7226 482.92,-17.0355 472.57,-14.7742 473.419,-21.7226"/>
</g>
<!-- Node27&#45;&gt;Node3 -->
<g id="edge37" class="edge"><title>Node27&#45;&gt;Node3</title>
<path fill="none" stroke="midnightblue" d="M416.843,-409C441.677,-409 476.247,-409 502.522,-409"/>
<polygon fill="midnightblue" stroke="midnightblue" points="502.864,-412.5 512.864,-409 502.863,-405.5 502.864,-412.5"/>
</g>
</g>
</svg>
