<?xml version="1.0" encoding="UTF-8" standalone="no"?>
<!DOCTYPE svg PUBLIC "-//W3C//DTD SVG 1.1//EN"
 "http://www.w3.org/Graphics/SVG/1.1/DTD/svg11.dtd">
<!-- Generated by graphviz version 2.38.0 (20140413.2041)
 -->
<!-- Title: mapToUpper Pages: 1 -->
<svg width="334pt" height="28pt"
 viewBox="0.00 0.00 334.00 28.00" xmlns="http://www.w3.org/2000/svg" xmlns:xlink="http://www.w3.org/1999/xlink">
<g id="graph0" class="graph" transform="scale(1 1) rotate(0) translate(4 24)">
<title>mapToUpper</title>
<polygon fill="white" stroke="none" points="-4,4 -4,-24 330,-24 330,4 -4,4"/>
<!-- Node1 -->
<g id="node1" class="node"><title>Node1</title>
<polygon fill="#bfbfbf" stroke="black" points="0,-0.5 0,-19.5 73,-19.5 73,-0.5 0,-0.5"/>
<text text-anchor="middle" x="36.5" y="-7.5" font-family="Helvetica,sans-Serif" font-size="10.00">mapToUpper</text>
</g>
<!-- Node2 -->
<g id="node2" class="node"><title>Node2</title>
<g id="a_node2"><a xlink:href="settings_8h.html#a76fe6d50deae647113180dc5f9f844c6" target="_top" xlink:title="Get a message format from the serial console. ">
<polygon fill="white" stroke="black" points="109,-0.5 109,-19.5 215,-19.5 215,-0.5 109,-0.5"/>
<text text-anchor="middle" x="162" y="-7.5" font-family="Helvetica,sans-Serif" font-size="10.00">readMessageFormat</text>
</a>
</g>
</g>
<!-- Node1&#45;&gt;Node2 -->
<g id="edge1" class="edge"><title>Node1&#45;&gt;Node2</title>
<path fill="none" stroke="midnightblue" d="M83.4341,-10C91.707,-10 100.386,-10 108.821,-10"/>
<polygon fill="midnightblue" stroke="midnightblue" points="83.2214,-6.5001 73.2213,-10 83.2213,-13.5001 83.2214,-6.5001"/>
</g>
<!-- Node3 -->
<g id="node3" class="node"><title>Node3</title>
<g id="a_node3"><a xlink:href="actions_8h.html#a9c9466bf6676f35ff08e8dc33518e483" target="_top" xlink:title="Respond to commands from the serial port. ">
<polygon fill="white" stroke="black" points="251,-0.5 251,-19.5 326,-19.5 326,-0.5 251,-0.5"/>
<text text-anchor="middle" x="288.5" y="-7.5" font-family="Helvetica,sans-Serif" font-size="10.00">readEvalPrint</text>
</a>
</g>
</g>
<!-- Node2&#45;&gt;Node3 -->
<g id="edge2" class="edge"><title>Node2&#45;&gt;Node3</title>
<path fill="none" stroke="midnightblue" d="M225.28,-10C234.005,-10 242.729,-10 250.767,-10"/>
<polygon fill="midnightblue" stroke="midnightblue" points="225.078,-6.5001 215.078,-10 225.078,-13.5001 225.078,-6.5001"/>
</g>
</g>
</svg>
