<?xml version="1.0" encoding="UTF-8" standalone="no"?>
<!DOCTYPE svg PUBLIC "-//W3C//DTD SVG 1.1//EN"
 "http://www.w3.org/Graphics/SVG/1.1/DTD/svg11.dtd">
<!-- Generated by graphviz version 2.38.0 (20140413.2041)
 -->
<!-- Title: txTimeHHMM Pages: 1 -->
<svg width="1158pt" height="455pt"
 viewBox="0.00 0.00 1158.00 455.36" xmlns="http://www.w3.org/2000/svg" xmlns:xlink="http://www.w3.org/1999/xlink">
<g id="graph0" class="graph" transform="scale(1 1) rotate(0) translate(4 451.356)">
<title>txTimeHHMM</title>
<polygon fill="white" stroke="none" points="-4,4 -4,-451.356 1154,-451.356 1154,4 -4,4"/>
<!-- Node1 -->
<g id="node1" class="node"><title>Node1</title>
<polygon fill="#bfbfbf" stroke="black" points="0,-228.5 0,-247.5 78,-247.5 78,-228.5 0,-228.5"/>
<text text-anchor="middle" x="39" y="-235.5" font-family="Helvetica,sans-Serif" font-size="10.00">txTimeHHMM</text>
</g>
<!-- Node2 -->
<g id="node2" class="node"><title>Node2</title>
<g id="a_node2"><a xlink:href="libmorse_8cpp.html#a0ee2308940264ea9ac8e50afc1a4d285" target="_top" xlink:title="txString">
<polygon fill="white" stroke="black" points="114,-228.5 114,-247.5 164,-247.5 164,-228.5 114,-228.5"/>
<text text-anchor="middle" x="139" y="-235.5" font-family="Helvetica,sans-Serif" font-size="10.00">txString</text>
</a>
</g>
</g>
<!-- Node1&#45;&gt;Node2 -->
<g id="edge1" class="edge"><title>Node1&#45;&gt;Node2</title>
<path fill="none" stroke="midnightblue" d="M78.17,-231.399C86.6346,-231.163 95.5531,-231.208 103.845,-231.533"/>
<polygon fill="midnightblue" stroke="midnightblue" points="103.753,-235.033 113.932,-232.096 104.143,-228.044 103.753,-235.033"/>
</g>
<!-- Node2&#45;&gt;Node1 -->
<g id="edge27" class="edge"><title>Node2&#45;&gt;Node1</title>
<path fill="none" stroke="midnightblue" d="M113.932,-243.904C106.109,-244.486 97.1305,-244.767 88.1878,-244.749"/>
<polygon fill="midnightblue" stroke="midnightblue" points="88.2206,-241.249 78.17,-244.601 88.1172,-248.249 88.2206,-241.249"/>
</g>
<!-- Node3 -->
<g id="node3" class="node"><title>Node3</title>
<g id="a_node3"><a xlink:href="teensy3__morse__bsp_8cpp.html#ab306f692c5c9455a0c82782a67ff0147" target="_top" xlink:title="touchPoll">
<polygon fill="white" stroke="black" points="546,-380.5 546,-399.5 603,-399.5 603,-380.5 546,-380.5"/>
<text text-anchor="middle" x="574.5" y="-387.5" font-family="Helvetica,sans-Serif" font-size="10.00">touchPoll</text>
</a>
</g>
</g>
<!-- Node2&#45;&gt;Node3 -->
<g id="edge2" class="edge"><title>Node2&#45;&gt;Node3</title>
<path fill="none" stroke="midnightblue" d="M139.882,-247.572C140.098,-277.601 145.329,-370.244 200,-409 305.515,-483.799 472.973,-430.686 542.085,-403.436"/>
<polygon fill="midnightblue" stroke="midnightblue" points="543.582,-406.606 551.549,-399.622 540.965,-400.114 543.582,-406.606"/>
</g>
<!-- Node5 -->
<g id="node5" class="node"><title>Node5</title>
<g id="a_node5"><a xlink:href="settings_8cpp.html#a960551e90dfdad18f3c9b1338ccba7db" target="_top" xlink:title="Get the dit duration in microseconds. ">
<polygon fill="white" stroke="black" points="787.5,-304.5 787.5,-323.5 859.5,-323.5 859.5,-304.5 787.5,-304.5"/>
<text text-anchor="middle" x="823.5" y="-311.5" font-family="Helvetica,sans-Serif" font-size="10.00">getDitMicros</text>
</a>
</g>
</g>
<!-- Node2&#45;&gt;Node5 -->
<g id="edge4" class="edge"><title>Node2&#45;&gt;Node5</title>
<path fill="none" stroke="midnightblue" d="M142.864,-247.624C149.346,-267.521 167.19,-312.992 200,-333 282.279,-383.175 319.629,-352 416,-352 416,-352 416,-352 575.5,-352 646.587,-352 727.858,-336.434 777.157,-325.227"/>
<polygon fill="midnightblue" stroke="midnightblue" points="778.223,-328.573 787.177,-322.909 776.645,-321.753 778.223,-328.573"/>
</g>
<!-- Node6 -->
<g id="node6" class="node"><title>Node6</title>
<g id="a_node6"><a xlink:href="libmorse_8cpp.html#a9fdfce728595d72b78dc7c834ab99a40" target="_top" xlink:title="Transmit a literal Morse code value. ">
<polygon fill="white" stroke="black" points="678.5,-152.5 678.5,-171.5 729.5,-171.5 729.5,-152.5 678.5,-152.5"/>
<text text-anchor="middle" x="704" y="-159.5" font-family="Helvetica,sans-Serif" font-size="10.00">txLiteral</text>
</a>
</g>
</g>
<!-- Node2&#45;&gt;Node6 -->
<g id="edge5" class="edge"><title>Node2&#45;&gt;Node6</title>
<path fill="none" stroke="midnightblue" d="M155.143,-228.435C166.903,-221.511 183.871,-212.593 200,-208 370.48,-159.453 585.346,-158.892 668.212,-160.805"/>
<polygon fill="midnightblue" stroke="midnightblue" points="668.246,-164.307 678.333,-161.067 668.427,-157.309 668.246,-164.307"/>
</g>
<!-- Node16 -->
<g id="node16" class="node"><title>Node16</title>
<g id="a_node16"><a xlink:href="libmorse_8cpp.html#acd4b292f5e412ee4f05aed9dafbc072d" target="_top" xlink:title="Convert an ASCII character into Morse code and transmit it. ">
<polygon fill="white" stroke="black" points="549.5,-114.5 549.5,-133.5 599.5,-133.5 599.5,-114.5 549.5,-114.5"/>
<text text-anchor="middle" x="574.5" y="-121.5" font-family="Helvetica,sans-Serif" font-size="10.00">txLetter</text>
</a>
</g>
</g>
<!-- Node2&#45;&gt;Node16 -->
<g id="edge17" class="edge"><title>Node2&#45;&gt;Node16</title>
<path fill="none" stroke="midnightblue" d="M143.194,-228.223C150.073,-208.943 168.285,-166.306 200,-148 310,-84.5085 469.769,-103.982 539.176,-116.741"/>
<polygon fill="midnightblue" stroke="midnightblue" points="538.653,-120.204 549.132,-118.641 539.965,-113.328 538.653,-120.204"/>
</g>
<!-- Node17 -->
<g id="node17" class="node"><title>Node17</title>
<g id="a_node17"><a xlink:href="teensy3__morse__bsp_8cpp.html#a8761e874366e227690fba2964e1bc445" target="_top" xlink:title="getInternalTemperatureC">
<polygon fill="white" stroke="black" points="354.5,-209.5 354.5,-228.5 479.5,-228.5 479.5,-209.5 354.5,-209.5"/>
<text text-anchor="middle" x="417" y="-216.5" font-family="Helvetica,sans-Serif" font-size="10.00">getInternalTemperatureC</text>
</a>
</g>
</g>
<!-- Node2&#45;&gt;Node17 -->
<g id="edge20" class="edge"><title>Node2&#45;&gt;Node17</title>
<path fill="none" stroke="midnightblue" d="M164.116,-228.502C174.91,-224.74 187.906,-220.869 200,-219 247.59,-211.645 301.785,-211.669 343.984,-213.519"/>
<polygon fill="midnightblue" stroke="midnightblue" points="344.01,-217.024 354.168,-214.011 344.348,-210.033 344.01,-217.024"/>
</g>
<!-- Node18 -->
<g id="node18" class="node"><title>Node18</title>
<g id="a_node18"><a xlink:href="libmorse_8cpp.html#a47abdd74b66d7180c47d192bab8bdccb" target="_top" xlink:title="Transmit an unsigned integer in Morse code. ">
<polygon fill="white" stroke="black" points="384,-266.5 384,-285.5 450,-285.5 450,-266.5 384,-266.5"/>
<text text-anchor="middle" x="417" y="-273.5" font-family="Helvetica,sans-Serif" font-size="10.00">txUnsigned</text>
</a>
</g>
</g>
<!-- Node2&#45;&gt;Node18 -->
<g id="edge21" class="edge"><title>Node2&#45;&gt;Node18</title>
<path fill="none" stroke="midnightblue" d="M164.205,-246.996C175.015,-250.666 188,-254.602 200,-257 259.636,-268.915 330.022,-273.359 373.842,-275.015"/>
<polygon fill="midnightblue" stroke="midnightblue" points="373.734,-278.514 383.849,-275.362 373.976,-271.518 373.734,-278.514"/>
</g>
<!-- Node19 -->
<g id="node19" class="node"><title>Node19</title>
<g id="a_node19"><a xlink:href="actions_8cpp.html#aed718ec1bd4cc7adb2f65d40a6784496" target="_top" xlink:title="Transmit the internal temperature in integer in Fahrenheit. ">
<polygon fill="white" stroke="black" points="200,-228.5 200,-247.5 318,-247.5 318,-228.5 200,-228.5"/>
<text text-anchor="middle" x="259" y="-235.5" font-family="Helvetica,sans-Serif" font-size="10.00">txInternalTemperatureF</text>
</a>
</g>
</g>
<!-- Node2&#45;&gt;Node19 -->
<g id="edge24" class="edge"><title>Node2&#45;&gt;Node19</title>
<path fill="none" stroke="midnightblue" d="M164.164,-238C171.708,-238 180.437,-238 189.471,-238"/>
<polygon fill="midnightblue" stroke="midnightblue" points="189.755,-241.5 199.755,-238 189.755,-234.5 189.755,-241.5"/>
</g>
<!-- Node20 -->
<g id="node20" class="node"><title>Node20</title>
<g id="a_node20"><a xlink:href="actions_8cpp.html#ad02149679fa3cc6a4957d1a318408ffd" target="_top" xlink:title="Transmit the uptime. ">
<polygon fill="white" stroke="black" points="231,-304.5 231,-323.5 287,-323.5 287,-304.5 231,-304.5"/>
<text text-anchor="middle" x="259" y="-311.5" font-family="Helvetica,sans-Serif" font-size="10.00">txUptime</text>
</a>
</g>
</g>
<!-- Node2&#45;&gt;Node20 -->
<g id="edge28" class="edge"><title>Node2&#45;&gt;Node20</title>
<path fill="none" stroke="midnightblue" d="M149.411,-247.896C160.614,-259.24 180.297,-277.832 200,-290 206.566,-294.055 213.937,-297.702 221.166,-300.858"/>
<polygon fill="midnightblue" stroke="midnightblue" points="220.266,-304.273 230.846,-304.849 222.934,-297.802 220.266,-304.273"/>
</g>
<!-- Node22 -->
<g id="node22" class="node"><title>Node22</title>
<g id="a_node22"><a xlink:href="teensy3__morse__bsp_8cpp.html#ae8dd28759e56dbd2ee9bc9ae96d1783c" target="_top" xlink:title="Return the most recent ADC measurement of the input voltage. Perform analog to digital conversion on ...">
<polygon fill="white" stroke="black" points="222,-38.5 222,-57.5 296,-57.5 296,-38.5 222,-38.5"/>
<text text-anchor="middle" x="259" y="-45.5" font-family="Helvetica,sans-Serif" font-size="10.00">readMillivolts</text>
</a>
</g>
</g>
<!-- Node2&#45;&gt;Node22 -->
<g id="edge31" class="edge"><title>Node2&#45;&gt;Node22</title>
<path fill="none" stroke="midnightblue" d="M140.809,-228.354C143.648,-200.424 155.543,-118.528 200,-72 203.67,-68.159 208.046,-64.9105 212.725,-62.1683"/>
<polygon fill="midnightblue" stroke="midnightblue" points="214.639,-65.1232 221.992,-57.4959 211.487,-58.8727 214.639,-65.1232"/>
</g>
<!-- Node26 -->
<g id="node26" class="node"><title>Node26</title>
<g id="a_node26"><a xlink:href="libmorse_8cpp.html#ac3f000c98271c6d0a7710135e18189bc" target="_top" xlink:title="On my hardware there is cross&#45;coupling between the serial port and the touch sensors. Without the code below, long messages to the serial port trigger a touch input. ">
<polygon fill="white" stroke="black" points="226.5,-380.5 226.5,-399.5 291.5,-399.5 291.5,-380.5 226.5,-380.5"/>
<text text-anchor="middle" x="259" y="-387.5" font-family="Helvetica,sans-Serif" font-size="10.00">flushTouch</text>
</a>
</g>
</g>
<!-- Node2&#45;&gt;Node26 -->
<g id="edge35" class="edge"><title>Node2&#45;&gt;Node26</title>
<path fill="none" stroke="midnightblue" d="M142.017,-247.763C147.353,-271.266 163.97,-331.59 200,-366 204.924,-370.703 210.9,-374.54 217.121,-377.653"/>
<polygon fill="midnightblue" stroke="midnightblue" points="215.754,-380.876 226.316,-381.714 218.582,-374.472 215.754,-380.876"/>
</g>
<!-- Node4 -->
<g id="node4" class="node"><title>Node4</title>
<g id="a_node4"><a xlink:href="teensy3__morse__bsp_8cpp.html#af6899cd9b83df54106b259ab81ea5cb2" target="_top" xlink:title="touchMargin">
<polygon fill="white" stroke="black" points="669,-380.5 669,-399.5 739,-399.5 739,-380.5 669,-380.5"/>
<text text-anchor="middle" x="704" y="-387.5" font-family="Helvetica,sans-Serif" font-size="10.00">touchMargin</text>
</a>
</g>
</g>
<!-- Node3&#45;&gt;Node4 -->
<g id="edge3" class="edge"><title>Node3&#45;&gt;Node4</title>
<path fill="none" stroke="midnightblue" d="M603.166,-390C619.281,-390 639.984,-390 658.355,-390"/>
<polygon fill="midnightblue" stroke="midnightblue" points="658.562,-393.5 668.562,-390 658.562,-386.5 658.562,-393.5"/>
</g>
<!-- Node6&#45;&gt;Node5 -->
<g id="edge14" class="edge"><title>Node6&#45;&gt;Node5</title>
<path fill="none" stroke="midnightblue" d="M712.35,-171.508C731.638,-196.46 783.93,-264.106 808.888,-296.392"/>
<polygon fill="midnightblue" stroke="midnightblue" points="806.268,-298.724 815.153,-304.495 811.806,-294.443 806.268,-298.724"/>
</g>
<!-- Node7 -->
<g id="node7" class="node"><title>Node7</title>
<g id="a_node7"><a xlink:href="class_morse_token.html#a48cd72aeb868391449d1f51c1d0bf5cc" target="_top" xlink:title="Treat code == 0 as the error token. ">
<polygon fill="white" stroke="black" points="775,-133.5 775,-152.5 872,-152.5 872,-133.5 775,-133.5"/>
<text text-anchor="middle" x="823.5" y="-140.5" font-family="Helvetica,sans-Serif" font-size="10.00">MorseToken::valid</text>
</a>
</g>
</g>
<!-- Node6&#45;&gt;Node7 -->
<g id="edge6" class="edge"><title>Node6&#45;&gt;Node7</title>
<path fill="none" stroke="midnightblue" d="M729.632,-158.017C739.933,-156.351 752.376,-154.339 764.759,-152.337"/>
<polygon fill="midnightblue" stroke="midnightblue" points="765.322,-155.791 774.635,-150.74 764.205,-148.881 765.322,-155.791"/>
</g>
<!-- Node8 -->
<g id="node8" class="node"><title>Node8</title>
<g id="a_node8"><a xlink:href="teensy3__morse__bsp_8cpp.html#af66e71e3fac9b6a2c6532bc8a513bfde" target="_top" xlink:title="Output a square wave on pin 10 at the given frequency for the given duration. ">
<polygon fill="white" stroke="black" points="804.5,-209.5 804.5,-228.5 842.5,-228.5 842.5,-209.5 804.5,-209.5"/>
<text text-anchor="middle" x="823.5" y="-216.5" font-family="Helvetica,sans-Serif" font-size="10.00">beep</text>
</a>
</g>
</g>
<!-- Node6&#45;&gt;Node8 -->
<g id="edge7" class="edge"><title>Node6&#45;&gt;Node8</title>
<path fill="none" stroke="midnightblue" d="M721.408,-171.616C735.419,-179.654 756.224,-191.185 775,-200 781.226,-202.923 788.031,-205.816 794.496,-208.43"/>
<polygon fill="midnightblue" stroke="midnightblue" points="793.656,-211.861 804.243,-212.272 796.223,-205.348 793.656,-211.861"/>
</g>
<!-- Node14 -->
<g id="node14" class="node"><title>Node14</title>
<g id="a_node14"><a xlink:href="settings_8cpp.html#a8575b9b52638114a4f32d1462cf9b7c1" target="_top" xlink:title="Get the transmission frequency (side tone). ">
<polygon fill="white" stroke="black" points="796.5,-171.5 796.5,-190.5 850.5,-190.5 850.5,-171.5 796.5,-171.5"/>
<text text-anchor="middle" x="823.5" y="-178.5" font-family="Helvetica,sans-Serif" font-size="10.00">getTxHz</text>
</a>
</g>
</g>
<!-- Node6&#45;&gt;Node14 -->
<g id="edge13" class="edge"><title>Node6&#45;&gt;Node14</title>
<path fill="none" stroke="midnightblue" d="M729.632,-165.983C746.022,-168.633 767.833,-172.16 786.199,-175.13"/>
<polygon fill="midnightblue" stroke="midnightblue" points="785.838,-178.617 796.269,-176.758 786.956,-171.707 785.838,-178.617"/>
</g>
<!-- Node15 -->
<g id="node15" class="node"><title>Node15</title>
<g id="a_node15"><a xlink:href="libmorse_8cpp.html#ab94e088615119d1faae7df22ce50aedf" target="_top" xlink:title="Transmit a Morse code prosign indicating an error. ">
<polygon fill="white" stroke="black" points="800.5,-95.5 800.5,-114.5 846.5,-114.5 846.5,-95.5 800.5,-95.5"/>
<text text-anchor="middle" x="823.5" y="-102.5" font-family="Helvetica,sans-Serif" font-size="10.00">txError</text>
</a>
</g>
</g>
<!-- Node6&#45;&gt;Node15 -->
<g id="edge15" class="edge"><title>Node6&#45;&gt;Node15</title>
<path fill="none" stroke="midnightblue" d="M721.408,-152.384C735.419,-144.346 756.224,-132.815 775,-124 780.025,-121.641 785.427,-119.301 790.724,-117.112"/>
<polygon fill="midnightblue" stroke="midnightblue" points="792.068,-120.344 800.038,-113.363 789.454,-113.85 792.068,-120.344"/>
</g>
<!-- Node9 -->
<g id="node9" class="node"><title>Node9</title>
<g id="a_node9"><a xlink:href="teensy3__morse__bsp_8cpp.html#a6f674d5b9985ea3a7eeb0df299c2e405" target="_top" xlink:title="pollEarphonePresent">
<polygon fill="white" stroke="black" points="908,-266.5 908,-285.5 1015,-285.5 1015,-266.5 908,-266.5"/>
<text text-anchor="middle" x="961.5" y="-273.5" font-family="Helvetica,sans-Serif" font-size="10.00">pollEarphonePresent</text>
</a>
</g>
</g>
<!-- Node8&#45;&gt;Node9 -->
<g id="edge8" class="edge"><title>Node8&#45;&gt;Node9</title>
<path fill="none" stroke="midnightblue" d="M842.561,-227.725C859.352,-235.715 885.14,-247.679 908,-257 912.868,-258.985 918.03,-260.981 923.142,-262.896"/>
<polygon fill="midnightblue" stroke="midnightblue" points="922.229,-266.289 932.823,-266.451 924.642,-259.718 922.229,-266.289"/>
</g>
<!-- Node10 -->
<g id="node10" class="node"><title>Node10</title>
<g id="a_node10"><a xlink:href="teensy3__morse__bsp_8cpp.html#a2d6b4ace33ed5e497dedd03217540c63" target="_top" xlink:title="Set the PWM frequency for the audio output pins. ">
<polygon fill="white" stroke="black" points="920,-228.5 920,-247.5 1003,-247.5 1003,-228.5 920,-228.5"/>
<text text-anchor="middle" x="961.5" y="-235.5" font-family="Helvetica,sans-Serif" font-size="10.00">pwmFrequency</text>
</a>
</g>
</g>
<!-- Node8&#45;&gt;Node10 -->
<g id="edge9" class="edge"><title>Node8&#45;&gt;Node10</title>
<path fill="none" stroke="midnightblue" d="M842.56,-221.523C859.617,-223.906 886.017,-227.594 909.519,-230.878"/>
<polygon fill="midnightblue" stroke="midnightblue" points="909.334,-234.386 919.722,-232.303 910.303,-227.453 909.334,-234.386"/>
</g>
<!-- Node11 -->
<g id="node11" class="node"><title>Node11</title>
<g id="a_node11"><a xlink:href="teensy3__morse__bsp_8cpp.html#a82911eac3bf13d6f36d10102a4c4d3c4" target="_top" xlink:title="Generate a tone on the audio output pins. ">
<polygon fill="white" stroke="black" points="931,-190.5 931,-209.5 992,-209.5 992,-190.5 931,-190.5"/>
<text text-anchor="middle" x="961.5" y="-197.5" font-family="Helvetica,sans-Serif" font-size="10.00">pwmWrite</text>
</a>
</g>
</g>
<!-- Node8&#45;&gt;Node11 -->
<g id="edge10" class="edge"><title>Node8&#45;&gt;Node11</title>
<path fill="none" stroke="midnightblue" d="M842.56,-216.477C862.462,-213.697 895.083,-209.139 920.979,-205.521"/>
<polygon fill="midnightblue" stroke="midnightblue" points="921.471,-208.987 930.89,-204.137 920.502,-202.054 921.471,-208.987"/>
</g>
<!-- Node13 -->
<g id="node13" class="node"><title>Node13</title>
<g id="a_node13"><a xlink:href="teensy3__morse__bsp_8cpp.html#a6c982a7d7805f1dd5426eb98c915cfdd" target="_top" xlink:title="Turn the red LED on (1) or off (0). ">
<polygon fill="white" stroke="black" points="936.5,-152.5 936.5,-171.5 986.5,-171.5 986.5,-152.5 936.5,-152.5"/>
<text text-anchor="middle" x="961.5" y="-159.5" font-family="Helvetica,sans-Serif" font-size="10.00">redLED</text>
</a>
</g>
</g>
<!-- Node8&#45;&gt;Node13 -->
<g id="edge12" class="edge"><title>Node8&#45;&gt;Node13</title>
<path fill="none" stroke="midnightblue" d="M842.734,-212.223C851.652,-208.779 862.487,-204.398 872,-200 888.422,-192.408 891.454,-188.318 908,-181 913.992,-178.35 920.48,-175.774 926.784,-173.419"/>
<polygon fill="midnightblue" stroke="midnightblue" points="928.232,-176.617 936.442,-169.92 925.847,-170.036 928.232,-176.617"/>
</g>
<!-- Node12 -->
<g id="node12" class="node"><title>Node12</title>
<g id="a_node12"><a xlink:href="teensy3__morse__bsp_8cpp.html#ac70998cee1bf97f00aec4a1b4e5a4f60" target="_top" xlink:title="isEarphonePresent">
<polygon fill="white" stroke="black" points="1051,-190.5 1051,-209.5 1150,-209.5 1150,-190.5 1051,-190.5"/>
<text text-anchor="middle" x="1100.5" y="-197.5" font-family="Helvetica,sans-Serif" font-size="10.00">isEarphonePresent</text>
</a>
</g>
</g>
<!-- Node11&#45;&gt;Node12 -->
<g id="edge11" class="edge"><title>Node11&#45;&gt;Node12</title>
<path fill="none" stroke="midnightblue" d="M992.227,-200C1006.43,-200 1023.96,-200 1040.7,-200"/>
<polygon fill="midnightblue" stroke="midnightblue" points="1040.98,-203.5 1050.98,-200 1040.98,-196.5 1040.98,-203.5"/>
</g>
<!-- Node15&#45;&gt;Node2 -->
<g id="edge16" class="edge"><title>Node15&#45;&gt;Node2</title>
<path fill="none" stroke="midnightblue" d="M800.403,-102.156C757.252,-96.8551 658.722,-86 575.5,-86 416,-86 416,-86 416,-86 319.629,-86 278.581,-49.2116 200,-105 162.271,-131.786 147.836,-188.061 142.662,-218.104"/>
<polygon fill="midnightblue" stroke="midnightblue" points="139.167,-217.802 141.103,-228.218 146.085,-218.868 139.167,-217.802"/>
</g>
<!-- Node16&#45;&gt;Node6 -->
<g id="edge18" class="edge"><title>Node16&#45;&gt;Node6</title>
<path fill="none" stroke="midnightblue" d="M599.782,-131.237C619.242,-137.037 646.793,-145.248 668.536,-151.728"/>
<polygon fill="midnightblue" stroke="midnightblue" points="667.791,-155.158 678.374,-154.661 669.791,-148.45 667.791,-155.158"/>
</g>
<!-- Node16&#45;&gt;Node15 -->
<g id="edge19" class="edge"><title>Node16&#45;&gt;Node15</title>
<path fill="none" stroke="midnightblue" d="M599.633,-122.144C644.398,-118.7 740.294,-111.324 790.444,-107.466"/>
<polygon fill="midnightblue" stroke="midnightblue" points="790.715,-110.955 800.417,-106.699 790.178,-103.976 790.715,-110.955"/>
</g>
<!-- Node18&#45;&gt;Node3 -->
<g id="edge22" class="edge"><title>Node18&#45;&gt;Node3</title>
<path fill="none" stroke="midnightblue" d="M450.192,-282.601C460.19,-285.491 470.953,-289.511 480,-295 513.757,-315.482 544.051,-350.863 560.502,-372.184"/>
<polygon fill="midnightblue" stroke="midnightblue" points="557.862,-374.496 566.675,-380.376 563.453,-370.283 557.862,-374.496"/>
</g>
<!-- Node18&#45;&gt;Node16 -->
<g id="edge23" class="edge"><title>Node18&#45;&gt;Node16</title>
<path fill="none" stroke="midnightblue" d="M437.284,-266.367C450.122,-259.448 466.961,-249.364 480,-238 513.73,-208.603 544.99,-166.202 561.427,-142.26"/>
<polygon fill="midnightblue" stroke="midnightblue" points="564.461,-144.021 567.16,-133.776 558.661,-140.102 564.461,-144.021"/>
</g>
<!-- Node19&#45;&gt;Node17 -->
<g id="edge25" class="edge"><title>Node19&#45;&gt;Node17</title>
<path fill="none" stroke="midnightblue" d="M318.089,-230.925C326.711,-229.875 335.682,-228.782 344.54,-227.704"/>
<polygon fill="midnightblue" stroke="midnightblue" points="344.964,-231.178 354.467,-226.494 344.117,-224.229 344.964,-231.178"/>
</g>
<!-- Node19&#45;&gt;Node18 -->
<g id="edge26" class="edge"><title>Node19&#45;&gt;Node18</title>
<path fill="none" stroke="midnightblue" d="M299.365,-247.589C322.167,-253.143 350.861,-260.133 374.083,-265.789"/>
<polygon fill="midnightblue" stroke="midnightblue" points="373.451,-269.238 383.996,-268.204 375.108,-262.437 373.451,-269.238"/>
</g>
<!-- Node20&#45;&gt;Node18 -->
<g id="edge30" class="edge"><title>Node20&#45;&gt;Node18</title>
<path fill="none" stroke="midnightblue" d="M287.173,-307.381C311.119,-301.548 346.386,-292.957 373.968,-286.238"/>
<polygon fill="midnightblue" stroke="midnightblue" points="374.86,-289.624 383.748,-283.856 373.203,-282.823 374.86,-289.624"/>
</g>
<!-- Node21 -->
<g id="node21" class="node"><title>Node21</title>
<g id="a_node21"><a xlink:href="settings_8cpp.html#a7b4efa097b94f9a90c5bbafcdf93fe4f" target="_top" xlink:title="getUptime">
<polygon fill="white" stroke="black" points="386,-304.5 386,-323.5 448,-323.5 448,-304.5 386,-304.5"/>
<text text-anchor="middle" x="417" y="-311.5" font-family="Helvetica,sans-Serif" font-size="10.00">getUptime</text>
</a>
</g>
</g>
<!-- Node20&#45;&gt;Node21 -->
<g id="edge29" class="edge"><title>Node20&#45;&gt;Node21</title>
<path fill="none" stroke="midnightblue" d="M287.173,-314C311.633,-314 347.905,-314 375.735,-314"/>
<polygon fill="midnightblue" stroke="midnightblue" points="375.945,-317.5 385.945,-314 375.945,-310.5 375.945,-317.5"/>
</g>
<!-- Node23 -->
<g id="node23" class="node"><title>Node23</title>
<g id="a_node23"><a xlink:href="class_voltage_monitor.html#a70902b84f9864c95d5553a0644a64f4f" target="_top" xlink:title="Return the latest voltage reading. ">
<polygon fill="white" stroke="black" points="354,-38.5 354,-57.5 480,-57.5 480,-38.5 354,-38.5"/>
<text text-anchor="middle" x="417" y="-45.5" font-family="Helvetica,sans-Serif" font-size="10.00">VoltageMonitor::getValue</text>
</a>
</g>
</g>
<!-- Node22&#45;&gt;Node23 -->
<g id="edge32" class="edge"><title>Node22&#45;&gt;Node23</title>
<path fill="none" stroke="midnightblue" d="M296.182,-48C310.344,-48 327.117,-48 343.56,-48"/>
<polygon fill="midnightblue" stroke="midnightblue" points="343.728,-51.5001 353.728,-48 343.728,-44.5001 343.728,-51.5001"/>
</g>
<!-- Node24 -->
<g id="node24" class="node"><title>Node24</title>
<g id="a_node24"><a xlink:href="actions_8cpp.html#a2b8c3769e2aa32a2da9e2f3f85ac73dd" target="_top" xlink:title="A sample ADC reading is taken each time through the main loop, and written to a ring buffer...">
<polygon fill="white" stroke="black" points="518.5,-38.5 518.5,-57.5 630.5,-57.5 630.5,-38.5 518.5,-38.5"/>
<text text-anchor="middle" x="574.5" y="-45.5" font-family="Helvetica,sans-Serif" font-size="10.00">getVoltagePollInterval</text>
</a>
</g>
</g>
<!-- Node23&#45;&gt;Node24 -->
<g id="edge33" class="edge"><title>Node23&#45;&gt;Node24</title>
<path fill="none" stroke="midnightblue" d="M480.352,-48C489.438,-48 498.816,-48 507.963,-48"/>
<polygon fill="midnightblue" stroke="midnightblue" points="508.163,-51.5001 518.163,-48 508.163,-44.5001 508.163,-51.5001"/>
</g>
<!-- Node25 -->
<g id="node25" class="node"><title>Node25</title>
<g id="a_node25"><a xlink:href="class_voltage_monitor.html#a75871331808c34b40d04059ee2af0f27" target="_top" xlink:title="Filter and scale raw ADC values to millivolts. ">
<polygon fill="white" stroke="black" points="516,-0.5 516,-19.5 633,-19.5 633,-0.5 516,-0.5"/>
<text text-anchor="middle" x="574.5" y="-7.5" font-family="Helvetica,sans-Serif" font-size="10.00">VoltageMonitor::update</text>
</a>
</g>
</g>
<!-- Node23&#45;&gt;Node25 -->
<g id="edge34" class="edge"><title>Node23&#45;&gt;Node25</title>
<path fill="none" stroke="midnightblue" d="M457.239,-38.411C477.759,-33.3965 503.067,-27.2119 524.825,-21.8947"/>
<polygon fill="midnightblue" stroke="midnightblue" points="525.66,-25.294 534.543,-19.5201 523.998,-18.494 525.66,-25.294"/>
</g>
<!-- Node26&#45;&gt;Node3 -->
<g id="edge36" class="edge"><title>Node26&#45;&gt;Node3</title>
<path fill="none" stroke="midnightblue" d="M291.785,-390C349.911,-390 473.091,-390 535.522,-390"/>
<polygon fill="midnightblue" stroke="midnightblue" points="535.723,-393.5 545.723,-390 535.723,-386.5 535.723,-393.5"/>
</g>
</g>
</svg>
