<?xml version="1.0" encoding="UTF-8" standalone="no"?>
<!DOCTYPE svg PUBLIC "-//W3C//DTD SVG 1.1//EN"
 "http://www.w3.org/Graphics/SVG/1.1/DTD/svg11.dtd">
<!-- Generated by graphviz version 2.38.0 (20140413.2041)
 -->
<!-- Title: txTiTick Pages: 1 -->
<svg width="454pt" height="104pt"
 viewBox="0.00 0.00 454.00 104.00" xmlns="http://www.w3.org/2000/svg" xmlns:xlink="http://www.w3.org/1999/xlink">
<g id="graph0" class="graph" transform="scale(1 1) rotate(0) translate(4 100)">
<title>txTiTick</title>
<polygon fill="white" stroke="none" points="-4,4 -4,-100 450,-100 450,4 -4,4"/>
<!-- Node1 -->
<g id="node1" class="node"><title>Node1</title>
<polygon fill="#bfbfbf" stroke="black" points="0,-19.5 0,-38.5 52,-38.5 52,-19.5 0,-19.5"/>
<text text-anchor="middle" x="26" y="-26.5" font-family="Helvetica,sans-Serif" font-size="10.00">txTiTick</text>
</g>
<!-- Node2 -->
<g id="node2" class="node"><title>Node2</title>
<g id="a_node2"><a xlink:href="sound_8cpp.html#a77ffd11f8a990ba2130061186e49535a" target="_top" xlink:title="Play a PWM tone at a given frequency and duration. ">
<polygon fill="white" stroke="black" points="112,-38.5 112,-57.5 168,-57.5 168,-38.5 112,-38.5"/>
<text text-anchor="middle" x="140" y="-45.5" font-family="Helvetica,sans-Serif" font-size="10.00">playTone</text>
</a>
</g>
</g>
<!-- Node1&#45;&gt;Node2 -->
<g id="edge1" class="edge"><title>Node1&#45;&gt;Node2</title>
<path fill="none" stroke="midnightblue" d="M52.135,-33.264C66.737,-35.7411 85.4106,-38.9089 101.7,-41.6723"/>
<polygon fill="midnightblue" stroke="midnightblue" points="101.548,-45.1965 111.993,-43.4184 102.719,-38.2951 101.548,-45.1965"/>
</g>
<!-- Node7 -->
<g id="node7" class="node"><title>Node7</title>
<g id="a_node7"><a xlink:href="settings_8cpp.html#ad02597259b5753e0c98605bce44a9fc8" target="_top" xlink:title="Get the default dit duration in microseconds. ">
<polygon fill="white" stroke="black" points="88,-0.5 88,-19.5 192,-19.5 192,-0.5 88,-0.5"/>
<text text-anchor="middle" x="140" y="-7.5" font-family="Helvetica,sans-Serif" font-size="10.00">getDitMicrosDefault</text>
</a>
</g>
</g>
<!-- Node1&#45;&gt;Node7 -->
<g id="edge6" class="edge"><title>Node1&#45;&gt;Node7</title>
<path fill="none" stroke="midnightblue" d="M52.135,-24.736C59.9026,-23.4183 68.8223,-21.9051 77.9224,-20.3614"/>
<polygon fill="midnightblue" stroke="midnightblue" points="78.548,-23.8053 87.8217,-18.682 77.3772,-16.9039 78.548,-23.8053"/>
</g>
<!-- Node3 -->
<g id="node3" class="node"><title>Node3</title>
<g id="a_node3"><a xlink:href="teensy3__morse__bsp_8cpp.html#a2d6b4ace33ed5e497dedd03217540c63" target="_top" xlink:title="Set the PWM frequency for the audio output pins. ">
<polygon fill="white" stroke="black" points="228,-76.5 228,-95.5 311,-95.5 311,-76.5 228,-76.5"/>
<text text-anchor="middle" x="269.5" y="-83.5" font-family="Helvetica,sans-Serif" font-size="10.00">pwmFrequency</text>
</a>
</g>
</g>
<!-- Node2&#45;&gt;Node3 -->
<g id="edge2" class="edge"><title>Node2&#45;&gt;Node3</title>
<path fill="none" stroke="midnightblue" d="M168.039,-56.0588C185.095,-61.1422 207.47,-67.8105 226.773,-73.5636"/>
<polygon fill="midnightblue" stroke="midnightblue" points="225.959,-76.9733 236.542,-76.4754 227.959,-70.2649 225.959,-76.9733"/>
</g>
<!-- Node4 -->
<g id="node4" class="node"><title>Node4</title>
<g id="a_node4"><a xlink:href="teensy3__morse__bsp_8cpp.html#a82911eac3bf13d6f36d10102a4c4d3c4" target="_top" xlink:title="Generate a tone on the audio output pins. ">
<polygon fill="white" stroke="black" points="239,-38.5 239,-57.5 300,-57.5 300,-38.5 239,-38.5"/>
<text text-anchor="middle" x="269.5" y="-45.5" font-family="Helvetica,sans-Serif" font-size="10.00">pwmWrite</text>
</a>
</g>
</g>
<!-- Node2&#45;&gt;Node4 -->
<g id="edge3" class="edge"><title>Node2&#45;&gt;Node4</title>
<path fill="none" stroke="midnightblue" d="M168.039,-48C185.637,-48 208.895,-48 228.601,-48"/>
<polygon fill="midnightblue" stroke="midnightblue" points="228.828,-51.5001 238.828,-48 228.828,-44.5001 228.828,-51.5001"/>
</g>
<!-- Node6 -->
<g id="node6" class="node"><title>Node6</title>
<g id="a_node6"><a xlink:href="teensy3__morse__bsp_8cpp.html#a36cda3a6dd77f2141cfc703c55a47ff8" target="_top" xlink:title="getDuty">
<polygon fill="white" stroke="black" points="244,-0.5 244,-19.5 295,-19.5 295,-0.5 244,-0.5"/>
<text text-anchor="middle" x="269.5" y="-7.5" font-family="Helvetica,sans-Serif" font-size="10.00">getDuty</text>
</a>
</g>
</g>
<!-- Node2&#45;&gt;Node6 -->
<g id="edge5" class="edge"><title>Node2&#45;&gt;Node6</title>
<path fill="none" stroke="midnightblue" d="M168.039,-39.9412C187.262,-34.2121 213.24,-26.4697 233.963,-20.2934"/>
<polygon fill="midnightblue" stroke="midnightblue" points="235.078,-23.6134 243.661,-17.4029 233.078,-16.905 235.078,-23.6134"/>
</g>
<!-- Node5 -->
<g id="node5" class="node"><title>Node5</title>
<g id="a_node5"><a xlink:href="teensy3__morse__bsp_8cpp.html#ac70998cee1bf97f00aec4a1b4e5a4f60" target="_top" xlink:title="isEarphonePresent">
<polygon fill="white" stroke="black" points="347,-38.5 347,-57.5 446,-57.5 446,-38.5 347,-38.5"/>
<text text-anchor="middle" x="396.5" y="-45.5" font-family="Helvetica,sans-Serif" font-size="10.00">isEarphonePresent</text>
</a>
</g>
</g>
<!-- Node4&#45;&gt;Node5 -->
<g id="edge4" class="edge"><title>Node4&#45;&gt;Node5</title>
<path fill="none" stroke="midnightblue" d="M300.123,-48C311.061,-48 323.876,-48 336.501,-48"/>
<polygon fill="midnightblue" stroke="midnightblue" points="336.545,-51.5001 346.545,-48 336.545,-44.5001 336.545,-51.5001"/>
</g>
</g>
</svg>
