<?xml version="1.0" encoding="UTF-8" standalone="no"?>
<!DOCTYPE svg PUBLIC "-//W3C//DTD SVG 1.1//EN"
 "http://www.w3.org/Graphics/SVG/1.1/DTD/svg11.dtd">
<!-- Generated by graphviz version 2.38.0 (20140413.2041)
 -->
<!-- Title: actions.h Pages: 1 -->
<!--zoomable 252 -->
<svg id="main" version="1.1" xmlns="http://www.w3.org/2000/svg" xmlns:xlink="http://www.w3.org/1999/xlink" xml:space="preserve" onload="init(evt)">
<style type="text/css"><![CDATA[
.edge:hover path { stroke: red; }
.edge:hover polygon { stroke: red; fill: red; }
]]></style>
<script type="text/javascript"><![CDATA[
var edges = document.getElementsByTagName('g');
if (edges && edges.length) {
  for (var i=0;i<edges.length;i++) {
    if (edges[i].id.substr(0,4)=='edge') {
      edges[i].setAttribute('class','edge');
    }
  }
}
]]></script>
        <defs>
                <circle id="rim" cx="0" cy="0" r="7"/>
                <circle id="rim2" cx="0" cy="0" r="3.5"/>
                <g id="zoomPlus">
                        <use xlink:href="#rim" fill="#404040">
                                <set attributeName="fill" to="#808080" begin="zoomplus.mouseover" end="zoomplus.mouseout"/>
                        </use>
                        <path d="M-4,0h8M0,-4v8" fill="none" stroke="white" stroke-width="1.5" pointer-events="none"/>
                </g>
                <g id="zoomMin">
                        <use xlink:href="#rim" fill="#404040">
                                <set attributeName="fill" to="#808080" begin="zoomminus.mouseover" end="zoomminus.mouseout"/>
                        </use>
                        <path d="M-4,0h8" fill="none" stroke="white" stroke-width="1.5" pointer-events="none"/>
                </g>
                <g id="dirArrow">
                        <path fill="none" stroke="white" stroke-width="1.5" d="M0,-3.0v7 M-2.5,-0.5L0,-3.0L2.5,-0.5"/>
                </g>
               <g id="resetDef">
                       <use xlink:href="#rim2" fill="#404040">
                               <set attributeName="fill" to="#808080" begin="reset.mouseover" end="reset.mouseout"/>
                       </use>
               </g>
        </defs>

<script type="text/javascript">
var viewWidth = 561;
var viewHeight = 252;
var sectionId = 'dynsection-0';
</script>
<script xlink:href="svgpan.js"/>
<svg id="graph" class="graph">
<g id="viewport">
<title>actions.h</title>
<polygon fill="white" stroke="none" points="-4,4 -4,-248 557.014,-248 557.014,4 -4,4"/>
<!-- Node1 -->
<g id="node1" class="node"><title>Node1</title>
<polygon fill="#bfbfbf" stroke="black" points="253.514,-224.5 253.514,-243.5 309.514,-243.5 309.514,-224.5 253.514,-224.5"/>
<text text-anchor="middle" x="281.514" y="-231.5" font-family="Helvetica,sans-Serif" font-size="10.00">actions.h</text>
</g>
<!-- Node2 -->
<g id="node2" class="node"><title>Node2</title>
<polygon fill="white" stroke="#bfbfbf" points="62.5141,-56.5 62.5141,-75.5 120.514,-75.5 120.514,-56.5 62.5141,-56.5"/>
<text text-anchor="middle" x="91.5141" y="-63.5" font-family="Helvetica,sans-Serif" font-size="10.00">Arduino.h</text>
</g>
<!-- Node1&#45;&gt;Node2 -->
<g id="edge1" class="edge"><title>Node1&#45;&gt;Node2</title>
<path fill="none" stroke="midnightblue" d="M253.369,-232.544C195.197,-229.892 62.3293,-214.619 4.51411,-132 -12.0681,-108.304 22.4601,-89.667 52.8006,-78.5347"/>
<polygon fill="midnightblue" stroke="midnightblue" points="54.1371,-81.7756 62.4342,-75.1871 51.8394,-75.1634 54.1371,-81.7756"/>
</g>
<!-- Node3 -->
<g id="node3" class="node"><title>Node3</title>
<g id="a_node3"><a xlink:href="libmorse_8h.html" target="_top" xlink:title="Morse code operations. ">
<polygon fill="white" stroke="black" points="250.514,-168.5 250.514,-187.5 312.514,-187.5 312.514,-168.5 250.514,-168.5"/>
<text text-anchor="middle" x="281.514" y="-175.5" font-family="Helvetica,sans-Serif" font-size="10.00">libmorse.h</text>
</a>
</g>
</g>
<!-- Node1&#45;&gt;Node3 -->
<g id="edge2" class="edge"><title>Node1&#45;&gt;Node3</title>
<path fill="none" stroke="midnightblue" d="M281.514,-224.083C281.514,-217.006 281.514,-206.861 281.514,-197.986"/>
<polygon fill="midnightblue" stroke="midnightblue" points="285.014,-197.751 281.514,-187.751 278.014,-197.751 285.014,-197.751"/>
</g>
<!-- Node10 -->
<g id="node10" class="node"><title>Node10</title>
<g id="a_node10"><a xlink:href="morse__token_8h.html" target="_top" xlink:title="Defines the MorseToken class and various helpers. ">
<polygon fill="white" stroke="black" points="364.014,-112.5 364.014,-131.5 445.014,-131.5 445.014,-112.5 364.014,-112.5"/>
<text text-anchor="middle" x="404.514" y="-119.5" font-family="Helvetica,sans-Serif" font-size="10.00">morse_token.h</text>
</a>
</g>
</g>
<!-- Node1&#45;&gt;Node10 -->
<g id="edge17" class="edge"><title>Node1&#45;&gt;Node10</title>
<path fill="none" stroke="midnightblue" d="M291.166,-224.368C311.913,-205.814 361.002,-161.913 387.252,-138.438"/>
<polygon fill="midnightblue" stroke="midnightblue" points="389.786,-140.867 394.907,-131.591 385.12,-135.649 389.786,-140.867"/>
</g>
<!-- Node4 -->
<g id="node4" class="node"><title>Node4</title>
<g id="a_node4"><a xlink:href="binconst_8h.html" target="_top" xlink:title="Binary constant generator macro. ">
<polygon fill="white" stroke="black" points="310.514,-0.5 310.514,-19.5 372.514,-19.5 372.514,-0.5 310.514,-0.5"/>
<text text-anchor="middle" x="341.514" y="-7.5" font-family="Helvetica,sans-Serif" font-size="10.00">binconst.h</text>
</a>
</g>
</g>
<!-- Node3&#45;&gt;Node4 -->
<g id="edge3" class="edge"><title>Node3&#45;&gt;Node4</title>
<path fill="none" stroke="midnightblue" d="M280.61,-168.24C278.865,-147.519 276.711,-94.3563 295.514,-56 301.237,-44.3259 311.263,-33.9663 320.497,-26.1386"/>
<polygon fill="midnightblue" stroke="midnightblue" points="322.954,-28.6566 328.608,-19.6966 318.6,-23.175 322.954,-28.6566"/>
</g>
<!-- Node5 -->
<g id="node5" class="node"><title>Node5</title>
<polygon fill="white" stroke="#bfbfbf" points="14.0141,-112.5 14.0141,-131.5 57.0141,-131.5 57.0141,-112.5 14.0141,-112.5"/>
<text text-anchor="middle" x="35.5141" y="-119.5" font-family="Helvetica,sans-Serif" font-size="10.00">cstdio</text>
</g>
<!-- Node3&#45;&gt;Node5 -->
<g id="edge4" class="edge"><title>Node3&#45;&gt;Node5</title>
<path fill="none" stroke="midnightblue" d="M250.369,-171.254C210.284,-163.691 138.294,-149.543 67.1648,-132.003"/>
<polygon fill="midnightblue" stroke="midnightblue" points="67.6867,-128.526 57.1373,-129.506 65.9951,-135.319 67.6867,-128.526"/>
</g>
<!-- Node6 -->
<g id="node6" class="node"><title>Node6</title>
<polygon fill="white" stroke="#bfbfbf" points="75.5141,-112.5 75.5141,-131.5 121.514,-131.5 121.514,-112.5 75.5141,-112.5"/>
<text text-anchor="middle" x="98.5141" y="-119.5" font-family="Helvetica,sans-Serif" font-size="10.00">cstring</text>
</g>
<!-- Node3&#45;&gt;Node6 -->
<g id="edge5" class="edge"><title>Node3&#45;&gt;Node6</title>
<path fill="none" stroke="midnightblue" d="M252.517,-168.444C219.495,-158.699 165.668,-142.816 131.188,-132.641"/>
<polygon fill="midnightblue" stroke="midnightblue" points="132.163,-129.28 121.581,-129.807 130.182,-135.994 132.163,-129.28"/>
</g>
<!-- Node7 -->
<g id="node7" class="node"><title>Node7</title>
<polygon fill="white" stroke="#bfbfbf" points="304.514,-56.5 304.514,-75.5 360.514,-75.5 360.514,-56.5 304.514,-56.5"/>
<text text-anchor="middle" x="332.514" y="-63.5" font-family="Helvetica,sans-Serif" font-size="10.00">cinttypes</text>
</g>
<!-- Node3&#45;&gt;Node7 -->
<g id="edge6" class="edge"><title>Node3&#45;&gt;Node7</title>
<path fill="none" stroke="midnightblue" d="M285.516,-168.368C293.821,-150.456 313.077,-108.923 324.193,-84.9482"/>
<polygon fill="midnightblue" stroke="midnightblue" points="327.5,-86.136 328.531,-75.5914 321.149,-83.1916 327.5,-86.136"/>
</g>
<!-- Node8 -->
<g id="node8" class="node"><title>Node8</title>
<polygon fill="white" stroke="#bfbfbf" points="508.014,-0.5 508.014,-19.5 553.014,-19.5 553.014,-0.5 508.014,-0.5"/>
<text text-anchor="middle" x="530.514" y="-7.5" font-family="Helvetica,sans-Serif" font-size="10.00">climits</text>
</g>
<!-- Node3&#45;&gt;Node8 -->
<g id="edge7" class="edge"><title>Node3&#45;&gt;Node8</title>
<path fill="none" stroke="midnightblue" d="M312.534,-172.466C347.928,-166.492 406.929,-154.065 453.514,-132 491.757,-113.886 511.312,-113.708 530.514,-76 537.795,-61.7016 536.988,-43.2345 534.831,-29.6404"/>
<polygon fill="midnightblue" stroke="midnightblue" points="538.214,-28.7027 532.85,-19.566 531.346,-30.0534 538.214,-28.7027"/>
</g>
<!-- Node9 -->
<g id="node9" class="node"><title>Node9</title>
<g id="a_node9"><a xlink:href="teensy3__morse__bsp_8h.html" target="_top" xlink:title="Teensy 3.0 board support package. ">
<polygon fill="white" stroke="black" points="140.014,-112.5 140.014,-131.5 253.014,-131.5 253.014,-112.5 140.014,-112.5"/>
<text text-anchor="middle" x="196.514" y="-119.5" font-family="Helvetica,sans-Serif" font-size="10.00">teensy3_morse_bsp.h</text>
</a>
</g>
</g>
<!-- Node3&#45;&gt;Node9 -->
<g id="edge8" class="edge"><title>Node3&#45;&gt;Node9</title>
<path fill="none" stroke="midnightblue" d="M267.857,-168.324C254.598,-159.9 234.246,-146.971 218.668,-137.074"/>
<polygon fill="midnightblue" stroke="midnightblue" points="220.454,-134.063 210.137,-131.655 216.701,-139.971 220.454,-134.063"/>
</g>
<!-- Node3&#45;&gt;Node10 -->
<g id="edge10" class="edge"><title>Node3&#45;&gt;Node10</title>
<path fill="none" stroke="midnightblue" d="M301.004,-168.444C321.156,-159.596 352.837,-145.687 375.845,-135.586"/>
<polygon fill="midnightblue" stroke="midnightblue" points="377.366,-138.741 385.116,-131.516 374.552,-132.332 377.366,-138.741"/>
</g>
<!-- Node9&#45;&gt;Node2 -->
<g id="edge9" class="edge"><title>Node9&#45;&gt;Node2</title>
<path fill="none" stroke="midnightblue" d="M179.644,-112.324C162.805,-103.664 136.708,-90.2424 117.276,-80.249"/>
<polygon fill="midnightblue" stroke="midnightblue" points="118.836,-77.1155 108.342,-75.6545 115.634,-83.3405 118.836,-77.1155"/>
</g>
<!-- Node10&#45;&gt;Node7 -->
<g id="edge11" class="edge"><title>Node10&#45;&gt;Node7</title>
<path fill="none" stroke="midnightblue" d="M392.946,-112.324C382.094,-104.185 365.633,-91.8395 352.631,-82.0874"/>
<polygon fill="midnightblue" stroke="midnightblue" points="354.393,-79.0339 344.293,-75.8339 350.193,-84.6339 354.393,-79.0339"/>
</g>
<!-- Node10&#45;&gt;Node8 -->
<g id="edge12" class="edge"><title>Node10&#45;&gt;Node8</title>
<path fill="none" stroke="midnightblue" d="M445.181,-112.599C467.288,-106.076 493.508,-94.8539 510.514,-76 521.996,-63.271 526.887,-44.0732 528.97,-29.8383"/>
<polygon fill="midnightblue" stroke="midnightblue" points="532.47,-30.0333 530.111,-19.7045 525.514,-29.2501 532.47,-30.0333"/>
</g>
<!-- Node11 -->
<g id="node11" class="node"><title>Node11</title>
<polygon fill="white" stroke="#bfbfbf" points="453.014,-56.5 453.014,-75.5 502.014,-75.5 502.014,-56.5 453.014,-56.5"/>
<text text-anchor="middle" x="477.514" y="-63.5" font-family="Helvetica,sans-Serif" font-size="10.00">cstddef</text>
</g>
<!-- Node10&#45;&gt;Node11 -->
<g id="edge13" class="edge"><title>Node10&#45;&gt;Node11</title>
<path fill="none" stroke="midnightblue" d="M416.243,-112.324C427.351,-104.107 444.256,-91.6017 457.497,-81.8069"/>
<polygon fill="midnightblue" stroke="midnightblue" points="459.614,-84.5948 465.572,-75.8339 455.451,-78.9671 459.614,-84.5948"/>
</g>
<!-- Node12 -->
<g id="node12" class="node"><title>Node12</title>
<g id="a_node12"><a xlink:href="prosign_8h.html" target="_top" xlink:title="Prosign constants. ">
<polygon fill="white" stroke="black" points="378.514,-56.5 378.514,-75.5 434.514,-75.5 434.514,-56.5 378.514,-56.5"/>
<text text-anchor="middle" x="406.514" y="-63.5" font-family="Helvetica,sans-Serif" font-size="10.00">prosign.h</text>
</a>
</g>
</g>
<!-- Node10&#45;&gt;Node12 -->
<g id="edge14" class="edge"><title>Node10&#45;&gt;Node12</title>
<path fill="none" stroke="midnightblue" d="M404.844,-112.083C405.106,-105.006 405.482,-94.8611 405.811,-85.9865"/>
<polygon fill="midnightblue" stroke="midnightblue" points="409.317,-85.8738 406.19,-75.7511 402.322,-85.6147 409.317,-85.8738"/>
</g>
<!-- Node12&#45;&gt;Node4 -->
<g id="edge15" class="edge"><title>Node12&#45;&gt;Node4</title>
<path fill="none" stroke="midnightblue" d="M396.071,-56.324C386.368,-48.2631 371.699,-36.0765 360.014,-26.3695"/>
<polygon fill="midnightblue" stroke="midnightblue" points="362.076,-23.532 352.148,-19.8339 357.603,-28.9163 362.076,-23.532"/>
</g>
<!-- Node12&#45;&gt;Node8 -->
<g id="edge16" class="edge"><title>Node12&#45;&gt;Node8</title>
<path fill="none" stroke="midnightblue" d="M426.162,-56.4435C446.479,-47.5961 478.417,-33.6875 501.612,-23.5865"/>
<polygon fill="midnightblue" stroke="midnightblue" points="503.187,-26.7181 510.958,-19.5164 500.392,-20.3002 503.187,-26.7181"/>
</g>
</g>
</svg>
        <g id="navigator" transform="translate(0 0)" fill="#404254">
                <rect fill="#f2f5e9" fill-opacity="0.5" stroke="#606060" stroke-width=".5" x="0" y="0" width="60" height="60"/>
                <use id="zoomplus" xlink:href="#zoomPlus" x="17" y="9" onmousedown="handleZoom(evt,'in')"/>
                <use id="zoomminus" xlink:href="#zoomMin" x="42" y="9" onmousedown="handleZoom(evt,'out')"/>
                <use id="reset" xlink:href="#resetDef" x="30" y="36" onmousedown="handleReset()"/>
                <g id="arrowUp" xlink:href="#dirArrow" transform="translate(30 24)" onmousedown="handlePan(0,-1)">
                  <use xlink:href="#rim" fill="#404040">
                        <set attributeName="fill" to="#808080" begin="arrowUp.mouseover" end="arrowUp.mouseout"/>
                  </use>
                  <path fill="none" stroke="white" stroke-width="1.5" d="M0,-3.0v7 M-2.5,-0.5L0,-3.0L2.5,-0.5"/>
                </g>
                <g id="arrowRight" xlink:href="#dirArrow" transform="rotate(90) translate(36 -43)" onmousedown="handlePan(1,0)">
                  <use xlink:href="#rim" fill="#404040">
                        <set attributeName="fill" to="#808080" begin="arrowRight.mouseover" end="arrowRight.mouseout"/>
                  </use>
                  <path fill="none" stroke="white" stroke-width="1.5" d="M0,-3.0v7 M-2.5,-0.5L0,-3.0L2.5,-0.5"/>
                </g>
                <g id="arrowDown" xlink:href="#dirArrow" transform="rotate(180) translate(-30 -48)" onmousedown="handlePan(0,1)">
                  <use xlink:href="#rim" fill="#404040">
                        <set attributeName="fill" to="#808080" begin="arrowDown.mouseover" end="arrowDown.mouseout"/>
                  </use>
                  <path fill="none" stroke="white" stroke-width="1.5" d="M0,-3.0v7 M-2.5,-0.5L0,-3.0L2.5,-0.5"/>
                </g>
                <g id="arrowLeft" xlink:href="#dirArrow" transform="rotate(270) translate(-36 17)" onmousedown="handlePan(-1,0)">
                  <use xlink:href="#rim" fill="#404040">
                        <set attributeName="fill" to="#808080" begin="arrowLeft.mouseover" end="arrowLeft.mouseout"/>
                  </use>
                  <path fill="none" stroke="white" stroke-width="1.5" d="M0,-3.0v7 M-2.5,-0.5L0,-3.0L2.5,-0.5"/>
                </g>
        </g>
        <svg viewBox="0 0 15 15" width="100%" height="30px" preserveAspectRatio="xMaxYMin meet">
         <g id="arrow_out" transform="scale(0.3 0.3)">
          <a xlink:href="actions_8h__incl_org.svg" target="_base">
           <rect id="button" ry="5" rx="5" y="6" x="6" height="38" width="38"
                fill="#f2f5e9" fill-opacity="0.5" stroke="#606060" stroke-width="1.0"/>
           <path id="arrow"
             d="M 11.500037,31.436501 C 11.940474,20.09759 22.043105,11.32322 32.158766,21.979434 L 37.068811,17.246167 C 37.068811,17.246167 37.088388,32 37.088388,32 L 22.160133,31.978069 C 22.160133,31.978069 26.997745,27.140456 26.997745,27.140456 C 18.528582,18.264221 13.291696,25.230495 11.500037,31.436501 z"
             style="fill:#404040;"/>
          </a>
         </g>
        </svg>
</svg>
