<?xml version="1.0" encoding="UTF-8" standalone="no"?>
<!DOCTYPE svg PUBLIC "-//W3C//DTD SVG 1.1//EN"
 "http://www.w3.org/Graphics/SVG/1.1/DTD/svg11.dtd">
<!-- Generated by graphviz version 2.38.0 (20140413.2041)
 -->
<!-- Title: txTick Pages: 1 -->
<svg width="395pt" height="85pt"
 viewBox="0.00 0.00 395.00 85.00" xmlns="http://www.w3.org/2000/svg" xmlns:xlink="http://www.w3.org/1999/xlink">
<g id="graph0" class="graph" transform="scale(1 1) rotate(0) translate(4 81)">
<title>txTick</title>
<polygon fill="white" stroke="none" points="-4,4 -4,-81 391,-81 391,4 -4,4"/>
<!-- Node1 -->
<g id="node1" class="node"><title>Node1</title>
<polygon fill="#bfbfbf" stroke="black" points="0,-19.5 0,-38.5 44,-38.5 44,-19.5 0,-19.5"/>
<text text-anchor="middle" x="22" y="-26.5" font-family="Helvetica,sans-Serif" font-size="10.00">txTick</text>
</g>
<!-- Node2 -->
<g id="node2" class="node"><title>Node2</title>
<g id="a_node2"><a xlink:href="libmorse_8h.html#ac4a29ea9b7bb06c2d9e8c4d74f486b91" target="_top" xlink:title="Accumulate a Morse token. ">
<polygon fill="white" stroke="black" points="88.5,-38.5 88.5,-57.5 145.5,-57.5 145.5,-38.5 88.5,-38.5"/>
<text text-anchor="middle" x="117" y="-45.5" font-family="Helvetica,sans-Serif" font-size="10.00">getMorse</text>
</a>
</g>
</g>
<!-- Node1&#45;&gt;Node2 -->
<g id="edge1" class="edge"><title>Node1&#45;&gt;Node2</title>
<path fill="none" stroke="midnightblue" d="M54.1895,-35.3721C65.222,-37.626 77.5487,-40.1444 88.274,-42.3356"/>
<polygon fill="midnightblue" stroke="midnightblue" points="54.6014,-31.884 44.1031,-33.3114 53.2002,-38.7423 54.6014,-31.884"/>
</g>
<!-- Node6 -->
<g id="node6" class="node"><title>Node6</title>
<g id="a_node6"><a xlink:href="pda_8h.html#aee08a527408a7a8a4b5490d13b767cb2" target="_top" xlink:title="txMetronome">
<polygon fill="white" stroke="black" points="80,-0.5 80,-19.5 154,-19.5 154,-0.5 80,-0.5"/>
<text text-anchor="middle" x="117" y="-7.5" font-family="Helvetica,sans-Serif" font-size="10.00">txMetronome</text>
</a>
</g>
</g>
<!-- Node1&#45;&gt;Node6 -->
<g id="edge6" class="edge"><title>Node1&#45;&gt;Node6</title>
<path fill="none" stroke="midnightblue" d="M54.0274,-22.6611C62.2405,-20.9831 71.1805,-19.1567 79.6484,-17.4267"/>
<polygon fill="midnightblue" stroke="midnightblue" points="53.2002,-19.2577 44.1031,-24.6886 54.6014,-26.116 53.2002,-19.2577"/>
</g>
<!-- Node3 -->
<g id="node3" class="node"><title>Node3</title>
<g id="a_node3"><a xlink:href="libmorse_8cpp.html#afa60f07ebee7c34ef41c3dfb64222bb6" target="_top" xlink:title="Score the given pattern against the state of the symbol stack. ">
<polygon fill="white" stroke="black" points="190,-57.5 190,-76.5 259,-76.5 259,-57.5 190,-57.5"/>
<text text-anchor="middle" x="224.5" y="-64.5" font-family="Helvetica,sans-Serif" font-size="10.00">matchScore</text>
</a>
</g>
</g>
<!-- Node2&#45;&gt;Node3 -->
<g id="edge2" class="edge"><title>Node2&#45;&gt;Node3</title>
<path fill="none" stroke="midnightblue" d="M155.657,-54.7818C166.851,-56.7979 179.037,-58.9924 189.952,-60.9581"/>
<polygon fill="midnightblue" stroke="midnightblue" points="156.181,-51.32 145.719,-52.992 154.94,-58.2091 156.181,-51.32"/>
</g>
<!-- Node5 -->
<g id="node5" class="node"><title>Node5</title>
<g id="a_node5"><a xlink:href="libmorse_8h.html#a25fad1f4d176afaa89839cc897891e78" target="_top" xlink:title="rxString">
<polygon fill="white" stroke="black" points="199.5,-19.5 199.5,-38.5 249.5,-38.5 249.5,-19.5 199.5,-19.5"/>
<text text-anchor="middle" x="224.5" y="-26.5" font-family="Helvetica,sans-Serif" font-size="10.00">rxString</text>
</a>
</g>
</g>
<!-- Node2&#45;&gt;Node5 -->
<g id="edge4" class="edge"><title>Node2&#45;&gt;Node5</title>
<path fill="none" stroke="midnightblue" d="M155.873,-41.1793C170.305,-38.5801 186.355,-35.6895 199.197,-33.3769"/>
<polygon fill="midnightblue" stroke="midnightblue" points="154.94,-37.7909 145.719,-43.008 156.181,-44.68 154.94,-37.7909"/>
</g>
<!-- Node4 -->
<g id="node4" class="node"><title>Node4</title>
<g id="a_node4"><a xlink:href="actions_8h.html#a1fec7da4166b9612d2deec3d0262d60f" target="_top" xlink:title="dispatchOnStack">
<polygon fill="white" stroke="black" points="295,-38.5 295,-57.5 387,-57.5 387,-38.5 295,-38.5"/>
<text text-anchor="middle" x="341" y="-45.5" font-family="Helvetica,sans-Serif" font-size="10.00">dispatchOnStack</text>
</a>
</g>
</g>
<!-- Node3&#45;&gt;Node4 -->
<g id="edge3" class="edge"><title>Node3&#45;&gt;Node4</title>
<path fill="none" stroke="midnightblue" d="M269.15,-59.7567C277.488,-58.3732 286.233,-56.922 294.623,-55.5298"/>
<polygon fill="midnightblue" stroke="midnightblue" points="268.527,-56.3123 259.234,-61.4021 269.673,-63.2178 268.527,-56.3123"/>
</g>
<!-- Node5&#45;&gt;Node4 -->
<g id="edge5" class="edge"><title>Node5&#45;&gt;Node4</title>
<path fill="none" stroke="midnightblue" d="M259.591,-34.657C270.625,-36.488 283.039,-38.548 294.752,-40.4915"/>
<polygon fill="midnightblue" stroke="midnightblue" points="259.941,-31.1673 249.503,-32.983 258.795,-38.0729 259.941,-31.1673"/>
</g>
</g>
</svg>
