<?xml version="1.0" encoding="UTF-8" standalone="no"?>
<!DOCTYPE svg PUBLIC "-//W3C//DTD SVG 1.1//EN"
 "http://www.w3.org/Graphics/SVG/1.1/DTD/svg11.dtd">
<!-- Generated by graphviz version 2.38.0 (20140413.2041)
 -->
<!-- Title: txInternalTemperatureF Pages: 1 -->
<svg width="1153pt" height="521pt"
 viewBox="0.00 0.00 1153.00 521.00" xmlns="http://www.w3.org/2000/svg" xmlns:xlink="http://www.w3.org/1999/xlink">
<g id="graph0" class="graph" transform="scale(1 1) rotate(0) translate(4 517)">
<title>txInternalTemperatureF</title>
<polygon fill="white" stroke="none" points="-4,4 -4,-517 1149,-517 1149,4 -4,4"/>
<!-- Node1 -->
<g id="node1" class="node"><title>Node1</title>
<polygon fill="#bfbfbf" stroke="black" points="0,-465.5 0,-484.5 118,-484.5 118,-465.5 0,-465.5"/>
<text text-anchor="middle" x="59" y="-472.5" font-family="Helvetica,sans-Serif" font-size="10.00">txInternalTemperatureF</text>
</g>
<!-- Node2 -->
<g id="node2" class="node"><title>Node2</title>
<g id="a_node2"><a xlink:href="teensy3__morse__bsp_8cpp.html#a8761e874366e227690fba2964e1bc445" target="_top" xlink:title="getInternalTemperatureC">
<polygon fill="white" stroke="black" points="705,-484.5 705,-503.5 830,-503.5 830,-484.5 705,-484.5"/>
<text text-anchor="middle" x="767.5" y="-491.5" font-family="Helvetica,sans-Serif" font-size="10.00">getInternalTemperatureC</text>
</a>
</g>
</g>
<!-- Node1&#45;&gt;Node2 -->
<g id="edge1" class="edge"><title>Node1&#45;&gt;Node2</title>
<path fill="none" stroke="midnightblue" d="M93.9819,-484.589C136.938,-495.846 213.333,-513 280,-513 280,-513 280,-513 478.5,-513 552.242,-513 636.375,-506.721 694.583,-501.382"/>
<polygon fill="midnightblue" stroke="midnightblue" points="695.147,-504.845 704.78,-500.433 694.498,-497.875 695.147,-504.845"/>
</g>
<!-- Node3 -->
<g id="node3" class="node"><title>Node3</title>
<g id="a_node3"><a xlink:href="libmorse_8cpp.html#a47abdd74b66d7180c47d192bab8bdccb" target="_top" xlink:title="Transmit an unsigned integer in Morse code. ">
<polygon fill="white" stroke="black" points="154,-389.5 154,-408.5 220,-408.5 220,-389.5 154,-389.5"/>
<text text-anchor="middle" x="187" y="-396.5" font-family="Helvetica,sans-Serif" font-size="10.00">txUnsigned</text>
</a>
</g>
</g>
<!-- Node1&#45;&gt;Node3 -->
<g id="edge2" class="edge"><title>Node1&#45;&gt;Node3</title>
<path fill="none" stroke="midnightblue" d="M75.958,-465.375C97.5438,-452.355 136.248,-429.009 161.524,-413.764"/>
<polygon fill="midnightblue" stroke="midnightblue" points="163.416,-416.709 170.172,-408.547 159.801,-410.715 163.416,-416.709"/>
</g>
<!-- Node4 -->
<g id="node4" class="node"><title>Node4</title>
<g id="a_node4"><a xlink:href="teensy3__morse__bsp_8cpp.html#ab306f692c5c9455a0c82782a67ff0147" target="_top" xlink:title="touchPoll">
<polygon fill="white" stroke="black" points="900.5,-313.5 900.5,-332.5 957.5,-332.5 957.5,-313.5 900.5,-313.5"/>
<text text-anchor="middle" x="929" y="-320.5" font-family="Helvetica,sans-Serif" font-size="10.00">touchPoll</text>
</a>
</g>
</g>
<!-- Node3&#45;&gt;Node4 -->
<g id="edge3" class="edge"><title>Node3&#45;&gt;Node4</title>
<path fill="none" stroke="midnightblue" d="M187.77,-389.137C186.889,-327.694 190.443,-0 366.5,-0 366.5,-0 366.5,-0 616.5,-0 669.979,-0 777.166,-40.2786 830,-95 889.613,-156.743 915.79,-260.447 924.472,-303.426"/>
<polygon fill="midnightblue" stroke="midnightblue" points="921.068,-304.26 926.391,-313.421 927.942,-302.94 921.068,-304.26"/>
</g>
<!-- Node6 -->
<g id="node6" class="node"><title>Node6</title>
<g id="a_node6"><a xlink:href="libmorse_8cpp.html#acd4b292f5e412ee4f05aed9dafbc072d" target="_top" xlink:title="Convert an ASCII character into Morse code and transmit it. ">
<polygon fill="white" stroke="black" points="256,-332.5 256,-351.5 306,-351.5 306,-332.5 256,-332.5"/>
<text text-anchor="middle" x="281" y="-339.5" font-family="Helvetica,sans-Serif" font-size="10.00">txLetter</text>
</a>
</g>
</g>
<!-- Node3&#45;&gt;Node6 -->
<g id="edge5" class="edge"><title>Node3&#45;&gt;Node6</title>
<path fill="none" stroke="midnightblue" d="M203.607,-389.331C217.967,-380.433 239.482,-367.104 256.023,-356.855"/>
<polygon fill="midnightblue" stroke="midnightblue" points="257.967,-359.768 264.624,-351.526 254.28,-353.818 257.967,-359.768"/>
</g>
<!-- Node5 -->
<g id="node5" class="node"><title>Node5</title>
<g id="a_node5"><a xlink:href="teensy3__morse__bsp_8cpp.html#af6899cd9b83df54106b259ab81ea5cb2" target="_top" xlink:title="touchMargin">
<polygon fill="white" stroke="black" points="1051.5,-313.5 1051.5,-332.5 1121.5,-332.5 1121.5,-313.5 1051.5,-313.5"/>
<text text-anchor="middle" x="1086.5" y="-320.5" font-family="Helvetica,sans-Serif" font-size="10.00">touchMargin</text>
</a>
</g>
</g>
<!-- Node4&#45;&gt;Node5 -->
<g id="edge4" class="edge"><title>Node4&#45;&gt;Node5</title>
<path fill="none" stroke="midnightblue" d="M957.8,-323C980.937,-323 1014.31,-323 1041.13,-323"/>
<polygon fill="midnightblue" stroke="midnightblue" points="1041.43,-326.5 1051.43,-323 1041.43,-319.5 1041.43,-326.5"/>
</g>
<!-- Node7 -->
<g id="node7" class="node"><title>Node7</title>
<g id="a_node7"><a xlink:href="libmorse_8cpp.html#a9fdfce728595d72b78dc7c834ab99a40" target="_top" xlink:title="Transmit a literal Morse code value. ">
<polygon fill="white" stroke="black" points="342,-237.5 342,-256.5 393,-256.5 393,-237.5 342,-237.5"/>
<text text-anchor="middle" x="367.5" y="-244.5" font-family="Helvetica,sans-Serif" font-size="10.00">txLiteral</text>
</a>
</g>
</g>
<!-- Node6&#45;&gt;Node7 -->
<g id="edge6" class="edge"><title>Node6&#45;&gt;Node7</title>
<path fill="none" stroke="midnightblue" d="M290.725,-332.191C304.967,-316.179 333.393,-284.221 351.093,-264.322"/>
<polygon fill="midnightblue" stroke="midnightblue" points="353.918,-266.412 357.949,-256.614 348.687,-261.76 353.918,-266.412"/>
</g>
<!-- Node17 -->
<g id="node17" class="node"><title>Node17</title>
<g id="a_node17"><a xlink:href="libmorse_8cpp.html#ab94e088615119d1faae7df22ce50aedf" target="_top" xlink:title="Transmit a Morse code prosign indicating an error. ">
<polygon fill="white" stroke="black" points="454.5,-313.5 454.5,-332.5 500.5,-332.5 500.5,-313.5 454.5,-313.5"/>
<text text-anchor="middle" x="477.5" y="-320.5" font-family="Helvetica,sans-Serif" font-size="10.00">txError</text>
</a>
</g>
</g>
<!-- Node6&#45;&gt;Node17 -->
<g id="edge36" class="edge"><title>Node6&#45;&gt;Node17</title>
<path fill="none" stroke="midnightblue" d="M306.24,-339.632C341.053,-336.231 405.282,-329.957 444.125,-326.163"/>
<polygon fill="midnightblue" stroke="midnightblue" points="444.749,-329.618 454.361,-325.163 444.069,-322.652 444.749,-329.618"/>
</g>
<!-- Node8 -->
<g id="node8" class="node"><title>Node8</title>
<g id="a_node8"><a xlink:href="class_morse_token.html#a48cd72aeb868391449d1f51c1d0bf5cc" target="_top" xlink:title="Treat code == 0 as the error token. ">
<polygon fill="white" stroke="black" points="429,-237.5 429,-256.5 526,-256.5 526,-237.5 429,-237.5"/>
<text text-anchor="middle" x="477.5" y="-244.5" font-family="Helvetica,sans-Serif" font-size="10.00">MorseToken::valid</text>
</a>
</g>
</g>
<!-- Node7&#45;&gt;Node8 -->
<g id="edge7" class="edge"><title>Node7&#45;&gt;Node8</title>
<path fill="none" stroke="midnightblue" d="M393.007,-247C400.694,-247 409.531,-247 418.516,-247"/>
<polygon fill="midnightblue" stroke="midnightblue" points="418.67,-250.5 428.67,-247 418.67,-243.5 418.67,-250.5"/>
</g>
<!-- Node9 -->
<g id="node9" class="node"><title>Node9</title>
<g id="a_node9"><a xlink:href="teensy3__morse__bsp_8cpp.html#af66e71e3fac9b6a2c6532bc8a513bfde" target="_top" xlink:title="Output a square wave on pin 10 at the given frequency for the given duration. ">
<polygon fill="white" stroke="black" points="458.5,-104.5 458.5,-123.5 496.5,-123.5 496.5,-104.5 458.5,-104.5"/>
<text text-anchor="middle" x="477.5" y="-111.5" font-family="Helvetica,sans-Serif" font-size="10.00">beep</text>
</a>
</g>
</g>
<!-- Node7&#45;&gt;Node9 -->
<g id="edge8" class="edge"><title>Node7&#45;&gt;Node9</title>
<path fill="none" stroke="midnightblue" d="M373.978,-237.261C383.834,-220.138 405.712,-183.905 429,-157 437.361,-147.341 447.779,-137.694 456.727,-129.993"/>
<polygon fill="midnightblue" stroke="midnightblue" points="459.024,-132.635 464.429,-123.523 454.521,-127.275 459.024,-132.635"/>
</g>
<!-- Node15 -->
<g id="node15" class="node"><title>Node15</title>
<g id="a_node15"><a xlink:href="settings_8cpp.html#a8575b9b52638114a4f32d1462cf9b7c1" target="_top" xlink:title="Get the transmission frequency (side tone). ">
<polygon fill="white" stroke="black" points="450.5,-275.5 450.5,-294.5 504.5,-294.5 504.5,-275.5 450.5,-275.5"/>
<text text-anchor="middle" x="477.5" y="-282.5" font-family="Helvetica,sans-Serif" font-size="10.00">getTxHz</text>
</a>
</g>
</g>
<!-- Node7&#45;&gt;Node15 -->
<g id="edge14" class="edge"><title>Node7&#45;&gt;Node15</title>
<path fill="none" stroke="midnightblue" d="M393.007,-255.623C406.995,-260.545 424.793,-266.807 440.359,-272.284"/>
<polygon fill="midnightblue" stroke="midnightblue" points="439.608,-275.73 450.203,-275.747 441.932,-269.127 439.608,-275.73"/>
</g>
<!-- Node16 -->
<g id="node16" class="node"><title>Node16</title>
<g id="a_node16"><a xlink:href="settings_8cpp.html#a960551e90dfdad18f3c9b1338ccba7db" target="_top" xlink:title="Get the dit duration in microseconds. ">
<polygon fill="white" stroke="black" points="731.5,-208.5 731.5,-227.5 803.5,-227.5 803.5,-208.5 731.5,-208.5"/>
<text text-anchor="middle" x="767.5" y="-215.5" font-family="Helvetica,sans-Serif" font-size="10.00">getDitMicros</text>
</a>
</g>
</g>
<!-- Node7&#45;&gt;Node16 -->
<g id="edge15" class="edge"><title>Node7&#45;&gt;Node16</title>
<path fill="none" stroke="midnightblue" d="M381.111,-237.346C392.803,-229.048 411.05,-217.698 429,-213 530.704,-186.38 655.61,-199.526 721.251,-209.775"/>
<polygon fill="midnightblue" stroke="midnightblue" points="720.835,-213.253 731.265,-211.389 721.949,-206.343 720.835,-213.253"/>
</g>
<!-- Node7&#45;&gt;Node17 -->
<g id="edge16" class="edge"><title>Node7&#45;&gt;Node17</title>
<path fill="none" stroke="midnightblue" d="M376.63,-256.64C387.491,-269.013 407.834,-290.491 429,-304 433.866,-307.106 439.324,-309.86 444.759,-312.24"/>
<polygon fill="midnightblue" stroke="midnightblue" points="443.8,-315.627 454.384,-316.115 446.415,-309.133 443.8,-315.627"/>
</g>
<!-- Node10 -->
<g id="node10" class="node"><title>Node10</title>
<g id="a_node10"><a xlink:href="teensy3__morse__bsp_8cpp.html#a6f674d5b9985ea3a7eeb0df299c2e405" target="_top" xlink:title="pollEarphonePresent">
<polygon fill="white" stroke="black" points="562,-66.5 562,-85.5 669,-85.5 669,-66.5 562,-66.5"/>
<text text-anchor="middle" x="615.5" y="-73.5" font-family="Helvetica,sans-Serif" font-size="10.00">pollEarphonePresent</text>
</a>
</g>
</g>
<!-- Node9&#45;&gt;Node10 -->
<g id="edge9" class="edge"><title>Node9&#45;&gt;Node10</title>
<path fill="none" stroke="midnightblue" d="M496.56,-108.954C515.377,-103.696 545.566,-95.261 570.689,-88.2413"/>
<polygon fill="midnightblue" stroke="midnightblue" points="571.699,-91.5933 580.388,-85.5313 569.815,-84.8516 571.699,-91.5933"/>
</g>
<!-- Node11 -->
<g id="node11" class="node"><title>Node11</title>
<g id="a_node11"><a xlink:href="teensy3__morse__bsp_8cpp.html#a2d6b4ace33ed5e497dedd03217540c63" target="_top" xlink:title="Set the PWM frequency for the audio output pins. ">
<polygon fill="white" stroke="black" points="574,-28.5 574,-47.5 657,-47.5 657,-28.5 574,-28.5"/>
<text text-anchor="middle" x="615.5" y="-35.5" font-family="Helvetica,sans-Serif" font-size="10.00">pwmFrequency</text>
</a>
</g>
</g>
<!-- Node9&#45;&gt;Node11 -->
<g id="edge10" class="edge"><title>Node9&#45;&gt;Node11</title>
<path fill="none" stroke="midnightblue" d="M490.345,-104.485C506.009,-92.2475 534.814,-70.916 562,-57 565.991,-54.9573 570.253,-53.0325 574.558,-51.2497"/>
<polygon fill="midnightblue" stroke="midnightblue" points="575.918,-54.4761 583.964,-47.583 573.376,-47.9541 575.918,-54.4761"/>
</g>
<!-- Node12 -->
<g id="node12" class="node"><title>Node12</title>
<g id="a_node12"><a xlink:href="teensy3__morse__bsp_8cpp.html#a82911eac3bf13d6f36d10102a4c4d3c4" target="_top" xlink:title="Generate a tone on the audio output pins. ">
<polygon fill="white" stroke="black" points="585,-104.5 585,-123.5 646,-123.5 646,-104.5 585,-104.5"/>
<text text-anchor="middle" x="615.5" y="-111.5" font-family="Helvetica,sans-Serif" font-size="10.00">pwmWrite</text>
</a>
</g>
</g>
<!-- Node9&#45;&gt;Node12 -->
<g id="edge11" class="edge"><title>Node9&#45;&gt;Node12</title>
<path fill="none" stroke="midnightblue" d="M496.56,-114C516.373,-114 548.795,-114 574.635,-114"/>
<polygon fill="midnightblue" stroke="midnightblue" points="574.89,-117.5 584.89,-114 574.89,-110.5 574.89,-117.5"/>
</g>
<!-- Node14 -->
<g id="node14" class="node"><title>Node14</title>
<g id="a_node14"><a xlink:href="teensy3__morse__bsp_8cpp.html#a6c982a7d7805f1dd5426eb98c915cfdd" target="_top" xlink:title="Turn the red LED on (1) or off (0). ">
<polygon fill="white" stroke="black" points="590.5,-142.5 590.5,-161.5 640.5,-161.5 640.5,-142.5 590.5,-142.5"/>
<text text-anchor="middle" x="615.5" y="-149.5" font-family="Helvetica,sans-Serif" font-size="10.00">redLED</text>
</a>
</g>
</g>
<!-- Node9&#45;&gt;Node14 -->
<g id="edge13" class="edge"><title>Node9&#45;&gt;Node14</title>
<path fill="none" stroke="midnightblue" d="M496.56,-119.046C517.959,-125.025 554.064,-135.114 580.702,-142.557"/>
<polygon fill="midnightblue" stroke="midnightblue" points="579.825,-145.945 590.398,-145.266 581.708,-139.204 579.825,-145.945"/>
</g>
<!-- Node13 -->
<g id="node13" class="node"><title>Node13</title>
<g id="a_node13"><a xlink:href="teensy3__morse__bsp_8cpp.html#ac70998cee1bf97f00aec4a1b4e5a4f60" target="_top" xlink:title="isEarphonePresent">
<polygon fill="white" stroke="black" points="718,-104.5 718,-123.5 817,-123.5 817,-104.5 718,-104.5"/>
<text text-anchor="middle" x="767.5" y="-111.5" font-family="Helvetica,sans-Serif" font-size="10.00">isEarphonePresent</text>
</a>
</g>
</g>
<!-- Node12&#45;&gt;Node13 -->
<g id="edge12" class="edge"><title>Node12&#45;&gt;Node13</title>
<path fill="none" stroke="midnightblue" d="M646.135,-114C663.671,-114 686.508,-114 707.57,-114"/>
<polygon fill="midnightblue" stroke="midnightblue" points="707.736,-117.5 717.736,-114 707.736,-110.5 707.736,-117.5"/>
</g>
<!-- Node18 -->
<g id="node18" class="node"><title>Node18</title>
<g id="a_node18"><a xlink:href="libmorse_8cpp.html#a0ee2308940264ea9ac8e50afc1a4d285" target="_top" xlink:title="txString">
<polygon fill="white" stroke="black" points="590.5,-351.5 590.5,-370.5 640.5,-370.5 640.5,-351.5 590.5,-351.5"/>
<text text-anchor="middle" x="615.5" y="-358.5" font-family="Helvetica,sans-Serif" font-size="10.00">txString</text>
</a>
</g>
</g>
<!-- Node17&#45;&gt;Node18 -->
<g id="edge17" class="edge"><title>Node17&#45;&gt;Node18</title>
<path fill="none" stroke="midnightblue" d="M500.653,-329.19C522.219,-335.216 555.301,-344.459 580.257,-351.432"/>
<polygon fill="midnightblue" stroke="midnightblue" points="579.484,-354.85 590.057,-354.17 581.368,-348.108 579.484,-354.85"/>
</g>
<!-- Node18&#45;&gt;Node1 -->
<g id="edge24" class="edge"><title>Node18&#45;&gt;Node1</title>
<path fill="none" stroke="midnightblue" d="M603.101,-370.72C569.561,-398.288 467.35,-475 368.5,-475 280,-475 280,-475 280,-475 229.259,-475 171.935,-475 128.525,-475"/>
<polygon fill="midnightblue" stroke="midnightblue" points="128.363,-471.5 118.363,-475 128.363,-478.5 128.363,-471.5"/>
</g>
<!-- Node18&#45;&gt;Node2 -->
<g id="edge22" class="edge"><title>Node18&#45;&gt;Node2</title>
<path fill="none" stroke="midnightblue" d="M624.055,-370.696C638.49,-388.836 671.543,-428.547 705,-456 715.536,-464.645 728.2,-472.794 739.291,-479.311"/>
<polygon fill="midnightblue" stroke="midnightblue" points="737.736,-482.454 748.155,-484.378 741.21,-476.377 737.736,-482.454"/>
</g>
<!-- Node18&#45;&gt;Node3 -->
<g id="edge23" class="edge"><title>Node18&#45;&gt;Node3</title>
<path fill="none" stroke="midnightblue" d="M590.461,-363.184C572.662,-364.798 547.819,-367.046 526,-369 419.56,-378.534 294.253,-389.62 230.261,-395.271"/>
<polygon fill="midnightblue" stroke="midnightblue" points="229.812,-391.797 220.158,-396.163 230.427,-398.77 229.812,-391.797"/>
</g>
<!-- Node18&#45;&gt;Node4 -->
<g id="edge18" class="edge"><title>Node18&#45;&gt;Node4</title>
<path fill="none" stroke="midnightblue" d="M640.606,-359.664C680.253,-357.286 761.648,-351.641 830,-342 850.033,-339.174 872.174,-334.975 890.335,-331.242"/>
<polygon fill="midnightblue" stroke="midnightblue" points="891.176,-334.642 900.248,-329.17 889.744,-327.79 891.176,-334.642"/>
</g>
<!-- Node18&#45;&gt;Node6 -->
<g id="edge21" class="edge"><title>Node18&#45;&gt;Node6</title>
<path fill="none" stroke="midnightblue" d="M590.426,-360.021C542.905,-358.031 433.693,-353.174 342,-347 333.714,-346.442 324.791,-345.749 316.426,-345.058"/>
<polygon fill="midnightblue" stroke="midnightblue" points="316.477,-341.55 306.218,-344.195 315.887,-348.525 316.477,-341.55"/>
</g>
<!-- Node18&#45;&gt;Node7 -->
<g id="edge20" class="edge"><title>Node18&#45;&gt;Node7</title>
<path fill="none" stroke="midnightblue" d="M611.576,-351.227C603.236,-325.337 576.606,-255.112 526,-228 485.737,-206.43 431.542,-220.781 398.363,-233.564"/>
<polygon fill="midnightblue" stroke="midnightblue" points="396.738,-230.446 388.779,-237.44 399.362,-236.936 396.738,-230.446"/>
</g>
<!-- Node18&#45;&gt;Node16 -->
<g id="edge19" class="edge"><title>Node18&#45;&gt;Node16</title>
<path fill="none" stroke="midnightblue" d="M624.58,-351.362C639.617,-333.653 673.258,-295.086 705,-266 717.535,-254.513 732.565,-242.75 744.628,-233.744"/>
<polygon fill="midnightblue" stroke="midnightblue" points="746.835,-236.465 752.81,-227.716 742.683,-230.83 746.835,-236.465"/>
</g>
<!-- Node19 -->
<g id="node19" class="node"><title>Node19</title>
<g id="a_node19"><a xlink:href="actions_8cpp.html#aaabb3ac0c23f35a499bc17efe829f326" target="_top" xlink:title="Transmit the 24&#45;hr time. ">
<polygon fill="white" stroke="black" points="728.5,-275.5 728.5,-294.5 806.5,-294.5 806.5,-275.5 728.5,-275.5"/>
<text text-anchor="middle" x="767.5" y="-282.5" font-family="Helvetica,sans-Serif" font-size="10.00">txTimeHHMM</text>
</a>
</g>
</g>
<!-- Node18&#45;&gt;Node19 -->
<g id="edge25" class="edge"><title>Node18&#45;&gt;Node19</title>
<path fill="none" stroke="midnightblue" d="M623.019,-351.065C637.196,-336.021 672.198,-310.279 705,-295 709.391,-292.955 714.058,-291.057 718.781,-289.36"/>
<polygon fill="midnightblue" stroke="midnightblue" points="720.077,-292.619 728.487,-286.174 717.894,-285.968 720.077,-292.619"/>
</g>
<!-- Node20 -->
<g id="node20" class="node"><title>Node20</title>
<g id="a_node20"><a xlink:href="actions_8cpp.html#ad02149679fa3cc6a4957d1a318408ffd" target="_top" xlink:title="Transmit the uptime. ">
<polygon fill="white" stroke="black" points="739.5,-427.5 739.5,-446.5 795.5,-446.5 795.5,-427.5 739.5,-427.5"/>
<text text-anchor="middle" x="767.5" y="-434.5" font-family="Helvetica,sans-Serif" font-size="10.00">txUptime</text>
</a>
</g>
</g>
<!-- Node18&#45;&gt;Node20 -->
<g id="edge27" class="edge"><title>Node18&#45;&gt;Node20</title>
<path fill="none" stroke="midnightblue" d="M629.051,-370.665C645.649,-383.066 676.174,-404.573 705,-418 712.706,-421.589 721.263,-424.723 729.484,-427.355"/>
<polygon fill="midnightblue" stroke="midnightblue" points="728.681,-430.769 739.266,-430.314 730.708,-424.069 728.681,-430.769"/>
</g>
<!-- Node22 -->
<g id="node22" class="node"><title>Node22</title>
<g id="a_node22"><a xlink:href="teensy3__morse__bsp_8cpp.html#ae8dd28759e56dbd2ee9bc9ae96d1783c" target="_top" xlink:title="Return the most recent ADC measurement of the input voltage. Perform analog to digital conversion on ...">
<polygon fill="white" stroke="black" points="730.5,-389.5 730.5,-408.5 804.5,-408.5 804.5,-389.5 730.5,-389.5"/>
<text text-anchor="middle" x="767.5" y="-396.5" font-family="Helvetica,sans-Serif" font-size="10.00">readMillivolts</text>
</a>
</g>
</g>
<!-- Node18&#45;&gt;Node22 -->
<g id="edge30" class="edge"><title>Node18&#45;&gt;Node22</title>
<path fill="none" stroke="midnightblue" d="M640.6,-367.105C662.116,-372.556 694.215,-380.688 720.615,-387.376"/>
<polygon fill="midnightblue" stroke="midnightblue" points="719.867,-390.797 730.421,-389.86 721.586,-384.011 719.867,-390.797"/>
</g>
<!-- Node26 -->
<g id="node26" class="node"><title>Node26</title>
<g id="a_node26"><a xlink:href="libmorse_8cpp.html#ac3f000c98271c6d0a7710135e18189bc" target="_top" xlink:title="On my hardware there is cross&#45;coupling between the serial port and the touch sensors. Without the code below, long messages to the serial port trigger a touch input. ">
<polygon fill="white" stroke="black" points="735,-313.5 735,-332.5 800,-332.5 800,-313.5 735,-313.5"/>
<text text-anchor="middle" x="767.5" y="-320.5" font-family="Helvetica,sans-Serif" font-size="10.00">flushTouch</text>
</a>
</g>
</g>
<!-- Node18&#45;&gt;Node26 -->
<g id="edge34" class="edge"><title>Node18&#45;&gt;Node26</title>
<path fill="none" stroke="midnightblue" d="M640.6,-354.895C663.291,-349.146 697.752,-340.416 724.887,-333.542"/>
<polygon fill="midnightblue" stroke="midnightblue" points="726.054,-336.857 734.888,-331.008 724.335,-330.071 726.054,-336.857"/>
</g>
<!-- Node19&#45;&gt;Node18 -->
<g id="edge26" class="edge"><title>Node19&#45;&gt;Node18</title>
<path fill="none" stroke="midnightblue" d="M753.879,-294.629C741.179,-299.916 721.208,-305.45 705,-313 685.011,-322.311 664.206,-335.507 647.793,-345.915"/>
<polygon fill="midnightblue" stroke="midnightblue" points="645.745,-343.069 639.16,-351.368 649.484,-348.987 645.745,-343.069"/>
</g>
<!-- Node20&#45;&gt;Node3 -->
<g id="edge29" class="edge"><title>Node20&#45;&gt;Node3</title>
<path fill="none" stroke="midnightblue" d="M739.1,-437C687.906,-437 574.25,-437 478.5,-437 366.5,-437 366.5,-437 366.5,-437 316.9,-437 261.212,-422.79 225.43,-411.749"/>
<polygon fill="midnightblue" stroke="midnightblue" points="226.031,-408.268 215.441,-408.589 223.919,-414.942 226.031,-408.268"/>
</g>
<!-- Node21 -->
<g id="node21" class="node"><title>Node21</title>
<g id="a_node21"><a xlink:href="settings_8cpp.html#a7b4efa097b94f9a90c5bbafcdf93fe4f" target="_top" xlink:title="getUptime">
<polygon fill="white" stroke="black" points="898,-427.5 898,-446.5 960,-446.5 960,-427.5 898,-427.5"/>
<text text-anchor="middle" x="929" y="-434.5" font-family="Helvetica,sans-Serif" font-size="10.00">getUptime</text>
</a>
</g>
</g>
<!-- Node20&#45;&gt;Node21 -->
<g id="edge28" class="edge"><title>Node20&#45;&gt;Node21</title>
<path fill="none" stroke="midnightblue" d="M795.557,-437C820.808,-437 858.817,-437 887.649,-437"/>
<polygon fill="midnightblue" stroke="midnightblue" points="887.816,-440.5 897.816,-437 887.816,-433.5 887.816,-440.5"/>
</g>
<!-- Node23 -->
<g id="node23" class="node"><title>Node23</title>
<g id="a_node23"><a xlink:href="class_voltage_monitor.html#a70902b84f9864c95d5553a0644a64f4f" target="_top" xlink:title="Return the latest voltage reading. ">
<polygon fill="white" stroke="black" points="866,-389.5 866,-408.5 992,-408.5 992,-389.5 866,-389.5"/>
<text text-anchor="middle" x="929" y="-396.5" font-family="Helvetica,sans-Serif" font-size="10.00">VoltageMonitor::getValue</text>
</a>
</g>
</g>
<!-- Node22&#45;&gt;Node23 -->
<g id="edge31" class="edge"><title>Node22&#45;&gt;Node23</title>
<path fill="none" stroke="midnightblue" d="M804.693,-399C819.829,-399 837.985,-399 855.652,-399"/>
<polygon fill="midnightblue" stroke="midnightblue" points="855.971,-402.5 865.971,-399 855.971,-395.5 855.971,-402.5"/>
</g>
<!-- Node24 -->
<g id="node24" class="node"><title>Node24</title>
<g id="a_node24"><a xlink:href="actions_8cpp.html#a2b8c3769e2aa32a2da9e2f3f85ac73dd" target="_top" xlink:title="A sample ADC reading is taken each time through the main loop, and written to a ring buffer...">
<polygon fill="white" stroke="black" points="1030.5,-389.5 1030.5,-408.5 1142.5,-408.5 1142.5,-389.5 1030.5,-389.5"/>
<text text-anchor="middle" x="1086.5" y="-396.5" font-family="Helvetica,sans-Serif" font-size="10.00">getVoltagePollInterval</text>
</a>
</g>
</g>
<!-- Node23&#45;&gt;Node24 -->
<g id="edge32" class="edge"><title>Node23&#45;&gt;Node24</title>
<path fill="none" stroke="midnightblue" d="M992.352,-399C1001.44,-399 1010.82,-399 1019.96,-399"/>
<polygon fill="midnightblue" stroke="midnightblue" points="1020.16,-402.5 1030.16,-399 1020.16,-395.5 1020.16,-402.5"/>
</g>
<!-- Node25 -->
<g id="node25" class="node"><title>Node25</title>
<g id="a_node25"><a xlink:href="class_voltage_monitor.html#a75871331808c34b40d04059ee2af0f27" target="_top" xlink:title="Filter and scale raw ADC values to millivolts. ">
<polygon fill="white" stroke="black" points="1028,-351.5 1028,-370.5 1145,-370.5 1145,-351.5 1028,-351.5"/>
<text text-anchor="middle" x="1086.5" y="-358.5" font-family="Helvetica,sans-Serif" font-size="10.00">VoltageMonitor::update</text>
</a>
</g>
</g>
<!-- Node23&#45;&gt;Node25 -->
<g id="edge33" class="edge"><title>Node23&#45;&gt;Node25</title>
<path fill="none" stroke="midnightblue" d="M969.239,-389.411C989.759,-384.396 1015.07,-378.212 1036.83,-372.895"/>
<polygon fill="midnightblue" stroke="midnightblue" points="1037.66,-376.294 1046.54,-370.52 1036,-369.494 1037.66,-376.294"/>
</g>
<!-- Node26&#45;&gt;Node4 -->
<g id="edge35" class="edge"><title>Node26&#45;&gt;Node4</title>
<path fill="none" stroke="midnightblue" d="M800.012,-323C825.934,-323 862.747,-323 890.243,-323"/>
<polygon fill="midnightblue" stroke="midnightblue" points="890.283,-326.5 900.283,-323 890.283,-319.5 890.283,-326.5"/>
</g>
</g>
</svg>
