<?xml version="1.0" encoding="UTF-8" standalone="no"?>
<!DOCTYPE svg PUBLIC "-//W3C//DTD SVG 1.1//EN"
 "http://www.w3.org/Graphics/SVG/1.1/DTD/svg11.dtd">
<!-- Generated by graphviz version 2.38.0 (20140413.2041)
 -->
<!-- Title: speedUp Pages: 1 -->
<svg width="1158pt" height="569pt"
 viewBox="0.00 0.00 1158.00 569.00" xmlns="http://www.w3.org/2000/svg" xmlns:xlink="http://www.w3.org/1999/xlink">
<g id="graph0" class="graph" transform="scale(1 1) rotate(0) translate(4 565)">
<title>speedUp</title>
<polygon fill="white" stroke="none" points="-4,4 -4,-565 1154,-565 1154,4 -4,4"/>
<!-- Node1 -->
<g id="node1" class="node"><title>Node1</title>
<polygon fill="#bfbfbf" stroke="black" points="0,-133.5 0,-152.5 56,-152.5 56,-133.5 0,-133.5"/>
<text text-anchor="middle" x="28" y="-140.5" font-family="Helvetica,sans-Serif" font-size="10.00">speedUp</text>
</g>
<!-- Node2 -->
<g id="node2" class="node"><title>Node2</title>
<g id="a_node2"><a xlink:href="libmorse_8cpp.html#a0ee2308940264ea9ac8e50afc1a4d285" target="_top" xlink:title="txString">
<polygon fill="white" stroke="black" points="103,-247.5 103,-266.5 153,-266.5 153,-247.5 103,-247.5"/>
<text text-anchor="middle" x="128" y="-254.5" font-family="Helvetica,sans-Serif" font-size="10.00">txString</text>
</a>
</g>
</g>
<!-- Node1&#45;&gt;Node2 -->
<g id="edge1" class="edge"><title>Node1&#45;&gt;Node2</title>
<path fill="none" stroke="midnightblue" d="M37.3554,-152.72C53.9176,-171.986 91.1127,-215.254 112.013,-239.566"/>
<polygon fill="midnightblue" stroke="midnightblue" points="109.493,-242.003 118.666,-247.305 114.801,-237.44 109.493,-242.003"/>
</g>
<!-- Node5 -->
<g id="node5" class="node"><title>Node5</title>
<g id="a_node5"><a xlink:href="settings_8cpp.html#a960551e90dfdad18f3c9b1338ccba7db" target="_top" xlink:title="Get the dit duration in microseconds. ">
<polygon fill="white" stroke="black" points="787.5,-513.5 787.5,-532.5 859.5,-532.5 859.5,-513.5 787.5,-513.5"/>
<text text-anchor="middle" x="823.5" y="-520.5" font-family="Helvetica,sans-Serif" font-size="10.00">getDitMicros</text>
</a>
</g>
</g>
<!-- Node1&#45;&gt;Node5 -->
<g id="edge38" class="edge"><title>Node1&#45;&gt;Node5</title>
<path fill="none" stroke="midnightblue" d="M29.5445,-152.516C33.6565,-214.735 65.2013,-561 258,-561 258,-561 258,-561 575.5,-561 646.587,-561 727.858,-545.434 777.157,-534.227"/>
<polygon fill="midnightblue" stroke="midnightblue" points="778.223,-537.573 787.177,-531.909 776.645,-530.753 778.223,-537.573"/>
</g>
<!-- Node15 -->
<g id="node15" class="node"><title>Node15</title>
<g id="a_node15"><a xlink:href="libmorse_8cpp.html#ab94e088615119d1faae7df22ce50aedf" target="_top" xlink:title="Transmit a Morse code prosign indicating an error. ">
<polygon fill="white" stroke="black" points="800.5,-123.5 800.5,-142.5 846.5,-142.5 846.5,-123.5 800.5,-123.5"/>
<text text-anchor="middle" x="823.5" y="-130.5" font-family="Helvetica,sans-Serif" font-size="10.00">txError</text>
</a>
</g>
</g>
<!-- Node1&#45;&gt;Node15 -->
<g id="edge40" class="edge"><title>Node1&#45;&gt;Node15</title>
<path fill="none" stroke="midnightblue" d="M56.1838,-134.38C89.6198,-124.268 148.308,-108.11 200,-102 424.821,-75.4244 697.939,-112.992 790.255,-127.61"/>
<polygon fill="midnightblue" stroke="midnightblue" points="789.927,-131.102 800.355,-129.233 791.037,-124.191 789.927,-131.102"/>
</g>
<!-- Node28 -->
<g id="node28" class="node"><title>Node28</title>
<g id="a_node28"><a xlink:href="settings_8cpp.html#ab053475f1136a97fda0c5cf8db0ca9e0" target="_top" xlink:title="Set the dit duration in microseconds. ">
<polygon fill="white" stroke="black" points="92,-0.5 92,-19.5 164,-19.5 164,-0.5 92,-0.5"/>
<text text-anchor="middle" x="128" y="-7.5" font-family="Helvetica,sans-Serif" font-size="10.00">setDitMicros</text>
</a>
</g>
</g>
<!-- Node1&#45;&gt;Node28 -->
<g id="edge39" class="edge"><title>Node1&#45;&gt;Node28</title>
<path fill="none" stroke="midnightblue" d="M32.8352,-133.335C41.2092,-113.111 62.7476,-65.5963 92,-34 94.7921,-30.9842 98.0291,-28.1432 101.385,-25.544"/>
<polygon fill="midnightblue" stroke="midnightblue" points="103.63,-28.2434 109.784,-19.6192 99.5949,-22.5233 103.63,-28.2434"/>
</g>
<!-- Node3 -->
<g id="node3" class="node"><title>Node3</title>
<g id="a_node3"><a xlink:href="teensy3__morse__bsp_8cpp.html#ab306f692c5c9455a0c82782a67ff0147" target="_top" xlink:title="touchPoll">
<polygon fill="white" stroke="black" points="546,-342.5 546,-361.5 603,-361.5 603,-342.5 546,-342.5"/>
<text text-anchor="middle" x="574.5" y="-349.5" font-family="Helvetica,sans-Serif" font-size="10.00">touchPoll</text>
</a>
</g>
</g>
<!-- Node2&#45;&gt;Node3 -->
<g id="edge2" class="edge"><title>Node2&#45;&gt;Node3</title>
<path fill="none" stroke="midnightblue" d="M133.927,-266.628C143.779,-284.818 167.764,-324.101 200,-343 307.732,-406.159 464.677,-379.408 535.876,-362.261"/>
<polygon fill="midnightblue" stroke="midnightblue" points="536.88,-365.618 545.743,-359.813 535.194,-358.824 536.88,-365.618"/>
</g>
<!-- Node2&#45;&gt;Node5 -->
<g id="edge4" class="edge"><title>Node2&#45;&gt;Node5</title>
<path fill="none" stroke="midnightblue" d="M128.743,-266.634C128.369,-301.941 132.144,-425.302 200,-485 273.183,-549.385 318.526,-523 416,-523 416,-523 416,-523 575.5,-523 645.96,-523 727.727,-523 777.259,-523"/>
<polygon fill="midnightblue" stroke="midnightblue" points="777.323,-526.5 787.323,-523 777.323,-519.5 777.323,-526.5"/>
</g>
<!-- Node6 -->
<g id="node6" class="node"><title>Node6</title>
<g id="a_node6"><a xlink:href="libmorse_8cpp.html#a9fdfce728595d72b78dc7c834ab99a40" target="_top" xlink:title="Transmit a literal Morse code value. ">
<polygon fill="white" stroke="black" points="678.5,-266.5 678.5,-285.5 729.5,-285.5 729.5,-266.5 678.5,-266.5"/>
<text text-anchor="middle" x="704" y="-273.5" font-family="Helvetica,sans-Serif" font-size="10.00">txLiteral</text>
</a>
</g>
</g>
<!-- Node2&#45;&gt;Node6 -->
<g id="edge5" class="edge"><title>Node2&#45;&gt;Node6</title>
<path fill="none" stroke="midnightblue" d="M131.614,-266.714C138.431,-289.965 159.127,-348.828 200,-375 257.991,-412.132 285.244,-388.217 354,-392 478.163,-398.832 526.094,-434.515 633,-371 648.696,-361.675 676.466,-319.287 691.89,-294.393"/>
<polygon fill="midnightblue" stroke="midnightblue" points="694.906,-296.17 697.146,-285.815 688.938,-292.513 694.906,-296.17"/>
</g>
<!-- Node16 -->
<g id="node16" class="node"><title>Node16</title>
<g id="a_node16"><a xlink:href="libmorse_8cpp.html#acd4b292f5e412ee4f05aed9dafbc072d" target="_top" xlink:title="Convert an ASCII character into Morse code and transmit it. ">
<polygon fill="white" stroke="black" points="549.5,-204.5 549.5,-223.5 599.5,-223.5 599.5,-204.5 549.5,-204.5"/>
<text text-anchor="middle" x="574.5" y="-211.5" font-family="Helvetica,sans-Serif" font-size="10.00">txLetter</text>
</a>
</g>
</g>
<!-- Node2&#45;&gt;Node16 -->
<g id="edge17" class="edge"><title>Node2&#45;&gt;Node16</title>
<path fill="none" stroke="midnightblue" d="M131.549,-247.319C138.221,-224.197 158.619,-165.978 200,-143 308.797,-82.5874 362.059,-103.295 480,-143 511.66,-153.658 541.106,-179.772 558.195,-197.181"/>
<polygon fill="midnightblue" stroke="midnightblue" points="555.712,-199.65 565.141,-204.481 560.784,-194.824 555.712,-199.65"/>
</g>
<!-- Node17 -->
<g id="node17" class="node"><title>Node17</title>
<g id="a_node17"><a xlink:href="teensy3__morse__bsp_8cpp.html#a8761e874366e227690fba2964e1bc445" target="_top" xlink:title="getInternalTemperatureC">
<polygon fill="white" stroke="black" points="354.5,-285.5 354.5,-304.5 479.5,-304.5 479.5,-285.5 354.5,-285.5"/>
<text text-anchor="middle" x="417" y="-292.5" font-family="Helvetica,sans-Serif" font-size="10.00">getInternalTemperatureC</text>
</a>
</g>
</g>
<!-- Node2&#45;&gt;Node17 -->
<g id="edge20" class="edge"><title>Node2&#45;&gt;Node17</title>
<path fill="none" stroke="midnightblue" d="M142.056,-266.553C155.714,-275.906 178.167,-289.525 200,-295 246.975,-306.78 301.526,-306.675 344.054,-303.678"/>
<polygon fill="midnightblue" stroke="midnightblue" points="344.34,-307.166 354.041,-302.906 343.8,-300.187 344.34,-307.166"/>
</g>
<!-- Node18 -->
<g id="node18" class="node"><title>Node18</title>
<g id="a_node18"><a xlink:href="libmorse_8cpp.html#a47abdd74b66d7180c47d192bab8bdccb" target="_top" xlink:title="Transmit an unsigned integer in Morse code. ">
<polygon fill="white" stroke="black" points="384,-228.5 384,-247.5 450,-247.5 450,-228.5 384,-228.5"/>
<text text-anchor="middle" x="417" y="-235.5" font-family="Helvetica,sans-Serif" font-size="10.00">txUnsigned</text>
</a>
</g>
</g>
<!-- Node2&#45;&gt;Node18 -->
<g id="edge21" class="edge"><title>Node2&#45;&gt;Node18</title>
<path fill="none" stroke="midnightblue" d="M153.469,-255.38C202.42,-252.139 312.914,-244.825 373.789,-240.794"/>
<polygon fill="midnightblue" stroke="midnightblue" points="374.088,-244.282 383.835,-240.129 373.626,-237.298 374.088,-244.282"/>
</g>
<!-- Node19 -->
<g id="node19" class="node"><title>Node19</title>
<g id="a_node19"><a xlink:href="actions_8cpp.html#aed718ec1bd4cc7adb2f65d40a6784496" target="_top" xlink:title="Transmit the internal temperature in integer in Fahrenheit. ">
<polygon fill="white" stroke="black" points="200,-266.5 200,-285.5 318,-285.5 318,-266.5 200,-266.5"/>
<text text-anchor="middle" x="259" y="-273.5" font-family="Helvetica,sans-Serif" font-size="10.00">txInternalTemperatureF</text>
</a>
</g>
</g>
<!-- Node2&#45;&gt;Node19 -->
<g id="edge24" class="edge"><title>Node2&#45;&gt;Node19</title>
<path fill="none" stroke="midnightblue" d="M153.264,-260.574C163.791,-262.124 176.698,-264.025 189.81,-265.957"/>
<polygon fill="midnightblue" stroke="midnightblue" points="189.437,-269.439 199.84,-267.434 190.457,-262.514 189.437,-269.439"/>
</g>
<!-- Node20 -->
<g id="node20" class="node"><title>Node20</title>
<g id="a_node20"><a xlink:href="actions_8cpp.html#aaabb3ac0c23f35a499bc17efe829f326" target="_top" xlink:title="Transmit the 24&#45;hr time. ">
<polygon fill="white" stroke="black" points="220,-190.5 220,-209.5 298,-209.5 298,-190.5 220,-190.5"/>
<text text-anchor="middle" x="259" y="-197.5" font-family="Helvetica,sans-Serif" font-size="10.00">txTimeHHMM</text>
</a>
</g>
</g>
<!-- Node2&#45;&gt;Node20 -->
<g id="edge27" class="edge"><title>Node2&#45;&gt;Node20</title>
<path fill="none" stroke="midnightblue" d="M137.255,-247.365C150.44,-237.704 177.099,-225.055 200,-215 203.393,-213.51 206.907,-211.993 210.451,-210.503"/>
<polygon fill="midnightblue" stroke="midnightblue" points="211.911,-213.688 219.839,-206.659 209.258,-207.21 211.911,-213.688"/>
</g>
<!-- Node21 -->
<g id="node21" class="node"><title>Node21</title>
<g id="a_node21"><a xlink:href="actions_8cpp.html#ad02149679fa3cc6a4957d1a318408ffd" target="_top" xlink:title="Transmit the uptime. ">
<polygon fill="white" stroke="black" points="231,-152.5 231,-171.5 287,-171.5 287,-152.5 231,-152.5"/>
<text text-anchor="middle" x="259" y="-159.5" font-family="Helvetica,sans-Serif" font-size="10.00">txUptime</text>
</a>
</g>
</g>
<!-- Node2&#45;&gt;Node21 -->
<g id="edge29" class="edge"><title>Node2&#45;&gt;Node21</title>
<path fill="none" stroke="midnightblue" d="M135.49,-247.371C146.772,-231.344 171.536,-199.164 200,-181 206.387,-176.925 213.73,-173.643 220.998,-171.031"/>
<polygon fill="midnightblue" stroke="midnightblue" points="222.327,-174.28 230.764,-167.871 220.172,-167.619 222.327,-174.28"/>
</g>
<!-- Node23 -->
<g id="node23" class="node"><title>Node23</title>
<g id="a_node23"><a xlink:href="teensy3__morse__bsp_8cpp.html#ae8dd28759e56dbd2ee9bc9ae96d1783c" target="_top" xlink:title="Return the most recent ADC measurement of the input voltage. Perform analog to digital conversion on ...">
<polygon fill="white" stroke="black" points="222,-456.5 222,-475.5 296,-475.5 296,-456.5 222,-456.5"/>
<text text-anchor="middle" x="259" y="-463.5" font-family="Helvetica,sans-Serif" font-size="10.00">readMillivolts</text>
</a>
</g>
</g>
<!-- Node2&#45;&gt;Node23 -->
<g id="edge32" class="edge"><title>Node2&#45;&gt;Node23</title>
<path fill="none" stroke="midnightblue" d="M130.06,-266.887C133.812,-297.173 149.101,-389.766 200,-442 203.708,-445.805 208.106,-449.031 212.799,-451.761"/>
<polygon fill="midnightblue" stroke="midnightblue" points="211.572,-455.061 222.079,-456.42 214.713,-448.805 211.572,-455.061"/>
</g>
<!-- Node27 -->
<g id="node27" class="node"><title>Node27</title>
<g id="a_node27"><a xlink:href="libmorse_8cpp.html#ac3f000c98271c6d0a7710135e18189bc" target="_top" xlink:title="On my hardware there is cross&#45;coupling between the serial port and the touch sensors. Without the code below, long messages to the serial port trigger a touch input. ">
<polygon fill="white" stroke="black" points="384.5,-342.5 384.5,-361.5 449.5,-361.5 449.5,-342.5 384.5,-342.5"/>
<text text-anchor="middle" x="417" y="-349.5" font-family="Helvetica,sans-Serif" font-size="10.00">flushTouch</text>
</a>
</g>
</g>
<!-- Node2&#45;&gt;Node27 -->
<g id="edge36" class="edge"><title>Node2&#45;&gt;Node27</title>
<path fill="none" stroke="midnightblue" d="M138.043,-266.857C150.602,-279.884 174.658,-302.521 200,-314 256.674,-339.67 328.999,-348.052 373.907,-350.757"/>
<polygon fill="midnightblue" stroke="midnightblue" points="373.984,-354.266 384.156,-351.304 374.357,-347.276 373.984,-354.266"/>
</g>
<!-- Node4 -->
<g id="node4" class="node"><title>Node4</title>
<g id="a_node4"><a xlink:href="teensy3__morse__bsp_8cpp.html#af6899cd9b83df54106b259ab81ea5cb2" target="_top" xlink:title="touchMargin">
<polygon fill="white" stroke="black" points="669,-342.5 669,-361.5 739,-361.5 739,-342.5 669,-342.5"/>
<text text-anchor="middle" x="704" y="-349.5" font-family="Helvetica,sans-Serif" font-size="10.00">touchMargin</text>
</a>
</g>
</g>
<!-- Node3&#45;&gt;Node4 -->
<g id="edge3" class="edge"><title>Node3&#45;&gt;Node4</title>
<path fill="none" stroke="midnightblue" d="M603.166,-352C619.281,-352 639.984,-352 658.355,-352"/>
<polygon fill="midnightblue" stroke="midnightblue" points="658.562,-355.5 668.562,-352 658.562,-348.5 658.562,-355.5"/>
</g>
<!-- Node6&#45;&gt;Node5 -->
<g id="edge14" class="edge"><title>Node6&#45;&gt;Node5</title>
<path fill="none" stroke="midnightblue" d="M711.403,-285.877C718.542,-297.079 730.236,-315.998 739,-333 770.418,-393.95 801.27,-469.283 815.034,-503.93"/>
<polygon fill="midnightblue" stroke="midnightblue" points="811.812,-505.299 818.739,-513.315 818.323,-502.729 811.812,-505.299"/>
</g>
<!-- Node7 -->
<g id="node7" class="node"><title>Node7</title>
<g id="a_node7"><a xlink:href="class_morse_token.html#a48cd72aeb868391449d1f51c1d0bf5cc" target="_top" xlink:title="Treat code == 0 as the error token. ">
<polygon fill="white" stroke="black" points="775,-266.5 775,-285.5 872,-285.5 872,-266.5 775,-266.5"/>
<text text-anchor="middle" x="823.5" y="-273.5" font-family="Helvetica,sans-Serif" font-size="10.00">MorseToken::valid</text>
</a>
</g>
</g>
<!-- Node6&#45;&gt;Node7 -->
<g id="edge6" class="edge"><title>Node6&#45;&gt;Node7</title>
<path fill="none" stroke="midnightblue" d="M729.632,-276C739.831,-276 752.13,-276 764.391,-276"/>
<polygon fill="midnightblue" stroke="midnightblue" points="764.635,-279.5 774.635,-276 764.635,-272.5 764.635,-279.5"/>
</g>
<!-- Node8 -->
<g id="node8" class="node"><title>Node8</title>
<g id="a_node8"><a xlink:href="teensy3__morse__bsp_8cpp.html#af66e71e3fac9b6a2c6532bc8a513bfde" target="_top" xlink:title="Output a square wave on pin 10 at the given frequency for the given duration. ">
<polygon fill="white" stroke="black" points="804.5,-228.5 804.5,-247.5 842.5,-247.5 842.5,-228.5 804.5,-228.5"/>
<text text-anchor="middle" x="823.5" y="-235.5" font-family="Helvetica,sans-Serif" font-size="10.00">beep</text>
</a>
</g>
</g>
<!-- Node6&#45;&gt;Node8 -->
<g id="edge7" class="edge"><title>Node6&#45;&gt;Node8</title>
<path fill="none" stroke="midnightblue" d="M729.632,-268.034C748.657,-261.881 774.988,-253.366 794.755,-246.973"/>
<polygon fill="midnightblue" stroke="midnightblue" points="795.982,-250.254 804.42,-243.847 793.828,-243.594 795.982,-250.254"/>
</g>
<!-- Node14 -->
<g id="node14" class="node"><title>Node14</title>
<g id="a_node14"><a xlink:href="settings_8cpp.html#a8575b9b52638114a4f32d1462cf9b7c1" target="_top" xlink:title="Get the transmission frequency (side tone). ">
<polygon fill="white" stroke="black" points="796.5,-304.5 796.5,-323.5 850.5,-323.5 850.5,-304.5 796.5,-304.5"/>
<text text-anchor="middle" x="823.5" y="-311.5" font-family="Helvetica,sans-Serif" font-size="10.00">getTxHz</text>
</a>
</g>
</g>
<!-- Node6&#45;&gt;Node14 -->
<g id="edge13" class="edge"><title>Node6&#45;&gt;Node14</title>
<path fill="none" stroke="midnightblue" d="M729.632,-283.966C746.174,-289.316 768.239,-296.452 786.711,-302.426"/>
<polygon fill="midnightblue" stroke="midnightblue" points="785.677,-305.77 796.269,-305.517 787.831,-299.109 785.677,-305.77"/>
</g>
<!-- Node6&#45;&gt;Node15 -->
<g id="edge15" class="edge"><title>Node6&#45;&gt;Node15</title>
<path fill="none" stroke="midnightblue" d="M713.076,-266.171C732.708,-242.279 783.144,-180.897 808.089,-150.539"/>
<polygon fill="midnightblue" stroke="midnightblue" points="811.032,-152.469 814.677,-142.521 805.624,-148.025 811.032,-152.469"/>
</g>
<!-- Node9 -->
<g id="node9" class="node"><title>Node9</title>
<g id="a_node9"><a xlink:href="teensy3__morse__bsp_8cpp.html#a6f674d5b9985ea3a7eeb0df299c2e405" target="_top" xlink:title="pollEarphonePresent">
<polygon fill="white" stroke="black" points="908,-285.5 908,-304.5 1015,-304.5 1015,-285.5 908,-285.5"/>
<text text-anchor="middle" x="961.5" y="-292.5" font-family="Helvetica,sans-Serif" font-size="10.00">pollEarphonePresent</text>
</a>
</g>
</g>
<!-- Node8&#45;&gt;Node9 -->
<g id="edge8" class="edge"><title>Node8&#45;&gt;Node9</title>
<path fill="none" stroke="midnightblue" d="M842.734,-244.777C851.652,-248.221 862.487,-252.602 872,-257 888.422,-264.592 891.454,-268.682 908,-276 912.527,-278.002 917.336,-279.961 922.136,-281.815"/>
<polygon fill="midnightblue" stroke="midnightblue" points="921.287,-285.234 931.879,-285.453 923.735,-278.676 921.287,-285.234"/>
</g>
<!-- Node10 -->
<g id="node10" class="node"><title>Node10</title>
<g id="a_node10"><a xlink:href="teensy3__morse__bsp_8cpp.html#a2d6b4ace33ed5e497dedd03217540c63" target="_top" xlink:title="Set the PWM frequency for the audio output pins. ">
<polygon fill="white" stroke="black" points="920,-247.5 920,-266.5 1003,-266.5 1003,-247.5 920,-247.5"/>
<text text-anchor="middle" x="961.5" y="-254.5" font-family="Helvetica,sans-Serif" font-size="10.00">pwmFrequency</text>
</a>
</g>
</g>
<!-- Node8&#45;&gt;Node10 -->
<g id="edge9" class="edge"><title>Node8&#45;&gt;Node10</title>
<path fill="none" stroke="midnightblue" d="M842.56,-240.523C859.617,-242.906 886.017,-246.594 909.519,-249.878"/>
<polygon fill="midnightblue" stroke="midnightblue" points="909.334,-253.386 919.722,-251.303 910.303,-246.453 909.334,-253.386"/>
</g>
<!-- Node11 -->
<g id="node11" class="node"><title>Node11</title>
<g id="a_node11"><a xlink:href="teensy3__morse__bsp_8cpp.html#a82911eac3bf13d6f36d10102a4c4d3c4" target="_top" xlink:title="Generate a tone on the audio output pins. ">
<polygon fill="white" stroke="black" points="931,-209.5 931,-228.5 992,-228.5 992,-209.5 931,-209.5"/>
<text text-anchor="middle" x="961.5" y="-216.5" font-family="Helvetica,sans-Serif" font-size="10.00">pwmWrite</text>
</a>
</g>
</g>
<!-- Node8&#45;&gt;Node11 -->
<g id="edge10" class="edge"><title>Node8&#45;&gt;Node11</title>
<path fill="none" stroke="midnightblue" d="M842.56,-235.477C862.462,-232.697 895.083,-228.139 920.979,-224.521"/>
<polygon fill="midnightblue" stroke="midnightblue" points="921.471,-227.987 930.89,-223.137 920.502,-221.054 921.471,-227.987"/>
</g>
<!-- Node13 -->
<g id="node13" class="node"><title>Node13</title>
<g id="a_node13"><a xlink:href="teensy3__morse__bsp_8cpp.html#a6c982a7d7805f1dd5426eb98c915cfdd" target="_top" xlink:title="Turn the red LED on (1) or off (0). ">
<polygon fill="white" stroke="black" points="936.5,-171.5 936.5,-190.5 986.5,-190.5 986.5,-171.5 936.5,-171.5"/>
<text text-anchor="middle" x="961.5" y="-178.5" font-family="Helvetica,sans-Serif" font-size="10.00">redLED</text>
</a>
</g>
</g>
<!-- Node8&#45;&gt;Node13 -->
<g id="edge12" class="edge"><title>Node8&#45;&gt;Node13</title>
<path fill="none" stroke="midnightblue" d="M842.561,-229.275C859.352,-221.285 885.14,-209.321 908,-200 914.008,-197.55 920.464,-195.083 926.722,-192.774"/>
<polygon fill="midnightblue" stroke="midnightblue" points="928.092,-196 936.301,-189.302 925.707,-189.419 928.092,-196"/>
</g>
<!-- Node12 -->
<g id="node12" class="node"><title>Node12</title>
<g id="a_node12"><a xlink:href="teensy3__morse__bsp_8cpp.html#ac70998cee1bf97f00aec4a1b4e5a4f60" target="_top" xlink:title="isEarphonePresent">
<polygon fill="white" stroke="black" points="1051,-209.5 1051,-228.5 1150,-228.5 1150,-209.5 1051,-209.5"/>
<text text-anchor="middle" x="1100.5" y="-216.5" font-family="Helvetica,sans-Serif" font-size="10.00">isEarphonePresent</text>
</a>
</g>
</g>
<!-- Node11&#45;&gt;Node12 -->
<g id="edge11" class="edge"><title>Node11&#45;&gt;Node12</title>
<path fill="none" stroke="midnightblue" d="M992.227,-219C1006.43,-219 1023.96,-219 1040.7,-219"/>
<polygon fill="midnightblue" stroke="midnightblue" points="1040.98,-222.5 1050.98,-219 1040.98,-215.5 1040.98,-222.5"/>
</g>
<!-- Node15&#45;&gt;Node2 -->
<g id="edge16" class="edge"><title>Node15&#45;&gt;Node2</title>
<path fill="none" stroke="midnightblue" d="M813.389,-123.197C799.161,-108.692 770.062,-82.1374 739,-72 510.913,2.43911 397.671,33.9806 200,-102 153.991,-133.65 137.234,-202.839 131.603,-237.043"/>
<polygon fill="midnightblue" stroke="midnightblue" points="128.102,-236.791 130.093,-247.197 135.026,-237.821 128.102,-236.791"/>
</g>
<!-- Node16&#45;&gt;Node6 -->
<g id="edge18" class="edge"><title>Node16&#45;&gt;Node6</title>
<path fill="none" stroke="midnightblue" d="M595.142,-223.552C616.233,-233.807 649.955,-250.206 674.078,-261.936"/>
<polygon fill="midnightblue" stroke="midnightblue" points="672.601,-265.11 683.125,-266.335 675.663,-258.815 672.601,-265.11"/>
</g>
<!-- Node16&#45;&gt;Node15 -->
<g id="edge19" class="edge"><title>Node16&#45;&gt;Node15</title>
<path fill="none" stroke="midnightblue" d="M599.633,-206.086C644.492,-191.375 740.696,-159.827 790.758,-143.409"/>
<polygon fill="midnightblue" stroke="midnightblue" points="792.005,-146.684 800.417,-140.242 789.824,-140.032 792.005,-146.684"/>
</g>
<!-- Node18&#45;&gt;Node3 -->
<g id="edge22" class="edge"><title>Node18&#45;&gt;Node3</title>
<path fill="none" stroke="midnightblue" d="M434.964,-247.577C447.648,-254.932 465.267,-265.566 480,-276 507.092,-295.185 536.525,-319.79 554.986,-335.722"/>
<polygon fill="midnightblue" stroke="midnightblue" points="552.805,-338.464 562.648,-342.382 557.397,-333.18 552.805,-338.464"/>
</g>
<!-- Node18&#45;&gt;Node16 -->
<g id="edge23" class="edge"><title>Node18&#45;&gt;Node16</title>
<path fill="none" stroke="midnightblue" d="M450.22,-233.027C476.293,-229.003 512.914,-223.351 539.462,-219.253"/>
<polygon fill="midnightblue" stroke="midnightblue" points="540.104,-222.696 549.454,-217.711 539.037,-215.778 540.104,-222.696"/>
</g>
<!-- Node19&#45;&gt;Node17 -->
<g id="edge25" class="edge"><title>Node19&#45;&gt;Node17</title>
<path fill="none" stroke="midnightblue" d="M318.089,-283.075C326.711,-284.125 335.682,-285.218 344.54,-286.296"/>
<polygon fill="midnightblue" stroke="midnightblue" points="344.117,-289.771 354.467,-287.506 344.964,-282.822 344.117,-289.771"/>
</g>
<!-- Node19&#45;&gt;Node18 -->
<g id="edge26" class="edge"><title>Node19&#45;&gt;Node18</title>
<path fill="none" stroke="midnightblue" d="M299.365,-266.411C322.167,-260.857 350.861,-253.867 374.083,-248.211"/>
<polygon fill="midnightblue" stroke="midnightblue" points="375.108,-251.563 383.996,-245.796 373.451,-244.762 375.108,-251.563"/>
</g>
<!-- Node20&#45;&gt;Node2 -->
<g id="edge28" class="edge"><title>Node20&#45;&gt;Node2</title>
<path fill="none" stroke="midnightblue" d="M249.304,-209.637C237.917,-217.029 217.362,-225.377 200,-233 187.748,-238.379 174.421,-244.501 162.657,-249.487"/>
<polygon fill="midnightblue" stroke="midnightblue" points="161.123,-246.333 153.2,-253.367 163.78,-252.809 161.123,-246.333"/>
</g>
<!-- Node21&#45;&gt;Node18 -->
<g id="edge31" class="edge"><title>Node21&#45;&gt;Node18</title>
<path fill="none" stroke="midnightblue" d="M287.009,-169.552C296.928,-172.661 308.139,-176.576 318,-181 344.82,-193.032 373.701,-210.424 393.11,-222.828"/>
<polygon fill="midnightblue" stroke="midnightblue" points="391.276,-225.81 401.573,-228.305 395.079,-219.934 391.276,-225.81"/>
</g>
<!-- Node22 -->
<g id="node22" class="node"><title>Node22</title>
<g id="a_node22"><a xlink:href="settings_8cpp.html#a7b4efa097b94f9a90c5bbafcdf93fe4f" target="_top" xlink:title="getUptime">
<polygon fill="white" stroke="black" points="386,-152.5 386,-171.5 448,-171.5 448,-152.5 386,-152.5"/>
<text text-anchor="middle" x="417" y="-159.5" font-family="Helvetica,sans-Serif" font-size="10.00">getUptime</text>
</a>
</g>
</g>
<!-- Node21&#45;&gt;Node22 -->
<g id="edge30" class="edge"><title>Node21&#45;&gt;Node22</title>
<path fill="none" stroke="midnightblue" d="M287.173,-162C311.633,-162 347.905,-162 375.735,-162"/>
<polygon fill="midnightblue" stroke="midnightblue" points="375.945,-165.5 385.945,-162 375.945,-158.5 375.945,-165.5"/>
</g>
<!-- Node24 -->
<g id="node24" class="node"><title>Node24</title>
<g id="a_node24"><a xlink:href="class_voltage_monitor.html#a70902b84f9864c95d5553a0644a64f4f" target="_top" xlink:title="Return the latest voltage reading. ">
<polygon fill="white" stroke="black" points="354,-456.5 354,-475.5 480,-475.5 480,-456.5 354,-456.5"/>
<text text-anchor="middle" x="417" y="-463.5" font-family="Helvetica,sans-Serif" font-size="10.00">VoltageMonitor::getValue</text>
</a>
</g>
</g>
<!-- Node23&#45;&gt;Node24 -->
<g id="edge33" class="edge"><title>Node23&#45;&gt;Node24</title>
<path fill="none" stroke="midnightblue" d="M296.182,-466C310.344,-466 327.117,-466 343.56,-466"/>
<polygon fill="midnightblue" stroke="midnightblue" points="343.728,-469.5 353.728,-466 343.728,-462.5 343.728,-469.5"/>
</g>
<!-- Node25 -->
<g id="node25" class="node"><title>Node25</title>
<g id="a_node25"><a xlink:href="actions_8cpp.html#a2b8c3769e2aa32a2da9e2f3f85ac73dd" target="_top" xlink:title="A sample ADC reading is taken each time through the main loop, and written to a ring buffer...">
<polygon fill="white" stroke="black" points="518.5,-437.5 518.5,-456.5 630.5,-456.5 630.5,-437.5 518.5,-437.5"/>
<text text-anchor="middle" x="574.5" y="-444.5" font-family="Helvetica,sans-Serif" font-size="10.00">getVoltagePollInterval</text>
</a>
</g>
</g>
<!-- Node24&#45;&gt;Node25 -->
<g id="edge34" class="edge"><title>Node24&#45;&gt;Node25</title>
<path fill="none" stroke="midnightblue" d="M480.352,-458.381C489.438,-457.271 498.816,-456.125 507.963,-455.008"/>
<polygon fill="midnightblue" stroke="midnightblue" points="508.662,-458.448 518.163,-453.761 507.813,-451.5 508.662,-458.448"/>
</g>
<!-- Node26 -->
<g id="node26" class="node"><title>Node26</title>
<g id="a_node26"><a xlink:href="class_voltage_monitor.html#a75871331808c34b40d04059ee2af0f27" target="_top" xlink:title="Filter and scale raw ADC values to millivolts. ">
<polygon fill="white" stroke="black" points="516,-475.5 516,-494.5 633,-494.5 633,-475.5 516,-475.5"/>
<text text-anchor="middle" x="574.5" y="-482.5" font-family="Helvetica,sans-Serif" font-size="10.00">VoltageMonitor::update</text>
</a>
</g>
</g>
<!-- Node24&#45;&gt;Node26 -->
<g id="edge35" class="edge"><title>Node24&#45;&gt;Node26</title>
<path fill="none" stroke="midnightblue" d="M480.352,-473.619C488.702,-474.639 497.298,-475.689 505.735,-476.72"/>
<polygon fill="midnightblue" stroke="midnightblue" points="505.57,-480.226 515.92,-477.965 506.419,-473.277 505.57,-480.226"/>
</g>
<!-- Node27&#45;&gt;Node3 -->
<g id="edge37" class="edge"><title>Node27&#45;&gt;Node3</title>
<path fill="none" stroke="midnightblue" d="M449.843,-352C474.677,-352 509.247,-352 535.522,-352"/>
<polygon fill="midnightblue" stroke="midnightblue" points="535.864,-355.5 545.864,-352 535.863,-348.5 535.864,-355.5"/>
</g>
</g>
</svg>
