<?xml version="1.0" encoding="UTF-8" standalone="no"?>
<!DOCTYPE svg PUBLIC "-//W3C//DTD SVG 1.1//EN"
 "http://www.w3.org/Graphics/SVG/1.1/DTD/svg11.dtd">
<!-- Generated by graphviz version 2.38.0 (20140413.2041)
 -->
<!-- Title: txTock Pages: 1 -->
<svg width="288pt" height="66pt"
 viewBox="0.00 0.00 288.00 66.00" xmlns="http://www.w3.org/2000/svg" xmlns:xlink="http://www.w3.org/1999/xlink">
<g id="graph0" class="graph" transform="scale(1 1) rotate(0) translate(4 62)">
<title>txTock</title>
<polygon fill="white" stroke="none" points="-4,4 -4,-62 284,-62 284,4 -4,4"/>
<!-- Node1 -->
<g id="node1" class="node"><title>Node1</title>
<polygon fill="#bfbfbf" stroke="black" points="0,-19.5 0,-38.5 47,-38.5 47,-19.5 0,-19.5"/>
<text text-anchor="middle" x="23.5" y="-26.5" font-family="Helvetica,sans-Serif" font-size="10.00">txTock</text>
</g>
<!-- Node2 -->
<g id="node2" class="node"><title>Node2</title>
<g id="a_node2"><a xlink:href="libmorse_8cpp.html#afa60f07ebee7c34ef41c3dfb64222bb6" target="_top" xlink:title="Score the given pattern against the state of the symbol stack. ">
<polygon fill="white" stroke="black" points="83,-38.5 83,-57.5 152,-57.5 152,-38.5 83,-38.5"/>
<text text-anchor="middle" x="117.5" y="-45.5" font-family="Helvetica,sans-Serif" font-size="10.00">matchScore</text>
</a>
</g>
</g>
<!-- Node1&#45;&gt;Node2 -->
<g id="edge1" class="edge"><title>Node1&#45;&gt;Node2</title>
<path fill="none" stroke="midnightblue" d="M57.0547,-35.7232C65.434,-37.4538 74.466,-39.3191 82.8974,-41.0603"/>
<polygon fill="midnightblue" stroke="midnightblue" points="57.7428,-32.2916 47.2416,-33.6966 56.327,-39.1469 57.7428,-32.2916"/>
</g>
<!-- Node4 -->
<g id="node4" class="node"><title>Node4</title>
<g id="a_node4"><a xlink:href="libmorse_8h.html#a25fad1f4d176afaa89839cc897891e78" target="_top" xlink:title="rxString">
<polygon fill="white" stroke="black" points="92.5,-0.5 92.5,-19.5 142.5,-19.5 142.5,-0.5 92.5,-0.5"/>
<text text-anchor="middle" x="117.5" y="-7.5" font-family="Helvetica,sans-Serif" font-size="10.00">rxString</text>
</a>
</g>
</g>
<!-- Node1&#45;&gt;Node4 -->
<g id="edge3" class="edge"><title>Node1&#45;&gt;Node4</title>
<path fill="none" stroke="midnightblue" d="M57.0656,-22.2745C68.7096,-19.8698 81.6125,-17.205 92.4126,-14.9746"/>
<polygon fill="midnightblue" stroke="midnightblue" points="56.327,-18.8531 47.2416,-24.3034 57.7428,-25.7084 56.327,-18.8531"/>
</g>
<!-- Node3 -->
<g id="node3" class="node"><title>Node3</title>
<g id="a_node3"><a xlink:href="actions_8h.html#a1fec7da4166b9612d2deec3d0262d60f" target="_top" xlink:title="dispatchOnStack">
<polygon fill="white" stroke="black" points="188,-19.5 188,-38.5 280,-38.5 280,-19.5 188,-19.5"/>
<text text-anchor="middle" x="234" y="-26.5" font-family="Helvetica,sans-Serif" font-size="10.00">dispatchOnStack</text>
</a>
</g>
</g>
<!-- Node2&#45;&gt;Node3 -->
<g id="edge2" class="edge"><title>Node2&#45;&gt;Node3</title>
<path fill="none" stroke="midnightblue" d="M162.15,-40.7567C170.488,-39.3732 179.233,-37.922 187.623,-36.5298"/>
<polygon fill="midnightblue" stroke="midnightblue" points="161.527,-37.3123 152.234,-42.4021 162.673,-44.2178 161.527,-37.3123"/>
</g>
<!-- Node4&#45;&gt;Node3 -->
<g id="edge4" class="edge"><title>Node4&#45;&gt;Node3</title>
<path fill="none" stroke="midnightblue" d="M152.591,-15.657C163.625,-17.488 176.039,-19.548 187.752,-21.4915"/>
<polygon fill="midnightblue" stroke="midnightblue" points="152.941,-12.1673 142.503,-13.983 151.795,-19.0729 152.941,-12.1673"/>
</g>
</g>
</svg>
