<?xml version="1.0" encoding="UTF-8" standalone="no"?>
<!DOCTYPE svg PUBLIC "-//W3C//DTD SVG 1.1//EN"
 "http://www.w3.org/Graphics/SVG/1.1/DTD/svg11.dtd">
<!-- Generated by graphviz version 2.38.0 (20140413.2041)
 -->
<!-- Title: txEcho Pages: 1 -->
<svg width="1127pt" height="513pt"
 viewBox="0.00 0.00 1127.00 513.06" xmlns="http://www.w3.org/2000/svg" xmlns:xlink="http://www.w3.org/1999/xlink">
<g id="graph0" class="graph" transform="scale(1 1) rotate(0) translate(4 509.055)">
<title>txEcho</title>
<polygon fill="white" stroke="none" points="-4,4 -4,-509.055 1123,-509.055 1123,4 -4,4"/>
<!-- Node1 -->
<g id="node1" class="node"><title>Node1</title>
<polygon fill="#bfbfbf" stroke="black" points="0,-399.5 0,-418.5 47,-418.5 47,-399.5 0,-399.5"/>
<text text-anchor="middle" x="23.5" y="-406.5" font-family="Helvetica,sans-Serif" font-size="10.00">txEcho</text>
</g>
<!-- Node2 -->
<g id="node2" class="node"><title>Node2</title>
<g id="a_node2"><a xlink:href="libmorse_8cpp.html#a0ee2308940264ea9ac8e50afc1a4d285" target="_top" xlink:title="txString">
<polygon fill="white" stroke="black" points="83,-285.5 83,-304.5 133,-304.5 133,-285.5 83,-285.5"/>
<text text-anchor="middle" x="108" y="-292.5" font-family="Helvetica,sans-Serif" font-size="10.00">txString</text>
</a>
</g>
</g>
<!-- Node1&#45;&gt;Node2 -->
<g id="edge1" class="edge"><title>Node1&#45;&gt;Node2</title>
<path fill="none" stroke="midnightblue" d="M31.5339,-399.28C45.3548,-380.182 76.2431,-337.5 93.9194,-313.075"/>
<polygon fill="midnightblue" stroke="midnightblue" points="96.9566,-314.848 99.9839,-304.695 91.2858,-310.744 96.9566,-314.848"/>
</g>
<!-- Node6 -->
<g id="node6" class="node"><title>Node6</title>
<g id="a_node6"><a xlink:href="libmorse_8cpp.html#a9fdfce728595d72b78dc7c834ab99a40" target="_top" xlink:title="Transmit a literal Morse code value. ">
<polygon fill="white" stroke="black" points="647.5,-171.5 647.5,-190.5 698.5,-190.5 698.5,-171.5 647.5,-171.5"/>
<text text-anchor="middle" x="673" y="-178.5" font-family="Helvetica,sans-Serif" font-size="10.00">txLiteral</text>
</a>
</g>
</g>
<!-- Node1&#45;&gt;Node6 -->
<g id="edge38" class="edge"><title>Node1&#45;&gt;Node6</title>
<path fill="none" stroke="midnightblue" d="M35.93,-418.809C65.4283,-443.081 147.393,-504 227,-504 227,-504 227,-504 387,-504 485.857,-504 532.162,-516.966 602,-447 637.348,-411.587 661.732,-255.903 669.415,-200.587"/>
<polygon fill="midnightblue" stroke="midnightblue" points="672.886,-201.035 670.763,-190.655 665.95,-200.094 672.886,-201.035"/>
</g>
<!-- Node3 -->
<g id="node3" class="node"><title>Node3</title>
<g id="a_node3"><a xlink:href="teensy3__morse__bsp_8cpp.html#ab306f692c5c9455a0c82782a67ff0147" target="_top" xlink:title="touchPoll">
<polygon fill="white" stroke="black" points="515,-418.5 515,-437.5 572,-437.5 572,-418.5 515,-418.5"/>
<text text-anchor="middle" x="543.5" y="-425.5" font-family="Helvetica,sans-Serif" font-size="10.00">touchPoll</text>
</a>
</g>
</g>
<!-- Node2&#45;&gt;Node3 -->
<g id="edge2" class="edge"><title>Node2&#45;&gt;Node3</title>
<path fill="none" stroke="midnightblue" d="M110.801,-304.83C115.582,-327.759 130.93,-384.675 169,-409 223.764,-443.992 421.274,-435.876 504.791,-430.674"/>
<polygon fill="midnightblue" stroke="midnightblue" points="505.107,-434.161 514.862,-430.026 504.658,-427.176 505.107,-434.161"/>
</g>
<!-- Node5 -->
<g id="node5" class="node"><title>Node5</title>
<g id="a_node5"><a xlink:href="settings_8cpp.html#a960551e90dfdad18f3c9b1338ccba7db" target="_top" xlink:title="Get the dit duration in microseconds. ">
<polygon fill="white" stroke="black" points="756.5,-303.5 756.5,-322.5 828.5,-322.5 828.5,-303.5 756.5,-303.5"/>
<text text-anchor="middle" x="792.5" y="-310.5" font-family="Helvetica,sans-Serif" font-size="10.00">getDitMicros</text>
</a>
</g>
</g>
<!-- Node2&#45;&gt;Node5 -->
<g id="edge4" class="edge"><title>Node2&#45;&gt;Node5</title>
<path fill="none" stroke="midnightblue" d="M120.533,-304.698C132.016,-313.746 150.546,-326.758 169,-333 260.29,-363.877 288.629,-352 385,-352 385,-352 385,-352 544.5,-352 615.631,-352 696.889,-336.024 746.174,-324.523"/>
<polygon fill="midnightblue" stroke="midnightblue" points="747.27,-327.86 756.191,-322.144 745.653,-321.049 747.27,-327.86"/>
</g>
<!-- Node2&#45;&gt;Node6 -->
<g id="edge5" class="edge"><title>Node2&#45;&gt;Node6</title>
<path fill="none" stroke="midnightblue" d="M111.46,-285.458C117.358,-264.793 134.45,-216.145 169,-196 323.116,-106.141 551.404,-150.091 637.48,-171.556"/>
<polygon fill="midnightblue" stroke="midnightblue" points="636.703,-174.97 647.258,-174.052 638.434,-168.188 636.703,-174.97"/>
</g>
<!-- Node16 -->
<g id="node16" class="node"><title>Node16</title>
<g id="a_node16"><a xlink:href="libmorse_8cpp.html#acd4b292f5e412ee4f05aed9dafbc072d" target="_top" xlink:title="Convert an ASCII character into Morse code and transmit it. ">
<polygon fill="white" stroke="black" points="518.5,-114.5 518.5,-133.5 568.5,-133.5 568.5,-114.5 518.5,-114.5"/>
<text text-anchor="middle" x="543.5" y="-121.5" font-family="Helvetica,sans-Serif" font-size="10.00">txLetter</text>
</a>
</g>
</g>
<!-- Node2&#45;&gt;Node16 -->
<g id="edge17" class="edge"><title>Node2&#45;&gt;Node16</title>
<path fill="none" stroke="midnightblue" d="M109.596,-285.357C111.838,-258.333 122.237,-181.648 169,-148 222.568,-109.455 426.283,-116.969 508.143,-121.716"/>
<polygon fill="midnightblue" stroke="midnightblue" points="508.215,-125.227 518.407,-122.334 508.636,-118.239 508.215,-125.227"/>
</g>
<!-- Node17 -->
<g id="node17" class="node"><title>Node17</title>
<g id="a_node17"><a xlink:href="teensy3__morse__bsp_8cpp.html#a8761e874366e227690fba2964e1bc445" target="_top" xlink:title="getInternalTemperatureC">
<polygon fill="white" stroke="black" points="323.5,-209.5 323.5,-228.5 448.5,-228.5 448.5,-209.5 323.5,-209.5"/>
<text text-anchor="middle" x="386" y="-216.5" font-family="Helvetica,sans-Serif" font-size="10.00">getInternalTemperatureC</text>
</a>
</g>
</g>
<!-- Node2&#45;&gt;Node17 -->
<g id="edge20" class="edge"><title>Node2&#45;&gt;Node17</title>
<path fill="none" stroke="midnightblue" d="M113.052,-285.497C120.928,-268.416 140.106,-233.002 169,-219 222.021,-193.306 291.322,-199.151 336.948,-207.499"/>
<polygon fill="midnightblue" stroke="midnightblue" points="336.393,-210.957 346.876,-209.424 337.725,-204.085 336.393,-210.957"/>
</g>
<!-- Node18 -->
<g id="node18" class="node"><title>Node18</title>
<g id="a_node18"><a xlink:href="libmorse_8cpp.html#a47abdd74b66d7180c47d192bab8bdccb" target="_top" xlink:title="Transmit an unsigned integer in Morse code. ">
<polygon fill="white" stroke="black" points="353,-266.5 353,-285.5 419,-285.5 419,-266.5 353,-266.5"/>
<text text-anchor="middle" x="386" y="-273.5" font-family="Helvetica,sans-Serif" font-size="10.00">txUnsigned</text>
</a>
</g>
</g>
<!-- Node2&#45;&gt;Node18 -->
<g id="edge21" class="edge"><title>Node2&#45;&gt;Node18</title>
<path fill="none" stroke="midnightblue" d="M133.01,-293.347C179.901,-290.119 284.182,-282.94 342.836,-278.903"/>
<polygon fill="midnightblue" stroke="midnightblue" points="343.149,-282.389 352.885,-278.211 342.668,-275.406 343.149,-282.389"/>
</g>
<!-- Node19 -->
<g id="node19" class="node"><title>Node19</title>
<g id="a_node19"><a xlink:href="actions_8cpp.html#aed718ec1bd4cc7adb2f65d40a6784496" target="_top" xlink:title="Transmit the internal temperature in integer in Fahrenheit. ">
<polygon fill="white" stroke="black" points="169,-228.5 169,-247.5 287,-247.5 287,-228.5 169,-228.5"/>
<text text-anchor="middle" x="228" y="-235.5" font-family="Helvetica,sans-Serif" font-size="10.00">txInternalTemperatureF</text>
</a>
</g>
</g>
<!-- Node2&#45;&gt;Node19 -->
<g id="edge24" class="edge"><title>Node2&#45;&gt;Node19</title>
<path fill="none" stroke="midnightblue" d="M125.297,-285.397C137.222,-278.529 153.889,-269.255 169,-262 176.613,-258.345 184.931,-254.704 192.831,-251.403"/>
<polygon fill="midnightblue" stroke="midnightblue" points="194.259,-254.6 202.183,-247.567 191.602,-248.124 194.259,-254.6"/>
</g>
<!-- Node20 -->
<g id="node20" class="node"><title>Node20</title>
<g id="a_node20"><a xlink:href="actions_8cpp.html#aaabb3ac0c23f35a499bc17efe829f326" target="_top" xlink:title="Transmit the 24&#45;hr time. ">
<polygon fill="white" stroke="black" points="189,-380.5 189,-399.5 267,-399.5 267,-380.5 189,-380.5"/>
<text text-anchor="middle" x="228" y="-387.5" font-family="Helvetica,sans-Serif" font-size="10.00">txTimeHHMM</text>
</a>
</g>
</g>
<!-- Node2&#45;&gt;Node20 -->
<g id="edge27" class="edge"><title>Node2&#45;&gt;Node20</title>
<path fill="none" stroke="midnightblue" d="M119.593,-304.753C130.379,-318.441 148.408,-341.962 169,-357 180.163,-365.152 194.503,-371.118 206.131,-376.157"/>
<polygon fill="midnightblue" stroke="midnightblue" points="204.949,-379.463 215.504,-380.379 207.824,-373.081 204.949,-379.463"/>
</g>
<!-- Node21 -->
<g id="node21" class="node"><title>Node21</title>
<g id="a_node21"><a xlink:href="actions_8cpp.html#ad02149679fa3cc6a4957d1a318408ffd" target="_top" xlink:title="Transmit the uptime. ">
<polygon fill="white" stroke="black" points="200,-304.5 200,-323.5 256,-323.5 256,-304.5 200,-304.5"/>
<text text-anchor="middle" x="228" y="-311.5" font-family="Helvetica,sans-Serif" font-size="10.00">txUptime</text>
</a>
</g>
</g>
<!-- Node2&#45;&gt;Node21 -->
<g id="edge29" class="edge"><title>Node2&#45;&gt;Node21</title>
<path fill="none" stroke="midnightblue" d="M133.164,-298.891C149.548,-301.529 171.518,-305.066 190.079,-308.055"/>
<polygon fill="midnightblue" stroke="midnightblue" points="189.555,-311.516 199.984,-309.65 190.667,-304.605 189.555,-311.516"/>
</g>
<!-- Node23 -->
<g id="node23" class="node"><title>Node23</title>
<g id="a_node23"><a xlink:href="teensy3__morse__bsp_8cpp.html#ae8dd28759e56dbd2ee9bc9ae96d1783c" target="_top" xlink:title="Return the most recent ADC measurement of the input voltage. Perform analog to digital conversion on ...">
<polygon fill="white" stroke="black" points="191,-38.5 191,-57.5 265,-57.5 265,-38.5 191,-38.5"/>
<text text-anchor="middle" x="228" y="-45.5" font-family="Helvetica,sans-Serif" font-size="10.00">readMillivolts</text>
</a>
</g>
</g>
<!-- Node2&#45;&gt;Node23 -->
<g id="edge32" class="edge"><title>Node2&#45;&gt;Node23</title>
<path fill="none" stroke="midnightblue" d="M108.751,-285.134C108.428,-251.091 111.856,-137.069 169,-72 172.64,-67.8548 177.109,-64.4104 181.936,-61.5519"/>
<polygon fill="midnightblue" stroke="midnightblue" points="183.566,-64.65 190.911,-57.0144 180.407,-58.4031 183.566,-64.65"/>
</g>
<!-- Node27 -->
<g id="node27" class="node"><title>Node27</title>
<g id="a_node27"><a xlink:href="libmorse_8cpp.html#ac3f000c98271c6d0a7710135e18189bc" target="_top" xlink:title="On my hardware there is cross&#45;coupling between the serial port and the touch sensors. Without the code below, long messages to the serial port trigger a touch input. ">
<polygon fill="white" stroke="black" points="353.5,-456.5 353.5,-475.5 418.5,-475.5 418.5,-456.5 353.5,-456.5"/>
<text text-anchor="middle" x="386" y="-463.5" font-family="Helvetica,sans-Serif" font-size="10.00">flushTouch</text>
</a>
</g>
</g>
<!-- Node2&#45;&gt;Node27 -->
<g id="edge36" class="edge"><title>Node2&#45;&gt;Node27</title>
<path fill="none" stroke="midnightblue" d="M109.676,-304.534C112.13,-331.271 123.032,-407.274 169,-442 219.241,-479.953 295.767,-478.624 342.959,-473.098"/>
<polygon fill="midnightblue" stroke="midnightblue" points="343.668,-476.536 353.14,-471.788 342.775,-469.593 343.668,-476.536"/>
</g>
<!-- Node4 -->
<g id="node4" class="node"><title>Node4</title>
<g id="a_node4"><a xlink:href="teensy3__morse__bsp_8cpp.html#af6899cd9b83df54106b259ab81ea5cb2" target="_top" xlink:title="touchMargin">
<polygon fill="white" stroke="black" points="638,-418.5 638,-437.5 708,-437.5 708,-418.5 638,-418.5"/>
<text text-anchor="middle" x="673" y="-425.5" font-family="Helvetica,sans-Serif" font-size="10.00">touchMargin</text>
</a>
</g>
</g>
<!-- Node3&#45;&gt;Node4 -->
<g id="edge3" class="edge"><title>Node3&#45;&gt;Node4</title>
<path fill="none" stroke="midnightblue" d="M572.166,-428C588.281,-428 608.984,-428 627.355,-428"/>
<polygon fill="midnightblue" stroke="midnightblue" points="627.562,-431.5 637.562,-428 627.562,-424.5 627.562,-431.5"/>
</g>
<!-- Node6&#45;&gt;Node5 -->
<g id="edge14" class="edge"><title>Node6&#45;&gt;Node5</title>
<path fill="none" stroke="midnightblue" d="M682.832,-190.921C702.662,-213.199 750.941,-267.436 775.934,-295.513"/>
<polygon fill="midnightblue" stroke="midnightblue" points="773.622,-298.18 782.885,-303.322 778.851,-293.526 773.622,-298.18"/>
</g>
<!-- Node7 -->
<g id="node7" class="node"><title>Node7</title>
<g id="a_node7"><a xlink:href="class_morse_token.html#a48cd72aeb868391449d1f51c1d0bf5cc" target="_top" xlink:title="Treat code == 0 as the error token. ">
<polygon fill="white" stroke="black" points="744,-180.5 744,-199.5 841,-199.5 841,-180.5 744,-180.5"/>
<text text-anchor="middle" x="792.5" y="-187.5" font-family="Helvetica,sans-Serif" font-size="10.00">MorseToken::valid</text>
</a>
</g>
</g>
<!-- Node6&#45;&gt;Node7 -->
<g id="edge6" class="edge"><title>Node6&#45;&gt;Node7</title>
<path fill="none" stroke="midnightblue" d="M698.632,-182.887C708.831,-183.668 721.13,-184.61 733.391,-185.549"/>
<polygon fill="midnightblue" stroke="midnightblue" points="733.397,-189.06 743.635,-186.334 733.932,-182.08 733.397,-189.06"/>
</g>
<!-- Node8 -->
<g id="node8" class="node"><title>Node8</title>
<g id="a_node8"><a xlink:href="teensy3__morse__bsp_8cpp.html#af66e71e3fac9b6a2c6532bc8a513bfde" target="_top" xlink:title="Output a square wave on pin 10 at the given frequency for the given duration. ">
<polygon fill="white" stroke="black" points="773.5,-142.5 773.5,-161.5 811.5,-161.5 811.5,-142.5 773.5,-142.5"/>
<text text-anchor="middle" x="792.5" y="-149.5" font-family="Helvetica,sans-Serif" font-size="10.00">beep</text>
</a>
</g>
</g>
<!-- Node6&#45;&gt;Node8 -->
<g id="edge7" class="edge"><title>Node6&#45;&gt;Node8</title>
<path fill="none" stroke="midnightblue" d="M698.632,-174.921C717.57,-170.247 743.746,-163.786 763.483,-158.915"/>
<polygon fill="midnightblue" stroke="midnightblue" points="764.55,-162.257 773.42,-156.462 762.873,-155.46 764.55,-162.257"/>
</g>
<!-- Node14 -->
<g id="node14" class="node"><title>Node14</title>
<g id="a_node14"><a xlink:href="settings_8cpp.html#a8575b9b52638114a4f32d1462cf9b7c1" target="_top" xlink:title="Get the transmission frequency (side tone). ">
<polygon fill="white" stroke="black" points="765.5,-218.5 765.5,-237.5 819.5,-237.5 819.5,-218.5 765.5,-218.5"/>
<text text-anchor="middle" x="792.5" y="-225.5" font-family="Helvetica,sans-Serif" font-size="10.00">getTxHz</text>
</a>
</g>
</g>
<!-- Node6&#45;&gt;Node14 -->
<g id="edge13" class="edge"><title>Node6&#45;&gt;Node14</title>
<path fill="none" stroke="midnightblue" d="M697.778,-190.511C715.102,-197.441 738.806,-206.923 758.04,-214.616"/>
<polygon fill="midnightblue" stroke="midnightblue" points="756.77,-217.877 767.354,-218.342 759.369,-211.378 756.77,-217.877"/>
</g>
<!-- Node15 -->
<g id="node15" class="node"><title>Node15</title>
<g id="a_node15"><a xlink:href="libmorse_8cpp.html#ab94e088615119d1faae7df22ce50aedf" target="_top" xlink:title="Transmit a Morse code prosign indicating an error. ">
<polygon fill="white" stroke="black" points="769.5,-104.5 769.5,-123.5 815.5,-123.5 815.5,-104.5 769.5,-104.5"/>
<text text-anchor="middle" x="792.5" y="-111.5" font-family="Helvetica,sans-Serif" font-size="10.00">txError</text>
</a>
</g>
</g>
<!-- Node6&#45;&gt;Node15 -->
<g id="edge15" class="edge"><title>Node6&#45;&gt;Node15</title>
<path fill="none" stroke="midnightblue" d="M686.366,-171.271C699.953,-160.886 722.686,-144.39 744,-133 748.994,-130.331 754.446,-127.814 759.819,-125.537"/>
<polygon fill="midnightblue" stroke="midnightblue" points="761.322,-128.705 769.287,-121.719 758.704,-122.213 761.322,-128.705"/>
</g>
<!-- Node9 -->
<g id="node9" class="node"><title>Node9</title>
<g id="a_node9"><a xlink:href="teensy3__morse__bsp_8cpp.html#a6f674d5b9985ea3a7eeb0df299c2e405" target="_top" xlink:title="pollEarphonePresent">
<polygon fill="white" stroke="black" points="877,-199.5 877,-218.5 984,-218.5 984,-199.5 877,-199.5"/>
<text text-anchor="middle" x="930.5" y="-206.5" font-family="Helvetica,sans-Serif" font-size="10.00">pollEarphonePresent</text>
</a>
</g>
</g>
<!-- Node8&#45;&gt;Node9 -->
<g id="edge8" class="edge"><title>Node8&#45;&gt;Node9</title>
<path fill="none" stroke="midnightblue" d="M811.734,-158.777C820.652,-162.221 831.487,-166.602 841,-171 857.422,-178.592 860.454,-182.682 877,-190 881.527,-192.002 886.336,-193.961 891.136,-195.815"/>
<polygon fill="midnightblue" stroke="midnightblue" points="890.287,-199.234 900.879,-199.453 892.735,-192.676 890.287,-199.234"/>
</g>
<!-- Node10 -->
<g id="node10" class="node"><title>Node10</title>
<g id="a_node10"><a xlink:href="teensy3__morse__bsp_8cpp.html#a2d6b4ace33ed5e497dedd03217540c63" target="_top" xlink:title="Set the PWM frequency for the audio output pins. ">
<polygon fill="white" stroke="black" points="889,-161.5 889,-180.5 972,-180.5 972,-161.5 889,-161.5"/>
<text text-anchor="middle" x="930.5" y="-168.5" font-family="Helvetica,sans-Serif" font-size="10.00">pwmFrequency</text>
</a>
</g>
</g>
<!-- Node8&#45;&gt;Node10 -->
<g id="edge9" class="edge"><title>Node8&#45;&gt;Node10</title>
<path fill="none" stroke="midnightblue" d="M811.56,-154.523C828.617,-156.906 855.017,-160.594 878.519,-163.878"/>
<polygon fill="midnightblue" stroke="midnightblue" points="878.334,-167.386 888.722,-165.303 879.303,-160.453 878.334,-167.386"/>
</g>
<!-- Node11 -->
<g id="node11" class="node"><title>Node11</title>
<g id="a_node11"><a xlink:href="teensy3__morse__bsp_8cpp.html#a82911eac3bf13d6f36d10102a4c4d3c4" target="_top" xlink:title="Generate a tone on the audio output pins. ">
<polygon fill="white" stroke="black" points="900,-123.5 900,-142.5 961,-142.5 961,-123.5 900,-123.5"/>
<text text-anchor="middle" x="930.5" y="-130.5" font-family="Helvetica,sans-Serif" font-size="10.00">pwmWrite</text>
</a>
</g>
</g>
<!-- Node8&#45;&gt;Node11 -->
<g id="edge10" class="edge"><title>Node8&#45;&gt;Node11</title>
<path fill="none" stroke="midnightblue" d="M811.56,-149.477C831.462,-146.697 864.083,-142.139 889.979,-138.521"/>
<polygon fill="midnightblue" stroke="midnightblue" points="890.471,-141.987 899.89,-137.137 889.502,-135.054 890.471,-141.987"/>
</g>
<!-- Node13 -->
<g id="node13" class="node"><title>Node13</title>
<g id="a_node13"><a xlink:href="teensy3__morse__bsp_8cpp.html#a6c982a7d7805f1dd5426eb98c915cfdd" target="_top" xlink:title="Turn the red LED on (1) or off (0). ">
<polygon fill="white" stroke="black" points="905.5,-85.5 905.5,-104.5 955.5,-104.5 955.5,-85.5 905.5,-85.5"/>
<text text-anchor="middle" x="930.5" y="-92.5" font-family="Helvetica,sans-Serif" font-size="10.00">redLED</text>
</a>
</g>
</g>
<!-- Node8&#45;&gt;Node13 -->
<g id="edge12" class="edge"><title>Node8&#45;&gt;Node13</title>
<path fill="none" stroke="midnightblue" d="M811.734,-145.223C820.652,-141.779 831.487,-137.398 841,-133 857.422,-125.408 860.454,-121.318 877,-114 882.992,-111.35 889.48,-108.774 895.784,-106.419"/>
<polygon fill="midnightblue" stroke="midnightblue" points="897.232,-109.617 905.442,-102.92 894.847,-103.036 897.232,-109.617"/>
</g>
<!-- Node12 -->
<g id="node12" class="node"><title>Node12</title>
<g id="a_node12"><a xlink:href="teensy3__morse__bsp_8cpp.html#ac70998cee1bf97f00aec4a1b4e5a4f60" target="_top" xlink:title="isEarphonePresent">
<polygon fill="white" stroke="black" points="1020,-123.5 1020,-142.5 1119,-142.5 1119,-123.5 1020,-123.5"/>
<text text-anchor="middle" x="1069.5" y="-130.5" font-family="Helvetica,sans-Serif" font-size="10.00">isEarphonePresent</text>
</a>
</g>
</g>
<!-- Node11&#45;&gt;Node12 -->
<g id="edge11" class="edge"><title>Node11&#45;&gt;Node12</title>
<path fill="none" stroke="midnightblue" d="M961.227,-133C975.434,-133 992.959,-133 1009.7,-133"/>
<polygon fill="midnightblue" stroke="midnightblue" points="1009.98,-136.5 1019.98,-133 1009.98,-129.5 1009.98,-136.5"/>
</g>
<!-- Node15&#45;&gt;Node2 -->
<g id="edge16" class="edge"><title>Node15&#45;&gt;Node2</title>
<path fill="none" stroke="midnightblue" d="M769.454,-109.808C726.392,-101.997 628.008,-86 544.5,-86 385,-86 385,-86 385,-86 288.016,-86 243.544,-54.9593 169,-117 120.615,-157.269 111.084,-238.014 109.322,-275.299"/>
<polygon fill="midnightblue" stroke="midnightblue" points="105.822,-275.272 108.991,-285.382 112.818,-275.503 105.822,-275.272"/>
</g>
<!-- Node16&#45;&gt;Node6 -->
<g id="edge18" class="edge"><title>Node16&#45;&gt;Node6</title>
<path fill="none" stroke="midnightblue" d="M568.102,-133.57C578.538,-137.874 590.928,-143.082 602,-148 615.601,-154.041 630.537,-161.032 643.106,-167.02"/>
<polygon fill="midnightblue" stroke="midnightblue" points="641.665,-170.211 652.196,-171.372 644.688,-163.897 641.665,-170.211"/>
</g>
<!-- Node16&#45;&gt;Node15 -->
<g id="edge19" class="edge"><title>Node16&#45;&gt;Node15</title>
<path fill="none" stroke="midnightblue" d="M568.633,-123.023C613.304,-121.214 708.893,-117.344 759.129,-115.311"/>
<polygon fill="midnightblue" stroke="midnightblue" points="759.566,-118.796 769.417,-114.894 759.283,-111.802 759.566,-118.796"/>
</g>
<!-- Node18&#45;&gt;Node3 -->
<g id="edge22" class="edge"><title>Node18&#45;&gt;Node3</title>
<path fill="none" stroke="midnightblue" d="M419.132,-281.55C429.347,-284.394 440.253,-288.653 449,-295 490.709,-325.265 520.484,-380.01 534.131,-408.923"/>
<polygon fill="midnightblue" stroke="midnightblue" points="531.082,-410.673 538.422,-418.314 537.449,-407.764 531.082,-410.673"/>
</g>
<!-- Node18&#45;&gt;Node16 -->
<g id="edge23" class="edge"><title>Node18&#45;&gt;Node16</title>
<path fill="none" stroke="midnightblue" d="M406.284,-266.367C419.122,-259.448 435.961,-249.364 449,-238 482.73,-208.603 513.99,-166.202 530.427,-142.26"/>
<polygon fill="midnightblue" stroke="midnightblue" points="533.461,-144.021 536.16,-133.776 527.661,-140.102 533.461,-144.021"/>
</g>
<!-- Node19&#45;&gt;Node17 -->
<g id="edge25" class="edge"><title>Node19&#45;&gt;Node17</title>
<path fill="none" stroke="midnightblue" d="M287.089,-230.925C295.711,-229.875 304.682,-228.782 313.54,-227.704"/>
<polygon fill="midnightblue" stroke="midnightblue" points="313.964,-231.178 323.467,-226.494 313.117,-224.229 313.964,-231.178"/>
</g>
<!-- Node19&#45;&gt;Node18 -->
<g id="edge26" class="edge"><title>Node19&#45;&gt;Node18</title>
<path fill="none" stroke="midnightblue" d="M268.365,-247.589C291.167,-253.143 319.861,-260.133 343.083,-265.789"/>
<polygon fill="midnightblue" stroke="midnightblue" points="342.451,-269.238 352.996,-268.204 344.108,-262.437 342.451,-269.238"/>
</g>
<!-- Node20&#45;&gt;Node2 -->
<g id="edge28" class="edge"><title>Node20&#45;&gt;Node2</title>
<path fill="none" stroke="midnightblue" d="M188.785,-386.083C181.882,-383.112 174.984,-379.37 169,-375 146.463,-358.542 126.996,-331.923 116.735,-313.605"/>
<polygon fill="midnightblue" stroke="midnightblue" points="119.813,-311.937 112.13,-304.641 113.586,-315.135 119.813,-311.937"/>
</g>
<!-- Node21&#45;&gt;Node18 -->
<g id="edge31" class="edge"><title>Node21&#45;&gt;Node18</title>
<path fill="none" stroke="midnightblue" d="M256.173,-307.381C280.119,-301.548 315.386,-292.957 342.968,-286.238"/>
<polygon fill="midnightblue" stroke="midnightblue" points="343.86,-289.624 352.748,-283.856 342.203,-282.823 343.86,-289.624"/>
</g>
<!-- Node22 -->
<g id="node22" class="node"><title>Node22</title>
<g id="a_node22"><a xlink:href="settings_8cpp.html#a7b4efa097b94f9a90c5bbafcdf93fe4f" target="_top" xlink:title="getUptime">
<polygon fill="white" stroke="black" points="355,-304.5 355,-323.5 417,-323.5 417,-304.5 355,-304.5"/>
<text text-anchor="middle" x="386" y="-311.5" font-family="Helvetica,sans-Serif" font-size="10.00">getUptime</text>
</a>
</g>
</g>
<!-- Node21&#45;&gt;Node22 -->
<g id="edge30" class="edge"><title>Node21&#45;&gt;Node22</title>
<path fill="none" stroke="midnightblue" d="M256.173,-314C280.633,-314 316.905,-314 344.735,-314"/>
<polygon fill="midnightblue" stroke="midnightblue" points="344.945,-317.5 354.945,-314 344.945,-310.5 344.945,-317.5"/>
</g>
<!-- Node24 -->
<g id="node24" class="node"><title>Node24</title>
<g id="a_node24"><a xlink:href="class_voltage_monitor.html#a70902b84f9864c95d5553a0644a64f4f" target="_top" xlink:title="Return the latest voltage reading. ">
<polygon fill="white" stroke="black" points="323,-38.5 323,-57.5 449,-57.5 449,-38.5 323,-38.5"/>
<text text-anchor="middle" x="386" y="-45.5" font-family="Helvetica,sans-Serif" font-size="10.00">VoltageMonitor::getValue</text>
</a>
</g>
</g>
<!-- Node23&#45;&gt;Node24 -->
<g id="edge33" class="edge"><title>Node23&#45;&gt;Node24</title>
<path fill="none" stroke="midnightblue" d="M265.182,-48C279.344,-48 296.117,-48 312.56,-48"/>
<polygon fill="midnightblue" stroke="midnightblue" points="312.728,-51.5001 322.728,-48 312.728,-44.5001 312.728,-51.5001"/>
</g>
<!-- Node25 -->
<g id="node25" class="node"><title>Node25</title>
<g id="a_node25"><a xlink:href="actions_8cpp.html#a2b8c3769e2aa32a2da9e2f3f85ac73dd" target="_top" xlink:title="A sample ADC reading is taken each time through the main loop, and written to a ring buffer...">
<polygon fill="white" stroke="black" points="487.5,-0.5 487.5,-19.5 599.5,-19.5 599.5,-0.5 487.5,-0.5"/>
<text text-anchor="middle" x="543.5" y="-7.5" font-family="Helvetica,sans-Serif" font-size="10.00">getVoltagePollInterval</text>
</a>
</g>
</g>
<!-- Node24&#45;&gt;Node25 -->
<g id="edge34" class="edge"><title>Node24&#45;&gt;Node25</title>
<path fill="none" stroke="midnightblue" d="M426.239,-38.411C446.759,-33.3965 472.067,-27.2119 493.825,-21.8947"/>
<polygon fill="midnightblue" stroke="midnightblue" points="494.66,-25.294 503.543,-19.5201 492.998,-18.494 494.66,-25.294"/>
</g>
<!-- Node26 -->
<g id="node26" class="node"><title>Node26</title>
<g id="a_node26"><a xlink:href="class_voltage_monitor.html#a75871331808c34b40d04059ee2af0f27" target="_top" xlink:title="Filter and scale raw ADC values to millivolts. ">
<polygon fill="white" stroke="black" points="485,-38.5 485,-57.5 602,-57.5 602,-38.5 485,-38.5"/>
<text text-anchor="middle" x="543.5" y="-45.5" font-family="Helvetica,sans-Serif" font-size="10.00">VoltageMonitor::update</text>
</a>
</g>
</g>
<!-- Node24&#45;&gt;Node26 -->
<g id="edge35" class="edge"><title>Node24&#45;&gt;Node26</title>
<path fill="none" stroke="midnightblue" d="M449.352,-48C457.702,-48 466.298,-48 474.735,-48"/>
<polygon fill="midnightblue" stroke="midnightblue" points="474.92,-51.5001 484.92,-48 474.92,-44.5001 474.92,-51.5001"/>
</g>
<!-- Node27&#45;&gt;Node3 -->
<g id="edge37" class="edge"><title>Node27&#45;&gt;Node3</title>
<path fill="none" stroke="midnightblue" d="M418.843,-458.218C443.788,-452.123 478.554,-443.627 504.872,-437.195"/>
<polygon fill="midnightblue" stroke="midnightblue" points="505.98,-440.528 514.864,-434.754 504.318,-433.728 505.98,-440.528"/>
</g>
</g>
</svg>
