<?xml version="1.0" encoding="UTF-8" standalone="no"?>
<!DOCTYPE svg PUBLIC "-//W3C//DTD SVG 1.1//EN"
 "http://www.w3.org/Graphics/SVG/1.1/DTD/svg11.dtd">
<!-- Generated by graphviz version 2.38.0 (20140413.2041)
 -->
<!-- Title: restoreActions Pages: 1 -->
<!--zoomable 484 -->
<svg id="main" version="1.1" xmlns="http://www.w3.org/2000/svg" xmlns:xlink="http://www.w3.org/1999/xlink" xml:space="preserve" onload="init(evt)">
<style type="text/css"><![CDATA[
.edge:hover path { stroke: red; }
.edge:hover polygon { stroke: red; fill: red; }
]]></style>
<script type="text/javascript"><![CDATA[
var edges = document.getElementsByTagName('g');
if (edges && edges.length) {
  for (var i=0;i<edges.length;i++) {
    if (edges[i].id.substr(0,4)=='edge') {
      edges[i].setAttribute('class','edge');
    }
  }
}
]]></script>
        <defs>
                <circle id="rim" cx="0" cy="0" r="7"/>
                <circle id="rim2" cx="0" cy="0" r="3.5"/>
                <g id="zoomPlus">
                        <use xlink:href="#rim" fill="#404040">
                                <set attributeName="fill" to="#808080" begin="zoomplus.mouseover" end="zoomplus.mouseout"/>
                        </use>
                        <path d="M-4,0h8M0,-4v8" fill="none" stroke="white" stroke-width="1.5" pointer-events="none"/>
                </g>
                <g id="zoomMin">
                        <use xlink:href="#rim" fill="#404040">
                                <set attributeName="fill" to="#808080" begin="zoomminus.mouseover" end="zoomminus.mouseout"/>
                        </use>
                        <path d="M-4,0h8" fill="none" stroke="white" stroke-width="1.5" pointer-events="none"/>
                </g>
                <g id="dirArrow">
                        <path fill="none" stroke="white" stroke-width="1.5" d="M0,-3.0v7 M-2.5,-0.5L0,-3.0L2.5,-0.5"/>
                </g>
               <g id="resetDef">
                       <use xlink:href="#rim2" fill="#404040">
                               <set attributeName="fill" to="#808080" begin="reset.mouseover" end="reset.mouseout"/>
                       </use>
               </g>
        </defs>

<script type="text/javascript">
var viewWidth = 1278;
var viewHeight = 484;
var sectionId = 'dynsection-33';
</script>
<script xlink:href="svgpan.js"/>
<svg id="graph" class="graph">
<g id="viewport">
<title>restoreActions</title>
<polygon fill="white" stroke="none" points="-4,4 -4,-480 1274,-480 1274,4 -4,4"/>
<!-- Node1 -->
<g id="node1" class="node"><title>Node1</title>
<polygon fill="#bfbfbf" stroke="black" points="0,-57.5 0,-76.5 80,-76.5 80,-57.5 0,-57.5"/>
<text text-anchor="middle" x="40" y="-64.5" font-family="Helvetica,sans-Serif" font-size="10.00">restoreActions</text>
</g>
<!-- Node2 -->
<g id="node2" class="node"><title>Node2</title>
<g id="a_node2"><a xlink:href="actions_8cpp.html#a9cfd0adeb55456558a4fcddce4901fc0" target="_top" xlink:title="restorePending">
<polygon fill="white" stroke="black" points="116,-76.5 116,-95.5 198,-95.5 198,-76.5 116,-76.5"/>
<text text-anchor="middle" x="157" y="-83.5" font-family="Helvetica,sans-Serif" font-size="10.00">restorePending</text>
</a>
</g>
</g>
<!-- Node1&#45;&gt;Node2 -->
<g id="edge1" class="edge"><title>Node1&#45;&gt;Node2</title>
<path fill="none" stroke="midnightblue" d="M80.2548,-73.4856C88.4859,-74.8455 97.2734,-76.2973 105.84,-77.7127"/>
<polygon fill="midnightblue" stroke="midnightblue" points="105.311,-81.1727 115.748,-79.3497 106.453,-74.2664 105.311,-81.1727"/>
</g>
<!-- Node3 -->
<g id="node3" class="node"><title>Node3</title>
<g id="a_node3"><a xlink:href="libmorse_8cpp.html#ab94e088615119d1faae7df22ce50aedf" target="_top" xlink:title="Transmit a Morse code prosign indicating an error. ">
<polygon fill="white" stroke="black" points="134,-38.5 134,-57.5 180,-57.5 180,-38.5 134,-38.5"/>
<text text-anchor="middle" x="157" y="-45.5" font-family="Helvetica,sans-Serif" font-size="10.00">txError</text>
</a>
</g>
</g>
<!-- Node1&#45;&gt;Node3 -->
<g id="edge2" class="edge"><title>Node1&#45;&gt;Node3</title>
<path fill="none" stroke="midnightblue" d="M80.2548,-60.5144C94.3227,-58.1902 110.016,-55.5974 123.453,-53.3772"/>
<polygon fill="midnightblue" stroke="midnightblue" points="124.377,-56.7723 133.672,-51.6889 123.236,-49.8659 124.377,-56.7723"/>
</g>
<!-- Node4 -->
<g id="node4" class="node"><title>Node4</title>
<g id="a_node4"><a xlink:href="libmorse_8cpp.html#a0ee2308940264ea9ac8e50afc1a4d285" target="_top" xlink:title="txString">
<polygon fill="white" stroke="black" points="234,-266.5 234,-285.5 284,-285.5 284,-266.5 234,-266.5"/>
<text text-anchor="middle" x="259" y="-273.5" font-family="Helvetica,sans-Serif" font-size="10.00">txString</text>
</a>
</g>
</g>
<!-- Node3&#45;&gt;Node4 -->
<g id="edge3" class="edge"><title>Node3&#45;&gt;Node4</title>
<path fill="none" stroke="midnightblue" d="M180.165,-54.5752C186.691,-57.4632 193.325,-61.4888 198,-67 245.887,-123.456 255.616,-216.059 257.548,-256.302"/>
<polygon fill="midnightblue" stroke="midnightblue" points="254.054,-256.532 257.916,-266.397 261.049,-256.277 254.054,-256.532"/>
</g>
<!-- Node5 -->
<g id="node5" class="node"><title>Node5</title>
<g id="a_node5"><a xlink:href="teensy3__morse__bsp_8cpp.html#ab306f692c5c9455a0c82782a67ff0147" target="_top" xlink:title="touchPoll">
<polygon fill="white" stroke="black" points="666,-342.5 666,-361.5 723,-361.5 723,-342.5 666,-342.5"/>
<text text-anchor="middle" x="694.5" y="-349.5" font-family="Helvetica,sans-Serif" font-size="10.00">touchPoll</text>
</a>
</g>
</g>
<!-- Node4&#45;&gt;Node5 -->
<g id="edge4" class="edge"><title>Node4&#45;&gt;Node5</title>
<path fill="none" stroke="midnightblue" d="M267.694,-285.787C278.065,-298.148 297.808,-318.901 320,-328 434.94,-375.13 586.517,-365.251 655.901,-357.227"/>
<polygon fill="midnightblue" stroke="midnightblue" points="656.414,-360.69 665.921,-356.014 655.573,-353.741 656.414,-360.69"/>
</g>
<!-- Node7 -->
<g id="node7" class="node"><title>Node7</title>
<g id="a_node7"><a xlink:href="settings_8cpp.html#a960551e90dfdad18f3c9b1338ccba7db" target="_top" xlink:title="Get the dit duration in microseconds. ">
<polygon fill="white" stroke="black" points="907.5,-237.5 907.5,-256.5 979.5,-256.5 979.5,-237.5 907.5,-237.5"/>
<text text-anchor="middle" x="943.5" y="-244.5" font-family="Helvetica,sans-Serif" font-size="10.00">getDitMicros</text>
</a>
</g>
</g>
<!-- Node4&#45;&gt;Node7 -->
<g id="edge6" class="edge"><title>Node4&#45;&gt;Node7</title>
<path fill="none" stroke="midnightblue" d="M284.213,-281.607C332.047,-292.177 442.165,-314 536,-314 536,-314 536,-314 695.5,-314 776.219,-314 866.763,-280.259 912.537,-260.665"/>
<polygon fill="midnightblue" stroke="midnightblue" points="914.099,-263.802 921.869,-256.599 911.303,-257.385 914.099,-263.802"/>
</g>
<!-- Node8 -->
<g id="node8" class="node"><title>Node8</title>
<g id="a_node8"><a xlink:href="libmorse_8cpp.html#a9fdfce728595d72b78dc7c834ab99a40" target="_top" xlink:title="Transmit a literal Morse code value. ">
<polygon fill="white" stroke="black" points="798.5,-95.5 798.5,-114.5 849.5,-114.5 849.5,-95.5 798.5,-95.5"/>
<text text-anchor="middle" x="824" y="-102.5" font-family="Helvetica,sans-Serif" font-size="10.00">txLiteral</text>
</a>
</g>
</g>
<!-- Node4&#45;&gt;Node8 -->
<g id="edge7" class="edge"><title>Node4&#45;&gt;Node8</title>
<path fill="none" stroke="midnightblue" d="M261.677,-266.237C266.258,-242.863 281.326,-183.652 320,-157 358.477,-130.483 680.874,-112.106 788.315,-106.67"/>
<polygon fill="midnightblue" stroke="midnightblue" points="788.502,-110.165 798.315,-106.17 788.153,-103.174 788.502,-110.165"/>
</g>
<!-- Node17 -->
<g id="node17" class="node"><title>Node17</title>
<g id="a_node17"><a xlink:href="libmorse_8cpp.html#acd4b292f5e412ee4f05aed9dafbc072d" target="_top" xlink:title="Convert an ASCII character into Morse code and transmit it. ">
<polygon fill="white" stroke="black" points="669.5,-76.5 669.5,-95.5 719.5,-95.5 719.5,-76.5 669.5,-76.5"/>
<text text-anchor="middle" x="694.5" y="-83.5" font-family="Helvetica,sans-Serif" font-size="10.00">txLetter</text>
</a>
</g>
</g>
<!-- Node4&#45;&gt;Node17 -->
<g id="edge18" class="edge"><title>Node4&#45;&gt;Node17</title>
<path fill="none" stroke="midnightblue" d="M260.104,-266.431C260.995,-237.251 268.049,-149.009 320,-110 372.827,-70.3332 577.372,-78.5386 659.292,-83.5932"/>
<polygon fill="midnightblue" stroke="midnightblue" points="659.131,-87.0899 669.334,-84.2354 659.578,-80.1042 659.131,-87.0899"/>
</g>
<!-- Node18 -->
<g id="node18" class="node"><title>Node18</title>
<g id="a_node18"><a xlink:href="teensy3__morse__bsp_8cpp.html#a8761e874366e227690fba2964e1bc445" target="_top" xlink:title="getInternalTemperatureC">
<polygon fill="white" stroke="black" points="474.5,-247.5 474.5,-266.5 599.5,-266.5 599.5,-247.5 474.5,-247.5"/>
<text text-anchor="middle" x="537" y="-254.5" font-family="Helvetica,sans-Serif" font-size="10.00">getInternalTemperatureC</text>
</a>
</g>
</g>
<!-- Node4&#45;&gt;Node18 -->
<g id="edge21" class="edge"><title>Node4&#45;&gt;Node18</title>
<path fill="none" stroke="midnightblue" d="M284.01,-274.347C323.745,-271.612 404.691,-266.039 464.162,-261.945"/>
<polygon fill="midnightblue" stroke="midnightblue" points="464.52,-265.429 474.256,-261.251 464.039,-258.446 464.52,-265.429"/>
</g>
<!-- Node19 -->
<g id="node19" class="node"><title>Node19</title>
<g id="a_node19"><a xlink:href="libmorse_8cpp.html#a47abdd74b66d7180c47d192bab8bdccb" target="_top" xlink:title="Transmit an unsigned integer in Morse code. ">
<polygon fill="white" stroke="black" points="504,-171.5 504,-190.5 570,-190.5 570,-171.5 504,-171.5"/>
<text text-anchor="middle" x="537" y="-178.5" font-family="Helvetica,sans-Serif" font-size="10.00">txUnsigned</text>
</a>
</g>
</g>
<!-- Node4&#45;&gt;Node19 -->
<g id="edge22" class="edge"><title>Node4&#45;&gt;Node19</title>
<path fill="none" stroke="midnightblue" d="M262.635,-266.451C268.78,-246.278 286.174,-199.644 320,-181 374.196,-151.129 448.273,-159.768 494.082,-169.682"/>
<polygon fill="midnightblue" stroke="midnightblue" points="493.441,-173.125 503.969,-171.937 494.998,-166.301 493.441,-173.125"/>
</g>
<!-- Node20 -->
<g id="node20" class="node"><title>Node20</title>
<g id="a_node20"><a xlink:href="actions_8cpp.html#aed718ec1bd4cc7adb2f65d40a6784496" target="_top" xlink:title="Transmit the internal temperature in integer in Fahrenheit. ">
<polygon fill="white" stroke="black" points="320,-228.5 320,-247.5 438,-247.5 438,-228.5 320,-228.5"/>
<text text-anchor="middle" x="379" y="-235.5" font-family="Helvetica,sans-Serif" font-size="10.00">txInternalTemperatureF</text>
</a>
</g>
</g>
<!-- Node4&#45;&gt;Node20 -->
<g id="edge25" class="edge"><title>Node4&#45;&gt;Node20</title>
<path fill="none" stroke="midnightblue" d="M284.164,-268.218C299.866,-263.162 320.696,-256.454 338.742,-250.642"/>
<polygon fill="midnightblue" stroke="midnightblue" points="339.985,-253.919 348.431,-247.522 337.839,-247.256 339.985,-253.919"/>
</g>
<!-- Node21 -->
<g id="node21" class="node"><title>Node21</title>
<g id="a_node21"><a xlink:href="actions_8cpp.html#aaabb3ac0c23f35a499bc17efe829f326" target="_top" xlink:title="Transmit the 24&#45;hr time. ">
<polygon fill="white" stroke="black" points="340,-456.5 340,-475.5 418,-475.5 418,-456.5 340,-456.5"/>
<text text-anchor="middle" x="379" y="-463.5" font-family="Helvetica,sans-Serif" font-size="10.00">txTimeHHMM</text>
</a>
</g>
</g>
<!-- Node4&#45;&gt;Node21 -->
<g id="edge28" class="edge"><title>Node4&#45;&gt;Node21</title>
<path fill="none" stroke="midnightblue" d="M260.862,-285.517C263.598,-313.571 274.819,-393.753 320,-438 327.779,-445.618 338.656,-450.181 348.893,-453.497"/>
<polygon fill="midnightblue" stroke="midnightblue" points="348.193,-456.941 358.777,-456.464 350.205,-450.237 348.193,-456.941"/>
</g>
<!-- Node22 -->
<g id="node22" class="node"><title>Node22</title>
<g id="a_node22"><a xlink:href="actions_8cpp.html#ad02149679fa3cc6a4957d1a318408ffd" target="_top" xlink:title="Transmit the uptime. ">
<polygon fill="white" stroke="black" points="351,-190.5 351,-209.5 407,-209.5 407,-190.5 351,-190.5"/>
<text text-anchor="middle" x="379" y="-197.5" font-family="Helvetica,sans-Serif" font-size="10.00">txUptime</text>
</a>
</g>
</g>
<!-- Node4&#45;&gt;Node22 -->
<g id="edge30" class="edge"><title>Node4&#45;&gt;Node22</title>
<path fill="none" stroke="midnightblue" d="M267.917,-266.146C278.53,-253.542 298.534,-231.814 320,-219 326.505,-215.117 333.901,-211.921 341.183,-209.331"/>
<polygon fill="midnightblue" stroke="midnightblue" points="342.512,-212.579 350.947,-206.167 340.355,-205.92 342.512,-212.579"/>
</g>
<!-- Node24 -->
<g id="node24" class="node"><title>Node24</title>
<g id="a_node24"><a xlink:href="teensy3__morse__bsp_8cpp.html#ae8dd28759e56dbd2ee9bc9ae96d1783c" target="_top" xlink:title="Return the most recent ADC measurement of the input voltage. Perform analog to digital conversion on ...">
<polygon fill="white" stroke="black" points="342,-418.5 342,-437.5 416,-437.5 416,-418.5 342,-418.5"/>
<text text-anchor="middle" x="379" y="-425.5" font-family="Helvetica,sans-Serif" font-size="10.00">readMillivolts</text>
</a>
</g>
</g>
<!-- Node4&#45;&gt;Node24 -->
<g id="edge33" class="edge"><title>Node4&#45;&gt;Node24</title>
<path fill="none" stroke="midnightblue" d="M262.017,-285.763C267.353,-309.266 283.97,-369.59 320,-404 324.088,-407.904 328.901,-411.212 333.977,-414.004"/>
<polygon fill="midnightblue" stroke="midnightblue" points="332.77,-417.307 343.299,-418.491 335.806,-411 332.77,-417.307"/>
</g>
<!-- Node28 -->
<g id="node28" class="node"><title>Node28</title>
<g id="a_node28"><a xlink:href="libmorse_8cpp.html#ac3f000c98271c6d0a7710135e18189bc" target="_top" xlink:title="On my hardware there is cross&#45;coupling between the serial port and the touch sensors. Without the code below, long messages to the serial port trigger a touch input. ">
<polygon fill="white" stroke="black" points="504.5,-380.5 504.5,-399.5 569.5,-399.5 569.5,-380.5 504.5,-380.5"/>
<text text-anchor="middle" x="537" y="-387.5" font-family="Helvetica,sans-Serif" font-size="10.00">flushTouch</text>
</a>
</g>
</g>
<!-- Node4&#45;&gt;Node28 -->
<g id="edge37" class="edge"><title>Node4&#45;&gt;Node28</title>
<path fill="none" stroke="midnightblue" d="M263.268,-285.652C270.28,-304.708 288.719,-346.962 320,-366 373.374,-398.484 448.081,-398.985 494.186,-395.287"/>
<polygon fill="midnightblue" stroke="midnightblue" points="494.773,-398.749 504.416,-394.36 494.141,-391.777 494.773,-398.749"/>
</g>
<!-- Node6 -->
<g id="node6" class="node"><title>Node6</title>
<g id="a_node6"><a xlink:href="teensy3__morse__bsp_8cpp.html#af6899cd9b83df54106b259ab81ea5cb2" target="_top" xlink:title="touchMargin">
<polygon fill="white" stroke="black" points="789,-342.5 789,-361.5 859,-361.5 859,-342.5 789,-342.5"/>
<text text-anchor="middle" x="824" y="-349.5" font-family="Helvetica,sans-Serif" font-size="10.00">touchMargin</text>
</a>
</g>
</g>
<!-- Node5&#45;&gt;Node6 -->
<g id="edge5" class="edge"><title>Node5&#45;&gt;Node6</title>
<path fill="none" stroke="midnightblue" d="M723.166,-352C739.281,-352 759.984,-352 778.355,-352"/>
<polygon fill="midnightblue" stroke="midnightblue" points="778.562,-355.5 788.562,-352 778.562,-348.5 778.562,-355.5"/>
</g>
<!-- Node8&#45;&gt;Node3 -->
<g id="edge17" class="edge"><title>Node8&#45;&gt;Node3</title>
<path fill="none" stroke="midnightblue" d="M807.942,-95.4548C794.101,-87.0181 772.79,-74.8641 753,-67 661.131,-30.4929 636.857,-10 538,-10 378,-10 378,-10 378,-10 310.324,-10 232.623,-27.677 190.054,-38.9181"/>
<polygon fill="midnightblue" stroke="midnightblue" points="189.012,-35.5739 180.267,-41.5538 190.833,-42.3331 189.012,-35.5739"/>
</g>
<!-- Node8&#45;&gt;Node7 -->
<g id="edge16" class="edge"><title>Node8&#45;&gt;Node7</title>
<path fill="none" stroke="midnightblue" d="M833.076,-114.76C852.613,-138.371 902.66,-198.852 927.727,-229.147"/>
<polygon fill="midnightblue" stroke="midnightblue" points="925.296,-231.698 934.367,-237.171 930.689,-227.236 925.296,-231.698"/>
</g>
<!-- Node9 -->
<g id="node9" class="node"><title>Node9</title>
<g id="a_node9"><a xlink:href="class_morse_token.html#a48cd72aeb868391449d1f51c1d0bf5cc" target="_top" xlink:title="Treat code == 0 as the error token. ">
<polygon fill="white" stroke="black" points="895,-95.5 895,-114.5 992,-114.5 992,-95.5 895,-95.5"/>
<text text-anchor="middle" x="943.5" y="-102.5" font-family="Helvetica,sans-Serif" font-size="10.00">MorseToken::valid</text>
</a>
</g>
</g>
<!-- Node8&#45;&gt;Node9 -->
<g id="edge8" class="edge"><title>Node8&#45;&gt;Node9</title>
<path fill="none" stroke="midnightblue" d="M849.632,-105C859.831,-105 872.13,-105 884.391,-105"/>
<polygon fill="midnightblue" stroke="midnightblue" points="884.635,-108.5 894.635,-105 884.635,-101.5 884.635,-108.5"/>
</g>
<!-- Node10 -->
<g id="node10" class="node"><title>Node10</title>
<g id="a_node10"><a xlink:href="teensy3__morse__bsp_8cpp.html#af66e71e3fac9b6a2c6532bc8a513bfde" target="_top" xlink:title="Output a square wave on pin 10 at the given frequency for the given duration. ">
<polygon fill="white" stroke="black" points="924.5,-57.5 924.5,-76.5 962.5,-76.5 962.5,-57.5 924.5,-57.5"/>
<text text-anchor="middle" x="943.5" y="-64.5" font-family="Helvetica,sans-Serif" font-size="10.00">beep</text>
</a>
</g>
</g>
<!-- Node8&#45;&gt;Node10 -->
<g id="edge9" class="edge"><title>Node8&#45;&gt;Node10</title>
<path fill="none" stroke="midnightblue" d="M849.632,-97.034C868.657,-90.8811 894.988,-82.3656 914.755,-75.9729"/>
<polygon fill="midnightblue" stroke="midnightblue" points="915.982,-79.2545 924.42,-72.8471 913.828,-72.5941 915.982,-79.2545"/>
</g>
<!-- Node16 -->
<g id="node16" class="node"><title>Node16</title>
<g id="a_node16"><a xlink:href="settings_8cpp.html#a8575b9b52638114a4f32d1462cf9b7c1" target="_top" xlink:title="Get the transmission frequency (side tone). ">
<polygon fill="white" stroke="black" points="916.5,-133.5 916.5,-152.5 970.5,-152.5 970.5,-133.5 916.5,-133.5"/>
<text text-anchor="middle" x="943.5" y="-140.5" font-family="Helvetica,sans-Serif" font-size="10.00">getTxHz</text>
</a>
</g>
</g>
<!-- Node8&#45;&gt;Node16 -->
<g id="edge15" class="edge"><title>Node8&#45;&gt;Node16</title>
<path fill="none" stroke="midnightblue" d="M849.632,-112.966C866.174,-118.316 888.239,-125.452 906.711,-131.426"/>
<polygon fill="midnightblue" stroke="midnightblue" points="905.677,-134.77 916.269,-134.517 907.831,-128.109 905.677,-134.77"/>
</g>
<!-- Node11 -->
<g id="node11" class="node"><title>Node11</title>
<g id="a_node11"><a xlink:href="teensy3__morse__bsp_8cpp.html#a6f674d5b9985ea3a7eeb0df299c2e405" target="_top" xlink:title="pollEarphonePresent">
<polygon fill="white" stroke="black" points="1028,-114.5 1028,-133.5 1135,-133.5 1135,-114.5 1028,-114.5"/>
<text text-anchor="middle" x="1081.5" y="-121.5" font-family="Helvetica,sans-Serif" font-size="10.00">pollEarphonePresent</text>
</a>
</g>
</g>
<!-- Node10&#45;&gt;Node11 -->
<g id="edge10" class="edge"><title>Node10&#45;&gt;Node11</title>
<path fill="none" stroke="midnightblue" d="M962.734,-73.7768C971.652,-77.2214 982.487,-81.6018 992,-86 1008.42,-93.5922 1011.45,-97.6819 1028,-105 1032.53,-107.002 1037.34,-108.961 1042.14,-110.815"/>
<polygon fill="midnightblue" stroke="midnightblue" points="1041.29,-114.234 1051.88,-114.453 1043.74,-107.676 1041.29,-114.234"/>
</g>
<!-- Node12 -->
<g id="node12" class="node"><title>Node12</title>
<g id="a_node12"><a xlink:href="teensy3__morse__bsp_8cpp.html#a2d6b4ace33ed5e497dedd03217540c63" target="_top" xlink:title="Set the PWM frequency for the audio output pins. ">
<polygon fill="white" stroke="black" points="1040,-76.5 1040,-95.5 1123,-95.5 1123,-76.5 1040,-76.5"/>
<text text-anchor="middle" x="1081.5" y="-83.5" font-family="Helvetica,sans-Serif" font-size="10.00">pwmFrequency</text>
</a>
</g>
</g>
<!-- Node10&#45;&gt;Node12 -->
<g id="edge11" class="edge"><title>Node10&#45;&gt;Node12</title>
<path fill="none" stroke="midnightblue" d="M962.56,-69.5231C979.617,-71.906 1006.02,-75.5943 1029.52,-78.8776"/>
<polygon fill="midnightblue" stroke="midnightblue" points="1029.33,-82.3857 1039.72,-80.3031 1030.3,-75.4531 1029.33,-82.3857"/>
</g>
<!-- Node13 -->
<g id="node13" class="node"><title>Node13</title>
<g id="a_node13"><a xlink:href="teensy3__morse__bsp_8cpp.html#a82911eac3bf13d6f36d10102a4c4d3c4" target="_top" xlink:title="Generate a tone on the audio output pins. ">
<polygon fill="white" stroke="black" points="1051,-38.5 1051,-57.5 1112,-57.5 1112,-38.5 1051,-38.5"/>
<text text-anchor="middle" x="1081.5" y="-45.5" font-family="Helvetica,sans-Serif" font-size="10.00">pwmWrite</text>
</a>
</g>
</g>
<!-- Node10&#45;&gt;Node13 -->
<g id="edge12" class="edge"><title>Node10&#45;&gt;Node13</title>
<path fill="none" stroke="midnightblue" d="M962.56,-64.4769C982.462,-61.6965 1015.08,-57.1391 1040.98,-53.5213"/>
<polygon fill="midnightblue" stroke="midnightblue" points="1041.47,-56.9867 1050.89,-52.1366 1040.5,-50.054 1041.47,-56.9867"/>
</g>
<!-- Node15 -->
<g id="node15" class="node"><title>Node15</title>
<g id="a_node15"><a xlink:href="teensy3__morse__bsp_8cpp.html#a6c982a7d7805f1dd5426eb98c915cfdd" target="_top" xlink:title="Turn the red LED on (1) or off (0). ">
<polygon fill="white" stroke="black" points="1056.5,-0.5 1056.5,-19.5 1106.5,-19.5 1106.5,-0.5 1056.5,-0.5"/>
<text text-anchor="middle" x="1081.5" y="-7.5" font-family="Helvetica,sans-Serif" font-size="10.00">redLED</text>
</a>
</g>
</g>
<!-- Node10&#45;&gt;Node15 -->
<g id="edge14" class="edge"><title>Node10&#45;&gt;Node15</title>
<path fill="none" stroke="midnightblue" d="M962.561,-58.2751C979.352,-50.2852 1005.14,-38.3208 1028,-29 1034.01,-26.5503 1040.46,-24.0826 1046.72,-21.7739"/>
<polygon fill="midnightblue" stroke="midnightblue" points="1048.09,-25.0001 1056.3,-18.3021 1045.71,-18.419 1048.09,-25.0001"/>
</g>
<!-- Node14 -->
<g id="node14" class="node"><title>Node14</title>
<g id="a_node14"><a xlink:href="teensy3__morse__bsp_8cpp.html#ac70998cee1bf97f00aec4a1b4e5a4f60" target="_top" xlink:title="isEarphonePresent">
<polygon fill="white" stroke="black" points="1171,-38.5 1171,-57.5 1270,-57.5 1270,-38.5 1171,-38.5"/>
<text text-anchor="middle" x="1220.5" y="-45.5" font-family="Helvetica,sans-Serif" font-size="10.00">isEarphonePresent</text>
</a>
</g>
</g>
<!-- Node13&#45;&gt;Node14 -->
<g id="edge13" class="edge"><title>Node13&#45;&gt;Node14</title>
<path fill="none" stroke="midnightblue" d="M1112.23,-48C1126.43,-48 1143.96,-48 1160.7,-48"/>
<polygon fill="midnightblue" stroke="midnightblue" points="1160.98,-51.5001 1170.98,-48 1160.98,-44.5001 1160.98,-51.5001"/>
</g>
<!-- Node17&#45;&gt;Node3 -->
<g id="edge20" class="edge"><title>Node17&#45;&gt;Node3</title>
<path fill="none" stroke="midnightblue" d="M669.312,-83.1224C650.45,-80.949 623.586,-78.0074 600,-76 446.969,-62.9755 263.654,-53.2295 190.48,-49.5752"/>
<polygon fill="midnightblue" stroke="midnightblue" points="190.262,-46.0601 180.101,-49.0609 189.915,-53.0516 190.262,-46.0601"/>
</g>
<!-- Node17&#45;&gt;Node8 -->
<g id="edge19" class="edge"><title>Node17&#45;&gt;Node8</title>
<path fill="none" stroke="midnightblue" d="M719.782,-89.6185C739.154,-92.5054 766.544,-96.5869 788.24,-99.8201"/>
<polygon fill="midnightblue" stroke="midnightblue" points="787.968,-103.318 798.374,-101.33 788.999,-96.3945 787.968,-103.318"/>
</g>
<!-- Node19&#45;&gt;Node5 -->
<g id="edge23" class="edge"><title>Node19&#45;&gt;Node5</title>
<path fill="none" stroke="midnightblue" d="M570.045,-186.152C580.369,-188.973 591.362,-193.319 600,-200 645.797,-235.422 674.556,-300.126 686.747,-332.486"/>
<polygon fill="midnightblue" stroke="midnightblue" points="683.546,-333.925 690.248,-342.131 690.126,-331.537 683.546,-333.925"/>
</g>
<!-- Node19&#45;&gt;Node17 -->
<g id="edge24" class="edge"><title>Node19&#45;&gt;Node17</title>
<path fill="none" stroke="midnightblue" d="M553.766,-171.368C580.892,-154.796 636.583,-120.772 668.866,-101.049"/>
<polygon fill="midnightblue" stroke="midnightblue" points="670.984,-103.858 677.692,-95.6574 667.334,-97.8841 670.984,-103.858"/>
</g>
<!-- Node20&#45;&gt;Node18 -->
<g id="edge26" class="edge"><title>Node20&#45;&gt;Node18</title>
<path fill="none" stroke="midnightblue" d="M438.089,-245.075C446.711,-246.125 455.682,-247.218 464.54,-248.296"/>
<polygon fill="midnightblue" stroke="midnightblue" points="464.117,-251.771 474.467,-249.506 464.964,-244.822 464.117,-251.771"/>
</g>
<!-- Node20&#45;&gt;Node19 -->
<g id="edge27" class="edge"><title>Node20&#45;&gt;Node19</title>
<path fill="none" stroke="midnightblue" d="M412.57,-228.401C420.96,-225.638 429.903,-222.434 438,-219 454.656,-211.937 457.277,-206.903 474,-200 480.362,-197.374 487.222,-194.918 493.979,-192.701"/>
<polygon fill="midnightblue" stroke="midnightblue" points="495.246,-195.972 503.735,-189.633 493.145,-189.295 495.246,-195.972"/>
</g>
<!-- Node21&#45;&gt;Node4 -->
<g id="edge29" class="edge"><title>Node21&#45;&gt;Node4</title>
<path fill="none" stroke="midnightblue" d="M339.931,-467.842C332.617,-465.283 325.526,-461.412 320,-456 275.184,-412.111 263.782,-332.865 260.93,-295.704"/>
<polygon fill="midnightblue" stroke="midnightblue" points="264.416,-295.368 260.292,-285.609 257.43,-295.809 264.416,-295.368"/>
</g>
<!-- Node22&#45;&gt;Node19 -->
<g id="edge32" class="edge"><title>Node22&#45;&gt;Node19</title>
<path fill="none" stroke="midnightblue" d="M407.173,-196.69C431.014,-193.787 466.076,-189.516 493.605,-186.163"/>
<polygon fill="midnightblue" stroke="midnightblue" points="494.244,-189.612 503.748,-184.928 493.398,-182.663 494.244,-189.612"/>
</g>
<!-- Node23 -->
<g id="node23" class="node"><title>Node23</title>
<g id="a_node23"><a xlink:href="settings_8cpp.html#a7b4efa097b94f9a90c5bbafcdf93fe4f" target="_top" xlink:title="getUptime">
<polygon fill="white" stroke="black" points="506,-209.5 506,-228.5 568,-228.5 568,-209.5 506,-209.5"/>
<text text-anchor="middle" x="537" y="-216.5" font-family="Helvetica,sans-Serif" font-size="10.00">getUptime</text>
</a>
</g>
</g>
<!-- Node22&#45;&gt;Node23 -->
<g id="edge31" class="edge"><title>Node22&#45;&gt;Node23</title>
<path fill="none" stroke="midnightblue" d="M407.173,-203.31C431.633,-206.289 467.905,-210.706 495.735,-214.096"/>
<polygon fill="midnightblue" stroke="midnightblue" points="495.595,-217.605 505.945,-215.339 496.441,-210.656 495.595,-217.605"/>
</g>
<!-- Node25 -->
<g id="node25" class="node"><title>Node25</title>
<g id="a_node25"><a xlink:href="class_voltage_monitor.html#a70902b84f9864c95d5553a0644a64f4f" target="_top" xlink:title="Return the latest voltage reading. ">
<polygon fill="white" stroke="black" points="474,-418.5 474,-437.5 600,-437.5 600,-418.5 474,-418.5"/>
<text text-anchor="middle" x="537" y="-425.5" font-family="Helvetica,sans-Serif" font-size="10.00">VoltageMonitor::getValue</text>
</a>
</g>
</g>
<!-- Node24&#45;&gt;Node25 -->
<g id="edge34" class="edge"><title>Node24&#45;&gt;Node25</title>
<path fill="none" stroke="midnightblue" d="M416.182,-428C430.344,-428 447.117,-428 463.56,-428"/>
<polygon fill="midnightblue" stroke="midnightblue" points="463.728,-431.5 473.728,-428 463.728,-424.5 463.728,-431.5"/>
</g>
<!-- Node26 -->
<g id="node26" class="node"><title>Node26</title>
<g id="a_node26"><a xlink:href="actions_8cpp.html#a2b8c3769e2aa32a2da9e2f3f85ac73dd" target="_top" xlink:title="A sample ADC reading is taken each time through the main loop, and written to a ring buffer...">
<polygon fill="white" stroke="black" points="638.5,-399.5 638.5,-418.5 750.5,-418.5 750.5,-399.5 638.5,-399.5"/>
<text text-anchor="middle" x="694.5" y="-406.5" font-family="Helvetica,sans-Serif" font-size="10.00">getVoltagePollInterval</text>
</a>
</g>
</g>
<!-- Node25&#45;&gt;Node26 -->
<g id="edge35" class="edge"><title>Node25&#45;&gt;Node26</title>
<path fill="none" stroke="midnightblue" d="M600.352,-420.381C609.438,-419.271 618.816,-418.125 627.963,-417.008"/>
<polygon fill="midnightblue" stroke="midnightblue" points="628.662,-420.448 638.163,-415.761 627.813,-413.5 628.662,-420.448"/>
</g>
<!-- Node27 -->
<g id="node27" class="node"><title>Node27</title>
<g id="a_node27"><a xlink:href="class_voltage_monitor.html#a75871331808c34b40d04059ee2af0f27" target="_top" xlink:title="Filter and scale raw ADC values to millivolts. ">
<polygon fill="white" stroke="black" points="636,-437.5 636,-456.5 753,-456.5 753,-437.5 636,-437.5"/>
<text text-anchor="middle" x="694.5" y="-444.5" font-family="Helvetica,sans-Serif" font-size="10.00">VoltageMonitor::update</text>
</a>
</g>
</g>
<!-- Node25&#45;&gt;Node27 -->
<g id="edge36" class="edge"><title>Node25&#45;&gt;Node27</title>
<path fill="none" stroke="midnightblue" d="M600.352,-435.619C608.702,-436.639 617.298,-437.689 625.735,-438.72"/>
<polygon fill="midnightblue" stroke="midnightblue" points="625.57,-442.226 635.92,-439.965 626.419,-435.277 625.57,-442.226"/>
</g>
<!-- Node28&#45;&gt;Node5 -->
<g id="edge38" class="edge"><title>Node28&#45;&gt;Node5</title>
<path fill="none" stroke="midnightblue" d="M569.843,-382.218C594.788,-376.123 629.554,-367.627 655.872,-361.195"/>
<polygon fill="midnightblue" stroke="midnightblue" points="656.98,-364.528 665.864,-358.754 655.318,-357.728 656.98,-364.528"/>
</g>
</g>
</svg>
        <g id="navigator" transform="translate(0 0)" fill="#404254">
                <rect fill="#f2f5e9" fill-opacity="0.5" stroke="#606060" stroke-width=".5" x="0" y="0" width="60" height="60"/>
                <use id="zoomplus" xlink:href="#zoomPlus" x="17" y="9" onmousedown="handleZoom(evt,'in')"/>
                <use id="zoomminus" xlink:href="#zoomMin" x="42" y="9" onmousedown="handleZoom(evt,'out')"/>
                <use id="reset" xlink:href="#resetDef" x="30" y="36" onmousedown="handleReset()"/>
                <g id="arrowUp" xlink:href="#dirArrow" transform="translate(30 24)" onmousedown="handlePan(0,-1)">
                  <use xlink:href="#rim" fill="#404040">
                        <set attributeName="fill" to="#808080" begin="arrowUp.mouseover" end="arrowUp.mouseout"/>
                  </use>
                  <path fill="none" stroke="white" stroke-width="1.5" d="M0,-3.0v7 M-2.5,-0.5L0,-3.0L2.5,-0.5"/>
                </g>
                <g id="arrowRight" xlink:href="#dirArrow" transform="rotate(90) translate(36 -43)" onmousedown="handlePan(1,0)">
                  <use xlink:href="#rim" fill="#404040">
                        <set attributeName="fill" to="#808080" begin="arrowRight.mouseover" end="arrowRight.mouseout"/>
                  </use>
                  <path fill="none" stroke="white" stroke-width="1.5" d="M0,-3.0v7 M-2.5,-0.5L0,-3.0L2.5,-0.5"/>
                </g>
                <g id="arrowDown" xlink:href="#dirArrow" transform="rotate(180) translate(-30 -48)" onmousedown="handlePan(0,1)">
                  <use xlink:href="#rim" fill="#404040">
                        <set attributeName="fill" to="#808080" begin="arrowDown.mouseover" end="arrowDown.mouseout"/>
                  </use>
                  <path fill="none" stroke="white" stroke-width="1.5" d="M0,-3.0v7 M-2.5,-0.5L0,-3.0L2.5,-0.5"/>
                </g>
                <g id="arrowLeft" xlink:href="#dirArrow" transform="rotate(270) translate(-36 17)" onmousedown="handlePan(-1,0)">
                  <use xlink:href="#rim" fill="#404040">
                        <set attributeName="fill" to="#808080" begin="arrowLeft.mouseover" end="arrowLeft.mouseout"/>
                  </use>
                  <path fill="none" stroke="white" stroke-width="1.5" d="M0,-3.0v7 M-2.5,-0.5L0,-3.0L2.5,-0.5"/>
                </g>
        </g>
        <svg viewBox="0 0 15 15" width="100%" height="30px" preserveAspectRatio="xMaxYMin meet">
         <g id="arrow_out" transform="scale(0.3 0.3)">
          <a xlink:href="actions_8h_af4c12896b2807b2ac63725a650efea6b_cgraph_org.svg" target="_base">
           <rect id="button" ry="5" rx="5" y="6" x="6" height="38" width="38"
                fill="#f2f5e9" fill-opacity="0.5" stroke="#606060" stroke-width="1.0"/>
           <path id="arrow"
             d="M 11.500037,31.436501 C 11.940474,20.09759 22.043105,11.32322 32.158766,21.979434 L 37.068811,17.246167 C 37.068811,17.246167 37.088388,32 37.088388,32 L 22.160133,31.978069 C 22.160133,31.978069 26.997745,27.140456 26.997745,27.140456 C 18.528582,18.264221 13.291696,25.230495 11.500037,31.436501 z"
             style="fill:#404040;"/>
          </a>
         </g>
        </svg>
</svg>
