<?xml version="1.0" encoding="UTF-8" standalone="no"?>
<!DOCTYPE svg PUBLIC "-//W3C//DTD SVG 1.1//EN"
 "http://www.w3.org/Graphics/SVG/1.1/DTD/svg11.dtd">
<!-- Generated by graphviz version 2.38.0 (20140413.2041)
 -->
<!-- Title: assignAction Pages: 1 -->
<svg width="269pt" height="28pt"
 viewBox="0.00 0.00 269.00 28.00" xmlns="http://www.w3.org/2000/svg" xmlns:xlink="http://www.w3.org/1999/xlink">
<g id="graph0" class="graph" transform="scale(1 1) rotate(0) translate(4 24)">
<title>assignAction</title>
<polygon fill="white" stroke="none" points="-4,4 -4,-24 265,-24 265,4 -4,4"/>
<!-- Node1 -->
<g id="node1" class="node"><title>Node1</title>
<polygon fill="#bfbfbf" stroke="black" points="0,-0.5 0,-19.5 73,-19.5 73,-0.5 0,-0.5"/>
<text text-anchor="middle" x="36.5" y="-7.5" font-family="Helvetica,sans-Serif" font-size="10.00">assignAction</text>
</g>
<!-- Node2 -->
<g id="node2" class="node"><title>Node2</title>
<g id="a_node2"><a xlink:href="actions_8cpp.html#a4ddb37fc9b26cb5c7a18a1458414f647" target="_top" xlink:title="codeHash">
<polygon fill="white" stroke="black" points="109,-0.5 109,-19.5 170,-19.5 170,-0.5 109,-0.5"/>
<text text-anchor="middle" x="139.5" y="-7.5" font-family="Helvetica,sans-Serif" font-size="10.00">codeHash</text>
</a>
</g>
</g>
<!-- Node1&#45;&gt;Node2 -->
<g id="edge1" class="edge"><title>Node1&#45;&gt;Node2</title>
<path fill="none" stroke="midnightblue" d="M73.1088,-10C81.4265,-10 90.336,-10 98.8183,-10"/>
<polygon fill="midnightblue" stroke="midnightblue" points="98.8845,-13.5001 108.884,-10 98.8844,-6.5001 98.8845,-13.5001"/>
</g>
<!-- Node3 -->
<g id="node3" class="node"><title>Node3</title>
<g id="a_node3"><a xlink:href="morse__token_8h.html#af9722722b93869c9f37ef10573b31655" target="_top" xlink:title="wordBits">
<polygon fill="white" stroke="black" points="206,-0.5 206,-19.5 261,-19.5 261,-0.5 206,-0.5"/>
<text text-anchor="middle" x="233.5" y="-7.5" font-family="Helvetica,sans-Serif" font-size="10.00">wordBits</text>
</a>
</g>
</g>
<!-- Node2&#45;&gt;Node3 -->
<g id="edge2" class="edge"><title>Node2&#45;&gt;Node3</title>
<path fill="none" stroke="midnightblue" d="M170.116,-10C178.257,-10 187.186,-10 195.679,-10"/>
<polygon fill="midnightblue" stroke="midnightblue" points="195.741,-13.5001 205.741,-10 195.741,-6.5001 195.741,-13.5001"/>
</g>
</g>
</svg>
