<?xml version="1.0" encoding="UTF-8" standalone="no"?>
<!DOCTYPE svg PUBLIC "-//W3C//DTD SVG 1.1//EN"
 "http://www.w3.org/Graphics/SVG/1.1/DTD/svg11.dtd">
<!-- Generated by graphviz version 2.38.0 (20140413.2041)
 -->
<!-- Title: setVolume Pages: 1 -->
<svg width="1542pt" height="631pt"
 viewBox="0.00 0.00 1542.00 631.00" xmlns="http://www.w3.org/2000/svg" xmlns:xlink="http://www.w3.org/1999/xlink">
<g id="graph0" class="graph" transform="scale(1 1) rotate(0) translate(4 627)">
<title>setVolume</title>
<polygon fill="white" stroke="none" points="-4,4 -4,-627 1538,-627 1538,4 -4,4"/>
<!-- Node1 -->
<g id="node1" class="node"><title>Node1</title>
<polygon fill="#bfbfbf" stroke="black" points="0,-76.5 0,-95.5 63,-95.5 63,-76.5 0,-76.5"/>
<text text-anchor="middle" x="31.5" y="-83.5" font-family="Helvetica,sans-Serif" font-size="10.00">setVolume</text>
</g>
<!-- Node2 -->
<g id="node2" class="node"><title>Node2</title>
<g id="a_node2"><a xlink:href="stack_8cpp.html#aafac4a86d14d59c34565bc295024e511" target="_top" xlink:title="symbolStackSize">
<polygon fill="white" stroke="black" points="227,-38.5 227,-57.5 320,-57.5 320,-38.5 227,-38.5"/>
<text text-anchor="middle" x="273.5" y="-45.5" font-family="Helvetica,sans-Serif" font-size="10.00">symbolStackSize</text>
</a>
</g>
</g>
<!-- Node1&#45;&gt;Node2 -->
<g id="edge1" class="edge"><title>Node1&#45;&gt;Node2</title>
<path fill="none" stroke="midnightblue" d="M61.7025,-76.4998C73.218,-73.0591 86.6283,-69.4267 99,-67 137.939,-59.3623 182.44,-54.5668 216.624,-51.7043"/>
<polygon fill="midnightblue" stroke="midnightblue" points="217.197,-55.1695 226.884,-50.8769 216.635,-48.1921 217.197,-55.1695"/>
</g>
<!-- Node4 -->
<g id="node4" class="node"><title>Node4</title>
<g id="a_node4"><a xlink:href="stack_8cpp.html#abefdfbf9131b5ea5926f9ecbecb6b1e6" target="_top" xlink:title="Access the stack using an index where 0 is the top of the stack. ">
<polygon fill="white" stroke="black" points="130.5,-76.5 130.5,-95.5 159.5,-95.5 159.5,-76.5 130.5,-76.5"/>
<text text-anchor="middle" x="145" y="-83.5" font-family="Helvetica,sans-Serif" font-size="10.00">s</text>
</a>
</g>
</g>
<!-- Node1&#45;&gt;Node4 -->
<g id="edge3" class="edge"><title>Node1&#45;&gt;Node4</title>
<path fill="none" stroke="midnightblue" d="M63.263,-86C81.1747,-86 103.425,-86 120.029,-86"/>
<polygon fill="midnightblue" stroke="midnightblue" points="120.499,-89.5001 130.499,-86 120.499,-82.5001 120.499,-89.5001"/>
</g>
<!-- Node5 -->
<g id="node5" class="node"><title>Node5</title>
<g id="a_node5"><a xlink:href="class_morse_token.html#adbcf2bf93f283c2c69a93dd69d03c38b" target="_top" xlink:title="Convert Morse 0&#45;9 to the corresponding digit. ">
<polygon fill="white" stroke="black" points="99,-152.5 99,-171.5 191,-171.5 191,-152.5 99,-152.5"/>
<text text-anchor="middle" x="145" y="-159.5" font-family="Helvetica,sans-Serif" font-size="10.00">MorseToken::m2i</text>
</a>
</g>
</g>
<!-- Node1&#45;&gt;Node5 -->
<g id="edge5" class="edge"><title>Node1&#45;&gt;Node5</title>
<path fill="none" stroke="midnightblue" d="M41.6724,-95.5132C53.8647,-107.749 76.5002,-129.079 99,-143 101.975,-144.841 105.159,-146.581 108.409,-148.207"/>
<polygon fill="midnightblue" stroke="midnightblue" points="107.072,-151.445 117.618,-152.468 110.012,-145.092 107.072,-151.445"/>
</g>
<!-- Node36 -->
<g id="node36" class="node"><title>Node36</title>
<g id="a_node36"><a xlink:href="stack_8cpp.html#a7a8a89da82371dc2324696e7dfacad5e" target="_top" xlink:title="Pop the stack n times or until it is empty. ">
<polygon fill="white" stroke="black" points="125,-114.5 125,-133.5 165,-133.5 165,-114.5 125,-114.5"/>
<text text-anchor="middle" x="145" y="-121.5" font-family="Helvetica,sans-Serif" font-size="10.00">popN</text>
</a>
</g>
</g>
<!-- Node1&#45;&gt;Node36 -->
<g id="edge48" class="edge"><title>Node1&#45;&gt;Node36</title>
<path fill="none" stroke="midnightblue" d="M60.6362,-95.589C77.3049,-101.27 98.3797,-108.452 115.169,-114.174"/>
<polygon fill="midnightblue" stroke="midnightblue" points="114.396,-117.608 124.991,-117.522 116.654,-110.983 114.396,-117.608"/>
</g>
<!-- Node38 -->
<g id="node38" class="node"><title>Node38</title>
<g id="a_node38"><a xlink:href="teensy3__morse__bsp_8cpp.html#a619f9a6011a13d794206fe91d3ac6039" target="_top" xlink:title="setDuty">
<polygon fill="white" stroke="black" points="119.5,-0.5 119.5,-19.5 170.5,-19.5 170.5,-0.5 119.5,-0.5"/>
<text text-anchor="middle" x="145" y="-7.5" font-family="Helvetica,sans-Serif" font-size="10.00">setDuty</text>
</a>
</g>
</g>
<!-- Node1&#45;&gt;Node38 -->
<g id="edge51" class="edge"><title>Node1&#45;&gt;Node38</title>
<path fill="none" stroke="midnightblue" d="M43.817,-76.1574C56.7002,-65.1932 78.6075,-47.2674 99,-34 104.135,-30.6592 109.781,-27.3712 115.287,-24.3515"/>
<polygon fill="midnightblue" stroke="midnightblue" points="117.117,-27.3428 124.306,-19.5608 113.833,-21.1608 117.117,-27.3428"/>
</g>
<!-- Node3 -->
<g id="node3" class="node"><title>Node3</title>
<g id="a_node3"><a xlink:href="class_stack.html#afc30a7ee287e14f08802c2d43613f2b4" target="_top" xlink:title="Return the number of elements currently in the stack. ">
<polygon fill="white" stroke="black" points="376,-47.5 376,-66.5 442,-66.5 442,-47.5 376,-47.5"/>
<text text-anchor="middle" x="409" y="-54.5" font-family="Helvetica,sans-Serif" font-size="10.00">Stack::size</text>
</a>
</g>
</g>
<!-- Node2&#45;&gt;Node3 -->
<g id="edge2" class="edge"><title>Node2&#45;&gt;Node3</title>
<path fill="none" stroke="midnightblue" d="M320.07,-51.0721C334.779,-52.0638 351.019,-53.1586 365.498,-54.1347"/>
<polygon fill="midnightblue" stroke="midnightblue" points="365.469,-57.6406 375.682,-54.8213 365.94,-50.6565 365.469,-57.6406"/>
</g>
<!-- Node4&#45;&gt;Node2 -->
<g id="edge4" class="edge"><title>Node4&#45;&gt;Node2</title>
<path fill="none" stroke="midnightblue" d="M159.538,-81.9333C176.456,-76.8513 206.192,-67.9187 230.909,-60.4937"/>
<polygon fill="midnightblue" stroke="midnightblue" points="232.223,-63.7537 240.793,-57.5246 230.209,-57.0496 232.223,-63.7537"/>
</g>
<!-- Node6 -->
<g id="node6" class="node"><title>Node6</title>
<g id="a_node6"><a xlink:href="morse__token_8h.html#a9ec0688da83c93d634e79b2d7ad7ad64" target="_top" xlink:title="Convert Morse 0&#45;9 to the corresponding digit. ">
<polygon fill="white" stroke="black" points="257.5,-152.5 257.5,-171.5 289.5,-171.5 289.5,-152.5 257.5,-152.5"/>
<text text-anchor="middle" x="273.5" y="-159.5" font-family="Helvetica,sans-Serif" font-size="10.00">m2i</text>
</a>
</g>
</g>
<!-- Node5&#45;&gt;Node6 -->
<g id="edge6" class="edge"><title>Node5&#45;&gt;Node6</title>
<path fill="none" stroke="midnightblue" d="M191.312,-162C210.09,-162 231.168,-162 247.14,-162"/>
<polygon fill="midnightblue" stroke="midnightblue" points="247.291,-165.5 257.291,-162 247.291,-158.5 247.291,-165.5"/>
</g>
<!-- Node7 -->
<g id="node7" class="node"><title>Node7</title>
<g id="a_node7"><a xlink:href="class_morse_token.html#a8c36a957ebc90172eae960757c72d3a4" target="_top" xlink:title="Convert to a single ASCII character. ">
<polygon fill="white" stroke="black" points="356,-104.5 356,-123.5 462,-123.5 462,-104.5 356,-104.5"/>
<text text-anchor="middle" x="409" y="-111.5" font-family="Helvetica,sans-Serif" font-size="10.00">MorseToken::toChar</text>
</a>
</g>
</g>
<!-- Node6&#45;&gt;Node7 -->
<g id="edge7" class="edge"><title>Node6&#45;&gt;Node7</title>
<path fill="none" stroke="midnightblue" d="M289.555,-156.587C309.414,-149.447 345.004,-136.65 372.003,-126.943"/>
<polygon fill="midnightblue" stroke="midnightblue" points="373.291,-130.199 381.517,-123.522 370.922,-123.612 373.291,-130.199"/>
</g>
<!-- Node11 -->
<g id="node11" class="node"><title>Node11</title>
<g id="a_node11"><a xlink:href="libmorse_8cpp.html#ab94e088615119d1faae7df22ce50aedf" target="_top" xlink:title="Transmit a Morse code prosign indicating an error. ">
<polygon fill="white" stroke="black" points="386,-166.5 386,-185.5 432,-185.5 432,-166.5 386,-166.5"/>
<text text-anchor="middle" x="409" y="-173.5" font-family="Helvetica,sans-Serif" font-size="10.00">txError</text>
</a>
</g>
</g>
<!-- Node6&#45;&gt;Node11 -->
<g id="edge11" class="edge"><title>Node6&#45;&gt;Node11</title>
<path fill="none" stroke="midnightblue" d="M289.555,-163.579C310.263,-165.75 348.077,-169.716 375.418,-172.583"/>
<polygon fill="midnightblue" stroke="midnightblue" points="375.377,-176.098 385.688,-173.66 376.108,-169.136 375.377,-176.098"/>
</g>
<!-- Node8 -->
<g id="node8" class="node"><title>Node8</title>
<g id="a_node8"><a xlink:href="morse__token_8h.html#a98f44690e97cbd7ea9445ca0a560a564" target="_top" xlink:title="Convert a Morse code into ASCII. ">
<polygon fill="white" stroke="black" points="505.5,-90.5 505.5,-109.5 540.5,-109.5 540.5,-90.5 505.5,-90.5"/>
<text text-anchor="middle" x="523" y="-97.5" font-family="Helvetica,sans-Serif" font-size="10.00">m2a</text>
</a>
</g>
</g>
<!-- Node7&#45;&gt;Node8 -->
<g id="edge8" class="edge"><title>Node7&#45;&gt;Node8</title>
<path fill="none" stroke="midnightblue" d="M462.065,-107.492C473.56,-106.055 485.277,-104.59 495.266,-103.342"/>
<polygon fill="midnightblue" stroke="midnightblue" points="495.846,-106.797 505.335,-102.083 494.978,-99.8506 495.846,-106.797"/>
</g>
<!-- Node9 -->
<g id="node9" class="node"><title>Node9</title>
<g id="a_node9"><a xlink:href="class_morse_token.html#a48cd72aeb868391449d1f51c1d0bf5cc" target="_top" xlink:title="Treat code == 0 as the error token. ">
<polygon fill="white" stroke="black" points="1159,-128.5 1159,-147.5 1256,-147.5 1256,-128.5 1159,-128.5"/>
<text text-anchor="middle" x="1207.5" y="-135.5" font-family="Helvetica,sans-Serif" font-size="10.00">MorseToken::valid</text>
</a>
</g>
</g>
<!-- Node8&#45;&gt;Node9 -->
<g id="edge9" class="edge"><title>Node8&#45;&gt;Node9</title>
<path fill="none" stroke="midnightblue" d="M540.802,-100C583.877,-100 701.771,-100 800,-100 800,-100 800,-100 959.5,-100 1029.31,-100 1108.95,-115.014 1158.48,-126.167"/>
<polygon fill="midnightblue" stroke="midnightblue" points="1157.75,-129.589 1168.28,-128.411 1159.31,-122.766 1157.75,-129.589"/>
</g>
<!-- Node10 -->
<g id="node10" class="node"><title>Node10</title>
<g id="a_node10"><a xlink:href="class_morse_token.html#adc74054417a8636c1d34d43c34628731" target="_top" xlink:title="Treat code == 1 as a space. ">
<polygon fill="white" stroke="black" points="591.5,-52.5 591.5,-71.5 694.5,-71.5 694.5,-52.5 591.5,-52.5"/>
<text text-anchor="middle" x="643" y="-59.5" font-family="Helvetica,sans-Serif" font-size="10.00">MorseToken::pause</text>
</a>
</g>
</g>
<!-- Node8&#45;&gt;Node10 -->
<g id="edge10" class="edge"><title>Node8&#45;&gt;Node10</title>
<path fill="none" stroke="midnightblue" d="M540.656,-94.6361C556.67,-89.479 581.481,-81.489 602.545,-74.7058"/>
<polygon fill="midnightblue" stroke="midnightblue" points="603.776,-77.9867 612.221,-71.5898 601.63,-71.3236 603.776,-77.9867"/>
</g>
<!-- Node12 -->
<g id="node12" class="node"><title>Node12</title>
<g id="a_node12"><a xlink:href="libmorse_8cpp.html#a0ee2308940264ea9ac8e50afc1a4d285" target="_top" xlink:title="txString">
<polygon fill="white" stroke="black" points="498,-356.5 498,-375.5 548,-375.5 548,-356.5 498,-356.5"/>
<text text-anchor="middle" x="523" y="-363.5" font-family="Helvetica,sans-Serif" font-size="10.00">txString</text>
</a>
</g>
</g>
<!-- Node11&#45;&gt;Node12 -->
<g id="edge12" class="edge"><title>Node11&#45;&gt;Node12</title>
<path fill="none" stroke="midnightblue" d="M415.708,-185.683C433.379,-215.66 487.402,-307.307 510.895,-347.161"/>
<polygon fill="midnightblue" stroke="midnightblue" points="508.076,-349.271 516.169,-356.108 514.106,-345.716 508.076,-349.271"/>
</g>
<!-- Node13 -->
<g id="node13" class="node"><title>Node13</title>
<g id="a_node13"><a xlink:href="teensy3__morse__bsp_8cpp.html#ab306f692c5c9455a0c82782a67ff0147" target="_top" xlink:title="touchPoll">
<polygon fill="white" stroke="black" points="930,-508.5 930,-527.5 987,-527.5 987,-508.5 930,-508.5"/>
<text text-anchor="middle" x="958.5" y="-515.5" font-family="Helvetica,sans-Serif" font-size="10.00">touchPoll</text>
</a>
</g>
</g>
<!-- Node12&#45;&gt;Node13 -->
<g id="edge13" class="edge"><title>Node12&#45;&gt;Node13</title>
<path fill="none" stroke="midnightblue" d="M525.245,-375.842C528.961,-400.629 542.428,-465.662 584,-494 637.74,-530.633 835.828,-524.649 919.645,-520.299"/>
<polygon fill="midnightblue" stroke="midnightblue" points="919.956,-523.787 929.753,-519.753 919.579,-516.797 919.956,-523.787"/>
</g>
<!-- Node15 -->
<g id="node15" class="node"><title>Node15</title>
<g id="a_node15"><a xlink:href="settings_8cpp.html#a960551e90dfdad18f3c9b1338ccba7db" target="_top" xlink:title="Get the dit duration in microseconds. ">
<polygon fill="white" stroke="black" points="1171.5,-375.5 1171.5,-394.5 1243.5,-394.5 1243.5,-375.5 1171.5,-375.5"/>
<text text-anchor="middle" x="1207.5" y="-382.5" font-family="Helvetica,sans-Serif" font-size="10.00">getDitMicros</text>
</a>
</g>
</g>
<!-- Node12&#45;&gt;Node15 -->
<g id="edge15" class="edge"><title>Node12&#45;&gt;Node15</title>
<path fill="none" stroke="midnightblue" d="M526.864,-375.624C533.346,-395.521 551.19,-440.992 584,-461 666.279,-511.175 703.629,-480 800,-480 800,-480 800,-480 959.5,-480 1047.46,-480 1142,-426.867 1184.09,-400.073"/>
<polygon fill="midnightblue" stroke="midnightblue" points="1185.99,-403.009 1192.48,-394.632 1182.18,-397.135 1185.99,-403.009"/>
</g>
<!-- Node16 -->
<g id="node16" class="node"><title>Node16</title>
<g id="a_node16"><a xlink:href="libmorse_8cpp.html#a9fdfce728595d72b78dc7c834ab99a40" target="_top" xlink:title="Transmit a literal Morse code value. ">
<polygon fill="white" stroke="black" points="1062.5,-204.5 1062.5,-223.5 1113.5,-223.5 1113.5,-204.5 1062.5,-204.5"/>
<text text-anchor="middle" x="1088" y="-211.5" font-family="Helvetica,sans-Serif" font-size="10.00">txLiteral</text>
</a>
</g>
</g>
<!-- Node12&#45;&gt;Node16 -->
<g id="edge16" class="edge"><title>Node12&#45;&gt;Node16</title>
<path fill="none" stroke="midnightblue" d="M524.972,-356.465C528.118,-331.166 540.499,-262.277 584,-233 732.39,-133.132 965.038,-180.813 1052.35,-203.944"/>
<polygon fill="midnightblue" stroke="midnightblue" points="1051.7,-207.393 1062.26,-206.632 1053.53,-200.637 1051.7,-207.393"/>
</g>
<!-- Node24 -->
<g id="node24" class="node"><title>Node24</title>
<g id="a_node24"><a xlink:href="libmorse_8cpp.html#acd4b292f5e412ee4f05aed9dafbc072d" target="_top" xlink:title="Convert an ASCII character into Morse code and transmit it. ">
<polygon fill="white" stroke="black" points="933.5,-261.5 933.5,-280.5 983.5,-280.5 983.5,-261.5 933.5,-261.5"/>
<text text-anchor="middle" x="958.5" y="-268.5" font-family="Helvetica,sans-Serif" font-size="10.00">txLetter</text>
</a>
</g>
</g>
<!-- Node12&#45;&gt;Node24 -->
<g id="edge27" class="edge"><title>Node12&#45;&gt;Node24</title>
<path fill="none" stroke="midnightblue" d="M540.003,-356.385C551.785,-349.713 568.402,-341.134 584,-336 704.813,-296.235 856.055,-279.466 922.948,-273.634"/>
<polygon fill="midnightblue" stroke="midnightblue" points="923.645,-277.088 933.316,-272.76 923.057,-270.113 923.645,-277.088"/>
</g>
<!-- Node25 -->
<g id="node25" class="node"><title>Node25</title>
<g id="a_node25"><a xlink:href="teensy3__morse__bsp_8cpp.html#a8761e874366e227690fba2964e1bc445" target="_top" xlink:title="getInternalTemperatureC">
<polygon fill="white" stroke="black" points="738.5,-337.5 738.5,-356.5 863.5,-356.5 863.5,-337.5 738.5,-337.5"/>
<text text-anchor="middle" x="801" y="-344.5" font-family="Helvetica,sans-Serif" font-size="10.00">getInternalTemperatureC</text>
</a>
</g>
</g>
<!-- Node12&#45;&gt;Node25 -->
<g id="edge30" class="edge"><title>Node12&#45;&gt;Node25</title>
<path fill="none" stroke="midnightblue" d="M548.116,-356.502C558.91,-352.74 571.906,-348.869 584,-347 631.59,-339.645 685.785,-339.669 727.984,-341.519"/>
<polygon fill="midnightblue" stroke="midnightblue" points="728.01,-345.024 738.168,-342.011 728.348,-338.033 728.01,-345.024"/>
</g>
<!-- Node26 -->
<g id="node26" class="node"><title>Node26</title>
<g id="a_node26"><a xlink:href="libmorse_8cpp.html#a47abdd74b66d7180c47d192bab8bdccb" target="_top" xlink:title="Transmit an unsigned integer in Morse code. ">
<polygon fill="white" stroke="black" points="768,-394.5 768,-413.5 834,-413.5 834,-394.5 768,-394.5"/>
<text text-anchor="middle" x="801" y="-401.5" font-family="Helvetica,sans-Serif" font-size="10.00">txUnsigned</text>
</a>
</g>
</g>
<!-- Node12&#45;&gt;Node26 -->
<g id="edge31" class="edge"><title>Node12&#45;&gt;Node26</title>
<path fill="none" stroke="midnightblue" d="M548.205,-374.996C559.015,-378.666 572,-382.602 584,-385 643.636,-396.915 714.022,-401.359 757.842,-403.015"/>
<polygon fill="midnightblue" stroke="midnightblue" points="757.734,-406.514 767.849,-403.362 757.976,-399.518 757.734,-406.514"/>
</g>
<!-- Node27 -->
<g id="node27" class="node"><title>Node27</title>
<g id="a_node27"><a xlink:href="actions_8cpp.html#aed718ec1bd4cc7adb2f65d40a6784496" target="_top" xlink:title="Transmit the internal temperature in integer in Fahrenheit. ">
<polygon fill="white" stroke="black" points="584,-356.5 584,-375.5 702,-375.5 702,-356.5 584,-356.5"/>
<text text-anchor="middle" x="643" y="-363.5" font-family="Helvetica,sans-Serif" font-size="10.00">txInternalTemperatureF</text>
</a>
</g>
</g>
<!-- Node12&#45;&gt;Node27 -->
<g id="edge34" class="edge"><title>Node12&#45;&gt;Node27</title>
<path fill="none" stroke="midnightblue" d="M548.164,-366C555.708,-366 564.437,-366 573.471,-366"/>
<polygon fill="midnightblue" stroke="midnightblue" points="573.755,-369.5 583.755,-366 573.755,-362.5 573.755,-369.5"/>
</g>
<!-- Node28 -->
<g id="node28" class="node"><title>Node28</title>
<g id="a_node28"><a xlink:href="actions_8cpp.html#aaabb3ac0c23f35a499bc17efe829f326" target="_top" xlink:title="Transmit the 24&#45;hr time. ">
<polygon fill="white" stroke="black" points="604,-242.5 604,-261.5 682,-261.5 682,-242.5 604,-242.5"/>
<text text-anchor="middle" x="643" y="-249.5" font-family="Helvetica,sans-Serif" font-size="10.00">txTimeHHMM</text>
</a>
</g>
</g>
<!-- Node12&#45;&gt;Node28 -->
<g id="edge37" class="edge"><title>Node12&#45;&gt;Node28</title>
<path fill="none" stroke="midnightblue" d="M526.258,-356.429C532.872,-336.133 553.669,-291.909 584,-267 587.316,-264.277 590.984,-261.823 594.817,-259.654"/>
<polygon fill="midnightblue" stroke="midnightblue" points="596.569,-262.692 603.974,-255.115 593.46,-256.421 596.569,-262.692"/>
</g>
<!-- Node29 -->
<g id="node29" class="node"><title>Node29</title>
<g id="a_node29"><a xlink:href="actions_8cpp.html#ad02149679fa3cc6a4957d1a318408ffd" target="_top" xlink:title="Transmit the uptime. ">
<polygon fill="white" stroke="black" points="615,-432.5 615,-451.5 671,-451.5 671,-432.5 615,-432.5"/>
<text text-anchor="middle" x="643" y="-439.5" font-family="Helvetica,sans-Serif" font-size="10.00">txUptime</text>
</a>
</g>
</g>
<!-- Node12&#45;&gt;Node29 -->
<g id="edge39" class="edge"><title>Node12&#45;&gt;Node29</title>
<path fill="none" stroke="midnightblue" d="M533.411,-375.896C544.614,-387.24 564.297,-405.832 584,-418 590.566,-422.055 597.937,-425.702 605.166,-428.858"/>
<polygon fill="midnightblue" stroke="midnightblue" points="604.266,-432.273 614.846,-432.849 606.934,-425.802 604.266,-432.273"/>
</g>
<!-- Node31 -->
<g id="node31" class="node"><title>Node31</title>
<g id="a_node31"><a xlink:href="teensy3__morse__bsp_8cpp.html#ae8dd28759e56dbd2ee9bc9ae96d1783c" target="_top" xlink:title="Return the most recent ADC measurement of the input voltage. Perform analog to digital conversion on ...">
<polygon fill="white" stroke="black" points="606,-584.5 606,-603.5 680,-603.5 680,-584.5 606,-584.5"/>
<text text-anchor="middle" x="643" y="-591.5" font-family="Helvetica,sans-Serif" font-size="10.00">readMillivolts</text>
</a>
</g>
</g>
<!-- Node12&#45;&gt;Node31 -->
<g id="edge42" class="edge"><title>Node12&#45;&gt;Node31</title>
<path fill="none" stroke="midnightblue" d="M524.05,-375.927C524.742,-408.169 531.184,-511.249 584,-570 587.552,-573.951 591.854,-577.267 596.492,-580.048"/>
<polygon fill="midnightblue" stroke="midnightblue" points="595.219,-583.327 605.717,-584.76 598.403,-577.094 595.219,-583.327"/>
</g>
<!-- Node35 -->
<g id="node35" class="node"><title>Node35</title>
<g id="a_node35"><a xlink:href="libmorse_8cpp.html#ac3f000c98271c6d0a7710135e18189bc" target="_top" xlink:title="On my hardware there is cross&#45;coupling between the serial port and the touch sensors. Without the code below, long messages to the serial port trigger a touch input. ">
<polygon fill="white" stroke="black" points="768.5,-546.5 768.5,-565.5 833.5,-565.5 833.5,-546.5 768.5,-546.5"/>
<text text-anchor="middle" x="801" y="-553.5" font-family="Helvetica,sans-Serif" font-size="10.00">flushTouch</text>
</a>
</g>
</g>
<!-- Node12&#45;&gt;Node35 -->
<g id="edge46" class="edge"><title>Node12&#45;&gt;Node35</title>
<path fill="none" stroke="midnightblue" d="M524.202,-375.875C525.384,-405.162 533.211,-491.984 584,-532 633.7,-571.158 710.973,-569.313 758.369,-563.381"/>
<polygon fill="midnightblue" stroke="midnightblue" points="758.863,-566.846 768.297,-562.023 757.915,-559.91 758.863,-566.846"/>
</g>
<!-- Node14 -->
<g id="node14" class="node"><title>Node14</title>
<g id="a_node14"><a xlink:href="teensy3__morse__bsp_8cpp.html#af6899cd9b83df54106b259ab81ea5cb2" target="_top" xlink:title="touchMargin">
<polygon fill="white" stroke="black" points="1053,-508.5 1053,-527.5 1123,-527.5 1123,-508.5 1053,-508.5"/>
<text text-anchor="middle" x="1088" y="-515.5" font-family="Helvetica,sans-Serif" font-size="10.00">touchMargin</text>
</a>
</g>
</g>
<!-- Node13&#45;&gt;Node14 -->
<g id="edge14" class="edge"><title>Node13&#45;&gt;Node14</title>
<path fill="none" stroke="midnightblue" d="M987.166,-518C1003.28,-518 1023.98,-518 1042.35,-518"/>
<polygon fill="midnightblue" stroke="midnightblue" points="1042.56,-521.5 1052.56,-518 1042.56,-514.5 1042.56,-521.5"/>
</g>
<!-- Node16&#45;&gt;Node9 -->
<g id="edge17" class="edge"><title>Node16&#45;&gt;Node9</title>
<path fill="none" stroke="midnightblue" d="M1103.88,-204.375C1123.83,-191.469 1159.47,-168.418 1183.05,-153.167"/>
<polygon fill="midnightblue" stroke="midnightblue" points="1185.24,-155.917 1191.74,-147.547 1181.44,-150.04 1185.24,-155.917"/>
</g>
<!-- Node16&#45;&gt;Node11 -->
<g id="edge26" class="edge"><title>Node16&#45;&gt;Node11</title>
<path fill="none" stroke="midnightblue" d="M1074.35,-204.343C1060.88,-194.579 1038.58,-179.843 1017,-172 926.077,-138.952 898.743,-138 802,-138 642,-138 642,-138 642,-138 569.83,-138 486.673,-156.13 442.138,-167.344"/>
<polygon fill="midnightblue" stroke="midnightblue" points="441.014,-164.019 432.198,-169.895 442.754,-170.799 441.014,-164.019"/>
</g>
<!-- Node16&#45;&gt;Node15 -->
<g id="edge25" class="edge"><title>Node16&#45;&gt;Node15</title>
<path fill="none" stroke="midnightblue" d="M1095.65,-223.684C1114.64,-251.313 1169.29,-330.842 1194.04,-366.873"/>
<polygon fill="midnightblue" stroke="midnightblue" points="1191.37,-369.163 1199.92,-375.423 1197.14,-365.199 1191.37,-369.163"/>
</g>
<!-- Node17 -->
<g id="node17" class="node"><title>Node17</title>
<g id="a_node17"><a xlink:href="teensy3__morse__bsp_8cpp.html#af66e71e3fac9b6a2c6532bc8a513bfde" target="_top" xlink:title="Output a square wave on pin 10 at the given frequency for the given duration. ">
<polygon fill="white" stroke="black" points="1188.5,-223.5 1188.5,-242.5 1226.5,-242.5 1226.5,-223.5 1188.5,-223.5"/>
<text text-anchor="middle" x="1207.5" y="-230.5" font-family="Helvetica,sans-Serif" font-size="10.00">beep</text>
</a>
</g>
</g>
<!-- Node16&#45;&gt;Node17 -->
<g id="edge18" class="edge"><title>Node16&#45;&gt;Node17</title>
<path fill="none" stroke="midnightblue" d="M1113.63,-217.983C1132.57,-221.045 1158.75,-225.278 1178.48,-228.47"/>
<polygon fill="midnightblue" stroke="midnightblue" points="1177.99,-231.935 1188.42,-230.076 1179.11,-225.025 1177.99,-231.935"/>
</g>
<!-- Node23 -->
<g id="node23" class="node"><title>Node23</title>
<g id="a_node23"><a xlink:href="settings_8cpp.html#a8575b9b52638114a4f32d1462cf9b7c1" target="_top" xlink:title="Get the transmission frequency (side tone). ">
<polygon fill="white" stroke="black" points="1180.5,-185.5 1180.5,-204.5 1234.5,-204.5 1234.5,-185.5 1180.5,-185.5"/>
<text text-anchor="middle" x="1207.5" y="-192.5" font-family="Helvetica,sans-Serif" font-size="10.00">getTxHz</text>
</a>
</g>
</g>
<!-- Node16&#45;&gt;Node23 -->
<g id="edge24" class="edge"><title>Node16&#45;&gt;Node23</title>
<path fill="none" stroke="midnightblue" d="M1113.63,-210.017C1130.02,-207.367 1151.83,-203.84 1170.2,-200.87"/>
<polygon fill="midnightblue" stroke="midnightblue" points="1170.96,-204.293 1180.27,-199.242 1169.84,-197.383 1170.96,-204.293"/>
</g>
<!-- Node18 -->
<g id="node18" class="node"><title>Node18</title>
<g id="a_node18"><a xlink:href="teensy3__morse__bsp_8cpp.html#a6f674d5b9985ea3a7eeb0df299c2e405" target="_top" xlink:title="pollEarphonePresent">
<polygon fill="white" stroke="black" points="1292,-280.5 1292,-299.5 1399,-299.5 1399,-280.5 1292,-280.5"/>
<text text-anchor="middle" x="1345.5" y="-287.5" font-family="Helvetica,sans-Serif" font-size="10.00">pollEarphonePresent</text>
</a>
</g>
</g>
<!-- Node17&#45;&gt;Node18 -->
<g id="edge19" class="edge"><title>Node17&#45;&gt;Node18</title>
<path fill="none" stroke="midnightblue" d="M1226.56,-241.725C1243.35,-249.715 1269.14,-261.679 1292,-271 1296.87,-272.985 1302.03,-274.981 1307.14,-276.896"/>
<polygon fill="midnightblue" stroke="midnightblue" points="1306.23,-280.289 1316.82,-280.451 1308.64,-273.718 1306.23,-280.289"/>
</g>
<!-- Node19 -->
<g id="node19" class="node"><title>Node19</title>
<g id="a_node19"><a xlink:href="teensy3__morse__bsp_8cpp.html#a2d6b4ace33ed5e497dedd03217540c63" target="_top" xlink:title="Set the PWM frequency for the audio output pins. ">
<polygon fill="white" stroke="black" points="1304,-242.5 1304,-261.5 1387,-261.5 1387,-242.5 1304,-242.5"/>
<text text-anchor="middle" x="1345.5" y="-249.5" font-family="Helvetica,sans-Serif" font-size="10.00">pwmFrequency</text>
</a>
</g>
</g>
<!-- Node17&#45;&gt;Node19 -->
<g id="edge20" class="edge"><title>Node17&#45;&gt;Node19</title>
<path fill="none" stroke="midnightblue" d="M1226.56,-235.523C1243.62,-237.906 1270.02,-241.594 1293.52,-244.878"/>
<polygon fill="midnightblue" stroke="midnightblue" points="1293.33,-248.386 1303.72,-246.303 1294.3,-241.453 1293.33,-248.386"/>
</g>
<!-- Node20 -->
<g id="node20" class="node"><title>Node20</title>
<g id="a_node20"><a xlink:href="teensy3__morse__bsp_8cpp.html#a82911eac3bf13d6f36d10102a4c4d3c4" target="_top" xlink:title="Generate a tone on the audio output pins. ">
<polygon fill="white" stroke="black" points="1315,-204.5 1315,-223.5 1376,-223.5 1376,-204.5 1315,-204.5"/>
<text text-anchor="middle" x="1345.5" y="-211.5" font-family="Helvetica,sans-Serif" font-size="10.00">pwmWrite</text>
</a>
</g>
</g>
<!-- Node17&#45;&gt;Node20 -->
<g id="edge21" class="edge"><title>Node17&#45;&gt;Node20</title>
<path fill="none" stroke="midnightblue" d="M1226.56,-230.477C1246.46,-227.697 1279.08,-223.139 1304.98,-219.521"/>
<polygon fill="midnightblue" stroke="midnightblue" points="1305.47,-222.987 1314.89,-218.137 1304.5,-216.054 1305.47,-222.987"/>
</g>
<!-- Node22 -->
<g id="node22" class="node"><title>Node22</title>
<g id="a_node22"><a xlink:href="teensy3__morse__bsp_8cpp.html#a6c982a7d7805f1dd5426eb98c915cfdd" target="_top" xlink:title="Turn the red LED on (1) or off (0). ">
<polygon fill="white" stroke="black" points="1320.5,-166.5 1320.5,-185.5 1370.5,-185.5 1370.5,-166.5 1320.5,-166.5"/>
<text text-anchor="middle" x="1345.5" y="-173.5" font-family="Helvetica,sans-Serif" font-size="10.00">redLED</text>
</a>
</g>
</g>
<!-- Node17&#45;&gt;Node22 -->
<g id="edge23" class="edge"><title>Node17&#45;&gt;Node22</title>
<path fill="none" stroke="midnightblue" d="M1226.73,-226.223C1235.65,-222.779 1246.49,-218.398 1256,-214 1272.42,-206.408 1275.45,-202.318 1292,-195 1297.99,-192.35 1304.48,-189.774 1310.78,-187.419"/>
<polygon fill="midnightblue" stroke="midnightblue" points="1312.23,-190.617 1320.44,-183.92 1309.85,-184.036 1312.23,-190.617"/>
</g>
<!-- Node21 -->
<g id="node21" class="node"><title>Node21</title>
<g id="a_node21"><a xlink:href="teensy3__morse__bsp_8cpp.html#ac70998cee1bf97f00aec4a1b4e5a4f60" target="_top" xlink:title="isEarphonePresent">
<polygon fill="white" stroke="black" points="1435,-204.5 1435,-223.5 1534,-223.5 1534,-204.5 1435,-204.5"/>
<text text-anchor="middle" x="1484.5" y="-211.5" font-family="Helvetica,sans-Serif" font-size="10.00">isEarphonePresent</text>
</a>
</g>
</g>
<!-- Node20&#45;&gt;Node21 -->
<g id="edge22" class="edge"><title>Node20&#45;&gt;Node21</title>
<path fill="none" stroke="midnightblue" d="M1376.23,-214C1390.43,-214 1407.96,-214 1424.7,-214"/>
<polygon fill="midnightblue" stroke="midnightblue" points="1424.98,-217.5 1434.98,-214 1424.98,-210.5 1424.98,-217.5"/>
</g>
<!-- Node24&#45;&gt;Node11 -->
<g id="edge29" class="edge"><title>Node24&#45;&gt;Node11</title>
<path fill="none" stroke="midnightblue" d="M933.24,-266.791C845.151,-251.506 542.133,-198.927 442.232,-181.593"/>
<polygon fill="midnightblue" stroke="midnightblue" points="442.592,-178.103 432.141,-179.842 441.395,-185 442.592,-178.103"/>
</g>
<!-- Node24&#45;&gt;Node16 -->
<g id="edge28" class="edge"><title>Node24&#45;&gt;Node16</title>
<path fill="none" stroke="midnightblue" d="M980.841,-261.459C1001.53,-252.212 1033.11,-238.09 1056.46,-227.653"/>
<polygon fill="midnightblue" stroke="midnightblue" points="1057.89,-230.848 1065.59,-223.572 1055.03,-224.458 1057.89,-230.848"/>
</g>
<!-- Node26&#45;&gt;Node13 -->
<g id="edge32" class="edge"><title>Node26&#45;&gt;Node13</title>
<path fill="none" stroke="midnightblue" d="M834.192,-410.601C844.19,-413.491 854.953,-417.511 864,-423 897.757,-443.482 928.051,-478.863 944.502,-500.184"/>
<polygon fill="midnightblue" stroke="midnightblue" points="941.862,-502.496 950.675,-508.376 947.453,-498.283 941.862,-502.496"/>
</g>
<!-- Node26&#45;&gt;Node24 -->
<g id="edge33" class="edge"><title>Node26&#45;&gt;Node24</title>
<path fill="none" stroke="midnightblue" d="M820.131,-394.438C832.918,-387.332 850.164,-376.998 864,-366 894.434,-341.809 925.191,-308.455 942.739,-288.384"/>
<polygon fill="midnightblue" stroke="midnightblue" points="945.523,-290.515 949.412,-280.66 940.226,-285.939 945.523,-290.515"/>
</g>
<!-- Node27&#45;&gt;Node25 -->
<g id="edge35" class="edge"><title>Node27&#45;&gt;Node25</title>
<path fill="none" stroke="midnightblue" d="M702.089,-358.925C710.711,-357.875 719.682,-356.782 728.54,-355.704"/>
<polygon fill="midnightblue" stroke="midnightblue" points="728.964,-359.178 738.467,-354.494 728.117,-352.229 728.964,-359.178"/>
</g>
<!-- Node27&#45;&gt;Node26 -->
<g id="edge36" class="edge"><title>Node27&#45;&gt;Node26</title>
<path fill="none" stroke="midnightblue" d="M683.365,-375.589C706.167,-381.143 734.861,-388.133 758.083,-393.789"/>
<polygon fill="midnightblue" stroke="midnightblue" points="757.451,-397.238 767.996,-396.204 759.108,-390.437 757.451,-397.238"/>
</g>
<!-- Node28&#45;&gt;Node12 -->
<g id="edge38" class="edge"><title>Node28&#45;&gt;Node12</title>
<path fill="none" stroke="midnightblue" d="M629.801,-261.519C617.245,-267.161 597.643,-273.796 584,-285 562.817,-302.397 546.283,-329.215 535.984,-347.387"/>
<polygon fill="midnightblue" stroke="midnightblue" points="532.728,-346.039 530.914,-356.477 538.842,-349.449 532.728,-346.039"/>
</g>
<!-- Node29&#45;&gt;Node26 -->
<g id="edge41" class="edge"><title>Node29&#45;&gt;Node26</title>
<path fill="none" stroke="midnightblue" d="M671.173,-435.381C695.119,-429.548 730.386,-420.957 757.968,-414.238"/>
<polygon fill="midnightblue" stroke="midnightblue" points="758.86,-417.624 767.748,-411.856 757.203,-410.823 758.86,-417.624"/>
</g>
<!-- Node30 -->
<g id="node30" class="node"><title>Node30</title>
<g id="a_node30"><a xlink:href="settings_8cpp.html#a7b4efa097b94f9a90c5bbafcdf93fe4f" target="_top" xlink:title="getUptime">
<polygon fill="white" stroke="black" points="770,-432.5 770,-451.5 832,-451.5 832,-432.5 770,-432.5"/>
<text text-anchor="middle" x="801" y="-439.5" font-family="Helvetica,sans-Serif" font-size="10.00">getUptime</text>
</a>
</g>
</g>
<!-- Node29&#45;&gt;Node30 -->
<g id="edge40" class="edge"><title>Node29&#45;&gt;Node30</title>
<path fill="none" stroke="midnightblue" d="M671.173,-442C695.633,-442 731.905,-442 759.735,-442"/>
<polygon fill="midnightblue" stroke="midnightblue" points="759.945,-445.5 769.945,-442 759.945,-438.5 759.945,-445.5"/>
</g>
<!-- Node32 -->
<g id="node32" class="node"><title>Node32</title>
<g id="a_node32"><a xlink:href="class_voltage_monitor.html#a70902b84f9864c95d5553a0644a64f4f" target="_top" xlink:title="Return the latest voltage reading. ">
<polygon fill="white" stroke="black" points="738,-584.5 738,-603.5 864,-603.5 864,-584.5 738,-584.5"/>
<text text-anchor="middle" x="801" y="-591.5" font-family="Helvetica,sans-Serif" font-size="10.00">VoltageMonitor::getValue</text>
</a>
</g>
</g>
<!-- Node31&#45;&gt;Node32 -->
<g id="edge43" class="edge"><title>Node31&#45;&gt;Node32</title>
<path fill="none" stroke="midnightblue" d="M680.182,-594C694.344,-594 711.117,-594 727.56,-594"/>
<polygon fill="midnightblue" stroke="midnightblue" points="727.728,-597.5 737.728,-594 727.728,-590.5 727.728,-597.5"/>
</g>
<!-- Node33 -->
<g id="node33" class="node"><title>Node33</title>
<g id="a_node33"><a xlink:href="actions_8cpp.html#a2b8c3769e2aa32a2da9e2f3f85ac73dd" target="_top" xlink:title="A sample ADC reading is taken each time through the main loop, and written to a ring buffer...">
<polygon fill="white" stroke="black" points="902.5,-603.5 902.5,-622.5 1014.5,-622.5 1014.5,-603.5 902.5,-603.5"/>
<text text-anchor="middle" x="958.5" y="-610.5" font-family="Helvetica,sans-Serif" font-size="10.00">getVoltagePollInterval</text>
</a>
</g>
</g>
<!-- Node32&#45;&gt;Node33 -->
<g id="edge44" class="edge"><title>Node32&#45;&gt;Node33</title>
<path fill="none" stroke="midnightblue" d="M864.352,-601.619C873.438,-602.729 882.816,-603.875 891.963,-604.992"/>
<polygon fill="midnightblue" stroke="midnightblue" points="891.813,-608.5 902.163,-606.239 892.662,-601.552 891.813,-608.5"/>
</g>
<!-- Node34 -->
<g id="node34" class="node"><title>Node34</title>
<g id="a_node34"><a xlink:href="class_voltage_monitor.html#a75871331808c34b40d04059ee2af0f27" target="_top" xlink:title="Filter and scale raw ADC values to millivolts. ">
<polygon fill="white" stroke="black" points="900,-565.5 900,-584.5 1017,-584.5 1017,-565.5 900,-565.5"/>
<text text-anchor="middle" x="958.5" y="-572.5" font-family="Helvetica,sans-Serif" font-size="10.00">VoltageMonitor::update</text>
</a>
</g>
</g>
<!-- Node32&#45;&gt;Node34 -->
<g id="edge45" class="edge"><title>Node32&#45;&gt;Node34</title>
<path fill="none" stroke="midnightblue" d="M864.352,-586.381C872.702,-585.361 881.298,-584.311 889.735,-583.28"/>
<polygon fill="midnightblue" stroke="midnightblue" points="890.419,-586.723 899.92,-582.035 889.57,-579.774 890.419,-586.723"/>
</g>
<!-- Node35&#45;&gt;Node13 -->
<g id="edge47" class="edge"><title>Node35&#45;&gt;Node13</title>
<path fill="none" stroke="midnightblue" d="M833.843,-548.218C858.788,-542.123 893.554,-533.627 919.872,-527.195"/>
<polygon fill="midnightblue" stroke="midnightblue" points="920.98,-530.528 929.864,-524.754 919.318,-523.728 920.98,-530.528"/>
</g>
<!-- Node36&#45;&gt;Node3 -->
<g id="edge49" class="edge"><title>Node36&#45;&gt;Node3</title>
<path fill="none" stroke="midnightblue" d="M165.03,-124.311C197.566,-124.321 265.636,-122.059 320,-105 343.817,-97.5266 368.571,-83.3588 385.735,-72.3447"/>
<polygon fill="midnightblue" stroke="midnightblue" points="388.011,-75.0369 394.436,-66.6127 384.16,-69.1914 388.011,-75.0369"/>
</g>
<!-- Node37 -->
<g id="node37" class="node"><title>Node37</title>
<g id="a_node37"><a xlink:href="class_stack.html#a8b4caa181ab4cc209c270338e919cf8b" target="_top" xlink:title="Discard the top element, if the stack is not empty. ">
<polygon fill="white" stroke="black" points="241.5,-76.5 241.5,-95.5 305.5,-95.5 305.5,-76.5 241.5,-76.5"/>
<text text-anchor="middle" x="273.5" y="-83.5" font-family="Helvetica,sans-Serif" font-size="10.00">Stack::pop</text>
</a>
</g>
</g>
<!-- Node36&#45;&gt;Node37 -->
<g id="edge50" class="edge"><title>Node36&#45;&gt;Node37</title>
<path fill="none" stroke="midnightblue" d="M165.213,-118.229C182.793,-112.947 209.385,-104.959 231.696,-98.2574"/>
<polygon fill="midnightblue" stroke="midnightblue" points="232.706,-101.609 241.276,-95.3795 230.692,-94.9045 232.706,-101.609"/>
</g>
</g>
</svg>
