<?xml version="1.0" encoding="UTF-8" standalone="no"?>
<!DOCTYPE svg PUBLIC "-//W3C//DTD SVG 1.1//EN"
 "http://www.w3.org/Graphics/SVG/1.1/DTD/svg11.dtd">
<!-- Generated by graphviz version 2.38.0 (20140413.2041)
 -->
<!-- Title: txMenu Pages: 1 -->
<!--zoomable 469 -->
<svg id="main" version="1.1" xmlns="http://www.w3.org/2000/svg" xmlns:xlink="http://www.w3.org/1999/xlink" xml:space="preserve" onload="init(evt)">
<style type="text/css"><![CDATA[
.edge:hover path { stroke: red; }
.edge:hover polygon { stroke: red; fill: red; }
]]></style>
<script type="text/javascript"><![CDATA[
var edges = document.getElementsByTagName('g');
if (edges && edges.length) {
  for (var i=0;i<edges.length;i++) {
    if (edges[i].id.substr(0,4)=='edge') {
      edges[i].setAttribute('class','edge');
    }
  }
}
]]></script>
        <defs>
                <circle id="rim" cx="0" cy="0" r="7"/>
                <circle id="rim2" cx="0" cy="0" r="3.5"/>
                <g id="zoomPlus">
                        <use xlink:href="#rim" fill="#404040">
                                <set attributeName="fill" to="#808080" begin="zoomplus.mouseover" end="zoomplus.mouseout"/>
                        </use>
                        <path d="M-4,0h8M0,-4v8" fill="none" stroke="white" stroke-width="1.5" pointer-events="none"/>
                </g>
                <g id="zoomMin">
                        <use xlink:href="#rim" fill="#404040">
                                <set attributeName="fill" to="#808080" begin="zoomminus.mouseover" end="zoomminus.mouseout"/>
                        </use>
                        <path d="M-4,0h8" fill="none" stroke="white" stroke-width="1.5" pointer-events="none"/>
                </g>
                <g id="dirArrow">
                        <path fill="none" stroke="white" stroke-width="1.5" d="M0,-3.0v7 M-2.5,-0.5L0,-3.0L2.5,-0.5"/>
                </g>
               <g id="resetDef">
                       <use xlink:href="#rim2" fill="#404040">
                               <set attributeName="fill" to="#808080" begin="reset.mouseover" end="reset.mouseout"/>
                       </use>
               </g>
        </defs>

<script type="text/javascript">
var viewWidth = 1129;
var viewHeight = 469;
var sectionId = 'dynsection-55';
</script>
<script xlink:href="svgpan.js"/>
<svg id="graph" class="graph">
<g id="viewport">
<title>txMenu</title>
<polygon fill="white" stroke="none" points="-4,4 -4,-464.808 1125,-464.808 1125,4 -4,4"/>
<!-- Node1 -->
<g id="node1" class="node"><title>Node1</title>
<polygon fill="#bfbfbf" stroke="black" points="0,-209.5 0,-228.5 49,-228.5 49,-209.5 0,-209.5"/>
<text text-anchor="middle" x="24.5" y="-216.5" font-family="Helvetica,sans-Serif" font-size="10.00">txMenu</text>
</g>
<!-- Node2 -->
<g id="node2" class="node"><title>Node2</title>
<g id="a_node2"><a xlink:href="libmorse_8cpp.html#a0ee2308940264ea9ac8e50afc1a4d285" target="_top" xlink:title="txString">
<polygon fill="white" stroke="black" points="85,-209.5 85,-228.5 135,-228.5 135,-209.5 85,-209.5"/>
<text text-anchor="middle" x="110" y="-216.5" font-family="Helvetica,sans-Serif" font-size="10.00">txString</text>
</a>
</g>
</g>
<!-- Node1&#45;&gt;Node2 -->
<g id="edge1" class="edge"><title>Node1&#45;&gt;Node2</title>
<path fill="none" stroke="midnightblue" d="M49.2044,-219C57.1569,-219 66.1911,-219 74.7848,-219"/>
<polygon fill="midnightblue" stroke="midnightblue" points="74.9464,-222.5 84.9464,-219 74.9463,-215.5 74.9464,-222.5"/>
</g>
<!-- Node3 -->
<g id="node3" class="node"><title>Node3</title>
<g id="a_node3"><a xlink:href="teensy3__morse__bsp_8cpp.html#ab306f692c5c9455a0c82782a67ff0147" target="_top" xlink:title="touchPoll">
<polygon fill="white" stroke="black" points="517,-399.5 517,-418.5 574,-418.5 574,-399.5 517,-399.5"/>
<text text-anchor="middle" x="545.5" y="-406.5" font-family="Helvetica,sans-Serif" font-size="10.00">touchPoll</text>
</a>
</g>
</g>
<!-- Node2&#45;&gt;Node3 -->
<g id="edge2" class="edge"><title>Node2&#45;&gt;Node3</title>
<path fill="none" stroke="midnightblue" d="M110.512,-228.838C109.48,-261.634 111.059,-367.878 171,-416 271.262,-496.493 440.23,-448.118 511.361,-422.197"/>
<polygon fill="midnightblue" stroke="midnightblue" points="512.981,-425.328 521.126,-418.553 510.533,-418.77 512.981,-425.328"/>
</g>
<!-- Node5 -->
<g id="node5" class="node"><title>Node5</title>
<g id="a_node5"><a xlink:href="settings_8cpp.html#a960551e90dfdad18f3c9b1338ccba7db" target="_top" xlink:title="Get the dit duration in microseconds. ">
<polygon fill="white" stroke="black" points="758.5,-323.5 758.5,-342.5 830.5,-342.5 830.5,-323.5 758.5,-323.5"/>
<text text-anchor="middle" x="794.5" y="-330.5" font-family="Helvetica,sans-Serif" font-size="10.00">getDitMicros</text>
</a>
</g>
</g>
<!-- Node2&#45;&gt;Node5 -->
<g id="edge4" class="edge"><title>Node2&#45;&gt;Node5</title>
<path fill="none" stroke="midnightblue" d="M112.103,-228.782C115.528,-254.08 128.45,-321.792 171,-352 249.581,-407.788 290.629,-371 387,-371 387,-371 387,-371 546.5,-371 617.587,-371 698.858,-355.434 748.157,-344.227"/>
<polygon fill="midnightblue" stroke="midnightblue" points="749.223,-347.573 758.177,-341.909 747.645,-340.753 749.223,-347.573"/>
</g>
<!-- Node6 -->
<g id="node6" class="node"><title>Node6</title>
<g id="a_node6"><a xlink:href="libmorse_8cpp.html#a9fdfce728595d72b78dc7c834ab99a40" target="_top" xlink:title="Transmit a literal Morse code value. ">
<polygon fill="white" stroke="black" points="649.5,-171.5 649.5,-190.5 700.5,-190.5 700.5,-171.5 649.5,-171.5"/>
<text text-anchor="middle" x="675" y="-178.5" font-family="Helvetica,sans-Serif" font-size="10.00">txLiteral</text>
</a>
</g>
</g>
<!-- Node2&#45;&gt;Node6 -->
<g id="edge5" class="edge"><title>Node2&#45;&gt;Node6</title>
<path fill="none" stroke="midnightblue" d="M135.191,-217.367C224.317,-211.352 534.582,-190.41 639.228,-183.347"/>
<polygon fill="midnightblue" stroke="midnightblue" points="639.523,-186.835 649.265,-182.67 639.052,-179.851 639.523,-186.835"/>
</g>
<!-- Node16 -->
<g id="node16" class="node"><title>Node16</title>
<g id="a_node16"><a xlink:href="libmorse_8cpp.html#acd4b292f5e412ee4f05aed9dafbc072d" target="_top" xlink:title="Convert an ASCII character into Morse code and transmit it. ">
<polygon fill="white" stroke="black" points="520.5,-133.5 520.5,-152.5 570.5,-152.5 570.5,-133.5 520.5,-133.5"/>
<text text-anchor="middle" x="545.5" y="-140.5" font-family="Helvetica,sans-Serif" font-size="10.00">txLetter</text>
</a>
</g>
</g>
<!-- Node2&#45;&gt;Node16 -->
<g id="edge17" class="edge"><title>Node2&#45;&gt;Node16</title>
<path fill="none" stroke="midnightblue" d="M118.694,-209.213C129.065,-196.852 148.808,-176.099 171,-167 287.702,-119.148 442.171,-130.066 510.033,-138.14"/>
<polygon fill="midnightblue" stroke="midnightblue" points="509.806,-141.639 520.162,-139.403 510.671,-134.693 509.806,-141.639"/>
</g>
<!-- Node17 -->
<g id="node17" class="node"><title>Node17</title>
<g id="a_node17"><a xlink:href="teensy3__morse__bsp_8cpp.html#a8761e874366e227690fba2964e1bc445" target="_top" xlink:title="getInternalTemperatureC">
<polygon fill="white" stroke="black" points="325.5,-228.5 325.5,-247.5 450.5,-247.5 450.5,-228.5 325.5,-228.5"/>
<text text-anchor="middle" x="388" y="-235.5" font-family="Helvetica,sans-Serif" font-size="10.00">getInternalTemperatureC</text>
</a>
</g>
</g>
<!-- Node2&#45;&gt;Node17 -->
<g id="edge20" class="edge"><title>Node2&#45;&gt;Node17</title>
<path fill="none" stroke="midnightblue" d="M135.01,-220.653C174.745,-223.388 255.691,-228.961 315.162,-233.055"/>
<polygon fill="midnightblue" stroke="midnightblue" points="315.039,-236.554 325.256,-233.749 315.52,-229.571 315.039,-236.554"/>
</g>
<!-- Node18 -->
<g id="node18" class="node"><title>Node18</title>
<g id="a_node18"><a xlink:href="libmorse_8cpp.html#a47abdd74b66d7180c47d192bab8bdccb" target="_top" xlink:title="Transmit an unsigned integer in Morse code. ">
<polygon fill="white" stroke="black" points="355,-285.5 355,-304.5 421,-304.5 421,-285.5 355,-285.5"/>
<text text-anchor="middle" x="388" y="-292.5" font-family="Helvetica,sans-Serif" font-size="10.00">txUnsigned</text>
</a>
</g>
</g>
<!-- Node2&#45;&gt;Node18 -->
<g id="edge21" class="edge"><title>Node2&#45;&gt;Node18</title>
<path fill="none" stroke="midnightblue" d="M117.823,-228.721C127.786,-242.035 147.687,-265.484 171,-276 227.19,-301.346 299.869,-302.041 344.955,-299.251"/>
<polygon fill="midnightblue" stroke="midnightblue" points="345.239,-302.74 354.968,-298.545 344.747,-295.757 345.239,-302.74"/>
</g>
<!-- Node19 -->
<g id="node19" class="node"><title>Node19</title>
<g id="a_node19"><a xlink:href="actions_8cpp.html#aed718ec1bd4cc7adb2f65d40a6784496" target="_top" xlink:title="Transmit the internal temperature in integer in Fahrenheit. ">
<polygon fill="white" stroke="black" points="171,-247.5 171,-266.5 289,-266.5 289,-247.5 171,-247.5"/>
<text text-anchor="middle" x="230" y="-254.5" font-family="Helvetica,sans-Serif" font-size="10.00">txInternalTemperatureF</text>
</a>
</g>
</g>
<!-- Node2&#45;&gt;Node19 -->
<g id="edge24" class="edge"><title>Node2&#45;&gt;Node19</title>
<path fill="none" stroke="midnightblue" d="M135.164,-226.782C150.866,-231.838 171.696,-238.546 189.742,-244.358"/>
<polygon fill="midnightblue" stroke="midnightblue" points="188.839,-247.744 199.431,-247.478 190.985,-241.081 188.839,-247.744"/>
</g>
<!-- Node20 -->
<g id="node20" class="node"><title>Node20</title>
<g id="a_node20"><a xlink:href="actions_8cpp.html#aaabb3ac0c23f35a499bc17efe829f326" target="_top" xlink:title="Transmit the 24&#45;hr time. ">
<polygon fill="white" stroke="black" points="191,-57.5 191,-76.5 269,-76.5 269,-57.5 191,-57.5"/>
<text text-anchor="middle" x="230" y="-64.5" font-family="Helvetica,sans-Serif" font-size="10.00">txTimeHHMM</text>
</a>
</g>
</g>
<!-- Node2&#45;&gt;Node20 -->
<g id="edge27" class="edge"><title>Node2&#45;&gt;Node20</title>
<path fill="none" stroke="midnightblue" d="M112.188,-209.338C116.457,-183.957 132.84,-118.444 171,-82 174.28,-78.8671 178.027,-76.1185 182.003,-73.7508"/>
<polygon fill="midnightblue" stroke="midnightblue" points="183.658,-76.8353 190.977,-69.1743 180.478,-70.5993 183.658,-76.8353"/>
</g>
<!-- Node21 -->
<g id="node21" class="node"><title>Node21</title>
<g id="a_node21"><a xlink:href="actions_8cpp.html#ad02149679fa3cc6a4957d1a318408ffd" target="_top" xlink:title="Transmit the uptime. ">
<polygon fill="white" stroke="black" points="202,-323.5 202,-342.5 258,-342.5 258,-323.5 202,-323.5"/>
<text text-anchor="middle" x="230" y="-330.5" font-family="Helvetica,sans-Serif" font-size="10.00">txUptime</text>
</a>
</g>
</g>
<!-- Node2&#45;&gt;Node21 -->
<g id="edge29" class="edge"><title>Node2&#45;&gt;Node21</title>
<path fill="none" stroke="midnightblue" d="M115.151,-228.772C123.318,-246.934 143.137,-286.117 171,-309 177.277,-314.155 184.815,-318.342 192.348,-321.689"/>
<polygon fill="midnightblue" stroke="midnightblue" points="191.208,-325.003 201.791,-325.488 193.82,-318.508 191.208,-325.003"/>
</g>
<!-- Node23 -->
<g id="node23" class="node"><title>Node23</title>
<g id="a_node23"><a xlink:href="teensy3__morse__bsp_8cpp.html#ae8dd28759e56dbd2ee9bc9ae96d1783c" target="_top" xlink:title="Return the most recent ADC measurement of the input voltage. Perform analog to digital conversion on ...">
<polygon fill="white" stroke="black" points="193,-19.5 193,-38.5 267,-38.5 267,-19.5 193,-19.5"/>
<text text-anchor="middle" x="230" y="-26.5" font-family="Helvetica,sans-Serif" font-size="10.00">readMillivolts</text>
</a>
</g>
</g>
<!-- Node2&#45;&gt;Node23 -->
<g id="edge32" class="edge"><title>Node2&#45;&gt;Node23</title>
<path fill="none" stroke="midnightblue" d="M111.514,-209.312C113.566,-180.496 123.571,-94.4483 171,-48 174.551,-44.5225 178.748,-41.6814 183.235,-39.3603"/>
<polygon fill="midnightblue" stroke="midnightblue" points="184.924,-42.4442 192.738,-35.289 182.168,-36.0098 184.924,-42.4442"/>
</g>
<!-- Node27 -->
<g id="node27" class="node"><title>Node27</title>
<g id="a_node27"><a xlink:href="libmorse_8cpp.html#ac3f000c98271c6d0a7710135e18189bc" target="_top" xlink:title="On my hardware there is cross&#45;coupling between the serial port and the touch sensors. Without the code below, long messages to the serial port trigger a touch input. ">
<polygon fill="white" stroke="black" points="355.5,-399.5 355.5,-418.5 420.5,-418.5 420.5,-399.5 355.5,-399.5"/>
<text text-anchor="middle" x="388" y="-406.5" font-family="Helvetica,sans-Serif" font-size="10.00">flushTouch</text>
</a>
</g>
</g>
<!-- Node2&#45;&gt;Node27 -->
<g id="edge36" class="edge"><title>Node2&#45;&gt;Node27</title>
<path fill="none" stroke="midnightblue" d="M111.202,-228.875C112.384,-258.162 120.211,-344.984 171,-385 220.7,-424.158 297.973,-422.313 345.369,-416.381"/>
<polygon fill="midnightblue" stroke="midnightblue" points="345.863,-419.846 355.297,-415.023 344.915,-412.91 345.863,-419.846"/>
</g>
<!-- Node4 -->
<g id="node4" class="node"><title>Node4</title>
<g id="a_node4"><a xlink:href="teensy3__morse__bsp_8cpp.html#af6899cd9b83df54106b259ab81ea5cb2" target="_top" xlink:title="touchMargin">
<polygon fill="white" stroke="black" points="640,-399.5 640,-418.5 710,-418.5 710,-399.5 640,-399.5"/>
<text text-anchor="middle" x="675" y="-406.5" font-family="Helvetica,sans-Serif" font-size="10.00">touchMargin</text>
</a>
</g>
</g>
<!-- Node3&#45;&gt;Node4 -->
<g id="edge3" class="edge"><title>Node3&#45;&gt;Node4</title>
<path fill="none" stroke="midnightblue" d="M574.166,-409C590.281,-409 610.984,-409 629.355,-409"/>
<polygon fill="midnightblue" stroke="midnightblue" points="629.562,-412.5 639.562,-409 629.562,-405.5 629.562,-412.5"/>
</g>
<!-- Node6&#45;&gt;Node5 -->
<g id="edge14" class="edge"><title>Node6&#45;&gt;Node5</title>
<path fill="none" stroke="midnightblue" d="M683.35,-190.508C702.638,-215.46 754.93,-283.106 779.888,-315.392"/>
<polygon fill="midnightblue" stroke="midnightblue" points="777.268,-317.724 786.153,-323.495 782.806,-313.443 777.268,-317.724"/>
</g>
<!-- Node7 -->
<g id="node7" class="node"><title>Node7</title>
<g id="a_node7"><a xlink:href="class_morse_token.html#a48cd72aeb868391449d1f51c1d0bf5cc" target="_top" xlink:title="Treat code == 0 as the error token. ">
<polygon fill="white" stroke="black" points="746,-152.5 746,-171.5 843,-171.5 843,-152.5 746,-152.5"/>
<text text-anchor="middle" x="794.5" y="-159.5" font-family="Helvetica,sans-Serif" font-size="10.00">MorseToken::valid</text>
</a>
</g>
</g>
<!-- Node6&#45;&gt;Node7 -->
<g id="edge6" class="edge"><title>Node6&#45;&gt;Node7</title>
<path fill="none" stroke="midnightblue" d="M700.632,-177.017C710.933,-175.351 723.376,-173.339 735.759,-171.337"/>
<polygon fill="midnightblue" stroke="midnightblue" points="736.322,-174.791 745.635,-169.74 735.205,-167.881 736.322,-174.791"/>
</g>
<!-- Node8 -->
<g id="node8" class="node"><title>Node8</title>
<g id="a_node8"><a xlink:href="teensy3__morse__bsp_8cpp.html#af66e71e3fac9b6a2c6532bc8a513bfde" target="_top" xlink:title="Output a square wave on pin 10 at the given frequency for the given duration. ">
<polygon fill="white" stroke="black" points="775.5,-228.5 775.5,-247.5 813.5,-247.5 813.5,-228.5 775.5,-228.5"/>
<text text-anchor="middle" x="794.5" y="-235.5" font-family="Helvetica,sans-Serif" font-size="10.00">beep</text>
</a>
</g>
</g>
<!-- Node6&#45;&gt;Node8 -->
<g id="edge7" class="edge"><title>Node6&#45;&gt;Node8</title>
<path fill="none" stroke="midnightblue" d="M692.408,-190.616C706.419,-198.654 727.224,-210.185 746,-219 752.226,-221.923 759.031,-224.816 765.496,-227.43"/>
<polygon fill="midnightblue" stroke="midnightblue" points="764.656,-230.861 775.243,-231.272 767.223,-224.348 764.656,-230.861"/>
</g>
<!-- Node14 -->
<g id="node14" class="node"><title>Node14</title>
<g id="a_node14"><a xlink:href="settings_8cpp.html#a8575b9b52638114a4f32d1462cf9b7c1" target="_top" xlink:title="Get the transmission frequency (side tone). ">
<polygon fill="white" stroke="black" points="767.5,-190.5 767.5,-209.5 821.5,-209.5 821.5,-190.5 767.5,-190.5"/>
<text text-anchor="middle" x="794.5" y="-197.5" font-family="Helvetica,sans-Serif" font-size="10.00">getTxHz</text>
</a>
</g>
</g>
<!-- Node6&#45;&gt;Node14 -->
<g id="edge13" class="edge"><title>Node6&#45;&gt;Node14</title>
<path fill="none" stroke="midnightblue" d="M700.632,-184.983C717.022,-187.633 738.833,-191.16 757.199,-194.13"/>
<polygon fill="midnightblue" stroke="midnightblue" points="756.838,-197.617 767.269,-195.758 757.956,-190.707 756.838,-197.617"/>
</g>
<!-- Node15 -->
<g id="node15" class="node"><title>Node15</title>
<g id="a_node15"><a xlink:href="libmorse_8cpp.html#ab94e088615119d1faae7df22ce50aedf" target="_top" xlink:title="Transmit a Morse code prosign indicating an error. ">
<polygon fill="white" stroke="black" points="771.5,-114.5 771.5,-133.5 817.5,-133.5 817.5,-114.5 771.5,-114.5"/>
<text text-anchor="middle" x="794.5" y="-121.5" font-family="Helvetica,sans-Serif" font-size="10.00">txError</text>
</a>
</g>
</g>
<!-- Node6&#45;&gt;Node15 -->
<g id="edge15" class="edge"><title>Node6&#45;&gt;Node15</title>
<path fill="none" stroke="midnightblue" d="M692.408,-171.384C706.419,-163.346 727.224,-151.815 746,-143 751.025,-140.641 756.427,-138.301 761.724,-136.112"/>
<polygon fill="midnightblue" stroke="midnightblue" points="763.068,-139.344 771.038,-132.363 760.454,-132.85 763.068,-139.344"/>
</g>
<!-- Node9 -->
<g id="node9" class="node"><title>Node9</title>
<g id="a_node9"><a xlink:href="teensy3__morse__bsp_8cpp.html#a6f674d5b9985ea3a7eeb0df299c2e405" target="_top" xlink:title="pollEarphonePresent">
<polygon fill="white" stroke="black" points="879,-285.5 879,-304.5 986,-304.5 986,-285.5 879,-285.5"/>
<text text-anchor="middle" x="932.5" y="-292.5" font-family="Helvetica,sans-Serif" font-size="10.00">pollEarphonePresent</text>
</a>
</g>
</g>
<!-- Node8&#45;&gt;Node9 -->
<g id="edge8" class="edge"><title>Node8&#45;&gt;Node9</title>
<path fill="none" stroke="midnightblue" d="M813.561,-246.725C830.352,-254.715 856.14,-266.679 879,-276 883.868,-277.985 889.03,-279.981 894.142,-281.896"/>
<polygon fill="midnightblue" stroke="midnightblue" points="893.229,-285.289 903.823,-285.451 895.642,-278.718 893.229,-285.289"/>
</g>
<!-- Node10 -->
<g id="node10" class="node"><title>Node10</title>
<g id="a_node10"><a xlink:href="teensy3__morse__bsp_8cpp.html#a2d6b4ace33ed5e497dedd03217540c63" target="_top" xlink:title="Set the PWM frequency for the audio output pins. ">
<polygon fill="white" stroke="black" points="891,-247.5 891,-266.5 974,-266.5 974,-247.5 891,-247.5"/>
<text text-anchor="middle" x="932.5" y="-254.5" font-family="Helvetica,sans-Serif" font-size="10.00">pwmFrequency</text>
</a>
</g>
</g>
<!-- Node8&#45;&gt;Node10 -->
<g id="edge9" class="edge"><title>Node8&#45;&gt;Node10</title>
<path fill="none" stroke="midnightblue" d="M813.56,-240.523C830.617,-242.906 857.017,-246.594 880.519,-249.878"/>
<polygon fill="midnightblue" stroke="midnightblue" points="880.334,-253.386 890.722,-251.303 881.303,-246.453 880.334,-253.386"/>
</g>
<!-- Node11 -->
<g id="node11" class="node"><title>Node11</title>
<g id="a_node11"><a xlink:href="teensy3__morse__bsp_8cpp.html#a82911eac3bf13d6f36d10102a4c4d3c4" target="_top" xlink:title="Generate a tone on the audio output pins. ">
<polygon fill="white" stroke="black" points="902,-209.5 902,-228.5 963,-228.5 963,-209.5 902,-209.5"/>
<text text-anchor="middle" x="932.5" y="-216.5" font-family="Helvetica,sans-Serif" font-size="10.00">pwmWrite</text>
</a>
</g>
</g>
<!-- Node8&#45;&gt;Node11 -->
<g id="edge10" class="edge"><title>Node8&#45;&gt;Node11</title>
<path fill="none" stroke="midnightblue" d="M813.56,-235.477C833.462,-232.697 866.083,-228.139 891.979,-224.521"/>
<polygon fill="midnightblue" stroke="midnightblue" points="892.471,-227.987 901.89,-223.137 891.502,-221.054 892.471,-227.987"/>
</g>
<!-- Node13 -->
<g id="node13" class="node"><title>Node13</title>
<g id="a_node13"><a xlink:href="teensy3__morse__bsp_8cpp.html#a6c982a7d7805f1dd5426eb98c915cfdd" target="_top" xlink:title="Turn the red LED on (1) or off (0). ">
<polygon fill="white" stroke="black" points="907.5,-171.5 907.5,-190.5 957.5,-190.5 957.5,-171.5 907.5,-171.5"/>
<text text-anchor="middle" x="932.5" y="-178.5" font-family="Helvetica,sans-Serif" font-size="10.00">redLED</text>
</a>
</g>
</g>
<!-- Node8&#45;&gt;Node13 -->
<g id="edge12" class="edge"><title>Node8&#45;&gt;Node13</title>
<path fill="none" stroke="midnightblue" d="M813.734,-231.223C822.652,-227.779 833.487,-223.398 843,-219 859.422,-211.408 862.454,-207.318 879,-200 884.992,-197.35 891.48,-194.774 897.784,-192.419"/>
<polygon fill="midnightblue" stroke="midnightblue" points="899.232,-195.617 907.442,-188.92 896.847,-189.036 899.232,-195.617"/>
</g>
<!-- Node12 -->
<g id="node12" class="node"><title>Node12</title>
<g id="a_node12"><a xlink:href="teensy3__morse__bsp_8cpp.html#ac70998cee1bf97f00aec4a1b4e5a4f60" target="_top" xlink:title="isEarphonePresent">
<polygon fill="white" stroke="black" points="1022,-209.5 1022,-228.5 1121,-228.5 1121,-209.5 1022,-209.5"/>
<text text-anchor="middle" x="1071.5" y="-216.5" font-family="Helvetica,sans-Serif" font-size="10.00">isEarphonePresent</text>
</a>
</g>
</g>
<!-- Node11&#45;&gt;Node12 -->
<g id="edge11" class="edge"><title>Node11&#45;&gt;Node12</title>
<path fill="none" stroke="midnightblue" d="M963.227,-219C977.434,-219 994.959,-219 1011.7,-219"/>
<polygon fill="midnightblue" stroke="midnightblue" points="1011.98,-222.5 1021.98,-219 1011.98,-215.5 1011.98,-222.5"/>
</g>
<!-- Node15&#45;&gt;Node2 -->
<g id="edge16" class="edge"><title>Node15&#45;&gt;Node2</title>
<path fill="none" stroke="midnightblue" d="M771.403,-121.156C728.252,-115.855 629.722,-105 546.5,-105 387,-105 387,-105 387,-105 290.139,-105 253.839,-83.8021 171,-134 145.611,-149.385 128.092,-180.05 118.802,-200.034"/>
<polygon fill="midnightblue" stroke="midnightblue" points="115.516,-198.81 114.696,-209.373 121.924,-201.627 115.516,-198.81"/>
</g>
<!-- Node16&#45;&gt;Node6 -->
<g id="edge18" class="edge"><title>Node16&#45;&gt;Node6</title>
<path fill="none" stroke="midnightblue" d="M570.782,-150.237C590.242,-156.037 617.793,-164.248 639.536,-170.728"/>
<polygon fill="midnightblue" stroke="midnightblue" points="638.791,-174.158 649.374,-173.661 640.791,-167.45 638.791,-174.158"/>
</g>
<!-- Node16&#45;&gt;Node15 -->
<g id="edge19" class="edge"><title>Node16&#45;&gt;Node15</title>
<path fill="none" stroke="midnightblue" d="M570.633,-141.144C615.398,-137.7 711.294,-130.324 761.444,-126.466"/>
<polygon fill="midnightblue" stroke="midnightblue" points="761.715,-129.955 771.417,-125.699 761.178,-122.976 761.715,-129.955"/>
</g>
<!-- Node18&#45;&gt;Node3 -->
<g id="edge22" class="edge"><title>Node18&#45;&gt;Node3</title>
<path fill="none" stroke="midnightblue" d="M421.192,-301.601C431.19,-304.491 441.953,-308.511 451,-314 484.757,-334.482 515.051,-369.863 531.502,-391.184"/>
<polygon fill="midnightblue" stroke="midnightblue" points="528.862,-393.496 537.675,-399.376 534.453,-389.283 528.862,-393.496"/>
</g>
<!-- Node18&#45;&gt;Node16 -->
<g id="edge23" class="edge"><title>Node18&#45;&gt;Node16</title>
<path fill="none" stroke="midnightblue" d="M408.284,-285.367C421.122,-278.448 437.961,-268.364 451,-257 484.73,-227.603 515.99,-185.202 532.427,-161.26"/>
<polygon fill="midnightblue" stroke="midnightblue" points="535.461,-163.021 538.16,-152.776 529.661,-159.102 535.461,-163.021"/>
</g>
<!-- Node19&#45;&gt;Node17 -->
<g id="edge25" class="edge"><title>Node19&#45;&gt;Node17</title>
<path fill="none" stroke="midnightblue" d="M289.089,-249.925C297.711,-248.875 306.682,-247.782 315.54,-246.704"/>
<polygon fill="midnightblue" stroke="midnightblue" points="315.964,-250.178 325.467,-245.494 315.117,-243.229 315.964,-250.178"/>
</g>
<!-- Node19&#45;&gt;Node18 -->
<g id="edge26" class="edge"><title>Node19&#45;&gt;Node18</title>
<path fill="none" stroke="midnightblue" d="M270.365,-266.589C293.167,-272.143 321.861,-279.133 345.083,-284.789"/>
<polygon fill="midnightblue" stroke="midnightblue" points="344.451,-288.238 354.996,-287.204 346.108,-281.437 344.451,-288.238"/>
</g>
<!-- Node20&#45;&gt;Node2 -->
<g id="edge28" class="edge"><title>Node20&#45;&gt;Node2</title>
<path fill="none" stroke="midnightblue" d="M215.483,-76.5146C202.627,-81.7533 183.452,-88.1082 171,-100 141.648,-128.032 125.18,-173.263 117.199,-199.347"/>
<polygon fill="midnightblue" stroke="midnightblue" points="113.751,-198.667 114.285,-209.248 120.466,-200.643 113.751,-198.667"/>
</g>
<!-- Node21&#45;&gt;Node18 -->
<g id="edge31" class="edge"><title>Node21&#45;&gt;Node18</title>
<path fill="none" stroke="midnightblue" d="M258.173,-326.381C282.119,-320.548 317.386,-311.957 344.968,-305.238"/>
<polygon fill="midnightblue" stroke="midnightblue" points="345.86,-308.624 354.748,-302.856 344.203,-301.823 345.86,-308.624"/>
</g>
<!-- Node22 -->
<g id="node22" class="node"><title>Node22</title>
<g id="a_node22"><a xlink:href="settings_8cpp.html#a7b4efa097b94f9a90c5bbafcdf93fe4f" target="_top" xlink:title="getUptime">
<polygon fill="white" stroke="black" points="357,-323.5 357,-342.5 419,-342.5 419,-323.5 357,-323.5"/>
<text text-anchor="middle" x="388" y="-330.5" font-family="Helvetica,sans-Serif" font-size="10.00">getUptime</text>
</a>
</g>
</g>
<!-- Node21&#45;&gt;Node22 -->
<g id="edge30" class="edge"><title>Node21&#45;&gt;Node22</title>
<path fill="none" stroke="midnightblue" d="M258.173,-333C282.633,-333 318.905,-333 346.735,-333"/>
<polygon fill="midnightblue" stroke="midnightblue" points="346.945,-336.5 356.945,-333 346.945,-329.5 346.945,-336.5"/>
</g>
<!-- Node24 -->
<g id="node24" class="node"><title>Node24</title>
<g id="a_node24"><a xlink:href="class_voltage_monitor.html#a70902b84f9864c95d5553a0644a64f4f" target="_top" xlink:title="Return the latest voltage reading. ">
<polygon fill="white" stroke="black" points="325,-19.5 325,-38.5 451,-38.5 451,-19.5 325,-19.5"/>
<text text-anchor="middle" x="388" y="-26.5" font-family="Helvetica,sans-Serif" font-size="10.00">VoltageMonitor::getValue</text>
</a>
</g>
</g>
<!-- Node23&#45;&gt;Node24 -->
<g id="edge33" class="edge"><title>Node23&#45;&gt;Node24</title>
<path fill="none" stroke="midnightblue" d="M267.182,-29C281.344,-29 298.117,-29 314.56,-29"/>
<polygon fill="midnightblue" stroke="midnightblue" points="314.728,-32.5001 324.728,-29 314.728,-25.5001 314.728,-32.5001"/>
</g>
<!-- Node25 -->
<g id="node25" class="node"><title>Node25</title>
<g id="a_node25"><a xlink:href="actions_8cpp.html#a2b8c3769e2aa32a2da9e2f3f85ac73dd" target="_top" xlink:title="A sample ADC reading is taken each time through the main loop, and written to a ring buffer...">
<polygon fill="white" stroke="black" points="489.5,-38.5 489.5,-57.5 601.5,-57.5 601.5,-38.5 489.5,-38.5"/>
<text text-anchor="middle" x="545.5" y="-45.5" font-family="Helvetica,sans-Serif" font-size="10.00">getVoltagePollInterval</text>
</a>
</g>
</g>
<!-- Node24&#45;&gt;Node25 -->
<g id="edge34" class="edge"><title>Node24&#45;&gt;Node25</title>
<path fill="none" stroke="midnightblue" d="M451.352,-36.6185C460.438,-37.7287 469.816,-38.8746 478.963,-39.9922"/>
<polygon fill="midnightblue" stroke="midnightblue" points="478.813,-43.4998 489.163,-41.2386 479.662,-36.5515 478.813,-43.4998"/>
</g>
<!-- Node26 -->
<g id="node26" class="node"><title>Node26</title>
<g id="a_node26"><a xlink:href="class_voltage_monitor.html#a75871331808c34b40d04059ee2af0f27" target="_top" xlink:title="Filter and scale raw ADC values to millivolts. ">
<polygon fill="white" stroke="black" points="487,-0.5 487,-19.5 604,-19.5 604,-0.5 487,-0.5"/>
<text text-anchor="middle" x="545.5" y="-7.5" font-family="Helvetica,sans-Serif" font-size="10.00">VoltageMonitor::update</text>
</a>
</g>
</g>
<!-- Node24&#45;&gt;Node26 -->
<g id="edge35" class="edge"><title>Node24&#45;&gt;Node26</title>
<path fill="none" stroke="midnightblue" d="M451.352,-21.3815C459.702,-20.3612 468.298,-19.3108 476.735,-18.2799"/>
<polygon fill="midnightblue" stroke="midnightblue" points="477.419,-21.7226 486.92,-17.0355 476.57,-14.7742 477.419,-21.7226"/>
</g>
<!-- Node27&#45;&gt;Node3 -->
<g id="edge37" class="edge"><title>Node27&#45;&gt;Node3</title>
<path fill="none" stroke="midnightblue" d="M420.843,-409C445.677,-409 480.247,-409 506.522,-409"/>
<polygon fill="midnightblue" stroke="midnightblue" points="506.864,-412.5 516.864,-409 506.863,-405.5 506.864,-412.5"/>
</g>
</g>
</svg>
        <g id="navigator" transform="translate(0 0)" fill="#404254">
                <rect fill="#f2f5e9" fill-opacity="0.5" stroke="#606060" stroke-width=".5" x="0" y="0" width="60" height="60"/>
                <use id="zoomplus" xlink:href="#zoomPlus" x="17" y="9" onmousedown="handleZoom(evt,'in')"/>
                <use id="zoomminus" xlink:href="#zoomMin" x="42" y="9" onmousedown="handleZoom(evt,'out')"/>
                <use id="reset" xlink:href="#resetDef" x="30" y="36" onmousedown="handleReset()"/>
                <g id="arrowUp" xlink:href="#dirArrow" transform="translate(30 24)" onmousedown="handlePan(0,-1)">
                  <use xlink:href="#rim" fill="#404040">
                        <set attributeName="fill" to="#808080" begin="arrowUp.mouseover" end="arrowUp.mouseout"/>
                  </use>
                  <path fill="none" stroke="white" stroke-width="1.5" d="M0,-3.0v7 M-2.5,-0.5L0,-3.0L2.5,-0.5"/>
                </g>
                <g id="arrowRight" xlink:href="#dirArrow" transform="rotate(90) translate(36 -43)" onmousedown="handlePan(1,0)">
                  <use xlink:href="#rim" fill="#404040">
                        <set attributeName="fill" to="#808080" begin="arrowRight.mouseover" end="arrowRight.mouseout"/>
                  </use>
                  <path fill="none" stroke="white" stroke-width="1.5" d="M0,-3.0v7 M-2.5,-0.5L0,-3.0L2.5,-0.5"/>
                </g>
                <g id="arrowDown" xlink:href="#dirArrow" transform="rotate(180) translate(-30 -48)" onmousedown="handlePan(0,1)">
                  <use xlink:href="#rim" fill="#404040">
                        <set attributeName="fill" to="#808080" begin="arrowDown.mouseover" end="arrowDown.mouseout"/>
                  </use>
                  <path fill="none" stroke="white" stroke-width="1.5" d="M0,-3.0v7 M-2.5,-0.5L0,-3.0L2.5,-0.5"/>
                </g>
                <g id="arrowLeft" xlink:href="#dirArrow" transform="rotate(270) translate(-36 17)" onmousedown="handlePan(-1,0)">
                  <use xlink:href="#rim" fill="#404040">
                        <set attributeName="fill" to="#808080" begin="arrowLeft.mouseover" end="arrowLeft.mouseout"/>
                  </use>
                  <path fill="none" stroke="white" stroke-width="1.5" d="M0,-3.0v7 M-2.5,-0.5L0,-3.0L2.5,-0.5"/>
                </g>
        </g>
        <svg viewBox="0 0 15 15" width="100%" height="30px" preserveAspectRatio="xMaxYMin meet">
         <g id="arrow_out" transform="scale(0.3 0.3)">
          <a xlink:href="actions_8cpp_ac1653963283d3235280327ec65629ef7_cgraph_org.svg" target="_base">
           <rect id="button" ry="5" rx="5" y="6" x="6" height="38" width="38"
                fill="#f2f5e9" fill-opacity="0.5" stroke="#606060" stroke-width="1.0"/>
           <path id="arrow"
             d="M 11.500037,31.436501 C 11.940474,20.09759 22.043105,11.32322 32.158766,21.979434 L 37.068811,17.246167 C 37.068811,17.246167 37.088388,32 37.088388,32 L 22.160133,31.978069 C 22.160133,31.978069 26.997745,27.140456 26.997745,27.140456 C 18.528582,18.264221 13.291696,25.230495 11.500037,31.436501 z"
             style="fill:#404040;"/>
          </a>
         </g>
        </svg>
</svg>
