<?xml version="1.0" encoding="UTF-8" standalone="no"?>
<!DOCTYPE svg PUBLIC "-//W3C//DTD SVG 1.1//EN"
 "http://www.w3.org/Graphics/SVG/1.1/DTD/svg11.dtd">
<!-- Generated by graphviz version 2.38.0 (20140413.2041)
 -->
<!-- Title: slowDown Pages: 1 -->
<!--zoomable 480 -->
<svg id="main" version="1.1" xmlns="http://www.w3.org/2000/svg" xmlns:xlink="http://www.w3.org/1999/xlink" xml:space="preserve" onload="init(evt)">
<style type="text/css"><![CDATA[
.edge:hover path { stroke: red; }
.edge:hover polygon { stroke: red; fill: red; }
]]></style>
<script type="text/javascript"><![CDATA[
var edges = document.getElementsByTagName('g');
if (edges && edges.length) {
  for (var i=0;i<edges.length;i++) {
    if (edges[i].id.substr(0,4)=='edge') {
      edges[i].setAttribute('class','edge');
    }
  }
}
]]></script>
        <defs>
                <circle id="rim" cx="0" cy="0" r="7"/>
                <circle id="rim2" cx="0" cy="0" r="3.5"/>
                <g id="zoomPlus">
                        <use xlink:href="#rim" fill="#404040">
                                <set attributeName="fill" to="#808080" begin="zoomplus.mouseover" end="zoomplus.mouseout"/>
                        </use>
                        <path d="M-4,0h8M0,-4v8" fill="none" stroke="white" stroke-width="1.5" pointer-events="none"/>
                </g>
                <g id="zoomMin">
                        <use xlink:href="#rim" fill="#404040">
                                <set attributeName="fill" to="#808080" begin="zoomminus.mouseover" end="zoomminus.mouseout"/>
                        </use>
                        <path d="M-4,0h8" fill="none" stroke="white" stroke-width="1.5" pointer-events="none"/>
                </g>
                <g id="dirArrow">
                        <path fill="none" stroke="white" stroke-width="1.5" d="M0,-3.0v7 M-2.5,-0.5L0,-3.0L2.5,-0.5"/>
                </g>
               <g id="resetDef">
                       <use xlink:href="#rim2" fill="#404040">
                               <set attributeName="fill" to="#808080" begin="reset.mouseover" end="reset.mouseout"/>
                       </use>
               </g>
        </defs>

<script type="text/javascript">
var viewWidth = 1164;
var viewHeight = 480;
var sectionId = 'dynsection-40';
</script>
<script xlink:href="svgpan.js"/>
<svg id="graph" class="graph">
<g id="viewport">
<title>slowDown</title>
<polygon fill="white" stroke="none" points="-4,4 -4,-475.601 1160,-475.601 1160,4 -4,4"/>
<!-- Node1 -->
<g id="node1" class="node"><title>Node1</title>
<polygon fill="#bfbfbf" stroke="black" points="0,-215.101 0,-234.101 62,-234.101 62,-215.101 0,-215.101"/>
<text text-anchor="middle" x="31" y="-222.101" font-family="Helvetica,sans-Serif" font-size="10.00">slowDown</text>
</g>
<!-- Node2 -->
<g id="node2" class="node"><title>Node2</title>
<g id="a_node2"><a xlink:href="libmorse_8cpp.html#a0ee2308940264ea9ac8e50afc1a4d285" target="_top" xlink:title="txString">
<polygon fill="white" stroke="black" points="109,-215.101 109,-234.101 159,-234.101 159,-215.101 109,-215.101"/>
<text text-anchor="middle" x="134" y="-222.101" font-family="Helvetica,sans-Serif" font-size="10.00">txString</text>
</a>
</g>
</g>
<!-- Node1&#45;&gt;Node2 -->
<g id="edge1" class="edge"><title>Node1&#45;&gt;Node2</title>
<path fill="none" stroke="midnightblue" d="M62.0299,-224.601C73.5433,-224.601 86.7655,-224.601 98.653,-224.601"/>
<polygon fill="midnightblue" stroke="midnightblue" points="98.6795,-228.101 108.679,-224.601 98.6794,-221.101 98.6795,-228.101"/>
</g>
<!-- Node5 -->
<g id="node5" class="node"><title>Node5</title>
<g id="a_node5"><a xlink:href="settings_8cpp.html#a960551e90dfdad18f3c9b1338ccba7db" target="_top" xlink:title="Get the dit duration in microseconds. ">
<polygon fill="white" stroke="black" points="793.5,-443.101 793.5,-462.101 865.5,-462.101 865.5,-443.101 793.5,-443.101"/>
<text text-anchor="middle" x="829.5" y="-450.101" font-family="Helvetica,sans-Serif" font-size="10.00">getDitMicros</text>
</a>
</g>
</g>
<!-- Node1&#45;&gt;Node5 -->
<g id="edge38" class="edge"><title>Node1&#45;&gt;Node5</title>
<path fill="none" stroke="midnightblue" d="M35.4453,-234.284C52.3765,-279.95 131.335,-471.601 264,-471.601 264,-471.601 264,-471.601 581.5,-471.601 652.169,-471.601 733.876,-463.774 783.339,-458.167"/>
<polygon fill="midnightblue" stroke="midnightblue" points="783.856,-461.631 793.389,-457.008 783.054,-454.677 783.856,-461.631"/>
</g>
<!-- Node28 -->
<g id="node28" class="node"><title>Node28</title>
<g id="a_node28"><a xlink:href="settings_8cpp.html#ab053475f1136a97fda0c5cf8db0ca9e0" target="_top" xlink:title="Set the dit duration in microseconds. ">
<polygon fill="white" stroke="black" points="98,-177.101 98,-196.101 170,-196.101 170,-177.101 98,-177.101"/>
<text text-anchor="middle" x="134" y="-184.101" font-family="Helvetica,sans-Serif" font-size="10.00">setDitMicros</text>
</a>
</g>
</g>
<!-- Node1&#45;&gt;Node28 -->
<g id="edge39" class="edge"><title>Node1&#45;&gt;Node28</title>
<path fill="none" stroke="midnightblue" d="M57.4866,-215.012C69.807,-210.377 84.7849,-204.741 98.1426,-199.716"/>
<polygon fill="midnightblue" stroke="midnightblue" points="99.3946,-202.984 107.522,-196.187 96.9296,-196.433 99.3946,-202.984"/>
</g>
<!-- Node3 -->
<g id="node3" class="node"><title>Node3</title>
<g id="a_node3"><a xlink:href="teensy3__morse__bsp_8cpp.html#ab306f692c5c9455a0c82782a67ff0147" target="_top" xlink:title="touchPoll">
<polygon fill="white" stroke="black" points="552,-120.101 552,-139.101 609,-139.101 609,-120.101 552,-120.101"/>
<text text-anchor="middle" x="580.5" y="-127.101" font-family="Helvetica,sans-Serif" font-size="10.00">touchPoll</text>
</a>
</g>
</g>
<!-- Node2&#45;&gt;Node3 -->
<g id="edge2" class="edge"><title>Node2&#45;&gt;Node3</title>
<path fill="none" stroke="midnightblue" d="M156.888,-214.956C161.521,-212.325 166.164,-209.192 170,-205.601 191.874,-185.124 180.135,-163.726 206,-148.601 262.033,-115.834 458.386,-122.661 541.683,-127.222"/>
<polygon fill="midnightblue" stroke="midnightblue" points="541.548,-130.72 551.73,-127.792 541.945,-123.731 541.548,-130.72"/>
</g>
<!-- Node2&#45;&gt;Node5 -->
<g id="edge4" class="edge"><title>Node2&#45;&gt;Node5</title>
<path fill="none" stroke="midnightblue" d="M135.859,-234.242C139.031,-263.679 152.827,-352.979 206,-395.601 282.056,-456.566 324.526,-433.601 422,-433.601 422,-433.601 422,-433.601 581.5,-433.601 652.169,-433.601 733.876,-441.428 783.339,-447.035"/>
<polygon fill="midnightblue" stroke="midnightblue" points="783.054,-450.525 793.389,-448.194 783.856,-443.571 783.054,-450.525"/>
</g>
<!-- Node6 -->
<g id="node6" class="node"><title>Node6</title>
<g id="a_node6"><a xlink:href="libmorse_8cpp.html#a9fdfce728595d72b78dc7c834ab99a40" target="_top" xlink:title="Transmit a literal Morse code value. ">
<polygon fill="white" stroke="black" points="684.5,-367.101 684.5,-386.101 735.5,-386.101 735.5,-367.101 684.5,-367.101"/>
<text text-anchor="middle" x="710" y="-374.101" font-family="Helvetica,sans-Serif" font-size="10.00">txLiteral</text>
</a>
</g>
</g>
<!-- Node2&#45;&gt;Node6 -->
<g id="edge5" class="edge"><title>Node2&#45;&gt;Node6</title>
<path fill="none" stroke="midnightblue" d="M136.5,-234.445C141.166,-261.29 158.099,-335.938 206,-368.601 281.964,-420.4 573.22,-392.406 674.247,-380.832"/>
<polygon fill="midnightblue" stroke="midnightblue" points="674.712,-384.302 684.24,-379.67 673.903,-377.349 674.712,-384.302"/>
</g>
<!-- Node16 -->
<g id="node16" class="node"><title>Node16</title>
<g id="a_node16"><a xlink:href="libmorse_8cpp.html#acd4b292f5e412ee4f05aed9dafbc072d" target="_top" xlink:title="Convert an ASCII character into Morse code and transmit it. ">
<polygon fill="white" stroke="black" points="555.5,-329.101 555.5,-348.101 605.5,-348.101 605.5,-329.101 555.5,-329.101"/>
<text text-anchor="middle" x="580.5" y="-336.101" font-family="Helvetica,sans-Serif" font-size="10.00">txLetter</text>
</a>
</g>
</g>
<!-- Node2&#45;&gt;Node16 -->
<g id="edge17" class="edge"><title>Node2&#45;&gt;Node16</title>
<path fill="none" stroke="midnightblue" d="M137.549,-234.282C144.221,-257.404 164.619,-315.623 206,-338.601 316.81,-400.132 476.152,-367.7 545.312,-348.922"/>
<polygon fill="midnightblue" stroke="midnightblue" points="546.541,-352.213 555.232,-346.153 544.659,-345.471 546.541,-352.213"/>
</g>
<!-- Node17 -->
<g id="node17" class="node"><title>Node17</title>
<g id="a_node17"><a xlink:href="teensy3__morse__bsp_8cpp.html#a8761e874366e227690fba2964e1bc445" target="_top" xlink:title="getInternalTemperatureC">
<polygon fill="white" stroke="black" points="360.5,-215.101 360.5,-234.101 485.5,-234.101 485.5,-215.101 360.5,-215.101"/>
<text text-anchor="middle" x="423" y="-222.101" font-family="Helvetica,sans-Serif" font-size="10.00">getInternalTemperatureC</text>
</a>
</g>
</g>
<!-- Node2&#45;&gt;Node17 -->
<g id="edge20" class="edge"><title>Node2&#45;&gt;Node17</title>
<path fill="none" stroke="midnightblue" d="M159.469,-224.601C201.266,-224.601 287.932,-224.601 350.267,-224.601"/>
<polygon fill="midnightblue" stroke="midnightblue" points="350.44,-228.101 360.44,-224.601 350.44,-221.101 350.44,-228.101"/>
</g>
<!-- Node18 -->
<g id="node18" class="node"><title>Node18</title>
<g id="a_node18"><a xlink:href="libmorse_8cpp.html#a47abdd74b66d7180c47d192bab8bdccb" target="_top" xlink:title="Transmit an unsigned integer in Morse code. ">
<polygon fill="white" stroke="black" points="390,-272.101 390,-291.101 456,-291.101 456,-272.101 390,-272.101"/>
<text text-anchor="middle" x="423" y="-279.101" font-family="Helvetica,sans-Serif" font-size="10.00">txUnsigned</text>
</a>
</g>
</g>
<!-- Node2&#45;&gt;Node18 -->
<g id="edge21" class="edge"><title>Node2&#45;&gt;Node18</title>
<path fill="none" stroke="midnightblue" d="M148.941,-234.271C162.746,-243.297 184.83,-256.293 206,-262.601 264.45,-280.016 335.429,-282.998 379.669,-282.841"/>
<polygon fill="midnightblue" stroke="midnightblue" points="379.806,-286.34 389.773,-282.748 379.741,-279.34 379.806,-286.34"/>
</g>
<!-- Node19 -->
<g id="node19" class="node"><title>Node19</title>
<g id="a_node19"><a xlink:href="actions_8cpp.html#aed718ec1bd4cc7adb2f65d40a6784496" target="_top" xlink:title="Transmit the internal temperature in integer in Fahrenheit. ">
<polygon fill="white" stroke="black" points="206,-234.101 206,-253.101 324,-253.101 324,-234.101 206,-234.101"/>
<text text-anchor="middle" x="265" y="-241.101" font-family="Helvetica,sans-Serif" font-size="10.00">txInternalTemperatureF</text>
</a>
</g>
</g>
<!-- Node2&#45;&gt;Node19 -->
<g id="edge24" class="edge"><title>Node2&#45;&gt;Node19</title>
<path fill="none" stroke="midnightblue" d="M159.264,-228.175C169.791,-229.725 182.698,-231.626 195.81,-233.558"/>
<polygon fill="midnightblue" stroke="midnightblue" points="195.437,-237.04 205.84,-235.035 196.457,-230.115 195.437,-237.04"/>
</g>
<!-- Node20 -->
<g id="node20" class="node"><title>Node20</title>
<g id="a_node20"><a xlink:href="actions_8cpp.html#aaabb3ac0c23f35a499bc17efe829f326" target="_top" xlink:title="Transmit the 24&#45;hr time. ">
<polygon fill="white" stroke="black" points="226,-158.101 226,-177.101 304,-177.101 304,-158.101 226,-158.101"/>
<text text-anchor="middle" x="265" y="-165.101" font-family="Helvetica,sans-Serif" font-size="10.00">txTimeHHMM</text>
</a>
</g>
</g>
<!-- Node2&#45;&gt;Node20 -->
<g id="edge27" class="edge"><title>Node2&#45;&gt;Node20</title>
<path fill="none" stroke="midnightblue" d="M143.255,-214.966C156.44,-205.305 183.099,-192.656 206,-182.601 209.393,-181.112 212.907,-179.594 216.451,-178.104"/>
<polygon fill="midnightblue" stroke="midnightblue" points="217.911,-181.289 225.839,-174.26 215.258,-174.811 217.911,-181.289"/>
</g>
<!-- Node21 -->
<g id="node21" class="node"><title>Node21</title>
<g id="a_node21"><a xlink:href="actions_8cpp.html#ad02149679fa3cc6a4957d1a318408ffd" target="_top" xlink:title="Transmit the uptime. ">
<polygon fill="white" stroke="black" points="237,-310.101 237,-329.101 293,-329.101 293,-310.101 237,-310.101"/>
<text text-anchor="middle" x="265" y="-317.101" font-family="Helvetica,sans-Serif" font-size="10.00">txUptime</text>
</a>
</g>
</g>
<!-- Node2&#45;&gt;Node21 -->
<g id="edge29" class="edge"><title>Node2&#45;&gt;Node21</title>
<path fill="none" stroke="midnightblue" d="M142.754,-234.552C154.862,-249.528 179.617,-277.979 206,-295.601 212.627,-300.027 220.2,-303.883 227.638,-307.133"/>
<polygon fill="midnightblue" stroke="midnightblue" points="226.326,-310.378 236.907,-310.923 228.976,-303.898 226.326,-310.378"/>
</g>
<!-- Node23 -->
<g id="node23" class="node"><title>Node23</title>
<g id="a_node23"><a xlink:href="teensy3__morse__bsp_8cpp.html#ae8dd28759e56dbd2ee9bc9ae96d1783c" target="_top" xlink:title="Return the most recent ADC measurement of the input voltage. Perform analog to digital conversion on ...">
<polygon fill="white" stroke="black" points="228,-44.101 228,-63.101 302,-63.101 302,-44.101 228,-44.101"/>
<text text-anchor="middle" x="265" y="-51.101" font-family="Helvetica,sans-Serif" font-size="10.00">readMillivolts</text>
</a>
</g>
</g>
<!-- Node2&#45;&gt;Node23 -->
<g id="edge32" class="edge"><title>Node2&#45;&gt;Node23</title>
<path fill="none" stroke="midnightblue" d="M158.798,-215.075C162.995,-212.517 166.98,-209.383 170,-205.601 206.874,-159.42 166.753,-121.783 206,-77.601 209.664,-73.4765 214.147,-70.0447 218.982,-67.1929"/>
<polygon fill="midnightblue" stroke="midnightblue" points="220.612,-70.2908 227.963,-62.6618 217.459,-64.0411 220.612,-70.2908"/>
</g>
<!-- Node27 -->
<g id="node27" class="node"><title>Node27</title>
<g id="a_node27"><a xlink:href="libmorse_8cpp.html#ac3f000c98271c6d0a7710135e18189bc" target="_top" xlink:title="On my hardware there is cross&#45;coupling between the serial port and the touch sensors. Without the code below, long messages to the serial port trigger a touch input. ">
<polygon fill="white" stroke="black" points="390.5,-82.101 390.5,-101.101 455.5,-101.101 455.5,-82.101 390.5,-82.101"/>
<text text-anchor="middle" x="423" y="-89.101" font-family="Helvetica,sans-Serif" font-size="10.00">flushTouch</text>
</a>
</g>
</g>
<!-- Node2&#45;&gt;Node27 -->
<g id="edge36" class="edge"><title>Node2&#45;&gt;Node27</title>
<path fill="none" stroke="midnightblue" d="M158.124,-215.029C162.475,-212.451 166.691,-209.321 170,-205.601 198.633,-173.411 171.716,-141.689 206,-115.601 256.247,-77.3657 333.1,-78.8629 380.305,-84.4855"/>
<polygon fill="midnightblue" stroke="midnightblue" points="380.113,-87.9901 390.482,-85.8166 381.021,-81.0492 380.113,-87.9901"/>
</g>
<!-- Node4 -->
<g id="node4" class="node"><title>Node4</title>
<g id="a_node4"><a xlink:href="teensy3__morse__bsp_8cpp.html#af6899cd9b83df54106b259ab81ea5cb2" target="_top" xlink:title="touchMargin">
<polygon fill="white" stroke="black" points="675,-120.101 675,-139.101 745,-139.101 745,-120.101 675,-120.101"/>
<text text-anchor="middle" x="710" y="-127.101" font-family="Helvetica,sans-Serif" font-size="10.00">touchMargin</text>
</a>
</g>
</g>
<!-- Node3&#45;&gt;Node4 -->
<g id="edge3" class="edge"><title>Node3&#45;&gt;Node4</title>
<path fill="none" stroke="midnightblue" d="M609.166,-129.601C625.281,-129.601 645.984,-129.601 664.355,-129.601"/>
<polygon fill="midnightblue" stroke="midnightblue" points="664.562,-133.101 674.562,-129.601 664.562,-126.101 664.562,-133.101"/>
</g>
<!-- Node6&#45;&gt;Node5 -->
<g id="edge14" class="edge"><title>Node6&#45;&gt;Node5</title>
<path fill="none" stroke="midnightblue" d="M720.711,-386.142C733.606,-398.408 757.498,-419.77 781,-433.601 784.172,-435.468 787.561,-437.228 791.015,-438.867"/>
<polygon fill="midnightblue" stroke="midnightblue" points="789.639,-442.086 800.201,-442.914 792.461,-435.68 789.639,-442.086"/>
</g>
<!-- Node7 -->
<g id="node7" class="node"><title>Node7</title>
<g id="a_node7"><a xlink:href="class_morse_token.html#a48cd72aeb868391449d1f51c1d0bf5cc" target="_top" xlink:title="Treat code == 0 as the error token. ">
<polygon fill="white" stroke="black" points="781,-405.101 781,-424.101 878,-424.101 878,-405.101 781,-405.101"/>
<text text-anchor="middle" x="829.5" y="-412.101" font-family="Helvetica,sans-Serif" font-size="10.00">MorseToken::valid</text>
</a>
</g>
</g>
<!-- Node6&#45;&gt;Node7 -->
<g id="edge6" class="edge"><title>Node6&#45;&gt;Node7</title>
<path fill="none" stroke="midnightblue" d="M735.632,-384.567C751.189,-389.598 771.632,-396.21 789.376,-401.948"/>
<polygon fill="midnightblue" stroke="midnightblue" points="788.316,-405.284 798.908,-405.031 790.47,-398.623 788.316,-405.284"/>
</g>
<!-- Node8 -->
<g id="node8" class="node"><title>Node8</title>
<g id="a_node8"><a xlink:href="teensy3__morse__bsp_8cpp.html#af66e71e3fac9b6a2c6532bc8a513bfde" target="_top" xlink:title="Output a square wave on pin 10 at the given frequency for the given duration. ">
<polygon fill="white" stroke="black" points="810.5,-367.101 810.5,-386.101 848.5,-386.101 848.5,-367.101 810.5,-367.101"/>
<text text-anchor="middle" x="829.5" y="-374.101" font-family="Helvetica,sans-Serif" font-size="10.00">beep</text>
</a>
</g>
</g>
<!-- Node6&#45;&gt;Node8 -->
<g id="edge7" class="edge"><title>Node6&#45;&gt;Node8</title>
<path fill="none" stroke="midnightblue" d="M735.632,-376.601C754.483,-376.601 780.505,-376.601 800.209,-376.601"/>
<polygon fill="midnightblue" stroke="midnightblue" points="800.42,-380.101 810.42,-376.601 800.42,-373.101 800.42,-380.101"/>
</g>
<!-- Node14 -->
<g id="node14" class="node"><title>Node14</title>
<g id="a_node14"><a xlink:href="settings_8cpp.html#a8575b9b52638114a4f32d1462cf9b7c1" target="_top" xlink:title="Get the transmission frequency (side tone). ">
<polygon fill="white" stroke="black" points="802.5,-329.101 802.5,-348.101 856.5,-348.101 856.5,-329.101 802.5,-329.101"/>
<text text-anchor="middle" x="829.5" y="-336.101" font-family="Helvetica,sans-Serif" font-size="10.00">getTxHz</text>
</a>
</g>
</g>
<!-- Node6&#45;&gt;Node14 -->
<g id="edge13" class="edge"><title>Node6&#45;&gt;Node14</title>
<path fill="none" stroke="midnightblue" d="M735.632,-368.635C752.174,-363.285 774.239,-356.149 792.711,-350.175"/>
<polygon fill="midnightblue" stroke="midnightblue" points="793.831,-353.492 802.269,-347.084 791.677,-346.831 793.831,-353.492"/>
</g>
<!-- Node15 -->
<g id="node15" class="node"><title>Node15</title>
<g id="a_node15"><a xlink:href="libmorse_8cpp.html#ab94e088615119d1faae7df22ce50aedf" target="_top" xlink:title="Transmit a Morse code prosign indicating an error. ">
<polygon fill="white" stroke="black" points="806.5,-291.101 806.5,-310.101 852.5,-310.101 852.5,-291.101 806.5,-291.101"/>
<text text-anchor="middle" x="829.5" y="-298.101" font-family="Helvetica,sans-Serif" font-size="10.00">txError</text>
</a>
</g>
</g>
<!-- Node6&#45;&gt;Node15 -->
<g id="edge15" class="edge"><title>Node6&#45;&gt;Node15</title>
<path fill="none" stroke="midnightblue" d="M720.711,-367.06C733.606,-354.794 757.498,-333.433 781,-319.601 785.88,-316.729 791.275,-314.109 796.626,-311.794"/>
<polygon fill="midnightblue" stroke="midnightblue" points="798.131,-314.961 806.089,-307.967 795.507,-308.471 798.131,-314.961"/>
</g>
<!-- Node9 -->
<g id="node9" class="node"><title>Node9</title>
<g id="a_node9"><a xlink:href="teensy3__morse__bsp_8cpp.html#a6f674d5b9985ea3a7eeb0df299c2e405" target="_top" xlink:title="pollEarphonePresent">
<polygon fill="white" stroke="black" points="914,-424.101 914,-443.101 1021,-443.101 1021,-424.101 914,-424.101"/>
<text text-anchor="middle" x="967.5" y="-431.101" font-family="Helvetica,sans-Serif" font-size="10.00">pollEarphonePresent</text>
</a>
</g>
</g>
<!-- Node8&#45;&gt;Node9 -->
<g id="edge8" class="edge"><title>Node8&#45;&gt;Node9</title>
<path fill="none" stroke="midnightblue" d="M848.734,-383.378C857.652,-386.822 868.487,-391.203 878,-395.601 894.422,-403.193 897.454,-407.283 914,-414.601 918.527,-416.603 923.336,-418.562 928.136,-420.416"/>
<polygon fill="midnightblue" stroke="midnightblue" points="927.287,-423.835 937.879,-424.054 929.735,-417.277 927.287,-423.835"/>
</g>
<!-- Node10 -->
<g id="node10" class="node"><title>Node10</title>
<g id="a_node10"><a xlink:href="teensy3__morse__bsp_8cpp.html#a2d6b4ace33ed5e497dedd03217540c63" target="_top" xlink:title="Set the PWM frequency for the audio output pins. ">
<polygon fill="white" stroke="black" points="926,-386.101 926,-405.101 1009,-405.101 1009,-386.101 926,-386.101"/>
<text text-anchor="middle" x="967.5" y="-393.101" font-family="Helvetica,sans-Serif" font-size="10.00">pwmFrequency</text>
</a>
</g>
</g>
<!-- Node8&#45;&gt;Node10 -->
<g id="edge9" class="edge"><title>Node8&#45;&gt;Node10</title>
<path fill="none" stroke="midnightblue" d="M848.56,-379.124C865.617,-381.507 892.017,-385.195 915.519,-388.479"/>
<polygon fill="midnightblue" stroke="midnightblue" points="915.334,-391.987 925.722,-389.904 916.303,-385.054 915.334,-391.987"/>
</g>
<!-- Node11 -->
<g id="node11" class="node"><title>Node11</title>
<g id="a_node11"><a xlink:href="teensy3__morse__bsp_8cpp.html#a82911eac3bf13d6f36d10102a4c4d3c4" target="_top" xlink:title="Generate a tone on the audio output pins. ">
<polygon fill="white" stroke="black" points="937,-348.101 937,-367.101 998,-367.101 998,-348.101 937,-348.101"/>
<text text-anchor="middle" x="967.5" y="-355.101" font-family="Helvetica,sans-Serif" font-size="10.00">pwmWrite</text>
</a>
</g>
</g>
<!-- Node8&#45;&gt;Node11 -->
<g id="edge10" class="edge"><title>Node8&#45;&gt;Node11</title>
<path fill="none" stroke="midnightblue" d="M848.56,-374.078C868.462,-371.298 901.083,-366.74 926.979,-363.122"/>
<polygon fill="midnightblue" stroke="midnightblue" points="927.471,-366.588 936.89,-361.738 926.502,-359.655 927.471,-366.588"/>
</g>
<!-- Node13 -->
<g id="node13" class="node"><title>Node13</title>
<g id="a_node13"><a xlink:href="teensy3__morse__bsp_8cpp.html#a6c982a7d7805f1dd5426eb98c915cfdd" target="_top" xlink:title="Turn the red LED on (1) or off (0). ">
<polygon fill="white" stroke="black" points="942.5,-310.101 942.5,-329.101 992.5,-329.101 992.5,-310.101 942.5,-310.101"/>
<text text-anchor="middle" x="967.5" y="-317.101" font-family="Helvetica,sans-Serif" font-size="10.00">redLED</text>
</a>
</g>
</g>
<!-- Node8&#45;&gt;Node13 -->
<g id="edge12" class="edge"><title>Node8&#45;&gt;Node13</title>
<path fill="none" stroke="midnightblue" d="M848.734,-369.824C857.652,-366.38 868.487,-361.999 878,-357.601 894.422,-350.009 897.454,-345.919 914,-338.601 919.992,-335.951 926.48,-333.375 932.784,-331.02"/>
<polygon fill="midnightblue" stroke="midnightblue" points="934.232,-334.218 942.442,-327.521 931.847,-327.637 934.232,-334.218"/>
</g>
<!-- Node12 -->
<g id="node12" class="node"><title>Node12</title>
<g id="a_node12"><a xlink:href="teensy3__morse__bsp_8cpp.html#ac70998cee1bf97f00aec4a1b4e5a4f60" target="_top" xlink:title="isEarphonePresent">
<polygon fill="white" stroke="black" points="1057,-348.101 1057,-367.101 1156,-367.101 1156,-348.101 1057,-348.101"/>
<text text-anchor="middle" x="1106.5" y="-355.101" font-family="Helvetica,sans-Serif" font-size="10.00">isEarphonePresent</text>
</a>
</g>
</g>
<!-- Node11&#45;&gt;Node12 -->
<g id="edge11" class="edge"><title>Node11&#45;&gt;Node12</title>
<path fill="none" stroke="midnightblue" d="M998.227,-357.601C1012.43,-357.601 1029.96,-357.601 1046.7,-357.601"/>
<polygon fill="midnightblue" stroke="midnightblue" points="1046.98,-361.101 1056.98,-357.601 1046.98,-354.101 1046.98,-361.101"/>
</g>
<!-- Node15&#45;&gt;Node2 -->
<g id="edge16" class="edge"><title>Node15&#45;&gt;Node2</title>
<path fill="none" stroke="midnightblue" d="M826.212,-290.95C818.803,-261.295 793.115,-169.928 745,-110.601 692.062,-45.3266 665.543,-15.601 581.5,-15.601 422,-15.601 422,-15.601 422,-15.601 325.629,-15.601 278.1,29.3432 206,-34.601 147.894,-86.1342 216.411,-143.328 170,-205.601 169.096,-206.814 168.091,-207.958 167.009,-209.036"/>
<polygon fill="midnightblue" stroke="midnightblue" points="164.769,-206.345 159,-215.232 169.051,-211.882 164.769,-206.345"/>
</g>
<!-- Node16&#45;&gt;Node6 -->
<g id="edge18" class="edge"><title>Node16&#45;&gt;Node6</title>
<path fill="none" stroke="midnightblue" d="M605.782,-345.838C625.242,-351.638 652.793,-359.849 674.536,-366.329"/>
<polygon fill="midnightblue" stroke="midnightblue" points="673.791,-369.759 684.374,-369.262 675.791,-363.051 673.791,-369.759"/>
</g>
<!-- Node16&#45;&gt;Node15 -->
<g id="edge19" class="edge"><title>Node16&#45;&gt;Node15</title>
<path fill="none" stroke="midnightblue" d="M605.633,-334.888C650.398,-328.001 746.294,-313.248 796.444,-305.533"/>
<polygon fill="midnightblue" stroke="midnightblue" points="797.065,-308.978 806.417,-303.998 796.001,-302.06 797.065,-308.978"/>
</g>
<!-- Node18&#45;&gt;Node3 -->
<g id="edge22" class="edge"><title>Node18&#45;&gt;Node3</title>
<path fill="none" stroke="midnightblue" d="M443.284,-271.968C456.122,-265.049 472.961,-254.965 486,-243.601 519.73,-214.204 550.99,-171.803 567.427,-147.861"/>
<polygon fill="midnightblue" stroke="midnightblue" points="570.461,-149.622 573.16,-139.377 564.661,-145.703 570.461,-149.622"/>
</g>
<!-- Node18&#45;&gt;Node16 -->
<g id="edge23" class="edge"><title>Node18&#45;&gt;Node16</title>
<path fill="none" stroke="midnightblue" d="M456.038,-290.827C465.723,-293.775 476.348,-297.168 486,-300.601 506.894,-308.032 529.982,-317.403 547.987,-324.98"/>
<polygon fill="midnightblue" stroke="midnightblue" points="546.848,-328.299 557.421,-328.981 549.581,-321.854 546.848,-328.299"/>
</g>
<!-- Node19&#45;&gt;Node17 -->
<g id="edge25" class="edge"><title>Node19&#45;&gt;Node17</title>
<path fill="none" stroke="midnightblue" d="M324.089,-236.526C332.711,-235.476 341.682,-234.383 350.54,-233.305"/>
<polygon fill="midnightblue" stroke="midnightblue" points="350.964,-236.779 360.467,-232.095 350.117,-229.83 350.964,-236.779"/>
</g>
<!-- Node19&#45;&gt;Node18 -->
<g id="edge26" class="edge"><title>Node19&#45;&gt;Node18</title>
<path fill="none" stroke="midnightblue" d="M305.365,-253.19C328.167,-258.744 356.861,-265.734 380.083,-271.39"/>
<polygon fill="midnightblue" stroke="midnightblue" points="379.451,-274.839 389.996,-273.805 381.108,-268.038 379.451,-274.839"/>
</g>
<!-- Node20&#45;&gt;Node2 -->
<g id="edge28" class="edge"><title>Node20&#45;&gt;Node2</title>
<path fill="none" stroke="midnightblue" d="M255.304,-177.238C243.917,-184.63 223.362,-192.978 206,-200.601 193.748,-205.98 180.421,-212.102 168.657,-217.088"/>
<polygon fill="midnightblue" stroke="midnightblue" points="167.123,-213.934 159.2,-220.968 169.78,-220.41 167.123,-213.934"/>
</g>
<!-- Node21&#45;&gt;Node18 -->
<g id="edge31" class="edge"><title>Node21&#45;&gt;Node18</title>
<path fill="none" stroke="midnightblue" d="M293.173,-312.982C317.119,-307.149 352.386,-298.558 379.968,-291.839"/>
<polygon fill="midnightblue" stroke="midnightblue" points="380.86,-295.225 389.748,-289.457 379.203,-288.424 380.86,-295.225"/>
</g>
<!-- Node22 -->
<g id="node22" class="node"><title>Node22</title>
<g id="a_node22"><a xlink:href="settings_8cpp.html#a7b4efa097b94f9a90c5bbafcdf93fe4f" target="_top" xlink:title="getUptime">
<polygon fill="white" stroke="black" points="392,-310.101 392,-329.101 454,-329.101 454,-310.101 392,-310.101"/>
<text text-anchor="middle" x="423" y="-317.101" font-family="Helvetica,sans-Serif" font-size="10.00">getUptime</text>
</a>
</g>
</g>
<!-- Node21&#45;&gt;Node22 -->
<g id="edge30" class="edge"><title>Node21&#45;&gt;Node22</title>
<path fill="none" stroke="midnightblue" d="M293.173,-319.601C317.633,-319.601 353.905,-319.601 381.735,-319.601"/>
<polygon fill="midnightblue" stroke="midnightblue" points="381.945,-323.101 391.945,-319.601 381.945,-316.101 381.945,-323.101"/>
</g>
<!-- Node24 -->
<g id="node24" class="node"><title>Node24</title>
<g id="a_node24"><a xlink:href="class_voltage_monitor.html#a70902b84f9864c95d5553a0644a64f4f" target="_top" xlink:title="Return the latest voltage reading. ">
<polygon fill="white" stroke="black" points="360,-44.101 360,-63.101 486,-63.101 486,-44.101 360,-44.101"/>
<text text-anchor="middle" x="423" y="-51.101" font-family="Helvetica,sans-Serif" font-size="10.00">VoltageMonitor::getValue</text>
</a>
</g>
</g>
<!-- Node23&#45;&gt;Node24 -->
<g id="edge33" class="edge"><title>Node23&#45;&gt;Node24</title>
<path fill="none" stroke="midnightblue" d="M302.182,-53.601C316.344,-53.601 333.117,-53.601 349.56,-53.601"/>
<polygon fill="midnightblue" stroke="midnightblue" points="349.728,-57.1011 359.728,-53.601 349.728,-50.1011 349.728,-57.1011"/>
</g>
<!-- Node25 -->
<g id="node25" class="node"><title>Node25</title>
<g id="a_node25"><a xlink:href="actions_8cpp.html#a2b8c3769e2aa32a2da9e2f3f85ac73dd" target="_top" xlink:title="A sample ADC reading is taken each time through the main loop, and written to a ring buffer...">
<polygon fill="white" stroke="black" points="524.5,-44.101 524.5,-63.101 636.5,-63.101 636.5,-44.101 524.5,-44.101"/>
<text text-anchor="middle" x="580.5" y="-51.101" font-family="Helvetica,sans-Serif" font-size="10.00">getVoltagePollInterval</text>
</a>
</g>
</g>
<!-- Node24&#45;&gt;Node25 -->
<g id="edge34" class="edge"><title>Node24&#45;&gt;Node25</title>
<path fill="none" stroke="midnightblue" d="M486.352,-53.601C495.438,-53.601 504.816,-53.601 513.963,-53.601"/>
<polygon fill="midnightblue" stroke="midnightblue" points="514.163,-57.1011 524.163,-53.601 514.163,-50.1011 514.163,-57.1011"/>
</g>
<!-- Node26 -->
<g id="node26" class="node"><title>Node26</title>
<g id="a_node26"><a xlink:href="class_voltage_monitor.html#a75871331808c34b40d04059ee2af0f27" target="_top" xlink:title="Filter and scale raw ADC values to millivolts. ">
<polygon fill="white" stroke="black" points="522,-82.101 522,-101.101 639,-101.101 639,-82.101 522,-82.101"/>
<text text-anchor="middle" x="580.5" y="-89.101" font-family="Helvetica,sans-Serif" font-size="10.00">VoltageMonitor::update</text>
</a>
</g>
</g>
<!-- Node24&#45;&gt;Node26 -->
<g id="edge35" class="edge"><title>Node24&#45;&gt;Node26</title>
<path fill="none" stroke="midnightblue" d="M463.239,-63.19C483.759,-68.2045 509.067,-74.3891 530.825,-79.7063"/>
<polygon fill="midnightblue" stroke="midnightblue" points="529.998,-83.107 540.543,-82.081 531.66,-76.3071 529.998,-83.107"/>
</g>
<!-- Node27&#45;&gt;Node3 -->
<g id="edge37" class="edge"><title>Node27&#45;&gt;Node3</title>
<path fill="none" stroke="midnightblue" d="M455.843,-99.3826C480.788,-105.478 515.554,-113.974 541.872,-120.406"/>
<polygon fill="midnightblue" stroke="midnightblue" points="541.318,-123.873 551.864,-122.847 542.98,-117.074 541.318,-123.873"/>
</g>
</g>
</svg>
        <g id="navigator" transform="translate(0 0)" fill="#404254">
                <rect fill="#f2f5e9" fill-opacity="0.5" stroke="#606060" stroke-width=".5" x="0" y="0" width="60" height="60"/>
                <use id="zoomplus" xlink:href="#zoomPlus" x="17" y="9" onmousedown="handleZoom(evt,'in')"/>
                <use id="zoomminus" xlink:href="#zoomMin" x="42" y="9" onmousedown="handleZoom(evt,'out')"/>
                <use id="reset" xlink:href="#resetDef" x="30" y="36" onmousedown="handleReset()"/>
                <g id="arrowUp" xlink:href="#dirArrow" transform="translate(30 24)" onmousedown="handlePan(0,-1)">
                  <use xlink:href="#rim" fill="#404040">
                        <set attributeName="fill" to="#808080" begin="arrowUp.mouseover" end="arrowUp.mouseout"/>
                  </use>
                  <path fill="none" stroke="white" stroke-width="1.5" d="M0,-3.0v7 M-2.5,-0.5L0,-3.0L2.5,-0.5"/>
                </g>
                <g id="arrowRight" xlink:href="#dirArrow" transform="rotate(90) translate(36 -43)" onmousedown="handlePan(1,0)">
                  <use xlink:href="#rim" fill="#404040">
                        <set attributeName="fill" to="#808080" begin="arrowRight.mouseover" end="arrowRight.mouseout"/>
                  </use>
                  <path fill="none" stroke="white" stroke-width="1.5" d="M0,-3.0v7 M-2.5,-0.5L0,-3.0L2.5,-0.5"/>
                </g>
                <g id="arrowDown" xlink:href="#dirArrow" transform="rotate(180) translate(-30 -48)" onmousedown="handlePan(0,1)">
                  <use xlink:href="#rim" fill="#404040">
                        <set attributeName="fill" to="#808080" begin="arrowDown.mouseover" end="arrowDown.mouseout"/>
                  </use>
                  <path fill="none" stroke="white" stroke-width="1.5" d="M0,-3.0v7 M-2.5,-0.5L0,-3.0L2.5,-0.5"/>
                </g>
                <g id="arrowLeft" xlink:href="#dirArrow" transform="rotate(270) translate(-36 17)" onmousedown="handlePan(-1,0)">
                  <use xlink:href="#rim" fill="#404040">
                        <set attributeName="fill" to="#808080" begin="arrowLeft.mouseover" end="arrowLeft.mouseout"/>
                  </use>
                  <path fill="none" stroke="white" stroke-width="1.5" d="M0,-3.0v7 M-2.5,-0.5L0,-3.0L2.5,-0.5"/>
                </g>
        </g>
        <svg viewBox="0 0 15 15" width="100%" height="30px" preserveAspectRatio="xMaxYMin meet">
         <g id="arrow_out" transform="scale(0.3 0.3)">
          <a xlink:href="actions_8cpp_a68d867ac633d6976afcbf1180e2123a5_cgraph_org.svg" target="_base">
           <rect id="button" ry="5" rx="5" y="6" x="6" height="38" width="38"
                fill="#f2f5e9" fill-opacity="0.5" stroke="#606060" stroke-width="1.0"/>
           <path id="arrow"
             d="M 11.500037,31.436501 C 11.940474,20.09759 22.043105,11.32322 32.158766,21.979434 L 37.068811,17.246167 C 37.068811,17.246167 37.088388,32 37.088388,32 L 22.160133,31.978069 C 22.160133,31.978069 26.997745,27.140456 26.997745,27.140456 C 18.528582,18.264221 13.291696,25.230495 11.500037,31.436501 z"
             style="fill:#404040;"/>
          </a>
         </g>
        </svg>
</svg>
