<?xml version="1.0" encoding="UTF-8" standalone="no"?>
<!DOCTYPE svg PUBLIC "-//W3C//DTD SVG 1.1//EN"
 "http://www.w3.org/Graphics/SVG/1.1/DTD/svg11.dtd">
<!-- Generated by graphviz version 2.38.0 (20140413.2041)
 -->
<!-- Title: restorePending Pages: 1 -->
<svg width="438pt" height="142pt"
 viewBox="0.00 0.00 438.00 142.00" xmlns="http://www.w3.org/2000/svg" xmlns:xlink="http://www.w3.org/1999/xlink">
<g id="graph0" class="graph" transform="scale(1 1) rotate(0) translate(4 138)">
<title>restorePending</title>
<polygon fill="white" stroke="none" points="-4,4 -4,-138 434,-138 434,4 -4,4"/>
<!-- Node1 -->
<g id="node1" class="node"><title>Node1</title>
<polygon fill="#bfbfbf" stroke="black" points="0,-76.5 0,-95.5 82,-95.5 82,-76.5 0,-76.5"/>
<text text-anchor="middle" x="41" y="-83.5" font-family="Helvetica,sans-Serif" font-size="10.00">restorePending</text>
</g>
<!-- Node2 -->
<g id="node2" class="node"><title>Node2</title>
<g id="a_node2"><a xlink:href="actions_8h.html#a9a7251c47cd69137c16e9e7e5cf6179e" target="_top" xlink:title="Invoke an action from the actions table. ">
<polygon fill="white" stroke="black" points="130.5,-114.5 130.5,-133.5 185.5,-133.5 185.5,-114.5 130.5,-114.5"/>
<text text-anchor="middle" x="158" y="-121.5" font-family="Helvetica,sans-Serif" font-size="10.00">doAction</text>
</a>
</g>
</g>
<!-- Node1&#45;&gt;Node2 -->
<g id="edge1" class="edge"><title>Node1&#45;&gt;Node2</title>
<path fill="none" stroke="midnightblue" d="M80.8187,-98.827C97.11,-104.21 115.646,-110.335 130.355,-115.195"/>
<polygon fill="midnightblue" stroke="midnightblue" points="81.6126,-95.4033 71.0194,-95.589 79.4163,-102.05 81.6126,-95.4033"/>
</g>
<!-- Node3 -->
<g id="node3" class="node"><title>Node3</title>
<g id="a_node3"><a xlink:href="actions_8h.html#aa1ebbe304654c025f3f02ea434718884" target="_top" xlink:title="saveActions">
<polygon fill="white" stroke="black" points="243,-38.5 243,-57.5 314,-57.5 314,-38.5 243,-38.5"/>
<text text-anchor="middle" x="278.5" y="-45.5" font-family="Helvetica,sans-Serif" font-size="10.00">saveActions</text>
</a>
</g>
</g>
<!-- Node1&#45;&gt;Node3 -->
<g id="edge2" class="edge"><title>Node1&#45;&gt;Node3</title>
<path fill="none" stroke="midnightblue" d="M85.9785,-74.0035C96.4197,-71.4342 107.559,-68.919 118,-67 160.649,-59.161 210.336,-53.8349 242.774,-50.8612"/>
<polygon fill="midnightblue" stroke="midnightblue" points="85.0661,-70.624 76.2273,-76.4658 86.7799,-77.4109 85.0661,-70.624"/>
</g>
<!-- Node7 -->
<g id="node7" class="node"><title>Node7</title>
<g id="a_node7"><a xlink:href="actions_8h.html#af4c12896b2807b2ac63725a650efea6b" target="_top" xlink:title="restoreActions">
<polygon fill="white" stroke="black" points="118,-76.5 118,-95.5 198,-95.5 198,-76.5 118,-76.5"/>
<text text-anchor="middle" x="158" y="-83.5" font-family="Helvetica,sans-Serif" font-size="10.00">restoreActions</text>
</a>
</g>
</g>
<!-- Node1&#45;&gt;Node7 -->
<g id="edge6" class="edge"><title>Node1&#45;&gt;Node7</title>
<path fill="none" stroke="midnightblue" d="M92.4247,-86C100.916,-86 109.617,-86 117.77,-86"/>
<polygon fill="midnightblue" stroke="midnightblue" points="92.2215,-82.5001 82.2214,-86 92.2214,-89.5001 92.2215,-82.5001"/>
</g>
<!-- Node4 -->
<g id="node4" class="node"><title>Node4</title>
<g id="a_node4"><a xlink:href="pda_8h.html#a5218392624b017b817b80d6b16ea920d" target="_top" xlink:title="askNextAlfa">
<polygon fill="white" stroke="black" points="359,-0.5 359,-19.5 430,-19.5 430,-0.5 359,-0.5"/>
<text text-anchor="middle" x="394.5" y="-7.5" font-family="Helvetica,sans-Serif" font-size="10.00">askNextAlfa</text>
</a>
</g>
</g>
<!-- Node3&#45;&gt;Node4 -->
<g id="edge3" class="edge"><title>Node3&#45;&gt;Node4</title>
<path fill="none" stroke="midnightblue" d="M317.978,-35.1741C333.274,-30.0753 350.567,-24.3109 364.742,-19.5859"/>
<polygon fill="midnightblue" stroke="midnightblue" points="316.647,-31.9283 308.267,-38.411 318.861,-38.569 316.647,-31.9283"/>
</g>
<!-- Node5 -->
<g id="node5" class="node"><title>Node5</title>
<g id="a_node5"><a xlink:href="pda_8h.html#abf2e0c8c523ed9ddee8a9194c9800b99" target="_top" xlink:title="askSum">
<polygon fill="white" stroke="black" points="368,-76.5 368,-95.5 421,-95.5 421,-76.5 368,-76.5"/>
<text text-anchor="middle" x="394.5" y="-83.5" font-family="Helvetica,sans-Serif" font-size="10.00">askSum</text>
</a>
</g>
</g>
<!-- Node3&#45;&gt;Node5 -->
<g id="edge4" class="edge"><title>Node3&#45;&gt;Node5</title>
<path fill="none" stroke="midnightblue" d="M318.128,-60.876C334.527,-66.3423 353.198,-72.566 367.854,-77.4513"/>
<polygon fill="midnightblue" stroke="midnightblue" points="318.861,-57.431 308.267,-57.589 316.647,-64.0717 318.861,-57.431"/>
</g>
<!-- Node6 -->
<g id="node6" class="node"><title>Node6</title>
<g id="a_node6"><a xlink:href="pda_8h.html#a1dc125d402fe76077cb4d166ac0fbf7a" target="_top" xlink:title="askNext">
<polygon fill="white" stroke="black" points="368,-38.5 368,-57.5 421,-57.5 421,-38.5 368,-38.5"/>
<text text-anchor="middle" x="394.5" y="-45.5" font-family="Helvetica,sans-Serif" font-size="10.00">askNext</text>
</a>
</g>
</g>
<!-- Node3&#45;&gt;Node6 -->
<g id="edge5" class="edge"><title>Node3&#45;&gt;Node6</title>
<path fill="none" stroke="midnightblue" d="M324.039,-48C338.871,-48 354.886,-48 367.796,-48"/>
<polygon fill="midnightblue" stroke="midnightblue" points="324.013,-44.5001 314.013,-48 324.013,-51.5001 324.013,-44.5001"/>
</g>
<!-- Node8 -->
<g id="node8" class="node"><title>Node8</title>
<g id="a_node8"><a xlink:href="actions_8h.html#ad07e1d9a717a212364090e192e951ea5" target="_top" xlink:title="push1RestoreAll">
<polygon fill="white" stroke="black" points="234,-0.5 234,-19.5 323,-19.5 323,-0.5 234,-0.5"/>
<text text-anchor="middle" x="278.5" y="-7.5" font-family="Helvetica,sans-Serif" font-size="10.00">push1RestoreAll</text>
</a>
</g>
</g>
<!-- Node7&#45;&gt;Node8 -->
<g id="edge7" class="edge"><title>Node7&#45;&gt;Node8</title>
<path fill="none" stroke="midnightblue" d="M177.91,-69.6065C192.563,-57.4172 213.721,-40.9045 234,-29 239.828,-25.5789 246.385,-22.4 252.607,-19.6592"/>
<polygon fill="midnightblue" stroke="midnightblue" points="175.468,-67.0878 170.09,-76.2163 179.987,-72.4339 175.468,-67.0878"/>
</g>
<!-- Node9 -->
<g id="node9" class="node"><title>Node9</title>
<g id="a_node9"><a xlink:href="pda_8h.html#a15825e7325bc5cdbd18cf2c6055baef1" target="_top" xlink:title="gradeRestore">
<polygon fill="white" stroke="black" points="241,-76.5 241,-95.5 316,-95.5 316,-76.5 241,-76.5"/>
<text text-anchor="middle" x="278.5" y="-83.5" font-family="Helvetica,sans-Serif" font-size="10.00">gradeRestore</text>
</a>
</g>
</g>
<!-- Node7&#45;&gt;Node9 -->
<g id="edge10" class="edge"><title>Node7&#45;&gt;Node9</title>
<path fill="none" stroke="midnightblue" d="M208.361,-86C219.23,-86 230.556,-86 240.82,-86"/>
<polygon fill="midnightblue" stroke="midnightblue" points="208.13,-82.5001 198.13,-86 208.13,-89.5001 208.13,-82.5001"/>
</g>
<!-- Node8&#45;&gt;Node4 -->
<g id="edge8" class="edge"><title>Node8&#45;&gt;Node4</title>
<path fill="none" stroke="midnightblue" d="M333.351,-10C342.036,-10 350.819,-10 358.89,-10"/>
<polygon fill="midnightblue" stroke="midnightblue" points="333.249,-6.5001 323.249,-10 333.249,-13.5001 333.249,-6.5001"/>
</g>
<!-- Node8&#45;&gt;Node6 -->
<g id="edge9" class="edge"><title>Node8&#45;&gt;Node6</title>
<path fill="none" stroke="midnightblue" d="M318.128,-22.876C334.527,-28.3423 353.198,-34.566 367.854,-39.4513"/>
<polygon fill="midnightblue" stroke="midnightblue" points="318.861,-19.431 308.267,-19.589 316.647,-26.0717 318.861,-19.431"/>
</g>
<!-- Node9&#45;&gt;Node5 -->
<g id="edge11" class="edge"><title>Node9&#45;&gt;Node5</title>
<path fill="none" stroke="midnightblue" d="M326.295,-86C340.444,-86 355.46,-86 367.701,-86"/>
<polygon fill="midnightblue" stroke="midnightblue" points="326.198,-82.5001 316.198,-86 326.198,-89.5001 326.198,-82.5001"/>
</g>
</g>
</svg>
