<?xml version="1.0" encoding="UTF-8" standalone="no"?>
<!DOCTYPE svg PUBLIC "-//W3C//DTD SVG 1.1//EN"
 "http://www.w3.org/Graphics/SVG/1.1/DTD/svg11.dtd">
<!-- Generated by graphviz version 2.38.0 (20140413.2041)
 -->
<!-- Title: getPressure Pages: 1 -->
<!--zoomable 638 -->
<svg id="main" version="1.1" xmlns="http://www.w3.org/2000/svg" xmlns:xlink="http://www.w3.org/1999/xlink" xml:space="preserve" onload="init(evt)">
<style type="text/css"><![CDATA[
.edge:hover path { stroke: red; }
.edge:hover polygon { stroke: red; fill: red; }
]]></style>
<script type="text/javascript"><![CDATA[
var edges = document.getElementsByTagName('g');
if (edges && edges.length) {
  for (var i=0;i<edges.length;i++) {
    if (edges[i].id.substr(0,4)=='edge') {
      edges[i].setAttribute('class','edge');
    }
  }
}
]]></script>
        <defs>
                <circle id="rim" cx="0" cy="0" r="7"/>
                <circle id="rim2" cx="0" cy="0" r="3.5"/>
                <g id="zoomPlus">
                        <use xlink:href="#rim" fill="#404040">
                                <set attributeName="fill" to="#808080" begin="zoomplus.mouseover" end="zoomplus.mouseout"/>
                        </use>
                        <path d="M-4,0h8M0,-4v8" fill="none" stroke="white" stroke-width="1.5" pointer-events="none"/>
                </g>
                <g id="zoomMin">
                        <use xlink:href="#rim" fill="#404040">
                                <set attributeName="fill" to="#808080" begin="zoomminus.mouseover" end="zoomminus.mouseout"/>
                        </use>
                        <path d="M-4,0h8" fill="none" stroke="white" stroke-width="1.5" pointer-events="none"/>
                </g>
                <g id="dirArrow">
                        <path fill="none" stroke="white" stroke-width="1.5" d="M0,-3.0v7 M-2.5,-0.5L0,-3.0L2.5,-0.5"/>
                </g>
               <g id="resetDef">
                       <use xlink:href="#rim2" fill="#404040">
                               <set attributeName="fill" to="#808080" begin="reset.mouseover" end="reset.mouseout"/>
                       </use>
               </g>
        </defs>

<script type="text/javascript">
var viewWidth = 1203;
var viewHeight = 638;
var sectionId = 'dynsection-11';
</script>
<script xlink:href="svgpan.js"/>
<svg id="graph" class="graph">
<g id="viewport">
<title>getPressure</title>
<polygon fill="white" stroke="none" points="-4,4 -4,-634.002 1199,-634.002 1199,4 -4,4"/>
<!-- Node1 -->
<g id="node1" class="node"><title>Node1</title>
<polygon fill="#bfbfbf" stroke="black" points="0,-95.5 0,-114.5 69,-114.5 69,-95.5 0,-95.5"/>
<text text-anchor="middle" x="34.5" y="-102.5" font-family="Helvetica,sans-Serif" font-size="10.00">getPressure</text>
</g>
<!-- Node2 -->
<g id="node2" class="node"><title>Node2</title>
<g id="a_node2"><a xlink:href="libmorse_8cpp.html#a0ee2308940264ea9ac8e50afc1a4d285" target="_top" xlink:title="txString">
<polygon fill="white" stroke="black" points="132,-399.5 132,-418.5 182,-418.5 182,-399.5 132,-399.5"/>
<text text-anchor="middle" x="157" y="-406.5" font-family="Helvetica,sans-Serif" font-size="10.00">txString</text>
</a>
</g>
</g>
<!-- Node1&#45;&gt;Node2 -->
<g id="edge1" class="edge"><title>Node1&#45;&gt;Node2</title>
<path fill="none" stroke="midnightblue" d="M39.3728,-114.77C56.4763,-157.919 125.412,-331.833 148.456,-389.968"/>
<polygon fill="midnightblue" stroke="midnightblue" points="145.263,-391.411 152.202,-399.418 151.77,-388.832 145.263,-391.411"/>
</g>
<!-- Node3 -->
<g id="node3" class="node"><title>Node3</title>
<g id="a_node3"><a xlink:href="teensy3__morse__bsp_8cpp.html#ab306f692c5c9455a0c82782a67ff0147" target="_top" xlink:title="touchPoll">
<polygon fill="white" stroke="black" points="591,-209.5 591,-228.5 648,-228.5 648,-209.5 591,-209.5"/>
<text text-anchor="middle" x="619.5" y="-216.5" font-family="Helvetica,sans-Serif" font-size="10.00">touchPoll</text>
</a>
</g>
</g>
<!-- Node1&#45;&gt;Node3 -->
<g id="edge41" class="edge"><title>Node1&#45;&gt;Node3</title>
<path fill="none" stroke="midnightblue" d="M51.4548,-114.513C65.1601,-122.202 85.7046,-132.604 105,-138 285.71,-188.532 342.917,-135.664 525,-181 547.772,-186.67 572.308,-196.808 590.529,-205.187"/>
<polygon fill="midnightblue" stroke="midnightblue" points="589.157,-208.409 599.695,-209.498 592.136,-202.075 589.157,-208.409"/>
</g>
<!-- Node10 -->
<g id="node10" class="node"><title>Node10</title>
<g id="a_node10"><a xlink:href="teensy3__morse__bsp_8cpp.html#a2d6b4ace33ed5e497dedd03217540c63" target="_top" xlink:title="Set the PWM frequency for the audio output pins. ">
<polygon fill="white" stroke="black" points="965,-256.5 965,-275.5 1048,-275.5 1048,-256.5 965,-256.5"/>
<text text-anchor="middle" x="1006.5" y="-263.5" font-family="Helvetica,sans-Serif" font-size="10.00">pwmFrequency</text>
</a>
</g>
</g>
<!-- Node1&#45;&gt;Node10 -->
<g id="edge38" class="edge"><title>Node1&#45;&gt;Node10</title>
<path fill="none" stroke="midnightblue" d="M69.2273,-108.937C119.902,-114.502 218.73,-124 303,-124 303,-124 303,-124 750,-124 855.492,-124 857.827,-201.495 953,-247 957.31,-249.061 961.906,-251.032 966.518,-252.872"/>
<polygon fill="midnightblue" stroke="midnightblue" points="965.331,-256.165 975.922,-256.451 967.821,-249.623 965.331,-256.165"/>
</g>
<!-- Node11 -->
<g id="node11" class="node"><title>Node11</title>
<g id="a_node11"><a xlink:href="teensy3__morse__bsp_8cpp.html#a82911eac3bf13d6f36d10102a4c4d3c4" target="_top" xlink:title="Generate a tone on the audio output pins. ">
<polygon fill="white" stroke="black" points="976,-218.5 976,-237.5 1037,-237.5 1037,-218.5 976,-218.5"/>
<text text-anchor="middle" x="1006.5" y="-225.5" font-family="Helvetica,sans-Serif" font-size="10.00">pwmWrite</text>
</a>
</g>
</g>
<!-- Node1&#45;&gt;Node11 -->
<g id="edge39" class="edge"><title>Node1&#45;&gt;Node11</title>
<path fill="none" stroke="midnightblue" d="M69.2273,-101.063C119.902,-95.498 218.73,-86 303,-86 303,-86 303,-86 750,-86 824.985,-86 852.494,-71.7687 917,-110 956.654,-133.502 984.298,-182.293 997.217,-209.191"/>
<polygon fill="midnightblue" stroke="midnightblue" points="994.068,-210.721 1001.44,-218.329 1000.42,-207.783 994.068,-210.721"/>
</g>
<!-- Node28 -->
<g id="node28" class="node"><title>Node28</title>
<g id="a_node28"><a xlink:href="teensy3__morse__bsp_8cpp.html#a36cda3a6dd77f2141cfc703c55a47ff8" target="_top" xlink:title="getDuty">
<polygon fill="white" stroke="black" points="131.5,-38.5 131.5,-57.5 182.5,-57.5 182.5,-38.5 131.5,-38.5"/>
<text text-anchor="middle" x="157" y="-45.5" font-family="Helvetica,sans-Serif" font-size="10.00">getDuty</text>
</a>
</g>
</g>
<!-- Node1&#45;&gt;Node28 -->
<g id="edge40" class="edge"><title>Node1&#45;&gt;Node28</title>
<path fill="none" stroke="midnightblue" d="M55.5641,-95.4507C69.4413,-88.8514 88.3353,-79.8774 105,-72 111.934,-68.7224 119.402,-65.2022 126.428,-61.8951"/>
<polygon fill="midnightblue" stroke="midnightblue" points="128.084,-64.9843 135.642,-57.5604 125.104,-58.6501 128.084,-64.9843"/>
</g>
<!-- Node29 -->
<g id="node29" class="node"><title>Node29</title>
<g id="a_node29"><a xlink:href="settings_8cpp.html#ad02597259b5753e0c98605bce44a9fc8" target="_top" xlink:title="Get the default dit duration in microseconds. ">
<polygon fill="white" stroke="black" points="105,-0.5 105,-19.5 209,-19.5 209,-0.5 105,-0.5"/>
<text text-anchor="middle" x="157" y="-7.5" font-family="Helvetica,sans-Serif" font-size="10.00">getDitMicrosDefault</text>
</a>
</g>
</g>
<!-- Node1&#45;&gt;Node29 -->
<g id="edge42" class="edge"><title>Node1&#45;&gt;Node29</title>
<path fill="none" stroke="midnightblue" d="M41.8838,-95.487C52.9729,-79.6298 77.2797,-47.6943 105,-29 107.868,-27.0659 110.958,-25.2965 114.149,-23.6841"/>
<polygon fill="midnightblue" stroke="midnightblue" points="115.633,-26.8547 123.307,-19.5497 112.752,-20.4748 115.633,-26.8547"/>
</g>
<!-- Node2&#45;&gt;Node3 -->
<g id="edge2" class="edge"><title>Node2&#45;&gt;Node3</title>
<path fill="none" stroke="midnightblue" d="M160.956,-399.339C169.356,-373.678 195.992,-303.619 245,-272 300.085,-236.46 497.414,-224.094 580.837,-220.391"/>
<polygon fill="midnightblue" stroke="midnightblue" points="581.054,-223.885 590.896,-219.963 580.756,-216.892 581.054,-223.885"/>
</g>
<!-- Node5 -->
<g id="node5" class="node"><title>Node5</title>
<g id="a_node5"><a xlink:href="settings_8cpp.html#a960551e90dfdad18f3c9b1338ccba7db" target="_top" xlink:title="Get the dit duration in microseconds. ">
<polygon fill="white" stroke="black" points="832.5,-589.5 832.5,-608.5 904.5,-608.5 904.5,-589.5 832.5,-589.5"/>
<text text-anchor="middle" x="868.5" y="-596.5" font-family="Helvetica,sans-Serif" font-size="10.00">getDitMicros</text>
</a>
</g>
</g>
<!-- Node2&#45;&gt;Node5 -->
<g id="edge4" class="edge"><title>Node2&#45;&gt;Node5</title>
<path fill="none" stroke="midnightblue" d="M159.076,-418.599C163.222,-450.579 181.271,-554.024 245,-599 323.737,-654.568 364.629,-618 461,-618 461,-618 461,-618 620.5,-618 691.169,-618 772.876,-610.173 822.339,-604.566"/>
<polygon fill="midnightblue" stroke="midnightblue" points="822.856,-608.03 832.389,-603.407 822.054,-601.076 822.856,-608.03"/>
</g>
<!-- Node6 -->
<g id="node6" class="node"><title>Node6</title>
<g id="a_node6"><a xlink:href="libmorse_8cpp.html#a9fdfce728595d72b78dc7c834ab99a40" target="_top" xlink:title="Transmit a literal Morse code value. ">
<polygon fill="white" stroke="black" points="723.5,-494.5 723.5,-513.5 774.5,-513.5 774.5,-494.5 723.5,-494.5"/>
<text text-anchor="middle" x="749" y="-501.5" font-family="Helvetica,sans-Serif" font-size="10.00">txLiteral</text>
</a>
</g>
</g>
<!-- Node2&#45;&gt;Node6 -->
<g id="edge5" class="edge"><title>Node2&#45;&gt;Node6</title>
<path fill="none" stroke="midnightblue" d="M169.194,-418.549C184.945,-431.374 215.082,-453.738 245,-464 412.698,-521.52 629.605,-513.094 713.113,-507.041"/>
<polygon fill="midnightblue" stroke="midnightblue" points="713.605,-510.514 723.31,-506.264 713.073,-503.534 713.605,-510.514"/>
</g>
<!-- Node16 -->
<g id="node16" class="node"><title>Node16</title>
<g id="a_node16"><a xlink:href="libmorse_8cpp.html#acd4b292f5e412ee4f05aed9dafbc072d" target="_top" xlink:title="Convert an ASCII character into Morse code and transmit it. ">
<polygon fill="white" stroke="black" points="594.5,-456.5 594.5,-475.5 644.5,-475.5 644.5,-456.5 594.5,-456.5"/>
<text text-anchor="middle" x="619.5" y="-463.5" font-family="Helvetica,sans-Serif" font-size="10.00">txLetter</text>
</a>
</g>
</g>
<!-- Node2&#45;&gt;Node16 -->
<g id="edge17" class="edge"><title>Node2&#45;&gt;Node16</title>
<path fill="none" stroke="midnightblue" d="M178.215,-418.649C195.519,-426.421 221.318,-436.869 245,-442 367.416,-468.522 517.252,-468.71 583.802,-467.185"/>
<polygon fill="midnightblue" stroke="midnightblue" points="584.217,-470.675 594.123,-466.918 584.036,-463.678 584.217,-470.675"/>
</g>
<!-- Node17 -->
<g id="node17" class="node"><title>Node17</title>
<g id="a_node17"><a xlink:href="teensy3__morse__bsp_8cpp.html#a8761e874366e227690fba2964e1bc445" target="_top" xlink:title="getInternalTemperatureC">
<polygon fill="white" stroke="black" points="399.5,-285.5 399.5,-304.5 524.5,-304.5 524.5,-285.5 399.5,-285.5"/>
<text text-anchor="middle" x="462" y="-292.5" font-family="Helvetica,sans-Serif" font-size="10.00">getInternalTemperatureC</text>
</a>
</g>
</g>
<!-- Node2&#45;&gt;Node17 -->
<g id="edge20" class="edge"><title>Node2&#45;&gt;Node17</title>
<path fill="none" stroke="midnightblue" d="M161.818,-399.246C171.538,-375.964 199.701,-317.413 245,-295 298.121,-268.717 367.979,-274.887 413.661,-283.456"/>
<polygon fill="midnightblue" stroke="midnightblue" points="413.103,-286.913 423.593,-285.428 414.467,-280.048 413.103,-286.913"/>
</g>
<!-- Node18 -->
<g id="node18" class="node"><title>Node18</title>
<g id="a_node18"><a xlink:href="libmorse_8cpp.html#a47abdd74b66d7180c47d192bab8bdccb" target="_top" xlink:title="Transmit an unsigned integer in Morse code. ">
<polygon fill="white" stroke="black" points="429,-342.5 429,-361.5 495,-361.5 495,-342.5 429,-342.5"/>
<text text-anchor="middle" x="462" y="-349.5" font-family="Helvetica,sans-Serif" font-size="10.00">txUnsigned</text>
</a>
</g>
</g>
<!-- Node2&#45;&gt;Node18 -->
<g id="edge21" class="edge"><title>Node2&#45;&gt;Node18</title>
<path fill="none" stroke="midnightblue" d="M175.393,-399.387C192.54,-390.403 219.766,-377.437 245,-371 304.096,-355.925 374.904,-352.321 418.93,-351.706"/>
<polygon fill="midnightblue" stroke="midnightblue" points="419.016,-355.206 428.983,-351.612 418.95,-348.206 419.016,-355.206"/>
</g>
<!-- Node19 -->
<g id="node19" class="node"><title>Node19</title>
<g id="a_node19"><a xlink:href="actions_8cpp.html#aed718ec1bd4cc7adb2f65d40a6784496" target="_top" xlink:title="Transmit the internal temperature in integer in Fahrenheit. ">
<polygon fill="white" stroke="black" points="245,-304.5 245,-323.5 363,-323.5 363,-304.5 245,-304.5"/>
<text text-anchor="middle" x="304" y="-311.5" font-family="Helvetica,sans-Serif" font-size="10.00">txInternalTemperatureF</text>
</a>
</g>
</g>
<!-- Node2&#45;&gt;Node19 -->
<g id="edge24" class="edge"><title>Node2&#45;&gt;Node19</title>
<path fill="none" stroke="midnightblue" d="M167.717,-399.435C183.074,-384.714 214.371,-356.294 245,-338 251.496,-334.12 258.736,-330.579 265.837,-327.479"/>
<polygon fill="midnightblue" stroke="midnightblue" points="267.455,-330.597 275.352,-323.534 264.774,-324.13 267.455,-330.597"/>
</g>
<!-- Node20 -->
<g id="node20" class="node"><title>Node20</title>
<g id="a_node20"><a xlink:href="actions_8cpp.html#aaabb3ac0c23f35a499bc17efe829f326" target="_top" xlink:title="Transmit the 24&#45;hr time. ">
<polygon fill="white" stroke="black" points="265,-570.5 265,-589.5 343,-589.5 343,-570.5 265,-570.5"/>
<text text-anchor="middle" x="304" y="-577.5" font-family="Helvetica,sans-Serif" font-size="10.00">txTimeHHMM</text>
</a>
</g>
</g>
<!-- Node2&#45;&gt;Node20 -->
<g id="edge27" class="edge"><title>Node2&#45;&gt;Node20</title>
<path fill="none" stroke="midnightblue" d="M162.334,-418.571C172.077,-444.548 198.566,-514.161 245,-552 254.026,-559.355 265.989,-563.897 276.705,-567.397"/>
<polygon fill="midnightblue" stroke="midnightblue" points="275.871,-570.804 286.461,-570.491 277.987,-564.131 275.871,-570.804"/>
</g>
<!-- Node21 -->
<g id="node21" class="node"><title>Node21</title>
<g id="a_node21"><a xlink:href="actions_8cpp.html#ad02149679fa3cc6a4957d1a318408ffd" target="_top" xlink:title="Transmit the uptime. ">
<polygon fill="white" stroke="black" points="276,-380.5 276,-399.5 332,-399.5 332,-380.5 276,-380.5"/>
<text text-anchor="middle" x="304" y="-387.5" font-family="Helvetica,sans-Serif" font-size="10.00">txUptime</text>
</a>
</g>
</g>
<!-- Node2&#45;&gt;Node21 -->
<g id="edge29" class="edge"><title>Node2&#45;&gt;Node21</title>
<path fill="none" stroke="midnightblue" d="M182.27,-405.82C205.045,-402.835 239.442,-398.328 265.703,-394.887"/>
<polygon fill="midnightblue" stroke="midnightblue" points="266.224,-398.349 275.684,-393.579 265.314,-391.408 266.224,-398.349"/>
</g>
<!-- Node23 -->
<g id="node23" class="node"><title>Node23</title>
<g id="a_node23"><a xlink:href="teensy3__morse__bsp_8cpp.html#ae8dd28759e56dbd2ee9bc9ae96d1783c" target="_top" xlink:title="Return the most recent ADC measurement of the input voltage. Perform analog to digital conversion on ...">
<polygon fill="white" stroke="black" points="267,-532.5 267,-551.5 341,-551.5 341,-532.5 267,-532.5"/>
<text text-anchor="middle" x="304" y="-539.5" font-family="Helvetica,sans-Serif" font-size="10.00">readMillivolts</text>
</a>
</g>
</g>
<!-- Node2&#45;&gt;Node23 -->
<g id="edge32" class="edge"><title>Node2&#45;&gt;Node23</title>
<path fill="none" stroke="midnightblue" d="M163.473,-418.813C175.594,-439.74 206.684,-489.188 245,-518 250.259,-521.954 256.263,-525.378 262.368,-528.302"/>
<polygon fill="midnightblue" stroke="midnightblue" points="261.389,-531.694 271.954,-532.49 264.191,-525.279 261.389,-531.694"/>
</g>
<!-- Node27 -->
<g id="node27" class="node"><title>Node27</title>
<g id="a_node27"><a xlink:href="libmorse_8cpp.html#ac3f000c98271c6d0a7710135e18189bc" target="_top" xlink:title="On my hardware there is cross&#45;coupling between the serial port and the touch sensors. Without the code below, long messages to the serial port trigger a touch input. ">
<polygon fill="white" stroke="black" points="429.5,-190.5 429.5,-209.5 494.5,-209.5 494.5,-190.5 429.5,-190.5"/>
<text text-anchor="middle" x="462" y="-197.5" font-family="Helvetica,sans-Serif" font-size="10.00">flushTouch</text>
</a>
</g>
</g>
<!-- Node2&#45;&gt;Node27 -->
<g id="edge36" class="edge"><title>Node2&#45;&gt;Node27</title>
<path fill="none" stroke="midnightblue" d="M159.268,-399.264C163.935,-367.776 183.224,-268.19 245,-224 296.211,-187.367 372.442,-188.296 419.312,-193.382"/>
<polygon fill="midnightblue" stroke="midnightblue" points="419.074,-196.878 429.419,-194.593 419.907,-189.928 419.074,-196.878"/>
</g>
<!-- Node4 -->
<g id="node4" class="node"><title>Node4</title>
<g id="a_node4"><a xlink:href="teensy3__morse__bsp_8cpp.html#af6899cd9b83df54106b259ab81ea5cb2" target="_top" xlink:title="touchMargin">
<polygon fill="white" stroke="black" points="714,-209.5 714,-228.5 784,-228.5 784,-209.5 714,-209.5"/>
<text text-anchor="middle" x="749" y="-216.5" font-family="Helvetica,sans-Serif" font-size="10.00">touchMargin</text>
</a>
</g>
</g>
<!-- Node3&#45;&gt;Node4 -->
<g id="edge3" class="edge"><title>Node3&#45;&gt;Node4</title>
<path fill="none" stroke="midnightblue" d="M648.166,-219C664.281,-219 684.984,-219 703.355,-219"/>
<polygon fill="midnightblue" stroke="midnightblue" points="703.562,-222.5 713.562,-219 703.562,-215.5 703.562,-222.5"/>
</g>
<!-- Node6&#45;&gt;Node5 -->
<g id="edge14" class="edge"><title>Node6&#45;&gt;Node5</title>
<path fill="none" stroke="midnightblue" d="M761.865,-513.713C775.768,-525.083 799.512,-544.463 820,-561 828.999,-568.263 838.99,-576.265 847.478,-583.045"/>
<polygon fill="midnightblue" stroke="midnightblue" points="845.373,-585.843 855.372,-589.345 849.739,-580.372 845.373,-585.843"/>
</g>
<!-- Node7 -->
<g id="node7" class="node"><title>Node7</title>
<g id="a_node7"><a xlink:href="class_morse_token.html#a48cd72aeb868391449d1f51c1d0bf5cc" target="_top" xlink:title="Treat code == 0 as the error token. ">
<polygon fill="white" stroke="black" points="820,-494.5 820,-513.5 917,-513.5 917,-494.5 820,-494.5"/>
<text text-anchor="middle" x="868.5" y="-501.5" font-family="Helvetica,sans-Serif" font-size="10.00">MorseToken::valid</text>
</a>
</g>
</g>
<!-- Node6&#45;&gt;Node7 -->
<g id="edge6" class="edge"><title>Node6&#45;&gt;Node7</title>
<path fill="none" stroke="midnightblue" d="M774.632,-504C784.831,-504 797.13,-504 809.391,-504"/>
<polygon fill="midnightblue" stroke="midnightblue" points="809.635,-507.5 819.635,-504 809.635,-500.5 809.635,-507.5"/>
</g>
<!-- Node8 -->
<g id="node8" class="node"><title>Node8</title>
<g id="a_node8"><a xlink:href="teensy3__morse__bsp_8cpp.html#af66e71e3fac9b6a2c6532bc8a513bfde" target="_top" xlink:title="Output a square wave on pin 10 at the given frequency for the given duration. ">
<polygon fill="white" stroke="black" points="849.5,-456.5 849.5,-475.5 887.5,-475.5 887.5,-456.5 849.5,-456.5"/>
<text text-anchor="middle" x="868.5" y="-463.5" font-family="Helvetica,sans-Serif" font-size="10.00">beep</text>
</a>
</g>
</g>
<!-- Node6&#45;&gt;Node8 -->
<g id="edge7" class="edge"><title>Node6&#45;&gt;Node8</title>
<path fill="none" stroke="midnightblue" d="M774.632,-496.034C793.657,-489.881 819.988,-481.366 839.755,-474.973"/>
<polygon fill="midnightblue" stroke="midnightblue" points="840.982,-478.254 849.42,-471.847 838.828,-471.594 840.982,-478.254"/>
</g>
<!-- Node14 -->
<g id="node14" class="node"><title>Node14</title>
<g id="a_node14"><a xlink:href="settings_8cpp.html#a8575b9b52638114a4f32d1462cf9b7c1" target="_top" xlink:title="Get the transmission frequency (side tone). ">
<polygon fill="white" stroke="black" points="841.5,-532.5 841.5,-551.5 895.5,-551.5 895.5,-532.5 841.5,-532.5"/>
<text text-anchor="middle" x="868.5" y="-539.5" font-family="Helvetica,sans-Serif" font-size="10.00">getTxHz</text>
</a>
</g>
</g>
<!-- Node6&#45;&gt;Node14 -->
<g id="edge13" class="edge"><title>Node6&#45;&gt;Node14</title>
<path fill="none" stroke="midnightblue" d="M774.632,-511.966C791.174,-517.316 813.239,-524.452 831.711,-530.426"/>
<polygon fill="midnightblue" stroke="midnightblue" points="830.677,-533.77 841.269,-533.517 832.831,-527.109 830.677,-533.77"/>
</g>
<!-- Node15 -->
<g id="node15" class="node"><title>Node15</title>
<g id="a_node15"><a xlink:href="libmorse_8cpp.html#ab94e088615119d1faae7df22ce50aedf" target="_top" xlink:title="Transmit a Morse code prosign indicating an error. ">
<polygon fill="white" stroke="black" points="845.5,-418.5 845.5,-437.5 891.5,-437.5 891.5,-418.5 845.5,-418.5"/>
<text text-anchor="middle" x="868.5" y="-425.5" font-family="Helvetica,sans-Serif" font-size="10.00">txError</text>
</a>
</g>
</g>
<!-- Node6&#45;&gt;Node15 -->
<g id="edge15" class="edge"><title>Node6&#45;&gt;Node15</title>
<path fill="none" stroke="midnightblue" d="M764.524,-494.352C770.664,-490.119 777.812,-484.987 784,-480 800.9,-466.381 801.624,-458.552 820,-447 824.888,-443.927 830.355,-441.19 835.794,-438.816"/>
<polygon fill="midnightblue" stroke="midnightblue" points="837.45,-441.922 845.419,-434.941 834.836,-435.429 837.45,-441.922"/>
</g>
<!-- Node9 -->
<g id="node9" class="node"><title>Node9</title>
<g id="a_node9"><a xlink:href="teensy3__morse__bsp_8cpp.html#a6f674d5b9985ea3a7eeb0df299c2e405" target="_top" xlink:title="pollEarphonePresent">
<polygon fill="white" stroke="black" points="953,-475.5 953,-494.5 1060,-494.5 1060,-475.5 953,-475.5"/>
<text text-anchor="middle" x="1006.5" y="-482.5" font-family="Helvetica,sans-Serif" font-size="10.00">pollEarphonePresent</text>
</a>
</g>
</g>
<!-- Node8&#45;&gt;Node9 -->
<g id="edge8" class="edge"><title>Node8&#45;&gt;Node9</title>
<path fill="none" stroke="midnightblue" d="M887.56,-468.523C901.777,-470.509 922.484,-473.402 942.594,-476.212"/>
<polygon fill="midnightblue" stroke="midnightblue" points="942.313,-479.706 952.701,-477.624 943.282,-472.774 942.313,-479.706"/>
</g>
<!-- Node8&#45;&gt;Node10 -->
<g id="edge9" class="edge"><title>Node8&#45;&gt;Node10</title>
<path fill="none" stroke="midnightblue" d="M887.925,-462.031C897.532,-459.185 908.929,-454.493 917,-447 966.251,-401.277 991.423,-322.238 1000.92,-285.642"/>
<polygon fill="midnightblue" stroke="midnightblue" points="1004.37,-286.279 1003.37,-275.731 997.572,-284.598 1004.37,-286.279"/>
</g>
<!-- Node8&#45;&gt;Node11 -->
<g id="edge10" class="edge"><title>Node8&#45;&gt;Node11</title>
<path fill="none" stroke="midnightblue" d="M887.861,-463.107C897.939,-460.56 909.814,-455.81 917,-447 974.085,-377.01 894.759,-316.031 953,-247 956.633,-242.694 961.323,-239.364 966.402,-236.788"/>
<polygon fill="midnightblue" stroke="midnightblue" points="967.901,-239.956 975.822,-232.92 965.242,-233.481 967.901,-239.956"/>
</g>
<!-- Node13 -->
<g id="node13" class="node"><title>Node13</title>
<g id="a_node13"><a xlink:href="teensy3__morse__bsp_8cpp.html#a6c982a7d7805f1dd5426eb98c915cfdd" target="_top" xlink:title="Turn the red LED on (1) or off (0). ">
<polygon fill="white" stroke="black" points="981.5,-437.5 981.5,-456.5 1031.5,-456.5 1031.5,-437.5 981.5,-437.5"/>
<text text-anchor="middle" x="1006.5" y="-444.5" font-family="Helvetica,sans-Serif" font-size="10.00">redLED</text>
</a>
</g>
</g>
<!-- Node8&#45;&gt;Node13 -->
<g id="edge12" class="edge"><title>Node8&#45;&gt;Node13</title>
<path fill="none" stroke="midnightblue" d="M887.56,-463.477C908.865,-460.5 944.747,-455.488 971.35,-451.771"/>
<polygon fill="midnightblue" stroke="midnightblue" points="971.978,-455.217 981.398,-450.367 971.01,-448.285 971.978,-455.217"/>
</g>
<!-- Node12 -->
<g id="node12" class="node"><title>Node12</title>
<g id="a_node12"><a xlink:href="teensy3__morse__bsp_8cpp.html#ac70998cee1bf97f00aec4a1b4e5a4f60" target="_top" xlink:title="isEarphonePresent">
<polygon fill="white" stroke="black" points="1096,-218.5 1096,-237.5 1195,-237.5 1195,-218.5 1096,-218.5"/>
<text text-anchor="middle" x="1145.5" y="-225.5" font-family="Helvetica,sans-Serif" font-size="10.00">isEarphonePresent</text>
</a>
</g>
</g>
<!-- Node11&#45;&gt;Node12 -->
<g id="edge11" class="edge"><title>Node11&#45;&gt;Node12</title>
<path fill="none" stroke="midnightblue" d="M1037.23,-228C1051.43,-228 1068.96,-228 1085.7,-228"/>
<polygon fill="midnightblue" stroke="midnightblue" points="1085.98,-231.5 1095.98,-228 1085.98,-224.5 1085.98,-231.5"/>
</g>
<!-- Node15&#45;&gt;Node2 -->
<g id="edge16" class="edge"><title>Node15&#45;&gt;Node2</title>
<path fill="none" stroke="midnightblue" d="M845.359,-428C802.133,-428 703.477,-428 620.5,-428 461,-428 461,-428 461,-428 363.453,-428 248.587,-418.07 192.425,-412.567"/>
<polygon fill="midnightblue" stroke="midnightblue" points="192.616,-409.069 182.318,-411.562 191.923,-416.035 192.616,-409.069"/>
</g>
<!-- Node16&#45;&gt;Node6 -->
<g id="edge18" class="edge"><title>Node16&#45;&gt;Node6</title>
<path fill="none" stroke="midnightblue" d="M644.782,-473.237C664.242,-479.037 691.793,-487.248 713.536,-493.728"/>
<polygon fill="midnightblue" stroke="midnightblue" points="712.791,-497.158 723.374,-496.661 714.791,-490.45 712.791,-497.158"/>
</g>
<!-- Node16&#45;&gt;Node15 -->
<g id="edge19" class="edge"><title>Node16&#45;&gt;Node15</title>
<path fill="none" stroke="midnightblue" d="M644.625,-462.615C676.543,-458.102 734.544,-449.775 784,-442 800.871,-439.348 819.628,-436.219 835.084,-433.593"/>
<polygon fill="midnightblue" stroke="midnightblue" points="835.924,-437 845.192,-431.867 834.746,-430.1 835.924,-437"/>
</g>
<!-- Node18&#45;&gt;Node3 -->
<g id="edge22" class="edge"><title>Node18&#45;&gt;Node3</title>
<path fill="none" stroke="midnightblue" d="M481.131,-342.438C493.918,-335.332 511.164,-324.998 525,-314 555.434,-289.809 586.191,-256.455 603.739,-236.384"/>
<polygon fill="midnightblue" stroke="midnightblue" points="606.523,-238.515 610.412,-228.66 601.226,-233.939 606.523,-238.515"/>
</g>
<!-- Node18&#45;&gt;Node16 -->
<g id="edge23" class="edge"><title>Node18&#45;&gt;Node16</title>
<path fill="none" stroke="midnightblue" d="M495.192,-358.601C505.19,-361.491 515.953,-365.511 525,-371 558.757,-391.482 589.051,-426.863 605.502,-448.184"/>
<polygon fill="midnightblue" stroke="midnightblue" points="602.862,-450.496 611.675,-456.376 608.453,-446.283 602.862,-450.496"/>
</g>
<!-- Node19&#45;&gt;Node17 -->
<g id="edge25" class="edge"><title>Node19&#45;&gt;Node17</title>
<path fill="none" stroke="midnightblue" d="M363.089,-306.925C371.711,-305.875 380.682,-304.782 389.54,-303.704"/>
<polygon fill="midnightblue" stroke="midnightblue" points="389.964,-307.178 399.467,-302.494 389.117,-300.229 389.964,-307.178"/>
</g>
<!-- Node19&#45;&gt;Node18 -->
<g id="edge26" class="edge"><title>Node19&#45;&gt;Node18</title>
<path fill="none" stroke="midnightblue" d="M344.365,-323.589C367.167,-329.143 395.861,-336.133 419.083,-341.789"/>
<polygon fill="midnightblue" stroke="midnightblue" points="418.451,-345.238 428.996,-344.204 420.108,-338.437 418.451,-345.238"/>
</g>
<!-- Node20&#45;&gt;Node2 -->
<g id="edge28" class="edge"><title>Node20&#45;&gt;Node2</title>
<path fill="none" stroke="midnightblue" d="M264.744,-580.721C257.692,-578.229 250.75,-574.685 245,-570 198.634,-532.217 172.155,-462.752 162.377,-428.519"/>
<polygon fill="midnightblue" stroke="midnightblue" points="165.728,-427.499 159.785,-418.728 158.961,-429.29 165.728,-427.499"/>
</g>
<!-- Node21&#45;&gt;Node18 -->
<g id="edge31" class="edge"><title>Node21&#45;&gt;Node18</title>
<path fill="none" stroke="midnightblue" d="M332.173,-383.381C356.119,-377.548 391.386,-368.957 418.968,-362.238"/>
<polygon fill="midnightblue" stroke="midnightblue" points="419.86,-365.624 428.748,-359.856 418.203,-358.823 419.86,-365.624"/>
</g>
<!-- Node22 -->
<g id="node22" class="node"><title>Node22</title>
<g id="a_node22"><a xlink:href="settings_8cpp.html#a7b4efa097b94f9a90c5bbafcdf93fe4f" target="_top" xlink:title="getUptime">
<polygon fill="white" stroke="black" points="431,-380.5 431,-399.5 493,-399.5 493,-380.5 431,-380.5"/>
<text text-anchor="middle" x="462" y="-387.5" font-family="Helvetica,sans-Serif" font-size="10.00">getUptime</text>
</a>
</g>
</g>
<!-- Node21&#45;&gt;Node22 -->
<g id="edge30" class="edge"><title>Node21&#45;&gt;Node22</title>
<path fill="none" stroke="midnightblue" d="M332.173,-390C356.633,-390 392.905,-390 420.735,-390"/>
<polygon fill="midnightblue" stroke="midnightblue" points="420.945,-393.5 430.945,-390 420.945,-386.5 420.945,-393.5"/>
</g>
<!-- Node24 -->
<g id="node24" class="node"><title>Node24</title>
<g id="a_node24"><a xlink:href="class_voltage_monitor.html#a70902b84f9864c95d5553a0644a64f4f" target="_top" xlink:title="Return the latest voltage reading. ">
<polygon fill="white" stroke="black" points="399,-532.5 399,-551.5 525,-551.5 525,-532.5 399,-532.5"/>
<text text-anchor="middle" x="462" y="-539.5" font-family="Helvetica,sans-Serif" font-size="10.00">VoltageMonitor::getValue</text>
</a>
</g>
</g>
<!-- Node23&#45;&gt;Node24 -->
<g id="edge33" class="edge"><title>Node23&#45;&gt;Node24</title>
<path fill="none" stroke="midnightblue" d="M341.182,-542C355.344,-542 372.117,-542 388.56,-542"/>
<polygon fill="midnightblue" stroke="midnightblue" points="388.728,-545.5 398.728,-542 388.728,-538.5 388.728,-545.5"/>
</g>
<!-- Node25 -->
<g id="node25" class="node"><title>Node25</title>
<g id="a_node25"><a xlink:href="actions_8cpp.html#a2b8c3769e2aa32a2da9e2f3f85ac73dd" target="_top" xlink:title="A sample ADC reading is taken each time through the main loop, and written to a ring buffer...">
<polygon fill="white" stroke="black" points="563.5,-532.5 563.5,-551.5 675.5,-551.5 675.5,-532.5 563.5,-532.5"/>
<text text-anchor="middle" x="619.5" y="-539.5" font-family="Helvetica,sans-Serif" font-size="10.00">getVoltagePollInterval</text>
</a>
</g>
</g>
<!-- Node24&#45;&gt;Node25 -->
<g id="edge34" class="edge"><title>Node24&#45;&gt;Node25</title>
<path fill="none" stroke="midnightblue" d="M525.352,-542C534.438,-542 543.816,-542 552.963,-542"/>
<polygon fill="midnightblue" stroke="midnightblue" points="553.163,-545.5 563.163,-542 553.163,-538.5 553.163,-545.5"/>
</g>
<!-- Node26 -->
<g id="node26" class="node"><title>Node26</title>
<g id="a_node26"><a xlink:href="class_voltage_monitor.html#a75871331808c34b40d04059ee2af0f27" target="_top" xlink:title="Filter and scale raw ADC values to millivolts. ">
<polygon fill="white" stroke="black" points="561,-570.5 561,-589.5 678,-589.5 678,-570.5 561,-570.5"/>
<text text-anchor="middle" x="619.5" y="-577.5" font-family="Helvetica,sans-Serif" font-size="10.00">VoltageMonitor::update</text>
</a>
</g>
</g>
<!-- Node24&#45;&gt;Node26 -->
<g id="edge35" class="edge"><title>Node24&#45;&gt;Node26</title>
<path fill="none" stroke="midnightblue" d="M502.239,-551.589C522.759,-556.604 548.067,-562.788 569.825,-568.105"/>
<polygon fill="midnightblue" stroke="midnightblue" points="568.998,-571.506 579.543,-570.48 570.66,-564.706 568.998,-571.506"/>
</g>
<!-- Node27&#45;&gt;Node3 -->
<g id="edge37" class="edge"><title>Node27&#45;&gt;Node3</title>
<path fill="none" stroke="midnightblue" d="M494.843,-203.891C519.788,-206.939 554.554,-211.187 580.872,-214.402"/>
<polygon fill="midnightblue" stroke="midnightblue" points="580.513,-217.884 590.864,-215.623 581.362,-210.936 580.513,-217.884"/>
</g>
</g>
</svg>
        <g id="navigator" transform="translate(0 0)" fill="#404254">
                <rect fill="#f2f5e9" fill-opacity="0.5" stroke="#606060" stroke-width=".5" x="0" y="0" width="60" height="60"/>
                <use id="zoomplus" xlink:href="#zoomPlus" x="17" y="9" onmousedown="handleZoom(evt,'in')"/>
                <use id="zoomminus" xlink:href="#zoomMin" x="42" y="9" onmousedown="handleZoom(evt,'out')"/>
                <use id="reset" xlink:href="#resetDef" x="30" y="36" onmousedown="handleReset()"/>
                <g id="arrowUp" xlink:href="#dirArrow" transform="translate(30 24)" onmousedown="handlePan(0,-1)">
                  <use xlink:href="#rim" fill="#404040">
                        <set attributeName="fill" to="#808080" begin="arrowUp.mouseover" end="arrowUp.mouseout"/>
                  </use>
                  <path fill="none" stroke="white" stroke-width="1.5" d="M0,-3.0v7 M-2.5,-0.5L0,-3.0L2.5,-0.5"/>
                </g>
                <g id="arrowRight" xlink:href="#dirArrow" transform="rotate(90) translate(36 -43)" onmousedown="handlePan(1,0)">
                  <use xlink:href="#rim" fill="#404040">
                        <set attributeName="fill" to="#808080" begin="arrowRight.mouseover" end="arrowRight.mouseout"/>
                  </use>
                  <path fill="none" stroke="white" stroke-width="1.5" d="M0,-3.0v7 M-2.5,-0.5L0,-3.0L2.5,-0.5"/>
                </g>
                <g id="arrowDown" xlink:href="#dirArrow" transform="rotate(180) translate(-30 -48)" onmousedown="handlePan(0,1)">
                  <use xlink:href="#rim" fill="#404040">
                        <set attributeName="fill" to="#808080" begin="arrowDown.mouseover" end="arrowDown.mouseout"/>
                  </use>
                  <path fill="none" stroke="white" stroke-width="1.5" d="M0,-3.0v7 M-2.5,-0.5L0,-3.0L2.5,-0.5"/>
                </g>
                <g id="arrowLeft" xlink:href="#dirArrow" transform="rotate(270) translate(-36 17)" onmousedown="handlePan(-1,0)">
                  <use xlink:href="#rim" fill="#404040">
                        <set attributeName="fill" to="#808080" begin="arrowLeft.mouseover" end="arrowLeft.mouseout"/>
                  </use>
                  <path fill="none" stroke="white" stroke-width="1.5" d="M0,-3.0v7 M-2.5,-0.5L0,-3.0L2.5,-0.5"/>
                </g>
        </g>
        <svg viewBox="0 0 15 15" width="100%" height="30px" preserveAspectRatio="xMaxYMin meet">
         <g id="arrow_out" transform="scale(0.3 0.3)">
          <a xlink:href="actions_8cpp_aa39383c189ec39df4fe9337c5edc98c2_cgraph_org.svg" target="_base">
           <rect id="button" ry="5" rx="5" y="6" x="6" height="38" width="38"
                fill="#f2f5e9" fill-opacity="0.5" stroke="#606060" stroke-width="1.0"/>
           <path id="arrow"
             d="M 11.500037,31.436501 C 11.940474,20.09759 22.043105,11.32322 32.158766,21.979434 L 37.068811,17.246167 C 37.068811,17.246167 37.088388,32 37.088388,32 L 22.160133,31.978069 C 22.160133,31.978069 26.997745,27.140456 26.997745,27.140456 C 18.528582,18.264221 13.291696,25.230495 11.500037,31.436501 z"
             style="fill:#404040;"/>
          </a>
         </g>
        </svg>
</svg>
