<?xml version="1.0" encoding="UTF-8" standalone="no"?>
<!DOCTYPE svg PUBLIC "-//W3C//DTD SVG 1.1//EN"
 "http://www.w3.org/Graphics/SVG/1.1/DTD/svg11.dtd">
<!-- Generated by graphviz version 2.38.0 (20140413.2041)
 -->
<!-- Title: txTock Pages: 1 -->
<svg width="449pt" height="104pt"
 viewBox="0.00 0.00 449.00 104.00" xmlns="http://www.w3.org/2000/svg" xmlns:xlink="http://www.w3.org/1999/xlink">
<g id="graph0" class="graph" transform="scale(1 1) rotate(0) translate(4 100)">
<title>txTock</title>
<polygon fill="white" stroke="none" points="-4,4 -4,-100 445,-100 445,4 -4,4"/>
<!-- Node1 -->
<g id="node1" class="node"><title>Node1</title>
<polygon fill="#bfbfbf" stroke="black" points="0,-19.5 0,-38.5 47,-38.5 47,-19.5 0,-19.5"/>
<text text-anchor="middle" x="23.5" y="-26.5" font-family="Helvetica,sans-Serif" font-size="10.00">txTock</text>
</g>
<!-- Node2 -->
<g id="node2" class="node"><title>Node2</title>
<g id="a_node2"><a xlink:href="sound_8cpp.html#a77ffd11f8a990ba2130061186e49535a" target="_top" xlink:title="Play a PWM tone at a given frequency and duration. ">
<polygon fill="white" stroke="black" points="107,-38.5 107,-57.5 163,-57.5 163,-38.5 107,-38.5"/>
<text text-anchor="middle" x="135" y="-45.5" font-family="Helvetica,sans-Serif" font-size="10.00">playTone</text>
</a>
</g>
</g>
<!-- Node1&#45;&gt;Node2 -->
<g id="edge1" class="edge"><title>Node1&#45;&gt;Node2</title>
<path fill="none" stroke="midnightblue" d="M47.1885,-32.9368C61.5063,-35.4212 80.3409,-38.6893 96.8063,-41.5463"/>
<polygon fill="midnightblue" stroke="midnightblue" points="96.2395,-45.0002 106.691,-43.2614 97.4363,-38.1032 96.2395,-45.0002"/>
</g>
<!-- Node7 -->
<g id="node7" class="node"><title>Node7</title>
<g id="a_node7"><a xlink:href="settings_8cpp.html#ad02597259b5753e0c98605bce44a9fc8" target="_top" xlink:title="Get the default dit duration in microseconds. ">
<polygon fill="white" stroke="black" points="83,-0.5 83,-19.5 187,-19.5 187,-0.5 83,-0.5"/>
<text text-anchor="middle" x="135" y="-7.5" font-family="Helvetica,sans-Serif" font-size="10.00">getDitMicrosDefault</text>
</a>
</g>
</g>
<!-- Node1&#45;&gt;Node7 -->
<g id="edge6" class="edge"><title>Node1&#45;&gt;Node7</title>
<path fill="none" stroke="midnightblue" d="M47.1885,-25.0632C54.825,-23.7381 63.7465,-22.1901 72.9081,-20.6004"/>
<polygon fill="midnightblue" stroke="midnightblue" points="73.6398,-24.0258 82.8942,-18.8677 72.443,-17.1289 73.6398,-24.0258"/>
</g>
<!-- Node3 -->
<g id="node3" class="node"><title>Node3</title>
<g id="a_node3"><a xlink:href="teensy3__morse__bsp_8cpp.html#a2d6b4ace33ed5e497dedd03217540c63" target="_top" xlink:title="Set the PWM frequency for the audio output pins. ">
<polygon fill="white" stroke="black" points="223,-76.5 223,-95.5 306,-95.5 306,-76.5 223,-76.5"/>
<text text-anchor="middle" x="264.5" y="-83.5" font-family="Helvetica,sans-Serif" font-size="10.00">pwmFrequency</text>
</a>
</g>
</g>
<!-- Node2&#45;&gt;Node3 -->
<g id="edge2" class="edge"><title>Node2&#45;&gt;Node3</title>
<path fill="none" stroke="midnightblue" d="M163.039,-56.0588C180.095,-61.1422 202.47,-67.8105 221.773,-73.5636"/>
<polygon fill="midnightblue" stroke="midnightblue" points="220.959,-76.9733 231.542,-76.4754 222.959,-70.2649 220.959,-76.9733"/>
</g>
<!-- Node4 -->
<g id="node4" class="node"><title>Node4</title>
<g id="a_node4"><a xlink:href="teensy3__morse__bsp_8cpp.html#a82911eac3bf13d6f36d10102a4c4d3c4" target="_top" xlink:title="Generate a tone on the audio output pins. ">
<polygon fill="white" stroke="black" points="234,-38.5 234,-57.5 295,-57.5 295,-38.5 234,-38.5"/>
<text text-anchor="middle" x="264.5" y="-45.5" font-family="Helvetica,sans-Serif" font-size="10.00">pwmWrite</text>
</a>
</g>
</g>
<!-- Node2&#45;&gt;Node4 -->
<g id="edge3" class="edge"><title>Node2&#45;&gt;Node4</title>
<path fill="none" stroke="midnightblue" d="M163.039,-48C180.637,-48 203.895,-48 223.601,-48"/>
<polygon fill="midnightblue" stroke="midnightblue" points="223.828,-51.5001 233.828,-48 223.828,-44.5001 223.828,-51.5001"/>
</g>
<!-- Node6 -->
<g id="node6" class="node"><title>Node6</title>
<g id="a_node6"><a xlink:href="teensy3__morse__bsp_8cpp.html#a36cda3a6dd77f2141cfc703c55a47ff8" target="_top" xlink:title="getDuty">
<polygon fill="white" stroke="black" points="239,-0.5 239,-19.5 290,-19.5 290,-0.5 239,-0.5"/>
<text text-anchor="middle" x="264.5" y="-7.5" font-family="Helvetica,sans-Serif" font-size="10.00">getDuty</text>
</a>
</g>
</g>
<!-- Node2&#45;&gt;Node6 -->
<g id="edge5" class="edge"><title>Node2&#45;&gt;Node6</title>
<path fill="none" stroke="midnightblue" d="M163.039,-39.9412C182.262,-34.2121 208.24,-26.4697 228.963,-20.2934"/>
<polygon fill="midnightblue" stroke="midnightblue" points="230.078,-23.6134 238.661,-17.4029 228.078,-16.905 230.078,-23.6134"/>
</g>
<!-- Node5 -->
<g id="node5" class="node"><title>Node5</title>
<g id="a_node5"><a xlink:href="teensy3__morse__bsp_8cpp.html#ac70998cee1bf97f00aec4a1b4e5a4f60" target="_top" xlink:title="isEarphonePresent">
<polygon fill="white" stroke="black" points="342,-38.5 342,-57.5 441,-57.5 441,-38.5 342,-38.5"/>
<text text-anchor="middle" x="391.5" y="-45.5" font-family="Helvetica,sans-Serif" font-size="10.00">isEarphonePresent</text>
</a>
</g>
</g>
<!-- Node4&#45;&gt;Node5 -->
<g id="edge4" class="edge"><title>Node4&#45;&gt;Node5</title>
<path fill="none" stroke="midnightblue" d="M295.123,-48C306.061,-48 318.876,-48 331.501,-48"/>
<polygon fill="midnightblue" stroke="midnightblue" points="331.545,-51.5001 341.545,-48 331.545,-44.5001 331.545,-51.5001"/>
</g>
</g>
</svg>
