<?xml version="1.0" encoding="UTF-8" standalone="no"?>
<!DOCTYPE svg PUBLIC "-//W3C//DTD SVG 1.1//EN"
 "http://www.w3.org/Graphics/SVG/1.1/DTD/svg11.dtd">
<!-- Generated by graphviz version 2.38.0 (20140413.2041)
 -->
<!-- Title: readEdit Pages: 1 -->
<svg width="420pt" height="66pt"
 viewBox="0.00 0.00 420.00 66.00" xmlns="http://www.w3.org/2000/svg" xmlns:xlink="http://www.w3.org/1999/xlink">
<g id="graph0" class="graph" transform="scale(1 1) rotate(0) translate(4 62)">
<title>readEdit</title>
<polygon fill="white" stroke="none" points="-4,4 -4,-62 416,-62 416,4 -4,4"/>
<!-- Node1 -->
<g id="node1" class="node"><title>Node1</title>
<polygon fill="#bfbfbf" stroke="black" points="0,-19.5 0,-38.5 53,-38.5 53,-19.5 0,-19.5"/>
<text text-anchor="middle" x="26.5" y="-26.5" font-family="Helvetica,sans-Serif" font-size="10.00">readEdit</text>
</g>
<!-- Node2 -->
<g id="node2" class="node"><title>Node2</title>
<g id="a_node2"><a xlink:href="actions_8h.html#a2ad756bcfcbe405b56b23e3b640b49d2" target="_top" xlink:title="Read a string from the serial terminal up to a return or the end of the buffer. Return false if timeo...">
<polygon fill="white" stroke="black" points="97.5,-38.5 97.5,-57.5 150.5,-57.5 150.5,-38.5 97.5,-38.5"/>
<text text-anchor="middle" x="124" y="-45.5" font-family="Helvetica,sans-Serif" font-size="10.00">readLine</text>
</a>
</g>
</g>
<!-- Node1&#45;&gt;Node2 -->
<g id="edge1" class="edge"><title>Node1&#45;&gt;Node2</title>
<path fill="none" stroke="midnightblue" d="M63.1616,-36.095C74.5122,-38.3532 86.8382,-40.8055 97.3371,-42.8943"/>
<polygon fill="midnightblue" stroke="midnightblue" points="63.583,-32.6103 53.0922,-34.0917 62.217,-39.4757 63.583,-32.6103"/>
</g>
<!-- Node5 -->
<g id="node5" class="node"><title>Node5</title>
<g id="a_node5"><a xlink:href="actions_8h.html#ac48ed1c3e6c7cccae93b47d7e6f2f888" target="_top" xlink:title="readNumber">
<polygon fill="white" stroke="black" points="89,-0.5 89,-19.5 159,-19.5 159,-0.5 89,-0.5"/>
<text text-anchor="middle" x="124" y="-7.5" font-family="Helvetica,sans-Serif" font-size="10.00">readNumber</text>
</a>
</g>
</g>
<!-- Node1&#45;&gt;Node5 -->
<g id="edge4" class="edge"><title>Node1&#45;&gt;Node5</title>
<path fill="none" stroke="midnightblue" d="M63.0019,-21.9368C71.41,-20.264 80.3613,-18.4831 88.7141,-16.8213"/>
<polygon fill="midnightblue" stroke="midnightblue" points="62.217,-18.5243 53.0922,-23.9083 63.583,-25.3897 62.217,-18.5243"/>
</g>
<!-- Node3 -->
<g id="node3" class="node"><title>Node3</title>
<g id="a_node3"><a xlink:href="settings_8h.html#a76fe6d50deae647113180dc5f9f844c6" target="_top" xlink:title="Get a message format from the serial console. ">
<polygon fill="white" stroke="black" points="195,-38.5 195,-57.5 301,-57.5 301,-38.5 195,-38.5"/>
<text text-anchor="middle" x="248" y="-45.5" font-family="Helvetica,sans-Serif" font-size="10.00">readMessageFormat</text>
</a>
</g>
</g>
<!-- Node2&#45;&gt;Node3 -->
<g id="edge2" class="edge"><title>Node2&#45;&gt;Node3</title>
<path fill="none" stroke="midnightblue" d="M160.758,-48C171.419,-48 183.329,-48 194.813,-48"/>
<polygon fill="midnightblue" stroke="midnightblue" points="160.575,-44.5001 150.575,-48 160.575,-51.5001 160.575,-44.5001"/>
</g>
<!-- Node4 -->
<g id="node4" class="node"><title>Node4</title>
<g id="a_node4"><a xlink:href="actions_8h.html#a9c9466bf6676f35ff08e8dc33518e483" target="_top" xlink:title="Respond to commands from the serial port. ">
<polygon fill="white" stroke="black" points="337,-19.5 337,-38.5 412,-38.5 412,-19.5 337,-19.5"/>
<text text-anchor="middle" x="374.5" y="-26.5" font-family="Helvetica,sans-Serif" font-size="10.00">readEvalPrint</text>
</a>
</g>
</g>
<!-- Node3&#45;&gt;Node4 -->
<g id="edge3" class="edge"><title>Node3&#45;&gt;Node4</title>
<path fill="none" stroke="midnightblue" d="M310.995,-38.5389C319.815,-37.1929 328.642,-35.8459 336.767,-34.6059"/>
<polygon fill="midnightblue" stroke="midnightblue" points="310.435,-35.0837 301.078,-40.0524 311.491,-42.0036 310.435,-35.0837"/>
</g>
<!-- Node6 -->
<g id="node6" class="node"><title>Node6</title>
<g id="a_node6"><a xlink:href="actions_8h.html#a578278ac08b3288454ac5a86fbb15d76" target="_top" xlink:title="Prompt for a value from the serial port. ">
<polygon fill="white" stroke="black" points="216,-0.5 216,-19.5 280,-19.5 280,-0.5 216,-0.5"/>
<text text-anchor="middle" x="248" y="-7.5" font-family="Helvetica,sans-Serif" font-size="10.00">readRange</text>
</a>
</g>
</g>
<!-- Node5&#45;&gt;Node6 -->
<g id="edge5" class="edge"><title>Node5&#45;&gt;Node6</title>
<path fill="none" stroke="midnightblue" d="M169.643,-10C184.99,-10 201.829,-10 215.866,-10"/>
<polygon fill="midnightblue" stroke="midnightblue" points="169.308,-6.5001 159.308,-10 169.308,-13.5001 169.308,-6.5001"/>
</g>
<!-- Node6&#45;&gt;Node4 -->
<g id="edge6" class="edge"><title>Node6&#45;&gt;Node4</title>
<path fill="none" stroke="midnightblue" d="M290.135,-16.2776C305.138,-18.5672 321.997,-21.1401 336.608,-23.3699"/>
<polygon fill="midnightblue" stroke="midnightblue" points="290.509,-12.7943 280.095,-14.7455 289.453,-19.7142 290.509,-12.7943"/>
</g>
</g>
</svg>
