<?xml version="1.0" encoding="UTF-8" standalone="no"?>
<!DOCTYPE svg PUBLIC "-//W3C//DTD SVG 1.1//EN"
 "http://www.w3.org/Graphics/SVG/1.1/DTD/svg11.dtd">
<!-- Generated by graphviz version 2.38.0 (20140413.2041)
 -->
<!-- Title: getIntervalForState Pages: 1 -->
<svg width="272pt" height="66pt"
 viewBox="0.00 0.00 272.00 66.00" xmlns="http://www.w3.org/2000/svg" xmlns:xlink="http://www.w3.org/1999/xlink">
<g id="graph0" class="graph" transform="scale(1 1) rotate(0) translate(4 62)">
<title>getIntervalForState</title>
<polygon fill="white" stroke="none" points="-4,4 -4,-62 268,-62 268,4 -4,4"/>
<!-- Node1 -->
<g id="node1" class="node"><title>Node1</title>
<polygon fill="#bfbfbf" stroke="black" points="0,-19.5 0,-38.5 100,-38.5 100,-19.5 0,-19.5"/>
<text text-anchor="middle" x="50" y="-26.5" font-family="Helvetica,sans-Serif" font-size="10.00">getIntervalForState</text>
</g>
<!-- Node2 -->
<g id="node2" class="node"><title>Node2</title>
<g id="a_node2"><a xlink:href="settings_8cpp.html#a09b2a494a5b9fec41d2cbb6c34484cc0" target="_top" xlink:title="Set the repetition inteval in seconds of when in the alarm state. ">
<polygon fill="white" stroke="black" points="156,-38.5 156,-57.5 244,-57.5 244,-38.5 156,-38.5"/>
<text text-anchor="middle" x="200" y="-45.5" font-family="Helvetica,sans-Serif" font-size="10.00">getAlarmInterval</text>
</a>
</g>
</g>
<!-- Node1&#45;&gt;Node2 -->
<g id="edge1" class="edge"><title>Node1&#45;&gt;Node2</title>
<path fill="none" stroke="midnightblue" d="M100.282,-35.3267C114.903,-37.2037 130.978,-39.2675 145.834,-41.1746"/>
<polygon fill="midnightblue" stroke="midnightblue" points="145.527,-44.6638 155.891,-42.4657 146.418,-37.7208 145.527,-44.6638"/>
</g>
<!-- Node3 -->
<g id="node3" class="node"><title>Node3</title>
<g id="a_node3"><a xlink:href="settings_8cpp.html#ab38fd90c96469830fd799d88bc8099a6" target="_top" xlink:title="Get the normal announcement interval in seconds. ">
<polygon fill="white" stroke="black" points="136,-0.5 136,-19.5 264,-19.5 264,-0.5 136,-0.5"/>
<text text-anchor="middle" x="200" y="-7.5" font-family="Helvetica,sans-Serif" font-size="10.00">getAnnouncementInterval</text>
</a>
</g>
</g>
<!-- Node1&#45;&gt;Node3 -->
<g id="edge2" class="edge"><title>Node1&#45;&gt;Node3</title>
<path fill="none" stroke="midnightblue" d="M100.282,-22.6733C108.502,-21.6181 117.181,-20.5038 125.845,-19.3916"/>
<polygon fill="midnightblue" stroke="midnightblue" points="126.507,-22.8354 135.98,-18.0904 125.616,-15.8923 126.507,-22.8354"/>
</g>
</g>
</svg>
