<?xml version="1.0" encoding="UTF-8" standalone="no"?>
<!DOCTYPE svg PUBLIC "-//W3C//DTD SVG 1.1//EN"
 "http://www.w3.org/Graphics/SVG/1.1/DTD/svg11.dtd">
<!-- Generated by graphviz version 2.38.0 (20140413.2041)
 -->
<!-- Title: actions.h Pages: 1 -->
<svg width="653pt" height="140pt"
 viewBox="0.00 0.00 653.00 140.00" xmlns="http://www.w3.org/2000/svg" xmlns:xlink="http://www.w3.org/1999/xlink">
<g id="graph0" class="graph" transform="scale(1 1) rotate(0) translate(4 136)">
<title>actions.h</title>
<polygon fill="white" stroke="none" points="-4,4 -4,-136 649,-136 649,4 -4,4"/>
<!-- Node1 -->
<g id="node1" class="node"><title>Node1</title>
<polygon fill="#bfbfbf" stroke="black" points="297.5,-112.5 297.5,-131.5 353.5,-131.5 353.5,-112.5 297.5,-112.5"/>
<text text-anchor="middle" x="325.5" y="-119.5" font-family="Helvetica,sans-Serif" font-size="10.00">actions.h</text>
</g>
<!-- Node2 -->
<g id="node2" class="node"><title>Node2</title>
<g id="a_node2"><a xlink:href="actions_8cpp.html" target="_top" xlink:title="Implementation of application&#45;specific actions. ">
<polygon fill="white" stroke="black" points="0,-56.5 0,-75.5 67,-75.5 67,-56.5 0,-56.5"/>
<text text-anchor="middle" x="33.5" y="-63.5" font-family="Helvetica,sans-Serif" font-size="10.00">actions.cpp</text>
</a>
</g>
</g>
<!-- Node1&#45;&gt;Node2 -->
<g id="edge1" class="edge"><title>Node1&#45;&gt;Node2</title>
<path fill="none" stroke="midnightblue" d="M287.319,-114.436C238.4,-105.949 151.015,-90.5286 76.5,-76 73.5056,-75.4162 70.3971,-74.795 67.2833,-74.1626"/>
<polygon fill="midnightblue" stroke="midnightblue" points="286.996,-117.932 297.446,-116.189 288.19,-111.035 286.996,-117.932"/>
</g>
<!-- Node3 -->
<g id="node3" class="node"><title>Node3</title>
<g id="a_node3"><a xlink:href="libmorse_8cpp.html" target="_top" xlink:title="Implementation of Morse code operations. ">
<polygon fill="white" stroke="black" points="85.5,-56.5 85.5,-75.5 157.5,-75.5 157.5,-56.5 85.5,-56.5"/>
<text text-anchor="middle" x="121.5" y="-63.5" font-family="Helvetica,sans-Serif" font-size="10.00">libmorse.cpp</text>
</a>
</g>
</g>
<!-- Node1&#45;&gt;Node3 -->
<g id="edge2" class="edge"><title>Node1&#45;&gt;Node3</title>
<path fill="none" stroke="midnightblue" d="M287.318,-110.893C248.771,-100.689 189.897,-85.105 153.656,-75.5118"/>
<polygon fill="midnightblue" stroke="midnightblue" points="286.572,-114.316 297.135,-113.492 288.363,-107.549 286.572,-114.316"/>
</g>
<!-- Node4 -->
<g id="node4" class="node"><title>Node4</title>
<g id="a_node4"><a xlink:href="morse__digit_8cpp.html" target="_top" xlink:title="Implementation of decimal digit to Morse code conversion. ">
<polygon fill="white" stroke="black" points="175.5,-56.5 175.5,-75.5 261.5,-75.5 261.5,-56.5 175.5,-56.5"/>
<text text-anchor="middle" x="218.5" y="-63.5" font-family="Helvetica,sans-Serif" font-size="10.00">morse_digit.cpp</text>
</a>
</g>
</g>
<!-- Node1&#45;&gt;Node4 -->
<g id="edge3" class="edge"><title>Node1&#45;&gt;Node4</title>
<path fill="none" stroke="midnightblue" d="M299.198,-107.726C279.385,-97.7271 252.793,-84.3065 235.649,-75.6545"/>
<polygon fill="midnightblue" stroke="midnightblue" points="297.804,-110.943 308.309,-112.324 300.958,-104.694 297.804,-110.943"/>
</g>
<!-- Node5 -->
<g id="node5" class="node"><title>Node5</title>
<g id="a_node5"><a xlink:href="morse__token_8cpp.html" target="_top" xlink:title="Implementation of Morse code operations. ">
<polygon fill="white" stroke="black" points="279.5,-56.5 279.5,-75.5 371.5,-75.5 371.5,-56.5 279.5,-56.5"/>
<text text-anchor="middle" x="325.5" y="-63.5" font-family="Helvetica,sans-Serif" font-size="10.00">morse_token.cpp</text>
</a>
</g>
</g>
<!-- Node1&#45;&gt;Node5 -->
<g id="edge4" class="edge"><title>Node1&#45;&gt;Node5</title>
<path fill="none" stroke="midnightblue" d="M325.5,-101.805C325.5,-92.9102 325.5,-82.7798 325.5,-75.7511"/>
<polygon fill="midnightblue" stroke="midnightblue" points="322,-102.083 325.5,-112.083 329,-102.083 322,-102.083"/>
</g>
<!-- Node6 -->
<g id="node6" class="node"><title>Node6</title>
<g id="a_node6"><a xlink:href="pda_8cpp.html" target="_top" xlink:title="Implementation of Personal Digital Assistant functions. ">
<polygon fill="white" stroke="black" points="390,-56.5 390,-75.5 441,-75.5 441,-56.5 390,-56.5"/>
<text text-anchor="middle" x="415.5" y="-63.5" font-family="Helvetica,sans-Serif" font-size="10.00">pda.cpp</text>
</a>
</g>
</g>
<!-- Node1&#45;&gt;Node6 -->
<g id="edge5" class="edge"><title>Node1&#45;&gt;Node6</title>
<path fill="none" stroke="midnightblue" d="M348.538,-107.177C365.099,-97.2407 386.918,-84.1492 401.076,-75.6545"/>
<polygon fill="midnightblue" stroke="midnightblue" points="346.734,-104.178 339.96,-112.324 350.336,-110.18 346.734,-104.178"/>
</g>
<!-- Node7 -->
<g id="node7" class="node"><title>Node7</title>
<g id="a_node7"><a xlink:href="stack_8cpp.html" target="_top" xlink:title="Implementation of Stack&#45;related convenience functions. ">
<polygon fill="white" stroke="black" points="459,-56.5 459,-75.5 518,-75.5 518,-56.5 459,-56.5"/>
<text text-anchor="middle" x="488.5" y="-63.5" font-family="Helvetica,sans-Serif" font-size="10.00">stack.cpp</text>
</a>
</g>
</g>
<!-- Node1&#45;&gt;Node7 -->
<g id="edge6" class="edge"><title>Node1&#45;&gt;Node7</title>
<path fill="none" stroke="midnightblue" d="M361.203,-109.172C391.896,-99.0039 435.419,-84.5852 462.793,-75.5164"/>
<polygon fill="midnightblue" stroke="midnightblue" points="359.72,-105.976 351.328,-112.444 361.921,-112.621 359.72,-105.976"/>
</g>
<!-- Node8 -->
<g id="node8" class="node"><title>Node8</title>
<g id="a_node8"><a xlink:href="voltage__monitor_8h.html" target="_top" xlink:title="Trivial co&#45;routine to gather and filter ADC samples. ">
<polygon fill="white" stroke="black" points="536.5,-56.5 536.5,-75.5 630.5,-75.5 630.5,-56.5 536.5,-56.5"/>
<text text-anchor="middle" x="583.5" y="-63.5" font-family="Helvetica,sans-Serif" font-size="10.00">voltage_monitor.h</text>
</a>
</g>
</g>
<!-- Node1&#45;&gt;Node8 -->
<g id="edge7" class="edge"><title>Node1&#45;&gt;Node8</title>
<path fill="none" stroke="midnightblue" d="M363.579,-113.03C411.528,-102.994 493.568,-85.823 542.746,-75.5299"/>
<polygon fill="midnightblue" stroke="midnightblue" points="362.673,-109.644 353.602,-115.118 364.107,-116.495 362.673,-109.644"/>
</g>
<!-- Node9 -->
<g id="node9" class="node"><title>Node9</title>
<g id="a_node9"><a xlink:href="teensy3__morse__bsp_8cpp.html" target="_top" xlink:title="Implementation of Teensy 3.0 board support package. ">
<polygon fill="white" stroke="black" points="522,-0.5 522,-19.5 645,-19.5 645,-0.5 522,-0.5"/>
<text text-anchor="middle" x="583.5" y="-7.5" font-family="Helvetica,sans-Serif" font-size="10.00">teensy3_morse_bsp.cpp</text>
</a>
</g>
</g>
<!-- Node8&#45;&gt;Node9 -->
<g id="edge8" class="edge"><title>Node8&#45;&gt;Node9</title>
<path fill="none" stroke="midnightblue" d="M583.5,-45.8045C583.5,-36.9102 583.5,-26.7798 583.5,-19.7511"/>
<polygon fill="midnightblue" stroke="midnightblue" points="580,-46.083 583.5,-56.083 587,-46.083 580,-46.083"/>
</g>
</g>
</svg>
