<?xml version="1.0" encoding="UTF-8" standalone="no"?>
<!DOCTYPE svg PUBLIC "-//W3C//DTD SVG 1.1//EN"
 "http://www.w3.org/Graphics/SVG/1.1/DTD/svg11.dtd">
<!-- Generated by graphviz version 2.38.0 (20140413.2041)
 -->
<!-- Title: restoreActions Pages: 1 -->
<svg width="320pt" height="104pt"
 viewBox="0.00 0.00 320.00 104.00" xmlns="http://www.w3.org/2000/svg" xmlns:xlink="http://www.w3.org/1999/xlink">
<g id="graph0" class="graph" transform="scale(1 1) rotate(0) translate(4 100)">
<title>restoreActions</title>
<polygon fill="white" stroke="none" points="-4,4 -4,-100 316,-100 316,4 -4,4"/>
<!-- Node1 -->
<g id="node1" class="node"><title>Node1</title>
<polygon fill="#bfbfbf" stroke="black" points="0,-19.5 0,-38.5 80,-38.5 80,-19.5 0,-19.5"/>
<text text-anchor="middle" x="40" y="-26.5" font-family="Helvetica,sans-Serif" font-size="10.00">restoreActions</text>
</g>
<!-- Node2 -->
<g id="node2" class="node"><title>Node2</title>
<g id="a_node2"><a xlink:href="actions_8h.html#ad07e1d9a717a212364090e192e951ea5" target="_top" xlink:title="push1RestoreAll">
<polygon fill="white" stroke="black" points="116,-38.5 116,-57.5 205,-57.5 205,-38.5 116,-38.5"/>
<text text-anchor="middle" x="160.5" y="-45.5" font-family="Helvetica,sans-Serif" font-size="10.00">push1RestoreAll</text>
</a>
</g>
</g>
<!-- Node1&#45;&gt;Node2 -->
<g id="edge1" class="edge"><title>Node1&#45;&gt;Node2</title>
<path fill="none" stroke="midnightblue" d="M90.0251,-36.8606C98.6082,-38.2368 107.487,-39.6603 115.91,-41.0109"/>
<polygon fill="midnightblue" stroke="midnightblue" points="90.5578,-33.4013 80.1297,-35.274 89.4495,-40.3131 90.5578,-33.4013"/>
</g>
<!-- Node5 -->
<g id="node5" class="node"><title>Node5</title>
<g id="a_node5"><a xlink:href="pda_8h.html#a15825e7325bc5cdbd18cf2c6055baef1" target="_top" xlink:title="gradeRestore">
<polygon fill="white" stroke="black" points="123,-0.5 123,-19.5 198,-19.5 198,-0.5 123,-0.5"/>
<text text-anchor="middle" x="160.5" y="-7.5" font-family="Helvetica,sans-Serif" font-size="10.00">gradeRestore</text>
</a>
</g>
</g>
<!-- Node1&#45;&gt;Node5 -->
<g id="edge4" class="edge"><title>Node1&#45;&gt;Node5</title>
<path fill="none" stroke="midnightblue" d="M90.0251,-21.1394C100.997,-19.3803 112.45,-17.5438 122.82,-15.8812"/>
<polygon fill="midnightblue" stroke="midnightblue" points="89.4495,-17.6869 80.1297,-22.726 90.5578,-24.5987 89.4495,-17.6869"/>
</g>
<!-- Node3 -->
<g id="node3" class="node"><title>Node3</title>
<g id="a_node3"><a xlink:href="pda_8h.html#a5218392624b017b817b80d6b16ea920d" target="_top" xlink:title="askNextAlfa">
<polygon fill="white" stroke="black" points="241,-76.5 241,-95.5 312,-95.5 312,-76.5 241,-76.5"/>
<text text-anchor="middle" x="276.5" y="-83.5" font-family="Helvetica,sans-Serif" font-size="10.00">askNextAlfa</text>
</a>
</g>
</g>
<!-- Node2&#45;&gt;Node3 -->
<g id="edge2" class="edge"><title>Node2&#45;&gt;Node3</title>
<path fill="none" stroke="midnightblue" d="M199.978,-60.8259C215.274,-65.9247 232.567,-71.6891 246.742,-76.4141"/>
<polygon fill="midnightblue" stroke="midnightblue" points="200.861,-57.431 190.267,-57.589 198.647,-64.0717 200.861,-57.431"/>
</g>
<!-- Node4 -->
<g id="node4" class="node"><title>Node4</title>
<g id="a_node4"><a xlink:href="pda_8h.html#a1dc125d402fe76077cb4d166ac0fbf7a" target="_top" xlink:title="askNext">
<polygon fill="white" stroke="black" points="250,-38.5 250,-57.5 303,-57.5 303,-38.5 250,-38.5"/>
<text text-anchor="middle" x="276.5" y="-45.5" font-family="Helvetica,sans-Serif" font-size="10.00">askNext</text>
</a>
</g>
</g>
<!-- Node2&#45;&gt;Node4 -->
<g id="edge3" class="edge"><title>Node2&#45;&gt;Node4</title>
<path fill="none" stroke="midnightblue" d="M215.279,-48C227.33,-48 239.573,-48 249.845,-48"/>
<polygon fill="midnightblue" stroke="midnightblue" points="215.249,-44.5001 205.249,-48 215.249,-51.5001 215.249,-44.5001"/>
</g>
<!-- Node6 -->
<g id="node6" class="node"><title>Node6</title>
<g id="a_node6"><a xlink:href="pda_8h.html#abf2e0c8c523ed9ddee8a9194c9800b99" target="_top" xlink:title="askSum">
<polygon fill="white" stroke="black" points="250,-0.5 250,-19.5 303,-19.5 303,-0.5 250,-0.5"/>
<text text-anchor="middle" x="276.5" y="-7.5" font-family="Helvetica,sans-Serif" font-size="10.00">askSum</text>
</a>
</g>
</g>
<!-- Node5&#45;&gt;Node6 -->
<g id="edge5" class="edge"><title>Node5&#45;&gt;Node6</title>
<path fill="none" stroke="midnightblue" d="M208.295,-10C222.444,-10 237.46,-10 249.701,-10"/>
<polygon fill="midnightblue" stroke="midnightblue" points="208.198,-6.5001 198.198,-10 208.198,-13.5001 208.198,-6.5001"/>
</g>
</g>
</svg>
