<?xml version="1.0" encoding="UTF-8" standalone="no"?>
<!DOCTYPE svg PUBLIC "-//W3C//DTD SVG 1.1//EN"
 "http://www.w3.org/Graphics/SVG/1.1/DTD/svg11.dtd">
<!-- Generated by graphviz version 2.38.0 (20140413.2041)
 -->
<!-- Title: getVersion Pages: 1 -->
<svg width="286pt" height="66pt"
 viewBox="0.00 0.00 286.00 66.00" xmlns="http://www.w3.org/2000/svg" xmlns:xlink="http://www.w3.org/1999/xlink">
<g id="graph0" class="graph" transform="scale(1 1) rotate(0) translate(4 62)">
<title>getVersion</title>
<polygon fill="white" stroke="none" points="-4,4 -4,-62 282,-62 282,4 -4,4"/>
<!-- Node1 -->
<g id="node1" class="node"><title>Node1</title>
<polygon fill="#bfbfbf" stroke="black" points="0,-19.5 0,-38.5 63,-38.5 63,-19.5 0,-19.5"/>
<text text-anchor="middle" x="31.5" y="-26.5" font-family="Helvetica,sans-Serif" font-size="10.00">getVersion</text>
</g>
<!-- Node2 -->
<g id="node2" class="node"><title>Node2</title>
<g id="a_node2"><a xlink:href="actions_8h.html#a7cb54685ddb3c45facf6daadcc4a5f4b" target="_top" xlink:title="Report the current settings and sensor values via the serial port. ">
<polygon fill="white" stroke="black" points="99,-19.5 99,-38.5 150,-38.5 150,-19.5 99,-19.5"/>
<text text-anchor="middle" x="124.5" y="-26.5" font-family="Helvetica,sans-Serif" font-size="10.00">printLog</text>
</a>
</g>
</g>
<!-- Node1&#45;&gt;Node2 -->
<g id="edge1" class="edge"><title>Node1&#45;&gt;Node2</title>
<path fill="none" stroke="midnightblue" d="M73.1713,-29C81.9517,-29 90.9747,-29 98.9125,-29"/>
<polygon fill="midnightblue" stroke="midnightblue" points="73.0549,-25.5001 63.0548,-29 73.0548,-32.5001 73.0549,-25.5001"/>
</g>
<!-- Node3 -->
<g id="node3" class="node"><title>Node3</title>
<g id="a_node3"><a xlink:href="actions_8h.html#a1fec7da4166b9612d2deec3d0262d60f" target="_top" xlink:title="dispatchOnStack">
<polygon fill="white" stroke="black" points="186,-38.5 186,-57.5 278,-57.5 278,-38.5 186,-38.5"/>
<text text-anchor="middle" x="232" y="-45.5" font-family="Helvetica,sans-Serif" font-size="10.00">dispatchOnStack</text>
</a>
</g>
</g>
<!-- Node2&#45;&gt;Node3 -->
<g id="edge2" class="edge"><title>Node2&#45;&gt;Node3</title>
<path fill="none" stroke="midnightblue" d="M160.165,-35.243C168.338,-36.7149 177.17,-38.3055 185.734,-39.8478"/>
<polygon fill="midnightblue" stroke="midnightblue" points="160.697,-31.7826 150.235,-33.4547 159.456,-38.6718 160.697,-31.7826"/>
</g>
<!-- Node4 -->
<g id="node4" class="node"><title>Node4</title>
<g id="a_node4"><a xlink:href="actions_8h.html#a9c9466bf6676f35ff08e8dc33518e483" target="_top" xlink:title="Respond to commands from the serial port. ">
<polygon fill="white" stroke="black" points="194.5,-0.5 194.5,-19.5 269.5,-19.5 269.5,-0.5 194.5,-0.5"/>
<text text-anchor="middle" x="232" y="-7.5" font-family="Helvetica,sans-Serif" font-size="10.00">readEvalPrint</text>
</a>
</g>
</g>
<!-- Node2&#45;&gt;Node4 -->
<g id="edge3" class="edge"><title>Node2&#45;&gt;Node4</title>
<path fill="none" stroke="midnightblue" d="M160.297,-22.7333C171.241,-20.7623 183.356,-18.5804 194.42,-16.5878"/>
<polygon fill="midnightblue" stroke="midnightblue" points="159.456,-19.3282 150.235,-24.5453 160.697,-26.2174 159.456,-19.3282"/>
</g>
</g>
</svg>
