<?xml version="1.0" encoding="UTF-8" standalone="no"?>
<!DOCTYPE svg PUBLIC "-//W3C//DTD SVG 1.1//EN"
 "http://www.w3.org/Graphics/SVG/1.1/DTD/svg11.dtd">
<!-- Generated by graphviz version 2.38.0 (20140413.2041)
 -->
<!-- Title: actions.cpp Pages: 1 -->
<svg width="1017pt" height="308pt"
 viewBox="0.00 0.00 1017.12 308.00" xmlns="http://www.w3.org/2000/svg" xmlns:xlink="http://www.w3.org/1999/xlink">
<g id="graph0" class="graph" transform="scale(1 1) rotate(0) translate(4 304)">
<title>actions.cpp</title>
<polygon fill="white" stroke="none" points="-4,4 -4,-304 1013.12,-304 1013.12,4 -4,4"/>
<!-- Node1 -->
<g id="node1" class="node"><title>Node1</title>
<polygon fill="#bfbfbf" stroke="black" points="599.12,-280.5 599.12,-299.5 666.12,-299.5 666.12,-280.5 599.12,-280.5"/>
<text text-anchor="middle" x="632.62" y="-287.5" font-family="Helvetica,sans-Serif" font-size="10.00">actions.cpp</text>
</g>
<!-- Node2 -->
<g id="node2" class="node"><title>Node2</title>
<polygon fill="white" stroke="#bfbfbf" points="100.62,-56.5 100.62,-75.5 158.62,-75.5 158.62,-56.5 100.62,-56.5"/>
<text text-anchor="middle" x="129.62" y="-63.5" font-family="Helvetica,sans-Serif" font-size="10.00">Arduino.h</text>
</g>
<!-- Node1&#45;&gt;Node2 -->
<g id="edge1" class="edge"><title>Node1&#45;&gt;Node2</title>
<path fill="none" stroke="midnightblue" d="M598.719,-288.117C480.597,-284.806 91.6963,-271.874 43.6203,-244 10.9497,-225.058 -10.5892,-202.109 5.62034,-168 25.4072,-126.363 71.6862,-96.2509 101.771,-80.2279"/>
<polygon fill="midnightblue" stroke="midnightblue" points="103.624,-83.2106 110.916,-75.5239 100.422,-76.9858 103.624,-83.2106"/>
</g>
<!-- Node3 -->
<g id="node3" class="node"><title>Node3</title>
<polygon fill="white" stroke="#bfbfbf" points="14.6203,-168.5 14.6203,-187.5 82.6203,-187.5 82.6203,-168.5 14.6203,-168.5"/>
<text text-anchor="middle" x="48.6203" y="-175.5" font-family="Helvetica,sans-Serif" font-size="10.00">EEPROM.h</text>
</g>
<!-- Node1&#45;&gt;Node3 -->
<g id="edge2" class="edge"><title>Node1&#45;&gt;Node3</title>
<path fill="none" stroke="midnightblue" d="M599,-288.775C481.928,-287.669 97.1111,-281.209 57.6203,-244 45.3306,-232.42 44.2549,-212.46 45.5276,-197.706"/>
<polygon fill="midnightblue" stroke="midnightblue" points="49.0151,-198.026 46.8118,-187.663 42.0716,-197.138 49.0151,-198.026"/>
</g>
<!-- Node4 -->
<g id="node4" class="node"><title>Node4</title>
<g id="a_node4"><a xlink:href="EEPROMAnything_8h.html" target="_top" xlink:title="Loads and stores arbitrary structures to non&#45;volatile memory. ">
<polygon fill="white" stroke="black" points="67.1203,-224.5 67.1203,-243.5 174.12,-243.5 174.12,-224.5 67.1203,-224.5"/>
<text text-anchor="middle" x="120.62" y="-231.5" font-family="Helvetica,sans-Serif" font-size="10.00">EEPROMAnything.h</text>
</a>
</g>
</g>
<!-- Node1&#45;&gt;Node4 -->
<g id="edge3" class="edge"><title>Node1&#45;&gt;Node4</title>
<path fill="none" stroke="midnightblue" d="M598.884,-285.936C524.648,-279.115 341.568,-261.868 188.62,-244 187.323,-243.848 186.012,-243.693 184.691,-243.535"/>
<polygon fill="midnightblue" stroke="midnightblue" points="184.775,-240.019 174.423,-242.275 183.922,-246.967 184.775,-240.019"/>
</g>
<!-- Node5 -->
<g id="node5" class="node"><title>Node5</title>
<g id="a_node5"><a xlink:href="settings_8h.html" target="_top" xlink:title="User settings. ">
<polygon fill="white" stroke="black" points="688.12,-224.5 688.12,-243.5 747.12,-243.5 747.12,-224.5 688.12,-224.5"/>
<text text-anchor="middle" x="717.62" y="-231.5" font-family="Helvetica,sans-Serif" font-size="10.00">settings.h</text>
</a>
</g>
</g>
<!-- Node1&#45;&gt;Node5 -->
<g id="edge6" class="edge"><title>Node1&#45;&gt;Node5</title>
<path fill="none" stroke="midnightblue" d="M646.277,-280.324C659.537,-271.9 679.888,-258.971 695.467,-249.074"/>
<polygon fill="midnightblue" stroke="midnightblue" points="697.434,-251.971 703.998,-243.655 693.68,-246.063 697.434,-251.971"/>
</g>
<!-- Node6 -->
<g id="node6" class="node"><title>Node6</title>
<g id="a_node6"><a xlink:href="actions_8h.html" target="_top" xlink:title="Application&#45;specific actions. ">
<polygon fill="white" stroke="black" points="460.62,-224.5 460.62,-243.5 516.62,-243.5 516.62,-224.5 460.62,-224.5"/>
<text text-anchor="middle" x="488.62" y="-231.5" font-family="Helvetica,sans-Serif" font-size="10.00">actions.h</text>
</a>
</g>
</g>
<!-- Node1&#45;&gt;Node6 -->
<g id="edge7" class="edge"><title>Node1&#45;&gt;Node6</title>
<path fill="none" stroke="midnightblue" d="M609.803,-280.444C585.789,-271.438 547.791,-257.189 520.751,-247.049"/>
<polygon fill="midnightblue" stroke="midnightblue" points="521.923,-243.751 511.331,-243.516 519.465,-250.305 521.923,-243.751"/>
</g>
<!-- Node13 -->
<g id="node13" class="node"><title>Node13</title>
<g id="a_node13"><a xlink:href="teensy3__morse__bsp_8h.html" target="_top" xlink:title="Teensy 3.0 board support package. ">
<polygon fill="white" stroke="black" points="177.12,-112.5 177.12,-131.5 290.12,-131.5 290.12,-112.5 177.12,-112.5"/>
<text text-anchor="middle" x="233.62" y="-119.5" font-family="Helvetica,sans-Serif" font-size="10.00">teensy3_morse_bsp.h</text>
</a>
</g>
</g>
<!-- Node1&#45;&gt;Node13 -->
<g id="edge32" class="edge"><title>Node1&#45;&gt;Node13</title>
<path fill="none" stroke="midnightblue" d="M599.112,-283.406C562.153,-276.613 501.331,-263.579 451.62,-244 375.507,-214.023 292.967,-162.364 254.969,-137.372"/>
<polygon fill="midnightblue" stroke="midnightblue" points="256.567,-134.232 246.299,-131.622 252.698,-140.066 256.567,-134.232"/>
</g>
<!-- Node16 -->
<g id="node16" class="node"><title>Node16</title>
<g id="a_node16"><a xlink:href="prosign_8h.html" target="_top" xlink:title="Prosign constants. ">
<polygon fill="white" stroke="black" points="690.62,-56.5 690.62,-75.5 746.62,-75.5 746.62,-56.5 690.62,-56.5"/>
<text text-anchor="middle" x="718.62" y="-63.5" font-family="Helvetica,sans-Serif" font-size="10.00">prosign.h</text>
</a>
</g>
</g>
<!-- Node1&#45;&gt;Node16 -->
<g id="edge30" class="edge"><title>Node1&#45;&gt;Node16</title>
<path fill="none" stroke="midnightblue" d="M638.379,-280.467C649.566,-263.536 674.387,-224.198 688.62,-188 702.363,-153.05 711.259,-109.888 715.564,-85.7038"/>
<polygon fill="midnightblue" stroke="midnightblue" points="719.031,-86.1961 717.266,-75.7494 712.131,-85.0168 719.031,-86.1961"/>
</g>
<!-- Node17 -->
<g id="node17" class="node"><title>Node17</title>
<g id="a_node17"><a xlink:href="mac_8h.html" target="_top" xlink:title="Platform&#45;specific code to retrieve the MAC address. ">
<polygon fill="white" stroke="black" points="765.62,-224.5 765.62,-243.5 809.62,-243.5 809.62,-224.5 765.62,-224.5"/>
<text text-anchor="middle" x="787.62" y="-231.5" font-family="Helvetica,sans-Serif" font-size="10.00">mac.h</text>
</a>
</g>
</g>
<!-- Node1&#45;&gt;Node17 -->
<g id="edge25" class="edge"><title>Node1&#45;&gt;Node17</title>
<path fill="none" stroke="midnightblue" d="M657.181,-280.444C683.754,-271.186 726.233,-256.387 755.453,-246.207"/>
<polygon fill="midnightblue" stroke="midnightblue" points="756.896,-249.41 765.188,-242.815 754.593,-242.8 756.896,-249.41"/>
</g>
<!-- Node18 -->
<g id="node18" class="node"><title>Node18</title>
<g id="a_node18"><a xlink:href="notes_8h.html" target="_top" xlink:title="Frequency values for equal&#45;tempered musical notes. ">
<polygon fill="white" stroke="black" points="828.12,-224.5 828.12,-243.5 877.12,-243.5 877.12,-224.5 828.12,-224.5"/>
<text text-anchor="middle" x="852.62" y="-231.5" font-family="Helvetica,sans-Serif" font-size="10.00">notes.h</text>
</a>
</g>
</g>
<!-- Node1&#45;&gt;Node18 -->
<g id="edge26" class="edge"><title>Node1&#45;&gt;Node18</title>
<path fill="none" stroke="midnightblue" d="M666.275,-281.086C701.606,-272.728 759.019,-259.005 817.909,-244.14"/>
<polygon fill="midnightblue" stroke="midnightblue" points="818.919,-247.495 827.754,-241.648 817.201,-240.709 818.919,-247.495"/>
</g>
<!-- Node19 -->
<g id="node19" class="node"><title>Node19</title>
<g id="a_node19"><a xlink:href="sound_8h.html" target="_top" xlink:title="PWM sound effects. ">
<polygon fill="white" stroke="black" points="580.12,-224.5 580.12,-243.5 631.12,-243.5 631.12,-224.5 580.12,-224.5"/>
<text text-anchor="middle" x="605.62" y="-231.5" font-family="Helvetica,sans-Serif" font-size="10.00">sound.h</text>
</a>
</g>
</g>
<!-- Node1&#45;&gt;Node19 -->
<g id="edge27" class="edge"><title>Node1&#45;&gt;Node19</title>
<path fill="none" stroke="midnightblue" d="M628.162,-280.083C624.466,-272.691 619.097,-261.953 614.526,-252.811"/>
<polygon fill="midnightblue" stroke="midnightblue" points="617.599,-251.13 609.996,-243.751 611.338,-254.261 617.599,-251.13"/>
</g>
<!-- Node21 -->
<g id="node21" class="node"><title>Node21</title>
<g id="a_node21"><a xlink:href="stack_8h.html" target="_top" xlink:title="Fixed&#45;sized stack for plain old data. ">
<polygon fill="white" stroke="black" points="895.12,-224.5 895.12,-243.5 944.12,-243.5 944.12,-224.5 895.12,-224.5"/>
<text text-anchor="middle" x="919.62" y="-231.5" font-family="Helvetica,sans-Serif" font-size="10.00">stack.h</text>
</a>
</g>
</g>
<!-- Node1&#45;&gt;Node21 -->
<g id="edge31" class="edge"><title>Node1&#45;&gt;Node21</title>
<path fill="none" stroke="midnightblue" d="M666.506,-284.001C713.524,-276.845 801.382,-262.689 884.915,-244.237"/>
<polygon fill="midnightblue" stroke="midnightblue" points="885.818,-247.621 894.815,-242.025 884.292,-240.79 885.818,-247.621"/>
</g>
<!-- Node22 -->
<g id="node22" class="node"><title>Node22</title>
<polygon fill="white" stroke="#bfbfbf" points="962.12,-224.5 962.12,-243.5 1009.12,-243.5 1009.12,-224.5 962.12,-224.5"/>
<text text-anchor="middle" x="985.62" y="-231.5" font-family="Helvetica,sans-Serif" font-size="10.00">Time.h</text>
</g>
<!-- Node1&#45;&gt;Node22 -->
<g id="edge33" class="edge"><title>Node1&#45;&gt;Node22</title>
<path fill="none" stroke="midnightblue" d="M666.149,-285.805C723.114,-280.053 842.537,-266.592 952.056,-244.104"/>
<polygon fill="midnightblue" stroke="midnightblue" points="952.867,-247.51 961.943,-242.043 951.439,-240.658 952.867,-247.51"/>
</g>
<!-- Node4&#45;&gt;Node2 -->
<g id="edge5" class="edge"><title>Node4&#45;&gt;Node2</title>
<path fill="none" stroke="midnightblue" d="M121.104,-224.075C122.521,-197.945 126.681,-121.211 128.613,-85.577"/>
<polygon fill="midnightblue" stroke="midnightblue" points="132.109,-85.743 129.156,-75.5681 125.119,-85.3639 132.109,-85.743"/>
</g>
<!-- Node4&#45;&gt;Node3 -->
<g id="edge4" class="edge"><title>Node4&#45;&gt;Node3</title>
<path fill="none" stroke="midnightblue" d="M109.052,-224.324C98.2002,-216.185 81.7397,-203.839 68.7369,-194.087"/>
<polygon fill="midnightblue" stroke="midnightblue" points="70.4989,-191.034 60.3989,-187.834 66.2989,-196.634 70.4989,-191.034"/>
</g>
<!-- Node6&#45;&gt;Node2 -->
<g id="edge8" class="edge"><title>Node6&#45;&gt;Node2</title>
<path fill="none" stroke="midnightblue" d="M460.581,-230.904C400.622,-225.104 258.053,-204.133 167.62,-132 152.325,-119.8 141.926,-99.6472 135.925,-85.0111"/>
<polygon fill="midnightblue" stroke="midnightblue" points="139.145,-83.6305 132.327,-75.5213 132.6,-86.1126 139.145,-83.6305"/>
</g>
<!-- Node7 -->
<g id="node7" class="node"><title>Node7</title>
<g id="a_node7"><a xlink:href="libmorse_8h.html" target="_top" xlink:title="Morse code operations. ">
<polygon fill="white" stroke="black" points="432.62,-168.5 432.62,-187.5 494.62,-187.5 494.62,-168.5 432.62,-168.5"/>
<text text-anchor="middle" x="463.62" y="-175.5" font-family="Helvetica,sans-Serif" font-size="10.00">libmorse.h</text>
</a>
</g>
</g>
<!-- Node6&#45;&gt;Node7 -->
<g id="edge9" class="edge"><title>Node6&#45;&gt;Node7</title>
<path fill="none" stroke="midnightblue" d="M484.492,-224.083C481.106,-216.77 476.204,-206.181 472.002,-197.103"/>
<polygon fill="midnightblue" stroke="midnightblue" points="475.049,-195.355 467.672,-187.751 468.697,-198.296 475.049,-195.355"/>
</g>
<!-- Node14 -->
<g id="node14" class="node"><title>Node14</title>
<g id="a_node14"><a xlink:href="morse__token_8h.html" target="_top" xlink:title="Defines the MorseToken class and various helpers. ">
<polygon fill="white" stroke="black" points="511.12,-112.5 511.12,-131.5 592.12,-131.5 592.12,-112.5 511.12,-112.5"/>
<text text-anchor="middle" x="551.62" y="-119.5" font-family="Helvetica,sans-Serif" font-size="10.00">morse_token.h</text>
</a>
</g>
</g>
<!-- Node6&#45;&gt;Node14 -->
<g id="edge24" class="edge"><title>Node6&#45;&gt;Node14</title>
<path fill="none" stroke="midnightblue" d="M493.564,-224.368C503.915,-206.296 528.037,-164.176 541.708,-140.307"/>
<polygon fill="midnightblue" stroke="midnightblue" points="544.767,-142.008 546.7,-131.591 538.693,-138.53 544.767,-142.008"/>
</g>
<!-- Node8 -->
<g id="node8" class="node"><title>Node8</title>
<g id="a_node8"><a xlink:href="binconst_8h.html" target="_top" xlink:title="Binary constant generator macro. ">
<polygon fill="white" stroke="black" points="624.62,-0.5 624.62,-19.5 686.62,-19.5 686.62,-0.5 624.62,-0.5"/>
<text text-anchor="middle" x="655.62" y="-7.5" font-family="Helvetica,sans-Serif" font-size="10.00">binconst.h</text>
</a>
</g>
</g>
<!-- Node7&#45;&gt;Node8 -->
<g id="edge10" class="edge"><title>Node7&#45;&gt;Node8</title>
<path fill="none" stroke="midnightblue" d="M466.821,-168.299C475.351,-146.281 500.731,-87.8494 540.62,-56 562.244,-38.7351 591.293,-27.4408 614.786,-20.4852"/>
<polygon fill="midnightblue" stroke="midnightblue" points="615.794,-23.8376 624.476,-17.7651 613.902,-17.0981 615.794,-23.8376"/>
</g>
<!-- Node9 -->
<g id="node9" class="node"><title>Node9</title>
<polygon fill="white" stroke="#bfbfbf" points="373.12,-112.5 373.12,-131.5 416.12,-131.5 416.12,-112.5 373.12,-112.5"/>
<text text-anchor="middle" x="394.62" y="-119.5" font-family="Helvetica,sans-Serif" font-size="10.00">cstdio</text>
</g>
<!-- Node7&#45;&gt;Node9 -->
<g id="edge11" class="edge"><title>Node7&#45;&gt;Node9</title>
<path fill="none" stroke="midnightblue" d="M452.534,-168.324C442.134,-160.185 426.36,-147.839 413.899,-138.087"/>
<polygon fill="midnightblue" stroke="midnightblue" points="415.94,-135.241 405.908,-131.834 411.626,-140.753 415.94,-135.241"/>
</g>
<!-- Node10 -->
<g id="node10" class="node"><title>Node10</title>
<polygon fill="white" stroke="#bfbfbf" points="308.62,-112.5 308.62,-131.5 354.62,-131.5 354.62,-112.5 308.62,-112.5"/>
<text text-anchor="middle" x="331.62" y="-119.5" font-family="Helvetica,sans-Serif" font-size="10.00">cstring</text>
</g>
<!-- Node7&#45;&gt;Node10 -->
<g id="edge12" class="edge"><title>Node7&#45;&gt;Node10</title>
<path fill="none" stroke="midnightblue" d="M442.705,-168.444C420.884,-159.517 386.471,-145.439 361.728,-135.317"/>
<polygon fill="midnightblue" stroke="midnightblue" points="363.019,-132.063 352.438,-131.516 360.369,-138.542 363.019,-132.063"/>
</g>
<!-- Node11 -->
<g id="node11" class="node"><title>Node11</title>
<polygon fill="white" stroke="#bfbfbf" points="616.62,-56.5 616.62,-75.5 672.62,-75.5 672.62,-56.5 616.62,-56.5"/>
<text text-anchor="middle" x="644.62" y="-63.5" font-family="Helvetica,sans-Serif" font-size="10.00">cinttypes</text>
</g>
<!-- Node7&#45;&gt;Node11 -->
<g id="edge13" class="edge"><title>Node7&#45;&gt;Node11</title>
<path fill="none" stroke="midnightblue" d="M494.88,-172.87C524.8,-167.609 569.942,-156.121 601.62,-132 617.733,-119.731 629.703,-99.5902 636.867,-84.9756"/>
<polygon fill="midnightblue" stroke="midnightblue" points="640.225,-86.0498 641.225,-75.5022 633.866,-83.1245 640.225,-86.0498"/>
</g>
<!-- Node12 -->
<g id="node12" class="node"><title>Node12</title>
<polygon fill="white" stroke="#bfbfbf" points="498.12,-0.5 498.12,-19.5 543.12,-19.5 543.12,-0.5 498.12,-0.5"/>
<text text-anchor="middle" x="520.62" y="-7.5" font-family="Helvetica,sans-Serif" font-size="10.00">climits</text>
</g>
<!-- Node7&#45;&gt;Node12 -->
<g id="edge14" class="edge"><title>Node7&#45;&gt;Node12</title>
<path fill="none" stroke="midnightblue" d="M461.731,-168.226C457.724,-147.475 450.171,-94.2539 468.62,-56 474.617,-43.5662 485.804,-33.1842 496.271,-25.5371"/>
<polygon fill="midnightblue" stroke="midnightblue" points="498.455,-28.2844 504.763,-19.7717 494.523,-22.493 498.455,-28.2844"/>
</g>
<!-- Node7&#45;&gt;Node13 -->
<g id="edge15" class="edge"><title>Node7&#45;&gt;Node13</title>
<path fill="none" stroke="midnightblue" d="M432.602,-169.717C393.387,-160.51 325.526,-144.578 280.106,-133.914"/>
<polygon fill="midnightblue" stroke="midnightblue" points="280.743,-130.468 270.208,-131.59 279.143,-137.283 280.743,-130.468"/>
</g>
<!-- Node7&#45;&gt;Node14 -->
<g id="edge17" class="edge"><title>Node7&#45;&gt;Node14</title>
<path fill="none" stroke="midnightblue" d="M477.759,-168.324C491.487,-159.9 512.557,-146.971 528.685,-137.074"/>
<polygon fill="midnightblue" stroke="midnightblue" points="530.824,-139.868 537.517,-131.655 527.163,-133.902 530.824,-139.868"/>
</g>
<!-- Node13&#45;&gt;Node2 -->
<g id="edge16" class="edge"><title>Node13&#45;&gt;Node2</title>
<path fill="none" stroke="midnightblue" d="M216.911,-112.324C200.308,-103.703 174.618,-90.3643 155.4,-80.3855"/>
<polygon fill="midnightblue" stroke="midnightblue" points="156.776,-77.1565 146.288,-75.6545 153.55,-83.3689 156.776,-77.1565"/>
</g>
<!-- Node14&#45;&gt;Node11 -->
<g id="edge18" class="edge"><title>Node14&#45;&gt;Node11</title>
<path fill="none" stroke="midnightblue" d="M566.562,-112.324C581.206,-103.822 603.754,-90.7288 620.858,-80.7975"/>
<polygon fill="midnightblue" stroke="midnightblue" points="622.825,-83.7027 629.715,-75.6545 619.31,-77.6491 622.825,-83.7027"/>
</g>
<!-- Node14&#45;&gt;Node12 -->
<g id="edge19" class="edge"><title>Node14&#45;&gt;Node12</title>
<path fill="none" stroke="midnightblue" d="M549.188,-112.368C544.162,-94.5366 532.54,-53.2953 525.77,-29.2717"/>
<polygon fill="midnightblue" stroke="midnightblue" points="529.123,-28.2671 523.042,-19.5914 522.385,-30.1659 529.123,-28.2671"/>
</g>
<!-- Node15 -->
<g id="node15" class="node"><title>Node15</title>
<polygon fill="white" stroke="#bfbfbf" points="549.12,-56.5 549.12,-75.5 598.12,-75.5 598.12,-56.5 549.12,-56.5"/>
<text text-anchor="middle" x="573.62" y="-63.5" font-family="Helvetica,sans-Serif" font-size="10.00">cstddef</text>
</g>
<!-- Node14&#45;&gt;Node15 -->
<g id="edge20" class="edge"><title>Node14&#45;&gt;Node15</title>
<path fill="none" stroke="midnightblue" d="M555.253,-112.083C558.233,-104.77 562.546,-94.1814 566.245,-85.1034"/>
<polygon fill="midnightblue" stroke="midnightblue" points="569.523,-86.3326 570.055,-75.7511 563.041,-83.6914 569.523,-86.3326"/>
</g>
<!-- Node14&#45;&gt;Node16 -->
<g id="edge21" class="edge"><title>Node14&#45;&gt;Node16</title>
<path fill="none" stroke="midnightblue" d="M578.082,-112.444C606.299,-103.32 651.161,-88.8133 682.589,-78.6509"/>
<polygon fill="midnightblue" stroke="midnightblue" points="683.844,-81.9234 692.282,-75.5164 681.691,-75.263 683.844,-81.9234"/>
</g>
<!-- Node16&#45;&gt;Node8 -->
<g id="edge22" class="edge"><title>Node16&#45;&gt;Node8</title>
<path fill="none" stroke="midnightblue" d="M708.498,-56.324C699.094,-48.2631 684.876,-36.0765 673.551,-26.3695"/>
<polygon fill="midnightblue" stroke="midnightblue" points="675.797,-23.6844 665.927,-19.8339 671.241,-28.9993 675.797,-23.6844"/>
</g>
<!-- Node16&#45;&gt;Node12 -->
<g id="edge23" class="edge"><title>Node16&#45;&gt;Node12</title>
<path fill="none" stroke="midnightblue" d="M690.252,-57.2631C654.087,-47.4001 591.685,-30.3812 553.487,-19.9636"/>
<polygon fill="midnightblue" stroke="midnightblue" points="553.965,-16.4663 543.397,-17.2118 552.124,-23.2197 553.965,-16.4663"/>
</g>
<!-- Node19&#45;&gt;Node11 -->
<g id="edge29" class="edge"><title>Node19&#45;&gt;Node11</title>
<path fill="none" stroke="midnightblue" d="M607.717,-224.075C613.856,-197.945 631.884,-121.211 640.256,-85.577"/>
<polygon fill="midnightblue" stroke="midnightblue" points="643.727,-86.1036 642.607,-75.5681 636.913,-84.5025 643.727,-86.1036"/>
</g>
<!-- Node20 -->
<g id="node20" class="node"><title>Node20</title>
<polygon fill="white" stroke="#bfbfbf" points="633.62,-168.5 633.62,-187.5 679.62,-187.5 679.62,-168.5 633.62,-168.5"/>
<text text-anchor="middle" x="656.62" y="-175.5" font-family="Helvetica,sans-Serif" font-size="10.00">cctype</text>
</g>
<!-- Node19&#45;&gt;Node20 -->
<g id="edge28" class="edge"><title>Node19&#45;&gt;Node20</title>
<path fill="none" stroke="midnightblue" d="M614.042,-224.083C621.469,-216.22 632.472,-204.569 641.432,-195.081"/>
<polygon fill="midnightblue" stroke="midnightblue" points="644.034,-197.424 648.355,-187.751 638.945,-192.618 644.034,-197.424"/>
</g>
</g>
</svg>
