<?xml version="1.0" encoding="UTF-8" standalone="no"?>
<!DOCTYPE svg PUBLIC "-//W3C//DTD SVG 1.1//EN"
 "http://www.w3.org/Graphics/SVG/1.1/DTD/svg11.dtd">
<!-- Generated by graphviz version 2.38.0 (20140413.2041)
 -->
<!-- Title: txRaw Pages: 1 -->
<svg width="363pt" height="28pt"
 viewBox="0.00 0.00 363.00 28.00" xmlns="http://www.w3.org/2000/svg" xmlns:xlink="http://www.w3.org/1999/xlink">
<g id="graph0" class="graph" transform="scale(1 1) rotate(0) translate(4 24)">
<title>txRaw</title>
<polygon fill="white" stroke="none" points="-4,4 -4,-24 359,-24 359,4 -4,4"/>
<!-- Node1 -->
<g id="node1" class="node"><title>Node1</title>
<polygon fill="#bfbfbf" stroke="black" points="0,-0.5 0,-19.5 45,-19.5 45,-0.5 0,-0.5"/>
<text text-anchor="middle" x="22.5" y="-7.5" font-family="Helvetica,sans-Serif" font-size="10.00">txRaw</text>
</g>
<!-- Node2 -->
<g id="node2" class="node"><title>Node2</title>
<g id="a_node2"><a xlink:href="teensy3__morse__bsp_8cpp.html#a0e2da33375826e329ea5f4c8d1d10224" target="_top" xlink:title="Get the raw analog input. ">
<polygon fill="white" stroke="black" points="81,-0.5 81,-19.5 164,-19.5 164,-0.5 81,-0.5"/>
<text text-anchor="middle" x="122.5" y="-7.5" font-family="Helvetica,sans-Serif" font-size="10.00">getRawVoltage</text>
</a>
</g>
</g>
<!-- Node1&#45;&gt;Node2 -->
<g id="edge1" class="edge"><title>Node1&#45;&gt;Node2</title>
<path fill="none" stroke="midnightblue" d="M45.2494,-10C52.8699,-10 61.7799,-10 70.7676,-10"/>
<polygon fill="midnightblue" stroke="midnightblue" points="70.8836,-13.5001 80.8835,-10 70.8835,-6.5001 70.8836,-13.5001"/>
</g>
<!-- Node3 -->
<g id="node3" class="node"><title>Node3</title>
<g id="a_node3"><a xlink:href="class_voltage_monitor.html#adc6eeb394de76a58d498dd1adc4fe3bf" target="_top" xlink:title="VoltageMonitor::getRawVoltage">
<polygon fill="white" stroke="black" points="200,-0.5 200,-19.5 355,-19.5 355,-0.5 200,-0.5"/>
<text text-anchor="middle" x="277.5" y="-7.5" font-family="Helvetica,sans-Serif" font-size="10.00">VoltageMonitor::getRawVoltage</text>
</a>
</g>
</g>
<!-- Node2&#45;&gt;Node3 -->
<g id="edge2" class="edge"><title>Node2&#45;&gt;Node3</title>
<path fill="none" stroke="midnightblue" d="M164.1,-10C172.14,-10 180.864,-10 189.777,-10"/>
<polygon fill="midnightblue" stroke="midnightblue" points="189.894,-13.5001 199.894,-10 189.894,-6.5001 189.894,-13.5001"/>
</g>
</g>
</svg>
