<?xml version="1.0" encoding="UTF-8" standalone="no"?>
<!DOCTYPE svg PUBLIC "-//W3C//DTD SVG 1.1//EN"
 "http://www.w3.org/Graphics/SVG/1.1/DTD/svg11.dtd">
<!-- Generated by graphviz version 2.38.0 (20140413.2041)
 -->
<!-- Title: txSettings Pages: 1 -->
<!--zoomable 541 -->
<svg id="main" version="1.1" xmlns="http://www.w3.org/2000/svg" xmlns:xlink="http://www.w3.org/1999/xlink" xml:space="preserve" onload="init(evt)">
<style type="text/css"><![CDATA[
.edge:hover path { stroke: red; }
.edge:hover polygon { stroke: red; fill: red; }
]]></style>
<script type="text/javascript"><![CDATA[
var edges = document.getElementsByTagName('g');
if (edges && edges.length) {
  for (var i=0;i<edges.length;i++) {
    if (edges[i].id.substr(0,4)=='edge') {
      edges[i].setAttribute('class','edge');
    }
  }
}
]]></script>
        <defs>
                <circle id="rim" cx="0" cy="0" r="7"/>
                <circle id="rim2" cx="0" cy="0" r="3.5"/>
                <g id="zoomPlus">
                        <use xlink:href="#rim" fill="#404040">
                                <set attributeName="fill" to="#808080" begin="zoomplus.mouseover" end="zoomplus.mouseout"/>
                        </use>
                        <path d="M-4,0h8M0,-4v8" fill="none" stroke="white" stroke-width="1.5" pointer-events="none"/>
                </g>
                <g id="zoomMin">
                        <use xlink:href="#rim" fill="#404040">
                                <set attributeName="fill" to="#808080" begin="zoomminus.mouseover" end="zoomminus.mouseout"/>
                        </use>
                        <path d="M-4,0h8" fill="none" stroke="white" stroke-width="1.5" pointer-events="none"/>
                </g>
                <g id="dirArrow">
                        <path fill="none" stroke="white" stroke-width="1.5" d="M0,-3.0v7 M-2.5,-0.5L0,-3.0L2.5,-0.5"/>
                </g>
               <g id="resetDef">
                       <use xlink:href="#rim2" fill="#404040">
                               <set attributeName="fill" to="#808080" begin="reset.mouseover" end="reset.mouseout"/>
                       </use>
               </g>
        </defs>

<script type="text/javascript">
var viewWidth = 1219;
var viewHeight = 541;
var sectionId = 'dynsection-58';
</script>
<script xlink:href="svgpan.js"/>
<svg id="graph" class="graph">
<g id="viewport">
<title>txSettings</title>
<polygon fill="white" stroke="none" points="-4,4 -4,-537 1215,-537 1215,4 -4,4"/>
<!-- Node1 -->
<g id="node1" class="node"><title>Node1</title>
<polygon fill="#bfbfbf" stroke="black" points="0,-114.5 0,-133.5 61,-133.5 61,-114.5 0,-114.5"/>
<text text-anchor="middle" x="30.5" y="-121.5" font-family="Helvetica,sans-Serif" font-size="10.00">txSettings</text>
</g>
<!-- Node2 -->
<g id="node2" class="node"><title>Node2</title>
<g id="a_node2"><a xlink:href="libmorse_8cpp.html#a0ee2308940264ea9ac8e50afc1a4d285" target="_top" xlink:title="txString">
<polygon fill="white" stroke="black" points="136,-285.5 136,-304.5 186,-304.5 186,-285.5 136,-285.5"/>
<text text-anchor="middle" x="161" y="-292.5" font-family="Helvetica,sans-Serif" font-size="10.00">txString</text>
</a>
</g>
</g>
<!-- Node1&#45;&gt;Node2 -->
<g id="edge1" class="edge"><title>Node1&#45;&gt;Node2</title>
<path fill="none" stroke="midnightblue" d="M38.2854,-133.532C50.0705,-150.04 75.1555,-184.97 97,-214 113.54,-235.98 133.046,-260.913 145.924,-277.24"/>
<polygon fill="midnightblue" stroke="midnightblue" points="143.388,-279.677 152.335,-285.352 148.88,-275.336 143.388,-279.677"/>
</g>
<!-- Node18 -->
<g id="node18" class="node"><title>Node18</title>
<g id="a_node18"><a xlink:href="libmorse_8cpp.html#a47abdd74b66d7180c47d192bab8bdccb" target="_top" xlink:title="Transmit an unsigned integer in Morse code. ">
<polygon fill="white" stroke="black" points="445,-247.5 445,-266.5 511,-266.5 511,-247.5 445,-247.5"/>
<text text-anchor="middle" x="478" y="-254.5" font-family="Helvetica,sans-Serif" font-size="10.00">txUnsigned</text>
</a>
</g>
</g>
<!-- Node1&#45;&gt;Node18 -->
<g id="edge38" class="edge"><title>Node1&#45;&gt;Node18</title>
<path fill="none" stroke="midnightblue" d="M39.2285,-133.569C50.4372,-146.7 72.5549,-169.936 97,-181 212.214,-233.148 256.526,-187.476 379,-219 402.476,-225.043 427.977,-235.047 447.08,-243.273"/>
<polygon fill="midnightblue" stroke="midnightblue" points="445.878,-246.568 456.442,-247.383 448.692,-240.159 445.878,-246.568"/>
</g>
<!-- Node28 -->
<g id="node28" class="node"><title>Node28</title>
<g id="a_node28"><a xlink:href="settings_8cpp.html#ab38fd90c96469830fd799d88bc8099a6" target="_top" xlink:title="Get the normal announcement interval in seconds. ">
<polygon fill="white" stroke="black" points="97,-152.5 97,-171.5 225,-171.5 225,-152.5 97,-152.5"/>
<text text-anchor="middle" x="161" y="-159.5" font-family="Helvetica,sans-Serif" font-size="10.00">getAnnouncementInterval</text>
</a>
</g>
</g>
<!-- Node1&#45;&gt;Node28 -->
<g id="edge39" class="edge"><title>Node1&#45;&gt;Node28</title>
<path fill="none" stroke="midnightblue" d="M61.3035,-132.813C78.1462,-137.794 99.4728,-144.101 117.989,-149.576"/>
<polygon fill="midnightblue" stroke="midnightblue" points="117.075,-152.956 127.657,-152.436 119.06,-146.243 117.075,-152.956"/>
</g>
<!-- Node29 -->
<g id="node29" class="node"><title>Node29</title>
<g id="a_node29"><a xlink:href="settings_8cpp.html#a088799682590552129c153e36ce09a52" target="_top" xlink:title="Get the periodic announcement format. ">
<polygon fill="white" stroke="black" points="98,-114.5 98,-133.5 224,-133.5 224,-114.5 98,-114.5"/>
<text text-anchor="middle" x="161" y="-121.5" font-family="Helvetica,sans-Serif" font-size="10.00">getAnnouncementFormat</text>
</a>
</g>
</g>
<!-- Node1&#45;&gt;Node29 -->
<g id="edge40" class="edge"><title>Node1&#45;&gt;Node29</title>
<path fill="none" stroke="midnightblue" d="M61.3035,-124C69.3617,-124 78.4462,-124 87.7583,-124"/>
<polygon fill="midnightblue" stroke="midnightblue" points="87.9143,-127.5 97.9143,-124 87.9143,-120.5 87.9143,-127.5"/>
</g>
<!-- Node30 -->
<g id="node30" class="node"><title>Node30</title>
<g id="a_node30"><a xlink:href="settings_8cpp.html#a6742b95e92feeab64383890dcb8a51d2" target="_top" xlink:title="Get the low&#45;voltage alarm threshold. ">
<polygon fill="white" stroke="black" points="99,-76.5 99,-95.5 223,-95.5 223,-76.5 99,-76.5"/>
<text text-anchor="middle" x="161" y="-83.5" font-family="Helvetica,sans-Serif" font-size="10.00">getLowVoltageThreshold</text>
</a>
</g>
</g>
<!-- Node1&#45;&gt;Node30 -->
<g id="edge41" class="edge"><title>Node1&#45;&gt;Node30</title>
<path fill="none" stroke="midnightblue" d="M61.3035,-115.187C78.1462,-110.206 99.4728,-103.899 117.989,-98.4236"/>
<polygon fill="midnightblue" stroke="midnightblue" points="119.06,-101.757 127.657,-95.5645 117.075,-95.044 119.06,-101.757"/>
</g>
<!-- Node31 -->
<g id="node31" class="node"><title>Node31</title>
<g id="a_node31"><a xlink:href="settings_8cpp.html#a09b2a494a5b9fec41d2cbb6c34484cc0" target="_top" xlink:title="Set the repetition inteval in seconds of when in the alarm state. ">
<polygon fill="white" stroke="black" points="117,-38.5 117,-57.5 205,-57.5 205,-38.5 117,-38.5"/>
<text text-anchor="middle" x="161" y="-45.5" font-family="Helvetica,sans-Serif" font-size="10.00">getAlarmInterval</text>
</a>
</g>
</g>
<!-- Node1&#45;&gt;Node31 -->
<g id="edge42" class="edge"><title>Node1&#45;&gt;Node31</title>
<path fill="none" stroke="midnightblue" d="M40.2881,-114.104C52.0309,-101.455 74.0384,-79.679 97,-67 100.989,-64.7971 105.265,-62.8195 109.641,-61.0503"/>
<polygon fill="midnightblue" stroke="midnightblue" points="111.126,-64.2336 119.309,-57.5038 108.715,-57.6619 111.126,-64.2336"/>
</g>
<!-- Node32 -->
<g id="node32" class="node"><title>Node32</title>
<g id="a_node32"><a xlink:href="settings_8cpp.html#a846e579c0e4875f098993e2a44e44182" target="_top" xlink:title="Get the format of periodic low&#45;voltage alarm messages. ">
<polygon fill="white" stroke="black" points="109,-0.5 109,-19.5 213,-19.5 213,-0.5 109,-0.5"/>
<text text-anchor="middle" x="161" y="-7.5" font-family="Helvetica,sans-Serif" font-size="10.00">getAlarmLowFormat</text>
</a>
</g>
</g>
<!-- Node1&#45;&gt;Node32 -->
<g id="edge43" class="edge"><title>Node1&#45;&gt;Node32</title>
<path fill="none" stroke="midnightblue" d="M35.508,-114.309C43.9534,-95.0891 65.4354,-52.0162 97,-29 99.6769,-27.0481 102.556,-25.2945 105.557,-23.7195"/>
<polygon fill="midnightblue" stroke="midnightblue" points="107.181,-26.8261 114.844,-19.5101 104.291,-20.4504 107.181,-26.8261"/>
</g>
<!-- Node3 -->
<g id="node3" class="node"><title>Node3</title>
<g id="a_node3"><a xlink:href="teensy3__morse__bsp_8cpp.html#ab306f692c5c9455a0c82782a67ff0147" target="_top" xlink:title="touchPoll">
<polygon fill="white" stroke="black" points="607,-380.5 607,-399.5 664,-399.5 664,-380.5 607,-380.5"/>
<text text-anchor="middle" x="635.5" y="-387.5" font-family="Helvetica,sans-Serif" font-size="10.00">touchPoll</text>
</a>
</g>
</g>
<!-- Node2&#45;&gt;Node3 -->
<g id="edge2" class="edge"><title>Node2&#45;&gt;Node3</title>
<path fill="none" stroke="midnightblue" d="M168.562,-304.724C182.735,-324.828 218.392,-370.775 261,-391 373.274,-444.294 526.787,-417.228 596.858,-400.256"/>
<polygon fill="midnightblue" stroke="midnightblue" points="598.117,-403.55 606.973,-397.735 596.423,-396.758 598.117,-403.55"/>
</g>
<!-- Node5 -->
<g id="node5" class="node"><title>Node5</title>
<g id="a_node5"><a xlink:href="settings_8cpp.html#a960551e90dfdad18f3c9b1338ccba7db" target="_top" xlink:title="Get the dit duration in microseconds. ">
<polygon fill="white" stroke="black" points="848.5,-275.5 848.5,-294.5 920.5,-294.5 920.5,-275.5 848.5,-275.5"/>
<text text-anchor="middle" x="884.5" y="-282.5" font-family="Helvetica,sans-Serif" font-size="10.00">getDitMicros</text>
</a>
</g>
</g>
<!-- Node2&#45;&gt;Node5 -->
<g id="edge4" class="edge"><title>Node2&#45;&gt;Node5</title>
<path fill="none" stroke="midnightblue" d="M181.957,-304.563C201.59,-313.51 232.659,-326.45 261,-333 354.896,-354.7 380.629,-352 477,-352 477,-352 477,-352 636.5,-352 717.219,-352 807.763,-318.259 853.537,-298.665"/>
<polygon fill="midnightblue" stroke="midnightblue" points="855.099,-301.802 862.869,-294.599 852.303,-295.385 855.099,-301.802"/>
</g>
<!-- Node6 -->
<g id="node6" class="node"><title>Node6</title>
<g id="a_node6"><a xlink:href="libmorse_8cpp.html#a9fdfce728595d72b78dc7c834ab99a40" target="_top" xlink:title="Transmit a literal Morse code value. ">
<polygon fill="white" stroke="black" points="739.5,-114.5 739.5,-133.5 790.5,-133.5 790.5,-114.5 739.5,-114.5"/>
<text text-anchor="middle" x="765" y="-121.5" font-family="Helvetica,sans-Serif" font-size="10.00">txLiteral</text>
</a>
</g>
</g>
<!-- Node2&#45;&gt;Node6 -->
<g id="edge5" class="edge"><title>Node2&#45;&gt;Node6</title>
<path fill="none" stroke="midnightblue" d="M168.049,-285.479C181.748,-264.823 217.367,-215.991 261,-194 421.069,-113.326 644.134,-116.64 729.183,-121.422"/>
<polygon fill="midnightblue" stroke="midnightblue" points="729.129,-124.925 739.323,-122.037 729.553,-117.938 729.129,-124.925"/>
</g>
<!-- Node16 -->
<g id="node16" class="node"><title>Node16</title>
<g id="a_node16"><a xlink:href="libmorse_8cpp.html#acd4b292f5e412ee4f05aed9dafbc072d" target="_top" xlink:title="Convert an ASCII character into Morse code and transmit it. ">
<polygon fill="white" stroke="black" points="610.5,-76.5 610.5,-95.5 660.5,-95.5 660.5,-76.5 610.5,-76.5"/>
<text text-anchor="middle" x="635.5" y="-83.5" font-family="Helvetica,sans-Serif" font-size="10.00">txLetter</text>
</a>
</g>
</g>
<!-- Node2&#45;&gt;Node16 -->
<g id="edge17" class="edge"><title>Node2&#45;&gt;Node16</title>
<path fill="none" stroke="midnightblue" d="M167.511,-285.304C178.611,-265.715 204.362,-219.967 225,-181 241.559,-149.734 231.461,-129.473 261,-110 316.034,-73.7191 518.438,-79.8715 600.05,-83.9857"/>
<polygon fill="midnightblue" stroke="midnightblue" points="600.118,-87.4941 610.288,-84.5236 600.486,-80.5037 600.118,-87.4941"/>
</g>
<!-- Node17 -->
<g id="node17" class="node"><title>Node17</title>
<g id="a_node17"><a xlink:href="teensy3__morse__bsp_8cpp.html#a8761e874366e227690fba2964e1bc445" target="_top" xlink:title="getInternalTemperatureC">
<polygon fill="white" stroke="black" points="415.5,-190.5 415.5,-209.5 540.5,-209.5 540.5,-190.5 415.5,-190.5"/>
<text text-anchor="middle" x="478" y="-197.5" font-family="Helvetica,sans-Serif" font-size="10.00">getInternalTemperatureC</text>
</a>
</g>
</g>
<!-- Node2&#45;&gt;Node17 -->
<g id="edge20" class="edge"><title>Node2&#45;&gt;Node17</title>
<path fill="none" stroke="midnightblue" d="M170.698,-285.428C186.685,-268.565 222.635,-233.935 261,-219 306.792,-201.174 362.046,-196.587 405.205,-196.373"/>
<polygon fill="midnightblue" stroke="midnightblue" points="405.332,-199.873 415.341,-196.401 405.351,-192.873 405.332,-199.873"/>
</g>
<!-- Node2&#45;&gt;Node18 -->
<g id="edge21" class="edge"><title>Node2&#45;&gt;Node18</title>
<path fill="none" stroke="midnightblue" d="M186.194,-292.081C239.527,-285.648 367.765,-270.178 434.708,-262.102"/>
<polygon fill="midnightblue" stroke="midnightblue" points="435.396,-265.544 444.905,-260.872 434.558,-258.595 435.396,-265.544"/>
</g>
<!-- Node19 -->
<g id="node19" class="node"><title>Node19</title>
<g id="a_node19"><a xlink:href="actions_8cpp.html#aed718ec1bd4cc7adb2f65d40a6784496" target="_top" xlink:title="Transmit the internal temperature in integer in Fahrenheit. ">
<polygon fill="white" stroke="black" points="261,-228.5 261,-247.5 379,-247.5 379,-228.5 261,-228.5"/>
<text text-anchor="middle" x="320" y="-235.5" font-family="Helvetica,sans-Serif" font-size="10.00">txInternalTemperatureF</text>
</a>
</g>
</g>
<!-- Node2&#45;&gt;Node19 -->
<g id="edge24" class="edge"><title>Node2&#45;&gt;Node19</title>
<path fill="none" stroke="midnightblue" d="M186.187,-286.219C212.076,-276.82 253.422,-261.808 283.107,-251.031"/>
<polygon fill="midnightblue" stroke="midnightblue" points="284.483,-254.255 292.688,-247.553 282.094,-247.676 284.483,-254.255"/>
</g>
<!-- Node20 -->
<g id="node20" class="node"><title>Node20</title>
<g id="a_node20"><a xlink:href="actions_8cpp.html#aaabb3ac0c23f35a499bc17efe829f326" target="_top" xlink:title="Transmit the 24&#45;hr time. ">
<polygon fill="white" stroke="black" points="281,-456.5 281,-475.5 359,-475.5 359,-456.5 281,-456.5"/>
<text text-anchor="middle" x="320" y="-463.5" font-family="Helvetica,sans-Serif" font-size="10.00">txTimeHHMM</text>
</a>
</g>
</g>
<!-- Node2&#45;&gt;Node20 -->
<g id="edge27" class="edge"><title>Node2&#45;&gt;Node20</title>
<path fill="none" stroke="midnightblue" d="M168.271,-304.572C181.419,-329.613 214.544,-395.03 261,-433 271.572,-441.641 285.689,-447.573 297.349,-452.432"/>
<polygon fill="midnightblue" stroke="midnightblue" points="296.24,-455.765 306.812,-456.468 298.987,-449.326 296.24,-455.765"/>
</g>
<!-- Node21 -->
<g id="node21" class="node"><title>Node21</title>
<g id="a_node21"><a xlink:href="actions_8cpp.html#ad02149679fa3cc6a4957d1a318408ffd" target="_top" xlink:title="Transmit the uptime. ">
<polygon fill="white" stroke="black" points="292,-304.5 292,-323.5 348,-323.5 348,-304.5 292,-304.5"/>
<text text-anchor="middle" x="320" y="-311.5" font-family="Helvetica,sans-Serif" font-size="10.00">txUptime</text>
</a>
</g>
</g>
<!-- Node2&#45;&gt;Node21 -->
<g id="edge29" class="edge"><title>Node2&#45;&gt;Node21</title>
<path fill="none" stroke="midnightblue" d="M186.187,-297.927C211.732,-301.019 252.328,-305.931 281.92,-309.513"/>
<polygon fill="midnightblue" stroke="midnightblue" points="281.537,-312.992 291.885,-310.719 282.378,-306.042 281.537,-312.992"/>
</g>
<!-- Node23 -->
<g id="node23" class="node"><title>Node23</title>
<g id="a_node23"><a xlink:href="teensy3__morse__bsp_8cpp.html#ae8dd28759e56dbd2ee9bc9ae96d1783c" target="_top" xlink:title="Return the most recent ADC measurement of the input voltage. Perform analog to digital conversion on ...">
<polygon fill="white" stroke="black" points="283,-494.5 283,-513.5 357,-513.5 357,-494.5 283,-494.5"/>
<text text-anchor="middle" x="320" y="-501.5" font-family="Helvetica,sans-Serif" font-size="10.00">readMillivolts</text>
</a>
</g>
</g>
<!-- Node2&#45;&gt;Node23 -->
<g id="edge32" class="edge"><title>Node2&#45;&gt;Node23</title>
<path fill="none" stroke="midnightblue" d="M164.218,-304.506C171.903,-335.334 200.3,-433.508 261,-485 264.694,-488.134 268.919,-490.754 273.366,-492.945"/>
<polygon fill="midnightblue" stroke="midnightblue" points="272.135,-496.224 282.711,-496.864 274.843,-489.769 272.135,-496.224"/>
</g>
<!-- Node27 -->
<g id="node27" class="node"><title>Node27</title>
<g id="a_node27"><a xlink:href="libmorse_8cpp.html#ac3f000c98271c6d0a7710135e18189bc" target="_top" xlink:title="On my hardware there is cross&#45;coupling between the serial port and the touch sensors. Without the code below, long messages to the serial port trigger a touch input. ">
<polygon fill="white" stroke="black" points="445.5,-380.5 445.5,-399.5 510.5,-399.5 510.5,-380.5 445.5,-380.5"/>
<text text-anchor="middle" x="478" y="-387.5" font-family="Helvetica,sans-Serif" font-size="10.00">flushTouch</text>
</a>
</g>
</g>
<!-- Node2&#45;&gt;Node27 -->
<g id="edge36" class="edge"><title>Node2&#45;&gt;Node27</title>
<path fill="none" stroke="midnightblue" d="M171.651,-304.605C188.27,-320.477 224.074,-351.83 261,-366 318.56,-388.088 390.64,-391.757 435.255,-391.521"/>
<polygon fill="midnightblue" stroke="midnightblue" points="435.477,-395.019 445.433,-391.397 435.391,-388.019 435.477,-395.019"/>
</g>
<!-- Node4 -->
<g id="node4" class="node"><title>Node4</title>
<g id="a_node4"><a xlink:href="teensy3__morse__bsp_8cpp.html#af6899cd9b83df54106b259ab81ea5cb2" target="_top" xlink:title="touchMargin">
<polygon fill="white" stroke="black" points="730,-380.5 730,-399.5 800,-399.5 800,-380.5 730,-380.5"/>
<text text-anchor="middle" x="765" y="-387.5" font-family="Helvetica,sans-Serif" font-size="10.00">touchMargin</text>
</a>
</g>
</g>
<!-- Node3&#45;&gt;Node4 -->
<g id="edge3" class="edge"><title>Node3&#45;&gt;Node4</title>
<path fill="none" stroke="midnightblue" d="M664.166,-390C680.281,-390 700.984,-390 719.355,-390"/>
<polygon fill="midnightblue" stroke="midnightblue" points="719.562,-393.5 729.562,-390 719.562,-386.5 719.562,-393.5"/>
</g>
<!-- Node6&#45;&gt;Node5 -->
<g id="edge14" class="edge"><title>Node6&#45;&gt;Node5</title>
<path fill="none" stroke="midnightblue" d="M772.998,-133.589C792.137,-159.813 845.572,-233.031 870.45,-267.118"/>
<polygon fill="midnightblue" stroke="midnightblue" points="867.667,-269.243 876.39,-275.258 873.322,-265.117 867.667,-269.243"/>
</g>
<!-- Node7 -->
<g id="node7" class="node"><title>Node7</title>
<g id="a_node7"><a xlink:href="class_morse_token.html#a48cd72aeb868391449d1f51c1d0bf5cc" target="_top" xlink:title="Treat code == 0 as the error token. ">
<polygon fill="white" stroke="black" points="836,-133.5 836,-152.5 933,-152.5 933,-133.5 836,-133.5"/>
<text text-anchor="middle" x="884.5" y="-140.5" font-family="Helvetica,sans-Serif" font-size="10.00">MorseToken::valid</text>
</a>
</g>
</g>
<!-- Node6&#45;&gt;Node7 -->
<g id="edge6" class="edge"><title>Node6&#45;&gt;Node7</title>
<path fill="none" stroke="midnightblue" d="M790.632,-127.983C800.933,-129.649 813.376,-131.661 825.759,-133.663"/>
<polygon fill="midnightblue" stroke="midnightblue" points="825.205,-137.119 835.635,-135.26 826.322,-130.209 825.205,-137.119"/>
</g>
<!-- Node8 -->
<g id="node8" class="node"><title>Node8</title>
<g id="a_node8"><a xlink:href="teensy3__morse__bsp_8cpp.html#af66e71e3fac9b6a2c6532bc8a513bfde" target="_top" xlink:title="Output a square wave on pin 10 at the given frequency for the given duration. ">
<polygon fill="white" stroke="black" points="865.5,-95.5 865.5,-114.5 903.5,-114.5 903.5,-95.5 865.5,-95.5"/>
<text text-anchor="middle" x="884.5" y="-102.5" font-family="Helvetica,sans-Serif" font-size="10.00">beep</text>
</a>
</g>
</g>
<!-- Node6&#45;&gt;Node8 -->
<g id="edge7" class="edge"><title>Node6&#45;&gt;Node8</title>
<path fill="none" stroke="midnightblue" d="M790.632,-120.017C809.57,-116.955 835.746,-112.722 855.483,-109.53"/>
<polygon fill="midnightblue" stroke="midnightblue" points="856.107,-112.975 865.42,-107.924 854.99,-106.065 856.107,-112.975"/>
</g>
<!-- Node14 -->
<g id="node14" class="node"><title>Node14</title>
<g id="a_node14"><a xlink:href="settings_8cpp.html#a8575b9b52638114a4f32d1462cf9b7c1" target="_top" xlink:title="Get the transmission frequency (side tone). ">
<polygon fill="white" stroke="black" points="857.5,-171.5 857.5,-190.5 911.5,-190.5 911.5,-171.5 857.5,-171.5"/>
<text text-anchor="middle" x="884.5" y="-178.5" font-family="Helvetica,sans-Serif" font-size="10.00">getTxHz</text>
</a>
</g>
</g>
<!-- Node6&#45;&gt;Node14 -->
<g id="edge13" class="edge"><title>Node6&#45;&gt;Node14</title>
<path fill="none" stroke="midnightblue" d="M782.408,-133.616C796.419,-141.654 817.224,-153.185 836,-162 840.09,-163.92 844.431,-165.828 848.761,-167.651"/>
<polygon fill="midnightblue" stroke="midnightblue" points="847.54,-170.934 858.121,-171.483 850.192,-164.456 847.54,-170.934"/>
</g>
<!-- Node15 -->
<g id="node15" class="node"><title>Node15</title>
<g id="a_node15"><a xlink:href="libmorse_8cpp.html#ab94e088615119d1faae7df22ce50aedf" target="_top" xlink:title="Transmit a Morse code prosign indicating an error. ">
<polygon fill="white" stroke="black" points="861.5,-57.5 861.5,-76.5 907.5,-76.5 907.5,-57.5 861.5,-57.5"/>
<text text-anchor="middle" x="884.5" y="-64.5" font-family="Helvetica,sans-Serif" font-size="10.00">txError</text>
</a>
</g>
</g>
<!-- Node6&#45;&gt;Node15 -->
<g id="edge15" class="edge"><title>Node6&#45;&gt;Node15</title>
<path fill="none" stroke="midnightblue" d="M782.408,-114.384C796.419,-106.346 817.224,-94.8146 836,-86 841.025,-83.641 846.427,-81.3013 851.724,-79.1122"/>
<polygon fill="midnightblue" stroke="midnightblue" points="853.068,-82.3439 861.038,-75.3627 850.454,-75.8504 853.068,-82.3439"/>
</g>
<!-- Node9 -->
<g id="node9" class="node"><title>Node9</title>
<g id="a_node9"><a xlink:href="teensy3__morse__bsp_8cpp.html#a6f674d5b9985ea3a7eeb0df299c2e405" target="_top" xlink:title="pollEarphonePresent">
<polygon fill="white" stroke="black" points="969,-152.5 969,-171.5 1076,-171.5 1076,-152.5 969,-152.5"/>
<text text-anchor="middle" x="1022.5" y="-159.5" font-family="Helvetica,sans-Serif" font-size="10.00">pollEarphonePresent</text>
</a>
</g>
</g>
<!-- Node8&#45;&gt;Node9 -->
<g id="edge8" class="edge"><title>Node8&#45;&gt;Node9</title>
<path fill="none" stroke="midnightblue" d="M903.734,-111.777C912.652,-115.221 923.487,-119.602 933,-124 949.422,-131.592 952.454,-135.682 969,-143 973.527,-145.002 978.336,-146.961 983.136,-148.815"/>
<polygon fill="midnightblue" stroke="midnightblue" points="982.287,-152.234 992.879,-152.453 984.735,-145.676 982.287,-152.234"/>
</g>
<!-- Node10 -->
<g id="node10" class="node"><title>Node10</title>
<g id="a_node10"><a xlink:href="teensy3__morse__bsp_8cpp.html#a2d6b4ace33ed5e497dedd03217540c63" target="_top" xlink:title="Set the PWM frequency for the audio output pins. ">
<polygon fill="white" stroke="black" points="981,-114.5 981,-133.5 1064,-133.5 1064,-114.5 981,-114.5"/>
<text text-anchor="middle" x="1022.5" y="-121.5" font-family="Helvetica,sans-Serif" font-size="10.00">pwmFrequency</text>
</a>
</g>
</g>
<!-- Node8&#45;&gt;Node10 -->
<g id="edge9" class="edge"><title>Node8&#45;&gt;Node10</title>
<path fill="none" stroke="midnightblue" d="M903.56,-107.523C920.617,-109.906 947.017,-113.594 970.519,-116.878"/>
<polygon fill="midnightblue" stroke="midnightblue" points="970.334,-120.386 980.722,-118.303 971.303,-113.453 970.334,-120.386"/>
</g>
<!-- Node11 -->
<g id="node11" class="node"><title>Node11</title>
<g id="a_node11"><a xlink:href="teensy3__morse__bsp_8cpp.html#a82911eac3bf13d6f36d10102a4c4d3c4" target="_top" xlink:title="Generate a tone on the audio output pins. ">
<polygon fill="white" stroke="black" points="992,-76.5 992,-95.5 1053,-95.5 1053,-76.5 992,-76.5"/>
<text text-anchor="middle" x="1022.5" y="-83.5" font-family="Helvetica,sans-Serif" font-size="10.00">pwmWrite</text>
</a>
</g>
</g>
<!-- Node8&#45;&gt;Node11 -->
<g id="edge10" class="edge"><title>Node8&#45;&gt;Node11</title>
<path fill="none" stroke="midnightblue" d="M903.56,-102.477C923.462,-99.6965 956.083,-95.1391 981.979,-91.5213"/>
<polygon fill="midnightblue" stroke="midnightblue" points="982.471,-94.9867 991.89,-90.1366 981.502,-88.054 982.471,-94.9867"/>
</g>
<!-- Node13 -->
<g id="node13" class="node"><title>Node13</title>
<g id="a_node13"><a xlink:href="teensy3__morse__bsp_8cpp.html#a6c982a7d7805f1dd5426eb98c915cfdd" target="_top" xlink:title="Turn the red LED on (1) or off (0). ">
<polygon fill="white" stroke="black" points="997.5,-38.5 997.5,-57.5 1047.5,-57.5 1047.5,-38.5 997.5,-38.5"/>
<text text-anchor="middle" x="1022.5" y="-45.5" font-family="Helvetica,sans-Serif" font-size="10.00">redLED</text>
</a>
</g>
</g>
<!-- Node8&#45;&gt;Node13 -->
<g id="edge12" class="edge"><title>Node8&#45;&gt;Node13</title>
<path fill="none" stroke="midnightblue" d="M903.734,-98.2232C912.652,-94.7786 923.487,-90.3982 933,-86 949.422,-78.4078 952.454,-74.3181 969,-67 974.992,-64.3497 981.48,-61.7744 987.784,-59.4192"/>
<polygon fill="midnightblue" stroke="midnightblue" points="989.232,-62.6174 997.442,-55.9203 986.847,-56.036 989.232,-62.6174"/>
</g>
<!-- Node12 -->
<g id="node12" class="node"><title>Node12</title>
<g id="a_node12"><a xlink:href="teensy3__morse__bsp_8cpp.html#ac70998cee1bf97f00aec4a1b4e5a4f60" target="_top" xlink:title="isEarphonePresent">
<polygon fill="white" stroke="black" points="1112,-76.5 1112,-95.5 1211,-95.5 1211,-76.5 1112,-76.5"/>
<text text-anchor="middle" x="1161.5" y="-83.5" font-family="Helvetica,sans-Serif" font-size="10.00">isEarphonePresent</text>
</a>
</g>
</g>
<!-- Node11&#45;&gt;Node12 -->
<g id="edge11" class="edge"><title>Node11&#45;&gt;Node12</title>
<path fill="none" stroke="midnightblue" d="M1053.23,-86C1067.43,-86 1084.96,-86 1101.7,-86"/>
<polygon fill="midnightblue" stroke="midnightblue" points="1101.98,-89.5001 1111.98,-86 1101.98,-82.5001 1101.98,-89.5001"/>
</g>
<!-- Node15&#45;&gt;Node2 -->
<g id="edge16" class="edge"><title>Node15&#45;&gt;Node2</title>
<path fill="none" stroke="midnightblue" d="M861.403,-64.1555C818.252,-58.8551 719.722,-48 636.5,-48 477,-48 477,-48 477,-48 379.886,-48 335.996,-19.3016 261,-81 224.521,-111.01 244.486,-137.97 225,-181 209.236,-215.811 186.831,-254.34 173.423,-276.509"/>
<polygon fill="midnightblue" stroke="midnightblue" points="170.334,-274.852 168.112,-285.211 176.309,-278.499 170.334,-274.852"/>
</g>
<!-- Node16&#45;&gt;Node6 -->
<g id="edge18" class="edge"><title>Node16&#45;&gt;Node6</title>
<path fill="none" stroke="midnightblue" d="M660.782,-93.237C680.242,-99.037 707.793,-107.248 729.536,-113.728"/>
<polygon fill="midnightblue" stroke="midnightblue" points="728.791,-117.158 739.374,-116.661 730.791,-110.45 728.791,-117.158"/>
</g>
<!-- Node16&#45;&gt;Node15 -->
<g id="edge19" class="edge"><title>Node16&#45;&gt;Node15</title>
<path fill="none" stroke="midnightblue" d="M660.633,-84.1436C705.398,-80.7002 801.294,-73.3235 851.444,-69.4658"/>
<polygon fill="midnightblue" stroke="midnightblue" points="851.715,-72.9555 861.417,-68.6987 851.178,-65.9761 851.715,-72.9555"/>
</g>
<!-- Node18&#45;&gt;Node3 -->
<g id="edge22" class="edge"><title>Node18&#45;&gt;Node3</title>
<path fill="none" stroke="midnightblue" d="M497.131,-266.562C509.918,-273.668 527.164,-284.002 541,-295 571.434,-319.191 602.191,-352.545 619.739,-372.616"/>
<polygon fill="midnightblue" stroke="midnightblue" points="617.226,-375.061 626.412,-380.34 622.523,-370.485 617.226,-375.061"/>
</g>
<!-- Node18&#45;&gt;Node16 -->
<g id="edge23" class="edge"><title>Node18&#45;&gt;Node16</title>
<path fill="none" stroke="midnightblue" d="M499.133,-247.376C512.013,-240.596 528.576,-230.667 541,-219 578.2,-184.068 609.491,-132.14 624.665,-104.646"/>
<polygon fill="midnightblue" stroke="midnightblue" points="627.826,-106.159 629.508,-95.6982 621.67,-102.827 627.826,-106.159"/>
</g>
<!-- Node19&#45;&gt;Node17 -->
<g id="edge25" class="edge"><title>Node19&#45;&gt;Node17</title>
<path fill="none" stroke="midnightblue" d="M360.365,-228.411C380.951,-223.396 406.34,-217.212 428.169,-211.895"/>
<polygon fill="midnightblue" stroke="midnightblue" points="429.03,-215.287 437.918,-209.52 427.373,-208.486 429.03,-215.287"/>
</g>
<!-- Node19&#45;&gt;Node18 -->
<g id="edge26" class="edge"><title>Node19&#45;&gt;Node18</title>
<path fill="none" stroke="midnightblue" d="M379.089,-245.075C397.454,-247.312 417.397,-249.741 434.463,-251.819"/>
<polygon fill="midnightblue" stroke="midnightblue" points="434.327,-255.328 444.677,-253.063 435.173,-248.38 434.327,-255.328"/>
</g>
<!-- Node20&#45;&gt;Node2 -->
<g id="edge28" class="edge"><title>Node20&#45;&gt;Node2</title>
<path fill="none" stroke="midnightblue" d="M280.992,-462.863C273.919,-459.809 266.906,-455.827 261,-451 214.351,-412.872 181.145,-347.07 168.109,-314.207"/>
<polygon fill="midnightblue" stroke="midnightblue" points="171.364,-312.921 164.593,-304.772 164.805,-315.365 171.364,-312.921"/>
</g>
<!-- Node21&#45;&gt;Node18 -->
<g id="edge31" class="edge"><title>Node21&#45;&gt;Node18</title>
<path fill="none" stroke="midnightblue" d="M347.111,-304.459C372.87,-295.047 412.448,-280.586 441.147,-270.1"/>
<polygon fill="midnightblue" stroke="midnightblue" points="442.612,-273.291 450.804,-266.572 440.21,-266.716 442.612,-273.291"/>
</g>
<!-- Node22 -->
<g id="node22" class="node"><title>Node22</title>
<g id="a_node22"><a xlink:href="settings_8cpp.html#a7b4efa097b94f9a90c5bbafcdf93fe4f" target="_top" xlink:title="getUptime">
<polygon fill="white" stroke="black" points="447,-304.5 447,-323.5 509,-323.5 509,-304.5 447,-304.5"/>
<text text-anchor="middle" x="478" y="-311.5" font-family="Helvetica,sans-Serif" font-size="10.00">getUptime</text>
</a>
</g>
</g>
<!-- Node21&#45;&gt;Node22 -->
<g id="edge30" class="edge"><title>Node21&#45;&gt;Node22</title>
<path fill="none" stroke="midnightblue" d="M348.173,-314C372.633,-314 408.905,-314 436.735,-314"/>
<polygon fill="midnightblue" stroke="midnightblue" points="436.945,-317.5 446.945,-314 436.945,-310.5 436.945,-317.5"/>
</g>
<!-- Node24 -->
<g id="node24" class="node"><title>Node24</title>
<g id="a_node24"><a xlink:href="class_voltage_monitor.html#a70902b84f9864c95d5553a0644a64f4f" target="_top" xlink:title="Return the latest voltage reading. ">
<polygon fill="white" stroke="black" points="415,-494.5 415,-513.5 541,-513.5 541,-494.5 415,-494.5"/>
<text text-anchor="middle" x="478" y="-501.5" font-family="Helvetica,sans-Serif" font-size="10.00">VoltageMonitor::getValue</text>
</a>
</g>
</g>
<!-- Node23&#45;&gt;Node24 -->
<g id="edge33" class="edge"><title>Node23&#45;&gt;Node24</title>
<path fill="none" stroke="midnightblue" d="M357.182,-504C371.344,-504 388.117,-504 404.56,-504"/>
<polygon fill="midnightblue" stroke="midnightblue" points="404.728,-507.5 414.728,-504 404.728,-500.5 404.728,-507.5"/>
</g>
<!-- Node25 -->
<g id="node25" class="node"><title>Node25</title>
<g id="a_node25"><a xlink:href="actions_8cpp.html#a2b8c3769e2aa32a2da9e2f3f85ac73dd" target="_top" xlink:title="A sample ADC reading is taken each time through the main loop, and written to a ring buffer...">
<polygon fill="white" stroke="black" points="579.5,-513.5 579.5,-532.5 691.5,-532.5 691.5,-513.5 579.5,-513.5"/>
<text text-anchor="middle" x="635.5" y="-520.5" font-family="Helvetica,sans-Serif" font-size="10.00">getVoltagePollInterval</text>
</a>
</g>
</g>
<!-- Node24&#45;&gt;Node25 -->
<g id="edge34" class="edge"><title>Node24&#45;&gt;Node25</title>
<path fill="none" stroke="midnightblue" d="M541.352,-511.619C550.438,-512.729 559.816,-513.875 568.963,-514.992"/>
<polygon fill="midnightblue" stroke="midnightblue" points="568.813,-518.5 579.163,-516.239 569.662,-511.552 568.813,-518.5"/>
</g>
<!-- Node26 -->
<g id="node26" class="node"><title>Node26</title>
<g id="a_node26"><a xlink:href="class_voltage_monitor.html#a75871331808c34b40d04059ee2af0f27" target="_top" xlink:title="Filter and scale raw ADC values to millivolts. ">
<polygon fill="white" stroke="black" points="577,-475.5 577,-494.5 694,-494.5 694,-475.5 577,-475.5"/>
<text text-anchor="middle" x="635.5" y="-482.5" font-family="Helvetica,sans-Serif" font-size="10.00">VoltageMonitor::update</text>
</a>
</g>
</g>
<!-- Node24&#45;&gt;Node26 -->
<g id="edge35" class="edge"><title>Node24&#45;&gt;Node26</title>
<path fill="none" stroke="midnightblue" d="M541.352,-496.381C549.702,-495.361 558.298,-494.311 566.735,-493.28"/>
<polygon fill="midnightblue" stroke="midnightblue" points="567.419,-496.723 576.92,-492.035 566.57,-489.774 567.419,-496.723"/>
</g>
<!-- Node27&#45;&gt;Node3 -->
<g id="edge37" class="edge"><title>Node27&#45;&gt;Node3</title>
<path fill="none" stroke="midnightblue" d="M510.843,-390C535.677,-390 570.247,-390 596.522,-390"/>
<polygon fill="midnightblue" stroke="midnightblue" points="596.864,-393.5 606.864,-390 596.863,-386.5 596.864,-393.5"/>
</g>
</g>
</svg>
        <g id="navigator" transform="translate(0 0)" fill="#404254">
                <rect fill="#f2f5e9" fill-opacity="0.5" stroke="#606060" stroke-width=".5" x="0" y="0" width="60" height="60"/>
                <use id="zoomplus" xlink:href="#zoomPlus" x="17" y="9" onmousedown="handleZoom(evt,'in')"/>
                <use id="zoomminus" xlink:href="#zoomMin" x="42" y="9" onmousedown="handleZoom(evt,'out')"/>
                <use id="reset" xlink:href="#resetDef" x="30" y="36" onmousedown="handleReset()"/>
                <g id="arrowUp" xlink:href="#dirArrow" transform="translate(30 24)" onmousedown="handlePan(0,-1)">
                  <use xlink:href="#rim" fill="#404040">
                        <set attributeName="fill" to="#808080" begin="arrowUp.mouseover" end="arrowUp.mouseout"/>
                  </use>
                  <path fill="none" stroke="white" stroke-width="1.5" d="M0,-3.0v7 M-2.5,-0.5L0,-3.0L2.5,-0.5"/>
                </g>
                <g id="arrowRight" xlink:href="#dirArrow" transform="rotate(90) translate(36 -43)" onmousedown="handlePan(1,0)">
                  <use xlink:href="#rim" fill="#404040">
                        <set attributeName="fill" to="#808080" begin="arrowRight.mouseover" end="arrowRight.mouseout"/>
                  </use>
                  <path fill="none" stroke="white" stroke-width="1.5" d="M0,-3.0v7 M-2.5,-0.5L0,-3.0L2.5,-0.5"/>
                </g>
                <g id="arrowDown" xlink:href="#dirArrow" transform="rotate(180) translate(-30 -48)" onmousedown="handlePan(0,1)">
                  <use xlink:href="#rim" fill="#404040">
                        <set attributeName="fill" to="#808080" begin="arrowDown.mouseover" end="arrowDown.mouseout"/>
                  </use>
                  <path fill="none" stroke="white" stroke-width="1.5" d="M0,-3.0v7 M-2.5,-0.5L0,-3.0L2.5,-0.5"/>
                </g>
                <g id="arrowLeft" xlink:href="#dirArrow" transform="rotate(270) translate(-36 17)" onmousedown="handlePan(-1,0)">
                  <use xlink:href="#rim" fill="#404040">
                        <set attributeName="fill" to="#808080" begin="arrowLeft.mouseover" end="arrowLeft.mouseout"/>
                  </use>
                  <path fill="none" stroke="white" stroke-width="1.5" d="M0,-3.0v7 M-2.5,-0.5L0,-3.0L2.5,-0.5"/>
                </g>
        </g>
        <svg viewBox="0 0 15 15" width="100%" height="30px" preserveAspectRatio="xMaxYMin meet">
         <g id="arrow_out" transform="scale(0.3 0.3)">
          <a xlink:href="actions_8cpp_a395ec10538b43bf0543c55595fe2df68_cgraph_org.svg" target="_base">
           <rect id="button" ry="5" rx="5" y="6" x="6" height="38" width="38"
                fill="#f2f5e9" fill-opacity="0.5" stroke="#606060" stroke-width="1.0"/>
           <path id="arrow"
             d="M 11.500037,31.436501 C 11.940474,20.09759 22.043105,11.32322 32.158766,21.979434 L 37.068811,17.246167 C 37.068811,17.246167 37.088388,32 37.088388,32 L 22.160133,31.978069 C 22.160133,31.978069 26.997745,27.140456 26.997745,27.140456 C 18.528582,18.264221 13.291696,25.230495 11.500037,31.436501 z"
             style="fill:#404040;"/>
          </a>
         </g>
        </svg>
</svg>
