<?xml version="1.0" encoding="UTF-8" standalone="no"?>
<!DOCTYPE svg PUBLIC "-//W3C//DTD SVG 1.1//EN"
 "http://www.w3.org/Graphics/SVG/1.1/DTD/svg11.dtd">
<!-- Generated by graphviz version 2.38.0 (20140413.2041)
 -->
<!-- Title: readLine Pages: 1 -->
<svg width="314pt" height="28pt"
 viewBox="0.00 0.00 314.00 28.00" xmlns="http://www.w3.org/2000/svg" xmlns:xlink="http://www.w3.org/1999/xlink">
<g id="graph0" class="graph" transform="scale(1 1) rotate(0) translate(4 24)">
<title>readLine</title>
<polygon fill="white" stroke="none" points="-4,4 -4,-24 310,-24 310,4 -4,4"/>
<!-- Node1 -->
<g id="node1" class="node"><title>Node1</title>
<polygon fill="#bfbfbf" stroke="black" points="0,-0.5 0,-19.5 53,-19.5 53,-0.5 0,-0.5"/>
<text text-anchor="middle" x="26.5" y="-7.5" font-family="Helvetica,sans-Serif" font-size="10.00">readLine</text>
</g>
<!-- Node2 -->
<g id="node2" class="node"><title>Node2</title>
<g id="a_node2"><a xlink:href="settings_8h.html#a76fe6d50deae647113180dc5f9f844c6" target="_top" xlink:title="Get a message format from the serial console. ">
<polygon fill="white" stroke="black" points="89,-0.5 89,-19.5 195,-19.5 195,-0.5 89,-0.5"/>
<text text-anchor="middle" x="142" y="-7.5" font-family="Helvetica,sans-Serif" font-size="10.00">readMessageFormat</text>
</a>
</g>
</g>
<!-- Node1&#45;&gt;Node2 -->
<g id="edge1" class="edge"><title>Node1&#45;&gt;Node2</title>
<path fill="none" stroke="midnightblue" d="M63.4518,-10C71.5467,-10 80.2968,-10 88.9032,-10"/>
<polygon fill="midnightblue" stroke="midnightblue" points="63.2549,-6.5001 53.2549,-10 63.2549,-13.5001 63.2549,-6.5001"/>
</g>
<!-- Node3 -->
<g id="node3" class="node"><title>Node3</title>
<g id="a_node3"><a xlink:href="actions_8h.html#a9c9466bf6676f35ff08e8dc33518e483" target="_top" xlink:title="Respond to commands from the serial port. ">
<polygon fill="white" stroke="black" points="231,-0.5 231,-19.5 306,-19.5 306,-0.5 231,-0.5"/>
<text text-anchor="middle" x="268.5" y="-7.5" font-family="Helvetica,sans-Serif" font-size="10.00">readEvalPrint</text>
</a>
</g>
</g>
<!-- Node2&#45;&gt;Node3 -->
<g id="edge2" class="edge"><title>Node2&#45;&gt;Node3</title>
<path fill="none" stroke="midnightblue" d="M205.28,-10C214.005,-10 222.729,-10 230.767,-10"/>
<polygon fill="midnightblue" stroke="midnightblue" points="205.078,-6.5001 195.078,-10 205.078,-13.5001 205.078,-6.5001"/>
</g>
</g>
</svg>
