<?xml version="1.0" encoding="UTF-8" standalone="no"?>
<!DOCTYPE svg PUBLIC "-//W3C//DTD SVG 1.1//EN"
 "http://www.w3.org/Graphics/SVG/1.1/DTD/svg11.dtd">
<!-- Generated by graphviz version 2.38.0 (20140413.2041)
 -->
<!-- Title: txInternalTemperatureC Pages: 1 -->
<!--zoomable 457 -->
<svg id="main" version="1.1" xmlns="http://www.w3.org/2000/svg" xmlns:xlink="http://www.w3.org/1999/xlink" xml:space="preserve" onload="init(evt)">
<style type="text/css"><![CDATA[
.edge:hover path { stroke: red; }
.edge:hover polygon { stroke: red; fill: red; }
]]></style>
<script type="text/javascript"><![CDATA[
var edges = document.getElementsByTagName('g');
if (edges && edges.length) {
  for (var i=0;i<edges.length;i++) {
    if (edges[i].id.substr(0,4)=='edge') {
      edges[i].setAttribute('class','edge');
    }
  }
}
]]></script>
        <defs>
                <circle id="rim" cx="0" cy="0" r="7"/>
                <circle id="rim2" cx="0" cy="0" r="3.5"/>
                <g id="zoomPlus">
                        <use xlink:href="#rim" fill="#404040">
                                <set attributeName="fill" to="#808080" begin="zoomplus.mouseover" end="zoomplus.mouseout"/>
                        </use>
                        <path d="M-4,0h8M0,-4v8" fill="none" stroke="white" stroke-width="1.5" pointer-events="none"/>
                </g>
                <g id="zoomMin">
                        <use xlink:href="#rim" fill="#404040">
                                <set attributeName="fill" to="#808080" begin="zoomminus.mouseover" end="zoomminus.mouseout"/>
                        </use>
                        <path d="M-4,0h8" fill="none" stroke="white" stroke-width="1.5" pointer-events="none"/>
                </g>
                <g id="dirArrow">
                        <path fill="none" stroke="white" stroke-width="1.5" d="M0,-3.0v7 M-2.5,-0.5L0,-3.0L2.5,-0.5"/>
                </g>
               <g id="resetDef">
                       <use xlink:href="#rim2" fill="#404040">
                               <set attributeName="fill" to="#808080" begin="reset.mouseover" end="reset.mouseout"/>
                       </use>
               </g>
        </defs>

<script type="text/javascript">
var viewWidth = 1147;
var viewHeight = 457;
var sectionId = 'dynsection-49';
</script>
<script xlink:href="svgpan.js"/>
<svg id="graph" class="graph">
<g id="viewport">
<title>txInternalTemperatureC</title>
<polygon fill="white" stroke="none" points="-4,4 -4,-453.214 1143,-453.214 1143,4 -4,4"/>
<!-- Node1 -->
<g id="node1" class="node"><title>Node1</title>
<polygon fill="#bfbfbf" stroke="black" points="0,-390.046 0,-409.046 119,-409.046 119,-390.046 0,-390.046"/>
<text text-anchor="middle" x="59.5" y="-397.046" font-family="Helvetica,sans-Serif" font-size="10.00">txInternalTemperatureC</text>
</g>
<!-- Node2 -->
<g id="node2" class="node"><title>Node2</title>
<g id="a_node2"><a xlink:href="teensy3__morse__bsp_8cpp.html#a8761e874366e227690fba2964e1bc445" target="_top" xlink:title="getInternalTemperatureC">
<polygon fill="white" stroke="black" points="860.5,-358.046 860.5,-377.046 985.5,-377.046 985.5,-358.046 860.5,-358.046"/>
<text text-anchor="middle" x="923" y="-365.046" font-family="Helvetica,sans-Serif" font-size="10.00">getInternalTemperatureC</text>
</a>
</g>
</g>
<!-- Node1&#45;&gt;Node2 -->
<g id="edge1" class="edge"><title>Node1&#45;&gt;Node2</title>
<path fill="none" stroke="midnightblue" d="M89.3807,-409.093C131.162,-422.034 211.126,-443.546 281,-443.546 281,-443.546 281,-443.546 617.5,-443.546 709.665,-443.546 741.094,-464.807 824,-424.546 844.927,-414.383 840.226,-398.802 860,-386.546 863.401,-384.437 867.054,-382.548 870.821,-380.858"/>
<polygon fill="midnightblue" stroke="midnightblue" points="872.358,-384.013 880.348,-377.055 869.763,-377.512 872.358,-384.013"/>
</g>
<!-- Node3 -->
<g id="node3" class="node"><title>Node3</title>
<g id="a_node3"><a xlink:href="libmorse_8cpp.html#a47abdd74b66d7180c47d192bab8bdccb" target="_top" xlink:title="Transmit an unsigned integer in Morse code. ">
<polygon fill="white" stroke="black" points="155,-325.046 155,-344.046 221,-344.046 221,-325.046 155,-325.046"/>
<text text-anchor="middle" x="188" y="-332.046" font-family="Helvetica,sans-Serif" font-size="10.00">txUnsigned</text>
</a>
</g>
</g>
<!-- Node1&#45;&gt;Node3 -->
<g id="edge2" class="edge"><title>Node1&#45;&gt;Node3</title>
<path fill="none" stroke="midnightblue" d="M79.1655,-389.955C100.28,-379.105 134.88,-361.326 159.181,-348.84"/>
<polygon fill="midnightblue" stroke="midnightblue" points="160.963,-351.859 168.258,-344.176 157.764,-345.633 160.963,-351.859"/>
</g>
<!-- Node4 -->
<g id="node4" class="node"><title>Node4</title>
<g id="a_node4"><a xlink:href="teensy3__morse__bsp_8cpp.html#ab306f692c5c9455a0c82782a67ff0147" target="_top" xlink:title="touchPoll">
<polygon fill="white" stroke="black" points="894.5,-168.046 894.5,-187.046 951.5,-187.046 951.5,-168.046 894.5,-168.046"/>
<text text-anchor="middle" x="923" y="-175.046" font-family="Helvetica,sans-Serif" font-size="10.00">touchPoll</text>
</a>
</g>
</g>
<!-- Node3&#45;&gt;Node4 -->
<g id="edge3" class="edge"><title>Node3&#45;&gt;Node4</title>
<path fill="none" stroke="midnightblue" d="M221.205,-334.344C334.844,-333.182 716.038,-325.348 824,-272.546 844.899,-262.324 843.427,-250.872 860,-234.546 874.184,-220.573 890.821,-205.337 903.288,-194.136"/>
<polygon fill="midnightblue" stroke="midnightblue" points="905.687,-196.685 910.81,-187.411 901.022,-191.466 905.687,-196.685"/>
</g>
<!-- Node6 -->
<g id="node6" class="node"><title>Node6</title>
<g id="a_node6"><a xlink:href="libmorse_8cpp.html#acd4b292f5e412ee4f05aed9dafbc072d" target="_top" xlink:title="Convert an ASCII character into Morse code and transmit it. ">
<polygon fill="white" stroke="black" points="257,-209.046 257,-228.046 307,-228.046 307,-209.046 257,-209.046"/>
<text text-anchor="middle" x="282" y="-216.046" font-family="Helvetica,sans-Serif" font-size="10.00">txLetter</text>
</a>
</g>
</g>
<!-- Node3&#45;&gt;Node6 -->
<g id="edge5" class="edge"><title>Node3&#45;&gt;Node6</title>
<path fill="none" stroke="midnightblue" d="M196.844,-324.655C212.402,-305.039 247.353,-260.971 266.967,-236.24"/>
<polygon fill="midnightblue" stroke="midnightblue" points="269.963,-238.094 273.435,-228.085 264.478,-233.745 269.963,-238.094"/>
</g>
<!-- Node5 -->
<g id="node5" class="node"><title>Node5</title>
<g id="a_node5"><a xlink:href="teensy3__morse__bsp_8cpp.html#af6899cd9b83df54106b259ab81ea5cb2" target="_top" xlink:title="touchMargin">
<polygon fill="white" stroke="black" points="1045.5,-168.046 1045.5,-187.046 1115.5,-187.046 1115.5,-168.046 1045.5,-168.046"/>
<text text-anchor="middle" x="1080.5" y="-175.046" font-family="Helvetica,sans-Serif" font-size="10.00">touchMargin</text>
</a>
</g>
</g>
<!-- Node4&#45;&gt;Node5 -->
<g id="edge4" class="edge"><title>Node4&#45;&gt;Node5</title>
<path fill="none" stroke="midnightblue" d="M951.8,-177.546C974.937,-177.546 1008.31,-177.546 1035.13,-177.546"/>
<polygon fill="midnightblue" stroke="midnightblue" points="1035.43,-181.046 1045.43,-177.546 1035.43,-174.046 1035.43,-181.046"/>
</g>
<!-- Node7 -->
<g id="node7" class="node"><title>Node7</title>
<g id="a_node7"><a xlink:href="libmorse_8cpp.html#a9fdfce728595d72b78dc7c834ab99a40" target="_top" xlink:title="Transmit a literal Morse code value. ">
<polygon fill="white" stroke="black" points="343,-114.046 343,-133.046 394,-133.046 394,-114.046 343,-114.046"/>
<text text-anchor="middle" x="368.5" y="-121.046" font-family="Helvetica,sans-Serif" font-size="10.00">txLiteral</text>
</a>
</g>
</g>
<!-- Node6&#45;&gt;Node7 -->
<g id="edge6" class="edge"><title>Node6&#45;&gt;Node7</title>
<path fill="none" stroke="midnightblue" d="M291.725,-208.737C305.967,-192.725 334.393,-160.766 352.093,-140.868"/>
<polygon fill="midnightblue" stroke="midnightblue" points="354.918,-142.958 358.949,-133.16 349.687,-138.305 354.918,-142.958"/>
</g>
<!-- Node17 -->
<g id="node17" class="node"><title>Node17</title>
<g id="a_node17"><a xlink:href="libmorse_8cpp.html#ab94e088615119d1faae7df22ce50aedf" target="_top" xlink:title="Transmit a Morse code prosign indicating an error. ">
<polygon fill="white" stroke="black" points="455.5,-190.046 455.5,-209.046 501.5,-209.046 501.5,-190.046 455.5,-190.046"/>
<text text-anchor="middle" x="478.5" y="-197.046" font-family="Helvetica,sans-Serif" font-size="10.00">txError</text>
</a>
</g>
</g>
<!-- Node6&#45;&gt;Node17 -->
<g id="edge38" class="edge"><title>Node6&#45;&gt;Node17</title>
<path fill="none" stroke="midnightblue" d="M307.24,-216.178C342.053,-212.777 406.282,-206.503 445.125,-202.708"/>
<polygon fill="midnightblue" stroke="midnightblue" points="445.749,-206.164 455.361,-201.708 445.069,-199.197 445.749,-206.164"/>
</g>
<!-- Node8 -->
<g id="node8" class="node"><title>Node8</title>
<g id="a_node8"><a xlink:href="class_morse_token.html#a48cd72aeb868391449d1f51c1d0bf5cc" target="_top" xlink:title="Treat code == 0 as the error token. ">
<polygon fill="white" stroke="black" points="430,-114.046 430,-133.046 527,-133.046 527,-114.046 430,-114.046"/>
<text text-anchor="middle" x="478.5" y="-121.046" font-family="Helvetica,sans-Serif" font-size="10.00">MorseToken::valid</text>
</a>
</g>
</g>
<!-- Node7&#45;&gt;Node8 -->
<g id="edge7" class="edge"><title>Node7&#45;&gt;Node8</title>
<path fill="none" stroke="midnightblue" d="M394.007,-123.546C401.694,-123.546 410.531,-123.546 419.516,-123.546"/>
<polygon fill="midnightblue" stroke="midnightblue" points="419.67,-127.046 429.67,-123.546 419.67,-120.046 419.67,-127.046"/>
</g>
<!-- Node9 -->
<g id="node9" class="node"><title>Node9</title>
<g id="a_node9"><a xlink:href="teensy3__morse__bsp_8cpp.html#af66e71e3fac9b6a2c6532bc8a513bfde" target="_top" xlink:title="Output a square wave on pin 10 at the given frequency for the given duration. ">
<polygon fill="white" stroke="black" points="459.5,-38.0455 459.5,-57.0455 497.5,-57.0455 497.5,-38.0455 459.5,-38.0455"/>
<text text-anchor="middle" x="478.5" y="-45.0455" font-family="Helvetica,sans-Serif" font-size="10.00">beep</text>
</a>
</g>
</g>
<!-- Node7&#45;&gt;Node9 -->
<g id="edge8" class="edge"><title>Node7&#45;&gt;Node9</title>
<path fill="none" stroke="midnightblue" d="M377.63,-113.906C388.491,-101.532 408.834,-80.0546 430,-66.5455 436.036,-62.693 442.982,-59.3825 449.665,-56.6548"/>
<polygon fill="midnightblue" stroke="midnightblue" points="451.014,-59.8868 459.133,-53.0801 448.541,-53.338 451.014,-59.8868"/>
</g>
<!-- Node15 -->
<g id="node15" class="node"><title>Node15</title>
<g id="a_node15"><a xlink:href="settings_8cpp.html#a8575b9b52638114a4f32d1462cf9b7c1" target="_top" xlink:title="Get the transmission frequency (side tone). ">
<polygon fill="white" stroke="black" points="451.5,-76.0455 451.5,-95.0455 505.5,-95.0455 505.5,-76.0455 451.5,-76.0455"/>
<text text-anchor="middle" x="478.5" y="-83.0455" font-family="Helvetica,sans-Serif" font-size="10.00">getTxHz</text>
</a>
</g>
</g>
<!-- Node7&#45;&gt;Node15 -->
<g id="edge14" class="edge"><title>Node7&#45;&gt;Node15</title>
<path fill="none" stroke="midnightblue" d="M394.007,-114.923C407.995,-110.001 425.793,-103.739 441.359,-98.2619"/>
<polygon fill="midnightblue" stroke="midnightblue" points="442.932,-101.419 451.203,-94.7981 440.608,-94.8156 442.932,-101.419"/>
</g>
<!-- Node16 -->
<g id="node16" class="node"><title>Node16</title>
<g id="a_node16"><a xlink:href="settings_8cpp.html#a960551e90dfdad18f3c9b1338ccba7db" target="_top" xlink:title="Get the dit duration in microseconds. ">
<polygon fill="white" stroke="black" points="729,-74.0455 729,-93.0455 801,-93.0455 801,-74.0455 729,-74.0455"/>
<text text-anchor="middle" x="765" y="-81.0455" font-family="Helvetica,sans-Serif" font-size="10.00">getDitMicros</text>
</a>
</g>
</g>
<!-- Node7&#45;&gt;Node16 -->
<g id="edge15" class="edge"><title>Node7&#45;&gt;Node16</title>
<path fill="none" stroke="midnightblue" d="M372.605,-113.759C379.439,-93.9697 397.792,-49.3176 430,-28.5455 480.18,3.81778 503.439,-13.7784 563,-9.54555 610.436,-6.17438 626.314,9.24508 670,-9.54555 691.371,-18.738 687.968,-32.8456 706,-47.5455 715.565,-55.3429 726.944,-62.753 737.079,-68.8009"/>
<polygon fill="midnightblue" stroke="midnightblue" points="735.543,-71.9561 745.95,-73.9442 739.055,-65.9003 735.543,-71.9561"/>
</g>
<!-- Node7&#45;&gt;Node17 -->
<g id="edge16" class="edge"><title>Node7&#45;&gt;Node17</title>
<path fill="none" stroke="midnightblue" d="M379.173,-133.173C390.643,-144.265 410.652,-162.621 430,-175.546 435.119,-178.965 440.79,-182.23 446.381,-185.189"/>
<polygon fill="midnightblue" stroke="midnightblue" points="445.096,-188.462 455.599,-189.855 448.257,-182.217 445.096,-188.462"/>
</g>
<!-- Node10 -->
<g id="node10" class="node"><title>Node10</title>
<g id="a_node10"><a xlink:href="teensy3__morse__bsp_8cpp.html#a6f674d5b9985ea3a7eeb0df299c2e405" target="_top" xlink:title="pollEarphonePresent">
<polygon fill="white" stroke="black" points="563,-95.0455 563,-114.046 670,-114.046 670,-95.0455 563,-95.0455"/>
<text text-anchor="middle" x="616.5" y="-102.046" font-family="Helvetica,sans-Serif" font-size="10.00">pollEarphonePresent</text>
</a>
</g>
</g>
<!-- Node9&#45;&gt;Node10 -->
<g id="edge9" class="edge"><title>Node9&#45;&gt;Node10</title>
<path fill="none" stroke="midnightblue" d="M497.734,-54.3224C506.652,-57.7669 517.487,-62.1474 527,-66.5455 543.422,-74.1378 546.454,-78.2275 563,-85.5455 567.527,-87.5476 572.336,-89.507 577.136,-91.3609"/>
<polygon fill="midnightblue" stroke="midnightblue" points="576.287,-94.7799 586.879,-94.9984 578.735,-88.222 576.287,-94.7799"/>
</g>
<!-- Node11 -->
<g id="node11" class="node"><title>Node11</title>
<g id="a_node11"><a xlink:href="teensy3__morse__bsp_8cpp.html#a2d6b4ace33ed5e497dedd03217540c63" target="_top" xlink:title="Set the PWM frequency for the audio output pins. ">
<polygon fill="white" stroke="black" points="575,-57.0455 575,-76.0455 658,-76.0455 658,-57.0455 575,-57.0455"/>
<text text-anchor="middle" x="616.5" y="-64.0455" font-family="Helvetica,sans-Serif" font-size="10.00">pwmFrequency</text>
</a>
</g>
</g>
<!-- Node9&#45;&gt;Node11 -->
<g id="edge10" class="edge"><title>Node9&#45;&gt;Node11</title>
<path fill="none" stroke="midnightblue" d="M497.56,-50.0686C514.617,-52.4516 541.017,-56.1398 564.519,-59.4232"/>
<polygon fill="midnightblue" stroke="midnightblue" points="564.334,-62.9313 574.722,-60.8486 565.303,-55.9986 564.334,-62.9313"/>
</g>
<!-- Node12 -->
<g id="node12" class="node"><title>Node12</title>
<g id="a_node12"><a xlink:href="teensy3__morse__bsp_8cpp.html#a82911eac3bf13d6f36d10102a4c4d3c4" target="_top" xlink:title="Generate a tone on the audio output pins. ">
<polygon fill="white" stroke="black" points="586,-19.0455 586,-38.0455 647,-38.0455 647,-19.0455 586,-19.0455"/>
<text text-anchor="middle" x="616.5" y="-26.0455" font-family="Helvetica,sans-Serif" font-size="10.00">pwmWrite</text>
</a>
</g>
</g>
<!-- Node9&#45;&gt;Node12 -->
<g id="edge11" class="edge"><title>Node9&#45;&gt;Node12</title>
<path fill="none" stroke="midnightblue" d="M497.56,-45.0225C517.462,-42.2421 550.083,-37.6847 575.979,-34.0669"/>
<polygon fill="midnightblue" stroke="midnightblue" points="576.471,-37.5322 585.89,-32.6822 575.502,-30.5995 576.471,-37.5322"/>
</g>
<!-- Node14 -->
<g id="node14" class="node"><title>Node14</title>
<g id="a_node14"><a xlink:href="teensy3__morse__bsp_8cpp.html#a6c982a7d7805f1dd5426eb98c915cfdd" target="_top" xlink:title="Turn the red LED on (1) or off (0). ">
<polygon fill="white" stroke="black" points="591.5,-133.046 591.5,-152.046 641.5,-152.046 641.5,-133.046 591.5,-133.046"/>
<text text-anchor="middle" x="616.5" y="-140.046" font-family="Helvetica,sans-Serif" font-size="10.00">redLED</text>
</a>
</g>
</g>
<!-- Node9&#45;&gt;Node14 -->
<g id="edge13" class="edge"><title>Node9&#45;&gt;Node14</title>
<path fill="none" stroke="midnightblue" d="M497.61,-51.8721C507.125,-54.8233 518.534,-59.5012 527,-66.5455 550.032,-85.7102 539.652,-104.767 563,-123.546 568.481,-127.954 575.072,-131.389 581.705,-134.05"/>
<polygon fill="midnightblue" stroke="midnightblue" points="580.732,-137.417 591.327,-137.416 583.044,-130.81 580.732,-137.417"/>
</g>
<!-- Node13 -->
<g id="node13" class="node"><title>Node13</title>
<g id="a_node13"><a xlink:href="teensy3__morse__bsp_8cpp.html#ac70998cee1bf97f00aec4a1b4e5a4f60" target="_top" xlink:title="isEarphonePresent">
<polygon fill="white" stroke="black" points="715.5,-19.0455 715.5,-38.0455 814.5,-38.0455 814.5,-19.0455 715.5,-19.0455"/>
<text text-anchor="middle" x="765" y="-26.0455" font-family="Helvetica,sans-Serif" font-size="10.00">isEarphonePresent</text>
</a>
</g>
</g>
<!-- Node12&#45;&gt;Node13 -->
<g id="edge12" class="edge"><title>Node12&#45;&gt;Node13</title>
<path fill="none" stroke="midnightblue" d="M647.146,-28.5455C663.807,-28.5455 685.199,-28.5455 705.116,-28.5455"/>
<polygon fill="midnightblue" stroke="midnightblue" points="705.364,-32.0456 715.364,-28.5455 705.364,-25.0456 705.364,-32.0456"/>
</g>
<!-- Node18 -->
<g id="node18" class="node"><title>Node18</title>
<g id="a_node18"><a xlink:href="libmorse_8cpp.html#a0ee2308940264ea9ac8e50afc1a4d285" target="_top" xlink:title="txString">
<polygon fill="white" stroke="black" points="591.5,-206.046 591.5,-225.046 641.5,-225.046 641.5,-206.046 591.5,-206.046"/>
<text text-anchor="middle" x="616.5" y="-213.046" font-family="Helvetica,sans-Serif" font-size="10.00">txString</text>
</a>
</g>
</g>
<!-- Node17&#45;&gt;Node18 -->
<g id="edge17" class="edge"><title>Node17&#45;&gt;Node18</title>
<path fill="none" stroke="midnightblue" d="M501.653,-202.152C523.124,-204.678 556.008,-208.546 580.923,-211.478"/>
<polygon fill="midnightblue" stroke="midnightblue" points="580.717,-214.977 591.057,-212.67 581.535,-208.025 580.717,-214.977"/>
</g>
<!-- Node18&#45;&gt;Node2 -->
<g id="edge22" class="edge"><title>Node18&#45;&gt;Node2</title>
<path fill="none" stroke="midnightblue" d="M630.89,-225.121C647.88,-237.047 678.313,-257.661 706,-272.546 767.93,-305.839 843.908,-337.191 887.261,-354.24"/>
<polygon fill="midnightblue" stroke="midnightblue" points="886.188,-357.578 896.776,-357.958 888.736,-351.058 886.188,-357.578"/>
</g>
<!-- Node18&#45;&gt;Node3 -->
<g id="edge23" class="edge"><title>Node18&#45;&gt;Node3</title>
<path fill="none" stroke="midnightblue" d="M591.466,-221.274C573.67,-225.51 548.827,-231.409 527,-236.546 407.053,-264.77 372.656,-257.028 257,-299.546 242.203,-304.985 226.504,-312.908 213.923,-319.84"/>
<polygon fill="midnightblue" stroke="midnightblue" points="211.964,-316.927 204.976,-324.891 215.405,-323.023 211.964,-316.927"/>
</g>
<!-- Node18&#45;&gt;Node4 -->
<g id="edge18" class="edge"><title>Node18&#45;&gt;Node4</title>
<path fill="none" stroke="midnightblue" d="M627.924,-205.912C643.509,-192.238 674.441,-167.829 706,-158.546 766.683,-140.695 840.762,-154.463 884.508,-166.033"/>
<polygon fill="midnightblue" stroke="midnightblue" points="883.852,-169.482 894.422,-168.756 885.706,-162.732 883.852,-169.482"/>
</g>
<!-- Node18&#45;&gt;Node6 -->
<g id="edge21" class="edge"><title>Node18&#45;&gt;Node6</title>
<path fill="none" stroke="midnightblue" d="M591.435,-217.397C543.928,-220.8 434.74,-227.361 343,-223.546 334.702,-223.2 325.775,-222.588 317.41,-221.907"/>
<polygon fill="midnightblue" stroke="midnightblue" points="317.467,-218.399 307.202,-221.023 316.863,-225.373 317.467,-218.399"/>
</g>
<!-- Node18&#45;&gt;Node7 -->
<g id="edge20" class="edge"><title>Node18&#45;&gt;Node7</title>
<path fill="none" stroke="midnightblue" d="M591.909,-205.998C574.122,-198.852 549.097,-188.911 527,-180.546 484.792,-164.566 435.872,-147.011 403.893,-135.665"/>
<polygon fill="midnightblue" stroke="midnightblue" points="404.73,-132.248 394.135,-132.209 402.393,-138.847 404.73,-132.248"/>
</g>
<!-- Node18&#45;&gt;Node16 -->
<g id="edge19" class="edge"><title>Node18&#45;&gt;Node16</title>
<path fill="none" stroke="midnightblue" d="M626.767,-206.036C648.606,-183.639 701.784,-129.171 706,-125.546 716.899,-116.173 729.784,-106.699 740.639,-99.1268"/>
<polygon fill="midnightblue" stroke="midnightblue" points="742.926,-101.802 749.19,-93.2579 738.965,-96.0306 742.926,-101.802"/>
</g>
<!-- Node19 -->
<g id="node19" class="node"><title>Node19</title>
<g id="a_node19"><a xlink:href="actions_8cpp.html#aed718ec1bd4cc7adb2f65d40a6784496" target="_top" xlink:title="Transmit the internal temperature in integer in Fahrenheit. ">
<polygon fill="white" stroke="black" points="706,-358.046 706,-377.046 824,-377.046 824,-358.046 706,-358.046"/>
<text text-anchor="middle" x="765" y="-365.046" font-family="Helvetica,sans-Serif" font-size="10.00">txInternalTemperatureF</text>
</a>
</g>
</g>
<!-- Node18&#45;&gt;Node19 -->
<g id="edge24" class="edge"><title>Node18&#45;&gt;Node19</title>
<path fill="none" stroke="midnightblue" d="M621.822,-225.303C632.681,-248.796 663.324,-309.099 706,-343.546 710.953,-347.543 716.665,-350.966 722.531,-353.868"/>
<polygon fill="midnightblue" stroke="midnightblue" points="721.233,-357.122 731.791,-358.008 724.09,-350.731 721.233,-357.122"/>
</g>
<!-- Node20 -->
<g id="node20" class="node"><title>Node20</title>
<g id="a_node20"><a xlink:href="actions_8cpp.html#aaabb3ac0c23f35a499bc17efe829f326" target="_top" xlink:title="Transmit the 24&#45;hr time. ">
<polygon fill="white" stroke="black" points="726,-206.046 726,-225.046 804,-225.046 804,-206.046 726,-206.046"/>
<text text-anchor="middle" x="765" y="-213.046" font-family="Helvetica,sans-Serif" font-size="10.00">txTimeHHMM</text>
</a>
</g>
</g>
<!-- Node18&#45;&gt;Node20 -->
<g id="edge27" class="edge"><title>Node18&#45;&gt;Node20</title>
<path fill="none" stroke="midnightblue" d="M641.691,-210.379C661.674,-208.825 690.67,-208.415 715.415,-209.148"/>
<polygon fill="midnightblue" stroke="midnightblue" points="715.598,-212.657 725.721,-209.532 715.858,-205.662 715.598,-212.657"/>
</g>
<!-- Node21 -->
<g id="node21" class="node"><title>Node21</title>
<g id="a_node21"><a xlink:href="actions_8cpp.html#ad02149679fa3cc6a4957d1a318408ffd" target="_top" xlink:title="Transmit the uptime. ">
<polygon fill="white" stroke="black" points="737,-396.046 737,-415.046 793,-415.046 793,-396.046 737,-396.046"/>
<text text-anchor="middle" x="765" y="-403.046" font-family="Helvetica,sans-Serif" font-size="10.00">txUptime</text>
</a>
</g>
</g>
<!-- Node18&#45;&gt;Node21 -->
<g id="edge29" class="edge"><title>Node18&#45;&gt;Node21</title>
<path fill="none" stroke="midnightblue" d="M619.762,-225.303C626.992,-254.312 652.277,-340.844 706,-386.546 712.129,-391.759 719.725,-395.552 727.379,-398.307"/>
<polygon fill="midnightblue" stroke="midnightblue" points="726.411,-401.671 736.998,-401.272 728.473,-394.982 726.411,-401.671"/>
</g>
<!-- Node23 -->
<g id="node23" class="node"><title>Node23</title>
<g id="a_node23"><a xlink:href="teensy3__morse__bsp_8cpp.html#ae8dd28759e56dbd2ee9bc9ae96d1783c" target="_top" xlink:title="Return the most recent ADC measurement of the input voltage. Perform analog to digital conversion on ...">
<polygon fill="white" stroke="black" points="728,-244.046 728,-263.046 802,-263.046 802,-244.046 728,-244.046"/>
<text text-anchor="middle" x="765" y="-251.046" font-family="Helvetica,sans-Serif" font-size="10.00">readMillivolts</text>
</a>
</g>
</g>
<!-- Node18&#45;&gt;Node23 -->
<g id="edge32" class="edge"><title>Node18&#45;&gt;Node23</title>
<path fill="none" stroke="midnightblue" d="M641.691,-221.82C662.426,-227.199 692.867,-235.095 718.191,-241.663"/>
<polygon fill="midnightblue" stroke="midnightblue" points="717.413,-245.077 727.972,-244.2 719.171,-238.302 717.413,-245.077"/>
</g>
<!-- Node27 -->
<g id="node27" class="node"><title>Node27</title>
<g id="a_node27"><a xlink:href="libmorse_8cpp.html#ac3f000c98271c6d0a7710135e18189bc" target="_top" xlink:title="On my hardware there is cross&#45;coupling between the serial port and the touch sensors. Without the code below, long messages to the serial port trigger a touch input. ">
<polygon fill="white" stroke="black" points="732.5,-168.046 732.5,-187.046 797.5,-187.046 797.5,-168.046 732.5,-168.046"/>
<text text-anchor="middle" x="765" y="-175.046" font-family="Helvetica,sans-Serif" font-size="10.00">flushTouch</text>
</a>
</g>
</g>
<!-- Node18&#45;&gt;Node27 -->
<g id="edge36" class="edge"><title>Node18&#45;&gt;Node27</title>
<path fill="none" stroke="midnightblue" d="M641.691,-209.271C663.574,-203.595 696.267,-195.115 722.348,-188.349"/>
<polygon fill="midnightblue" stroke="midnightblue" points="723.543,-191.655 732.344,-185.757 721.786,-184.88 723.543,-191.655"/>
</g>
<!-- Node19&#45;&gt;Node2 -->
<g id="edge25" class="edge"><title>Node19&#45;&gt;Node2</title>
<path fill="none" stroke="midnightblue" d="M824.089,-367.546C832.619,-367.546 841.489,-367.546 850.254,-367.546"/>
<polygon fill="midnightblue" stroke="midnightblue" points="850.467,-371.046 860.467,-367.546 850.467,-364.046 850.467,-371.046"/>
</g>
<!-- Node19&#45;&gt;Node3 -->
<g id="edge26" class="edge"><title>Node19&#45;&gt;Node3</title>
<path fill="none" stroke="midnightblue" d="M705.996,-363.989C648.521,-360.776 557.969,-356.546 479.5,-356.546 367.5,-356.546 367.5,-356.546 367.5,-356.546 320.609,-356.546 267.306,-348.975 231.25,-342.716"/>
<polygon fill="midnightblue" stroke="midnightblue" points="231.558,-339.215 221.1,-340.909 230.332,-346.107 231.558,-339.215"/>
</g>
<!-- Node20&#45;&gt;Node18 -->
<g id="edge28" class="edge"><title>Node20&#45;&gt;Node18</title>
<path fill="none" stroke="midnightblue" d="M725.721,-221.559C702.877,-222.6 674.104,-222.537 651.969,-221.372"/>
<polygon fill="midnightblue" stroke="midnightblue" points="651.895,-217.861 641.691,-220.712 651.446,-224.846 651.895,-217.861"/>
</g>
<!-- Node21&#45;&gt;Node3 -->
<g id="edge31" class="edge"><title>Node21&#45;&gt;Node3</title>
<path fill="none" stroke="midnightblue" d="M736.942,-404.119C686.385,-401.582 574.134,-396.546 479.5,-396.546 367.5,-396.546 367.5,-396.546 367.5,-396.546 310.172,-396.546 247.935,-367.656 214.204,-349.317"/>
<polygon fill="midnightblue" stroke="midnightblue" points="215.52,-346.044 205.081,-344.233 212.112,-352.158 215.52,-346.044"/>
</g>
<!-- Node22 -->
<g id="node22" class="node"><title>Node22</title>
<g id="a_node22"><a xlink:href="settings_8cpp.html#a7b4efa097b94f9a90c5bbafcdf93fe4f" target="_top" xlink:title="getUptime">
<polygon fill="white" stroke="black" points="892,-396.046 892,-415.046 954,-415.046 954,-396.046 892,-396.046"/>
<text text-anchor="middle" x="923" y="-403.046" font-family="Helvetica,sans-Serif" font-size="10.00">getUptime</text>
</a>
</g>
</g>
<!-- Node21&#45;&gt;Node22 -->
<g id="edge30" class="edge"><title>Node21&#45;&gt;Node22</title>
<path fill="none" stroke="midnightblue" d="M793.173,-405.546C817.633,-405.546 853.905,-405.546 881.735,-405.546"/>
<polygon fill="midnightblue" stroke="midnightblue" points="881.945,-409.046 891.945,-405.546 881.945,-402.046 881.945,-409.046"/>
</g>
<!-- Node24 -->
<g id="node24" class="node"><title>Node24</title>
<g id="a_node24"><a xlink:href="class_voltage_monitor.html#a70902b84f9864c95d5553a0644a64f4f" target="_top" xlink:title="Return the latest voltage reading. ">
<polygon fill="white" stroke="black" points="860,-244.046 860,-263.046 986,-263.046 986,-244.046 860,-244.046"/>
<text text-anchor="middle" x="923" y="-251.046" font-family="Helvetica,sans-Serif" font-size="10.00">VoltageMonitor::getValue</text>
</a>
</g>
</g>
<!-- Node23&#45;&gt;Node24 -->
<g id="edge33" class="edge"><title>Node23&#45;&gt;Node24</title>
<path fill="none" stroke="midnightblue" d="M802.182,-253.546C816.344,-253.546 833.117,-253.546 849.56,-253.546"/>
<polygon fill="midnightblue" stroke="midnightblue" points="849.728,-257.046 859.728,-253.546 849.728,-250.046 849.728,-257.046"/>
</g>
<!-- Node25 -->
<g id="node25" class="node"><title>Node25</title>
<g id="a_node25"><a xlink:href="actions_8cpp.html#a2b8c3769e2aa32a2da9e2f3f85ac73dd" target="_top" xlink:title="A sample ADC reading is taken each time through the main loop, and written to a ring buffer...">
<polygon fill="white" stroke="black" points="1024.5,-263.046 1024.5,-282.046 1136.5,-282.046 1136.5,-263.046 1024.5,-263.046"/>
<text text-anchor="middle" x="1080.5" y="-270.046" font-family="Helvetica,sans-Serif" font-size="10.00">getVoltagePollInterval</text>
</a>
</g>
</g>
<!-- Node24&#45;&gt;Node25 -->
<g id="edge34" class="edge"><title>Node24&#45;&gt;Node25</title>
<path fill="none" stroke="midnightblue" d="M986.352,-261.164C995.438,-262.274 1004.82,-263.42 1013.96,-264.538"/>
<polygon fill="midnightblue" stroke="midnightblue" points="1013.81,-268.045 1024.16,-265.784 1014.66,-261.097 1013.81,-268.045"/>
</g>
<!-- Node26 -->
<g id="node26" class="node"><title>Node26</title>
<g id="a_node26"><a xlink:href="class_voltage_monitor.html#a75871331808c34b40d04059ee2af0f27" target="_top" xlink:title="Filter and scale raw ADC values to millivolts. ">
<polygon fill="white" stroke="black" points="1022,-225.046 1022,-244.046 1139,-244.046 1139,-225.046 1022,-225.046"/>
<text text-anchor="middle" x="1080.5" y="-232.046" font-family="Helvetica,sans-Serif" font-size="10.00">VoltageMonitor::update</text>
</a>
</g>
</g>
<!-- Node24&#45;&gt;Node26 -->
<g id="edge35" class="edge"><title>Node24&#45;&gt;Node26</title>
<path fill="none" stroke="midnightblue" d="M986.352,-245.927C994.702,-244.907 1003.3,-243.856 1011.74,-242.825"/>
<polygon fill="midnightblue" stroke="midnightblue" points="1012.42,-246.268 1021.92,-241.581 1011.57,-239.32 1012.42,-246.268"/>
</g>
<!-- Node27&#45;&gt;Node4 -->
<g id="edge37" class="edge"><title>Node27&#45;&gt;Node4</title>
<path fill="none" stroke="midnightblue" d="M797.569,-177.546C822.641,-177.546 857.778,-177.546 884.321,-177.546"/>
<polygon fill="midnightblue" stroke="midnightblue" points="884.394,-181.046 894.394,-177.546 884.394,-174.046 884.394,-181.046"/>
</g>
</g>
</svg>
        <g id="navigator" transform="translate(0 0)" fill="#404254">
                <rect fill="#f2f5e9" fill-opacity="0.5" stroke="#606060" stroke-width=".5" x="0" y="0" width="60" height="60"/>
                <use id="zoomplus" xlink:href="#zoomPlus" x="17" y="9" onmousedown="handleZoom(evt,'in')"/>
                <use id="zoomminus" xlink:href="#zoomMin" x="42" y="9" onmousedown="handleZoom(evt,'out')"/>
                <use id="reset" xlink:href="#resetDef" x="30" y="36" onmousedown="handleReset()"/>
                <g id="arrowUp" xlink:href="#dirArrow" transform="translate(30 24)" onmousedown="handlePan(0,-1)">
                  <use xlink:href="#rim" fill="#404040">
                        <set attributeName="fill" to="#808080" begin="arrowUp.mouseover" end="arrowUp.mouseout"/>
                  </use>
                  <path fill="none" stroke="white" stroke-width="1.5" d="M0,-3.0v7 M-2.5,-0.5L0,-3.0L2.5,-0.5"/>
                </g>
                <g id="arrowRight" xlink:href="#dirArrow" transform="rotate(90) translate(36 -43)" onmousedown="handlePan(1,0)">
                  <use xlink:href="#rim" fill="#404040">
                        <set attributeName="fill" to="#808080" begin="arrowRight.mouseover" end="arrowRight.mouseout"/>
                  </use>
                  <path fill="none" stroke="white" stroke-width="1.5" d="M0,-3.0v7 M-2.5,-0.5L0,-3.0L2.5,-0.5"/>
                </g>
                <g id="arrowDown" xlink:href="#dirArrow" transform="rotate(180) translate(-30 -48)" onmousedown="handlePan(0,1)">
                  <use xlink:href="#rim" fill="#404040">
                        <set attributeName="fill" to="#808080" begin="arrowDown.mouseover" end="arrowDown.mouseout"/>
                  </use>
                  <path fill="none" stroke="white" stroke-width="1.5" d="M0,-3.0v7 M-2.5,-0.5L0,-3.0L2.5,-0.5"/>
                </g>
                <g id="arrowLeft" xlink:href="#dirArrow" transform="rotate(270) translate(-36 17)" onmousedown="handlePan(-1,0)">
                  <use xlink:href="#rim" fill="#404040">
                        <set attributeName="fill" to="#808080" begin="arrowLeft.mouseover" end="arrowLeft.mouseout"/>
                  </use>
                  <path fill="none" stroke="white" stroke-width="1.5" d="M0,-3.0v7 M-2.5,-0.5L0,-3.0L2.5,-0.5"/>
                </g>
        </g>
        <svg viewBox="0 0 15 15" width="100%" height="30px" preserveAspectRatio="xMaxYMin meet">
         <g id="arrow_out" transform="scale(0.3 0.3)">
          <a xlink:href="actions_8cpp_a9365d1f537a572155753a57bfd7defbd_cgraph_org.svg" target="_base">
           <rect id="button" ry="5" rx="5" y="6" x="6" height="38" width="38"
                fill="#f2f5e9" fill-opacity="0.5" stroke="#606060" stroke-width="1.0"/>
           <path id="arrow"
             d="M 11.500037,31.436501 C 11.940474,20.09759 22.043105,11.32322 32.158766,21.979434 L 37.068811,17.246167 C 37.068811,17.246167 37.088388,32 37.088388,32 L 22.160133,31.978069 C 22.160133,31.978069 26.997745,27.140456 26.997745,27.140456 C 18.528582,18.264221 13.291696,25.230495 11.500037,31.436501 z"
             style="fill:#404040;"/>
          </a>
         </g>
        </svg>
</svg>
