<?xml version="1.0" encoding="UTF-8" standalone="no"?>
<!DOCTYPE svg PUBLIC "-//W3C//DTD SVG 1.1//EN"
 "http://www.w3.org/Graphics/SVG/1.1/DTD/svg11.dtd">
<!-- Generated by graphviz version 2.38.0 (20140413.2041)
 -->
<!-- Title: txTick Pages: 1 -->
<svg width="446pt" height="104pt"
 viewBox="0.00 0.00 446.00 104.00" xmlns="http://www.w3.org/2000/svg" xmlns:xlink="http://www.w3.org/1999/xlink">
<g id="graph0" class="graph" transform="scale(1 1) rotate(0) translate(4 100)">
<title>txTick</title>
<polygon fill="white" stroke="none" points="-4,4 -4,-100 442,-100 442,4 -4,4"/>
<!-- Node1 -->
<g id="node1" class="node"><title>Node1</title>
<polygon fill="#bfbfbf" stroke="black" points="0,-19.5 0,-38.5 44,-38.5 44,-19.5 0,-19.5"/>
<text text-anchor="middle" x="22" y="-26.5" font-family="Helvetica,sans-Serif" font-size="10.00">txTick</text>
</g>
<!-- Node2 -->
<g id="node2" class="node"><title>Node2</title>
<g id="a_node2"><a xlink:href="sound_8cpp.html#a77ffd11f8a990ba2130061186e49535a" target="_top" xlink:title="Play a PWM tone at a given frequency and duration. ">
<polygon fill="white" stroke="black" points="104,-38.5 104,-57.5 160,-57.5 160,-38.5 104,-38.5"/>
<text text-anchor="middle" x="132" y="-45.5" font-family="Helvetica,sans-Serif" font-size="10.00">playTone</text>
</a>
</g>
</g>
<!-- Node1&#45;&gt;Node2 -->
<g id="edge1" class="edge"><title>Node1&#45;&gt;Node2</title>
<path fill="none" stroke="midnightblue" d="M44.0799,-32.7085C58.2122,-35.1947 77.2091,-38.5368 93.8386,-41.4623"/>
<polygon fill="midnightblue" stroke="midnightblue" points="93.367,-44.9331 103.822,-43.2187 94.5799,-38.0389 93.367,-44.9331"/>
</g>
<!-- Node7 -->
<g id="node7" class="node"><title>Node7</title>
<g id="a_node7"><a xlink:href="settings_8cpp.html#ad02597259b5753e0c98605bce44a9fc8" target="_top" xlink:title="Get the default dit duration in microseconds. ">
<polygon fill="white" stroke="black" points="80,-0.5 80,-19.5 184,-19.5 184,-0.5 80,-0.5"/>
<text text-anchor="middle" x="132" y="-7.5" font-family="Helvetica,sans-Serif" font-size="10.00">getDitMicrosDefault</text>
</a>
</g>
</g>
<!-- Node1&#45;&gt;Node7 -->
<g id="edge6" class="edge"><title>Node1&#45;&gt;Node7</title>
<path fill="none" stroke="midnightblue" d="M44.0799,-25.2915C51.6534,-23.9591 60.6241,-22.3809 69.8787,-20.7528"/>
<polygon fill="midnightblue" stroke="midnightblue" points="70.7375,-24.1556 79.9798,-18.9758 69.5246,-17.2614 70.7375,-24.1556"/>
</g>
<!-- Node3 -->
<g id="node3" class="node"><title>Node3</title>
<g id="a_node3"><a xlink:href="teensy3__morse__bsp_8cpp.html#a2d6b4ace33ed5e497dedd03217540c63" target="_top" xlink:title="Set the PWM frequency for the audio output pins. ">
<polygon fill="white" stroke="black" points="220,-76.5 220,-95.5 303,-95.5 303,-76.5 220,-76.5"/>
<text text-anchor="middle" x="261.5" y="-83.5" font-family="Helvetica,sans-Serif" font-size="10.00">pwmFrequency</text>
</a>
</g>
</g>
<!-- Node2&#45;&gt;Node3 -->
<g id="edge2" class="edge"><title>Node2&#45;&gt;Node3</title>
<path fill="none" stroke="midnightblue" d="M160.039,-56.0588C177.095,-61.1422 199.47,-67.8105 218.773,-73.5636"/>
<polygon fill="midnightblue" stroke="midnightblue" points="217.959,-76.9733 228.542,-76.4754 219.959,-70.2649 217.959,-76.9733"/>
</g>
<!-- Node4 -->
<g id="node4" class="node"><title>Node4</title>
<g id="a_node4"><a xlink:href="teensy3__morse__bsp_8cpp.html#a82911eac3bf13d6f36d10102a4c4d3c4" target="_top" xlink:title="Generate a tone on the audio output pins. ">
<polygon fill="white" stroke="black" points="231,-38.5 231,-57.5 292,-57.5 292,-38.5 231,-38.5"/>
<text text-anchor="middle" x="261.5" y="-45.5" font-family="Helvetica,sans-Serif" font-size="10.00">pwmWrite</text>
</a>
</g>
</g>
<!-- Node2&#45;&gt;Node4 -->
<g id="edge3" class="edge"><title>Node2&#45;&gt;Node4</title>
<path fill="none" stroke="midnightblue" d="M160.039,-48C177.637,-48 200.895,-48 220.601,-48"/>
<polygon fill="midnightblue" stroke="midnightblue" points="220.828,-51.5001 230.828,-48 220.828,-44.5001 220.828,-51.5001"/>
</g>
<!-- Node6 -->
<g id="node6" class="node"><title>Node6</title>
<g id="a_node6"><a xlink:href="teensy3__morse__bsp_8cpp.html#a36cda3a6dd77f2141cfc703c55a47ff8" target="_top" xlink:title="getDuty">
<polygon fill="white" stroke="black" points="236,-0.5 236,-19.5 287,-19.5 287,-0.5 236,-0.5"/>
<text text-anchor="middle" x="261.5" y="-7.5" font-family="Helvetica,sans-Serif" font-size="10.00">getDuty</text>
</a>
</g>
</g>
<!-- Node2&#45;&gt;Node6 -->
<g id="edge5" class="edge"><title>Node2&#45;&gt;Node6</title>
<path fill="none" stroke="midnightblue" d="M160.039,-39.9412C179.262,-34.2121 205.24,-26.4697 225.963,-20.2934"/>
<polygon fill="midnightblue" stroke="midnightblue" points="227.078,-23.6134 235.661,-17.4029 225.078,-16.905 227.078,-23.6134"/>
</g>
<!-- Node5 -->
<g id="node5" class="node"><title>Node5</title>
<g id="a_node5"><a xlink:href="teensy3__morse__bsp_8cpp.html#ac70998cee1bf97f00aec4a1b4e5a4f60" target="_top" xlink:title="isEarphonePresent">
<polygon fill="white" stroke="black" points="339,-38.5 339,-57.5 438,-57.5 438,-38.5 339,-38.5"/>
<text text-anchor="middle" x="388.5" y="-45.5" font-family="Helvetica,sans-Serif" font-size="10.00">isEarphonePresent</text>
</a>
</g>
</g>
<!-- Node4&#45;&gt;Node5 -->
<g id="edge4" class="edge"><title>Node4&#45;&gt;Node5</title>
<path fill="none" stroke="midnightblue" d="M292.123,-48C303.061,-48 315.876,-48 328.501,-48"/>
<polygon fill="midnightblue" stroke="midnightblue" points="328.545,-51.5001 338.545,-48 328.545,-44.5001 328.545,-51.5001"/>
</g>
</g>
</svg>
