<?xml version="1.0" encoding="UTF-8" standalone="no"?>
<!DOCTYPE svg PUBLIC "-//W3C//DTD SVG 1.1//EN"
 "http://www.w3.org/Graphics/SVG/1.1/DTD/svg11.dtd">
<!-- Generated by graphviz version 2.38.0 (20140413.2041)
 -->
<!-- Title: readNumber Pages: 1 -->
<svg width="289pt" height="28pt"
 viewBox="0.00 0.00 289.00 28.00" xmlns="http://www.w3.org/2000/svg" xmlns:xlink="http://www.w3.org/1999/xlink">
<g id="graph0" class="graph" transform="scale(1 1) rotate(0) translate(4 24)">
<title>readNumber</title>
<polygon fill="white" stroke="none" points="-4,4 -4,-24 285,-24 285,4 -4,4"/>
<!-- Node1 -->
<g id="node1" class="node"><title>Node1</title>
<polygon fill="#bfbfbf" stroke="black" points="0,-0.5 0,-19.5 70,-19.5 70,-0.5 0,-0.5"/>
<text text-anchor="middle" x="35" y="-7.5" font-family="Helvetica,sans-Serif" font-size="10.00">readNumber</text>
</g>
<!-- Node2 -->
<g id="node2" class="node"><title>Node2</title>
<g id="a_node2"><a xlink:href="actions_8h.html#a578278ac08b3288454ac5a86fbb15d76" target="_top" xlink:title="Prompt for a value from the serial port. ">
<polygon fill="white" stroke="black" points="106,-0.5 106,-19.5 170,-19.5 170,-0.5 106,-0.5"/>
<text text-anchor="middle" x="138" y="-7.5" font-family="Helvetica,sans-Serif" font-size="10.00">readRange</text>
</a>
</g>
</g>
<!-- Node1&#45;&gt;Node2 -->
<g id="edge1" class="edge"><title>Node1&#45;&gt;Node2</title>
<path fill="none" stroke="midnightblue" d="M80.4711,-10C89.0477,-10 97.8597,-10 105.898,-10"/>
<polygon fill="midnightblue" stroke="midnightblue" points="80.194,-6.5001 70.194,-10 80.194,-13.5001 80.194,-6.5001"/>
</g>
<!-- Node3 -->
<g id="node3" class="node"><title>Node3</title>
<g id="a_node3"><a xlink:href="actions_8h.html#a9c9466bf6676f35ff08e8dc33518e483" target="_top" xlink:title="Respond to commands from the serial port. ">
<polygon fill="white" stroke="black" points="206,-0.5 206,-19.5 281,-19.5 281,-0.5 206,-0.5"/>
<text text-anchor="middle" x="243.5" y="-7.5" font-family="Helvetica,sans-Serif" font-size="10.00">readEvalPrint</text>
</a>
</g>
</g>
<!-- Node2&#45;&gt;Node3 -->
<g id="edge2" class="edge"><title>Node2&#45;&gt;Node3</title>
<path fill="none" stroke="midnightblue" d="M180.085,-10C188.522,-10 197.354,-10 205.632,-10"/>
<polygon fill="midnightblue" stroke="midnightblue" points="180.053,-6.5001 170.053,-10 180.053,-13.5001 180.053,-6.5001"/>
</g>
</g>
</svg>
