<?xml version="1.0" encoding="UTF-8" standalone="no"?>
<!DOCTYPE svg PUBLIC "-//W3C//DTD SVG 1.1//EN"
 "http://www.w3.org/Graphics/SVG/1.1/DTD/svg11.dtd">
<!-- Generated by graphviz version 2.38.0 (20140413.2041)
 -->
<!-- Title: assignAction Pages: 1 -->
<svg width="188pt" height="104pt"
 viewBox="0.00 0.00 188.00 104.00" xmlns="http://www.w3.org/2000/svg" xmlns:xlink="http://www.w3.org/1999/xlink">
<g id="graph0" class="graph" transform="scale(1 1) rotate(0) translate(4 100)">
<title>assignAction</title>
<polygon fill="white" stroke="none" points="-4,4 -4,-100 184,-100 184,4 -4,4"/>
<!-- Node1 -->
<g id="node1" class="node"><title>Node1</title>
<polygon fill="#bfbfbf" stroke="black" points="0,-38.5 0,-57.5 73,-57.5 73,-38.5 0,-38.5"/>
<text text-anchor="middle" x="36.5" y="-45.5" font-family="Helvetica,sans-Serif" font-size="10.00">assignAction</text>
</g>
<!-- Node2 -->
<g id="node2" class="node"><title>Node2</title>
<g id="a_node2"><a xlink:href="pda_8h.html#a5218392624b017b817b80d6b16ea920d" target="_top" xlink:title="askNextAlfa">
<polygon fill="white" stroke="black" points="109,-76.5 109,-95.5 180,-95.5 180,-76.5 109,-76.5"/>
<text text-anchor="middle" x="144.5" y="-83.5" font-family="Helvetica,sans-Serif" font-size="10.00">askNextAlfa</text>
</a>
</g>
</g>
<!-- Node1&#45;&gt;Node2 -->
<g id="edge1" class="edge"><title>Node1&#45;&gt;Node2</title>
<path fill="none" stroke="midnightblue" d="M73.6845,-60.9718C87.8066,-66.0344 103.706,-71.7341 116.76,-76.4141"/>
<polygon fill="midnightblue" stroke="midnightblue" points="74.8428,-57.669 64.2483,-57.589 72.4805,-64.2584 74.8428,-57.669"/>
</g>
<!-- Node3 -->
<g id="node3" class="node"><title>Node3</title>
<g id="a_node3"><a xlink:href="pda_8h.html#abf2e0c8c523ed9ddee8a9194c9800b99" target="_top" xlink:title="askSum">
<polygon fill="white" stroke="black" points="118,-38.5 118,-57.5 171,-57.5 171,-38.5 118,-38.5"/>
<text text-anchor="middle" x="144.5" y="-45.5" font-family="Helvetica,sans-Serif" font-size="10.00">askSum</text>
</a>
</g>
</g>
<!-- Node1&#45;&gt;Node3 -->
<g id="edge2" class="edge"><title>Node1&#45;&gt;Node3</title>
<path fill="none" stroke="midnightblue" d="M83.3135,-48C95.1579,-48 107.49,-48 117.885,-48"/>
<polygon fill="midnightblue" stroke="midnightblue" points="83.0914,-44.5001 73.0913,-48 83.0913,-51.5001 83.0914,-44.5001"/>
</g>
<!-- Node4 -->
<g id="node4" class="node"><title>Node4</title>
<g id="a_node4"><a xlink:href="pda_8h.html#a1dc125d402fe76077cb4d166ac0fbf7a" target="_top" xlink:title="askNext">
<polygon fill="white" stroke="black" points="118,-0.5 118,-19.5 171,-19.5 171,-0.5 118,-0.5"/>
<text text-anchor="middle" x="144.5" y="-7.5" font-family="Helvetica,sans-Serif" font-size="10.00">askNext</text>
</a>
</g>
</g>
<!-- Node1&#45;&gt;Node4 -->
<g id="edge3" class="edge"><title>Node1&#45;&gt;Node4</title>
<path fill="none" stroke="midnightblue" d="M73.9085,-34.9479C88.3731,-29.7625 104.671,-23.9197 117.857,-19.1927"/>
<polygon fill="midnightblue" stroke="midnightblue" points="72.4805,-31.7416 64.2483,-38.411 74.8428,-38.331 72.4805,-31.7416"/>
</g>
</g>
</svg>
