<?xml version="1.0" encoding="UTF-8" standalone="no"?>
<!DOCTYPE svg PUBLIC "-//W3C//DTD SVG 1.1//EN"
 "http://www.w3.org/Graphics/SVG/1.1/DTD/svg11.dtd">
<!-- Generated by graphviz version 2.38.0 (20140413.2041)
 -->
<!-- Title: txUptime Pages: 1 -->
<svg width="1084pt" height="502pt"
 viewBox="0.00 0.00 1084.00 502.34" xmlns="http://www.w3.org/2000/svg" xmlns:xlink="http://www.w3.org/1999/xlink">
<g id="graph0" class="graph" transform="scale(1 1) rotate(0) translate(4 498.343)">
<title>txUptime</title>
<polygon fill="white" stroke="none" points="-4,4 -4,-498.343 1080,-498.343 1080,4 -4,4"/>
<!-- Node1 -->
<g id="node1" class="node"><title>Node1</title>
<polygon fill="#bfbfbf" stroke="black" points="0,-446.843 0,-465.843 56,-465.843 56,-446.843 0,-446.843"/>
<text text-anchor="middle" x="28" y="-453.843" font-family="Helvetica,sans-Serif" font-size="10.00">txUptime</text>
</g>
<!-- Node2 -->
<g id="node2" class="node"><title>Node2</title>
<g id="a_node2"><a xlink:href="settings_8cpp.html#a7b4efa097b94f9a90c5bbafcdf93fe4f" target="_top" xlink:title="getUptime">
<polygon fill="white" stroke="black" points="829,-465.843 829,-484.843 891,-484.843 891,-465.843 829,-465.843"/>
<text text-anchor="middle" x="860" y="-472.843" font-family="Helvetica,sans-Serif" font-size="10.00">getUptime</text>
</a>
</g>
</g>
<!-- Node1&#45;&gt;Node2 -->
<g id="edge1" class="edge"><title>Node1&#45;&gt;Node2</title>
<path fill="none" stroke="midnightblue" d="M56.1992,-465.349C92.6158,-476.586 159.429,-494.343 218,-494.343 218,-494.343 218,-494.343 554.5,-494.343 649.241,-494.343 760.242,-485.068 818.531,-479.478"/>
<polygon fill="midnightblue" stroke="midnightblue" points="819.171,-482.933 828.785,-478.481 818.493,-475.966 819.171,-482.933"/>
</g>
<!-- Node3 -->
<g id="node3" class="node"><title>Node3</title>
<g id="a_node3"><a xlink:href="libmorse_8cpp.html#a47abdd74b66d7180c47d192bab8bdccb" target="_top" xlink:title="Transmit an unsigned integer in Morse code. ">
<polygon fill="white" stroke="black" points="92,-389.843 92,-408.843 158,-408.843 158,-389.843 92,-389.843"/>
<text text-anchor="middle" x="125" y="-396.843" font-family="Helvetica,sans-Serif" font-size="10.00">txUnsigned</text>
</a>
</g>
</g>
<!-- Node1&#45;&gt;Node3 -->
<g id="edge2" class="edge"><title>Node1&#45;&gt;Node3</title>
<path fill="none" stroke="midnightblue" d="M45.1155,-446.674C59.9445,-437.777 82.1603,-424.447 99.2411,-414.199"/>
<polygon fill="midnightblue" stroke="midnightblue" points="101.348,-417.016 108.123,-408.87 97.7468,-411.014 101.348,-417.016"/>
</g>
<!-- Node4 -->
<g id="node4" class="node"><title>Node4</title>
<g id="a_node4"><a xlink:href="teensy3__morse__bsp_8cpp.html#ab306f692c5c9455a0c82782a67ff0147" target="_top" xlink:title="touchPoll">
<polygon fill="white" stroke="black" points="831.5,-370.843 831.5,-389.843 888.5,-389.843 888.5,-370.843 831.5,-370.843"/>
<text text-anchor="middle" x="860" y="-377.843" font-family="Helvetica,sans-Serif" font-size="10.00">touchPoll</text>
</a>
</g>
</g>
<!-- Node3&#45;&gt;Node4 -->
<g id="edge3" class="edge"><title>Node3&#45;&gt;Node4</title>
<path fill="none" stroke="midnightblue" d="M158.137,-404.839C193.79,-410.45 253.078,-418.343 304.5,-418.343 304.5,-418.343 304.5,-418.343 554.5,-418.343 651.295,-418.343 764.076,-399.202 821.393,-388.09"/>
<polygon fill="midnightblue" stroke="midnightblue" points="822.298,-391.479 831.434,-386.115 820.946,-384.611 822.298,-391.479"/>
</g>
<!-- Node6 -->
<g id="node6" class="node"><title>Node6</title>
<g id="a_node6"><a xlink:href="libmorse_8cpp.html#acd4b292f5e412ee4f05aed9dafbc072d" target="_top" xlink:title="Convert an ASCII character into Morse code and transmit it. ">
<polygon fill="white" stroke="black" points="194,-313.843 194,-332.843 244,-332.843 244,-313.843 194,-313.843"/>
<text text-anchor="middle" x="219" y="-320.843" font-family="Helvetica,sans-Serif" font-size="10.00">txLetter</text>
</a>
</g>
</g>
<!-- Node3&#45;&gt;Node6 -->
<g id="edge5" class="edge"><title>Node3&#45;&gt;Node6</title>
<path fill="none" stroke="midnightblue" d="M137.652,-389.718C152.998,-377.04 180.194,-354.574 198.651,-339.327"/>
<polygon fill="midnightblue" stroke="midnightblue" points="200.962,-341.958 206.443,-332.891 196.504,-336.561 200.962,-341.958"/>
</g>
<!-- Node5 -->
<g id="node5" class="node"><title>Node5</title>
<g id="a_node5"><a xlink:href="teensy3__morse__bsp_8cpp.html#af6899cd9b83df54106b259ab81ea5cb2" target="_top" xlink:title="touchMargin">
<polygon fill="white" stroke="black" points="982.5,-370.843 982.5,-389.843 1052.5,-389.843 1052.5,-370.843 982.5,-370.843"/>
<text text-anchor="middle" x="1017.5" y="-377.843" font-family="Helvetica,sans-Serif" font-size="10.00">touchMargin</text>
</a>
</g>
</g>
<!-- Node4&#45;&gt;Node5 -->
<g id="edge4" class="edge"><title>Node4&#45;&gt;Node5</title>
<path fill="none" stroke="midnightblue" d="M888.8,-380.343C911.937,-380.343 945.306,-380.343 972.131,-380.343"/>
<polygon fill="midnightblue" stroke="midnightblue" points="972.429,-383.843 982.429,-380.343 972.429,-376.843 972.429,-383.843"/>
</g>
<!-- Node7 -->
<g id="node7" class="node"><title>Node7</title>
<g id="a_node7"><a xlink:href="libmorse_8cpp.html#a9fdfce728595d72b78dc7c834ab99a40" target="_top" xlink:title="Transmit a literal Morse code value. ">
<polygon fill="white" stroke="black" points="280,-218.843 280,-237.843 331,-237.843 331,-218.843 280,-218.843"/>
<text text-anchor="middle" x="305.5" y="-225.843" font-family="Helvetica,sans-Serif" font-size="10.00">txLiteral</text>
</a>
</g>
</g>
<!-- Node6&#45;&gt;Node7 -->
<g id="edge6" class="edge"><title>Node6&#45;&gt;Node7</title>
<path fill="none" stroke="midnightblue" d="M228.725,-313.534C242.967,-297.523 271.393,-265.564 289.093,-245.665"/>
<polygon fill="midnightblue" stroke="midnightblue" points="291.918,-247.755 295.949,-237.957 286.687,-243.103 291.918,-247.755"/>
</g>
<!-- Node17 -->
<g id="node17" class="node"><title>Node17</title>
<g id="a_node17"><a xlink:href="libmorse_8cpp.html#ab94e088615119d1faae7df22ce50aedf" target="_top" xlink:title="Transmit a Morse code prosign indicating an error. ">
<polygon fill="white" stroke="black" points="392.5,-294.843 392.5,-313.843 438.5,-313.843 438.5,-294.843 392.5,-294.843"/>
<text text-anchor="middle" x="415.5" y="-301.843" font-family="Helvetica,sans-Serif" font-size="10.00">txError</text>
</a>
</g>
</g>
<!-- Node6&#45;&gt;Node17 -->
<g id="edge38" class="edge"><title>Node6&#45;&gt;Node17</title>
<path fill="none" stroke="midnightblue" d="M244.24,-320.975C279.053,-317.575 343.282,-311.3 382.125,-307.506"/>
<polygon fill="midnightblue" stroke="midnightblue" points="382.749,-310.962 392.361,-306.506 382.069,-303.995 382.749,-310.962"/>
</g>
<!-- Node8 -->
<g id="node8" class="node"><title>Node8</title>
<g id="a_node8"><a xlink:href="class_morse_token.html#a48cd72aeb868391449d1f51c1d0bf5cc" target="_top" xlink:title="Treat code == 0 as the error token. ">
<polygon fill="white" stroke="black" points="367,-218.843 367,-237.843 464,-237.843 464,-218.843 367,-218.843"/>
<text text-anchor="middle" x="415.5" y="-225.843" font-family="Helvetica,sans-Serif" font-size="10.00">MorseToken::valid</text>
</a>
</g>
</g>
<!-- Node7&#45;&gt;Node8 -->
<g id="edge7" class="edge"><title>Node7&#45;&gt;Node8</title>
<path fill="none" stroke="midnightblue" d="M331.007,-228.343C338.694,-228.343 347.531,-228.343 356.516,-228.343"/>
<polygon fill="midnightblue" stroke="midnightblue" points="356.67,-231.843 366.67,-228.343 356.67,-224.843 356.67,-231.843"/>
</g>
<!-- Node9 -->
<g id="node9" class="node"><title>Node9</title>
<g id="a_node9"><a xlink:href="teensy3__morse__bsp_8cpp.html#af66e71e3fac9b6a2c6532bc8a513bfde" target="_top" xlink:title="Output a square wave on pin 10 at the given frequency for the given duration. ">
<polygon fill="white" stroke="black" points="396.5,-104.843 396.5,-123.843 434.5,-123.843 434.5,-104.843 396.5,-104.843"/>
<text text-anchor="middle" x="415.5" y="-111.843" font-family="Helvetica,sans-Serif" font-size="10.00">beep</text>
</a>
</g>
</g>
<!-- Node7&#45;&gt;Node9 -->
<g id="edge8" class="edge"><title>Node7&#45;&gt;Node9</title>
<path fill="none" stroke="midnightblue" d="M310.873,-218.767C319.421,-200.932 339.905,-162.271 367,-138.343 372.904,-133.129 380.143,-128.727 387.174,-125.173"/>
<polygon fill="midnightblue" stroke="midnightblue" points="388.885,-128.237 396.487,-120.857 385.942,-121.886 388.885,-128.237"/>
</g>
<!-- Node15 -->
<g id="node15" class="node"><title>Node15</title>
<g id="a_node15"><a xlink:href="settings_8cpp.html#a8575b9b52638114a4f32d1462cf9b7c1" target="_top" xlink:title="Get the transmission frequency (side tone). ">
<polygon fill="white" stroke="black" points="388.5,-180.843 388.5,-199.843 442.5,-199.843 442.5,-180.843 388.5,-180.843"/>
<text text-anchor="middle" x="415.5" y="-187.843" font-family="Helvetica,sans-Serif" font-size="10.00">getTxHz</text>
</a>
</g>
</g>
<!-- Node7&#45;&gt;Node15 -->
<g id="edge14" class="edge"><title>Node7&#45;&gt;Node15</title>
<path fill="none" stroke="midnightblue" d="M331.007,-219.721C344.995,-214.799 362.793,-208.537 378.359,-203.06"/>
<polygon fill="midnightblue" stroke="midnightblue" points="379.932,-206.217 388.203,-199.596 377.608,-199.613 379.932,-206.217"/>
</g>
<!-- Node16 -->
<g id="node16" class="node"><title>Node16</title>
<g id="a_node16"><a xlink:href="settings_8cpp.html#a960551e90dfdad18f3c9b1338ccba7db" target="_top" xlink:title="Get the dit duration in microseconds. ">
<polygon fill="white" stroke="black" points="666,-180.843 666,-199.843 738,-199.843 738,-180.843 666,-180.843"/>
<text text-anchor="middle" x="702" y="-187.843" font-family="Helvetica,sans-Serif" font-size="10.00">getDitMicros</text>
</a>
</g>
</g>
<!-- Node7&#45;&gt;Node16 -->
<g id="edge15" class="edge"><title>Node7&#45;&gt;Node16</title>
<path fill="none" stroke="midnightblue" d="M312.947,-218.789C322.754,-205.213 342.856,-180.925 367,-171.343 393.105,-160.983 570.449,-177.126 655.577,-185.637"/>
<polygon fill="midnightblue" stroke="midnightblue" points="655.429,-189.139 665.73,-186.659 656.131,-182.175 655.429,-189.139"/>
</g>
<!-- Node7&#45;&gt;Node17 -->
<g id="edge16" class="edge"><title>Node7&#45;&gt;Node17</title>
<path fill="none" stroke="midnightblue" d="M316.173,-237.971C327.643,-249.063 347.652,-267.419 367,-280.343 372.119,-283.763 377.79,-287.028 383.381,-289.987"/>
<polygon fill="midnightblue" stroke="midnightblue" points="382.096,-293.26 392.599,-294.653 385.257,-287.014 382.096,-293.26"/>
</g>
<!-- Node10 -->
<g id="node10" class="node"><title>Node10</title>
<g id="a_node10"><a xlink:href="teensy3__morse__bsp_8cpp.html#a6f674d5b9985ea3a7eeb0df299c2e405" target="_top" xlink:title="pollEarphonePresent">
<polygon fill="white" stroke="black" points="500,-104.843 500,-123.843 607,-123.843 607,-104.843 500,-104.843"/>
<text text-anchor="middle" x="553.5" y="-111.843" font-family="Helvetica,sans-Serif" font-size="10.00">pollEarphonePresent</text>
</a>
</g>
</g>
<!-- Node9&#45;&gt;Node10 -->
<g id="edge9" class="edge"><title>Node9&#45;&gt;Node10</title>
<path fill="none" stroke="midnightblue" d="M434.56,-114.343C448.777,-114.343 469.484,-114.343 489.594,-114.343"/>
<polygon fill="midnightblue" stroke="midnightblue" points="489.701,-117.843 499.701,-114.343 489.701,-110.843 489.701,-117.843"/>
</g>
<!-- Node11 -->
<g id="node11" class="node"><title>Node11</title>
<g id="a_node11"><a xlink:href="teensy3__morse__bsp_8cpp.html#a2d6b4ace33ed5e497dedd03217540c63" target="_top" xlink:title="Set the PWM frequency for the audio output pins. ">
<polygon fill="white" stroke="black" points="512,-66.8433 512,-85.8433 595,-85.8433 595,-66.8433 512,-66.8433"/>
<text text-anchor="middle" x="553.5" y="-73.8433" font-family="Helvetica,sans-Serif" font-size="10.00">pwmFrequency</text>
</a>
</g>
</g>
<!-- Node9&#45;&gt;Node11 -->
<g id="edge10" class="edge"><title>Node9&#45;&gt;Node11</title>
<path fill="none" stroke="midnightblue" d="M434.56,-109.297C453.377,-104.039 483.566,-95.6043 508.689,-88.5846"/>
<polygon fill="midnightblue" stroke="midnightblue" points="509.699,-91.9366 518.388,-85.8746 507.815,-85.1949 509.699,-91.9366"/>
</g>
<!-- Node12 -->
<g id="node12" class="node"><title>Node12</title>
<g id="a_node12"><a xlink:href="teensy3__morse__bsp_8cpp.html#a82911eac3bf13d6f36d10102a4c4d3c4" target="_top" xlink:title="Generate a tone on the audio output pins. ">
<polygon fill="white" stroke="black" points="523,-28.8433 523,-47.8433 584,-47.8433 584,-28.8433 523,-28.8433"/>
<text text-anchor="middle" x="553.5" y="-35.8433" font-family="Helvetica,sans-Serif" font-size="10.00">pwmWrite</text>
</a>
</g>
</g>
<!-- Node9&#45;&gt;Node12 -->
<g id="edge11" class="edge"><title>Node9&#45;&gt;Node12</title>
<path fill="none" stroke="midnightblue" d="M428.345,-104.829C444.009,-92.5908 472.814,-71.2593 500,-57.3433 504.252,-55.1667 508.813,-53.124 513.405,-51.2443"/>
<polygon fill="midnightblue" stroke="midnightblue" points="514.719,-54.489 522.789,-47.6243 512.2,-47.9581 514.719,-54.489"/>
</g>
<!-- Node14 -->
<g id="node14" class="node"><title>Node14</title>
<g id="a_node14"><a xlink:href="teensy3__morse__bsp_8cpp.html#a6c982a7d7805f1dd5426eb98c915cfdd" target="_top" xlink:title="Turn the red LED on (1) or off (0). ">
<polygon fill="white" stroke="black" points="528.5,-142.843 528.5,-161.843 578.5,-161.843 578.5,-142.843 528.5,-142.843"/>
<text text-anchor="middle" x="553.5" y="-149.843" font-family="Helvetica,sans-Serif" font-size="10.00">redLED</text>
</a>
</g>
</g>
<!-- Node9&#45;&gt;Node14 -->
<g id="edge13" class="edge"><title>Node9&#45;&gt;Node14</title>
<path fill="none" stroke="midnightblue" d="M434.56,-119.389C455.959,-125.369 492.064,-135.457 518.702,-142.9"/>
<polygon fill="midnightblue" stroke="midnightblue" points="517.825,-146.289 528.398,-145.609 519.708,-139.547 517.825,-146.289"/>
</g>
<!-- Node13 -->
<g id="node13" class="node"><title>Node13</title>
<g id="a_node13"><a xlink:href="teensy3__morse__bsp_8cpp.html#ac70998cee1bf97f00aec4a1b4e5a4f60" target="_top" xlink:title="isEarphonePresent">
<polygon fill="white" stroke="black" points="652.5,-85.8433 652.5,-104.843 751.5,-104.843 751.5,-85.8433 652.5,-85.8433"/>
<text text-anchor="middle" x="702" y="-92.8433" font-family="Helvetica,sans-Serif" font-size="10.00">isEarphonePresent</text>
</a>
</g>
</g>
<!-- Node12&#45;&gt;Node13 -->
<g id="edge12" class="edge"><title>Node12&#45;&gt;Node13</title>
<path fill="none" stroke="midnightblue" d="M583.121,-47.8904C590.95,-50.7207 599.376,-53.9714 607,-57.3433 623.546,-64.6614 626.344,-69.2798 643,-76.3433 648.06,-78.4893 653.452,-80.5458 658.832,-82.4609"/>
<polygon fill="midnightblue" stroke="midnightblue" points="657.835,-85.8192 668.43,-85.7442 660.101,-79.1959 657.835,-85.8192"/>
</g>
<!-- Node18 -->
<g id="node18" class="node"><title>Node18</title>
<g id="a_node18"><a xlink:href="libmorse_8cpp.html#a0ee2308940264ea9ac8e50afc1a4d285" target="_top" xlink:title="txString">
<polygon fill="white" stroke="black" points="528.5,-294.843 528.5,-313.843 578.5,-313.843 578.5,-294.843 528.5,-294.843"/>
<text text-anchor="middle" x="553.5" y="-301.843" font-family="Helvetica,sans-Serif" font-size="10.00">txString</text>
</a>
</g>
</g>
<!-- Node17&#45;&gt;Node18 -->
<g id="edge17" class="edge"><title>Node17&#45;&gt;Node18</title>
<path fill="none" stroke="midnightblue" d="M438.653,-304.343C460.124,-304.343 493.008,-304.343 517.923,-304.343"/>
<polygon fill="midnightblue" stroke="midnightblue" points="518.057,-307.843 528.057,-304.343 518.057,-300.843 518.057,-307.843"/>
</g>
<!-- Node18&#45;&gt;Node3 -->
<g id="edge23" class="edge"><title>Node18&#45;&gt;Node3</title>
<path fill="none" stroke="midnightblue" d="M532.548,-313.895C514.889,-321.999 488.234,-333.386 464,-340.343 359.868,-370.239 233.095,-387.436 168.412,-394.888"/>
<polygon fill="midnightblue" stroke="midnightblue" points="167.744,-391.441 158.201,-396.042 168.531,-398.396 167.744,-391.441"/>
</g>
<!-- Node18&#45;&gt;Node4 -->
<g id="edge18" class="edge"><title>Node18&#45;&gt;Node4</title>
<path fill="none" stroke="midnightblue" d="M565.57,-314.058C581.46,-327.363 612.224,-350.803 643,-361.343 702.716,-381.795 776.87,-383.607 820.931,-382.422"/>
<polygon fill="midnightblue" stroke="midnightblue" points="821.314,-385.912 831.191,-382.077 821.079,-378.916 821.314,-385.912"/>
</g>
<!-- Node18&#45;&gt;Node6 -->
<g id="edge21" class="edge"><title>Node18&#45;&gt;Node6</title>
<path fill="none" stroke="midnightblue" d="M528.278,-310.735C510.601,-315.107 485.986,-320.591 464,-323.343 382.826,-333.504 361.737,-331.743 280,-328.343 271.702,-327.998 262.775,-327.386 254.41,-326.705"/>
<polygon fill="midnightblue" stroke="midnightblue" points="254.467,-323.197 244.202,-325.821 253.863,-330.171 254.467,-323.197"/>
</g>
<!-- Node18&#45;&gt;Node7 -->
<g id="edge20" class="edge"><title>Node18&#45;&gt;Node7</title>
<path fill="none" stroke="midnightblue" d="M528.473,-297.012C493.094,-286.206 424.913,-265.335 367,-247.343 358.537,-244.714 349.414,-241.86 340.883,-239.182"/>
<polygon fill="midnightblue" stroke="midnightblue" points="341.804,-235.803 331.215,-236.143 339.705,-242.48 341.804,-235.803"/>
</g>
<!-- Node18&#45;&gt;Node16 -->
<g id="edge19" class="edge"><title>Node18&#45;&gt;Node16</title>
<path fill="none" stroke="midnightblue" d="M561.786,-294.69C575.774,-276.726 608.111,-237.859 643,-214.343 648.829,-210.415 655.402,-206.942 661.975,-203.946"/>
<polygon fill="midnightblue" stroke="midnightblue" points="663.678,-207.025 671.518,-199.898 660.945,-200.581 663.678,-207.025"/>
</g>
<!-- Node19 -->
<g id="node19" class="node"><title>Node19</title>
<g id="a_node19"><a xlink:href="teensy3__morse__bsp_8cpp.html#a8761e874366e227690fba2964e1bc445" target="_top" xlink:title="getInternalTemperatureC">
<polygon fill="white" stroke="black" points="797.5,-104.843 797.5,-123.843 922.5,-123.843 922.5,-104.843 797.5,-104.843"/>
<text text-anchor="middle" x="860" y="-111.843" font-family="Helvetica,sans-Serif" font-size="10.00">getInternalTemperatureC</text>
</a>
</g>
</g>
<!-- Node18&#45;&gt;Node19 -->
<g id="edge22" class="edge"><title>Node18&#45;&gt;Node19</title>
<path fill="none" stroke="midnightblue" d="M567.076,-294.731C583.7,-282.387 614.255,-260.942 643,-247.343 692.805,-223.782 713.763,-237.704 761,-209.343 795.818,-188.439 827.94,-152.945 845.37,-131.766"/>
<polygon fill="midnightblue" stroke="midnightblue" points="848.157,-133.886 851.707,-123.903 842.707,-129.494 848.157,-133.886"/>
</g>
<!-- Node20 -->
<g id="node20" class="node"><title>Node20</title>
<g id="a_node20"><a xlink:href="actions_8cpp.html#aed718ec1bd4cc7adb2f65d40a6784496" target="_top" xlink:title="Transmit the internal temperature in integer in Fahrenheit. ">
<polygon fill="white" stroke="black" points="643,-47.8433 643,-66.8433 761,-66.8433 761,-47.8433 643,-47.8433"/>
<text text-anchor="middle" x="702" y="-54.8433" font-family="Helvetica,sans-Serif" font-size="10.00">txInternalTemperatureF</text>
</a>
</g>
</g>
<!-- Node18&#45;&gt;Node20 -->
<g id="edge24" class="edge"><title>Node18&#45;&gt;Node20</title>
<path fill="none" stroke="midnightblue" d="M558.366,-294.682C567.12,-272.778 589.088,-217.648 607,-171.343 623.29,-129.232 610.352,-107.534 643,-76.3433 644.65,-74.7673 646.432,-73.322 648.313,-71.9966"/>
<polygon fill="midnightblue" stroke="midnightblue" points="650.186,-74.9569 657.089,-66.9194 646.68,-68.8979 650.186,-74.9569"/>
</g>
<!-- Node21 -->
<g id="node21" class="node"><title>Node21</title>
<g id="a_node21"><a xlink:href="actions_8cpp.html#aaabb3ac0c23f35a499bc17efe829f326" target="_top" xlink:title="Transmit the 24&#45;hr time. ">
<polygon fill="white" stroke="black" points="663,-256.843 663,-275.843 741,-275.843 741,-256.843 663,-256.843"/>
<text text-anchor="middle" x="702" y="-263.843" font-family="Helvetica,sans-Serif" font-size="10.00">txTimeHHMM</text>
</a>
</g>
</g>
<!-- Node18&#45;&gt;Node21 -->
<g id="edge27" class="edge"><title>Node18&#45;&gt;Node21</title>
<path fill="none" stroke="midnightblue" d="M573.352,-294.751C593.293,-287.641 625.556,-278.71 652.656,-272.492"/>
<polygon fill="midnightblue" stroke="midnightblue" points="653.749,-275.835 662.753,-270.252 652.232,-269.001 653.749,-275.835"/>
</g>
<!-- Node22 -->
<g id="node22" class="node"><title>Node22</title>
<g id="a_node22"><a xlink:href="actions_8cpp.html#ad02149679fa3cc6a4957d1a318408ffd" target="_top" xlink:title="Transmit the uptime. ">
<polygon fill="white" stroke="black" points="674,-446.843 674,-465.843 730,-465.843 730,-446.843 674,-446.843"/>
<text text-anchor="middle" x="702" y="-453.843" font-family="Helvetica,sans-Serif" font-size="10.00">txUptime</text>
</a>
</g>
</g>
<!-- Node18&#45;&gt;Node22 -->
<g id="edge29" class="edge"><title>Node18&#45;&gt;Node22</title>
<path fill="none" stroke="midnightblue" d="M563.664,-313.852C587.918,-339.016 654.028,-407.608 684.819,-439.555"/>
<polygon fill="midnightblue" stroke="midnightblue" points="682.38,-442.067 691.839,-446.839 687.42,-437.21 682.38,-442.067"/>
</g>
<!-- Node23 -->
<g id="node23" class="node"><title>Node23</title>
<g id="a_node23"><a xlink:href="teensy3__morse__bsp_8cpp.html#ae8dd28759e56dbd2ee9bc9ae96d1783c" target="_top" xlink:title="Return the most recent ADC measurement of the input voltage. Perform analog to digital conversion on ...">
<polygon fill="white" stroke="black" points="665,-294.843 665,-313.843 739,-313.843 739,-294.843 665,-294.843"/>
<text text-anchor="middle" x="702" y="-301.843" font-family="Helvetica,sans-Serif" font-size="10.00">readMillivolts</text>
</a>
</g>
</g>
<!-- Node18&#45;&gt;Node23 -->
<g id="edge32" class="edge"><title>Node18&#45;&gt;Node23</title>
<path fill="none" stroke="midnightblue" d="M578.691,-304.343C599.334,-304.343 629.597,-304.343 654.855,-304.343"/>
<polygon fill="midnightblue" stroke="midnightblue" points="654.972,-307.843 664.972,-304.343 654.971,-300.843 654.972,-307.843"/>
</g>
<!-- Node27 -->
<g id="node27" class="node"><title>Node27</title>
<g id="a_node27"><a xlink:href="libmorse_8cpp.html#ac3f000c98271c6d0a7710135e18189bc" target="_top" xlink:title="On my hardware there is cross&#45;coupling between the serial port and the touch sensors. Without the code below, long messages to the serial port trigger a touch input. ">
<polygon fill="white" stroke="black" points="669.5,-332.843 669.5,-351.843 734.5,-351.843 734.5,-332.843 669.5,-332.843"/>
<text text-anchor="middle" x="702" y="-339.843" font-family="Helvetica,sans-Serif" font-size="10.00">flushTouch</text>
</a>
</g>
</g>
<!-- Node18&#45;&gt;Node27 -->
<g id="edge36" class="edge"><title>Node18&#45;&gt;Node27</title>
<path fill="none" stroke="midnightblue" d="M578.691,-310.618C600.574,-316.294 633.267,-324.774 659.348,-331.539"/>
<polygon fill="midnightblue" stroke="midnightblue" points="658.786,-335.009 669.344,-334.132 660.543,-328.233 658.786,-335.009"/>
</g>
<!-- Node20&#45;&gt;Node3 -->
<g id="edge26" class="edge"><title>Node20&#45;&gt;Node3</title>
<path fill="none" stroke="midnightblue" d="M682.092,-47.8283C663.481,-38.9168 634.003,-26.0026 607,-19.3433 524.388,1.02988 501.587,-0.343293 416.5,-0.343293 304.5,-0.343293 304.5,-0.343293 304.5,-0.343293 136.695,-0.343293 125.601,-298.036 125.693,-379.146"/>
<polygon fill="midnightblue" stroke="midnightblue" points="122.195,-379.507 125.77,-389.48 129.195,-379.454 122.195,-379.507"/>
</g>
<!-- Node20&#45;&gt;Node19 -->
<g id="edge25" class="edge"><title>Node20&#45;&gt;Node19</title>
<path fill="none" stroke="midnightblue" d="M733.207,-66.9012C742.185,-69.8328 752.02,-73.1339 761,-76.3433 782.803,-84.1354 807.068,-93.5383 825.998,-101.041"/>
<polygon fill="midnightblue" stroke="midnightblue" points="824.784,-104.325 835.369,-104.773 827.373,-97.8216 824.784,-104.325"/>
</g>
<!-- Node21&#45;&gt;Node18 -->
<g id="edge28" class="edge"><title>Node21&#45;&gt;Node18</title>
<path fill="none" stroke="midnightblue" d="M682.357,-275.861C658.875,-284.254 618.07,-295.219 588.87,-301.25"/>
<polygon fill="midnightblue" stroke="midnightblue" points="587.837,-297.885 578.691,-303.235 589.177,-304.756 587.837,-297.885"/>
</g>
<!-- Node22&#45;&gt;Node2 -->
<g id="edge30" class="edge"><title>Node22&#45;&gt;Node2</title>
<path fill="none" stroke="midnightblue" d="M730.173,-459.653C754.633,-462.632 790.905,-467.05 818.735,-470.439"/>
<polygon fill="midnightblue" stroke="midnightblue" points="818.595,-473.948 828.945,-471.683 819.441,-466.999 818.595,-473.948"/>
</g>
<!-- Node22&#45;&gt;Node3 -->
<g id="edge31" class="edge"><title>Node22&#45;&gt;Node3</title>
<path fill="none" stroke="midnightblue" d="M673.933,-456.343C623.362,-456.343 511.086,-456.343 416.5,-456.343 304.5,-456.343 304.5,-456.343 304.5,-456.343 254.244,-456.343 241.498,-448.764 194,-432.343 179.571,-427.355 164.212,-420.085 151.749,-413.637"/>
<polygon fill="midnightblue" stroke="midnightblue" points="153.321,-410.509 142.846,-408.919 150.043,-416.694 153.321,-410.509"/>
</g>
<!-- Node24 -->
<g id="node24" class="node"><title>Node24</title>
<g id="a_node24"><a xlink:href="class_voltage_monitor.html#a70902b84f9864c95d5553a0644a64f4f" target="_top" xlink:title="Return the latest voltage reading. ">
<polygon fill="white" stroke="black" points="797,-294.843 797,-313.843 923,-313.843 923,-294.843 797,-294.843"/>
<text text-anchor="middle" x="860" y="-301.843" font-family="Helvetica,sans-Serif" font-size="10.00">VoltageMonitor::getValue</text>
</a>
</g>
</g>
<!-- Node23&#45;&gt;Node24 -->
<g id="edge33" class="edge"><title>Node23&#45;&gt;Node24</title>
<path fill="none" stroke="midnightblue" d="M739.182,-304.343C753.344,-304.343 770.117,-304.343 786.56,-304.343"/>
<polygon fill="midnightblue" stroke="midnightblue" points="786.728,-307.843 796.728,-304.343 786.728,-300.843 786.728,-307.843"/>
</g>
<!-- Node25 -->
<g id="node25" class="node"><title>Node25</title>
<g id="a_node25"><a xlink:href="actions_8cpp.html#a2b8c3769e2aa32a2da9e2f3f85ac73dd" target="_top" xlink:title="A sample ADC reading is taken each time through the main loop, and written to a ring buffer...">
<polygon fill="white" stroke="black" points="961.5,-313.843 961.5,-332.843 1073.5,-332.843 1073.5,-313.843 961.5,-313.843"/>
<text text-anchor="middle" x="1017.5" y="-320.843" font-family="Helvetica,sans-Serif" font-size="10.00">getVoltagePollInterval</text>
</a>
</g>
</g>
<!-- Node24&#45;&gt;Node25 -->
<g id="edge34" class="edge"><title>Node24&#45;&gt;Node25</title>
<path fill="none" stroke="midnightblue" d="M923.352,-311.962C932.438,-313.072 941.816,-314.218 950.963,-315.335"/>
<polygon fill="midnightblue" stroke="midnightblue" points="950.813,-318.843 961.163,-316.582 951.662,-311.895 950.813,-318.843"/>
</g>
<!-- Node26 -->
<g id="node26" class="node"><title>Node26</title>
<g id="a_node26"><a xlink:href="class_voltage_monitor.html#a75871331808c34b40d04059ee2af0f27" target="_top" xlink:title="Filter and scale raw ADC values to millivolts. ">
<polygon fill="white" stroke="black" points="959,-275.843 959,-294.843 1076,-294.843 1076,-275.843 959,-275.843"/>
<text text-anchor="middle" x="1017.5" y="-282.843" font-family="Helvetica,sans-Serif" font-size="10.00">VoltageMonitor::update</text>
</a>
</g>
</g>
<!-- Node24&#45;&gt;Node26 -->
<g id="edge35" class="edge"><title>Node24&#45;&gt;Node26</title>
<path fill="none" stroke="midnightblue" d="M923.352,-296.725C931.702,-295.705 940.298,-294.654 948.735,-293.623"/>
<polygon fill="midnightblue" stroke="midnightblue" points="949.419,-297.066 958.92,-292.379 948.57,-290.118 949.419,-297.066"/>
</g>
<!-- Node27&#45;&gt;Node4 -->
<g id="edge37" class="edge"><title>Node27&#45;&gt;Node4</title>
<path fill="none" stroke="midnightblue" d="M734.569,-350.033C759.752,-356.168 795.089,-364.775 821.673,-371.251"/>
<polygon fill="midnightblue" stroke="midnightblue" points="820.85,-374.653 831.394,-373.619 822.506,-367.851 820.85,-374.653"/>
</g>
</g>
</svg>
