<?xml version="1.0" encoding="UTF-8" standalone="no"?>
<!DOCTYPE svg PUBLIC "-//W3C//DTD SVG 1.1//EN"
 "http://www.w3.org/Graphics/SVG/1.1/DTD/svg11.dtd">
<!-- Generated by graphviz version 2.38.0 (20140413.2041)
 -->
<!-- Title: printLog Pages: 1 -->
<!--zoomable 598 -->
<svg id="main" version="1.1" xmlns="http://www.w3.org/2000/svg" xmlns:xlink="http://www.w3.org/1999/xlink" xml:space="preserve" onload="init(evt)">
<style type="text/css"><![CDATA[
.edge:hover path { stroke: red; }
.edge:hover polygon { stroke: red; fill: red; }
]]></style>
<script type="text/javascript"><![CDATA[
var edges = document.getElementsByTagName('g');
if (edges && edges.length) {
  for (var i=0;i<edges.length;i++) {
    if (edges[i].id.substr(0,4)=='edge') {
      edges[i].setAttribute('class','edge');
    }
  }
}
]]></script>
        <defs>
                <circle id="rim" cx="0" cy="0" r="7"/>
                <circle id="rim2" cx="0" cy="0" r="3.5"/>
                <g id="zoomPlus">
                        <use xlink:href="#rim" fill="#404040">
                                <set attributeName="fill" to="#808080" begin="zoomplus.mouseover" end="zoomplus.mouseout"/>
                        </use>
                        <path d="M-4,0h8M0,-4v8" fill="none" stroke="white" stroke-width="1.5" pointer-events="none"/>
                </g>
                <g id="zoomMin">
                        <use xlink:href="#rim" fill="#404040">
                                <set attributeName="fill" to="#808080" begin="zoomminus.mouseover" end="zoomminus.mouseout"/>
                        </use>
                        <path d="M-4,0h8" fill="none" stroke="white" stroke-width="1.5" pointer-events="none"/>
                </g>
                <g id="dirArrow">
                        <path fill="none" stroke="white" stroke-width="1.5" d="M0,-3.0v7 M-2.5,-0.5L0,-3.0L2.5,-0.5"/>
                </g>
               <g id="resetDef">
                       <use xlink:href="#rim2" fill="#404040">
                               <set attributeName="fill" to="#808080" begin="reset.mouseover" end="reset.mouseout"/>
                       </use>
               </g>
        </defs>

<script type="text/javascript">
var viewWidth = 538;
var viewHeight = 598;
var sectionId = 'dynsection-21';
</script>
<script xlink:href="svgpan.js"/>
<svg id="graph" class="graph">
<g id="viewport">
<title>printLog</title>
<polygon fill="white" stroke="none" points="-4,4 -4,-594 534,-594 534,4 -4,4"/>
<!-- Node1 -->
<g id="node1" class="node"><title>Node1</title>
<polygon fill="#bfbfbf" stroke="black" points="0,-285.5 0,-304.5 51,-304.5 51,-285.5 0,-285.5"/>
<text text-anchor="middle" x="25.5" y="-292.5" font-family="Helvetica,sans-Serif" font-size="10.00">printLog</text>
</g>
<!-- Node2 -->
<g id="node2" class="node"><title>Node2</title>
<g id="a_node2"><a xlink:href="libmorse_8h.html#a485b054263abcc51f9987c8a9c824602" target="_top" xlink:title="printLabelValueUnits">
<polygon fill="white" stroke="black" points="97.5,-570.5 97.5,-589.5 204.5,-589.5 204.5,-570.5 97.5,-570.5"/>
<text text-anchor="middle" x="151" y="-577.5" font-family="Helvetica,sans-Serif" font-size="10.00">printLabelValueUnits</text>
</a>
</g>
</g>
<!-- Node1&#45;&gt;Node2 -->
<g id="edge1" class="edge"><title>Node1&#45;&gt;Node2</title>
<path fill="none" stroke="midnightblue" d="M27.4034,-304.612C31.6332,-347.648 50.8142,-522.216 87,-561 88.2323,-562.321 89.5528,-563.551 90.9458,-564.697"/>
<polygon fill="midnightblue" stroke="midnightblue" points="89.3267,-567.82 99.6085,-570.377 93.165,-561.966 89.3267,-567.82"/>
</g>
<!-- Node3 -->
<g id="node3" class="node"><title>Node3</title>
<g id="a_node3"><a xlink:href="actions_8cpp.html#a492edd5621b1b6f219c1138beb303fe1" target="_top" xlink:title="getVersion">
<polygon fill="white" stroke="black" points="119.5,-532.5 119.5,-551.5 182.5,-551.5 182.5,-532.5 119.5,-532.5"/>
<text text-anchor="middle" x="151" y="-539.5" font-family="Helvetica,sans-Serif" font-size="10.00">getVersion</text>
</a>
</g>
</g>
<!-- Node1&#45;&gt;Node3 -->
<g id="edge2" class="edge"><title>Node1&#45;&gt;Node3</title>
<path fill="none" stroke="midnightblue" d="M25.9833,-304.814C24.7068,-339.712 25.2231,-459.116 87,-523 93.1075,-529.316 101.231,-533.552 109.608,-536.387"/>
<polygon fill="midnightblue" stroke="midnightblue" points="108.882,-539.818 119.453,-539.113 110.75,-533.072 108.882,-539.818"/>
</g>
<!-- Node5 -->
<g id="node5" class="node"><title>Node5</title>
<g id="a_node5"><a xlink:href="settings_8cpp.html#af63c25c773ddd97f32d6d0d364eda35a" target="_top" xlink:title="isTimeSet">
<polygon fill="white" stroke="black" points="120.5,-494.5 120.5,-513.5 181.5,-513.5 181.5,-494.5 120.5,-494.5"/>
<text text-anchor="middle" x="151" y="-501.5" font-family="Helvetica,sans-Serif" font-size="10.00">isTimeSet</text>
</a>
</g>
</g>
<!-- Node1&#45;&gt;Node5 -->
<g id="edge4" class="edge"><title>Node1&#45;&gt;Node5</title>
<path fill="none" stroke="midnightblue" d="M26.6005,-304.902C27.4677,-336.087 34.4617,-433.262 87,-485 93.4464,-491.348 101.933,-495.587 110.582,-498.414"/>
<polygon fill="midnightblue" stroke="midnightblue" points="109.748,-501.814 120.314,-501.043 111.573,-495.056 109.748,-501.814"/>
</g>
<!-- Node7 -->
<g id="node7" class="node"><title>Node7</title>
<g id="a_node7"><a xlink:href="settings_8cpp.html#a7b4efa097b94f9a90c5bbafcdf93fe4f" target="_top" xlink:title="getUptime">
<polygon fill="white" stroke="black" points="120,-456.5 120,-475.5 182,-475.5 182,-456.5 120,-456.5"/>
<text text-anchor="middle" x="151" y="-463.5" font-family="Helvetica,sans-Serif" font-size="10.00">getUptime</text>
</a>
</g>
</g>
<!-- Node1&#45;&gt;Node7 -->
<g id="edge6" class="edge"><title>Node1&#45;&gt;Node7</title>
<path fill="none" stroke="midnightblue" d="M27.4923,-304.815C30.7373,-331.678 43.4713,-407.058 87,-447 93.4735,-452.94 101.743,-457.026 110.146,-459.836"/>
<polygon fill="midnightblue" stroke="midnightblue" points="109.398,-463.261 119.971,-462.582 111.282,-456.519 109.398,-463.261"/>
</g>
<!-- Node8 -->
<g id="node8" class="node"><title>Node8</title>
<g id="a_node8"><a xlink:href="actions_8cpp.html#a9d7f936c10ce844cabda3cc094b91921" target="_top" xlink:title="Get the low&#45;voltage alarm state. This determines the message format and repetition interval...">
<polygon fill="white" stroke="black" points="111.5,-418.5 111.5,-437.5 190.5,-437.5 190.5,-418.5 111.5,-418.5"/>
<text text-anchor="middle" x="151" y="-425.5" font-family="Helvetica,sans-Serif" font-size="10.00">getAlarmState</text>
</a>
</g>
</g>
<!-- Node1&#45;&gt;Node8 -->
<g id="edge7" class="edge"><title>Node1&#45;&gt;Node8</title>
<path fill="none" stroke="midnightblue" d="M28.8597,-304.565C34.7529,-326.436 52.2059,-380.406 87,-409 91.3578,-412.581 96.3782,-415.488 101.644,-417.847"/>
<polygon fill="midnightblue" stroke="midnightblue" points="100.704,-421.235 111.295,-421.529 103.2,-414.695 100.704,-421.235"/>
</g>
<!-- Node9 -->
<g id="node9" class="node"><title>Node9</title>
<g id="a_node9"><a xlink:href="teensy3__morse__bsp_8cpp.html#ae8dd28759e56dbd2ee9bc9ae96d1783c" target="_top" xlink:title="Return the most recent ADC measurement of the input voltage. Perform analog to digital conversion on ...">
<polygon fill="white" stroke="black" points="114,-380.5 114,-399.5 188,-399.5 188,-380.5 114,-380.5"/>
<text text-anchor="middle" x="151" y="-387.5" font-family="Helvetica,sans-Serif" font-size="10.00">readMillivolts</text>
</a>
</g>
</g>
<!-- Node1&#45;&gt;Node9 -->
<g id="edge8" class="edge"><title>Node1&#45;&gt;Node9</title>
<path fill="none" stroke="midnightblue" d="M31.6268,-304.731C40.6459,-320.909 60.895,-353.305 87,-371 92.2749,-374.575 98.2422,-377.495 104.35,-379.874"/>
<polygon fill="midnightblue" stroke="midnightblue" points="103.389,-383.245 113.983,-383.186 105.664,-376.625 103.389,-383.245"/>
</g>
<!-- Node13 -->
<g id="node13" class="node"><title>Node13</title>
<g id="a_node13"><a xlink:href="teensy3__morse__bsp_8cpp.html#a8761e874366e227690fba2964e1bc445" target="_top" xlink:title="getInternalTemperatureC">
<polygon fill="white" stroke="black" points="88.5,-342.5 88.5,-361.5 213.5,-361.5 213.5,-342.5 88.5,-342.5"/>
<text text-anchor="middle" x="151" y="-349.5" font-family="Helvetica,sans-Serif" font-size="10.00">getInternalTemperatureC</text>
</a>
</g>
</g>
<!-- Node1&#45;&gt;Node13 -->
<g id="edge12" class="edge"><title>Node1&#45;&gt;Node13</title>
<path fill="none" stroke="midnightblue" d="M39.3791,-304.524C51.2509,-312.947 69.6127,-325.092 87,-333 92.0045,-335.276 97.3538,-337.368 102.741,-339.264"/>
<polygon fill="midnightblue" stroke="midnightblue" points="101.821,-342.647 112.414,-342.464 104.02,-336.001 101.821,-342.647"/>
</g>
<!-- Node14 -->
<g id="node14" class="node"><title>Node14</title>
<g id="a_node14"><a xlink:href="settings_8cpp.html#a088799682590552129c153e36ce09a52" target="_top" xlink:title="Get the periodic announcement format. ">
<polygon fill="white" stroke="black" points="88,-304.5 88,-323.5 214,-323.5 214,-304.5 88,-304.5"/>
<text text-anchor="middle" x="151" y="-311.5" font-family="Helvetica,sans-Serif" font-size="10.00">getAnnouncementFormat</text>
</a>
</g>
</g>
<!-- Node1&#45;&gt;Node14 -->
<g id="edge13" class="edge"><title>Node1&#45;&gt;Node14</title>
<path fill="none" stroke="midnightblue" d="M51.1952,-298.799C59.1363,-300.021 68.3747,-301.442 77.9533,-302.916"/>
<polygon fill="midnightblue" stroke="midnightblue" points="77.6023,-306.403 88.0182,-304.464 78.6667,-299.484 77.6023,-306.403"/>
</g>
<!-- Node15 -->
<g id="node15" class="node"><title>Node15</title>
<g id="a_node15"><a xlink:href="settings_8cpp.html#ab38fd90c96469830fd799d88bc8099a6" target="_top" xlink:title="Get the normal announcement interval in seconds. ">
<polygon fill="white" stroke="black" points="87,-266.5 87,-285.5 215,-285.5 215,-266.5 87,-266.5"/>
<text text-anchor="middle" x="151" y="-273.5" font-family="Helvetica,sans-Serif" font-size="10.00">getAnnouncementInterval</text>
</a>
</g>
</g>
<!-- Node1&#45;&gt;Node15 -->
<g id="edge14" class="edge"><title>Node1&#45;&gt;Node15</title>
<path fill="none" stroke="midnightblue" d="M51.1952,-291.201C59.1363,-289.979 68.3747,-288.558 77.9533,-287.084"/>
<polygon fill="midnightblue" stroke="midnightblue" points="78.6667,-290.516 88.0182,-285.536 77.6023,-283.597 78.6667,-290.516"/>
</g>
<!-- Node16 -->
<g id="node16" class="node"><title>Node16</title>
<g id="a_node16"><a xlink:href="settings_8cpp.html#a6742b95e92feeab64383890dcb8a51d2" target="_top" xlink:title="Get the low&#45;voltage alarm threshold. ">
<polygon fill="white" stroke="black" points="89,-228.5 89,-247.5 213,-247.5 213,-228.5 89,-228.5"/>
<text text-anchor="middle" x="151" y="-235.5" font-family="Helvetica,sans-Serif" font-size="10.00">getLowVoltageThreshold</text>
</a>
</g>
</g>
<!-- Node1&#45;&gt;Node16 -->
<g id="edge15" class="edge"><title>Node1&#45;&gt;Node16</title>
<path fill="none" stroke="midnightblue" d="M39.3791,-285.476C51.2509,-277.053 69.6127,-264.908 87,-257 92.0045,-254.724 97.3538,-252.632 102.741,-250.736"/>
<polygon fill="midnightblue" stroke="midnightblue" points="104.02,-253.999 112.414,-247.536 101.821,-247.353 104.02,-253.999"/>
</g>
<!-- Node17 -->
<g id="node17" class="node"><title>Node17</title>
<g id="a_node17"><a xlink:href="settings_8cpp.html#a846e579c0e4875f098993e2a44e44182" target="_top" xlink:title="Get the format of periodic low&#45;voltage alarm messages. ">
<polygon fill="white" stroke="black" points="99,-190.5 99,-209.5 203,-209.5 203,-190.5 99,-190.5"/>
<text text-anchor="middle" x="151" y="-197.5" font-family="Helvetica,sans-Serif" font-size="10.00">getAlarmLowFormat</text>
</a>
</g>
</g>
<!-- Node1&#45;&gt;Node17 -->
<g id="edge16" class="edge"><title>Node1&#45;&gt;Node17</title>
<path fill="none" stroke="midnightblue" d="M31.6268,-285.269C40.6459,-269.091 60.895,-236.695 87,-219 89.9256,-217.017 93.0641,-215.236 96.3215,-213.636"/>
<polygon fill="midnightblue" stroke="midnightblue" points="97.9288,-216.755 105.738,-209.595 95.1678,-210.323 97.9288,-216.755"/>
</g>
<!-- Node18 -->
<g id="node18" class="node"><title>Node18</title>
<g id="a_node18"><a xlink:href="settings_8cpp.html#a6b0bcdf814f86e78aadb0dbd4d80eda2" target="_top" xlink:title="Get the high&#45;voltage alarm threshold. ">
<polygon fill="white" stroke="black" points="88,-152.5 88,-171.5 214,-171.5 214,-152.5 88,-152.5"/>
<text text-anchor="middle" x="151" y="-159.5" font-family="Helvetica,sans-Serif" font-size="10.00">getHighVoltageThreshold</text>
</a>
</g>
</g>
<!-- Node1&#45;&gt;Node18 -->
<g id="edge17" class="edge"><title>Node1&#45;&gt;Node18</title>
<path fill="none" stroke="midnightblue" d="M28.8597,-285.435C34.7529,-263.564 52.2059,-209.594 87,-181 89.2341,-179.164 91.6423,-177.505 94.1684,-176.007"/>
<polygon fill="midnightblue" stroke="midnightblue" points="95.7651,-179.122 103.129,-171.504 92.6223,-172.867 95.7651,-179.122"/>
</g>
<!-- Node19 -->
<g id="node19" class="node"><title>Node19</title>
<g id="a_node19"><a xlink:href="settings_8cpp.html#a0508347a0269b133a9dbc300904807e8" target="_top" xlink:title="Get the format of periodic high&#45;voltage alarm messages. ">
<polygon fill="white" stroke="black" points="97.5,-114.5 97.5,-133.5 204.5,-133.5 204.5,-114.5 97.5,-114.5"/>
<text text-anchor="middle" x="151" y="-121.5" font-family="Helvetica,sans-Serif" font-size="10.00">getAlarmHighFormat</text>
</a>
</g>
</g>
<!-- Node1&#45;&gt;Node19 -->
<g id="edge18" class="edge"><title>Node1&#45;&gt;Node19</title>
<path fill="none" stroke="midnightblue" d="M27.4923,-285.185C30.7373,-258.322 43.4713,-182.942 87,-143 88.7098,-141.431 90.5449,-139.992 92.4746,-138.671"/>
<polygon fill="midnightblue" stroke="midnightblue" points="94.4584,-141.57 101.447,-133.607 91.0177,-135.474 94.4584,-141.57"/>
</g>
<!-- Node20 -->
<g id="node20" class="node"><title>Node20</title>
<g id="a_node20"><a xlink:href="settings_8cpp.html#a09b2a494a5b9fec41d2cbb6c34484cc0" target="_top" xlink:title="Set the repetition inteval in seconds of when in the alarm state. ">
<polygon fill="white" stroke="black" points="107,-76.5 107,-95.5 195,-95.5 195,-76.5 107,-76.5"/>
<text text-anchor="middle" x="151" y="-83.5" font-family="Helvetica,sans-Serif" font-size="10.00">getAlarmInterval</text>
</a>
</g>
</g>
<!-- Node1&#45;&gt;Node20 -->
<g id="edge19" class="edge"><title>Node1&#45;&gt;Node20</title>
<path fill="none" stroke="midnightblue" d="M26.6005,-285.098C27.4677,-253.913 34.4617,-156.738 87,-105 90.1135,-101.934 93.703,-99.36 97.5569,-97.1995"/>
<polygon fill="midnightblue" stroke="midnightblue" points="99.3176,-100.242 106.929,-92.8716 96.383,-93.8864 99.3176,-100.242"/>
</g>
<!-- Node21 -->
<g id="node21" class="node"><title>Node21</title>
<g id="a_node21"><a xlink:href="settings_8cpp.html#a960551e90dfdad18f3c9b1338ccba7db" target="_top" xlink:title="Get the dit duration in microseconds. ">
<polygon fill="white" stroke="black" points="115,-38.5 115,-57.5 187,-57.5 187,-38.5 115,-38.5"/>
<text text-anchor="middle" x="151" y="-45.5" font-family="Helvetica,sans-Serif" font-size="10.00">getDitMicros</text>
</a>
</g>
</g>
<!-- Node1&#45;&gt;Node21 -->
<g id="edge20" class="edge"><title>Node1&#45;&gt;Node21</title>
<path fill="none" stroke="midnightblue" d="M25.9833,-285.186C24.7068,-250.288 25.2231,-130.884 87,-67 91.9622,-61.8686 98.2552,-58.1101 104.934,-55.3602"/>
<polygon fill="midnightblue" stroke="midnightblue" points="106.524,-58.518 114.885,-52.0104 104.291,-51.8838 106.524,-58.518"/>
</g>
<!-- Node22 -->
<g id="node22" class="node"><title>Node22</title>
<g id="a_node22"><a xlink:href="settings_8cpp.html#a8575b9b52638114a4f32d1462cf9b7c1" target="_top" xlink:title="Get the transmission frequency (side tone). ">
<polygon fill="white" stroke="black" points="124,-0.5 124,-19.5 178,-19.5 178,-0.5 124,-0.5"/>
<text text-anchor="middle" x="151" y="-7.5" font-family="Helvetica,sans-Serif" font-size="10.00">getTxHz</text>
</a>
</g>
</g>
<!-- Node1&#45;&gt;Node22 -->
<g id="edge21" class="edge"><title>Node1&#45;&gt;Node22</title>
<path fill="none" stroke="midnightblue" d="M27.4034,-285.388C31.6332,-242.352 50.8142,-67.7835 87,-29 94.0726,-21.4197 104.048,-16.8261 113.979,-14.0542"/>
<polygon fill="midnightblue" stroke="midnightblue" points="114.799,-17.4573 123.786,-11.8465 113.261,-10.6282 114.799,-17.4573"/>
</g>
<!-- Node4 -->
<g id="node4" class="node"><title>Node4</title>
<g id="a_node4"><a xlink:href="actions_8cpp.html#ae72528ef0a66ea3edf8dd68a1448a2ed" target="_top" xlink:title="version">
<polygon fill="white" stroke="black" points="290,-532.5 290,-551.5 338,-551.5 338,-532.5 290,-532.5"/>
<text text-anchor="middle" x="314" y="-539.5" font-family="Helvetica,sans-Serif" font-size="10.00">version</text>
</a>
</g>
</g>
<!-- Node3&#45;&gt;Node4 -->
<g id="edge3" class="edge"><title>Node3&#45;&gt;Node4</title>
<path fill="none" stroke="midnightblue" d="M182.662,-542C210.33,-542 250.947,-542 279.468,-542"/>
<polygon fill="midnightblue" stroke="midnightblue" points="279.754,-545.5 289.754,-542 279.754,-538.5 279.754,-545.5"/>
</g>
<!-- Node6 -->
<g id="node6" class="node"><title>Node6</title>
<g id="a_node6"><a xlink:href="settings_8cpp.html#a696d9ef198af47b248ab05065cb25087" target="_top" xlink:title="timeIsSet">
<polygon fill="white" stroke="black" points="284.5,-494.5 284.5,-513.5 343.5,-513.5 343.5,-494.5 284.5,-494.5"/>
<text text-anchor="middle" x="314" y="-501.5" font-family="Helvetica,sans-Serif" font-size="10.00">timeIsSet</text>
</a>
</g>
</g>
<!-- Node5&#45;&gt;Node6 -->
<g id="edge5" class="edge"><title>Node5&#45;&gt;Node6</title>
<path fill="none" stroke="midnightblue" d="M181.53,-504C207.645,-504 245.917,-504 274.441,-504"/>
<polygon fill="midnightblue" stroke="midnightblue" points="274.469,-507.5 284.469,-504 274.468,-500.5 274.469,-507.5"/>
</g>
<!-- Node10 -->
<g id="node10" class="node"><title>Node10</title>
<g id="a_node10"><a xlink:href="class_voltage_monitor.html#a70902b84f9864c95d5553a0644a64f4f" target="_top" xlink:title="Return the latest voltage reading. ">
<polygon fill="white" stroke="black" points="251,-380.5 251,-399.5 377,-399.5 377,-380.5 251,-380.5"/>
<text text-anchor="middle" x="314" y="-387.5" font-family="Helvetica,sans-Serif" font-size="10.00">VoltageMonitor::getValue</text>
</a>
</g>
</g>
<!-- Node9&#45;&gt;Node10 -->
<g id="edge9" class="edge"><title>Node9&#45;&gt;Node10</title>
<path fill="none" stroke="midnightblue" d="M188.132,-390C203.698,-390 222.484,-390 240.704,-390"/>
<polygon fill="midnightblue" stroke="midnightblue" points="240.743,-393.5 250.743,-390 240.743,-386.5 240.743,-393.5"/>
</g>
<!-- Node11 -->
<g id="node11" class="node"><title>Node11</title>
<g id="a_node11"><a xlink:href="actions_8cpp.html#a2b8c3769e2aa32a2da9e2f3f85ac73dd" target="_top" xlink:title="A sample ADC reading is taken each time through the main loop, and written to a ring buffer...">
<polygon fill="white" stroke="black" points="415.5,-399.5 415.5,-418.5 527.5,-418.5 527.5,-399.5 415.5,-399.5"/>
<text text-anchor="middle" x="471.5" y="-406.5" font-family="Helvetica,sans-Serif" font-size="10.00">getVoltagePollInterval</text>
</a>
</g>
</g>
<!-- Node10&#45;&gt;Node11 -->
<g id="edge10" class="edge"><title>Node10&#45;&gt;Node11</title>
<path fill="none" stroke="midnightblue" d="M377.352,-397.619C386.438,-398.729 395.816,-399.875 404.963,-400.992"/>
<polygon fill="midnightblue" stroke="midnightblue" points="404.813,-404.5 415.163,-402.239 405.662,-397.552 404.813,-404.5"/>
</g>
<!-- Node12 -->
<g id="node12" class="node"><title>Node12</title>
<g id="a_node12"><a xlink:href="class_voltage_monitor.html#a75871331808c34b40d04059ee2af0f27" target="_top" xlink:title="Filter and scale raw ADC values to millivolts. ">
<polygon fill="white" stroke="black" points="413,-361.5 413,-380.5 530,-380.5 530,-361.5 413,-361.5"/>
<text text-anchor="middle" x="471.5" y="-368.5" font-family="Helvetica,sans-Serif" font-size="10.00">VoltageMonitor::update</text>
</a>
</g>
</g>
<!-- Node10&#45;&gt;Node12 -->
<g id="edge11" class="edge"><title>Node10&#45;&gt;Node12</title>
<path fill="none" stroke="midnightblue" d="M377.352,-382.381C385.702,-381.361 394.298,-380.311 402.735,-379.28"/>
<polygon fill="midnightblue" stroke="midnightblue" points="403.419,-382.723 412.92,-378.035 402.57,-375.774 403.419,-382.723"/>
</g>
</g>
</svg>
        <g id="navigator" transform="translate(0 0)" fill="#404254">
                <rect fill="#f2f5e9" fill-opacity="0.5" stroke="#606060" stroke-width=".5" x="0" y="0" width="60" height="60"/>
                <use id="zoomplus" xlink:href="#zoomPlus" x="17" y="9" onmousedown="handleZoom(evt,'in')"/>
                <use id="zoomminus" xlink:href="#zoomMin" x="42" y="9" onmousedown="handleZoom(evt,'out')"/>
                <use id="reset" xlink:href="#resetDef" x="30" y="36" onmousedown="handleReset()"/>
                <g id="arrowUp" xlink:href="#dirArrow" transform="translate(30 24)" onmousedown="handlePan(0,-1)">
                  <use xlink:href="#rim" fill="#404040">
                        <set attributeName="fill" to="#808080" begin="arrowUp.mouseover" end="arrowUp.mouseout"/>
                  </use>
                  <path fill="none" stroke="white" stroke-width="1.5" d="M0,-3.0v7 M-2.5,-0.5L0,-3.0L2.5,-0.5"/>
                </g>
                <g id="arrowRight" xlink:href="#dirArrow" transform="rotate(90) translate(36 -43)" onmousedown="handlePan(1,0)">
                  <use xlink:href="#rim" fill="#404040">
                        <set attributeName="fill" to="#808080" begin="arrowRight.mouseover" end="arrowRight.mouseout"/>
                  </use>
                  <path fill="none" stroke="white" stroke-width="1.5" d="M0,-3.0v7 M-2.5,-0.5L0,-3.0L2.5,-0.5"/>
                </g>
                <g id="arrowDown" xlink:href="#dirArrow" transform="rotate(180) translate(-30 -48)" onmousedown="handlePan(0,1)">
                  <use xlink:href="#rim" fill="#404040">
                        <set attributeName="fill" to="#808080" begin="arrowDown.mouseover" end="arrowDown.mouseout"/>
                  </use>
                  <path fill="none" stroke="white" stroke-width="1.5" d="M0,-3.0v7 M-2.5,-0.5L0,-3.0L2.5,-0.5"/>
                </g>
                <g id="arrowLeft" xlink:href="#dirArrow" transform="rotate(270) translate(-36 17)" onmousedown="handlePan(-1,0)">
                  <use xlink:href="#rim" fill="#404040">
                        <set attributeName="fill" to="#808080" begin="arrowLeft.mouseover" end="arrowLeft.mouseout"/>
                  </use>
                  <path fill="none" stroke="white" stroke-width="1.5" d="M0,-3.0v7 M-2.5,-0.5L0,-3.0L2.5,-0.5"/>
                </g>
        </g>
        <svg viewBox="0 0 15 15" width="100%" height="30px" preserveAspectRatio="xMaxYMin meet">
         <g id="arrow_out" transform="scale(0.3 0.3)">
          <a xlink:href="actions_8h_a7cb54685ddb3c45facf6daadcc4a5f4b_cgraph_org.svg" target="_base">
           <rect id="button" ry="5" rx="5" y="6" x="6" height="38" width="38"
                fill="#f2f5e9" fill-opacity="0.5" stroke="#606060" stroke-width="1.0"/>
           <path id="arrow"
             d="M 11.500037,31.436501 C 11.940474,20.09759 22.043105,11.32322 32.158766,21.979434 L 37.068811,17.246167 C 37.068811,17.246167 37.088388,32 37.088388,32 L 22.160133,31.978069 C 22.160133,31.978069 26.997745,27.140456 26.997745,27.140456 C 18.528582,18.264221 13.291696,25.230495 11.500037,31.436501 z"
             style="fill:#404040;"/>
          </a>
         </g>
        </svg>
</svg>
