<?xml version="1.0" encoding="UTF-8" standalone="no"?>
<!DOCTYPE svg PUBLIC "-//W3C//DTD SVG 1.1//EN"
 "http://www.w3.org/Graphics/SVG/1.1/DTD/svg11.dtd">
<!-- Generated by graphviz version 2.38.0 (20140413.2041)
 -->
<!-- Title: txSymbolStackTop Pages: 1 -->
<svg width="343pt" height="85pt"
 viewBox="0.00 0.00 343.00 85.00" xmlns="http://www.w3.org/2000/svg" xmlns:xlink="http://www.w3.org/1999/xlink">
<g id="graph0" class="graph" transform="scale(1 1) rotate(0) translate(4 81)">
<title>txSymbolStackTop</title>
<polygon fill="white" stroke="none" points="-4,4 -4,-81 339,-81 339,4 -4,4"/>
<!-- Node1 -->
<g id="node1" class="node"><title>Node1</title>
<polygon fill="#bfbfbf" stroke="black" points="0,-38.5 0,-57.5 100,-57.5 100,-38.5 0,-38.5"/>
<text text-anchor="middle" x="50" y="-45.5" font-family="Helvetica,sans-Serif" font-size="10.00">txSymbolStackTop</text>
</g>
<!-- Node2 -->
<g id="node2" class="node"><title>Node2</title>
<g id="a_node2"><a xlink:href="actions_8h.html#a1fec7da4166b9612d2deec3d0262d60f" target="_top" xlink:title="dispatchOnStack">
<polygon fill="white" stroke="black" points="136,-57.5 136,-76.5 228,-76.5 228,-57.5 136,-57.5"/>
<text text-anchor="middle" x="182" y="-64.5" font-family="Helvetica,sans-Serif" font-size="10.00">dispatchOnStack</text>
</a>
</g>
</g>
<!-- Node1&#45;&gt;Node2 -->
<g id="edge1" class="edge"><title>Node1&#45;&gt;Node2</title>
<path fill="none" stroke="midnightblue" d="M110.111,-56.6393C118.683,-57.8922 127.393,-59.1651 135.638,-60.3701"/>
<polygon fill="midnightblue" stroke="midnightblue" points="110.548,-53.1661 100.147,-55.1831 109.536,-60.0926 110.548,-53.1661"/>
</g>
<!-- Node3 -->
<g id="node3" class="node"><title>Node3</title>
<g id="a_node3"><a xlink:href="pda_8h.html#a959876507019ccc24303937cc277bb31" target="_top" xlink:title="gradeNext">
<polygon fill="white" stroke="black" points="151,-19.5 151,-38.5 213,-38.5 213,-19.5 151,-19.5"/>
<text text-anchor="middle" x="182" y="-26.5" font-family="Helvetica,sans-Serif" font-size="10.00">gradeNext</text>
</a>
</g>
</g>
<!-- Node1&#45;&gt;Node3 -->
<g id="edge2" class="edge"><title>Node1&#45;&gt;Node3</title>
<path fill="none" stroke="midnightblue" d="M110.228,-39.3435C124.211,-37.2999 138.553,-35.2037 150.639,-33.4374"/>
<polygon fill="midnightblue" stroke="midnightblue" points="109.536,-35.9074 100.147,-40.8169 110.548,-42.8339 109.536,-35.9074"/>
</g>
<!-- Node4 -->
<g id="node4" class="node"><title>Node4</title>
<g id="a_node4"><a xlink:href="pda_8h.html#a5218392624b017b817b80d6b16ea920d" target="_top" xlink:title="askNextAlfa">
<polygon fill="white" stroke="black" points="264,-38.5 264,-57.5 335,-57.5 335,-38.5 264,-38.5"/>
<text text-anchor="middle" x="299.5" y="-45.5" font-family="Helvetica,sans-Serif" font-size="10.00">askNextAlfa</text>
</a>
</g>
</g>
<!-- Node3&#45;&gt;Node4 -->
<g id="edge3" class="edge"><title>Node3&#45;&gt;Node4</title>
<path fill="none" stroke="midnightblue" d="M223.264,-35.6236C236.44,-37.791 250.956,-40.179 263.694,-42.2744"/>
<polygon fill="midnightblue" stroke="midnightblue" points="223.48,-32.1121 213.045,-33.9424 222.344,-39.0193 223.48,-32.1121"/>
</g>
<!-- Node5 -->
<g id="node5" class="node"><title>Node5</title>
<g id="a_node5"><a xlink:href="pda_8h.html#a1dc125d402fe76077cb4d166ac0fbf7a" target="_top" xlink:title="askNext">
<polygon fill="white" stroke="black" points="273,-0.5 273,-19.5 326,-19.5 326,-0.5 273,-0.5"/>
<text text-anchor="middle" x="299.5" y="-7.5" font-family="Helvetica,sans-Serif" font-size="10.00">askNext</text>
</a>
</g>
</g>
<!-- Node3&#45;&gt;Node5 -->
<g id="edge4" class="edge"><title>Node3&#45;&gt;Node5</title>
<path fill="none" stroke="midnightblue" d="M223.015,-22.4175C239.563,-19.6953 258.263,-16.6191 272.91,-14.2095"/>
<polygon fill="midnightblue" stroke="midnightblue" points="222.344,-18.9807 213.045,-24.0576 223.48,-25.8879 222.344,-18.9807"/>
</g>
</g>
</svg>
