<?xml version="1.0" encoding="UTF-8" standalone="no"?>
<!DOCTYPE svg PUBLIC "-//W3C//DTD SVG 1.1//EN"
 "http://www.w3.org/Graphics/SVG/1.1/DTD/svg11.dtd">
<!-- Generated by graphviz version 2.38.0 (20140413.2041)
 -->
<!-- Title: txAR Pages: 1 -->
<svg width="1119pt" height="469pt"
 viewBox="0.00 0.00 1119.00 468.81" xmlns="http://www.w3.org/2000/svg" xmlns:xlink="http://www.w3.org/1999/xlink">
<g id="graph0" class="graph" transform="scale(1 1) rotate(0) translate(4 464.808)">
<title>txAR</title>
<polygon fill="white" stroke="none" points="-4,4 -4,-464.808 1115,-464.808 1115,4 -4,4"/>
<!-- Node1 -->
<g id="node1" class="node"><title>Node1</title>
<polygon fill="#bfbfbf" stroke="black" points="0,-209.5 0,-228.5 39,-228.5 39,-209.5 0,-209.5"/>
<text text-anchor="middle" x="19.5" y="-216.5" font-family="Helvetica,sans-Serif" font-size="10.00">txAR</text>
</g>
<!-- Node2 -->
<g id="node2" class="node"><title>Node2</title>
<g id="a_node2"><a xlink:href="libmorse_8cpp.html#a0ee2308940264ea9ac8e50afc1a4d285" target="_top" xlink:title="txString">
<polygon fill="white" stroke="black" points="75,-209.5 75,-228.5 125,-228.5 125,-209.5 75,-209.5"/>
<text text-anchor="middle" x="100" y="-216.5" font-family="Helvetica,sans-Serif" font-size="10.00">txString</text>
</a>
</g>
</g>
<!-- Node1&#45;&gt;Node2 -->
<g id="edge1" class="edge"><title>Node1&#45;&gt;Node2</title>
<path fill="none" stroke="midnightblue" d="M39.1034,-219C46.794,-219 55.963,-219 64.7867,-219"/>
<polygon fill="midnightblue" stroke="midnightblue" points="64.8772,-222.5 74.8771,-219 64.8771,-215.5 64.8772,-222.5"/>
</g>
<!-- Node3 -->
<g id="node3" class="node"><title>Node3</title>
<g id="a_node3"><a xlink:href="teensy3__morse__bsp_8cpp.html#ab306f692c5c9455a0c82782a67ff0147" target="_top" xlink:title="touchPoll">
<polygon fill="white" stroke="black" points="507,-399.5 507,-418.5 564,-418.5 564,-399.5 507,-399.5"/>
<text text-anchor="middle" x="535.5" y="-406.5" font-family="Helvetica,sans-Serif" font-size="10.00">touchPoll</text>
</a>
</g>
</g>
<!-- Node2&#45;&gt;Node3 -->
<g id="edge2" class="edge"><title>Node2&#45;&gt;Node3</title>
<path fill="none" stroke="midnightblue" d="M100.512,-228.838C99.4799,-261.634 101.059,-367.878 161,-416 261.262,-496.493 430.23,-448.118 501.361,-422.197"/>
<polygon fill="midnightblue" stroke="midnightblue" points="502.981,-425.328 511.126,-418.553 500.533,-418.77 502.981,-425.328"/>
</g>
<!-- Node5 -->
<g id="node5" class="node"><title>Node5</title>
<g id="a_node5"><a xlink:href="settings_8cpp.html#a960551e90dfdad18f3c9b1338ccba7db" target="_top" xlink:title="Get the dit duration in microseconds. ">
<polygon fill="white" stroke="black" points="748.5,-323.5 748.5,-342.5 820.5,-342.5 820.5,-323.5 748.5,-323.5"/>
<text text-anchor="middle" x="784.5" y="-330.5" font-family="Helvetica,sans-Serif" font-size="10.00">getDitMicros</text>
</a>
</g>
</g>
<!-- Node2&#45;&gt;Node5 -->
<g id="edge4" class="edge"><title>Node2&#45;&gt;Node5</title>
<path fill="none" stroke="midnightblue" d="M102.103,-228.782C105.528,-254.08 118.45,-321.792 161,-352 239.581,-407.788 280.629,-371 377,-371 377,-371 377,-371 536.5,-371 607.587,-371 688.858,-355.434 738.157,-344.227"/>
<polygon fill="midnightblue" stroke="midnightblue" points="739.223,-347.573 748.177,-341.909 737.645,-340.753 739.223,-347.573"/>
</g>
<!-- Node6 -->
<g id="node6" class="node"><title>Node6</title>
<g id="a_node6"><a xlink:href="libmorse_8cpp.html#a9fdfce728595d72b78dc7c834ab99a40" target="_top" xlink:title="Transmit a literal Morse code value. ">
<polygon fill="white" stroke="black" points="639.5,-171.5 639.5,-190.5 690.5,-190.5 690.5,-171.5 639.5,-171.5"/>
<text text-anchor="middle" x="665" y="-178.5" font-family="Helvetica,sans-Serif" font-size="10.00">txLiteral</text>
</a>
</g>
</g>
<!-- Node2&#45;&gt;Node6 -->
<g id="edge5" class="edge"><title>Node2&#45;&gt;Node6</title>
<path fill="none" stroke="midnightblue" d="M125.191,-217.367C214.317,-211.352 524.582,-190.41 629.228,-183.347"/>
<polygon fill="midnightblue" stroke="midnightblue" points="629.523,-186.835 639.265,-182.67 629.052,-179.851 629.523,-186.835"/>
</g>
<!-- Node16 -->
<g id="node16" class="node"><title>Node16</title>
<g id="a_node16"><a xlink:href="libmorse_8cpp.html#acd4b292f5e412ee4f05aed9dafbc072d" target="_top" xlink:title="Convert an ASCII character into Morse code and transmit it. ">
<polygon fill="white" stroke="black" points="510.5,-133.5 510.5,-152.5 560.5,-152.5 560.5,-133.5 510.5,-133.5"/>
<text text-anchor="middle" x="535.5" y="-140.5" font-family="Helvetica,sans-Serif" font-size="10.00">txLetter</text>
</a>
</g>
</g>
<!-- Node2&#45;&gt;Node16 -->
<g id="edge17" class="edge"><title>Node2&#45;&gt;Node16</title>
<path fill="none" stroke="midnightblue" d="M108.694,-209.213C119.065,-196.852 138.808,-176.099 161,-167 277.702,-119.148 432.171,-130.066 500.033,-138.14"/>
<polygon fill="midnightblue" stroke="midnightblue" points="499.806,-141.639 510.162,-139.403 500.671,-134.693 499.806,-141.639"/>
</g>
<!-- Node17 -->
<g id="node17" class="node"><title>Node17</title>
<g id="a_node17"><a xlink:href="teensy3__morse__bsp_8cpp.html#a8761e874366e227690fba2964e1bc445" target="_top" xlink:title="getInternalTemperatureC">
<polygon fill="white" stroke="black" points="315.5,-228.5 315.5,-247.5 440.5,-247.5 440.5,-228.5 315.5,-228.5"/>
<text text-anchor="middle" x="378" y="-235.5" font-family="Helvetica,sans-Serif" font-size="10.00">getInternalTemperatureC</text>
</a>
</g>
</g>
<!-- Node2&#45;&gt;Node17 -->
<g id="edge20" class="edge"><title>Node2&#45;&gt;Node17</title>
<path fill="none" stroke="midnightblue" d="M125.01,-220.653C164.745,-223.388 245.691,-228.961 305.162,-233.055"/>
<polygon fill="midnightblue" stroke="midnightblue" points="305.039,-236.554 315.256,-233.749 305.52,-229.571 305.039,-236.554"/>
</g>
<!-- Node18 -->
<g id="node18" class="node"><title>Node18</title>
<g id="a_node18"><a xlink:href="libmorse_8cpp.html#a47abdd74b66d7180c47d192bab8bdccb" target="_top" xlink:title="Transmit an unsigned integer in Morse code. ">
<polygon fill="white" stroke="black" points="345,-285.5 345,-304.5 411,-304.5 411,-285.5 345,-285.5"/>
<text text-anchor="middle" x="378" y="-292.5" font-family="Helvetica,sans-Serif" font-size="10.00">txUnsigned</text>
</a>
</g>
</g>
<!-- Node2&#45;&gt;Node18 -->
<g id="edge21" class="edge"><title>Node2&#45;&gt;Node18</title>
<path fill="none" stroke="midnightblue" d="M107.823,-228.721C117.786,-242.035 137.687,-265.484 161,-276 217.19,-301.346 289.869,-302.041 334.955,-299.251"/>
<polygon fill="midnightblue" stroke="midnightblue" points="335.239,-302.74 344.968,-298.545 334.747,-295.757 335.239,-302.74"/>
</g>
<!-- Node19 -->
<g id="node19" class="node"><title>Node19</title>
<g id="a_node19"><a xlink:href="actions_8cpp.html#aed718ec1bd4cc7adb2f65d40a6784496" target="_top" xlink:title="Transmit the internal temperature in integer in Fahrenheit. ">
<polygon fill="white" stroke="black" points="161,-247.5 161,-266.5 279,-266.5 279,-247.5 161,-247.5"/>
<text text-anchor="middle" x="220" y="-254.5" font-family="Helvetica,sans-Serif" font-size="10.00">txInternalTemperatureF</text>
</a>
</g>
</g>
<!-- Node2&#45;&gt;Node19 -->
<g id="edge24" class="edge"><title>Node2&#45;&gt;Node19</title>
<path fill="none" stroke="midnightblue" d="M125.164,-226.782C140.866,-231.838 161.696,-238.546 179.742,-244.358"/>
<polygon fill="midnightblue" stroke="midnightblue" points="178.839,-247.744 189.431,-247.478 180.985,-241.081 178.839,-247.744"/>
</g>
<!-- Node20 -->
<g id="node20" class="node"><title>Node20</title>
<g id="a_node20"><a xlink:href="actions_8cpp.html#aaabb3ac0c23f35a499bc17efe829f326" target="_top" xlink:title="Transmit the 24&#45;hr time. ">
<polygon fill="white" stroke="black" points="181,-57.5 181,-76.5 259,-76.5 259,-57.5 181,-57.5"/>
<text text-anchor="middle" x="220" y="-64.5" font-family="Helvetica,sans-Serif" font-size="10.00">txTimeHHMM</text>
</a>
</g>
</g>
<!-- Node2&#45;&gt;Node20 -->
<g id="edge27" class="edge"><title>Node2&#45;&gt;Node20</title>
<path fill="none" stroke="midnightblue" d="M102.188,-209.338C106.457,-183.957 122.84,-118.444 161,-82 164.28,-78.8671 168.027,-76.1185 172.003,-73.7508"/>
<polygon fill="midnightblue" stroke="midnightblue" points="173.658,-76.8353 180.977,-69.1743 170.478,-70.5993 173.658,-76.8353"/>
</g>
<!-- Node21 -->
<g id="node21" class="node"><title>Node21</title>
<g id="a_node21"><a xlink:href="actions_8cpp.html#ad02149679fa3cc6a4957d1a318408ffd" target="_top" xlink:title="Transmit the uptime. ">
<polygon fill="white" stroke="black" points="192,-323.5 192,-342.5 248,-342.5 248,-323.5 192,-323.5"/>
<text text-anchor="middle" x="220" y="-330.5" font-family="Helvetica,sans-Serif" font-size="10.00">txUptime</text>
</a>
</g>
</g>
<!-- Node2&#45;&gt;Node21 -->
<g id="edge29" class="edge"><title>Node2&#45;&gt;Node21</title>
<path fill="none" stroke="midnightblue" d="M105.151,-228.772C113.318,-246.934 133.137,-286.117 161,-309 167.277,-314.155 174.815,-318.342 182.348,-321.689"/>
<polygon fill="midnightblue" stroke="midnightblue" points="181.208,-325.003 191.791,-325.488 183.82,-318.508 181.208,-325.003"/>
</g>
<!-- Node23 -->
<g id="node23" class="node"><title>Node23</title>
<g id="a_node23"><a xlink:href="teensy3__morse__bsp_8cpp.html#ae8dd28759e56dbd2ee9bc9ae96d1783c" target="_top" xlink:title="Return the most recent ADC measurement of the input voltage. Perform analog to digital conversion on ...">
<polygon fill="white" stroke="black" points="183,-19.5 183,-38.5 257,-38.5 257,-19.5 183,-19.5"/>
<text text-anchor="middle" x="220" y="-26.5" font-family="Helvetica,sans-Serif" font-size="10.00">readMillivolts</text>
</a>
</g>
</g>
<!-- Node2&#45;&gt;Node23 -->
<g id="edge32" class="edge"><title>Node2&#45;&gt;Node23</title>
<path fill="none" stroke="midnightblue" d="M101.514,-209.312C103.566,-180.496 113.571,-94.4483 161,-48 164.551,-44.5225 168.748,-41.6814 173.235,-39.3603"/>
<polygon fill="midnightblue" stroke="midnightblue" points="174.924,-42.4442 182.738,-35.289 172.168,-36.0098 174.924,-42.4442"/>
</g>
<!-- Node27 -->
<g id="node27" class="node"><title>Node27</title>
<g id="a_node27"><a xlink:href="libmorse_8cpp.html#ac3f000c98271c6d0a7710135e18189bc" target="_top" xlink:title="On my hardware there is cross&#45;coupling between the serial port and the touch sensors. Without the code below, long messages to the serial port trigger a touch input. ">
<polygon fill="white" stroke="black" points="345.5,-399.5 345.5,-418.5 410.5,-418.5 410.5,-399.5 345.5,-399.5"/>
<text text-anchor="middle" x="378" y="-406.5" font-family="Helvetica,sans-Serif" font-size="10.00">flushTouch</text>
</a>
</g>
</g>
<!-- Node2&#45;&gt;Node27 -->
<g id="edge36" class="edge"><title>Node2&#45;&gt;Node27</title>
<path fill="none" stroke="midnightblue" d="M101.202,-228.875C102.384,-258.162 110.211,-344.984 161,-385 210.7,-424.158 287.973,-422.313 335.369,-416.381"/>
<polygon fill="midnightblue" stroke="midnightblue" points="335.863,-419.846 345.297,-415.023 334.915,-412.91 335.863,-419.846"/>
</g>
<!-- Node4 -->
<g id="node4" class="node"><title>Node4</title>
<g id="a_node4"><a xlink:href="teensy3__morse__bsp_8cpp.html#af6899cd9b83df54106b259ab81ea5cb2" target="_top" xlink:title="touchMargin">
<polygon fill="white" stroke="black" points="630,-399.5 630,-418.5 700,-418.5 700,-399.5 630,-399.5"/>
<text text-anchor="middle" x="665" y="-406.5" font-family="Helvetica,sans-Serif" font-size="10.00">touchMargin</text>
</a>
</g>
</g>
<!-- Node3&#45;&gt;Node4 -->
<g id="edge3" class="edge"><title>Node3&#45;&gt;Node4</title>
<path fill="none" stroke="midnightblue" d="M564.166,-409C580.281,-409 600.984,-409 619.355,-409"/>
<polygon fill="midnightblue" stroke="midnightblue" points="619.562,-412.5 629.562,-409 619.562,-405.5 619.562,-412.5"/>
</g>
<!-- Node6&#45;&gt;Node5 -->
<g id="edge14" class="edge"><title>Node6&#45;&gt;Node5</title>
<path fill="none" stroke="midnightblue" d="M673.35,-190.508C692.638,-215.46 744.93,-283.106 769.888,-315.392"/>
<polygon fill="midnightblue" stroke="midnightblue" points="767.268,-317.724 776.153,-323.495 772.806,-313.443 767.268,-317.724"/>
</g>
<!-- Node7 -->
<g id="node7" class="node"><title>Node7</title>
<g id="a_node7"><a xlink:href="class_morse_token.html#a48cd72aeb868391449d1f51c1d0bf5cc" target="_top" xlink:title="Treat code == 0 as the error token. ">
<polygon fill="white" stroke="black" points="736,-152.5 736,-171.5 833,-171.5 833,-152.5 736,-152.5"/>
<text text-anchor="middle" x="784.5" y="-159.5" font-family="Helvetica,sans-Serif" font-size="10.00">MorseToken::valid</text>
</a>
</g>
</g>
<!-- Node6&#45;&gt;Node7 -->
<g id="edge6" class="edge"><title>Node6&#45;&gt;Node7</title>
<path fill="none" stroke="midnightblue" d="M690.632,-177.017C700.933,-175.351 713.376,-173.339 725.759,-171.337"/>
<polygon fill="midnightblue" stroke="midnightblue" points="726.322,-174.791 735.635,-169.74 725.205,-167.881 726.322,-174.791"/>
</g>
<!-- Node8 -->
<g id="node8" class="node"><title>Node8</title>
<g id="a_node8"><a xlink:href="teensy3__morse__bsp_8cpp.html#af66e71e3fac9b6a2c6532bc8a513bfde" target="_top" xlink:title="Output a square wave on pin 10 at the given frequency for the given duration. ">
<polygon fill="white" stroke="black" points="765.5,-228.5 765.5,-247.5 803.5,-247.5 803.5,-228.5 765.5,-228.5"/>
<text text-anchor="middle" x="784.5" y="-235.5" font-family="Helvetica,sans-Serif" font-size="10.00">beep</text>
</a>
</g>
</g>
<!-- Node6&#45;&gt;Node8 -->
<g id="edge7" class="edge"><title>Node6&#45;&gt;Node8</title>
<path fill="none" stroke="midnightblue" d="M682.408,-190.616C696.419,-198.654 717.224,-210.185 736,-219 742.226,-221.923 749.031,-224.816 755.496,-227.43"/>
<polygon fill="midnightblue" stroke="midnightblue" points="754.656,-230.861 765.243,-231.272 757.223,-224.348 754.656,-230.861"/>
</g>
<!-- Node14 -->
<g id="node14" class="node"><title>Node14</title>
<g id="a_node14"><a xlink:href="settings_8cpp.html#a8575b9b52638114a4f32d1462cf9b7c1" target="_top" xlink:title="Get the transmission frequency (side tone). ">
<polygon fill="white" stroke="black" points="757.5,-190.5 757.5,-209.5 811.5,-209.5 811.5,-190.5 757.5,-190.5"/>
<text text-anchor="middle" x="784.5" y="-197.5" font-family="Helvetica,sans-Serif" font-size="10.00">getTxHz</text>
</a>
</g>
</g>
<!-- Node6&#45;&gt;Node14 -->
<g id="edge13" class="edge"><title>Node6&#45;&gt;Node14</title>
<path fill="none" stroke="midnightblue" d="M690.632,-184.983C707.022,-187.633 728.833,-191.16 747.199,-194.13"/>
<polygon fill="midnightblue" stroke="midnightblue" points="746.838,-197.617 757.269,-195.758 747.956,-190.707 746.838,-197.617"/>
</g>
<!-- Node15 -->
<g id="node15" class="node"><title>Node15</title>
<g id="a_node15"><a xlink:href="libmorse_8cpp.html#ab94e088615119d1faae7df22ce50aedf" target="_top" xlink:title="Transmit a Morse code prosign indicating an error. ">
<polygon fill="white" stroke="black" points="761.5,-114.5 761.5,-133.5 807.5,-133.5 807.5,-114.5 761.5,-114.5"/>
<text text-anchor="middle" x="784.5" y="-121.5" font-family="Helvetica,sans-Serif" font-size="10.00">txError</text>
</a>
</g>
</g>
<!-- Node6&#45;&gt;Node15 -->
<g id="edge15" class="edge"><title>Node6&#45;&gt;Node15</title>
<path fill="none" stroke="midnightblue" d="M682.408,-171.384C696.419,-163.346 717.224,-151.815 736,-143 741.025,-140.641 746.427,-138.301 751.724,-136.112"/>
<polygon fill="midnightblue" stroke="midnightblue" points="753.068,-139.344 761.038,-132.363 750.454,-132.85 753.068,-139.344"/>
</g>
<!-- Node9 -->
<g id="node9" class="node"><title>Node9</title>
<g id="a_node9"><a xlink:href="teensy3__morse__bsp_8cpp.html#a6f674d5b9985ea3a7eeb0df299c2e405" target="_top" xlink:title="pollEarphonePresent">
<polygon fill="white" stroke="black" points="869,-285.5 869,-304.5 976,-304.5 976,-285.5 869,-285.5"/>
<text text-anchor="middle" x="922.5" y="-292.5" font-family="Helvetica,sans-Serif" font-size="10.00">pollEarphonePresent</text>
</a>
</g>
</g>
<!-- Node8&#45;&gt;Node9 -->
<g id="edge8" class="edge"><title>Node8&#45;&gt;Node9</title>
<path fill="none" stroke="midnightblue" d="M803.561,-246.725C820.352,-254.715 846.14,-266.679 869,-276 873.868,-277.985 879.03,-279.981 884.142,-281.896"/>
<polygon fill="midnightblue" stroke="midnightblue" points="883.229,-285.289 893.823,-285.451 885.642,-278.718 883.229,-285.289"/>
</g>
<!-- Node10 -->
<g id="node10" class="node"><title>Node10</title>
<g id="a_node10"><a xlink:href="teensy3__morse__bsp_8cpp.html#a2d6b4ace33ed5e497dedd03217540c63" target="_top" xlink:title="Set the PWM frequency for the audio output pins. ">
<polygon fill="white" stroke="black" points="881,-247.5 881,-266.5 964,-266.5 964,-247.5 881,-247.5"/>
<text text-anchor="middle" x="922.5" y="-254.5" font-family="Helvetica,sans-Serif" font-size="10.00">pwmFrequency</text>
</a>
</g>
</g>
<!-- Node8&#45;&gt;Node10 -->
<g id="edge9" class="edge"><title>Node8&#45;&gt;Node10</title>
<path fill="none" stroke="midnightblue" d="M803.56,-240.523C820.617,-242.906 847.017,-246.594 870.519,-249.878"/>
<polygon fill="midnightblue" stroke="midnightblue" points="870.334,-253.386 880.722,-251.303 871.303,-246.453 870.334,-253.386"/>
</g>
<!-- Node11 -->
<g id="node11" class="node"><title>Node11</title>
<g id="a_node11"><a xlink:href="teensy3__morse__bsp_8cpp.html#a82911eac3bf13d6f36d10102a4c4d3c4" target="_top" xlink:title="Generate a tone on the audio output pins. ">
<polygon fill="white" stroke="black" points="892,-209.5 892,-228.5 953,-228.5 953,-209.5 892,-209.5"/>
<text text-anchor="middle" x="922.5" y="-216.5" font-family="Helvetica,sans-Serif" font-size="10.00">pwmWrite</text>
</a>
</g>
</g>
<!-- Node8&#45;&gt;Node11 -->
<g id="edge10" class="edge"><title>Node8&#45;&gt;Node11</title>
<path fill="none" stroke="midnightblue" d="M803.56,-235.477C823.462,-232.697 856.083,-228.139 881.979,-224.521"/>
<polygon fill="midnightblue" stroke="midnightblue" points="882.471,-227.987 891.89,-223.137 881.502,-221.054 882.471,-227.987"/>
</g>
<!-- Node13 -->
<g id="node13" class="node"><title>Node13</title>
<g id="a_node13"><a xlink:href="teensy3__morse__bsp_8cpp.html#a6c982a7d7805f1dd5426eb98c915cfdd" target="_top" xlink:title="Turn the red LED on (1) or off (0). ">
<polygon fill="white" stroke="black" points="897.5,-171.5 897.5,-190.5 947.5,-190.5 947.5,-171.5 897.5,-171.5"/>
<text text-anchor="middle" x="922.5" y="-178.5" font-family="Helvetica,sans-Serif" font-size="10.00">redLED</text>
</a>
</g>
</g>
<!-- Node8&#45;&gt;Node13 -->
<g id="edge12" class="edge"><title>Node8&#45;&gt;Node13</title>
<path fill="none" stroke="midnightblue" d="M803.734,-231.223C812.652,-227.779 823.487,-223.398 833,-219 849.422,-211.408 852.454,-207.318 869,-200 874.992,-197.35 881.48,-194.774 887.784,-192.419"/>
<polygon fill="midnightblue" stroke="midnightblue" points="889.232,-195.617 897.442,-188.92 886.847,-189.036 889.232,-195.617"/>
</g>
<!-- Node12 -->
<g id="node12" class="node"><title>Node12</title>
<g id="a_node12"><a xlink:href="teensy3__morse__bsp_8cpp.html#ac70998cee1bf97f00aec4a1b4e5a4f60" target="_top" xlink:title="isEarphonePresent">
<polygon fill="white" stroke="black" points="1012,-209.5 1012,-228.5 1111,-228.5 1111,-209.5 1012,-209.5"/>
<text text-anchor="middle" x="1061.5" y="-216.5" font-family="Helvetica,sans-Serif" font-size="10.00">isEarphonePresent</text>
</a>
</g>
</g>
<!-- Node11&#45;&gt;Node12 -->
<g id="edge11" class="edge"><title>Node11&#45;&gt;Node12</title>
<path fill="none" stroke="midnightblue" d="M953.227,-219C967.434,-219 984.959,-219 1001.7,-219"/>
<polygon fill="midnightblue" stroke="midnightblue" points="1001.98,-222.5 1011.98,-219 1001.98,-215.5 1001.98,-222.5"/>
</g>
<!-- Node15&#45;&gt;Node2 -->
<g id="edge16" class="edge"><title>Node15&#45;&gt;Node2</title>
<path fill="none" stroke="midnightblue" d="M761.403,-121.156C718.252,-115.855 619.722,-105 536.5,-105 377,-105 377,-105 377,-105 280.139,-105 243.839,-83.8021 161,-134 135.611,-149.385 118.092,-180.05 108.802,-200.034"/>
<polygon fill="midnightblue" stroke="midnightblue" points="105.516,-198.81 104.696,-209.373 111.924,-201.627 105.516,-198.81"/>
</g>
<!-- Node16&#45;&gt;Node6 -->
<g id="edge18" class="edge"><title>Node16&#45;&gt;Node6</title>
<path fill="none" stroke="midnightblue" d="M560.782,-150.237C580.242,-156.037 607.793,-164.248 629.536,-170.728"/>
<polygon fill="midnightblue" stroke="midnightblue" points="628.791,-174.158 639.374,-173.661 630.791,-167.45 628.791,-174.158"/>
</g>
<!-- Node16&#45;&gt;Node15 -->
<g id="edge19" class="edge"><title>Node16&#45;&gt;Node15</title>
<path fill="none" stroke="midnightblue" d="M560.633,-141.144C605.398,-137.7 701.294,-130.324 751.444,-126.466"/>
<polygon fill="midnightblue" stroke="midnightblue" points="751.715,-129.955 761.417,-125.699 751.178,-122.976 751.715,-129.955"/>
</g>
<!-- Node18&#45;&gt;Node3 -->
<g id="edge22" class="edge"><title>Node18&#45;&gt;Node3</title>
<path fill="none" stroke="midnightblue" d="M411.192,-301.601C421.19,-304.491 431.953,-308.511 441,-314 474.757,-334.482 505.051,-369.863 521.502,-391.184"/>
<polygon fill="midnightblue" stroke="midnightblue" points="518.862,-393.496 527.675,-399.376 524.453,-389.283 518.862,-393.496"/>
</g>
<!-- Node18&#45;&gt;Node16 -->
<g id="edge23" class="edge"><title>Node18&#45;&gt;Node16</title>
<path fill="none" stroke="midnightblue" d="M398.284,-285.367C411.122,-278.448 427.961,-268.364 441,-257 474.73,-227.603 505.99,-185.202 522.427,-161.26"/>
<polygon fill="midnightblue" stroke="midnightblue" points="525.461,-163.021 528.16,-152.776 519.661,-159.102 525.461,-163.021"/>
</g>
<!-- Node19&#45;&gt;Node17 -->
<g id="edge25" class="edge"><title>Node19&#45;&gt;Node17</title>
<path fill="none" stroke="midnightblue" d="M279.089,-249.925C287.711,-248.875 296.682,-247.782 305.54,-246.704"/>
<polygon fill="midnightblue" stroke="midnightblue" points="305.964,-250.178 315.467,-245.494 305.117,-243.229 305.964,-250.178"/>
</g>
<!-- Node19&#45;&gt;Node18 -->
<g id="edge26" class="edge"><title>Node19&#45;&gt;Node18</title>
<path fill="none" stroke="midnightblue" d="M260.365,-266.589C283.167,-272.143 311.861,-279.133 335.083,-284.789"/>
<polygon fill="midnightblue" stroke="midnightblue" points="334.451,-288.238 344.996,-287.204 336.108,-281.437 334.451,-288.238"/>
</g>
<!-- Node20&#45;&gt;Node2 -->
<g id="edge28" class="edge"><title>Node20&#45;&gt;Node2</title>
<path fill="none" stroke="midnightblue" d="M205.483,-76.5146C192.627,-81.7533 173.452,-88.1082 161,-100 131.648,-128.032 115.18,-173.263 107.199,-199.347"/>
<polygon fill="midnightblue" stroke="midnightblue" points="103.751,-198.667 104.285,-209.248 110.466,-200.643 103.751,-198.667"/>
</g>
<!-- Node21&#45;&gt;Node18 -->
<g id="edge31" class="edge"><title>Node21&#45;&gt;Node18</title>
<path fill="none" stroke="midnightblue" d="M248.173,-326.381C272.119,-320.548 307.386,-311.957 334.968,-305.238"/>
<polygon fill="midnightblue" stroke="midnightblue" points="335.86,-308.624 344.748,-302.856 334.203,-301.823 335.86,-308.624"/>
</g>
<!-- Node22 -->
<g id="node22" class="node"><title>Node22</title>
<g id="a_node22"><a xlink:href="settings_8cpp.html#a7b4efa097b94f9a90c5bbafcdf93fe4f" target="_top" xlink:title="getUptime">
<polygon fill="white" stroke="black" points="347,-323.5 347,-342.5 409,-342.5 409,-323.5 347,-323.5"/>
<text text-anchor="middle" x="378" y="-330.5" font-family="Helvetica,sans-Serif" font-size="10.00">getUptime</text>
</a>
</g>
</g>
<!-- Node21&#45;&gt;Node22 -->
<g id="edge30" class="edge"><title>Node21&#45;&gt;Node22</title>
<path fill="none" stroke="midnightblue" d="M248.173,-333C272.633,-333 308.905,-333 336.735,-333"/>
<polygon fill="midnightblue" stroke="midnightblue" points="336.945,-336.5 346.945,-333 336.945,-329.5 336.945,-336.5"/>
</g>
<!-- Node24 -->
<g id="node24" class="node"><title>Node24</title>
<g id="a_node24"><a xlink:href="class_voltage_monitor.html#a70902b84f9864c95d5553a0644a64f4f" target="_top" xlink:title="Return the latest voltage reading. ">
<polygon fill="white" stroke="black" points="315,-19.5 315,-38.5 441,-38.5 441,-19.5 315,-19.5"/>
<text text-anchor="middle" x="378" y="-26.5" font-family="Helvetica,sans-Serif" font-size="10.00">VoltageMonitor::getValue</text>
</a>
</g>
</g>
<!-- Node23&#45;&gt;Node24 -->
<g id="edge33" class="edge"><title>Node23&#45;&gt;Node24</title>
<path fill="none" stroke="midnightblue" d="M257.182,-29C271.344,-29 288.117,-29 304.56,-29"/>
<polygon fill="midnightblue" stroke="midnightblue" points="304.728,-32.5001 314.728,-29 304.728,-25.5001 304.728,-32.5001"/>
</g>
<!-- Node25 -->
<g id="node25" class="node"><title>Node25</title>
<g id="a_node25"><a xlink:href="actions_8cpp.html#a2b8c3769e2aa32a2da9e2f3f85ac73dd" target="_top" xlink:title="A sample ADC reading is taken each time through the main loop, and written to a ring buffer...">
<polygon fill="white" stroke="black" points="479.5,-38.5 479.5,-57.5 591.5,-57.5 591.5,-38.5 479.5,-38.5"/>
<text text-anchor="middle" x="535.5" y="-45.5" font-family="Helvetica,sans-Serif" font-size="10.00">getVoltagePollInterval</text>
</a>
</g>
</g>
<!-- Node24&#45;&gt;Node25 -->
<g id="edge34" class="edge"><title>Node24&#45;&gt;Node25</title>
<path fill="none" stroke="midnightblue" d="M441.352,-36.6185C450.438,-37.7287 459.816,-38.8746 468.963,-39.9922"/>
<polygon fill="midnightblue" stroke="midnightblue" points="468.813,-43.4998 479.163,-41.2386 469.662,-36.5515 468.813,-43.4998"/>
</g>
<!-- Node26 -->
<g id="node26" class="node"><title>Node26</title>
<g id="a_node26"><a xlink:href="class_voltage_monitor.html#a75871331808c34b40d04059ee2af0f27" target="_top" xlink:title="Filter and scale raw ADC values to millivolts. ">
<polygon fill="white" stroke="black" points="477,-0.5 477,-19.5 594,-19.5 594,-0.5 477,-0.5"/>
<text text-anchor="middle" x="535.5" y="-7.5" font-family="Helvetica,sans-Serif" font-size="10.00">VoltageMonitor::update</text>
</a>
</g>
</g>
<!-- Node24&#45;&gt;Node26 -->
<g id="edge35" class="edge"><title>Node24&#45;&gt;Node26</title>
<path fill="none" stroke="midnightblue" d="M441.352,-21.3815C449.702,-20.3612 458.298,-19.3108 466.735,-18.2799"/>
<polygon fill="midnightblue" stroke="midnightblue" points="467.419,-21.7226 476.92,-17.0355 466.57,-14.7742 467.419,-21.7226"/>
</g>
<!-- Node27&#45;&gt;Node3 -->
<g id="edge37" class="edge"><title>Node27&#45;&gt;Node3</title>
<path fill="none" stroke="midnightblue" d="M410.843,-409C435.677,-409 470.247,-409 496.522,-409"/>
<polygon fill="midnightblue" stroke="midnightblue" points="496.864,-412.5 506.864,-409 496.863,-405.5 496.864,-412.5"/>
</g>
</g>
</svg>
