<?xml version="1.0" encoding="UTF-8" standalone="no"?>
<!DOCTYPE svg PUBLIC "-//W3C//DTD SVG 1.1//EN"
 "http://www.w3.org/Graphics/SVG/1.1/DTD/svg11.dtd">
<!-- Generated by graphviz version 2.38.0 (20140413.2041)
 -->
<!-- Title: doAction Pages: 1 -->
<svg width="272pt" height="66pt"
 viewBox="0.00 0.00 272.00 66.00" xmlns="http://www.w3.org/2000/svg" xmlns:xlink="http://www.w3.org/1999/xlink">
<g id="graph0" class="graph" transform="scale(1 1) rotate(0) translate(4 62)">
<title>doAction</title>
<polygon fill="white" stroke="none" points="-4,4 -4,-62 268,-62 268,4 -4,4"/>
<!-- Node1 -->
<g id="node1" class="node"><title>Node1</title>
<polygon fill="#bfbfbf" stroke="black" points="0,-19.5 0,-38.5 55,-38.5 55,-19.5 0,-19.5"/>
<text text-anchor="middle" x="27.5" y="-26.5" font-family="Helvetica,sans-Serif" font-size="10.00">doAction</text>
</g>
<!-- Node2 -->
<g id="node2" class="node"><title>Node2</title>
<g id="a_node2"><a xlink:href="actions_8cpp.html#a4ddb37fc9b26cb5c7a18a1458414f647" target="_top" xlink:title="codeHash">
<polygon fill="white" stroke="black" points="101.5,-38.5 101.5,-57.5 162.5,-57.5 162.5,-38.5 101.5,-38.5"/>
<text text-anchor="middle" x="132" y="-45.5" font-family="Helvetica,sans-Serif" font-size="10.00">codeHash</text>
</a>
</g>
</g>
<!-- Node1&#45;&gt;Node2 -->
<g id="edge1" class="edge"><title>Node1&#45;&gt;Node2</title>
<path fill="none" stroke="midnightblue" d="M55.1631,-33.9424C66.1923,-35.9869 79.2126,-38.4004 91.3231,-40.6453"/>
<polygon fill="midnightblue" stroke="midnightblue" points="90.7479,-44.0982 101.218,-42.4795 92.0237,-37.2154 90.7479,-44.0982"/>
</g>
<!-- Node4 -->
<g id="node4" class="node"><title>Node4</title>
<g id="a_node4"><a xlink:href="actions_8cpp.html#a9cfd0adeb55456558a4fcddce4901fc0" target="_top" xlink:title="restorePending">
<polygon fill="white" stroke="black" points="91,-0.5 91,-19.5 173,-19.5 173,-0.5 91,-0.5"/>
<text text-anchor="middle" x="132" y="-7.5" font-family="Helvetica,sans-Serif" font-size="10.00">restorePending</text>
</a>
</g>
</g>
<!-- Node1&#45;&gt;Node4 -->
<g id="edge3" class="edge"><title>Node1&#45;&gt;Node4</title>
<path fill="none" stroke="midnightblue" d="M55.1631,-24.0576C63.093,-22.5876 72.0522,-20.9269 80.9625,-19.2752"/>
<polygon fill="midnightblue" stroke="midnightblue" points="81.7497,-22.689 90.9442,-17.425 80.4738,-15.8063 81.7497,-22.689"/>
</g>
<!-- Node3 -->
<g id="node3" class="node"><title>Node3</title>
<g id="a_node3"><a xlink:href="morse__token_8h.html#af9722722b93869c9f37ef10573b31655" target="_top" xlink:title="wordBits">
<polygon fill="white" stroke="black" points="209,-38.5 209,-57.5 264,-57.5 264,-38.5 209,-38.5"/>
<text text-anchor="middle" x="236.5" y="-45.5" font-family="Helvetica,sans-Serif" font-size="10.00">wordBits</text>
</a>
</g>
</g>
<!-- Node2&#45;&gt;Node3 -->
<g id="edge2" class="edge"><title>Node2&#45;&gt;Node3</title>
<path fill="none" stroke="midnightblue" d="M162.647,-48C173.897,-48 186.846,-48 198.678,-48"/>
<polygon fill="midnightblue" stroke="midnightblue" points="198.718,-51.5001 208.718,-48 198.718,-44.5001 198.718,-51.5001"/>
</g>
</g>
</svg>
