<?xml version="1.0" encoding="UTF-8" standalone="no"?>
<!DOCTYPE svg PUBLIC "-//W3C//DTD SVG 1.1//EN"
 "http://www.w3.org/Graphics/SVG/1.1/DTD/svg11.dtd">
<!-- Generated by graphviz version 2.38.0 (20140413.2041)
 -->
<!-- Title: getFormatForState Pages: 1 -->
<svg width="1340pt" height="484pt"
 viewBox="0.00 0.00 1340.00 484.00" xmlns="http://www.w3.org/2000/svg" xmlns:xlink="http://www.w3.org/1999/xlink">
<g id="graph0" class="graph" transform="scale(1 1) rotate(0) translate(4 480)">
<title>getFormatForState</title>
<polygon fill="white" stroke="none" points="-4,4 -4,-480 1336,-480 1336,4 -4,4"/>
<!-- Node1 -->
<g id="node1" class="node"><title>Node1</title>
<polygon fill="#bfbfbf" stroke="black" points="0,-95.5 0,-114.5 98,-114.5 98,-95.5 0,-95.5"/>
<text text-anchor="middle" x="49" y="-102.5" font-family="Helvetica,sans-Serif" font-size="10.00">getFormatForState</text>
</g>
<!-- Node2 -->
<g id="node2" class="node"><title>Node2</title>
<g id="a_node2"><a xlink:href="settings_8cpp.html#a846e579c0e4875f098993e2a44e44182" target="_top" xlink:title="Get the format of periodic low&#45;voltage alarm messages. ">
<polygon fill="white" stroke="black" points="145,-152.5 145,-171.5 249,-171.5 249,-152.5 145,-152.5"/>
<text text-anchor="middle" x="197" y="-159.5" font-family="Helvetica,sans-Serif" font-size="10.00">getAlarmLowFormat</text>
</a>
</g>
</g>
<!-- Node1&#45;&gt;Node2 -->
<g id="edge1" class="edge"><title>Node1&#45;&gt;Node2</title>
<path fill="none" stroke="midnightblue" d="M69.3903,-114.624C86.2273,-122.775 111.389,-134.461 134,-143 139.875,-145.219 146.133,-147.373 152.329,-149.385"/>
<polygon fill="midnightblue" stroke="midnightblue" points="151.36,-152.749 161.949,-152.418 153.465,-146.073 151.36,-152.749"/>
</g>
<!-- Node3 -->
<g id="node3" class="node"><title>Node3</title>
<g id="a_node3"><a xlink:href="settings_8cpp.html#a088799682590552129c153e36ce09a52" target="_top" xlink:title="Get the periodic announcement format. ">
<polygon fill="white" stroke="black" points="134,-114.5 134,-133.5 260,-133.5 260,-114.5 134,-114.5"/>
<text text-anchor="middle" x="197" y="-121.5" font-family="Helvetica,sans-Serif" font-size="10.00">getAnnouncementFormat</text>
</a>
</g>
</g>
<!-- Node1&#45;&gt;Node3 -->
<g id="edge2" class="edge"><title>Node1&#45;&gt;Node3</title>
<path fill="none" stroke="midnightblue" d="M98.2105,-111.274C106.389,-112.338 115.039,-113.464 123.676,-114.588"/>
<polygon fill="midnightblue" stroke="midnightblue" points="123.413,-118.083 133.781,-115.903 124.316,-111.142 123.413,-118.083"/>
</g>
<!-- Node4 -->
<g id="node4" class="node"><title>Node4</title>
<g id="a_node4"><a xlink:href="settings_8cpp.html#a0508347a0269b133a9dbc300904807e8" target="_top" xlink:title="Get the format of periodic high&#45;voltage alarm messages. ">
<polygon fill="white" stroke="black" points="143.5,-76.5 143.5,-95.5 250.5,-95.5 250.5,-76.5 143.5,-76.5"/>
<text text-anchor="middle" x="197" y="-83.5" font-family="Helvetica,sans-Serif" font-size="10.00">getAlarmHighFormat</text>
</a>
</g>
</g>
<!-- Node1&#45;&gt;Node4 -->
<g id="edge3" class="edge"><title>Node1&#45;&gt;Node4</title>
<path fill="none" stroke="midnightblue" d="M98.2105,-98.726C109.389,-97.2714 121.446,-95.7022 133.15,-94.1792"/>
<polygon fill="midnightblue" stroke="midnightblue" points="133.847,-97.618 143.312,-92.8567 132.944,-90.6765 133.847,-97.618"/>
</g>
<!-- Node5 -->
<g id="node5" class="node"><title>Node5</title>
<g id="a_node5"><a xlink:href="libmorse_8cpp.html#ab94e088615119d1faae7df22ce50aedf" target="_top" xlink:title="Transmit a Morse code prosign indicating an error. ">
<polygon fill="white" stroke="black" points="174,-38.5 174,-57.5 220,-57.5 220,-38.5 174,-38.5"/>
<text text-anchor="middle" x="197" y="-45.5" font-family="Helvetica,sans-Serif" font-size="10.00">txError</text>
</a>
</g>
</g>
<!-- Node1&#45;&gt;Node5 -->
<g id="edge4" class="edge"><title>Node1&#45;&gt;Node5</title>
<path fill="none" stroke="midnightblue" d="M69.3903,-95.3755C86.2273,-87.2255 111.389,-75.5391 134,-67 143.693,-63.3395 154.429,-59.8553 164.206,-56.8938"/>
<polygon fill="midnightblue" stroke="midnightblue" points="165.365,-60.2011 173.964,-54.0113 163.382,-53.4879 165.365,-60.2011"/>
</g>
<!-- Node6 -->
<g id="node6" class="node"><title>Node6</title>
<g id="a_node6"><a xlink:href="libmorse_8cpp.html#a0ee2308940264ea9ac8e50afc1a4d285" target="_top" xlink:title="txString">
<polygon fill="white" stroke="black" points="296,-266.5 296,-285.5 346,-285.5 346,-266.5 296,-266.5"/>
<text text-anchor="middle" x="321" y="-273.5" font-family="Helvetica,sans-Serif" font-size="10.00">txString</text>
</a>
</g>
</g>
<!-- Node5&#45;&gt;Node6 -->
<g id="edge5" class="edge"><title>Node5&#45;&gt;Node6</title>
<path fill="none" stroke="midnightblue" d="M220.217,-49.5932C233.428,-51.6787 249.586,-56.3989 260,-67 311.99,-119.924 319.517,-214.759 320.208,-255.968"/>
<polygon fill="midnightblue" stroke="midnightblue" points="316.708,-256.106 320.253,-266.09 323.708,-256.074 316.708,-256.106"/>
</g>
<!-- Node7 -->
<g id="node7" class="node"><title>Node7</title>
<g id="a_node7"><a xlink:href="teensy3__morse__bsp_8cpp.html#ab306f692c5c9455a0c82782a67ff0147" target="_top" xlink:title="touchPoll">
<polygon fill="white" stroke="black" points="728,-342.5 728,-361.5 785,-361.5 785,-342.5 728,-342.5"/>
<text text-anchor="middle" x="756.5" y="-349.5" font-family="Helvetica,sans-Serif" font-size="10.00">touchPoll</text>
</a>
</g>
</g>
<!-- Node6&#45;&gt;Node7 -->
<g id="edge6" class="edge"><title>Node6&#45;&gt;Node7</title>
<path fill="none" stroke="midnightblue" d="M329.694,-285.787C340.065,-298.148 359.808,-318.901 382,-328 496.94,-375.13 648.517,-365.251 717.901,-357.227"/>
<polygon fill="midnightblue" stroke="midnightblue" points="718.414,-360.69 727.921,-356.014 717.573,-353.741 718.414,-360.69"/>
</g>
<!-- Node9 -->
<g id="node9" class="node"><title>Node9</title>
<g id="a_node9"><a xlink:href="settings_8cpp.html#a960551e90dfdad18f3c9b1338ccba7db" target="_top" xlink:title="Get the dit duration in microseconds. ">
<polygon fill="white" stroke="black" points="969.5,-237.5 969.5,-256.5 1041.5,-256.5 1041.5,-237.5 969.5,-237.5"/>
<text text-anchor="middle" x="1005.5" y="-244.5" font-family="Helvetica,sans-Serif" font-size="10.00">getDitMicros</text>
</a>
</g>
</g>
<!-- Node6&#45;&gt;Node9 -->
<g id="edge8" class="edge"><title>Node6&#45;&gt;Node9</title>
<path fill="none" stroke="midnightblue" d="M346.213,-281.607C394.047,-292.177 504.165,-314 598,-314 598,-314 598,-314 757.5,-314 838.219,-314 928.763,-280.259 974.537,-260.665"/>
<polygon fill="midnightblue" stroke="midnightblue" points="976.099,-263.802 983.869,-256.599 973.303,-257.385 976.099,-263.802"/>
</g>
<!-- Node10 -->
<g id="node10" class="node"><title>Node10</title>
<g id="a_node10"><a xlink:href="libmorse_8cpp.html#a9fdfce728595d72b78dc7c834ab99a40" target="_top" xlink:title="Transmit a literal Morse code value. ">
<polygon fill="white" stroke="black" points="860.5,-95.5 860.5,-114.5 911.5,-114.5 911.5,-95.5 860.5,-95.5"/>
<text text-anchor="middle" x="886" y="-102.5" font-family="Helvetica,sans-Serif" font-size="10.00">txLiteral</text>
</a>
</g>
</g>
<!-- Node6&#45;&gt;Node10 -->
<g id="edge9" class="edge"><title>Node6&#45;&gt;Node10</title>
<path fill="none" stroke="midnightblue" d="M323.677,-266.237C328.258,-242.863 343.326,-183.652 382,-157 420.477,-130.483 742.874,-112.106 850.315,-106.67"/>
<polygon fill="midnightblue" stroke="midnightblue" points="850.502,-110.165 860.315,-106.17 850.153,-103.174 850.502,-110.165"/>
</g>
<!-- Node19 -->
<g id="node19" class="node"><title>Node19</title>
<g id="a_node19"><a xlink:href="libmorse_8cpp.html#acd4b292f5e412ee4f05aed9dafbc072d" target="_top" xlink:title="Convert an ASCII character into Morse code and transmit it. ">
<polygon fill="white" stroke="black" points="731.5,-76.5 731.5,-95.5 781.5,-95.5 781.5,-76.5 731.5,-76.5"/>
<text text-anchor="middle" x="756.5" y="-83.5" font-family="Helvetica,sans-Serif" font-size="10.00">txLetter</text>
</a>
</g>
</g>
<!-- Node6&#45;&gt;Node19 -->
<g id="edge20" class="edge"><title>Node6&#45;&gt;Node19</title>
<path fill="none" stroke="midnightblue" d="M322.104,-266.431C322.995,-237.251 330.049,-149.009 382,-110 434.827,-70.3332 639.372,-78.5386 721.292,-83.5932"/>
<polygon fill="midnightblue" stroke="midnightblue" points="721.131,-87.0899 731.334,-84.2354 721.578,-80.1042 721.131,-87.0899"/>
</g>
<!-- Node20 -->
<g id="node20" class="node"><title>Node20</title>
<g id="a_node20"><a xlink:href="teensy3__morse__bsp_8cpp.html#a8761e874366e227690fba2964e1bc445" target="_top" xlink:title="getInternalTemperatureC">
<polygon fill="white" stroke="black" points="536.5,-247.5 536.5,-266.5 661.5,-266.5 661.5,-247.5 536.5,-247.5"/>
<text text-anchor="middle" x="599" y="-254.5" font-family="Helvetica,sans-Serif" font-size="10.00">getInternalTemperatureC</text>
</a>
</g>
</g>
<!-- Node6&#45;&gt;Node20 -->
<g id="edge23" class="edge"><title>Node6&#45;&gt;Node20</title>
<path fill="none" stroke="midnightblue" d="M346.01,-274.347C385.745,-271.612 466.691,-266.039 526.162,-261.945"/>
<polygon fill="midnightblue" stroke="midnightblue" points="526.52,-265.429 536.256,-261.251 526.039,-258.446 526.52,-265.429"/>
</g>
<!-- Node21 -->
<g id="node21" class="node"><title>Node21</title>
<g id="a_node21"><a xlink:href="libmorse_8cpp.html#a47abdd74b66d7180c47d192bab8bdccb" target="_top" xlink:title="Transmit an unsigned integer in Morse code. ">
<polygon fill="white" stroke="black" points="566,-171.5 566,-190.5 632,-190.5 632,-171.5 566,-171.5"/>
<text text-anchor="middle" x="599" y="-178.5" font-family="Helvetica,sans-Serif" font-size="10.00">txUnsigned</text>
</a>
</g>
</g>
<!-- Node6&#45;&gt;Node21 -->
<g id="edge24" class="edge"><title>Node6&#45;&gt;Node21</title>
<path fill="none" stroke="midnightblue" d="M324.635,-266.451C330.78,-246.278 348.174,-199.644 382,-181 436.196,-151.129 510.273,-159.768 556.082,-169.682"/>
<polygon fill="midnightblue" stroke="midnightblue" points="555.441,-173.125 565.969,-171.937 556.998,-166.301 555.441,-173.125"/>
</g>
<!-- Node22 -->
<g id="node22" class="node"><title>Node22</title>
<g id="a_node22"><a xlink:href="actions_8cpp.html#aed718ec1bd4cc7adb2f65d40a6784496" target="_top" xlink:title="Transmit the internal temperature in integer in Fahrenheit. ">
<polygon fill="white" stroke="black" points="382,-228.5 382,-247.5 500,-247.5 500,-228.5 382,-228.5"/>
<text text-anchor="middle" x="441" y="-235.5" font-family="Helvetica,sans-Serif" font-size="10.00">txInternalTemperatureF</text>
</a>
</g>
</g>
<!-- Node6&#45;&gt;Node22 -->
<g id="edge27" class="edge"><title>Node6&#45;&gt;Node22</title>
<path fill="none" stroke="midnightblue" d="M346.164,-268.218C361.866,-263.162 382.696,-256.454 400.742,-250.642"/>
<polygon fill="midnightblue" stroke="midnightblue" points="401.985,-253.919 410.431,-247.522 399.839,-247.256 401.985,-253.919"/>
</g>
<!-- Node23 -->
<g id="node23" class="node"><title>Node23</title>
<g id="a_node23"><a xlink:href="actions_8cpp.html#aaabb3ac0c23f35a499bc17efe829f326" target="_top" xlink:title="Transmit the 24&#45;hr time. ">
<polygon fill="white" stroke="black" points="402,-456.5 402,-475.5 480,-475.5 480,-456.5 402,-456.5"/>
<text text-anchor="middle" x="441" y="-463.5" font-family="Helvetica,sans-Serif" font-size="10.00">txTimeHHMM</text>
</a>
</g>
</g>
<!-- Node6&#45;&gt;Node23 -->
<g id="edge30" class="edge"><title>Node6&#45;&gt;Node23</title>
<path fill="none" stroke="midnightblue" d="M322.862,-285.517C325.598,-313.571 336.819,-393.753 382,-438 389.779,-445.618 400.656,-450.181 410.893,-453.497"/>
<polygon fill="midnightblue" stroke="midnightblue" points="410.193,-456.941 420.777,-456.464 412.205,-450.237 410.193,-456.941"/>
</g>
<!-- Node24 -->
<g id="node24" class="node"><title>Node24</title>
<g id="a_node24"><a xlink:href="actions_8cpp.html#ad02149679fa3cc6a4957d1a318408ffd" target="_top" xlink:title="Transmit the uptime. ">
<polygon fill="white" stroke="black" points="413,-190.5 413,-209.5 469,-209.5 469,-190.5 413,-190.5"/>
<text text-anchor="middle" x="441" y="-197.5" font-family="Helvetica,sans-Serif" font-size="10.00">txUptime</text>
</a>
</g>
</g>
<!-- Node6&#45;&gt;Node24 -->
<g id="edge32" class="edge"><title>Node6&#45;&gt;Node24</title>
<path fill="none" stroke="midnightblue" d="M329.917,-266.146C340.53,-253.542 360.534,-231.814 382,-219 388.505,-215.117 395.901,-211.921 403.183,-209.331"/>
<polygon fill="midnightblue" stroke="midnightblue" points="404.512,-212.579 412.947,-206.167 402.355,-205.92 404.512,-212.579"/>
</g>
<!-- Node26 -->
<g id="node26" class="node"><title>Node26</title>
<g id="a_node26"><a xlink:href="teensy3__morse__bsp_8cpp.html#ae8dd28759e56dbd2ee9bc9ae96d1783c" target="_top" xlink:title="Return the most recent ADC measurement of the input voltage. Perform analog to digital conversion on ...">
<polygon fill="white" stroke="black" points="404,-418.5 404,-437.5 478,-437.5 478,-418.5 404,-418.5"/>
<text text-anchor="middle" x="441" y="-425.5" font-family="Helvetica,sans-Serif" font-size="10.00">readMillivolts</text>
</a>
</g>
</g>
<!-- Node6&#45;&gt;Node26 -->
<g id="edge35" class="edge"><title>Node6&#45;&gt;Node26</title>
<path fill="none" stroke="midnightblue" d="M324.017,-285.763C329.353,-309.266 345.97,-369.59 382,-404 386.088,-407.904 390.901,-411.212 395.977,-414.004"/>
<polygon fill="midnightblue" stroke="midnightblue" points="394.77,-417.307 405.299,-418.491 397.806,-411 394.77,-417.307"/>
</g>
<!-- Node30 -->
<g id="node30" class="node"><title>Node30</title>
<g id="a_node30"><a xlink:href="libmorse_8cpp.html#ac3f000c98271c6d0a7710135e18189bc" target="_top" xlink:title="On my hardware there is cross&#45;coupling between the serial port and the touch sensors. Without the code below, long messages to the serial port trigger a touch input. ">
<polygon fill="white" stroke="black" points="566.5,-380.5 566.5,-399.5 631.5,-399.5 631.5,-380.5 566.5,-380.5"/>
<text text-anchor="middle" x="599" y="-387.5" font-family="Helvetica,sans-Serif" font-size="10.00">flushTouch</text>
</a>
</g>
</g>
<!-- Node6&#45;&gt;Node30 -->
<g id="edge39" class="edge"><title>Node6&#45;&gt;Node30</title>
<path fill="none" stroke="midnightblue" d="M325.268,-285.652C332.28,-304.708 350.719,-346.962 382,-366 435.374,-398.484 510.081,-398.985 556.186,-395.287"/>
<polygon fill="midnightblue" stroke="midnightblue" points="556.773,-398.749 566.416,-394.36 556.141,-391.777 556.773,-398.749"/>
</g>
<!-- Node8 -->
<g id="node8" class="node"><title>Node8</title>
<g id="a_node8"><a xlink:href="teensy3__morse__bsp_8cpp.html#af6899cd9b83df54106b259ab81ea5cb2" target="_top" xlink:title="touchMargin">
<polygon fill="white" stroke="black" points="851,-342.5 851,-361.5 921,-361.5 921,-342.5 851,-342.5"/>
<text text-anchor="middle" x="886" y="-349.5" font-family="Helvetica,sans-Serif" font-size="10.00">touchMargin</text>
</a>
</g>
</g>
<!-- Node7&#45;&gt;Node8 -->
<g id="edge7" class="edge"><title>Node7&#45;&gt;Node8</title>
<path fill="none" stroke="midnightblue" d="M785.166,-352C801.281,-352 821.984,-352 840.355,-352"/>
<polygon fill="midnightblue" stroke="midnightblue" points="840.562,-355.5 850.562,-352 840.562,-348.5 840.562,-355.5"/>
</g>
<!-- Node10&#45;&gt;Node5 -->
<g id="edge19" class="edge"><title>Node10&#45;&gt;Node5</title>
<path fill="none" stroke="midnightblue" d="M869.942,-95.4548C856.101,-87.0181 834.79,-74.8641 815,-67 723.131,-30.4929 698.857,-10 600,-10 440,-10 440,-10 440,-10 364.048,-10 276.294,-28.4932 230.167,-39.6774"/>
<polygon fill="midnightblue" stroke="midnightblue" points="229.04,-36.3505 220.171,-42.1458 230.718,-43.1464 229.04,-36.3505"/>
</g>
<!-- Node10&#45;&gt;Node9 -->
<g id="edge18" class="edge"><title>Node10&#45;&gt;Node9</title>
<path fill="none" stroke="midnightblue" d="M895.076,-114.76C914.613,-138.371 964.66,-198.852 989.727,-229.147"/>
<polygon fill="midnightblue" stroke="midnightblue" points="987.296,-231.698 996.367,-237.171 992.689,-227.236 987.296,-231.698"/>
</g>
<!-- Node11 -->
<g id="node11" class="node"><title>Node11</title>
<g id="a_node11"><a xlink:href="class_morse_token.html#a48cd72aeb868391449d1f51c1d0bf5cc" target="_top" xlink:title="Treat code == 0 as the error token. ">
<polygon fill="white" stroke="black" points="957,-95.5 957,-114.5 1054,-114.5 1054,-95.5 957,-95.5"/>
<text text-anchor="middle" x="1005.5" y="-102.5" font-family="Helvetica,sans-Serif" font-size="10.00">MorseToken::valid</text>
</a>
</g>
</g>
<!-- Node10&#45;&gt;Node11 -->
<g id="edge10" class="edge"><title>Node10&#45;&gt;Node11</title>
<path fill="none" stroke="midnightblue" d="M911.632,-105C921.831,-105 934.13,-105 946.391,-105"/>
<polygon fill="midnightblue" stroke="midnightblue" points="946.635,-108.5 956.635,-105 946.635,-101.5 946.635,-108.5"/>
</g>
<!-- Node12 -->
<g id="node12" class="node"><title>Node12</title>
<g id="a_node12"><a xlink:href="teensy3__morse__bsp_8cpp.html#af66e71e3fac9b6a2c6532bc8a513bfde" target="_top" xlink:title="Output a square wave on pin 10 at the given frequency for the given duration. ">
<polygon fill="white" stroke="black" points="986.5,-57.5 986.5,-76.5 1024.5,-76.5 1024.5,-57.5 986.5,-57.5"/>
<text text-anchor="middle" x="1005.5" y="-64.5" font-family="Helvetica,sans-Serif" font-size="10.00">beep</text>
</a>
</g>
</g>
<!-- Node10&#45;&gt;Node12 -->
<g id="edge11" class="edge"><title>Node10&#45;&gt;Node12</title>
<path fill="none" stroke="midnightblue" d="M911.632,-97.034C930.657,-90.8811 956.988,-82.3656 976.755,-75.9729"/>
<polygon fill="midnightblue" stroke="midnightblue" points="977.982,-79.2545 986.42,-72.8471 975.828,-72.5941 977.982,-79.2545"/>
</g>
<!-- Node18 -->
<g id="node18" class="node"><title>Node18</title>
<g id="a_node18"><a xlink:href="settings_8cpp.html#a8575b9b52638114a4f32d1462cf9b7c1" target="_top" xlink:title="Get the transmission frequency (side tone). ">
<polygon fill="white" stroke="black" points="978.5,-133.5 978.5,-152.5 1032.5,-152.5 1032.5,-133.5 978.5,-133.5"/>
<text text-anchor="middle" x="1005.5" y="-140.5" font-family="Helvetica,sans-Serif" font-size="10.00">getTxHz</text>
</a>
</g>
</g>
<!-- Node10&#45;&gt;Node18 -->
<g id="edge17" class="edge"><title>Node10&#45;&gt;Node18</title>
<path fill="none" stroke="midnightblue" d="M911.632,-112.966C928.174,-118.316 950.239,-125.452 968.711,-131.426"/>
<polygon fill="midnightblue" stroke="midnightblue" points="967.677,-134.77 978.269,-134.517 969.831,-128.109 967.677,-134.77"/>
</g>
<!-- Node13 -->
<g id="node13" class="node"><title>Node13</title>
<g id="a_node13"><a xlink:href="teensy3__morse__bsp_8cpp.html#a6f674d5b9985ea3a7eeb0df299c2e405" target="_top" xlink:title="pollEarphonePresent">
<polygon fill="white" stroke="black" points="1090,-114.5 1090,-133.5 1197,-133.5 1197,-114.5 1090,-114.5"/>
<text text-anchor="middle" x="1143.5" y="-121.5" font-family="Helvetica,sans-Serif" font-size="10.00">pollEarphonePresent</text>
</a>
</g>
</g>
<!-- Node12&#45;&gt;Node13 -->
<g id="edge12" class="edge"><title>Node12&#45;&gt;Node13</title>
<path fill="none" stroke="midnightblue" d="M1024.73,-73.7768C1033.65,-77.2214 1044.49,-81.6018 1054,-86 1070.42,-93.5922 1073.45,-97.6819 1090,-105 1094.53,-107.002 1099.34,-108.961 1104.14,-110.815"/>
<polygon fill="midnightblue" stroke="midnightblue" points="1103.29,-114.234 1113.88,-114.453 1105.74,-107.676 1103.29,-114.234"/>
</g>
<!-- Node14 -->
<g id="node14" class="node"><title>Node14</title>
<g id="a_node14"><a xlink:href="teensy3__morse__bsp_8cpp.html#a2d6b4ace33ed5e497dedd03217540c63" target="_top" xlink:title="Set the PWM frequency for the audio output pins. ">
<polygon fill="white" stroke="black" points="1102,-76.5 1102,-95.5 1185,-95.5 1185,-76.5 1102,-76.5"/>
<text text-anchor="middle" x="1143.5" y="-83.5" font-family="Helvetica,sans-Serif" font-size="10.00">pwmFrequency</text>
</a>
</g>
</g>
<!-- Node12&#45;&gt;Node14 -->
<g id="edge13" class="edge"><title>Node12&#45;&gt;Node14</title>
<path fill="none" stroke="midnightblue" d="M1024.56,-69.5231C1041.62,-71.906 1068.02,-75.5943 1091.52,-78.8776"/>
<polygon fill="midnightblue" stroke="midnightblue" points="1091.33,-82.3857 1101.72,-80.3031 1092.3,-75.4531 1091.33,-82.3857"/>
</g>
<!-- Node15 -->
<g id="node15" class="node"><title>Node15</title>
<g id="a_node15"><a xlink:href="teensy3__morse__bsp_8cpp.html#a82911eac3bf13d6f36d10102a4c4d3c4" target="_top" xlink:title="Generate a tone on the audio output pins. ">
<polygon fill="white" stroke="black" points="1113,-38.5 1113,-57.5 1174,-57.5 1174,-38.5 1113,-38.5"/>
<text text-anchor="middle" x="1143.5" y="-45.5" font-family="Helvetica,sans-Serif" font-size="10.00">pwmWrite</text>
</a>
</g>
</g>
<!-- Node12&#45;&gt;Node15 -->
<g id="edge14" class="edge"><title>Node12&#45;&gt;Node15</title>
<path fill="none" stroke="midnightblue" d="M1024.56,-64.4769C1044.46,-61.6965 1077.08,-57.1391 1102.98,-53.5213"/>
<polygon fill="midnightblue" stroke="midnightblue" points="1103.47,-56.9867 1112.89,-52.1366 1102.5,-50.054 1103.47,-56.9867"/>
</g>
<!-- Node17 -->
<g id="node17" class="node"><title>Node17</title>
<g id="a_node17"><a xlink:href="teensy3__morse__bsp_8cpp.html#a6c982a7d7805f1dd5426eb98c915cfdd" target="_top" xlink:title="Turn the red LED on (1) or off (0). ">
<polygon fill="white" stroke="black" points="1118.5,-0.5 1118.5,-19.5 1168.5,-19.5 1168.5,-0.5 1118.5,-0.5"/>
<text text-anchor="middle" x="1143.5" y="-7.5" font-family="Helvetica,sans-Serif" font-size="10.00">redLED</text>
</a>
</g>
</g>
<!-- Node12&#45;&gt;Node17 -->
<g id="edge16" class="edge"><title>Node12&#45;&gt;Node17</title>
<path fill="none" stroke="midnightblue" d="M1024.56,-58.2751C1041.35,-50.2852 1067.14,-38.3208 1090,-29 1096.01,-26.5503 1102.46,-24.0826 1108.72,-21.7739"/>
<polygon fill="midnightblue" stroke="midnightblue" points="1110.09,-25.0001 1118.3,-18.3021 1107.71,-18.419 1110.09,-25.0001"/>
</g>
<!-- Node16 -->
<g id="node16" class="node"><title>Node16</title>
<g id="a_node16"><a xlink:href="teensy3__morse__bsp_8cpp.html#ac70998cee1bf97f00aec4a1b4e5a4f60" target="_top" xlink:title="isEarphonePresent">
<polygon fill="white" stroke="black" points="1233,-38.5 1233,-57.5 1332,-57.5 1332,-38.5 1233,-38.5"/>
<text text-anchor="middle" x="1282.5" y="-45.5" font-family="Helvetica,sans-Serif" font-size="10.00">isEarphonePresent</text>
</a>
</g>
</g>
<!-- Node15&#45;&gt;Node16 -->
<g id="edge15" class="edge"><title>Node15&#45;&gt;Node16</title>
<path fill="none" stroke="midnightblue" d="M1174.23,-48C1188.43,-48 1205.96,-48 1222.7,-48"/>
<polygon fill="midnightblue" stroke="midnightblue" points="1222.98,-51.5001 1232.98,-48 1222.98,-44.5001 1222.98,-51.5001"/>
</g>
<!-- Node19&#45;&gt;Node5 -->
<g id="edge22" class="edge"><title>Node19&#45;&gt;Node5</title>
<path fill="none" stroke="midnightblue" d="M731.313,-83.1025C712.453,-80.9184 685.589,-77.9721 662,-76 500.265,-62.4784 306.289,-52.9215 230.541,-49.4449"/>
<polygon fill="midnightblue" stroke="midnightblue" points="230.39,-45.9345 220.241,-48.9763 230.072,-52.9272 230.39,-45.9345"/>
</g>
<!-- Node19&#45;&gt;Node10 -->
<g id="edge21" class="edge"><title>Node19&#45;&gt;Node10</title>
<path fill="none" stroke="midnightblue" d="M781.782,-89.6185C801.154,-92.5054 828.544,-96.5869 850.24,-99.8201"/>
<polygon fill="midnightblue" stroke="midnightblue" points="849.968,-103.318 860.374,-101.33 850.999,-96.3945 849.968,-103.318"/>
</g>
<!-- Node21&#45;&gt;Node7 -->
<g id="edge25" class="edge"><title>Node21&#45;&gt;Node7</title>
<path fill="none" stroke="midnightblue" d="M632.045,-186.152C642.369,-188.973 653.362,-193.319 662,-200 707.797,-235.422 736.556,-300.126 748.747,-332.486"/>
<polygon fill="midnightblue" stroke="midnightblue" points="745.546,-333.925 752.248,-342.131 752.126,-331.537 745.546,-333.925"/>
</g>
<!-- Node21&#45;&gt;Node19 -->
<g id="edge26" class="edge"><title>Node21&#45;&gt;Node19</title>
<path fill="none" stroke="midnightblue" d="M615.766,-171.368C642.892,-154.796 698.583,-120.772 730.866,-101.049"/>
<polygon fill="midnightblue" stroke="midnightblue" points="732.984,-103.858 739.692,-95.6574 729.334,-97.8841 732.984,-103.858"/>
</g>
<!-- Node22&#45;&gt;Node20 -->
<g id="edge28" class="edge"><title>Node22&#45;&gt;Node20</title>
<path fill="none" stroke="midnightblue" d="M500.089,-245.075C508.711,-246.125 517.682,-247.218 526.54,-248.296"/>
<polygon fill="midnightblue" stroke="midnightblue" points="526.117,-251.771 536.467,-249.506 526.964,-244.822 526.117,-251.771"/>
</g>
<!-- Node22&#45;&gt;Node21 -->
<g id="edge29" class="edge"><title>Node22&#45;&gt;Node21</title>
<path fill="none" stroke="midnightblue" d="M474.57,-228.401C482.96,-225.638 491.903,-222.434 500,-219 516.656,-211.937 519.277,-206.903 536,-200 542.362,-197.374 549.222,-194.918 555.979,-192.701"/>
<polygon fill="midnightblue" stroke="midnightblue" points="557.246,-195.972 565.735,-189.633 555.145,-189.295 557.246,-195.972"/>
</g>
<!-- Node23&#45;&gt;Node6 -->
<g id="edge31" class="edge"><title>Node23&#45;&gt;Node6</title>
<path fill="none" stroke="midnightblue" d="M401.931,-467.842C394.617,-465.283 387.526,-461.412 382,-456 337.184,-412.111 325.782,-332.865 322.93,-295.704"/>
<polygon fill="midnightblue" stroke="midnightblue" points="326.416,-295.368 322.292,-285.609 319.43,-295.809 326.416,-295.368"/>
</g>
<!-- Node24&#45;&gt;Node21 -->
<g id="edge34" class="edge"><title>Node24&#45;&gt;Node21</title>
<path fill="none" stroke="midnightblue" d="M469.173,-196.69C493.014,-193.787 528.076,-189.516 555.605,-186.163"/>
<polygon fill="midnightblue" stroke="midnightblue" points="556.244,-189.612 565.748,-184.928 555.398,-182.663 556.244,-189.612"/>
</g>
<!-- Node25 -->
<g id="node25" class="node"><title>Node25</title>
<g id="a_node25"><a xlink:href="settings_8cpp.html#a7b4efa097b94f9a90c5bbafcdf93fe4f" target="_top" xlink:title="getUptime">
<polygon fill="white" stroke="black" points="568,-209.5 568,-228.5 630,-228.5 630,-209.5 568,-209.5"/>
<text text-anchor="middle" x="599" y="-216.5" font-family="Helvetica,sans-Serif" font-size="10.00">getUptime</text>
</a>
</g>
</g>
<!-- Node24&#45;&gt;Node25 -->
<g id="edge33" class="edge"><title>Node24&#45;&gt;Node25</title>
<path fill="none" stroke="midnightblue" d="M469.173,-203.31C493.633,-206.289 529.905,-210.706 557.735,-214.096"/>
<polygon fill="midnightblue" stroke="midnightblue" points="557.595,-217.605 567.945,-215.339 558.441,-210.656 557.595,-217.605"/>
</g>
<!-- Node27 -->
<g id="node27" class="node"><title>Node27</title>
<g id="a_node27"><a xlink:href="class_voltage_monitor.html#a70902b84f9864c95d5553a0644a64f4f" target="_top" xlink:title="Return the latest voltage reading. ">
<polygon fill="white" stroke="black" points="536,-418.5 536,-437.5 662,-437.5 662,-418.5 536,-418.5"/>
<text text-anchor="middle" x="599" y="-425.5" font-family="Helvetica,sans-Serif" font-size="10.00">VoltageMonitor::getValue</text>
</a>
</g>
</g>
<!-- Node26&#45;&gt;Node27 -->
<g id="edge36" class="edge"><title>Node26&#45;&gt;Node27</title>
<path fill="none" stroke="midnightblue" d="M478.182,-428C492.344,-428 509.117,-428 525.56,-428"/>
<polygon fill="midnightblue" stroke="midnightblue" points="525.728,-431.5 535.728,-428 525.728,-424.5 525.728,-431.5"/>
</g>
<!-- Node28 -->
<g id="node28" class="node"><title>Node28</title>
<g id="a_node28"><a xlink:href="actions_8cpp.html#a2b8c3769e2aa32a2da9e2f3f85ac73dd" target="_top" xlink:title="A sample ADC reading is taken each time through the main loop, and written to a ring buffer...">
<polygon fill="white" stroke="black" points="700.5,-399.5 700.5,-418.5 812.5,-418.5 812.5,-399.5 700.5,-399.5"/>
<text text-anchor="middle" x="756.5" y="-406.5" font-family="Helvetica,sans-Serif" font-size="10.00">getVoltagePollInterval</text>
</a>
</g>
</g>
<!-- Node27&#45;&gt;Node28 -->
<g id="edge37" class="edge"><title>Node27&#45;&gt;Node28</title>
<path fill="none" stroke="midnightblue" d="M662.352,-420.381C671.438,-419.271 680.816,-418.125 689.963,-417.008"/>
<polygon fill="midnightblue" stroke="midnightblue" points="690.662,-420.448 700.163,-415.761 689.813,-413.5 690.662,-420.448"/>
</g>
<!-- Node29 -->
<g id="node29" class="node"><title>Node29</title>
<g id="a_node29"><a xlink:href="class_voltage_monitor.html#a75871331808c34b40d04059ee2af0f27" target="_top" xlink:title="Filter and scale raw ADC values to millivolts. ">
<polygon fill="white" stroke="black" points="698,-437.5 698,-456.5 815,-456.5 815,-437.5 698,-437.5"/>
<text text-anchor="middle" x="756.5" y="-444.5" font-family="Helvetica,sans-Serif" font-size="10.00">VoltageMonitor::update</text>
</a>
</g>
</g>
<!-- Node27&#45;&gt;Node29 -->
<g id="edge38" class="edge"><title>Node27&#45;&gt;Node29</title>
<path fill="none" stroke="midnightblue" d="M662.352,-435.619C670.702,-436.639 679.298,-437.689 687.735,-438.72"/>
<polygon fill="midnightblue" stroke="midnightblue" points="687.57,-442.226 697.92,-439.965 688.419,-435.277 687.57,-442.226"/>
</g>
<!-- Node30&#45;&gt;Node7 -->
<g id="edge40" class="edge"><title>Node30&#45;&gt;Node7</title>
<path fill="none" stroke="midnightblue" d="M631.843,-382.218C656.788,-376.123 691.554,-367.627 717.872,-361.195"/>
<polygon fill="midnightblue" stroke="midnightblue" points="718.98,-364.528 727.864,-358.754 717.318,-357.728 718.98,-364.528"/>
</g>
</g>
</svg>
