<?xml version="1.0" encoding="UTF-8" standalone="no"?>
<!DOCTYPE svg PUBLIC "-//W3C//DTD SVG 1.1//EN"
 "http://www.w3.org/Graphics/SVG/1.1/DTD/svg11.dtd">
<!-- Generated by graphviz version 2.38.0 (20140413.2041)
 -->
<!-- Title: readMessageFormat Pages: 1 -->
<svg width="397pt" height="142pt"
 viewBox="0.00 0.00 397.00 142.00" xmlns="http://www.w3.org/2000/svg" xmlns:xlink="http://www.w3.org/1999/xlink">
<g id="graph0" class="graph" transform="scale(1 1) rotate(0) translate(4 138)">
<title>readMessageFormat</title>
<polygon fill="white" stroke="none" points="-4,4 -4,-138 393,-138 393,4 -4,4"/>
<!-- Node1 -->
<g id="node1" class="node"><title>Node1</title>
<polygon fill="#bfbfbf" stroke="black" points="0,-57.5 0,-76.5 106,-76.5 106,-57.5 0,-57.5"/>
<text text-anchor="middle" x="53" y="-64.5" font-family="Helvetica,sans-Serif" font-size="10.00">readMessageFormat</text>
</g>
<!-- Node2 -->
<g id="node2" class="node"><title>Node2</title>
<g id="a_node2"><a xlink:href="actions_8cpp.html#a61292cbf2195723405664063ddd74f20" target="_top" xlink:title="Read a string from the serial terminal up to a return or the end of the buffer. Return false if timeo...">
<polygon fill="white" stroke="black" points="194.5,-114.5 194.5,-133.5 247.5,-133.5 247.5,-114.5 194.5,-114.5"/>
<text text-anchor="middle" x="221" y="-121.5" font-family="Helvetica,sans-Serif" font-size="10.00">readLine</text>
</a>
</g>
</g>
<!-- Node1&#45;&gt;Node2 -->
<g id="edge1" class="edge"><title>Node1&#45;&gt;Node2</title>
<path fill="none" stroke="midnightblue" d="M73.5488,-76.5762C91.14,-84.9179 117.858,-96.9114 142,-105 155.691,-109.587 171.074,-113.573 184.538,-116.693"/>
<polygon fill="midnightblue" stroke="midnightblue" points="183.876,-120.131 194.4,-118.906 185.409,-113.301 183.876,-120.131"/>
</g>
<!-- Node4 -->
<g id="node4" class="node"><title>Node4</title>
<g id="a_node4"><a xlink:href="actions_8cpp.html#a59fabf5710b8a28d43d988e855aa8eec" target="_top" xlink:title="Perform in&#45;place conversion of the given buffer to upper case. ">
<polygon fill="white" stroke="black" points="184.5,-76.5 184.5,-95.5 257.5,-95.5 257.5,-76.5 184.5,-76.5"/>
<text text-anchor="middle" x="221" y="-83.5" font-family="Helvetica,sans-Serif" font-size="10.00">mapToUpper</text>
</a>
</g>
</g>
<!-- Node1&#45;&gt;Node4 -->
<g id="edge3" class="edge"><title>Node1&#45;&gt;Node4</title>
<path fill="none" stroke="midnightblue" d="M106.068,-72.9596C127.967,-75.4661 153.218,-78.3563 174.374,-80.7778"/>
<polygon fill="midnightblue" stroke="midnightblue" points="174.065,-84.2652 184.398,-81.9251 174.861,-77.3106 174.065,-84.2652"/>
</g>
<!-- Node5 -->
<g id="node5" class="node"><title>Node5</title>
<g id="a_node5"><a xlink:href="actions_8cpp.html#af32495a4b35631dfa2faacf5c46e78a4" target="_top" xlink:title="Check for unsupported punctuation and some invalid escape sequences. ">
<polygon fill="white" stroke="black" points="169,-38.5 169,-57.5 273,-57.5 273,-38.5 169,-38.5"/>
<text text-anchor="middle" x="221" y="-45.5" font-family="Helvetica,sans-Serif" font-size="10.00">isValidMorseFormat</text>
</a>
</g>
</g>
<!-- Node1&#45;&gt;Node5 -->
<g id="edge4" class="edge"><title>Node1&#45;&gt;Node5</title>
<path fill="none" stroke="midnightblue" d="M106.068,-61.0404C122.839,-59.1208 141.576,-56.9762 158.934,-54.9894"/>
<polygon fill="midnightblue" stroke="midnightblue" points="159.433,-58.4553 168.97,-53.8408 158.637,-51.5007 159.433,-58.4553"/>
</g>
<!-- Node6 -->
<g id="node6" class="node"><title>Node6</title>
<g id="a_node6"><a xlink:href="settings_8cpp.html#a4d7d051b0e06002f98b24455142d1f2e" target="_top" xlink:title="getAnnouncementFormatDefault">
<polygon fill="white" stroke="black" points="142,-0.5 142,-19.5 300,-19.5 300,-0.5 142,-0.5"/>
<text text-anchor="middle" x="221" y="-7.5" font-family="Helvetica,sans-Serif" font-size="10.00">getAnnouncementFormatDefault</text>
</a>
</g>
</g>
<!-- Node1&#45;&gt;Node6 -->
<g id="edge5" class="edge"><title>Node1&#45;&gt;Node6</title>
<path fill="none" stroke="midnightblue" d="M73.5488,-57.4238C91.14,-49.0821 117.858,-37.0886 142,-29 149.434,-26.5094 157.367,-24.196 165.22,-22.1021"/>
<polygon fill="midnightblue" stroke="midnightblue" points="166.267,-25.4471 175.082,-19.5705 164.526,-18.6669 166.267,-25.4471"/>
</g>
<!-- Node3 -->
<g id="node3" class="node"><title>Node3</title>
<g id="a_node3"><a xlink:href="actions_8cpp.html#a5082fe1b057ad10a1a5baef95b0c87b8" target="_top" xlink:title="Read a line from the serial port with support for rubbing out preceding characters. ">
<polygon fill="white" stroke="black" points="336,-114.5 336,-133.5 389,-133.5 389,-114.5 336,-114.5"/>
<text text-anchor="middle" x="362.5" y="-121.5" font-family="Helvetica,sans-Serif" font-size="10.00">readEdit</text>
</a>
</g>
</g>
<!-- Node2&#45;&gt;Node3 -->
<g id="edge2" class="edge"><title>Node2&#45;&gt;Node3</title>
<path fill="none" stroke="midnightblue" d="M247.586,-124C269.375,-124 300.931,-124 325.308,-124"/>
<polygon fill="midnightblue" stroke="midnightblue" points="325.603,-127.5 335.603,-124 325.603,-120.5 325.603,-127.5"/>
</g>
</g>
</svg>
