<?xml version="1.0" encoding="UTF-8" standalone="no"?>
<!DOCTYPE svg PUBLIC "-//W3C//DTD SVG 1.1//EN"
 "http://www.w3.org/Graphics/SVG/1.1/DTD/svg11.dtd">
<!-- Generated by graphviz version 2.38.0 (20140413.2041)
 -->
<!-- Title: codeHash Pages: 1 -->
<svg width="285pt" height="104pt"
 viewBox="0.00 0.00 285.00 104.00" xmlns="http://www.w3.org/2000/svg" xmlns:xlink="http://www.w3.org/1999/xlink">
<g id="graph0" class="graph" transform="scale(1 1) rotate(0) translate(4 100)">
<title>codeHash</title>
<polygon fill="white" stroke="none" points="-4,4 -4,-100 281,-100 281,4 -4,4"/>
<!-- Node1 -->
<g id="node1" class="node"><title>Node1</title>
<polygon fill="#bfbfbf" stroke="black" points="0,-19.5 0,-38.5 61,-38.5 61,-19.5 0,-19.5"/>
<text text-anchor="middle" x="30.5" y="-26.5" font-family="Helvetica,sans-Serif" font-size="10.00">codeHash</text>
</g>
<!-- Node2 -->
<g id="node2" class="node"><title>Node2</title>
<g id="a_node2"><a xlink:href="actions_8h.html#a76e8c23475fa40e7d5504df1379711d8" target="_top" xlink:title="Hash a Morse code symbol to a table location and store action there. ">
<polygon fill="white" stroke="black" points="97,-38.5 97,-57.5 170,-57.5 170,-38.5 97,-38.5"/>
<text text-anchor="middle" x="133.5" y="-45.5" font-family="Helvetica,sans-Serif" font-size="10.00">assignAction</text>
</a>
</g>
</g>
<!-- Node1&#45;&gt;Node2 -->
<g id="edge1" class="edge"><title>Node1&#45;&gt;Node2</title>
<path fill="none" stroke="midnightblue" d="M71.2887,-36.485C79.7389,-38.0746 88.6085,-39.7432 96.8912,-41.3013"/>
<polygon fill="midnightblue" stroke="midnightblue" points="71.7318,-33.007 61.2571,-34.5979 70.4376,-39.8864 71.7318,-33.007"/>
</g>
<!-- Node6 -->
<g id="node6" class="node"><title>Node6</title>
<g id="a_node6"><a xlink:href="actions_8h.html#a9a7251c47cd69137c16e9e7e5cf6179e" target="_top" xlink:title="Invoke an action from the actions table. ">
<polygon fill="white" stroke="black" points="106,-0.5 106,-19.5 161,-19.5 161,-0.5 106,-0.5"/>
<text text-anchor="middle" x="133.5" y="-7.5" font-family="Helvetica,sans-Serif" font-size="10.00">doAction</text>
</a>
</g>
</g>
<!-- Node1&#45;&gt;Node6 -->
<g id="edge5" class="edge"><title>Node1&#45;&gt;Node6</title>
<path fill="none" stroke="midnightblue" d="M71.164,-21.5385C82.7454,-19.3598 95.1247,-17.031 105.707,-15.0402"/>
<polygon fill="midnightblue" stroke="midnightblue" points="70.4376,-18.1136 61.2571,-23.4021 71.7318,-24.993 70.4376,-18.1136"/>
</g>
<!-- Node3 -->
<g id="node3" class="node"><title>Node3</title>
<g id="a_node3"><a xlink:href="pda_8h.html#a5218392624b017b817b80d6b16ea920d" target="_top" xlink:title="askNextAlfa">
<polygon fill="white" stroke="black" points="206,-76.5 206,-95.5 277,-95.5 277,-76.5 206,-76.5"/>
<text text-anchor="middle" x="241.5" y="-83.5" font-family="Helvetica,sans-Serif" font-size="10.00">askNextAlfa</text>
</a>
</g>
</g>
<!-- Node2&#45;&gt;Node3 -->
<g id="edge2" class="edge"><title>Node2&#45;&gt;Node3</title>
<path fill="none" stroke="midnightblue" d="M170.684,-60.9718C184.807,-66.0344 200.706,-71.7341 213.76,-76.4141"/>
<polygon fill="midnightblue" stroke="midnightblue" points="171.843,-57.669 161.248,-57.589 169.481,-64.2584 171.843,-57.669"/>
</g>
<!-- Node4 -->
<g id="node4" class="node"><title>Node4</title>
<g id="a_node4"><a xlink:href="pda_8h.html#abf2e0c8c523ed9ddee8a9194c9800b99" target="_top" xlink:title="askSum">
<polygon fill="white" stroke="black" points="215,-38.5 215,-57.5 268,-57.5 268,-38.5 215,-38.5"/>
<text text-anchor="middle" x="241.5" y="-45.5" font-family="Helvetica,sans-Serif" font-size="10.00">askSum</text>
</a>
</g>
</g>
<!-- Node2&#45;&gt;Node4 -->
<g id="edge3" class="edge"><title>Node2&#45;&gt;Node4</title>
<path fill="none" stroke="midnightblue" d="M180.313,-48C192.158,-48 204.49,-48 214.885,-48"/>
<polygon fill="midnightblue" stroke="midnightblue" points="180.091,-44.5001 170.091,-48 180.091,-51.5001 180.091,-44.5001"/>
</g>
<!-- Node5 -->
<g id="node5" class="node"><title>Node5</title>
<g id="a_node5"><a xlink:href="pda_8h.html#a1dc125d402fe76077cb4d166ac0fbf7a" target="_top" xlink:title="askNext">
<polygon fill="white" stroke="black" points="215,-0.5 215,-19.5 268,-19.5 268,-0.5 215,-0.5"/>
<text text-anchor="middle" x="241.5" y="-7.5" font-family="Helvetica,sans-Serif" font-size="10.00">askNext</text>
</a>
</g>
</g>
<!-- Node2&#45;&gt;Node5 -->
<g id="edge4" class="edge"><title>Node2&#45;&gt;Node5</title>
<path fill="none" stroke="midnightblue" d="M170.908,-34.9479C185.373,-29.7625 201.671,-23.9197 214.857,-19.1927"/>
<polygon fill="midnightblue" stroke="midnightblue" points="169.481,-31.7416 161.248,-38.411 171.843,-38.331 169.481,-31.7416"/>
</g>
</g>
</svg>
