<?xml version="1.0" encoding="UTF-8" standalone="no"?>
<!DOCTYPE svg PUBLIC "-//W3C//DTD SVG 1.1//EN"
 "http://www.w3.org/Graphics/SVG/1.1/DTD/svg11.dtd">
<!-- Generated by graphviz version 2.38.0 (20140413.2041)
 -->
<!-- Title: txMacAddress Pages: 1 -->
<!--zoomable 468 -->
<svg id="main" version="1.1" xmlns="http://www.w3.org/2000/svg" xmlns:xlink="http://www.w3.org/1999/xlink" xml:space="preserve" onload="init(evt)">
<style type="text/css"><![CDATA[
.edge:hover path { stroke: red; }
.edge:hover polygon { stroke: red; fill: red; }
]]></style>
<script type="text/javascript"><![CDATA[
var edges = document.getElementsByTagName('g');
if (edges && edges.length) {
  for (var i=0;i<edges.length;i++) {
    if (edges[i].id.substr(0,4)=='edge') {
      edges[i].setAttribute('class','edge');
    }
  }
}
]]></script>
        <defs>
                <circle id="rim" cx="0" cy="0" r="7"/>
                <circle id="rim2" cx="0" cy="0" r="3.5"/>
                <g id="zoomPlus">
                        <use xlink:href="#rim" fill="#404040">
                                <set attributeName="fill" to="#808080" begin="zoomplus.mouseover" end="zoomplus.mouseout"/>
                        </use>
                        <path d="M-4,0h8M0,-4v8" fill="none" stroke="white" stroke-width="1.5" pointer-events="none"/>
                </g>
                <g id="zoomMin">
                        <use xlink:href="#rim" fill="#404040">
                                <set attributeName="fill" to="#808080" begin="zoomminus.mouseover" end="zoomminus.mouseout"/>
                        </use>
                        <path d="M-4,0h8" fill="none" stroke="white" stroke-width="1.5" pointer-events="none"/>
                </g>
                <g id="dirArrow">
                        <path fill="none" stroke="white" stroke-width="1.5" d="M0,-3.0v7 M-2.5,-0.5L0,-3.0L2.5,-0.5"/>
                </g>
               <g id="resetDef">
                       <use xlink:href="#rim2" fill="#404040">
                               <set attributeName="fill" to="#808080" begin="reset.mouseover" end="reset.mouseout"/>
                       </use>
               </g>
        </defs>

<script type="text/javascript">
var viewWidth = 1121;
var viewHeight = 468;
var sectionId = 'dynsection-54';
</script>
<script xlink:href="svgpan.js"/>
<svg id="graph" class="graph">
<g id="viewport">
<title>txMacAddress</title>
<polygon fill="white" stroke="none" points="-4,4 -4,-463.975 1117,-463.975 1117,4 -4,4"/>
<!-- Node1 -->
<g id="node1" class="node"><title>Node1</title>
<polygon fill="#bfbfbf" stroke="black" points="0,-269.475 0,-288.475 80,-288.475 80,-269.475 0,-269.475"/>
<text text-anchor="middle" x="40" y="-276.475" font-family="Helvetica,sans-Serif" font-size="10.00">txMacAddress</text>
</g>
<!-- Node2 -->
<g id="node2" class="node"><title>Node2</title>
<g id="a_node2"><a xlink:href="mac_8cpp.html#ac47935178a29a7eccc6131fc3553ad6b" target="_top" xlink:title="Read the MAC address into an internal buffer. ">
<polygon fill="white" stroke="black" points="116,-316.475 116,-335.475 175,-335.475 175,-316.475 116,-316.475"/>
<text text-anchor="middle" x="145.5" y="-323.475" font-family="Helvetica,sans-Serif" font-size="10.00">read_mac</text>
</a>
</g>
</g>
<!-- Node1&#45;&gt;Node2 -->
<g id="edge1" class="edge"><title>Node1&#45;&gt;Node2</title>
<path fill="none" stroke="midnightblue" d="M61.9448,-288.487C76.8568,-295.258 97.1342,-304.466 113.861,-312.062"/>
<polygon fill="midnightblue" stroke="midnightblue" points="112.679,-315.369 123.231,-316.317 115.573,-308.995 112.679,-315.369"/>
</g>
<!-- Node4 -->
<g id="node4" class="node"><title>Node4</title>
<g id="a_node4"><a xlink:href="mac_8cpp.html#a8cd7ecc27317544a8e0f77d27ac2412f" target="_top" xlink:title="Print the MAC address to the serial port. ">
<polygon fill="white" stroke="black" points="116,-269.475 116,-288.475 175,-288.475 175,-269.475 116,-269.475"/>
<text text-anchor="middle" x="145.5" y="-276.475" font-family="Helvetica,sans-Serif" font-size="10.00">print_mac</text>
</a>
</g>
</g>
<!-- Node1&#45;&gt;Node4 -->
<g id="edge3" class="edge"><title>Node1&#45;&gt;Node4</title>
<path fill="none" stroke="midnightblue" d="M80.1289,-278.975C88.501,-278.975 97.3424,-278.975 105.702,-278.975"/>
<polygon fill="midnightblue" stroke="midnightblue" points="105.961,-282.475 115.961,-278.975 105.961,-275.475 105.961,-282.475"/>
</g>
<!-- Node5 -->
<g id="node5" class="node"><title>Node5</title>
<g id="a_node5"><a xlink:href="libmorse_8cpp.html#acd4b292f5e412ee4f05aed9dafbc072d" target="_top" xlink:title="Convert an ASCII character into Morse code and transmit it. ">
<polygon fill="white" stroke="black" points="120.5,-212.475 120.5,-231.475 170.5,-231.475 170.5,-212.475 120.5,-212.475"/>
<text text-anchor="middle" x="145.5" y="-219.475" font-family="Helvetica,sans-Serif" font-size="10.00">txLetter</text>
</a>
</g>
</g>
<!-- Node1&#45;&gt;Node5 -->
<g id="edge4" class="edge"><title>Node1&#45;&gt;Node5</title>
<path fill="none" stroke="midnightblue" d="M58.5574,-269.306C74.9376,-260.285 99.5906,-246.708 118.298,-236.406"/>
<polygon fill="midnightblue" stroke="midnightblue" points="120.131,-239.392 127.202,-231.502 116.754,-233.26 120.131,-239.392"/>
</g>
<!-- Node3 -->
<g id="node3" class="node"><title>Node3</title>
<g id="a_node3"><a xlink:href="mac_8cpp.html#a6747ac0ae5113bf78ccee156e49fe855" target="_top" xlink:title="See http://forum.pjrc.com/threads/91&#45;teensy&#45;3&#45;MAC&#45;address. ">
<polygon fill="white" stroke="black" points="219,-321.475 219,-340.475 254,-340.475 254,-321.475 219,-321.475"/>
<text text-anchor="middle" x="236.5" y="-328.475" font-family="Helvetica,sans-Serif" font-size="10.00">read</text>
</a>
</g>
</g>
<!-- Node2&#45;&gt;Node3 -->
<g id="edge2" class="edge"><title>Node2&#45;&gt;Node3</title>
<path fill="none" stroke="midnightblue" d="M175.15,-327.585C185.861,-328.187 197.981,-328.868 208.535,-329.46"/>
<polygon fill="midnightblue" stroke="midnightblue" points="208.661,-332.973 218.841,-330.039 209.053,-325.984 208.661,-332.973"/>
</g>
<!-- Node6 -->
<g id="node6" class="node"><title>Node6</title>
<g id="a_node6"><a xlink:href="libmorse_8cpp.html#a9fdfce728595d72b78dc7c834ab99a40" target="_top" xlink:title="Transmit a literal Morse code value. ">
<polygon fill="white" stroke="black" points="211,-283.475 211,-302.475 262,-302.475 262,-283.475 211,-283.475"/>
<text text-anchor="middle" x="236.5" y="-290.475" font-family="Helvetica,sans-Serif" font-size="10.00">txLiteral</text>
</a>
</g>
</g>
<!-- Node5&#45;&gt;Node6 -->
<g id="edge5" class="edge"><title>Node5&#45;&gt;Node6</title>
<path fill="none" stroke="midnightblue" d="M158.503,-231.551C173.1,-243.196 197.956,-263.025 215.471,-276.998"/>
<polygon fill="midnightblue" stroke="midnightblue" points="213.403,-279.825 223.403,-283.325 217.768,-274.353 213.403,-279.825"/>
</g>
<!-- Node16 -->
<g id="node16" class="node"><title>Node16</title>
<g id="a_node16"><a xlink:href="libmorse_8cpp.html#ab94e088615119d1faae7df22ce50aedf" target="_top" xlink:title="Transmit a Morse code prosign indicating an error. ">
<polygon fill="white" stroke="black" points="323.5,-212.475 323.5,-231.475 369.5,-231.475 369.5,-212.475 323.5,-212.475"/>
<text text-anchor="middle" x="346.5" y="-219.475" font-family="Helvetica,sans-Serif" font-size="10.00">txError</text>
</a>
</g>
</g>
<!-- Node5&#45;&gt;Node16 -->
<g id="edge40" class="edge"><title>Node5&#45;&gt;Node16</title>
<path fill="none" stroke="midnightblue" d="M170.504,-221.975C206.185,-221.975 273.286,-221.975 313.23,-221.975"/>
<polygon fill="midnightblue" stroke="midnightblue" points="313.245,-225.475 323.245,-221.975 313.245,-218.475 313.245,-225.475"/>
</g>
<!-- Node7 -->
<g id="node7" class="node"><title>Node7</title>
<g id="a_node7"><a xlink:href="class_morse_token.html#a48cd72aeb868391449d1f51c1d0bf5cc" target="_top" xlink:title="Treat code == 0 as the error token. ">
<polygon fill="white" stroke="black" points="298,-402.475 298,-421.475 395,-421.475 395,-402.475 298,-402.475"/>
<text text-anchor="middle" x="346.5" y="-409.475" font-family="Helvetica,sans-Serif" font-size="10.00">MorseToken::valid</text>
</a>
</g>
</g>
<!-- Node6&#45;&gt;Node7 -->
<g id="edge6" class="edge"><title>Node6&#45;&gt;Node7</title>
<path fill="none" stroke="midnightblue" d="M252.296,-302.561C255.785,-305.303 259.278,-308.501 262,-311.975 286.3,-342.984 269.623,-365.649 298,-392.975 299.611,-394.527 301.366,-395.957 303.219,-397.275"/>
<polygon fill="midnightblue" stroke="midnightblue" points="301.451,-400.296 311.843,-402.36 305.006,-394.266 301.451,-400.296"/>
</g>
<!-- Node8 -->
<g id="node8" class="node"><title>Node8</title>
<g id="a_node8"><a xlink:href="teensy3__morse__bsp_8cpp.html#af66e71e3fac9b6a2c6532bc8a513bfde" target="_top" xlink:title="Output a square wave on pin 10 at the given frequency for the given duration. ">
<polygon fill="white" stroke="black" points="327.5,-364.475 327.5,-383.475 365.5,-383.475 365.5,-364.475 327.5,-364.475"/>
<text text-anchor="middle" x="346.5" y="-371.475" font-family="Helvetica,sans-Serif" font-size="10.00">beep</text>
</a>
</g>
</g>
<!-- Node6&#45;&gt;Node8 -->
<g id="edge7" class="edge"><title>Node6&#45;&gt;Node8</title>
<path fill="none" stroke="midnightblue" d="M250.898,-302.538C254.628,-305.417 258.589,-308.689 262,-311.975 279.951,-329.267 277.818,-340.349 298,-354.975 303.895,-359.248 310.885,-362.732 317.664,-365.495"/>
<polygon fill="midnightblue" stroke="midnightblue" points="316.699,-368.869 327.293,-369.035 319.115,-362.299 316.699,-368.869"/>
</g>
<!-- Node14 -->
<g id="node14" class="node"><title>Node14</title>
<g id="a_node14"><a xlink:href="settings_8cpp.html#a8575b9b52638114a4f32d1462cf9b7c1" target="_top" xlink:title="Get the transmission frequency (side tone). ">
<polygon fill="white" stroke="black" points="319.5,-326.475 319.5,-345.475 373.5,-345.475 373.5,-326.475 319.5,-326.475"/>
<text text-anchor="middle" x="346.5" y="-333.475" font-family="Helvetica,sans-Serif" font-size="10.00">getTxHz</text>
</a>
</g>
</g>
<!-- Node6&#45;&gt;Node14 -->
<g id="edge13" class="edge"><title>Node6&#45;&gt;Node14</title>
<path fill="none" stroke="midnightblue" d="M261.469,-302.518C276.29,-308.42 295.537,-316.083 311.871,-322.586"/>
<polygon fill="midnightblue" stroke="midnightblue" points="311.013,-326.012 321.598,-326.459 313.602,-319.508 311.013,-326.012"/>
</g>
<!-- Node15 -->
<g id="node15" class="node"><title>Node15</title>
<g id="a_node15"><a xlink:href="settings_8cpp.html#a960551e90dfdad18f3c9b1338ccba7db" target="_top" xlink:title="Get the dit duration in microseconds. ">
<polygon fill="white" stroke="black" points="597,-345.475 597,-364.475 669,-364.475 669,-345.475 597,-345.475"/>
<text text-anchor="middle" x="633" y="-352.475" font-family="Helvetica,sans-Serif" font-size="10.00">getDitMicros</text>
</a>
</g>
</g>
<!-- Node6&#45;&gt;Node15 -->
<g id="edge14" class="edge"><title>Node6&#45;&gt;Node15</title>
<path fill="none" stroke="midnightblue" d="M262.038,-292.436C313.799,-291.839 437.658,-293.276 538,-316.975 560.944,-322.394 585.609,-332.544 603.914,-340.991"/>
<polygon fill="midnightblue" stroke="midnightblue" points="602.584,-344.234 613.121,-345.343 605.576,-337.905 602.584,-344.234"/>
</g>
<!-- Node6&#45;&gt;Node16 -->
<g id="edge15" class="edge"><title>Node6&#45;&gt;Node16</title>
<path fill="none" stroke="midnightblue" d="M248.616,-283.279C260.401,-273.257 279.792,-257.497 298,-245.975 303.431,-242.539 309.418,-239.198 315.257,-236.154"/>
<polygon fill="midnightblue" stroke="midnightblue" points="316.854,-239.269 324.211,-231.645 313.706,-233.017 316.854,-239.269"/>
</g>
<!-- Node9 -->
<g id="node9" class="node"><title>Node9</title>
<g id="a_node9"><a xlink:href="teensy3__morse__bsp_8cpp.html#a6f674d5b9985ea3a7eeb0df299c2e405" target="_top" xlink:title="pollEarphonePresent">
<polygon fill="white" stroke="black" points="431,-440.475 431,-459.475 538,-459.475 538,-440.475 431,-440.475"/>
<text text-anchor="middle" x="484.5" y="-447.475" font-family="Helvetica,sans-Serif" font-size="10.00">pollEarphonePresent</text>
</a>
</g>
</g>
<!-- Node8&#45;&gt;Node9 -->
<g id="edge8" class="edge"><title>Node8&#45;&gt;Node9</title>
<path fill="none" stroke="midnightblue" d="M365.55,-379.14C374.827,-382.288 386.035,-386.889 395,-392.975 414.247,-406.043 411.538,-418.229 431,-430.975 433.969,-432.92 437.162,-434.696 440.455,-436.314"/>
<polygon fill="midnightblue" stroke="midnightblue" points="439.331,-439.643 449.895,-440.456 442.144,-433.233 439.331,-439.643"/>
</g>
<!-- Node10 -->
<g id="node10" class="node"><title>Node10</title>
<g id="a_node10"><a xlink:href="teensy3__morse__bsp_8cpp.html#a2d6b4ace33ed5e497dedd03217540c63" target="_top" xlink:title="Set the PWM frequency for the audio output pins. ">
<polygon fill="white" stroke="black" points="443,-402.475 443,-421.475 526,-421.475 526,-402.475 443,-402.475"/>
<text text-anchor="middle" x="484.5" y="-409.475" font-family="Helvetica,sans-Serif" font-size="10.00">pwmFrequency</text>
</a>
</g>
</g>
<!-- Node8&#45;&gt;Node10 -->
<g id="edge9" class="edge"><title>Node8&#45;&gt;Node10</title>
<path fill="none" stroke="midnightblue" d="M365.56,-379.021C384.377,-384.279 414.566,-392.714 439.689,-399.734"/>
<polygon fill="midnightblue" stroke="midnightblue" points="438.815,-403.124 449.388,-402.444 440.699,-396.382 438.815,-403.124"/>
</g>
<!-- Node11 -->
<g id="node11" class="node"><title>Node11</title>
<g id="a_node11"><a xlink:href="teensy3__morse__bsp_8cpp.html#a82911eac3bf13d6f36d10102a4c4d3c4" target="_top" xlink:title="Generate a tone on the audio output pins. ">
<polygon fill="white" stroke="black" points="454,-364.475 454,-383.475 515,-383.475 515,-364.475 454,-364.475"/>
<text text-anchor="middle" x="484.5" y="-371.475" font-family="Helvetica,sans-Serif" font-size="10.00">pwmWrite</text>
</a>
</g>
</g>
<!-- Node8&#45;&gt;Node11 -->
<g id="edge10" class="edge"><title>Node8&#45;&gt;Node11</title>
<path fill="none" stroke="midnightblue" d="M365.56,-373.975C385.373,-373.975 417.795,-373.975 443.635,-373.975"/>
<polygon fill="midnightblue" stroke="midnightblue" points="443.89,-377.475 453.89,-373.975 443.89,-370.475 443.89,-377.475"/>
</g>
<!-- Node13 -->
<g id="node13" class="node"><title>Node13</title>
<g id="a_node13"><a xlink:href="teensy3__morse__bsp_8cpp.html#a6c982a7d7805f1dd5426eb98c915cfdd" target="_top" xlink:title="Turn the red LED on (1) or off (0). ">
<polygon fill="white" stroke="black" points="459.5,-326.475 459.5,-345.475 509.5,-345.475 509.5,-326.475 459.5,-326.475"/>
<text text-anchor="middle" x="484.5" y="-333.475" font-family="Helvetica,sans-Serif" font-size="10.00">redLED</text>
</a>
</g>
</g>
<!-- Node8&#45;&gt;Node13 -->
<g id="edge12" class="edge"><title>Node8&#45;&gt;Node13</title>
<path fill="none" stroke="midnightblue" d="M365.56,-368.929C386.959,-362.95 423.064,-352.862 449.702,-345.419"/>
<polygon fill="midnightblue" stroke="midnightblue" points="450.708,-348.772 459.398,-342.71 448.825,-342.03 450.708,-348.772"/>
</g>
<!-- Node12 -->
<g id="node12" class="node"><title>Node12</title>
<g id="a_node12"><a xlink:href="teensy3__morse__bsp_8cpp.html#ac70998cee1bf97f00aec4a1b4e5a4f60" target="_top" xlink:title="isEarphonePresent">
<polygon fill="white" stroke="black" points="583.5,-383.475 583.5,-402.475 682.5,-402.475 682.5,-383.475 583.5,-383.475"/>
<text text-anchor="middle" x="633" y="-390.475" font-family="Helvetica,sans-Serif" font-size="10.00">isEarphonePresent</text>
</a>
</g>
</g>
<!-- Node11&#45;&gt;Node12 -->
<g id="edge11" class="edge"><title>Node11&#45;&gt;Node12</title>
<path fill="none" stroke="midnightblue" d="M515.146,-377.82C531.883,-379.991 553.395,-382.781 573.39,-385.374"/>
<polygon fill="midnightblue" stroke="midnightblue" points="572.997,-388.852 583.364,-386.668 573.897,-381.91 572.997,-388.852"/>
</g>
<!-- Node17 -->
<g id="node17" class="node"><title>Node17</title>
<g id="a_node17"><a xlink:href="libmorse_8cpp.html#a0ee2308940264ea9ac8e50afc1a4d285" target="_top" xlink:title="txString">
<polygon fill="white" stroke="black" points="459.5,-193.475 459.5,-212.475 509.5,-212.475 509.5,-193.475 459.5,-193.475"/>
<text text-anchor="middle" x="484.5" y="-200.475" font-family="Helvetica,sans-Serif" font-size="10.00">txString</text>
</a>
</g>
</g>
<!-- Node16&#45;&gt;Node17 -->
<g id="edge16" class="edge"><title>Node16&#45;&gt;Node17</title>
<path fill="none" stroke="midnightblue" d="M369.653,-218.88C391.124,-215.881 424.008,-211.287 448.923,-207.806"/>
<polygon fill="midnightblue" stroke="midnightblue" points="449.638,-211.24 459.057,-206.39 448.669,-204.308 449.638,-211.24"/>
</g>
<!-- Node17&#45;&gt;Node5 -->
<g id="edge21" class="edge"><title>Node17&#45;&gt;Node5</title>
<path fill="none" stroke="midnightblue" d="M459.458,-202.02C424.06,-200.83 355.856,-199.362 298,-202.975 257.531,-205.503 211.334,-211.794 180.703,-216.448"/>
<polygon fill="midnightblue" stroke="midnightblue" points="179.9,-213.03 170.552,-218.017 180.97,-219.948 179.9,-213.03"/>
</g>
<!-- Node17&#45;&gt;Node6 -->
<g id="edge20" class="edge"><title>Node17&#45;&gt;Node6</title>
<path fill="none" stroke="midnightblue" d="M462.609,-212.554C444.807,-220.569 418.454,-232.087 395,-240.975 353.087,-256.858 303.916,-272.651 271.807,-282.591"/>
<polygon fill="midnightblue" stroke="midnightblue" points="270.541,-279.319 262.013,-285.606 272.6,-286.009 270.541,-279.319"/>
</g>
<!-- Node17&#45;&gt;Node15 -->
<g id="edge19" class="edge"><title>Node17&#45;&gt;Node15</title>
<path fill="none" stroke="midnightblue" d="M491.714,-212.62C509.98,-240.873 562.911,-322.024 574,-330.975 578.953,-334.973 584.665,-338.396 590.531,-341.298"/>
<polygon fill="midnightblue" stroke="midnightblue" points="589.233,-344.552 599.791,-345.438 592.09,-338.161 589.233,-344.552"/>
</g>
<!-- Node18 -->
<g id="node18" class="node"><title>Node18</title>
<g id="a_node18"><a xlink:href="teensy3__morse__bsp_8cpp.html#ab306f692c5c9455a0c82782a67ff0147" target="_top" xlink:title="touchPoll">
<polygon fill="white" stroke="black" points="920,-174.475 920,-193.475 977,-193.475 977,-174.475 920,-174.475"/>
<text text-anchor="middle" x="948.5" y="-181.475" font-family="Helvetica,sans-Serif" font-size="10.00">touchPoll</text>
</a>
</g>
</g>
<!-- Node17&#45;&gt;Node18 -->
<g id="edge17" class="edge"><title>Node17&#45;&gt;Node18</title>
<path fill="none" stroke="midnightblue" d="M492.673,-212.71C506.235,-230.191 537.567,-266.345 574,-279.975 593.444,-287.25 834.283,-287.306 854,-278.975 891.096,-263.302 920.964,-225.038 936.289,-202.139"/>
<polygon fill="midnightblue" stroke="midnightblue" points="939.288,-203.947 941.776,-193.649 933.409,-200.148 939.288,-203.947"/>
</g>
<!-- Node20 -->
<g id="node20" class="node"><title>Node20</title>
<g id="a_node20"><a xlink:href="teensy3__morse__bsp_8cpp.html#a8761e874366e227690fba2964e1bc445" target="_top" xlink:title="getInternalTemperatureC">
<polygon fill="white" stroke="black" points="728.5,-250.475 728.5,-269.475 853.5,-269.475 853.5,-250.475 728.5,-250.475"/>
<text text-anchor="middle" x="791" y="-257.475" font-family="Helvetica,sans-Serif" font-size="10.00">getInternalTemperatureC</text>
</a>
</g>
</g>
<!-- Node17&#45;&gt;Node20 -->
<g id="edge22" class="edge"><title>Node17&#45;&gt;Node20</title>
<path fill="none" stroke="midnightblue" d="M495.924,-212.609C511.509,-226.283 542.441,-250.692 574,-259.975 620.628,-273.692 675.408,-273.519 718.134,-270.006"/>
<polygon fill="midnightblue" stroke="midnightblue" points="718.521,-273.485 728.167,-269.102 717.893,-266.513 718.521,-273.485"/>
</g>
<!-- Node21 -->
<g id="node21" class="node"><title>Node21</title>
<g id="a_node21"><a xlink:href="libmorse_8cpp.html#a47abdd74b66d7180c47d192bab8bdccb" target="_top" xlink:title="Transmit an unsigned integer in Morse code. ">
<polygon fill="white" stroke="black" points="758,-174.475 758,-193.475 824,-193.475 824,-174.475 758,-174.475"/>
<text text-anchor="middle" x="791" y="-181.475" font-family="Helvetica,sans-Serif" font-size="10.00">txUnsigned</text>
</a>
</g>
</g>
<!-- Node17&#45;&gt;Node21 -->
<g id="edge23" class="edge"><title>Node17&#45;&gt;Node21</title>
<path fill="none" stroke="midnightblue" d="M509.648,-201.469C561.215,-198.251 682.662,-190.673 747.485,-186.628"/>
<polygon fill="midnightblue" stroke="midnightblue" points="748,-190.103 757.763,-185.987 747.564,-183.117 748,-190.103"/>
</g>
<!-- Node22 -->
<g id="node22" class="node"><title>Node22</title>
<g id="a_node22"><a xlink:href="actions_8cpp.html#aed718ec1bd4cc7adb2f65d40a6784496" target="_top" xlink:title="Transmit the internal temperature in integer in Fahrenheit. ">
<polygon fill="white" stroke="black" points="574,-231.475 574,-250.475 692,-250.475 692,-231.475 574,-231.475"/>
<text text-anchor="middle" x="633" y="-238.475" font-family="Helvetica,sans-Serif" font-size="10.00">txInternalTemperatureF</text>
</a>
</g>
</g>
<!-- Node17&#45;&gt;Node22 -->
<g id="edge26" class="edge"><title>Node17&#45;&gt;Node22</title>
<path fill="none" stroke="midnightblue" d="M509.691,-209.25C530.211,-214.573 560.236,-222.361 585.401,-228.888"/>
<polygon fill="midnightblue" stroke="midnightblue" points="584.574,-232.289 595.132,-231.412 586.331,-225.514 584.574,-232.289"/>
</g>
<!-- Node23 -->
<g id="node23" class="node"><title>Node23</title>
<g id="a_node23"><a xlink:href="actions_8cpp.html#aaabb3ac0c23f35a499bc17efe829f326" target="_top" xlink:title="Transmit the 24&#45;hr time. ">
<polygon fill="white" stroke="black" points="594,-155.475 594,-174.475 672,-174.475 672,-155.475 594,-155.475"/>
<text text-anchor="middle" x="633" y="-162.475" font-family="Helvetica,sans-Serif" font-size="10.00">txTimeHHMM</text>
</a>
</g>
</g>
<!-- Node17&#45;&gt;Node23 -->
<g id="edge29" class="edge"><title>Node17&#45;&gt;Node23</title>
<path fill="none" stroke="midnightblue" d="M504.352,-193.383C524.293,-186.273 556.556,-177.342 583.656,-171.125"/>
<polygon fill="midnightblue" stroke="midnightblue" points="584.749,-174.467 593.753,-168.884 583.232,-167.633 584.749,-174.467"/>
</g>
<!-- Node24 -->
<g id="node24" class="node"><title>Node24</title>
<g id="a_node24"><a xlink:href="actions_8cpp.html#ad02149679fa3cc6a4957d1a318408ffd" target="_top" xlink:title="Transmit the uptime. ">
<polygon fill="white" stroke="black" points="605,-117.475 605,-136.475 661,-136.475 661,-117.475 605,-117.475"/>
<text text-anchor="middle" x="633" y="-124.475" font-family="Helvetica,sans-Serif" font-size="10.00">txUptime</text>
</a>
</g>
</g>
<!-- Node17&#45;&gt;Node24 -->
<g id="edge31" class="edge"><title>Node17&#45;&gt;Node24</title>
<path fill="none" stroke="midnightblue" d="M498.086,-193.385C514.722,-181.066 545.289,-159.646 574,-145.975 580.709,-142.781 588.094,-139.911 595.282,-137.427"/>
<polygon fill="midnightblue" stroke="midnightblue" points="596.464,-140.723 604.879,-134.286 594.287,-134.071 596.464,-140.723"/>
</g>
<!-- Node26 -->
<g id="node26" class="node"><title>Node26</title>
<g id="a_node26"><a xlink:href="teensy3__morse__bsp_8cpp.html#ae8dd28759e56dbd2ee9bc9ae96d1783c" target="_top" xlink:title="Return the most recent ADC measurement of the input voltage. Perform analog to digital conversion on ...">
<polygon fill="white" stroke="black" points="596,-41.4754 596,-60.4754 670,-60.4754 670,-41.4754 596,-41.4754"/>
<text text-anchor="middle" x="633" y="-48.4754" font-family="Helvetica,sans-Serif" font-size="10.00">readMillivolts</text>
</a>
</g>
</g>
<!-- Node17&#45;&gt;Node26 -->
<g id="edge34" class="edge"><title>Node17&#45;&gt;Node26</title>
<path fill="none" stroke="midnightblue" d="M489.822,-193.217C500.681,-169.725 531.324,-109.422 574,-74.9754 578.953,-70.9777 584.665,-67.5549 590.531,-64.6527"/>
<polygon fill="midnightblue" stroke="midnightblue" points="592.09,-67.7896 599.791,-60.513 589.233,-61.3991 592.09,-67.7896"/>
</g>
<!-- Node30 -->
<g id="node30" class="node"><title>Node30</title>
<g id="a_node30"><a xlink:href="libmorse_8cpp.html#ac3f000c98271c6d0a7710135e18189bc" target="_top" xlink:title="On my hardware there is cross&#45;coupling between the serial port and the touch sensors. Without the code below, long messages to the serial port trigger a touch input. ">
<polygon fill="white" stroke="black" points="758.5,-79.4754 758.5,-98.4754 823.5,-98.4754 823.5,-79.4754 758.5,-79.4754"/>
<text text-anchor="middle" x="791" y="-86.4754" font-family="Helvetica,sans-Serif" font-size="10.00">flushTouch</text>
</a>
</g>
</g>
<!-- Node17&#45;&gt;Node30 -->
<g id="edge38" class="edge"><title>Node17&#45;&gt;Node30</title>
<path fill="none" stroke="midnightblue" d="M491.077,-193.268C503.2,-173.214 534.098,-127.461 574,-107.975 629.704,-80.7733 703.12,-80.7052 748.412,-84.1185"/>
<polygon fill="midnightblue" stroke="midnightblue" points="748.203,-87.6132 758.463,-84.9683 748.793,-80.6381 748.203,-87.6132"/>
</g>
<!-- Node19 -->
<g id="node19" class="node"><title>Node19</title>
<g id="a_node19"><a xlink:href="teensy3__morse__bsp_8cpp.html#af6899cd9b83df54106b259ab81ea5cb2" target="_top" xlink:title="touchMargin">
<polygon fill="white" stroke="black" points="1043,-174.475 1043,-193.475 1113,-193.475 1113,-174.475 1043,-174.475"/>
<text text-anchor="middle" x="1078" y="-181.475" font-family="Helvetica,sans-Serif" font-size="10.00">touchMargin</text>
</a>
</g>
</g>
<!-- Node18&#45;&gt;Node19 -->
<g id="edge18" class="edge"><title>Node18&#45;&gt;Node19</title>
<path fill="none" stroke="midnightblue" d="M977.166,-183.975C993.281,-183.975 1013.98,-183.975 1032.35,-183.975"/>
<polygon fill="midnightblue" stroke="midnightblue" points="1032.56,-187.475 1042.56,-183.975 1032.56,-180.475 1032.56,-187.475"/>
</g>
<!-- Node21&#45;&gt;Node5 -->
<g id="edge25" class="edge"><title>Node21&#45;&gt;Node5</title>
<path fill="none" stroke="midnightblue" d="M766.158,-174.376C753.209,-168.059 737.874,-158.608 728,-145.975 695.28,-104.112 733.37,-65.3161 692,-31.9754 620.238,25.8582 577.665,-12.9754 485.5,-12.9754 345.5,-12.9754 345.5,-12.9754 345.5,-12.9754 240.974,-12.9754 174.651,-151.781 153.683,-203.153"/>
<polygon fill="midnightblue" stroke="midnightblue" points="150.429,-201.866 149.998,-212.452 156.936,-204.445 150.429,-201.866"/>
</g>
<!-- Node21&#45;&gt;Node18 -->
<g id="edge24" class="edge"><title>Node21&#45;&gt;Node18</title>
<path fill="none" stroke="midnightblue" d="M824.22,-183.975C849.083,-183.975 883.537,-183.975 909.703,-183.975"/>
<polygon fill="midnightblue" stroke="midnightblue" points="909.999,-187.475 919.999,-183.975 909.999,-180.475 909.999,-187.475"/>
</g>
<!-- Node22&#45;&gt;Node20 -->
<g id="edge27" class="edge"><title>Node22&#45;&gt;Node20</title>
<path fill="none" stroke="midnightblue" d="M692.089,-248.05C700.711,-249.1 709.682,-250.193 718.54,-251.272"/>
<polygon fill="midnightblue" stroke="midnightblue" points="718.117,-254.746 728.467,-252.481 718.964,-247.798 718.117,-254.746"/>
</g>
<!-- Node22&#45;&gt;Node21 -->
<g id="edge28" class="edge"><title>Node22&#45;&gt;Node21</title>
<path fill="none" stroke="midnightblue" d="M660.111,-231.435C685.87,-222.023 725.448,-207.562 754.147,-197.075"/>
<polygon fill="midnightblue" stroke="midnightblue" points="755.612,-200.266 763.804,-193.547 753.21,-193.692 755.612,-200.266"/>
</g>
<!-- Node23&#45;&gt;Node17 -->
<g id="edge30" class="edge"><title>Node23&#45;&gt;Node17</title>
<path fill="none" stroke="midnightblue" d="M613.357,-174.493C589.875,-182.886 549.07,-193.851 519.87,-199.882"/>
<polygon fill="midnightblue" stroke="midnightblue" points="518.837,-196.517 509.691,-201.867 520.177,-203.388 518.837,-196.517"/>
</g>
<!-- Node24&#45;&gt;Node21 -->
<g id="edge33" class="edge"><title>Node24&#45;&gt;Node21</title>
<path fill="none" stroke="midnightblue" d="M661.248,-135.57C670.989,-138.73 682.022,-142.409 692,-145.975 713.803,-153.767 738.068,-163.17 756.998,-170.673"/>
<polygon fill="midnightblue" stroke="midnightblue" points="755.784,-173.957 766.369,-174.405 758.373,-167.454 755.784,-173.957"/>
</g>
<!-- Node25 -->
<g id="node25" class="node"><title>Node25</title>
<g id="a_node25"><a xlink:href="settings_8cpp.html#a7b4efa097b94f9a90c5bbafcdf93fe4f" target="_top" xlink:title="getUptime">
<polygon fill="white" stroke="black" points="760,-117.475 760,-136.475 822,-136.475 822,-117.475 760,-117.475"/>
<text text-anchor="middle" x="791" y="-124.475" font-family="Helvetica,sans-Serif" font-size="10.00">getUptime</text>
</a>
</g>
</g>
<!-- Node24&#45;&gt;Node25 -->
<g id="edge32" class="edge"><title>Node24&#45;&gt;Node25</title>
<path fill="none" stroke="midnightblue" d="M661.173,-126.975C685.633,-126.975 721.905,-126.975 749.735,-126.975"/>
<polygon fill="midnightblue" stroke="midnightblue" points="749.945,-130.475 759.945,-126.975 749.945,-123.475 749.945,-130.475"/>
</g>
<!-- Node27 -->
<g id="node27" class="node"><title>Node27</title>
<g id="a_node27"><a xlink:href="class_voltage_monitor.html#a70902b84f9864c95d5553a0644a64f4f" target="_top" xlink:title="Return the latest voltage reading. ">
<polygon fill="white" stroke="black" points="728,-41.4754 728,-60.4754 854,-60.4754 854,-41.4754 728,-41.4754"/>
<text text-anchor="middle" x="791" y="-48.4754" font-family="Helvetica,sans-Serif" font-size="10.00">VoltageMonitor::getValue</text>
</a>
</g>
</g>
<!-- Node26&#45;&gt;Node27 -->
<g id="edge35" class="edge"><title>Node26&#45;&gt;Node27</title>
<path fill="none" stroke="midnightblue" d="M670.182,-50.9754C684.344,-50.9754 701.117,-50.9754 717.56,-50.9754"/>
<polygon fill="midnightblue" stroke="midnightblue" points="717.728,-54.4754 727.728,-50.9754 717.728,-47.4754 717.728,-54.4754"/>
</g>
<!-- Node28 -->
<g id="node28" class="node"><title>Node28</title>
<g id="a_node28"><a xlink:href="actions_8cpp.html#a2b8c3769e2aa32a2da9e2f3f85ac73dd" target="_top" xlink:title="A sample ADC reading is taken each time through the main loop, and written to a ring buffer...">
<polygon fill="white" stroke="black" points="892.5,-60.4754 892.5,-79.4754 1004.5,-79.4754 1004.5,-60.4754 892.5,-60.4754"/>
<text text-anchor="middle" x="948.5" y="-67.4754" font-family="Helvetica,sans-Serif" font-size="10.00">getVoltagePollInterval</text>
</a>
</g>
</g>
<!-- Node27&#45;&gt;Node28 -->
<g id="edge36" class="edge"><title>Node27&#45;&gt;Node28</title>
<path fill="none" stroke="midnightblue" d="M854.352,-58.5939C863.438,-59.7041 872.816,-60.8499 881.963,-61.9676"/>
<polygon fill="midnightblue" stroke="midnightblue" points="881.813,-65.4752 892.163,-63.214 882.662,-58.5269 881.813,-65.4752"/>
</g>
<!-- Node29 -->
<g id="node29" class="node"><title>Node29</title>
<g id="a_node29"><a xlink:href="class_voltage_monitor.html#a75871331808c34b40d04059ee2af0f27" target="_top" xlink:title="Filter and scale raw ADC values to millivolts. ">
<polygon fill="white" stroke="black" points="890,-22.4754 890,-41.4754 1007,-41.4754 1007,-22.4754 890,-22.4754"/>
<text text-anchor="middle" x="948.5" y="-29.4754" font-family="Helvetica,sans-Serif" font-size="10.00">VoltageMonitor::update</text>
</a>
</g>
</g>
<!-- Node27&#45;&gt;Node29 -->
<g id="edge37" class="edge"><title>Node27&#45;&gt;Node29</title>
<path fill="none" stroke="midnightblue" d="M854.352,-43.3568C862.702,-42.3366 871.298,-41.2862 879.735,-40.2553"/>
<polygon fill="midnightblue" stroke="midnightblue" points="880.419,-43.6979 889.92,-39.0108 879.57,-36.7496 880.419,-43.6979"/>
</g>
<!-- Node30&#45;&gt;Node18 -->
<g id="edge39" class="edge"><title>Node30&#45;&gt;Node18</title>
<path fill="none" stroke="midnightblue" d="M823.525,-96.096C833.592,-99.0285 844.563,-102.943 854,-107.975 883.932,-123.938 913.461,-150.174 931.087,-167.262"/>
<polygon fill="midnightblue" stroke="midnightblue" points="928.735,-169.858 938.307,-174.4 933.656,-164.88 928.735,-169.858"/>
</g>
</g>
</svg>
        <g id="navigator" transform="translate(0 0)" fill="#404254">
                <rect fill="#f2f5e9" fill-opacity="0.5" stroke="#606060" stroke-width=".5" x="0" y="0" width="60" height="60"/>
                <use id="zoomplus" xlink:href="#zoomPlus" x="17" y="9" onmousedown="handleZoom(evt,'in')"/>
                <use id="zoomminus" xlink:href="#zoomMin" x="42" y="9" onmousedown="handleZoom(evt,'out')"/>
                <use id="reset" xlink:href="#resetDef" x="30" y="36" onmousedown="handleReset()"/>
                <g id="arrowUp" xlink:href="#dirArrow" transform="translate(30 24)" onmousedown="handlePan(0,-1)">
                  <use xlink:href="#rim" fill="#404040">
                        <set attributeName="fill" to="#808080" begin="arrowUp.mouseover" end="arrowUp.mouseout"/>
                  </use>
                  <path fill="none" stroke="white" stroke-width="1.5" d="M0,-3.0v7 M-2.5,-0.5L0,-3.0L2.5,-0.5"/>
                </g>
                <g id="arrowRight" xlink:href="#dirArrow" transform="rotate(90) translate(36 -43)" onmousedown="handlePan(1,0)">
                  <use xlink:href="#rim" fill="#404040">
                        <set attributeName="fill" to="#808080" begin="arrowRight.mouseover" end="arrowRight.mouseout"/>
                  </use>
                  <path fill="none" stroke="white" stroke-width="1.5" d="M0,-3.0v7 M-2.5,-0.5L0,-3.0L2.5,-0.5"/>
                </g>
                <g id="arrowDown" xlink:href="#dirArrow" transform="rotate(180) translate(-30 -48)" onmousedown="handlePan(0,1)">
                  <use xlink:href="#rim" fill="#404040">
                        <set attributeName="fill" to="#808080" begin="arrowDown.mouseover" end="arrowDown.mouseout"/>
                  </use>
                  <path fill="none" stroke="white" stroke-width="1.5" d="M0,-3.0v7 M-2.5,-0.5L0,-3.0L2.5,-0.5"/>
                </g>
                <g id="arrowLeft" xlink:href="#dirArrow" transform="rotate(270) translate(-36 17)" onmousedown="handlePan(-1,0)">
                  <use xlink:href="#rim" fill="#404040">
                        <set attributeName="fill" to="#808080" begin="arrowLeft.mouseover" end="arrowLeft.mouseout"/>
                  </use>
                  <path fill="none" stroke="white" stroke-width="1.5" d="M0,-3.0v7 M-2.5,-0.5L0,-3.0L2.5,-0.5"/>
                </g>
        </g>
        <svg viewBox="0 0 15 15" width="100%" height="30px" preserveAspectRatio="xMaxYMin meet">
         <g id="arrow_out" transform="scale(0.3 0.3)">
          <a xlink:href="actions_8cpp_a8ee2dfbbd5a195243ba9bc91c0a760ef_cgraph_org.svg" target="_base">
           <rect id="button" ry="5" rx="5" y="6" x="6" height="38" width="38"
                fill="#f2f5e9" fill-opacity="0.5" stroke="#606060" stroke-width="1.0"/>
           <path id="arrow"
             d="M 11.500037,31.436501 C 11.940474,20.09759 22.043105,11.32322 32.158766,21.979434 L 37.068811,17.246167 C 37.068811,17.246167 37.088388,32 37.088388,32 L 22.160133,31.978069 C 22.160133,31.978069 26.997745,27.140456 26.997745,27.140456 C 18.528582,18.264221 13.291696,25.230495 11.500037,31.436501 z"
             style="fill:#404040;"/>
          </a>
         </g>
        </svg>
</svg>
