<?xml version="1.0" encoding="UTF-8" standalone="no"?>
<!DOCTYPE svg PUBLIC "-//W3C//DTD SVG 1.1//EN"
 "http://www.w3.org/Graphics/SVG/1.1/DTD/svg11.dtd">
<!-- Generated by graphviz version 2.38.0 (20140413.2041)
 -->
<!-- Title: printTouchThresholds Pages: 1 -->
<svg width="367pt" height="66pt"
 viewBox="0.00 0.00 367.00 66.00" xmlns="http://www.w3.org/2000/svg" xmlns:xlink="http://www.w3.org/1999/xlink">
<g id="graph0" class="graph" transform="scale(1 1) rotate(0) translate(4 62)">
<title>printTouchThresholds</title>
<polygon fill="white" stroke="none" points="-4,4 -4,-62 363,-62 363,4 -4,4"/>
<!-- Node1 -->
<g id="node1" class="node"><title>Node1</title>
<polygon fill="#bfbfbf" stroke="black" points="0,-19.5 0,-38.5 110,-38.5 110,-19.5 0,-19.5"/>
<text text-anchor="middle" x="55" y="-26.5" font-family="Helvetica,sans-Serif" font-size="10.00">printTouchThresholds</text>
</g>
<!-- Node2 -->
<g id="node2" class="node"><title>Node2</title>
<g id="a_node2"><a xlink:href="libmorse_8h.html#a485b054263abcc51f9987c8a9c824602" target="_top" xlink:title="printLabelValueUnits">
<polygon fill="white" stroke="black" points="146,-38.5 146,-57.5 253,-57.5 253,-38.5 146,-38.5"/>
<text text-anchor="middle" x="199.5" y="-45.5" font-family="Helvetica,sans-Serif" font-size="10.00">printLabelValueUnits</text>
</a>
</g>
</g>
<!-- Node1&#45;&gt;Node2 -->
<g id="edge1" class="edge"><title>Node1&#45;&gt;Node2</title>
<path fill="none" stroke="midnightblue" d="M110.28,-36.2373C118.555,-37.3407 127.156,-38.4874 135.597,-39.613"/>
<polygon fill="midnightblue" stroke="midnightblue" points="135.408,-43.1187 145.783,-40.9711 136.333,-36.1801 135.408,-43.1187"/>
</g>
<!-- Node3 -->
<g id="node3" class="node"><title>Node3</title>
<g id="a_node3"><a xlink:href="teensy3__morse__bsp_8cpp.html#ab4a4cda59f6e32a1412e012d69bec6a9" target="_top" xlink:title="Return the pin capacitance in pF. ">
<polygon fill="white" stroke="black" points="156,-0.5 156,-19.5 243,-19.5 243,-0.5 156,-0.5"/>
<text text-anchor="middle" x="199.5" y="-7.5" font-family="Helvetica,sans-Serif" font-size="10.00">getPinThreshold</text>
</a>
</g>
</g>
<!-- Node1&#45;&gt;Node3 -->
<g id="edge2" class="edge"><title>Node1&#45;&gt;Node3</title>
<path fill="none" stroke="midnightblue" d="M110.28,-21.7627C121.96,-20.2054 134.286,-18.5619 145.9,-17.0133"/>
<polygon fill="midnightblue" stroke="midnightblue" points="146.44,-20.4723 155.89,-15.6813 145.515,-13.5337 146.44,-20.4723"/>
</g>
<!-- Node4 -->
<g id="node4" class="node"><title>Node4</title>
<g id="a_node4"><a xlink:href="teensy3__morse__bsp_8cpp.html#af6899cd9b83df54106b259ab81ea5cb2" target="_top" xlink:title="touchMargin">
<polygon fill="white" stroke="black" points="289,-0.5 289,-19.5 359,-19.5 359,-0.5 289,-0.5"/>
<text text-anchor="middle" x="324" y="-7.5" font-family="Helvetica,sans-Serif" font-size="10.00">touchMargin</text>
</a>
</g>
</g>
<!-- Node3&#45;&gt;Node4 -->
<g id="edge3" class="edge"><title>Node3&#45;&gt;Node4</title>
<path fill="none" stroke="midnightblue" d="M243.001,-10C254.429,-10 266.82,-10 278.361,-10"/>
<polygon fill="midnightblue" stroke="midnightblue" points="278.668,-13.5001 288.668,-10 278.668,-6.5001 278.668,-13.5001"/>
</g>
</g>
</svg>
