<?xml version="1.0" encoding="UTF-8" standalone="no"?>
<!DOCTYPE svg PUBLIC "-//W3C//DTD SVG 1.1//EN"
 "http://www.w3.org/Graphics/SVG/1.1/DTD/svg11.dtd">
<!-- Generated by graphviz version 2.38.0 (20140413.2041)
 -->
<!-- Title: readRange Pages: 1 -->
<svg width="267pt" height="28pt"
 viewBox="0.00 0.00 267.00 28.00" xmlns="http://www.w3.org/2000/svg" xmlns:xlink="http://www.w3.org/1999/xlink">
<g id="graph0" class="graph" transform="scale(1 1) rotate(0) translate(4 24)">
<title>readRange</title>
<polygon fill="white" stroke="none" points="-4,4 -4,-24 263,-24 263,4 -4,4"/>
<!-- Node1 -->
<g id="node1" class="node"><title>Node1</title>
<polygon fill="#bfbfbf" stroke="black" points="0,-0.5 0,-19.5 64,-19.5 64,-0.5 0,-0.5"/>
<text text-anchor="middle" x="32" y="-7.5" font-family="Helvetica,sans-Serif" font-size="10.00">readRange</text>
</g>
<!-- Node2 -->
<g id="node2" class="node"><title>Node2</title>
<g id="a_node2"><a xlink:href="actions_8cpp.html#aa6eb8a5787ae2b2cae45f6df3847c936" target="_top" xlink:title="readNumber">
<polygon fill="white" stroke="black" points="100,-0.5 100,-19.5 170,-19.5 170,-0.5 100,-0.5"/>
<text text-anchor="middle" x="135" y="-7.5" font-family="Helvetica,sans-Serif" font-size="10.00">readNumber</text>
</a>
</g>
</g>
<!-- Node1&#45;&gt;Node2 -->
<g id="edge1" class="edge"><title>Node1&#45;&gt;Node2</title>
<path fill="none" stroke="midnightblue" d="M64.1275,-10C72.2928,-10 81.2545,-10 89.9562,-10"/>
<polygon fill="midnightblue" stroke="midnightblue" points="89.9886,-13.5001 99.9886,-10 89.9886,-6.5001 89.9886,-13.5001"/>
</g>
<!-- Node3 -->
<g id="node3" class="node"><title>Node3</title>
<g id="a_node3"><a xlink:href="actions_8cpp.html#a5082fe1b057ad10a1a5baef95b0c87b8" target="_top" xlink:title="Read a line from the serial port with support for rubbing out preceding characters. ">
<polygon fill="white" stroke="black" points="206,-0.5 206,-19.5 259,-19.5 259,-0.5 206,-0.5"/>
<text text-anchor="middle" x="232.5" y="-7.5" font-family="Helvetica,sans-Serif" font-size="10.00">readEdit</text>
</a>
</g>
</g>
<!-- Node2&#45;&gt;Node3 -->
<g id="edge2" class="edge"><title>Node2&#45;&gt;Node3</title>
<path fill="none" stroke="midnightblue" d="M170.208,-10C178.487,-10 187.358,-10 195.708,-10"/>
<polygon fill="midnightblue" stroke="midnightblue" points="195.922,-13.5001 205.921,-10 195.921,-6.5001 195.922,-13.5001"/>
</g>
</g>
</svg>
