<?xml version="1.0" encoding="UTF-8" standalone="no"?>
<!DOCTYPE svg PUBLIC "-//W3C//DTD SVG 1.1//EN"
 "http://www.w3.org/Graphics/SVG/1.1/DTD/svg11.dtd">
<!-- Generated by graphviz version 2.38.0 (20140413.2041)
 -->
<!-- Title: txInternalTemperatureF Pages: 1 -->
<!--zoomable 457 -->
<svg id="main" version="1.1" xmlns="http://www.w3.org/2000/svg" xmlns:xlink="http://www.w3.org/1999/xlink" xml:space="preserve" onload="init(evt)">
<style type="text/css"><![CDATA[
.edge:hover path { stroke: red; }
.edge:hover polygon { stroke: red; fill: red; }
]]></style>
<script type="text/javascript"><![CDATA[
var edges = document.getElementsByTagName('g');
if (edges && edges.length) {
  for (var i=0;i<edges.length;i++) {
    if (edges[i].id.substr(0,4)=='edge') {
      edges[i].setAttribute('class','edge');
    }
  }
}
]]></script>
        <defs>
                <circle id="rim" cx="0" cy="0" r="7"/>
                <circle id="rim2" cx="0" cy="0" r="3.5"/>
                <g id="zoomPlus">
                        <use xlink:href="#rim" fill="#404040">
                                <set attributeName="fill" to="#808080" begin="zoomplus.mouseover" end="zoomplus.mouseout"/>
                        </use>
                        <path d="M-4,0h8M0,-4v8" fill="none" stroke="white" stroke-width="1.5" pointer-events="none"/>
                </g>
                <g id="zoomMin">
                        <use xlink:href="#rim" fill="#404040">
                                <set attributeName="fill" to="#808080" begin="zoomminus.mouseover" end="zoomminus.mouseout"/>
                        </use>
                        <path d="M-4,0h8" fill="none" stroke="white" stroke-width="1.5" pointer-events="none"/>
                </g>
                <g id="dirArrow">
                        <path fill="none" stroke="white" stroke-width="1.5" d="M0,-3.0v7 M-2.5,-0.5L0,-3.0L2.5,-0.5"/>
                </g>
               <g id="resetDef">
                       <use xlink:href="#rim2" fill="#404040">
                               <set attributeName="fill" to="#808080" begin="reset.mouseover" end="reset.mouseout"/>
                       </use>
               </g>
        </defs>

<script type="text/javascript">
var viewWidth = 1146;
var viewHeight = 457;
var sectionId = 'dynsection-48';
</script>
<script xlink:href="svgpan.js"/>
<svg id="graph" class="graph">
<g id="viewport">
<title>txInternalTemperatureF</title>
<polygon fill="white" stroke="none" points="-4,4 -4,-453.214 1142,-453.214 1142,4 -4,4"/>
<!-- Node1 -->
<g id="node1" class="node"><title>Node1</title>
<polygon fill="#bfbfbf" stroke="black" points="0,-390.046 0,-409.046 118,-409.046 118,-390.046 0,-390.046"/>
<text text-anchor="middle" x="59" y="-397.046" font-family="Helvetica,sans-Serif" font-size="10.00">txInternalTemperatureF</text>
</g>
<!-- Node2 -->
<g id="node2" class="node"><title>Node2</title>
<g id="a_node2"><a xlink:href="teensy3__morse__bsp_8cpp.html#a8761e874366e227690fba2964e1bc445" target="_top" xlink:title="getInternalTemperatureC">
<polygon fill="white" stroke="black" points="859.5,-358.046 859.5,-377.046 984.5,-377.046 984.5,-358.046 859.5,-358.046"/>
<text text-anchor="middle" x="922" y="-365.046" font-family="Helvetica,sans-Serif" font-size="10.00">getInternalTemperatureC</text>
</a>
</g>
</g>
<!-- Node1&#45;&gt;Node2 -->
<g id="edge1" class="edge"><title>Node1&#45;&gt;Node2</title>
<path fill="none" stroke="midnightblue" d="M88.8136,-409.093C130.498,-422.034 210.278,-443.546 280,-443.546 280,-443.546 280,-443.546 616.5,-443.546 708.665,-443.546 740.094,-464.807 823,-424.546 843.927,-414.383 839.226,-398.802 859,-386.546 862.401,-384.437 866.054,-382.548 869.821,-380.858"/>
<polygon fill="midnightblue" stroke="midnightblue" points="871.358,-384.013 879.348,-377.055 868.763,-377.512 871.358,-384.013"/>
</g>
<!-- Node3 -->
<g id="node3" class="node"><title>Node3</title>
<g id="a_node3"><a xlink:href="libmorse_8cpp.html#a47abdd74b66d7180c47d192bab8bdccb" target="_top" xlink:title="Transmit an unsigned integer in Morse code. ">
<polygon fill="white" stroke="black" points="154,-325.046 154,-344.046 220,-344.046 220,-325.046 154,-325.046"/>
<text text-anchor="middle" x="187" y="-332.046" font-family="Helvetica,sans-Serif" font-size="10.00">txUnsigned</text>
</a>
</g>
</g>
<!-- Node1&#45;&gt;Node3 -->
<g id="edge2" class="edge"><title>Node1&#45;&gt;Node3</title>
<path fill="none" stroke="midnightblue" d="M78.5917,-389.955C99.6224,-379.105 134.086,-361.326 158.291,-348.84"/>
<polygon fill="midnightblue" stroke="midnightblue" points="160.049,-351.871 167.332,-344.176 156.84,-345.65 160.049,-351.871"/>
</g>
<!-- Node4 -->
<g id="node4" class="node"><title>Node4</title>
<g id="a_node4"><a xlink:href="teensy3__morse__bsp_8cpp.html#ab306f692c5c9455a0c82782a67ff0147" target="_top" xlink:title="touchPoll">
<polygon fill="white" stroke="black" points="893.5,-168.046 893.5,-187.046 950.5,-187.046 950.5,-168.046 893.5,-168.046"/>
<text text-anchor="middle" x="922" y="-175.046" font-family="Helvetica,sans-Serif" font-size="10.00">touchPoll</text>
</a>
</g>
</g>
<!-- Node3&#45;&gt;Node4 -->
<g id="edge3" class="edge"><title>Node3&#45;&gt;Node4</title>
<path fill="none" stroke="midnightblue" d="M220.205,-334.344C333.844,-333.182 715.038,-325.348 823,-272.546 843.899,-262.324 842.427,-250.872 859,-234.546 873.184,-220.573 889.821,-205.337 902.288,-194.136"/>
<polygon fill="midnightblue" stroke="midnightblue" points="904.687,-196.685 909.81,-187.411 900.022,-191.466 904.687,-196.685"/>
</g>
<!-- Node6 -->
<g id="node6" class="node"><title>Node6</title>
<g id="a_node6"><a xlink:href="libmorse_8cpp.html#acd4b292f5e412ee4f05aed9dafbc072d" target="_top" xlink:title="Convert an ASCII character into Morse code and transmit it. ">
<polygon fill="white" stroke="black" points="256,-209.046 256,-228.046 306,-228.046 306,-209.046 256,-209.046"/>
<text text-anchor="middle" x="281" y="-216.046" font-family="Helvetica,sans-Serif" font-size="10.00">txLetter</text>
</a>
</g>
</g>
<!-- Node3&#45;&gt;Node6 -->
<g id="edge5" class="edge"><title>Node3&#45;&gt;Node6</title>
<path fill="none" stroke="midnightblue" d="M195.844,-324.655C211.402,-305.039 246.353,-260.971 265.967,-236.24"/>
<polygon fill="midnightblue" stroke="midnightblue" points="268.963,-238.094 272.435,-228.085 263.478,-233.745 268.963,-238.094"/>
</g>
<!-- Node5 -->
<g id="node5" class="node"><title>Node5</title>
<g id="a_node5"><a xlink:href="teensy3__morse__bsp_8cpp.html#af6899cd9b83df54106b259ab81ea5cb2" target="_top" xlink:title="touchMargin">
<polygon fill="white" stroke="black" points="1044.5,-168.046 1044.5,-187.046 1114.5,-187.046 1114.5,-168.046 1044.5,-168.046"/>
<text text-anchor="middle" x="1079.5" y="-175.046" font-family="Helvetica,sans-Serif" font-size="10.00">touchMargin</text>
</a>
</g>
</g>
<!-- Node4&#45;&gt;Node5 -->
<g id="edge4" class="edge"><title>Node4&#45;&gt;Node5</title>
<path fill="none" stroke="midnightblue" d="M950.8,-177.546C973.937,-177.546 1007.31,-177.546 1034.13,-177.546"/>
<polygon fill="midnightblue" stroke="midnightblue" points="1034.43,-181.046 1044.43,-177.546 1034.43,-174.046 1034.43,-181.046"/>
</g>
<!-- Node7 -->
<g id="node7" class="node"><title>Node7</title>
<g id="a_node7"><a xlink:href="libmorse_8cpp.html#a9fdfce728595d72b78dc7c834ab99a40" target="_top" xlink:title="Transmit a literal Morse code value. ">
<polygon fill="white" stroke="black" points="342,-114.046 342,-133.046 393,-133.046 393,-114.046 342,-114.046"/>
<text text-anchor="middle" x="367.5" y="-121.046" font-family="Helvetica,sans-Serif" font-size="10.00">txLiteral</text>
</a>
</g>
</g>
<!-- Node6&#45;&gt;Node7 -->
<g id="edge6" class="edge"><title>Node6&#45;&gt;Node7</title>
<path fill="none" stroke="midnightblue" d="M290.725,-208.737C304.967,-192.725 333.393,-160.766 351.093,-140.868"/>
<polygon fill="midnightblue" stroke="midnightblue" points="353.918,-142.958 357.949,-133.16 348.687,-138.305 353.918,-142.958"/>
</g>
<!-- Node17 -->
<g id="node17" class="node"><title>Node17</title>
<g id="a_node17"><a xlink:href="libmorse_8cpp.html#ab94e088615119d1faae7df22ce50aedf" target="_top" xlink:title="Transmit a Morse code prosign indicating an error. ">
<polygon fill="white" stroke="black" points="454.5,-190.046 454.5,-209.046 500.5,-209.046 500.5,-190.046 454.5,-190.046"/>
<text text-anchor="middle" x="477.5" y="-197.046" font-family="Helvetica,sans-Serif" font-size="10.00">txError</text>
</a>
</g>
</g>
<!-- Node6&#45;&gt;Node17 -->
<g id="edge38" class="edge"><title>Node6&#45;&gt;Node17</title>
<path fill="none" stroke="midnightblue" d="M306.24,-216.178C341.053,-212.777 405.282,-206.503 444.125,-202.708"/>
<polygon fill="midnightblue" stroke="midnightblue" points="444.749,-206.164 454.361,-201.708 444.069,-199.197 444.749,-206.164"/>
</g>
<!-- Node8 -->
<g id="node8" class="node"><title>Node8</title>
<g id="a_node8"><a xlink:href="class_morse_token.html#a48cd72aeb868391449d1f51c1d0bf5cc" target="_top" xlink:title="Treat code == 0 as the error token. ">
<polygon fill="white" stroke="black" points="429,-114.046 429,-133.046 526,-133.046 526,-114.046 429,-114.046"/>
<text text-anchor="middle" x="477.5" y="-121.046" font-family="Helvetica,sans-Serif" font-size="10.00">MorseToken::valid</text>
</a>
</g>
</g>
<!-- Node7&#45;&gt;Node8 -->
<g id="edge7" class="edge"><title>Node7&#45;&gt;Node8</title>
<path fill="none" stroke="midnightblue" d="M393.007,-123.546C400.694,-123.546 409.531,-123.546 418.516,-123.546"/>
<polygon fill="midnightblue" stroke="midnightblue" points="418.67,-127.046 428.67,-123.546 418.67,-120.046 418.67,-127.046"/>
</g>
<!-- Node9 -->
<g id="node9" class="node"><title>Node9</title>
<g id="a_node9"><a xlink:href="teensy3__morse__bsp_8cpp.html#af66e71e3fac9b6a2c6532bc8a513bfde" target="_top" xlink:title="Output a square wave on pin 10 at the given frequency for the given duration. ">
<polygon fill="white" stroke="black" points="458.5,-38.0455 458.5,-57.0455 496.5,-57.0455 496.5,-38.0455 458.5,-38.0455"/>
<text text-anchor="middle" x="477.5" y="-45.0455" font-family="Helvetica,sans-Serif" font-size="10.00">beep</text>
</a>
</g>
</g>
<!-- Node7&#45;&gt;Node9 -->
<g id="edge8" class="edge"><title>Node7&#45;&gt;Node9</title>
<path fill="none" stroke="midnightblue" d="M376.63,-113.906C387.491,-101.532 407.834,-80.0546 429,-66.5455 435.036,-62.693 441.982,-59.3825 448.665,-56.6548"/>
<polygon fill="midnightblue" stroke="midnightblue" points="450.014,-59.8868 458.133,-53.0801 447.541,-53.338 450.014,-59.8868"/>
</g>
<!-- Node15 -->
<g id="node15" class="node"><title>Node15</title>
<g id="a_node15"><a xlink:href="settings_8cpp.html#a8575b9b52638114a4f32d1462cf9b7c1" target="_top" xlink:title="Get the transmission frequency (side tone). ">
<polygon fill="white" stroke="black" points="450.5,-76.0455 450.5,-95.0455 504.5,-95.0455 504.5,-76.0455 450.5,-76.0455"/>
<text text-anchor="middle" x="477.5" y="-83.0455" font-family="Helvetica,sans-Serif" font-size="10.00">getTxHz</text>
</a>
</g>
</g>
<!-- Node7&#45;&gt;Node15 -->
<g id="edge14" class="edge"><title>Node7&#45;&gt;Node15</title>
<path fill="none" stroke="midnightblue" d="M393.007,-114.923C406.995,-110.001 424.793,-103.739 440.359,-98.2619"/>
<polygon fill="midnightblue" stroke="midnightblue" points="441.932,-101.419 450.203,-94.7981 439.608,-94.8156 441.932,-101.419"/>
</g>
<!-- Node16 -->
<g id="node16" class="node"><title>Node16</title>
<g id="a_node16"><a xlink:href="settings_8cpp.html#a960551e90dfdad18f3c9b1338ccba7db" target="_top" xlink:title="Get the dit duration in microseconds. ">
<polygon fill="white" stroke="black" points="728,-74.0455 728,-93.0455 800,-93.0455 800,-74.0455 728,-74.0455"/>
<text text-anchor="middle" x="764" y="-81.0455" font-family="Helvetica,sans-Serif" font-size="10.00">getDitMicros</text>
</a>
</g>
</g>
<!-- Node7&#45;&gt;Node16 -->
<g id="edge15" class="edge"><title>Node7&#45;&gt;Node16</title>
<path fill="none" stroke="midnightblue" d="M371.605,-113.759C378.439,-93.9697 396.792,-49.3176 429,-28.5455 479.18,3.81778 502.439,-13.7784 562,-9.54555 609.436,-6.17438 625.314,9.24508 669,-9.54555 690.371,-18.738 686.968,-32.8456 705,-47.5455 714.565,-55.3429 725.944,-62.753 736.079,-68.8009"/>
<polygon fill="midnightblue" stroke="midnightblue" points="734.543,-71.9561 744.95,-73.9442 738.055,-65.9003 734.543,-71.9561"/>
</g>
<!-- Node7&#45;&gt;Node17 -->
<g id="edge16" class="edge"><title>Node7&#45;&gt;Node17</title>
<path fill="none" stroke="midnightblue" d="M378.173,-133.173C389.643,-144.265 409.652,-162.621 429,-175.546 434.119,-178.965 439.79,-182.23 445.381,-185.189"/>
<polygon fill="midnightblue" stroke="midnightblue" points="444.096,-188.462 454.599,-189.855 447.257,-182.217 444.096,-188.462"/>
</g>
<!-- Node10 -->
<g id="node10" class="node"><title>Node10</title>
<g id="a_node10"><a xlink:href="teensy3__morse__bsp_8cpp.html#a6f674d5b9985ea3a7eeb0df299c2e405" target="_top" xlink:title="pollEarphonePresent">
<polygon fill="white" stroke="black" points="562,-95.0455 562,-114.046 669,-114.046 669,-95.0455 562,-95.0455"/>
<text text-anchor="middle" x="615.5" y="-102.046" font-family="Helvetica,sans-Serif" font-size="10.00">pollEarphonePresent</text>
</a>
</g>
</g>
<!-- Node9&#45;&gt;Node10 -->
<g id="edge9" class="edge"><title>Node9&#45;&gt;Node10</title>
<path fill="none" stroke="midnightblue" d="M496.734,-54.3224C505.652,-57.7669 516.487,-62.1474 526,-66.5455 542.422,-74.1378 545.454,-78.2275 562,-85.5455 566.527,-87.5476 571.336,-89.507 576.136,-91.3609"/>
<polygon fill="midnightblue" stroke="midnightblue" points="575.287,-94.7799 585.879,-94.9984 577.735,-88.222 575.287,-94.7799"/>
</g>
<!-- Node11 -->
<g id="node11" class="node"><title>Node11</title>
<g id="a_node11"><a xlink:href="teensy3__morse__bsp_8cpp.html#a2d6b4ace33ed5e497dedd03217540c63" target="_top" xlink:title="Set the PWM frequency for the audio output pins. ">
<polygon fill="white" stroke="black" points="574,-57.0455 574,-76.0455 657,-76.0455 657,-57.0455 574,-57.0455"/>
<text text-anchor="middle" x="615.5" y="-64.0455" font-family="Helvetica,sans-Serif" font-size="10.00">pwmFrequency</text>
</a>
</g>
</g>
<!-- Node9&#45;&gt;Node11 -->
<g id="edge10" class="edge"><title>Node9&#45;&gt;Node11</title>
<path fill="none" stroke="midnightblue" d="M496.56,-50.0686C513.617,-52.4516 540.017,-56.1398 563.519,-59.4232"/>
<polygon fill="midnightblue" stroke="midnightblue" points="563.334,-62.9313 573.722,-60.8486 564.303,-55.9986 563.334,-62.9313"/>
</g>
<!-- Node12 -->
<g id="node12" class="node"><title>Node12</title>
<g id="a_node12"><a xlink:href="teensy3__morse__bsp_8cpp.html#a82911eac3bf13d6f36d10102a4c4d3c4" target="_top" xlink:title="Generate a tone on the audio output pins. ">
<polygon fill="white" stroke="black" points="585,-19.0455 585,-38.0455 646,-38.0455 646,-19.0455 585,-19.0455"/>
<text text-anchor="middle" x="615.5" y="-26.0455" font-family="Helvetica,sans-Serif" font-size="10.00">pwmWrite</text>
</a>
</g>
</g>
<!-- Node9&#45;&gt;Node12 -->
<g id="edge11" class="edge"><title>Node9&#45;&gt;Node12</title>
<path fill="none" stroke="midnightblue" d="M496.56,-45.0225C516.462,-42.2421 549.083,-37.6847 574.979,-34.0669"/>
<polygon fill="midnightblue" stroke="midnightblue" points="575.471,-37.5322 584.89,-32.6822 574.502,-30.5995 575.471,-37.5322"/>
</g>
<!-- Node14 -->
<g id="node14" class="node"><title>Node14</title>
<g id="a_node14"><a xlink:href="teensy3__morse__bsp_8cpp.html#a6c982a7d7805f1dd5426eb98c915cfdd" target="_top" xlink:title="Turn the red LED on (1) or off (0). ">
<polygon fill="white" stroke="black" points="590.5,-133.046 590.5,-152.046 640.5,-152.046 640.5,-133.046 590.5,-133.046"/>
<text text-anchor="middle" x="615.5" y="-140.046" font-family="Helvetica,sans-Serif" font-size="10.00">redLED</text>
</a>
</g>
</g>
<!-- Node9&#45;&gt;Node14 -->
<g id="edge13" class="edge"><title>Node9&#45;&gt;Node14</title>
<path fill="none" stroke="midnightblue" d="M496.61,-51.8721C506.125,-54.8233 517.534,-59.5012 526,-66.5455 549.032,-85.7102 538.652,-104.767 562,-123.546 567.481,-127.954 574.072,-131.389 580.705,-134.05"/>
<polygon fill="midnightblue" stroke="midnightblue" points="579.732,-137.417 590.327,-137.416 582.044,-130.81 579.732,-137.417"/>
</g>
<!-- Node13 -->
<g id="node13" class="node"><title>Node13</title>
<g id="a_node13"><a xlink:href="teensy3__morse__bsp_8cpp.html#ac70998cee1bf97f00aec4a1b4e5a4f60" target="_top" xlink:title="isEarphonePresent">
<polygon fill="white" stroke="black" points="714.5,-19.0455 714.5,-38.0455 813.5,-38.0455 813.5,-19.0455 714.5,-19.0455"/>
<text text-anchor="middle" x="764" y="-26.0455" font-family="Helvetica,sans-Serif" font-size="10.00">isEarphonePresent</text>
</a>
</g>
</g>
<!-- Node12&#45;&gt;Node13 -->
<g id="edge12" class="edge"><title>Node12&#45;&gt;Node13</title>
<path fill="none" stroke="midnightblue" d="M646.146,-28.5455C662.807,-28.5455 684.199,-28.5455 704.116,-28.5455"/>
<polygon fill="midnightblue" stroke="midnightblue" points="704.364,-32.0456 714.364,-28.5455 704.364,-25.0456 704.364,-32.0456"/>
</g>
<!-- Node18 -->
<g id="node18" class="node"><title>Node18</title>
<g id="a_node18"><a xlink:href="libmorse_8cpp.html#a0ee2308940264ea9ac8e50afc1a4d285" target="_top" xlink:title="txString">
<polygon fill="white" stroke="black" points="590.5,-206.046 590.5,-225.046 640.5,-225.046 640.5,-206.046 590.5,-206.046"/>
<text text-anchor="middle" x="615.5" y="-213.046" font-family="Helvetica,sans-Serif" font-size="10.00">txString</text>
</a>
</g>
</g>
<!-- Node17&#45;&gt;Node18 -->
<g id="edge17" class="edge"><title>Node17&#45;&gt;Node18</title>
<path fill="none" stroke="midnightblue" d="M500.653,-202.152C522.124,-204.678 555.008,-208.546 579.923,-211.478"/>
<polygon fill="midnightblue" stroke="midnightblue" points="579.717,-214.977 590.057,-212.67 580.535,-208.025 579.717,-214.977"/>
</g>
<!-- Node18&#45;&gt;Node2 -->
<g id="edge22" class="edge"><title>Node18&#45;&gt;Node2</title>
<path fill="none" stroke="midnightblue" d="M629.89,-225.121C646.88,-237.047 677.313,-257.661 705,-272.546 766.93,-305.839 842.908,-337.191 886.261,-354.24"/>
<polygon fill="midnightblue" stroke="midnightblue" points="885.188,-357.578 895.776,-357.958 887.736,-351.058 885.188,-357.578"/>
</g>
<!-- Node18&#45;&gt;Node3 -->
<g id="edge23" class="edge"><title>Node18&#45;&gt;Node3</title>
<path fill="none" stroke="midnightblue" d="M590.466,-221.274C572.67,-225.51 547.827,-231.409 526,-236.546 406.053,-264.77 371.656,-257.028 256,-299.546 241.203,-304.985 225.504,-312.908 212.923,-319.84"/>
<polygon fill="midnightblue" stroke="midnightblue" points="210.964,-316.927 203.976,-324.891 214.405,-323.023 210.964,-316.927"/>
</g>
<!-- Node18&#45;&gt;Node4 -->
<g id="edge18" class="edge"><title>Node18&#45;&gt;Node4</title>
<path fill="none" stroke="midnightblue" d="M626.924,-205.912C642.509,-192.238 673.441,-167.829 705,-158.546 765.683,-140.695 839.762,-154.463 883.508,-166.033"/>
<polygon fill="midnightblue" stroke="midnightblue" points="882.852,-169.482 893.422,-168.756 884.706,-162.732 882.852,-169.482"/>
</g>
<!-- Node18&#45;&gt;Node6 -->
<g id="edge21" class="edge"><title>Node18&#45;&gt;Node6</title>
<path fill="none" stroke="midnightblue" d="M590.435,-217.397C542.928,-220.8 433.74,-227.361 342,-223.546 333.702,-223.2 324.775,-222.588 316.41,-221.907"/>
<polygon fill="midnightblue" stroke="midnightblue" points="316.467,-218.399 306.202,-221.023 315.863,-225.373 316.467,-218.399"/>
</g>
<!-- Node18&#45;&gt;Node7 -->
<g id="edge20" class="edge"><title>Node18&#45;&gt;Node7</title>
<path fill="none" stroke="midnightblue" d="M590.909,-205.998C573.122,-198.852 548.097,-188.911 526,-180.546 483.792,-164.566 434.872,-147.011 402.893,-135.665"/>
<polygon fill="midnightblue" stroke="midnightblue" points="403.73,-132.248 393.135,-132.209 401.393,-138.847 403.73,-132.248"/>
</g>
<!-- Node18&#45;&gt;Node16 -->
<g id="edge19" class="edge"><title>Node18&#45;&gt;Node16</title>
<path fill="none" stroke="midnightblue" d="M625.767,-206.036C647.606,-183.639 700.784,-129.171 705,-125.546 715.899,-116.173 728.784,-106.699 739.639,-99.1268"/>
<polygon fill="midnightblue" stroke="midnightblue" points="741.926,-101.802 748.19,-93.2579 737.965,-96.0306 741.926,-101.802"/>
</g>
<!-- Node19 -->
<g id="node19" class="node"><title>Node19</title>
<g id="a_node19"><a xlink:href="actions_8cpp.html#aed718ec1bd4cc7adb2f65d40a6784496" target="_top" xlink:title="Transmit the internal temperature in integer in Fahrenheit. ">
<polygon fill="white" stroke="black" points="705,-358.046 705,-377.046 823,-377.046 823,-358.046 705,-358.046"/>
<text text-anchor="middle" x="764" y="-365.046" font-family="Helvetica,sans-Serif" font-size="10.00">txInternalTemperatureF</text>
</a>
</g>
</g>
<!-- Node18&#45;&gt;Node19 -->
<g id="edge24" class="edge"><title>Node18&#45;&gt;Node19</title>
<path fill="none" stroke="midnightblue" d="M620.822,-225.303C631.681,-248.796 662.324,-309.099 705,-343.546 709.953,-347.543 715.665,-350.966 721.531,-353.868"/>
<polygon fill="midnightblue" stroke="midnightblue" points="720.233,-357.122 730.791,-358.008 723.09,-350.731 720.233,-357.122"/>
</g>
<!-- Node20 -->
<g id="node20" class="node"><title>Node20</title>
<g id="a_node20"><a xlink:href="actions_8cpp.html#aaabb3ac0c23f35a499bc17efe829f326" target="_top" xlink:title="Transmit the 24&#45;hr time. ">
<polygon fill="white" stroke="black" points="725,-206.046 725,-225.046 803,-225.046 803,-206.046 725,-206.046"/>
<text text-anchor="middle" x="764" y="-213.046" font-family="Helvetica,sans-Serif" font-size="10.00">txTimeHHMM</text>
</a>
</g>
</g>
<!-- Node18&#45;&gt;Node20 -->
<g id="edge27" class="edge"><title>Node18&#45;&gt;Node20</title>
<path fill="none" stroke="midnightblue" d="M640.691,-210.379C660.674,-208.825 689.67,-208.415 714.415,-209.148"/>
<polygon fill="midnightblue" stroke="midnightblue" points="714.598,-212.657 724.721,-209.532 714.858,-205.662 714.598,-212.657"/>
</g>
<!-- Node21 -->
<g id="node21" class="node"><title>Node21</title>
<g id="a_node21"><a xlink:href="actions_8cpp.html#ad02149679fa3cc6a4957d1a318408ffd" target="_top" xlink:title="Transmit the uptime. ">
<polygon fill="white" stroke="black" points="736,-396.046 736,-415.046 792,-415.046 792,-396.046 736,-396.046"/>
<text text-anchor="middle" x="764" y="-403.046" font-family="Helvetica,sans-Serif" font-size="10.00">txUptime</text>
</a>
</g>
</g>
<!-- Node18&#45;&gt;Node21 -->
<g id="edge29" class="edge"><title>Node18&#45;&gt;Node21</title>
<path fill="none" stroke="midnightblue" d="M618.762,-225.303C625.992,-254.312 651.277,-340.844 705,-386.546 711.129,-391.759 718.725,-395.552 726.379,-398.307"/>
<polygon fill="midnightblue" stroke="midnightblue" points="725.411,-401.671 735.998,-401.272 727.473,-394.982 725.411,-401.671"/>
</g>
<!-- Node23 -->
<g id="node23" class="node"><title>Node23</title>
<g id="a_node23"><a xlink:href="teensy3__morse__bsp_8cpp.html#ae8dd28759e56dbd2ee9bc9ae96d1783c" target="_top" xlink:title="Return the most recent ADC measurement of the input voltage. Perform analog to digital conversion on ...">
<polygon fill="white" stroke="black" points="727,-244.046 727,-263.046 801,-263.046 801,-244.046 727,-244.046"/>
<text text-anchor="middle" x="764" y="-251.046" font-family="Helvetica,sans-Serif" font-size="10.00">readMillivolts</text>
</a>
</g>
</g>
<!-- Node18&#45;&gt;Node23 -->
<g id="edge32" class="edge"><title>Node18&#45;&gt;Node23</title>
<path fill="none" stroke="midnightblue" d="M640.691,-221.82C661.426,-227.199 691.867,-235.095 717.191,-241.663"/>
<polygon fill="midnightblue" stroke="midnightblue" points="716.413,-245.077 726.972,-244.2 718.171,-238.302 716.413,-245.077"/>
</g>
<!-- Node27 -->
<g id="node27" class="node"><title>Node27</title>
<g id="a_node27"><a xlink:href="libmorse_8cpp.html#ac3f000c98271c6d0a7710135e18189bc" target="_top" xlink:title="On my hardware there is cross&#45;coupling between the serial port and the touch sensors. Without the code below, long messages to the serial port trigger a touch input. ">
<polygon fill="white" stroke="black" points="731.5,-168.046 731.5,-187.046 796.5,-187.046 796.5,-168.046 731.5,-168.046"/>
<text text-anchor="middle" x="764" y="-175.046" font-family="Helvetica,sans-Serif" font-size="10.00">flushTouch</text>
</a>
</g>
</g>
<!-- Node18&#45;&gt;Node27 -->
<g id="edge36" class="edge"><title>Node18&#45;&gt;Node27</title>
<path fill="none" stroke="midnightblue" d="M640.691,-209.271C662.574,-203.595 695.267,-195.115 721.348,-188.349"/>
<polygon fill="midnightblue" stroke="midnightblue" points="722.543,-191.655 731.344,-185.757 720.786,-184.88 722.543,-191.655"/>
</g>
<!-- Node19&#45;&gt;Node2 -->
<g id="edge25" class="edge"><title>Node19&#45;&gt;Node2</title>
<path fill="none" stroke="midnightblue" d="M823.089,-367.546C831.619,-367.546 840.489,-367.546 849.254,-367.546"/>
<polygon fill="midnightblue" stroke="midnightblue" points="849.467,-371.046 859.467,-367.546 849.467,-364.046 849.467,-371.046"/>
</g>
<!-- Node19&#45;&gt;Node3 -->
<g id="edge26" class="edge"><title>Node19&#45;&gt;Node3</title>
<path fill="none" stroke="midnightblue" d="M704.996,-363.989C647.521,-360.776 556.969,-356.546 478.5,-356.546 366.5,-356.546 366.5,-356.546 366.5,-356.546 319.609,-356.546 266.306,-348.975 230.25,-342.716"/>
<polygon fill="midnightblue" stroke="midnightblue" points="230.558,-339.215 220.1,-340.909 229.332,-346.107 230.558,-339.215"/>
</g>
<!-- Node20&#45;&gt;Node18 -->
<g id="edge28" class="edge"><title>Node20&#45;&gt;Node18</title>
<path fill="none" stroke="midnightblue" d="M724.721,-221.559C701.877,-222.6 673.104,-222.537 650.969,-221.372"/>
<polygon fill="midnightblue" stroke="midnightblue" points="650.895,-217.861 640.691,-220.712 650.446,-224.846 650.895,-217.861"/>
</g>
<!-- Node21&#45;&gt;Node3 -->
<g id="edge31" class="edge"><title>Node21&#45;&gt;Node3</title>
<path fill="none" stroke="midnightblue" d="M735.942,-404.119C685.385,-401.582 573.134,-396.546 478.5,-396.546 366.5,-396.546 366.5,-396.546 366.5,-396.546 309.172,-396.546 246.935,-367.656 213.204,-349.317"/>
<polygon fill="midnightblue" stroke="midnightblue" points="214.52,-346.044 204.081,-344.233 211.112,-352.158 214.52,-346.044"/>
</g>
<!-- Node22 -->
<g id="node22" class="node"><title>Node22</title>
<g id="a_node22"><a xlink:href="settings_8cpp.html#a7b4efa097b94f9a90c5bbafcdf93fe4f" target="_top" xlink:title="getUptime">
<polygon fill="white" stroke="black" points="891,-396.046 891,-415.046 953,-415.046 953,-396.046 891,-396.046"/>
<text text-anchor="middle" x="922" y="-403.046" font-family="Helvetica,sans-Serif" font-size="10.00">getUptime</text>
</a>
</g>
</g>
<!-- Node21&#45;&gt;Node22 -->
<g id="edge30" class="edge"><title>Node21&#45;&gt;Node22</title>
<path fill="none" stroke="midnightblue" d="M792.173,-405.546C816.633,-405.546 852.905,-405.546 880.735,-405.546"/>
<polygon fill="midnightblue" stroke="midnightblue" points="880.945,-409.046 890.945,-405.546 880.945,-402.046 880.945,-409.046"/>
</g>
<!-- Node24 -->
<g id="node24" class="node"><title>Node24</title>
<g id="a_node24"><a xlink:href="class_voltage_monitor.html#a70902b84f9864c95d5553a0644a64f4f" target="_top" xlink:title="Return the latest voltage reading. ">
<polygon fill="white" stroke="black" points="859,-244.046 859,-263.046 985,-263.046 985,-244.046 859,-244.046"/>
<text text-anchor="middle" x="922" y="-251.046" font-family="Helvetica,sans-Serif" font-size="10.00">VoltageMonitor::getValue</text>
</a>
</g>
</g>
<!-- Node23&#45;&gt;Node24 -->
<g id="edge33" class="edge"><title>Node23&#45;&gt;Node24</title>
<path fill="none" stroke="midnightblue" d="M801.182,-253.546C815.344,-253.546 832.117,-253.546 848.56,-253.546"/>
<polygon fill="midnightblue" stroke="midnightblue" points="848.728,-257.046 858.728,-253.546 848.728,-250.046 848.728,-257.046"/>
</g>
<!-- Node25 -->
<g id="node25" class="node"><title>Node25</title>
<g id="a_node25"><a xlink:href="actions_8cpp.html#a2b8c3769e2aa32a2da9e2f3f85ac73dd" target="_top" xlink:title="A sample ADC reading is taken each time through the main loop, and written to a ring buffer...">
<polygon fill="white" stroke="black" points="1023.5,-263.046 1023.5,-282.046 1135.5,-282.046 1135.5,-263.046 1023.5,-263.046"/>
<text text-anchor="middle" x="1079.5" y="-270.046" font-family="Helvetica,sans-Serif" font-size="10.00">getVoltagePollInterval</text>
</a>
</g>
</g>
<!-- Node24&#45;&gt;Node25 -->
<g id="edge34" class="edge"><title>Node24&#45;&gt;Node25</title>
<path fill="none" stroke="midnightblue" d="M985.352,-261.164C994.438,-262.274 1003.82,-263.42 1012.96,-264.538"/>
<polygon fill="midnightblue" stroke="midnightblue" points="1012.81,-268.045 1023.16,-265.784 1013.66,-261.097 1012.81,-268.045"/>
</g>
<!-- Node26 -->
<g id="node26" class="node"><title>Node26</title>
<g id="a_node26"><a xlink:href="class_voltage_monitor.html#a75871331808c34b40d04059ee2af0f27" target="_top" xlink:title="Filter and scale raw ADC values to millivolts. ">
<polygon fill="white" stroke="black" points="1021,-225.046 1021,-244.046 1138,-244.046 1138,-225.046 1021,-225.046"/>
<text text-anchor="middle" x="1079.5" y="-232.046" font-family="Helvetica,sans-Serif" font-size="10.00">VoltageMonitor::update</text>
</a>
</g>
</g>
<!-- Node24&#45;&gt;Node26 -->
<g id="edge35" class="edge"><title>Node24&#45;&gt;Node26</title>
<path fill="none" stroke="midnightblue" d="M985.352,-245.927C993.702,-244.907 1002.3,-243.856 1010.74,-242.825"/>
<polygon fill="midnightblue" stroke="midnightblue" points="1011.42,-246.268 1020.92,-241.581 1010.57,-239.32 1011.42,-246.268"/>
</g>
<!-- Node27&#45;&gt;Node4 -->
<g id="edge37" class="edge"><title>Node27&#45;&gt;Node4</title>
<path fill="none" stroke="midnightblue" d="M796.569,-177.546C821.641,-177.546 856.778,-177.546 883.321,-177.546"/>
<polygon fill="midnightblue" stroke="midnightblue" points="883.394,-181.046 893.394,-177.546 883.394,-174.046 883.394,-181.046"/>
</g>
</g>
</svg>
        <g id="navigator" transform="translate(0 0)" fill="#404254">
                <rect fill="#f2f5e9" fill-opacity="0.5" stroke="#606060" stroke-width=".5" x="0" y="0" width="60" height="60"/>
                <use id="zoomplus" xlink:href="#zoomPlus" x="17" y="9" onmousedown="handleZoom(evt,'in')"/>
                <use id="zoomminus" xlink:href="#zoomMin" x="42" y="9" onmousedown="handleZoom(evt,'out')"/>
                <use id="reset" xlink:href="#resetDef" x="30" y="36" onmousedown="handleReset()"/>
                <g id="arrowUp" xlink:href="#dirArrow" transform="translate(30 24)" onmousedown="handlePan(0,-1)">
                  <use xlink:href="#rim" fill="#404040">
                        <set attributeName="fill" to="#808080" begin="arrowUp.mouseover" end="arrowUp.mouseout"/>
                  </use>
                  <path fill="none" stroke="white" stroke-width="1.5" d="M0,-3.0v7 M-2.5,-0.5L0,-3.0L2.5,-0.5"/>
                </g>
                <g id="arrowRight" xlink:href="#dirArrow" transform="rotate(90) translate(36 -43)" onmousedown="handlePan(1,0)">
                  <use xlink:href="#rim" fill="#404040">
                        <set attributeName="fill" to="#808080" begin="arrowRight.mouseover" end="arrowRight.mouseout"/>
                  </use>
                  <path fill="none" stroke="white" stroke-width="1.5" d="M0,-3.0v7 M-2.5,-0.5L0,-3.0L2.5,-0.5"/>
                </g>
                <g id="arrowDown" xlink:href="#dirArrow" transform="rotate(180) translate(-30 -48)" onmousedown="handlePan(0,1)">
                  <use xlink:href="#rim" fill="#404040">
                        <set attributeName="fill" to="#808080" begin="arrowDown.mouseover" end="arrowDown.mouseout"/>
                  </use>
                  <path fill="none" stroke="white" stroke-width="1.5" d="M0,-3.0v7 M-2.5,-0.5L0,-3.0L2.5,-0.5"/>
                </g>
                <g id="arrowLeft" xlink:href="#dirArrow" transform="rotate(270) translate(-36 17)" onmousedown="handlePan(-1,0)">
                  <use xlink:href="#rim" fill="#404040">
                        <set attributeName="fill" to="#808080" begin="arrowLeft.mouseover" end="arrowLeft.mouseout"/>
                  </use>
                  <path fill="none" stroke="white" stroke-width="1.5" d="M0,-3.0v7 M-2.5,-0.5L0,-3.0L2.5,-0.5"/>
                </g>
        </g>
        <svg viewBox="0 0 15 15" width="100%" height="30px" preserveAspectRatio="xMaxYMin meet">
         <g id="arrow_out" transform="scale(0.3 0.3)">
          <a xlink:href="actions_8h_aa8631f5b2d7b56da3dcb2f14b372a263_cgraph_org.svg" target="_base">
           <rect id="button" ry="5" rx="5" y="6" x="6" height="38" width="38"
                fill="#f2f5e9" fill-opacity="0.5" stroke="#606060" stroke-width="1.0"/>
           <path id="arrow"
             d="M 11.500037,31.436501 C 11.940474,20.09759 22.043105,11.32322 32.158766,21.979434 L 37.068811,17.246167 C 37.068811,17.246167 37.088388,32 37.088388,32 L 22.160133,31.978069 C 22.160133,31.978069 26.997745,27.140456 26.997745,27.140456 C 18.528582,18.264221 13.291696,25.230495 11.500037,31.436501 z"
             style="fill:#404040;"/>
          </a>
         </g>
        </svg>
</svg>
