<?xml version="1.0" encoding="UTF-8" standalone="no"?>
<!DOCTYPE svg PUBLIC "-//W3C//DTD SVG 1.1//EN"
 "http://www.w3.org/Graphics/SVG/1.1/DTD/svg11.dtd">
<!-- Generated by graphviz version 2.38.0 (20140413.2041)
 -->
<!-- Title: txTimeVerbose Pages: 1 -->
<!--zoomable 469 -->
<svg id="main" version="1.1" xmlns="http://www.w3.org/2000/svg" xmlns:xlink="http://www.w3.org/1999/xlink" xml:space="preserve" onload="init(evt)">
<style type="text/css"><![CDATA[
.edge:hover path { stroke: red; }
.edge:hover polygon { stroke: red; fill: red; }
]]></style>
<script type="text/javascript"><![CDATA[
var edges = document.getElementsByTagName('g');
if (edges && edges.length) {
  for (var i=0;i<edges.length;i++) {
    if (edges[i].id.substr(0,4)=='edge') {
      edges[i].setAttribute('class','edge');
    }
  }
}
]]></script>
        <defs>
                <circle id="rim" cx="0" cy="0" r="7"/>
                <circle id="rim2" cx="0" cy="0" r="3.5"/>
                <g id="zoomPlus">
                        <use xlink:href="#rim" fill="#404040">
                                <set attributeName="fill" to="#808080" begin="zoomplus.mouseover" end="zoomplus.mouseout"/>
                        </use>
                        <path d="M-4,0h8M0,-4v8" fill="none" stroke="white" stroke-width="1.5" pointer-events="none"/>
                </g>
                <g id="zoomMin">
                        <use xlink:href="#rim" fill="#404040">
                                <set attributeName="fill" to="#808080" begin="zoomminus.mouseover" end="zoomminus.mouseout"/>
                        </use>
                        <path d="M-4,0h8" fill="none" stroke="white" stroke-width="1.5" pointer-events="none"/>
                </g>
                <g id="dirArrow">
                        <path fill="none" stroke="white" stroke-width="1.5" d="M0,-3.0v7 M-2.5,-0.5L0,-3.0L2.5,-0.5"/>
                </g>
               <g id="resetDef">
                       <use xlink:href="#rim2" fill="#404040">
                               <set attributeName="fill" to="#808080" begin="reset.mouseover" end="reset.mouseout"/>
                       </use>
               </g>
        </defs>

<script type="text/javascript">
var viewWidth = 1163;
var viewHeight = 469;
var sectionId = 'dynsection-61';
</script>
<script xlink:href="svgpan.js"/>
<svg id="graph" class="graph">
<g id="viewport">
<title>txTimeVerbose</title>
<polygon fill="white" stroke="none" points="-4,4 -4,-464.808 1159,-464.808 1159,4 -4,4"/>
<!-- Node1 -->
<g id="node1" class="node"><title>Node1</title>
<polygon fill="#bfbfbf" stroke="black" points="0,-209.5 0,-228.5 83,-228.5 83,-209.5 0,-209.5"/>
<text text-anchor="middle" x="41.5" y="-216.5" font-family="Helvetica,sans-Serif" font-size="10.00">txTimeVerbose</text>
</g>
<!-- Node2 -->
<g id="node2" class="node"><title>Node2</title>
<g id="a_node2"><a xlink:href="libmorse_8cpp.html#a0ee2308940264ea9ac8e50afc1a4d285" target="_top" xlink:title="txString">
<polygon fill="white" stroke="black" points="119,-209.5 119,-228.5 169,-228.5 169,-209.5 119,-209.5"/>
<text text-anchor="middle" x="144" y="-216.5" font-family="Helvetica,sans-Serif" font-size="10.00">txString</text>
</a>
</g>
</g>
<!-- Node1&#45;&gt;Node2 -->
<g id="edge1" class="edge"><title>Node1&#45;&gt;Node2</title>
<path fill="none" stroke="midnightblue" d="M83.0875,-219C91.5911,-219 100.478,-219 108.725,-219"/>
<polygon fill="midnightblue" stroke="midnightblue" points="108.751,-222.5 118.751,-219 108.751,-215.5 108.751,-222.5"/>
</g>
<!-- Node3 -->
<g id="node3" class="node"><title>Node3</title>
<g id="a_node3"><a xlink:href="teensy3__morse__bsp_8cpp.html#ab306f692c5c9455a0c82782a67ff0147" target="_top" xlink:title="touchPoll">
<polygon fill="white" stroke="black" points="551,-399.5 551,-418.5 608,-418.5 608,-399.5 551,-399.5"/>
<text text-anchor="middle" x="579.5" y="-406.5" font-family="Helvetica,sans-Serif" font-size="10.00">touchPoll</text>
</a>
</g>
</g>
<!-- Node2&#45;&gt;Node3 -->
<g id="edge2" class="edge"><title>Node2&#45;&gt;Node3</title>
<path fill="none" stroke="midnightblue" d="M144.512,-228.838C143.48,-261.634 145.059,-367.878 205,-416 305.262,-496.493 474.23,-448.118 545.361,-422.197"/>
<polygon fill="midnightblue" stroke="midnightblue" points="546.981,-425.328 555.126,-418.553 544.533,-418.77 546.981,-425.328"/>
</g>
<!-- Node5 -->
<g id="node5" class="node"><title>Node5</title>
<g id="a_node5"><a xlink:href="settings_8cpp.html#a960551e90dfdad18f3c9b1338ccba7db" target="_top" xlink:title="Get the dit duration in microseconds. ">
<polygon fill="white" stroke="black" points="792.5,-323.5 792.5,-342.5 864.5,-342.5 864.5,-323.5 792.5,-323.5"/>
<text text-anchor="middle" x="828.5" y="-330.5" font-family="Helvetica,sans-Serif" font-size="10.00">getDitMicros</text>
</a>
</g>
</g>
<!-- Node2&#45;&gt;Node5 -->
<g id="edge4" class="edge"><title>Node2&#45;&gt;Node5</title>
<path fill="none" stroke="midnightblue" d="M146.103,-228.782C149.528,-254.08 162.45,-321.792 205,-352 283.581,-407.788 324.629,-371 421,-371 421,-371 421,-371 580.5,-371 651.587,-371 732.858,-355.434 782.157,-344.227"/>
<polygon fill="midnightblue" stroke="midnightblue" points="783.223,-347.573 792.177,-341.909 781.645,-340.753 783.223,-347.573"/>
</g>
<!-- Node6 -->
<g id="node6" class="node"><title>Node6</title>
<g id="a_node6"><a xlink:href="libmorse_8cpp.html#a9fdfce728595d72b78dc7c834ab99a40" target="_top" xlink:title="Transmit a literal Morse code value. ">
<polygon fill="white" stroke="black" points="683.5,-171.5 683.5,-190.5 734.5,-190.5 734.5,-171.5 683.5,-171.5"/>
<text text-anchor="middle" x="709" y="-178.5" font-family="Helvetica,sans-Serif" font-size="10.00">txLiteral</text>
</a>
</g>
</g>
<!-- Node2&#45;&gt;Node6 -->
<g id="edge5" class="edge"><title>Node2&#45;&gt;Node6</title>
<path fill="none" stroke="midnightblue" d="M169.191,-217.367C258.317,-211.352 568.582,-190.41 673.228,-183.347"/>
<polygon fill="midnightblue" stroke="midnightblue" points="673.523,-186.835 683.265,-182.67 673.052,-179.851 673.523,-186.835"/>
</g>
<!-- Node16 -->
<g id="node16" class="node"><title>Node16</title>
<g id="a_node16"><a xlink:href="libmorse_8cpp.html#acd4b292f5e412ee4f05aed9dafbc072d" target="_top" xlink:title="Convert an ASCII character into Morse code and transmit it. ">
<polygon fill="white" stroke="black" points="554.5,-133.5 554.5,-152.5 604.5,-152.5 604.5,-133.5 554.5,-133.5"/>
<text text-anchor="middle" x="579.5" y="-140.5" font-family="Helvetica,sans-Serif" font-size="10.00">txLetter</text>
</a>
</g>
</g>
<!-- Node2&#45;&gt;Node16 -->
<g id="edge17" class="edge"><title>Node2&#45;&gt;Node16</title>
<path fill="none" stroke="midnightblue" d="M152.694,-209.213C163.065,-196.852 182.808,-176.099 205,-167 321.702,-119.148 476.171,-130.066 544.033,-138.14"/>
<polygon fill="midnightblue" stroke="midnightblue" points="543.806,-141.639 554.162,-139.403 544.671,-134.693 543.806,-141.639"/>
</g>
<!-- Node17 -->
<g id="node17" class="node"><title>Node17</title>
<g id="a_node17"><a xlink:href="teensy3__morse__bsp_8cpp.html#a8761e874366e227690fba2964e1bc445" target="_top" xlink:title="getInternalTemperatureC">
<polygon fill="white" stroke="black" points="359.5,-228.5 359.5,-247.5 484.5,-247.5 484.5,-228.5 359.5,-228.5"/>
<text text-anchor="middle" x="422" y="-235.5" font-family="Helvetica,sans-Serif" font-size="10.00">getInternalTemperatureC</text>
</a>
</g>
</g>
<!-- Node2&#45;&gt;Node17 -->
<g id="edge20" class="edge"><title>Node2&#45;&gt;Node17</title>
<path fill="none" stroke="midnightblue" d="M169.01,-220.653C208.745,-223.388 289.691,-228.961 349.162,-233.055"/>
<polygon fill="midnightblue" stroke="midnightblue" points="349.039,-236.554 359.256,-233.749 349.52,-229.571 349.039,-236.554"/>
</g>
<!-- Node18 -->
<g id="node18" class="node"><title>Node18</title>
<g id="a_node18"><a xlink:href="libmorse_8cpp.html#a47abdd74b66d7180c47d192bab8bdccb" target="_top" xlink:title="Transmit an unsigned integer in Morse code. ">
<polygon fill="white" stroke="black" points="389,-285.5 389,-304.5 455,-304.5 455,-285.5 389,-285.5"/>
<text text-anchor="middle" x="422" y="-292.5" font-family="Helvetica,sans-Serif" font-size="10.00">txUnsigned</text>
</a>
</g>
</g>
<!-- Node2&#45;&gt;Node18 -->
<g id="edge21" class="edge"><title>Node2&#45;&gt;Node18</title>
<path fill="none" stroke="midnightblue" d="M151.823,-228.721C161.786,-242.035 181.687,-265.484 205,-276 261.19,-301.346 333.869,-302.041 378.955,-299.251"/>
<polygon fill="midnightblue" stroke="midnightblue" points="379.239,-302.74 388.968,-298.545 378.747,-295.757 379.239,-302.74"/>
</g>
<!-- Node19 -->
<g id="node19" class="node"><title>Node19</title>
<g id="a_node19"><a xlink:href="actions_8cpp.html#aed718ec1bd4cc7adb2f65d40a6784496" target="_top" xlink:title="Transmit the internal temperature in integer in Fahrenheit. ">
<polygon fill="white" stroke="black" points="205,-247.5 205,-266.5 323,-266.5 323,-247.5 205,-247.5"/>
<text text-anchor="middle" x="264" y="-254.5" font-family="Helvetica,sans-Serif" font-size="10.00">txInternalTemperatureF</text>
</a>
</g>
</g>
<!-- Node2&#45;&gt;Node19 -->
<g id="edge24" class="edge"><title>Node2&#45;&gt;Node19</title>
<path fill="none" stroke="midnightblue" d="M169.164,-226.782C184.866,-231.838 205.696,-238.546 223.742,-244.358"/>
<polygon fill="midnightblue" stroke="midnightblue" points="222.839,-247.744 233.431,-247.478 224.985,-241.081 222.839,-247.744"/>
</g>
<!-- Node20 -->
<g id="node20" class="node"><title>Node20</title>
<g id="a_node20"><a xlink:href="actions_8cpp.html#aaabb3ac0c23f35a499bc17efe829f326" target="_top" xlink:title="Transmit the 24&#45;hr time. ">
<polygon fill="white" stroke="black" points="225,-57.5 225,-76.5 303,-76.5 303,-57.5 225,-57.5"/>
<text text-anchor="middle" x="264" y="-64.5" font-family="Helvetica,sans-Serif" font-size="10.00">txTimeHHMM</text>
</a>
</g>
</g>
<!-- Node2&#45;&gt;Node20 -->
<g id="edge27" class="edge"><title>Node2&#45;&gt;Node20</title>
<path fill="none" stroke="midnightblue" d="M146.188,-209.338C150.457,-183.957 166.84,-118.444 205,-82 208.28,-78.8671 212.027,-76.1185 216.003,-73.7508"/>
<polygon fill="midnightblue" stroke="midnightblue" points="217.658,-76.8353 224.977,-69.1743 214.478,-70.5993 217.658,-76.8353"/>
</g>
<!-- Node21 -->
<g id="node21" class="node"><title>Node21</title>
<g id="a_node21"><a xlink:href="actions_8cpp.html#ad02149679fa3cc6a4957d1a318408ffd" target="_top" xlink:title="Transmit the uptime. ">
<polygon fill="white" stroke="black" points="236,-323.5 236,-342.5 292,-342.5 292,-323.5 236,-323.5"/>
<text text-anchor="middle" x="264" y="-330.5" font-family="Helvetica,sans-Serif" font-size="10.00">txUptime</text>
</a>
</g>
</g>
<!-- Node2&#45;&gt;Node21 -->
<g id="edge29" class="edge"><title>Node2&#45;&gt;Node21</title>
<path fill="none" stroke="midnightblue" d="M149.151,-228.772C157.318,-246.934 177.137,-286.117 205,-309 211.277,-314.155 218.815,-318.342 226.348,-321.689"/>
<polygon fill="midnightblue" stroke="midnightblue" points="225.208,-325.003 235.791,-325.488 227.82,-318.508 225.208,-325.003"/>
</g>
<!-- Node23 -->
<g id="node23" class="node"><title>Node23</title>
<g id="a_node23"><a xlink:href="teensy3__morse__bsp_8cpp.html#ae8dd28759e56dbd2ee9bc9ae96d1783c" target="_top" xlink:title="Return the most recent ADC measurement of the input voltage. Perform analog to digital conversion on ...">
<polygon fill="white" stroke="black" points="227,-19.5 227,-38.5 301,-38.5 301,-19.5 227,-19.5"/>
<text text-anchor="middle" x="264" y="-26.5" font-family="Helvetica,sans-Serif" font-size="10.00">readMillivolts</text>
</a>
</g>
</g>
<!-- Node2&#45;&gt;Node23 -->
<g id="edge32" class="edge"><title>Node2&#45;&gt;Node23</title>
<path fill="none" stroke="midnightblue" d="M145.514,-209.312C147.566,-180.496 157.571,-94.4483 205,-48 208.551,-44.5225 212.748,-41.6814 217.235,-39.3603"/>
<polygon fill="midnightblue" stroke="midnightblue" points="218.924,-42.4442 226.738,-35.289 216.168,-36.0098 218.924,-42.4442"/>
</g>
<!-- Node27 -->
<g id="node27" class="node"><title>Node27</title>
<g id="a_node27"><a xlink:href="libmorse_8cpp.html#ac3f000c98271c6d0a7710135e18189bc" target="_top" xlink:title="On my hardware there is cross&#45;coupling between the serial port and the touch sensors. Without the code below, long messages to the serial port trigger a touch input. ">
<polygon fill="white" stroke="black" points="389.5,-399.5 389.5,-418.5 454.5,-418.5 454.5,-399.5 389.5,-399.5"/>
<text text-anchor="middle" x="422" y="-406.5" font-family="Helvetica,sans-Serif" font-size="10.00">flushTouch</text>
</a>
</g>
</g>
<!-- Node2&#45;&gt;Node27 -->
<g id="edge36" class="edge"><title>Node2&#45;&gt;Node27</title>
<path fill="none" stroke="midnightblue" d="M145.202,-228.875C146.384,-258.162 154.211,-344.984 205,-385 254.7,-424.158 331.973,-422.313 379.369,-416.381"/>
<polygon fill="midnightblue" stroke="midnightblue" points="379.863,-419.846 389.297,-415.023 378.915,-412.91 379.863,-419.846"/>
</g>
<!-- Node4 -->
<g id="node4" class="node"><title>Node4</title>
<g id="a_node4"><a xlink:href="teensy3__morse__bsp_8cpp.html#af6899cd9b83df54106b259ab81ea5cb2" target="_top" xlink:title="touchMargin">
<polygon fill="white" stroke="black" points="674,-399.5 674,-418.5 744,-418.5 744,-399.5 674,-399.5"/>
<text text-anchor="middle" x="709" y="-406.5" font-family="Helvetica,sans-Serif" font-size="10.00">touchMargin</text>
</a>
</g>
</g>
<!-- Node3&#45;&gt;Node4 -->
<g id="edge3" class="edge"><title>Node3&#45;&gt;Node4</title>
<path fill="none" stroke="midnightblue" d="M608.166,-409C624.281,-409 644.984,-409 663.355,-409"/>
<polygon fill="midnightblue" stroke="midnightblue" points="663.562,-412.5 673.562,-409 663.562,-405.5 663.562,-412.5"/>
</g>
<!-- Node6&#45;&gt;Node5 -->
<g id="edge14" class="edge"><title>Node6&#45;&gt;Node5</title>
<path fill="none" stroke="midnightblue" d="M717.35,-190.508C736.638,-215.46 788.93,-283.106 813.888,-315.392"/>
<polygon fill="midnightblue" stroke="midnightblue" points="811.268,-317.724 820.153,-323.495 816.806,-313.443 811.268,-317.724"/>
</g>
<!-- Node7 -->
<g id="node7" class="node"><title>Node7</title>
<g id="a_node7"><a xlink:href="class_morse_token.html#a48cd72aeb868391449d1f51c1d0bf5cc" target="_top" xlink:title="Treat code == 0 as the error token. ">
<polygon fill="white" stroke="black" points="780,-152.5 780,-171.5 877,-171.5 877,-152.5 780,-152.5"/>
<text text-anchor="middle" x="828.5" y="-159.5" font-family="Helvetica,sans-Serif" font-size="10.00">MorseToken::valid</text>
</a>
</g>
</g>
<!-- Node6&#45;&gt;Node7 -->
<g id="edge6" class="edge"><title>Node6&#45;&gt;Node7</title>
<path fill="none" stroke="midnightblue" d="M734.632,-177.017C744.933,-175.351 757.376,-173.339 769.759,-171.337"/>
<polygon fill="midnightblue" stroke="midnightblue" points="770.322,-174.791 779.635,-169.74 769.205,-167.881 770.322,-174.791"/>
</g>
<!-- Node8 -->
<g id="node8" class="node"><title>Node8</title>
<g id="a_node8"><a xlink:href="teensy3__morse__bsp_8cpp.html#af66e71e3fac9b6a2c6532bc8a513bfde" target="_top" xlink:title="Output a square wave on pin 10 at the given frequency for the given duration. ">
<polygon fill="white" stroke="black" points="809.5,-228.5 809.5,-247.5 847.5,-247.5 847.5,-228.5 809.5,-228.5"/>
<text text-anchor="middle" x="828.5" y="-235.5" font-family="Helvetica,sans-Serif" font-size="10.00">beep</text>
</a>
</g>
</g>
<!-- Node6&#45;&gt;Node8 -->
<g id="edge7" class="edge"><title>Node6&#45;&gt;Node8</title>
<path fill="none" stroke="midnightblue" d="M726.408,-190.616C740.419,-198.654 761.224,-210.185 780,-219 786.226,-221.923 793.031,-224.816 799.496,-227.43"/>
<polygon fill="midnightblue" stroke="midnightblue" points="798.656,-230.861 809.243,-231.272 801.223,-224.348 798.656,-230.861"/>
</g>
<!-- Node14 -->
<g id="node14" class="node"><title>Node14</title>
<g id="a_node14"><a xlink:href="settings_8cpp.html#a8575b9b52638114a4f32d1462cf9b7c1" target="_top" xlink:title="Get the transmission frequency (side tone). ">
<polygon fill="white" stroke="black" points="801.5,-190.5 801.5,-209.5 855.5,-209.5 855.5,-190.5 801.5,-190.5"/>
<text text-anchor="middle" x="828.5" y="-197.5" font-family="Helvetica,sans-Serif" font-size="10.00">getTxHz</text>
</a>
</g>
</g>
<!-- Node6&#45;&gt;Node14 -->
<g id="edge13" class="edge"><title>Node6&#45;&gt;Node14</title>
<path fill="none" stroke="midnightblue" d="M734.632,-184.983C751.022,-187.633 772.833,-191.16 791.199,-194.13"/>
<polygon fill="midnightblue" stroke="midnightblue" points="790.838,-197.617 801.269,-195.758 791.956,-190.707 790.838,-197.617"/>
</g>
<!-- Node15 -->
<g id="node15" class="node"><title>Node15</title>
<g id="a_node15"><a xlink:href="libmorse_8cpp.html#ab94e088615119d1faae7df22ce50aedf" target="_top" xlink:title="Transmit a Morse code prosign indicating an error. ">
<polygon fill="white" stroke="black" points="805.5,-114.5 805.5,-133.5 851.5,-133.5 851.5,-114.5 805.5,-114.5"/>
<text text-anchor="middle" x="828.5" y="-121.5" font-family="Helvetica,sans-Serif" font-size="10.00">txError</text>
</a>
</g>
</g>
<!-- Node6&#45;&gt;Node15 -->
<g id="edge15" class="edge"><title>Node6&#45;&gt;Node15</title>
<path fill="none" stroke="midnightblue" d="M726.408,-171.384C740.419,-163.346 761.224,-151.815 780,-143 785.025,-140.641 790.427,-138.301 795.724,-136.112"/>
<polygon fill="midnightblue" stroke="midnightblue" points="797.068,-139.344 805.038,-132.363 794.454,-132.85 797.068,-139.344"/>
</g>
<!-- Node9 -->
<g id="node9" class="node"><title>Node9</title>
<g id="a_node9"><a xlink:href="teensy3__morse__bsp_8cpp.html#a6f674d5b9985ea3a7eeb0df299c2e405" target="_top" xlink:title="pollEarphonePresent">
<polygon fill="white" stroke="black" points="913,-285.5 913,-304.5 1020,-304.5 1020,-285.5 913,-285.5"/>
<text text-anchor="middle" x="966.5" y="-292.5" font-family="Helvetica,sans-Serif" font-size="10.00">pollEarphonePresent</text>
</a>
</g>
</g>
<!-- Node8&#45;&gt;Node9 -->
<g id="edge8" class="edge"><title>Node8&#45;&gt;Node9</title>
<path fill="none" stroke="midnightblue" d="M847.561,-246.725C864.352,-254.715 890.14,-266.679 913,-276 917.868,-277.985 923.03,-279.981 928.142,-281.896"/>
<polygon fill="midnightblue" stroke="midnightblue" points="927.229,-285.289 937.823,-285.451 929.642,-278.718 927.229,-285.289"/>
</g>
<!-- Node10 -->
<g id="node10" class="node"><title>Node10</title>
<g id="a_node10"><a xlink:href="teensy3__morse__bsp_8cpp.html#a2d6b4ace33ed5e497dedd03217540c63" target="_top" xlink:title="Set the PWM frequency for the audio output pins. ">
<polygon fill="white" stroke="black" points="925,-247.5 925,-266.5 1008,-266.5 1008,-247.5 925,-247.5"/>
<text text-anchor="middle" x="966.5" y="-254.5" font-family="Helvetica,sans-Serif" font-size="10.00">pwmFrequency</text>
</a>
</g>
</g>
<!-- Node8&#45;&gt;Node10 -->
<g id="edge9" class="edge"><title>Node8&#45;&gt;Node10</title>
<path fill="none" stroke="midnightblue" d="M847.56,-240.523C864.617,-242.906 891.017,-246.594 914.519,-249.878"/>
<polygon fill="midnightblue" stroke="midnightblue" points="914.334,-253.386 924.722,-251.303 915.303,-246.453 914.334,-253.386"/>
</g>
<!-- Node11 -->
<g id="node11" class="node"><title>Node11</title>
<g id="a_node11"><a xlink:href="teensy3__morse__bsp_8cpp.html#a82911eac3bf13d6f36d10102a4c4d3c4" target="_top" xlink:title="Generate a tone on the audio output pins. ">
<polygon fill="white" stroke="black" points="936,-209.5 936,-228.5 997,-228.5 997,-209.5 936,-209.5"/>
<text text-anchor="middle" x="966.5" y="-216.5" font-family="Helvetica,sans-Serif" font-size="10.00">pwmWrite</text>
</a>
</g>
</g>
<!-- Node8&#45;&gt;Node11 -->
<g id="edge10" class="edge"><title>Node8&#45;&gt;Node11</title>
<path fill="none" stroke="midnightblue" d="M847.56,-235.477C867.462,-232.697 900.083,-228.139 925.979,-224.521"/>
<polygon fill="midnightblue" stroke="midnightblue" points="926.471,-227.987 935.89,-223.137 925.502,-221.054 926.471,-227.987"/>
</g>
<!-- Node13 -->
<g id="node13" class="node"><title>Node13</title>
<g id="a_node13"><a xlink:href="teensy3__morse__bsp_8cpp.html#a6c982a7d7805f1dd5426eb98c915cfdd" target="_top" xlink:title="Turn the red LED on (1) or off (0). ">
<polygon fill="white" stroke="black" points="941.5,-171.5 941.5,-190.5 991.5,-190.5 991.5,-171.5 941.5,-171.5"/>
<text text-anchor="middle" x="966.5" y="-178.5" font-family="Helvetica,sans-Serif" font-size="10.00">redLED</text>
</a>
</g>
</g>
<!-- Node8&#45;&gt;Node13 -->
<g id="edge12" class="edge"><title>Node8&#45;&gt;Node13</title>
<path fill="none" stroke="midnightblue" d="M847.734,-231.223C856.652,-227.779 867.487,-223.398 877,-219 893.422,-211.408 896.454,-207.318 913,-200 918.992,-197.35 925.48,-194.774 931.784,-192.419"/>
<polygon fill="midnightblue" stroke="midnightblue" points="933.232,-195.617 941.442,-188.92 930.847,-189.036 933.232,-195.617"/>
</g>
<!-- Node12 -->
<g id="node12" class="node"><title>Node12</title>
<g id="a_node12"><a xlink:href="teensy3__morse__bsp_8cpp.html#ac70998cee1bf97f00aec4a1b4e5a4f60" target="_top" xlink:title="isEarphonePresent">
<polygon fill="white" stroke="black" points="1056,-209.5 1056,-228.5 1155,-228.5 1155,-209.5 1056,-209.5"/>
<text text-anchor="middle" x="1105.5" y="-216.5" font-family="Helvetica,sans-Serif" font-size="10.00">isEarphonePresent</text>
</a>
</g>
</g>
<!-- Node11&#45;&gt;Node12 -->
<g id="edge11" class="edge"><title>Node11&#45;&gt;Node12</title>
<path fill="none" stroke="midnightblue" d="M997.227,-219C1011.43,-219 1028.96,-219 1045.7,-219"/>
<polygon fill="midnightblue" stroke="midnightblue" points="1045.98,-222.5 1055.98,-219 1045.98,-215.5 1045.98,-222.5"/>
</g>
<!-- Node15&#45;&gt;Node2 -->
<g id="edge16" class="edge"><title>Node15&#45;&gt;Node2</title>
<path fill="none" stroke="midnightblue" d="M805.403,-121.156C762.252,-115.855 663.722,-105 580.5,-105 421,-105 421,-105 421,-105 324.139,-105 287.839,-83.8021 205,-134 179.611,-149.385 162.092,-180.05 152.802,-200.034"/>
<polygon fill="midnightblue" stroke="midnightblue" points="149.516,-198.81 148.696,-209.373 155.924,-201.627 149.516,-198.81"/>
</g>
<!-- Node16&#45;&gt;Node6 -->
<g id="edge18" class="edge"><title>Node16&#45;&gt;Node6</title>
<path fill="none" stroke="midnightblue" d="M604.782,-150.237C624.242,-156.037 651.793,-164.248 673.536,-170.728"/>
<polygon fill="midnightblue" stroke="midnightblue" points="672.791,-174.158 683.374,-173.661 674.791,-167.45 672.791,-174.158"/>
</g>
<!-- Node16&#45;&gt;Node15 -->
<g id="edge19" class="edge"><title>Node16&#45;&gt;Node15</title>
<path fill="none" stroke="midnightblue" d="M604.633,-141.144C649.398,-137.7 745.294,-130.324 795.444,-126.466"/>
<polygon fill="midnightblue" stroke="midnightblue" points="795.715,-129.955 805.417,-125.699 795.178,-122.976 795.715,-129.955"/>
</g>
<!-- Node18&#45;&gt;Node3 -->
<g id="edge22" class="edge"><title>Node18&#45;&gt;Node3</title>
<path fill="none" stroke="midnightblue" d="M455.192,-301.601C465.19,-304.491 475.953,-308.511 485,-314 518.757,-334.482 549.051,-369.863 565.502,-391.184"/>
<polygon fill="midnightblue" stroke="midnightblue" points="562.862,-393.496 571.675,-399.376 568.453,-389.283 562.862,-393.496"/>
</g>
<!-- Node18&#45;&gt;Node16 -->
<g id="edge23" class="edge"><title>Node18&#45;&gt;Node16</title>
<path fill="none" stroke="midnightblue" d="M442.284,-285.367C455.122,-278.448 471.961,-268.364 485,-257 518.73,-227.603 549.99,-185.202 566.427,-161.26"/>
<polygon fill="midnightblue" stroke="midnightblue" points="569.461,-163.021 572.16,-152.776 563.661,-159.102 569.461,-163.021"/>
</g>
<!-- Node19&#45;&gt;Node17 -->
<g id="edge25" class="edge"><title>Node19&#45;&gt;Node17</title>
<path fill="none" stroke="midnightblue" d="M323.089,-249.925C331.711,-248.875 340.682,-247.782 349.54,-246.704"/>
<polygon fill="midnightblue" stroke="midnightblue" points="349.964,-250.178 359.467,-245.494 349.117,-243.229 349.964,-250.178"/>
</g>
<!-- Node19&#45;&gt;Node18 -->
<g id="edge26" class="edge"><title>Node19&#45;&gt;Node18</title>
<path fill="none" stroke="midnightblue" d="M304.365,-266.589C327.167,-272.143 355.861,-279.133 379.083,-284.789"/>
<polygon fill="midnightblue" stroke="midnightblue" points="378.451,-288.238 388.996,-287.204 380.108,-281.437 378.451,-288.238"/>
</g>
<!-- Node20&#45;&gt;Node2 -->
<g id="edge28" class="edge"><title>Node20&#45;&gt;Node2</title>
<path fill="none" stroke="midnightblue" d="M249.483,-76.5146C236.627,-81.7533 217.452,-88.1082 205,-100 175.648,-128.032 159.18,-173.263 151.199,-199.347"/>
<polygon fill="midnightblue" stroke="midnightblue" points="147.751,-198.667 148.285,-209.248 154.466,-200.643 147.751,-198.667"/>
</g>
<!-- Node21&#45;&gt;Node18 -->
<g id="edge31" class="edge"><title>Node21&#45;&gt;Node18</title>
<path fill="none" stroke="midnightblue" d="M292.173,-326.381C316.119,-320.548 351.386,-311.957 378.968,-305.238"/>
<polygon fill="midnightblue" stroke="midnightblue" points="379.86,-308.624 388.748,-302.856 378.203,-301.823 379.86,-308.624"/>
</g>
<!-- Node22 -->
<g id="node22" class="node"><title>Node22</title>
<g id="a_node22"><a xlink:href="settings_8cpp.html#a7b4efa097b94f9a90c5bbafcdf93fe4f" target="_top" xlink:title="getUptime">
<polygon fill="white" stroke="black" points="391,-323.5 391,-342.5 453,-342.5 453,-323.5 391,-323.5"/>
<text text-anchor="middle" x="422" y="-330.5" font-family="Helvetica,sans-Serif" font-size="10.00">getUptime</text>
</a>
</g>
</g>
<!-- Node21&#45;&gt;Node22 -->
<g id="edge30" class="edge"><title>Node21&#45;&gt;Node22</title>
<path fill="none" stroke="midnightblue" d="M292.173,-333C316.633,-333 352.905,-333 380.735,-333"/>
<polygon fill="midnightblue" stroke="midnightblue" points="380.945,-336.5 390.945,-333 380.945,-329.5 380.945,-336.5"/>
</g>
<!-- Node24 -->
<g id="node24" class="node"><title>Node24</title>
<g id="a_node24"><a xlink:href="class_voltage_monitor.html#a70902b84f9864c95d5553a0644a64f4f" target="_top" xlink:title="Return the latest voltage reading. ">
<polygon fill="white" stroke="black" points="359,-19.5 359,-38.5 485,-38.5 485,-19.5 359,-19.5"/>
<text text-anchor="middle" x="422" y="-26.5" font-family="Helvetica,sans-Serif" font-size="10.00">VoltageMonitor::getValue</text>
</a>
</g>
</g>
<!-- Node23&#45;&gt;Node24 -->
<g id="edge33" class="edge"><title>Node23&#45;&gt;Node24</title>
<path fill="none" stroke="midnightblue" d="M301.182,-29C315.344,-29 332.117,-29 348.56,-29"/>
<polygon fill="midnightblue" stroke="midnightblue" points="348.728,-32.5001 358.728,-29 348.728,-25.5001 348.728,-32.5001"/>
</g>
<!-- Node25 -->
<g id="node25" class="node"><title>Node25</title>
<g id="a_node25"><a xlink:href="actions_8cpp.html#a2b8c3769e2aa32a2da9e2f3f85ac73dd" target="_top" xlink:title="A sample ADC reading is taken each time through the main loop, and written to a ring buffer...">
<polygon fill="white" stroke="black" points="523.5,-38.5 523.5,-57.5 635.5,-57.5 635.5,-38.5 523.5,-38.5"/>
<text text-anchor="middle" x="579.5" y="-45.5" font-family="Helvetica,sans-Serif" font-size="10.00">getVoltagePollInterval</text>
</a>
</g>
</g>
<!-- Node24&#45;&gt;Node25 -->
<g id="edge34" class="edge"><title>Node24&#45;&gt;Node25</title>
<path fill="none" stroke="midnightblue" d="M485.352,-36.6185C494.438,-37.7287 503.816,-38.8746 512.963,-39.9922"/>
<polygon fill="midnightblue" stroke="midnightblue" points="512.813,-43.4998 523.163,-41.2386 513.662,-36.5515 512.813,-43.4998"/>
</g>
<!-- Node26 -->
<g id="node26" class="node"><title>Node26</title>
<g id="a_node26"><a xlink:href="class_voltage_monitor.html#a75871331808c34b40d04059ee2af0f27" target="_top" xlink:title="Filter and scale raw ADC values to millivolts. ">
<polygon fill="white" stroke="black" points="521,-0.5 521,-19.5 638,-19.5 638,-0.5 521,-0.5"/>
<text text-anchor="middle" x="579.5" y="-7.5" font-family="Helvetica,sans-Serif" font-size="10.00">VoltageMonitor::update</text>
</a>
</g>
</g>
<!-- Node24&#45;&gt;Node26 -->
<g id="edge35" class="edge"><title>Node24&#45;&gt;Node26</title>
<path fill="none" stroke="midnightblue" d="M485.352,-21.3815C493.702,-20.3612 502.298,-19.3108 510.735,-18.2799"/>
<polygon fill="midnightblue" stroke="midnightblue" points="511.419,-21.7226 520.92,-17.0355 510.57,-14.7742 511.419,-21.7226"/>
</g>
<!-- Node27&#45;&gt;Node3 -->
<g id="edge37" class="edge"><title>Node27&#45;&gt;Node3</title>
<path fill="none" stroke="midnightblue" d="M454.843,-409C479.677,-409 514.247,-409 540.522,-409"/>
<polygon fill="midnightblue" stroke="midnightblue" points="540.864,-412.5 550.864,-409 540.863,-405.5 540.864,-412.5"/>
</g>
</g>
</svg>
        <g id="navigator" transform="translate(0 0)" fill="#404254">
                <rect fill="#f2f5e9" fill-opacity="0.5" stroke="#606060" stroke-width=".5" x="0" y="0" width="60" height="60"/>
                <use id="zoomplus" xlink:href="#zoomPlus" x="17" y="9" onmousedown="handleZoom(evt,'in')"/>
                <use id="zoomminus" xlink:href="#zoomMin" x="42" y="9" onmousedown="handleZoom(evt,'out')"/>
                <use id="reset" xlink:href="#resetDef" x="30" y="36" onmousedown="handleReset()"/>
                <g id="arrowUp" xlink:href="#dirArrow" transform="translate(30 24)" onmousedown="handlePan(0,-1)">
                  <use xlink:href="#rim" fill="#404040">
                        <set attributeName="fill" to="#808080" begin="arrowUp.mouseover" end="arrowUp.mouseout"/>
                  </use>
                  <path fill="none" stroke="white" stroke-width="1.5" d="M0,-3.0v7 M-2.5,-0.5L0,-3.0L2.5,-0.5"/>
                </g>
                <g id="arrowRight" xlink:href="#dirArrow" transform="rotate(90) translate(36 -43)" onmousedown="handlePan(1,0)">
                  <use xlink:href="#rim" fill="#404040">
                        <set attributeName="fill" to="#808080" begin="arrowRight.mouseover" end="arrowRight.mouseout"/>
                  </use>
                  <path fill="none" stroke="white" stroke-width="1.5" d="M0,-3.0v7 M-2.5,-0.5L0,-3.0L2.5,-0.5"/>
                </g>
                <g id="arrowDown" xlink:href="#dirArrow" transform="rotate(180) translate(-30 -48)" onmousedown="handlePan(0,1)">
                  <use xlink:href="#rim" fill="#404040">
                        <set attributeName="fill" to="#808080" begin="arrowDown.mouseover" end="arrowDown.mouseout"/>
                  </use>
                  <path fill="none" stroke="white" stroke-width="1.5" d="M0,-3.0v7 M-2.5,-0.5L0,-3.0L2.5,-0.5"/>
                </g>
                <g id="arrowLeft" xlink:href="#dirArrow" transform="rotate(270) translate(-36 17)" onmousedown="handlePan(-1,0)">
                  <use xlink:href="#rim" fill="#404040">
                        <set attributeName="fill" to="#808080" begin="arrowLeft.mouseover" end="arrowLeft.mouseout"/>
                  </use>
                  <path fill="none" stroke="white" stroke-width="1.5" d="M0,-3.0v7 M-2.5,-0.5L0,-3.0L2.5,-0.5"/>
                </g>
        </g>
        <svg viewBox="0 0 15 15" width="100%" height="30px" preserveAspectRatio="xMaxYMin meet">
         <g id="arrow_out" transform="scale(0.3 0.3)">
          <a xlink:href="actions_8h_af2f54a5ad42f85a2394de363b9ea12c1_cgraph_org.svg" target="_base">
           <rect id="button" ry="5" rx="5" y="6" x="6" height="38" width="38"
                fill="#f2f5e9" fill-opacity="0.5" stroke="#606060" stroke-width="1.0"/>
           <path id="arrow"
             d="M 11.500037,31.436501 C 11.940474,20.09759 22.043105,11.32322 32.158766,21.979434 L 37.068811,17.246167 C 37.068811,17.246167 37.088388,32 37.088388,32 L 22.160133,31.978069 C 22.160133,31.978069 26.997745,27.140456 26.997745,27.140456 C 18.528582,18.264221 13.291696,25.230495 11.500037,31.436501 z"
             style="fill:#404040;"/>
          </a>
         </g>
        </svg>
</svg>
