<?xml version="1.0" encoding="UTF-8" standalone="no"?>
<!DOCTYPE svg PUBLIC "-//W3C//DTD SVG 1.1//EN"
 "http://www.w3.org/Graphics/SVG/1.1/DTD/svg11.dtd">
<!-- Generated by graphviz version 2.38.0 (20140413.2041)
 -->
<!-- Title: txUptime Pages: 1 -->
<!--zoomable 545 -->
<svg id="main" version="1.1" xmlns="http://www.w3.org/2000/svg" xmlns:xlink="http://www.w3.org/1999/xlink" xml:space="preserve" onload="init(evt)">
<style type="text/css"><![CDATA[
.edge:hover path { stroke: red; }
.edge:hover polygon { stroke: red; fill: red; }
]]></style>
<script type="text/javascript"><![CDATA[
var edges = document.getElementsByTagName('g');
if (edges && edges.length) {
  for (var i=0;i<edges.length;i++) {
    if (edges[i].id.substr(0,4)=='edge') {
      edges[i].setAttribute('class','edge');
    }
  }
}
]]></script>
        <defs>
                <circle id="rim" cx="0" cy="0" r="7"/>
                <circle id="rim2" cx="0" cy="0" r="3.5"/>
                <g id="zoomPlus">
                        <use xlink:href="#rim" fill="#404040">
                                <set attributeName="fill" to="#808080" begin="zoomplus.mouseover" end="zoomplus.mouseout"/>
                        </use>
                        <path d="M-4,0h8M0,-4v8" fill="none" stroke="white" stroke-width="1.5" pointer-events="none"/>
                </g>
                <g id="zoomMin">
                        <use xlink:href="#rim" fill="#404040">
                                <set attributeName="fill" to="#808080" begin="zoomminus.mouseover" end="zoomminus.mouseout"/>
                        </use>
                        <path d="M-4,0h8" fill="none" stroke="white" stroke-width="1.5" pointer-events="none"/>
                </g>
                <g id="dirArrow">
                        <path fill="none" stroke="white" stroke-width="1.5" d="M0,-3.0v7 M-2.5,-0.5L0,-3.0L2.5,-0.5"/>
                </g>
               <g id="resetDef">
                       <use xlink:href="#rim2" fill="#404040">
                               <set attributeName="fill" to="#808080" begin="reset.mouseover" end="reset.mouseout"/>
                       </use>
               </g>
        </defs>

<script type="text/javascript">
var viewWidth = 1084;
var viewHeight = 545;
var sectionId = 'dynsection-69';
</script>
<script xlink:href="svgpan.js"/>
<svg id="graph" class="graph">
<g id="viewport">
<title>txUptime</title>
<polygon fill="white" stroke="none" points="-4,4 -4,-541.163 1080,-541.163 1080,4 -4,4"/>
<!-- Node1 -->
<g id="node1" class="node"><title>Node1</title>
<polygon fill="#bfbfbf" stroke="black" points="0,-479.663 0,-498.663 56,-498.663 56,-479.663 0,-479.663"/>
<text text-anchor="middle" x="28" y="-486.663" font-family="Helvetica,sans-Serif" font-size="10.00">txUptime</text>
</g>
<!-- Node2 -->
<g id="node2" class="node"><title>Node2</title>
<g id="a_node2"><a xlink:href="settings_8cpp.html#a7b4efa097b94f9a90c5bbafcdf93fe4f" target="_top" xlink:title="getUptime">
<polygon fill="white" stroke="black" points="94,-517.663 94,-536.663 156,-536.663 156,-517.663 94,-517.663"/>
<text text-anchor="middle" x="125" y="-524.663" font-family="Helvetica,sans-Serif" font-size="10.00">getUptime</text>
</a>
</g>
</g>
<!-- Node1&#45;&gt;Node2 -->
<g id="edge1" class="edge"><title>Node1&#45;&gt;Node2</title>
<path fill="none" stroke="midnightblue" d="M52.9725,-498.752C64.336,-503.297 78.103,-508.804 90.4797,-513.755"/>
<polygon fill="midnightblue" stroke="midnightblue" points="89.4505,-517.113 100.035,-517.577 92.0503,-510.613 89.4505,-517.113"/>
</g>
<!-- Node3 -->
<g id="node3" class="node"><title>Node3</title>
<g id="a_node3"><a xlink:href="libmorse_8cpp.html#a47abdd74b66d7180c47d192bab8bdccb" target="_top" xlink:title="Transmit an unsigned integer in Morse code. ">
<polygon fill="white" stroke="black" points="92,-403.663 92,-422.663 158,-422.663 158,-403.663 92,-403.663"/>
<text text-anchor="middle" x="125" y="-410.663" font-family="Helvetica,sans-Serif" font-size="10.00">txUnsigned</text>
</a>
</g>
</g>
<!-- Node1&#45;&gt;Node3 -->
<g id="edge2" class="edge"><title>Node1&#45;&gt;Node3</title>
<path fill="none" stroke="midnightblue" d="M41.0318,-479.537C56.8785,-466.86 84.9614,-444.394 104.02,-429.147"/>
<polygon fill="midnightblue" stroke="midnightblue" points="106.444,-431.69 112.066,-422.71 102.071,-426.224 106.444,-431.69"/>
</g>
<!-- Node4 -->
<g id="node4" class="node"><title>Node4</title>
<g id="a_node4"><a xlink:href="teensy3__morse__bsp_8cpp.html#ab306f692c5c9455a0c82782a67ff0147" target="_top" xlink:title="touchPoll">
<polygon fill="white" stroke="black" points="831.5,-232.663 831.5,-251.663 888.5,-251.663 888.5,-232.663 831.5,-232.663"/>
<text text-anchor="middle" x="860" y="-239.663" font-family="Helvetica,sans-Serif" font-size="10.00">touchPoll</text>
</a>
</g>
</g>
<!-- Node3&#45;&gt;Node4 -->
<g id="edge3" class="edge"><title>Node3&#45;&gt;Node4</title>
<path fill="none" stroke="midnightblue" d="M125.645,-403.361C123.925,-340.819 122.89,-0.162926 304.5,-0.162926 304.5,-0.162926 304.5,-0.162926 554.5,-0.162926 649.71,-0.162926 686.757,2.4439 761,-57.1629 815.945,-101.276 843.873,-184.669 854.193,-222.553"/>
<polygon fill="midnightblue" stroke="midnightblue" points="850.839,-223.563 856.744,-232.36 857.614,-221.801 850.839,-223.563"/>
</g>
<!-- Node6 -->
<g id="node6" class="node"><title>Node6</title>
<g id="a_node6"><a xlink:href="libmorse_8cpp.html#acd4b292f5e412ee4f05aed9dafbc072d" target="_top" xlink:title="Convert an ASCII character into Morse code and transmit it. ">
<polygon fill="white" stroke="black" points="194,-346.663 194,-365.663 244,-365.663 244,-346.663 194,-346.663"/>
<text text-anchor="middle" x="219" y="-353.663" font-family="Helvetica,sans-Serif" font-size="10.00">txLetter</text>
</a>
</g>
</g>
<!-- Node3&#45;&gt;Node6 -->
<g id="edge5" class="edge"><title>Node3&#45;&gt;Node6</title>
<path fill="none" stroke="midnightblue" d="M141.607,-403.494C155.967,-394.596 177.482,-381.267 194.023,-371.018"/>
<polygon fill="midnightblue" stroke="midnightblue" points="195.967,-373.931 202.624,-365.689 192.28,-367.981 195.967,-373.931"/>
</g>
<!-- Node5 -->
<g id="node5" class="node"><title>Node5</title>
<g id="a_node5"><a xlink:href="teensy3__morse__bsp_8cpp.html#af6899cd9b83df54106b259ab81ea5cb2" target="_top" xlink:title="touchMargin">
<polygon fill="white" stroke="black" points="982.5,-232.663 982.5,-251.663 1052.5,-251.663 1052.5,-232.663 982.5,-232.663"/>
<text text-anchor="middle" x="1017.5" y="-239.663" font-family="Helvetica,sans-Serif" font-size="10.00">touchMargin</text>
</a>
</g>
</g>
<!-- Node4&#45;&gt;Node5 -->
<g id="edge4" class="edge"><title>Node4&#45;&gt;Node5</title>
<path fill="none" stroke="midnightblue" d="M888.8,-242.163C911.937,-242.163 945.306,-242.163 972.131,-242.163"/>
<polygon fill="midnightblue" stroke="midnightblue" points="972.429,-245.663 982.429,-242.163 972.429,-238.663 972.429,-245.663"/>
</g>
<!-- Node7 -->
<g id="node7" class="node"><title>Node7</title>
<g id="a_node7"><a xlink:href="libmorse_8cpp.html#a9fdfce728595d72b78dc7c834ab99a40" target="_top" xlink:title="Transmit a literal Morse code value. ">
<polygon fill="white" stroke="black" points="280,-251.663 280,-270.663 331,-270.663 331,-251.663 280,-251.663"/>
<text text-anchor="middle" x="305.5" y="-258.663" font-family="Helvetica,sans-Serif" font-size="10.00">txLiteral</text>
</a>
</g>
</g>
<!-- Node6&#45;&gt;Node7 -->
<g id="edge6" class="edge"><title>Node6&#45;&gt;Node7</title>
<path fill="none" stroke="midnightblue" d="M228.725,-346.354C242.967,-330.342 271.393,-298.384 289.093,-278.485"/>
<polygon fill="midnightblue" stroke="midnightblue" points="291.918,-280.575 295.949,-270.777 286.687,-275.923 291.918,-280.575"/>
</g>
<!-- Node17 -->
<g id="node17" class="node"><title>Node17</title>
<g id="a_node17"><a xlink:href="libmorse_8cpp.html#ab94e088615119d1faae7df22ce50aedf" target="_top" xlink:title="Transmit a Morse code prosign indicating an error. ">
<polygon fill="white" stroke="black" points="392.5,-327.663 392.5,-346.663 438.5,-346.663 438.5,-327.663 392.5,-327.663"/>
<text text-anchor="middle" x="415.5" y="-334.663" font-family="Helvetica,sans-Serif" font-size="10.00">txError</text>
</a>
</g>
</g>
<!-- Node6&#45;&gt;Node17 -->
<g id="edge36" class="edge"><title>Node6&#45;&gt;Node17</title>
<path fill="none" stroke="midnightblue" d="M244.24,-353.795C279.053,-350.394 343.282,-344.12 382.125,-340.326"/>
<polygon fill="midnightblue" stroke="midnightblue" points="382.749,-343.781 392.361,-339.326 382.069,-336.814 382.749,-343.781"/>
</g>
<!-- Node8 -->
<g id="node8" class="node"><title>Node8</title>
<g id="a_node8"><a xlink:href="class_morse_token.html#a48cd72aeb868391449d1f51c1d0bf5cc" target="_top" xlink:title="Treat code == 0 as the error token. ">
<polygon fill="white" stroke="black" points="367,-251.663 367,-270.663 464,-270.663 464,-251.663 367,-251.663"/>
<text text-anchor="middle" x="415.5" y="-258.663" font-family="Helvetica,sans-Serif" font-size="10.00">MorseToken::valid</text>
</a>
</g>
</g>
<!-- Node7&#45;&gt;Node8 -->
<g id="edge7" class="edge"><title>Node7&#45;&gt;Node8</title>
<path fill="none" stroke="midnightblue" d="M331.007,-261.163C338.694,-261.163 347.531,-261.163 356.516,-261.163"/>
<polygon fill="midnightblue" stroke="midnightblue" points="356.67,-264.663 366.67,-261.163 356.67,-257.663 356.67,-264.663"/>
</g>
<!-- Node9 -->
<g id="node9" class="node"><title>Node9</title>
<g id="a_node9"><a xlink:href="teensy3__morse__bsp_8cpp.html#af66e71e3fac9b6a2c6532bc8a513bfde" target="_top" xlink:title="Output a square wave on pin 10 at the given frequency for the given duration. ">
<polygon fill="white" stroke="black" points="396.5,-104.663 396.5,-123.663 434.5,-123.663 434.5,-104.663 396.5,-104.663"/>
<text text-anchor="middle" x="415.5" y="-111.663" font-family="Helvetica,sans-Serif" font-size="10.00">beep</text>
</a>
</g>
</g>
<!-- Node7&#45;&gt;Node9 -->
<g id="edge8" class="edge"><title>Node7&#45;&gt;Node9</title>
<path fill="none" stroke="midnightblue" d="M312.544,-251.481C323.093,-234.746 345.769,-199.484 367,-171.163 377.221,-157.529 389.562,-142.766 399.103,-131.681"/>
<polygon fill="midnightblue" stroke="midnightblue" points="401.858,-133.846 405.771,-124 396.572,-129.257 401.858,-133.846"/>
</g>
<!-- Node15 -->
<g id="node15" class="node"><title>Node15</title>
<g id="a_node15"><a xlink:href="settings_8cpp.html#a8575b9b52638114a4f32d1462cf9b7c1" target="_top" xlink:title="Get the transmission frequency (side tone). ">
<polygon fill="white" stroke="black" points="388.5,-213.663 388.5,-232.663 442.5,-232.663 442.5,-213.663 388.5,-213.663"/>
<text text-anchor="middle" x="415.5" y="-220.663" font-family="Helvetica,sans-Serif" font-size="10.00">getTxHz</text>
</a>
</g>
</g>
<!-- Node7&#45;&gt;Node15 -->
<g id="edge14" class="edge"><title>Node7&#45;&gt;Node15</title>
<path fill="none" stroke="midnightblue" d="M331.007,-252.54C344.995,-247.618 362.793,-241.356 378.359,-235.879"/>
<polygon fill="midnightblue" stroke="midnightblue" points="379.932,-239.036 388.203,-232.415 377.608,-232.433 379.932,-239.036"/>
</g>
<!-- Node16 -->
<g id="node16" class="node"><title>Node16</title>
<g id="a_node16"><a xlink:href="settings_8cpp.html#a960551e90dfdad18f3c9b1338ccba7db" target="_top" xlink:title="Get the dit duration in microseconds. ">
<polygon fill="white" stroke="black" points="666,-185.663 666,-204.663 738,-204.663 738,-185.663 666,-185.663"/>
<text text-anchor="middle" x="702" y="-192.663" font-family="Helvetica,sans-Serif" font-size="10.00">getDitMicros</text>
</a>
</g>
</g>
<!-- Node7&#45;&gt;Node16 -->
<g id="edge15" class="edge"><title>Node7&#45;&gt;Node16</title>
<path fill="none" stroke="midnightblue" d="M313.314,-251.241C323.281,-237.69 343.254,-213.959 367,-204.163 463.456,-164.37 589.262,-176.054 655.552,-186.522"/>
<polygon fill="midnightblue" stroke="midnightblue" points="655.231,-190.016 665.666,-188.183 656.366,-183.108 655.231,-190.016"/>
</g>
<!-- Node7&#45;&gt;Node17 -->
<g id="edge16" class="edge"><title>Node7&#45;&gt;Node17</title>
<path fill="none" stroke="midnightblue" d="M316.173,-270.791C327.643,-281.883 347.652,-300.238 367,-313.163 372.119,-316.582 377.79,-319.847 383.381,-322.807"/>
<polygon fill="midnightblue" stroke="midnightblue" points="382.096,-326.08 392.599,-327.472 385.257,-319.834 382.096,-326.08"/>
</g>
<!-- Node10 -->
<g id="node10" class="node"><title>Node10</title>
<g id="a_node10"><a xlink:href="teensy3__morse__bsp_8cpp.html#a6f674d5b9985ea3a7eeb0df299c2e405" target="_top" xlink:title="pollEarphonePresent">
<polygon fill="white" stroke="black" points="500,-28.6629 500,-47.6629 607,-47.6629 607,-28.6629 500,-28.6629"/>
<text text-anchor="middle" x="553.5" y="-35.6629" font-family="Helvetica,sans-Serif" font-size="10.00">pollEarphonePresent</text>
</a>
</g>
</g>
<!-- Node9&#45;&gt;Node10 -->
<g id="edge9" class="edge"><title>Node9&#45;&gt;Node10</title>
<path fill="none" stroke="midnightblue" d="M428.345,-104.648C444.009,-92.4105 472.814,-71.079 500,-57.1629 503.991,-55.1202 508.253,-53.1954 512.558,-51.4126"/>
<polygon fill="midnightblue" stroke="midnightblue" points="513.918,-54.6391 521.964,-47.746 511.376,-48.1171 513.918,-54.6391"/>
</g>
<!-- Node11 -->
<g id="node11" class="node"><title>Node11</title>
<g id="a_node11"><a xlink:href="teensy3__morse__bsp_8cpp.html#a2d6b4ace33ed5e497dedd03217540c63" target="_top" xlink:title="Set the PWM frequency for the audio output pins. ">
<polygon fill="white" stroke="black" points="512,-142.663 512,-161.663 595,-161.663 595,-142.663 512,-142.663"/>
<text text-anchor="middle" x="553.5" y="-149.663" font-family="Helvetica,sans-Serif" font-size="10.00">pwmFrequency</text>
</a>
</g>
</g>
<!-- Node9&#45;&gt;Node11 -->
<g id="edge10" class="edge"><title>Node9&#45;&gt;Node11</title>
<path fill="none" stroke="midnightblue" d="M434.56,-119.209C453.377,-124.467 483.566,-132.902 508.689,-139.922"/>
<polygon fill="midnightblue" stroke="midnightblue" points="507.815,-143.311 518.388,-142.632 509.699,-136.57 507.815,-143.311"/>
</g>
<!-- Node12 -->
<g id="node12" class="node"><title>Node12</title>
<g id="a_node12"><a xlink:href="teensy3__morse__bsp_8cpp.html#a82911eac3bf13d6f36d10102a4c4d3c4" target="_top" xlink:title="Generate a tone on the audio output pins. ">
<polygon fill="white" stroke="black" points="523,-66.6629 523,-85.6629 584,-85.6629 584,-66.6629 523,-66.6629"/>
<text text-anchor="middle" x="553.5" y="-73.6629" font-family="Helvetica,sans-Serif" font-size="10.00">pwmWrite</text>
</a>
</g>
</g>
<!-- Node9&#45;&gt;Node12 -->
<g id="edge11" class="edge"><title>Node9&#45;&gt;Node12</title>
<path fill="none" stroke="midnightblue" d="M434.56,-109.117C454.462,-103.556 487.083,-94.4412 512.979,-87.2056"/>
<polygon fill="midnightblue" stroke="midnightblue" points="514.201,-90.4982 522.89,-84.4362 512.317,-83.7564 514.201,-90.4982"/>
</g>
<!-- Node14 -->
<g id="node14" class="node"><title>Node14</title>
<g id="a_node14"><a xlink:href="teensy3__morse__bsp_8cpp.html#a6c982a7d7805f1dd5426eb98c915cfdd" target="_top" xlink:title="Turn the red LED on (1) or off (0). ">
<polygon fill="white" stroke="black" points="528.5,-104.663 528.5,-123.663 578.5,-123.663 578.5,-104.663 528.5,-104.663"/>
<text text-anchor="middle" x="553.5" y="-111.663" font-family="Helvetica,sans-Serif" font-size="10.00">redLED</text>
</a>
</g>
</g>
<!-- Node9&#45;&gt;Node14 -->
<g id="edge13" class="edge"><title>Node9&#45;&gt;Node14</title>
<path fill="none" stroke="midnightblue" d="M434.56,-114.163C455.865,-114.163 491.747,-114.163 518.35,-114.163"/>
<polygon fill="midnightblue" stroke="midnightblue" points="518.398,-117.663 528.398,-114.163 518.398,-110.663 518.398,-117.663"/>
</g>
<!-- Node13 -->
<g id="node13" class="node"><title>Node13</title>
<g id="a_node13"><a xlink:href="teensy3__morse__bsp_8cpp.html#ac70998cee1bf97f00aec4a1b4e5a4f60" target="_top" xlink:title="isEarphonePresent">
<polygon fill="white" stroke="black" points="652.5,-66.6629 652.5,-85.6629 751.5,-85.6629 751.5,-66.6629 652.5,-66.6629"/>
<text text-anchor="middle" x="702" y="-73.6629" font-family="Helvetica,sans-Serif" font-size="10.00">isEarphonePresent</text>
</a>
</g>
</g>
<!-- Node12&#45;&gt;Node13 -->
<g id="edge12" class="edge"><title>Node12&#45;&gt;Node13</title>
<path fill="none" stroke="midnightblue" d="M584.146,-76.1629C600.807,-76.1629 622.199,-76.1629 642.116,-76.1629"/>
<polygon fill="midnightblue" stroke="midnightblue" points="642.364,-79.663 652.364,-76.1629 642.364,-72.663 642.364,-79.663"/>
</g>
<!-- Node18 -->
<g id="node18" class="node"><title>Node18</title>
<g id="a_node18"><a xlink:href="libmorse_8cpp.html#a0ee2308940264ea9ac8e50afc1a4d285" target="_top" xlink:title="txString">
<polygon fill="white" stroke="black" points="528.5,-346.663 528.5,-365.663 578.5,-365.663 578.5,-346.663 528.5,-346.663"/>
<text text-anchor="middle" x="553.5" y="-353.663" font-family="Helvetica,sans-Serif" font-size="10.00">txString</text>
</a>
</g>
</g>
<!-- Node17&#45;&gt;Node18 -->
<g id="edge17" class="edge"><title>Node17&#45;&gt;Node18</title>
<path fill="none" stroke="midnightblue" d="M438.653,-340.258C460.124,-343.257 493.008,-347.851 517.923,-351.332"/>
<polygon fill="midnightblue" stroke="midnightblue" points="517.669,-354.831 528.057,-352.748 518.638,-347.898 517.669,-354.831"/>
</g>
<!-- Node18&#45;&gt;Node1 -->
<g id="edge29" class="edge"><title>Node18&#45;&gt;Node1</title>
<path fill="none" stroke="midnightblue" d="M543.198,-365.728C512.494,-396.224 410.398,-489.163 306.5,-489.163 218,-489.163 218,-489.163 218,-489.163 165.363,-489.163 104.48,-489.163 66.3539,-489.163"/>
<polygon fill="midnightblue" stroke="midnightblue" points="66.2297,-485.663 56.2297,-489.163 66.2296,-492.663 66.2297,-485.663"/>
</g>
<!-- Node18&#45;&gt;Node3 -->
<g id="edge23" class="edge"><title>Node18&#45;&gt;Node3</title>
<path fill="none" stroke="midnightblue" d="M528.207,-362.061C510.495,-366.194 485.869,-371.595 464,-375.163 358.28,-392.41 232.672,-404.295 168.445,-409.757"/>
<polygon fill="midnightblue" stroke="midnightblue" points="167.975,-406.284 158.303,-410.609 168.561,-413.259 167.975,-406.284"/>
</g>
<!-- Node18&#45;&gt;Node4 -->
<g id="edge18" class="edge"><title>Node18&#45;&gt;Node4</title>
<path fill="none" stroke="midnightblue" d="M560.077,-346.456C572.2,-326.401 603.098,-280.648 643,-261.163 700.309,-233.177 776.365,-233.911 821.256,-237.609"/>
<polygon fill="midnightblue" stroke="midnightblue" points="821.148,-241.114 831.426,-238.542 821.788,-234.143 821.148,-241.114"/>
</g>
<!-- Node18&#45;&gt;Node6 -->
<g id="edge21" class="edge"><title>Node18&#45;&gt;Node6</title>
<path fill="none" stroke="midnightblue" d="M528.43,-357.572C480.916,-360.139 371.716,-364.978 280,-361.163 271.702,-360.818 262.775,-360.205 254.41,-359.525"/>
<polygon fill="midnightblue" stroke="midnightblue" points="254.467,-356.017 244.202,-358.641 253.863,-362.99 254.467,-356.017"/>
</g>
<!-- Node18&#45;&gt;Node7 -->
<g id="edge20" class="edge"><title>Node18&#45;&gt;Node7</title>
<path fill="none" stroke="midnightblue" d="M531.185,-346.596C513.349,-338.691 487.17,-327.321 464,-318.163 422.028,-301.573 373.058,-284.148 341.003,-272.999"/>
<polygon fill="midnightblue" stroke="midnightblue" points="341.814,-269.576 331.22,-269.608 339.522,-276.19 341.814,-269.576"/>
</g>
<!-- Node18&#45;&gt;Node16 -->
<g id="edge19" class="edge"><title>Node18&#45;&gt;Node16</title>
<path fill="none" stroke="midnightblue" d="M559.28,-346.4C570.921,-323.409 602.757,-265.025 643,-228.163 650.945,-220.885 660.772,-214.54 670.065,-209.411"/>
<polygon fill="midnightblue" stroke="midnightblue" points="671.847,-212.429 679.09,-204.697 668.606,-206.224 671.847,-212.429"/>
</g>
<!-- Node19 -->
<g id="node19" class="node"><title>Node19</title>
<g id="a_node19"><a xlink:href="teensy3__morse__bsp_8cpp.html#a8761e874366e227690fba2964e1bc445" target="_top" xlink:title="getInternalTemperatureC">
<polygon fill="white" stroke="black" points="797.5,-403.663 797.5,-422.663 922.5,-422.663 922.5,-403.663 797.5,-403.663"/>
<text text-anchor="middle" x="860" y="-410.663" font-family="Helvetica,sans-Serif" font-size="10.00">getInternalTemperatureC</text>
</a>
</g>
</g>
<!-- Node18&#45;&gt;Node19 -->
<g id="edge22" class="edge"><title>Node18&#45;&gt;Node19</title>
<path fill="none" stroke="midnightblue" d="M578.866,-361.65C596.614,-365.584 621.253,-370.917 643,-375.163 692.473,-384.822 748.543,-394.653 791.155,-401.896"/>
<polygon fill="midnightblue" stroke="midnightblue" points="790.69,-405.366 801.134,-403.586 791.859,-398.465 790.69,-405.366"/>
</g>
<!-- Node20 -->
<g id="node20" class="node"><title>Node20</title>
<g id="a_node20"><a xlink:href="actions_8cpp.html#aed718ec1bd4cc7adb2f65d40a6784496" target="_top" xlink:title="Transmit the internal temperature in integer in Fahrenheit. ">
<polygon fill="white" stroke="black" points="643,-422.663 643,-441.663 761,-441.663 761,-422.663 643,-422.663"/>
<text text-anchor="middle" x="702" y="-429.663" font-family="Helvetica,sans-Serif" font-size="10.00">txInternalTemperatureF</text>
</a>
</g>
</g>
<!-- Node18&#45;&gt;Node20 -->
<g id="edge24" class="edge"><title>Node18&#45;&gt;Node20</title>
<path fill="none" stroke="midnightblue" d="M569.492,-365.84C586.813,-376.815 616.357,-394.903 643,-408.163 650.491,-411.891 658.706,-415.542 666.536,-418.826"/>
<polygon fill="midnightblue" stroke="midnightblue" points="665.243,-422.078 675.823,-422.631 667.897,-415.601 665.243,-422.078"/>
</g>
<!-- Node21 -->
<g id="node21" class="node"><title>Node21</title>
<g id="a_node21"><a xlink:href="actions_8cpp.html#aaabb3ac0c23f35a499bc17efe829f326" target="_top" xlink:title="Transmit the 24&#45;hr time. ">
<polygon fill="white" stroke="black" points="663,-346.663 663,-365.663 741,-365.663 741,-346.663 663,-346.663"/>
<text text-anchor="middle" x="702" y="-353.663" font-family="Helvetica,sans-Serif" font-size="10.00">txTimeHHMM</text>
</a>
</g>
</g>
<!-- Node18&#45;&gt;Node21 -->
<g id="edge27" class="edge"><title>Node18&#45;&gt;Node21</title>
<path fill="none" stroke="midnightblue" d="M578.691,-350.997C598.674,-349.443 627.67,-349.032 652.415,-349.765"/>
<polygon fill="midnightblue" stroke="midnightblue" points="652.598,-353.274 662.721,-350.149 652.858,-346.279 652.598,-353.274"/>
</g>
<!-- Node22 -->
<g id="node22" class="node"><title>Node22</title>
<g id="a_node22"><a xlink:href="teensy3__morse__bsp_8cpp.html#ae8dd28759e56dbd2ee9bc9ae96d1783c" target="_top" xlink:title="Return the most recent ADC measurement of the input voltage. Perform analog to digital conversion on ...">
<polygon fill="white" stroke="black" points="665,-308.663 665,-327.663 739,-327.663 739,-308.663 665,-308.663"/>
<text text-anchor="middle" x="702" y="-315.663" font-family="Helvetica,sans-Serif" font-size="10.00">readMillivolts</text>
</a>
</g>
</g>
<!-- Node18&#45;&gt;Node22 -->
<g id="edge30" class="edge"><title>Node18&#45;&gt;Node22</title>
<path fill="none" stroke="midnightblue" d="M578.691,-349.888C599.426,-344.51 629.867,-336.614 655.191,-330.045"/>
<polygon fill="midnightblue" stroke="midnightblue" points="656.171,-333.407 664.972,-327.508 654.413,-326.631 656.171,-333.407"/>
</g>
<!-- Node26 -->
<g id="node26" class="node"><title>Node26</title>
<g id="a_node26"><a xlink:href="libmorse_8cpp.html#ac3f000c98271c6d0a7710135e18189bc" target="_top" xlink:title="On my hardware there is cross&#45;coupling between the serial port and the touch sensors. Without the code below, long messages to the serial port trigger a touch input. ">
<polygon fill="white" stroke="black" points="669.5,-270.663 669.5,-289.663 734.5,-289.663 734.5,-270.663 669.5,-270.663"/>
<text text-anchor="middle" x="702" y="-277.663" font-family="Helvetica,sans-Serif" font-size="10.00">flushTouch</text>
</a>
</g>
</g>
<!-- Node18&#45;&gt;Node26 -->
<g id="edge34" class="edge"><title>Node18&#45;&gt;Node26</title>
<path fill="none" stroke="midnightblue" d="M567.086,-346.573C583.722,-334.253 614.289,-312.834 643,-299.163 648.332,-296.624 654.091,-294.29 659.84,-292.192"/>
<polygon fill="midnightblue" stroke="midnightblue" points="661.11,-295.456 669.425,-288.89 658.83,-288.838 661.11,-295.456"/>
</g>
<!-- Node20&#45;&gt;Node3 -->
<g id="edge26" class="edge"><title>Node20&#45;&gt;Node3</title>
<path fill="none" stroke="midnightblue" d="M642.774,-438.332C585.324,-443.88 494.961,-451.163 416.5,-451.163 304.5,-451.163 304.5,-451.163 304.5,-451.163 254.9,-451.163 199.212,-436.953 163.43,-425.912"/>
<polygon fill="midnightblue" stroke="midnightblue" points="164.031,-422.431 153.441,-422.752 161.919,-429.105 164.031,-422.431"/>
</g>
<!-- Node20&#45;&gt;Node19 -->
<g id="edge25" class="edge"><title>Node20&#45;&gt;Node19</title>
<path fill="none" stroke="midnightblue" d="M761.089,-425.088C769.711,-424.038 778.682,-422.945 787.54,-421.866"/>
<polygon fill="midnightblue" stroke="midnightblue" points="787.964,-425.341 797.467,-420.657 787.117,-418.392 787.964,-425.341"/>
</g>
<!-- Node21&#45;&gt;Node18 -->
<g id="edge28" class="edge"><title>Node21&#45;&gt;Node18</title>
<path fill="none" stroke="midnightblue" d="M662.721,-362.177C639.877,-363.217 611.104,-363.155 588.969,-361.99"/>
<polygon fill="midnightblue" stroke="midnightblue" points="588.895,-358.478 578.691,-361.329 588.446,-365.464 588.895,-358.478"/>
</g>
<!-- Node23 -->
<g id="node23" class="node"><title>Node23</title>
<g id="a_node23"><a xlink:href="class_voltage_monitor.html#a70902b84f9864c95d5553a0644a64f4f" target="_top" xlink:title="Return the latest voltage reading. ">
<polygon fill="white" stroke="black" points="797,-308.663 797,-327.663 923,-327.663 923,-308.663 797,-308.663"/>
<text text-anchor="middle" x="860" y="-315.663" font-family="Helvetica,sans-Serif" font-size="10.00">VoltageMonitor::getValue</text>
</a>
</g>
</g>
<!-- Node22&#45;&gt;Node23 -->
<g id="edge31" class="edge"><title>Node22&#45;&gt;Node23</title>
<path fill="none" stroke="midnightblue" d="M739.182,-318.163C753.344,-318.163 770.117,-318.163 786.56,-318.163"/>
<polygon fill="midnightblue" stroke="midnightblue" points="786.728,-321.663 796.728,-318.163 786.728,-314.663 786.728,-321.663"/>
</g>
<!-- Node24 -->
<g id="node24" class="node"><title>Node24</title>
<g id="a_node24"><a xlink:href="actions_8cpp.html#a2b8c3769e2aa32a2da9e2f3f85ac73dd" target="_top" xlink:title="A sample ADC reading is taken each time through the main loop, and written to a ring buffer...">
<polygon fill="white" stroke="black" points="961.5,-327.663 961.5,-346.663 1073.5,-346.663 1073.5,-327.663 961.5,-327.663"/>
<text text-anchor="middle" x="1017.5" y="-334.663" font-family="Helvetica,sans-Serif" font-size="10.00">getVoltagePollInterval</text>
</a>
</g>
</g>
<!-- Node23&#45;&gt;Node24 -->
<g id="edge32" class="edge"><title>Node23&#45;&gt;Node24</title>
<path fill="none" stroke="midnightblue" d="M923.352,-325.781C932.438,-326.892 941.816,-328.038 950.963,-329.155"/>
<polygon fill="midnightblue" stroke="midnightblue" points="950.813,-332.663 961.163,-330.402 951.662,-325.714 950.813,-332.663"/>
</g>
<!-- Node25 -->
<g id="node25" class="node"><title>Node25</title>
<g id="a_node25"><a xlink:href="class_voltage_monitor.html#a75871331808c34b40d04059ee2af0f27" target="_top" xlink:title="Filter and scale raw ADC values to millivolts. ">
<polygon fill="white" stroke="black" points="959,-289.663 959,-308.663 1076,-308.663 1076,-289.663 959,-289.663"/>
<text text-anchor="middle" x="1017.5" y="-296.663" font-family="Helvetica,sans-Serif" font-size="10.00">VoltageMonitor::update</text>
</a>
</g>
</g>
<!-- Node23&#45;&gt;Node25 -->
<g id="edge33" class="edge"><title>Node23&#45;&gt;Node25</title>
<path fill="none" stroke="midnightblue" d="M923.352,-310.544C931.702,-309.524 940.298,-308.474 948.735,-307.443"/>
<polygon fill="midnightblue" stroke="midnightblue" points="949.419,-310.885 958.92,-306.198 948.57,-303.937 949.419,-310.885"/>
</g>
<!-- Node26&#45;&gt;Node4 -->
<g id="edge35" class="edge"><title>Node26&#45;&gt;Node4</title>
<path fill="none" stroke="midnightblue" d="M734.569,-272.473C759.752,-266.339 795.089,-257.731 821.673,-251.255"/>
<polygon fill="midnightblue" stroke="midnightblue" points="822.506,-254.655 831.394,-248.888 820.85,-247.854 822.506,-254.655"/>
</g>
</g>
</svg>
        <g id="navigator" transform="translate(0 0)" fill="#404254">
                <rect fill="#f2f5e9" fill-opacity="0.5" stroke="#606060" stroke-width=".5" x="0" y="0" width="60" height="60"/>
                <use id="zoomplus" xlink:href="#zoomPlus" x="17" y="9" onmousedown="handleZoom(evt,'in')"/>
                <use id="zoomminus" xlink:href="#zoomMin" x="42" y="9" onmousedown="handleZoom(evt,'out')"/>
                <use id="reset" xlink:href="#resetDef" x="30" y="36" onmousedown="handleReset()"/>
                <g id="arrowUp" xlink:href="#dirArrow" transform="translate(30 24)" onmousedown="handlePan(0,-1)">
                  <use xlink:href="#rim" fill="#404040">
                        <set attributeName="fill" to="#808080" begin="arrowUp.mouseover" end="arrowUp.mouseout"/>
                  </use>
                  <path fill="none" stroke="white" stroke-width="1.5" d="M0,-3.0v7 M-2.5,-0.5L0,-3.0L2.5,-0.5"/>
                </g>
                <g id="arrowRight" xlink:href="#dirArrow" transform="rotate(90) translate(36 -43)" onmousedown="handlePan(1,0)">
                  <use xlink:href="#rim" fill="#404040">
                        <set attributeName="fill" to="#808080" begin="arrowRight.mouseover" end="arrowRight.mouseout"/>
                  </use>
                  <path fill="none" stroke="white" stroke-width="1.5" d="M0,-3.0v7 M-2.5,-0.5L0,-3.0L2.5,-0.5"/>
                </g>
                <g id="arrowDown" xlink:href="#dirArrow" transform="rotate(180) translate(-30 -48)" onmousedown="handlePan(0,1)">
                  <use xlink:href="#rim" fill="#404040">
                        <set attributeName="fill" to="#808080" begin="arrowDown.mouseover" end="arrowDown.mouseout"/>
                  </use>
                  <path fill="none" stroke="white" stroke-width="1.5" d="M0,-3.0v7 M-2.5,-0.5L0,-3.0L2.5,-0.5"/>
                </g>
                <g id="arrowLeft" xlink:href="#dirArrow" transform="rotate(270) translate(-36 17)" onmousedown="handlePan(-1,0)">
                  <use xlink:href="#rim" fill="#404040">
                        <set attributeName="fill" to="#808080" begin="arrowLeft.mouseover" end="arrowLeft.mouseout"/>
                  </use>
                  <path fill="none" stroke="white" stroke-width="1.5" d="M0,-3.0v7 M-2.5,-0.5L0,-3.0L2.5,-0.5"/>
                </g>
        </g>
        <svg viewBox="0 0 15 15" width="100%" height="30px" preserveAspectRatio="xMaxYMin meet">
         <g id="arrow_out" transform="scale(0.3 0.3)">
          <a xlink:href="actions_8cpp_ad02149679fa3cc6a4957d1a318408ffd_cgraph_org.svg" target="_base">
           <rect id="button" ry="5" rx="5" y="6" x="6" height="38" width="38"
                fill="#f2f5e9" fill-opacity="0.5" stroke="#606060" stroke-width="1.0"/>
           <path id="arrow"
             d="M 11.500037,31.436501 C 11.940474,20.09759 22.043105,11.32322 32.158766,21.979434 L 37.068811,17.246167 C 37.068811,17.246167 37.088388,32 37.088388,32 L 22.160133,31.978069 C 22.160133,31.978069 26.997745,27.140456 26.997745,27.140456 C 18.528582,18.264221 13.291696,25.230495 11.500037,31.436501 z"
             style="fill:#404040;"/>
          </a>
         </g>
        </svg>
</svg>
