<?xml version="1.0" encoding="UTF-8" standalone="no"?>
<!DOCTYPE svg PUBLIC "-//W3C//DTD SVG 1.1//EN"
 "http://www.w3.org/Graphics/SVG/1.1/DTD/svg11.dtd">
<!-- Generated by graphviz version 2.38.0 (20140413.2041)
 -->
<!-- Title: txListSymbolStack Pages: 1 -->
<!--zoomable 512 -->
<svg id="main" version="1.1" xmlns="http://www.w3.org/2000/svg" xmlns:xlink="http://www.w3.org/1999/xlink" xml:space="preserve" onload="init(evt)">
<style type="text/css"><![CDATA[
.edge:hover path { stroke: red; }
.edge:hover polygon { stroke: red; fill: red; }
]]></style>
<script type="text/javascript"><![CDATA[
var edges = document.getElementsByTagName('g');
if (edges && edges.length) {
  for (var i=0;i<edges.length;i++) {
    if (edges[i].id.substr(0,4)=='edge') {
      edges[i].setAttribute('class','edge');
    }
  }
}
]]></script>
        <defs>
                <circle id="rim" cx="0" cy="0" r="7"/>
                <circle id="rim2" cx="0" cy="0" r="3.5"/>
                <g id="zoomPlus">
                        <use xlink:href="#rim" fill="#404040">
                                <set attributeName="fill" to="#808080" begin="zoomplus.mouseover" end="zoomplus.mouseout"/>
                        </use>
                        <path d="M-4,0h8M0,-4v8" fill="none" stroke="white" stroke-width="1.5" pointer-events="none"/>
                </g>
                <g id="zoomMin">
                        <use xlink:href="#rim" fill="#404040">
                                <set attributeName="fill" to="#808080" begin="zoomminus.mouseover" end="zoomminus.mouseout"/>
                        </use>
                        <path d="M-4,0h8" fill="none" stroke="white" stroke-width="1.5" pointer-events="none"/>
                </g>
                <g id="dirArrow">
                        <path fill="none" stroke="white" stroke-width="1.5" d="M0,-3.0v7 M-2.5,-0.5L0,-3.0L2.5,-0.5"/>
                </g>
               <g id="resetDef">
                       <use xlink:href="#rim2" fill="#404040">
                               <set attributeName="fill" to="#808080" begin="reset.mouseover" end="reset.mouseout"/>
                       </use>
               </g>
        </defs>

<script type="text/javascript">
var viewWidth = 1045;
var viewHeight = 512;
var sectionId = 'dynsection-52';
</script>
<script xlink:href="svgpan.js"/>
<svg id="graph" class="graph">
<g id="viewport">
<title>txListSymbolStack</title>
<polygon fill="white" stroke="none" points="-4,4 -4,-508 1041,-508 1041,4 -4,4"/>
<!-- Node1 -->
<g id="node1" class="node"><title>Node1</title>
<polygon fill="#bfbfbf" stroke="black" points="0,-408.5 0,-427.5 99,-427.5 99,-408.5 0,-408.5"/>
<text text-anchor="middle" x="49.5" y="-415.5" font-family="Helvetica,sans-Serif" font-size="10.00">txListSymbolStack</text>
</g>
<!-- Node2 -->
<g id="node2" class="node"><title>Node2</title>
<g id="a_node2"><a xlink:href="stack_8cpp.html#aafac4a86d14d59c34565bc295024e511" target="_top" xlink:title="symbolStackSize">
<polygon fill="white" stroke="black" points="224,-446.5 224,-465.5 317,-465.5 317,-446.5 224,-446.5"/>
<text text-anchor="middle" x="270.5" y="-453.5" font-family="Helvetica,sans-Serif" font-size="10.00">symbolStackSize</text>
</a>
</g>
</g>
<!-- Node1&#45;&gt;Node2 -->
<g id="edge1" class="edge"><title>Node1&#45;&gt;Node2</title>
<path fill="none" stroke="midnightblue" d="M99.2638,-423.826C125.123,-427.17 157.379,-431.747 186,-437 197.31,-439.076 209.408,-441.632 220.785,-444.188"/>
<polygon fill="midnightblue" stroke="midnightblue" points="220.031,-447.606 230.559,-446.422 221.591,-440.782 220.031,-447.606"/>
</g>
<!-- Node4 -->
<g id="node4" class="node"><title>Node4</title>
<g id="a_node4"><a xlink:href="libmorse_8cpp.html#a9fdfce728595d72b78dc7c834ab99a40" target="_top" xlink:title="Transmit a literal Morse code value. ">
<polygon fill="white" stroke="black" points="135,-275.5 135,-294.5 186,-294.5 186,-275.5 135,-275.5"/>
<text text-anchor="middle" x="160.5" y="-282.5" font-family="Helvetica,sans-Serif" font-size="10.00">txLiteral</text>
</a>
</g>
</g>
<!-- Node1&#45;&gt;Node4 -->
<g id="edge3" class="edge"><title>Node1&#45;&gt;Node4</title>
<path fill="none" stroke="midnightblue" d="M58.339,-408.435C76.4764,-386.304 121.566,-331.287 144.936,-302.771"/>
<polygon fill="midnightblue" stroke="midnightblue" points="147.806,-304.79 151.438,-294.837 142.392,-300.353 147.806,-304.79"/>
</g>
<!-- Node30 -->
<g id="node30" class="node"><title>Node30</title>
<g id="a_node30"><a xlink:href="stack_8cpp.html#abefdfbf9131b5ea5926f9ecbecb6b1e6" target="_top" xlink:title="Access the stack using an index where 0 is the top of the stack. ">
<polygon fill="white" stroke="black" points="146,-446.5 146,-465.5 175,-465.5 175,-446.5 146,-446.5"/>
<text text-anchor="middle" x="160.5" y="-453.5" font-family="Helvetica,sans-Serif" font-size="10.00">s</text>
</a>
</g>
</g>
<!-- Node1&#45;&gt;Node30 -->
<g id="edge40" class="edge"><title>Node1&#45;&gt;Node30</title>
<path fill="none" stroke="midnightblue" d="M78.0053,-427.589C95.9715,-433.852 119.174,-441.941 136.224,-447.885"/>
<polygon fill="midnightblue" stroke="midnightblue" points="135.348,-451.287 145.943,-451.274 137.652,-444.677 135.348,-451.287"/>
</g>
<!-- Node3 -->
<g id="node3" class="node"><title>Node3</title>
<g id="a_node3"><a xlink:href="class_stack.html#afc30a7ee287e14f08802c2d43613f2b4" target="_top" xlink:title="Return the number of elements currently in the stack. ">
<polygon fill="white" stroke="black" points="375.5,-484.5 375.5,-503.5 441.5,-503.5 441.5,-484.5 375.5,-484.5"/>
<text text-anchor="middle" x="408.5" y="-491.5" font-family="Helvetica,sans-Serif" font-size="10.00">Stack::size</text>
</a>
</g>
</g>
<!-- Node2&#45;&gt;Node3 -->
<g id="edge2" class="edge"><title>Node2&#45;&gt;Node3</title>
<path fill="none" stroke="midnightblue" d="M305.819,-465.589C323.911,-470.644 346.259,-476.889 365.392,-482.235"/>
<polygon fill="midnightblue" stroke="midnightblue" points="364.492,-485.617 375.065,-484.937 366.376,-478.875 364.492,-485.617"/>
</g>
<!-- Node5 -->
<g id="node5" class="node"><title>Node5</title>
<g id="a_node5"><a xlink:href="class_morse_token.html#a48cd72aeb868391449d1f51c1d0bf5cc" target="_top" xlink:title="Treat code == 0 as the error token. ">
<polygon fill="white" stroke="black" points="222,-332.5 222,-351.5 319,-351.5 319,-332.5 222,-332.5"/>
<text text-anchor="middle" x="270.5" y="-339.5" font-family="Helvetica,sans-Serif" font-size="10.00">MorseToken::valid</text>
</a>
</g>
</g>
<!-- Node4&#45;&gt;Node5 -->
<g id="edge4" class="edge"><title>Node4&#45;&gt;Node5</title>
<path fill="none" stroke="midnightblue" d="M178.634,-294.533C190.706,-301.203 207.277,-310.267 222,-318 228.012,-321.158 234.488,-324.48 240.665,-327.613"/>
<polygon fill="midnightblue" stroke="midnightblue" points="239.511,-330.951 250.016,-332.329 242.663,-324.701 239.511,-330.951"/>
</g>
<!-- Node6 -->
<g id="node6" class="node"><title>Node6</title>
<g id="a_node6"><a xlink:href="teensy3__morse__bsp_8cpp.html#af66e71e3fac9b6a2c6532bc8a513bfde" target="_top" xlink:title="Output a square wave on pin 10 at the given frequency for the given duration. ">
<polygon fill="white" stroke="black" points="251.5,-370.5 251.5,-389.5 289.5,-389.5 289.5,-370.5 251.5,-370.5"/>
<text text-anchor="middle" x="270.5" y="-377.5" font-family="Helvetica,sans-Serif" font-size="10.00">beep</text>
</a>
</g>
</g>
<!-- Node4&#45;&gt;Node6 -->
<g id="edge5" class="edge"><title>Node4&#45;&gt;Node6</title>
<path fill="none" stroke="midnightblue" d="M166.951,-294.741C176.298,-310.643 196.83,-342.28 222,-361 227.842,-365.345 234.812,-368.855 241.59,-371.62"/>
<polygon fill="midnightblue" stroke="midnightblue" points="240.634,-374.997 251.228,-375.148 243.04,-368.424 240.634,-374.997"/>
</g>
<!-- Node12 -->
<g id="node12" class="node"><title>Node12</title>
<g id="a_node12"><a xlink:href="settings_8cpp.html#a8575b9b52638114a4f32d1462cf9b7c1" target="_top" xlink:title="Get the transmission frequency (side tone). ">
<polygon fill="white" stroke="black" points="243.5,-256.5 243.5,-275.5 297.5,-275.5 297.5,-256.5 243.5,-256.5"/>
<text text-anchor="middle" x="270.5" y="-263.5" font-family="Helvetica,sans-Serif" font-size="10.00">getTxHz</text>
</a>
</g>
</g>
<!-- Node4&#45;&gt;Node12 -->
<g id="edge11" class="edge"><title>Node4&#45;&gt;Node12</title>
<path fill="none" stroke="midnightblue" d="M186.007,-280.689C199.862,-278.251 217.454,-275.156 232.913,-272.437"/>
<polygon fill="midnightblue" stroke="midnightblue" points="233.961,-275.806 243.203,-270.626 232.748,-268.912 233.961,-275.806"/>
</g>
<!-- Node13 -->
<g id="node13" class="node"><title>Node13</title>
<g id="a_node13"><a xlink:href="settings_8cpp.html#a960551e90dfdad18f3c9b1338ccba7db" target="_top" xlink:title="Get the dit duration in microseconds. ">
<polygon fill="white" stroke="black" points="521,-408.5 521,-427.5 593,-427.5 593,-408.5 521,-408.5"/>
<text text-anchor="middle" x="557" y="-415.5" font-family="Helvetica,sans-Serif" font-size="10.00">getDitMicros</text>
</a>
</g>
</g>
<!-- Node4&#45;&gt;Node13 -->
<g id="edge12" class="edge"><title>Node4&#45;&gt;Node13</title>
<path fill="none" stroke="midnightblue" d="M186.393,-285.145C250.288,-285.979 418.142,-291.217 462,-323 492.264,-344.932 469.962,-374.285 498,-399 501.923,-402.458 506.49,-405.29 511.306,-407.607"/>
<polygon fill="midnightblue" stroke="midnightblue" points="510.19,-410.931 520.771,-411.459 512.828,-404.448 510.19,-410.931"/>
</g>
<!-- Node14 -->
<g id="node14" class="node"><title>Node14</title>
<g id="a_node14"><a xlink:href="libmorse_8cpp.html#ab94e088615119d1faae7df22ce50aedf" target="_top" xlink:title="Transmit a Morse code prosign indicating an error. ">
<polygon fill="white" stroke="black" points="247.5,-180.5 247.5,-199.5 293.5,-199.5 293.5,-180.5 247.5,-180.5"/>
<text text-anchor="middle" x="270.5" y="-187.5" font-family="Helvetica,sans-Serif" font-size="10.00">txError</text>
</a>
</g>
</g>
<!-- Node4&#45;&gt;Node14 -->
<g id="edge13" class="edge"><title>Node4&#45;&gt;Node14</title>
<path fill="none" stroke="midnightblue" d="M167.936,-275.2C178.028,-260.42 198.833,-232.221 222,-214 226.838,-210.194 232.376,-206.744 237.92,-203.722"/>
<polygon fill="midnightblue" stroke="midnightblue" points="239.798,-206.694 247.137,-199.053 236.634,-200.45 239.798,-206.694"/>
</g>
<!-- Node7 -->
<g id="node7" class="node"><title>Node7</title>
<g id="a_node7"><a xlink:href="teensy3__morse__bsp_8cpp.html#a6f674d5b9985ea3a7eeb0df299c2e405" target="_top" xlink:title="pollEarphonePresent">
<polygon fill="white" stroke="black" points="355,-408.5 355,-427.5 462,-427.5 462,-408.5 355,-408.5"/>
<text text-anchor="middle" x="408.5" y="-415.5" font-family="Helvetica,sans-Serif" font-size="10.00">pollEarphonePresent</text>
</a>
</g>
</g>
<!-- Node6&#45;&gt;Node7 -->
<g id="edge6" class="edge"><title>Node6&#45;&gt;Node7</title>
<path fill="none" stroke="midnightblue" d="M289.56,-385.046C308.377,-390.304 338.566,-398.739 363.689,-405.759"/>
<polygon fill="midnightblue" stroke="midnightblue" points="362.815,-409.148 373.388,-408.469 364.699,-402.407 362.815,-409.148"/>
</g>
<!-- Node8 -->
<g id="node8" class="node"><title>Node8</title>
<g id="a_node8"><a xlink:href="teensy3__morse__bsp_8cpp.html#a2d6b4ace33ed5e497dedd03217540c63" target="_top" xlink:title="Set the PWM frequency for the audio output pins. ">
<polygon fill="white" stroke="black" points="367,-370.5 367,-389.5 450,-389.5 450,-370.5 367,-370.5"/>
<text text-anchor="middle" x="408.5" y="-377.5" font-family="Helvetica,sans-Serif" font-size="10.00">pwmFrequency</text>
</a>
</g>
</g>
<!-- Node6&#45;&gt;Node8 -->
<g id="edge7" class="edge"><title>Node6&#45;&gt;Node8</title>
<path fill="none" stroke="midnightblue" d="M289.56,-380C306.617,-380 333.017,-380 356.519,-380"/>
<polygon fill="midnightblue" stroke="midnightblue" points="356.722,-383.5 366.722,-380 356.722,-376.5 356.722,-383.5"/>
</g>
<!-- Node9 -->
<g id="node9" class="node"><title>Node9</title>
<g id="a_node9"><a xlink:href="teensy3__morse__bsp_8cpp.html#a82911eac3bf13d6f36d10102a4c4d3c4" target="_top" xlink:title="Generate a tone on the audio output pins. ">
<polygon fill="white" stroke="black" points="378,-446.5 378,-465.5 439,-465.5 439,-446.5 378,-446.5"/>
<text text-anchor="middle" x="408.5" y="-453.5" font-family="Helvetica,sans-Serif" font-size="10.00">pwmWrite</text>
</a>
</g>
</g>
<!-- Node6&#45;&gt;Node9 -->
<g id="edge8" class="edge"><title>Node6&#45;&gt;Node9</title>
<path fill="none" stroke="midnightblue" d="M283.345,-389.515C299.009,-401.752 327.814,-423.084 355,-437 359.252,-439.177 363.813,-441.219 368.405,-443.099"/>
<polygon fill="midnightblue" stroke="midnightblue" points="367.2,-446.385 377.789,-446.719 369.719,-439.854 367.2,-446.385"/>
</g>
<!-- Node11 -->
<g id="node11" class="node"><title>Node11</title>
<g id="a_node11"><a xlink:href="teensy3__morse__bsp_8cpp.html#a6c982a7d7805f1dd5426eb98c915cfdd" target="_top" xlink:title="Turn the red LED on (1) or off (0). ">
<polygon fill="white" stroke="black" points="383.5,-332.5 383.5,-351.5 433.5,-351.5 433.5,-332.5 383.5,-332.5"/>
<text text-anchor="middle" x="408.5" y="-339.5" font-family="Helvetica,sans-Serif" font-size="10.00">redLED</text>
</a>
</g>
</g>
<!-- Node6&#45;&gt;Node11 -->
<g id="edge10" class="edge"><title>Node6&#45;&gt;Node11</title>
<path fill="none" stroke="midnightblue" d="M289.56,-374.954C310.959,-368.975 347.064,-358.886 373.702,-351.443"/>
<polygon fill="midnightblue" stroke="midnightblue" points="374.708,-354.796 383.398,-348.734 372.825,-348.055 374.708,-354.796"/>
</g>
<!-- Node10 -->
<g id="node10" class="node"><title>Node10</title>
<g id="a_node10"><a xlink:href="teensy3__morse__bsp_8cpp.html#ac70998cee1bf97f00aec4a1b4e5a4f60" target="_top" xlink:title="isEarphonePresent">
<polygon fill="white" stroke="black" points="507.5,-446.5 507.5,-465.5 606.5,-465.5 606.5,-446.5 507.5,-446.5"/>
<text text-anchor="middle" x="557" y="-453.5" font-family="Helvetica,sans-Serif" font-size="10.00">isEarphonePresent</text>
</a>
</g>
</g>
<!-- Node9&#45;&gt;Node10 -->
<g id="edge9" class="edge"><title>Node9&#45;&gt;Node10</title>
<path fill="none" stroke="midnightblue" d="M439.146,-456C455.807,-456 477.199,-456 497.116,-456"/>
<polygon fill="midnightblue" stroke="midnightblue" points="497.364,-459.5 507.364,-456 497.364,-452.5 497.364,-459.5"/>
</g>
<!-- Node15 -->
<g id="node15" class="node"><title>Node15</title>
<g id="a_node15"><a xlink:href="libmorse_8cpp.html#a0ee2308940264ea9ac8e50afc1a4d285" target="_top" xlink:title="txString">
<polygon fill="white" stroke="black" points="383.5,-218.5 383.5,-237.5 433.5,-237.5 433.5,-218.5 383.5,-218.5"/>
<text text-anchor="middle" x="408.5" y="-225.5" font-family="Helvetica,sans-Serif" font-size="10.00">txString</text>
</a>
</g>
</g>
<!-- Node14&#45;&gt;Node15 -->
<g id="edge14" class="edge"><title>Node14&#45;&gt;Node15</title>
<path fill="none" stroke="midnightblue" d="M293.653,-196.19C315.219,-202.216 348.301,-211.459 373.257,-218.432"/>
<polygon fill="midnightblue" stroke="midnightblue" points="372.484,-221.85 383.057,-221.17 374.368,-215.108 372.484,-221.85"/>
</g>
<!-- Node15&#45;&gt;Node4 -->
<g id="edge18" class="edge"><title>Node15&#45;&gt;Node4</title>
<path fill="none" stroke="midnightblue" d="M383.331,-227.027C347.195,-226.33 277.407,-227.932 222,-247 207.378,-252.032 192.649,-261.175 181.385,-269.232"/>
<polygon fill="midnightblue" stroke="midnightblue" points="179.089,-266.578 173.163,-275.361 183.273,-272.191 179.089,-266.578"/>
</g>
<!-- Node15&#45;&gt;Node13 -->
<g id="edge17" class="edge"><title>Node15&#45;&gt;Node13</title>
<path fill="none" stroke="midnightblue" d="M419.739,-237.614C431.426,-249.088 450.416,-269.329 462,-290 486.942,-334.506 461.881,-362.968 498,-399 501.891,-402.882 506.587,-405.971 511.602,-408.429"/>
<polygon fill="midnightblue" stroke="midnightblue" points="510.286,-411.672 520.867,-412.206 512.929,-405.19 510.286,-411.672"/>
</g>
<!-- Node16 -->
<g id="node16" class="node"><title>Node16</title>
<g id="a_node16"><a xlink:href="teensy3__morse__bsp_8cpp.html#ab306f692c5c9455a0c82782a67ff0147" target="_top" xlink:title="touchPoll">
<polygon fill="white" stroke="black" points="844,-294.5 844,-313.5 901,-313.5 901,-294.5 844,-294.5"/>
<text text-anchor="middle" x="872.5" y="-301.5" font-family="Helvetica,sans-Serif" font-size="10.00">touchPoll</text>
</a>
</g>
</g>
<!-- Node15&#45;&gt;Node16 -->
<g id="edge15" class="edge"><title>Node15&#45;&gt;Node16</title>
<path fill="none" stroke="midnightblue" d="M416.469,-237.627C429.928,-255.359 461.419,-292.843 498,-309 611.413,-359.093 763.743,-331.577 833.608,-314.432"/>
<polygon fill="midnightblue" stroke="midnightblue" points="834.859,-317.726 843.699,-311.886 833.146,-310.939 834.859,-317.726"/>
</g>
<!-- Node18 -->
<g id="node18" class="node"><title>Node18</title>
<g id="a_node18"><a xlink:href="libmorse_8cpp.html#acd4b292f5e412ee4f05aed9dafbc072d" target="_top" xlink:title="Convert an ASCII character into Morse code and transmit it. ">
<polygon fill="white" stroke="black" points="847.5,-66.5 847.5,-85.5 897.5,-85.5 897.5,-66.5 847.5,-66.5"/>
<text text-anchor="middle" x="872.5" y="-73.5" font-family="Helvetica,sans-Serif" font-size="10.00">txLetter</text>
</a>
</g>
</g>
<!-- Node15&#45;&gt;Node18 -->
<g id="edge19" class="edge"><title>Node15&#45;&gt;Node18</title>
<path fill="none" stroke="midnightblue" d="M418.01,-218.473C432.691,-202.668 464.448,-171.169 498,-155 613.9,-99.1457 768.783,-82.5738 836.892,-77.8257"/>
<polygon fill="midnightblue" stroke="midnightblue" points="837.309,-81.3061 847.059,-77.161 836.852,-74.321 837.309,-81.3061"/>
</g>
<!-- Node19 -->
<g id="node19" class="node"><title>Node19</title>
<g id="a_node19"><a xlink:href="teensy3__morse__bsp_8cpp.html#a8761e874366e227690fba2964e1bc445" target="_top" xlink:title="getInternalTemperatureC">
<polygon fill="white" stroke="black" points="652.5,-161.5 652.5,-180.5 777.5,-180.5 777.5,-161.5 652.5,-161.5"/>
<text text-anchor="middle" x="715" y="-168.5" font-family="Helvetica,sans-Serif" font-size="10.00">getInternalTemperatureC</text>
</a>
</g>
</g>
<!-- Node15&#45;&gt;Node19 -->
<g id="edge22" class="edge"><title>Node15&#45;&gt;Node19</title>
<path fill="none" stroke="midnightblue" d="M419.924,-218.366C435.509,-204.692 466.441,-180.284 498,-171 544.628,-157.284 599.408,-157.456 642.134,-160.97"/>
<polygon fill="midnightblue" stroke="midnightblue" points="641.893,-164.462 652.167,-161.874 642.521,-157.49 641.893,-164.462"/>
</g>
<!-- Node20 -->
<g id="node20" class="node"><title>Node20</title>
<g id="a_node20"><a xlink:href="libmorse_8cpp.html#a47abdd74b66d7180c47d192bab8bdccb" target="_top" xlink:title="Transmit an unsigned integer in Morse code. ">
<polygon fill="white" stroke="black" points="682,-218.5 682,-237.5 748,-237.5 748,-218.5 682,-218.5"/>
<text text-anchor="middle" x="715" y="-225.5" font-family="Helvetica,sans-Serif" font-size="10.00">txUnsigned</text>
</a>
</g>
</g>
<!-- Node15&#45;&gt;Node20 -->
<g id="edge23" class="edge"><title>Node15&#45;&gt;Node20</title>
<path fill="none" stroke="midnightblue" d="M433.648,-228C485.215,-228 606.662,-228 671.485,-228"/>
<polygon fill="midnightblue" stroke="midnightblue" points="671.763,-231.5 681.763,-228 671.763,-224.5 671.763,-231.5"/>
</g>
<!-- Node21 -->
<g id="node21" class="node"><title>Node21</title>
<g id="a_node21"><a xlink:href="actions_8cpp.html#aed718ec1bd4cc7adb2f65d40a6784496" target="_top" xlink:title="Transmit the internal temperature in integer in Fahrenheit. ">
<polygon fill="white" stroke="black" points="498,-180.5 498,-199.5 616,-199.5 616,-180.5 498,-180.5"/>
<text text-anchor="middle" x="557" y="-187.5" font-family="Helvetica,sans-Serif" font-size="10.00">txInternalTemperatureF</text>
</a>
</g>
</g>
<!-- Node15&#45;&gt;Node21 -->
<g id="edge26" class="edge"><title>Node15&#45;&gt;Node21</title>
<path fill="none" stroke="midnightblue" d="M433.691,-221.725C454.211,-216.403 484.236,-208.615 509.401,-202.087"/>
<polygon fill="midnightblue" stroke="midnightblue" points="510.331,-205.462 519.132,-199.563 508.574,-198.686 510.331,-205.462"/>
</g>
<!-- Node22 -->
<g id="node22" class="node"><title>Node22</title>
<g id="a_node22"><a xlink:href="actions_8cpp.html#aaabb3ac0c23f35a499bc17efe829f326" target="_top" xlink:title="Transmit the 24&#45;hr time. ">
<polygon fill="white" stroke="black" points="518,-66.5 518,-85.5 596,-85.5 596,-66.5 518,-66.5"/>
<text text-anchor="middle" x="557" y="-73.5" font-family="Helvetica,sans-Serif" font-size="10.00">txTimeHHMM</text>
</a>
</g>
</g>
<!-- Node15&#45;&gt;Node22 -->
<g id="edge29" class="edge"><title>Node15&#45;&gt;Node22</title>
<path fill="none" stroke="midnightblue" d="M412.105,-218.341C421.1,-192.969 452.801,-127.483 498,-91 501.291,-88.3434 504.918,-85.9407 508.702,-83.8073"/>
<polygon fill="midnightblue" stroke="midnightblue" points="510.333,-86.9054 517.735,-79.3255 507.222,-80.6347 510.333,-86.9054"/>
</g>
<!-- Node23 -->
<g id="node23" class="node"><title>Node23</title>
<g id="a_node23"><a xlink:href="actions_8cpp.html#ad02149679fa3cc6a4957d1a318408ffd" target="_top" xlink:title="Transmit the uptime. ">
<polygon fill="white" stroke="black" points="529,-256.5 529,-275.5 585,-275.5 585,-256.5 529,-256.5"/>
<text text-anchor="middle" x="557" y="-263.5" font-family="Helvetica,sans-Serif" font-size="10.00">txUptime</text>
</a>
</g>
</g>
<!-- Node15&#45;&gt;Node23 -->
<g id="edge31" class="edge"><title>Node15&#45;&gt;Node23</title>
<path fill="none" stroke="midnightblue" d="M433.691,-234.275C456.896,-240.294 492.256,-249.466 518.999,-256.402"/>
<polygon fill="midnightblue" stroke="midnightblue" points="518.224,-259.817 528.782,-258.94 519.982,-253.041 518.224,-259.817"/>
</g>
<!-- Node25 -->
<g id="node25" class="node"><title>Node25</title>
<g id="a_node25"><a xlink:href="teensy3__morse__bsp_8cpp.html#ae8dd28759e56dbd2ee9bc9ae96d1783c" target="_top" xlink:title="Return the most recent ADC measurement of the input voltage. Perform analog to digital conversion on ...">
<polygon fill="white" stroke="black" points="520,-370.5 520,-389.5 594,-389.5 594,-370.5 520,-370.5"/>
<text text-anchor="middle" x="557" y="-377.5" font-family="Helvetica,sans-Serif" font-size="10.00">readMillivolts</text>
</a>
</g>
</g>
<!-- Node15&#45;&gt;Node25 -->
<g id="edge34" class="edge"><title>Node15&#45;&gt;Node25</title>
<path fill="none" stroke="midnightblue" d="M418.703,-237.594C429.739,-249.372 448.442,-270.224 462,-290 480.894,-317.559 473.144,-333.671 498,-356 502.414,-359.966 507.575,-363.33 512.965,-366.17"/>
<polygon fill="midnightblue" stroke="midnightblue" points="511.619,-369.404 522.16,-370.466 514.582,-363.062 511.619,-369.404"/>
</g>
<!-- Node29 -->
<g id="node29" class="node"><title>Node29</title>
<g id="a_node29"><a xlink:href="libmorse_8cpp.html#ac3f000c98271c6d0a7710135e18189bc" target="_top" xlink:title="On my hardware there is cross&#45;coupling between the serial port and the touch sensors. Without the code below, long messages to the serial port trigger a touch input. ">
<polygon fill="white" stroke="black" points="682.5,-294.5 682.5,-313.5 747.5,-313.5 747.5,-294.5 682.5,-294.5"/>
<text text-anchor="middle" x="715" y="-301.5" font-family="Helvetica,sans-Serif" font-size="10.00">flushTouch</text>
</a>
</g>
</g>
<!-- Node15&#45;&gt;Node29 -->
<g id="edge38" class="edge"><title>Node15&#45;&gt;Node29</title>
<path fill="none" stroke="midnightblue" d="M420.57,-237.715C436.46,-251.02 467.224,-274.46 498,-285 556.029,-304.874 627.691,-307.146 672.125,-306.172"/>
<polygon fill="midnightblue" stroke="midnightblue" points="672.37,-309.667 682.266,-305.882 672.17,-302.669 672.37,-309.667"/>
</g>
<!-- Node17 -->
<g id="node17" class="node"><title>Node17</title>
<g id="a_node17"><a xlink:href="teensy3__morse__bsp_8cpp.html#af6899cd9b83df54106b259ab81ea5cb2" target="_top" xlink:title="touchMargin">
<polygon fill="white" stroke="black" points="967,-294.5 967,-313.5 1037,-313.5 1037,-294.5 967,-294.5"/>
<text text-anchor="middle" x="1002" y="-301.5" font-family="Helvetica,sans-Serif" font-size="10.00">touchMargin</text>
</a>
</g>
</g>
<!-- Node16&#45;&gt;Node17 -->
<g id="edge16" class="edge"><title>Node16&#45;&gt;Node17</title>
<path fill="none" stroke="midnightblue" d="M901.166,-304C917.281,-304 937.984,-304 956.355,-304"/>
<polygon fill="midnightblue" stroke="midnightblue" points="956.562,-307.5 966.562,-304 956.562,-300.5 956.562,-307.5"/>
</g>
<!-- Node18&#45;&gt;Node4 -->
<g id="edge20" class="edge"><title>Node18&#45;&gt;Node4</title>
<path fill="none" stroke="midnightblue" d="M850.752,-66.3875C832.076,-58.0759 803.698,-46.2821 778,-39 682.46,-11.9267 657.302,-0 558,-0 407.5,-0 407.5,-0 407.5,-0 266.933,-0 188.931,-201.131 167.577,-265.463"/>
<polygon fill="midnightblue" stroke="midnightblue" points="164.179,-264.598 164.439,-275.19 170.841,-266.748 164.179,-264.598"/>
</g>
<!-- Node18&#45;&gt;Node14 -->
<g id="edge21" class="edge"><title>Node18&#45;&gt;Node14</title>
<path fill="none" stroke="midnightblue" d="M847.349,-69.6652C787.1,-54.9475 625.812,-22.2487 498,-57 413.266,-80.0387 327.851,-143.67 290.723,-173.791"/>
<polygon fill="midnightblue" stroke="midnightblue" points="288.248,-171.294 282.749,-180.351 292.695,-176.7 288.248,-171.294"/>
</g>
<!-- Node20&#45;&gt;Node16 -->
<g id="edge24" class="edge"><title>Node20&#45;&gt;Node16</title>
<path fill="none" stroke="midnightblue" d="M748.102,-236.174C757.889,-239.106 768.553,-242.754 778,-247 803.929,-258.654 831.468,-276.141 849.889,-288.671"/>
<polygon fill="midnightblue" stroke="midnightblue" points="847.935,-291.575 858.153,-294.376 851.912,-285.814 847.935,-291.575"/>
</g>
<!-- Node20&#45;&gt;Node18 -->
<g id="edge25" class="edge"><title>Node20&#45;&gt;Node18</title>
<path fill="none" stroke="midnightblue" d="M735.284,-218.367C748.122,-211.448 764.961,-201.364 778,-190 811.73,-160.603 842.99,-118.202 859.427,-94.2605"/>
<polygon fill="midnightblue" stroke="midnightblue" points="862.461,-96.021 865.16,-85.7757 856.661,-92.1018 862.461,-96.021"/>
</g>
<!-- Node21&#45;&gt;Node19 -->
<g id="edge27" class="edge"><title>Node21&#45;&gt;Node19</title>
<path fill="none" stroke="midnightblue" d="M616.089,-182.925C624.711,-181.875 633.682,-180.782 642.54,-179.704"/>
<polygon fill="midnightblue" stroke="midnightblue" points="642.964,-183.178 652.467,-178.494 642.117,-176.229 642.964,-183.178"/>
</g>
<!-- Node21&#45;&gt;Node20 -->
<g id="edge28" class="edge"><title>Node21&#45;&gt;Node20</title>
<path fill="none" stroke="midnightblue" d="M597.365,-199.589C620.167,-205.143 648.861,-212.133 672.083,-217.789"/>
<polygon fill="midnightblue" stroke="midnightblue" points="671.451,-221.238 681.996,-220.204 673.108,-214.437 671.451,-221.238"/>
</g>
<!-- Node22&#45;&gt;Node15 -->
<g id="edge30" class="edge"><title>Node22&#45;&gt;Node15</title>
<path fill="none" stroke="midnightblue" d="M543.839,-85.5655C531.314,-91.2462 511.737,-97.9117 498,-109 462.768,-137.438 435.737,-183.499 421.269,-209.396"/>
<polygon fill="midnightblue" stroke="midnightblue" points="418.144,-207.814 416.348,-218.255 424.264,-211.213 418.144,-207.814"/>
</g>
<!-- Node23&#45;&gt;Node20 -->
<g id="edge33" class="edge"><title>Node23&#45;&gt;Node20</title>
<path fill="none" stroke="midnightblue" d="M585.173,-259.381C609.119,-253.548 644.386,-244.957 671.968,-238.238"/>
<polygon fill="midnightblue" stroke="midnightblue" points="672.86,-241.624 681.748,-235.856 671.203,-234.823 672.86,-241.624"/>
</g>
<!-- Node24 -->
<g id="node24" class="node"><title>Node24</title>
<g id="a_node24"><a xlink:href="settings_8cpp.html#a7b4efa097b94f9a90c5bbafcdf93fe4f" target="_top" xlink:title="getUptime">
<polygon fill="white" stroke="black" points="684,-256.5 684,-275.5 746,-275.5 746,-256.5 684,-256.5"/>
<text text-anchor="middle" x="715" y="-263.5" font-family="Helvetica,sans-Serif" font-size="10.00">getUptime</text>
</a>
</g>
</g>
<!-- Node23&#45;&gt;Node24 -->
<g id="edge32" class="edge"><title>Node23&#45;&gt;Node24</title>
<path fill="none" stroke="midnightblue" d="M585.173,-266C609.633,-266 645.905,-266 673.735,-266"/>
<polygon fill="midnightblue" stroke="midnightblue" points="673.945,-269.5 683.945,-266 673.945,-262.5 673.945,-269.5"/>
</g>
<!-- Node26 -->
<g id="node26" class="node"><title>Node26</title>
<g id="a_node26"><a xlink:href="class_voltage_monitor.html#a70902b84f9864c95d5553a0644a64f4f" target="_top" xlink:title="Return the latest voltage reading. ">
<polygon fill="white" stroke="black" points="652,-370.5 652,-389.5 778,-389.5 778,-370.5 652,-370.5"/>
<text text-anchor="middle" x="715" y="-377.5" font-family="Helvetica,sans-Serif" font-size="10.00">VoltageMonitor::getValue</text>
</a>
</g>
</g>
<!-- Node25&#45;&gt;Node26 -->
<g id="edge35" class="edge"><title>Node25&#45;&gt;Node26</title>
<path fill="none" stroke="midnightblue" d="M594.182,-380C608.344,-380 625.117,-380 641.56,-380"/>
<polygon fill="midnightblue" stroke="midnightblue" points="641.728,-383.5 651.728,-380 641.728,-376.5 641.728,-383.5"/>
</g>
<!-- Node27 -->
<g id="node27" class="node"><title>Node27</title>
<g id="a_node27"><a xlink:href="actions_8cpp.html#a2b8c3769e2aa32a2da9e2f3f85ac73dd" target="_top" xlink:title="A sample ADC reading is taken each time through the main loop, and written to a ring buffer...">
<polygon fill="white" stroke="black" points="816.5,-389.5 816.5,-408.5 928.5,-408.5 928.5,-389.5 816.5,-389.5"/>
<text text-anchor="middle" x="872.5" y="-396.5" font-family="Helvetica,sans-Serif" font-size="10.00">getVoltagePollInterval</text>
</a>
</g>
</g>
<!-- Node26&#45;&gt;Node27 -->
<g id="edge36" class="edge"><title>Node26&#45;&gt;Node27</title>
<path fill="none" stroke="midnightblue" d="M778.352,-387.619C787.438,-388.729 796.816,-389.875 805.963,-390.992"/>
<polygon fill="midnightblue" stroke="midnightblue" points="805.813,-394.5 816.163,-392.239 806.662,-387.552 805.813,-394.5"/>
</g>
<!-- Node28 -->
<g id="node28" class="node"><title>Node28</title>
<g id="a_node28"><a xlink:href="class_voltage_monitor.html#a75871331808c34b40d04059ee2af0f27" target="_top" xlink:title="Filter and scale raw ADC values to millivolts. ">
<polygon fill="white" stroke="black" points="814,-351.5 814,-370.5 931,-370.5 931,-351.5 814,-351.5"/>
<text text-anchor="middle" x="872.5" y="-358.5" font-family="Helvetica,sans-Serif" font-size="10.00">VoltageMonitor::update</text>
</a>
</g>
</g>
<!-- Node26&#45;&gt;Node28 -->
<g id="edge37" class="edge"><title>Node26&#45;&gt;Node28</title>
<path fill="none" stroke="midnightblue" d="M778.352,-372.381C786.702,-371.361 795.298,-370.311 803.735,-369.28"/>
<polygon fill="midnightblue" stroke="midnightblue" points="804.419,-372.723 813.92,-368.035 803.57,-365.774 804.419,-372.723"/>
</g>
<!-- Node29&#45;&gt;Node16 -->
<g id="edge39" class="edge"><title>Node29&#45;&gt;Node16</title>
<path fill="none" stroke="midnightblue" d="M747.843,-304C772.677,-304 807.247,-304 833.522,-304"/>
<polygon fill="midnightblue" stroke="midnightblue" points="833.864,-307.5 843.864,-304 833.863,-300.5 833.864,-307.5"/>
</g>
<!-- Node30&#45;&gt;Node2 -->
<g id="edge41" class="edge"><title>Node30&#45;&gt;Node2</title>
<path fill="none" stroke="midnightblue" d="M175.178,-456C185.044,-456 199.081,-456 213.321,-456"/>
<polygon fill="midnightblue" stroke="midnightblue" points="213.669,-459.5 223.669,-456 213.669,-452.5 213.669,-459.5"/>
</g>
</g>
</svg>
        <g id="navigator" transform="translate(0 0)" fill="#404254">
                <rect fill="#f2f5e9" fill-opacity="0.5" stroke="#606060" stroke-width=".5" x="0" y="0" width="60" height="60"/>
                <use id="zoomplus" xlink:href="#zoomPlus" x="17" y="9" onmousedown="handleZoom(evt,'in')"/>
                <use id="zoomminus" xlink:href="#zoomMin" x="42" y="9" onmousedown="handleZoom(evt,'out')"/>
                <use id="reset" xlink:href="#resetDef" x="30" y="36" onmousedown="handleReset()"/>
                <g id="arrowUp" xlink:href="#dirArrow" transform="translate(30 24)" onmousedown="handlePan(0,-1)">
                  <use xlink:href="#rim" fill="#404040">
                        <set attributeName="fill" to="#808080" begin="arrowUp.mouseover" end="arrowUp.mouseout"/>
                  </use>
                  <path fill="none" stroke="white" stroke-width="1.5" d="M0,-3.0v7 M-2.5,-0.5L0,-3.0L2.5,-0.5"/>
                </g>
                <g id="arrowRight" xlink:href="#dirArrow" transform="rotate(90) translate(36 -43)" onmousedown="handlePan(1,0)">
                  <use xlink:href="#rim" fill="#404040">
                        <set attributeName="fill" to="#808080" begin="arrowRight.mouseover" end="arrowRight.mouseout"/>
                  </use>
                  <path fill="none" stroke="white" stroke-width="1.5" d="M0,-3.0v7 M-2.5,-0.5L0,-3.0L2.5,-0.5"/>
                </g>
                <g id="arrowDown" xlink:href="#dirArrow" transform="rotate(180) translate(-30 -48)" onmousedown="handlePan(0,1)">
                  <use xlink:href="#rim" fill="#404040">
                        <set attributeName="fill" to="#808080" begin="arrowDown.mouseover" end="arrowDown.mouseout"/>
                  </use>
                  <path fill="none" stroke="white" stroke-width="1.5" d="M0,-3.0v7 M-2.5,-0.5L0,-3.0L2.5,-0.5"/>
                </g>
                <g id="arrowLeft" xlink:href="#dirArrow" transform="rotate(270) translate(-36 17)" onmousedown="handlePan(-1,0)">
                  <use xlink:href="#rim" fill="#404040">
                        <set attributeName="fill" to="#808080" begin="arrowLeft.mouseover" end="arrowLeft.mouseout"/>
                  </use>
                  <path fill="none" stroke="white" stroke-width="1.5" d="M0,-3.0v7 M-2.5,-0.5L0,-3.0L2.5,-0.5"/>
                </g>
        </g>
        <svg viewBox="0 0 15 15" width="100%" height="30px" preserveAspectRatio="xMaxYMin meet">
         <g id="arrow_out" transform="scale(0.3 0.3)">
          <a xlink:href="actions_8cpp_a6436621df3b98909e885083436d6b9e2_cgraph_org.svg" target="_base">
           <rect id="button" ry="5" rx="5" y="6" x="6" height="38" width="38"
                fill="#f2f5e9" fill-opacity="0.5" stroke="#606060" stroke-width="1.0"/>
           <path id="arrow"
             d="M 11.500037,31.436501 C 11.940474,20.09759 22.043105,11.32322 32.158766,21.979434 L 37.068811,17.246167 C 37.068811,17.246167 37.088388,32 37.088388,32 L 22.160133,31.978069 C 22.160133,31.978069 26.997745,27.140456 26.997745,27.140456 C 18.528582,18.264221 13.291696,25.230495 11.500037,31.436501 z"
             style="fill:#404040;"/>
          </a>
         </g>
        </svg>
</svg>
