<?xml version="1.0" encoding="UTF-8" standalone="no"?>
<!DOCTYPE svg PUBLIC "-//W3C//DTD SVG 1.1//EN"
 "http://www.w3.org/Graphics/SVG/1.1/DTD/svg11.dtd">
<!-- Generated by graphviz version 2.38.0 (20140413.2041)
 -->
<!-- Title: push1RestoreAll Pages: 1 -->
<!--zoomable 484 -->
<svg id="main" version="1.1" xmlns="http://www.w3.org/2000/svg" xmlns:xlink="http://www.w3.org/1999/xlink" xml:space="preserve" onload="init(evt)">
<style type="text/css"><![CDATA[
.edge:hover path { stroke: red; }
.edge:hover polygon { stroke: red; fill: red; }
]]></style>
<script type="text/javascript"><![CDATA[
var edges = document.getElementsByTagName('g');
if (edges && edges.length) {
  for (var i=0;i<edges.length;i++) {
    if (edges[i].id.substr(0,4)=='edge') {
      edges[i].setAttribute('class','edge');
    }
  }
}
]]></script>
        <defs>
                <circle id="rim" cx="0" cy="0" r="7"/>
                <circle id="rim2" cx="0" cy="0" r="3.5"/>
                <g id="zoomPlus">
                        <use xlink:href="#rim" fill="#404040">
                                <set attributeName="fill" to="#808080" begin="zoomplus.mouseover" end="zoomplus.mouseout"/>
                        </use>
                        <path d="M-4,0h8M0,-4v8" fill="none" stroke="white" stroke-width="1.5" pointer-events="none"/>
                </g>
                <g id="zoomMin">
                        <use xlink:href="#rim" fill="#404040">
                                <set attributeName="fill" to="#808080" begin="zoomminus.mouseover" end="zoomminus.mouseout"/>
                        </use>
                        <path d="M-4,0h8" fill="none" stroke="white" stroke-width="1.5" pointer-events="none"/>
                </g>
                <g id="dirArrow">
                        <path fill="none" stroke="white" stroke-width="1.5" d="M0,-3.0v7 M-2.5,-0.5L0,-3.0L2.5,-0.5"/>
                </g>
               <g id="resetDef">
                       <use xlink:href="#rim2" fill="#404040">
                               <set attributeName="fill" to="#808080" begin="reset.mouseover" end="reset.mouseout"/>
                       </use>
               </g>
        </defs>

<script type="text/javascript">
var viewWidth = 1419;
var viewHeight = 484;
var sectionId = 'dynsection-23';
</script>
<script xlink:href="svgpan.js"/>
<svg id="graph" class="graph">
<g id="viewport">
<title>push1RestoreAll</title>
<polygon fill="white" stroke="none" points="-4,4 -4,-480 1415,-480 1415,4 -4,4"/>
<!-- Node1 -->
<g id="node1" class="node"><title>Node1</title>
<polygon fill="#bfbfbf" stroke="black" points="0,-57.5 0,-76.5 89,-76.5 89,-57.5 0,-57.5"/>
<text text-anchor="middle" x="44.5" y="-64.5" font-family="Helvetica,sans-Serif" font-size="10.00">push1RestoreAll</text>
</g>
<!-- Node2 -->
<g id="node2" class="node"><title>Node2</title>
<g id="a_node2"><a xlink:href="stack_8cpp.html#ae73e1851820a958c7de01c9ed36d1b7c" target="_top" xlink:title="pushSymbolStack">
<polygon fill="white" stroke="black" points="125,-76.5 125,-95.5 221,-95.5 221,-76.5 125,-76.5"/>
<text text-anchor="middle" x="173" y="-83.5" font-family="Helvetica,sans-Serif" font-size="10.00">pushSymbolStack</text>
</a>
</g>
</g>
<!-- Node1&#45;&gt;Node2 -->
<g id="edge1" class="edge"><title>Node1&#45;&gt;Node2</title>
<path fill="none" stroke="midnightblue" d="M89.0341,-73.5387C97.3558,-74.7886 106.183,-76.1145 114.856,-77.4171"/>
<polygon fill="midnightblue" stroke="midnightblue" points="114.518,-80.9055 124.927,-78.9297 115.558,-73.9832 114.518,-80.9055"/>
</g>
<!-- Node4 -->
<g id="node4" class="node"><title>Node4</title>
<g id="a_node4"><a xlink:href="actions_8cpp.html#af4c12896b2807b2ac63725a650efea6b" target="_top" xlink:title="restoreActions">
<polygon fill="white" stroke="black" points="133,-38.5 133,-57.5 213,-57.5 213,-38.5 133,-38.5"/>
<text text-anchor="middle" x="173" y="-45.5" font-family="Helvetica,sans-Serif" font-size="10.00">restoreActions</text>
</a>
</g>
</g>
<!-- Node1&#45;&gt;Node4 -->
<g id="edge3" class="edge"><title>Node1&#45;&gt;Node4</title>
<path fill="none" stroke="midnightblue" d="M89.0341,-60.4613C99.8683,-58.834 111.56,-57.0779 122.652,-55.412"/>
<polygon fill="midnightblue" stroke="midnightblue" points="123.258,-58.8602 132.627,-53.9137 122.219,-51.9379 123.258,-58.8602"/>
</g>
<!-- Node3 -->
<g id="node3" class="node"><title>Node3</title>
<g id="a_node3"><a xlink:href="class_stack.html#ab11c0714a1585dcde1475111d994f0bb" target="_top" xlink:title="Push t onto the stack, if there is space for it. ">
<polygon fill="white" stroke="black" points="263.5,-76.5 263.5,-95.5 332.5,-95.5 332.5,-76.5 263.5,-76.5"/>
<text text-anchor="middle" x="298" y="-83.5" font-family="Helvetica,sans-Serif" font-size="10.00">Stack::push</text>
</a>
</g>
</g>
<!-- Node2&#45;&gt;Node3 -->
<g id="edge2" class="edge"><title>Node2&#45;&gt;Node3</title>
<path fill="none" stroke="midnightblue" d="M221.203,-86C231.772,-86 242.937,-86 253.353,-86"/>
<polygon fill="midnightblue" stroke="midnightblue" points="253.471,-89.5001 263.471,-86 253.471,-82.5001 253.471,-89.5001"/>
</g>
<!-- Node5 -->
<g id="node5" class="node"><title>Node5</title>
<g id="a_node5"><a xlink:href="actions_8cpp.html#a9cfd0adeb55456558a4fcddce4901fc0" target="_top" xlink:title="restorePending">
<polygon fill="white" stroke="black" points="257,-0.5 257,-19.5 339,-19.5 339,-0.5 257,-0.5"/>
<text text-anchor="middle" x="298" y="-7.5" font-family="Helvetica,sans-Serif" font-size="10.00">restorePending</text>
</a>
</g>
</g>
<!-- Node4&#45;&gt;Node5 -->
<g id="edge4" class="edge"><title>Node4&#45;&gt;Node5</title>
<path fill="none" stroke="midnightblue" d="M205.038,-38.411C220.479,-33.6406 239.348,-27.8112 255.966,-22.6771"/>
<polygon fill="midnightblue" stroke="midnightblue" points="257.451,-25.8818 265.972,-19.5859 255.384,-19.1937 257.451,-25.8818"/>
</g>
<!-- Node6 -->
<g id="node6" class="node"><title>Node6</title>
<g id="a_node6"><a xlink:href="libmorse_8cpp.html#ab94e088615119d1faae7df22ce50aedf" target="_top" xlink:title="Transmit a Morse code prosign indicating an error. ">
<polygon fill="white" stroke="black" points="275,-38.5 275,-57.5 321,-57.5 321,-38.5 275,-38.5"/>
<text text-anchor="middle" x="298" y="-45.5" font-family="Helvetica,sans-Serif" font-size="10.00">txError</text>
</a>
</g>
</g>
<!-- Node4&#45;&gt;Node6 -->
<g id="edge5" class="edge"><title>Node4&#45;&gt;Node6</title>
<path fill="none" stroke="midnightblue" d="M213.256,-48C229.822,-48 248.877,-48 264.621,-48"/>
<polygon fill="midnightblue" stroke="midnightblue" points="264.92,-51.5001 274.92,-48 264.92,-44.5001 264.92,-51.5001"/>
</g>
<!-- Node7 -->
<g id="node7" class="node"><title>Node7</title>
<g id="a_node7"><a xlink:href="libmorse_8cpp.html#a0ee2308940264ea9ac8e50afc1a4d285" target="_top" xlink:title="txString">
<polygon fill="white" stroke="black" points="375,-266.5 375,-285.5 425,-285.5 425,-266.5 375,-266.5"/>
<text text-anchor="middle" x="400" y="-273.5" font-family="Helvetica,sans-Serif" font-size="10.00">txString</text>
</a>
</g>
</g>
<!-- Node6&#45;&gt;Node7 -->
<g id="edge6" class="edge"><title>Node6&#45;&gt;Node7</title>
<path fill="none" stroke="midnightblue" d="M321.165,-54.5752C327.691,-57.4632 334.325,-61.4888 339,-67 386.887,-123.456 396.616,-216.059 398.548,-256.302"/>
<polygon fill="midnightblue" stroke="midnightblue" points="395.054,-256.532 398.916,-266.397 402.049,-256.277 395.054,-256.532"/>
</g>
<!-- Node8 -->
<g id="node8" class="node"><title>Node8</title>
<g id="a_node8"><a xlink:href="teensy3__morse__bsp_8cpp.html#ab306f692c5c9455a0c82782a67ff0147" target="_top" xlink:title="touchPoll">
<polygon fill="white" stroke="black" points="807,-342.5 807,-361.5 864,-361.5 864,-342.5 807,-342.5"/>
<text text-anchor="middle" x="835.5" y="-349.5" font-family="Helvetica,sans-Serif" font-size="10.00">touchPoll</text>
</a>
</g>
</g>
<!-- Node7&#45;&gt;Node8 -->
<g id="edge7" class="edge"><title>Node7&#45;&gt;Node8</title>
<path fill="none" stroke="midnightblue" d="M408.694,-285.787C419.065,-298.148 438.808,-318.901 461,-328 575.94,-375.13 727.517,-365.251 796.901,-357.227"/>
<polygon fill="midnightblue" stroke="midnightblue" points="797.414,-360.69 806.921,-356.014 796.573,-353.741 797.414,-360.69"/>
</g>
<!-- Node10 -->
<g id="node10" class="node"><title>Node10</title>
<g id="a_node10"><a xlink:href="settings_8cpp.html#a960551e90dfdad18f3c9b1338ccba7db" target="_top" xlink:title="Get the dit duration in microseconds. ">
<polygon fill="white" stroke="black" points="1048.5,-237.5 1048.5,-256.5 1120.5,-256.5 1120.5,-237.5 1048.5,-237.5"/>
<text text-anchor="middle" x="1084.5" y="-244.5" font-family="Helvetica,sans-Serif" font-size="10.00">getDitMicros</text>
</a>
</g>
</g>
<!-- Node7&#45;&gt;Node10 -->
<g id="edge9" class="edge"><title>Node7&#45;&gt;Node10</title>
<path fill="none" stroke="midnightblue" d="M425.213,-281.607C473.047,-292.177 583.165,-314 677,-314 677,-314 677,-314 836.5,-314 917.219,-314 1007.76,-280.259 1053.54,-260.665"/>
<polygon fill="midnightblue" stroke="midnightblue" points="1055.1,-263.802 1062.87,-256.599 1052.3,-257.385 1055.1,-263.802"/>
</g>
<!-- Node11 -->
<g id="node11" class="node"><title>Node11</title>
<g id="a_node11"><a xlink:href="libmorse_8cpp.html#a9fdfce728595d72b78dc7c834ab99a40" target="_top" xlink:title="Transmit a literal Morse code value. ">
<polygon fill="white" stroke="black" points="939.5,-95.5 939.5,-114.5 990.5,-114.5 990.5,-95.5 939.5,-95.5"/>
<text text-anchor="middle" x="965" y="-102.5" font-family="Helvetica,sans-Serif" font-size="10.00">txLiteral</text>
</a>
</g>
</g>
<!-- Node7&#45;&gt;Node11 -->
<g id="edge10" class="edge"><title>Node7&#45;&gt;Node11</title>
<path fill="none" stroke="midnightblue" d="M402.677,-266.237C407.258,-242.863 422.326,-183.652 461,-157 499.477,-130.483 821.874,-112.106 929.315,-106.67"/>
<polygon fill="midnightblue" stroke="midnightblue" points="929.502,-110.165 939.315,-106.17 929.153,-103.174 929.502,-110.165"/>
</g>
<!-- Node20 -->
<g id="node20" class="node"><title>Node20</title>
<g id="a_node20"><a xlink:href="libmorse_8cpp.html#acd4b292f5e412ee4f05aed9dafbc072d" target="_top" xlink:title="Convert an ASCII character into Morse code and transmit it. ">
<polygon fill="white" stroke="black" points="810.5,-76.5 810.5,-95.5 860.5,-95.5 860.5,-76.5 810.5,-76.5"/>
<text text-anchor="middle" x="835.5" y="-83.5" font-family="Helvetica,sans-Serif" font-size="10.00">txLetter</text>
</a>
</g>
</g>
<!-- Node7&#45;&gt;Node20 -->
<g id="edge21" class="edge"><title>Node7&#45;&gt;Node20</title>
<path fill="none" stroke="midnightblue" d="M401.104,-266.431C401.995,-237.251 409.049,-149.009 461,-110 513.827,-70.3332 718.372,-78.5386 800.292,-83.5932"/>
<polygon fill="midnightblue" stroke="midnightblue" points="800.131,-87.0899 810.334,-84.2354 800.578,-80.1042 800.131,-87.0899"/>
</g>
<!-- Node21 -->
<g id="node21" class="node"><title>Node21</title>
<g id="a_node21"><a xlink:href="teensy3__morse__bsp_8cpp.html#a8761e874366e227690fba2964e1bc445" target="_top" xlink:title="getInternalTemperatureC">
<polygon fill="white" stroke="black" points="615.5,-247.5 615.5,-266.5 740.5,-266.5 740.5,-247.5 615.5,-247.5"/>
<text text-anchor="middle" x="678" y="-254.5" font-family="Helvetica,sans-Serif" font-size="10.00">getInternalTemperatureC</text>
</a>
</g>
</g>
<!-- Node7&#45;&gt;Node21 -->
<g id="edge24" class="edge"><title>Node7&#45;&gt;Node21</title>
<path fill="none" stroke="midnightblue" d="M425.01,-274.347C464.745,-271.612 545.691,-266.039 605.162,-261.945"/>
<polygon fill="midnightblue" stroke="midnightblue" points="605.52,-265.429 615.256,-261.251 605.039,-258.446 605.52,-265.429"/>
</g>
<!-- Node22 -->
<g id="node22" class="node"><title>Node22</title>
<g id="a_node22"><a xlink:href="libmorse_8cpp.html#a47abdd74b66d7180c47d192bab8bdccb" target="_top" xlink:title="Transmit an unsigned integer in Morse code. ">
<polygon fill="white" stroke="black" points="645,-171.5 645,-190.5 711,-190.5 711,-171.5 645,-171.5"/>
<text text-anchor="middle" x="678" y="-178.5" font-family="Helvetica,sans-Serif" font-size="10.00">txUnsigned</text>
</a>
</g>
</g>
<!-- Node7&#45;&gt;Node22 -->
<g id="edge25" class="edge"><title>Node7&#45;&gt;Node22</title>
<path fill="none" stroke="midnightblue" d="M403.635,-266.451C409.78,-246.278 427.174,-199.644 461,-181 515.196,-151.129 589.273,-159.768 635.082,-169.682"/>
<polygon fill="midnightblue" stroke="midnightblue" points="634.441,-173.125 644.969,-171.937 635.998,-166.301 634.441,-173.125"/>
</g>
<!-- Node23 -->
<g id="node23" class="node"><title>Node23</title>
<g id="a_node23"><a xlink:href="actions_8cpp.html#aed718ec1bd4cc7adb2f65d40a6784496" target="_top" xlink:title="Transmit the internal temperature in integer in Fahrenheit. ">
<polygon fill="white" stroke="black" points="461,-228.5 461,-247.5 579,-247.5 579,-228.5 461,-228.5"/>
<text text-anchor="middle" x="520" y="-235.5" font-family="Helvetica,sans-Serif" font-size="10.00">txInternalTemperatureF</text>
</a>
</g>
</g>
<!-- Node7&#45;&gt;Node23 -->
<g id="edge28" class="edge"><title>Node7&#45;&gt;Node23</title>
<path fill="none" stroke="midnightblue" d="M425.164,-268.218C440.866,-263.162 461.696,-256.454 479.742,-250.642"/>
<polygon fill="midnightblue" stroke="midnightblue" points="480.985,-253.919 489.431,-247.522 478.839,-247.256 480.985,-253.919"/>
</g>
<!-- Node24 -->
<g id="node24" class="node"><title>Node24</title>
<g id="a_node24"><a xlink:href="actions_8cpp.html#aaabb3ac0c23f35a499bc17efe829f326" target="_top" xlink:title="Transmit the 24&#45;hr time. ">
<polygon fill="white" stroke="black" points="481,-456.5 481,-475.5 559,-475.5 559,-456.5 481,-456.5"/>
<text text-anchor="middle" x="520" y="-463.5" font-family="Helvetica,sans-Serif" font-size="10.00">txTimeHHMM</text>
</a>
</g>
</g>
<!-- Node7&#45;&gt;Node24 -->
<g id="edge31" class="edge"><title>Node7&#45;&gt;Node24</title>
<path fill="none" stroke="midnightblue" d="M401.862,-285.517C404.598,-313.571 415.819,-393.753 461,-438 468.779,-445.618 479.656,-450.181 489.893,-453.497"/>
<polygon fill="midnightblue" stroke="midnightblue" points="489.193,-456.941 499.777,-456.464 491.205,-450.237 489.193,-456.941"/>
</g>
<!-- Node25 -->
<g id="node25" class="node"><title>Node25</title>
<g id="a_node25"><a xlink:href="actions_8cpp.html#ad02149679fa3cc6a4957d1a318408ffd" target="_top" xlink:title="Transmit the uptime. ">
<polygon fill="white" stroke="black" points="492,-190.5 492,-209.5 548,-209.5 548,-190.5 492,-190.5"/>
<text text-anchor="middle" x="520" y="-197.5" font-family="Helvetica,sans-Serif" font-size="10.00">txUptime</text>
</a>
</g>
</g>
<!-- Node7&#45;&gt;Node25 -->
<g id="edge33" class="edge"><title>Node7&#45;&gt;Node25</title>
<path fill="none" stroke="midnightblue" d="M408.917,-266.146C419.53,-253.542 439.534,-231.814 461,-219 467.505,-215.117 474.901,-211.921 482.183,-209.331"/>
<polygon fill="midnightblue" stroke="midnightblue" points="483.512,-212.579 491.947,-206.167 481.355,-205.92 483.512,-212.579"/>
</g>
<!-- Node27 -->
<g id="node27" class="node"><title>Node27</title>
<g id="a_node27"><a xlink:href="teensy3__morse__bsp_8cpp.html#ae8dd28759e56dbd2ee9bc9ae96d1783c" target="_top" xlink:title="Return the most recent ADC measurement of the input voltage. Perform analog to digital conversion on ...">
<polygon fill="white" stroke="black" points="483,-418.5 483,-437.5 557,-437.5 557,-418.5 483,-418.5"/>
<text text-anchor="middle" x="520" y="-425.5" font-family="Helvetica,sans-Serif" font-size="10.00">readMillivolts</text>
</a>
</g>
</g>
<!-- Node7&#45;&gt;Node27 -->
<g id="edge36" class="edge"><title>Node7&#45;&gt;Node27</title>
<path fill="none" stroke="midnightblue" d="M403.017,-285.763C408.353,-309.266 424.97,-369.59 461,-404 465.088,-407.904 469.901,-411.212 474.977,-414.004"/>
<polygon fill="midnightblue" stroke="midnightblue" points="473.77,-417.307 484.299,-418.491 476.806,-411 473.77,-417.307"/>
</g>
<!-- Node31 -->
<g id="node31" class="node"><title>Node31</title>
<g id="a_node31"><a xlink:href="libmorse_8cpp.html#ac3f000c98271c6d0a7710135e18189bc" target="_top" xlink:title="On my hardware there is cross&#45;coupling between the serial port and the touch sensors. Without the code below, long messages to the serial port trigger a touch input. ">
<polygon fill="white" stroke="black" points="645.5,-380.5 645.5,-399.5 710.5,-399.5 710.5,-380.5 645.5,-380.5"/>
<text text-anchor="middle" x="678" y="-387.5" font-family="Helvetica,sans-Serif" font-size="10.00">flushTouch</text>
</a>
</g>
</g>
<!-- Node7&#45;&gt;Node31 -->
<g id="edge40" class="edge"><title>Node7&#45;&gt;Node31</title>
<path fill="none" stroke="midnightblue" d="M404.268,-285.652C411.28,-304.708 429.719,-346.962 461,-366 514.374,-398.484 589.081,-398.985 635.186,-395.287"/>
<polygon fill="midnightblue" stroke="midnightblue" points="635.773,-398.749 645.416,-394.36 635.141,-391.777 635.773,-398.749"/>
</g>
<!-- Node9 -->
<g id="node9" class="node"><title>Node9</title>
<g id="a_node9"><a xlink:href="teensy3__morse__bsp_8cpp.html#af6899cd9b83df54106b259ab81ea5cb2" target="_top" xlink:title="touchMargin">
<polygon fill="white" stroke="black" points="930,-342.5 930,-361.5 1000,-361.5 1000,-342.5 930,-342.5"/>
<text text-anchor="middle" x="965" y="-349.5" font-family="Helvetica,sans-Serif" font-size="10.00">touchMargin</text>
</a>
</g>
</g>
<!-- Node8&#45;&gt;Node9 -->
<g id="edge8" class="edge"><title>Node8&#45;&gt;Node9</title>
<path fill="none" stroke="midnightblue" d="M864.166,-352C880.281,-352 900.984,-352 919.355,-352"/>
<polygon fill="midnightblue" stroke="midnightblue" points="919.562,-355.5 929.562,-352 919.562,-348.5 919.562,-355.5"/>
</g>
<!-- Node11&#45;&gt;Node6 -->
<g id="edge20" class="edge"><title>Node11&#45;&gt;Node6</title>
<path fill="none" stroke="midnightblue" d="M948.942,-95.4548C935.101,-87.0181 913.79,-74.8641 894,-67 802.131,-30.4929 777.857,-10 679,-10 519,-10 519,-10 519,-10 451.324,-10 373.623,-27.677 331.054,-38.9181"/>
<polygon fill="midnightblue" stroke="midnightblue" points="330.012,-35.5739 321.267,-41.5538 331.833,-42.3331 330.012,-35.5739"/>
</g>
<!-- Node11&#45;&gt;Node10 -->
<g id="edge19" class="edge"><title>Node11&#45;&gt;Node10</title>
<path fill="none" stroke="midnightblue" d="M974.076,-114.76C993.613,-138.371 1043.66,-198.852 1068.73,-229.147"/>
<polygon fill="midnightblue" stroke="midnightblue" points="1066.3,-231.698 1075.37,-237.171 1071.69,-227.236 1066.3,-231.698"/>
</g>
<!-- Node12 -->
<g id="node12" class="node"><title>Node12</title>
<g id="a_node12"><a xlink:href="class_morse_token.html#a48cd72aeb868391449d1f51c1d0bf5cc" target="_top" xlink:title="Treat code == 0 as the error token. ">
<polygon fill="white" stroke="black" points="1036,-95.5 1036,-114.5 1133,-114.5 1133,-95.5 1036,-95.5"/>
<text text-anchor="middle" x="1084.5" y="-102.5" font-family="Helvetica,sans-Serif" font-size="10.00">MorseToken::valid</text>
</a>
</g>
</g>
<!-- Node11&#45;&gt;Node12 -->
<g id="edge11" class="edge"><title>Node11&#45;&gt;Node12</title>
<path fill="none" stroke="midnightblue" d="M990.632,-105C1000.83,-105 1013.13,-105 1025.39,-105"/>
<polygon fill="midnightblue" stroke="midnightblue" points="1025.64,-108.5 1035.64,-105 1025.64,-101.5 1025.64,-108.5"/>
</g>
<!-- Node13 -->
<g id="node13" class="node"><title>Node13</title>
<g id="a_node13"><a xlink:href="teensy3__morse__bsp_8cpp.html#af66e71e3fac9b6a2c6532bc8a513bfde" target="_top" xlink:title="Output a square wave on pin 10 at the given frequency for the given duration. ">
<polygon fill="white" stroke="black" points="1065.5,-57.5 1065.5,-76.5 1103.5,-76.5 1103.5,-57.5 1065.5,-57.5"/>
<text text-anchor="middle" x="1084.5" y="-64.5" font-family="Helvetica,sans-Serif" font-size="10.00">beep</text>
</a>
</g>
</g>
<!-- Node11&#45;&gt;Node13 -->
<g id="edge12" class="edge"><title>Node11&#45;&gt;Node13</title>
<path fill="none" stroke="midnightblue" d="M990.632,-97.034C1009.66,-90.8811 1035.99,-82.3656 1055.75,-75.9729"/>
<polygon fill="midnightblue" stroke="midnightblue" points="1056.98,-79.2545 1065.42,-72.8471 1054.83,-72.5941 1056.98,-79.2545"/>
</g>
<!-- Node19 -->
<g id="node19" class="node"><title>Node19</title>
<g id="a_node19"><a xlink:href="settings_8cpp.html#a8575b9b52638114a4f32d1462cf9b7c1" target="_top" xlink:title="Get the transmission frequency (side tone). ">
<polygon fill="white" stroke="black" points="1057.5,-133.5 1057.5,-152.5 1111.5,-152.5 1111.5,-133.5 1057.5,-133.5"/>
<text text-anchor="middle" x="1084.5" y="-140.5" font-family="Helvetica,sans-Serif" font-size="10.00">getTxHz</text>
</a>
</g>
</g>
<!-- Node11&#45;&gt;Node19 -->
<g id="edge18" class="edge"><title>Node11&#45;&gt;Node19</title>
<path fill="none" stroke="midnightblue" d="M990.632,-112.966C1007.17,-118.316 1029.24,-125.452 1047.71,-131.426"/>
<polygon fill="midnightblue" stroke="midnightblue" points="1046.68,-134.77 1057.27,-134.517 1048.83,-128.109 1046.68,-134.77"/>
</g>
<!-- Node14 -->
<g id="node14" class="node"><title>Node14</title>
<g id="a_node14"><a xlink:href="teensy3__morse__bsp_8cpp.html#a6f674d5b9985ea3a7eeb0df299c2e405" target="_top" xlink:title="pollEarphonePresent">
<polygon fill="white" stroke="black" points="1169,-114.5 1169,-133.5 1276,-133.5 1276,-114.5 1169,-114.5"/>
<text text-anchor="middle" x="1222.5" y="-121.5" font-family="Helvetica,sans-Serif" font-size="10.00">pollEarphonePresent</text>
</a>
</g>
</g>
<!-- Node13&#45;&gt;Node14 -->
<g id="edge13" class="edge"><title>Node13&#45;&gt;Node14</title>
<path fill="none" stroke="midnightblue" d="M1103.73,-73.7768C1112.65,-77.2214 1123.49,-81.6018 1133,-86 1149.42,-93.5922 1152.45,-97.6819 1169,-105 1173.53,-107.002 1178.34,-108.961 1183.14,-110.815"/>
<polygon fill="midnightblue" stroke="midnightblue" points="1182.29,-114.234 1192.88,-114.453 1184.74,-107.676 1182.29,-114.234"/>
</g>
<!-- Node15 -->
<g id="node15" class="node"><title>Node15</title>
<g id="a_node15"><a xlink:href="teensy3__morse__bsp_8cpp.html#a2d6b4ace33ed5e497dedd03217540c63" target="_top" xlink:title="Set the PWM frequency for the audio output pins. ">
<polygon fill="white" stroke="black" points="1181,-76.5 1181,-95.5 1264,-95.5 1264,-76.5 1181,-76.5"/>
<text text-anchor="middle" x="1222.5" y="-83.5" font-family="Helvetica,sans-Serif" font-size="10.00">pwmFrequency</text>
</a>
</g>
</g>
<!-- Node13&#45;&gt;Node15 -->
<g id="edge14" class="edge"><title>Node13&#45;&gt;Node15</title>
<path fill="none" stroke="midnightblue" d="M1103.56,-69.5231C1120.62,-71.906 1147.02,-75.5943 1170.52,-78.8776"/>
<polygon fill="midnightblue" stroke="midnightblue" points="1170.33,-82.3857 1180.72,-80.3031 1171.3,-75.4531 1170.33,-82.3857"/>
</g>
<!-- Node16 -->
<g id="node16" class="node"><title>Node16</title>
<g id="a_node16"><a xlink:href="teensy3__morse__bsp_8cpp.html#a82911eac3bf13d6f36d10102a4c4d3c4" target="_top" xlink:title="Generate a tone on the audio output pins. ">
<polygon fill="white" stroke="black" points="1192,-38.5 1192,-57.5 1253,-57.5 1253,-38.5 1192,-38.5"/>
<text text-anchor="middle" x="1222.5" y="-45.5" font-family="Helvetica,sans-Serif" font-size="10.00">pwmWrite</text>
</a>
</g>
</g>
<!-- Node13&#45;&gt;Node16 -->
<g id="edge15" class="edge"><title>Node13&#45;&gt;Node16</title>
<path fill="none" stroke="midnightblue" d="M1103.56,-64.4769C1123.46,-61.6965 1156.08,-57.1391 1181.98,-53.5213"/>
<polygon fill="midnightblue" stroke="midnightblue" points="1182.47,-56.9867 1191.89,-52.1366 1181.5,-50.054 1182.47,-56.9867"/>
</g>
<!-- Node18 -->
<g id="node18" class="node"><title>Node18</title>
<g id="a_node18"><a xlink:href="teensy3__morse__bsp_8cpp.html#a6c982a7d7805f1dd5426eb98c915cfdd" target="_top" xlink:title="Turn the red LED on (1) or off (0). ">
<polygon fill="white" stroke="black" points="1197.5,-0.5 1197.5,-19.5 1247.5,-19.5 1247.5,-0.5 1197.5,-0.5"/>
<text text-anchor="middle" x="1222.5" y="-7.5" font-family="Helvetica,sans-Serif" font-size="10.00">redLED</text>
</a>
</g>
</g>
<!-- Node13&#45;&gt;Node18 -->
<g id="edge17" class="edge"><title>Node13&#45;&gt;Node18</title>
<path fill="none" stroke="midnightblue" d="M1103.56,-58.2751C1120.35,-50.2852 1146.14,-38.3208 1169,-29 1175.01,-26.5503 1181.46,-24.0826 1187.72,-21.7739"/>
<polygon fill="midnightblue" stroke="midnightblue" points="1189.09,-25.0001 1197.3,-18.3021 1186.71,-18.419 1189.09,-25.0001"/>
</g>
<!-- Node17 -->
<g id="node17" class="node"><title>Node17</title>
<g id="a_node17"><a xlink:href="teensy3__morse__bsp_8cpp.html#ac70998cee1bf97f00aec4a1b4e5a4f60" target="_top" xlink:title="isEarphonePresent">
<polygon fill="white" stroke="black" points="1312,-38.5 1312,-57.5 1411,-57.5 1411,-38.5 1312,-38.5"/>
<text text-anchor="middle" x="1361.5" y="-45.5" font-family="Helvetica,sans-Serif" font-size="10.00">isEarphonePresent</text>
</a>
</g>
</g>
<!-- Node16&#45;&gt;Node17 -->
<g id="edge16" class="edge"><title>Node16&#45;&gt;Node17</title>
<path fill="none" stroke="midnightblue" d="M1253.23,-48C1267.43,-48 1284.96,-48 1301.7,-48"/>
<polygon fill="midnightblue" stroke="midnightblue" points="1301.98,-51.5001 1311.98,-48 1301.98,-44.5001 1301.98,-51.5001"/>
</g>
<!-- Node20&#45;&gt;Node6 -->
<g id="edge23" class="edge"><title>Node20&#45;&gt;Node6</title>
<path fill="none" stroke="midnightblue" d="M810.312,-83.1224C791.45,-80.949 764.586,-78.0074 741,-76 587.969,-62.9755 404.654,-53.2295 331.48,-49.5752"/>
<polygon fill="midnightblue" stroke="midnightblue" points="331.262,-46.0601 321.101,-49.0609 330.915,-53.0516 331.262,-46.0601"/>
</g>
<!-- Node20&#45;&gt;Node11 -->
<g id="edge22" class="edge"><title>Node20&#45;&gt;Node11</title>
<path fill="none" stroke="midnightblue" d="M860.782,-89.6185C880.154,-92.5054 907.544,-96.5869 929.24,-99.8201"/>
<polygon fill="midnightblue" stroke="midnightblue" points="928.968,-103.318 939.374,-101.33 929.999,-96.3945 928.968,-103.318"/>
</g>
<!-- Node22&#45;&gt;Node8 -->
<g id="edge26" class="edge"><title>Node22&#45;&gt;Node8</title>
<path fill="none" stroke="midnightblue" d="M711.045,-186.152C721.369,-188.973 732.362,-193.319 741,-200 786.797,-235.422 815.556,-300.126 827.747,-332.486"/>
<polygon fill="midnightblue" stroke="midnightblue" points="824.546,-333.925 831.248,-342.131 831.126,-331.537 824.546,-333.925"/>
</g>
<!-- Node22&#45;&gt;Node20 -->
<g id="edge27" class="edge"><title>Node22&#45;&gt;Node20</title>
<path fill="none" stroke="midnightblue" d="M694.766,-171.368C721.892,-154.796 777.583,-120.772 809.866,-101.049"/>
<polygon fill="midnightblue" stroke="midnightblue" points="811.984,-103.858 818.692,-95.6574 808.334,-97.8841 811.984,-103.858"/>
</g>
<!-- Node23&#45;&gt;Node21 -->
<g id="edge29" class="edge"><title>Node23&#45;&gt;Node21</title>
<path fill="none" stroke="midnightblue" d="M579.089,-245.075C587.711,-246.125 596.682,-247.218 605.54,-248.296"/>
<polygon fill="midnightblue" stroke="midnightblue" points="605.117,-251.771 615.467,-249.506 605.964,-244.822 605.117,-251.771"/>
</g>
<!-- Node23&#45;&gt;Node22 -->
<g id="edge30" class="edge"><title>Node23&#45;&gt;Node22</title>
<path fill="none" stroke="midnightblue" d="M553.57,-228.401C561.96,-225.638 570.903,-222.434 579,-219 595.656,-211.937 598.277,-206.903 615,-200 621.362,-197.374 628.222,-194.918 634.979,-192.701"/>
<polygon fill="midnightblue" stroke="midnightblue" points="636.246,-195.972 644.735,-189.633 634.145,-189.295 636.246,-195.972"/>
</g>
<!-- Node24&#45;&gt;Node7 -->
<g id="edge32" class="edge"><title>Node24&#45;&gt;Node7</title>
<path fill="none" stroke="midnightblue" d="M480.931,-467.842C473.617,-465.283 466.526,-461.412 461,-456 416.184,-412.111 404.782,-332.865 401.93,-295.704"/>
<polygon fill="midnightblue" stroke="midnightblue" points="405.416,-295.368 401.292,-285.609 398.43,-295.809 405.416,-295.368"/>
</g>
<!-- Node25&#45;&gt;Node22 -->
<g id="edge35" class="edge"><title>Node25&#45;&gt;Node22</title>
<path fill="none" stroke="midnightblue" d="M548.173,-196.69C572.014,-193.787 607.076,-189.516 634.605,-186.163"/>
<polygon fill="midnightblue" stroke="midnightblue" points="635.244,-189.612 644.748,-184.928 634.398,-182.663 635.244,-189.612"/>
</g>
<!-- Node26 -->
<g id="node26" class="node"><title>Node26</title>
<g id="a_node26"><a xlink:href="settings_8cpp.html#a7b4efa097b94f9a90c5bbafcdf93fe4f" target="_top" xlink:title="getUptime">
<polygon fill="white" stroke="black" points="647,-209.5 647,-228.5 709,-228.5 709,-209.5 647,-209.5"/>
<text text-anchor="middle" x="678" y="-216.5" font-family="Helvetica,sans-Serif" font-size="10.00">getUptime</text>
</a>
</g>
</g>
<!-- Node25&#45;&gt;Node26 -->
<g id="edge34" class="edge"><title>Node25&#45;&gt;Node26</title>
<path fill="none" stroke="midnightblue" d="M548.173,-203.31C572.633,-206.289 608.905,-210.706 636.735,-214.096"/>
<polygon fill="midnightblue" stroke="midnightblue" points="636.595,-217.605 646.945,-215.339 637.441,-210.656 636.595,-217.605"/>
</g>
<!-- Node28 -->
<g id="node28" class="node"><title>Node28</title>
<g id="a_node28"><a xlink:href="class_voltage_monitor.html#a70902b84f9864c95d5553a0644a64f4f" target="_top" xlink:title="Return the latest voltage reading. ">
<polygon fill="white" stroke="black" points="615,-418.5 615,-437.5 741,-437.5 741,-418.5 615,-418.5"/>
<text text-anchor="middle" x="678" y="-425.5" font-family="Helvetica,sans-Serif" font-size="10.00">VoltageMonitor::getValue</text>
</a>
</g>
</g>
<!-- Node27&#45;&gt;Node28 -->
<g id="edge37" class="edge"><title>Node27&#45;&gt;Node28</title>
<path fill="none" stroke="midnightblue" d="M557.182,-428C571.344,-428 588.117,-428 604.56,-428"/>
<polygon fill="midnightblue" stroke="midnightblue" points="604.728,-431.5 614.728,-428 604.728,-424.5 604.728,-431.5"/>
</g>
<!-- Node29 -->
<g id="node29" class="node"><title>Node29</title>
<g id="a_node29"><a xlink:href="actions_8cpp.html#a2b8c3769e2aa32a2da9e2f3f85ac73dd" target="_top" xlink:title="A sample ADC reading is taken each time through the main loop, and written to a ring buffer...">
<polygon fill="white" stroke="black" points="779.5,-399.5 779.5,-418.5 891.5,-418.5 891.5,-399.5 779.5,-399.5"/>
<text text-anchor="middle" x="835.5" y="-406.5" font-family="Helvetica,sans-Serif" font-size="10.00">getVoltagePollInterval</text>
</a>
</g>
</g>
<!-- Node28&#45;&gt;Node29 -->
<g id="edge38" class="edge"><title>Node28&#45;&gt;Node29</title>
<path fill="none" stroke="midnightblue" d="M741.352,-420.381C750.438,-419.271 759.816,-418.125 768.963,-417.008"/>
<polygon fill="midnightblue" stroke="midnightblue" points="769.662,-420.448 779.163,-415.761 768.813,-413.5 769.662,-420.448"/>
</g>
<!-- Node30 -->
<g id="node30" class="node"><title>Node30</title>
<g id="a_node30"><a xlink:href="class_voltage_monitor.html#a75871331808c34b40d04059ee2af0f27" target="_top" xlink:title="Filter and scale raw ADC values to millivolts. ">
<polygon fill="white" stroke="black" points="777,-437.5 777,-456.5 894,-456.5 894,-437.5 777,-437.5"/>
<text text-anchor="middle" x="835.5" y="-444.5" font-family="Helvetica,sans-Serif" font-size="10.00">VoltageMonitor::update</text>
</a>
</g>
</g>
<!-- Node28&#45;&gt;Node30 -->
<g id="edge39" class="edge"><title>Node28&#45;&gt;Node30</title>
<path fill="none" stroke="midnightblue" d="M741.352,-435.619C749.702,-436.639 758.298,-437.689 766.735,-438.72"/>
<polygon fill="midnightblue" stroke="midnightblue" points="766.57,-442.226 776.92,-439.965 767.419,-435.277 766.57,-442.226"/>
</g>
<!-- Node31&#45;&gt;Node8 -->
<g id="edge41" class="edge"><title>Node31&#45;&gt;Node8</title>
<path fill="none" stroke="midnightblue" d="M710.843,-382.218C735.788,-376.123 770.554,-367.627 796.872,-361.195"/>
<polygon fill="midnightblue" stroke="midnightblue" points="797.98,-364.528 806.864,-358.754 796.318,-357.728 797.98,-364.528"/>
</g>
</g>
</svg>
        <g id="navigator" transform="translate(0 0)" fill="#404254">
                <rect fill="#f2f5e9" fill-opacity="0.5" stroke="#606060" stroke-width=".5" x="0" y="0" width="60" height="60"/>
                <use id="zoomplus" xlink:href="#zoomPlus" x="17" y="9" onmousedown="handleZoom(evt,'in')"/>
                <use id="zoomminus" xlink:href="#zoomMin" x="42" y="9" onmousedown="handleZoom(evt,'out')"/>
                <use id="reset" xlink:href="#resetDef" x="30" y="36" onmousedown="handleReset()"/>
                <g id="arrowUp" xlink:href="#dirArrow" transform="translate(30 24)" onmousedown="handlePan(0,-1)">
                  <use xlink:href="#rim" fill="#404040">
                        <set attributeName="fill" to="#808080" begin="arrowUp.mouseover" end="arrowUp.mouseout"/>
                  </use>
                  <path fill="none" stroke="white" stroke-width="1.5" d="M0,-3.0v7 M-2.5,-0.5L0,-3.0L2.5,-0.5"/>
                </g>
                <g id="arrowRight" xlink:href="#dirArrow" transform="rotate(90) translate(36 -43)" onmousedown="handlePan(1,0)">
                  <use xlink:href="#rim" fill="#404040">
                        <set attributeName="fill" to="#808080" begin="arrowRight.mouseover" end="arrowRight.mouseout"/>
                  </use>
                  <path fill="none" stroke="white" stroke-width="1.5" d="M0,-3.0v7 M-2.5,-0.5L0,-3.0L2.5,-0.5"/>
                </g>
                <g id="arrowDown" xlink:href="#dirArrow" transform="rotate(180) translate(-30 -48)" onmousedown="handlePan(0,1)">
                  <use xlink:href="#rim" fill="#404040">
                        <set attributeName="fill" to="#808080" begin="arrowDown.mouseover" end="arrowDown.mouseout"/>
                  </use>
                  <path fill="none" stroke="white" stroke-width="1.5" d="M0,-3.0v7 M-2.5,-0.5L0,-3.0L2.5,-0.5"/>
                </g>
                <g id="arrowLeft" xlink:href="#dirArrow" transform="rotate(270) translate(-36 17)" onmousedown="handlePan(-1,0)">
                  <use xlink:href="#rim" fill="#404040">
                        <set attributeName="fill" to="#808080" begin="arrowLeft.mouseover" end="arrowLeft.mouseout"/>
                  </use>
                  <path fill="none" stroke="white" stroke-width="1.5" d="M0,-3.0v7 M-2.5,-0.5L0,-3.0L2.5,-0.5"/>
                </g>
        </g>
        <svg viewBox="0 0 15 15" width="100%" height="30px" preserveAspectRatio="xMaxYMin meet">
         <g id="arrow_out" transform="scale(0.3 0.3)">
          <a xlink:href="actions_8h_ad07e1d9a717a212364090e192e951ea5_cgraph_org.svg" target="_base">
           <rect id="button" ry="5" rx="5" y="6" x="6" height="38" width="38"
                fill="#f2f5e9" fill-opacity="0.5" stroke="#606060" stroke-width="1.0"/>
           <path id="arrow"
             d="M 11.500037,31.436501 C 11.940474,20.09759 22.043105,11.32322 32.158766,21.979434 L 37.068811,17.246167 C 37.068811,17.246167 37.088388,32 37.088388,32 L 22.160133,31.978069 C 22.160133,31.978069 26.997745,27.140456 26.997745,27.140456 C 18.528582,18.264221 13.291696,25.230495 11.500037,31.436501 z"
             style="fill:#404040;"/>
          </a>
         </g>
        </svg>
</svg>
