<?xml version="1.0" encoding="UTF-8" standalone="no"?>
<!DOCTYPE svg PUBLIC "-//W3C//DTD SVG 1.1//EN"
 "http://www.w3.org/Graphics/SVG/1.1/DTD/svg11.dtd">
<!-- Generated by graphviz version 2.38.0 (20140413.2041)
 -->
<!-- Title: binconst.h Pages: 1 -->
<!--zoomable 364 -->
<svg id="main" version="1.1" xmlns="http://www.w3.org/2000/svg" xmlns:xlink="http://www.w3.org/1999/xlink" xml:space="preserve" onload="init(evt)">
<style type="text/css"><![CDATA[
.edge:hover path { stroke: red; }
.edge:hover polygon { stroke: red; fill: red; }
]]></style>
<script type="text/javascript"><![CDATA[
var edges = document.getElementsByTagName('g');
if (edges && edges.length) {
  for (var i=0;i<edges.length;i++) {
    if (edges[i].id.substr(0,4)=='edge') {
      edges[i].setAttribute('class','edge');
    }
  }
}
]]></script>
        <defs>
                <circle id="rim" cx="0" cy="0" r="7"/>
                <circle id="rim2" cx="0" cy="0" r="3.5"/>
                <g id="zoomPlus">
                        <use xlink:href="#rim" fill="#404040">
                                <set attributeName="fill" to="#808080" begin="zoomplus.mouseover" end="zoomplus.mouseout"/>
                        </use>
                        <path d="M-4,0h8M0,-4v8" fill="none" stroke="white" stroke-width="1.5" pointer-events="none"/>
                </g>
                <g id="zoomMin">
                        <use xlink:href="#rim" fill="#404040">
                                <set attributeName="fill" to="#808080" begin="zoomminus.mouseover" end="zoomminus.mouseout"/>
                        </use>
                        <path d="M-4,0h8" fill="none" stroke="white" stroke-width="1.5" pointer-events="none"/>
                </g>
                <g id="dirArrow">
                        <path fill="none" stroke="white" stroke-width="1.5" d="M0,-3.0v7 M-2.5,-0.5L0,-3.0L2.5,-0.5"/>
                </g>
               <g id="resetDef">
                       <use xlink:href="#rim2" fill="#404040">
                               <set attributeName="fill" to="#808080" begin="reset.mouseover" end="reset.mouseout"/>
                       </use>
               </g>
        </defs>

<script type="text/javascript">
var viewWidth = 655;
var viewHeight = 364;
var sectionId = 'dynsection-0';
</script>
<script xlink:href="svgpan.js"/>
<svg id="graph" class="graph">
<g id="viewport">
<title>binconst.h</title>
<polygon fill="white" stroke="none" points="-4,4 -4,-360 651.334,-360 651.334,4 -4,4"/>
<!-- Node1 -->
<g id="node1" class="node"><title>Node1</title>
<polygon fill="#bfbfbf" stroke="black" points="26.8338,-336.5 26.8338,-355.5 88.8338,-355.5 88.8338,-336.5 26.8338,-336.5"/>
<text text-anchor="middle" x="57.8338" y="-343.5" font-family="Helvetica,sans-Serif" font-size="10.00">binconst.h</text>
</g>
<!-- Node2 -->
<g id="node2" class="node"><title>Node2</title>
<g id="a_node2"><a xlink:href="libmorse_8h.xhtml" target="_top" xlink:title="Morse code operations. ">
<polygon fill="white" stroke="black" points="53.8338,-168.5 53.8338,-187.5 115.834,-187.5 115.834,-168.5 53.8338,-168.5"/>
<text text-anchor="middle" x="84.8338" y="-175.5" font-family="Helvetica,sans-Serif" font-size="10.00">libmorse.h</text>
</a>
</g>
</g>
<!-- Node1&#45;&gt;Node2 -->
<g id="edge1" class="edge"><title>Node1&#45;&gt;Node2</title>
<path fill="none" stroke="midnightblue" d="M60.9356,-325.93C66.7925,-289.92 79.2661,-213.231 83.4402,-187.568"/>
<polygon fill="midnightblue" stroke="midnightblue" points="57.4363,-325.643 59.2854,-336.075 64.3455,-326.767 57.4363,-325.643"/>
</g>
<!-- Node14 -->
<g id="node14" class="node"><title>Node14</title>
<g id="a_node14"><a xlink:href="prosign_8h.xhtml" target="_top" xlink:title="Prosign constants. ">
<polygon fill="white" stroke="black" points="175.834,-280.5 175.834,-299.5 231.834,-299.5 231.834,-280.5 175.834,-280.5"/>
<text text-anchor="middle" x="203.834" y="-287.5" font-family="Helvetica,sans-Serif" font-size="10.00">prosign.h</text>
</a>
</g>
</g>
<!-- Node1&#45;&gt;Node14 -->
<g id="edge16" class="edge"><title>Node1&#45;&gt;Node14</title>
<path fill="none" stroke="midnightblue" d="M90.5329,-332.906C117.982,-322.754 156.502,-308.506 180.808,-299.516"/>
<polygon fill="midnightblue" stroke="midnightblue" points="89.1328,-329.692 80.9679,-336.444 91.5611,-336.257 89.1328,-329.692"/>
</g>
<!-- Node3 -->
<g id="node3" class="node"><title>Node3</title>
<g id="a_node3"><a xlink:href="actions_8h.xhtml" target="_top" xlink:title="Application&#45;specific actions. ">
<polygon fill="white" stroke="black" points="244.834,-112.5 244.834,-131.5 300.834,-131.5 300.834,-112.5 244.834,-112.5"/>
<text text-anchor="middle" x="272.834" y="-119.5" font-family="Helvetica,sans-Serif" font-size="10.00">actions.h</text>
</a>
</g>
</g>
<!-- Node2&#45;&gt;Node3 -->
<g id="edge2" class="edge"><title>Node2&#45;&gt;Node3</title>
<path fill="none" stroke="midnightblue" d="M124.327,-165.656C160.375,-155.302 212.764,-140.254 244.719,-131.075"/>
<polygon fill="midnightblue" stroke="midnightblue" points="123.268,-162.319 114.623,-168.444 125.201,-169.047 123.268,-162.319"/>
</g>
<!-- Node5 -->
<g id="node5" class="node"><title>Node5</title>
<g id="a_node5"><a xlink:href="libmorse_8cpp.xhtml" target="_top" xlink:title="Implementation of Morse code operations. ">
<polygon fill="white" stroke="black" points="15.8338,-56.5 15.8338,-75.5 87.8338,-75.5 87.8338,-56.5 15.8338,-56.5"/>
<text text-anchor="middle" x="51.8338" y="-63.5" font-family="Helvetica,sans-Serif" font-size="10.00">libmorse.cpp</text>
</a>
</g>
</g>
<!-- Node2&#45;&gt;Node5 -->
<g id="edge11" class="edge"><title>Node2&#45;&gt;Node5</title>
<path fill="none" stroke="midnightblue" d="M66.0436,-161.657C57.8644,-153.761 49.169,-143.402 44.8338,-132 37.5734,-112.904 43.9836,-88.5266 48.4296,-75.7357"/>
<polygon fill="midnightblue" stroke="midnightblue" points="63.7933,-164.34 73.5683,-168.427 68.4753,-159.137 63.7933,-164.34"/>
</g>
<!-- Node11 -->
<g id="node11" class="node"><title>Node11</title>
<g id="a_node11"><a xlink:href="teensy3__morse__bsp_8cpp.xhtml" target="_top" xlink:title="Implementation of Teensy 3.0 board support package. ">
<polygon fill="white" stroke="black" points="43.3338,-0.5 43.3338,-19.5 166.334,-19.5 166.334,-0.5 43.3338,-0.5"/>
<text text-anchor="middle" x="104.834" y="-7.5" font-family="Helvetica,sans-Serif" font-size="10.00">teensy3_morse_bsp.cpp</text>
</a>
</g>
</g>
<!-- Node2&#45;&gt;Node11 -->
<g id="edge15" class="edge"><title>Node2&#45;&gt;Node11</title>
<path fill="none" stroke="midnightblue" d="M62.9105,-162.124C32.0799,-139.31 -17.7235,-94.2988 6.83381,-56 19.011,-37.0089 41.4375,-25.9259 61.7666,-19.5139"/>
<polygon fill="midnightblue" stroke="midnightblue" points="61.2287,-165.225 71.3962,-168.204 65.3054,-159.535 61.2287,-165.225"/>
</g>
<!-- Node12 -->
<g id="node12" class="node"><title>Node12</title>
<g id="a_node12"><a xlink:href="pda_8h.xhtml" target="_top" xlink:title="Personal Digital Assistant functions. ">
<polygon fill="white" stroke="black" points="134.334,-112.5 134.334,-131.5 175.334,-131.5 175.334,-112.5 134.334,-112.5"/>
<text text-anchor="middle" x="154.834" y="-119.5" font-family="Helvetica,sans-Serif" font-size="10.00">pda.h</text>
</a>
</g>
</g>
<!-- Node2&#45;&gt;Node12 -->
<g id="edge12" class="edge"><title>Node2&#45;&gt;Node12</title>
<path fill="none" stroke="midnightblue" d="M104.148,-162.101C116.746,-152.382 132.762,-140.027 143.382,-131.834"/>
<polygon fill="midnightblue" stroke="midnightblue" points="101.861,-159.445 96.0805,-168.324 106.136,-164.987 101.861,-159.445"/>
</g>
<!-- Node13 -->
<g id="node13" class="node"><title>Node13</title>
<g id="a_node13"><a xlink:href="sound_8cpp.xhtml" target="_top" xlink:title="Implementation of PWM sound effects. ">
<polygon fill="white" stroke="black" points="53.8338,-112.5 53.8338,-131.5 115.834,-131.5 115.834,-112.5 53.8338,-112.5"/>
<text text-anchor="middle" x="84.8338" y="-119.5" font-family="Helvetica,sans-Serif" font-size="10.00">sound.cpp</text>
</a>
</g>
</g>
<!-- Node2&#45;&gt;Node13 -->
<g id="edge14" class="edge"><title>Node2&#45;&gt;Node13</title>
<path fill="none" stroke="midnightblue" d="M84.8338,-157.805C84.8338,-148.91 84.8338,-138.78 84.8338,-131.751"/>
<polygon fill="midnightblue" stroke="midnightblue" points="81.3339,-158.083 84.8338,-168.083 88.3339,-158.083 81.3339,-158.083"/>
</g>
<!-- Node4 -->
<g id="node4" class="node"><title>Node4</title>
<g id="a_node4"><a xlink:href="actions_8cpp.xhtml" target="_top" xlink:title="Implementation of application&#45;specific actions. ">
<polygon fill="white" stroke="black" points="580.334,-56.5 580.334,-75.5 647.334,-75.5 647.334,-56.5 580.334,-56.5"/>
<text text-anchor="middle" x="613.834" y="-63.5" font-family="Helvetica,sans-Serif" font-size="10.00">actions.cpp</text>
</a>
</g>
</g>
<!-- Node3&#45;&gt;Node4 -->
<g id="edge3" class="edge"><title>Node3&#45;&gt;Node4</title>
<path fill="none" stroke="midnightblue" d="M310.815,-115.964C367.558,-108.283 477.757,-92.7545 570.834,-76 573.836,-75.4595 576.95,-74.8682 580.068,-74.2552"/>
<polygon fill="midnightblue" stroke="midnightblue" points="310.301,-112.502 300.858,-117.306 311.236,-119.439 310.301,-112.502"/>
</g>
<!-- Node3&#45;&gt;Node5 -->
<g id="edge4" class="edge"><title>Node3&#45;&gt;Node5</title>
<path fill="none" stroke="midnightblue" d="M234.623,-111.663C192.996,-101.492 126.98,-85.3615 86.7128,-75.5225"/>
<polygon fill="midnightblue" stroke="midnightblue" points="233.849,-115.077 244.394,-114.051 235.511,-108.277 233.849,-115.077"/>
</g>
<!-- Node6 -->
<g id="node6" class="node"><title>Node6</title>
<g id="a_node6"><a xlink:href="morse__digit_8cpp.xhtml" target="_top" xlink:title="Implementation of decimal digit to Morse code conversion. ">
<polygon fill="white" stroke="black" points="287.834,-56.5 287.834,-75.5 373.834,-75.5 373.834,-56.5 287.834,-56.5"/>
<text text-anchor="middle" x="330.834" y="-63.5" font-family="Helvetica,sans-Serif" font-size="10.00">morse_digit.cpp</text>
</a>
</g>
</g>
<!-- Node3&#45;&gt;Node6 -->
<g id="edge5" class="edge"><title>Node3&#45;&gt;Node6</title>
<path fill="none" stroke="midnightblue" d="M289.747,-105.253C300.037,-95.6731 312.799,-83.7906 321.346,-75.8339"/>
<polygon fill="midnightblue" stroke="midnightblue" points="287.087,-102.948 282.153,-112.324 291.856,-108.071 287.087,-102.948"/>
</g>
<!-- Node7 -->
<g id="node7" class="node"><title>Node7</title>
<g id="a_node7"><a xlink:href="morse__token_8cpp.xhtml" target="_top" xlink:title="Implementation of Morse code operations. ">
<polygon fill="white" stroke="black" points="469.834,-56.5 469.834,-75.5 561.834,-75.5 561.834,-56.5 469.834,-56.5"/>
<text text-anchor="middle" x="515.834" y="-63.5" font-family="Helvetica,sans-Serif" font-size="10.00">morse_token.cpp</text>
</a>
</g>
</g>
<!-- Node3&#45;&gt;Node7 -->
<g id="edge6" class="edge"><title>Node3&#45;&gt;Node7</title>
<path fill="none" stroke="midnightblue" d="M311.228,-112.468C356.642,-102.376 431.801,-85.6739 477.284,-75.5667"/>
<polygon fill="midnightblue" stroke="midnightblue" points="310.187,-109.114 301.185,-114.7 311.706,-115.947 310.187,-109.114"/>
</g>
<!-- Node8 -->
<g id="node8" class="node"><title>Node8</title>
<g id="a_node8"><a xlink:href="pda_8cpp.xhtml" target="_top" xlink:title="Implementation of Personal Digital Assistant functions. ">
<polygon fill="white" stroke="black" points="106.334,-56.5 106.334,-75.5 157.334,-75.5 157.334,-56.5 106.334,-56.5"/>
<text text-anchor="middle" x="131.834" y="-63.5" font-family="Helvetica,sans-Serif" font-size="10.00">pda.cpp</text>
</a>
</g>
</g>
<!-- Node3&#45;&gt;Node8 -->
<g id="edge7" class="edge"><title>Node3&#45;&gt;Node8</title>
<path fill="none" stroke="midnightblue" d="M240.905,-108.772C214.42,-98.6287 177.442,-84.4669 154.071,-75.5164"/>
<polygon fill="midnightblue" stroke="midnightblue" points="239.902,-112.136 250.492,-112.444 242.405,-105.599 239.902,-112.136"/>
</g>
<!-- Node9 -->
<g id="node9" class="node"><title>Node9</title>
<g id="a_node9"><a xlink:href="stack_8cpp.xhtml" target="_top" xlink:title="Implementation of Stack&#45;related convenience functions. ">
<polygon fill="white" stroke="black" points="392.334,-56.5 392.334,-75.5 451.334,-75.5 451.334,-56.5 392.334,-56.5"/>
<text text-anchor="middle" x="421.834" y="-63.5" font-family="Helvetica,sans-Serif" font-size="10.00">stack.cpp</text>
</a>
</g>
</g>
<!-- Node3&#45;&gt;Node9 -->
<g id="edge8" class="edge"><title>Node3&#45;&gt;Node9</title>
<path fill="none" stroke="midnightblue" d="M306.205,-108.906C334.218,-98.7536 373.529,-84.5063 398.335,-75.5164"/>
<polygon fill="midnightblue" stroke="midnightblue" points="304.652,-105.746 296.443,-112.444 307.037,-112.327 304.652,-105.746"/>
</g>
<!-- Node10 -->
<g id="node10" class="node"><title>Node10</title>
<g id="a_node10"><a xlink:href="voltage__monitor_8h.xhtml" target="_top" xlink:title="Trivial co&#45;routine to gather and filter ADC samples. ">
<polygon fill="white" stroke="black" points="175.834,-56.5 175.834,-75.5 269.834,-75.5 269.834,-56.5 175.834,-56.5"/>
<text text-anchor="middle" x="222.834" y="-63.5" font-family="Helvetica,sans-Serif" font-size="10.00">voltage_monitor.h</text>
</a>
</g>
</g>
<!-- Node3&#45;&gt;Node10 -->
<g id="edge9" class="edge"><title>Node3&#45;&gt;Node10</title>
<path fill="none" stroke="midnightblue" d="M257.757,-104.718C248.945,-95.1997 238.168,-83.5608 230.937,-75.7511"/>
<polygon fill="midnightblue" stroke="midnightblue" points="255.215,-107.123 264.577,-112.083 260.351,-102.367 255.215,-107.123"/>
</g>
<!-- Node10&#45;&gt;Node11 -->
<g id="edge10" class="edge"><title>Node10&#45;&gt;Node11</title>
<path fill="none" stroke="midnightblue" d="M194.934,-52.2321C172.861,-42.1312 142.658,-28.3091 123.444,-19.5164"/>
<polygon fill="midnightblue" stroke="midnightblue" points="193.587,-55.4648 204.136,-56.4435 196.5,-49.0997 193.587,-55.4648"/>
</g>
<!-- Node12&#45;&gt;Node8 -->
<g id="edge13" class="edge"><title>Node12&#45;&gt;Node8</title>
<path fill="none" stroke="midnightblue" d="M147.035,-102.69C143.159,-93.589 138.655,-83.0141 135.561,-75.7511"/>
<polygon fill="midnightblue" stroke="midnightblue" points="143.897,-104.254 151.036,-112.083 150.337,-101.511 143.897,-104.254"/>
</g>
<!-- Node14&#45;&gt;Node4 -->
<g id="edge21" class="edge"><title>Node14&#45;&gt;Node4</title>
<path fill="none" stroke="midnightblue" d="M239.847,-277.17C263.59,-268.911 295.118,-257.058 321.834,-244 435.276,-188.551 562.088,-102.84 601.488,-75.6106"/>
<polygon fill="midnightblue" stroke="midnightblue" points="238.51,-273.928 230.185,-280.482 240.78,-280.55 238.51,-273.928"/>
</g>
<!-- Node14&#45;&gt;Node5 -->
<g id="edge22" class="edge"><title>Node14&#45;&gt;Node5</title>
<path fill="none" stroke="midnightblue" d="M168.01,-276.759C130.615,-261.966 73.5071,-233.269 44.8338,-188 21.9771,-151.914 39.7713,-96.9735 48.1189,-75.7713"/>
<polygon fill="midnightblue" stroke="midnightblue" points="166.938,-280.096 177.529,-280.394 169.435,-273.557 166.938,-280.096"/>
</g>
<!-- Node14&#45;&gt;Node8 -->
<g id="edge23" class="edge"><title>Node14&#45;&gt;Node8</title>
<path fill="none" stroke="midnightblue" d="M206.01,-269.945C208.983,-236.028 211.174,-163.883 183.834,-112 175.485,-96.1568 159.067,-83.4303 146.903,-75.6075"/>
<polygon fill="midnightblue" stroke="midnightblue" points="202.492,-269.951 204.973,-280.251 209.457,-270.652 202.492,-269.951"/>
</g>
<!-- Node15 -->
<g id="node15" class="node"><title>Node15</title>
<g id="a_node15"><a xlink:href="morse__token_8h.xhtml" target="_top" xlink:title="Defines the MorseToken class and various helpers. ">
<polygon fill="white" stroke="black" points="232.334,-224.5 232.334,-243.5 313.334,-243.5 313.334,-224.5 232.334,-224.5"/>
<text text-anchor="middle" x="272.834" y="-231.5" font-family="Helvetica,sans-Serif" font-size="10.00">morse_token.h</text>
</a>
</g>
</g>
<!-- Node14&#45;&gt;Node15 -->
<g id="edge17" class="edge"><title>Node14&#45;&gt;Node15</title>
<path fill="none" stroke="midnightblue" d="M222.872,-274.101C235.29,-264.382 251.077,-252.027 261.546,-243.834"/>
<polygon fill="midnightblue" stroke="midnightblue" points="220.638,-271.405 214.92,-280.324 224.952,-276.917 220.638,-271.405"/>
</g>
<!-- Node15&#45;&gt;Node2 -->
<g id="edge18" class="edge"><title>Node15&#45;&gt;Node2</title>
<path fill="none" stroke="midnightblue" d="M233.033,-221.568C197.568,-211.381 146.468,-196.703 114.484,-187.516"/>
<polygon fill="midnightblue" stroke="midnightblue" points="232.467,-225.047 243.045,-224.444 234.4,-218.319 232.467,-225.047"/>
</g>
<!-- Node15&#45;&gt;Node3 -->
<g id="edge19" class="edge"><title>Node15&#45;&gt;Node3</title>
<path fill="none" stroke="midnightblue" d="M272.834,-214.348C272.834,-190.254 272.834,-149.308 272.834,-131.591"/>
<polygon fill="midnightblue" stroke="midnightblue" points="269.334,-214.368 272.834,-224.368 276.334,-214.369 269.334,-214.368"/>
</g>
<!-- Node15&#45;&gt;Node7 -->
<g id="edge20" class="edge"><title>Node15&#45;&gt;Node7</title>
<path fill="none" stroke="midnightblue" d="M293.847,-218.645C342.921,-185.121 463.88,-102.491 503.237,-75.6051"/>
<polygon fill="midnightblue" stroke="midnightblue" points="291.839,-215.778 285.556,-224.309 295.788,-221.558 291.839,-215.778"/>
</g>
</g>
</svg>
        <g id="navigator" transform="translate(0 0)" fill="#404254">
                <rect fill="#f2f5e9" fill-opacity="0.5" stroke="#606060" stroke-width=".5" x="0" y="0" width="60" height="60"/>
                <use id="zoomplus" xlink:href="#zoomPlus" x="17" y="9" onmousedown="handleZoom(evt,'in')"/>
                <use id="zoomminus" xlink:href="#zoomMin" x="42" y="9" onmousedown="handleZoom(evt,'out')"/>
                <use id="reset" xlink:href="#resetDef" x="30" y="36" onmousedown="handleReset()"/>
                <g id="arrowUp" xlink:href="#dirArrow" transform="translate(30 24)" onmousedown="handlePan(0,-1)">
                  <use xlink:href="#rim" fill="#404040">
                        <set attributeName="fill" to="#808080" begin="arrowUp.mouseover" end="arrowUp.mouseout"/>
                  </use>
                  <path fill="none" stroke="white" stroke-width="1.5" d="M0,-3.0v7 M-2.5,-0.5L0,-3.0L2.5,-0.5"/>
                </g>
                <g id="arrowRight" xlink:href="#dirArrow" transform="rotate(90) translate(36 -43)" onmousedown="handlePan(1,0)">
                  <use xlink:href="#rim" fill="#404040">
                        <set attributeName="fill" to="#808080" begin="arrowRight.mouseover" end="arrowRight.mouseout"/>
                  </use>
                  <path fill="none" stroke="white" stroke-width="1.5" d="M0,-3.0v7 M-2.5,-0.5L0,-3.0L2.5,-0.5"/>
                </g>
                <g id="arrowDown" xlink:href="#dirArrow" transform="rotate(180) translate(-30 -48)" onmousedown="handlePan(0,1)">
                  <use xlink:href="#rim" fill="#404040">
                        <set attributeName="fill" to="#808080" begin="arrowDown.mouseover" end="arrowDown.mouseout"/>
                  </use>
                  <path fill="none" stroke="white" stroke-width="1.5" d="M0,-3.0v7 M-2.5,-0.5L0,-3.0L2.5,-0.5"/>
                </g>
                <g id="arrowLeft" xlink:href="#dirArrow" transform="rotate(270) translate(-36 17)" onmousedown="handlePan(-1,0)">
                  <use xlink:href="#rim" fill="#404040">
                        <set attributeName="fill" to="#808080" begin="arrowLeft.mouseover" end="arrowLeft.mouseout"/>
                  </use>
                  <path fill="none" stroke="white" stroke-width="1.5" d="M0,-3.0v7 M-2.5,-0.5L0,-3.0L2.5,-0.5"/>
                </g>
        </g>
        <svg viewBox="0 0 15 15" width="100%" height="30px" preserveAspectRatio="xMaxYMin meet">
         <g id="arrow_out" transform="scale(0.3 0.3)">
          <a xlink:href="binconst_8h__dep__incl_org.svg" target="_base">
           <rect id="button" ry="5" rx="5" y="6" x="6" height="38" width="38"
                fill="#f2f5e9" fill-opacity="0.5" stroke="#606060" stroke-width="1.0"/>
           <path id="arrow"
             d="M 11.500037,31.436501 C 11.940474,20.09759 22.043105,11.32322 32.158766,21.979434 L 37.068811,17.246167 C 37.068811,17.246167 37.088388,32 37.088388,32 L 22.160133,31.978069 C 22.160133,31.978069 26.997745,27.140456 26.997745,27.140456 C 18.528582,18.264221 13.291696,25.230495 11.500037,31.436501 z"
             style="fill:#404040;"/>
          </a>
         </g>
        </svg>
</svg>
