<?xml version="1.0" encoding="UTF-8" standalone="no"?>
<!DOCTYPE svg PUBLIC "-//W3C//DTD SVG 1.1//EN"
 "http://www.w3.org/Graphics/SVG/1.1/DTD/svg11.dtd">
<!-- Generated by graphviz version 2.38.0 (20140413.2041)
 -->
<!-- Title: binconst.h Pages: 1 -->
<svg width="776pt" height="364pt"
 viewBox="0.00 0.00 776.00 364.00" xmlns="http://www.w3.org/2000/svg" xmlns:xlink="http://www.w3.org/1999/xlink">
<g id="graph0" class="graph" transform="scale(1 1) rotate(0) translate(4 360)">
<title>binconst.h</title>
<polygon fill="white" stroke="none" points="-4,4 -4,-360 772,-360 772,4 -4,4"/>
<!-- Node1 -->
<g id="node1" class="node"><title>Node1</title>
<polygon fill="#bfbfbf" stroke="black" points="104,-336.5 104,-355.5 166,-355.5 166,-336.5 104,-336.5"/>
<text text-anchor="middle" x="135" y="-343.5" font-family="Helvetica,sans-Serif" font-size="10.00">binconst.h</text>
</g>
<!-- Node2 -->
<g id="node2" class="node"><title>Node2</title>
<g id="a_node2"><a xlink:href="libmorse_8h.html" target="_top" xlink:title="Morse code operations. ">
<polygon fill="white" stroke="black" points="123,-168.5 123,-187.5 185,-187.5 185,-168.5 123,-168.5"/>
<text text-anchor="middle" x="154" y="-175.5" font-family="Helvetica,sans-Serif" font-size="10.00">libmorse.h</text>
</a>
</g>
</g>
<!-- Node1&#45;&gt;Node2 -->
<g id="edge1" class="edge"><title>Node1&#45;&gt;Node2</title>
<path fill="none" stroke="midnightblue" d="M137.183,-325.93C141.304,-289.92 150.082,-213.231 153.019,-187.568"/>
<polygon fill="midnightblue" stroke="midnightblue" points="133.681,-325.742 136.022,-336.075 140.636,-326.538 133.681,-325.742"/>
</g>
<!-- Node15 -->
<g id="node15" class="node"><title>Node15</title>
<g id="a_node15"><a xlink:href="prosign_8h.html" target="_top" xlink:title="Prosign constants. ">
<polygon fill="white" stroke="black" points="282,-280.5 282,-299.5 338,-299.5 338,-280.5 282,-280.5"/>
<text text-anchor="middle" x="310" y="-287.5" font-family="Helvetica,sans-Serif" font-size="10.00">prosign.h</text>
</a>
</g>
</g>
<!-- Node1&#45;&gt;Node15 -->
<g id="edge17" class="edge"><title>Node1&#45;&gt;Node15</title>
<path fill="none" stroke="midnightblue" d="M172.475,-333.436C205.47,-323.255 252.756,-308.664 282.4,-299.516"/>
<polygon fill="midnightblue" stroke="midnightblue" points="171.253,-330.151 162.729,-336.444 173.317,-336.839 171.253,-330.151"/>
</g>
<!-- Node3 -->
<g id="node3" class="node"><title>Node3</title>
<g id="a_node3"><a xlink:href="actions_8h.html" target="_top" xlink:title="Application&#45;specific actions. ">
<polygon fill="white" stroke="black" points="333,-112.5 333,-131.5 389,-131.5 389,-112.5 333,-112.5"/>
<text text-anchor="middle" x="361" y="-119.5" font-family="Helvetica,sans-Serif" font-size="10.00">actions.h</text>
</a>
</g>
</g>
<!-- Node2&#45;&gt;Node3 -->
<g id="edge2" class="edge"><title>Node2&#45;&gt;Node3</title>
<path fill="none" stroke="midnightblue" d="M195.347,-166.214C236.165,-155.566 297.468,-139.574 332.927,-130.323"/>
<polygon fill="midnightblue" stroke="midnightblue" points="194.232,-162.888 185.439,-168.799 195.999,-169.661 194.232,-162.888"/>
</g>
<!-- Node6 -->
<g id="node6" class="node"><title>Node6</title>
<g id="a_node6"><a xlink:href="libmorse_8cpp.html" target="_top" xlink:title="Implementation of Morse code operations. ">
<polygon fill="white" stroke="black" points="0,-56.5 0,-75.5 72,-75.5 72,-56.5 0,-56.5"/>
<text text-anchor="middle" x="36" y="-63.5" font-family="Helvetica,sans-Serif" font-size="10.00">libmorse.cpp</text>
</a>
</g>
</g>
<!-- Node2&#45;&gt;Node6 -->
<g id="edge12" class="edge"><title>Node2&#45;&gt;Node6</title>
<path fill="none" stroke="midnightblue" d="M113.014,-167.085C92.9653,-160.289 69.986,-149.285 55,-132 40.829,-115.655 37.2134,-89.2268 36.3005,-75.6539"/>
<polygon fill="midnightblue" stroke="midnightblue" points="111.983,-170.43 122.572,-170.093 114.084,-163.753 111.983,-170.43"/>
</g>
<!-- Node12 -->
<g id="node12" class="node"><title>Node12</title>
<g id="a_node12"><a xlink:href="teensy3__morse__bsp_8cpp.html" target="_top" xlink:title="Implementation of Teensy 3.0 board support package. ">
<polygon fill="white" stroke="black" points="134.5,-0.5 134.5,-19.5 257.5,-19.5 257.5,-0.5 134.5,-0.5"/>
<text text-anchor="middle" x="196" y="-7.5" font-family="Helvetica,sans-Serif" font-size="10.00">teensy3_morse_bsp.cpp</text>
</a>
</g>
</g>
<!-- Node2&#45;&gt;Node12 -->
<g id="edge16" class="edge"><title>Node2&#45;&gt;Node12</title>
<path fill="none" stroke="midnightblue" d="M146.875,-158.79C138.45,-134.229 127.412,-89.6844 143,-56 150.503,-39.7873 167.045,-27.2803 179.666,-19.613"/>
<polygon fill="midnightblue" stroke="midnightblue" points="143.625,-160.094 150.349,-168.281 150.199,-157.688 143.625,-160.094"/>
</g>
<!-- Node13 -->
<g id="node13" class="node"><title>Node13</title>
<g id="a_node13"><a xlink:href="pda_8h.html" target="_top" xlink:title="Personal Digital Assistant functions. ">
<polygon fill="white" stroke="black" points="182.5,-112.5 182.5,-131.5 223.5,-131.5 223.5,-112.5 182.5,-112.5"/>
<text text-anchor="middle" x="203" y="-119.5" font-family="Helvetica,sans-Serif" font-size="10.00">pda.h</text>
</a>
</g>
</g>
<!-- Node2&#45;&gt;Node13 -->
<g id="edge13" class="edge"><title>Node2&#45;&gt;Node13</title>
<path fill="none" stroke="midnightblue" d="M169.034,-160.431C177.622,-150.967 188.043,-139.483 195.059,-131.751"/>
<polygon fill="midnightblue" stroke="midnightblue" points="166.219,-158.325 162.091,-168.083 171.403,-163.029 166.219,-158.325"/>
</g>
<!-- Node14 -->
<g id="node14" class="node"><title>Node14</title>
<g id="a_node14"><a xlink:href="sound_8cpp.html" target="_top" xlink:title="Implementation of PWM sound effects. ">
<polygon fill="white" stroke="black" points="64,-112.5 64,-131.5 126,-131.5 126,-112.5 64,-112.5"/>
<text text-anchor="middle" x="95" y="-119.5" font-family="Helvetica,sans-Serif" font-size="10.00">sound.cpp</text>
</a>
</g>
</g>
<!-- Node2&#45;&gt;Node14 -->
<g id="edge15" class="edge"><title>Node2&#45;&gt;Node14</title>
<path fill="none" stroke="midnightblue" d="M137.105,-161.537C126.585,-151.909 113.431,-139.869 104.652,-131.834"/>
<polygon fill="midnightblue" stroke="midnightblue" points="134.781,-164.154 144.521,-168.324 139.507,-158.99 134.781,-164.154"/>
</g>
<!-- Node4 -->
<g id="node4" class="node"><title>Node4</title>
<g id="a_node4"><a xlink:href="actions_8cpp.html" target="_top" xlink:title="Implementation of application&#45;specific actions. ">
<polygon fill="white" stroke="black" points="626.5,-56.5 626.5,-75.5 693.5,-75.5 693.5,-56.5 626.5,-56.5"/>
<text text-anchor="middle" x="660" y="-63.5" font-family="Helvetica,sans-Serif" font-size="10.00">actions.cpp</text>
</a>
</g>
</g>
<!-- Node3&#45;&gt;Node4 -->
<g id="edge3" class="edge"><title>Node3&#45;&gt;Node4</title>
<path fill="none" stroke="midnightblue" d="M399.138,-114.692C449.22,-106.317 539.845,-90.8515 617,-76 619.996,-75.4233 623.105,-74.8072 626.22,-74.1779"/>
<polygon fill="midnightblue" stroke="midnightblue" points="398.374,-111.271 389.086,-116.368 399.526,-118.175 398.374,-111.271"/>
</g>
<!-- Node5 -->
<g id="node5" class="node"><title>Node5</title>
<g id="a_node5"><a xlink:href="didah_8ino.html" target="_top" xlink:title="Top&#45;level entry points for the Morse code PDA/Application. ">
<polygon fill="white" stroke="black" points="712,-56.5 712,-75.5 768,-75.5 768,-56.5 712,-56.5"/>
<text text-anchor="middle" x="740" y="-63.5" font-family="Helvetica,sans-Serif" font-size="10.00">didah.ino</text>
</a>
</g>
</g>
<!-- Node3&#45;&gt;Node5 -->
<g id="edge4" class="edge"><title>Node3&#45;&gt;Node5</title>
<path fill="none" stroke="midnightblue" d="M399.42,-117.31C462.927,-110.905 593.65,-96.4318 703,-76 705.859,-75.4657 708.829,-74.8493 711.786,-74.1946"/>
<polygon fill="midnightblue" stroke="midnightblue" points="398.693,-113.865 389.09,-118.34 399.388,-120.83 398.693,-113.865"/>
</g>
<!-- Node3&#45;&gt;Node6 -->
<g id="edge5" class="edge"><title>Node3&#45;&gt;Node6</title>
<path fill="none" stroke="midnightblue" d="M322.758,-114.646C259.466,-104.13 133.798,-83.2495 72.0084,-72.9829"/>
<polygon fill="midnightblue" stroke="midnightblue" points="322.288,-118.116 332.727,-116.302 323.436,-111.211 322.288,-118.116"/>
</g>
<!-- Node7 -->
<g id="node7" class="node"><title>Node7</title>
<g id="a_node7"><a xlink:href="morse__digit_8cpp.html" target="_top" xlink:title="Implementation of decimal digit to Morse code conversion. ">
<polygon fill="white" stroke="black" points="412,-56.5 412,-75.5 498,-75.5 498,-56.5 412,-56.5"/>
<text text-anchor="middle" x="455" y="-63.5" font-family="Helvetica,sans-Serif" font-size="10.00">morse_digit.cpp</text>
</a>
</g>
</g>
<!-- Node3&#45;&gt;Node7 -->
<g id="edge6" class="edge"><title>Node3&#45;&gt;Node7</title>
<path fill="none" stroke="midnightblue" d="M385.062,-107.177C402.359,-97.2407 425.148,-84.1492 439.935,-75.6545"/>
<polygon fill="midnightblue" stroke="midnightblue" points="383.03,-104.308 376.103,-112.324 386.517,-110.378 383.03,-104.308"/>
</g>
<!-- Node8 -->
<g id="node8" class="node"><title>Node8</title>
<g id="a_node8"><a xlink:href="morse__token_8cpp.html" target="_top" xlink:title="Implementation of Morse code operations. ">
<polygon fill="white" stroke="black" points="516,-56.5 516,-75.5 608,-75.5 608,-56.5 516,-56.5"/>
<text text-anchor="middle" x="562" y="-63.5" font-family="Helvetica,sans-Serif" font-size="10.00">morse_token.cpp</text>
</a>
</g>
</g>
<!-- Node3&#45;&gt;Node8 -->
<g id="edge7" class="edge"><title>Node3&#45;&gt;Node8</title>
<path fill="none" stroke="midnightblue" d="M399.037,-110.781C436.955,-100.594 494.531,-85.1261 530.124,-75.5637"/>
<polygon fill="midnightblue" stroke="midnightblue" points="398.122,-107.403 389.372,-113.378 399.938,-114.163 398.122,-107.403"/>
</g>
<!-- Node9 -->
<g id="node9" class="node"><title>Node9</title>
<g id="a_node9"><a xlink:href="pda_8cpp.html" target="_top" xlink:title="Implementation of Personal Digital Assistant functions. ">
<polygon fill="white" stroke="black" points="152.5,-56.5 152.5,-75.5 203.5,-75.5 203.5,-56.5 152.5,-56.5"/>
<text text-anchor="middle" x="178" y="-63.5" font-family="Helvetica,sans-Serif" font-size="10.00">pda.cpp</text>
</a>
</g>
</g>
<!-- Node3&#45;&gt;Node9 -->
<g id="edge8" class="edge"><title>Node3&#45;&gt;Node9</title>
<path fill="none" stroke="midnightblue" d="M323.195,-109.844C287.406,-99.2837 234.656,-83.7183 203.566,-74.544"/>
<polygon fill="midnightblue" stroke="midnightblue" points="322.226,-113.207 332.807,-112.681 324.207,-106.494 322.226,-113.207"/>
</g>
<!-- Node10 -->
<g id="node10" class="node"><title>Node10</title>
<g id="a_node10"><a xlink:href="stack_8cpp.html" target="_top" xlink:title="Implementation of Stack&#45;related convenience functions. ">
<polygon fill="white" stroke="black" points="334.5,-56.5 334.5,-75.5 393.5,-75.5 393.5,-56.5 334.5,-56.5"/>
<text text-anchor="middle" x="364" y="-63.5" font-family="Helvetica,sans-Serif" font-size="10.00">stack.cpp</text>
</a>
</g>
</g>
<!-- Node3&#45;&gt;Node10 -->
<g id="edge9" class="edge"><title>Node3&#45;&gt;Node10</title>
<path fill="none" stroke="midnightblue" d="M362.066,-101.805C362.561,-92.9102 363.123,-82.7798 363.514,-75.7511"/>
<polygon fill="midnightblue" stroke="midnightblue" points="358.556,-101.904 361.495,-112.083 365.545,-102.293 358.556,-101.904"/>
</g>
<!-- Node11 -->
<g id="node11" class="node"><title>Node11</title>
<g id="a_node11"><a xlink:href="voltage__monitor_8h.html" target="_top" xlink:title="Trivial co&#45;routine to gather and filter ADC samples. ">
<polygon fill="white" stroke="black" points="222,-56.5 222,-75.5 316,-75.5 316,-56.5 222,-56.5"/>
<text text-anchor="middle" x="269" y="-63.5" font-family="Helvetica,sans-Serif" font-size="10.00">voltage_monitor.h</text>
</a>
</g>
</g>
<!-- Node3&#45;&gt;Node11 -->
<g id="edge10" class="edge"><title>Node3&#45;&gt;Node11</title>
<path fill="none" stroke="midnightblue" d="M337.45,-107.177C320.521,-97.2407 298.217,-84.1492 283.745,-75.6545"/>
<polygon fill="midnightblue" stroke="midnightblue" points="335.823,-110.28 346.219,-112.324 339.366,-104.243 335.823,-110.28"/>
</g>
<!-- Node11&#45;&gt;Node12 -->
<g id="edge11" class="edge"><title>Node11&#45;&gt;Node12</title>
<path fill="none" stroke="midnightblue" d="M248.858,-50.1008C235.721,-40.3824 219.018,-28.0269 207.942,-19.8339"/>
<polygon fill="midnightblue" stroke="midnightblue" points="247.15,-53.1907 257.271,-56.324 251.313,-47.5631 247.15,-53.1907"/>
</g>
<!-- Node13&#45;&gt;Node9 -->
<g id="edge14" class="edge"><title>Node13&#45;&gt;Node9</title>
<path fill="none" stroke="midnightblue" d="M194.659,-102.983C190.415,-93.8168 185.45,-83.0922 182.051,-75.7511"/>
<polygon fill="midnightblue" stroke="midnightblue" points="191.494,-104.479 198.872,-112.083 197.847,-101.538 191.494,-104.479"/>
</g>
<!-- Node15&#45;&gt;Node4 -->
<g id="edge22" class="edge"><title>Node15&#45;&gt;Node4</title>
<path fill="none" stroke="midnightblue" d="M337.173,-275.732C354.304,-267.136 376.748,-255.445 396,-244 496.557,-184.221 611.615,-102.066 648.196,-75.5911"/>
<polygon fill="midnightblue" stroke="midnightblue" points="335.16,-272.824 327.765,-280.411 338.277,-279.092 335.16,-272.824"/>
</g>
<!-- Node15&#45;&gt;Node5 -->
<g id="edge23" class="edge"><title>Node15&#45;&gt;Node5</title>
<path fill="none" stroke="midnightblue" d="M345.119,-277.025C368.655,-268.63 400.134,-256.678 427,-244 547.253,-187.253 684.08,-102.404 726.652,-75.5006"/>
<polygon fill="midnightblue" stroke="midnightblue" points="343.823,-273.771 335.556,-280.398 346.151,-280.373 343.823,-273.771"/>
</g>
<!-- Node15&#45;&gt;Node6 -->
<g id="edge24" class="edge"><title>Node15&#45;&gt;Node6</title>
<path fill="none" stroke="midnightblue" d="M272.021,-280.203C210,-263.519 89.0762,-220.719 41,-132 31.1859,-113.889 32.7991,-88.6767 34.5517,-75.6139"/>
<polygon fill="midnightblue" stroke="midnightblue" points="271.25,-283.619 281.809,-282.75 273.013,-276.845 271.25,-283.619"/>
</g>
<!-- Node15&#45;&gt;Node9 -->
<g id="edge25" class="edge"><title>Node15&#45;&gt;Node9</title>
<path fill="none" stroke="midnightblue" d="M304.848,-270.186C294.879,-236.136 270.482,-163.089 232,-112 220.693,-96.9886 203.448,-83.7533 191.502,-75.5895"/>
<polygon fill="midnightblue" stroke="midnightblue" points="301.579,-271.486 307.675,-280.151 308.313,-269.575 301.579,-271.486"/>
</g>
<!-- Node16 -->
<g id="node16" class="node"><title>Node16</title>
<g id="a_node16"><a xlink:href="morse__token_8h.html" target="_top" xlink:title="Defines the MorseToken class and various helpers. ">
<polygon fill="white" stroke="black" points="306.5,-224.5 306.5,-243.5 387.5,-243.5 387.5,-224.5 306.5,-224.5"/>
<text text-anchor="middle" x="347" y="-231.5" font-family="Helvetica,sans-Serif" font-size="10.00">morse_token.h</text>
</a>
</g>
</g>
<!-- Node15&#45;&gt;Node16 -->
<g id="edge18" class="edge"><title>Node15&#45;&gt;Node16</title>
<path fill="none" stroke="midnightblue" d="M321.946,-271.566C328.312,-262.275 335.867,-251.248 341.004,-243.751"/>
<polygon fill="midnightblue" stroke="midnightblue" points="318.875,-269.855 316.11,-280.083 324.649,-273.812 318.875,-269.855"/>
</g>
<!-- Node16&#45;&gt;Node2 -->
<g id="edge19" class="edge"><title>Node16&#45;&gt;Node2</title>
<path fill="none" stroke="midnightblue" d="M306.608,-221.699C270.183,-211.507 217.414,-196.743 184.438,-187.516"/>
<polygon fill="midnightblue" stroke="midnightblue" points="305.845,-225.12 316.419,-224.444 307.731,-218.378 305.845,-225.12"/>
</g>
<!-- Node16&#45;&gt;Node3 -->
<g id="edge20" class="edge"><title>Node16&#45;&gt;Node3</title>
<path fill="none" stroke="midnightblue" d="M349.374,-214.348C352.44,-190.254 357.652,-149.308 359.907,-131.591"/>
<polygon fill="midnightblue" stroke="midnightblue" points="345.889,-214.007 348.099,-224.368 352.833,-214.89 345.889,-214.007"/>
</g>
<!-- Node16&#45;&gt;Node8 -->
<g id="edge21" class="edge"><title>Node16&#45;&gt;Node8</title>
<path fill="none" stroke="midnightblue" d="M366.41,-218.014C410.341,-184.095 516.249,-102.324 550.855,-75.6051"/>
<polygon fill="midnightblue" stroke="midnightblue" points="364.033,-215.427 358.257,-224.309 368.311,-220.968 364.033,-215.427"/>
</g>
</g>
</svg>
