<?xml version="1.0" encoding="UTF-8" standalone="no"?>
<!DOCTYPE svg PUBLIC "-//W3C//DTD SVG 1.1//EN"
 "http://www.w3.org/Graphics/SVG/1.1/DTD/svg11.dtd">
<!-- Generated by graphviz version 2.38.0 (20140413.2041)
 -->
<!-- Title: Stack::size Pages: 1 -->
<!--zoomable 554 -->
<svg id="main" version="1.1" xmlns="http://www.w3.org/2000/svg" xmlns:xlink="http://www.w3.org/1999/xlink" xml:space="preserve" onload="init(evt)">
<style type="text/css"><![CDATA[
.edge:hover path { stroke: red; }
.edge:hover polygon { stroke: red; fill: red; }
]]></style>
<script type="text/javascript"><![CDATA[
var edges = document.getElementsByTagName('g');
if (edges && edges.length) {
  for (var i=0;i<edges.length;i++) {
    if (edges[i].id.substr(0,4)=='edge') {
      edges[i].setAttribute('class','edge');
    }
  }
}
]]></script>
        <defs>
                <circle id="rim" cx="0" cy="0" r="7"/>
                <circle id="rim2" cx="0" cy="0" r="3.5"/>
                <g id="zoomPlus">
                        <use xlink:href="#rim" fill="#404040">
                                <set attributeName="fill" to="#808080" begin="zoomplus.mouseover" end="zoomplus.mouseout"/>
                        </use>
                        <path d="M-4,0h8M0,-4v8" fill="none" stroke="white" stroke-width="1.5" pointer-events="none"/>
                </g>
                <g id="zoomMin">
                        <use xlink:href="#rim" fill="#404040">
                                <set attributeName="fill" to="#808080" begin="zoomminus.mouseover" end="zoomminus.mouseout"/>
                        </use>
                        <path d="M-4,0h8" fill="none" stroke="white" stroke-width="1.5" pointer-events="none"/>
                </g>
                <g id="dirArrow">
                        <path fill="none" stroke="white" stroke-width="1.5" d="M0,-3.0v7 M-2.5,-0.5L0,-3.0L2.5,-0.5"/>
                </g>
               <g id="resetDef">
                       <use xlink:href="#rim2" fill="#404040">
                               <set attributeName="fill" to="#808080" begin="reset.mouseover" end="reset.mouseout"/>
                       </use>
               </g>
        </defs>

<script type="text/javascript">
var viewWidth = 669;
var viewHeight = 554;
var sectionId = 'dynsection-5';
</script>
<script xlink:href="svgpan.js"/>
<svg id="graph" class="graph">
<g id="viewport">
<title>Stack::size</title>
<polygon fill="white" stroke="none" points="-4,4 -4,-549.936 665,-549.936 665,4 -4,4"/>
<!-- Node1 -->
<g id="node1" class="node"><title>Node1</title>
<polygon fill="#bfbfbf" stroke="black" points="0,-260.436 0,-279.436 66,-279.436 66,-260.436 0,-260.436"/>
<text text-anchor="middle" x="33" y="-267.436" font-family="Helvetica,sans-Serif" font-size="10.00">Stack::size</text>
</g>
<!-- Node2 -->
<g id="node2" class="node"><title>Node2</title>
<g id="a_node2"><a xlink:href="stack_8h.html#aafac4a86d14d59c34565bc295024e511" target="_top" xlink:title="symbolStackSize">
<polygon fill="white" stroke="black" points="102,-260.436 102,-279.436 195,-279.436 195,-260.436 102,-260.436"/>
<text text-anchor="middle" x="148.5" y="-267.436" font-family="Helvetica,sans-Serif" font-size="10.00">symbolStackSize</text>
</a>
</g>
</g>
<!-- Node1&#45;&gt;Node2 -->
<g id="edge1" class="edge"><title>Node1&#45;&gt;Node2</title>
<path fill="none" stroke="midnightblue" d="M76.3732,-269.936C84.6163,-269.936 93.2925,-269.936 101.642,-269.936"/>
<polygon fill="midnightblue" stroke="midnightblue" points="76.221,-266.436 66.2209,-269.936 76.2209,-273.436 76.221,-266.436"/>
</g>
<!-- Node22 -->
<g id="node22" class="node"><title>Node22</title>
<g id="a_node22"><a xlink:href="stack_8h.html#a86ad401a3d9c5525c80c4a5a6573bf50" target="_top" xlink:title="Swap s0 and s1. ">
<polygon fill="white" stroke="black" points="106.5,-108.436 106.5,-127.436 190.5,-127.436 190.5,-108.436 106.5,-108.436"/>
<text text-anchor="middle" x="148.5" y="-115.436" font-family="Helvetica,sans-Serif" font-size="10.00">exchangeStack</text>
</a>
</g>
</g>
<!-- Node1&#45;&gt;Node22 -->
<g id="edge38" class="edge"><title>Node1&#45;&gt;Node22</title>
<path fill="none" stroke="midnightblue" d="M47.1519,-252.323C71.2627,-220.034 121.774,-152.388 140.403,-127.441"/>
<polygon fill="midnightblue" stroke="midnightblue" points="44.2787,-250.321 41.0999,-260.428 49.8875,-254.51 44.2787,-250.321"/>
</g>
<!-- Node23 -->
<g id="node23" class="node"><title>Node23</title>
<g id="a_node23"><a xlink:href="stack_8h.html#a7a8a89da82371dc2324696e7dfacad5e" target="_top" xlink:title="Pop the stack n times or until it is empty. ">
<polygon fill="white" stroke="black" points="231,-450.436 231,-469.436 271,-469.436 271,-450.436 231,-450.436"/>
<text text-anchor="middle" x="251" y="-457.436" font-family="Helvetica,sans-Serif" font-size="10.00">popN</text>
</a>
</g>
</g>
<!-- Node1&#45;&gt;Node23 -->
<g id="edge40" class="edge"><title>Node1&#45;&gt;Node23</title>
<path fill="none" stroke="midnightblue" d="M52.6135,-286.309C96.2806,-324.72 204.235,-419.68 239.014,-450.273"/>
<polygon fill="midnightblue" stroke="midnightblue" points="54.8286,-283.596 45.0084,-279.62 50.2053,-288.852 54.8286,-283.596"/>
</g>
<!-- Node3 -->
<g id="node3" class="node"><title>Node3</title>
<g id="a_node3"><a xlink:href="actions_8h.html#a6436621df3b98909e885083436d6b9e2" target="_top" xlink:title="List the contents of the symbol stack. ">
<polygon fill="white" stroke="black" points="317,-184.436 317,-203.436 416,-203.436 416,-184.436 317,-184.436"/>
<text text-anchor="middle" x="366.5" y="-191.436" font-family="Helvetica,sans-Serif" font-size="10.00">txListSymbolStack</text>
</a>
</g>
</g>
<!-- Node2&#45;&gt;Node3 -->
<g id="edge2" class="edge"><title>Node2&#45;&gt;Node3</title>
<path fill="none" stroke="midnightblue" d="M186.416,-256.948C229.563,-241.766 299.942,-217.003 338.366,-203.484"/>
<polygon fill="midnightblue" stroke="midnightblue" points="185.128,-253.69 176.857,-260.311 187.451,-260.293 185.128,-253.69"/>
</g>
<!-- Node5 -->
<g id="node5" class="node"><title>Node5</title>
<g id="a_node5"><a xlink:href="actions_8h.html#a142b42f94ccf46a7a9706fe9b63b4501" target="_top" xlink:title="Attempt to control the output volume but adjusting the PWM duty cycle. ">
<polygon fill="white" stroke="black" points="335,-412.436 335,-431.436 398,-431.436 398,-412.436 335,-412.436"/>
<text text-anchor="middle" x="366.5" y="-419.436" font-family="Helvetica,sans-Serif" font-size="10.00">setVolume</text>
</a>
</g>
</g>
<!-- Node2&#45;&gt;Node5 -->
<g id="edge4" class="edge"><title>Node2&#45;&gt;Node5</title>
<path fill="none" stroke="midnightblue" d="M164.364,-287.051C190.29,-315.747 246.786,-373.325 307,-402.936 315.72,-407.225 325.633,-410.865 334.788,-413.776"/>
<polygon fill="midnightblue" stroke="midnightblue" points="166.867,-284.598 157.606,-279.452 161.636,-289.25 166.867,-284.598"/>
</g>
<!-- Node6 -->
<g id="node6" class="node"><title>Node6</title>
<g id="a_node6"><a xlink:href="libmorse_8cpp.html#afa60f07ebee7c34ef41c3dfb64222bb6" target="_top" xlink:title="Score the given pattern against the state of the symbol stack. ">
<polygon fill="white" stroke="black" points="332,-298.436 332,-317.436 401,-317.436 401,-298.436 332,-298.436"/>
<text text-anchor="middle" x="366.5" y="-305.436" font-family="Helvetica,sans-Serif" font-size="10.00">matchScore</text>
</a>
</g>
</g>
<!-- Node2&#45;&gt;Node6 -->
<g id="edge5" class="edge"><title>Node2&#45;&gt;Node6</title>
<path fill="none" stroke="midnightblue" d="M197.375,-281.844C208.382,-284.373 220.066,-286.894 231,-288.936 265.193,-295.324 304.634,-300.658 331.925,-304.033"/>
<polygon fill="midnightblue" stroke="midnightblue" points="198.032,-278.403 187.498,-279.532 196.437,-285.219 198.032,-278.403"/>
</g>
<!-- Node7 -->
<g id="node7" class="node"><title>Node7</title>
<g id="a_node7"><a xlink:href="pda_8h.html#a3c36576745952735f04eaa82b933e6fa" target="_top" xlink:title="Play one of 10 sound effects based on the digit on the stack. ">
<polygon fill="white" stroke="black" points="322,-32.4364 322,-51.4364 411,-51.4364 411,-32.4364 322,-32.4364"/>
<text text-anchor="middle" x="366.5" y="-39.4364" font-family="Helvetica,sans-Serif" font-size="10.00">playSoundEffect</text>
</a>
</g>
</g>
<!-- Node2&#45;&gt;Node7 -->
<g id="edge7" class="edge"><title>Node2&#45;&gt;Node7</title>
<path fill="none" stroke="midnightblue" d="M156.326,-250.801C168.027,-219.9 194.254,-158.211 231,-115.936 258.353,-84.4679 269.831,-79.8285 307,-60.9364 314.235,-57.2592 322.33,-54.0907 330.137,-51.4531"/>
<polygon fill="midnightblue" stroke="midnightblue" points="152.975,-249.771 152.8,-260.364 159.543,-252.193 152.975,-249.771"/>
</g>
<!-- Node8 -->
<g id="node8" class="node"><title>Node8</title>
<g id="a_node8"><a xlink:href="pda_8h.html#a35d0b57846aa0f585f9409957bc1957e" target="_top" xlink:title="playNote">
<polygon fill="white" stroke="black" points="338.5,-146.436 338.5,-165.436 394.5,-165.436 394.5,-146.436 338.5,-146.436"/>
<text text-anchor="middle" x="366.5" y="-153.436" font-family="Helvetica,sans-Serif" font-size="10.00">playNote</text>
</a>
</g>
</g>
<!-- Node2&#45;&gt;Node8 -->
<g id="edge8" class="edge"><title>Node2&#45;&gt;Node8</title>
<path fill="none" stroke="midnightblue" d="M171.606,-254.362C201.292,-233.982 256.195,-198.138 307,-174.936 316.908,-170.412 328.207,-166.476 338.217,-163.379"/>
<polygon fill="midnightblue" stroke="midnightblue" points="169.463,-251.588 163.235,-260.159 173.449,-257.343 169.463,-251.588"/>
</g>
<!-- Node9 -->
<g id="node9" class="node"><title>Node9</title>
<g id="a_node9"><a xlink:href="pda_8h.html#ac1f9ea31ffc81530ac4a07fa2469f13c" target="_top" xlink:title="txAlfaBravoCharlie">
<polygon fill="white" stroke="black" points="317.5,-488.436 317.5,-507.436 415.5,-507.436 415.5,-488.436 317.5,-488.436"/>
<text text-anchor="middle" x="366.5" y="-495.436" font-family="Helvetica,sans-Serif" font-size="10.00">txAlfaBravoCharlie</text>
</a>
</g>
</g>
<!-- Node2&#45;&gt;Node9 -->
<g id="edge9" class="edge"><title>Node2&#45;&gt;Node9</title>
<path fill="none" stroke="midnightblue" d="M150.853,-289.979C154.873,-332.363 170.584,-431.105 231,-478.936 255.036,-497.966 289.345,-502.568 317.294,-502.489"/>
<polygon fill="midnightblue" stroke="midnightblue" points="154.326,-289.504 150.017,-279.825 147.349,-290.079 154.326,-289.504"/>
</g>
<!-- Node11 -->
<g id="node11" class="node"><title>Node11</title>
<g id="a_node11"><a xlink:href="pda_8cpp.html#a47afc6664036a43243457f6f66cb90f8" target="_top" xlink:title="txAlphaNNN">
<polygon fill="white" stroke="black" points="330.5,-108.436 330.5,-127.436 402.5,-127.436 402.5,-108.436 330.5,-108.436"/>
<text text-anchor="middle" x="366.5" y="-115.436" font-family="Helvetica,sans-Serif" font-size="10.00">txAlphaNNN</text>
</a>
</g>
</g>
<!-- Node2&#45;&gt;Node11 -->
<g id="edge11" class="edge"><title>Node2&#45;&gt;Node11</title>
<path fill="none" stroke="midnightblue" d="M164.802,-252.519C190.981,-223.855 247.341,-166.934 307,-136.936 314.346,-133.243 322.565,-130.052 330.468,-127.396"/>
<polygon fill="midnightblue" stroke="midnightblue" points="162.043,-250.353 157.958,-260.128 167.247,-255.034 162.043,-250.353"/>
</g>
<!-- Node12 -->
<g id="node12" class="node"><title>Node12</title>
<g id="a_node12"><a xlink:href="pda_8h.html#aee08a527408a7a8a4b5490d13b767cb2" target="_top" xlink:title="txMetronome">
<polygon fill="white" stroke="black" points="329.5,-374.436 329.5,-393.436 403.5,-393.436 403.5,-374.436 329.5,-374.436"/>
<text text-anchor="middle" x="366.5" y="-381.436" font-family="Helvetica,sans-Serif" font-size="10.00">txMetronome</text>
</a>
</g>
</g>
<!-- Node2&#45;&gt;Node12 -->
<g id="edge12" class="edge"><title>Node2&#45;&gt;Node12</title>
<path fill="none" stroke="midnightblue" d="M170.65,-285.576C186.819,-297.258 209.855,-313.317 231,-325.936 263.601,-345.393 271.944,-350.359 307,-364.936 315.282,-368.38 324.428,-371.61 332.978,-374.395"/>
<polygon fill="midnightblue" stroke="midnightblue" points="172.572,-282.646 162.428,-279.586 168.449,-288.304 172.572,-282.646"/>
</g>
<!-- Node13 -->
<g id="node13" class="node"><title>Node13</title>
<g id="a_node13"><a xlink:href="pda_8h.html#aba3c77bbaeda68253d8795c44bb0b4ff" target="_top" xlink:title="sumStack">
<polygon fill="white" stroke="black" points="336,-70.4364 336,-89.4364 397,-89.4364 397,-70.4364 336,-70.4364"/>
<text text-anchor="middle" x="366.5" y="-77.4364" font-family="Helvetica,sans-Serif" font-size="10.00">sumStack</text>
</a>
</g>
</g>
<!-- Node2&#45;&gt;Node13 -->
<g id="edge13" class="edge"><title>Node2&#45;&gt;Node13</title>
<path fill="none" stroke="midnightblue" d="M160.115,-251.668C174.386,-228.007 201.406,-186.214 231,-155.936 260.513,-125.742 269.525,-118.388 307,-98.9364 316.004,-94.2629 326.381,-90.4415 335.873,-87.4834"/>
<polygon fill="midnightblue" stroke="midnightblue" points="157.064,-249.952 154.97,-260.338 163.083,-253.525 157.064,-249.952"/>
</g>
<!-- Node14 -->
<g id="node14" class="node"><title>Node14</title>
<g id="a_node14"><a xlink:href="pda_8h.html#a59acff867d89a88cb2142895d95b12e8" target="_top" xlink:title="gradeSum">
<polygon fill="white" stroke="black" points="336,-526.436 336,-545.436 397,-545.436 397,-526.436 336,-526.436"/>
<text text-anchor="middle" x="366.5" y="-533.436" font-family="Helvetica,sans-Serif" font-size="10.00">gradeSum</text>
</a>
</g>
</g>
<!-- Node2&#45;&gt;Node14 -->
<g id="edge14" class="edge"><title>Node2&#45;&gt;Node14</title>
<path fill="none" stroke="midnightblue" d="M150.418,-289.752C153.601,-334.546 167.794,-444.19 231,-501.936 259.717,-528.173 305.73,-534.838 335.788,-536.183"/>
<polygon fill="midnightblue" stroke="midnightblue" points="153.902,-289.378 149.812,-279.605 146.915,-289.796 153.902,-289.378"/>
</g>
<!-- Node17 -->
<g id="node17" class="node"><title>Node17</title>
<g id="a_node17"><a xlink:href="pda_8h.html#a959876507019ccc24303937cc277bb31" target="_top" xlink:title="gradeNext">
<polygon fill="white" stroke="black" points="477,-241.436 477,-260.436 539,-260.436 539,-241.436 477,-241.436"/>
<text text-anchor="middle" x="508" y="-248.436" font-family="Helvetica,sans-Serif" font-size="10.00">gradeNext</text>
</a>
</g>
</g>
<!-- Node2&#45;&gt;Node17 -->
<g id="edge17" class="edge"><title>Node2&#45;&gt;Node17</title>
<path fill="none" stroke="midnightblue" d="M155.98,-250.854C170.852,-207.769 207.924,-104.485 231,-75.9364 256.887,-43.9101 267.714,-35.282 307,-22.9364 357.456,-7.08052 382.793,7.56621 426,-22.9364 501.154,-75.993 507.002,-205.13 507.123,-241.35"/>
<polygon fill="midnightblue" stroke="midnightblue" points="152.63,-249.834 152.7,-260.429 159.252,-252.103 152.63,-249.834"/>
</g>
<!-- Node19 -->
<g id="node19" class="node"><title>Node19</title>
<g id="a_node19"><a xlink:href="stack_8h.html#abefdfbf9131b5ea5926f9ecbecb6b1e6" target="_top" xlink:title="Access the stack using an index where 0 is the top of the stack. ">
<polygon fill="white" stroke="black" points="236.5,-260.436 236.5,-279.436 265.5,-279.436 265.5,-260.436 236.5,-260.436"/>
<text text-anchor="middle" x="251" y="-267.436" font-family="Helvetica,sans-Serif" font-size="10.00">s</text>
</a>
</g>
</g>
<!-- Node2&#45;&gt;Node19 -->
<g id="edge20" class="edge"><title>Node2&#45;&gt;Node19</title>
<path fill="none" stroke="midnightblue" d="M205.236,-269.936C216.788,-269.936 227.949,-269.936 236.237,-269.936"/>
<polygon fill="midnightblue" stroke="midnightblue" points="205.045,-266.436 195.045,-269.936 205.045,-273.436 205.045,-266.436"/>
</g>
<!-- Node21 -->
<g id="node21" class="node"><title>Node21</title>
<g id="a_node21"><a xlink:href="stack_8h.html#a89e98012b4180ef8ce90108ebcfbde1d" target="_top" xlink:title="stackDigitsToUnsigned">
<polygon fill="white" stroke="black" points="307,-336.436 307,-355.436 426,-355.436 426,-336.436 307,-336.436"/>
<text text-anchor="middle" x="366.5" y="-343.436" font-family="Helvetica,sans-Serif" font-size="10.00">stackDigitsToUnsigned</text>
</a>
</g>
</g>
<!-- Node2&#45;&gt;Node21 -->
<g id="edge37" class="edge"><title>Node2&#45;&gt;Node21</title>
<path fill="none" stroke="midnightblue" d="M178.781,-283.949C194.138,-291.022 213.375,-299.453 231,-305.936 263.58,-317.922 301.564,-328.958 328.841,-336.388"/>
<polygon fill="midnightblue" stroke="midnightblue" points="179.848,-280.585 169.305,-279.532 176.89,-286.93 179.848,-280.585"/>
</g>
<!-- Node4 -->
<g id="node4" class="node"><title>Node4</title>
<g id="a_node4"><a xlink:href="actions_8h.html#a1fec7da4166b9612d2deec3d0262d60f" target="_top" xlink:title="dispatchOnStack">
<polygon fill="white" stroke="black" points="462,-298.436 462,-317.436 554,-317.436 554,-298.436 462,-298.436"/>
<text text-anchor="middle" x="508" y="-305.436" font-family="Helvetica,sans-Serif" font-size="10.00">dispatchOnStack</text>
</a>
</g>
</g>
<!-- Node3&#45;&gt;Node4 -->
<g id="edge3" class="edge"><title>Node3&#45;&gt;Node4</title>
<path fill="none" stroke="midnightblue" d="M387.333,-210.144C416.784,-234.211 471.174,-278.659 495.136,-298.241"/>
<polygon fill="midnightblue" stroke="midnightblue" points="389.352,-207.274 379.394,-203.656 384.922,-212.694 389.352,-207.274"/>
</g>
<!-- Node6&#45;&gt;Node4 -->
<g id="edge6" class="edge"><title>Node6&#45;&gt;Node4</title>
<path fill="none" stroke="midnightblue" d="M411.486,-307.936C427.566,-307.936 445.771,-307.936 461.943,-307.936"/>
<polygon fill="midnightblue" stroke="midnightblue" points="411.269,-304.436 401.269,-307.936 411.269,-311.436 411.269,-304.436"/>
</g>
<!-- Node10 -->
<g id="node10" class="node"><title>Node10</title>
<g id="a_node10"><a xlink:href="pda_8h.html#a5218392624b017b817b80d6b16ea920d" target="_top" xlink:title="askNextAlfa">
<polygon fill="white" stroke="black" points="590,-384.436 590,-403.436 661,-403.436 661,-384.436 590,-384.436"/>
<text text-anchor="middle" x="625.5" y="-391.436" font-family="Helvetica,sans-Serif" font-size="10.00">askNextAlfa</text>
</a>
</g>
</g>
<!-- Node9&#45;&gt;Node10 -->
<g id="edge10" class="edge"><title>Node9&#45;&gt;Node10</title>
<path fill="none" stroke="midnightblue" d="M400.773,-484.472C453.479,-463.143 554.891,-422.105 600.84,-403.511"/>
<polygon fill="midnightblue" stroke="midnightblue" points="399.174,-481.343 391.217,-488.339 401.8,-487.832 399.174,-481.343"/>
</g>
<!-- Node15 -->
<g id="node15" class="node"><title>Node15</title>
<g id="a_node15"><a xlink:href="pda_8h.html#a15825e7325bc5cdbd18cf2c6055baef1" target="_top" xlink:title="gradeRestore">
<polygon fill="white" stroke="black" points="470.5,-526.436 470.5,-545.436 545.5,-545.436 545.5,-526.436 470.5,-526.436"/>
<text text-anchor="middle" x="508" y="-533.436" font-family="Helvetica,sans-Serif" font-size="10.00">gradeRestore</text>
</a>
</g>
</g>
<!-- Node14&#45;&gt;Node15 -->
<g id="edge15" class="edge"><title>Node14&#45;&gt;Node15</title>
<path fill="none" stroke="midnightblue" d="M407.326,-535.936C427.124,-535.936 450.892,-535.936 470.251,-535.936"/>
<polygon fill="midnightblue" stroke="midnightblue" points="407.084,-532.436 397.084,-535.936 407.084,-539.436 407.084,-532.436"/>
</g>
<!-- Node16 -->
<g id="node16" class="node"><title>Node16</title>
<g id="a_node16"><a xlink:href="pda_8h.html#abf2e0c8c523ed9ddee8a9194c9800b99" target="_top" xlink:title="askSum">
<polygon fill="white" stroke="black" points="599,-526.436 599,-545.436 652,-545.436 652,-526.436 599,-526.436"/>
<text text-anchor="middle" x="625.5" y="-533.436" font-family="Helvetica,sans-Serif" font-size="10.00">askSum</text>
</a>
</g>
</g>
<!-- Node15&#45;&gt;Node16 -->
<g id="edge16" class="edge"><title>Node15&#45;&gt;Node16</title>
<path fill="none" stroke="midnightblue" d="M555.547,-535.936C570.299,-535.936 586.067,-535.936 598.795,-535.936"/>
<polygon fill="midnightblue" stroke="midnightblue" points="555.545,-532.436 545.545,-535.936 555.545,-539.436 555.545,-532.436"/>
</g>
<!-- Node17&#45;&gt;Node10 -->
<g id="edge18" class="edge"><title>Node17&#45;&gt;Node10</title>
<path fill="none" stroke="midnightblue" d="M530.521,-267.06C538.348,-273.435 546.986,-281.105 554,-288.936 582.566,-320.83 608.519,-365.058 619.265,-384.325"/>
<polygon fill="midnightblue" stroke="midnightblue" points="532.481,-264.149 522.462,-260.704 528.146,-269.645 532.481,-264.149"/>
</g>
<!-- Node18 -->
<g id="node18" class="node"><title>Node18</title>
<g id="a_node18"><a xlink:href="pda_8h.html#a1dc125d402fe76077cb4d166ac0fbf7a" target="_top" xlink:title="askNext">
<polygon fill="white" stroke="black" points="599,-241.436 599,-260.436 652,-260.436 652,-241.436 599,-241.436"/>
<text text-anchor="middle" x="625.5" y="-248.436" font-family="Helvetica,sans-Serif" font-size="10.00">askNext</text>
</a>
</g>
</g>
<!-- Node17&#45;&gt;Node18 -->
<g id="edge19" class="edge"><title>Node17&#45;&gt;Node18</title>
<path fill="none" stroke="midnightblue" d="M549.484,-250.936C565.916,-250.936 584.401,-250.936 598.91,-250.936"/>
<polygon fill="midnightblue" stroke="midnightblue" points="549.045,-247.436 539.045,-250.936 549.045,-254.436 549.045,-247.436"/>
</g>
<!-- Node19&#45;&gt;Node3 -->
<g id="edge24" class="edge"><title>Node19&#45;&gt;Node3</title>
<path fill="none" stroke="midnightblue" d="M266.847,-252.955C277.231,-241.865 291.898,-227.687 307,-217.936 315.946,-212.16 326.511,-207.316 336.184,-203.526"/>
<polygon fill="midnightblue" stroke="midnightblue" points="264.236,-250.624 260.097,-260.377 269.415,-255.334 264.236,-250.624"/>
</g>
<!-- Node19&#45;&gt;Node5 -->
<g id="edge25" class="edge"><title>Node19&#45;&gt;Node5</title>
<path fill="none" stroke="midnightblue" d="M254.848,-289.598C260.054,-318.472 273.801,-372.233 307,-402.936 314.683,-410.042 325.057,-414.491 334.935,-417.277"/>
<polygon fill="midnightblue" stroke="midnightblue" points="258.27,-288.832 253.201,-279.528 251.361,-289.962 258.27,-288.832"/>
</g>
<!-- Node19&#45;&gt;Node6 -->
<g id="edge26" class="edge"><title>Node19&#45;&gt;Node6</title>
<path fill="none" stroke="midnightblue" d="M275.023,-277.996C284.86,-281.413 296.478,-285.411 307,-288.936 316.315,-292.058 326.49,-295.39 335.704,-298.377"/>
<polygon fill="midnightblue" stroke="midnightblue" points="276.133,-274.677 265.538,-274.692 273.829,-281.287 276.133,-274.677"/>
</g>
<!-- Node19&#45;&gt;Node7 -->
<g id="edge27" class="edge"><title>Node19&#45;&gt;Node7</title>
<path fill="none" stroke="midnightblue" d="M251.327,-250.014C251.057,-209.008 256.36,-114.533 307,-60.9364 311.18,-56.5121 316.399,-53.1161 321.987,-50.5097"/>
<polygon fill="midnightblue" stroke="midnightblue" points="247.828,-250.151 251.517,-260.083 254.827,-250.018 247.828,-250.151"/>
</g>
<!-- Node19&#45;&gt;Node8 -->
<g id="edge28" class="edge"><title>Node19&#45;&gt;Node8</title>
<path fill="none" stroke="midnightblue" d="M258.374,-250.659C266.423,-229.203 282.28,-194.927 307,-174.936 315.967,-167.684 327.78,-163.17 338.442,-160.373"/>
<polygon fill="midnightblue" stroke="midnightblue" points="254.997,-249.711 254.958,-260.306 261.595,-252.047 254.997,-249.711"/>
</g>
<!-- Node19&#45;&gt;Node9 -->
<g id="edge29" class="edge"><title>Node19&#45;&gt;Node9</title>
<path fill="none" stroke="midnightblue" d="M255.142,-289.727C261.1,-323.004 276.288,-391.378 307,-440.936 319.101,-460.463 339.313,-478.102 352.525,-488.423"/>
<polygon fill="midnightblue" stroke="midnightblue" points="258.532,-288.783 253.409,-279.509 251.631,-289.954 258.532,-288.783"/>
</g>
<!-- Node19&#45;&gt;Node11 -->
<g id="edge30" class="edge"><title>Node19&#45;&gt;Node11</title>
<path fill="none" stroke="midnightblue" d="M254.848,-250.274C260.054,-221.401 273.801,-167.639 307,-136.936 313.507,-130.919 321.944,-126.806 330.376,-123.995"/>
<polygon fill="midnightblue" stroke="midnightblue" points="251.361,-249.911 253.201,-260.345 258.27,-251.041 251.361,-249.911"/>
</g>
<!-- Node19&#45;&gt;Node12 -->
<g id="edge31" class="edge"><title>Node19&#45;&gt;Node12</title>
<path fill="none" stroke="midnightblue" d="M258.374,-289.213C266.423,-310.669 282.28,-344.946 307,-364.936 313.476,-370.174 321.437,-373.984 329.376,-376.749"/>
<polygon fill="midnightblue" stroke="midnightblue" points="261.595,-287.825 254.958,-279.567 254.997,-290.162 261.595,-287.825"/>
</g>
<!-- Node19&#45;&gt;Node13 -->
<g id="edge32" class="edge"><title>Node19&#45;&gt;Node13</title>
<path fill="none" stroke="midnightblue" d="M252.756,-249.825C255.177,-214.431 265.257,-140.799 307,-98.9364 314.691,-91.2236 325.54,-86.6406 335.81,-83.9178"/>
<polygon fill="midnightblue" stroke="midnightblue" points="249.237,-250.088 252.194,-260.262 256.227,-250.465 249.237,-250.088"/>
</g>
<!-- Node19&#45;&gt;Node14 -->
<g id="edge33" class="edge"><title>Node19&#45;&gt;Node14</title>
<path fill="none" stroke="midnightblue" d="M253.889,-289.702C259.282,-342.169 276.367,-483.248 307,-516.936 314.4,-525.074 325.315,-529.739 335.719,-532.409"/>
<polygon fill="midnightblue" stroke="midnightblue" points="257.363,-289.265 252.89,-279.661 250.397,-289.958 257.363,-289.265"/>
</g>
<!-- Node19&#45;&gt;Node17 -->
<g id="edge34" class="edge"><title>Node19&#45;&gt;Node17</title>
<path fill="none" stroke="midnightblue" d="M275.008,-260.075C284.694,-256.431 296.204,-252.749 307,-250.936 366.583,-240.935 437.565,-244.529 476.925,-247.858"/>
<polygon fill="midnightblue" stroke="midnightblue" points="273.683,-256.835 265.681,-263.78 276.266,-263.341 273.683,-256.835"/>
</g>
<!-- Node20 -->
<g id="node20" class="node"><title>Node20</title>
<g id="a_node20"><a xlink:href="actions_8h.html#a5396567e85aa94852a84b3fff96369b9" target="_top" xlink:title="Transmit the top element of the stack. ">
<polygon fill="white" stroke="black" points="316.5,-260.436 316.5,-279.436 416.5,-279.436 416.5,-260.436 316.5,-260.436"/>
<text text-anchor="middle" x="366.5" y="-267.436" font-family="Helvetica,sans-Serif" font-size="10.00">txSymbolStackTop</text>
</a>
</g>
</g>
<!-- Node19&#45;&gt;Node20 -->
<g id="edge21" class="edge"><title>Node19&#45;&gt;Node20</title>
<path fill="none" stroke="midnightblue" d="M276.207,-269.936C287.954,-269.936 302.511,-269.936 316.439,-269.936"/>
<polygon fill="midnightblue" stroke="midnightblue" points="275.917,-266.436 265.917,-269.936 275.917,-273.436 275.917,-266.436"/>
</g>
<!-- Node19&#45;&gt;Node21 -->
<g id="edge35" class="edge"><title>Node19&#45;&gt;Node21</title>
<path fill="none" stroke="midnightblue" d="M265.29,-287.788C275.463,-300.325 290.514,-316.632 307,-326.936 313.067,-330.729 319.965,-333.837 326.844,-336.36"/>
<polygon fill="midnightblue" stroke="midnightblue" points="267.985,-285.553 259.069,-279.831 262.471,-289.865 267.985,-285.553"/>
</g>
<!-- Node20&#45;&gt;Node4 -->
<g id="edge22" class="edge"><title>Node20&#45;&gt;Node4</title>
<path fill="none" stroke="midnightblue" d="M412.456,-282.183C431.685,-287.42 453.803,-293.445 471.81,-298.35"/>
<polygon fill="midnightblue" stroke="midnightblue" points="413.27,-278.777 402.702,-279.525 411.43,-285.531 413.27,-278.777"/>
</g>
<!-- Node20&#45;&gt;Node17 -->
<g id="edge23" class="edge"><title>Node20&#45;&gt;Node17</title>
<path fill="none" stroke="midnightblue" d="M426.735,-261.869C444.038,-259.512 462.224,-257.035 476.902,-255.036"/>
<polygon fill="midnightblue" stroke="midnightblue" points="426.119,-258.42 416.682,-263.238 427.063,-265.356 426.119,-258.42"/>
</g>
<!-- Node21&#45;&gt;Node4 -->
<g id="edge36" class="edge"><title>Node21&#45;&gt;Node4</title>
<path fill="none" stroke="midnightblue" d="M412.456,-333.69C431.685,-328.452 453.803,-322.427 471.81,-317.522"/>
<polygon fill="midnightblue" stroke="midnightblue" points="411.43,-330.342 402.702,-336.347 413.27,-337.096 411.43,-330.342"/>
</g>
<!-- Node22&#45;&gt;Node4 -->
<g id="edge39" class="edge"><title>Node22&#45;&gt;Node4</title>
<path fill="none" stroke="midnightblue" d="M167.231,-101.315C214.709,-58.8075 346.502,45.8146 426,-22.9364 509.911,-95.5042 408.121,-172.961 462,-269.936 468.655,-281.914 480.672,-291.764 490.615,-298.432"/>
<polygon fill="midnightblue" stroke="midnightblue" points="164.655,-98.9268 159.62,-108.249 169.37,-104.101 164.655,-98.9268"/>
</g>
<!-- Node23&#45;&gt;Node4 -->
<g id="edge41" class="edge"><title>Node23&#45;&gt;Node4</title>
<path fill="none" stroke="midnightblue" d="M281.065,-464.138C317.821,-467.903 381.653,-469.129 426,-440.936 473,-411.058 496.809,-343.145 504.316,-317.756"/>
<polygon fill="midnightblue" stroke="midnightblue" points="281.353,-460.648 271.017,-462.975 280.548,-467.602 281.353,-460.648"/>
</g>
<!-- Node23&#45;&gt;Node5 -->
<g id="edge42" class="edge"><title>Node23&#45;&gt;Node5</title>
<path fill="none" stroke="midnightblue" d="M280.758,-450.308C297.91,-444.566 319.614,-437.299 336.763,-431.558"/>
<polygon fill="midnightblue" stroke="midnightblue" points="279.625,-446.996 271.254,-453.49 281.848,-453.634 279.625,-446.996"/>
</g>
<!-- Node23&#45;&gt;Node9 -->
<g id="edge43" class="edge"><title>Node23&#45;&gt;Node9</title>
<path fill="none" stroke="midnightblue" d="M280.758,-469.565C297.91,-475.307 319.614,-482.574 336.763,-488.315"/>
<polygon fill="midnightblue" stroke="midnightblue" points="281.848,-466.239 271.254,-466.383 279.625,-472.876 281.848,-466.239"/>
</g>
<!-- Node23&#45;&gt;Node12 -->
<g id="edge44" class="edge"><title>Node23&#45;&gt;Node12</title>
<path fill="none" stroke="midnightblue" d="M265.29,-442.085C275.463,-429.548 290.514,-413.241 307,-402.936 313.791,-398.691 321.624,-395.303 329.306,-392.633"/>
<polygon fill="midnightblue" stroke="midnightblue" points="262.471,-440.008 259.069,-450.042 267.985,-444.32 262.471,-440.008"/>
</g>
<!-- Node23&#45;&gt;Node14 -->
<g id="edge45" class="edge"><title>Node23&#45;&gt;Node14</title>
<path fill="none" stroke="midnightblue" d="M265.29,-477.788C275.463,-490.325 290.514,-506.632 307,-516.936 315.783,-522.427 326.31,-526.484 335.997,-529.406"/>
<polygon fill="midnightblue" stroke="midnightblue" points="267.985,-475.553 259.069,-469.831 262.471,-479.865 267.985,-475.553"/>
</g>
<!-- Node23&#45;&gt;Node21 -->
<g id="edge46" class="edge"><title>Node23&#45;&gt;Node21</title>
<path fill="none" stroke="midnightblue" d="M258.374,-440.659C266.423,-419.203 282.28,-384.927 307,-364.936 311.816,-361.042 317.452,-357.937 323.29,-355.463"/>
<polygon fill="midnightblue" stroke="midnightblue" points="254.997,-439.711 254.958,-450.306 261.595,-442.047 254.997,-439.711"/>
</g>
</g>
</svg>
        <g id="navigator" transform="translate(0 0)" fill="#404254">
                <rect fill="#f2f5e9" fill-opacity="0.5" stroke="#606060" stroke-width=".5" x="0" y="0" width="60" height="60"/>
                <use id="zoomplus" xlink:href="#zoomPlus" x="17" y="9" onmousedown="handleZoom(evt,'in')"/>
                <use id="zoomminus" xlink:href="#zoomMin" x="42" y="9" onmousedown="handleZoom(evt,'out')"/>
                <use id="reset" xlink:href="#resetDef" x="30" y="36" onmousedown="handleReset()"/>
                <g id="arrowUp" xlink:href="#dirArrow" transform="translate(30 24)" onmousedown="handlePan(0,-1)">
                  <use xlink:href="#rim" fill="#404040">
                        <set attributeName="fill" to="#808080" begin="arrowUp.mouseover" end="arrowUp.mouseout"/>
                  </use>
                  <path fill="none" stroke="white" stroke-width="1.5" d="M0,-3.0v7 M-2.5,-0.5L0,-3.0L2.5,-0.5"/>
                </g>
                <g id="arrowRight" xlink:href="#dirArrow" transform="rotate(90) translate(36 -43)" onmousedown="handlePan(1,0)">
                  <use xlink:href="#rim" fill="#404040">
                        <set attributeName="fill" to="#808080" begin="arrowRight.mouseover" end="arrowRight.mouseout"/>
                  </use>
                  <path fill="none" stroke="white" stroke-width="1.5" d="M0,-3.0v7 M-2.5,-0.5L0,-3.0L2.5,-0.5"/>
                </g>
                <g id="arrowDown" xlink:href="#dirArrow" transform="rotate(180) translate(-30 -48)" onmousedown="handlePan(0,1)">
                  <use xlink:href="#rim" fill="#404040">
                        <set attributeName="fill" to="#808080" begin="arrowDown.mouseover" end="arrowDown.mouseout"/>
                  </use>
                  <path fill="none" stroke="white" stroke-width="1.5" d="M0,-3.0v7 M-2.5,-0.5L0,-3.0L2.5,-0.5"/>
                </g>
                <g id="arrowLeft" xlink:href="#dirArrow" transform="rotate(270) translate(-36 17)" onmousedown="handlePan(-1,0)">
                  <use xlink:href="#rim" fill="#404040">
                        <set attributeName="fill" to="#808080" begin="arrowLeft.mouseover" end="arrowLeft.mouseout"/>
                  </use>
                  <path fill="none" stroke="white" stroke-width="1.5" d="M0,-3.0v7 M-2.5,-0.5L0,-3.0L2.5,-0.5"/>
                </g>
        </g>
        <svg viewBox="0 0 15 15" width="100%" height="30px" preserveAspectRatio="xMaxYMin meet">
         <g id="arrow_out" transform="scale(0.3 0.3)">
          <a xlink:href="class_stack_afc30a7ee287e14f08802c2d43613f2b4_icgraph_org.svg" target="_base">
           <rect id="button" ry="5" rx="5" y="6" x="6" height="38" width="38"
                fill="#f2f5e9" fill-opacity="0.5" stroke="#606060" stroke-width="1.0"/>
           <path id="arrow"
             d="M 11.500037,31.436501 C 11.940474,20.09759 22.043105,11.32322 32.158766,21.979434 L 37.068811,17.246167 C 37.068811,17.246167 37.088388,32 37.088388,32 L 22.160133,31.978069 C 22.160133,31.978069 26.997745,27.140456 26.997745,27.140456 C 18.528582,18.264221 13.291696,25.230495 11.500037,31.436501 z"
             style="fill:#404040;"/>
          </a>
         </g>
        </svg>
</svg>
