<?xml version="1.0" encoding="UTF-8" standalone="no"?>
<!DOCTYPE svg PUBLIC "-//W3C//DTD SVG 1.1//EN"
 "http://www.w3.org/Graphics/SVG/1.1/DTD/svg11.dtd">
<!-- Generated by graphviz version 2.38.0 (20140413.2041)
 -->
<!-- Title: VoltageMonitor::getRawVoltage Pages: 1 -->
<svg width="474pt" height="28pt"
 viewBox="0.00 0.00 474.00 28.00" xmlns="http://www.w3.org/2000/svg" xmlns:xlink="http://www.w3.org/1999/xlink">
<g id="graph0" class="graph" transform="scale(1 1) rotate(0) translate(4 24)">
<title>VoltageMonitor::getRawVoltage</title>
<polygon fill="white" stroke="none" points="-4,4 -4,-24 470,-24 470,4 -4,4"/>
<!-- Node1 -->
<g id="node1" class="node"><title>Node1</title>
<polygon fill="#bfbfbf" stroke="black" points="0,-0.5 0,-19.5 155,-19.5 155,-0.5 0,-0.5"/>
<text text-anchor="middle" x="77.5" y="-7.5" font-family="Helvetica,sans-Serif" font-size="10.00">VoltageMonitor::getRawVoltage</text>
</g>
<!-- Node2 -->
<g id="node2" class="node"><title>Node2</title>
<g id="a_node2"><a xlink:href="teensy3__morse__bsp_8h.html#a0e2da33375826e329ea5f4c8d1d10224" target="_top" xlink:title="Get the raw analog input. ">
<polygon fill="white" stroke="black" points="191,-0.5 191,-19.5 274,-19.5 274,-0.5 191,-0.5"/>
<text text-anchor="middle" x="232.5" y="-7.5" font-family="Helvetica,sans-Serif" font-size="10.00">getRawVoltage</text>
</a>
</g>
</g>
<!-- Node1&#45;&gt;Node2 -->
<g id="edge1" class="edge"><title>Node1&#45;&gt;Node2</title>
<path fill="none" stroke="midnightblue" d="M165.714,-10C174.409,-10 182.915,-10 190.772,-10"/>
<polygon fill="midnightblue" stroke="midnightblue" points="165.448,-6.5001 155.448,-10 165.448,-13.5001 165.448,-6.5001"/>
</g>
<!-- Node3 -->
<g id="node3" class="node"><title>Node3</title>
<g id="a_node3"><a xlink:href="actions_8h.html#a4dda4125d9a3fc8abbc9b2803e4497c4" target="_top" xlink:title="Get the raw analog input. ">
<polygon fill="white" stroke="black" points="310,-0.5 310,-19.5 355,-19.5 355,-0.5 310,-0.5"/>
<text text-anchor="middle" x="332.5" y="-7.5" font-family="Helvetica,sans-Serif" font-size="10.00">txRaw</text>
</a>
</g>
</g>
<!-- Node2&#45;&gt;Node3 -->
<g id="edge2" class="edge"><title>Node2&#45;&gt;Node3</title>
<path fill="none" stroke="midnightblue" d="M284.312,-10C293.286,-10 302.179,-10 309.785,-10"/>
<polygon fill="midnightblue" stroke="midnightblue" points="284.209,-6.5001 274.209,-10 284.209,-13.5001 284.209,-6.5001"/>
</g>
<!-- Node4 -->
<g id="node4" class="node"><title>Node4</title>
<g id="a_node4"><a xlink:href="actions_8h.html#a9c9466bf6676f35ff08e8dc33518e483" target="_top" xlink:title="Respond to commands from the serial port. ">
<polygon fill="white" stroke="black" points="391,-0.5 391,-19.5 466,-19.5 466,-0.5 391,-0.5"/>
<text text-anchor="middle" x="428.5" y="-7.5" font-family="Helvetica,sans-Serif" font-size="10.00">readEvalPrint</text>
</a>
</g>
</g>
<!-- Node3&#45;&gt;Node4 -->
<g id="edge3" class="edge"><title>Node3&#45;&gt;Node4</title>
<path fill="none" stroke="midnightblue" d="M365.491,-10C373.606,-10 382.388,-10 390.72,-10"/>
<polygon fill="midnightblue" stroke="midnightblue" points="365.302,-6.5001 355.302,-10 365.302,-13.5001 365.302,-6.5001"/>
</g>
</g>
</svg>
