<?xml version="1.0" encoding="UTF-8" standalone="no"?>
<!DOCTYPE svg PUBLIC "-//W3C//DTD SVG 1.1//EN"
 "http://www.w3.org/Graphics/SVG/1.1/DTD/svg11.dtd">
<!-- Generated by graphviz version 2.38.0 (20140413.2041)
 -->
<!-- Title: MorseToken::pause Pages: 1 -->
<svg width="788pt" height="256pt"
 viewBox="0.00 0.00 788.00 256.00" xmlns="http://www.w3.org/2000/svg" xmlns:xlink="http://www.w3.org/1999/xlink">
<g id="graph0" class="graph" transform="scale(1 1) rotate(0) translate(4 252)">
<title>MorseToken::pause</title>
<polygon fill="white" stroke="none" points="-4,4 -4,-252 784,-252 784,4 -4,4"/>
<!-- Node1 -->
<g id="node1" class="node"><title>Node1</title>
<polygon fill="#bfbfbf" stroke="black" points="0,-109.5 0,-128.5 103,-128.5 103,-109.5 0,-109.5"/>
<text text-anchor="middle" x="51.5" y="-116.5" font-family="Helvetica,sans-Serif" font-size="10.00">MorseToken::pause</text>
</g>
<!-- Node2 -->
<g id="node2" class="node"><title>Node2</title>
<g id="a_node2"><a xlink:href="morse__token_8h.html#a98f44690e97cbd7ea9445ca0a560a564" target="_top" xlink:title="Convert a Morse code into ASCII. ">
<polygon fill="white" stroke="black" points="139,-109.5 139,-128.5 174,-128.5 174,-109.5 139,-109.5"/>
<text text-anchor="middle" x="156.5" y="-116.5" font-family="Helvetica,sans-Serif" font-size="10.00">m2a</text>
</a>
</g>
</g>
<!-- Node1&#45;&gt;Node2 -->
<g id="edge1" class="edge"><title>Node1&#45;&gt;Node2</title>
<path fill="none" stroke="midnightblue" d="M113.267,-119C122.547,-119 131.411,-119 138.602,-119"/>
<polygon fill="midnightblue" stroke="midnightblue" points="113.095,-115.5 103.095,-119 113.095,-122.5 113.095,-115.5"/>
</g>
<!-- Node3 -->
<g id="node3" class="node"><title>Node3</title>
<g id="a_node3"><a xlink:href="class_morse_token.html#a8c36a957ebc90172eae960757c72d3a4" target="_top" xlink:title="Convert to a single ASCII character. ">
<polygon fill="white" stroke="black" points="210,-109.5 210,-128.5 316,-128.5 316,-109.5 210,-109.5"/>
<text text-anchor="middle" x="263" y="-116.5" font-family="Helvetica,sans-Serif" font-size="10.00">MorseToken::toChar</text>
</a>
</g>
</g>
<!-- Node2&#45;&gt;Node3 -->
<g id="edge2" class="edge"><title>Node2&#45;&gt;Node3</title>
<path fill="none" stroke="midnightblue" d="M184.452,-119C192.168,-119 200.855,-119 209.549,-119"/>
<polygon fill="midnightblue" stroke="midnightblue" points="184.29,-115.5 174.29,-119 184.29,-122.5 184.29,-115.5"/>
</g>
<!-- Node4 -->
<g id="node4" class="node"><title>Node4</title>
<g id="a_node4"><a xlink:href="morse__token_8h.html#a9ec0688da83c93d634e79b2d7ad7ad64" target="_top" xlink:title="Convert Morse 0&#45;9 to the corresponding digit. ">
<polygon fill="white" stroke="black" points="352,-109.5 352,-128.5 384,-128.5 384,-109.5 352,-109.5"/>
<text text-anchor="middle" x="368" y="-116.5" font-family="Helvetica,sans-Serif" font-size="10.00">m2i</text>
</a>
</g>
</g>
<!-- Node3&#45;&gt;Node4 -->
<g id="edge3" class="edge"><title>Node3&#45;&gt;Node4</title>
<path fill="none" stroke="midnightblue" d="M326.369,-119C335.706,-119 344.543,-119 351.576,-119"/>
<polygon fill="midnightblue" stroke="midnightblue" points="326.104,-115.5 316.104,-119 326.103,-122.5 326.104,-115.5"/>
</g>
<!-- Node5 -->
<g id="node5" class="node"><title>Node5</title>
<g id="a_node5"><a xlink:href="class_morse_token.html#adbcf2bf93f283c2c69a93dd69d03c38b" target="_top" xlink:title="Convert Morse 0&#45;9 to the corresponding digit. ">
<polygon fill="white" stroke="black" points="433.5,-149.5 433.5,-168.5 525.5,-168.5 525.5,-149.5 433.5,-149.5"/>
<text text-anchor="middle" x="479.5" y="-156.5" font-family="Helvetica,sans-Serif" font-size="10.00">MorseToken::m2i</text>
</a>
</g>
</g>
<!-- Node4&#45;&gt;Node5 -->
<g id="edge4" class="edge"><title>Node4&#45;&gt;Node5</title>
<path fill="none" stroke="midnightblue" d="M393.702,-128.271C402.046,-131.384 411.42,-134.862 420,-138 430.337,-141.781 441.724,-145.882 451.683,-149.449"/>
<polygon fill="midnightblue" stroke="midnightblue" points="394.75,-124.926 384.157,-124.701 392.298,-131.482 394.75,-124.926"/>
</g>
<!-- Node7 -->
<g id="node7" class="node"><title>Node7</title>
<g id="a_node7"><a xlink:href="pda_8h.html#ac1f9ea31ffc81530ac4a07fa2469f13c" target="_top" xlink:title="txAlfaBravoCharlie">
<polygon fill="white" stroke="black" points="575,-228.5 575,-247.5 673,-247.5 673,-228.5 575,-228.5"/>
<text text-anchor="middle" x="624" y="-235.5" font-family="Helvetica,sans-Serif" font-size="10.00">txAlfaBravoCharlie</text>
</a>
</g>
</g>
<!-- Node4&#45;&gt;Node7 -->
<g id="edge12" class="edge"><title>Node4&#45;&gt;Node7</title>
<path fill="none" stroke="midnightblue" d="M380.793,-137.585C389.991,-150.658 403.884,-167.609 420,-178 467.565,-208.669 531.365,-224.152 574.654,-231.621"/>
<polygon fill="midnightblue" stroke="midnightblue" points="383.442,-135.251 374.961,-128.901 377.631,-139.154 383.442,-135.251"/>
</g>
<!-- Node12 -->
<g id="node12" class="node"><title>Node12</title>
<g id="a_node12"><a xlink:href="pda_8h.html#a3c36576745952735f04eaa82b933e6fa" target="_top" xlink:title="Play one of 10 sound effects based on the digit on the stack. ">
<polygon fill="white" stroke="black" points="435,-109.5 435,-128.5 524,-128.5 524,-109.5 435,-109.5"/>
<text text-anchor="middle" x="479.5" y="-116.5" font-family="Helvetica,sans-Serif" font-size="10.00">playSoundEffect</text>
</a>
</g>
</g>
<!-- Node4&#45;&gt;Node12 -->
<g id="edge11" class="edge"><title>Node4&#45;&gt;Node12</title>
<path fill="none" stroke="midnightblue" d="M394.352,-119C406.304,-119 420.913,-119 434.583,-119"/>
<polygon fill="midnightblue" stroke="midnightblue" points="394.226,-115.5 384.226,-119 394.225,-122.5 394.226,-115.5"/>
</g>
<!-- Node13 -->
<g id="node13" class="node"><title>Node13</title>
<g id="a_node13"><a xlink:href="pda_8h.html#a59acff867d89a88cb2142895d95b12e8" target="_top" xlink:title="gradeSum">
<polygon fill="white" stroke="black" points="449,-66.5 449,-85.5 510,-85.5 510,-66.5 449,-66.5"/>
<text text-anchor="middle" x="479.5" y="-73.5" font-family="Helvetica,sans-Serif" font-size="10.00">gradeSum</text>
</a>
</g>
</g>
<!-- Node4&#45;&gt;Node13 -->
<g id="edge13" class="edge"><title>Node4&#45;&gt;Node13</title>
<path fill="none" stroke="midnightblue" d="M393.783,-109.268C411.843,-102.176 436.189,-92.6153 454.147,-85.5631"/>
<polygon fill="midnightblue" stroke="midnightblue" points="392.254,-106.108 384.226,-113.021 394.813,-112.624 392.254,-106.108"/>
</g>
<!-- Node16 -->
<g id="node16" class="node"><title>Node16</title>
<g id="a_node16"><a xlink:href="stack_8h.html#a89e98012b4180ef8ce90108ebcfbde1d" target="_top" xlink:title="stackDigitsToUnsigned">
<polygon fill="white" stroke="black" points="420,-19.5 420,-38.5 539,-38.5 539,-19.5 420,-19.5"/>
<text text-anchor="middle" x="479.5" y="-26.5" font-family="Helvetica,sans-Serif" font-size="10.00">stackDigitsToUnsigned</text>
</a>
</g>
</g>
<!-- Node4&#45;&gt;Node16 -->
<g id="edge16" class="edge"><title>Node4&#45;&gt;Node16</title>
<path fill="none" stroke="midnightblue" d="M380.866,-100.608C390.234,-87.1949 404.309,-69.2894 420,-57 429.662,-49.4324 441.702,-43.233 452.343,-38.6086"/>
<polygon fill="midnightblue" stroke="midnightblue" points="377.861,-98.8039 375.171,-109.051 383.665,-102.718 377.861,-98.8039"/>
</g>
<!-- Node6 -->
<g id="node6" class="node"><title>Node6</title>
<g id="a_node6"><a xlink:href="actions_8h.html#a142b42f94ccf46a7a9706fe9b63b4501" target="_top" xlink:title="Attempt to control the output volume but adjusting the PWM duty cycle. ">
<polygon fill="white" stroke="black" points="592.5,-190.5 592.5,-209.5 655.5,-209.5 655.5,-190.5 592.5,-190.5"/>
<text text-anchor="middle" x="624" y="-197.5" font-family="Helvetica,sans-Serif" font-size="10.00">setVolume</text>
</a>
</g>
</g>
<!-- Node5&#45;&gt;Node6 -->
<g id="edge5" class="edge"><title>Node5&#45;&gt;Node6</title>
<path fill="none" stroke="midnightblue" d="M523.369,-171.334C545.492,-177.7 571.979,-185.32 592.08,-191.104"/>
<polygon fill="midnightblue" stroke="midnightblue" points="524.128,-167.911 513.551,-168.509 522.193,-174.638 524.128,-167.911"/>
</g>
<!-- Node5&#45;&gt;Node7 -->
<g id="edge6" class="edge"><title>Node5&#45;&gt;Node7</title>
<path fill="none" stroke="midnightblue" d="M502.183,-174.433C520.902,-187.344 548.96,-205.73 575,-219 581.708,-222.418 589.181,-225.639 596.196,-228.424"/>
<polygon fill="midnightblue" stroke="midnightblue" points="503.999,-171.432 493.795,-168.581 499.994,-177.173 503.999,-171.432"/>
</g>
<!-- Node9 -->
<g id="node9" class="node"><title>Node9</title>
<g id="a_node9"><a xlink:href="pda_8cpp.html#a47afc6664036a43243457f6f66cb90f8" target="_top" xlink:title="txAlphaNNN">
<polygon fill="white" stroke="black" points="588,-152.5 588,-171.5 660,-171.5 660,-152.5 588,-152.5"/>
<text text-anchor="middle" x="624" y="-159.5" font-family="Helvetica,sans-Serif" font-size="10.00">txAlphaNNN</text>
</a>
</g>
</g>
<!-- Node5&#45;&gt;Node9 -->
<g id="edge8" class="edge"><title>Node5&#45;&gt;Node9</title>
<path fill="none" stroke="midnightblue" d="M535.686,-160.162C553.161,-160.53 571.996,-160.926 587.684,-161.257"/>
<polygon fill="midnightblue" stroke="midnightblue" points="535.659,-156.661 525.588,-159.949 535.512,-163.659 535.659,-156.661"/>
</g>
<!-- Node10 -->
<g id="node10" class="node"><title>Node10</title>
<g id="a_node10"><a xlink:href="pda_8h.html#aee08a527408a7a8a4b5490d13b767cb2" target="_top" xlink:title="txMetronome">
<polygon fill="white" stroke="black" points="587,-114.5 587,-133.5 661,-133.5 661,-114.5 587,-114.5"/>
<text text-anchor="middle" x="624" y="-121.5" font-family="Helvetica,sans-Serif" font-size="10.00">txMetronome</text>
</a>
</g>
</g>
<!-- Node5&#45;&gt;Node10 -->
<g id="edge9" class="edge"><title>Node5&#45;&gt;Node10</title>
<path fill="none" stroke="midnightblue" d="M529.299,-147.014C548.067,-142.405 569.149,-137.227 586.557,-132.951"/>
<polygon fill="midnightblue" stroke="midnightblue" points="528.315,-143.652 519.439,-149.436 529.985,-150.45 528.315,-143.652"/>
</g>
<!-- Node11 -->
<g id="node11" class="node"><title>Node11</title>
<g id="a_node11"><a xlink:href="pda_8h.html#aba3c77bbaeda68253d8795c44bb0b4ff" target="_top" xlink:title="sumStack">
<polygon fill="white" stroke="black" points="593.5,-76.5 593.5,-95.5 654.5,-95.5 654.5,-76.5 593.5,-76.5"/>
<text text-anchor="middle" x="624" y="-83.5" font-family="Helvetica,sans-Serif" font-size="10.00">sumStack</text>
</a>
</g>
</g>
<!-- Node5&#45;&gt;Node11 -->
<g id="edge10" class="edge"><title>Node5&#45;&gt;Node11</title>
<path fill="none" stroke="midnightblue" d="M523.82,-145.674C529.083,-143.415 534.266,-140.859 539,-138 557.58,-126.779 556.604,-116.519 575,-105 580.849,-101.338 587.522,-98.1594 593.994,-95.5055"/>
<polygon fill="midnightblue" stroke="midnightblue" points="522.353,-142.491 514.341,-149.423 524.928,-149 522.353,-142.491"/>
</g>
<!-- Node8 -->
<g id="node8" class="node"><title>Node8</title>
<g id="a_node8"><a xlink:href="pda_8h.html#a5218392624b017b817b80d6b16ea920d" target="_top" xlink:title="askNextAlfa">
<polygon fill="white" stroke="black" points="709,-228.5 709,-247.5 780,-247.5 780,-228.5 709,-228.5"/>
<text text-anchor="middle" x="744.5" y="-235.5" font-family="Helvetica,sans-Serif" font-size="10.00">askNextAlfa</text>
</a>
</g>
</g>
<!-- Node7&#45;&gt;Node8 -->
<g id="edge7" class="edge"><title>Node7&#45;&gt;Node8</title>
<path fill="none" stroke="midnightblue" d="M683.356,-238C692.058,-238 700.785,-238 708.787,-238"/>
<polygon fill="midnightblue" stroke="midnightblue" points="683.199,-234.5 673.198,-238 683.198,-241.5 683.199,-234.5"/>
</g>
<!-- Node14 -->
<g id="node14" class="node"><title>Node14</title>
<g id="a_node14"><a xlink:href="pda_8h.html#a15825e7325bc5cdbd18cf2c6055baef1" target="_top" xlink:title="gradeRestore">
<polygon fill="white" stroke="black" points="586.5,-38.5 586.5,-57.5 661.5,-57.5 661.5,-38.5 586.5,-38.5"/>
<text text-anchor="middle" x="624" y="-45.5" font-family="Helvetica,sans-Serif" font-size="10.00">gradeRestore</text>
</a>
</g>
</g>
<!-- Node13&#45;&gt;Node14 -->
<g id="edge14" class="edge"><title>Node13&#45;&gt;Node14</title>
<path fill="none" stroke="midnightblue" d="M520.117,-68.2157C540.874,-64.137 566.127,-59.1751 586.418,-55.188"/>
<polygon fill="midnightblue" stroke="midnightblue" points="519.164,-64.8359 510.026,-70.1984 520.513,-71.7046 519.164,-64.8359"/>
</g>
<!-- Node15 -->
<g id="node15" class="node"><title>Node15</title>
<g id="a_node15"><a xlink:href="pda_8h.html#abf2e0c8c523ed9ddee8a9194c9800b99" target="_top" xlink:title="askSum">
<polygon fill="white" stroke="black" points="718,-38.5 718,-57.5 771,-57.5 771,-38.5 718,-38.5"/>
<text text-anchor="middle" x="744.5" y="-45.5" font-family="Helvetica,sans-Serif" font-size="10.00">askSum</text>
</a>
</g>
</g>
<!-- Node14&#45;&gt;Node15 -->
<g id="edge15" class="edge"><title>Node14&#45;&gt;Node15</title>
<path fill="none" stroke="midnightblue" d="M671.623,-48C687.345,-48 704.31,-48 717.808,-48"/>
<polygon fill="midnightblue" stroke="midnightblue" points="671.521,-44.5001 661.521,-48 671.521,-51.5001 671.521,-44.5001"/>
</g>
<!-- Node17 -->
<g id="node17" class="node"><title>Node17</title>
<g id="a_node17"><a xlink:href="actions_8h.html#a1fec7da4166b9612d2deec3d0262d60f" target="_top" xlink:title="dispatchOnStack">
<polygon fill="white" stroke="black" points="578,-0.5 578,-19.5 670,-19.5 670,-0.5 578,-0.5"/>
<text text-anchor="middle" x="624" y="-7.5" font-family="Helvetica,sans-Serif" font-size="10.00">dispatchOnStack</text>
</a>
</g>
</g>
<!-- Node16&#45;&gt;Node17 -->
<g id="edge17" class="edge"><title>Node16&#45;&gt;Node17</title>
<path fill="none" stroke="midnightblue" d="M549.327,-19.8231C559.014,-18.5315 568.761,-17.2318 577.851,-16.0199"/>
<polygon fill="midnightblue" stroke="midnightblue" points="548.733,-16.3713 539.283,-21.1623 549.658,-23.3099 548.733,-16.3713"/>
</g>
</g>
</svg>
