<?xml version="1.0" encoding="UTF-8" standalone="no"?>
<!DOCTYPE svg PUBLIC "-//W3C//DTD SVG 1.1//EN"
 "http://www.w3.org/Graphics/SVG/1.1/DTD/svg11.dtd">
<!-- Generated by graphviz version 2.38.0 (20140413.2041)
 -->
<!-- Title: MorseToken::m2i Pages: 1 -->
<svg width="341pt" height="180pt"
 viewBox="0.00 0.00 341.00 180.00" xmlns="http://www.w3.org/2000/svg" xmlns:xlink="http://www.w3.org/1999/xlink">
<g id="graph0" class="graph" transform="scale(1 1) rotate(0) translate(4 176)">
<title>MorseToken::m2i</title>
<polygon fill="white" stroke="none" points="-4,4 -4,-176 337,-176 337,4 -4,4"/>
<!-- Node1 -->
<g id="node1" class="node"><title>Node1</title>
<polygon fill="#bfbfbf" stroke="black" points="0,-76.5 0,-95.5 92,-95.5 92,-76.5 0,-76.5"/>
<text text-anchor="middle" x="46" y="-83.5" font-family="Helvetica,sans-Serif" font-size="10.00">MorseToken::m2i</text>
</g>
<!-- Node2 -->
<g id="node2" class="node"><title>Node2</title>
<g id="a_node2"><a xlink:href="actions_8h.html#a142b42f94ccf46a7a9706fe9b63b4501" target="_top" xlink:title="Attempt to control the output volume but adjusting the PWM duty cycle. ">
<polygon fill="white" stroke="black" points="145.5,-152.5 145.5,-171.5 208.5,-171.5 208.5,-152.5 145.5,-152.5"/>
<text text-anchor="middle" x="177" y="-159.5" font-family="Helvetica,sans-Serif" font-size="10.00">setVolume</text>
</a>
</g>
</g>
<!-- Node1&#45;&gt;Node2 -->
<g id="edge1" class="edge"><title>Node1&#45;&gt;Node2</title>
<path fill="none" stroke="midnightblue" d="M66.7874,-101.929C82.6796,-114.218 105.914,-131.075 128,-143 134.467,-146.491 141.716,-149.696 148.582,-152.438"/>
<polygon fill="midnightblue" stroke="midnightblue" points="68.7945,-99.0554 58.7676,-95.6331 64.4718,-104.561 68.7945,-99.0554"/>
</g>
<!-- Node3 -->
<g id="node3" class="node"><title>Node3</title>
<g id="a_node3"><a xlink:href="pda_8h.html#ac1f9ea31ffc81530ac4a07fa2469f13c" target="_top" xlink:title="txAlfaBravoCharlie">
<polygon fill="white" stroke="black" points="128,-114.5 128,-133.5 226,-133.5 226,-114.5 128,-114.5"/>
<text text-anchor="middle" x="177" y="-121.5" font-family="Helvetica,sans-Serif" font-size="10.00">txAlfaBravoCharlie</text>
</a>
</g>
</g>
<!-- Node1&#45;&gt;Node3 -->
<g id="edge2" class="edge"><title>Node1&#45;&gt;Node3</title>
<path fill="none" stroke="midnightblue" d="M89.554,-98.5353C107.103,-103.705 127.113,-109.599 143.458,-114.414"/>
<polygon fill="midnightblue" stroke="midnightblue" points="90.1336,-95.0574 79.5521,-95.589 88.1556,-101.772 90.1336,-95.0574"/>
</g>
<!-- Node5 -->
<g id="node5" class="node"><title>Node5</title>
<g id="a_node5"><a xlink:href="pda_8cpp.html#a47afc6664036a43243457f6f66cb90f8" target="_top" xlink:title="txAlphaNNN">
<polygon fill="white" stroke="black" points="141,-76.5 141,-95.5 213,-95.5 213,-76.5 141,-76.5"/>
<text text-anchor="middle" x="177" y="-83.5" font-family="Helvetica,sans-Serif" font-size="10.00">txAlphaNNN</text>
</a>
</g>
</g>
<!-- Node1&#45;&gt;Node5 -->
<g id="edge4" class="edge"><title>Node1&#45;&gt;Node5</title>
<path fill="none" stroke="midnightblue" d="M102.425,-86C115.464,-86 129.008,-86 140.867,-86"/>
<polygon fill="midnightblue" stroke="midnightblue" points="102.118,-82.5001 92.1179,-86 102.118,-89.5001 102.118,-82.5001"/>
</g>
<!-- Node6 -->
<g id="node6" class="node"><title>Node6</title>
<g id="a_node6"><a xlink:href="pda_8h.html#aee08a527408a7a8a4b5490d13b767cb2" target="_top" xlink:title="txMetronome">
<polygon fill="white" stroke="black" points="140,-38.5 140,-57.5 214,-57.5 214,-38.5 140,-38.5"/>
<text text-anchor="middle" x="177" y="-45.5" font-family="Helvetica,sans-Serif" font-size="10.00">txMetronome</text>
</a>
</g>
</g>
<!-- Node1&#45;&gt;Node6 -->
<g id="edge5" class="edge"><title>Node1&#45;&gt;Node6</title>
<path fill="none" stroke="midnightblue" d="M89.554,-73.4647C107.103,-68.2952 127.113,-62.4009 143.458,-57.5859"/>
<polygon fill="midnightblue" stroke="midnightblue" points="88.1556,-70.2279 79.5521,-76.411 90.1336,-76.9426 88.1556,-70.2279"/>
</g>
<!-- Node7 -->
<g id="node7" class="node"><title>Node7</title>
<g id="a_node7"><a xlink:href="pda_8h.html#aba3c77bbaeda68253d8795c44bb0b4ff" target="_top" xlink:title="sumStack">
<polygon fill="white" stroke="black" points="146.5,-0.5 146.5,-19.5 207.5,-19.5 207.5,-0.5 146.5,-0.5"/>
<text text-anchor="middle" x="177" y="-7.5" font-family="Helvetica,sans-Serif" font-size="10.00">sumStack</text>
</a>
</g>
</g>
<!-- Node1&#45;&gt;Node7 -->
<g id="edge6" class="edge"><title>Node1&#45;&gt;Node7</title>
<path fill="none" stroke="midnightblue" d="M66.7874,-70.0705C82.6796,-57.7822 105.914,-40.9245 128,-29 134.467,-25.5085 141.716,-22.3044 148.582,-19.5617"/>
<polygon fill="midnightblue" stroke="midnightblue" points="64.4718,-67.4387 58.7676,-76.3669 68.7945,-72.9446 64.4718,-67.4387"/>
</g>
<!-- Node4 -->
<g id="node4" class="node"><title>Node4</title>
<g id="a_node4"><a xlink:href="pda_8h.html#a5218392624b017b817b80d6b16ea920d" target="_top" xlink:title="askNextAlfa">
<polygon fill="white" stroke="black" points="262,-114.5 262,-133.5 333,-133.5 333,-114.5 262,-114.5"/>
<text text-anchor="middle" x="297.5" y="-121.5" font-family="Helvetica,sans-Serif" font-size="10.00">askNextAlfa</text>
</a>
</g>
</g>
<!-- Node3&#45;&gt;Node4 -->
<g id="edge3" class="edge"><title>Node3&#45;&gt;Node4</title>
<path fill="none" stroke="midnightblue" d="M236.356,-124C245.058,-124 253.785,-124 261.787,-124"/>
<polygon fill="midnightblue" stroke="midnightblue" points="236.199,-120.5 226.198,-124 236.198,-127.5 236.199,-120.5"/>
</g>
</g>
</svg>
