<?xml version="1.0" encoding="UTF-8" standalone="no"?>
<!DOCTYPE svg PUBLIC "-//W3C//DTD SVG 1.1//EN"
 "http://www.w3.org/Graphics/SVG/1.1/DTD/svg11.dtd">
<!-- Generated by graphviz version 2.38.0 (20140413.2041)
 -->
<!-- Title: Stack::pop Pages: 1 -->
<!--zoomable 294 -->
<svg id="main" version="1.1" xmlns="http://www.w3.org/2000/svg" xmlns:xlink="http://www.w3.org/1999/xlink" xml:space="preserve" onload="init(evt)">
<style type="text/css"><![CDATA[
.edge:hover path { stroke: red; }
.edge:hover polygon { stroke: red; fill: red; }
]]></style>
<script type="text/javascript"><![CDATA[
var edges = document.getElementsByTagName('g');
if (edges && edges.length) {
  for (var i=0;i<edges.length;i++) {
    if (edges[i].id.substr(0,4)=='edge') {
      edges[i].setAttribute('class','edge');
    }
  }
}
]]></script>
        <defs>
                <circle id="rim" cx="0" cy="0" r="7"/>
                <circle id="rim2" cx="0" cy="0" r="3.5"/>
                <g id="zoomPlus">
                        <use xlink:href="#rim" fill="#404040">
                                <set attributeName="fill" to="#808080" begin="zoomplus.mouseover" end="zoomplus.mouseout"/>
                        </use>
                        <path d="M-4,0h8M0,-4v8" fill="none" stroke="white" stroke-width="1.5" pointer-events="none"/>
                </g>
                <g id="zoomMin">
                        <use xlink:href="#rim" fill="#404040">
                                <set attributeName="fill" to="#808080" begin="zoomminus.mouseover" end="zoomminus.mouseout"/>
                        </use>
                        <path d="M-4,0h8" fill="none" stroke="white" stroke-width="1.5" pointer-events="none"/>
                </g>
                <g id="dirArrow">
                        <path fill="none" stroke="white" stroke-width="1.5" d="M0,-3.0v7 M-2.5,-0.5L0,-3.0L2.5,-0.5"/>
                </g>
               <g id="resetDef">
                       <use xlink:href="#rim2" fill="#404040">
                               <set attributeName="fill" to="#808080" begin="reset.mouseover" end="reset.mouseout"/>
                       </use>
               </g>
        </defs>

<script type="text/javascript">
var viewWidth = 571;
var viewHeight = 294;
var sectionId = 'dynsection-3';
</script>
<script xlink:href="svgpan.js"/>
<svg id="graph" class="graph">
<g id="viewport">
<title>Stack::pop</title>
<polygon fill="white" stroke="none" points="-4,4 -4,-290 567,-290 567,4 -4,4"/>
<!-- Node1 -->
<g id="node1" class="node"><title>Node1</title>
<polygon fill="#bfbfbf" stroke="black" points="0,-171.5 0,-190.5 64,-190.5 64,-171.5 0,-171.5"/>
<text text-anchor="middle" x="32" y="-178.5" font-family="Helvetica,sans-Serif" font-size="10.00">Stack::pop</text>
</g>
<!-- Node2 -->
<g id="node2" class="node"><title>Node2</title>
<g id="a_node2"><a xlink:href="stack_8h.html#ac5ce0328e4b31389fddc82a135016456" target="_top" xlink:title="popSymbolStack">
<polygon fill="white" stroke="black" points="100,-228.5 100,-247.5 191,-247.5 191,-228.5 100,-228.5"/>
<text text-anchor="middle" x="145.5" y="-235.5" font-family="Helvetica,sans-Serif" font-size="10.00">popSymbolStack</text>
</a>
</g>
</g>
<!-- Node1&#45;&gt;Node2 -->
<g id="edge1" class="edge"><title>Node1&#45;&gt;Node2</title>
<path fill="none" stroke="midnightblue" d="M60.7337,-195.178C81.0176,-205.547 107.987,-219.334 125.777,-228.428"/>
<polygon fill="midnightblue" stroke="midnightblue" points="62.1597,-191.976 51.6626,-190.541 58.9734,-198.209 62.1597,-191.976"/>
</g>
<!-- Node7 -->
<g id="node7" class="node"><title>Node7</title>
<g id="a_node7"><a xlink:href="stack_8h.html#a7a8a89da82371dc2324696e7dfacad5e" target="_top" xlink:title="Pop the stack n times or until it is empty. ">
<polygon fill="white" stroke="black" points="125.5,-114.5 125.5,-133.5 165.5,-133.5 165.5,-114.5 125.5,-114.5"/>
<text text-anchor="middle" x="145.5" y="-121.5" font-family="Helvetica,sans-Serif" font-size="10.00">popN</text>
</a>
</g>
</g>
<!-- Node1&#45;&gt;Node7 -->
<g id="edge6" class="edge"><title>Node1&#45;&gt;Node7</title>
<path fill="none" stroke="midnightblue" d="M60.7337,-166.822C81.0176,-156.453 107.987,-142.666 125.777,-133.572"/>
<polygon fill="midnightblue" stroke="midnightblue" points="58.9734,-163.791 51.6626,-171.459 62.1597,-170.024 58.9734,-163.791"/>
</g>
<!-- Node3 -->
<g id="node3" class="node"><title>Node3</title>
<g id="a_node3"><a xlink:href="pda_8cpp.html#a47afc6664036a43243457f6f66cb90f8" target="_top" xlink:title="txAlphaNNN">
<polygon fill="white" stroke="black" points="250.5,-266.5 250.5,-285.5 322.5,-285.5 322.5,-266.5 250.5,-266.5"/>
<text text-anchor="middle" x="286.5" y="-273.5" font-family="Helvetica,sans-Serif" font-size="10.00">txAlphaNNN</text>
</a>
</g>
</g>
<!-- Node2&#45;&gt;Node3 -->
<g id="edge2" class="edge"><title>Node2&#45;&gt;Node3</title>
<path fill="none" stroke="midnightblue" d="M191.295,-250.246C210.455,-255.484 232.494,-261.509 250.436,-266.414"/>
<polygon fill="midnightblue" stroke="midnightblue" points="192.145,-246.85 181.576,-247.589 190.299,-253.602 192.145,-246.85"/>
</g>
<!-- Node4 -->
<g id="node4" class="node"><title>Node4</title>
<g id="a_node4"><a xlink:href="pda_8h.html#a959876507019ccc24303937cc277bb31" target="_top" xlink:title="gradeNext">
<polygon fill="white" stroke="black" points="255.5,-228.5 255.5,-247.5 317.5,-247.5 317.5,-228.5 255.5,-228.5"/>
<text text-anchor="middle" x="286.5" y="-235.5" font-family="Helvetica,sans-Serif" font-size="10.00">gradeNext</text>
</a>
</g>
</g>
<!-- Node2&#45;&gt;Node4 -->
<g id="edge3" class="edge"><title>Node2&#45;&gt;Node4</title>
<path fill="none" stroke="midnightblue" d="M201.285,-238C219.685,-238 239.528,-238 255.328,-238"/>
<polygon fill="midnightblue" stroke="midnightblue" points="201.246,-234.5 191.246,-238 201.246,-241.5 201.246,-234.5"/>
</g>
<!-- Node5 -->
<g id="node5" class="node"><title>Node5</title>
<g id="a_node5"><a xlink:href="pda_8h.html#a5218392624b017b817b80d6b16ea920d" target="_top" xlink:title="askNextAlfa">
<polygon fill="white" stroke="black" points="392.5,-190.5 392.5,-209.5 463.5,-209.5 463.5,-190.5 392.5,-190.5"/>
<text text-anchor="middle" x="428" y="-197.5" font-family="Helvetica,sans-Serif" font-size="10.00">askNextAlfa</text>
</a>
</g>
</g>
<!-- Node4&#45;&gt;Node5 -->
<g id="edge4" class="edge"><title>Node4&#45;&gt;Node5</title>
<path fill="none" stroke="midnightblue" d="M327.453,-227.117C347.955,-221.532 372.686,-214.795 392.368,-209.434"/>
<polygon fill="midnightblue" stroke="midnightblue" points="326.498,-223.749 317.769,-229.755 328.338,-230.503 326.498,-223.749"/>
</g>
<!-- Node6 -->
<g id="node6" class="node"><title>Node6</title>
<g id="a_node6"><a xlink:href="pda_8h.html#a1dc125d402fe76077cb4d166ac0fbf7a" target="_top" xlink:title="askNext">
<polygon fill="white" stroke="black" points="401.5,-228.5 401.5,-247.5 454.5,-247.5 454.5,-228.5 401.5,-228.5"/>
<text text-anchor="middle" x="428" y="-235.5" font-family="Helvetica,sans-Serif" font-size="10.00">askNext</text>
</a>
</g>
</g>
<!-- Node4&#45;&gt;Node6 -->
<g id="edge5" class="edge"><title>Node4&#45;&gt;Node6</title>
<path fill="none" stroke="midnightblue" d="M327.895,-238C351.627,-238 380.906,-238 401.464,-238"/>
<polygon fill="midnightblue" stroke="midnightblue" points="327.769,-234.5 317.769,-238 327.769,-241.5 327.769,-234.5"/>
</g>
<!-- Node8 -->
<g id="node8" class="node"><title>Node8</title>
<g id="a_node8"><a xlink:href="actions_8h.html#a1fec7da4166b9612d2deec3d0262d60f" target="_top" xlink:title="dispatchOnStack">
<polygon fill="white" stroke="black" points="382,-133.5 382,-152.5 474,-152.5 474,-133.5 382,-133.5"/>
<text text-anchor="middle" x="428" y="-140.5" font-family="Helvetica,sans-Serif" font-size="10.00">dispatchOnStack</text>
</a>
</g>
</g>
<!-- Node7&#45;&gt;Node8 -->
<g id="edge7" class="edge"><title>Node7&#45;&gt;Node8</title>
<path fill="none" stroke="midnightblue" d="M175.626,-132.596C190.794,-136.632 209.732,-140.99 227,-143 279.941,-149.163 341.301,-147.935 381.949,-145.964"/>
<polygon fill="midnightblue" stroke="midnightblue" points="176.366,-129.169 165.795,-129.886 174.506,-135.918 176.366,-129.169"/>
</g>
<!-- Node9 -->
<g id="node9" class="node"><title>Node9</title>
<g id="a_node9"><a xlink:href="actions_8h.html#a142b42f94ccf46a7a9706fe9b63b4501" target="_top" xlink:title="Attempt to control the output volume but adjusting the PWM duty cycle. ">
<polygon fill="white" stroke="black" points="255,-76.5 255,-95.5 318,-95.5 318,-76.5 255,-76.5"/>
<text text-anchor="middle" x="286.5" y="-83.5" font-family="Helvetica,sans-Serif" font-size="10.00">setVolume</text>
</a>
</g>
</g>
<!-- Node7&#45;&gt;Node9 -->
<g id="edge8" class="edge"><title>Node7&#45;&gt;Node9</title>
<path fill="none" stroke="midnightblue" d="M175.191,-116.157C198.473,-109.792 231.217,-100.84 254.978,-94.344"/>
<polygon fill="midnightblue" stroke="midnightblue" points="174.259,-112.783 165.536,-118.796 176.105,-119.535 174.259,-112.783"/>
</g>
<!-- Node10 -->
<g id="node10" class="node"><title>Node10</title>
<g id="a_node10"><a xlink:href="pda_8h.html#ac1f9ea31ffc81530ac4a07fa2469f13c" target="_top" xlink:title="txAlfaBravoCharlie">
<polygon fill="white" stroke="black" points="237.5,-190.5 237.5,-209.5 335.5,-209.5 335.5,-190.5 237.5,-190.5"/>
<text text-anchor="middle" x="286.5" y="-197.5" font-family="Helvetica,sans-Serif" font-size="10.00">txAlfaBravoCharlie</text>
</a>
</g>
</g>
<!-- Node7&#45;&gt;Node10 -->
<g id="edge9" class="edge"><title>Node7&#45;&gt;Node10</title>
<path fill="none" stroke="midnightblue" d="M168.241,-139.608C184.076,-150.583 206.29,-165.181 227,-176 237.314,-181.388 249.116,-186.429 259.406,-190.486"/>
<polygon fill="midnightblue" stroke="midnightblue" points="169.91,-136.503 159.715,-133.621 165.887,-142.232 169.91,-136.503"/>
</g>
<!-- Node11 -->
<g id="node11" class="node"><title>Node11</title>
<g id="a_node11"><a xlink:href="pda_8h.html#aee08a527408a7a8a4b5490d13b767cb2" target="_top" xlink:title="txMetronome">
<polygon fill="white" stroke="black" points="249.5,-38.5 249.5,-57.5 323.5,-57.5 323.5,-38.5 249.5,-38.5"/>
<text text-anchor="middle" x="286.5" y="-45.5" font-family="Helvetica,sans-Serif" font-size="10.00">txMetronome</text>
</a>
</g>
</g>
<!-- Node7&#45;&gt;Node11 -->
<g id="edge11" class="edge"><title>Node7&#45;&gt;Node11</title>
<path fill="none" stroke="midnightblue" d="M165.677,-107.891C181.357,-95.3649 204.529,-78.2756 227,-67 234.254,-63.3602 242.356,-60.2069 250.165,-57.5721"/>
<polygon fill="midnightblue" stroke="midnightblue" points="163.333,-105.286 157.79,-114.315 167.754,-110.714 163.333,-105.286"/>
</g>
<!-- Node12 -->
<g id="node12" class="node"><title>Node12</title>
<g id="a_node12"><a xlink:href="pda_8h.html#a59acff867d89a88cb2142895d95b12e8" target="_top" xlink:title="gradeSum">
<polygon fill="white" stroke="black" points="256,-0.5 256,-19.5 317,-19.5 317,-0.5 256,-0.5"/>
<text text-anchor="middle" x="286.5" y="-7.5" font-family="Helvetica,sans-Serif" font-size="10.00">gradeSum</text>
</a>
</g>
</g>
<!-- Node7&#45;&gt;Node12 -->
<g id="edge12" class="edge"><title>Node7&#45;&gt;Node12</title>
<path fill="none" stroke="midnightblue" d="M157.536,-105.633C171.266,-84.2784 196.643,-49.367 227,-29 235.602,-23.2291 246.084,-19.1036 255.786,-16.2052"/>
<polygon fill="midnightblue" stroke="midnightblue" points="154.396,-104.053 152.071,-114.389 160.335,-107.759 154.396,-104.053"/>
</g>
<!-- Node15 -->
<g id="node15" class="node"><title>Node15</title>
<g id="a_node15"><a xlink:href="stack_8h.html#a89e98012b4180ef8ce90108ebcfbde1d" target="_top" xlink:title="stackDigitsToUnsigned">
<polygon fill="white" stroke="black" points="227,-114.5 227,-133.5 346,-133.5 346,-114.5 227,-114.5"/>
<text text-anchor="middle" x="286.5" y="-121.5" font-family="Helvetica,sans-Serif" font-size="10.00">stackDigitsToUnsigned</text>
</a>
</g>
</g>
<!-- Node7&#45;&gt;Node15 -->
<g id="edge15" class="edge"><title>Node7&#45;&gt;Node15</title>
<path fill="none" stroke="midnightblue" d="M175.616,-124C190.466,-124 209.083,-124 226.751,-124"/>
<polygon fill="midnightblue" stroke="midnightblue" points="175.536,-120.5 165.536,-124 175.536,-127.5 175.536,-120.5"/>
</g>
<!-- Node10&#45;&gt;Node5 -->
<g id="edge10" class="edge"><title>Node10&#45;&gt;Node5</title>
<path fill="none" stroke="midnightblue" d="M345.721,-200C361.494,-200 378.076,-200 392.119,-200"/>
<polygon fill="midnightblue" stroke="midnightblue" points="345.508,-196.5 335.508,-200 345.508,-203.5 345.508,-196.5"/>
</g>
<!-- Node13 -->
<g id="node13" class="node"><title>Node13</title>
<g id="a_node13"><a xlink:href="pda_8h.html#a15825e7325bc5cdbd18cf2c6055baef1" target="_top" xlink:title="gradeRestore">
<polygon fill="white" stroke="black" points="390.5,-0.5 390.5,-19.5 465.5,-19.5 465.5,-0.5 390.5,-0.5"/>
<text text-anchor="middle" x="428" y="-7.5" font-family="Helvetica,sans-Serif" font-size="10.00">gradeRestore</text>
</a>
</g>
</g>
<!-- Node12&#45;&gt;Node13 -->
<g id="edge13" class="edge"><title>Node12&#45;&gt;Node13</title>
<path fill="none" stroke="midnightblue" d="M327.326,-10C347.124,-10 370.892,-10 390.251,-10"/>
<polygon fill="midnightblue" stroke="midnightblue" points="327.084,-6.5001 317.084,-10 327.084,-13.5001 327.084,-6.5001"/>
</g>
<!-- Node14 -->
<g id="node14" class="node"><title>Node14</title>
<g id="a_node14"><a xlink:href="pda_8h.html#abf2e0c8c523ed9ddee8a9194c9800b99" target="_top" xlink:title="askSum">
<polygon fill="white" stroke="black" points="510,-0.5 510,-19.5 563,-19.5 563,-0.5 510,-0.5"/>
<text text-anchor="middle" x="536.5" y="-7.5" font-family="Helvetica,sans-Serif" font-size="10.00">askSum</text>
</a>
</g>
</g>
<!-- Node13&#45;&gt;Node14 -->
<g id="edge14" class="edge"><title>Node13&#45;&gt;Node14</title>
<path fill="none" stroke="midnightblue" d="M475.773,-10C487.482,-10 499.615,-10 509.861,-10"/>
<polygon fill="midnightblue" stroke="midnightblue" points="475.651,-6.5001 465.651,-10 475.651,-13.5001 475.651,-6.5001"/>
</g>
<!-- Node15&#45;&gt;Node8 -->
<g id="edge16" class="edge"><title>Node15&#45;&gt;Node8</title>
<path fill="none" stroke="midnightblue" d="M356.381,-133.382C365.04,-134.561 373.716,-135.743 381.877,-136.854"/>
<polygon fill="midnightblue" stroke="midnightblue" points="356.637,-129.884 346.256,-132.003 355.692,-136.82 356.637,-129.884"/>
</g>
</g>
</svg>
        <g id="navigator" transform="translate(0 0)" fill="#404254">
                <rect fill="#f2f5e9" fill-opacity="0.5" stroke="#606060" stroke-width=".5" x="0" y="0" width="60" height="60"/>
                <use id="zoomplus" xlink:href="#zoomPlus" x="17" y="9" onmousedown="handleZoom(evt,'in')"/>
                <use id="zoomminus" xlink:href="#zoomMin" x="42" y="9" onmousedown="handleZoom(evt,'out')"/>
                <use id="reset" xlink:href="#resetDef" x="30" y="36" onmousedown="handleReset()"/>
                <g id="arrowUp" xlink:href="#dirArrow" transform="translate(30 24)" onmousedown="handlePan(0,-1)">
                  <use xlink:href="#rim" fill="#404040">
                        <set attributeName="fill" to="#808080" begin="arrowUp.mouseover" end="arrowUp.mouseout"/>
                  </use>
                  <path fill="none" stroke="white" stroke-width="1.5" d="M0,-3.0v7 M-2.5,-0.5L0,-3.0L2.5,-0.5"/>
                </g>
                <g id="arrowRight" xlink:href="#dirArrow" transform="rotate(90) translate(36 -43)" onmousedown="handlePan(1,0)">
                  <use xlink:href="#rim" fill="#404040">
                        <set attributeName="fill" to="#808080" begin="arrowRight.mouseover" end="arrowRight.mouseout"/>
                  </use>
                  <path fill="none" stroke="white" stroke-width="1.5" d="M0,-3.0v7 M-2.5,-0.5L0,-3.0L2.5,-0.5"/>
                </g>
                <g id="arrowDown" xlink:href="#dirArrow" transform="rotate(180) translate(-30 -48)" onmousedown="handlePan(0,1)">
                  <use xlink:href="#rim" fill="#404040">
                        <set attributeName="fill" to="#808080" begin="arrowDown.mouseover" end="arrowDown.mouseout"/>
                  </use>
                  <path fill="none" stroke="white" stroke-width="1.5" d="M0,-3.0v7 M-2.5,-0.5L0,-3.0L2.5,-0.5"/>
                </g>
                <g id="arrowLeft" xlink:href="#dirArrow" transform="rotate(270) translate(-36 17)" onmousedown="handlePan(-1,0)">
                  <use xlink:href="#rim" fill="#404040">
                        <set attributeName="fill" to="#808080" begin="arrowLeft.mouseover" end="arrowLeft.mouseout"/>
                  </use>
                  <path fill="none" stroke="white" stroke-width="1.5" d="M0,-3.0v7 M-2.5,-0.5L0,-3.0L2.5,-0.5"/>
                </g>
        </g>
        <svg viewBox="0 0 15 15" width="100%" height="30px" preserveAspectRatio="xMaxYMin meet">
         <g id="arrow_out" transform="scale(0.3 0.3)">
          <a xlink:href="class_stack_a8b4caa181ab4cc209c270338e919cf8b_icgraph_org.svg" target="_base">
           <rect id="button" ry="5" rx="5" y="6" x="6" height="38" width="38"
                fill="#f2f5e9" fill-opacity="0.5" stroke="#606060" stroke-width="1.0"/>
           <path id="arrow"
             d="M 11.500037,31.436501 C 11.940474,20.09759 22.043105,11.32322 32.158766,21.979434 L 37.068811,17.246167 C 37.068811,17.246167 37.088388,32 37.088388,32 L 22.160133,31.978069 C 22.160133,31.978069 26.997745,27.140456 26.997745,27.140456 C 18.528582,18.264221 13.291696,25.230495 11.500037,31.436501 z"
             style="fill:#404040;"/>
          </a>
         </g>
        </svg>
</svg>
