<?xml version="1.0" encoding="UTF-8" standalone="no"?>
<!DOCTYPE svg PUBLIC "-//W3C//DTD SVG 1.1//EN"
 "http://www.w3.org/Graphics/SVG/1.1/DTD/svg11.dtd">
<!-- Generated by graphviz version 2.38.0 (20140413.2041)
 -->
<!-- Title: MorseToken::m2i Pages: 1 -->
<!--zoomable 550 -->
<svg id="main" version="1.1" xmlns="http://www.w3.org/2000/svg" xmlns:xlink="http://www.w3.org/1999/xlink" xml:space="preserve" onload="init(evt)">
<style type="text/css"><![CDATA[
.edge:hover path { stroke: red; }
.edge:hover polygon { stroke: red; fill: red; }
]]></style>
<script type="text/javascript"><![CDATA[
var edges = document.getElementsByTagName('g');
if (edges && edges.length) {
  for (var i=0;i<edges.length;i++) {
    if (edges[i].id.substr(0,4)=='edge') {
      edges[i].setAttribute('class','edge');
    }
  }
}
]]></script>
        <defs>
                <circle id="rim" cx="0" cy="0" r="7"/>
                <circle id="rim2" cx="0" cy="0" r="3.5"/>
                <g id="zoomPlus">
                        <use xlink:href="#rim" fill="#404040">
                                <set attributeName="fill" to="#808080" begin="zoomplus.mouseover" end="zoomplus.mouseout"/>
                        </use>
                        <path d="M-4,0h8M0,-4v8" fill="none" stroke="white" stroke-width="1.5" pointer-events="none"/>
                </g>
                <g id="zoomMin">
                        <use xlink:href="#rim" fill="#404040">
                                <set attributeName="fill" to="#808080" begin="zoomminus.mouseover" end="zoomminus.mouseout"/>
                        </use>
                        <path d="M-4,0h8" fill="none" stroke="white" stroke-width="1.5" pointer-events="none"/>
                </g>
                <g id="dirArrow">
                        <path fill="none" stroke="white" stroke-width="1.5" d="M0,-3.0v7 M-2.5,-0.5L0,-3.0L2.5,-0.5"/>
                </g>
               <g id="resetDef">
                       <use xlink:href="#rim2" fill="#404040">
                               <set attributeName="fill" to="#808080" begin="reset.mouseover" end="reset.mouseout"/>
                       </use>
               </g>
        </defs>

<script type="text/javascript">
var viewWidth = 1382;
var viewHeight = 550;
var sectionId = 'dynsection-2';
</script>
<script xlink:href="svgpan.js"/>
<svg id="graph" class="graph">
<g id="viewport">
<title>MorseToken::m2i</title>
<polygon fill="white" stroke="none" points="-4,4 -4,-546 1378,-546 1378,4 -4,4"/>
<!-- Node1 -->
<g id="node1" class="node"><title>Node1</title>
<polygon fill="#bfbfbf" stroke="black" points="0,-275.5 0,-294.5 92,-294.5 92,-275.5 0,-275.5"/>
<text text-anchor="middle" x="46" y="-282.5" font-family="Helvetica,sans-Serif" font-size="10.00">MorseToken::m2i</text>
</g>
<!-- Node2 -->
<g id="node2" class="node"><title>Node2</title>
<g id="a_node2"><a xlink:href="morse__token_8h.html#a9ec0688da83c93d634e79b2d7ad7ad64" target="_top" xlink:title="Convert Morse 0&#45;9 to the corresponding digit. ">
<polygon fill="white" stroke="black" points="128,-275.5 128,-294.5 160,-294.5 160,-275.5 128,-275.5"/>
<text text-anchor="middle" x="144" y="-282.5" font-family="Helvetica,sans-Serif" font-size="10.00">m2i</text>
</a>
</g>
</g>
<!-- Node1&#45;&gt;Node2 -->
<g id="edge1" class="edge"><title>Node1&#45;&gt;Node2</title>
<path fill="none" stroke="midnightblue" d="M92.1889,-285C100.915,-285 109.766,-285 117.582,-285"/>
<polygon fill="midnightblue" stroke="midnightblue" points="117.822,-288.5 127.822,-285 117.822,-281.5 117.822,-288.5"/>
</g>
<!-- Node3 -->
<g id="node3" class="node"><title>Node3</title>
<g id="a_node3"><a xlink:href="class_morse_token.html#a8c36a957ebc90172eae960757c72d3a4" target="_top" xlink:title="Convert to a single ASCII character. ">
<polygon fill="white" stroke="black" points="196,-389.5 196,-408.5 302,-408.5 302,-389.5 196,-389.5"/>
<text text-anchor="middle" x="249" y="-396.5" font-family="Helvetica,sans-Serif" font-size="10.00">MorseToken::toChar</text>
</a>
</g>
</g>
<!-- Node2&#45;&gt;Node3 -->
<g id="edge2" class="edge"><title>Node2&#45;&gt;Node3</title>
<path fill="none" stroke="midnightblue" d="M153.782,-294.72C171.265,-314.07 210.624,-357.632 232.535,-381.884"/>
<polygon fill="midnightblue" stroke="midnightblue" points="229.939,-384.231 239.241,-389.305 235.133,-379.539 229.939,-384.231"/>
</g>
<!-- Node7 -->
<g id="node7" class="node"><title>Node7</title>
<g id="a_node7"><a xlink:href="libmorse_8cpp.html#ab94e088615119d1faae7df22ce50aedf" target="_top" xlink:title="Transmit a Morse code prosign indicating an error. ">
<polygon fill="white" stroke="black" points="226,-161.5 226,-180.5 272,-180.5 272,-161.5 226,-161.5"/>
<text text-anchor="middle" x="249" y="-168.5" font-family="Helvetica,sans-Serif" font-size="10.00">txError</text>
</a>
</g>
</g>
<!-- Node2&#45;&gt;Node7 -->
<g id="edge6" class="edge"><title>Node2&#45;&gt;Node7</title>
<path fill="none" stroke="midnightblue" d="M153.782,-275.28C171.265,-255.93 210.624,-212.368 232.535,-188.116"/>
<polygon fill="midnightblue" stroke="midnightblue" points="235.133,-190.461 239.241,-180.695 229.939,-185.769 235.133,-190.461"/>
</g>
<!-- Node4 -->
<g id="node4" class="node"><title>Node4</title>
<g id="a_node4"><a xlink:href="morse__token_8h.html#a98f44690e97cbd7ea9445ca0a560a564" target="_top" xlink:title="Convert a Morse code into ASCII. ">
<polygon fill="white" stroke="black" points="345.5,-484.5 345.5,-503.5 380.5,-503.5 380.5,-484.5 345.5,-484.5"/>
<text text-anchor="middle" x="363" y="-491.5" font-family="Helvetica,sans-Serif" font-size="10.00">m2a</text>
</a>
</g>
</g>
<!-- Node3&#45;&gt;Node4 -->
<g id="edge3" class="edge"><title>Node3&#45;&gt;Node4</title>
<path fill="none" stroke="midnightblue" d="M261.564,-408.809C280.778,-425.106 319.47,-457.926 342.821,-477.732"/>
<polygon fill="midnightblue" stroke="midnightblue" points="340.775,-480.587 350.666,-484.386 345.303,-475.248 340.775,-480.587"/>
</g>
<!-- Node5 -->
<g id="node5" class="node"><title>Node5</title>
<g id="a_node5"><a xlink:href="class_morse_token.html#a48cd72aeb868391449d1f51c1d0bf5cc" target="_top" xlink:title="Treat code == 0 as the error token. ">
<polygon fill="white" stroke="black" points="999,-313.5 999,-332.5 1096,-332.5 1096,-313.5 999,-313.5"/>
<text text-anchor="middle" x="1047.5" y="-320.5" font-family="Helvetica,sans-Serif" font-size="10.00">MorseToken::valid</text>
</a>
</g>
</g>
<!-- Node4&#45;&gt;Node5 -->
<g id="edge4" class="edge"><title>Node4&#45;&gt;Node5</title>
<path fill="none" stroke="midnightblue" d="M380.802,-494C423.877,-494 541.771,-494 640,-494 640,-494 640,-494 799.5,-494 906.359,-494 1000.38,-384.469 1033.67,-340.73"/>
<polygon fill="midnightblue" stroke="midnightblue" points="1036.5,-342.793 1039.67,-332.684 1030.89,-338.608 1036.5,-342.793"/>
</g>
<!-- Node6 -->
<g id="node6" class="node"><title>Node6</title>
<g id="a_node6"><a xlink:href="class_morse_token.html#adc74054417a8636c1d34d43c34628731" target="_top" xlink:title="Treat code == 1 as a space. ">
<polygon fill="white" stroke="black" points="431.5,-522.5 431.5,-541.5 534.5,-541.5 534.5,-522.5 431.5,-522.5"/>
<text text-anchor="middle" x="483" y="-529.5" font-family="Helvetica,sans-Serif" font-size="10.00">MorseToken::pause</text>
</a>
</g>
</g>
<!-- Node4&#45;&gt;Node6 -->
<g id="edge5" class="edge"><title>Node4&#45;&gt;Node6</title>
<path fill="none" stroke="midnightblue" d="M380.656,-499.364C396.67,-504.521 421.481,-512.511 442.545,-519.294"/>
<polygon fill="midnightblue" stroke="midnightblue" points="441.63,-522.676 452.221,-522.41 443.776,-516.013 441.63,-522.676"/>
</g>
<!-- Node8 -->
<g id="node8" class="node"><title>Node8</title>
<g id="a_node8"><a xlink:href="libmorse_8cpp.html#a0ee2308940264ea9ac8e50afc1a4d285" target="_top" xlink:title="txString">
<polygon fill="white" stroke="black" points="338,-256.5 338,-275.5 388,-275.5 388,-256.5 338,-256.5"/>
<text text-anchor="middle" x="363" y="-263.5" font-family="Helvetica,sans-Serif" font-size="10.00">txString</text>
</a>
</g>
</g>
<!-- Node7&#45;&gt;Node8 -->
<g id="edge7" class="edge"><title>Node7&#45;&gt;Node8</title>
<path fill="none" stroke="midnightblue" d="M261.564,-180.809C280.778,-197.106 319.47,-229.926 342.821,-249.732"/>
<polygon fill="midnightblue" stroke="midnightblue" points="340.775,-252.587 350.666,-256.386 345.303,-247.248 340.775,-252.587"/>
</g>
<!-- Node9 -->
<g id="node9" class="node"><title>Node9</title>
<g id="a_node9"><a xlink:href="teensy3__morse__bsp_8cpp.html#ab306f692c5c9455a0c82782a67ff0147" target="_top" xlink:title="touchPoll">
<polygon fill="white" stroke="black" points="770,-332.5 770,-351.5 827,-351.5 827,-332.5 770,-332.5"/>
<text text-anchor="middle" x="798.5" y="-339.5" font-family="Helvetica,sans-Serif" font-size="10.00">touchPoll</text>
</a>
</g>
</g>
<!-- Node8&#45;&gt;Node9 -->
<g id="edge8" class="edge"><title>Node8&#45;&gt;Node9</title>
<path fill="none" stroke="midnightblue" d="M376.538,-275.758C388.153,-284.233 406.263,-296.052 424,-302 541.675,-341.461 690.813,-344.357 759.595,-343.245"/>
<polygon fill="midnightblue" stroke="midnightblue" points="760,-346.737 769.927,-343.037 759.859,-339.739 760,-346.737"/>
</g>
<!-- Node11 -->
<g id="node11" class="node"><title>Node11</title>
<g id="a_node11"><a xlink:href="settings_8cpp.html#a960551e90dfdad18f3c9b1338ccba7db" target="_top" xlink:title="Get the dit duration in microseconds. ">
<polygon fill="white" stroke="black" points="1011.5,-47.5 1011.5,-66.5 1083.5,-66.5 1083.5,-47.5 1011.5,-47.5"/>
<text text-anchor="middle" x="1047.5" y="-54.5" font-family="Helvetica,sans-Serif" font-size="10.00">getDitMicros</text>
</a>
</g>
</g>
<!-- Node8&#45;&gt;Node11 -->
<g id="edge10" class="edge"><title>Node8&#45;&gt;Node11</title>
<path fill="none" stroke="midnightblue" d="M363.819,-256.275C363.804,-224.778 368.324,-124.786 424,-76 497.312,-11.7614 542.526,-38 640,-38 640,-38 640,-38 799.5,-38 870.169,-38 951.876,-45.8274 1001.34,-51.4342"/>
<polygon fill="midnightblue" stroke="midnightblue" points="1001.05,-54.9244 1011.39,-52.5933 1001.86,-47.9705 1001.05,-54.9244"/>
</g>
<!-- Node12 -->
<g id="node12" class="node"><title>Node12</title>
<g id="a_node12"><a xlink:href="libmorse_8cpp.html#a9fdfce728595d72b78dc7c834ab99a40" target="_top" xlink:title="Transmit a literal Morse code value. ">
<polygon fill="white" stroke="black" points="902.5,-104.5 902.5,-123.5 953.5,-123.5 953.5,-104.5 902.5,-104.5"/>
<text text-anchor="middle" x="928" y="-111.5" font-family="Helvetica,sans-Serif" font-size="10.00">txLiteral</text>
</a>
</g>
</g>
<!-- Node8&#45;&gt;Node12 -->
<g id="edge11" class="edge"><title>Node8&#45;&gt;Node12</title>
<path fill="none" stroke="midnightblue" d="M364.857,-256.17C367.718,-230.088 379.455,-159.078 424,-129 572.349,-28.8306 805.434,-79.3926 892.594,-103.576"/>
<polygon fill="midnightblue" stroke="midnightblue" points="891.671,-106.952 902.247,-106.313 893.581,-100.218 891.671,-106.952"/>
</g>
<!-- Node20 -->
<g id="node20" class="node"><title>Node20</title>
<g id="a_node20"><a xlink:href="libmorse_8cpp.html#acd4b292f5e412ee4f05aed9dafbc072d" target="_top" xlink:title="Convert an ASCII character into Morse code and transmit it. ">
<polygon fill="white" stroke="black" points="773.5,-142.5 773.5,-161.5 823.5,-161.5 823.5,-142.5 773.5,-142.5"/>
<text text-anchor="middle" x="798.5" y="-149.5" font-family="Helvetica,sans-Serif" font-size="10.00">txLetter</text>
</a>
</g>
</g>
<!-- Node8&#45;&gt;Node20 -->
<g id="edge22" class="edge"><title>Node8&#45;&gt;Node20</title>
<path fill="none" stroke="midnightblue" d="M366.806,-256.279C373.178,-236.199 390.827,-190.399 424,-171 533.554,-106.935 693.558,-129.625 763.102,-143.938"/>
<polygon fill="midnightblue" stroke="midnightblue" points="762.568,-147.403 773.077,-146.063 764.026,-140.557 762.568,-147.403"/>
</g>
<!-- Node21 -->
<g id="node21" class="node"><title>Node21</title>
<g id="a_node21"><a xlink:href="teensy3__morse__bsp_8cpp.html#a8761e874366e227690fba2964e1bc445" target="_top" xlink:title="getInternalTemperatureC">
<polygon fill="white" stroke="black" points="578.5,-275.5 578.5,-294.5 703.5,-294.5 703.5,-275.5 578.5,-275.5"/>
<text text-anchor="middle" x="641" y="-282.5" font-family="Helvetica,sans-Serif" font-size="10.00">getInternalTemperatureC</text>
</a>
</g>
</g>
<!-- Node8&#45;&gt;Node21 -->
<g id="edge25" class="edge"><title>Node8&#45;&gt;Node21</title>
<path fill="none" stroke="midnightblue" d="M388.116,-275.498C398.91,-279.26 411.906,-283.131 424,-285 471.59,-292.355 525.785,-292.331 567.984,-290.481"/>
<polygon fill="midnightblue" stroke="midnightblue" points="568.348,-293.967 578.168,-289.989 568.01,-286.976 568.348,-293.967"/>
</g>
<!-- Node22 -->
<g id="node22" class="node"><title>Node22</title>
<g id="a_node22"><a xlink:href="libmorse_8cpp.html#a47abdd74b66d7180c47d192bab8bdccb" target="_top" xlink:title="Transmit an unsigned integer in Morse code. ">
<polygon fill="white" stroke="black" points="608,-218.5 608,-237.5 674,-237.5 674,-218.5 608,-218.5"/>
<text text-anchor="middle" x="641" y="-225.5" font-family="Helvetica,sans-Serif" font-size="10.00">txUnsigned</text>
</a>
</g>
</g>
<!-- Node8&#45;&gt;Node22 -->
<g id="edge26" class="edge"><title>Node8&#45;&gt;Node22</title>
<path fill="none" stroke="midnightblue" d="M388.205,-257.004C399.015,-253.334 412,-249.398 424,-247 483.636,-235.085 554.022,-230.641 597.842,-228.985"/>
<polygon fill="midnightblue" stroke="midnightblue" points="597.976,-232.482 607.849,-228.638 597.734,-225.486 597.976,-232.482"/>
</g>
<!-- Node23 -->
<g id="node23" class="node"><title>Node23</title>
<g id="a_node23"><a xlink:href="actions_8cpp.html#aed718ec1bd4cc7adb2f65d40a6784496" target="_top" xlink:title="Transmit the internal temperature in integer in Fahrenheit. ">
<polygon fill="white" stroke="black" points="424,-256.5 424,-275.5 542,-275.5 542,-256.5 424,-256.5"/>
<text text-anchor="middle" x="483" y="-263.5" font-family="Helvetica,sans-Serif" font-size="10.00">txInternalTemperatureF</text>
</a>
</g>
</g>
<!-- Node8&#45;&gt;Node23 -->
<g id="edge29" class="edge"><title>Node8&#45;&gt;Node23</title>
<path fill="none" stroke="midnightblue" d="M388.164,-266C395.708,-266 404.437,-266 413.471,-266"/>
<polygon fill="midnightblue" stroke="midnightblue" points="413.755,-269.5 423.755,-266 413.755,-262.5 413.755,-269.5"/>
</g>
<!-- Node24 -->
<g id="node24" class="node"><title>Node24</title>
<g id="a_node24"><a xlink:href="actions_8cpp.html#aaabb3ac0c23f35a499bc17efe829f326" target="_top" xlink:title="Transmit the 24&#45;hr time. ">
<polygon fill="white" stroke="black" points="444,-370.5 444,-389.5 522,-389.5 522,-370.5 444,-370.5"/>
<text text-anchor="middle" x="483" y="-377.5" font-family="Helvetica,sans-Serif" font-size="10.00">txTimeHHMM</text>
</a>
</g>
</g>
<!-- Node8&#45;&gt;Node24 -->
<g id="edge32" class="edge"><title>Node8&#45;&gt;Node24</title>
<path fill="none" stroke="midnightblue" d="M370.914,-275.523C380.319,-292.529 398.894,-326.382 424,-347 434.552,-355.666 448.669,-361.598 460.333,-366.452"/>
<polygon fill="midnightblue" stroke="midnightblue" points="459.229,-369.786 469.801,-370.481 461.97,-363.345 459.229,-369.786"/>
</g>
<!-- Node25 -->
<g id="node25" class="node"><title>Node25</title>
<g id="a_node25"><a xlink:href="actions_8cpp.html#ad02149679fa3cc6a4957d1a318408ffd" target="_top" xlink:title="Transmit the uptime. ">
<polygon fill="white" stroke="black" points="455,-180.5 455,-199.5 511,-199.5 511,-180.5 455,-180.5"/>
<text text-anchor="middle" x="483" y="-187.5" font-family="Helvetica,sans-Serif" font-size="10.00">txUptime</text>
</a>
</g>
</g>
<!-- Node8&#45;&gt;Node25 -->
<g id="edge34" class="edge"><title>Node8&#45;&gt;Node25</title>
<path fill="none" stroke="midnightblue" d="M373.411,-256.104C384.614,-244.76 404.297,-226.168 424,-214 430.566,-209.945 437.937,-206.298 445.166,-203.142"/>
<polygon fill="midnightblue" stroke="midnightblue" points="446.934,-206.198 454.846,-199.151 444.266,-199.727 446.934,-206.198"/>
</g>
<!-- Node27 -->
<g id="node27" class="node"><title>Node27</title>
<g id="a_node27"><a xlink:href="teensy3__morse__bsp_8cpp.html#ae8dd28759e56dbd2ee9bc9ae96d1783c" target="_top" xlink:title="Return the most recent ADC measurement of the input voltage. Perform analog to digital conversion on ...">
<polygon fill="white" stroke="black" points="446,-446.5 446,-465.5 520,-465.5 520,-446.5 446,-446.5"/>
<text text-anchor="middle" x="483" y="-453.5" font-family="Helvetica,sans-Serif" font-size="10.00">readMillivolts</text>
</a>
</g>
</g>
<!-- Node8&#45;&gt;Node27 -->
<g id="edge37" class="edge"><title>Node8&#45;&gt;Node27</title>
<path fill="none" stroke="midnightblue" d="M364.809,-275.646C367.648,-303.576 379.543,-385.472 424,-432 427.67,-435.841 432.046,-439.089 436.725,-441.832"/>
<polygon fill="midnightblue" stroke="midnightblue" points="435.487,-445.127 445.992,-446.504 438.639,-438.877 435.487,-445.127"/>
</g>
<!-- Node31 -->
<g id="node31" class="node"><title>Node31</title>
<g id="a_node31"><a xlink:href="libmorse_8cpp.html#ac3f000c98271c6d0a7710135e18189bc" target="_top" xlink:title="On my hardware there is cross&#45;coupling between the serial port and the touch sensors. Without the code below, long messages to the serial port trigger a touch input. ">
<polygon fill="white" stroke="black" points="608.5,-389.5 608.5,-408.5 673.5,-408.5 673.5,-389.5 608.5,-389.5"/>
<text text-anchor="middle" x="641" y="-396.5" font-family="Helvetica,sans-Serif" font-size="10.00">flushTouch</text>
</a>
</g>
</g>
<!-- Node8&#45;&gt;Node31 -->
<g id="edge41" class="edge"><title>Node8&#45;&gt;Node31</title>
<path fill="none" stroke="midnightblue" d="M364.912,-275.626C367.909,-301.15 379.954,-370.55 424,-399 476.971,-433.215 553.553,-422.48 599.87,-411.085"/>
<polygon fill="midnightblue" stroke="midnightblue" points="600.749,-414.473 609.556,-408.583 598.998,-407.695 600.749,-414.473"/>
</g>
<!-- Node10 -->
<g id="node10" class="node"><title>Node10</title>
<g id="a_node10"><a xlink:href="teensy3__morse__bsp_8cpp.html#af6899cd9b83df54106b259ab81ea5cb2" target="_top" xlink:title="touchMargin">
<polygon fill="white" stroke="black" points="893,-332.5 893,-351.5 963,-351.5 963,-332.5 893,-332.5"/>
<text text-anchor="middle" x="928" y="-339.5" font-family="Helvetica,sans-Serif" font-size="10.00">touchMargin</text>
</a>
</g>
</g>
<!-- Node9&#45;&gt;Node10 -->
<g id="edge9" class="edge"><title>Node9&#45;&gt;Node10</title>
<path fill="none" stroke="midnightblue" d="M827.166,-342C843.281,-342 863.984,-342 882.355,-342"/>
<polygon fill="midnightblue" stroke="midnightblue" points="882.562,-345.5 892.562,-342 882.562,-338.5 882.562,-345.5"/>
</g>
<!-- Node12&#45;&gt;Node5 -->
<g id="edge12" class="edge"><title>Node12&#45;&gt;Node5</title>
<path fill="none" stroke="midnightblue" d="M934.354,-123.523C952.514,-155.825 1011.97,-261.589 1036.14,-304.581"/>
<polygon fill="midnightblue" stroke="midnightblue" points="1033.16,-306.419 1041.11,-313.421 1039.26,-302.989 1033.16,-306.419"/>
</g>
<!-- Node12&#45;&gt;Node7 -->
<g id="edge21" class="edge"><title>Node12&#45;&gt;Node7</title>
<path fill="none" stroke="midnightblue" d="M913.822,-104.477C874.57,-77.0778 754.177,-0 642,-0 482,-0 482,-0 482,-0 379.697,-0 292.822,-109.074 261.986,-152.996"/>
<polygon fill="midnightblue" stroke="midnightblue" points="259.047,-151.092 256.271,-161.316 264.817,-155.055 259.047,-151.092"/>
</g>
<!-- Node12&#45;&gt;Node11 -->
<g id="edge20" class="edge"><title>Node12&#45;&gt;Node11</title>
<path fill="none" stroke="midnightblue" d="M945.408,-104.384C959.419,-96.3459 980.224,-84.8146 999,-76 1003.09,-74.0797 1007.43,-72.1723 1011.76,-70.3485"/>
<polygon fill="midnightblue" stroke="midnightblue" points="1013.19,-73.5445 1021.12,-66.5168 1010.54,-67.0663 1013.19,-73.5445"/>
</g>
<!-- Node13 -->
<g id="node13" class="node"><title>Node13</title>
<g id="a_node13"><a xlink:href="teensy3__morse__bsp_8cpp.html#af66e71e3fac9b6a2c6532bc8a513bfde" target="_top" xlink:title="Output a square wave on pin 10 at the given frequency for the given duration. ">
<polygon fill="white" stroke="black" points="1028.5,-123.5 1028.5,-142.5 1066.5,-142.5 1066.5,-123.5 1028.5,-123.5"/>
<text text-anchor="middle" x="1047.5" y="-130.5" font-family="Helvetica,sans-Serif" font-size="10.00">beep</text>
</a>
</g>
</g>
<!-- Node12&#45;&gt;Node13 -->
<g id="edge13" class="edge"><title>Node12&#45;&gt;Node13</title>
<path fill="none" stroke="midnightblue" d="M953.632,-117.983C972.57,-121.045 998.746,-125.278 1018.48,-128.47"/>
<polygon fill="midnightblue" stroke="midnightblue" points="1017.99,-131.935 1028.42,-130.076 1019.11,-125.025 1017.99,-131.935"/>
</g>
<!-- Node19 -->
<g id="node19" class="node"><title>Node19</title>
<g id="a_node19"><a xlink:href="settings_8cpp.html#a8575b9b52638114a4f32d1462cf9b7c1" target="_top" xlink:title="Get the transmission frequency (side tone). ">
<polygon fill="white" stroke="black" points="1020.5,-85.5 1020.5,-104.5 1074.5,-104.5 1074.5,-85.5 1020.5,-85.5"/>
<text text-anchor="middle" x="1047.5" y="-92.5" font-family="Helvetica,sans-Serif" font-size="10.00">getTxHz</text>
</a>
</g>
</g>
<!-- Node12&#45;&gt;Node19 -->
<g id="edge19" class="edge"><title>Node12&#45;&gt;Node19</title>
<path fill="none" stroke="midnightblue" d="M953.632,-110.017C970.022,-107.367 991.833,-103.84 1010.2,-100.87"/>
<polygon fill="midnightblue" stroke="midnightblue" points="1010.96,-104.293 1020.27,-99.2416 1009.84,-97.3829 1010.96,-104.293"/>
</g>
<!-- Node14 -->
<g id="node14" class="node"><title>Node14</title>
<g id="a_node14"><a xlink:href="teensy3__morse__bsp_8cpp.html#a6f674d5b9985ea3a7eeb0df299c2e405" target="_top" xlink:title="pollEarphonePresent">
<polygon fill="white" stroke="black" points="1132,-180.5 1132,-199.5 1239,-199.5 1239,-180.5 1132,-180.5"/>
<text text-anchor="middle" x="1185.5" y="-187.5" font-family="Helvetica,sans-Serif" font-size="10.00">pollEarphonePresent</text>
</a>
</g>
</g>
<!-- Node13&#45;&gt;Node14 -->
<g id="edge14" class="edge"><title>Node13&#45;&gt;Node14</title>
<path fill="none" stroke="midnightblue" d="M1066.56,-141.725C1083.35,-149.715 1109.14,-161.679 1132,-171 1136.87,-172.985 1142.03,-174.981 1147.14,-176.896"/>
<polygon fill="midnightblue" stroke="midnightblue" points="1146.23,-180.289 1156.82,-180.451 1148.64,-173.718 1146.23,-180.289"/>
</g>
<!-- Node15 -->
<g id="node15" class="node"><title>Node15</title>
<g id="a_node15"><a xlink:href="teensy3__morse__bsp_8cpp.html#a2d6b4ace33ed5e497dedd03217540c63" target="_top" xlink:title="Set the PWM frequency for the audio output pins. ">
<polygon fill="white" stroke="black" points="1144,-142.5 1144,-161.5 1227,-161.5 1227,-142.5 1144,-142.5"/>
<text text-anchor="middle" x="1185.5" y="-149.5" font-family="Helvetica,sans-Serif" font-size="10.00">pwmFrequency</text>
</a>
</g>
</g>
<!-- Node13&#45;&gt;Node15 -->
<g id="edge15" class="edge"><title>Node13&#45;&gt;Node15</title>
<path fill="none" stroke="midnightblue" d="M1066.56,-135.523C1083.62,-137.906 1110.02,-141.594 1133.52,-144.878"/>
<polygon fill="midnightblue" stroke="midnightblue" points="1133.33,-148.386 1143.72,-146.303 1134.3,-141.453 1133.33,-148.386"/>
</g>
<!-- Node16 -->
<g id="node16" class="node"><title>Node16</title>
<g id="a_node16"><a xlink:href="teensy3__morse__bsp_8cpp.html#a82911eac3bf13d6f36d10102a4c4d3c4" target="_top" xlink:title="Generate a tone on the audio output pins. ">
<polygon fill="white" stroke="black" points="1155,-104.5 1155,-123.5 1216,-123.5 1216,-104.5 1155,-104.5"/>
<text text-anchor="middle" x="1185.5" y="-111.5" font-family="Helvetica,sans-Serif" font-size="10.00">pwmWrite</text>
</a>
</g>
</g>
<!-- Node13&#45;&gt;Node16 -->
<g id="edge16" class="edge"><title>Node13&#45;&gt;Node16</title>
<path fill="none" stroke="midnightblue" d="M1066.56,-130.477C1086.46,-127.697 1119.08,-123.139 1144.98,-119.521"/>
<polygon fill="midnightblue" stroke="midnightblue" points="1145.47,-122.987 1154.89,-118.137 1144.5,-116.054 1145.47,-122.987"/>
</g>
<!-- Node18 -->
<g id="node18" class="node"><title>Node18</title>
<g id="a_node18"><a xlink:href="teensy3__morse__bsp_8cpp.html#a6c982a7d7805f1dd5426eb98c915cfdd" target="_top" xlink:title="Turn the red LED on (1) or off (0). ">
<polygon fill="white" stroke="black" points="1160.5,-66.5 1160.5,-85.5 1210.5,-85.5 1210.5,-66.5 1160.5,-66.5"/>
<text text-anchor="middle" x="1185.5" y="-73.5" font-family="Helvetica,sans-Serif" font-size="10.00">redLED</text>
</a>
</g>
</g>
<!-- Node13&#45;&gt;Node18 -->
<g id="edge18" class="edge"><title>Node13&#45;&gt;Node18</title>
<path fill="none" stroke="midnightblue" d="M1066.73,-126.223C1075.65,-122.779 1086.49,-118.398 1096,-114 1112.42,-106.408 1115.45,-102.318 1132,-95 1137.99,-92.3497 1144.48,-89.7744 1150.78,-87.4192"/>
<polygon fill="midnightblue" stroke="midnightblue" points="1152.23,-90.6174 1160.44,-83.9203 1149.85,-84.036 1152.23,-90.6174"/>
</g>
<!-- Node17 -->
<g id="node17" class="node"><title>Node17</title>
<g id="a_node17"><a xlink:href="teensy3__morse__bsp_8cpp.html#ac70998cee1bf97f00aec4a1b4e5a4f60" target="_top" xlink:title="isEarphonePresent">
<polygon fill="white" stroke="black" points="1275,-104.5 1275,-123.5 1374,-123.5 1374,-104.5 1275,-104.5"/>
<text text-anchor="middle" x="1324.5" y="-111.5" font-family="Helvetica,sans-Serif" font-size="10.00">isEarphonePresent</text>
</a>
</g>
</g>
<!-- Node16&#45;&gt;Node17 -->
<g id="edge17" class="edge"><title>Node16&#45;&gt;Node17</title>
<path fill="none" stroke="midnightblue" d="M1216.23,-114C1230.43,-114 1247.96,-114 1264.7,-114"/>
<polygon fill="midnightblue" stroke="midnightblue" points="1264.98,-117.5 1274.98,-114 1264.98,-110.5 1264.98,-117.5"/>
</g>
<!-- Node20&#45;&gt;Node7 -->
<g id="edge24" class="edge"><title>Node20&#45;&gt;Node7</title>
<path fill="none" stroke="midnightblue" d="M773.333,-142.643C754.709,-135.955 728.143,-127.537 704,-124 580.851,-105.956 547.338,-112.291 424,-129 373.766,-135.805 316.901,-150.991 282.253,-161.114"/>
<polygon fill="midnightblue" stroke="midnightblue" points="280.839,-157.882 272.245,-164.078 282.827,-164.594 280.839,-157.882"/>
</g>
<!-- Node20&#45;&gt;Node12 -->
<g id="edge23" class="edge"><title>Node20&#45;&gt;Node12</title>
<path fill="none" stroke="midnightblue" d="M823.782,-144.763C843.242,-138.963 870.793,-130.752 892.536,-124.272"/>
<polygon fill="midnightblue" stroke="midnightblue" points="893.791,-127.55 902.374,-121.339 891.791,-120.842 893.791,-127.55"/>
</g>
<!-- Node22&#45;&gt;Node9 -->
<g id="edge27" class="edge"><title>Node22&#45;&gt;Node9</title>
<path fill="none" stroke="midnightblue" d="M658.964,-237.577C671.648,-244.932 689.267,-255.566 704,-266 731.092,-285.185 760.525,-309.79 778.986,-325.722"/>
<polygon fill="midnightblue" stroke="midnightblue" points="776.805,-328.464 786.648,-332.382 781.397,-323.18 776.805,-328.464"/>
</g>
<!-- Node22&#45;&gt;Node20 -->
<g id="edge28" class="edge"><title>Node22&#45;&gt;Node20</title>
<path fill="none" stroke="midnightblue" d="M674.102,-219.826C683.889,-216.894 694.553,-213.246 704,-209 729.929,-197.346 757.468,-179.859 775.889,-167.329"/>
<polygon fill="midnightblue" stroke="midnightblue" points="777.912,-170.186 784.153,-161.624 773.935,-164.425 777.912,-170.186"/>
</g>
<!-- Node23&#45;&gt;Node21 -->
<g id="edge30" class="edge"><title>Node23&#45;&gt;Node21</title>
<path fill="none" stroke="midnightblue" d="M542.089,-273.075C550.711,-274.125 559.682,-275.218 568.54,-276.296"/>
<polygon fill="midnightblue" stroke="midnightblue" points="568.117,-279.771 578.467,-277.506 568.964,-272.822 568.117,-279.771"/>
</g>
<!-- Node23&#45;&gt;Node22 -->
<g id="edge31" class="edge"><title>Node23&#45;&gt;Node22</title>
<path fill="none" stroke="midnightblue" d="M523.365,-256.411C546.167,-250.857 574.861,-243.867 598.083,-238.211"/>
<polygon fill="midnightblue" stroke="midnightblue" points="599.108,-241.563 607.996,-235.796 597.451,-234.762 599.108,-241.563"/>
</g>
<!-- Node24&#45;&gt;Node8 -->
<g id="edge33" class="edge"><title>Node24&#45;&gt;Node8</title>
<path fill="none" stroke="midnightblue" d="M443.974,-376.885C436.903,-373.829 429.895,-369.841 424,-365 397.816,-343.496 378.737,-307.598 369.754,-285.127"/>
<polygon fill="midnightblue" stroke="midnightblue" points="372.981,-283.759 366.258,-275.571 366.407,-286.165 372.981,-283.759"/>
</g>
<!-- Node25&#45;&gt;Node22 -->
<g id="edge36" class="edge"><title>Node25&#45;&gt;Node22</title>
<path fill="none" stroke="midnightblue" d="M511.173,-196.619C535.119,-202.452 570.386,-211.043 597.968,-217.762"/>
<polygon fill="midnightblue" stroke="midnightblue" points="597.203,-221.177 607.748,-220.144 598.86,-214.376 597.203,-221.177"/>
</g>
<!-- Node26 -->
<g id="node26" class="node"><title>Node26</title>
<g id="a_node26"><a xlink:href="settings_8cpp.html#a7b4efa097b94f9a90c5bbafcdf93fe4f" target="_top" xlink:title="getUptime">
<polygon fill="white" stroke="black" points="610,-180.5 610,-199.5 672,-199.5 672,-180.5 610,-180.5"/>
<text text-anchor="middle" x="641" y="-187.5" font-family="Helvetica,sans-Serif" font-size="10.00">getUptime</text>
</a>
</g>
</g>
<!-- Node25&#45;&gt;Node26 -->
<g id="edge35" class="edge"><title>Node25&#45;&gt;Node26</title>
<path fill="none" stroke="midnightblue" d="M511.173,-190C535.633,-190 571.905,-190 599.735,-190"/>
<polygon fill="midnightblue" stroke="midnightblue" points="599.945,-193.5 609.945,-190 599.945,-186.5 599.945,-193.5"/>
</g>
<!-- Node28 -->
<g id="node28" class="node"><title>Node28</title>
<g id="a_node28"><a xlink:href="class_voltage_monitor.html#a70902b84f9864c95d5553a0644a64f4f" target="_top" xlink:title="Return the latest voltage reading. ">
<polygon fill="white" stroke="black" points="578,-446.5 578,-465.5 704,-465.5 704,-446.5 578,-446.5"/>
<text text-anchor="middle" x="641" y="-453.5" font-family="Helvetica,sans-Serif" font-size="10.00">VoltageMonitor::getValue</text>
</a>
</g>
</g>
<!-- Node27&#45;&gt;Node28 -->
<g id="edge38" class="edge"><title>Node27&#45;&gt;Node28</title>
<path fill="none" stroke="midnightblue" d="M520.182,-456C534.344,-456 551.117,-456 567.56,-456"/>
<polygon fill="midnightblue" stroke="midnightblue" points="567.728,-459.5 577.728,-456 567.728,-452.5 567.728,-459.5"/>
</g>
<!-- Node29 -->
<g id="node29" class="node"><title>Node29</title>
<g id="a_node29"><a xlink:href="actions_8cpp.html#a2b8c3769e2aa32a2da9e2f3f85ac73dd" target="_top" xlink:title="A sample ADC reading is taken each time through the main loop, and written to a ring buffer...">
<polygon fill="white" stroke="black" points="742.5,-446.5 742.5,-465.5 854.5,-465.5 854.5,-446.5 742.5,-446.5"/>
<text text-anchor="middle" x="798.5" y="-453.5" font-family="Helvetica,sans-Serif" font-size="10.00">getVoltagePollInterval</text>
</a>
</g>
</g>
<!-- Node28&#45;&gt;Node29 -->
<g id="edge39" class="edge"><title>Node28&#45;&gt;Node29</title>
<path fill="none" stroke="midnightblue" d="M704.352,-456C713.438,-456 722.816,-456 731.963,-456"/>
<polygon fill="midnightblue" stroke="midnightblue" points="732.163,-459.5 742.163,-456 732.163,-452.5 732.163,-459.5"/>
</g>
<!-- Node30 -->
<g id="node30" class="node"><title>Node30</title>
<g id="a_node30"><a xlink:href="class_voltage_monitor.html#a75871331808c34b40d04059ee2af0f27" target="_top" xlink:title="Filter and scale raw ADC values to millivolts. ">
<polygon fill="white" stroke="black" points="740,-408.5 740,-427.5 857,-427.5 857,-408.5 740,-408.5"/>
<text text-anchor="middle" x="798.5" y="-415.5" font-family="Helvetica,sans-Serif" font-size="10.00">VoltageMonitor::update</text>
</a>
</g>
</g>
<!-- Node28&#45;&gt;Node30 -->
<g id="edge40" class="edge"><title>Node28&#45;&gt;Node30</title>
<path fill="none" stroke="midnightblue" d="M681.239,-446.411C701.759,-441.396 727.067,-435.212 748.825,-429.895"/>
<polygon fill="midnightblue" stroke="midnightblue" points="749.66,-433.294 758.543,-427.52 747.998,-426.494 749.66,-433.294"/>
</g>
<!-- Node31&#45;&gt;Node9 -->
<g id="edge42" class="edge"><title>Node31&#45;&gt;Node9</title>
<path fill="none" stroke="midnightblue" d="M668.027,-389.459C693.704,-380.047 733.155,-365.586 761.762,-355.1"/>
<polygon fill="midnightblue" stroke="midnightblue" points="763.203,-358.3 771.388,-351.572 760.794,-351.727 763.203,-358.3"/>
</g>
</g>
</svg>
        <g id="navigator" transform="translate(0 0)" fill="#404254">
                <rect fill="#f2f5e9" fill-opacity="0.5" stroke="#606060" stroke-width=".5" x="0" y="0" width="60" height="60"/>
                <use id="zoomplus" xlink:href="#zoomPlus" x="17" y="9" onmousedown="handleZoom(evt,'in')"/>
                <use id="zoomminus" xlink:href="#zoomMin" x="42" y="9" onmousedown="handleZoom(evt,'out')"/>
                <use id="reset" xlink:href="#resetDef" x="30" y="36" onmousedown="handleReset()"/>
                <g id="arrowUp" xlink:href="#dirArrow" transform="translate(30 24)" onmousedown="handlePan(0,-1)">
                  <use xlink:href="#rim" fill="#404040">
                        <set attributeName="fill" to="#808080" begin="arrowUp.mouseover" end="arrowUp.mouseout"/>
                  </use>
                  <path fill="none" stroke="white" stroke-width="1.5" d="M0,-3.0v7 M-2.5,-0.5L0,-3.0L2.5,-0.5"/>
                </g>
                <g id="arrowRight" xlink:href="#dirArrow" transform="rotate(90) translate(36 -43)" onmousedown="handlePan(1,0)">
                  <use xlink:href="#rim" fill="#404040">
                        <set attributeName="fill" to="#808080" begin="arrowRight.mouseover" end="arrowRight.mouseout"/>
                  </use>
                  <path fill="none" stroke="white" stroke-width="1.5" d="M0,-3.0v7 M-2.5,-0.5L0,-3.0L2.5,-0.5"/>
                </g>
                <g id="arrowDown" xlink:href="#dirArrow" transform="rotate(180) translate(-30 -48)" onmousedown="handlePan(0,1)">
                  <use xlink:href="#rim" fill="#404040">
                        <set attributeName="fill" to="#808080" begin="arrowDown.mouseover" end="arrowDown.mouseout"/>
                  </use>
                  <path fill="none" stroke="white" stroke-width="1.5" d="M0,-3.0v7 M-2.5,-0.5L0,-3.0L2.5,-0.5"/>
                </g>
                <g id="arrowLeft" xlink:href="#dirArrow" transform="rotate(270) translate(-36 17)" onmousedown="handlePan(-1,0)">
                  <use xlink:href="#rim" fill="#404040">
                        <set attributeName="fill" to="#808080" begin="arrowLeft.mouseover" end="arrowLeft.mouseout"/>
                  </use>
                  <path fill="none" stroke="white" stroke-width="1.5" d="M0,-3.0v7 M-2.5,-0.5L0,-3.0L2.5,-0.5"/>
                </g>
        </g>
        <svg viewBox="0 0 15 15" width="100%" height="30px" preserveAspectRatio="xMaxYMin meet">
         <g id="arrow_out" transform="scale(0.3 0.3)">
          <a xlink:href="class_morse_token_adbcf2bf93f283c2c69a93dd69d03c38b_cgraph_org.svg" target="_base">
           <rect id="button" ry="5" rx="5" y="6" x="6" height="38" width="38"
                fill="#f2f5e9" fill-opacity="0.5" stroke="#606060" stroke-width="1.0"/>
           <path id="arrow"
             d="M 11.500037,31.436501 C 11.940474,20.09759 22.043105,11.32322 32.158766,21.979434 L 37.068811,17.246167 C 37.068811,17.246167 37.088388,32 37.088388,32 L 22.160133,31.978069 C 22.160133,31.978069 26.997745,27.140456 26.997745,27.140456 C 18.528582,18.264221 13.291696,25.230495 11.500037,31.436501 z"
             style="fill:#404040;"/>
          </a>
         </g>
        </svg>
</svg>
