<?xml version="1.0" encoding="UTF-8" standalone="no"?>
<!DOCTYPE svg PUBLIC "-//W3C//DTD SVG 1.1//EN"
 "http://www.w3.org/Graphics/SVG/1.1/DTD/svg11.dtd">
<!-- Generated by graphviz version 2.38.0 (20140413.2041)
 -->
<!-- Title: Stack::push Pages: 1 -->
<svg width="444pt" height="191pt"
 viewBox="0.00 0.00 444.00 190.67" xmlns="http://www.w3.org/2000/svg" xmlns:xlink="http://www.w3.org/1999/xlink">
<g id="graph0" class="graph" transform="scale(1 1) rotate(0) translate(4 186.675)">
<title>Stack::push</title>
<polygon fill="white" stroke="none" points="-4,4 -4,-186.675 440,-186.675 440,4 -4,4"/>
<!-- Node1 -->
<g id="node1" class="node"><title>Node1</title>
<polygon fill="#bfbfbf" stroke="black" points="0,-78.1746 0,-97.1746 69,-97.1746 69,-78.1746 0,-78.1746"/>
<text text-anchor="middle" x="34.5" y="-85.1746" font-family="Helvetica,sans-Serif" font-size="10.00">Stack::push</text>
</g>
<!-- Node2 -->
<g id="node2" class="node"><title>Node2</title>
<g id="a_node2"><a xlink:href="stack_8h.html#ae73e1851820a958c7de01c9ed36d1b7c" target="_top" xlink:title="pushSymbolStack">
<polygon fill="white" stroke="black" points="105,-78.1746 105,-97.1746 201,-97.1746 201,-78.1746 105,-78.1746"/>
<text text-anchor="middle" x="153" y="-85.1746" font-family="Helvetica,sans-Serif" font-size="10.00">pushSymbolStack</text>
</a>
</g>
</g>
<!-- Node1&#45;&gt;Node2 -->
<g id="edge1" class="edge"><title>Node1&#45;&gt;Node2</title>
<path fill="none" stroke="midnightblue" d="M79.4651,-87.6746C87.7908,-87.6746 96.5316,-87.6746 104.948,-87.6746"/>
<polygon fill="midnightblue" stroke="midnightblue" points="79.1967,-84.1747 69.1966,-87.6746 79.1966,-91.1747 79.1967,-84.1747"/>
</g>
<!-- Node3 -->
<g id="node3" class="node"><title>Node3</title>
<g id="a_node3"><a xlink:href="actions_8h.html#ad07e1d9a717a212364090e192e951ea5" target="_top" xlink:title="push1RestoreAll">
<polygon fill="white" stroke="black" points="238.5,-135.175 238.5,-154.175 327.5,-154.175 327.5,-135.175 238.5,-135.175"/>
<text text-anchor="middle" x="283" y="-142.175" font-family="Helvetica,sans-Serif" font-size="10.00">push1RestoreAll</text>
</a>
</g>
</g>
<!-- Node2&#45;&gt;Node3 -->
<g id="edge2" class="edge"><title>Node2&#45;&gt;Node3</title>
<path fill="none" stroke="midnightblue" d="M184.581,-101.293C207.999,-111.721 239.714,-125.844 260.506,-135.103"/>
<polygon fill="midnightblue" stroke="midnightblue" points="185.983,-98.0859 175.424,-97.2152 183.136,-104.481 185.983,-98.0859"/>
</g>
<!-- Node4 -->
<g id="node4" class="node"><title>Node4</title>
<g id="a_node4"><a xlink:href="pda_8h.html#a5218392624b017b817b80d6b16ea920d" target="_top" xlink:title="askNextAlfa">
<polygon fill="white" stroke="black" points="365,-163.175 365,-182.175 436,-182.175 436,-163.175 365,-163.175"/>
<text text-anchor="middle" x="400.5" y="-170.175" font-family="Helvetica,sans-Serif" font-size="10.00">askNextAlfa</text>
</a>
</g>
</g>
<!-- Node2&#45;&gt;Node4 -->
<g id="edge6" class="edge"><title>Node2&#45;&gt;Node4</title>
<path fill="none" stroke="midnightblue" d="M167.205,-105.491C181.936,-123.793 207.596,-151.3 237,-163.675 278.277,-181.047 330.734,-180.357 364.703,-177.312"/>
<polygon fill="midnightblue" stroke="midnightblue" points="169.782,-103.103 160.883,-97.3531 164.254,-107.397 169.782,-103.103"/>
</g>
<!-- Node5 -->
<g id="node5" class="node"><title>Node5</title>
<g id="a_node5"><a xlink:href="pda_8h.html#a1dc125d402fe76077cb4d166ac0fbf7a" target="_top" xlink:title="askNext">
<polygon fill="white" stroke="black" points="374,-106.175 374,-125.175 427,-125.175 427,-106.175 374,-106.175"/>
<text text-anchor="middle" x="400.5" y="-113.175" font-family="Helvetica,sans-Serif" font-size="10.00">askNext</text>
</a>
</g>
</g>
<!-- Node2&#45;&gt;Node5 -->
<g id="edge10" class="edge"><title>Node2&#45;&gt;Node5</title>
<path fill="none" stroke="midnightblue" d="M211.001,-94.1757C262.316,-100.028 335.379,-108.361 373.728,-112.735"/>
<polygon fill="midnightblue" stroke="midnightblue" points="211.377,-90.696 201.044,-93.0402 210.583,-97.6509 211.377,-90.696"/>
</g>
<!-- Node6 -->
<g id="node6" class="node"><title>Node6</title>
<g id="a_node6"><a xlink:href="actions_8h.html#a1fec7da4166b9612d2deec3d0262d60f" target="_top" xlink:title="dispatchOnStack">
<polygon fill="white" stroke="black" points="237,-59.1746 237,-78.1746 329,-78.1746 329,-59.1746 237,-59.1746"/>
<text text-anchor="middle" x="283" y="-66.1746" font-family="Helvetica,sans-Serif" font-size="10.00">dispatchOnStack</text>
</a>
</g>
</g>
<!-- Node2&#45;&gt;Node6 -->
<g id="edge5" class="edge"><title>Node2&#45;&gt;Node6</title>
<path fill="none" stroke="midnightblue" d="M211.459,-79.1456C219.883,-77.8951 228.46,-76.622 236.598,-75.4141"/>
<polygon fill="midnightblue" stroke="midnightblue" points="210.676,-75.7233 201.299,-80.6537 211.704,-82.6474 210.676,-75.7233"/>
</g>
<!-- Node7 -->
<g id="node7" class="node"><title>Node7</title>
<g id="a_node7"><a xlink:href="pda_8h.html#a15825e7325bc5cdbd18cf2c6055baef1" target="_top" xlink:title="gradeRestore">
<polygon fill="white" stroke="black" points="245.5,-21.1746 245.5,-40.1746 320.5,-40.1746 320.5,-21.1746 245.5,-21.1746"/>
<text text-anchor="middle" x="283" y="-28.1746" font-family="Helvetica,sans-Serif" font-size="10.00">gradeRestore</text>
</a>
</g>
</g>
<!-- Node2&#45;&gt;Node7 -->
<g id="edge7" class="edge"><title>Node2&#45;&gt;Node7</title>
<path fill="none" stroke="midnightblue" d="M183.651,-73.8397C199.441,-66.5383 219.22,-57.496 237,-49.6746 244.141,-46.5331 251.962,-43.1956 259.051,-40.2089"/>
<polygon fill="midnightblue" stroke="midnightblue" points="181.989,-70.7524 174.389,-78.1344 184.934,-77.1029 181.989,-70.7524"/>
</g>
<!-- Node8 -->
<g id="node8" class="node"><title>Node8</title>
<g id="a_node8"><a xlink:href="pda_8h.html#abf2e0c8c523ed9ddee8a9194c9800b99" target="_top" xlink:title="askSum">
<polygon fill="white" stroke="black" points="374,-2.17464 374,-21.1746 427,-21.1746 427,-2.17464 374,-2.17464"/>
<text text-anchor="middle" x="400.5" y="-9.17464" font-family="Helvetica,sans-Serif" font-size="10.00">askSum</text>
</a>
</g>
</g>
<!-- Node2&#45;&gt;Node8 -->
<g id="edge9" class="edge"><title>Node2&#45;&gt;Node8</title>
<path fill="none" stroke="midnightblue" d="M166.647,-70.0811C181.193,-51.5107 206.973,-23.3453 237,-11.6746 282.623,6.0575 341.045,-0.245725 373.962,-6.14992"/>
<polygon fill="midnightblue" stroke="midnightblue" points="163.841,-67.9889 160.608,-78.0786 169.427,-72.2069 163.841,-67.9889"/>
</g>
<!-- Node3&#45;&gt;Node4 -->
<g id="edge3" class="edge"><title>Node3&#45;&gt;Node4</title>
<path fill="none" stroke="midnightblue" d="M333.42,-156.655C344.016,-159.224 354.994,-161.885 364.887,-164.284"/>
<polygon fill="midnightblue" stroke="midnightblue" points="333.969,-153.187 323.426,-154.232 332.319,-159.99 333.969,-153.187"/>
</g>
<!-- Node3&#45;&gt;Node5 -->
<g id="edge4" class="edge"><title>Node3&#45;&gt;Node5</title>
<path fill="none" stroke="midnightblue" d="M331.899,-132.648C346.256,-129.043 361.45,-125.228 373.789,-122.13"/>
<polygon fill="midnightblue" stroke="midnightblue" points="330.986,-129.269 322.139,-135.099 332.69,-136.058 330.986,-129.269"/>
</g>
<!-- Node7&#45;&gt;Node8 -->
<g id="edge8" class="edge"><title>Node7&#45;&gt;Node8</title>
<path fill="none" stroke="midnightblue" d="M330.547,-23.0176C345.299,-20.5907 361.067,-17.997 373.795,-15.9032"/>
<polygon fill="midnightblue" stroke="midnightblue" points="329.844,-19.5861 320.545,-24.6629 330.98,-26.4932 329.844,-19.5861"/>
</g>
</g>
</svg>
