<?xml version="1.0" encoding="UTF-8" standalone="no"?>
<!DOCTYPE svg PUBLIC "-//W3C//DTD SVG 1.1//EN"
 "http://www.w3.org/Graphics/SVG/1.1/DTD/svg11.dtd">
<!-- Generated by graphviz version 2.38.0 (20140413.2041)
 -->
<!-- Title: Stack&lt; T, N &gt; Pages: 1 -->
<svg width="88pt" height="237pt"
 viewBox="0.00 0.00 88.00 237.00" xmlns="http://www.w3.org/2000/svg" xmlns:xlink="http://www.w3.org/1999/xlink">
<g id="graph0" class="graph" transform="scale(1 1) rotate(0) translate(4 233)">
<title>Stack&lt; T, N &gt;</title>
<polygon fill="white" stroke="none" points="-4,4 -4,-233 84,-233 84,4 -4,4"/>
<!-- Node1 -->
<g id="node1" class="node"><title>Node1</title>
<polygon fill="#bfbfbf" stroke="black" points="0,-0.5 0,-123.5 80,-123.5 80,-0.5 0,-0.5"/>
<text text-anchor="middle" x="40" y="-111.5" font-family="Helvetica,sans-Serif" font-size="10.00">Stack&lt; T, N &gt;</text>
<polyline fill="none" stroke="black" points="0,-104.5 80,-104.5 "/>
<text text-anchor="start" x="8" y="-92.5" font-family="Helvetica,sans-Serif" font-size="10.00">&#45; n</text>
<polyline fill="none" stroke="black" points="0,-85.5 80,-85.5 "/>
<text text-anchor="start" x="8" y="-73.5" font-family="Helvetica,sans-Serif" font-size="10.00">+ Stack()</text>
<text text-anchor="start" x="8" y="-62.5" font-family="Helvetica,sans-Serif" font-size="10.00">+ size()</text>
<text text-anchor="start" x="8" y="-51.5" font-family="Helvetica,sans-Serif" font-size="10.00">+ operator[]()</text>
<text text-anchor="start" x="8" y="-40.5" font-family="Helvetica,sans-Serif" font-size="10.00">+ push()</text>
<text text-anchor="start" x="8" y="-29.5" font-family="Helvetica,sans-Serif" font-size="10.00">+ pop()</text>
<text text-anchor="start" x="8" y="-18.5" font-family="Helvetica,sans-Serif" font-size="10.00">+ exchange()</text>
<text text-anchor="start" x="8" y="-7.5" font-family="Helvetica,sans-Serif" font-size="10.00">+ clear()</text>
</g>
<!-- Node2 -->
<g id="node2" class="node"><title>Node2</title>
<polygon fill="white" stroke="#bfbfbf" points="25.5,-171.5 25.5,-228.5 54.5,-228.5 54.5,-171.5 25.5,-171.5"/>
<text text-anchor="middle" x="40" y="-216.5" font-family="Helvetica,sans-Serif" font-size="10.00">T</text>
<polyline fill="none" stroke="#bfbfbf" points="25.5,-209.5 54.5,-209.5 "/>
<text text-anchor="middle" x="40" y="-197.5" font-family="Helvetica,sans-Serif" font-size="10.00"> </text>
<polyline fill="none" stroke="#bfbfbf" points="25.5,-190.5 54.5,-190.5 "/>
<text text-anchor="middle" x="40" y="-178.5" font-family="Helvetica,sans-Serif" font-size="10.00"> </text>
</g>
<!-- Node2&#45;&gt;Node1 -->
<g id="edge1" class="edge"><title>Node2&#45;&gt;Node1</title>
<path fill="none" stroke="#404040" d="M40,-171.478C40,-161.009 40,-148.526 40,-135.818"/>
<polygon fill="none" stroke="#404040" points="40.0001,-135.623 36,-129.623 40,-123.623 44,-129.623 40.0001,-135.623"/>
<text text-anchor="middle" x="46" y="-145" font-family="Helvetica,sans-Serif" font-size="10.00"> &#45;s</text>
</g>
</g>
</svg>
