<?xml version="1.0" encoding="UTF-8" standalone="no"?>
<!DOCTYPE svg PUBLIC "-//W3C//DTD SVG 1.1//EN"
 "http://www.w3.org/Graphics/SVG/1.1/DTD/svg11.dtd">
<!-- Generated by graphviz version 2.38.0 (20140413.2041)
 -->
<!-- Title: didah.ino Pages: 1 -->
<!--zoomable 308 -->
<svg id="main" version="1.1" xmlns="http://www.w3.org/2000/svg" xmlns:xlink="http://www.w3.org/1999/xlink" xml:space="preserve" onload="init(evt)">
<style type="text/css"><![CDATA[
.edge:hover path { stroke: red; }
.edge:hover polygon { stroke: red; fill: red; }
]]></style>
<script type="text/javascript"><![CDATA[
var edges = document.getElementsByTagName('g');
if (edges && edges.length) {
  for (var i=0;i<edges.length;i++) {
    if (edges[i].id.substr(0,4)=='edge') {
      edges[i].setAttribute('class','edge');
    }
  }
}
]]></script>
        <defs>
                <circle id="rim" cx="0" cy="0" r="7"/>
                <circle id="rim2" cx="0" cy="0" r="3.5"/>
                <g id="zoomPlus">
                        <use xlink:href="#rim" fill="#404040">
                                <set attributeName="fill" to="#808080" begin="zoomplus.mouseover" end="zoomplus.mouseout"/>
                        </use>
                        <path d="M-4,0h8M0,-4v8" fill="none" stroke="white" stroke-width="1.5" pointer-events="none"/>
                </g>
                <g id="zoomMin">
                        <use xlink:href="#rim" fill="#404040">
                                <set attributeName="fill" to="#808080" begin="zoomminus.mouseover" end="zoomminus.mouseout"/>
                        </use>
                        <path d="M-4,0h8" fill="none" stroke="white" stroke-width="1.5" pointer-events="none"/>
                </g>
                <g id="dirArrow">
                        <path fill="none" stroke="white" stroke-width="1.5" d="M0,-3.0v7 M-2.5,-0.5L0,-3.0L2.5,-0.5"/>
                </g>
               <g id="resetDef">
                       <use xlink:href="#rim2" fill="#404040">
                               <set attributeName="fill" to="#808080" begin="reset.mouseover" end="reset.mouseout"/>
                       </use>
               </g>
        </defs>

<script type="text/javascript">
var viewWidth = 898;
var viewHeight = 308;
var sectionId = 'dynsection-0';
</script>
<script xlink:href="svgpan.js"/>
<svg id="graph" class="graph">
<g id="viewport">
<title>didah.ino</title>
<polygon fill="white" stroke="none" points="-4,4 -4,-304 893.5,-304 893.5,4 -4,4"/>
<!-- Node1 -->
<g id="node1" class="node"><title>Node1</title>
<polygon fill="#bfbfbf" stroke="black" points="346,-280.5 346,-299.5 402,-299.5 402,-280.5 346,-280.5"/>
<text text-anchor="middle" x="374" y="-287.5" font-family="Helvetica,sans-Serif" font-size="10.00">didah.ino</text>
</g>
<!-- Node2 -->
<g id="node2" class="node"><title>Node2</title>
<polygon fill="white" stroke="#bfbfbf" points="0,-224.5 0,-243.5 46,-243.5 46,-224.5 0,-224.5"/>
<text text-anchor="middle" x="23" y="-231.5" font-family="Helvetica,sans-Serif" font-size="10.00">cctype</text>
</g>
<!-- Node1&#45;&gt;Node2 -->
<g id="edge1" class="edge"><title>Node1&#45;&gt;Node2</title>
<path fill="none" stroke="midnightblue" d="M345.615,-286.287C291.214,-280.812 168.402,-267.122 56.1182,-243.997"/>
<polygon fill="midnightblue" stroke="midnightblue" points="56.8338,-240.571 46.3292,-241.951 55.4016,-247.423 56.8338,-240.571"/>
</g>
<!-- Node3 -->
<g id="node3" class="node"><title>Node3</title>
<polygon fill="white" stroke="#bfbfbf" points="228,-56.5 228,-75.5 286,-75.5 286,-56.5 228,-56.5"/>
<text text-anchor="middle" x="257" y="-63.5" font-family="Helvetica,sans-Serif" font-size="10.00">Arduino.h</text>
</g>
<!-- Node1&#45;&gt;Node3 -->
<g id="edge2" class="edge"><title>Node1&#45;&gt;Node3</title>
<path fill="none" stroke="midnightblue" d="M365.874,-280.458C357.772,-271.705 345.238,-257.503 336,-244 303.995,-197.218 296.258,-184.545 275,-132 268.824,-116.736 264.002,-98.6274 260.91,-85.4059"/>
<polygon fill="midnightblue" stroke="midnightblue" points="264.32,-84.6173 258.727,-75.6188 257.488,-86.1408 264.32,-84.6173"/>
</g>
<!-- Node4 -->
<g id="node4" class="node"><title>Node4</title>
<polygon fill="white" stroke="#bfbfbf" points="142,-168.5 142,-187.5 210,-187.5 210,-168.5 142,-168.5"/>
<text text-anchor="middle" x="176" y="-175.5" font-family="Helvetica,sans-Serif" font-size="10.00">EEPROM.h</text>
</g>
<!-- Node1&#45;&gt;Node4 -->
<g id="edge3" class="edge"><title>Node1&#45;&gt;Node4</title>
<path fill="none" stroke="midnightblue" d="M345.969,-285.979C313.968,-281.382 261.246,-270.204 224,-244 206.661,-231.802 193.066,-211.353 184.837,-196.647"/>
<polygon fill="midnightblue" stroke="midnightblue" points="187.793,-194.751 180.017,-187.554 181.608,-198.029 187.793,-194.751"/>
</g>
<!-- Node5 -->
<g id="node5" class="node"><title>Node5</title>
<g id="a_node5"><a xlink:href="EEPROMAnything_8h.html" target="_top" xlink:title="Loads and stores arbitrary structures to non&#45;volatile memory. ">
<polygon fill="white" stroke="black" points="64.5,-224.5 64.5,-243.5 171.5,-243.5 171.5,-224.5 64.5,-224.5"/>
<text text-anchor="middle" x="118" y="-231.5" font-family="Helvetica,sans-Serif" font-size="10.00">EEPROMAnything.h</text>
</a>
</g>
</g>
<!-- Node1&#45;&gt;Node5 -->
<g id="edge4" class="edge"><title>Node1&#45;&gt;Node5</title>
<path fill="none" stroke="midnightblue" d="M345.625,-283.015C302.943,-274.011 221.583,-256.849 168.583,-245.67"/>
<polygon fill="midnightblue" stroke="midnightblue" points="169.215,-242.226 158.708,-243.587 167.77,-249.075 169.215,-242.226"/>
</g>
<!-- Node6 -->
<g id="node6" class="node"><title>Node6</title>
<g id="a_node6"><a xlink:href="settings_8h.html" target="_top" xlink:title="User settings. ">
<polygon fill="white" stroke="black" points="344.5,-224.5 344.5,-243.5 403.5,-243.5 403.5,-224.5 344.5,-224.5"/>
<text text-anchor="middle" x="374" y="-231.5" font-family="Helvetica,sans-Serif" font-size="10.00">settings.h</text>
</a>
</g>
</g>
<!-- Node1&#45;&gt;Node6 -->
<g id="edge7" class="edge"><title>Node1&#45;&gt;Node6</title>
<path fill="none" stroke="midnightblue" d="M374,-280.083C374,-273.006 374,-262.861 374,-253.986"/>
<polygon fill="midnightblue" stroke="midnightblue" points="377.5,-253.751 374,-243.751 370.5,-253.751 377.5,-253.751"/>
</g>
<!-- Node7 -->
<g id="node7" class="node"><title>Node7</title>
<g id="a_node7"><a xlink:href="actions_8h.html" target="_top" xlink:title="Application&#45;specific actions. ">
<polygon fill="white" stroke="black" points="461,-224.5 461,-243.5 517,-243.5 517,-224.5 461,-224.5"/>
<text text-anchor="middle" x="489" y="-231.5" font-family="Helvetica,sans-Serif" font-size="10.00">actions.h</text>
</a>
</g>
</g>
<!-- Node1&#45;&gt;Node7 -->
<g id="edge8" class="edge"><title>Node1&#45;&gt;Node7</title>
<path fill="none" stroke="midnightblue" d="M392.222,-280.444C410.896,-271.675 440.156,-257.935 461.617,-247.858"/>
<polygon fill="midnightblue" stroke="midnightblue" points="463.299,-250.935 470.863,-243.516 460.324,-244.599 463.299,-250.935"/>
</g>
<!-- Node17 -->
<g id="node17" class="node"><title>Node17</title>
<g id="a_node17"><a xlink:href="prosign_8h.html" target="_top" xlink:title="Prosign constants. ">
<polygon fill="white" stroke="black" points="718,-56.5 718,-75.5 774,-75.5 774,-56.5 718,-56.5"/>
<text text-anchor="middle" x="746" y="-63.5" font-family="Helvetica,sans-Serif" font-size="10.00">prosign.h</text>
</a>
</g>
</g>
<!-- Node1&#45;&gt;Node17 -->
<g id="edge27" class="edge"><title>Node1&#45;&gt;Node17</title>
<path fill="none" stroke="midnightblue" d="M402.124,-285.421C470.004,-275.198 643.428,-239.332 728,-132 738.522,-118.647 742.899,-99.5326 744.716,-85.4873"/>
<polygon fill="midnightblue" stroke="midnightblue" points="748.201,-85.8105 745.694,-75.5167 741.235,-85.1274 748.201,-85.8105"/>
</g>
<!-- Node18 -->
<g id="node18" class="node"><title>Node18</title>
<g id="a_node18"><a xlink:href="stack_8h.html" target="_top" xlink:title="Fixed&#45;sized stack for plain old data. ">
<polygon fill="white" stroke="black" points="775.5,-224.5 775.5,-243.5 824.5,-243.5 824.5,-224.5 775.5,-224.5"/>
<text text-anchor="middle" x="800" y="-231.5" font-family="Helvetica,sans-Serif" font-size="10.00">stack.h</text>
</a>
</g>
</g>
<!-- Node1&#45;&gt;Node18 -->
<g id="edge26" class="edge"><title>Node1&#45;&gt;Node18</title>
<path fill="none" stroke="midnightblue" d="M402.318,-286.792C466.475,-281.554 627.699,-267.058 761,-244 762.455,-243.748 763.937,-243.476 765.432,-243.189"/>
<polygon fill="midnightblue" stroke="midnightblue" points="766.25,-246.594 775.326,-241.129 764.823,-239.741 766.25,-246.594"/>
</g>
<!-- Node19 -->
<g id="node19" class="node"><title>Node19</title>
<polygon fill="white" stroke="#bfbfbf" points="842.5,-224.5 842.5,-243.5 889.5,-243.5 889.5,-224.5 842.5,-224.5"/>
<text text-anchor="middle" x="866" y="-231.5" font-family="Helvetica,sans-Serif" font-size="10.00">Time.h</text>
</g>
<!-- Node1&#45;&gt;Node19 -->
<g id="edge28" class="edge"><title>Node1&#45;&gt;Node19</title>
<path fill="none" stroke="midnightblue" d="M402.247,-287.973C473.198,-285.025 664.66,-274.805 832.353,-244.02"/>
<polygon fill="midnightblue" stroke="midnightblue" points="833.156,-247.431 842.345,-242.156 831.872,-240.549 833.156,-247.431"/>
</g>
<!-- Node5&#45;&gt;Node3 -->
<g id="edge6" class="edge"><title>Node5&#45;&gt;Node3</title>
<path fill="none" stroke="midnightblue" d="M118.242,-224.331C118.976,-211.197 121.857,-185.892 133,-168 157.529,-128.616 202.872,-97.6122 231.404,-80.83"/>
<polygon fill="midnightblue" stroke="midnightblue" points="233.44,-83.6972 240.381,-75.6923 229.963,-77.6219 233.44,-83.6972"/>
</g>
<!-- Node5&#45;&gt;Node4 -->
<g id="edge5" class="edge"><title>Node5&#45;&gt;Node4</title>
<path fill="none" stroke="midnightblue" d="M127.319,-224.324C135.893,-216.341 148.812,-204.313 159.188,-194.653"/>
<polygon fill="midnightblue" stroke="midnightblue" points="161.578,-197.21 166.512,-187.834 156.808,-192.086 161.578,-197.21"/>
</g>
<!-- Node7&#45;&gt;Node3 -->
<g id="edge9" class="edge"><title>Node7&#45;&gt;Node3</title>
<path fill="none" stroke="midnightblue" d="M461.954,-224.392C421.566,-210.429 344.913,-179.524 295,-132 281.119,-118.784 270.673,-99.3836 264.281,-85.219"/>
<polygon fill="midnightblue" stroke="midnightblue" points="267.325,-83.4322 260.193,-75.5969 260.882,-86.1693 267.325,-83.4322"/>
</g>
<!-- Node8 -->
<g id="node8" class="node"><title>Node8</title>
<g id="a_node8"><a xlink:href="libmorse_8h.html" target="_top" xlink:title="Morse code operations. ">
<polygon fill="white" stroke="black" points="498,-168.5 498,-187.5 560,-187.5 560,-168.5 498,-168.5"/>
<text text-anchor="middle" x="529" y="-175.5" font-family="Helvetica,sans-Serif" font-size="10.00">libmorse.h</text>
</a>
</g>
</g>
<!-- Node7&#45;&gt;Node8 -->
<g id="edge10" class="edge"><title>Node7&#45;&gt;Node8</title>
<path fill="none" stroke="midnightblue" d="M495.605,-224.083C501.255,-216.455 509.545,-205.264 516.451,-195.941"/>
<polygon fill="midnightblue" stroke="midnightblue" points="519.378,-197.87 522.518,-187.751 513.753,-193.703 519.378,-197.87"/>
</g>
<!-- Node15 -->
<g id="node15" class="node"><title>Node15</title>
<g id="a_node15"><a xlink:href="morse__token_8h.html" target="_top" xlink:title="Defines the MorseToken class and various helpers. ">
<polygon fill="white" stroke="black" points="637.5,-112.5 637.5,-131.5 718.5,-131.5 718.5,-112.5 637.5,-112.5"/>
<text text-anchor="middle" x="678" y="-119.5" font-family="Helvetica,sans-Serif" font-size="10.00">morse_token.h</text>
</a>
</g>
</g>
<!-- Node7&#45;&gt;Node15 -->
<g id="edge25" class="edge"><title>Node7&#45;&gt;Node15</title>
<path fill="none" stroke="midnightblue" d="M504.402,-224.488C520.559,-215.523 546.662,-200.94 569,-188 599.027,-170.605 633.365,-150.011 655.343,-136.738"/>
<polygon fill="midnightblue" stroke="midnightblue" points="657.212,-139.698 663.957,-131.529 653.589,-133.709 657.212,-139.698"/>
</g>
<!-- Node9 -->
<g id="node9" class="node"><title>Node9</title>
<g id="a_node9"><a xlink:href="binconst_8h.html" target="_top" xlink:title="Binary constant generator macro. ">
<polygon fill="white" stroke="black" points="743,-0.5 743,-19.5 805,-19.5 805,-0.5 743,-0.5"/>
<text text-anchor="middle" x="774" y="-7.5" font-family="Helvetica,sans-Serif" font-size="10.00">binconst.h</text>
</a>
</g>
</g>
<!-- Node8&#45;&gt;Node9 -->
<g id="edge11" class="edge"><title>Node8&#45;&gt;Node9</title>
<path fill="none" stroke="midnightblue" d="M560.249,-175.37C601.16,-172.066 674.008,-162.088 728,-132 758.473,-115.019 769.795,-108.29 783,-76 789.125,-61.0232 785.683,-42.6571 781.405,-29.2725"/>
<polygon fill="midnightblue" stroke="midnightblue" points="784.658,-27.9763 777.961,-19.7663 778.076,-30.3605 784.658,-27.9763"/>
</g>
<!-- Node10 -->
<g id="node10" class="node"><title>Node10</title>
<polygon fill="white" stroke="#bfbfbf" points="576.5,-112.5 576.5,-131.5 619.5,-131.5 619.5,-112.5 576.5,-112.5"/>
<text text-anchor="middle" x="598" y="-119.5" font-family="Helvetica,sans-Serif" font-size="10.00">cstdio</text>
</g>
<!-- Node8&#45;&gt;Node10 -->
<g id="edge12" class="edge"><title>Node8&#45;&gt;Node10</title>
<path fill="none" stroke="midnightblue" d="M540.086,-168.324C550.486,-160.185 566.261,-147.839 578.722,-138.087"/>
<polygon fill="midnightblue" stroke="midnightblue" points="580.994,-140.753 586.712,-131.834 576.68,-135.241 580.994,-140.753"/>
</g>
<!-- Node11 -->
<g id="node11" class="node"><title>Node11</title>
<polygon fill="white" stroke="#bfbfbf" points="304,-112.5 304,-131.5 350,-131.5 350,-112.5 304,-112.5"/>
<text text-anchor="middle" x="327" y="-119.5" font-family="Helvetica,sans-Serif" font-size="10.00">cstring</text>
</g>
<!-- Node8&#45;&gt;Node11 -->
<g id="edge13" class="edge"><title>Node8&#45;&gt;Node11</title>
<path fill="none" stroke="midnightblue" d="M497.837,-168.762C463.915,-159.781 408.079,-144.957 360,-132 359.9,-131.973 359.799,-131.946 359.698,-131.919"/>
<polygon fill="midnightblue" stroke="midnightblue" points="360.641,-128.548 350.074,-129.312 358.811,-135.305 360.641,-128.548"/>
</g>
<!-- Node12 -->
<g id="node12" class="node"><title>Node12</title>
<polygon fill="white" stroke="#bfbfbf" points="538,-56.5 538,-75.5 594,-75.5 594,-56.5 538,-56.5"/>
<text text-anchor="middle" x="566" y="-63.5" font-family="Helvetica,sans-Serif" font-size="10.00">cinttypes</text>
</g>
<!-- Node8&#45;&gt;Node12 -->
<g id="edge14" class="edge"><title>Node8&#45;&gt;Node12</title>
<path fill="none" stroke="midnightblue" d="M531.903,-168.368C537.901,-150.537 551.773,-109.295 559.854,-85.2717"/>
<polygon fill="midnightblue" stroke="midnightblue" points="563.239,-86.1855 563.11,-75.5914 556.605,-83.9537 563.239,-86.1855"/>
</g>
<!-- Node13 -->
<g id="node13" class="node"><title>Node13</title>
<polygon fill="white" stroke="#bfbfbf" points="599.5,-0.5 599.5,-19.5 644.5,-19.5 644.5,-0.5 599.5,-0.5"/>
<text text-anchor="middle" x="622" y="-7.5" font-family="Helvetica,sans-Serif" font-size="10.00">climits</text>
</g>
<!-- Node8&#45;&gt;Node13 -->
<g id="edge15" class="edge"><title>Node8&#45;&gt;Node13</title>
<path fill="none" stroke="midnightblue" d="M526.087,-168.234C519.62,-147.044 506.346,-92.1289 529,-56 542.184,-34.9745 568.283,-23.5315 589.485,-17.4546"/>
<polygon fill="midnightblue" stroke="midnightblue" points="590.617,-20.7769 599.422,-14.8839 588.864,-14 590.617,-20.7769"/>
</g>
<!-- Node14 -->
<g id="node14" class="node"><title>Node14</title>
<g id="a_node14"><a xlink:href="teensy3__morse__bsp_8h.html" target="_top" xlink:title="Teensy 3.0 board support package. ">
<polygon fill="white" stroke="black" points="368.5,-112.5 368.5,-131.5 481.5,-131.5 481.5,-112.5 368.5,-112.5"/>
<text text-anchor="middle" x="425" y="-119.5" font-family="Helvetica,sans-Serif" font-size="10.00">teensy3_morse_bsp.h</text>
</a>
</g>
</g>
<!-- Node8&#45;&gt;Node14 -->
<g id="edge16" class="edge"><title>Node8&#45;&gt;Node14</title>
<path fill="none" stroke="midnightblue" d="M512.291,-168.324C495.688,-159.703 469.998,-146.364 450.78,-136.386"/>
<polygon fill="midnightblue" stroke="midnightblue" points="452.156,-133.156 441.668,-131.655 448.93,-139.369 452.156,-133.156"/>
</g>
<!-- Node8&#45;&gt;Node15 -->
<g id="edge18" class="edge"><title>Node8&#45;&gt;Node15</title>
<path fill="none" stroke="midnightblue" d="M552.609,-168.444C577.458,-159.438 616.774,-145.189 644.754,-135.049"/>
<polygon fill="midnightblue" stroke="midnightblue" points="646.292,-138.214 654.501,-131.516 643.907,-131.633 646.292,-138.214"/>
</g>
<!-- Node14&#45;&gt;Node3 -->
<g id="edge17" class="edge"><title>Node14&#45;&gt;Node3</title>
<path fill="none" stroke="midnightblue" d="M398.38,-112.444C369.994,-103.32 324.863,-88.8133 293.247,-78.6509"/>
<polygon fill="midnightblue" stroke="midnightblue" points="294.087,-75.2445 283.496,-75.5164 291.945,-81.9087 294.087,-75.2445"/>
</g>
<!-- Node15&#45;&gt;Node12 -->
<g id="edge19" class="edge"><title>Node15&#45;&gt;Node12</title>
<path fill="none" stroke="midnightblue" d="M660.005,-112.324C641.962,-103.625 613.953,-90.1202 593.197,-80.113"/>
<polygon fill="midnightblue" stroke="midnightblue" points="594.478,-76.8449 583.95,-75.6545 591.438,-83.1502 594.478,-76.8449"/>
</g>
<!-- Node15&#45;&gt;Node13 -->
<g id="edge20" class="edge"><title>Node15&#45;&gt;Node13</title>
<path fill="none" stroke="midnightblue" d="M669.462,-112.408C661.373,-103.839 649.392,-89.9727 642,-76 634.236,-61.324 628.966,-43.1579 625.794,-29.7645"/>
<polygon fill="midnightblue" stroke="midnightblue" points="629.174,-28.8365 623.614,-19.8179 622.336,-30.3354 629.174,-28.8365"/>
</g>
<!-- Node16 -->
<g id="node16" class="node"><title>Node16</title>
<polygon fill="white" stroke="#bfbfbf" points="650.5,-56.5 650.5,-75.5 699.5,-75.5 699.5,-56.5 650.5,-56.5"/>
<text text-anchor="middle" x="675" y="-63.5" font-family="Helvetica,sans-Serif" font-size="10.00">cstddef</text>
</g>
<!-- Node15&#45;&gt;Node16 -->
<g id="edge21" class="edge"><title>Node15&#45;&gt;Node16</title>
<path fill="none" stroke="midnightblue" d="M677.505,-112.083C677.111,-105.006 676.548,-94.8611 676.055,-85.9865"/>
<polygon fill="midnightblue" stroke="midnightblue" points="679.536,-85.5415 675.486,-75.7511 672.546,-85.9299 679.536,-85.5415"/>
</g>
<!-- Node15&#45;&gt;Node17 -->
<g id="edge22" class="edge"><title>Node15&#45;&gt;Node17</title>
<path fill="none" stroke="midnightblue" d="M688.925,-112.324C699.175,-104.185 714.721,-91.8395 727.001,-82.0874"/>
<polygon fill="midnightblue" stroke="midnightblue" points="729.221,-84.7937 734.876,-75.8339 724.868,-79.3119 729.221,-84.7937"/>
</g>
<!-- Node17&#45;&gt;Node9 -->
<g id="edge23" class="edge"><title>Node17&#45;&gt;Node9</title>
<path fill="none" stroke="midnightblue" d="M750.624,-56.083C754.456,-48.6913 760.024,-37.9533 764.765,-28.8111"/>
<polygon fill="midnightblue" stroke="midnightblue" points="767.966,-30.2398 769.462,-19.7511 761.752,-27.0175 767.966,-30.2398"/>
</g>
<!-- Node17&#45;&gt;Node13 -->
<g id="edge24" class="edge"><title>Node17&#45;&gt;Node13</title>
<path fill="none" stroke="midnightblue" d="M726.352,-56.4435C706.035,-47.5961 674.097,-33.6875 650.902,-23.5865"/>
<polygon fill="midnightblue" stroke="midnightblue" points="652.122,-20.3002 641.556,-19.5164 649.327,-26.7181 652.122,-20.3002"/>
</g>
</g>
</svg>
        <g id="navigator" transform="translate(0 0)" fill="#404254">
                <rect fill="#f2f5e9" fill-opacity="0.5" stroke="#606060" stroke-width=".5" x="0" y="0" width="60" height="60"/>
                <use id="zoomplus" xlink:href="#zoomPlus" x="17" y="9" onmousedown="handleZoom(evt,'in')"/>
                <use id="zoomminus" xlink:href="#zoomMin" x="42" y="9" onmousedown="handleZoom(evt,'out')"/>
                <use id="reset" xlink:href="#resetDef" x="30" y="36" onmousedown="handleReset()"/>
                <g id="arrowUp" xlink:href="#dirArrow" transform="translate(30 24)" onmousedown="handlePan(0,-1)">
                  <use xlink:href="#rim" fill="#404040">
                        <set attributeName="fill" to="#808080" begin="arrowUp.mouseover" end="arrowUp.mouseout"/>
                  </use>
                  <path fill="none" stroke="white" stroke-width="1.5" d="M0,-3.0v7 M-2.5,-0.5L0,-3.0L2.5,-0.5"/>
                </g>
                <g id="arrowRight" xlink:href="#dirArrow" transform="rotate(90) translate(36 -43)" onmousedown="handlePan(1,0)">
                  <use xlink:href="#rim" fill="#404040">
                        <set attributeName="fill" to="#808080" begin="arrowRight.mouseover" end="arrowRight.mouseout"/>
                  </use>
                  <path fill="none" stroke="white" stroke-width="1.5" d="M0,-3.0v7 M-2.5,-0.5L0,-3.0L2.5,-0.5"/>
                </g>
                <g id="arrowDown" xlink:href="#dirArrow" transform="rotate(180) translate(-30 -48)" onmousedown="handlePan(0,1)">
                  <use xlink:href="#rim" fill="#404040">
                        <set attributeName="fill" to="#808080" begin="arrowDown.mouseover" end="arrowDown.mouseout"/>
                  </use>
                  <path fill="none" stroke="white" stroke-width="1.5" d="M0,-3.0v7 M-2.5,-0.5L0,-3.0L2.5,-0.5"/>
                </g>
                <g id="arrowLeft" xlink:href="#dirArrow" transform="rotate(270) translate(-36 17)" onmousedown="handlePan(-1,0)">
                  <use xlink:href="#rim" fill="#404040">
                        <set attributeName="fill" to="#808080" begin="arrowLeft.mouseover" end="arrowLeft.mouseout"/>
                  </use>
                  <path fill="none" stroke="white" stroke-width="1.5" d="M0,-3.0v7 M-2.5,-0.5L0,-3.0L2.5,-0.5"/>
                </g>
        </g>
        <svg viewBox="0 0 15 15" width="100%" height="30px" preserveAspectRatio="xMaxYMin meet">
         <g id="arrow_out" transform="scale(0.3 0.3)">
          <a xlink:href="didah_8ino__incl_org.svg" target="_base">
           <rect id="button" ry="5" rx="5" y="6" x="6" height="38" width="38"
                fill="#f2f5e9" fill-opacity="0.5" stroke="#606060" stroke-width="1.0"/>
           <path id="arrow"
             d="M 11.500037,31.436501 C 11.940474,20.09759 22.043105,11.32322 32.158766,21.979434 L 37.068811,17.246167 C 37.068811,17.246167 37.088388,32 37.088388,32 L 22.160133,31.978069 C 22.160133,31.978069 26.997745,27.140456 26.997745,27.140456 C 18.528582,18.264221 13.291696,25.230495 11.500037,31.436501 z"
             style="fill:#404040;"/>
          </a>
         </g>
        </svg>
</svg>
