<?xml version="1.0" encoding="UTF-8" standalone="no"?>
<!DOCTYPE svg PUBLIC "-//W3C//DTD SVG 1.1//EN"
 "http://www.w3.org/Graphics/SVG/1.1/DTD/svg11.dtd">
<!-- Generated by graphviz version 2.38.0 (20140413.2041)
 -->
<!-- Title: EEPROMAnything.h Pages: 1 -->
<svg width="308pt" height="84pt"
 viewBox="0.00 0.00 307.50 84.00" xmlns="http://www.w3.org/2000/svg" xmlns:xlink="http://www.w3.org/1999/xlink">
<g id="graph0" class="graph" transform="scale(1 1) rotate(0) translate(4 80)">
<title>EEPROMAnything.h</title>
<polygon fill="white" stroke="none" points="-4,4 -4,-80 303.5,-80 303.5,4 -4,4"/>
<!-- Node1 -->
<g id="node1" class="node"><title>Node1</title>
<polygon fill="#bfbfbf" stroke="black" points="96,-56.5 96,-75.5 203,-75.5 203,-56.5 96,-56.5"/>
<text text-anchor="middle" x="149.5" y="-63.5" font-family="Helvetica,sans-Serif" font-size="10.00">EEPROMAnything.h</text>
</g>
<!-- Node2 -->
<g id="node2" class="node"><title>Node2</title>
<g id="a_node2"><a xlink:href="actions_8cpp.html" target="_top" xlink:title="Implementation of application&#45;specific actions. ">
<polygon fill="white" stroke="black" points="0,-0.5 0,-19.5 67,-19.5 67,-0.5 0,-0.5"/>
<text text-anchor="middle" x="33.5" y="-7.5" font-family="Helvetica,sans-Serif" font-size="10.00">actions.cpp</text>
</a>
</g>
</g>
<!-- Node1&#45;&gt;Node2 -->
<g id="edge1" class="edge"><title>Node1&#45;&gt;Node2</title>
<path fill="none" stroke="midnightblue" d="M121.78,-52.096C100.108,-42.0073 70.5979,-28.2697 51.7946,-19.5164"/>
<polygon fill="midnightblue" stroke="midnightblue" points="120.577,-55.3962 131.119,-56.4435 123.531,-49.0501 120.577,-55.3962"/>
</g>
<!-- Node3 -->
<g id="node3" class="node"><title>Node3</title>
<g id="a_node3"><a xlink:href="didah_8ino.html" target="_top" xlink:title="Top&#45;level entry points for the Morse code PDA/Application. ">
<polygon fill="white" stroke="black" points="85.5,-0.5 85.5,-19.5 141.5,-19.5 141.5,-0.5 85.5,-0.5"/>
<text text-anchor="middle" x="113.5" y="-7.5" font-family="Helvetica,sans-Serif" font-size="10.00">didah.ino</text>
</a>
</g>
</g>
<!-- Node1&#45;&gt;Node3 -->
<g id="edge2" class="edge"><title>Node1&#45;&gt;Node3</title>
<path fill="none" stroke="midnightblue" d="M137.877,-47.5656C131.683,-38.2747 124.332,-27.2484 119.334,-19.7511"/>
<polygon fill="midnightblue" stroke="midnightblue" points="135.096,-49.7039 143.555,-56.083 140.92,-45.821 135.096,-49.7039"/>
</g>
<!-- Node4 -->
<g id="node4" class="node"><title>Node4</title>
<g id="a_node4"><a xlink:href="pda_8cpp.html" target="_top" xlink:title="Implementation of Personal Digital Assistant functions. ">
<polygon fill="white" stroke="black" points="160,-0.5 160,-19.5 211,-19.5 211,-0.5 160,-0.5"/>
<text text-anchor="middle" x="185.5" y="-7.5" font-family="Helvetica,sans-Serif" font-size="10.00">pda.cpp</text>
</a>
</g>
</g>
<!-- Node1&#45;&gt;Node4 -->
<g id="edge3" class="edge"><title>Node1&#45;&gt;Node4</title>
<path fill="none" stroke="midnightblue" d="M161.123,-47.5656C167.317,-38.2747 174.668,-27.2484 179.666,-19.7511"/>
<polygon fill="midnightblue" stroke="midnightblue" points="158.08,-45.821 155.445,-56.083 163.904,-49.7039 158.08,-45.821"/>
</g>
<!-- Node5 -->
<g id="node5" class="node"><title>Node5</title>
<g id="a_node5"><a xlink:href="settings_8cpp.html" target="_top" xlink:title="Implementation of user settings. ">
<polygon fill="white" stroke="black" points="229.5,-0.5 229.5,-19.5 299.5,-19.5 299.5,-0.5 229.5,-0.5"/>
<text text-anchor="middle" x="264.5" y="-7.5" font-family="Helvetica,sans-Serif" font-size="10.00">settings.cpp</text>
</a>
</g>
</g>
<!-- Node1&#45;&gt;Node5 -->
<g id="edge4" class="edge"><title>Node1&#45;&gt;Node5</title>
<path fill="none" stroke="midnightblue" d="M176.981,-52.096C198.466,-42.0073 227.722,-28.2697 246.363,-19.5164"/>
<polygon fill="midnightblue" stroke="midnightblue" points="175.286,-49.025 167.722,-56.4435 178.262,-55.3612 175.286,-49.025"/>
</g>
</g>
</svg>
