<?xml version="1.0" encoding="UTF-8" standalone="no"?>
<!DOCTYPE svg PUBLIC "-//W3C//DTD SVG 1.1//EN"
 "http://www.w3.org/Graphics/SVG/1.1/DTD/svg11.dtd">
<!-- Generated by graphviz version 2.38.0 (20140413.2041)
 -->
<!-- Title: EEPROMAnything.h Pages: 1 -->
<svg width="233pt" height="84pt"
 viewBox="0.00 0.00 232.50 84.00" xmlns="http://www.w3.org/2000/svg" xmlns:xlink="http://www.w3.org/1999/xlink">
<g id="graph0" class="graph" transform="scale(1 1) rotate(0) translate(4 80)">
<title>EEPROMAnything.h</title>
<polygon fill="white" stroke="none" points="-4,4 -4,-80 228.5,-80 228.5,4 -4,4"/>
<!-- Node1 -->
<g id="node1" class="node"><title>Node1</title>
<polygon fill="#bfbfbf" stroke="black" points="57,-56.5 57,-75.5 164,-75.5 164,-56.5 57,-56.5"/>
<text text-anchor="middle" x="110.5" y="-63.5" font-family="Helvetica,sans-Serif" font-size="10.00">EEPROMAnything.h</text>
</g>
<!-- Node2 -->
<g id="node2" class="node"><title>Node2</title>
<g id="a_node2"><a xlink:href="actions_8cpp.html" target="_top" xlink:title="Implementation of application&#45;specific actions. ">
<polygon fill="white" stroke="black" points="0,-0.5 0,-19.5 67,-19.5 67,-0.5 0,-0.5"/>
<text text-anchor="middle" x="33.5" y="-7.5" font-family="Helvetica,sans-Serif" font-size="10.00">actions.cpp</text>
</a>
</g>
</g>
<!-- Node1&#45;&gt;Node2 -->
<g id="edge1" class="edge"><title>Node1&#45;&gt;Node2</title>
<path fill="none" stroke="midnightblue" d="M89.599,-50.3422C75.5889,-40.5169 57.617,-27.9132 45.8407,-19.6545"/>
<polygon fill="midnightblue" stroke="midnightblue" points="87.9317,-53.4477 98.1286,-56.324 91.9509,-47.7166 87.9317,-53.4477"/>
</g>
<!-- Node3 -->
<g id="node3" class="node"><title>Node3</title>
<g id="a_node3"><a xlink:href="pda_8cpp.html" target="_top" xlink:title="Implementation of Personal Digital Assistant functions. ">
<polygon fill="white" stroke="black" points="85,-0.5 85,-19.5 136,-19.5 136,-0.5 85,-0.5"/>
<text text-anchor="middle" x="110.5" y="-7.5" font-family="Helvetica,sans-Serif" font-size="10.00">pda.cpp</text>
</a>
</g>
</g>
<!-- Node1&#45;&gt;Node3 -->
<g id="edge2" class="edge"><title>Node1&#45;&gt;Node3</title>
<path fill="none" stroke="midnightblue" d="M110.5,-45.8045C110.5,-36.9102 110.5,-26.7798 110.5,-19.7511"/>
<polygon fill="midnightblue" stroke="midnightblue" points="107,-46.083 110.5,-56.083 114,-46.083 107,-46.083"/>
</g>
<!-- Node4 -->
<g id="node4" class="node"><title>Node4</title>
<g id="a_node4"><a xlink:href="settings_8cpp.html" target="_top" xlink:title="Implementation of user settings. ">
<polygon fill="white" stroke="black" points="154.5,-0.5 154.5,-19.5 224.5,-19.5 224.5,-0.5 154.5,-0.5"/>
<text text-anchor="middle" x="189.5" y="-7.5" font-family="Helvetica,sans-Serif" font-size="10.00">settings.cpp</text>
</a>
</g>
</g>
<!-- Node1&#45;&gt;Node4 -->
<g id="edge3" class="edge"><title>Node1&#45;&gt;Node4</title>
<path fill="none" stroke="midnightblue" d="M131.534,-50.6221C145.966,-40.7574 164.641,-27.9919 176.839,-19.6545"/>
<polygon fill="midnightblue" stroke="midnightblue" points="129.473,-47.7914 123.193,-56.324 133.423,-53.5703 129.473,-47.7914"/>
</g>
</g>
</svg>
