<?xml version="1.0" encoding="UTF-8" standalone="no"?>
<!DOCTYPE svg PUBLIC "-//W3C//DTD SVG 1.1//EN"
 "http://www.w3.org/Graphics/SVG/1.1/DTD/svg11.dtd">
<!-- Generated by graphviz version 2.38.0 (20140413.2041)
 -->
<!-- Title: SIM Pages: 1 -->
<svg width="354pt" height="78pt"
 viewBox="0.00 0.00 354.00 77.50" xmlns="http://www.w3.org/2000/svg" xmlns:xlink="http://www.w3.org/1999/xlink">
<g id="graph0" class="graph" transform="scale(1 1) rotate(0) translate(4 73.5)">
<title>SIM</title>
<polygon fill="white" stroke="none" points="-4,4 -4,-73.5 350,-73.5 350,4 -4,4"/>
<!-- Node1 -->
<g id="node1" class="node"><title>Node1</title>
<g id="a_node1"><a xlink:href="group___peripheral__defines.html" target="_top" xlink:title="Peripheral type defines">
<polygon fill="white" stroke="black" points="0,-28 0,-47 116,-47 116,-28 0,-28"/>
<text text-anchor="middle" x="58" y="-35" font-family="Helvetica,sans-Serif" font-size="10.00">Peripheral type defines</text>
</a>
</g>
</g>
<!-- Node0 -->
<g id="node4" class="node"><title>Node0</title>
<polygon fill="#bfbfbf" stroke="black" points="152,-28 152,-47 187,-47 187,-28 152,-28"/>
<text text-anchor="middle" x="169.5" y="-35" font-family="Helvetica,sans-Serif" font-size="10.00">SIM</text>
</g>
<!-- Node1&#45;&gt;Node0 -->
<g id="edge1" class="edge"><title>Node1&#45;&gt;Node0</title>
<path fill="none" stroke="black" d="M126.61,-37.5C135.956,-37.5 144.773,-37.5 151.884,-37.5"/>
<polygon fill="black" stroke="black" points="126.316,-34.0001 116.316,-37.5 126.316,-41.0001 126.316,-34.0001"/>
</g>
<!-- Node3 -->
<g id="node2" class="node"><title>Node3</title>
<g id="a_node2"><a xlink:href="group___s_i_m___register___masks.html" target="_top" xlink:title="SIM Register Masks">
<polygon fill="white" stroke="black" points="231,-50 231,-69 338,-69 338,-50 231,-50"/>
<text text-anchor="middle" x="284.5" y="-57" font-family="Helvetica,sans-Serif" font-size="10.00">SIM Register Masks</text>
</a>
</g>
</g>
<!-- Node2 -->
<g id="node3" class="node"><title>Node2</title>
<g id="a_node3"><a xlink:href="group___s_i_m___register___accessor___macros.html" target="_top" xlink:title="SIM &#45; Register accessor\l macros">
<polygon fill="white" stroke="black" points="223,-0.5 223,-30.5 346,-30.5 346,-0.5 223,-0.5"/>
<text text-anchor="start" x="231" y="-18.5" font-family="Helvetica,sans-Serif" font-size="10.00">SIM &#45; Register accessor</text>
<text text-anchor="middle" x="284.5" y="-7.5" font-family="Helvetica,sans-Serif" font-size="10.00"> macros</text>
</a>
</g>
</g>
<!-- Node0&#45;&gt;Node3 -->
<g id="edge3" class="edge"><title>Node0&#45;&gt;Node3</title>
<path fill="none" stroke="black" d="M197.119,-42.6825C208.284,-44.8561 221.633,-47.4551 234.46,-49.9525"/>
<polygon fill="black" stroke="black" points="197.658,-39.2218 187.174,-40.7462 196.32,-46.0928 197.658,-39.2218"/>
</g>
<!-- Node0&#45;&gt;Node2 -->
<g id="edge2" class="edge"><title>Node0&#45;&gt;Node2</title>
<path fill="none" stroke="black" d="M197.113,-32.3188C204.956,-30.7917 213.88,-29.0544 222.943,-27.29"/>
<polygon fill="black" stroke="black" points="196.32,-28.9072 187.174,-34.2538 197.658,-35.7782 196.32,-28.9072"/>
</g>
</g>
</svg>
