<?xml version="1.0" encoding="UTF-8" standalone="no"?>
<!DOCTYPE svg PUBLIC "-//W3C//DTD SVG 1.1//EN"
 "http://www.w3.org/Graphics/SVG/1.1/DTD/svg11.dtd">
<!-- Generated by graphviz version 2.38.0 (20140413.2041)
 -->
<!-- Title: PIT Pages: 1 -->
<svg width="349pt" height="78pt"
 viewBox="0.00 0.00 349.00 77.50" xmlns="http://www.w3.org/2000/svg" xmlns:xlink="http://www.w3.org/1999/xlink">
<g id="graph0" class="graph" transform="scale(1 1) rotate(0) translate(4 73.5)">
<title>PIT</title>
<polygon fill="white" stroke="none" points="-4,4 -4,-73.5 345,-73.5 345,4 -4,4"/>
<!-- Node0 -->
<g id="node1" class="node"><title>Node0</title>
<polygon fill="#bfbfbf" stroke="black" points="152,-22.5 152,-41.5 184,-41.5 184,-22.5 152,-22.5"/>
<text text-anchor="middle" x="168" y="-29.5" font-family="Helvetica,sans-Serif" font-size="10.00">PIT</text>
</g>
<!-- Node2 -->
<g id="node3" class="node"><title>Node2</title>
<g id="a_node3"><a xlink:href="group___p_i_t___register___accessor___macros.html" target="_top" xlink:title="PIT &#45; Register accessor\l macros">
<polygon fill="white" stroke="black" points="220,-39 220,-69 341,-69 341,-39 220,-39"/>
<text text-anchor="start" x="228" y="-57" font-family="Helvetica,sans-Serif" font-size="10.00">PIT &#45; Register accessor</text>
<text text-anchor="middle" x="280.5" y="-46" font-family="Helvetica,sans-Serif" font-size="10.00"> macros</text>
</a>
</g>
</g>
<!-- Node0&#45;&gt;Node2 -->
<g id="edge2" class="edge"><title>Node0&#45;&gt;Node2</title>
<path fill="none" stroke="black" d="M194.417,-37.0604C202.118,-38.5937 210.924,-40.3468 219.884,-42.1307"/>
<polygon fill="black" stroke="black" points="194.856,-33.5791 184.365,-35.059 193.489,-40.4443 194.856,-33.5791"/>
</g>
<!-- Node3 -->
<g id="node4" class="node"><title>Node3</title>
<g id="a_node4"><a xlink:href="group___p_i_t___register___masks.html" target="_top" xlink:title="PIT Register Masks">
<polygon fill="white" stroke="black" points="228.5,-0.5 228.5,-19.5 332.5,-19.5 332.5,-0.5 228.5,-0.5"/>
<text text-anchor="middle" x="280.5" y="-7.5" font-family="Helvetica,sans-Serif" font-size="10.00">PIT Register Masks</text>
</a>
</g>
</g>
<!-- Node0&#45;&gt;Node3 -->
<g id="edge3" class="edge"><title>Node0&#45;&gt;Node3</title>
<path fill="none" stroke="black" d="M194.231,-26.9766C205.368,-24.7594 218.841,-22.077 231.756,-19.5056"/>
<polygon fill="black" stroke="black" points="193.489,-23.5557 184.365,-28.941 194.856,-30.4209 193.489,-23.5557"/>
</g>
<!-- Node1 -->
<g id="node2" class="node"><title>Node1</title>
<g id="a_node2"><a xlink:href="group___peripheral__defines.html" target="_top" xlink:title="Peripheral type defines">
<polygon fill="white" stroke="black" points="0,-22.5 0,-41.5 116,-41.5 116,-22.5 0,-22.5"/>
<text text-anchor="middle" x="58" y="-29.5" font-family="Helvetica,sans-Serif" font-size="10.00">Peripheral type defines</text>
</a>
</g>
</g>
<!-- Node1&#45;&gt;Node0 -->
<g id="edge1" class="edge"><title>Node1&#45;&gt;Node0</title>
<path fill="none" stroke="black" d="M126.233,-32C135.746,-32 144.675,-32 151.737,-32"/>
<polygon fill="black" stroke="black" points="126.162,-28.5001 116.162,-32 126.162,-35.5001 126.162,-28.5001"/>
</g>
</g>
</svg>
