<?xml version="1.0" encoding="UTF-8" standalone="no"?>
<!DOCTYPE svg PUBLIC "-//W3C//DTD SVG 1.1//EN"
 "http://www.w3.org/Graphics/SVG/1.1/DTD/svg11.dtd">
<!-- Generated by graphviz version 2.38.0 (20140413.2041)
 -->
<!-- Title: SPI Pages: 1 -->
<svg width="351pt" height="78pt"
 viewBox="0.00 0.00 351.00 77.50" xmlns="http://www.w3.org/2000/svg" xmlns:xlink="http://www.w3.org/1999/xlink">
<g id="graph0" class="graph" transform="scale(1 1) rotate(0) translate(4 73.5)">
<title>SPI</title>
<polygon fill="white" stroke="none" points="-4,4 -4,-73.5 347,-73.5 347,4 -4,4"/>
<!-- Node2 -->
<g id="node1" class="node"><title>Node2</title>
<g id="a_node1"><a xlink:href="group___s_p_i___register___accessor___macros.html" target="_top" xlink:title="SPI &#45; Register accessor\l macros">
<polygon fill="white" stroke="black" points="221,-39 221,-69 343,-69 343,-39 221,-39"/>
<text text-anchor="start" x="229" y="-57" font-family="Helvetica,sans-Serif" font-size="10.00">SPI &#45; Register accessor</text>
<text text-anchor="middle" x="282" y="-46" font-family="Helvetica,sans-Serif" font-size="10.00"> macros</text>
</a>
</g>
</g>
<!-- Node1 -->
<g id="node2" class="node"><title>Node1</title>
<g id="a_node2"><a xlink:href="group___peripheral__defines.html" target="_top" xlink:title="Peripheral type defines">
<polygon fill="white" stroke="black" points="0,-22.5 0,-41.5 116,-41.5 116,-22.5 0,-22.5"/>
<text text-anchor="middle" x="58" y="-29.5" font-family="Helvetica,sans-Serif" font-size="10.00">Peripheral type defines</text>
</a>
</g>
</g>
<!-- Node0 -->
<g id="node4" class="node"><title>Node0</title>
<polygon fill="#bfbfbf" stroke="black" points="152,-22.5 152,-41.5 185,-41.5 185,-22.5 152,-22.5"/>
<text text-anchor="middle" x="168.5" y="-29.5" font-family="Helvetica,sans-Serif" font-size="10.00">SPI</text>
</g>
<!-- Node1&#45;&gt;Node0 -->
<g id="edge1" class="edge"><title>Node1&#45;&gt;Node0</title>
<path fill="none" stroke="black" d="M126.122,-32C135.587,-32 144.497,-32 151.607,-32"/>
<polygon fill="black" stroke="black" points="126.11,-28.5001 116.11,-32 126.11,-35.5001 126.11,-28.5001"/>
</g>
<!-- Node3 -->
<g id="node3" class="node"><title>Node3</title>
<g id="a_node3"><a xlink:href="group___s_p_i___register___masks.html" target="_top" xlink:title="SPI Register Masks">
<polygon fill="white" stroke="black" points="229.5,-0.5 229.5,-19.5 334.5,-19.5 334.5,-0.5 229.5,-0.5"/>
<text text-anchor="middle" x="282" y="-7.5" font-family="Helvetica,sans-Serif" font-size="10.00">SPI Register Masks</text>
</a>
</g>
</g>
<!-- Node0&#45;&gt;Node2 -->
<g id="edge2" class="edge"><title>Node0&#45;&gt;Node2</title>
<path fill="none" stroke="black" d="M194.88,-37.0076C202.714,-38.5534 211.699,-40.3263 220.844,-42.1307"/>
<polygon fill="black" stroke="black" points="195.492,-33.5611 185.004,-35.059 194.137,-40.4287 195.492,-33.5611"/>
</g>
<!-- Node0&#45;&gt;Node3 -->
<g id="edge3" class="edge"><title>Node0&#45;&gt;Node3</title>
<path fill="none" stroke="black" d="M194.96,-26.9766C206.197,-24.7594 219.792,-22.077 232.824,-19.5056"/>
<polygon fill="black" stroke="black" points="194.137,-23.5713 185.004,-28.941 195.492,-30.4389 194.137,-23.5713"/>
</g>
</g>
</svg>
