<?xml version="1.0" encoding="UTF-8" standalone="no"?>
<!DOCTYPE svg PUBLIC "-//W3C//DTD SVG 1.1//EN"
 "http://www.w3.org/Graphics/SVG/1.1/DTD/svg11.dtd">
<!-- Generated by graphviz version 2.38.0 (20140413.2041)
 -->
<!-- Title: RFVBAT Pages: 1 -->
<svg width="397pt" height="78pt"
 viewBox="0.00 0.00 397.00 77.50" xmlns="http://www.w3.org/2000/svg" xmlns:xlink="http://www.w3.org/1999/xlink">
<g id="graph0" class="graph" transform="scale(1 1) rotate(0) translate(4 73.5)">
<title>RFVBAT</title>
<polygon fill="white" stroke="none" points="-4,4 -4,-73.5 393,-73.5 393,4 -4,4"/>
<!-- Node0 -->
<g id="node1" class="node"><title>Node0</title>
<polygon fill="#bfbfbf" stroke="black" points="152,-22.5 152,-41.5 208,-41.5 208,-22.5 152,-22.5"/>
<text text-anchor="middle" x="180" y="-29.5" font-family="Helvetica,sans-Serif" font-size="10.00">RFVBAT</text>
</g>
<!-- Node2 -->
<g id="node3" class="node"><title>Node2</title>
<g id="a_node3"><a xlink:href="group___r_f_v_b_a_t___register___accessor___macros.html" target="_top" xlink:title="RFVBAT &#45; Register accessor\l macros">
<polygon fill="white" stroke="black" points="244,-39 244,-69 389,-69 389,-39 244,-39"/>
<text text-anchor="start" x="252" y="-57" font-family="Helvetica,sans-Serif" font-size="10.00">RFVBAT &#45; Register accessor</text>
<text text-anchor="middle" x="316.5" y="-46" font-family="Helvetica,sans-Serif" font-size="10.00"> macros</text>
</a>
</g>
</g>
<!-- Node0&#45;&gt;Node2 -->
<g id="edge2" class="edge"><title>Node0&#45;&gt;Node2</title>
<path fill="none" stroke="black" d="M218.273,-38.0966C226.272,-39.405 234.982,-40.8298 243.795,-42.2713"/>
<polygon fill="black" stroke="black" points="218.652,-34.6122 208.218,-36.452 217.522,-41.5204 218.652,-34.6122"/>
</g>
<!-- Node3 -->
<g id="node4" class="node"><title>Node3</title>
<g id="a_node4"><a xlink:href="group___r_f_v_b_a_t___register___masks.html" target="_top" xlink:title="RFVBAT Register Masks">
<polygon fill="white" stroke="black" points="252.5,-0.5 252.5,-19.5 380.5,-19.5 380.5,-0.5 252.5,-0.5"/>
<text text-anchor="middle" x="316.5" y="-7.5" font-family="Helvetica,sans-Serif" font-size="10.00">RFVBAT Register Masks</text>
</a>
</g>
</g>
<!-- Node0&#45;&gt;Node3 -->
<g id="edge3" class="edge"><title>Node0&#45;&gt;Node3</title>
<path fill="none" stroke="black" d="M218.336,-25.893C230.38,-23.923 244.032,-21.69 257.215,-19.5336"/>
<polygon fill="black" stroke="black" points="217.522,-22.4796 208.218,-27.548 218.652,-29.3878 217.522,-22.4796"/>
</g>
<!-- Node1 -->
<g id="node2" class="node"><title>Node1</title>
<g id="a_node2"><a xlink:href="group___peripheral__defines.html" target="_top" xlink:title="Peripheral type defines">
<polygon fill="white" stroke="black" points="0,-22.5 0,-41.5 116,-41.5 116,-22.5 0,-22.5"/>
<text text-anchor="middle" x="58" y="-29.5" font-family="Helvetica,sans-Serif" font-size="10.00">Peripheral type defines</text>
</a>
</g>
</g>
<!-- Node1&#45;&gt;Node0 -->
<g id="edge1" class="edge"><title>Node1&#45;&gt;Node0</title>
<path fill="none" stroke="black" d="M126.382,-32C135.364,-32 144.123,-32 151.836,-32"/>
<polygon fill="black" stroke="black" points="126.188,-28.5001 116.188,-32 126.188,-35.5001 126.188,-28.5001"/>
</g>
</g>
</svg>
