<?xml version="1.0" encoding="UTF-8" standalone="no"?>
<!DOCTYPE svg PUBLIC "-//W3C//DTD SVG 1.1//EN"
 "http://www.w3.org/Graphics/SVG/1.1/DTD/svg11.dtd">
<!-- Generated by graphviz version 2.38.0 (20140413.2041)
 -->
<!-- Title: FTM Pages: 1 -->
<svg width="358pt" height="78pt"
 viewBox="0.00 0.00 358.00 77.50" xmlns="http://www.w3.org/2000/svg" xmlns:xlink="http://www.w3.org/1999/xlink">
<g id="graph0" class="graph" transform="scale(1 1) rotate(0) translate(4 73.5)">
<title>FTM</title>
<polygon fill="white" stroke="none" points="-4,4 -4,-73.5 354,-73.5 354,4 -4,4"/>
<!-- Node1 -->
<g id="node1" class="node"><title>Node1</title>
<g id="a_node1"><a xlink:href="group___peripheral__defines.html" target="_top" xlink:title="Peripheral type defines">
<polygon fill="white" stroke="black" points="0,-22.5 0,-41.5 116,-41.5 116,-22.5 0,-22.5"/>
<text text-anchor="middle" x="58" y="-29.5" font-family="Helvetica,sans-Serif" font-size="10.00">Peripheral type defines</text>
</a>
</g>
</g>
<!-- Node0 -->
<g id="node2" class="node"><title>Node0</title>
<polygon fill="#bfbfbf" stroke="black" points="152,-22.5 152,-41.5 189,-41.5 189,-22.5 152,-22.5"/>
<text text-anchor="middle" x="170.5" y="-29.5" font-family="Helvetica,sans-Serif" font-size="10.00">FTM</text>
</g>
<!-- Node1&#45;&gt;Node0 -->
<g id="edge1" class="edge"><title>Node1&#45;&gt;Node0</title>
<path fill="none" stroke="black" d="M126.35,-32C135.587,-32 144.35,-32 151.535,-32"/>
<polygon fill="black" stroke="black" points="126.192,-28.5001 116.192,-32 126.192,-35.5001 126.192,-28.5001"/>
</g>
<!-- Node2 -->
<g id="node3" class="node"><title>Node2</title>
<g id="a_node3"><a xlink:href="group___f_t_m___register___accessor___macros.html" target="_top" xlink:title="FTM &#45; Register accessor\l macros">
<polygon fill="white" stroke="black" points="225,-39 225,-69 350,-69 350,-39 225,-39"/>
<text text-anchor="start" x="233" y="-57" font-family="Helvetica,sans-Serif" font-size="10.00">FTM &#45; Register accessor</text>
<text text-anchor="middle" x="287.5" y="-46" font-family="Helvetica,sans-Serif" font-size="10.00"> macros</text>
</a>
</g>
</g>
<!-- Node0&#45;&gt;Node2 -->
<g id="edge2" class="edge"><title>Node0&#45;&gt;Node2</title>
<path fill="none" stroke="black" d="M199.366,-37.3308C207.134,-38.817 215.895,-40.493 224.792,-42.195"/>
<polygon fill="black" stroke="black" points="199.948,-33.8789 189.469,-35.4375 198.633,-40.7542 199.948,-33.8789"/>
</g>
<!-- Node3 -->
<g id="node4" class="node"><title>Node3</title>
<g id="a_node4"><a xlink:href="group___f_t_m___register___masks.html" target="_top" xlink:title="FTM Register Masks">
<polygon fill="white" stroke="black" points="233,-0.5 233,-19.5 342,-19.5 342,-0.5 233,-0.5"/>
<text text-anchor="middle" x="287.5" y="-7.5" font-family="Helvetica,sans-Serif" font-size="10.00">FTM Register Masks</text>
</a>
</g>
</g>
<!-- Node0&#45;&gt;Node3 -->
<g id="edge3" class="edge"><title>Node0&#45;&gt;Node3</title>
<path fill="none" stroke="black" d="M199.488,-26.6458C210.679,-24.5049 223.916,-21.9725 236.645,-19.5376"/>
<polygon fill="black" stroke="black" points="198.633,-23.2458 189.469,-28.5625 199.948,-30.1211 198.633,-23.2458"/>
</g>
</g>
</svg>
