<?xml version="1.0" encoding="UTF-8" standalone="no"?>
<!DOCTYPE svg PUBLIC "-//W3C//DTD SVG 1.1//EN"
 "http://www.w3.org/Graphics/SVG/1.1/DTD/svg11.dtd">
<!-- Generated by graphviz version 2.38.0 (20140413.2041)
 -->
<!-- Title: ETB Pages: 1 -->
<svg width="357pt" height="78pt"
 viewBox="0.00 0.00 357.00 77.50" xmlns="http://www.w3.org/2000/svg" xmlns:xlink="http://www.w3.org/1999/xlink">
<g id="graph0" class="graph" transform="scale(1 1) rotate(0) translate(4 73.5)">
<title>ETB</title>
<polygon fill="white" stroke="none" points="-4,4 -4,-73.5 353,-73.5 353,4 -4,4"/>
<!-- Node1 -->
<g id="node1" class="node"><title>Node1</title>
<g id="a_node1"><a xlink:href="group___peripheral__defines.html" target="_top" xlink:title="Peripheral type defines">
<polygon fill="white" stroke="black" points="0,-22.5 0,-41.5 116,-41.5 116,-22.5 0,-22.5"/>
<text text-anchor="middle" x="58" y="-29.5" font-family="Helvetica,sans-Serif" font-size="10.00">Peripheral type defines</text>
</a>
</g>
</g>
<!-- Node0 -->
<g id="node3" class="node"><title>Node0</title>
<polygon fill="#bfbfbf" stroke="black" points="152,-22.5 152,-41.5 188,-41.5 188,-22.5 152,-22.5"/>
<text text-anchor="middle" x="170" y="-29.5" font-family="Helvetica,sans-Serif" font-size="10.00">ETB</text>
</g>
<!-- Node1&#45;&gt;Node0 -->
<g id="edge1" class="edge"><title>Node1&#45;&gt;Node0</title>
<path fill="none" stroke="black" d="M126.483,-32C135.776,-32 144.568,-32 151.718,-32"/>
<polygon fill="black" stroke="black" points="126.255,-28.5001 116.255,-32 126.255,-35.5001 126.255,-28.5001"/>
</g>
<!-- Node2 -->
<g id="node2" class="node"><title>Node2</title>
<g id="a_node2"><a xlink:href="group___e_t_b___register___accessor___macros.html" target="_top" xlink:title="ETB &#45; Register accessor\l macros">
<polygon fill="white" stroke="black" points="224,-39 224,-69 349,-69 349,-39 224,-39"/>
<text text-anchor="start" x="232" y="-57" font-family="Helvetica,sans-Serif" font-size="10.00">ETB &#45; Register accessor</text>
<text text-anchor="middle" x="286.5" y="-46" font-family="Helvetica,sans-Serif" font-size="10.00"> macros</text>
</a>
</g>
</g>
<!-- Node0&#45;&gt;Node2 -->
<g id="edge2" class="edge"><title>Node0&#45;&gt;Node2</title>
<path fill="none" stroke="black" d="M198.285,-37.2426C206.07,-38.7384 214.885,-40.4321 223.845,-42.1535"/>
<polygon fill="black" stroke="black" points="198.871,-33.7912 188.39,-35.3413 197.55,-40.6654 198.871,-33.7912"/>
</g>
<!-- Node3 -->
<g id="node4" class="node"><title>Node3</title>
<g id="a_node4"><a xlink:href="group___e_t_b___register___masks.html" target="_top" xlink:title="ETB Register Masks">
<polygon fill="white" stroke="black" points="232.5,-0.5 232.5,-19.5 340.5,-19.5 340.5,-0.5 232.5,-0.5"/>
<text text-anchor="middle" x="286.5" y="-7.5" font-family="Helvetica,sans-Serif" font-size="10.00">ETB Register Masks</text>
</a>
</g>
</g>
<!-- Node0&#45;&gt;Node3 -->
<g id="edge3" class="edge"><title>Node0&#45;&gt;Node3</title>
<path fill="none" stroke="black" d="M198.445,-26.7268C209.704,-24.5635 223.096,-21.9903 235.959,-19.5188"/>
<polygon fill="black" stroke="black" points="197.55,-23.3346 188.39,-28.6587 198.871,-30.2088 197.55,-23.3346"/>
</g>
</g>
</svg>
