<?xml version="1.0" encoding="UTF-8" standalone="no"?>
<!DOCTYPE svg PUBLIC "-//W3C//DTD SVG 1.1//EN"
 "http://www.w3.org/Graphics/SVG/1.1/DTD/svg11.dtd">
<!-- Generated by graphviz version 2.38.0 (20140413.2041)
 -->
<!-- Title: MCM Pages: 1 -->
<svg width="366pt" height="78pt"
 viewBox="0.00 0.00 366.00 77.50" xmlns="http://www.w3.org/2000/svg" xmlns:xlink="http://www.w3.org/1999/xlink">
<g id="graph0" class="graph" transform="scale(1 1) rotate(0) translate(4 73.5)">
<title>MCM</title>
<polygon fill="white" stroke="none" points="-4,4 -4,-73.5 362,-73.5 362,4 -4,4"/>
<!-- Node1 -->
<g id="node1" class="node"><title>Node1</title>
<g id="a_node1"><a xlink:href="group___peripheral__defines.html" target="_top" xlink:title="Peripheral type defines">
<polygon fill="white" stroke="black" points="0,-28 0,-47 116,-47 116,-28 0,-28"/>
<text text-anchor="middle" x="58" y="-35" font-family="Helvetica,sans-Serif" font-size="10.00">Peripheral type defines</text>
</a>
</g>
</g>
<!-- Node0 -->
<g id="node2" class="node"><title>Node0</title>
<polygon fill="#bfbfbf" stroke="black" points="152,-28 152,-47 193,-47 193,-28 152,-28"/>
<text text-anchor="middle" x="172.5" y="-35" font-family="Helvetica,sans-Serif" font-size="10.00">MCM</text>
</g>
<!-- Node1&#45;&gt;Node0 -->
<g id="edge1" class="edge"><title>Node1&#45;&gt;Node0</title>
<path fill="none" stroke="black" d="M126.383,-37.5C135.626,-37.5 144.451,-37.5 151.805,-37.5"/>
<polygon fill="black" stroke="black" points="126.239,-34.0001 116.239,-37.5 126.239,-41.0001 126.239,-34.0001"/>
</g>
<!-- Node3 -->
<g id="node3" class="node"><title>Node3</title>
<g id="a_node3"><a xlink:href="group___m_c_m___register___masks.html" target="_top" xlink:title="MCM Register Masks">
<polygon fill="white" stroke="black" points="237,-50 237,-69 350,-69 350,-50 237,-50"/>
<text text-anchor="middle" x="293.5" y="-57" font-family="Helvetica,sans-Serif" font-size="10.00">MCM Register Masks</text>
</a>
</g>
</g>
<!-- Node0&#45;&gt;Node3 -->
<g id="edge3" class="edge"><title>Node0&#45;&gt;Node3</title>
<path fill="none" stroke="black" d="M203.051,-42.9632C214.526,-45.0846 228.011,-47.5776 240.981,-49.9754"/>
<polygon fill="black" stroke="black" points="203.62,-39.5092 193.15,-41.1329 202.347,-46.3925 203.62,-39.5092"/>
</g>
<!-- Node2 -->
<g id="node4" class="node"><title>Node2</title>
<g id="a_node4"><a xlink:href="group___m_c_m___register___accessor___macros.html" target="_top" xlink:title="MCM &#45; Register accessor\l macros">
<polygon fill="white" stroke="black" points="229,-0.5 229,-30.5 358,-30.5 358,-0.5 229,-0.5"/>
<text text-anchor="start" x="237" y="-18.5" font-family="Helvetica,sans-Serif" font-size="10.00">MCM &#45; Register accessor</text>
<text text-anchor="middle" x="293.5" y="-7.5" font-family="Helvetica,sans-Serif" font-size="10.00"> macros</text>
</a>
</g>
</g>
<!-- Node0&#45;&gt;Node2 -->
<g id="edge2" class="edge"><title>Node0&#45;&gt;Node2</title>
<path fill="none" stroke="black" d="M203.228,-32.004C211.101,-30.5486 219.91,-28.9201 228.844,-27.2683"/>
<polygon fill="black" stroke="black" points="202.347,-28.6075 193.15,-33.8671 203.62,-35.4908 202.347,-28.6075"/>
</g>
</g>
</svg>
