<?xml version="1.0" encoding="UTF-8" standalone="no"?>
<!DOCTYPE svg PUBLIC "-//W3C//DTD SVG 1.1//EN"
 "http://www.w3.org/Graphics/SVG/1.1/DTD/svg11.dtd">
<!-- Generated by graphviz version 2.38.0 (20140413.2041)
 -->
<!-- Title: ITM Pages: 1 -->
<svg width="352pt" height="78pt"
 viewBox="0.00 0.00 352.00 77.50" xmlns="http://www.w3.org/2000/svg" xmlns:xlink="http://www.w3.org/1999/xlink">
<g id="graph0" class="graph" transform="scale(1 1) rotate(0) translate(4 73.5)">
<title>ITM</title>
<polygon fill="white" stroke="none" points="-4,4 -4,-73.5 348,-73.5 348,4 -4,4"/>
<!-- Node1 -->
<g id="node1" class="node"><title>Node1</title>
<g id="a_node1"><a xlink:href="group___peripheral__defines.html" target="_top" xlink:title="Peripheral type defines">
<polygon fill="white" stroke="black" points="0,-28 0,-47 116,-47 116,-28 0,-28"/>
<text text-anchor="middle" x="58" y="-35" font-family="Helvetica,sans-Serif" font-size="10.00">Peripheral type defines</text>
</a>
</g>
</g>
<!-- Node0 -->
<g id="node2" class="node"><title>Node0</title>
<polygon fill="#bfbfbf" stroke="black" points="152,-28 152,-47 186,-47 186,-28 152,-28"/>
<text text-anchor="middle" x="169" y="-35" font-family="Helvetica,sans-Serif" font-size="10.00">ITM</text>
</g>
<!-- Node1&#45;&gt;Node0 -->
<g id="edge1" class="edge"><title>Node1&#45;&gt;Node0</title>
<path fill="none" stroke="black" d="M126.16,-37.5C135.717,-37.5 144.725,-37.5 151.917,-37.5"/>
<polygon fill="black" stroke="black" points="126.054,-34.0001 116.054,-37.5 126.054,-41.0001 126.054,-34.0001"/>
</g>
<!-- Node3 -->
<g id="node3" class="node"><title>Node3</title>
<g id="a_node3"><a xlink:href="group___i_t_m___register___masks.html" target="_top" xlink:title="ITM Register Masks">
<polygon fill="white" stroke="black" points="230,-50 230,-69 336,-69 336,-50 230,-50"/>
<text text-anchor="middle" x="283" y="-57" font-family="Helvetica,sans-Serif" font-size="10.00">ITM Register Masks</text>
</a>
</g>
</g>
<!-- Node0&#45;&gt;Node3 -->
<g id="edge3" class="edge"><title>Node0&#45;&gt;Node3</title>
<path fill="none" stroke="black" d="M195.977,-42.6027C207.154,-44.7982 220.597,-47.4387 233.499,-49.9729"/>
<polygon fill="black" stroke="black" points="196.534,-39.1452 186.047,-40.6521 195.185,-46.014 196.534,-39.1452"/>
</g>
<!-- Node2 -->
<g id="node4" class="node"><title>Node2</title>
<g id="a_node4"><a xlink:href="group___i_t_m___register___accessor___macros.html" target="_top" xlink:title="ITM &#45; Register accessor\l macros">
<polygon fill="white" stroke="black" points="222,-0.5 222,-30.5 344,-30.5 344,-0.5 222,-0.5"/>
<text text-anchor="start" x="230" y="-18.5" font-family="Helvetica,sans-Serif" font-size="10.00">ITM &#45; Register accessor</text>
<text text-anchor="middle" x="283" y="-7.5" font-family="Helvetica,sans-Serif" font-size="10.00"> macros</text>
</a>
</g>
</g>
<!-- Node0&#45;&gt;Node2 -->
<g id="edge2" class="edge"><title>Node0&#45;&gt;Node2</title>
<path fill="none" stroke="black" d="M195.867,-32.4191C203.633,-30.8934 212.502,-29.1515 221.526,-27.3789"/>
<polygon fill="black" stroke="black" points="195.185,-28.986 186.047,-34.3479 196.534,-35.8548 195.185,-28.986"/>
</g>
</g>
</svg>
