<?xml version="1.0" encoding="UTF-8" standalone="no"?>
<!DOCTYPE svg PUBLIC "-//W3C//DTD SVG 1.1//EN"
 "http://www.w3.org/Graphics/SVG/1.1/DTD/svg11.dtd">
<!-- Generated by graphviz version 2.38.0 (20140413.2041)
 -->
<!-- Title: LPTMR Pages: 1 -->
<svg width="385pt" height="78pt"
 viewBox="0.00 0.00 385.00 77.50" xmlns="http://www.w3.org/2000/svg" xmlns:xlink="http://www.w3.org/1999/xlink">
<g id="graph0" class="graph" transform="scale(1 1) rotate(0) translate(4 73.5)">
<title>LPTMR</title>
<polygon fill="white" stroke="none" points="-4,4 -4,-73.5 381,-73.5 381,4 -4,4"/>
<!-- Node1 -->
<g id="node1" class="node"><title>Node1</title>
<g id="a_node1"><a xlink:href="group___peripheral__defines.html" target="_top" xlink:title="Peripheral type defines">
<polygon fill="white" stroke="black" points="0,-28 0,-47 116,-47 116,-28 0,-28"/>
<text text-anchor="middle" x="58" y="-35" font-family="Helvetica,sans-Serif" font-size="10.00">Peripheral type defines</text>
</a>
</g>
</g>
<!-- Node0 -->
<g id="node2" class="node"><title>Node0</title>
<polygon fill="#bfbfbf" stroke="black" points="152,-28 152,-47 202,-47 202,-28 152,-28"/>
<text text-anchor="middle" x="177" y="-35" font-family="Helvetica,sans-Serif" font-size="10.00">LPTMR</text>
</g>
<!-- Node1&#45;&gt;Node0 -->
<g id="edge1" class="edge"><title>Node1&#45;&gt;Node0</title>
<path fill="none" stroke="black" d="M126.18,-37.5C135.377,-37.5 144.282,-37.5 151.957,-37.5"/>
<polygon fill="black" stroke="black" points="126.129,-34.0001 116.129,-37.5 126.129,-41.0001 126.129,-34.0001"/>
</g>
<!-- Node3 -->
<g id="node3" class="node"><title>Node3</title>
<g id="a_node3"><a xlink:href="group___l_p_t_m_r___register___masks.html" target="_top" xlink:title="LPTMR Register Masks">
<polygon fill="white" stroke="black" points="246.5,-50 246.5,-69 368.5,-69 368.5,-50 246.5,-50"/>
<text text-anchor="middle" x="307.5" y="-57" font-family="Helvetica,sans-Serif" font-size="10.00">LPTMR Register Masks</text>
</a>
</g>
</g>
<!-- Node0&#45;&gt;Node3 -->
<g id="edge3" class="edge"><title>Node0&#45;&gt;Node3</title>
<path fill="none" stroke="black" d="M212.135,-43.3441C224.064,-45.3864 237.783,-47.7353 250.999,-49.9979"/>
<polygon fill="black" stroke="black" points="212.617,-39.8758 202.17,-41.638 211.436,-46.7754 212.617,-39.8758"/>
</g>
<!-- Node2 -->
<g id="node4" class="node"><title>Node2</title>
<g id="a_node4"><a xlink:href="group___l_p_t_m_r___register___accessor___macros.html" target="_top" xlink:title="LPTMR &#45; Register accessor\l macros">
<polygon fill="white" stroke="black" points="238,-0.5 238,-30.5 377,-30.5 377,-0.5 238,-0.5"/>
<text text-anchor="start" x="246" y="-18.5" font-family="Helvetica,sans-Serif" font-size="10.00">LPTMR &#45; Register accessor</text>
<text text-anchor="middle" x="307.5" y="-7.5" font-family="Helvetica,sans-Serif" font-size="10.00"> macros</text>
</a>
</g>
</g>
<!-- Node0&#45;&gt;Node2 -->
<g id="edge2" class="edge"><title>Node0&#45;&gt;Node2</title>
<path fill="none" stroke="black" d="M212.188,-31.6468C220.207,-30.274 229.032,-28.7631 237.968,-27.2332"/>
<polygon fill="black" stroke="black" points="211.436,-28.2246 202.17,-33.362 212.617,-35.1242 211.436,-28.2246"/>
</g>
</g>
</svg>
