<?xml version="1.0" encoding="UTF-8" standalone="no"?>
<!DOCTYPE svg PUBLIC "-//W3C//DTD SVG 1.1//EN"
 "http://www.w3.org/Graphics/SVG/1.1/DTD/svg11.dtd">
<!-- Generated by graphviz version 2.38.0 (20140413.2041)
 -->
<!-- Title: DAC Pages: 1 -->
<svg width="361pt" height="78pt"
 viewBox="0.00 0.00 361.00 77.50" xmlns="http://www.w3.org/2000/svg" xmlns:xlink="http://www.w3.org/1999/xlink">
<g id="graph0" class="graph" transform="scale(1 1) rotate(0) translate(4 73.5)">
<title>DAC</title>
<polygon fill="white" stroke="none" points="-4,4 -4,-73.5 357,-73.5 357,4 -4,4"/>
<!-- Node1 -->
<g id="node1" class="node"><title>Node1</title>
<g id="a_node1"><a xlink:href="group___peripheral__defines.html" target="_top" xlink:title="Peripheral type defines">
<polygon fill="white" stroke="black" points="0,-28 0,-47 116,-47 116,-28 0,-28"/>
<text text-anchor="middle" x="58" y="-35" font-family="Helvetica,sans-Serif" font-size="10.00">Peripheral type defines</text>
</a>
</g>
</g>
<!-- Node0 -->
<g id="node2" class="node"><title>Node0</title>
<polygon fill="#bfbfbf" stroke="black" points="152,-28 152,-47 190,-47 190,-28 152,-28"/>
<text text-anchor="middle" x="171" y="-35" font-family="Helvetica,sans-Serif" font-size="10.00">DAC</text>
</g>
<!-- Node1&#45;&gt;Node0 -->
<g id="edge1" class="edge"><title>Node1&#45;&gt;Node0</title>
<path fill="none" stroke="black" d="M126.376,-37.5C135.702,-37.5 144.558,-37.5 151.824,-37.5"/>
<polygon fill="black" stroke="black" points="126.126,-34.0001 116.126,-37.5 126.126,-41.0001 126.126,-34.0001"/>
</g>
<!-- Node3 -->
<g id="node3" class="node"><title>Node3</title>
<g id="a_node3"><a xlink:href="group___d_a_c___register___masks.html" target="_top" xlink:title="DAC Register Masks">
<polygon fill="white" stroke="black" points="234.5,-50 234.5,-69 344.5,-69 344.5,-50 234.5,-50"/>
<text text-anchor="middle" x="289.5" y="-57" font-family="Helvetica,sans-Serif" font-size="10.00">DAC Register Masks</text>
</a>
</g>
</g>
<!-- Node0&#45;&gt;Node3 -->
<g id="edge3" class="edge"><title>Node0&#45;&gt;Node3</title>
<path fill="none" stroke="black" d="M200.353,-42.8542C211.69,-44.9951 225.1,-47.5275 237.994,-49.9624"/>
<polygon fill="black" stroke="black" points="200.679,-39.354 190.203,-40.9375 199.38,-46.2324 200.679,-39.354"/>
</g>
<!-- Node2 -->
<g id="node4" class="node"><title>Node2</title>
<g id="a_node4"><a xlink:href="group___d_a_c___register___accessor___macros.html" target="_top" xlink:title="DAC &#45; Register accessor\l macros">
<polygon fill="white" stroke="black" points="226,-0.5 226,-30.5 353,-30.5 353,-0.5 226,-0.5"/>
<text text-anchor="start" x="234" y="-18.5" font-family="Helvetica,sans-Serif" font-size="10.00">DAC &#45; Register accessor</text>
<text text-anchor="middle" x="289.5" y="-7.5" font-family="Helvetica,sans-Serif" font-size="10.00"> macros</text>
</a>
</g>
</g>
<!-- Node0&#45;&gt;Node2 -->
<g id="edge2" class="edge"><title>Node0&#45;&gt;Node2</title>
<path fill="none" stroke="black" d="M200.229,-32.1692C208.099,-30.683 216.975,-29.007 225.987,-27.305"/>
<polygon fill="black" stroke="black" points="199.38,-28.7676 190.203,-34.0625 200.679,-35.646 199.38,-28.7676"/>
</g>
</g>
</svg>
