<?xml version="1.0" encoding="UTF-8" standalone="no"?>
<!DOCTYPE svg PUBLIC "-//W3C//DTD SVG 1.1//EN"
 "http://www.w3.org/Graphics/SVG/1.1/DTD/svg11.dtd">
<!-- Generated by graphviz version 2.38.0 (20140413.2041)
 -->
<!-- Title: NVIC Pages: 1 -->
<svg width="367pt" height="78pt"
 viewBox="0.00 0.00 367.00 77.50" xmlns="http://www.w3.org/2000/svg" xmlns:xlink="http://www.w3.org/1999/xlink">
<g id="graph0" class="graph" transform="scale(1 1) rotate(0) translate(4 73.5)">
<title>NVIC</title>
<polygon fill="white" stroke="none" points="-4,4 -4,-73.5 363,-73.5 363,4 -4,4"/>
<!-- Node2 -->
<g id="node1" class="node"><title>Node2</title>
<g id="a_node1"><a xlink:href="group___n_v_i_c___register___accessor___macros.html" target="_top" xlink:title="NVIC &#45; Register accessor\l macros">
<polygon fill="white" stroke="black" points="229,-39 229,-69 359,-69 359,-39 229,-39"/>
<text text-anchor="start" x="237" y="-57" font-family="Helvetica,sans-Serif" font-size="10.00">NVIC &#45; Register accessor</text>
<text text-anchor="middle" x="294" y="-46" font-family="Helvetica,sans-Serif" font-size="10.00"> macros</text>
</a>
</g>
</g>
<!-- Node1 -->
<g id="node2" class="node"><title>Node1</title>
<g id="a_node2"><a xlink:href="group___peripheral__defines.html" target="_top" xlink:title="Peripheral type defines">
<polygon fill="white" stroke="black" points="0,-22.5 0,-41.5 116,-41.5 116,-22.5 0,-22.5"/>
<text text-anchor="middle" x="58" y="-29.5" font-family="Helvetica,sans-Serif" font-size="10.00">Peripheral type defines</text>
</a>
</g>
</g>
<!-- Node0 -->
<g id="node4" class="node"><title>Node0</title>
<polygon fill="#bfbfbf" stroke="black" points="152,-22.5 152,-41.5 193,-41.5 193,-22.5 152,-22.5"/>
<text text-anchor="middle" x="172.5" y="-29.5" font-family="Helvetica,sans-Serif" font-size="10.00">NVIC</text>
</g>
<!-- Node1&#45;&gt;Node0 -->
<g id="edge1" class="edge"><title>Node1&#45;&gt;Node0</title>
<path fill="none" stroke="black" d="M126.383,-32C135.626,-32 144.451,-32 151.805,-32"/>
<polygon fill="black" stroke="black" points="126.239,-28.5001 116.239,-32 126.239,-35.5001 126.239,-28.5001"/>
</g>
<!-- Node3 -->
<g id="node3" class="node"><title>Node3</title>
<g id="a_node3"><a xlink:href="group___n_v_i_c___register___masks.html" target="_top" xlink:title="NVIC Register Masks">
<polygon fill="white" stroke="black" points="237.5,-0.5 237.5,-19.5 350.5,-19.5 350.5,-0.5 237.5,-0.5"/>
<text text-anchor="middle" x="294" y="-7.5" font-family="Helvetica,sans-Serif" font-size="10.00">NVIC Register Masks</text>
</a>
</g>
</g>
<!-- Node0&#45;&gt;Node2 -->
<g id="edge2" class="edge"><title>Node0&#45;&gt;Node2</title>
<path fill="none" stroke="black" d="M203.282,-37.4829C211.129,-38.9276 219.907,-40.5436 228.817,-42.1839"/>
<polygon fill="black" stroke="black" points="203.701,-34.0014 193.233,-35.6329 202.434,-40.8857 203.701,-34.0014"/>
</g>
<!-- Node0&#45;&gt;Node3 -->
<g id="edge3" class="edge"><title>Node0&#45;&gt;Node3</title>
<path fill="none" stroke="black" d="M203.175,-26.5368C214.698,-24.4154 228.24,-21.9224 241.264,-19.5246"/>
<polygon fill="black" stroke="black" points="202.434,-23.1143 193.233,-28.3671 203.701,-29.9986 202.434,-23.1143"/>
</g>
</g>
</svg>
