<?xml version="1.0" encoding="UTF-8" standalone="no"?>
<!DOCTYPE svg PUBLIC "-//W3C//DTD SVG 1.1//EN"
 "http://www.w3.org/Graphics/SVG/1.1/DTD/svg11.dtd">
<!-- Generated by graphviz version 2.38.0 (20140413.2041)
 -->
<!-- Title: Peripheral type defines Pages: 1 -->
<svg width="226pt" height="2004pt"
 viewBox="0.00 0.00 226.00 2004.00" xmlns="http://www.w3.org/2000/svg" xmlns:xlink="http://www.w3.org/1999/xlink">
<g id="graph0" class="graph" transform="scale(1 1) rotate(0) translate(4 2000)">
<title>Peripheral type defines</title>
<polygon fill="white" stroke="none" points="-4,4 -4,-2000 222,-2000 222,4 -4,4"/>
<!-- Node29 -->
<g id="node1" class="node"><title>Node29</title>
<g id="a_node1"><a xlink:href="group___m_c_g___peripheral.html" target="_top" xlink:title="MCG">
<polygon fill="white" stroke="black" points="165,-1976.5 165,-1995.5 205,-1995.5 205,-1976.5 165,-1976.5"/>
<text text-anchor="middle" x="185" y="-1983.5" font-family="Helvetica,sans-Serif" font-size="10.00">MCG</text>
</a>
</g>
</g>
<!-- Node40 -->
<g id="node2" class="node"><title>Node40</title>
<g id="a_node2"><a xlink:href="group___r_f_v_b_a_t___peripheral.html" target="_top" xlink:title="RFVBAT">
<polygon fill="white" stroke="black" points="157,-1938.5 157,-1957.5 213,-1957.5 213,-1938.5 157,-1938.5"/>
<text text-anchor="middle" x="185" y="-1945.5" font-family="Helvetica,sans-Serif" font-size="10.00">RFVBAT</text>
</a>
</g>
</g>
<!-- Node6 -->
<g id="node3" class="node"><title>Node6</title>
<g id="a_node3"><a xlink:href="group___c_m_t___peripheral.html" target="_top" xlink:title="CMT">
<polygon fill="white" stroke="black" points="166,-1900.5 166,-1919.5 204,-1919.5 204,-1900.5 166,-1900.5"/>
<text text-anchor="middle" x="185" y="-1907.5" font-family="Helvetica,sans-Serif" font-size="10.00">CMT</text>
</a>
</g>
</g>
<!-- Node45 -->
<g id="node4" class="node"><title>Node45</title>
<g id="a_node4"><a xlink:href="group___sys_tick___peripheral.html" target="_top" xlink:title="SysTick">
<polygon fill="white" stroke="black" points="158.5,-1862.5 158.5,-1881.5 211.5,-1881.5 211.5,-1862.5 158.5,-1862.5"/>
<text text-anchor="middle" x="185" y="-1869.5" font-family="Helvetica,sans-Serif" font-size="10.00">SysTick</text>
</a>
</g>
</g>
<!-- Node18 -->
<g id="node5" class="node"><title>Node18</title>
<g id="a_node5"><a xlink:href="group___f_m_c___peripheral.html" target="_top" xlink:title="FMC">
<polygon fill="white" stroke="black" points="166,-1824.5 166,-1843.5 204,-1843.5 204,-1824.5 166,-1824.5"/>
<text text-anchor="middle" x="185" y="-1831.5" font-family="Helvetica,sans-Serif" font-size="10.00">FMC</text>
</a>
</g>
</g>
<!-- Node17 -->
<g id="node6" class="node"><title>Node17</title>
<g id="a_node6"><a xlink:href="group___f_b___peripheral.html" target="_top" xlink:title="FB">
<polygon fill="white" stroke="black" points="170.5,-1786.5 170.5,-1805.5 199.5,-1805.5 199.5,-1786.5 170.5,-1786.5"/>
<text text-anchor="middle" x="185" y="-1793.5" font-family="Helvetica,sans-Serif" font-size="10.00">FB</text>
</a>
</g>
</g>
<!-- Node16 -->
<g id="node7" class="node"><title>Node16</title>
<g id="a_node7"><a xlink:href="group___e_w_m___peripheral.html" target="_top" xlink:title="EWM">
<polygon fill="white" stroke="black" points="164.5,-1748.5 164.5,-1767.5 205.5,-1767.5 205.5,-1748.5 164.5,-1748.5"/>
<text text-anchor="middle" x="185" y="-1755.5" font-family="Helvetica,sans-Serif" font-size="10.00">EWM</text>
</a>
</g>
</g>
<!-- Node1 -->
<g id="node8" class="node"><title>Node1</title>
<g id="a_node8"><a xlink:href="group___a_d_c___peripheral.html" target="_top" xlink:title="ADC">
<polygon fill="white" stroke="black" points="166,-1710.5 166,-1729.5 204,-1729.5 204,-1710.5 166,-1710.5"/>
<text text-anchor="middle" x="185" y="-1717.5" font-family="Helvetica,sans-Serif" font-size="10.00">ADC</text>
</a>
</g>
</g>
<!-- Node35 -->
<g id="node9" class="node"><title>Node35</title>
<g id="a_node9"><a xlink:href="group___p_i_t___peripheral.html" target="_top" xlink:title="PIT">
<polygon fill="white" stroke="black" points="169,-1672.5 169,-1691.5 201,-1691.5 201,-1672.5 169,-1672.5"/>
<text text-anchor="middle" x="185" y="-1679.5" font-family="Helvetica,sans-Serif" font-size="10.00">PIT</text>
</a>
</g>
</g>
<!-- Node38 -->
<g id="node10" class="node"><title>Node38</title>
<g id="a_node10"><a xlink:href="group___g_p_i_o___peripheral.html" target="_top" xlink:title="GPIO">
<polygon fill="white" stroke="black" points="164.5,-1634.5 164.5,-1653.5 205.5,-1653.5 205.5,-1634.5 164.5,-1634.5"/>
<text text-anchor="middle" x="185" y="-1641.5" font-family="Helvetica,sans-Serif" font-size="10.00">GPIO</text>
</a>
</g>
</g>
<!-- Node28 -->
<g id="node11" class="node"><title>Node28</title>
<g id="a_node11"><a xlink:href="group___m_c___peripheral.html" target="_top" xlink:title="MC">
<polygon fill="white" stroke="black" points="169,-1596.5 169,-1615.5 201,-1615.5 201,-1596.5 169,-1596.5"/>
<text text-anchor="middle" x="185" y="-1603.5" font-family="Helvetica,sans-Serif" font-size="10.00">MC</text>
</a>
</g>
</g>
<!-- Node39 -->
<g id="node12" class="node"><title>Node39</title>
<g id="a_node12"><a xlink:href="group___r_f_s_y_s___peripheral.html" target="_top" xlink:title="RFSYS">
<polygon fill="white" stroke="black" points="160,-1558.5 160,-1577.5 210,-1577.5 210,-1558.5 160,-1558.5"/>
<text text-anchor="middle" x="185" y="-1565.5" font-family="Helvetica,sans-Serif" font-size="10.00">RFSYS</text>
</a>
</g>
</g>
<!-- Node34 -->
<g id="node13" class="node"><title>Node34</title>
<g id="a_node13"><a xlink:href="group___p_d_b___peripheral.html" target="_top" xlink:title="PDB">
<polygon fill="white" stroke="black" points="166,-1520.5 166,-1539.5 204,-1539.5 204,-1520.5 166,-1520.5"/>
<text text-anchor="middle" x="185" y="-1527.5" font-family="Helvetica,sans-Serif" font-size="10.00">PDB</text>
</a>
</g>
</g>
<!-- Node21 -->
<g id="node14" class="node"><title>Node21</title>
<g id="a_node14"><a xlink:href="group___n_v___peripheral.html" target="_top" xlink:title="NV">
<polygon fill="white" stroke="black" points="169.5,-1482.5 169.5,-1501.5 200.5,-1501.5 200.5,-1482.5 169.5,-1482.5"/>
<text text-anchor="middle" x="185" y="-1489.5" font-family="Helvetica,sans-Serif" font-size="10.00">NV</text>
</a>
</g>
</g>
<!-- Node3 -->
<g id="node15" class="node"><title>Node3</title>
<g id="a_node15"><a xlink:href="group___a_x_b_s___peripheral.html" target="_top" xlink:title="AXBS">
<polygon fill="white" stroke="black" points="163,-1444.5 163,-1463.5 207,-1463.5 207,-1444.5 163,-1444.5"/>
<text text-anchor="middle" x="185" y="-1451.5" font-family="Helvetica,sans-Serif" font-size="10.00">AXBS</text>
</a>
</g>
</g>
<!-- Node0 -->
<g id="node16" class="node"><title>Node0</title>
<polygon fill="#bfbfbf" stroke="black" points="0,-988.5 0,-1007.5 116,-1007.5 116,-988.5 0,-988.5"/>
<text text-anchor="middle" x="58" y="-995.5" font-family="Helvetica,sans-Serif" font-size="10.00">Peripheral type defines</text>
</g>
<!-- Node0&#45;&gt;Node29 -->
<g id="edge29" class="edge"><title>Node0&#45;&gt;Node29</title>
<path fill="none" stroke="black" d="M59.8248,-1017.69C65.4229,-1148.03 99.2161,-1883.8 152,-1967 155.046,-1971.8 159.779,-1975.55 164.679,-1978.39"/>
<polygon fill="black" stroke="black" points="63.3166,-1017.42 59.3953,-1007.58 56.3229,-1017.72 63.3166,-1017.42"/>
</g>
<!-- Node0&#45;&gt;Node40 -->
<g id="edge40" class="edge"><title>Node0&#45;&gt;Node40</title>
<path fill="none" stroke="black" d="M59.9253,-1018.1C65.9787,-1146.51 101.269,-1849.38 152,-1929 154.361,-1932.71 157.725,-1935.78 161.394,-1938.3"/>
<polygon fill="black" stroke="black" points="63.4065,-1017.61 59.4442,-1007.78 56.4142,-1017.94 63.4065,-1017.61"/>
</g>
<!-- Node0&#45;&gt;Node6 -->
<g id="edge6" class="edge"><title>Node0&#45;&gt;Node6</title>
<path fill="none" stroke="black" d="M58.7073,-1017.83C57.3168,-1135.26 55.0207,-1739.49 152,-1891 155.274,-1896.12 160.458,-1900.04 165.708,-1902.95"/>
<polygon fill="black" stroke="black" points="62.2079,-1017.8 58.8395,-1007.75 55.2085,-1017.71 62.2079,-1017.8"/>
</g>
<!-- Node0&#45;&gt;Node45 -->
<g id="edge45" class="edge"><title>Node0&#45;&gt;Node45</title>
<path fill="none" stroke="black" d="M58.8115,-1017.69C58.058,-1131.82 58.9621,-1708.38 152,-1853 154.377,-1856.69 157.749,-1859.77 161.42,-1862.29"/>
<polygon fill="black" stroke="black" points="62.312,-1017.63 58.8914,-1007.6 55.3122,-1017.58 62.312,-1017.63"/>
</g>
<!-- Node0&#45;&gt;Node18 -->
<g id="edge18" class="edge"><title>Node0&#45;&gt;Node18</title>
<path fill="none" stroke="black" d="M58.9233,-1017.85C58.8329,-1129.32 62.9798,-1677.38 152,-1815 155.299,-1820.1 160.489,-1824.02 165.738,-1826.93"/>
<polygon fill="black" stroke="black" points="62.4235,-1017.7 58.9453,-1007.69 55.4236,-1017.68 62.4235,-1017.7"/>
</g>
<!-- Node0&#45;&gt;Node17 -->
<g id="edge17" class="edge"><title>Node0&#45;&gt;Node17</title>
<path fill="none" stroke="black" d="M59.0474,-1017.94C59.6458,-1126.5 66.9722,-1646.34 152,-1777 156.299,-1783.61 163.768,-1788.23 170.41,-1791.26"/>
<polygon fill="black" stroke="black" points="62.5467,-1017.73 59.0054,-1007.75 55.5468,-1017.76 62.5467,-1017.73"/>
</g>
<!-- Node0&#45;&gt;Node16 -->
<g id="edge16" class="edge"><title>Node0&#45;&gt;Node16</title>
<path fill="none" stroke="black" d="M59.1801,-1017.61C60.4744,-1122.3 70.8533,-1615.12 152,-1739 155.045,-1743.65 159.655,-1747.32 164.436,-1750.14"/>
<polygon fill="black" stroke="black" points="62.6789,-1017.48 59.0696,-1007.52 55.6793,-1017.55 62.6789,-1017.48"/>
</g>
<!-- Node0&#45;&gt;Node1 -->
<g id="edge1" class="edge"><title>Node0&#45;&gt;Node1</title>
<path fill="none" stroke="black" d="M59.3276,-1017.55C61.3553,-1118.88 74.798,-1584 152,-1701 155.345,-1706.07 160.548,-1709.98 165.793,-1712.89"/>
<polygon fill="black" stroke="black" points="62.8261,-1017.43 59.141,-1007.5 55.8273,-1017.56 62.8261,-1017.43"/>
</g>
<!-- Node0&#45;&gt;Node35 -->
<g id="edge35" class="edge"><title>Node0&#45;&gt;Node35</title>
<path fill="none" stroke="black" d="M59.5063,-1018.04C62.3427,-1116.98 78.8718,-1553.06 152,-1663 156.008,-1669.03 162.634,-1673.42 168.82,-1676.45"/>
<polygon fill="black" stroke="black" points="63.0015,-1017.81 59.2311,-1007.91 56.0041,-1018 63.0015,-1017.81"/>
</g>
<!-- Node0&#45;&gt;Node38 -->
<g id="edge38" class="edge"><title>Node0&#45;&gt;Node38</title>
<path fill="none" stroke="black" d="M59.6968,-1018.08C63.3481,-1113.63 82.8259,-1521.94 152,-1625 155.025,-1629.51 159.51,-1633.1 164.171,-1635.9"/>
<polygon fill="black" stroke="black" points="63.1841,-1017.66 59.3201,-1007.8 56.1888,-1017.92 63.1841,-1017.66"/>
</g>
<!-- Node0&#45;&gt;Node28 -->
<g id="edge28" class="edge"><title>Node0&#45;&gt;Node28</title>
<path fill="none" stroke="black" d="M59.8928,-1017.72C64.3548,-1109.07 86.6786,-1490.65 152,-1587 156.061,-1592.99 162.693,-1597.37 168.87,-1600.41"/>
<polygon fill="black" stroke="black" points="63.3846,-1017.46 59.4164,-1007.64 56.3924,-1017.79 63.3846,-1017.46"/>
</g>
<!-- Node0&#45;&gt;Node39 -->
<g id="edge39" class="edge"><title>Node0&#45;&gt;Node39</title>
<path fill="none" stroke="black" d="M60.154,-1018.1C65.5544,-1106.43 90.6972,-1459.6 152,-1549 154.558,-1552.73 158.109,-1555.84 161.92,-1558.39"/>
<polygon fill="black" stroke="black" points="63.6322,-1017.63 59.5445,-1007.86 56.6445,-1018.05 63.6322,-1017.63"/>
</g>
<!-- Node0&#45;&gt;Node34 -->
<g id="edge34" class="edge"><title>Node0&#45;&gt;Node34</title>
<path fill="none" stroke="black" d="M60.4066,-1017.77C66.7028,-1101.74 94.5399,-1428.29 152,-1511 155.465,-1515.99 160.7,-1519.87 165.938,-1522.8"/>
<polygon fill="black" stroke="black" points="63.8816,-1017.3 59.6603,-1007.58 56.9003,-1017.81 63.8816,-1017.3"/>
</g>
<!-- Node0&#45;&gt;Node21 -->
<g id="edge21" class="edge"><title>Node0&#45;&gt;Node21</title>
<path fill="none" stroke="black" d="M60.7267,-1017.82C68.0254,-1097.92 98.4601,-1397.07 152,-1473 156.245,-1479.02 163.055,-1483.45 169.303,-1486.5"/>
<polygon fill="black" stroke="black" points="64.1937,-1017.29 59.8178,-1007.64 57.2215,-1017.91 64.1937,-1017.29"/>
</g>
<!-- Node0&#45;&gt;Node3 -->
<g id="edge3" class="edge"><title>Node0&#45;&gt;Node3</title>
<path fill="none" stroke="black" d="M61.081,-1017.67C69.4119,-1093.46 102.325,-1365.76 152,-1435 154.787,-1438.88 158.637,-1442.11 162.702,-1444.74"/>
<polygon fill="black" stroke="black" points="64.5476,-1017.17 59.9934,-1007.61 57.5881,-1017.92 64.5476,-1017.17"/>
</g>
<!-- Node30 -->
<g id="node17" class="node"><title>Node30</title>
<g id="a_node17"><a xlink:href="group___m_c_m___peripheral.html" target="_top" xlink:title="MCM">
<polygon fill="white" stroke="black" points="164.5,-1406.5 164.5,-1425.5 205.5,-1425.5 205.5,-1406.5 164.5,-1406.5"/>
<text text-anchor="middle" x="185" y="-1413.5" font-family="Helvetica,sans-Serif" font-size="10.00">MCM</text>
</a>
</g>
</g>
<!-- Node0&#45;&gt;Node30 -->
<g id="edge30" class="edge"><title>Node0&#45;&gt;Node30</title>
<path fill="none" stroke="black" d="M58.4119,-1017.86C57.5633,-1080.16 62.6019,-1274.9 152,-1397 155.206,-1401.38 159.754,-1404.93 164.417,-1407.72"/>
<polygon fill="black" stroke="black" points="61.912,-1017.88 58.6198,-1007.81 54.9135,-1017.74 61.912,-1017.88"/>
</g>
<!-- Node31 -->
<g id="node18" class="node"><title>Node31</title>
<g id="a_node18"><a xlink:href="group___m_p_u___peripheral.html" target="_top" xlink:title="MPU">
<polygon fill="white" stroke="black" points="165.5,-1368.5 165.5,-1387.5 204.5,-1387.5 204.5,-1368.5 165.5,-1368.5"/>
<text text-anchor="middle" x="185" y="-1375.5" font-family="Helvetica,sans-Serif" font-size="10.00">MPU</text>
</a>
</g>
</g>
<!-- Node0&#45;&gt;Node31 -->
<g id="edge31" class="edge"><title>Node0&#45;&gt;Node31</title>
<path fill="none" stroke="black" d="M59.0225,-1017.86C60.065,-1076.23 70.2644,-1250.03 152,-1359 155.489,-1363.65 160.48,-1367.38 165.486,-1370.26"/>
<polygon fill="black" stroke="black" points="62.5216,-1017.74 58.9176,-1007.77 55.5219,-1017.81 62.5216,-1017.74"/>
</g>
<!-- Node4 -->
<g id="node19" class="node"><title>Node4</title>
<g id="a_node19"><a xlink:href="group___c_a_n___peripheral.html" target="_top" xlink:title="CAN">
<polygon fill="white" stroke="black" points="166,-1330.5 166,-1349.5 204,-1349.5 204,-1330.5 166,-1330.5"/>
<text text-anchor="middle" x="185" y="-1337.5" font-family="Helvetica,sans-Serif" font-size="10.00">CAN</text>
</a>
</g>
</g>
<!-- Node0&#45;&gt;Node4 -->
<g id="edge4" class="edge"><title>Node0&#45;&gt;Node4</title>
<path fill="none" stroke="black" d="M59.768,-1017.87C62.8179,-1072.11 77.8928,-1225.05 152,-1321 155.633,-1325.7 160.788,-1329.48 165.902,-1332.39"/>
<polygon fill="black" stroke="black" points="63.2498,-1017.4 59.2723,-1007.58 56.258,-1017.74 63.2498,-1017.4"/>
</g>
<!-- Node25 -->
<g id="node20" class="node"><title>Node25</title>
<g id="a_node20"><a xlink:href="group___i_t_m___peripheral.html" target="_top" xlink:title="ITM">
<polygon fill="white" stroke="black" points="168,-1292.5 168,-1311.5 202,-1311.5 202,-1292.5 168,-1292.5"/>
<text text-anchor="middle" x="185" y="-1299.5" font-family="Helvetica,sans-Serif" font-size="10.00">ITM</text>
</a>
</g>
</g>
<!-- Node0&#45;&gt;Node25 -->
<g id="edge25" class="edge"><title>Node0&#45;&gt;Node25</title>
<path fill="none" stroke="black" d="M60.6946,-1017.83C65.8745,-1067.62 85.4504,-1199.89 152,-1283 156.2,-1288.25 162.269,-1292.36 167.995,-1295.41"/>
<polygon fill="black" stroke="black" points="64.1675,-1017.37 59.7309,-1007.75 57.1993,-1018.04 64.1675,-1017.37"/>
</g>
<!-- Node5 -->
<g id="node21" class="node"><title>Node5</title>
<g id="a_node21"><a xlink:href="group___c_m_p___peripheral.html" target="_top" xlink:title="CMP">
<polygon fill="white" stroke="black" points="165.5,-1254.5 165.5,-1273.5 204.5,-1273.5 204.5,-1254.5 165.5,-1254.5"/>
<text text-anchor="middle" x="185" y="-1261.5" font-family="Helvetica,sans-Serif" font-size="10.00">CMP</text>
</a>
</g>
</g>
<!-- Node0&#45;&gt;Node5 -->
<g id="edge5" class="edge"><title>Node0&#45;&gt;Node5</title>
<path fill="none" stroke="black" d="M61.845,-1017.55C69.2557,-1062.44 92.8501,-1174.42 152,-1245 155.652,-1249.36 160.575,-1252.96 165.463,-1255.82"/>
<polygon fill="black" stroke="black" points="65.3,-1016.99 60.2978,-1007.65 58.384,-1018.07 65.3,-1016.99"/>
</g>
<!-- Node22 -->
<g id="node22" class="node"><title>Node22</title>
<g id="a_node22"><a xlink:href="group___f_t_m___peripheral.html" target="_top" xlink:title="FTM">
<polygon fill="white" stroke="black" points="166.5,-1216.5 166.5,-1235.5 203.5,-1235.5 203.5,-1216.5 166.5,-1216.5"/>
<text text-anchor="middle" x="185" y="-1223.5" font-family="Helvetica,sans-Serif" font-size="10.00">FTM</text>
</a>
</g>
</g>
<!-- Node0&#45;&gt;Node22 -->
<g id="edge22" class="edge"><title>Node0&#45;&gt;Node22</title>
<path fill="none" stroke="black" d="M63.4661,-1017.71C73.3466,-1057.59 100.378,-1148.95 152,-1207 155.95,-1211.44 161.194,-1215.15 166.291,-1218.07"/>
<polygon fill="black" stroke="black" points="66.8511,-1016.82 61.1279,-1007.9 60.0418,-1018.44 66.8511,-1016.82"/>
</g>
<!-- Node20 -->
<g id="node23" class="node"><title>Node20</title>
<g id="a_node23"><a xlink:href="group___f_t_f_l___peripheral.html" target="_top" xlink:title="FTFL">
<polygon fill="white" stroke="black" points="165,-1178.5 165,-1197.5 205,-1197.5 205,-1178.5 165,-1178.5"/>
<text text-anchor="middle" x="185" y="-1185.5" font-family="Helvetica,sans-Serif" font-size="10.00">FTFL</text>
</a>
</g>
</g>
<!-- Node0&#45;&gt;Node20 -->
<g id="edge20" class="edge"><title>Node0&#45;&gt;Node20</title>
<path fill="none" stroke="black" d="M65.5752,-1017.29C77.9651,-1051.34 107.58,-1122.87 152,-1169 155.675,-1172.82 160.279,-1176.14 164.84,-1178.89"/>
<polygon fill="black" stroke="black" points="68.7934,-1015.89 62.1609,-1007.63 62.1935,-1018.22 68.7934,-1015.89"/>
</g>
<!-- Node9 -->
<g id="node24" class="node"><title>Node9</title>
<g id="a_node24"><a xlink:href="group___d_a_c___peripheral.html" target="_top" xlink:title="DAC">
<polygon fill="white" stroke="black" points="166,-1140.5 166,-1159.5 204,-1159.5 204,-1140.5 166,-1140.5"/>
<text text-anchor="middle" x="185" y="-1147.5" font-family="Helvetica,sans-Serif" font-size="10.00">DAC</text>
</a>
</g>
</g>
<!-- Node0&#45;&gt;Node9 -->
<g id="edge9" class="edge"><title>Node0&#45;&gt;Node9</title>
<path fill="none" stroke="black" d="M68.6958,-1016.72C83.679,-1044.3 114.665,-1096.34 152,-1131 156.072,-1134.78 161.02,-1138.16 165.795,-1140.99"/>
<polygon fill="black" stroke="black" points="71.7052,-1014.92 63.9176,-1007.74 65.5257,-1018.21 71.7052,-1014.92"/>
</g>
<!-- Node15 -->
<g id="node25" class="node"><title>Node15</title>
<g id="a_node25"><a xlink:href="group___e_t_m___peripheral.html" target="_top" xlink:title="ETM">
<polygon fill="white" stroke="black" points="166,-1102.5 166,-1121.5 204,-1121.5 204,-1102.5 166,-1102.5"/>
<text text-anchor="middle" x="185" y="-1109.5" font-family="Helvetica,sans-Serif" font-size="10.00">ETM</text>
</a>
</g>
</g>
<!-- Node0&#45;&gt;Node15 -->
<g id="edge15" class="edge"><title>Node0&#45;&gt;Node15</title>
<path fill="none" stroke="black" d="M73.6039,-1015.47C90.9858,-1035.62 121.509,-1069.05 152,-1093 156.268,-1096.35 161.18,-1099.55 165.854,-1102.34"/>
<polygon fill="black" stroke="black" points="76.1461,-1013.05 66.9975,-1007.71 70.8169,-1017.59 76.1461,-1013.05"/>
</g>
<!-- Node36 -->
<g id="node26" class="node"><title>Node36</title>
<g id="a_node26"><a xlink:href="group___p_m_c___peripheral.html" target="_top" xlink:title="PMC">
<polygon fill="white" stroke="black" points="165.5,-1064.5 165.5,-1083.5 204.5,-1083.5 204.5,-1064.5 165.5,-1064.5"/>
<text text-anchor="middle" x="185" y="-1071.5" font-family="Helvetica,sans-Serif" font-size="10.00">PMC</text>
</a>
</g>
</g>
<!-- Node0&#45;&gt;Node36 -->
<g id="edge36" class="edge"><title>Node0&#45;&gt;Node36</title>
<path fill="none" stroke="black" d="M82.9392,-1012.8C101.689,-1024.36 128.45,-1040.79 152,-1055 157.09,-1058.07 162.654,-1061.39 167.694,-1064.38"/>
<polygon fill="black" stroke="black" points="84.7757,-1009.82 74.4276,-1007.55 81.0995,-1015.78 84.7757,-1009.82"/>
</g>
<!-- Node42 -->
<g id="node27" class="node"><title>Node42</title>
<g id="a_node27"><a xlink:href="group___s_d_h_c___peripheral.html" target="_top" xlink:title="SDHC">
<polygon fill="white" stroke="black" points="162,-1026.5 162,-1045.5 208,-1045.5 208,-1026.5 162,-1026.5"/>
<text text-anchor="middle" x="185" y="-1033.5" font-family="Helvetica,sans-Serif" font-size="10.00">SDHC</text>
</a>
</g>
</g>
<!-- Node0&#45;&gt;Node42 -->
<g id="edge42" class="edge"><title>Node0&#45;&gt;Node42</title>
<path fill="none" stroke="black" d="M100.311,-1010.56C120.87,-1016.81 144.9,-1024.11 161.922,-1029.29"/>
<polygon fill="black" stroke="black" points="101.128,-1007.15 90.5428,-1007.59 99.0924,-1013.85 101.128,-1007.15"/>
</g>
<!-- Node48 -->
<g id="node28" class="node"><title>Node48</title>
<g id="a_node28"><a xlink:href="group___t_s_i___peripheral.html" target="_top" xlink:title="TSI">
<polygon fill="white" stroke="black" points="169,-988.5 169,-1007.5 201,-1007.5 201,-988.5 169,-988.5"/>
<text text-anchor="middle" x="185" y="-995.5" font-family="Helvetica,sans-Serif" font-size="10.00">TSI</text>
</a>
</g>
</g>
<!-- Node0&#45;&gt;Node48 -->
<g id="edge48" class="edge"><title>Node0&#45;&gt;Node48</title>
<path fill="none" stroke="black" d="M126.064,-998C142.185,-998 157.898,-998 168.884,-998"/>
<polygon fill="black" stroke="black" points="126.013,-994.5 116.013,-998 126.013,-1001.5 126.013,-994.5"/>
</g>
<!-- Node53 -->
<g id="node29" class="node"><title>Node53</title>
<g id="a_node29"><a xlink:href="group___w_d_o_g___peripheral.html" target="_top" xlink:title="WDOG">
<polygon fill="white" stroke="black" points="160.5,-950.5 160.5,-969.5 209.5,-969.5 209.5,-950.5 160.5,-950.5"/>
<text text-anchor="middle" x="185" y="-957.5" font-family="Helvetica,sans-Serif" font-size="10.00">WDOG</text>
</a>
</g>
</g>
<!-- Node0&#45;&gt;Node53 -->
<g id="edge53" class="edge"><title>Node0&#45;&gt;Node53</title>
<path fill="none" stroke="black" d="M100.322,-985.438C120.258,-979.378 143.453,-972.326 160.36,-967.187"/>
<polygon fill="black" stroke="black" points="99.0924,-982.154 90.5428,-988.411 101.128,-988.851 99.0924,-982.154"/>
</g>
<!-- Node24 -->
<g id="node30" class="node"><title>Node24</title>
<g id="a_node30"><a xlink:href="group___i2_s___peripheral.html" target="_top" xlink:title="I2S">
<polygon fill="white" stroke="black" points="169,-912.5 169,-931.5 201,-931.5 201,-912.5 169,-912.5"/>
<text text-anchor="middle" x="185" y="-919.5" font-family="Helvetica,sans-Serif" font-size="10.00">I2S</text>
</a>
</g>
</g>
<!-- Node0&#45;&gt;Node24 -->
<g id="edge24" class="edge"><title>Node0&#45;&gt;Node24</title>
<path fill="none" stroke="black" d="M82.9392,-983.2C101.689,-971.64 128.45,-955.207 152,-941 157.532,-937.662 163.625,-934.033 168.997,-930.849"/>
<polygon fill="black" stroke="black" points="81.0995,-980.223 74.4276,-988.453 84.7757,-986.18 81.0995,-980.223"/>
</g>
<!-- Node37 -->
<g id="node31" class="node"><title>Node37</title>
<g id="a_node31"><a xlink:href="group___p_o_r_t___peripheral.html" target="_top" xlink:title="PORT">
<polygon fill="white" stroke="black" points="163,-874.5 163,-893.5 207,-893.5 207,-874.5 163,-874.5"/>
<text text-anchor="middle" x="185" y="-881.5" font-family="Helvetica,sans-Serif" font-size="10.00">PORT</text>
</a>
</g>
</g>
<!-- Node0&#45;&gt;Node37 -->
<g id="edge37" class="edge"><title>Node0&#45;&gt;Node37</title>
<path fill="none" stroke="black" d="M73.6039,-980.533C90.9858,-960.382 121.509,-926.955 152,-903 156.268,-899.647 161.18,-896.449 165.854,-893.665"/>
<polygon fill="black" stroke="black" points="70.8169,-978.407 66.9975,-988.289 76.1461,-982.946 70.8169,-978.407"/>
</g>
<!-- Node49 -->
<g id="node32" class="node"><title>Node49</title>
<g id="a_node32"><a xlink:href="group___u_a_r_t___peripheral.html" target="_top" xlink:title="UART">
<polygon fill="white" stroke="black" points="163,-836.5 163,-855.5 207,-855.5 207,-836.5 163,-836.5"/>
<text text-anchor="middle" x="185" y="-843.5" font-family="Helvetica,sans-Serif" font-size="10.00">UART</text>
</a>
</g>
</g>
<!-- Node0&#45;&gt;Node49 -->
<g id="edge49" class="edge"><title>Node0&#45;&gt;Node49</title>
<path fill="none" stroke="black" d="M68.6958,-979.283C83.679,-951.698 114.665,-899.655 152,-865 155.788,-861.484 160.334,-858.309 164.794,-855.607"/>
<polygon fill="black" stroke="black" points="65.5257,-977.79 63.9176,-988.262 71.7052,-981.078 65.5257,-977.79"/>
</g>
<!-- Node27 -->
<g id="node33" class="node"><title>Node27</title>
<g id="a_node33"><a xlink:href="group___l_p_t_m_r___peripheral.html" target="_top" xlink:title="LPTMR">
<polygon fill="white" stroke="black" points="160,-798.5 160,-817.5 210,-817.5 210,-798.5 160,-798.5"/>
<text text-anchor="middle" x="185" y="-805.5" font-family="Helvetica,sans-Serif" font-size="10.00">LPTMR</text>
</a>
</g>
</g>
<!-- Node0&#45;&gt;Node27 -->
<g id="edge27" class="edge"><title>Node0&#45;&gt;Node27</title>
<path fill="none" stroke="black" d="M65.5752,-978.712C77.9651,-944.658 107.58,-873.126 152,-827 155.496,-823.37 159.832,-820.188 164.172,-817.518"/>
<polygon fill="black" stroke="black" points="62.1935,-977.777 62.1609,-988.372 68.7934,-980.11 62.1935,-977.777"/>
</g>
<!-- Node50 -->
<g id="node34" class="node"><title>Node50</title>
<g id="a_node34"><a xlink:href="group___u_s_b___peripheral.html" target="_top" xlink:title="USB">
<polygon fill="white" stroke="black" points="166,-760.5 166,-779.5 204,-779.5 204,-760.5 166,-760.5"/>
<text text-anchor="middle" x="185" y="-767.5" font-family="Helvetica,sans-Serif" font-size="10.00">USB</text>
</a>
</g>
</g>
<!-- Node0&#45;&gt;Node50 -->
<g id="edge50" class="edge"><title>Node0&#45;&gt;Node50</title>
<path fill="none" stroke="black" d="M63.4661,-978.287C73.3466,-938.414 100.378,-847.054 152,-789 155.864,-784.655 160.966,-781.016 165.958,-778.125"/>
<polygon fill="black" stroke="black" points="60.0418,-977.559 61.1279,-988.098 66.8511,-979.182 60.0418,-977.559"/>
</g>
<!-- Node19 -->
<g id="node35" class="node"><title>Node19</title>
<g id="a_node35"><a xlink:href="group___f_p_b___peripheral.html" target="_top" xlink:title="FPB">
<polygon fill="white" stroke="black" points="167,-722.5 167,-741.5 203,-741.5 203,-722.5 167,-722.5"/>
<text text-anchor="middle" x="185" y="-729.5" font-family="Helvetica,sans-Serif" font-size="10.00">FPB</text>
</a>
</g>
</g>
<!-- Node0&#45;&gt;Node19 -->
<g id="edge19" class="edge"><title>Node0&#45;&gt;Node19</title>
<path fill="none" stroke="black" d="M61.845,-978.449C69.2557,-933.564 92.8501,-821.576 152,-751 155.984,-746.246 161.48,-742.386 166.794,-739.417"/>
<polygon fill="black" stroke="black" points="58.384,-977.929 60.2978,-988.349 65.3,-979.01 58.384,-977.929"/>
</g>
<!-- Node11 -->
<g id="node36" class="node"><title>Node11</title>
<g id="a_node36"><a xlink:href="group___d_m_a_m_u_x___peripheral.html" target="_top" xlink:title="DMAMUX">
<polygon fill="white" stroke="black" points="154,-684.5 154,-703.5 216,-703.5 216,-684.5 154,-684.5"/>
<text text-anchor="middle" x="185" y="-691.5" font-family="Helvetica,sans-Serif" font-size="10.00">DMAMUX</text>
</a>
</g>
</g>
<!-- Node0&#45;&gt;Node11 -->
<g id="edge11" class="edge"><title>Node0&#45;&gt;Node11</title>
<path fill="none" stroke="black" d="M60.6946,-978.173C65.8745,-928.378 85.4504,-796.108 152,-713 154.908,-709.369 158.711,-706.277 162.676,-703.709"/>
<polygon fill="black" stroke="black" points="57.1993,-977.958 59.7309,-988.246 64.1675,-978.625 57.1993,-977.958"/>
</g>
<!-- Node26 -->
<g id="node37" class="node"><title>Node26</title>
<g id="a_node37"><a xlink:href="group___l_l_w_u___peripheral.html" target="_top" xlink:title="LLWU">
<polygon fill="white" stroke="black" points="163,-646.5 163,-665.5 207,-665.5 207,-646.5 163,-646.5"/>
<text text-anchor="middle" x="185" y="-653.5" font-family="Helvetica,sans-Serif" font-size="10.00">LLWU</text>
</a>
</g>
</g>
<!-- Node0&#45;&gt;Node26 -->
<g id="edge26" class="edge"><title>Node0&#45;&gt;Node26</title>
<path fill="none" stroke="black" d="M59.768,-978.133C62.8179,-923.894 77.8928,-770.948 152,-675 154.923,-671.216 158.829,-668.032 162.907,-665.418"/>
<polygon fill="black" stroke="black" points="56.258,-978.259 59.2723,-988.416 63.2498,-978.596 56.258,-978.259"/>
</g>
<!-- Node41 -->
<g id="node38" class="node"><title>Node41</title>
<g id="a_node38"><a xlink:href="group___r_t_c___peripheral.html" target="_top" xlink:title="RTC">
<polygon fill="white" stroke="black" points="166,-608.5 166,-627.5 204,-627.5 204,-608.5 166,-608.5"/>
<text text-anchor="middle" x="185" y="-615.5" font-family="Helvetica,sans-Serif" font-size="10.00">RTC</text>
</a>
</g>
</g>
<!-- Node0&#45;&gt;Node41 -->
<g id="edge41" class="edge"><title>Node0&#45;&gt;Node41</title>
<path fill="none" stroke="black" d="M59.0225,-978.144C60.065,-919.768 70.2644,-745.967 152,-637 155.567,-632.245 160.703,-628.454 165.819,-625.548"/>
<polygon fill="black" stroke="black" points="55.5219,-978.191 58.9176,-988.227 62.5216,-978.264 55.5219,-978.191"/>
</g>
<!-- Node12 -->
<g id="node39" class="node"><title>Node12</title>
<g id="a_node39"><a xlink:href="group___d_w_t___peripheral.html" target="_top" xlink:title="DWT">
<polygon fill="white" stroke="black" points="165,-570.5 165,-589.5 205,-589.5 205,-570.5 165,-570.5"/>
<text text-anchor="middle" x="185" y="-577.5" font-family="Helvetica,sans-Serif" font-size="10.00">DWT</text>
</a>
</g>
</g>
<!-- Node0&#45;&gt;Node12 -->
<g id="edge12" class="edge"><title>Node0&#45;&gt;Node12</title>
<path fill="none" stroke="black" d="M58.4119,-978.144C57.5633,-915.84 62.6019,-721.101 152,-599 155.283,-594.517 159.971,-590.901 164.75,-588.077"/>
<polygon fill="black" stroke="black" points="54.9135,-978.264 58.6198,-988.189 61.912,-978.119 54.9135,-978.264"/>
</g>
<!-- Node52 -->
<g id="node40" class="node"><title>Node52</title>
<g id="a_node40"><a xlink:href="group___v_r_e_f___peripheral.html" target="_top" xlink:title="VREF">
<polygon fill="white" stroke="black" points="163,-532.5 163,-551.5 207,-551.5 207,-532.5 163,-532.5"/>
<text text-anchor="middle" x="185" y="-539.5" font-family="Helvetica,sans-Serif" font-size="10.00">VREF</text>
</a>
</g>
</g>
<!-- Node0&#45;&gt;Node52 -->
<g id="edge52" class="edge"><title>Node0&#45;&gt;Node52</title>
<path fill="none" stroke="black" d="M61.081,-978.33C69.4119,-902.541 102.325,-630.239 152,-561 154.787,-557.115 158.637,-553.889 162.702,-551.265"/>
<polygon fill="black" stroke="black" points="57.5881,-978.076 59.9934,-988.394 64.5476,-978.828 57.5881,-978.076"/>
</g>
<!-- Node47 -->
<g id="node41" class="node"><title>Node47</title>
<g id="a_node41"><a xlink:href="group___t_p_i_u___peripheral.html" target="_top" xlink:title="TPIU">
<polygon fill="white" stroke="black" points="165,-494.5 165,-513.5 205,-513.5 205,-494.5 165,-494.5"/>
<text text-anchor="middle" x="185" y="-501.5" font-family="Helvetica,sans-Serif" font-size="10.00">TPIU</text>
</a>
</g>
</g>
<!-- Node0&#45;&gt;Node47 -->
<g id="edge47" class="edge"><title>Node0&#45;&gt;Node47</title>
<path fill="none" stroke="black" d="M60.7267,-978.183C68.0254,-898.084 98.4601,-598.929 152,-523 155.277,-518.353 160.082,-514.656 164.977,-511.805"/>
<polygon fill="black" stroke="black" points="57.2215,-978.087 59.8178,-988.359 64.1937,-978.71 57.2215,-978.087"/>
</g>
<!-- Node44 -->
<g id="node42" class="node"><title>Node44</title>
<g id="a_node42"><a xlink:href="group___s_p_i___peripheral.html" target="_top" xlink:title="SPI">
<polygon fill="white" stroke="black" points="168.5,-456.5 168.5,-475.5 201.5,-475.5 201.5,-456.5 168.5,-456.5"/>
<text text-anchor="middle" x="185" y="-463.5" font-family="Helvetica,sans-Serif" font-size="10.00">SPI</text>
</a>
</g>
</g>
<!-- Node0&#45;&gt;Node44 -->
<g id="edge44" class="edge"><title>Node0&#45;&gt;Node44</title>
<path fill="none" stroke="black" d="M60.4066,-978.231C66.7028,-894.264 94.5399,-567.712 152,-485 155.981,-479.269 162.299,-474.992 168.272,-471.962"/>
<polygon fill="black" stroke="black" points="56.9003,-978.19 59.6603,-988.419 63.8816,-978.701 56.9003,-978.19"/>
</g>
<!-- Node2 -->
<g id="node43" class="node"><title>Node2</title>
<g id="a_node43"><a xlink:href="group___a_i_p_s___peripheral.html" target="_top" xlink:title="AIPS">
<polygon fill="white" stroke="black" points="165,-418.5 165,-437.5 205,-437.5 205,-418.5 165,-418.5"/>
<text text-anchor="middle" x="185" y="-425.5" font-family="Helvetica,sans-Serif" font-size="10.00">AIPS</text>
</a>
</g>
</g>
<!-- Node0&#45;&gt;Node2 -->
<g id="edge2" class="edge"><title>Node0&#45;&gt;Node2</title>
<path fill="none" stroke="black" d="M60.154,-977.897C65.5544,-889.575 90.6972,-536.396 152,-447 155.216,-442.311 160.002,-438.6 164.899,-435.75"/>
<polygon fill="black" stroke="black" points="56.6445,-977.954 59.5445,-988.144 63.6322,-978.369 56.6445,-977.954"/>
</g>
<!-- Node43 -->
<g id="node44" class="node"><title>Node43</title>
<g id="a_node44"><a xlink:href="group___s_i_m___peripheral.html" target="_top" xlink:title="SIM">
<polygon fill="white" stroke="black" points="167.5,-380.5 167.5,-399.5 202.5,-399.5 202.5,-380.5 167.5,-380.5"/>
<text text-anchor="middle" x="185" y="-387.5" font-family="Helvetica,sans-Serif" font-size="10.00">SIM</text>
</a>
</g>
</g>
<!-- Node0&#45;&gt;Node43 -->
<g id="edge43" class="edge"><title>Node0&#45;&gt;Node43</title>
<path fill="none" stroke="black" d="M59.8928,-978.278C64.3548,-886.934 86.6786,-505.347 152,-409 155.698,-403.545 161.53,-399.421 167.207,-396.433"/>
<polygon fill="black" stroke="black" points="56.3924,-978.206 59.4164,-988.36 63.3846,-978.537 56.3924,-978.206"/>
</g>
<!-- Node51 -->
<g id="node45" class="node"><title>Node51</title>
<g id="a_node45"><a xlink:href="group___u_s_b_d_c_d___peripheral.html" target="_top" xlink:title="USBDCD">
<polygon fill="white" stroke="black" points="155,-342.5 155,-361.5 215,-361.5 215,-342.5 155,-342.5"/>
<text text-anchor="middle" x="185" y="-349.5" font-family="Helvetica,sans-Serif" font-size="10.00">USBDCD</text>
</a>
</g>
</g>
<!-- Node0&#45;&gt;Node51 -->
<g id="edge51" class="edge"><title>Node0&#45;&gt;Node51</title>
<path fill="none" stroke="black" d="M59.6968,-977.923C63.3481,-882.375 82.8259,-474.064 152,-371 154.52,-367.245 158.055,-364.122 161.861,-361.568"/>
<polygon fill="black" stroke="black" points="56.1888,-978.081 59.3201,-988.202 63.1841,-978.337 56.1888,-978.081"/>
</g>
<!-- Node46 -->
<g id="node46" class="node"><title>Node46</title>
<g id="a_node46"><a xlink:href="group___s_c_b___peripheral.html" target="_top" xlink:title="SCB">
<polygon fill="white" stroke="black" points="166,-304.5 166,-323.5 204,-323.5 204,-304.5 166,-304.5"/>
<text text-anchor="middle" x="185" y="-311.5" font-family="Helvetica,sans-Serif" font-size="10.00">SCB</text>
</a>
</g>
</g>
<!-- Node0&#45;&gt;Node46 -->
<g id="edge46" class="edge"><title>Node0&#45;&gt;Node46</title>
<path fill="none" stroke="black" d="M59.5063,-977.963C62.3427,-879.021 78.8718,-442.939 152,-333 155.364,-327.943 160.572,-324.038 165.816,-321.121"/>
<polygon fill="black" stroke="black" points="56.0041,-977.997 59.2311,-988.089 63.0015,-978.188 56.0041,-977.997"/>
</g>
<!-- Node13 -->
<g id="node47" class="node"><title>Node13</title>
<g id="a_node47"><a xlink:href="group___e_t_b___peripheral.html" target="_top" xlink:title="ETB">
<polygon fill="white" stroke="black" points="167,-266.5 167,-285.5 203,-285.5 203,-266.5 167,-266.5"/>
<text text-anchor="middle" x="185" y="-273.5" font-family="Helvetica,sans-Serif" font-size="10.00">ETB</text>
</a>
</g>
</g>
<!-- Node0&#45;&gt;Node13 -->
<g id="edge13" class="edge"><title>Node0&#45;&gt;Node13</title>
<path fill="none" stroke="black" d="M59.3276,-978.447C61.3553,-877.125 74.798,-412.003 152,-295 155.558,-289.607 161.22,-285.528 166.798,-282.56"/>
<polygon fill="black" stroke="black" points="55.8273,-978.436 59.141,-988.5 62.8261,-978.566 55.8273,-978.436"/>
</g>
<!-- Node33 -->
<g id="node48" class="node"><title>Node33</title>
<g id="a_node48"><a xlink:href="group___o_s_c___peripheral.html" target="_top" xlink:title="OSC">
<polygon fill="white" stroke="black" points="166,-228.5 166,-247.5 204,-247.5 204,-228.5 166,-228.5"/>
<text text-anchor="middle" x="185" y="-235.5" font-family="Helvetica,sans-Serif" font-size="10.00">OSC</text>
</a>
</g>
</g>
<!-- Node0&#45;&gt;Node33 -->
<g id="edge33" class="edge"><title>Node0&#45;&gt;Node33</title>
<path fill="none" stroke="black" d="M59.1801,-978.387C60.4744,-873.699 70.8533,-380.878 152,-257 155.328,-251.92 160.526,-248.008 165.773,-245.093"/>
<polygon fill="black" stroke="black" points="55.6793,-978.447 59.0696,-988.485 62.6789,-978.523 55.6793,-978.447"/>
</g>
<!-- Node8 -->
<g id="node49" class="node"><title>Node8</title>
<g id="a_node49"><a xlink:href="group___core_debug___peripheral.html" target="_top" xlink:title="CoreDebug">
<polygon fill="white" stroke="black" points="152,-190.5 152,-209.5 218,-209.5 218,-190.5 152,-190.5"/>
<text text-anchor="middle" x="185" y="-197.5" font-family="Helvetica,sans-Serif" font-size="10.00">CoreDebug</text>
</a>
</g>
</g>
<!-- Node0&#45;&gt;Node8 -->
<g id="edge8" class="edge"><title>Node0&#45;&gt;Node8</title>
<path fill="none" stroke="black" d="M59.0474,-978.065C59.6458,-869.505 66.9722,-349.661 152,-219 154.467,-215.209 157.977,-212.071 161.776,-209.512"/>
<polygon fill="black" stroke="black" points="55.5468,-978.24 59.0054,-988.255 62.5467,-978.269 55.5468,-978.24"/>
</g>
<!-- Node23 -->
<g id="node50" class="node"><title>Node23</title>
<g id="a_node50"><a xlink:href="group___i2_c___peripheral.html" target="_top" xlink:title="I2C">
<polygon fill="white" stroke="black" points="169,-152.5 169,-171.5 201,-171.5 201,-152.5 169,-152.5"/>
<text text-anchor="middle" x="185" y="-159.5" font-family="Helvetica,sans-Serif" font-size="10.00">I2C</text>
</a>
</g>
</g>
<!-- Node0&#45;&gt;Node23 -->
<g id="edge23" class="edge"><title>Node0&#45;&gt;Node23</title>
<path fill="none" stroke="black" d="M58.9233,-978.151C58.8329,-866.677 62.9798,-318.619 152,-181 155.93,-174.924 162.547,-170.528 168.746,-167.505"/>
<polygon fill="black" stroke="black" points="55.4236,-978.316 58.9453,-988.308 62.4235,-978.301 55.4236,-978.316"/>
</g>
<!-- Node14 -->
<g id="node51" class="node"><title>Node14</title>
<g id="a_node51"><a xlink:href="group___e_t_f___peripheral.html" target="_top" xlink:title="ETF">
<polygon fill="white" stroke="black" points="167.5,-114.5 167.5,-133.5 202.5,-133.5 202.5,-114.5 167.5,-114.5"/>
<text text-anchor="middle" x="185" y="-121.5" font-family="Helvetica,sans-Serif" font-size="10.00">ETF</text>
</a>
</g>
</g>
<!-- Node0&#45;&gt;Node14 -->
<g id="edge14" class="edge"><title>Node0&#45;&gt;Node14</title>
<path fill="none" stroke="black" d="M58.8115,-978.31C58.058,-864.178 58.9621,-287.621 152,-143 155.635,-137.349 161.598,-133.154 167.398,-130.164"/>
<polygon fill="black" stroke="black" points="55.3122,-978.424 58.8914,-988.396 62.312,-978.369 55.3122,-978.424"/>
</g>
<!-- Node7 -->
<g id="node52" class="node"><title>Node7</title>
<g id="a_node52"><a xlink:href="group___c_r_c___peripheral.html" target="_top" xlink:title="CRC">
<polygon fill="white" stroke="black" points="165.5,-76.5 165.5,-95.5 204.5,-95.5 204.5,-76.5 165.5,-76.5"/>
<text text-anchor="middle" x="185" y="-83.5" font-family="Helvetica,sans-Serif" font-size="10.00">CRC</text>
</a>
</g>
</g>
<!-- Node0&#45;&gt;Node7 -->
<g id="edge7" class="edge"><title>Node0&#45;&gt;Node7</title>
<path fill="none" stroke="black" d="M58.7073,-978.17C57.3168,-860.743 55.0207,-256.509 152,-105 155.205,-99.9936 160.239,-96.1317 165.373,-93.2383"/>
<polygon fill="black" stroke="black" points="55.2085,-978.293 58.8395,-988.246 62.2079,-978.201 55.2085,-978.293"/>
</g>
<!-- Node32 -->
<g id="node53" class="node"><title>Node32</title>
<g id="a_node53"><a xlink:href="group___n_v_i_c___peripheral.html" target="_top" xlink:title="NVIC">
<polygon fill="white" stroke="black" points="164.5,-38.5 164.5,-57.5 205.5,-57.5 205.5,-38.5 164.5,-38.5"/>
<text text-anchor="middle" x="185" y="-45.5" font-family="Helvetica,sans-Serif" font-size="10.00">NVIC</text>
</a>
</g>
</g>
<!-- Node0&#45;&gt;Node32 -->
<g id="edge32" class="edge"><title>Node0&#45;&gt;Node32</title>
<path fill="none" stroke="black" d="M59.9253,-977.904C65.9787,-849.49 101.269,-146.625 152,-67 154.986,-62.3138 159.577,-58.6319 164.358,-55.8085"/>
<polygon fill="black" stroke="black" points="56.4142,-978.063 59.4442,-988.215 63.4065,-978.389 56.4142,-978.063"/>
</g>
<!-- Node10 -->
<g id="node54" class="node"><title>Node10</title>
<g id="a_node54"><a xlink:href="group___d_m_a___peripheral.html" target="_top" xlink:title="DMA">
<polygon fill="white" stroke="black" points="165.5,-0.5 165.5,-19.5 204.5,-19.5 204.5,-0.5 165.5,-0.5"/>
<text text-anchor="middle" x="185" y="-7.5" font-family="Helvetica,sans-Serif" font-size="10.00">DMA</text>
</a>
</g>
</g>
<!-- Node0&#45;&gt;Node10 -->
<g id="edge10" class="edge"><title>Node0&#45;&gt;Node10</title>
<path fill="none" stroke="black" d="M59.8248,-978.309C65.4229,-847.975 99.2161,-112.202 152,-29 155.184,-23.9807 160.213,-20.1152 165.348,-17.2224"/>
<polygon fill="black" stroke="black" points="56.3229,-978.282 59.3953,-988.421 63.3166,-978.579 56.3229,-978.282"/>
</g>
</g>
</svg>
