<?xml version="1.0" encoding="UTF-8" standalone="no"?>
<!DOCTYPE svg PUBLIC "-//W3C//DTD SVG 1.1//EN"
 "http://www.w3.org/Graphics/SVG/1.1/DTD/svg11.dtd">
<!-- Generated by graphviz version 2.38.0 (20140413.2041)
 -->
<!-- Title: SDHC Pages: 1 -->
<svg width="376pt" height="78pt"
 viewBox="0.00 0.00 376.00 77.50" xmlns="http://www.w3.org/2000/svg" xmlns:xlink="http://www.w3.org/1999/xlink">
<g id="graph0" class="graph" transform="scale(1 1) rotate(0) translate(4 73.5)">
<title>SDHC</title>
<polygon fill="white" stroke="none" points="-4,4 -4,-73.5 372,-73.5 372,4 -4,4"/>
<!-- Node3 -->
<g id="node1" class="node"><title>Node3</title>
<g id="a_node1"><a xlink:href="group___s_d_h_c___register___masks.html" target="_top" xlink:title="SDHC Register Masks">
<polygon fill="white" stroke="black" points="242,-50 242,-69 360,-69 360,-50 242,-50"/>
<text text-anchor="middle" x="301" y="-57" font-family="Helvetica,sans-Serif" font-size="10.00">SDHC Register Masks</text>
</a>
</g>
</g>
<!-- Node1 -->
<g id="node2" class="node"><title>Node1</title>
<g id="a_node2"><a xlink:href="group___peripheral__defines.html" target="_top" xlink:title="Peripheral type defines">
<polygon fill="white" stroke="black" points="0,-28 0,-47 116,-47 116,-28 0,-28"/>
<text text-anchor="middle" x="58" y="-35" font-family="Helvetica,sans-Serif" font-size="10.00">Peripheral type defines</text>
</a>
</g>
</g>
<!-- Node0 -->
<g id="node3" class="node"><title>Node0</title>
<polygon fill="#bfbfbf" stroke="black" points="152,-28 152,-47 198,-47 198,-28 152,-28"/>
<text text-anchor="middle" x="175" y="-35" font-family="Helvetica,sans-Serif" font-size="10.00">SDHC</text>
</g>
<!-- Node1&#45;&gt;Node0 -->
<g id="edge1" class="edge"><title>Node1&#45;&gt;Node0</title>
<path fill="none" stroke="black" d="M126.273,-37.5C135.508,-37.5 144.396,-37.5 151.947,-37.5"/>
<polygon fill="black" stroke="black" points="126.163,-34.0001 116.163,-37.5 126.163,-41.0001 126.163,-34.0001"/>
</g>
<!-- Node0&#45;&gt;Node3 -->
<g id="edge3" class="edge"><title>Node0&#45;&gt;Node3</title>
<path fill="none" stroke="black" d="M208.27,-43.2252C219.901,-45.2888 233.361,-47.6769 246.326,-49.9772"/>
<polygon fill="black" stroke="black" points="208.626,-39.734 198.169,-41.4332 207.404,-46.6263 208.626,-39.734"/>
</g>
<!-- Node2 -->
<g id="node4" class="node"><title>Node2</title>
<g id="a_node4"><a xlink:href="group___s_d_h_c___register___accessor___macros.html" target="_top" xlink:title="SDHC &#45; Register accessor\l macros">
<polygon fill="white" stroke="black" points="234,-0.5 234,-30.5 368,-30.5 368,-0.5 234,-0.5"/>
<text text-anchor="start" x="242" y="-18.5" font-family="Helvetica,sans-Serif" font-size="10.00">SDHC &#45; Register accessor</text>
<text text-anchor="middle" x="301" y="-7.5" font-family="Helvetica,sans-Serif" font-size="10.00"> macros</text>
</a>
</g>
</g>
<!-- Node0&#45;&gt;Node2 -->
<g id="edge2" class="edge"><title>Node0&#45;&gt;Node2</title>
<path fill="none" stroke="black" d="M208.093,-31.8062C216.07,-30.3907 224.917,-28.8212 233.879,-27.2312"/>
<polygon fill="black" stroke="black" points="207.404,-28.3737 198.169,-33.5668 208.626,-35.266 207.404,-28.3737"/>
</g>
</g>
</svg>
