<?xml version="1.0" encoding="UTF-8" standalone="no"?>
<!DOCTYPE svg PUBLIC "-//W3C//DTD SVG 1.1//EN"
 "http://www.w3.org/Graphics/SVG/1.1/DTD/svg11.dtd">
<!-- Generated by graphviz version 2.38.0 (20140413.2041)
 -->
<!-- Title: NV Pages: 1 -->
<svg width="346pt" height="78pt"
 viewBox="0.00 0.00 346.00 77.50" xmlns="http://www.w3.org/2000/svg" xmlns:xlink="http://www.w3.org/1999/xlink">
<g id="graph0" class="graph" transform="scale(1 1) rotate(0) translate(4 73.5)">
<title>NV</title>
<polygon fill="white" stroke="none" points="-4,4 -4,-73.5 342,-73.5 342,4 -4,4"/>
<!-- Node2 -->
<g id="node1" class="node"><title>Node2</title>
<g id="a_node1"><a xlink:href="group___n_v___register___accessor___macros.html" target="_top" xlink:title="NV &#45; Register accessor\l macros">
<polygon fill="white" stroke="black" points="219,-39 219,-69 338,-69 338,-39 219,-39"/>
<text text-anchor="start" x="227" y="-57" font-family="Helvetica,sans-Serif" font-size="10.00">NV &#45; Register accessor</text>
<text text-anchor="middle" x="278.5" y="-46" font-family="Helvetica,sans-Serif" font-size="10.00"> macros</text>
</a>
</g>
</g>
<!-- Node0 -->
<g id="node2" class="node"><title>Node0</title>
<polygon fill="#bfbfbf" stroke="black" points="152,-22.5 152,-41.5 183,-41.5 183,-22.5 152,-22.5"/>
<text text-anchor="middle" x="167.5" y="-29.5" font-family="Helvetica,sans-Serif" font-size="10.00">NV</text>
</g>
<!-- Node0&#45;&gt;Node2 -->
<g id="edge2" class="edge"><title>Node0&#45;&gt;Node2</title>
<path fill="none" stroke="black" d="M193.215,-36.9884C200.911,-38.5416 209.75,-40.3257 218.745,-42.1412"/>
<polygon fill="black" stroke="black" points="193.695,-33.5147 183.2,-34.967 192.31,-40.3764 193.695,-33.5147"/>
</g>
<!-- Node3 -->
<g id="node4" class="node"><title>Node3</title>
<g id="a_node4"><a xlink:href="group___n_v___register___masks.html" target="_top" xlink:title="NV Register Masks">
<polygon fill="white" stroke="black" points="227,-0.5 227,-19.5 330,-19.5 330,-0.5 227,-0.5"/>
<text text-anchor="middle" x="278.5" y="-7.5" font-family="Helvetica,sans-Serif" font-size="10.00">NV Register Masks</text>
</a>
</g>
</g>
<!-- Node0&#45;&gt;Node3 -->
<g id="edge3" class="edge"><title>Node0&#45;&gt;Node3</title>
<path fill="none" stroke="black" d="M193.238,-27.007C204.144,-24.8057 217.344,-22.1415 230.028,-19.5815"/>
<polygon fill="black" stroke="black" points="192.31,-23.6236 183.2,-29.033 193.695,-30.4853 192.31,-23.6236"/>
</g>
<!-- Node1 -->
<g id="node3" class="node"><title>Node1</title>
<g id="a_node3"><a xlink:href="group___peripheral__defines.html" target="_top" xlink:title="Peripheral type defines">
<polygon fill="white" stroke="black" points="0,-22.5 0,-41.5 116,-41.5 116,-22.5 0,-22.5"/>
<text text-anchor="middle" x="58" y="-29.5" font-family="Helvetica,sans-Serif" font-size="10.00">Peripheral type defines</text>
</a>
</g>
</g>
<!-- Node1&#45;&gt;Node0 -->
<g id="edge1" class="edge"><title>Node1&#45;&gt;Node0</title>
<path fill="none" stroke="black" d="M126.339,-32C135.897,-32 144.841,-32 151.852,-32"/>
<polygon fill="black" stroke="black" points="126.212,-28.5001 116.212,-32 126.212,-35.5001 126.212,-28.5001"/>
</g>
</g>
</svg>
