<?xml version="1.0" encoding="UTF-8" standalone="no"?>
<!DOCTYPE svg PUBLIC "-//W3C//DTD SVG 1.1//EN"
 "http://www.w3.org/Graphics/SVG/1.1/DTD/svg11.dtd">
<!-- Generated by graphviz version 2.38.0 (20140413.2041)
 -->
<!-- Title: RFSYS Pages: 1 -->
<svg width="385pt" height="78pt"
 viewBox="0.00 0.00 385.00 77.50" xmlns="http://www.w3.org/2000/svg" xmlns:xlink="http://www.w3.org/1999/xlink">
<g id="graph0" class="graph" transform="scale(1 1) rotate(0) translate(4 73.5)">
<title>RFSYS</title>
<polygon fill="white" stroke="none" points="-4,4 -4,-73.5 381,-73.5 381,4 -4,4"/>
<!-- Node0 -->
<g id="node1" class="node"><title>Node0</title>
<polygon fill="#bfbfbf" stroke="black" points="152,-22.5 152,-41.5 202,-41.5 202,-22.5 152,-22.5"/>
<text text-anchor="middle" x="177" y="-29.5" font-family="Helvetica,sans-Serif" font-size="10.00">RFSYS</text>
</g>
<!-- Node2 -->
<g id="node3" class="node"><title>Node2</title>
<g id="a_node3"><a xlink:href="group___r_f_s_y_s___register___accessor___macros.html" target="_top" xlink:title="RFSYS &#45; Register accessor\l macros">
<polygon fill="white" stroke="black" points="238,-39 238,-69 377,-69 377,-39 238,-39"/>
<text text-anchor="start" x="246" y="-57" font-family="Helvetica,sans-Serif" font-size="10.00">RFSYS &#45; Register accessor</text>
<text text-anchor="middle" x="307.5" y="-46" font-family="Helvetica,sans-Serif" font-size="10.00"> macros</text>
</a>
</g>
</g>
<!-- Node0&#45;&gt;Node2 -->
<g id="edge2" class="edge"><title>Node0&#45;&gt;Node2</title>
<path fill="none" stroke="black" d="M212.188,-37.8532C220.207,-39.226 229.032,-40.7369 237.968,-42.2668"/>
<polygon fill="black" stroke="black" points="212.617,-34.3758 202.17,-36.138 211.436,-41.2754 212.617,-34.3758"/>
</g>
<!-- Node3 -->
<g id="node4" class="node"><title>Node3</title>
<g id="a_node4"><a xlink:href="group___r_f_s_y_s___register___masks.html" target="_top" xlink:title="RFSYS Register Masks">
<polygon fill="white" stroke="black" points="246.5,-0.5 246.5,-19.5 368.5,-19.5 368.5,-0.5 246.5,-0.5"/>
<text text-anchor="middle" x="307.5" y="-7.5" font-family="Helvetica,sans-Serif" font-size="10.00">RFSYS Register Masks</text>
</a>
</g>
</g>
<!-- Node0&#45;&gt;Node3 -->
<g id="edge3" class="edge"><title>Node0&#45;&gt;Node3</title>
<path fill="none" stroke="black" d="M212.135,-26.1559C224.064,-24.1136 237.783,-21.7647 250.999,-19.5021"/>
<polygon fill="black" stroke="black" points="211.436,-22.7246 202.17,-27.862 212.617,-29.6242 211.436,-22.7246"/>
</g>
<!-- Node1 -->
<g id="node2" class="node"><title>Node1</title>
<g id="a_node2"><a xlink:href="group___peripheral__defines.html" target="_top" xlink:title="Peripheral type defines">
<polygon fill="white" stroke="black" points="0,-22.5 0,-41.5 116,-41.5 116,-22.5 0,-22.5"/>
<text text-anchor="middle" x="58" y="-29.5" font-family="Helvetica,sans-Serif" font-size="10.00">Peripheral type defines</text>
</a>
</g>
</g>
<!-- Node1&#45;&gt;Node0 -->
<g id="edge1" class="edge"><title>Node1&#45;&gt;Node0</title>
<path fill="none" stroke="black" d="M126.18,-32C135.377,-32 144.282,-32 151.957,-32"/>
<polygon fill="black" stroke="black" points="126.129,-28.5001 116.129,-32 126.129,-35.5001 126.129,-28.5001"/>
</g>
</g>
</svg>
