<?xml version="1.0" encoding="UTF-8" standalone="no"?>
<!DOCTYPE svg PUBLIC "-//W3C//DTD SVG 1.1//EN"
 "http://www.w3.org/Graphics/SVG/1.1/DTD/svg11.dtd">
<!-- Generated by graphviz version 2.38.0 (20140413.2041)
 -->
<!-- Title: VREF Pages: 1 -->
<svg width="372pt" height="78pt"
 viewBox="0.00 0.00 372.00 77.50" xmlns="http://www.w3.org/2000/svg" xmlns:xlink="http://www.w3.org/1999/xlink">
<g id="graph0" class="graph" transform="scale(1 1) rotate(0) translate(4 73.5)">
<title>VREF</title>
<polygon fill="white" stroke="none" points="-4,4 -4,-73.5 368,-73.5 368,4 -4,4"/>
<!-- Node1 -->
<g id="node1" class="node"><title>Node1</title>
<g id="a_node1"><a xlink:href="group___peripheral__defines.html" target="_top" xlink:title="Peripheral type defines">
<polygon fill="white" stroke="black" points="0,-28 0,-47 116,-47 116,-28 0,-28"/>
<text text-anchor="middle" x="58" y="-35" font-family="Helvetica,sans-Serif" font-size="10.00">Peripheral type defines</text>
</a>
</g>
</g>
<!-- Node0 -->
<g id="node3" class="node"><title>Node0</title>
<polygon fill="#bfbfbf" stroke="black" points="152,-28 152,-47 196,-47 196,-28 152,-28"/>
<text text-anchor="middle" x="174" y="-35" font-family="Helvetica,sans-Serif" font-size="10.00">VREF</text>
</g>
<!-- Node1&#45;&gt;Node0 -->
<g id="edge1" class="edge"><title>Node1&#45;&gt;Node0</title>
<path fill="none" stroke="black" d="M126.444,-37.5C135.668,-37.5 144.514,-37.5 151.971,-37.5"/>
<polygon fill="black" stroke="black" points="126.334,-34.0001 116.334,-37.5 126.334,-41.0001 126.334,-34.0001"/>
</g>
<!-- Node3 -->
<g id="node2" class="node"><title>Node3</title>
<g id="a_node2"><a xlink:href="group___v_r_e_f___register___masks.html" target="_top" xlink:title="VREF Register Masks">
<polygon fill="white" stroke="black" points="240,-50 240,-69 356,-69 356,-50 240,-50"/>
<text text-anchor="middle" x="298" y="-57" font-family="Helvetica,sans-Serif" font-size="10.00">VREF Register Masks</text>
</a>
</g>
</g>
<!-- Node0&#45;&gt;Node3 -->
<g id="edge3" class="edge"><title>Node0&#45;&gt;Node3</title>
<path fill="none" stroke="black" d="M206.28,-43.1406C217.853,-45.2276 231.315,-47.6552 244.271,-49.9914"/>
<polygon fill="black" stroke="black" points="206.713,-39.6624 196.251,-41.3321 205.471,-46.5513 206.713,-39.6624"/>
</g>
<!-- Node2 -->
<g id="node4" class="node"><title>Node2</title>
<g id="a_node4"><a xlink:href="group___v_r_e_f___register___accessor___macros.html" target="_top" xlink:title="VREF &#45; Register accessor\l macros">
<polygon fill="white" stroke="black" points="232,-0.5 232,-30.5 364,-30.5 364,-0.5 232,-0.5"/>
<text text-anchor="start" x="240" y="-18.5" font-family="Helvetica,sans-Serif" font-size="10.00">VREF &#45; Register accessor</text>
<text text-anchor="middle" x="298" y="-7.5" font-family="Helvetica,sans-Serif" font-size="10.00"> macros</text>
</a>
</g>
</g>
<!-- Node0&#45;&gt;Node2 -->
<g id="edge2" class="edge"><title>Node0&#45;&gt;Node2</title>
<path fill="none" stroke="black" d="M206.138,-31.8849C214.105,-30.4484 222.973,-28.8491 231.959,-27.2287"/>
<polygon fill="black" stroke="black" points="205.471,-28.4487 196.251,-33.6679 206.713,-35.3376 205.471,-28.4487"/>
</g>
</g>
</svg>
