<?xml version="1.0" encoding="UTF-8" standalone="no"?>
<!DOCTYPE svg PUBLIC "-//W3C//DTD SVG 1.1//EN"
 "http://www.w3.org/Graphics/SVG/1.1/DTD/svg11.dtd">
<!-- Generated by graphviz version 2.38.0 (20140413.2041)
 -->
<!-- Title: PMC Pages: 1 -->
<svg width="363pt" height="78pt"
 viewBox="0.00 0.00 363.00 77.50" xmlns="http://www.w3.org/2000/svg" xmlns:xlink="http://www.w3.org/1999/xlink">
<g id="graph0" class="graph" transform="scale(1 1) rotate(0) translate(4 73.5)">
<title>PMC</title>
<polygon fill="white" stroke="none" points="-4,4 -4,-73.5 359,-73.5 359,4 -4,4"/>
<!-- Node2 -->
<g id="node1" class="node"><title>Node2</title>
<g id="a_node1"><a xlink:href="group___p_m_c___register___accessor___macros.html" target="_top" xlink:title="PMC &#45; Register accessor\l macros">
<polygon fill="white" stroke="black" points="227,-39 227,-69 355,-69 355,-39 227,-39"/>
<text text-anchor="start" x="235" y="-57" font-family="Helvetica,sans-Serif" font-size="10.00">PMC &#45; Register accessor</text>
<text text-anchor="middle" x="291" y="-46" font-family="Helvetica,sans-Serif" font-size="10.00"> macros</text>
</a>
</g>
</g>
<!-- Node1 -->
<g id="node2" class="node"><title>Node1</title>
<g id="a_node2"><a xlink:href="group___peripheral__defines.html" target="_top" xlink:title="Peripheral type defines">
<polygon fill="white" stroke="black" points="0,-22.5 0,-41.5 116,-41.5 116,-22.5 0,-22.5"/>
<text text-anchor="middle" x="58" y="-29.5" font-family="Helvetica,sans-Serif" font-size="10.00">Peripheral type defines</text>
</a>
</g>
</g>
<!-- Node0 -->
<g id="node3" class="node"><title>Node0</title>
<polygon fill="#bfbfbf" stroke="black" points="152,-22.5 152,-41.5 191,-41.5 191,-22.5 152,-22.5"/>
<text text-anchor="middle" x="171.5" y="-29.5" font-family="Helvetica,sans-Serif" font-size="10.00">PMC</text>
</g>
<!-- Node1&#45;&gt;Node0 -->
<g id="edge1" class="edge"><title>Node1&#45;&gt;Node0</title>
<path fill="none" stroke="black" d="M126.233,-32C135.498,-32 144.321,-32 151.617,-32"/>
<polygon fill="black" stroke="black" points="126.057,-28.5001 116.057,-32 126.056,-35.5001 126.057,-28.5001"/>
</g>
<!-- Node0&#45;&gt;Node2 -->
<g id="edge2" class="edge"><title>Node0&#45;&gt;Node2</title>
<path fill="none" stroke="black" d="M201.173,-37.3686C209.055,-38.8444 217.927,-40.5054 226.934,-42.1918"/>
<polygon fill="black" stroke="black" points="201.592,-33.8862 191.118,-35.486 200.303,-40.7666 201.592,-33.8862"/>
</g>
<!-- Node3 -->
<g id="node4" class="node"><title>Node3</title>
<g id="a_node4"><a xlink:href="group___p_m_c___register___masks.html" target="_top" xlink:title="PMC Register Masks">
<polygon fill="white" stroke="black" points="235.5,-0.5 235.5,-19.5 346.5,-19.5 346.5,-0.5 235.5,-0.5"/>
<text text-anchor="middle" x="291" y="-7.5" font-family="Helvetica,sans-Serif" font-size="10.00">PMC Register Masks</text>
</a>
</g>
</g>
<!-- Node0&#45;&gt;Node3 -->
<g id="edge3" class="edge"><title>Node0&#45;&gt;Node3</title>
<path fill="none" stroke="black" d="M200.963,-26.6708C212.411,-24.5272 225.972,-21.9883 239.013,-19.5465"/>
<polygon fill="black" stroke="black" points="200.303,-23.2334 191.118,-28.514 201.592,-30.1138 200.303,-23.2334"/>
</g>
</g>
</svg>
