<?xml version="1.0" encoding="UTF-8" standalone="no"?>
<!DOCTYPE svg PUBLIC "-//W3C//DTD SVG 1.1//EN"
 "http://www.w3.org/Graphics/SVG/1.1/DTD/svg11.dtd">
<!-- Generated by graphviz version 2.38.0 (20140413.2041)
 -->
<!-- Title: SysTick Pages: 1 -->
<svg width="374pt" height="78pt"
 viewBox="0.00 0.00 374.00 77.50" xmlns="http://www.w3.org/2000/svg" xmlns:xlink="http://www.w3.org/1999/xlink">
<g id="graph0" class="graph" transform="scale(1 1) rotate(0) translate(4 73.5)">
<title>SysTick</title>
<polygon fill="white" stroke="none" points="-4,4 -4,-73.5 370,-73.5 370,4 -4,4"/>
<!-- Node0 -->
<g id="node1" class="node"><title>Node0</title>
<polygon fill="#bfbfbf" stroke="black" points="152,-22.5 152,-41.5 205,-41.5 205,-22.5 152,-22.5"/>
<text text-anchor="middle" x="178.5" y="-29.5" font-family="Helvetica,sans-Serif" font-size="10.00">SysTick</text>
</g>
<!-- Node2 -->
<g id="node3" class="node"><title>Node2</title>
<g id="a_node3"><a xlink:href="group___sys_tick___register___accessor___macros.html" target="_top" xlink:title="SysTick &#45; Register\l accessor macros">
<polygon fill="white" stroke="black" points="254.5,-39 254.5,-69 352.5,-69 352.5,-39 254.5,-39"/>
<text text-anchor="start" x="262.5" y="-57" font-family="Helvetica,sans-Serif" font-size="10.00">SysTick &#45; Register</text>
<text text-anchor="middle" x="303.5" y="-46" font-family="Helvetica,sans-Serif" font-size="10.00"> accessor macros</text>
</a>
</g>
</g>
<!-- Node0&#45;&gt;Node2 -->
<g id="edge2" class="edge"><title>Node0&#45;&gt;Node2</title>
<path fill="none" stroke="black" d="M215.496,-38.4383C227.66,-40.614 241.441,-43.0789 254.39,-45.395"/>
<polygon fill="black" stroke="black" points="215.745,-34.9274 205.285,-36.6119 214.512,-41.818 215.745,-34.9274"/>
</g>
<!-- Node3 -->
<g id="node4" class="node"><title>Node3</title>
<g id="a_node4"><a xlink:href="group___sys_tick___register___masks.html" target="_top" xlink:title="SysTick Register Masks">
<polygon fill="white" stroke="black" points="241,-0.5 241,-19.5 366,-19.5 366,-0.5 241,-0.5"/>
<text text-anchor="middle" x="303.5" y="-7.5" font-family="Helvetica,sans-Serif" font-size="10.00">SysTick Register Masks</text>
</a>
</g>
</g>
<!-- Node0&#45;&gt;Node3 -->
<g id="edge3" class="edge"><title>Node0&#45;&gt;Node3</title>
<path fill="none" stroke="black" d="M215.434,-25.5727C226.057,-23.6728 237.917,-21.5514 249.382,-19.5008"/>
<polygon fill="black" stroke="black" points="214.512,-22.182 205.285,-27.3881 215.745,-29.0726 214.512,-22.182"/>
</g>
<!-- Node1 -->
<g id="node2" class="node"><title>Node1</title>
<g id="a_node2"><a xlink:href="group___peripheral__defines.html" target="_top" xlink:title="Peripheral type defines">
<polygon fill="white" stroke="black" points="0,-22.5 0,-41.5 116,-41.5 116,-22.5 0,-22.5"/>
<text text-anchor="middle" x="58" y="-29.5" font-family="Helvetica,sans-Serif" font-size="10.00">Peripheral type defines</text>
</a>
</g>
</g>
<!-- Node1&#45;&gt;Node0 -->
<g id="edge1" class="edge"><title>Node1&#45;&gt;Node0</title>
<path fill="none" stroke="black" d="M126.442,-32C135.485,-32 144.269,-32 151.929,-32"/>
<polygon fill="black" stroke="black" points="126.167,-28.5001 116.167,-32 126.167,-35.5001 126.167,-28.5001"/>
</g>
</g>
</svg>
