<?xml version="1.0" encoding="UTF-8" standalone="no"?>
<!DOCTYPE svg PUBLIC "-//W3C//DTD SVG 1.1//EN"
 "http://www.w3.org/Graphics/SVG/1.1/DTD/svg11.dtd">
<!-- Generated by graphviz version 2.38.0 (20140413.2041)
 -->
<!-- Title: I2C Pages: 1 -->
<svg width="349pt" height="78pt"
 viewBox="0.00 0.00 349.00 77.50" xmlns="http://www.w3.org/2000/svg" xmlns:xlink="http://www.w3.org/1999/xlink">
<g id="graph0" class="graph" transform="scale(1 1) rotate(0) translate(4 73.5)">
<title>I2C</title>
<polygon fill="white" stroke="none" points="-4,4 -4,-73.5 345,-73.5 345,4 -4,4"/>
<!-- Node3 -->
<g id="node1" class="node"><title>Node3</title>
<g id="a_node1"><a xlink:href="group___i2_c___register___masks.html" target="_top" xlink:title="I2C Register Masks">
<polygon fill="white" stroke="black" points="228.5,-50 228.5,-69 332.5,-69 332.5,-50 228.5,-50"/>
<text text-anchor="middle" x="280.5" y="-57" font-family="Helvetica,sans-Serif" font-size="10.00">I2C Register Masks</text>
</a>
</g>
</g>
<!-- Node1 -->
<g id="node2" class="node"><title>Node1</title>
<g id="a_node2"><a xlink:href="group___peripheral__defines.html" target="_top" xlink:title="Peripheral type defines">
<polygon fill="white" stroke="black" points="0,-28 0,-47 116,-47 116,-28 0,-28"/>
<text text-anchor="middle" x="58" y="-35" font-family="Helvetica,sans-Serif" font-size="10.00">Peripheral type defines</text>
</a>
</g>
</g>
<!-- Node0 -->
<g id="node4" class="node"><title>Node0</title>
<polygon fill="#bfbfbf" stroke="black" points="152,-28 152,-47 184,-47 184,-28 152,-28"/>
<text text-anchor="middle" x="168" y="-35" font-family="Helvetica,sans-Serif" font-size="10.00">I2C</text>
</g>
<!-- Node1&#45;&gt;Node0 -->
<g id="edge1" class="edge"><title>Node1&#45;&gt;Node0</title>
<path fill="none" stroke="black" d="M126.233,-37.5C135.746,-37.5 144.675,-37.5 151.737,-37.5"/>
<polygon fill="black" stroke="black" points="126.162,-34.0001 116.162,-37.5 126.162,-41.0001 126.162,-34.0001"/>
</g>
<!-- Node2 -->
<g id="node3" class="node"><title>Node2</title>
<g id="a_node3"><a xlink:href="group___i2_c___register___accessor___macros.html" target="_top" xlink:title="I2C &#45; Register accessor\l macros">
<polygon fill="white" stroke="black" points="220,-0.5 220,-30.5 341,-30.5 341,-0.5 220,-0.5"/>
<text text-anchor="start" x="228" y="-18.5" font-family="Helvetica,sans-Serif" font-size="10.00">I2C &#45; Register accessor</text>
<text text-anchor="middle" x="280.5" y="-7.5" font-family="Helvetica,sans-Serif" font-size="10.00"> macros</text>
</a>
</g>
</g>
<!-- Node0&#45;&gt;Node3 -->
<g id="edge3" class="edge"><title>Node0&#45;&gt;Node3</title>
<path fill="none" stroke="black" d="M194.231,-42.5234C205.368,-44.7406 218.841,-47.423 231.756,-49.9944"/>
<polygon fill="black" stroke="black" points="194.856,-39.0791 184.365,-40.559 193.489,-45.9443 194.856,-39.0791"/>
</g>
<!-- Node0&#45;&gt;Node2 -->
<g id="edge2" class="edge"><title>Node0&#45;&gt;Node2</title>
<path fill="none" stroke="black" d="M194.417,-32.4396C202.118,-30.9063 210.924,-29.1532 219.884,-27.3693"/>
<polygon fill="black" stroke="black" points="193.489,-29.0557 184.365,-34.441 194.856,-35.9209 193.489,-29.0557"/>
</g>
</g>
</svg>
