<?xml version="1.0" encoding="UTF-8" standalone="no"?>
<!DOCTYPE svg PUBLIC "-//W3C//DTD SVG 1.1//EN"
 "http://www.w3.org/Graphics/SVG/1.1/DTD/svg11.dtd">
<!-- Generated by graphviz version 2.38.0 (20140413.2041)
 -->
<!-- Title: USBDCD Pages: 1 -->
<svg width="405pt" height="78pt"
 viewBox="0.00 0.00 405.00 77.50" xmlns="http://www.w3.org/2000/svg" xmlns:xlink="http://www.w3.org/1999/xlink">
<g id="graph0" class="graph" transform="scale(1 1) rotate(0) translate(4 73.5)">
<title>USBDCD</title>
<polygon fill="white" stroke="none" points="-4,4 -4,-73.5 401,-73.5 401,4 -4,4"/>
<!-- Node1 -->
<g id="node1" class="node"><title>Node1</title>
<g id="a_node1"><a xlink:href="group___peripheral__defines.html" target="_top" xlink:title="Peripheral type defines">
<polygon fill="white" stroke="black" points="0,-22.5 0,-41.5 116,-41.5 116,-22.5 0,-22.5"/>
<text text-anchor="middle" x="58" y="-29.5" font-family="Helvetica,sans-Serif" font-size="10.00">Peripheral type defines</text>
</a>
</g>
</g>
<!-- Node0 -->
<g id="node3" class="node"><title>Node0</title>
<polygon fill="#bfbfbf" stroke="black" points="152,-22.5 152,-41.5 212,-41.5 212,-22.5 152,-22.5"/>
<text text-anchor="middle" x="182" y="-29.5" font-family="Helvetica,sans-Serif" font-size="10.00">USBDCD</text>
</g>
<!-- Node1&#45;&gt;Node0 -->
<g id="edge1" class="edge"><title>Node1&#45;&gt;Node0</title>
<path fill="none" stroke="black" d="M126.252,-32C135.238,-32 144.041,-32 151.87,-32"/>
<polygon fill="black" stroke="black" points="126.071,-28.5001 116.071,-32 126.071,-35.5001 126.071,-28.5001"/>
</g>
<!-- Node2 -->
<g id="node2" class="node"><title>Node2</title>
<g id="a_node2"><a xlink:href="group___u_s_b_d_c_d___register___accessor___macros.html" target="_top" xlink:title="USBDCD &#45; Register accessor\l macros">
<polygon fill="white" stroke="black" points="248,-39 248,-69 397,-69 397,-39 248,-39"/>
<text text-anchor="start" x="256" y="-57" font-family="Helvetica,sans-Serif" font-size="10.00">USBDCD &#45; Register accessor</text>
<text text-anchor="middle" x="322.5" y="-46" font-family="Helvetica,sans-Serif" font-size="10.00"> macros</text>
</a>
</g>
</g>
<!-- Node0&#45;&gt;Node2 -->
<g id="edge2" class="edge"><title>Node0&#45;&gt;Node2</title>
<path fill="none" stroke="black" d="M221.967,-38.1896C230.14,-39.4879 239.014,-40.8975 247.984,-42.3224"/>
<polygon fill="black" stroke="black" points="222.459,-34.7241 212.034,-36.6119 221.361,-41.6374 222.459,-34.7241"/>
</g>
<!-- Node3 -->
<g id="node4" class="node"><title>Node3</title>
<g id="a_node4"><a xlink:href="group___u_s_b_d_c_d___register___masks.html" target="_top" xlink:title="USBDCD Register Masks">
<polygon fill="white" stroke="black" points="256.5,-0.5 256.5,-19.5 388.5,-19.5 388.5,-0.5 256.5,-0.5"/>
<text text-anchor="middle" x="322.5" y="-7.5" font-family="Helvetica,sans-Serif" font-size="10.00">USBDCD Register Masks</text>
</a>
</g>
</g>
<!-- Node0&#45;&gt;Node3 -->
<g id="edge3" class="edge"><title>Node0&#45;&gt;Node3</title>
<path fill="none" stroke="black" d="M221.975,-25.8091C234.31,-23.8497 248.241,-21.6368 261.688,-19.5008"/>
<polygon fill="black" stroke="black" points="221.361,-22.3626 212.034,-27.3881 222.459,-29.2759 221.361,-22.3626"/>
</g>
</g>
</svg>
