<?xml version="1.0" encoding="UTF-8" standalone="no"?>
<!DOCTYPE svg PUBLIC "-//W3C//DTD SVG 1.1//EN"
 "http://www.w3.org/Graphics/SVG/1.1/DTD/svg11.dtd">
<!-- Generated by graphviz version 2.38.0 (20140413.2041)
 -->
<!-- Title: FB Pages: 1 -->
<svg width="343pt" height="78pt"
 viewBox="0.00 0.00 343.00 77.50" xmlns="http://www.w3.org/2000/svg" xmlns:xlink="http://www.w3.org/1999/xlink">
<g id="graph0" class="graph" transform="scale(1 1) rotate(0) translate(4 73.5)">
<title>FB</title>
<polygon fill="white" stroke="none" points="-4,4 -4,-73.5 339,-73.5 339,4 -4,4"/>
<!-- Node0 -->
<g id="node1" class="node"><title>Node0</title>
<polygon fill="#bfbfbf" stroke="black" points="152,-22.5 152,-41.5 181,-41.5 181,-22.5 152,-22.5"/>
<text text-anchor="middle" x="166.5" y="-29.5" font-family="Helvetica,sans-Serif" font-size="10.00">FB</text>
</g>
<!-- Node2 -->
<g id="node2" class="node"><title>Node2</title>
<g id="a_node2"><a xlink:href="group___f_b___register___accessor___macros.html" target="_top" xlink:title="FB &#45; Register accessor\l macros">
<polygon fill="white" stroke="black" points="217,-39 217,-69 335,-69 335,-39 217,-39"/>
<text text-anchor="start" x="225" y="-57" font-family="Helvetica,sans-Serif" font-size="10.00">FB &#45; Register accessor</text>
<text text-anchor="middle" x="276" y="-46" font-family="Helvetica,sans-Serif" font-size="10.00"> macros</text>
</a>
</g>
</g>
<!-- Node0&#45;&gt;Node2 -->
<g id="edge2" class="edge"><title>Node0&#45;&gt;Node2</title>
<path fill="none" stroke="black" d="M191.047,-36.819C198.723,-38.3899 207.616,-40.2098 216.683,-42.0654"/>
<polygon fill="black" stroke="black" points="191.614,-33.3624 181.115,-34.7863 190.21,-40.2203 191.614,-33.3624"/>
</g>
<!-- Node3 -->
<g id="node4" class="node"><title>Node3</title>
<g id="a_node4"><a xlink:href="group___f_b___register___masks.html" target="_top" xlink:title="FB Register Masks">
<polygon fill="white" stroke="black" points="225.5,-0.5 225.5,-19.5 326.5,-19.5 326.5,-0.5 225.5,-0.5"/>
<text text-anchor="middle" x="276" y="-7.5" font-family="Helvetica,sans-Serif" font-size="10.00">FB Register Masks</text>
</a>
</g>
</g>
<!-- Node0&#45;&gt;Node3 -->
<g id="edge3" class="edge"><title>Node0&#45;&gt;Node3</title>
<path fill="none" stroke="black" d="M191.144,-27.1612C202.108,-24.9174 215.538,-22.1689 228.411,-19.5346"/>
<polygon fill="black" stroke="black" points="190.21,-23.7797 181.115,-29.2137 191.614,-30.6376 190.21,-23.7797"/>
</g>
<!-- Node1 -->
<g id="node3" class="node"><title>Node1</title>
<g id="a_node3"><a xlink:href="group___peripheral__defines.html" target="_top" xlink:title="Peripheral type defines">
<polygon fill="white" stroke="black" points="0,-22.5 0,-41.5 116,-41.5 116,-22.5 0,-22.5"/>
<text text-anchor="middle" x="58" y="-29.5" font-family="Helvetica,sans-Serif" font-size="10.00">Peripheral type defines</text>
</a>
</g>
</g>
<!-- Node1&#45;&gt;Node0 -->
<g id="edge1" class="edge"><title>Node1&#45;&gt;Node0</title>
<path fill="none" stroke="black" d="M126.385,-32C135.89,-32 144.746,-32 151.62,-32"/>
<polygon fill="black" stroke="black" points="126.303,-28.5001 116.303,-32 126.303,-35.5001 126.303,-28.5001"/>
</g>
</g>
</svg>
