<?xml version="1.0" encoding="UTF-8" standalone="no"?>
<!DOCTYPE svg PUBLIC "-//W3C//DTD SVG 1.1//EN"
 "http://www.w3.org/Graphics/SVG/1.1/DTD/svg11.dtd">
<!-- Generated by graphviz version 2.38.0 (20140413.2041)
 -->
<!-- Title: UART Pages: 1 -->
<svg width="373pt" height="78pt"
 viewBox="0.00 0.00 373.00 77.50" xmlns="http://www.w3.org/2000/svg" xmlns:xlink="http://www.w3.org/1999/xlink">
<g id="graph0" class="graph" transform="scale(1 1) rotate(0) translate(4 73.5)">
<title>UART</title>
<polygon fill="white" stroke="none" points="-4,4 -4,-73.5 369,-73.5 369,4 -4,4"/>
<!-- Node2 -->
<g id="node1" class="node"><title>Node2</title>
<g id="a_node1"><a xlink:href="group___u_a_r_t___register___accessor___macros.html" target="_top" xlink:title="UART &#45; Register accessor\l macros">
<polygon fill="white" stroke="black" points="232,-39 232,-69 365,-69 365,-39 232,-39"/>
<text text-anchor="start" x="240" y="-57" font-family="Helvetica,sans-Serif" font-size="10.00">UART &#45; Register accessor</text>
<text text-anchor="middle" x="298.5" y="-46" font-family="Helvetica,sans-Serif" font-size="10.00"> macros</text>
</a>
</g>
</g>
<!-- Node1 -->
<g id="node2" class="node"><title>Node1</title>
<g id="a_node2"><a xlink:href="group___peripheral__defines.html" target="_top" xlink:title="Peripheral type defines">
<polygon fill="white" stroke="black" points="0,-22.5 0,-41.5 116,-41.5 116,-22.5 0,-22.5"/>
<text text-anchor="middle" x="58" y="-29.5" font-family="Helvetica,sans-Serif" font-size="10.00">Peripheral type defines</text>
</a>
</g>
</g>
<!-- Node0 -->
<g id="node4" class="node"><title>Node0</title>
<polygon fill="#bfbfbf" stroke="black" points="152,-22.5 152,-41.5 196,-41.5 196,-22.5 152,-22.5"/>
<text text-anchor="middle" x="174" y="-29.5" font-family="Helvetica,sans-Serif" font-size="10.00">UART</text>
</g>
<!-- Node1&#45;&gt;Node0 -->
<g id="edge1" class="edge"><title>Node1&#45;&gt;Node0</title>
<path fill="none" stroke="black" d="M126.444,-32C135.668,-32 144.514,-32 151.971,-32"/>
<polygon fill="black" stroke="black" points="126.334,-28.5001 116.334,-32 126.334,-35.5001 126.334,-28.5001"/>
</g>
<!-- Node3 -->
<g id="node3" class="node"><title>Node3</title>
<g id="a_node3"><a xlink:href="group___u_a_r_t___register___masks.html" target="_top" xlink:title="UART Register Masks">
<polygon fill="white" stroke="black" points="240.5,-0.5 240.5,-19.5 356.5,-19.5 356.5,-0.5 240.5,-0.5"/>
<text text-anchor="middle" x="298.5" y="-7.5" font-family="Helvetica,sans-Serif" font-size="10.00">UART Register Masks</text>
</a>
</g>
</g>
<!-- Node0&#45;&gt;Node2 -->
<g id="edge2" class="edge"><title>Node0&#45;&gt;Node2</title>
<path fill="none" stroke="black" d="M205.976,-37.5631C213.975,-38.9996 222.894,-40.6013 231.938,-42.2256"/>
<polygon fill="black" stroke="black" points="206.52,-34.1048 196.059,-35.7819 205.282,-40.9945 206.52,-34.1048"/>
</g>
<!-- Node0&#45;&gt;Node3 -->
<g id="edge3" class="edge"><title>Node0&#45;&gt;Node3</title>
<path fill="none" stroke="black" d="M206.173,-26.4015C217.859,-24.3029 231.487,-21.8553 244.596,-19.5011"/>
<polygon fill="black" stroke="black" points="205.282,-23.0055 196.059,-28.2181 206.52,-29.8952 205.282,-23.0055"/>
</g>
</g>
</svg>
