<?xml version="1.0" encoding="UTF-8" standalone="no"?>
<!DOCTYPE svg PUBLIC "-//W3C//DTD SVG 1.1//EN"
 "http://www.w3.org/Graphics/SVG/1.1/DTD/svg11.dtd">
<!-- Generated by graphviz version 2.38.0 (20140413.2041)
 -->
<!-- Title: TPIU Pages: 1 -->
<svg width="364pt" height="78pt"
 viewBox="0.00 0.00 364.00 77.50" xmlns="http://www.w3.org/2000/svg" xmlns:xlink="http://www.w3.org/1999/xlink">
<g id="graph0" class="graph" transform="scale(1 1) rotate(0) translate(4 73.5)">
<title>TPIU</title>
<polygon fill="white" stroke="none" points="-4,4 -4,-73.5 360,-73.5 360,4 -4,4"/>
<!-- Node1 -->
<g id="node1" class="node"><title>Node1</title>
<g id="a_node1"><a xlink:href="group___peripheral__defines.html" target="_top" xlink:title="Peripheral type defines">
<polygon fill="white" stroke="black" points="0,-22.5 0,-41.5 116,-41.5 116,-22.5 0,-22.5"/>
<text text-anchor="middle" x="58" y="-29.5" font-family="Helvetica,sans-Serif" font-size="10.00">Peripheral type defines</text>
</a>
</g>
</g>
<!-- Node0 -->
<g id="node4" class="node"><title>Node0</title>
<polygon fill="#bfbfbf" stroke="black" points="152,-22.5 152,-41.5 192,-41.5 192,-22.5 152,-22.5"/>
<text text-anchor="middle" x="172" y="-29.5" font-family="Helvetica,sans-Serif" font-size="10.00">TPIU</text>
</g>
<!-- Node1&#45;&gt;Node0 -->
<g id="edge1" class="edge"><title>Node1&#45;&gt;Node0</title>
<path fill="none" stroke="black" d="M126.45,-32C135.682,-32 144.48,-32 151.782,-32"/>
<polygon fill="black" stroke="black" points="126.312,-28.5001 116.312,-32 126.312,-35.5001 126.312,-28.5001"/>
</g>
<!-- Node2 -->
<g id="node2" class="node"><title>Node2</title>
<g id="a_node2"><a xlink:href="group___t_p_i_u___register___accessor___macros.html" target="_top" xlink:title="TPIU &#45; Register accessor\l macros">
<polygon fill="white" stroke="black" points="228,-39 228,-69 356,-69 356,-39 228,-39"/>
<text text-anchor="start" x="236" y="-57" font-family="Helvetica,sans-Serif" font-size="10.00">TPIU &#45; Register accessor</text>
<text text-anchor="middle" x="292" y="-46" font-family="Helvetica,sans-Serif" font-size="10.00"> macros</text>
</a>
</g>
</g>
<!-- Node3 -->
<g id="node3" class="node"><title>Node3</title>
<g id="a_node3"><a xlink:href="group___t_p_i_u___register___masks.html" target="_top" xlink:title="TPIU Register Masks">
<polygon fill="white" stroke="black" points="236,-0.5 236,-19.5 348,-19.5 348,-0.5 236,-0.5"/>
<text text-anchor="middle" x="292" y="-7.5" font-family="Helvetica,sans-Serif" font-size="10.00">TPIU Register Masks</text>
</a>
</g>
</g>
<!-- Node0&#45;&gt;Node2 -->
<g id="edge2" class="edge"><title>Node0&#45;&gt;Node2</title>
<path fill="none" stroke="black" d="M202.274,-37.4578C210.136,-38.9236 218.951,-40.5671 227.892,-42.2342"/>
<polygon fill="black" stroke="black" points="202.693,-33.9758 192.221,-35.5836 201.41,-40.8573 202.693,-33.9758"/>
</g>
<!-- Node0&#45;&gt;Node3 -->
<g id="edge3" class="edge"><title>Node0&#45;&gt;Node3</title>
<path fill="none" stroke="black" d="M202.08,-26.5783C213.519,-24.4455 227,-21.9322 239.959,-19.5162"/>
<polygon fill="black" stroke="black" points="201.41,-23.1427 192.221,-28.4164 202.693,-30.0242 201.41,-23.1427"/>
</g>
</g>
</svg>
