<?xml version="1.0" encoding="UTF-8" standalone="no"?>
<!DOCTYPE svg PUBLIC "-//W3C//DTD SVG 1.1//EN"
 "http://www.w3.org/Graphics/SVG/1.1/DTD/svg11.dtd">
<!-- Generated by graphviz version 2.38.0 (20140413.2041)
 -->
<!-- Title: SCB Pages: 1 -->
<svg width="360pt" height="78pt"
 viewBox="0.00 0.00 360.00 77.50" xmlns="http://www.w3.org/2000/svg" xmlns:xlink="http://www.w3.org/1999/xlink">
<g id="graph0" class="graph" transform="scale(1 1) rotate(0) translate(4 73.5)">
<title>SCB</title>
<polygon fill="white" stroke="none" points="-4,4 -4,-73.5 356,-73.5 356,4 -4,4"/>
<!-- Node3 -->
<g id="node1" class="node"><title>Node3</title>
<g id="a_node1"><a xlink:href="group___s_c_b___register___masks.html" target="_top" xlink:title="SCB Register Masks">
<polygon fill="white" stroke="black" points="234,-50 234,-69 344,-69 344,-50 234,-50"/>
<text text-anchor="middle" x="289" y="-57" font-family="Helvetica,sans-Serif" font-size="10.00">SCB Register Masks</text>
</a>
</g>
</g>
<!-- Node1 -->
<g id="node2" class="node"><title>Node1</title>
<g id="a_node2"><a xlink:href="group___peripheral__defines.html" target="_top" xlink:title="Peripheral type defines">
<polygon fill="white" stroke="black" points="0,-28 0,-47 116,-47 116,-28 0,-28"/>
<text text-anchor="middle" x="58" y="-35" font-family="Helvetica,sans-Serif" font-size="10.00">Peripheral type defines</text>
</a>
</g>
</g>
<!-- Node0 -->
<g id="node4" class="node"><title>Node0</title>
<polygon fill="#bfbfbf" stroke="black" points="152,-28 152,-47 190,-47 190,-28 152,-28"/>
<text text-anchor="middle" x="171" y="-35" font-family="Helvetica,sans-Serif" font-size="10.00">SCB</text>
</g>
<!-- Node1&#45;&gt;Node0 -->
<g id="edge1" class="edge"><title>Node1&#45;&gt;Node0</title>
<path fill="none" stroke="black" d="M126.376,-37.5C135.702,-37.5 144.558,-37.5 151.824,-37.5"/>
<polygon fill="black" stroke="black" points="126.126,-34.0001 116.126,-37.5 126.126,-41.0001 126.126,-34.0001"/>
</g>
<!-- Node2 -->
<g id="node3" class="node"><title>Node2</title>
<g id="a_node3"><a xlink:href="group___s_c_b___register___accessor___macros.html" target="_top" xlink:title="SCB &#45; Register accessor\l macros">
<polygon fill="white" stroke="black" points="226,-0.5 226,-30.5 352,-30.5 352,-0.5 226,-0.5"/>
<text text-anchor="start" x="234" y="-18.5" font-family="Helvetica,sans-Serif" font-size="10.00">SCB &#45; Register accessor</text>
<text text-anchor="middle" x="289" y="-7.5" font-family="Helvetica,sans-Serif" font-size="10.00"> macros</text>
</a>
</g>
</g>
<!-- Node0&#45;&gt;Node3 -->
<g id="edge3" class="edge"><title>Node0&#45;&gt;Node3</title>
<path fill="none" stroke="black" d="M200.231,-42.8542C211.52,-44.9951 224.872,-47.5275 237.711,-49.9624"/>
<polygon fill="black" stroke="black" points="200.602,-39.3622 190.125,-40.9375 199.298,-46.2396 200.602,-39.3622"/>
</g>
<!-- Node0&#45;&gt;Node2 -->
<g id="edge2" class="edge"><title>Node0&#45;&gt;Node2</title>
<path fill="none" stroke="black" d="M200.108,-32.1692C207.944,-30.683 216.782,-29.007 225.755,-27.305"/>
<polygon fill="black" stroke="black" points="199.298,-28.7604 190.125,-34.0625 200.602,-35.6378 199.298,-28.7604"/>
</g>
</g>
</svg>
