<?xml version="1.0" encoding="UTF-8" standalone="no"?>
<!DOCTYPE svg PUBLIC "-//W3C//DTD SVG 1.1//EN"
 "http://www.w3.org/Graphics/SVG/1.1/DTD/svg11.dtd">
<!-- Generated by graphviz version 2.38.0 (20140413.2041)
 -->
<!-- Title: USB Pages: 1 -->
<svg width="360pt" height="78pt"
 viewBox="0.00 0.00 360.00 77.50" xmlns="http://www.w3.org/2000/svg" xmlns:xlink="http://www.w3.org/1999/xlink">
<g id="graph0" class="graph" transform="scale(1 1) rotate(0) translate(4 73.5)">
<title>USB</title>
<polygon fill="white" stroke="none" points="-4,4 -4,-73.5 356,-73.5 356,4 -4,4"/>
<!-- Node1 -->
<g id="node1" class="node"><title>Node1</title>
<g id="a_node1"><a xlink:href="group___peripheral__defines.html" target="_top" xlink:title="Peripheral type defines">
<polygon fill="white" stroke="black" points="0,-22.5 0,-41.5 116,-41.5 116,-22.5 0,-22.5"/>
<text text-anchor="middle" x="58" y="-29.5" font-family="Helvetica,sans-Serif" font-size="10.00">Peripheral type defines</text>
</a>
</g>
</g>
<!-- Node0 -->
<g id="node3" class="node"><title>Node0</title>
<polygon fill="#bfbfbf" stroke="black" points="152,-22.5 152,-41.5 190,-41.5 190,-22.5 152,-22.5"/>
<text text-anchor="middle" x="171" y="-29.5" font-family="Helvetica,sans-Serif" font-size="10.00">USB</text>
</g>
<!-- Node1&#45;&gt;Node0 -->
<g id="edge1" class="edge"><title>Node1&#45;&gt;Node0</title>
<path fill="none" stroke="black" d="M126.376,-32C135.702,-32 144.558,-32 151.824,-32"/>
<polygon fill="black" stroke="black" points="126.126,-28.5001 116.126,-32 126.126,-35.5001 126.126,-28.5001"/>
</g>
<!-- Node2 -->
<g id="node2" class="node"><title>Node2</title>
<g id="a_node2"><a xlink:href="group___u_s_b___register___accessor___macros.html" target="_top" xlink:title="USB &#45; Register accessor\l macros">
<polygon fill="white" stroke="black" points="226,-39 226,-69 352,-69 352,-39 226,-39"/>
<text text-anchor="start" x="234" y="-57" font-family="Helvetica,sans-Serif" font-size="10.00">USB &#45; Register accessor</text>
<text text-anchor="middle" x="289" y="-46" font-family="Helvetica,sans-Serif" font-size="10.00"> macros</text>
</a>
</g>
</g>
<!-- Node0&#45;&gt;Node2 -->
<g id="edge2" class="edge"><title>Node0&#45;&gt;Node2</title>
<path fill="none" stroke="black" d="M200.108,-37.3308C207.944,-38.817 216.782,-40.493 225.755,-42.195"/>
<polygon fill="black" stroke="black" points="200.602,-33.8622 190.125,-35.4375 199.298,-40.7396 200.602,-33.8622"/>
</g>
<!-- Node3 -->
<g id="node4" class="node"><title>Node3</title>
<g id="a_node4"><a xlink:href="group___u_s_b___register___masks.html" target="_top" xlink:title="USB Register Masks">
<polygon fill="white" stroke="black" points="234,-0.5 234,-19.5 344,-19.5 344,-0.5 234,-0.5"/>
<text text-anchor="middle" x="289" y="-7.5" font-family="Helvetica,sans-Serif" font-size="10.00">USB Register Masks</text>
</a>
</g>
</g>
<!-- Node0&#45;&gt;Node3 -->
<g id="edge3" class="edge"><title>Node0&#45;&gt;Node3</title>
<path fill="none" stroke="black" d="M200.231,-26.6458C211.52,-24.5049 224.872,-21.9725 237.711,-19.5376"/>
<polygon fill="black" stroke="black" points="199.298,-23.2604 190.125,-28.5625 200.602,-30.1378 199.298,-23.2604"/>
</g>
</g>
</svg>
