<?xml version="1.0" encoding="UTF-8" standalone="no"?>
<!DOCTYPE svg PUBLIC "-//W3C//DTD SVG 1.1//EN"
 "http://www.w3.org/Graphics/SVG/1.1/DTD/svg11.dtd">
<!-- Generated by graphviz version 2.38.0 (20140413.2041)
 -->
<!-- Title: MPU Pages: 1 -->
<svg width="363pt" height="78pt"
 viewBox="0.00 0.00 363.00 77.50" xmlns="http://www.w3.org/2000/svg" xmlns:xlink="http://www.w3.org/1999/xlink">
<g id="graph0" class="graph" transform="scale(1 1) rotate(0) translate(4 73.5)">
<title>MPU</title>
<polygon fill="white" stroke="none" points="-4,4 -4,-73.5 359,-73.5 359,4 -4,4"/>
<!-- Node1 -->
<g id="node1" class="node"><title>Node1</title>
<g id="a_node1"><a xlink:href="group___peripheral__defines.html" target="_top" xlink:title="Peripheral type defines">
<polygon fill="white" stroke="black" points="0,-28 0,-47 116,-47 116,-28 0,-28"/>
<text text-anchor="middle" x="58" y="-35" font-family="Helvetica,sans-Serif" font-size="10.00">Peripheral type defines</text>
</a>
</g>
</g>
<!-- Node0 -->
<g id="node2" class="node"><title>Node0</title>
<polygon fill="#bfbfbf" stroke="black" points="152,-28 152,-47 191,-47 191,-28 152,-28"/>
<text text-anchor="middle" x="171.5" y="-35" font-family="Helvetica,sans-Serif" font-size="10.00">MPU</text>
</g>
<!-- Node1&#45;&gt;Node0 -->
<g id="edge1" class="edge"><title>Node1&#45;&gt;Node0</title>
<path fill="none" stroke="black" d="M126.233,-37.5C135.498,-37.5 144.321,-37.5 151.617,-37.5"/>
<polygon fill="black" stroke="black" points="126.057,-34.0001 116.057,-37.5 126.056,-41.0001 126.057,-34.0001"/>
</g>
<!-- Node3 -->
<g id="node3" class="node"><title>Node3</title>
<g id="a_node3"><a xlink:href="group___m_p_u___register___masks.html" target="_top" xlink:title="MPU Register Masks">
<polygon fill="white" stroke="black" points="235.5,-50 235.5,-69 346.5,-69 346.5,-50 235.5,-50"/>
<text text-anchor="middle" x="291" y="-57" font-family="Helvetica,sans-Serif" font-size="10.00">MPU Register Masks</text>
</a>
</g>
</g>
<!-- Node0&#45;&gt;Node3 -->
<g id="edge3" class="edge"><title>Node0&#45;&gt;Node3</title>
<path fill="none" stroke="black" d="M200.963,-42.8292C212.411,-44.9728 225.972,-47.5117 239.013,-49.9535"/>
<polygon fill="black" stroke="black" points="201.592,-39.3862 191.118,-40.986 200.303,-46.2666 201.592,-39.3862"/>
</g>
<!-- Node2 -->
<g id="node4" class="node"><title>Node2</title>
<g id="a_node4"><a xlink:href="group___m_p_u___register___accessor___macros.html" target="_top" xlink:title="MPU &#45; Register accessor\l macros">
<polygon fill="white" stroke="black" points="227,-0.5 227,-30.5 355,-30.5 355,-0.5 227,-0.5"/>
<text text-anchor="start" x="235" y="-18.5" font-family="Helvetica,sans-Serif" font-size="10.00">MPU &#45; Register accessor</text>
<text text-anchor="middle" x="291" y="-7.5" font-family="Helvetica,sans-Serif" font-size="10.00"> macros</text>
</a>
</g>
</g>
<!-- Node0&#45;&gt;Node2 -->
<g id="edge2" class="edge"><title>Node0&#45;&gt;Node2</title>
<path fill="none" stroke="black" d="M201.173,-32.1314C209.055,-30.6556 217.927,-28.9946 226.934,-27.3082"/>
<polygon fill="black" stroke="black" points="200.303,-28.7334 191.118,-34.014 201.592,-35.6138 200.303,-28.7334"/>
</g>
</g>
</svg>
