<?xml version="1.0" encoding="UTF-8" standalone="no"?>
<!DOCTYPE svg PUBLIC "-//W3C//DTD SVG 1.1//EN"
 "http://www.w3.org/Graphics/SVG/1.1/DTD/svg11.dtd">
<!-- Generated by graphviz version 2.38.0 (20140413.2041)
 -->
<!-- Title: DMAMUX Pages: 1 -->
<svg width="408pt" height="78pt"
 viewBox="0.00 0.00 408.00 77.50" xmlns="http://www.w3.org/2000/svg" xmlns:xlink="http://www.w3.org/1999/xlink">
<g id="graph0" class="graph" transform="scale(1 1) rotate(0) translate(4 73.5)">
<title>DMAMUX</title>
<polygon fill="white" stroke="none" points="-4,4 -4,-73.5 404,-73.5 404,4 -4,4"/>
<!-- Node2 -->
<g id="node1" class="node"><title>Node2</title>
<g id="a_node1"><a xlink:href="group___d_m_a_m_u_x___register___accessor___macros.html" target="_top" xlink:title="DMAMUX &#45; Register accessor\l macros">
<polygon fill="white" stroke="black" points="250,-39 250,-69 400,-69 400,-39 250,-39"/>
<text text-anchor="start" x="258" y="-57" font-family="Helvetica,sans-Serif" font-size="10.00">DMAMUX &#45; Register accessor</text>
<text text-anchor="middle" x="325" y="-46" font-family="Helvetica,sans-Serif" font-size="10.00"> macros</text>
</a>
</g>
</g>
<!-- Node1 -->
<g id="node2" class="node"><title>Node1</title>
<g id="a_node2"><a xlink:href="group___peripheral__defines.html" target="_top" xlink:title="Peripheral type defines">
<polygon fill="white" stroke="black" points="0,-22.5 0,-41.5 116,-41.5 116,-22.5 0,-22.5"/>
<text text-anchor="middle" x="58" y="-29.5" font-family="Helvetica,sans-Serif" font-size="10.00">Peripheral type defines</text>
</a>
</g>
</g>
<!-- Node0 -->
<g id="node4" class="node"><title>Node0</title>
<polygon fill="#bfbfbf" stroke="black" points="152,-22.5 152,-41.5 214,-41.5 214,-22.5 152,-22.5"/>
<text text-anchor="middle" x="183" y="-29.5" font-family="Helvetica,sans-Serif" font-size="10.00">DMAMUX</text>
</g>
<!-- Node1&#45;&gt;Node0 -->
<g id="edge1" class="edge"><title>Node1&#45;&gt;Node0</title>
<path fill="none" stroke="black" d="M126.277,-32C135.196,-32 143.95,-32 151.783,-32"/>
<polygon fill="black" stroke="black" points="126.179,-28.5001 116.179,-32 126.179,-35.5001 126.179,-28.5001"/>
</g>
<!-- Node3 -->
<g id="node3" class="node"><title>Node3</title>
<g id="a_node3"><a xlink:href="group___d_m_a_m_u_x___register___masks.html" target="_top" xlink:title="DMAMUX Register Masks">
<polygon fill="white" stroke="black" points="258,-0.5 258,-19.5 392,-19.5 392,-0.5 258,-0.5"/>
<text text-anchor="middle" x="325" y="-7.5" font-family="Helvetica,sans-Serif" font-size="10.00">DMAMUX Register Masks</text>
</a>
</g>
</g>
<!-- Node0&#45;&gt;Node2 -->
<g id="edge2" class="edge"><title>Node0&#45;&gt;Node2</title>
<path fill="none" stroke="black" d="M223.922,-38.2735C232.045,-39.55 240.836,-40.9313 249.718,-42.3271"/>
<polygon fill="black" stroke="black" points="224.456,-34.8144 214.034,-36.7196 223.369,-41.7296 224.456,-34.8144"/>
</g>
<!-- Node0&#45;&gt;Node3 -->
<g id="edge3" class="edge"><title>Node0&#45;&gt;Node3</title>
<path fill="none" stroke="black" d="M223.972,-25.7187C236.283,-23.784 250.124,-21.6091 263.494,-19.5081"/>
<polygon fill="black" stroke="black" points="223.369,-22.2704 214.034,-27.2804 224.456,-29.1856 223.369,-22.2704"/>
</g>
</g>
</svg>
