<?xml version="1.0" encoding="UTF-8" standalone="no"?>
<!DOCTYPE svg PUBLIC "-//W3C//DTD SVG 1.1//EN"
 "http://www.w3.org/Graphics/SVG/1.1/DTD/svg11.dtd">
<!-- Generated by graphviz version 2.38.0 (20140413.2041)
 -->
<!-- Title: CoreDebug Pages: 1 -->
<svg width="374pt" height="88pt"
 viewBox="0.00 0.00 374.00 88.00" xmlns="http://www.w3.org/2000/svg" xmlns:xlink="http://www.w3.org/1999/xlink">
<g id="graph0" class="graph" transform="scale(1 1) rotate(0) translate(4 84)">
<title>CoreDebug</title>
<polygon fill="white" stroke="none" points="-4,4 -4,-84 370,-84 370,4 -4,4"/>
<!-- Node1 -->
<g id="node1" class="node"><title>Node1</title>
<g id="a_node1"><a xlink:href="group___peripheral__defines.html" target="_top" xlink:title="Peripheral type defines">
<polygon fill="white" stroke="black" points="0,-30 0,-49 116,-49 116,-30 0,-30"/>
<text text-anchor="middle" x="58" y="-37" font-family="Helvetica,sans-Serif" font-size="10.00">Peripheral type defines</text>
</a>
</g>
</g>
<!-- Node0 -->
<g id="node3" class="node"><title>Node0</title>
<polygon fill="#bfbfbf" stroke="black" points="152,-30 152,-49 218,-49 218,-30 152,-30"/>
<text text-anchor="middle" x="185" y="-37" font-family="Helvetica,sans-Serif" font-size="10.00">CoreDebug</text>
</g>
<!-- Node1&#45;&gt;Node0 -->
<g id="edge1" class="edge"><title>Node1&#45;&gt;Node0</title>
<path fill="none" stroke="black" d="M126.073,-39.5C134.972,-39.5 143.745,-39.5 151.668,-39.5"/>
<polygon fill="black" stroke="black" points="126.013,-36.0001 116.013,-39.5 126.013,-43.0001 126.013,-36.0001"/>
</g>
<!-- Node2 -->
<g id="node2" class="node"><title>Node2</title>
<g id="a_node2"><a xlink:href="group___core_debug___register___accessor___macros.html" target="_top" xlink:title="CoreDebug &#45; Register\l accessor macros">
<polygon fill="white" stroke="black" points="254,-49.5 254,-79.5 366,-79.5 366,-49.5 254,-49.5"/>
<text text-anchor="start" x="262" y="-67.5" font-family="Helvetica,sans-Serif" font-size="10.00">CoreDebug &#45; Register</text>
<text text-anchor="middle" x="310" y="-56.5" font-family="Helvetica,sans-Serif" font-size="10.00"> accessor macros</text>
</a>
</g>
</g>
<!-- Node0&#45;&gt;Node2 -->
<g id="edge2" class="edge"><title>Node0&#45;&gt;Node2</title>
<path fill="none" stroke="black" d="M228.318,-48.1012C236.463,-49.7567 245.107,-51.5136 253.595,-53.2387"/>
<polygon fill="black" stroke="black" points="228.814,-44.6305 218.317,-46.0685 227.419,-51.4902 228.814,-44.6305"/>
</g>
<!-- Node3 -->
<g id="node4" class="node"><title>Node3</title>
<g id="a_node4"><a xlink:href="group___core_debug___register___masks.html" target="_top" xlink:title="CoreDebug Register\l Masks">
<polygon fill="white" stroke="black" points="257,-0.5 257,-30.5 363,-30.5 363,-0.5 257,-0.5"/>
<text text-anchor="start" x="265" y="-18.5" font-family="Helvetica,sans-Serif" font-size="10.00">CoreDebug Register</text>
<text text-anchor="middle" x="310" y="-7.5" font-family="Helvetica,sans-Serif" font-size="10.00"> Masks</text>
</a>
</g>
</g>
<!-- Node0&#45;&gt;Node3 -->
<g id="edge3" class="edge"><title>Node0&#45;&gt;Node3</title>
<path fill="none" stroke="black" d="M228.379,-31.231C237.573,-29.4369 247.401,-27.5193 256.921,-25.6619"/>
<polygon fill="black" stroke="black" points="227.461,-27.8439 218.317,-33.1943 228.802,-34.7143 227.461,-27.8439"/>
</g>
</g>
</svg>
