<?xml version="1.0" encoding="UTF-8" standalone="no"?>
<!DOCTYPE svg PUBLIC "-//W3C//DTD SVG 1.1//EN"
 "http://www.w3.org/Graphics/SVG/1.1/DTD/svg11.dtd">
<!-- Generated by graphviz version 2.38.0 (20140413.2041)
 -->
<!-- Title: AXBS Pages: 1 -->
<svg width="372pt" height="78pt"
 viewBox="0.00 0.00 372.00 77.50" xmlns="http://www.w3.org/2000/svg" xmlns:xlink="http://www.w3.org/1999/xlink">
<g id="graph0" class="graph" transform="scale(1 1) rotate(0) translate(4 73.5)">
<title>AXBS</title>
<polygon fill="white" stroke="none" points="-4,4 -4,-73.5 368,-73.5 368,4 -4,4"/>
<!-- Node2 -->
<g id="node1" class="node"><title>Node2</title>
<g id="a_node1"><a xlink:href="group___a_x_b_s___register___accessor___macros.html" target="_top" xlink:title="AXBS &#45; Register accessor\l macros">
<polygon fill="white" stroke="black" points="232,-39 232,-69 364,-69 364,-39 232,-39"/>
<text text-anchor="start" x="240" y="-57" font-family="Helvetica,sans-Serif" font-size="10.00">AXBS &#45; Register accessor</text>
<text text-anchor="middle" x="298" y="-46" font-family="Helvetica,sans-Serif" font-size="10.00"> macros</text>
</a>
</g>
</g>
<!-- Node3 -->
<g id="node2" class="node"><title>Node3</title>
<g id="a_node2"><a xlink:href="group___a_x_b_s___register___masks.html" target="_top" xlink:title="AXBS Register Masks">
<polygon fill="white" stroke="black" points="240,-0.5 240,-19.5 356,-19.5 356,-0.5 240,-0.5"/>
<text text-anchor="middle" x="298" y="-7.5" font-family="Helvetica,sans-Serif" font-size="10.00">AXBS Register Masks</text>
</a>
</g>
</g>
<!-- Node0 -->
<g id="node3" class="node"><title>Node0</title>
<polygon fill="#bfbfbf" stroke="black" points="152,-22.5 152,-41.5 196,-41.5 196,-22.5 152,-22.5"/>
<text text-anchor="middle" x="174" y="-29.5" font-family="Helvetica,sans-Serif" font-size="10.00">AXBS</text>
</g>
<!-- Node0&#45;&gt;Node2 -->
<g id="edge2" class="edge"><title>Node0&#45;&gt;Node2</title>
<path fill="none" stroke="black" d="M206.138,-37.6151C214.105,-39.0516 222.973,-40.6509 231.959,-42.2713"/>
<polygon fill="black" stroke="black" points="206.713,-34.1624 196.251,-35.8321 205.471,-41.0513 206.713,-34.1624"/>
</g>
<!-- Node0&#45;&gt;Node3 -->
<g id="edge3" class="edge"><title>Node0&#45;&gt;Node3</title>
<path fill="none" stroke="black" d="M206.28,-26.3594C217.853,-24.2724 231.315,-21.8448 244.271,-19.5086"/>
<polygon fill="black" stroke="black" points="205.471,-22.9487 196.251,-28.1679 206.713,-29.8376 205.471,-22.9487"/>
</g>
<!-- Node1 -->
<g id="node4" class="node"><title>Node1</title>
<g id="a_node4"><a xlink:href="group___peripheral__defines.html" target="_top" xlink:title="Peripheral type defines">
<polygon fill="white" stroke="black" points="0,-22.5 0,-41.5 116,-41.5 116,-22.5 0,-22.5"/>
<text text-anchor="middle" x="58" y="-29.5" font-family="Helvetica,sans-Serif" font-size="10.00">Peripheral type defines</text>
</a>
</g>
</g>
<!-- Node1&#45;&gt;Node0 -->
<g id="edge1" class="edge"><title>Node1&#45;&gt;Node0</title>
<path fill="none" stroke="black" d="M126.444,-32C135.668,-32 144.514,-32 151.971,-32"/>
<polygon fill="black" stroke="black" points="126.334,-28.5001 116.334,-32 126.334,-35.5001 126.334,-28.5001"/>
</g>
</g>
</svg>
