<?xml version="1.0" encoding="UTF-8" standalone="no"?>
<!DOCTYPE svg PUBLIC "-//W3C//DTD SVG 1.1//EN"
 "http://www.w3.org/Graphics/SVG/1.1/DTD/svg11.dtd">
<!-- Generated by graphviz version 2.38.0 (20140413.2041)
 -->
<!-- Title: LLWU Pages: 1 -->
<svg width="373pt" height="78pt"
 viewBox="0.00 0.00 373.00 77.50" xmlns="http://www.w3.org/2000/svg" xmlns:xlink="http://www.w3.org/1999/xlink">
<g id="graph0" class="graph" transform="scale(1 1) rotate(0) translate(4 73.5)">
<title>LLWU</title>
<polygon fill="white" stroke="none" points="-4,4 -4,-73.5 369,-73.5 369,4 -4,4"/>
<!-- Node3 -->
<g id="node1" class="node"><title>Node3</title>
<g id="a_node1"><a xlink:href="group___l_l_w_u___register___masks.html" target="_top" xlink:title="LLWU Register Masks">
<polygon fill="white" stroke="black" points="240.5,-50 240.5,-69 356.5,-69 356.5,-50 240.5,-50"/>
<text text-anchor="middle" x="298.5" y="-57" font-family="Helvetica,sans-Serif" font-size="10.00">LLWU Register Masks</text>
</a>
</g>
</g>
<!-- Node1 -->
<g id="node2" class="node"><title>Node1</title>
<g id="a_node2"><a xlink:href="group___peripheral__defines.html" target="_top" xlink:title="Peripheral type defines">
<polygon fill="white" stroke="black" points="0,-28 0,-47 116,-47 116,-28 0,-28"/>
<text text-anchor="middle" x="58" y="-35" font-family="Helvetica,sans-Serif" font-size="10.00">Peripheral type defines</text>
</a>
</g>
</g>
<!-- Node0 -->
<g id="node3" class="node"><title>Node0</title>
<polygon fill="#bfbfbf" stroke="black" points="152,-28 152,-47 196,-47 196,-28 152,-28"/>
<text text-anchor="middle" x="174" y="-35" font-family="Helvetica,sans-Serif" font-size="10.00">LLWU</text>
</g>
<!-- Node1&#45;&gt;Node0 -->
<g id="edge1" class="edge"><title>Node1&#45;&gt;Node0</title>
<path fill="none" stroke="black" d="M126.444,-37.5C135.668,-37.5 144.514,-37.5 151.971,-37.5"/>
<polygon fill="black" stroke="black" points="126.334,-34.0001 116.334,-37.5 126.334,-41.0001 126.334,-34.0001"/>
</g>
<!-- Node0&#45;&gt;Node3 -->
<g id="edge3" class="edge"><title>Node0&#45;&gt;Node3</title>
<path fill="none" stroke="black" d="M206.173,-43.0985C217.859,-45.1971 231.487,-47.6447 244.596,-49.9989"/>
<polygon fill="black" stroke="black" points="206.52,-39.6048 196.059,-41.2819 205.282,-46.4945 206.52,-39.6048"/>
</g>
<!-- Node2 -->
<g id="node4" class="node"><title>Node2</title>
<g id="a_node4"><a xlink:href="group___l_l_w_u___register___accessor___macros.html" target="_top" xlink:title="LLWU &#45; Register accessor\l macros">
<polygon fill="white" stroke="black" points="232,-0.5 232,-30.5 365,-30.5 365,-0.5 232,-0.5"/>
<text text-anchor="start" x="240" y="-18.5" font-family="Helvetica,sans-Serif" font-size="10.00">LLWU &#45; Register accessor</text>
<text text-anchor="middle" x="298.5" y="-7.5" font-family="Helvetica,sans-Serif" font-size="10.00"> macros</text>
</a>
</g>
</g>
<!-- Node0&#45;&gt;Node2 -->
<g id="edge2" class="edge"><title>Node0&#45;&gt;Node2</title>
<path fill="none" stroke="black" d="M205.976,-31.9369C213.975,-30.5004 222.894,-28.8987 231.938,-27.2744"/>
<polygon fill="black" stroke="black" points="205.282,-28.5055 196.059,-33.7181 206.52,-35.3952 205.282,-28.5055"/>
</g>
</g>
</svg>
