<?xml version="1.0" encoding="UTF-8" standalone="no"?>
<!DOCTYPE svg PUBLIC "-//W3C//DTD SVG 1.1//EN"
 "http://www.w3.org/Graphics/SVG/1.1/DTD/svg11.dtd">
<!-- Generated by graphviz version 2.38.0 (20140413.2041)
 -->
<!-- Title: WDOG Pages: 1 -->
<svg width="382pt" height="78pt"
 viewBox="0.00 0.00 382.00 77.50" xmlns="http://www.w3.org/2000/svg" xmlns:xlink="http://www.w3.org/1999/xlink">
<g id="graph0" class="graph" transform="scale(1 1) rotate(0) translate(4 73.5)">
<title>WDOG</title>
<polygon fill="white" stroke="none" points="-4,4 -4,-73.5 378,-73.5 378,4 -4,4"/>
<!-- Node3 -->
<g id="node1" class="node"><title>Node3</title>
<g id="a_node1"><a xlink:href="group___w_d_o_g___register___masks.html" target="_top" xlink:title="WDOG Register Masks">
<polygon fill="white" stroke="black" points="245,-50 245,-69 366,-69 366,-50 245,-50"/>
<text text-anchor="middle" x="305.5" y="-57" font-family="Helvetica,sans-Serif" font-size="10.00">WDOG Register Masks</text>
</a>
</g>
</g>
<!-- Node1 -->
<g id="node2" class="node"><title>Node1</title>
<g id="a_node2"><a xlink:href="group___peripheral__defines.html" target="_top" xlink:title="Peripheral type defines">
<polygon fill="white" stroke="black" points="0,-28 0,-47 116,-47 116,-28 0,-28"/>
<text text-anchor="middle" x="58" y="-35" font-family="Helvetica,sans-Serif" font-size="10.00">Peripheral type defines</text>
</a>
</g>
</g>
<!-- Node0 -->
<g id="node4" class="node"><title>Node0</title>
<polygon fill="#bfbfbf" stroke="black" points="152,-28 152,-47 201,-47 201,-28 152,-28"/>
<text text-anchor="middle" x="176.5" y="-35" font-family="Helvetica,sans-Serif" font-size="10.00">WDOG</text>
</g>
<!-- Node1&#45;&gt;Node0 -->
<g id="edge1" class="edge"><title>Node1&#45;&gt;Node0</title>
<path fill="none" stroke="black" d="M126.483,-37.5C135.496,-37.5 144.207,-37.5 151.721,-37.5"/>
<polygon fill="black" stroke="black" points="126.226,-34.0001 116.226,-37.5 126.226,-41.0001 126.226,-34.0001"/>
</g>
<!-- Node2 -->
<g id="node3" class="node"><title>Node2</title>
<g id="a_node3"><a xlink:href="group___w_d_o_g___register___accessor___macros.html" target="_top" xlink:title="WDOG &#45; Register accessor\l macros">
<polygon fill="white" stroke="black" points="237,-0.5 237,-30.5 374,-30.5 374,-0.5 237,-0.5"/>
<text text-anchor="start" x="245" y="-18.5" font-family="Helvetica,sans-Serif" font-size="10.00">WDOG &#45; Register accessor</text>
<text text-anchor="middle" x="305.5" y="-7.5" font-family="Helvetica,sans-Serif" font-size="10.00"> macros</text>
</a>
</g>
</g>
<!-- Node0&#45;&gt;Node3 -->
<g id="edge3" class="edge"><title>Node0&#45;&gt;Node3</title>
<path fill="none" stroke="black" d="M211.289,-43.3533C222.997,-45.3814 236.444,-47.7108 249.415,-49.9577"/>
<polygon fill="black" stroke="black" points="211.541,-39.8448 201.09,-41.5865 210.346,-46.7421 211.541,-39.8448"/>
</g>
<!-- Node0&#45;&gt;Node2 -->
<g id="edge2" class="edge"><title>Node0&#45;&gt;Node2</title>
<path fill="none" stroke="black" d="M211.058,-31.6869C219.044,-30.3034 227.85,-28.7779 236.768,-27.233"/>
<polygon fill="black" stroke="black" points="210.346,-28.2579 201.09,-33.4135 211.541,-35.1552 210.346,-28.2579"/>
</g>
</g>
</svg>
