<?xml version="1.0" encoding="UTF-8" standalone="no"?>
<!DOCTYPE svg PUBLIC "-//W3C//DTD SVG 1.1//EN"
 "http://www.w3.org/Graphics/SVG/1.1/DTD/svg11.dtd">
<!-- Generated by graphviz version 2.38.0 (20140413.2041)
 -->
<!-- Title: txLiteral Pages: 1 -->
<!--zoomable 493 -->
<svg id="main" version="1.1" xmlns="http://www.w3.org/2000/svg" xmlns:xlink="http://www.w3.org/1999/xlink" xml:space="preserve" onload="init(evt)">
<style type="text/css"><![CDATA[
.edge:hover path { stroke: red; }
.edge:hover polygon { stroke: red; fill: red; }
]]></style>
<script type="text/javascript"><![CDATA[
var edges = document.getElementsByTagName('g');
if (edges && edges.length) {
  for (var i=0;i<edges.length;i++) {
    if (edges[i].id.substr(0,4)=='edge') {
      edges[i].setAttribute('class','edge');
    }
  }
}
]]></script>
        <defs>
                <circle id="rim" cx="0" cy="0" r="7"/>
                <circle id="rim2" cx="0" cy="0" r="3.5"/>
                <g id="zoomPlus">
                        <use xlink:href="#rim" fill="#404040">
                                <set attributeName="fill" to="#808080" begin="zoomplus.mouseover" end="zoomplus.mouseout"/>
                        </use>
                        <path d="M-4,0h8M0,-4v8" fill="none" stroke="white" stroke-width="1.5" pointer-events="none"/>
                </g>
                <g id="zoomMin">
                        <use xlink:href="#rim" fill="#404040">
                                <set attributeName="fill" to="#808080" begin="zoomminus.mouseover" end="zoomminus.mouseout"/>
                        </use>
                        <path d="M-4,0h8" fill="none" stroke="white" stroke-width="1.5" pointer-events="none"/>
                </g>
                <g id="dirArrow">
                        <path fill="none" stroke="white" stroke-width="1.5" d="M0,-3.0v7 M-2.5,-0.5L0,-3.0L2.5,-0.5"/>
                </g>
               <g id="resetDef">
                       <use xlink:href="#rim2" fill="#404040">
                               <set attributeName="fill" to="#808080" begin="reset.mouseover" end="reset.mouseout"/>
                       </use>
               </g>
        </defs>

<script type="text/javascript">
var viewWidth = 910;
var viewHeight = 493;
var sectionId = 'dynsection-15';
</script>
<script xlink:href="svgpan.js"/>
<svg id="graph" class="graph">
<g id="viewport">
<title>txLiteral</title>
<polygon fill="white" stroke="none" points="-4,4 -4,-489 906,-489 906,4 -4,4"/>
<!-- Node1 -->
<g id="node1" class="node"><title>Node1</title>
<polygon fill="#bfbfbf" stroke="black" points="0,-313.5 0,-332.5 51,-332.5 51,-313.5 0,-313.5"/>
<text text-anchor="middle" x="25.5" y="-320.5" font-family="Helvetica,sans-Serif" font-size="10.00">txLiteral</text>
</g>
<!-- Node2 -->
<g id="node2" class="node"><title>Node2</title>
<g id="a_node2"><a xlink:href="class_morse_token.html#a48cd72aeb868391449d1f51c1d0bf5cc" target="_top" xlink:title="Treat code == 0 as the error token. ">
<polygon fill="white" stroke="black" points="87,-427.5 87,-446.5 184,-446.5 184,-427.5 87,-427.5"/>
<text text-anchor="middle" x="135.5" y="-434.5" font-family="Helvetica,sans-Serif" font-size="10.00">MorseToken::valid</text>
</a>
</g>
</g>
<!-- Node1&#45;&gt;Node2 -->
<g id="edge1" class="edge"><title>Node1&#45;&gt;Node2</title>
<path fill="none" stroke="midnightblue" d="M30.2879,-332.758C38.1098,-351.718 57.7947,-393.792 87,-418 88.9745,-419.637 91.1079,-421.146 93.3392,-422.535"/>
<polygon fill="midnightblue" stroke="midnightblue" points="91.8316,-425.698 102.302,-427.319 95.1279,-419.523 91.8316,-425.698"/>
</g>
<!-- Node3 -->
<g id="node3" class="node"><title>Node3</title>
<g id="a_node3"><a xlink:href="teensy3__morse__bsp_8cpp.html#af66e71e3fac9b6a2c6532bc8a513bfde" target="_top" xlink:title="Output a square wave on pin 10 at the given frequency for the given duration. ">
<polygon fill="white" stroke="black" points="116.5,-389.5 116.5,-408.5 154.5,-408.5 154.5,-389.5 116.5,-389.5"/>
<text text-anchor="middle" x="135.5" y="-396.5" font-family="Helvetica,sans-Serif" font-size="10.00">beep</text>
</a>
</g>
</g>
<!-- Node1&#45;&gt;Node3 -->
<g id="edge2" class="edge"><title>Node1&#45;&gt;Node3</title>
<path fill="none" stroke="midnightblue" d="M34.6304,-332.64C45.491,-345.013 65.8339,-366.491 87,-380 93.0363,-383.853 99.9818,-387.163 106.665,-389.891"/>
<polygon fill="midnightblue" stroke="midnightblue" points="105.541,-393.208 116.133,-393.465 108.014,-386.659 105.541,-393.208"/>
</g>
<!-- Node9 -->
<g id="node9" class="node"><title>Node9</title>
<g id="a_node9"><a xlink:href="settings_8cpp.html#a8575b9b52638114a4f32d1462cf9b7c1" target="_top" xlink:title="Get the transmission frequency (side tone). ">
<polygon fill="white" stroke="black" points="108.5,-351.5 108.5,-370.5 162.5,-370.5 162.5,-351.5 108.5,-351.5"/>
<text text-anchor="middle" x="135.5" y="-358.5" font-family="Helvetica,sans-Serif" font-size="10.00">getTxHz</text>
</a>
</g>
</g>
<!-- Node1&#45;&gt;Node9 -->
<g id="edge8" class="edge"><title>Node1&#45;&gt;Node9</title>
<path fill="none" stroke="midnightblue" d="M51.0069,-331.623C64.9953,-336.545 82.7925,-342.807 98.3587,-348.284"/>
<polygon fill="midnightblue" stroke="midnightblue" points="97.6084,-351.73 108.203,-351.747 99.9318,-345.127 97.6084,-351.73"/>
</g>
<!-- Node10 -->
<g id="node10" class="node"><title>Node10</title>
<g id="a_node10"><a xlink:href="settings_8cpp.html#a960551e90dfdad18f3c9b1338ccba7db" target="_top" xlink:title="Get the dit duration in microseconds. ">
<polygon fill="white" stroke="black" points="386,-408.5 386,-427.5 458,-427.5 458,-408.5 386,-408.5"/>
<text text-anchor="middle" x="422" y="-415.5" font-family="Helvetica,sans-Serif" font-size="10.00">getDitMicros</text>
</a>
</g>
</g>
<!-- Node1&#45;&gt;Node10 -->
<g id="edge9" class="edge"><title>Node1&#45;&gt;Node10</title>
<path fill="none" stroke="midnightblue" d="M51.1119,-321.748C114.33,-318.968 280.69,-314.534 327,-342 352.771,-357.284 339.367,-380.581 363,-399 367.074,-402.175 371.7,-404.83 376.52,-407.048"/>
<polygon fill="midnightblue" stroke="midnightblue" points="375.347,-410.348 385.933,-410.795 377.937,-403.845 375.347,-410.348"/>
</g>
<!-- Node11 -->
<g id="node11" class="node"><title>Node11</title>
<g id="a_node11"><a xlink:href="libmorse_8cpp.html#ab94e088615119d1faae7df22ce50aedf" target="_top" xlink:title="Transmit a Morse code prosign indicating an error. ">
<polygon fill="white" stroke="black" points="112.5,-237.5 112.5,-256.5 158.5,-256.5 158.5,-237.5 112.5,-237.5"/>
<text text-anchor="middle" x="135.5" y="-244.5" font-family="Helvetica,sans-Serif" font-size="10.00">txError</text>
</a>
</g>
</g>
<!-- Node1&#45;&gt;Node11 -->
<g id="edge10" class="edge"><title>Node1&#45;&gt;Node11</title>
<path fill="none" stroke="midnightblue" d="M36.173,-313.372C47.6428,-302.28 67.6516,-283.925 87,-271 92.1188,-267.581 97.7904,-264.316 103.381,-261.356"/>
<polygon fill="midnightblue" stroke="midnightblue" points="105.257,-264.329 112.599,-256.691 102.096,-258.083 105.257,-264.329"/>
</g>
<!-- Node4 -->
<g id="node4" class="node"><title>Node4</title>
<g id="a_node4"><a xlink:href="teensy3__morse__bsp_8cpp.html#a6f674d5b9985ea3a7eeb0df299c2e405" target="_top" xlink:title="pollEarphonePresent">
<polygon fill="white" stroke="black" points="220,-465.5 220,-484.5 327,-484.5 327,-465.5 220,-465.5"/>
<text text-anchor="middle" x="273.5" y="-472.5" font-family="Helvetica,sans-Serif" font-size="10.00">pollEarphonePresent</text>
</a>
</g>
</g>
<!-- Node3&#45;&gt;Node4 -->
<g id="edge3" class="edge"><title>Node3&#45;&gt;Node4</title>
<path fill="none" stroke="midnightblue" d="M154.55,-404.164C163.827,-407.313 175.035,-411.913 184,-418 203.247,-431.068 200.538,-443.254 220,-456 222.969,-457.944 226.162,-459.721 229.455,-461.338"/>
<polygon fill="midnightblue" stroke="midnightblue" points="228.331,-464.667 238.895,-465.481 231.144,-458.257 228.331,-464.667"/>
</g>
<!-- Node5 -->
<g id="node5" class="node"><title>Node5</title>
<g id="a_node5"><a xlink:href="teensy3__morse__bsp_8cpp.html#a2d6b4ace33ed5e497dedd03217540c63" target="_top" xlink:title="Set the PWM frequency for the audio output pins. ">
<polygon fill="white" stroke="black" points="232,-427.5 232,-446.5 315,-446.5 315,-427.5 232,-427.5"/>
<text text-anchor="middle" x="273.5" y="-434.5" font-family="Helvetica,sans-Serif" font-size="10.00">pwmFrequency</text>
</a>
</g>
</g>
<!-- Node3&#45;&gt;Node5 -->
<g id="edge4" class="edge"><title>Node3&#45;&gt;Node5</title>
<path fill="none" stroke="midnightblue" d="M154.56,-404.046C173.377,-409.304 203.566,-417.739 228.689,-424.759"/>
<polygon fill="midnightblue" stroke="midnightblue" points="227.815,-428.148 238.388,-427.469 229.699,-421.407 227.815,-428.148"/>
</g>
<!-- Node6 -->
<g id="node6" class="node"><title>Node6</title>
<g id="a_node6"><a xlink:href="teensy3__morse__bsp_8cpp.html#a82911eac3bf13d6f36d10102a4c4d3c4" target="_top" xlink:title="Generate a tone on the audio output pins. ">
<polygon fill="white" stroke="black" points="243,-389.5 243,-408.5 304,-408.5 304,-389.5 243,-389.5"/>
<text text-anchor="middle" x="273.5" y="-396.5" font-family="Helvetica,sans-Serif" font-size="10.00">pwmWrite</text>
</a>
</g>
</g>
<!-- Node3&#45;&gt;Node6 -->
<g id="edge5" class="edge"><title>Node3&#45;&gt;Node6</title>
<path fill="none" stroke="midnightblue" d="M154.56,-399C174.373,-399 206.795,-399 232.635,-399"/>
<polygon fill="midnightblue" stroke="midnightblue" points="232.89,-402.5 242.89,-399 232.89,-395.5 232.89,-402.5"/>
</g>
<!-- Node8 -->
<g id="node8" class="node"><title>Node8</title>
<g id="a_node8"><a xlink:href="teensy3__morse__bsp_8cpp.html#a6c982a7d7805f1dd5426eb98c915cfdd" target="_top" xlink:title="Turn the red LED on (1) or off (0). ">
<polygon fill="white" stroke="black" points="248.5,-351.5 248.5,-370.5 298.5,-370.5 298.5,-351.5 248.5,-351.5"/>
<text text-anchor="middle" x="273.5" y="-358.5" font-family="Helvetica,sans-Serif" font-size="10.00">redLED</text>
</a>
</g>
</g>
<!-- Node3&#45;&gt;Node8 -->
<g id="edge7" class="edge"><title>Node3&#45;&gt;Node8</title>
<path fill="none" stroke="midnightblue" d="M154.56,-393.954C175.959,-387.975 212.064,-377.886 238.702,-370.443"/>
<polygon fill="midnightblue" stroke="midnightblue" points="239.708,-373.796 248.398,-367.734 237.825,-367.055 239.708,-373.796"/>
</g>
<!-- Node7 -->
<g id="node7" class="node"><title>Node7</title>
<g id="a_node7"><a xlink:href="teensy3__morse__bsp_8cpp.html#ac70998cee1bf97f00aec4a1b4e5a4f60" target="_top" xlink:title="isEarphonePresent">
<polygon fill="white" stroke="black" points="372.5,-446.5 372.5,-465.5 471.5,-465.5 471.5,-446.5 372.5,-446.5"/>
<text text-anchor="middle" x="422" y="-453.5" font-family="Helvetica,sans-Serif" font-size="10.00">isEarphonePresent</text>
</a>
</g>
</g>
<!-- Node6&#45;&gt;Node7 -->
<g id="edge6" class="edge"><title>Node6&#45;&gt;Node7</title>
<path fill="none" stroke="midnightblue" d="M303.121,-408.547C310.95,-411.377 319.376,-414.628 327,-418 343.546,-425.318 346.344,-429.937 363,-437 368.06,-439.146 373.452,-441.203 378.832,-443.118"/>
<polygon fill="midnightblue" stroke="midnightblue" points="377.835,-446.476 388.43,-446.401 380.101,-439.853 377.835,-446.476"/>
</g>
<!-- Node12 -->
<g id="node12" class="node"><title>Node12</title>
<g id="a_node12"><a xlink:href="libmorse_8cpp.html#a0ee2308940264ea9ac8e50afc1a4d285" target="_top" xlink:title="txString">
<polygon fill="white" stroke="black" points="248.5,-256.5 248.5,-275.5 298.5,-275.5 298.5,-256.5 248.5,-256.5"/>
<text text-anchor="middle" x="273.5" y="-263.5" font-family="Helvetica,sans-Serif" font-size="10.00">txString</text>
</a>
</g>
</g>
<!-- Node11&#45;&gt;Node12 -->
<g id="edge11" class="edge"><title>Node11&#45;&gt;Node12</title>
<path fill="none" stroke="midnightblue" d="M158.653,-250.095C180.124,-253.094 213.008,-257.689 237.923,-261.169"/>
<polygon fill="midnightblue" stroke="midnightblue" points="237.669,-264.668 248.057,-262.585 238.638,-257.735 237.669,-264.668"/>
</g>
<!-- Node12&#45;&gt;Node1 -->
<g id="edge15" class="edge"><title>Node12&#45;&gt;Node1</title>
<path fill="none" stroke="midnightblue" d="M248.222,-271.625C204.369,-281.787 111.819,-303.231 61.2629,-314.945"/>
<polygon fill="midnightblue" stroke="midnightblue" points="60.3934,-311.554 51.4416,-317.221 61.9736,-318.373 60.3934,-311.554"/>
</g>
<!-- Node12&#45;&gt;Node10 -->
<g id="edge14" class="edge"><title>Node12&#45;&gt;Node10</title>
<path fill="none" stroke="midnightblue" d="M290.094,-275.633C301.613,-283.422 316.97,-295.317 327,-309 352.469,-343.747 331.579,-369.526 363,-399 366.862,-402.622 371.426,-405.554 376.27,-407.928"/>
<polygon fill="midnightblue" stroke="midnightblue" points="375.242,-411.289 385.823,-411.838 377.894,-404.81 375.242,-411.289"/>
</g>
<!-- Node13 -->
<g id="node13" class="node"><title>Node13</title>
<g id="a_node13"><a xlink:href="teensy3__morse__bsp_8cpp.html#ab306f692c5c9455a0c82782a67ff0147" target="_top" xlink:title="touchPoll">
<polygon fill="white" stroke="black" points="709,-256.5 709,-275.5 766,-275.5 766,-256.5 709,-256.5"/>
<text text-anchor="middle" x="737.5" y="-263.5" font-family="Helvetica,sans-Serif" font-size="10.00">touchPoll</text>
</a>
</g>
</g>
<!-- Node12&#45;&gt;Node13 -->
<g id="edge12" class="edge"><title>Node12&#45;&gt;Node13</title>
<path fill="none" stroke="midnightblue" d="M298.813,-270.682C316.535,-273.89 341.165,-277.927 363,-280 486.907,-291.766 519.16,-297.455 643,-285 661.562,-283.133 681.888,-279.231 698.834,-275.447"/>
<polygon fill="midnightblue" stroke="midnightblue" points="699.945,-278.782 708.902,-273.124 698.371,-271.962 699.945,-278.782"/>
</g>
<!-- Node15 -->
<g id="node15" class="node"><title>Node15</title>
<g id="a_node15"><a xlink:href="libmorse_8cpp.html#acd4b292f5e412ee4f05aed9dafbc072d" target="_top" xlink:title="Convert an ASCII character into Morse code and transmit it. ">
<polygon fill="white" stroke="black" points="712.5,-47.5 712.5,-66.5 762.5,-66.5 762.5,-47.5 712.5,-47.5"/>
<text text-anchor="middle" x="737.5" y="-54.5" font-family="Helvetica,sans-Serif" font-size="10.00">txLetter</text>
</a>
</g>
</g>
<!-- Node12&#45;&gt;Node15 -->
<g id="edge16" class="edge"><title>Node12&#45;&gt;Node15</title>
<path fill="none" stroke="midnightblue" d="M276.785,-256.197C283.93,-227.94 308.692,-145.988 363,-109 417.893,-71.6133 620.38,-60.8253 702.032,-57.9582"/>
<polygon fill="midnightblue" stroke="midnightblue" points="702.397,-61.4481 712.275,-57.6183 702.165,-54.452 702.397,-61.4481"/>
</g>
<!-- Node16 -->
<g id="node16" class="node"><title>Node16</title>
<g id="a_node16"><a xlink:href="teensy3__morse__bsp_8cpp.html#a8761e874366e227690fba2964e1bc445" target="_top" xlink:title="getInternalTemperatureC">
<polygon fill="white" stroke="black" points="517.5,-123.5 517.5,-142.5 642.5,-142.5 642.5,-123.5 517.5,-123.5"/>
<text text-anchor="middle" x="580" y="-130.5" font-family="Helvetica,sans-Serif" font-size="10.00">getInternalTemperatureC</text>
</a>
</g>
</g>
<!-- Node12&#45;&gt;Node16 -->
<g id="edge19" class="edge"><title>Node12&#45;&gt;Node16</title>
<path fill="none" stroke="midnightblue" d="M277.424,-256.227C285.764,-230.337 312.394,-160.112 363,-133 416.318,-104.435 488.199,-111.867 534.084,-121.274"/>
<polygon fill="midnightblue" stroke="midnightblue" points="533.515,-124.731 544.029,-123.427 534.996,-117.89 533.515,-124.731"/>
</g>
<!-- Node17 -->
<g id="node17" class="node"><title>Node17</title>
<g id="a_node17"><a xlink:href="libmorse_8cpp.html#a47abdd74b66d7180c47d192bab8bdccb" target="_top" xlink:title="Transmit an unsigned integer in Morse code. ">
<polygon fill="white" stroke="black" points="547,-180.5 547,-199.5 613,-199.5 613,-180.5 547,-180.5"/>
<text text-anchor="middle" x="580" y="-187.5" font-family="Helvetica,sans-Serif" font-size="10.00">txUnsigned</text>
</a>
</g>
</g>
<!-- Node12&#45;&gt;Node17 -->
<g id="edge20" class="edge"><title>Node12&#45;&gt;Node17</title>
<path fill="none" stroke="midnightblue" d="M285.57,-256.285C301.46,-242.98 332.224,-219.54 363,-209 420.864,-189.182 492.284,-186.867 536.746,-187.82"/>
<polygon fill="midnightblue" stroke="midnightblue" points="536.804,-191.323 546.899,-188.105 537.001,-184.325 536.804,-191.323"/>
</g>
<!-- Node18 -->
<g id="node18" class="node"><title>Node18</title>
<g id="a_node18"><a xlink:href="actions_8cpp.html#aed718ec1bd4cc7adb2f65d40a6784496" target="_top" xlink:title="Transmit the internal temperature in integer in Fahrenheit. ">
<polygon fill="white" stroke="black" points="363,-142.5 363,-161.5 481,-161.5 481,-142.5 363,-142.5"/>
<text text-anchor="middle" x="422" y="-149.5" font-family="Helvetica,sans-Serif" font-size="10.00">txInternalTemperatureF</text>
</a>
</g>
</g>
<!-- Node12&#45;&gt;Node18 -->
<g id="edge23" class="edge"><title>Node12&#45;&gt;Node18</title>
<path fill="none" stroke="midnightblue" d="M281.786,-256.347C295.774,-238.383 328.111,-199.516 363,-176 368.829,-172.071 375.402,-168.599 381.975,-165.602"/>
<polygon fill="midnightblue" stroke="midnightblue" points="383.678,-168.682 391.518,-161.554 380.945,-162.237 383.678,-168.682"/>
</g>
<!-- Node19 -->
<g id="node19" class="node"><title>Node19</title>
<g id="a_node19"><a xlink:href="actions_8cpp.html#aaabb3ac0c23f35a499bc17efe829f326" target="_top" xlink:title="Transmit the 24&#45;hr time. ">
<polygon fill="white" stroke="black" points="383,-370.5 383,-389.5 461,-389.5 461,-370.5 383,-370.5"/>
<text text-anchor="middle" x="422" y="-377.5" font-family="Helvetica,sans-Serif" font-size="10.00">txTimeHHMM</text>
</a>
</g>
</g>
<!-- Node12&#45;&gt;Node19 -->
<g id="edge26" class="edge"><title>Node12&#45;&gt;Node19</title>
<path fill="none" stroke="midnightblue" d="M298.73,-275.172C308.076,-281.87 318.533,-290.82 327,-300 346.058,-320.662 340.469,-335.193 363,-352 372.526,-359.106 384.837,-363.632 395.665,-367.232"/>
<polygon fill="midnightblue" stroke="midnightblue" points="394.86,-370.652 405.453,-370.454 397.049,-364.003 394.86,-370.652"/>
</g>
<!-- Node20 -->
<g id="node20" class="node"><title>Node20</title>
<g id="a_node20"><a xlink:href="actions_8cpp.html#ad02149679fa3cc6a4957d1a318408ffd" target="_top" xlink:title="Transmit the uptime. ">
<polygon fill="white" stroke="black" points="394,-218.5 394,-237.5 450,-237.5 450,-218.5 394,-218.5"/>
<text text-anchor="middle" x="422" y="-225.5" font-family="Helvetica,sans-Serif" font-size="10.00">txUptime</text>
</a>
</g>
</g>
<!-- Node12&#45;&gt;Node20 -->
<g id="edge28" class="edge"><title>Node12&#45;&gt;Node20</title>
<path fill="none" stroke="midnightblue" d="M298.691,-259.725C321.896,-253.706 357.256,-244.534 383.999,-237.598"/>
<polygon fill="midnightblue" stroke="midnightblue" points="384.982,-240.959 393.782,-235.06 383.224,-234.183 384.982,-240.959"/>
</g>
<!-- Node22 -->
<g id="node22" class="node"><title>Node22</title>
<g id="a_node22"><a xlink:href="teensy3__morse__bsp_8cpp.html#ae8dd28759e56dbd2ee9bc9ae96d1783c" target="_top" xlink:title="Return the most recent ADC measurement of the input voltage. Perform analog to digital conversion on ...">
<polygon fill="white" stroke="black" points="385,-332.5 385,-351.5 459,-351.5 459,-332.5 385,-332.5"/>
<text text-anchor="middle" x="422" y="-339.5" font-family="Helvetica,sans-Serif" font-size="10.00">readMillivolts</text>
</a>
</g>
</g>
<!-- Node12&#45;&gt;Node22 -->
<g id="edge31" class="edge"><title>Node12&#45;&gt;Node22</title>
<path fill="none" stroke="midnightblue" d="M289.492,-275.677C306.813,-286.652 336.357,-304.74 363,-318 370.491,-321.728 378.706,-325.379 386.536,-328.663"/>
<polygon fill="midnightblue" stroke="midnightblue" points="385.243,-331.915 395.823,-332.468 387.897,-325.438 385.243,-331.915"/>
</g>
<!-- Node26 -->
<g id="node26" class="node"><title>Node26</title>
<g id="a_node26"><a xlink:href="libmorse_8cpp.html#ac3f000c98271c6d0a7710135e18189bc" target="_top" xlink:title="On my hardware there is cross&#45;coupling between the serial port and the touch sensors. Without the code below, long messages to the serial port trigger a touch input. ">
<polygon fill="white" stroke="black" points="547.5,-256.5 547.5,-275.5 612.5,-275.5 612.5,-256.5 547.5,-256.5"/>
<text text-anchor="middle" x="580" y="-263.5" font-family="Helvetica,sans-Serif" font-size="10.00">flushTouch</text>
</a>
</g>
</g>
<!-- Node12&#45;&gt;Node26 -->
<g id="edge35" class="edge"><title>Node12&#45;&gt;Node26</title>
<path fill="none" stroke="midnightblue" d="M298.648,-266C350.348,-266 472.29,-266 536.986,-266"/>
<polygon fill="midnightblue" stroke="midnightblue" points="537.237,-269.5 547.237,-266 537.237,-262.5 537.237,-269.5"/>
</g>
<!-- Node14 -->
<g id="node14" class="node"><title>Node14</title>
<g id="a_node14"><a xlink:href="teensy3__morse__bsp_8cpp.html#af6899cd9b83df54106b259ab81ea5cb2" target="_top" xlink:title="touchMargin">
<polygon fill="white" stroke="black" points="832,-256.5 832,-275.5 902,-275.5 902,-256.5 832,-256.5"/>
<text text-anchor="middle" x="867" y="-263.5" font-family="Helvetica,sans-Serif" font-size="10.00">touchMargin</text>
</a>
</g>
</g>
<!-- Node13&#45;&gt;Node14 -->
<g id="edge13" class="edge"><title>Node13&#45;&gt;Node14</title>
<path fill="none" stroke="midnightblue" d="M766.166,-266C782.281,-266 802.984,-266 821.355,-266"/>
<polygon fill="midnightblue" stroke="midnightblue" points="821.562,-269.5 831.562,-266 821.562,-262.5 821.562,-269.5"/>
</g>
<!-- Node15&#45;&gt;Node1 -->
<g id="edge17" class="edge"><title>Node15&#45;&gt;Node1</title>
<path fill="none" stroke="midnightblue" d="M712.382,-49.5482C660.169,-34.0977 532.532,-0 423,-0 272.5,-0 272.5,-0 272.5,-0 118.945,-0 48.5916,-233.895 31.0316,-303.614"/>
<polygon fill="midnightblue" stroke="midnightblue" points="27.6304,-302.789 28.662,-313.333 34.4312,-304.447 27.6304,-302.789"/>
</g>
<!-- Node15&#45;&gt;Node11 -->
<g id="edge18" class="edge"><title>Node15&#45;&gt;Node11</title>
<path fill="none" stroke="midnightblue" d="M712.204,-52.7155C650.947,-43.0173 486.294,-23.8563 363,-73 271.786,-109.357 186.16,-193.58 152.054,-229.863"/>
<polygon fill="midnightblue" stroke="midnightblue" points="149.454,-227.52 145.22,-237.232 154.587,-232.28 149.454,-227.52"/>
</g>
<!-- Node17&#45;&gt;Node13 -->
<g id="edge21" class="edge"><title>Node17&#45;&gt;Node13</title>
<path fill="none" stroke="midnightblue" d="M613.102,-198.174C622.889,-201.106 633.553,-204.754 643,-209 668.929,-220.654 696.468,-238.141 714.889,-250.671"/>
<polygon fill="midnightblue" stroke="midnightblue" points="712.935,-253.575 723.153,-256.376 716.912,-247.814 712.935,-253.575"/>
</g>
<!-- Node17&#45;&gt;Node15 -->
<g id="edge22" class="edge"><title>Node17&#45;&gt;Node15</title>
<path fill="none" stroke="midnightblue" d="M599.131,-180.438C611.918,-173.332 629.164,-162.998 643,-152 673.434,-127.809 704.191,-94.4555 721.739,-74.3836"/>
<polygon fill="midnightblue" stroke="midnightblue" points="724.523,-76.5152 728.412,-66.6599 719.226,-71.9389 724.523,-76.5152"/>
</g>
<!-- Node18&#45;&gt;Node16 -->
<g id="edge24" class="edge"><title>Node18&#45;&gt;Node16</title>
<path fill="none" stroke="midnightblue" d="M481.089,-144.925C489.711,-143.875 498.682,-142.782 507.54,-141.704"/>
<polygon fill="midnightblue" stroke="midnightblue" points="507.964,-145.178 517.467,-140.494 507.117,-138.229 507.964,-145.178"/>
</g>
<!-- Node18&#45;&gt;Node17 -->
<g id="edge25" class="edge"><title>Node18&#45;&gt;Node17</title>
<path fill="none" stroke="midnightblue" d="M462.365,-161.589C485.167,-167.143 513.861,-174.133 537.083,-179.789"/>
<polygon fill="midnightblue" stroke="midnightblue" points="536.451,-183.238 546.996,-182.204 538.108,-176.437 536.451,-183.238"/>
</g>
<!-- Node19&#45;&gt;Node12 -->
<g id="edge27" class="edge"><title>Node19&#45;&gt;Node12</title>
<path fill="none" stroke="midnightblue" d="M382.75,-380.218C375.775,-377.767 368.86,-374.372 363,-370 340.469,-353.193 346.058,-338.662 327,-318 315.16,-305.164 299.432,-292.777 288.286,-282.876"/>
<polygon fill="midnightblue" stroke="midnightblue" points="290.476,-280.13 280.797,-275.822 285.677,-285.226 290.476,-280.13"/>
</g>
<!-- Node20&#45;&gt;Node17 -->
<g id="edge30" class="edge"><title>Node20&#45;&gt;Node17</title>
<path fill="none" stroke="midnightblue" d="M450.173,-221.381C474.119,-215.548 509.386,-206.957 536.968,-200.238"/>
<polygon fill="midnightblue" stroke="midnightblue" points="537.86,-203.624 546.748,-197.856 536.203,-196.823 537.86,-203.624"/>
</g>
<!-- Node21 -->
<g id="node21" class="node"><title>Node21</title>
<g id="a_node21"><a xlink:href="settings_8cpp.html#a7b4efa097b94f9a90c5bbafcdf93fe4f" target="_top" xlink:title="getUptime">
<polygon fill="white" stroke="black" points="549,-218.5 549,-237.5 611,-237.5 611,-218.5 549,-218.5"/>
<text text-anchor="middle" x="580" y="-225.5" font-family="Helvetica,sans-Serif" font-size="10.00">getUptime</text>
</a>
</g>
</g>
<!-- Node20&#45;&gt;Node21 -->
<g id="edge29" class="edge"><title>Node20&#45;&gt;Node21</title>
<path fill="none" stroke="midnightblue" d="M450.173,-228C474.633,-228 510.905,-228 538.735,-228"/>
<polygon fill="midnightblue" stroke="midnightblue" points="538.945,-231.5 548.945,-228 538.945,-224.5 538.945,-231.5"/>
</g>
<!-- Node23 -->
<g id="node23" class="node"><title>Node23</title>
<g id="a_node23"><a xlink:href="class_voltage_monitor.html#a70902b84f9864c95d5553a0644a64f4f" target="_top" xlink:title="Return the latest voltage reading. ">
<polygon fill="white" stroke="black" points="517,-332.5 517,-351.5 643,-351.5 643,-332.5 517,-332.5"/>
<text text-anchor="middle" x="580" y="-339.5" font-family="Helvetica,sans-Serif" font-size="10.00">VoltageMonitor::getValue</text>
</a>
</g>
</g>
<!-- Node22&#45;&gt;Node23 -->
<g id="edge32" class="edge"><title>Node22&#45;&gt;Node23</title>
<path fill="none" stroke="midnightblue" d="M459.182,-342C473.344,-342 490.117,-342 506.56,-342"/>
<polygon fill="midnightblue" stroke="midnightblue" points="506.728,-345.5 516.728,-342 506.728,-338.5 506.728,-345.5"/>
</g>
<!-- Node24 -->
<g id="node24" class="node"><title>Node24</title>
<g id="a_node24"><a xlink:href="actions_8cpp.html#a2b8c3769e2aa32a2da9e2f3f85ac73dd" target="_top" xlink:title="A sample ADC reading is taken each time through the main loop, and written to a ring buffer...">
<polygon fill="white" stroke="black" points="681.5,-351.5 681.5,-370.5 793.5,-370.5 793.5,-351.5 681.5,-351.5"/>
<text text-anchor="middle" x="737.5" y="-358.5" font-family="Helvetica,sans-Serif" font-size="10.00">getVoltagePollInterval</text>
</a>
</g>
</g>
<!-- Node23&#45;&gt;Node24 -->
<g id="edge33" class="edge"><title>Node23&#45;&gt;Node24</title>
<path fill="none" stroke="midnightblue" d="M643.352,-349.619C652.438,-350.729 661.816,-351.875 670.963,-352.992"/>
<polygon fill="midnightblue" stroke="midnightblue" points="670.813,-356.5 681.163,-354.239 671.662,-349.552 670.813,-356.5"/>
</g>
<!-- Node25 -->
<g id="node25" class="node"><title>Node25</title>
<g id="a_node25"><a xlink:href="class_voltage_monitor.html#a75871331808c34b40d04059ee2af0f27" target="_top" xlink:title="Filter and scale raw ADC values to millivolts. ">
<polygon fill="white" stroke="black" points="679,-313.5 679,-332.5 796,-332.5 796,-313.5 679,-313.5"/>
<text text-anchor="middle" x="737.5" y="-320.5" font-family="Helvetica,sans-Serif" font-size="10.00">VoltageMonitor::update</text>
</a>
</g>
</g>
<!-- Node23&#45;&gt;Node25 -->
<g id="edge34" class="edge"><title>Node23&#45;&gt;Node25</title>
<path fill="none" stroke="midnightblue" d="M643.352,-334.381C651.702,-333.361 660.298,-332.311 668.735,-331.28"/>
<polygon fill="midnightblue" stroke="midnightblue" points="669.419,-334.723 678.92,-330.035 668.57,-327.774 669.419,-334.723"/>
</g>
<!-- Node26&#45;&gt;Node13 -->
<g id="edge36" class="edge"><title>Node26&#45;&gt;Node13</title>
<path fill="none" stroke="midnightblue" d="M612.843,-266C637.677,-266 672.247,-266 698.522,-266"/>
<polygon fill="midnightblue" stroke="midnightblue" points="698.864,-269.5 708.864,-266 698.863,-262.5 698.864,-269.5"/>
</g>
</g>
</svg>
        <g id="navigator" transform="translate(0 0)" fill="#404254">
                <rect fill="#f2f5e9" fill-opacity="0.5" stroke="#606060" stroke-width=".5" x="0" y="0" width="60" height="60"/>
                <use id="zoomplus" xlink:href="#zoomPlus" x="17" y="9" onmousedown="handleZoom(evt,'in')"/>
                <use id="zoomminus" xlink:href="#zoomMin" x="42" y="9" onmousedown="handleZoom(evt,'out')"/>
                <use id="reset" xlink:href="#resetDef" x="30" y="36" onmousedown="handleReset()"/>
                <g id="arrowUp" xlink:href="#dirArrow" transform="translate(30 24)" onmousedown="handlePan(0,-1)">
                  <use xlink:href="#rim" fill="#404040">
                        <set attributeName="fill" to="#808080" begin="arrowUp.mouseover" end="arrowUp.mouseout"/>
                  </use>
                  <path fill="none" stroke="white" stroke-width="1.5" d="M0,-3.0v7 M-2.5,-0.5L0,-3.0L2.5,-0.5"/>
                </g>
                <g id="arrowRight" xlink:href="#dirArrow" transform="rotate(90) translate(36 -43)" onmousedown="handlePan(1,0)">
                  <use xlink:href="#rim" fill="#404040">
                        <set attributeName="fill" to="#808080" begin="arrowRight.mouseover" end="arrowRight.mouseout"/>
                  </use>
                  <path fill="none" stroke="white" stroke-width="1.5" d="M0,-3.0v7 M-2.5,-0.5L0,-3.0L2.5,-0.5"/>
                </g>
                <g id="arrowDown" xlink:href="#dirArrow" transform="rotate(180) translate(-30 -48)" onmousedown="handlePan(0,1)">
                  <use xlink:href="#rim" fill="#404040">
                        <set attributeName="fill" to="#808080" begin="arrowDown.mouseover" end="arrowDown.mouseout"/>
                  </use>
                  <path fill="none" stroke="white" stroke-width="1.5" d="M0,-3.0v7 M-2.5,-0.5L0,-3.0L2.5,-0.5"/>
                </g>
                <g id="arrowLeft" xlink:href="#dirArrow" transform="rotate(270) translate(-36 17)" onmousedown="handlePan(-1,0)">
                  <use xlink:href="#rim" fill="#404040">
                        <set attributeName="fill" to="#808080" begin="arrowLeft.mouseover" end="arrowLeft.mouseout"/>
                  </use>
                  <path fill="none" stroke="white" stroke-width="1.5" d="M0,-3.0v7 M-2.5,-0.5L0,-3.0L2.5,-0.5"/>
                </g>
        </g>
        <svg viewBox="0 0 15 15" width="100%" height="30px" preserveAspectRatio="xMaxYMin meet">
         <g id="arrow_out" transform="scale(0.3 0.3)">
          <a xlink:href="libmorse_8cpp_a9fdfce728595d72b78dc7c834ab99a40_cgraph_org.svg" target="_base">
           <rect id="button" ry="5" rx="5" y="6" x="6" height="38" width="38"
                fill="#f2f5e9" fill-opacity="0.5" stroke="#606060" stroke-width="1.0"/>
           <path id="arrow"
             d="M 11.500037,31.436501 C 11.940474,20.09759 22.043105,11.32322 32.158766,21.979434 L 37.068811,17.246167 C 37.068811,17.246167 37.088388,32 37.088388,32 L 22.160133,31.978069 C 22.160133,31.978069 26.997745,27.140456 26.997745,27.140456 C 18.528582,18.264221 13.291696,25.230495 11.500037,31.436501 z"
             style="fill:#404040;"/>
          </a>
         </g>
        </svg>
</svg>
