<?xml version="1.0" encoding="UTF-8" standalone="no"?>
<!DOCTYPE svg PUBLIC "-//W3C//DTD SVG 1.1//EN"
 "http://www.w3.org/Graphics/SVG/1.1/DTD/svg11.dtd">
<!-- Generated by graphviz version 2.38.0 (20140413.2041)
 -->
<!-- Title: printLabelValueUnits Pages: 1 -->
<svg width="389pt" height="142pt"
 viewBox="0.00 0.00 389.00 142.00" xmlns="http://www.w3.org/2000/svg" xmlns:xlink="http://www.w3.org/1999/xlink">
<g id="graph0" class="graph" transform="scale(1 1) rotate(0) translate(4 138)">
<title>printLabelValueUnits</title>
<polygon fill="white" stroke="none" points="-4,4 -4,-138 385,-138 385,4 -4,4"/>
<!-- Node1 -->
<g id="node1" class="node"><title>Node1</title>
<polygon fill="#bfbfbf" stroke="black" points="0,-57.5 0,-76.5 107,-76.5 107,-57.5 0,-57.5"/>
<text text-anchor="middle" x="53.5" y="-64.5" font-family="Helvetica,sans-Serif" font-size="10.00">printLabelValueUnits</text>
</g>
<!-- Node2 -->
<g id="node2" class="node"><title>Node2</title>
<g id="a_node2"><a xlink:href="actions_8cpp.html#a80b49b2422c65e1ce9233b16486ef30c" target="_top" xlink:title="printTouchThresholds">
<polygon fill="white" stroke="black" points="143,-114.5 143,-133.5 253,-133.5 253,-114.5 143,-114.5"/>
<text text-anchor="middle" x="198" y="-121.5" font-family="Helvetica,sans-Serif" font-size="10.00">printTouchThresholds</text>
</a>
</g>
</g>
<!-- Node1&#45;&gt;Node2 -->
<g id="edge1" class="edge"><title>Node1&#45;&gt;Node2</title>
<path fill="none" stroke="midnightblue" d="M85.1902,-80.7804C102.125,-88.2317 123.597,-97.4309 143,-105 151.333,-108.251 160.481,-111.564 168.841,-114.494"/>
<polygon fill="midnightblue" stroke="midnightblue" points="86.3543,-77.4682 75.7934,-76.6207 83.5208,-83.869 86.3543,-77.4682"/>
</g>
<!-- Node3 -->
<g id="node3" class="node"><title>Node3</title>
<g id="a_node3"><a xlink:href="actions_8h.html#a7cb54685ddb3c45facf6daadcc4a5f4b" target="_top" xlink:title="Report the current settings and sensor values via the serial port. ">
<polygon fill="white" stroke="black" points="172.5,-76.5 172.5,-95.5 223.5,-95.5 223.5,-76.5 172.5,-76.5"/>
<text text-anchor="middle" x="198" y="-83.5" font-family="Helvetica,sans-Serif" font-size="10.00">printLog</text>
</a>
</g>
</g>
<!-- Node1&#45;&gt;Node3 -->
<g id="edge2" class="edge"><title>Node1&#45;&gt;Node3</title>
<path fill="none" stroke="midnightblue" d="M117.255,-75.3673C136.777,-77.9702 157.161,-80.6881 172.434,-82.7245"/>
<polygon fill="midnightblue" stroke="midnightblue" points="117.532,-71.8733 107.157,-74.0209 116.607,-78.8119 117.532,-71.8733"/>
</g>
<!-- Node5 -->
<g id="node5" class="node"><title>Node5</title>
<g id="a_node5"><a xlink:href="actions_8h.html#a9c9466bf6676f35ff08e8dc33518e483" target="_top" xlink:title="Respond to commands from the serial port. ">
<polygon fill="white" stroke="black" points="297.5,-38.5 297.5,-57.5 372.5,-57.5 372.5,-38.5 297.5,-38.5"/>
<text text-anchor="middle" x="335" y="-45.5" font-family="Helvetica,sans-Serif" font-size="10.00">readEvalPrint</text>
</a>
</g>
</g>
<!-- Node1&#45;&gt;Node5 -->
<g id="edge5" class="edge"><title>Node1&#45;&gt;Node5</title>
<path fill="none" stroke="midnightblue" d="M117.129,-62.7425C172.533,-58.9763 251.479,-53.6097 297.261,-50.4975"/>
<polygon fill="midnightblue" stroke="midnightblue" points="116.811,-59.256 107.072,-63.4262 117.286,-66.2399 116.811,-59.256"/>
</g>
<!-- Node6 -->
<g id="node6" class="node"><title>Node6</title>
<g id="a_node6"><a xlink:href="teensy3__morse__bsp_8h.html#a4e9ec9948bd3c498f1d4b7780a4e0fdd" target="_top" xlink:title="Report register settings related to the external clock crystal. ">
<polygon fill="white" stroke="black" points="161,-0.5 161,-19.5 235,-19.5 235,-0.5 161,-0.5"/>
<text text-anchor="middle" x="198" y="-7.5" font-family="Helvetica,sans-Serif" font-size="10.00">describeRTC</text>
</a>
</g>
</g>
<!-- Node1&#45;&gt;Node6 -->
<g id="edge6" class="edge"><title>Node1&#45;&gt;Node6</title>
<path fill="none" stroke="midnightblue" d="M87.8522,-53.6591C113.988,-43.205 149.718,-28.9126 173.071,-19.5716"/>
<polygon fill="midnightblue" stroke="midnightblue" points="86.3362,-50.4958 78.3513,-57.4595 88.936,-56.9952 86.3362,-50.4958"/>
</g>
<!-- Node4 -->
<g id="node4" class="node"><title>Node4</title>
<g id="a_node4"><a xlink:href="actions_8h.html#a1fec7da4166b9612d2deec3d0262d60f" target="_top" xlink:title="dispatchOnStack">
<polygon fill="white" stroke="black" points="289,-76.5 289,-95.5 381,-95.5 381,-76.5 289,-76.5"/>
<text text-anchor="middle" x="335" y="-83.5" font-family="Helvetica,sans-Serif" font-size="10.00">dispatchOnStack</text>
</a>
</g>
</g>
<!-- Node3&#45;&gt;Node4 -->
<g id="edge3" class="edge"><title>Node3&#45;&gt;Node4</title>
<path fill="none" stroke="midnightblue" d="M234.189,-86C250.908,-86 271.088,-86 288.915,-86"/>
<polygon fill="midnightblue" stroke="midnightblue" points="233.761,-82.5001 223.761,-86 233.761,-89.5001 233.761,-82.5001"/>
</g>
<!-- Node3&#45;&gt;Node5 -->
<g id="edge4" class="edge"><title>Node3&#45;&gt;Node5</title>
<path fill="none" stroke="midnightblue" d="M233.63,-76.2522C254.107,-70.4885 279.922,-63.2219 300.244,-57.5017"/>
<polygon fill="midnightblue" stroke="midnightblue" points="232.439,-72.9515 223.761,-79.0302 234.335,-79.6897 232.439,-72.9515"/>
</g>
<!-- Node6&#45;&gt;Node5 -->
<g id="edge7" class="edge"><title>Node6&#45;&gt;Node5</title>
<path fill="none" stroke="midnightblue" d="M242.762,-22.3183C261.311,-27.5393 282.599,-33.5316 299.945,-38.4141"/>
<polygon fill="midnightblue" stroke="midnightblue" points="243.64,-18.9295 233.066,-19.589 241.744,-25.6677 243.64,-18.9295"/>
</g>
</g>
</svg>
