<?xml version="1.0" encoding="UTF-8" standalone="no"?>
<!DOCTYPE svg PUBLIC "-//W3C//DTD SVG 1.1//EN"
 "http://www.w3.org/Graphics/SVG/1.1/DTD/svg11.dtd">
<!-- Generated by graphviz version 2.38.0 (20140413.2041)
 -->
<!-- Title: getMorse Pages: 1 -->
<svg width="298pt" height="66pt"
 viewBox="0.00 0.00 298.00 66.00" xmlns="http://www.w3.org/2000/svg" xmlns:xlink="http://www.w3.org/1999/xlink">
<g id="graph0" class="graph" transform="scale(1 1) rotate(0) translate(4 62)">
<title>getMorse</title>
<polygon fill="white" stroke="none" points="-4,4 -4,-62 294,-62 294,4 -4,4"/>
<!-- Node1 -->
<g id="node1" class="node"><title>Node1</title>
<polygon fill="#bfbfbf" stroke="black" points="0,-19.5 0,-38.5 57,-38.5 57,-19.5 0,-19.5"/>
<text text-anchor="middle" x="28.5" y="-26.5" font-family="Helvetica,sans-Serif" font-size="10.00">getMorse</text>
</g>
<!-- Node2 -->
<g id="node2" class="node"><title>Node2</title>
<g id="a_node2"><a xlink:href="libmorse_8cpp.html#afa60f07ebee7c34ef41c3dfb64222bb6" target="_top" xlink:title="Score the given pattern against the state of the symbol stack. ">
<polygon fill="white" stroke="black" points="93,-38.5 93,-57.5 162,-57.5 162,-38.5 93,-38.5"/>
<text text-anchor="middle" x="127.5" y="-45.5" font-family="Helvetica,sans-Serif" font-size="10.00">matchScore</text>
</a>
</g>
</g>
<!-- Node1&#45;&gt;Node2 -->
<g id="edge1" class="edge"><title>Node1&#45;&gt;Node2</title>
<path fill="none" stroke="midnightblue" d="M67.0341,-36.352C75.481,-38.0066 84.3962,-39.7529 92.6805,-41.3756"/>
<polygon fill="midnightblue" stroke="midnightblue" points="67.5232,-32.8814 57.0368,-34.3938 66.1775,-39.7509 67.5232,-32.8814"/>
</g>
<!-- Node4 -->
<g id="node4" class="node"><title>Node4</title>
<g id="a_node4"><a xlink:href="libmorse_8h.html#a25fad1f4d176afaa89839cc897891e78" target="_top" xlink:title="rxString">
<polygon fill="white" stroke="black" points="102.5,-0.5 102.5,-19.5 152.5,-19.5 152.5,-0.5 102.5,-0.5"/>
<text text-anchor="middle" x="127.5" y="-7.5" font-family="Helvetica,sans-Serif" font-size="10.00">rxString</text>
</a>
</g>
</g>
<!-- Node1&#45;&gt;Node4 -->
<g id="edge3" class="edge"><title>Node1&#45;&gt;Node4</title>
<path fill="none" stroke="midnightblue" d="M67.0903,-21.6369C78.8818,-19.3273 91.5806,-16.8399 102.199,-14.76"/>
<polygon fill="midnightblue" stroke="midnightblue" points="66.1775,-18.2491 57.0368,-23.6062 67.5232,-25.1186 66.1775,-18.2491"/>
</g>
<!-- Node3 -->
<g id="node3" class="node"><title>Node3</title>
<g id="a_node3"><a xlink:href="actions_8h.html#a1fec7da4166b9612d2deec3d0262d60f" target="_top" xlink:title="dispatchOnStack">
<polygon fill="white" stroke="black" points="198,-19.5 198,-38.5 290,-38.5 290,-19.5 198,-19.5"/>
<text text-anchor="middle" x="244" y="-26.5" font-family="Helvetica,sans-Serif" font-size="10.00">dispatchOnStack</text>
</a>
</g>
</g>
<!-- Node2&#45;&gt;Node3 -->
<g id="edge2" class="edge"><title>Node2&#45;&gt;Node3</title>
<path fill="none" stroke="midnightblue" d="M172.15,-40.7567C180.488,-39.3732 189.233,-37.922 197.623,-36.5298"/>
<polygon fill="midnightblue" stroke="midnightblue" points="171.527,-37.3123 162.234,-42.4021 172.673,-44.2178 171.527,-37.3123"/>
</g>
<!-- Node4&#45;&gt;Node3 -->
<g id="edge4" class="edge"><title>Node4&#45;&gt;Node3</title>
<path fill="none" stroke="midnightblue" d="M162.591,-15.657C173.625,-17.488 186.039,-19.548 197.752,-21.4915"/>
<polygon fill="midnightblue" stroke="midnightblue" points="162.941,-12.1673 152.503,-13.983 161.795,-19.0729 162.941,-12.1673"/>
</g>
</g>
</svg>
