<?xml version="1.0" encoding="UTF-8" standalone="no"?>
<!DOCTYPE svg PUBLIC "-//W3C//DTD SVG 1.1//EN"
 "http://www.w3.org/Graphics/SVG/1.1/DTD/svg11.dtd">
<!-- Generated by graphviz version 2.38.0 (20140413.2041)
 -->
<!-- Title: txString Pages: 1 -->
<svg width="1044pt" height="469pt"
 viewBox="0.00 0.00 1044.00 468.81" xmlns="http://www.w3.org/2000/svg" xmlns:xlink="http://www.w3.org/1999/xlink">
<g id="graph0" class="graph" transform="scale(1 1) rotate(0) translate(4 464.808)">
<title>txString</title>
<polygon fill="white" stroke="none" points="-4,4 -4,-464.808 1040,-464.808 1040,4 -4,4"/>
<!-- Node1 -->
<g id="node1" class="node"><title>Node1</title>
<polygon fill="#bfbfbf" stroke="black" points="0,-209.5 0,-228.5 50,-228.5 50,-209.5 0,-209.5"/>
<text text-anchor="middle" x="25" y="-216.5" font-family="Helvetica,sans-Serif" font-size="10.00">txString</text>
</g>
<!-- Node2 -->
<g id="node2" class="node"><title>Node2</title>
<g id="a_node2"><a xlink:href="teensy3__morse__bsp_8cpp.html#ab306f692c5c9455a0c82782a67ff0147" target="_top" xlink:title="touchPoll">
<polygon fill="white" stroke="black" points="432,-399.5 432,-418.5 489,-418.5 489,-399.5 432,-399.5"/>
<text text-anchor="middle" x="460.5" y="-406.5" font-family="Helvetica,sans-Serif" font-size="10.00">touchPoll</text>
</a>
</g>
</g>
<!-- Node1&#45;&gt;Node2 -->
<g id="edge1" class="edge"><title>Node1&#45;&gt;Node2</title>
<path fill="none" stroke="midnightblue" d="M25.5116,-228.838C24.4799,-261.634 26.0589,-367.878 86,-416 186.262,-496.493 355.23,-448.118 426.361,-422.197"/>
<polygon fill="midnightblue" stroke="midnightblue" points="427.981,-425.328 436.126,-418.553 425.533,-418.77 427.981,-425.328"/>
</g>
<!-- Node4 -->
<g id="node4" class="node"><title>Node4</title>
<g id="a_node4"><a xlink:href="settings_8cpp.html#a960551e90dfdad18f3c9b1338ccba7db" target="_top" xlink:title="Get the dit duration in microseconds. ">
<polygon fill="white" stroke="black" points="673.5,-323.5 673.5,-342.5 745.5,-342.5 745.5,-323.5 673.5,-323.5"/>
<text text-anchor="middle" x="709.5" y="-330.5" font-family="Helvetica,sans-Serif" font-size="10.00">getDitMicros</text>
</a>
</g>
</g>
<!-- Node1&#45;&gt;Node4 -->
<g id="edge3" class="edge"><title>Node1&#45;&gt;Node4</title>
<path fill="none" stroke="midnightblue" d="M27.103,-228.782C30.5278,-254.08 43.4505,-321.792 86,-352 164.581,-407.788 205.629,-371 302,-371 302,-371 302,-371 461.5,-371 532.587,-371 613.858,-355.434 663.157,-344.227"/>
<polygon fill="midnightblue" stroke="midnightblue" points="664.223,-347.573 673.177,-341.909 662.645,-340.753 664.223,-347.573"/>
</g>
<!-- Node5 -->
<g id="node5" class="node"><title>Node5</title>
<g id="a_node5"><a xlink:href="libmorse_8cpp.html#a9fdfce728595d72b78dc7c834ab99a40" target="_top" xlink:title="Transmit a literal Morse code value. ">
<polygon fill="white" stroke="black" points="564.5,-171.5 564.5,-190.5 615.5,-190.5 615.5,-171.5 564.5,-171.5"/>
<text text-anchor="middle" x="590" y="-178.5" font-family="Helvetica,sans-Serif" font-size="10.00">txLiteral</text>
</a>
</g>
</g>
<!-- Node1&#45;&gt;Node5 -->
<g id="edge4" class="edge"><title>Node1&#45;&gt;Node5</title>
<path fill="none" stroke="midnightblue" d="M50.1914,-217.367C139.317,-211.352 449.582,-190.41 554.228,-183.347"/>
<polygon fill="midnightblue" stroke="midnightblue" points="554.523,-186.835 564.265,-182.67 554.052,-179.851 554.523,-186.835"/>
</g>
<!-- Node15 -->
<g id="node15" class="node"><title>Node15</title>
<g id="a_node15"><a xlink:href="libmorse_8cpp.html#acd4b292f5e412ee4f05aed9dafbc072d" target="_top" xlink:title="Convert an ASCII character into Morse code and transmit it. ">
<polygon fill="white" stroke="black" points="435.5,-133.5 435.5,-152.5 485.5,-152.5 485.5,-133.5 435.5,-133.5"/>
<text text-anchor="middle" x="460.5" y="-140.5" font-family="Helvetica,sans-Serif" font-size="10.00">txLetter</text>
</a>
</g>
</g>
<!-- Node1&#45;&gt;Node15 -->
<g id="edge16" class="edge"><title>Node1&#45;&gt;Node15</title>
<path fill="none" stroke="midnightblue" d="M33.6937,-209.213C44.065,-196.852 63.8084,-176.099 86,-167 202.702,-119.148 357.171,-130.066 425.033,-138.14"/>
<polygon fill="midnightblue" stroke="midnightblue" points="424.806,-141.639 435.162,-139.403 425.671,-134.693 424.806,-141.639"/>
</g>
<!-- Node16 -->
<g id="node16" class="node"><title>Node16</title>
<g id="a_node16"><a xlink:href="teensy3__morse__bsp_8cpp.html#a8761e874366e227690fba2964e1bc445" target="_top" xlink:title="getInternalTemperatureC">
<polygon fill="white" stroke="black" points="240.5,-228.5 240.5,-247.5 365.5,-247.5 365.5,-228.5 240.5,-228.5"/>
<text text-anchor="middle" x="303" y="-235.5" font-family="Helvetica,sans-Serif" font-size="10.00">getInternalTemperatureC</text>
</a>
</g>
</g>
<!-- Node1&#45;&gt;Node16 -->
<g id="edge19" class="edge"><title>Node1&#45;&gt;Node16</title>
<path fill="none" stroke="midnightblue" d="M50.0104,-220.653C89.7454,-223.388 170.691,-228.961 230.162,-233.055"/>
<polygon fill="midnightblue" stroke="midnightblue" points="230.039,-236.554 240.256,-233.749 230.52,-229.571 230.039,-236.554"/>
</g>
<!-- Node17 -->
<g id="node17" class="node"><title>Node17</title>
<g id="a_node17"><a xlink:href="libmorse_8cpp.html#a47abdd74b66d7180c47d192bab8bdccb" target="_top" xlink:title="Transmit an unsigned integer in Morse code. ">
<polygon fill="white" stroke="black" points="270,-285.5 270,-304.5 336,-304.5 336,-285.5 270,-285.5"/>
<text text-anchor="middle" x="303" y="-292.5" font-family="Helvetica,sans-Serif" font-size="10.00">txUnsigned</text>
</a>
</g>
</g>
<!-- Node1&#45;&gt;Node17 -->
<g id="edge20" class="edge"><title>Node1&#45;&gt;Node17</title>
<path fill="none" stroke="midnightblue" d="M32.8233,-228.721C42.7862,-242.035 62.6873,-265.484 86,-276 142.19,-301.346 214.869,-302.041 259.955,-299.251"/>
<polygon fill="midnightblue" stroke="midnightblue" points="260.239,-302.74 269.968,-298.545 259.747,-295.757 260.239,-302.74"/>
</g>
<!-- Node18 -->
<g id="node18" class="node"><title>Node18</title>
<g id="a_node18"><a xlink:href="actions_8cpp.html#aed718ec1bd4cc7adb2f65d40a6784496" target="_top" xlink:title="Transmit the internal temperature in integer in Fahrenheit. ">
<polygon fill="white" stroke="black" points="86,-247.5 86,-266.5 204,-266.5 204,-247.5 86,-247.5"/>
<text text-anchor="middle" x="145" y="-254.5" font-family="Helvetica,sans-Serif" font-size="10.00">txInternalTemperatureF</text>
</a>
</g>
</g>
<!-- Node1&#45;&gt;Node18 -->
<g id="edge23" class="edge"><title>Node1&#45;&gt;Node18</title>
<path fill="none" stroke="midnightblue" d="M50.1638,-226.782C65.8658,-231.838 86.6964,-238.546 104.742,-244.358"/>
<polygon fill="midnightblue" stroke="midnightblue" points="103.839,-247.744 114.431,-247.478 105.985,-241.081 103.839,-247.744"/>
</g>
<!-- Node19 -->
<g id="node19" class="node"><title>Node19</title>
<g id="a_node19"><a xlink:href="actions_8cpp.html#aaabb3ac0c23f35a499bc17efe829f326" target="_top" xlink:title="Transmit the 24&#45;hr time. ">
<polygon fill="white" stroke="black" points="106,-57.5 106,-76.5 184,-76.5 184,-57.5 106,-57.5"/>
<text text-anchor="middle" x="145" y="-64.5" font-family="Helvetica,sans-Serif" font-size="10.00">txTimeHHMM</text>
</a>
</g>
</g>
<!-- Node1&#45;&gt;Node19 -->
<g id="edge26" class="edge"><title>Node1&#45;&gt;Node19</title>
<path fill="none" stroke="midnightblue" d="M27.1877,-209.338C31.4567,-183.957 47.8404,-118.444 86,-82 89.2804,-78.8671 93.0274,-76.1185 97.0026,-73.7508"/>
<polygon fill="midnightblue" stroke="midnightblue" points="98.6584,-76.8353 105.977,-69.1743 95.4783,-70.5993 98.6584,-76.8353"/>
</g>
<!-- Node20 -->
<g id="node20" class="node"><title>Node20</title>
<g id="a_node20"><a xlink:href="actions_8cpp.html#ad02149679fa3cc6a4957d1a318408ffd" target="_top" xlink:title="Transmit the uptime. ">
<polygon fill="white" stroke="black" points="117,-323.5 117,-342.5 173,-342.5 173,-323.5 117,-323.5"/>
<text text-anchor="middle" x="145" y="-330.5" font-family="Helvetica,sans-Serif" font-size="10.00">txUptime</text>
</a>
</g>
</g>
<!-- Node1&#45;&gt;Node20 -->
<g id="edge28" class="edge"><title>Node1&#45;&gt;Node20</title>
<path fill="none" stroke="midnightblue" d="M30.1506,-228.772C38.3183,-246.934 58.1366,-286.117 86,-309 92.2766,-314.155 99.8147,-318.342 107.348,-321.689"/>
<polygon fill="midnightblue" stroke="midnightblue" points="106.208,-325.003 116.791,-325.488 108.82,-318.508 106.208,-325.003"/>
</g>
<!-- Node22 -->
<g id="node22" class="node"><title>Node22</title>
<g id="a_node22"><a xlink:href="teensy3__morse__bsp_8cpp.html#ae8dd28759e56dbd2ee9bc9ae96d1783c" target="_top" xlink:title="Return the most recent ADC measurement of the input voltage. Perform analog to digital conversion on ...">
<polygon fill="white" stroke="black" points="108,-19.5 108,-38.5 182,-38.5 182,-19.5 108,-19.5"/>
<text text-anchor="middle" x="145" y="-26.5" font-family="Helvetica,sans-Serif" font-size="10.00">readMillivolts</text>
</a>
</g>
</g>
<!-- Node1&#45;&gt;Node22 -->
<g id="edge31" class="edge"><title>Node1&#45;&gt;Node22</title>
<path fill="none" stroke="midnightblue" d="M26.5135,-209.312C28.5656,-180.496 38.5713,-94.4483 86,-48 89.551,-44.5225 93.7478,-41.6814 98.2347,-39.3603"/>
<polygon fill="midnightblue" stroke="midnightblue" points="99.9243,-42.4442 107.738,-35.289 97.1677,-36.0098 99.9243,-42.4442"/>
</g>
<!-- Node26 -->
<g id="node26" class="node"><title>Node26</title>
<g id="a_node26"><a xlink:href="libmorse_8cpp.html#ac3f000c98271c6d0a7710135e18189bc" target="_top" xlink:title="On my hardware there is cross&#45;coupling between the serial port and the touch sensors. Without the code below, long messages to the serial port trigger a touch input. ">
<polygon fill="white" stroke="black" points="270.5,-399.5 270.5,-418.5 335.5,-418.5 335.5,-399.5 270.5,-399.5"/>
<text text-anchor="middle" x="303" y="-406.5" font-family="Helvetica,sans-Serif" font-size="10.00">flushTouch</text>
</a>
</g>
</g>
<!-- Node1&#45;&gt;Node26 -->
<g id="edge35" class="edge"><title>Node1&#45;&gt;Node26</title>
<path fill="none" stroke="midnightblue" d="M26.202,-228.875C27.3842,-258.162 35.2108,-344.984 86,-385 135.7,-424.158 212.973,-422.313 260.369,-416.381"/>
<polygon fill="midnightblue" stroke="midnightblue" points="260.863,-419.846 270.297,-415.023 259.915,-412.91 260.863,-419.846"/>
</g>
<!-- Node3 -->
<g id="node3" class="node"><title>Node3</title>
<g id="a_node3"><a xlink:href="teensy3__morse__bsp_8cpp.html#af6899cd9b83df54106b259ab81ea5cb2" target="_top" xlink:title="touchMargin">
<polygon fill="white" stroke="black" points="555,-399.5 555,-418.5 625,-418.5 625,-399.5 555,-399.5"/>
<text text-anchor="middle" x="590" y="-406.5" font-family="Helvetica,sans-Serif" font-size="10.00">touchMargin</text>
</a>
</g>
</g>
<!-- Node2&#45;&gt;Node3 -->
<g id="edge2" class="edge"><title>Node2&#45;&gt;Node3</title>
<path fill="none" stroke="midnightblue" d="M489.166,-409C505.281,-409 525.984,-409 544.355,-409"/>
<polygon fill="midnightblue" stroke="midnightblue" points="544.562,-412.5 554.562,-409 544.562,-405.5 544.562,-412.5"/>
</g>
<!-- Node5&#45;&gt;Node4 -->
<g id="edge13" class="edge"><title>Node5&#45;&gt;Node4</title>
<path fill="none" stroke="midnightblue" d="M598.35,-190.508C617.638,-215.46 669.93,-283.106 694.888,-315.392"/>
<polygon fill="midnightblue" stroke="midnightblue" points="692.268,-317.724 701.153,-323.495 697.806,-313.443 692.268,-317.724"/>
</g>
<!-- Node6 -->
<g id="node6" class="node"><title>Node6</title>
<g id="a_node6"><a xlink:href="class_morse_token.html#a48cd72aeb868391449d1f51c1d0bf5cc" target="_top" xlink:title="Treat code == 0 as the error token. ">
<polygon fill="white" stroke="black" points="661,-152.5 661,-171.5 758,-171.5 758,-152.5 661,-152.5"/>
<text text-anchor="middle" x="709.5" y="-159.5" font-family="Helvetica,sans-Serif" font-size="10.00">MorseToken::valid</text>
</a>
</g>
</g>
<!-- Node5&#45;&gt;Node6 -->
<g id="edge5" class="edge"><title>Node5&#45;&gt;Node6</title>
<path fill="none" stroke="midnightblue" d="M615.632,-177.017C625.933,-175.351 638.376,-173.339 650.759,-171.337"/>
<polygon fill="midnightblue" stroke="midnightblue" points="651.322,-174.791 660.635,-169.74 650.205,-167.881 651.322,-174.791"/>
</g>
<!-- Node7 -->
<g id="node7" class="node"><title>Node7</title>
<g id="a_node7"><a xlink:href="teensy3__morse__bsp_8cpp.html#af66e71e3fac9b6a2c6532bc8a513bfde" target="_top" xlink:title="Output a square wave on pin 10 at the given frequency for the given duration. ">
<polygon fill="white" stroke="black" points="690.5,-228.5 690.5,-247.5 728.5,-247.5 728.5,-228.5 690.5,-228.5"/>
<text text-anchor="middle" x="709.5" y="-235.5" font-family="Helvetica,sans-Serif" font-size="10.00">beep</text>
</a>
</g>
</g>
<!-- Node5&#45;&gt;Node7 -->
<g id="edge6" class="edge"><title>Node5&#45;&gt;Node7</title>
<path fill="none" stroke="midnightblue" d="M607.408,-190.616C621.419,-198.654 642.224,-210.185 661,-219 667.226,-221.923 674.031,-224.816 680.496,-227.43"/>
<polygon fill="midnightblue" stroke="midnightblue" points="679.656,-230.861 690.243,-231.272 682.223,-224.348 679.656,-230.861"/>
</g>
<!-- Node13 -->
<g id="node13" class="node"><title>Node13</title>
<g id="a_node13"><a xlink:href="settings_8cpp.html#a8575b9b52638114a4f32d1462cf9b7c1" target="_top" xlink:title="Get the transmission frequency (side tone). ">
<polygon fill="white" stroke="black" points="682.5,-190.5 682.5,-209.5 736.5,-209.5 736.5,-190.5 682.5,-190.5"/>
<text text-anchor="middle" x="709.5" y="-197.5" font-family="Helvetica,sans-Serif" font-size="10.00">getTxHz</text>
</a>
</g>
</g>
<!-- Node5&#45;&gt;Node13 -->
<g id="edge12" class="edge"><title>Node5&#45;&gt;Node13</title>
<path fill="none" stroke="midnightblue" d="M615.632,-184.983C632.022,-187.633 653.833,-191.16 672.199,-194.13"/>
<polygon fill="midnightblue" stroke="midnightblue" points="671.838,-197.617 682.269,-195.758 672.956,-190.707 671.838,-197.617"/>
</g>
<!-- Node14 -->
<g id="node14" class="node"><title>Node14</title>
<g id="a_node14"><a xlink:href="libmorse_8cpp.html#ab94e088615119d1faae7df22ce50aedf" target="_top" xlink:title="Transmit a Morse code prosign indicating an error. ">
<polygon fill="white" stroke="black" points="686.5,-114.5 686.5,-133.5 732.5,-133.5 732.5,-114.5 686.5,-114.5"/>
<text text-anchor="middle" x="709.5" y="-121.5" font-family="Helvetica,sans-Serif" font-size="10.00">txError</text>
</a>
</g>
</g>
<!-- Node5&#45;&gt;Node14 -->
<g id="edge14" class="edge"><title>Node5&#45;&gt;Node14</title>
<path fill="none" stroke="midnightblue" d="M607.408,-171.384C621.419,-163.346 642.224,-151.815 661,-143 666.025,-140.641 671.427,-138.301 676.724,-136.112"/>
<polygon fill="midnightblue" stroke="midnightblue" points="678.068,-139.344 686.038,-132.363 675.454,-132.85 678.068,-139.344"/>
</g>
<!-- Node8 -->
<g id="node8" class="node"><title>Node8</title>
<g id="a_node8"><a xlink:href="teensy3__morse__bsp_8cpp.html#a6f674d5b9985ea3a7eeb0df299c2e405" target="_top" xlink:title="pollEarphonePresent">
<polygon fill="white" stroke="black" points="794,-285.5 794,-304.5 901,-304.5 901,-285.5 794,-285.5"/>
<text text-anchor="middle" x="847.5" y="-292.5" font-family="Helvetica,sans-Serif" font-size="10.00">pollEarphonePresent</text>
</a>
</g>
</g>
<!-- Node7&#45;&gt;Node8 -->
<g id="edge7" class="edge"><title>Node7&#45;&gt;Node8</title>
<path fill="none" stroke="midnightblue" d="M728.561,-246.725C745.352,-254.715 771.14,-266.679 794,-276 798.868,-277.985 804.03,-279.981 809.142,-281.896"/>
<polygon fill="midnightblue" stroke="midnightblue" points="808.229,-285.289 818.823,-285.451 810.642,-278.718 808.229,-285.289"/>
</g>
<!-- Node9 -->
<g id="node9" class="node"><title>Node9</title>
<g id="a_node9"><a xlink:href="teensy3__morse__bsp_8cpp.html#a2d6b4ace33ed5e497dedd03217540c63" target="_top" xlink:title="Set the PWM frequency for the audio output pins. ">
<polygon fill="white" stroke="black" points="806,-247.5 806,-266.5 889,-266.5 889,-247.5 806,-247.5"/>
<text text-anchor="middle" x="847.5" y="-254.5" font-family="Helvetica,sans-Serif" font-size="10.00">pwmFrequency</text>
</a>
</g>
</g>
<!-- Node7&#45;&gt;Node9 -->
<g id="edge8" class="edge"><title>Node7&#45;&gt;Node9</title>
<path fill="none" stroke="midnightblue" d="M728.56,-240.523C745.617,-242.906 772.017,-246.594 795.519,-249.878"/>
<polygon fill="midnightblue" stroke="midnightblue" points="795.334,-253.386 805.722,-251.303 796.303,-246.453 795.334,-253.386"/>
</g>
<!-- Node10 -->
<g id="node10" class="node"><title>Node10</title>
<g id="a_node10"><a xlink:href="teensy3__morse__bsp_8cpp.html#a82911eac3bf13d6f36d10102a4c4d3c4" target="_top" xlink:title="Generate a tone on the audio output pins. ">
<polygon fill="white" stroke="black" points="817,-209.5 817,-228.5 878,-228.5 878,-209.5 817,-209.5"/>
<text text-anchor="middle" x="847.5" y="-216.5" font-family="Helvetica,sans-Serif" font-size="10.00">pwmWrite</text>
</a>
</g>
</g>
<!-- Node7&#45;&gt;Node10 -->
<g id="edge9" class="edge"><title>Node7&#45;&gt;Node10</title>
<path fill="none" stroke="midnightblue" d="M728.56,-235.477C748.462,-232.697 781.083,-228.139 806.979,-224.521"/>
<polygon fill="midnightblue" stroke="midnightblue" points="807.471,-227.987 816.89,-223.137 806.502,-221.054 807.471,-227.987"/>
</g>
<!-- Node12 -->
<g id="node12" class="node"><title>Node12</title>
<g id="a_node12"><a xlink:href="teensy3__morse__bsp_8cpp.html#a6c982a7d7805f1dd5426eb98c915cfdd" target="_top" xlink:title="Turn the red LED on (1) or off (0). ">
<polygon fill="white" stroke="black" points="822.5,-171.5 822.5,-190.5 872.5,-190.5 872.5,-171.5 822.5,-171.5"/>
<text text-anchor="middle" x="847.5" y="-178.5" font-family="Helvetica,sans-Serif" font-size="10.00">redLED</text>
</a>
</g>
</g>
<!-- Node7&#45;&gt;Node12 -->
<g id="edge11" class="edge"><title>Node7&#45;&gt;Node12</title>
<path fill="none" stroke="midnightblue" d="M728.734,-231.223C737.652,-227.779 748.487,-223.398 758,-219 774.422,-211.408 777.454,-207.318 794,-200 799.992,-197.35 806.48,-194.774 812.784,-192.419"/>
<polygon fill="midnightblue" stroke="midnightblue" points="814.232,-195.617 822.442,-188.92 811.847,-189.036 814.232,-195.617"/>
</g>
<!-- Node11 -->
<g id="node11" class="node"><title>Node11</title>
<g id="a_node11"><a xlink:href="teensy3__morse__bsp_8cpp.html#ac70998cee1bf97f00aec4a1b4e5a4f60" target="_top" xlink:title="isEarphonePresent">
<polygon fill="white" stroke="black" points="937,-209.5 937,-228.5 1036,-228.5 1036,-209.5 937,-209.5"/>
<text text-anchor="middle" x="986.5" y="-216.5" font-family="Helvetica,sans-Serif" font-size="10.00">isEarphonePresent</text>
</a>
</g>
</g>
<!-- Node10&#45;&gt;Node11 -->
<g id="edge10" class="edge"><title>Node10&#45;&gt;Node11</title>
<path fill="none" stroke="midnightblue" d="M878.227,-219C892.434,-219 909.959,-219 926.696,-219"/>
<polygon fill="midnightblue" stroke="midnightblue" points="926.979,-222.5 936.979,-219 926.979,-215.5 926.979,-222.5"/>
</g>
<!-- Node14&#45;&gt;Node1 -->
<g id="edge15" class="edge"><title>Node14&#45;&gt;Node1</title>
<path fill="none" stroke="midnightblue" d="M686.403,-121.156C643.252,-115.855 544.722,-105 461.5,-105 302,-105 302,-105 302,-105 205.139,-105 168.839,-83.8021 86,-134 60.6108,-149.385 43.0915,-180.05 33.8017,-200.034"/>
<polygon fill="midnightblue" stroke="midnightblue" points="30.5164,-198.81 29.6958,-209.373 36.9245,-201.627 30.5164,-198.81"/>
</g>
<!-- Node15&#45;&gt;Node5 -->
<g id="edge17" class="edge"><title>Node15&#45;&gt;Node5</title>
<path fill="none" stroke="midnightblue" d="M485.782,-150.237C505.242,-156.037 532.793,-164.248 554.536,-170.728"/>
<polygon fill="midnightblue" stroke="midnightblue" points="553.791,-174.158 564.374,-173.661 555.791,-167.45 553.791,-174.158"/>
</g>
<!-- Node15&#45;&gt;Node14 -->
<g id="edge18" class="edge"><title>Node15&#45;&gt;Node14</title>
<path fill="none" stroke="midnightblue" d="M485.633,-141.144C530.398,-137.7 626.294,-130.324 676.444,-126.466"/>
<polygon fill="midnightblue" stroke="midnightblue" points="676.715,-129.955 686.417,-125.699 676.178,-122.976 676.715,-129.955"/>
</g>
<!-- Node17&#45;&gt;Node2 -->
<g id="edge21" class="edge"><title>Node17&#45;&gt;Node2</title>
<path fill="none" stroke="midnightblue" d="M336.192,-301.601C346.19,-304.491 356.953,-308.511 366,-314 399.757,-334.482 430.051,-369.863 446.502,-391.184"/>
<polygon fill="midnightblue" stroke="midnightblue" points="443.862,-393.496 452.675,-399.376 449.453,-389.283 443.862,-393.496"/>
</g>
<!-- Node17&#45;&gt;Node15 -->
<g id="edge22" class="edge"><title>Node17&#45;&gt;Node15</title>
<path fill="none" stroke="midnightblue" d="M323.284,-285.367C336.122,-278.448 352.961,-268.364 366,-257 399.73,-227.603 430.99,-185.202 447.427,-161.26"/>
<polygon fill="midnightblue" stroke="midnightblue" points="450.461,-163.021 453.16,-152.776 444.661,-159.102 450.461,-163.021"/>
</g>
<!-- Node18&#45;&gt;Node16 -->
<g id="edge24" class="edge"><title>Node18&#45;&gt;Node16</title>
<path fill="none" stroke="midnightblue" d="M204.089,-249.925C212.711,-248.875 221.682,-247.782 230.54,-246.704"/>
<polygon fill="midnightblue" stroke="midnightblue" points="230.964,-250.178 240.467,-245.494 230.117,-243.229 230.964,-250.178"/>
</g>
<!-- Node18&#45;&gt;Node17 -->
<g id="edge25" class="edge"><title>Node18&#45;&gt;Node17</title>
<path fill="none" stroke="midnightblue" d="M185.365,-266.589C208.167,-272.143 236.861,-279.133 260.083,-284.789"/>
<polygon fill="midnightblue" stroke="midnightblue" points="259.451,-288.238 269.996,-287.204 261.108,-281.437 259.451,-288.238"/>
</g>
<!-- Node19&#45;&gt;Node1 -->
<g id="edge27" class="edge"><title>Node19&#45;&gt;Node1</title>
<path fill="none" stroke="midnightblue" d="M130.483,-76.5146C117.627,-81.7533 98.4517,-88.1082 86,-100 56.6482,-128.032 40.18,-173.263 32.1988,-199.347"/>
<polygon fill="midnightblue" stroke="midnightblue" points="28.7507,-198.667 29.285,-209.248 35.4659,-200.643 28.7507,-198.667"/>
</g>
<!-- Node20&#45;&gt;Node17 -->
<g id="edge30" class="edge"><title>Node20&#45;&gt;Node17</title>
<path fill="none" stroke="midnightblue" d="M173.173,-326.381C197.119,-320.548 232.386,-311.957 259.968,-305.238"/>
<polygon fill="midnightblue" stroke="midnightblue" points="260.86,-308.624 269.748,-302.856 259.203,-301.823 260.86,-308.624"/>
</g>
<!-- Node21 -->
<g id="node21" class="node"><title>Node21</title>
<g id="a_node21"><a xlink:href="settings_8cpp.html#a7b4efa097b94f9a90c5bbafcdf93fe4f" target="_top" xlink:title="getUptime">
<polygon fill="white" stroke="black" points="272,-323.5 272,-342.5 334,-342.5 334,-323.5 272,-323.5"/>
<text text-anchor="middle" x="303" y="-330.5" font-family="Helvetica,sans-Serif" font-size="10.00">getUptime</text>
</a>
</g>
</g>
<!-- Node20&#45;&gt;Node21 -->
<g id="edge29" class="edge"><title>Node20&#45;&gt;Node21</title>
<path fill="none" stroke="midnightblue" d="M173.173,-333C197.633,-333 233.905,-333 261.735,-333"/>
<polygon fill="midnightblue" stroke="midnightblue" points="261.945,-336.5 271.945,-333 261.945,-329.5 261.945,-336.5"/>
</g>
<!-- Node23 -->
<g id="node23" class="node"><title>Node23</title>
<g id="a_node23"><a xlink:href="class_voltage_monitor.html#a70902b84f9864c95d5553a0644a64f4f" target="_top" xlink:title="Return the latest voltage reading. ">
<polygon fill="white" stroke="black" points="240,-19.5 240,-38.5 366,-38.5 366,-19.5 240,-19.5"/>
<text text-anchor="middle" x="303" y="-26.5" font-family="Helvetica,sans-Serif" font-size="10.00">VoltageMonitor::getValue</text>
</a>
</g>
</g>
<!-- Node22&#45;&gt;Node23 -->
<g id="edge32" class="edge"><title>Node22&#45;&gt;Node23</title>
<path fill="none" stroke="midnightblue" d="M182.182,-29C196.344,-29 213.117,-29 229.56,-29"/>
<polygon fill="midnightblue" stroke="midnightblue" points="229.728,-32.5001 239.728,-29 229.728,-25.5001 229.728,-32.5001"/>
</g>
<!-- Node24 -->
<g id="node24" class="node"><title>Node24</title>
<g id="a_node24"><a xlink:href="actions_8cpp.html#a2b8c3769e2aa32a2da9e2f3f85ac73dd" target="_top" xlink:title="A sample ADC reading is taken each time through the main loop, and written to a ring buffer...">
<polygon fill="white" stroke="black" points="404.5,-38.5 404.5,-57.5 516.5,-57.5 516.5,-38.5 404.5,-38.5"/>
<text text-anchor="middle" x="460.5" y="-45.5" font-family="Helvetica,sans-Serif" font-size="10.00">getVoltagePollInterval</text>
</a>
</g>
</g>
<!-- Node23&#45;&gt;Node24 -->
<g id="edge33" class="edge"><title>Node23&#45;&gt;Node24</title>
<path fill="none" stroke="midnightblue" d="M366.352,-36.6185C375.438,-37.7287 384.816,-38.8746 393.963,-39.9922"/>
<polygon fill="midnightblue" stroke="midnightblue" points="393.813,-43.4998 404.163,-41.2386 394.662,-36.5515 393.813,-43.4998"/>
</g>
<!-- Node25 -->
<g id="node25" class="node"><title>Node25</title>
<g id="a_node25"><a xlink:href="class_voltage_monitor.html#a75871331808c34b40d04059ee2af0f27" target="_top" xlink:title="Filter and scale raw ADC values to millivolts. ">
<polygon fill="white" stroke="black" points="402,-0.5 402,-19.5 519,-19.5 519,-0.5 402,-0.5"/>
<text text-anchor="middle" x="460.5" y="-7.5" font-family="Helvetica,sans-Serif" font-size="10.00">VoltageMonitor::update</text>
</a>
</g>
</g>
<!-- Node23&#45;&gt;Node25 -->
<g id="edge34" class="edge"><title>Node23&#45;&gt;Node25</title>
<path fill="none" stroke="midnightblue" d="M366.352,-21.3815C374.702,-20.3612 383.298,-19.3108 391.735,-18.2799"/>
<polygon fill="midnightblue" stroke="midnightblue" points="392.419,-21.7226 401.92,-17.0355 391.57,-14.7742 392.419,-21.7226"/>
</g>
<!-- Node26&#45;&gt;Node2 -->
<g id="edge36" class="edge"><title>Node26&#45;&gt;Node2</title>
<path fill="none" stroke="midnightblue" d="M335.843,-409C360.677,-409 395.247,-409 421.522,-409"/>
<polygon fill="midnightblue" stroke="midnightblue" points="421.864,-412.5 431.864,-409 421.863,-405.5 421.864,-412.5"/>
</g>
</g>
</svg>
