<?xml version="1.0" encoding="UTF-8" standalone="no"?>
<!DOCTYPE svg PUBLIC "-//W3C//DTD SVG 1.1//EN"
 "http://www.w3.org/Graphics/SVG/1.1/DTD/svg11.dtd">
<!-- Generated by graphviz version 2.38.0 (20140413.2041)
 -->
<!-- Title: rxString Pages: 1 -->
<!--zoomable 702 -->
<svg id="main" version="1.1" xmlns="http://www.w3.org/2000/svg" xmlns:xlink="http://www.w3.org/1999/xlink" xml:space="preserve" onload="init(evt)">
<style type="text/css"><![CDATA[
.edge:hover path { stroke: red; }
.edge:hover polygon { stroke: red; fill: red; }
]]></style>
<script type="text/javascript"><![CDATA[
var edges = document.getElementsByTagName('g');
if (edges && edges.length) {
  for (var i=0;i<edges.length;i++) {
    if (edges[i].id.substr(0,4)=='edge') {
      edges[i].setAttribute('class','edge');
    }
  }
}
]]></script>
        <defs>
                <circle id="rim" cx="0" cy="0" r="7"/>
                <circle id="rim2" cx="0" cy="0" r="3.5"/>
                <g id="zoomPlus">
                        <use xlink:href="#rim" fill="#404040">
                                <set attributeName="fill" to="#808080" begin="zoomplus.mouseover" end="zoomplus.mouseout"/>
                        </use>
                        <path d="M-4,0h8M0,-4v8" fill="none" stroke="white" stroke-width="1.5" pointer-events="none"/>
                </g>
                <g id="zoomMin">
                        <use xlink:href="#rim" fill="#404040">
                                <set attributeName="fill" to="#808080" begin="zoomminus.mouseover" end="zoomminus.mouseout"/>
                        </use>
                        <path d="M-4,0h8" fill="none" stroke="white" stroke-width="1.5" pointer-events="none"/>
                </g>
                <g id="dirArrow">
                        <path fill="none" stroke="white" stroke-width="1.5" d="M0,-3.0v7 M-2.5,-0.5L0,-3.0L2.5,-0.5"/>
                </g>
               <g id="resetDef">
                       <use xlink:href="#rim2" fill="#404040">
                               <set attributeName="fill" to="#808080" begin="reset.mouseover" end="reset.mouseout"/>
                       </use>
               </g>
        </defs>

<script type="text/javascript">
var viewWidth = 1233;
var viewHeight = 702;
var sectionId = 'dynsection-9';
</script>
<script xlink:href="svgpan.js"/>
<svg id="graph" class="graph">
<g id="viewport">
<title>rxString</title>
<polygon fill="white" stroke="none" points="-4,4 -4,-698.157 1229,-698.157 1229,4 -4,4"/>
<!-- Node1 -->
<g id="node1" class="node"><title>Node1</title>
<polygon fill="#bfbfbf" stroke="black" points="0,-522.5 0,-541.5 50,-541.5 50,-522.5 0,-522.5"/>
<text text-anchor="middle" x="25" y="-529.5" font-family="Helvetica,sans-Serif" font-size="10.00">rxString</text>
</g>
<!-- Node2 -->
<g id="node2" class="node"><title>Node2</title>
<g id="a_node2"><a xlink:href="libmorse_8cpp.html#ac4a29ea9b7bb06c2d9e8c4d74f486b91" target="_top" xlink:title="Accumulate a Morse token. ">
<polygon fill="white" stroke="black" points="86,-475.5 86,-494.5 143,-494.5 143,-475.5 86,-475.5"/>
<text text-anchor="middle" x="114.5" y="-482.5" font-family="Helvetica,sans-Serif" font-size="10.00">getMorse</text>
</a>
</g>
</g>
<!-- Node1&#45;&gt;Node2 -->
<g id="edge1" class="edge"><title>Node1&#45;&gt;Node2</title>
<path fill="none" stroke="midnightblue" d="M43.7069,-522.489C55.9602,-515.907 72.4988,-507.024 86.4008,-499.556"/>
<polygon fill="midnightblue" stroke="midnightblue" points="88.3657,-502.474 95.5191,-494.658 85.0533,-496.307 88.3657,-502.474"/>
</g>
<!-- Node16 -->
<g id="node16" class="node"><title>Node16</title>
<g id="a_node16"><a xlink:href="settings_8cpp.html#a960551e90dfdad18f3c9b1338ccba7db" target="_top" xlink:title="Get the dit duration in microseconds. ">
<polygon fill="white" stroke="black" points="709,-494.5 709,-513.5 781,-513.5 781,-494.5 709,-494.5"/>
<text text-anchor="middle" x="745" y="-501.5" font-family="Helvetica,sans-Serif" font-size="10.00">getDitMicros</text>
</a>
</g>
</g>
<!-- Node1&#45;&gt;Node16 -->
<g id="edge52" class="edge"><title>Node1&#45;&gt;Node16</title>
<path fill="none" stroke="midnightblue" d="M30.6419,-541.649C48.1663,-576.524 113.988,-694 205.5,-694 205.5,-694 205.5,-694 459.5,-694 547.148,-694 580.577,-696.504 650,-643 675.543,-623.314 668.178,-606.877 686,-580 699.801,-559.185 717.416,-536.583 729.593,-521.486"/>
<polygon fill="midnightblue" stroke="midnightblue" points="732.467,-523.499 736.065,-513.534 727.038,-519.081 732.467,-523.499"/>
</g>
<!-- Node18 -->
<g id="node18" class="node"><title>Node18</title>
<g id="a_node18"><a xlink:href="libmorse_8cpp.html#a0ee2308940264ea9ac8e50afc1a4d285" target="_top" xlink:title="txString">
<polygon fill="white" stroke="black" points="571.5,-237.5 571.5,-256.5 621.5,-256.5 621.5,-237.5 571.5,-237.5"/>
<text text-anchor="middle" x="596.5" y="-244.5" font-family="Helvetica,sans-Serif" font-size="10.00">txString</text>
</a>
</g>
</g>
<!-- Node1&#45;&gt;Node18 -->
<g id="edge56" class="edge"><title>Node1&#45;&gt;Node18</title>
<path fill="none" stroke="midnightblue" d="M27.8177,-522.279C39.9711,-458.72 111.816,-105 205.5,-105 205.5,-105 205.5,-105 323,-105 430.304,-105 537.214,-192.663 578.106,-230.233"/>
<polygon fill="midnightblue" stroke="midnightblue" points="575.902,-232.964 585.596,-237.24 580.684,-227.852 575.902,-232.964"/>
</g>
<!-- Node36 -->
<g id="node36" class="node"><title>Node36</title>
<g id="a_node36"><a xlink:href="actions_8cpp.html#a7b222d103bfa3f308965abdf4b9d8d8e" target="_top" xlink:title="txTock">
<polygon fill="white" stroke="black" points="183,-627.5 183,-646.5 230,-646.5 230,-627.5 183,-627.5"/>
<text text-anchor="middle" x="206.5" y="-634.5" font-family="Helvetica,sans-Serif" font-size="10.00">txTock</text>
</a>
</g>
</g>
<!-- Node1&#45;&gt;Node36 -->
<g id="edge53" class="edge"><title>Node1&#45;&gt;Node36</title>
<path fill="none" stroke="midnightblue" d="M42.246,-541.503C73.6713,-559.886 142.974,-600.425 180.381,-622.306"/>
<polygon fill="midnightblue" stroke="midnightblue" points="178.762,-625.414 189.161,-627.443 182.297,-619.372 178.762,-625.414"/>
</g>
<!-- Node3 -->
<g id="node3" class="node"><title>Node3</title>
<g id="a_node3"><a xlink:href="teensy3__morse__bsp_8cpp.html#ab306f692c5c9455a0c82782a67ff0147" target="_top" xlink:title="touchPoll">
<polygon fill="white" stroke="black" points="1032,-304.5 1032,-323.5 1089,-323.5 1089,-304.5 1032,-304.5"/>
<text text-anchor="middle" x="1060.5" y="-311.5" font-family="Helvetica,sans-Serif" font-size="10.00">touchPoll</text>
</a>
</g>
</g>
<!-- Node2&#45;&gt;Node3 -->
<g id="edge2" class="edge"><title>Node2&#45;&gt;Node3</title>
<path fill="none" stroke="midnightblue" d="M115.615,-475.202C116.493,-440.26 123.598,-319.804 179,-244 265.539,-125.593 310.839,-67 457.5,-67 457.5,-67 457.5,-67 746,-67 818.669,-67 946.977,-163.483 966,-181 1003.54,-215.568 1034.69,-267.646 1049.75,-295.26"/>
<polygon fill="midnightblue" stroke="midnightblue" points="1046.76,-297.079 1054.56,-304.249 1052.93,-293.78 1046.76,-297.079"/>
</g>
<!-- Node5 -->
<g id="node5" class="node"><title>Node5</title>
<g id="a_node5"><a xlink:href="settings_8cpp.html#a8575b9b52638114a4f32d1462cf9b7c1" target="_top" xlink:title="Get the transmission frequency (side tone). ">
<polygon fill="white" stroke="black" points="431.5,-494.5 431.5,-513.5 485.5,-513.5 485.5,-494.5 431.5,-494.5"/>
<text text-anchor="middle" x="458.5" y="-501.5" font-family="Helvetica,sans-Serif" font-size="10.00">getTxHz</text>
</a>
</g>
</g>
<!-- Node2&#45;&gt;Node5 -->
<g id="edge4" class="edge"><title>Node2&#45;&gt;Node5</title>
<path fill="none" stroke="midnightblue" d="M141.374,-475.399C152.745,-471.668 166.362,-467.85 179,-466 266.092,-453.25 368.716,-477.332 421.748,-492.673"/>
<polygon fill="midnightblue" stroke="midnightblue" points="420.785,-496.037 431.367,-495.518 422.77,-489.325 420.785,-496.037"/>
</g>
<!-- Node6 -->
<g id="node6" class="node"><title>Node6</title>
<g id="a_node6"><a xlink:href="settings_8cpp.html#af33969eee39a5fffb3ceb43a77772dc9" target="_top" xlink:title="Set the transmission frequency (side tone). ">
<polygon fill="white" stroke="black" points="179.5,-475.5 179.5,-494.5 233.5,-494.5 233.5,-475.5 179.5,-475.5"/>
<text text-anchor="middle" x="206.5" y="-482.5" font-family="Helvetica,sans-Serif" font-size="10.00">setTxHz</text>
</a>
</g>
</g>
<!-- Node2&#45;&gt;Node6 -->
<g id="edge5" class="edge"><title>Node2&#45;&gt;Node6</title>
<path fill="none" stroke="midnightblue" d="M143.483,-485C151.627,-485 160.643,-485 169.22,-485"/>
<polygon fill="midnightblue" stroke="midnightblue" points="169.376,-488.5 179.376,-485 169.376,-481.5 169.376,-488.5"/>
</g>
<!-- Node7 -->
<g id="node7" class="node"><title>Node7</title>
<g id="a_node7"><a xlink:href="libmorse_8cpp.html#acd4b292f5e412ee4f05aed9dafbc072d" target="_top" xlink:title="Convert an ASCII character into Morse code and transmit it. ">
<polygon fill="white" stroke="black" points="181.5,-304.5 181.5,-323.5 231.5,-323.5 231.5,-304.5 181.5,-304.5"/>
<text text-anchor="middle" x="206.5" y="-311.5" font-family="Helvetica,sans-Serif" font-size="10.00">txLetter</text>
</a>
</g>
</g>
<!-- Node2&#45;&gt;Node7 -->
<g id="edge6" class="edge"><title>Node2&#45;&gt;Node7</title>
<path fill="none" stroke="midnightblue" d="M120.597,-475.316C135.076,-447.805 176.64,-368.834 195.716,-332.589"/>
<polygon fill="midnightblue" stroke="midnightblue" points="198.899,-334.057 200.459,-323.577 192.705,-330.797 198.899,-334.057"/>
</g>
<!-- Node17 -->
<g id="node17" class="node"><title>Node17</title>
<g id="a_node17"><a xlink:href="libmorse_8cpp.html#ab94e088615119d1faae7df22ce50aedf" target="_top" xlink:title="Transmit a Morse code prosign indicating an error. ">
<polygon fill="white" stroke="black" points="435.5,-228.5 435.5,-247.5 481.5,-247.5 481.5,-228.5 435.5,-228.5"/>
<text text-anchor="middle" x="458.5" y="-235.5" font-family="Helvetica,sans-Serif" font-size="10.00">txError</text>
</a>
</g>
</g>
<!-- Node2&#45;&gt;Node17 -->
<g id="edge43" class="edge"><title>Node2&#45;&gt;Node17</title>
<path fill="none" stroke="midnightblue" d="M116.501,-475.272C120.009,-445.397 134.073,-353.464 179,-295 208.518,-256.587 223.599,-248.92 270,-235 314.273,-221.718 327.785,-234.17 374,-235 390.851,-235.303 409.606,-235.949 425.066,-236.564"/>
<polygon fill="midnightblue" stroke="midnightblue" points="425.043,-240.066 435.178,-236.98 425.331,-233.072 425.043,-240.066"/>
</g>
<!-- Node30 -->
<g id="node30" class="node"><title>Node30</title>
<g id="a_node30"><a xlink:href="morse__token_8h.html#af9722722b93869c9f37ef10573b31655" target="_top" xlink:title="wordBits">
<polygon fill="white" stroke="black" points="179,-589.5 179,-608.5 234,-608.5 234,-589.5 179,-589.5"/>
<text text-anchor="middle" x="206.5" y="-596.5" font-family="Helvetica,sans-Serif" font-size="10.00">wordBits</text>
</a>
</g>
</g>
<!-- Node2&#45;&gt;Node30 -->
<g id="edge42" class="edge"><title>Node2&#45;&gt;Node30</title>
<path fill="none" stroke="midnightblue" d="M121.349,-494.707C131.848,-511.78 155.042,-547.94 179,-575 181.263,-577.556 183.777,-580.122 186.329,-582.575"/>
<polygon fill="midnightblue" stroke="midnightblue" points="184.144,-585.319 193.89,-589.474 188.862,-580.148 184.144,-585.319"/>
</g>
<!-- Node31 -->
<g id="node31" class="node"><title>Node31</title>
<g id="a_node31"><a xlink:href="libmorse_8cpp.html#a2ec9b75e50f41e98e97ff42e6fa9ca54" target="_top" xlink:title="Has it been long enough that the word under construction should be considered complete? ">
<polygon fill="white" stroke="black" points="286.5,-589.5 286.5,-608.5 357.5,-608.5 357.5,-589.5 286.5,-589.5"/>
<text text-anchor="middle" x="322" y="-596.5" font-family="Helvetica,sans-Serif" font-size="10.00">wordExpired</text>
</a>
</g>
</g>
<!-- Node2&#45;&gt;Node31 -->
<g id="edge44" class="edge"><title>Node2&#45;&gt;Node31</title>
<path fill="none" stroke="midnightblue" d="M124.164,-494.56C135.705,-506.846 157.209,-528.23 179,-542 216.052,-565.413 229.234,-563.902 270,-580 274.873,-581.924 280.028,-583.907 285.115,-585.831"/>
<polygon fill="midnightblue" stroke="midnightblue" points="284.126,-589.199 294.718,-589.431 286.583,-582.644 284.126,-589.199"/>
</g>
<!-- Node32 -->
<g id="node32" class="node"><title>Node32</title>
<g id="a_node32"><a xlink:href="actions_8cpp.html#a40fea7a424d292e239a5e7a8271728ec" target="_top" xlink:title="txTick">
<polygon fill="white" stroke="black" points="184.5,-513.5 184.5,-532.5 228.5,-532.5 228.5,-513.5 184.5,-513.5"/>
<text text-anchor="middle" x="206.5" y="-520.5" font-family="Helvetica,sans-Serif" font-size="10.00">txTick</text>
</a>
</g>
</g>
<!-- Node2&#45;&gt;Node32 -->
<g id="edge46" class="edge"><title>Node2&#45;&gt;Node32</title>
<path fill="none" stroke="midnightblue" d="M138.211,-494.589C149.387,-499.308 163.018,-505.063 175.081,-510.156"/>
<polygon fill="midnightblue" stroke="midnightblue" points="173.768,-513.401 184.342,-514.067 176.491,-506.953 173.768,-513.401"/>
</g>
<!-- Node4 -->
<g id="node4" class="node"><title>Node4</title>
<g id="a_node4"><a xlink:href="teensy3__morse__bsp_8cpp.html#af6899cd9b83df54106b259ab81ea5cb2" target="_top" xlink:title="touchMargin">
<polygon fill="white" stroke="black" points="1155,-304.5 1155,-323.5 1225,-323.5 1225,-304.5 1155,-304.5"/>
<text text-anchor="middle" x="1190" y="-311.5" font-family="Helvetica,sans-Serif" font-size="10.00">touchMargin</text>
</a>
</g>
</g>
<!-- Node3&#45;&gt;Node4 -->
<g id="edge3" class="edge"><title>Node3&#45;&gt;Node4</title>
<path fill="none" stroke="midnightblue" d="M1089.17,-314C1105.28,-314 1125.98,-314 1144.35,-314"/>
<polygon fill="midnightblue" stroke="midnightblue" points="1144.56,-317.5 1154.56,-314 1144.56,-310.5 1144.56,-317.5"/>
</g>
<!-- Node8 -->
<g id="node8" class="node"><title>Node8</title>
<g id="a_node8"><a xlink:href="libmorse_8cpp.html#a9fdfce728595d72b78dc7c834ab99a40" target="_top" xlink:title="Transmit a literal Morse code value. ">
<polygon fill="white" stroke="black" points="296.5,-380.5 296.5,-399.5 347.5,-399.5 347.5,-380.5 296.5,-380.5"/>
<text text-anchor="middle" x="322" y="-387.5" font-family="Helvetica,sans-Serif" font-size="10.00">txLiteral</text>
</a>
</g>
</g>
<!-- Node7&#45;&gt;Node8 -->
<g id="edge7" class="edge"><title>Node7&#45;&gt;Node8</title>
<path fill="none" stroke="midnightblue" d="M221.875,-323.625C241.149,-336.531 275.573,-359.582 298.35,-374.833"/>
<polygon fill="midnightblue" stroke="midnightblue" points="296.485,-377.797 306.742,-380.453 300.38,-371.981 296.485,-377.797"/>
</g>
<!-- Node7&#45;&gt;Node17 -->
<g id="edge41" class="edge"><title>Node7&#45;&gt;Node17</title>
<path fill="none" stroke="midnightblue" d="M215.698,-304.43C226.701,-292.304 247.481,-271.804 270,-262 321.019,-239.787 386.709,-236.471 425.254,-236.763"/>
<polygon fill="midnightblue" stroke="midnightblue" points="425.315,-240.265 435.371,-236.929 425.43,-233.266 425.315,-240.265"/>
</g>
<!-- Node8&#45;&gt;Node5 -->
<g id="edge15" class="edge"><title>Node8&#45;&gt;Node5</title>
<path fill="none" stroke="midnightblue" d="M336.415,-399.731C347.225,-407.928 362.469,-420.318 374,-433 392.91,-453.797 388.018,-467.481 410,-485 413.614,-487.88 417.721,-490.374 421.972,-492.521"/>
<polygon fill="midnightblue" stroke="midnightblue" points="420.809,-495.833 431.37,-496.678 423.641,-489.432 420.809,-495.833"/>
</g>
<!-- Node9 -->
<g id="node9" class="node"><title>Node9</title>
<g id="a_node9"><a xlink:href="class_morse_token.html#a48cd72aeb868391449d1f51c1d0bf5cc" target="_top" xlink:title="Treat code == 0 as the error token. ">
<polygon fill="white" stroke="black" points="410,-380.5 410,-399.5 507,-399.5 507,-380.5 410,-380.5"/>
<text text-anchor="middle" x="458.5" y="-387.5" font-family="Helvetica,sans-Serif" font-size="10.00">MorseToken::valid</text>
</a>
</g>
</g>
<!-- Node8&#45;&gt;Node9 -->
<g id="edge8" class="edge"><title>Node8&#45;&gt;Node9</title>
<path fill="none" stroke="midnightblue" d="M347.669,-390C362.323,-390 381.558,-390 399.83,-390"/>
<polygon fill="midnightblue" stroke="midnightblue" points="399.847,-393.5 409.847,-390 399.847,-386.5 399.847,-393.5"/>
</g>
<!-- Node10 -->
<g id="node10" class="node"><title>Node10</title>
<g id="a_node10"><a xlink:href="teensy3__morse__bsp_8cpp.html#af66e71e3fac9b6a2c6532bc8a513bfde" target="_top" xlink:title="Output a square wave on pin 10 at the given frequency for the given duration. ">
<polygon fill="white" stroke="black" points="439.5,-456.5 439.5,-475.5 477.5,-475.5 477.5,-456.5 439.5,-456.5"/>
<text text-anchor="middle" x="458.5" y="-463.5" font-family="Helvetica,sans-Serif" font-size="10.00">beep</text>
</a>
</g>
</g>
<!-- Node8&#45;&gt;Node10 -->
<g id="edge9" class="edge"><title>Node8&#45;&gt;Node10</title>
<path fill="none" stroke="midnightblue" d="M338.21,-399.538C355.427,-410.23 384.412,-427.912 410,-442 416.417,-445.533 423.415,-449.179 430.019,-452.53"/>
<polygon fill="midnightblue" stroke="midnightblue" points="428.79,-455.83 439.298,-457.181 431.926,-449.571 428.79,-455.83"/>
</g>
<!-- Node8&#45;&gt;Node16 -->
<g id="edge16" class="edge"><title>Node8&#45;&gt;Node16</title>
<path fill="none" stroke="midnightblue" d="M347.673,-395.788C365.047,-399.766 388.881,-405.025 410,-409 516.132,-428.974 548.592,-409.861 650,-447 677.26,-456.984 705.312,-475.227 723.59,-488.39"/>
<polygon fill="midnightblue" stroke="midnightblue" points="721.604,-491.274 731.732,-494.385 725.755,-485.637 721.604,-491.274"/>
</g>
<!-- Node8&#45;&gt;Node17 -->
<g id="edge17" class="edge"><title>Node8&#45;&gt;Node17</title>
<path fill="none" stroke="midnightblue" d="M331.414,-380.492C353.587,-355.434 413.862,-287.316 442.283,-255.196"/>
<polygon fill="midnightblue" stroke="midnightblue" points="445.084,-257.313 449.09,-247.505 439.842,-252.674 445.084,-257.313"/>
</g>
<!-- Node11 -->
<g id="node11" class="node"><title>Node11</title>
<g id="a_node11"><a xlink:href="teensy3__morse__bsp_8cpp.html#a6f674d5b9985ea3a7eeb0df299c2e405" target="_top" xlink:title="pollEarphonePresent">
<polygon fill="white" stroke="black" points="543,-456.5 543,-475.5 650,-475.5 650,-456.5 543,-456.5"/>
<text text-anchor="middle" x="596.5" y="-463.5" font-family="Helvetica,sans-Serif" font-size="10.00">pollEarphonePresent</text>
</a>
</g>
</g>
<!-- Node10&#45;&gt;Node11 -->
<g id="edge10" class="edge"><title>Node10&#45;&gt;Node11</title>
<path fill="none" stroke="midnightblue" d="M477.56,-466C491.777,-466 512.484,-466 532.594,-466"/>
<polygon fill="midnightblue" stroke="midnightblue" points="532.701,-469.5 542.701,-466 532.701,-462.5 532.701,-469.5"/>
</g>
<!-- Node12 -->
<g id="node12" class="node"><title>Node12</title>
<g id="a_node12"><a xlink:href="teensy3__morse__bsp_8cpp.html#a2d6b4ace33ed5e497dedd03217540c63" target="_top" xlink:title="Set the PWM frequency for the audio output pins. ">
<polygon fill="white" stroke="black" points="555,-532.5 555,-551.5 638,-551.5 638,-532.5 555,-532.5"/>
<text text-anchor="middle" x="596.5" y="-539.5" font-family="Helvetica,sans-Serif" font-size="10.00">pwmFrequency</text>
</a>
</g>
</g>
<!-- Node10&#45;&gt;Node12 -->
<g id="edge11" class="edge"><title>Node10&#45;&gt;Node12</title>
<path fill="none" stroke="midnightblue" d="M477.55,-471.164C486.827,-474.313 498.035,-478.913 507,-485 526.247,-498.068 523.538,-510.254 543,-523 545.969,-524.944 549.162,-526.721 552.455,-528.338"/>
<polygon fill="midnightblue" stroke="midnightblue" points="551.331,-531.667 561.895,-532.481 554.144,-525.257 551.331,-531.667"/>
</g>
<!-- Node13 -->
<g id="node13" class="node"><title>Node13</title>
<g id="a_node13"><a xlink:href="teensy3__morse__bsp_8cpp.html#a82911eac3bf13d6f36d10102a4c4d3c4" target="_top" xlink:title="Generate a tone on the audio output pins. ">
<polygon fill="white" stroke="black" points="566,-589.5 566,-608.5 627,-608.5 627,-589.5 566,-589.5"/>
<text text-anchor="middle" x="596.5" y="-596.5" font-family="Helvetica,sans-Serif" font-size="10.00">pwmWrite</text>
</a>
</g>
</g>
<!-- Node10&#45;&gt;Node13 -->
<g id="edge12" class="edge"><title>Node10&#45;&gt;Node13</title>
<path fill="none" stroke="midnightblue" d="M477.962,-469.929C487.58,-472.763 498.975,-477.457 507,-485 534.233,-510.599 519.113,-532.253 543,-561 550.302,-569.788 560.072,-577.583 569.203,-583.79"/>
<polygon fill="midnightblue" stroke="midnightblue" points="567.357,-586.765 577.66,-589.236 571.147,-580.879 567.357,-586.765"/>
</g>
<!-- Node15 -->
<g id="node15" class="node"><title>Node15</title>
<g id="a_node15"><a xlink:href="teensy3__morse__bsp_8cpp.html#a6c982a7d7805f1dd5426eb98c915cfdd" target="_top" xlink:title="Turn the red LED on (1) or off (0). ">
<polygon fill="white" stroke="black" points="571.5,-494.5 571.5,-513.5 621.5,-513.5 621.5,-494.5 571.5,-494.5"/>
<text text-anchor="middle" x="596.5" y="-501.5" font-family="Helvetica,sans-Serif" font-size="10.00">redLED</text>
</a>
</g>
</g>
<!-- Node10&#45;&gt;Node15 -->
<g id="edge14" class="edge"><title>Node10&#45;&gt;Node15</title>
<path fill="none" stroke="midnightblue" d="M477.56,-471.046C498.959,-477.025 535.064,-487.114 561.702,-494.557"/>
<polygon fill="midnightblue" stroke="midnightblue" points="560.825,-497.945 571.398,-497.266 562.708,-491.204 560.825,-497.945"/>
</g>
<!-- Node14 -->
<g id="node14" class="node"><title>Node14</title>
<g id="a_node14"><a xlink:href="teensy3__morse__bsp_8cpp.html#ac70998cee1bf97f00aec4a1b4e5a4f60" target="_top" xlink:title="isEarphonePresent">
<polygon fill="white" stroke="black" points="695.5,-589.5 695.5,-608.5 794.5,-608.5 794.5,-589.5 695.5,-589.5"/>
<text text-anchor="middle" x="745" y="-596.5" font-family="Helvetica,sans-Serif" font-size="10.00">isEarphonePresent</text>
</a>
</g>
</g>
<!-- Node13&#45;&gt;Node14 -->
<g id="edge13" class="edge"><title>Node13&#45;&gt;Node14</title>
<path fill="none" stroke="midnightblue" d="M627.146,-599C643.807,-599 665.199,-599 685.116,-599"/>
<polygon fill="midnightblue" stroke="midnightblue" points="685.364,-602.5 695.364,-599 685.364,-595.5 685.364,-602.5"/>
</g>
<!-- Node17&#45;&gt;Node18 -->
<g id="edge18" class="edge"><title>Node17&#45;&gt;Node18</title>
<path fill="none" stroke="midnightblue" d="M481.653,-239.466C503.124,-240.887 536.008,-243.063 560.923,-244.712"/>
<polygon fill="midnightblue" stroke="midnightblue" points="560.848,-248.214 571.057,-245.382 561.31,-241.23 560.848,-248.214"/>
</g>
<!-- Node18&#45;&gt;Node3 -->
<g id="edge19" class="edge"><title>Node18&#45;&gt;Node3</title>
<path fill="none" stroke="midnightblue" d="M610.502,-256.607C627.093,-268.313 657.113,-287.68 686,-297 803.569,-334.934 952.759,-325.861 1021.57,-318.708"/>
<polygon fill="midnightblue" stroke="midnightblue" points="1022.35,-322.145 1031.91,-317.584 1021.59,-315.186 1022.35,-322.145"/>
</g>
<!-- Node18&#45;&gt;Node7 -->
<g id="edge22" class="edge"><title>Node18&#45;&gt;Node7</title>
<path fill="none" stroke="midnightblue" d="M571.322,-250.438C517.18,-258.247 382.148,-278.329 270,-300 260.798,-301.778 250.881,-303.903 241.717,-305.953"/>
<polygon fill="midnightblue" stroke="midnightblue" points="240.745,-302.585 231.769,-308.214 242.296,-309.411 240.745,-302.585"/>
</g>
<!-- Node18&#45;&gt;Node8 -->
<g id="edge21" class="edge"><title>Node18&#45;&gt;Node8</title>
<path fill="none" stroke="midnightblue" d="M577.277,-256.563C530.438,-281.143 405.644,-346.631 350.2,-375.726"/>
<polygon fill="midnightblue" stroke="midnightblue" points="348.531,-372.649 341.303,-380.395 351.784,-378.848 348.531,-372.649"/>
</g>
<!-- Node18&#45;&gt;Node16 -->
<g id="edge20" class="edge"><title>Node18&#45;&gt;Node16</title>
<path fill="none" stroke="midnightblue" d="M603.064,-256.761C624.82,-294.926 704.353,-434.448 733.339,-485.298"/>
<polygon fill="midnightblue" stroke="midnightblue" points="730.437,-487.275 738.43,-494.229 736.519,-483.808 730.437,-487.275"/>
</g>
<!-- Node19 -->
<g id="node19" class="node"><title>Node19</title>
<g id="a_node19"><a xlink:href="teensy3__morse__bsp_8cpp.html#a8761e874366e227690fba2964e1bc445" target="_top" xlink:title="getInternalTemperatureC">
<polygon fill="white" stroke="black" points="840.5,-190.5 840.5,-209.5 965.5,-209.5 965.5,-190.5 840.5,-190.5"/>
<text text-anchor="middle" x="903" y="-197.5" font-family="Helvetica,sans-Serif" font-size="10.00">getInternalTemperatureC</text>
</a>
</g>
</g>
<!-- Node18&#45;&gt;Node19 -->
<g id="edge23" class="edge"><title>Node18&#45;&gt;Node19</title>
<path fill="none" stroke="midnightblue" d="M610.454,-237.476C626.995,-225.962 656.964,-207.232 686,-200 732.994,-188.295 787.545,-188.4 830.068,-191.378"/>
<polygon fill="midnightblue" stroke="midnightblue" points="829.814,-194.869 840.053,-192.145 830.351,-187.889 829.814,-194.869"/>
</g>
<!-- Node20 -->
<g id="node20" class="node"><title>Node20</title>
<g id="a_node20"><a xlink:href="libmorse_8cpp.html#a47abdd74b66d7180c47d192bab8bdccb" target="_top" xlink:title="Transmit an unsigned integer in Morse code. ">
<polygon fill="white" stroke="black" points="870,-285.5 870,-304.5 936,-304.5 936,-285.5 870,-285.5"/>
<text text-anchor="middle" x="903" y="-292.5" font-family="Helvetica,sans-Serif" font-size="10.00">txUnsigned</text>
</a>
</g>
</g>
<!-- Node18&#45;&gt;Node20 -->
<g id="edge24" class="edge"><title>Node18&#45;&gt;Node20</title>
<path fill="none" stroke="midnightblue" d="M621.512,-256.527C639.088,-263.089 663.667,-271.422 686,-276 745.576,-288.213 815.977,-292.578 859.817,-294.137"/>
<polygon fill="midnightblue" stroke="midnightblue" points="859.722,-297.635 869.829,-294.46 859.948,-290.639 859.722,-297.635"/>
</g>
<!-- Node21 -->
<g id="node21" class="node"><title>Node21</title>
<g id="a_node21"><a xlink:href="actions_8cpp.html#aed718ec1bd4cc7adb2f65d40a6784496" target="_top" xlink:title="Transmit the internal temperature in integer in Fahrenheit. ">
<polygon fill="white" stroke="black" points="686,-209.5 686,-228.5 804,-228.5 804,-209.5 686,-209.5"/>
<text text-anchor="middle" x="745" y="-216.5" font-family="Helvetica,sans-Serif" font-size="10.00">txInternalTemperatureF</text>
</a>
</g>
</g>
<!-- Node18&#45;&gt;Node21 -->
<g id="edge27" class="edge"><title>Node18&#45;&gt;Node21</title>
<path fill="none" stroke="midnightblue" d="M621.691,-242.376C638.747,-239.117 662.369,-234.602 684.309,-230.408"/>
<polygon fill="midnightblue" stroke="midnightblue" points="685.077,-233.825 694.242,-228.51 683.763,-226.95 685.077,-233.825"/>
</g>
<!-- Node22 -->
<g id="node22" class="node"><title>Node22</title>
<g id="a_node22"><a xlink:href="actions_8cpp.html#aaabb3ac0c23f35a499bc17efe829f326" target="_top" xlink:title="Transmit the 24&#45;hr time. ">
<polygon fill="white" stroke="black" points="706,-133.5 706,-152.5 784,-152.5 784,-133.5 706,-133.5"/>
<text text-anchor="middle" x="745" y="-140.5" font-family="Helvetica,sans-Serif" font-size="10.00">txTimeHHMM</text>
</a>
</g>
</g>
<!-- Node18&#45;&gt;Node22 -->
<g id="edge30" class="edge"><title>Node18&#45;&gt;Node22</title>
<path fill="none" stroke="midnightblue" d="M602.182,-237.335C614.606,-218.706 649.934,-180.796 686,-158 689.375,-155.867 692.972,-153.852 696.659,-151.993"/>
<polygon fill="midnightblue" stroke="midnightblue" points="698.32,-155.081 705.931,-147.711 695.385,-148.726 698.32,-155.081"/>
</g>
<!-- Node23 -->
<g id="node23" class="node"><title>Node23</title>
<g id="a_node23"><a xlink:href="actions_8cpp.html#ad02149679fa3cc6a4957d1a318408ffd" target="_top" xlink:title="Transmit the uptime. ">
<polygon fill="white" stroke="black" points="717,-247.5 717,-266.5 773,-266.5 773,-247.5 717,-247.5"/>
<text text-anchor="middle" x="745" y="-254.5" font-family="Helvetica,sans-Serif" font-size="10.00">txUptime</text>
</a>
</g>
</g>
<!-- Node18&#45;&gt;Node23 -->
<g id="edge32" class="edge"><title>Node18&#45;&gt;Node23</title>
<path fill="none" stroke="midnightblue" d="M621.691,-248.651C644.794,-250.228 679.945,-252.628 706.645,-254.45"/>
<polygon fill="midnightblue" stroke="midnightblue" points="706.567,-257.953 716.782,-255.142 707.044,-250.969 706.567,-257.953"/>
</g>
<!-- Node25 -->
<g id="node25" class="node"><title>Node25</title>
<g id="a_node25"><a xlink:href="teensy3__morse__bsp_8cpp.html#ae8dd28759e56dbd2ee9bc9ae96d1783c" target="_top" xlink:title="Return the most recent ADC measurement of the input voltage. Perform analog to digital conversion on ...">
<polygon fill="white" stroke="black" points="708,-95.5 708,-114.5 782,-114.5 782,-95.5 708,-95.5"/>
<text text-anchor="middle" x="745" y="-102.5" font-family="Helvetica,sans-Serif" font-size="10.00">readMillivolts</text>
</a>
</g>
</g>
<!-- Node18&#45;&gt;Node25 -->
<g id="edge35" class="edge"><title>Node18&#45;&gt;Node25</title>
<path fill="none" stroke="midnightblue" d="M601.768,-237.423C612.508,-214.402 642.906,-155.542 686,-124 689.858,-121.176 694.159,-118.757 698.625,-116.688"/>
<polygon fill="midnightblue" stroke="midnightblue" points="699.984,-119.915 707.938,-112.916 697.356,-113.426 699.984,-119.915"/>
</g>
<!-- Node29 -->
<g id="node29" class="node"><title>Node29</title>
<g id="a_node29"><a xlink:href="libmorse_8cpp.html#ac3f000c98271c6d0a7710135e18189bc" target="_top" xlink:title="On my hardware there is cross&#45;coupling between the serial port and the touch sensors. Without the code below, long messages to the serial port trigger a touch input. ">
<polygon fill="white" stroke="black" points="870.5,-361.5 870.5,-380.5 935.5,-380.5 935.5,-361.5 870.5,-361.5"/>
<text text-anchor="middle" x="903" y="-368.5" font-family="Helvetica,sans-Serif" font-size="10.00">flushTouch</text>
</a>
</g>
</g>
<!-- Node18&#45;&gt;Node29 -->
<g id="edge39" class="edge"><title>Node18&#45;&gt;Node29</title>
<path fill="none" stroke="midnightblue" d="M602.618,-256.506C614.285,-277.114 645.046,-325.757 686,-347 741.154,-375.608 814.728,-377.342 860.202,-374.939"/>
<polygon fill="midnightblue" stroke="midnightblue" points="860.531,-378.425 870.295,-374.313 860.098,-371.439 860.531,-378.425"/>
</g>
<!-- Node20&#45;&gt;Node3 -->
<g id="edge25" class="edge"><title>Node20&#45;&gt;Node3</title>
<path fill="none" stroke="midnightblue" d="M936.22,-298.937C961.193,-301.988 995.844,-306.222 1022.05,-309.424"/>
<polygon fill="midnightblue" stroke="midnightblue" points="1021.65,-312.901 1032,-310.64 1022.5,-305.953 1021.65,-312.901"/>
</g>
<!-- Node20&#45;&gt;Node7 -->
<g id="edge26" class="edge"><title>Node20&#45;&gt;Node7</title>
<path fill="none" stroke="midnightblue" d="M869.825,-295.88C754.261,-299.042 360.733,-309.808 241.812,-313.061"/>
<polygon fill="midnightblue" stroke="midnightblue" points="241.711,-309.563 231.81,-313.335 241.902,-316.56 241.711,-309.563"/>
</g>
<!-- Node21&#45;&gt;Node19 -->
<g id="edge28" class="edge"><title>Node21&#45;&gt;Node19</title>
<path fill="none" stroke="midnightblue" d="M804.089,-211.925C812.711,-210.875 821.682,-209.782 830.54,-208.704"/>
<polygon fill="midnightblue" stroke="midnightblue" points="830.964,-212.178 840.467,-207.494 830.117,-205.229 830.964,-212.178"/>
</g>
<!-- Node21&#45;&gt;Node20 -->
<g id="edge29" class="edge"><title>Node21&#45;&gt;Node20</title>
<path fill="none" stroke="midnightblue" d="M784.353,-228.566C791.171,-231.091 798.002,-234.202 804,-238 823.655,-250.446 820.226,-263.743 840,-276 846.043,-279.746 852.878,-282.8 859.747,-285.276"/>
<polygon fill="midnightblue" stroke="midnightblue" points="859.153,-288.762 869.745,-288.502 861.303,-282.1 859.153,-288.762"/>
</g>
<!-- Node22&#45;&gt;Node18 -->
<g id="edge31" class="edge"><title>Node22&#45;&gt;Node18</title>
<path fill="none" stroke="midnightblue" d="M733.637,-152.547C721.618,-158.939 701.476,-166.218 686,-176 661.175,-191.691 636.699,-214.544 619.802,-230.281"/>
<polygon fill="midnightblue" stroke="midnightblue" points="617.104,-228.009 612.147,-237.372 621.862,-233.144 617.104,-228.009"/>
</g>
<!-- Node23&#45;&gt;Node20 -->
<g id="edge34" class="edge"><title>Node23&#45;&gt;Node20</title>
<path fill="none" stroke="midnightblue" d="M773.173,-263.619C797.119,-269.452 832.386,-278.043 859.968,-284.762"/>
<polygon fill="midnightblue" stroke="midnightblue" points="859.203,-288.177 869.748,-287.144 860.86,-281.376 859.203,-288.177"/>
</g>
<!-- Node24 -->
<g id="node24" class="node"><title>Node24</title>
<g id="a_node24"><a xlink:href="settings_8cpp.html#a7b4efa097b94f9a90c5bbafcdf93fe4f" target="_top" xlink:title="getUptime">
<polygon fill="white" stroke="black" points="872,-247.5 872,-266.5 934,-266.5 934,-247.5 872,-247.5"/>
<text text-anchor="middle" x="903" y="-254.5" font-family="Helvetica,sans-Serif" font-size="10.00">getUptime</text>
</a>
</g>
</g>
<!-- Node23&#45;&gt;Node24 -->
<g id="edge33" class="edge"><title>Node23&#45;&gt;Node24</title>
<path fill="none" stroke="midnightblue" d="M773.173,-257C797.633,-257 833.905,-257 861.735,-257"/>
<polygon fill="midnightblue" stroke="midnightblue" points="861.945,-260.5 871.945,-257 861.945,-253.5 861.945,-260.5"/>
</g>
<!-- Node26 -->
<g id="node26" class="node"><title>Node26</title>
<g id="a_node26"><a xlink:href="class_voltage_monitor.html#a70902b84f9864c95d5553a0644a64f4f" target="_top" xlink:title="Return the latest voltage reading. ">
<polygon fill="white" stroke="black" points="840,-19.5 840,-38.5 966,-38.5 966,-19.5 840,-19.5"/>
<text text-anchor="middle" x="903" y="-26.5" font-family="Helvetica,sans-Serif" font-size="10.00">VoltageMonitor::getValue</text>
</a>
</g>
</g>
<!-- Node25&#45;&gt;Node26 -->
<g id="edge36" class="edge"><title>Node25&#45;&gt;Node26</title>
<path fill="none" stroke="midnightblue" d="M765.758,-95.3745C792.952,-82.1261 842.09,-58.187 873.327,-42.9687"/>
<polygon fill="midnightblue" stroke="midnightblue" points="874.946,-46.0735 882.403,-38.5473 871.88,-39.7806 874.946,-46.0735"/>
</g>
<!-- Node27 -->
<g id="node27" class="node"><title>Node27</title>
<g id="a_node27"><a xlink:href="actions_8cpp.html#a2b8c3769e2aa32a2da9e2f3f85ac73dd" target="_top" xlink:title="A sample ADC reading is taken each time through the main loop, and written to a ring buffer...">
<polygon fill="white" stroke="black" points="1004.5,-0.5 1004.5,-19.5 1116.5,-19.5 1116.5,-0.5 1004.5,-0.5"/>
<text text-anchor="middle" x="1060.5" y="-7.5" font-family="Helvetica,sans-Serif" font-size="10.00">getVoltagePollInterval</text>
</a>
</g>
</g>
<!-- Node26&#45;&gt;Node27 -->
<g id="edge37" class="edge"><title>Node26&#45;&gt;Node27</title>
<path fill="none" stroke="midnightblue" d="M966.352,-21.3815C975.438,-20.2713 984.816,-19.1254 993.963,-18.0078"/>
<polygon fill="midnightblue" stroke="midnightblue" points="994.662,-21.4485 1004.16,-16.7614 993.813,-14.5002 994.662,-21.4485"/>
</g>
<!-- Node28 -->
<g id="node28" class="node"><title>Node28</title>
<g id="a_node28"><a xlink:href="class_voltage_monitor.html#a75871331808c34b40d04059ee2af0f27" target="_top" xlink:title="Filter and scale raw ADC values to millivolts. ">
<polygon fill="white" stroke="black" points="1002,-38.5 1002,-57.5 1119,-57.5 1119,-38.5 1002,-38.5"/>
<text text-anchor="middle" x="1060.5" y="-45.5" font-family="Helvetica,sans-Serif" font-size="10.00">VoltageMonitor::update</text>
</a>
</g>
</g>
<!-- Node26&#45;&gt;Node28 -->
<g id="edge38" class="edge"><title>Node26&#45;&gt;Node28</title>
<path fill="none" stroke="midnightblue" d="M966.352,-36.6185C974.702,-37.6388 983.298,-38.6892 991.735,-39.7201"/>
<polygon fill="midnightblue" stroke="midnightblue" points="991.57,-43.2258 1001.92,-40.9645 992.419,-36.2774 991.57,-43.2258"/>
</g>
<!-- Node29&#45;&gt;Node3 -->
<g id="edge40" class="edge"><title>Node29&#45;&gt;Node3</title>
<path fill="none" stroke="midnightblue" d="M930.027,-361.459C955.704,-352.047 995.155,-337.586 1023.76,-327.1"/>
<polygon fill="midnightblue" stroke="midnightblue" points="1025.2,-330.3 1033.39,-323.572 1022.79,-323.727 1025.2,-330.3"/>
</g>
<!-- Node31&#45;&gt;Node16 -->
<g id="edge45" class="edge"><title>Node31&#45;&gt;Node16</title>
<path fill="none" stroke="midnightblue" d="M349.192,-608.585C406.826,-628.012 547.645,-666.266 650,-618 661.034,-612.797 707.571,-552.383 730.757,-521.681"/>
<polygon fill="midnightblue" stroke="midnightblue" points="733.668,-523.634 736.884,-513.539 728.074,-519.424 733.668,-523.634"/>
</g>
<!-- Node33 -->
<g id="node33" class="node"><title>Node33</title>
<g id="a_node33"><a xlink:href="sound_8cpp.html#a77ffd11f8a990ba2130061186e49535a" target="_top" xlink:title="Play a PWM tone at a given frequency and duration. ">
<polygon fill="white" stroke="black" points="294,-551.5 294,-570.5 350,-570.5 350,-551.5 294,-551.5"/>
<text text-anchor="middle" x="322" y="-558.5" font-family="Helvetica,sans-Serif" font-size="10.00">playTone</text>
</a>
</g>
</g>
<!-- Node32&#45;&gt;Node33 -->
<g id="edge47" class="edge"><title>Node32&#45;&gt;Node33</title>
<path fill="none" stroke="midnightblue" d="M228.582,-530.058C244.124,-535.262 265.668,-542.475 284.045,-548.627"/>
<polygon fill="midnightblue" stroke="midnightblue" points="283,-551.968 293.594,-551.824 285.222,-545.331 283,-551.968"/>
</g>
<!-- Node35 -->
<g id="node35" class="node"><title>Node35</title>
<g id="a_node35"><a xlink:href="settings_8cpp.html#ad02597259b5753e0c98605bce44a9fc8" target="_top" xlink:title="Get the default dit duration in microseconds. ">
<polygon fill="white" stroke="black" points="270,-627.5 270,-646.5 374,-646.5 374,-627.5 270,-627.5"/>
<text text-anchor="middle" x="322" y="-634.5" font-family="Helvetica,sans-Serif" font-size="10.00">getDitMicrosDefault</text>
</a>
</g>
</g>
<!-- Node32&#45;&gt;Node35 -->
<g id="edge51" class="edge"><title>Node32&#45;&gt;Node35</title>
<path fill="none" stroke="midnightblue" d="M211.326,-532.525C219.388,-551.447 239.891,-594.011 270,-618 272.252,-619.794 274.69,-621.43 277.238,-622.92"/>
<polygon fill="midnightblue" stroke="midnightblue" points="275.71,-626.07 286.216,-627.444 278.86,-619.818 275.71,-626.07"/>
</g>
<!-- Node33&#45;&gt;Node12 -->
<g id="edge48" class="edge"><title>Node33&#45;&gt;Node12</title>
<path fill="none" stroke="midnightblue" d="M350.125,-559.109C395.462,-555.948 487.321,-549.543 544.885,-545.529"/>
<polygon fill="midnightblue" stroke="midnightblue" points="545.133,-549.02 554.865,-544.833 544.646,-542.037 545.133,-549.02"/>
</g>
<!-- Node33&#45;&gt;Node13 -->
<g id="edge49" class="edge"><title>Node33&#45;&gt;Node13</title>
<path fill="none" stroke="midnightblue" d="M350.26,-570.417C358.014,-573.294 366.412,-576.601 374,-580 390.511,-587.396 392.439,-594.65 410,-599 459.004,-611.138 517.55,-608.411 555.577,-604.472"/>
<polygon fill="midnightblue" stroke="midnightblue" points="556.183,-607.926 565.734,-603.34 555.408,-600.969 556.183,-607.926"/>
</g>
<!-- Node34 -->
<g id="node34" class="node"><title>Node34</title>
<g id="a_node34"><a xlink:href="teensy3__morse__bsp_8cpp.html#a36cda3a6dd77f2141cfc703c55a47ff8" target="_top" xlink:title="getDuty">
<polygon fill="white" stroke="black" points="433,-570.5 433,-589.5 484,-589.5 484,-570.5 433,-570.5"/>
<text text-anchor="middle" x="458.5" y="-577.5" font-family="Helvetica,sans-Serif" font-size="10.00">getDuty</text>
</a>
</g>
</g>
<!-- Node33&#45;&gt;Node34 -->
<g id="edge50" class="edge"><title>Node33&#45;&gt;Node34</title>
<path fill="none" stroke="midnightblue" d="M350.218,-564.845C371.026,-567.784 399.872,-571.859 422.413,-575.043"/>
<polygon fill="midnightblue" stroke="midnightblue" points="422.199,-578.548 432.59,-576.481 423.178,-571.617 422.199,-578.548"/>
</g>
<!-- Node36&#45;&gt;Node33 -->
<g id="edge54" class="edge"><title>Node36&#45;&gt;Node33</title>
<path fill="none" stroke="midnightblue" d="M221.908,-627.422C225.941,-624.543 230.246,-621.274 234,-618 251.533,-602.708 250.598,-592.837 270,-580 274.418,-577.077 279.346,-574.523 284.35,-572.317"/>
<polygon fill="midnightblue" stroke="midnightblue" points="285.954,-575.446 293.952,-568.496 283.366,-568.942 285.954,-575.446"/>
</g>
<!-- Node36&#45;&gt;Node35 -->
<g id="edge55" class="edge"><title>Node36&#45;&gt;Node35</title>
<path fill="none" stroke="midnightblue" d="M230.196,-637C238.824,-637 249.119,-637 259.626,-637"/>
<polygon fill="midnightblue" stroke="midnightblue" points="259.719,-640.5 269.719,-637 259.719,-633.5 259.719,-640.5"/>
</g>
</g>
</svg>
        <g id="navigator" transform="translate(0 0)" fill="#404254">
                <rect fill="#f2f5e9" fill-opacity="0.5" stroke="#606060" stroke-width=".5" x="0" y="0" width="60" height="60"/>
                <use id="zoomplus" xlink:href="#zoomPlus" x="17" y="9" onmousedown="handleZoom(evt,'in')"/>
                <use id="zoomminus" xlink:href="#zoomMin" x="42" y="9" onmousedown="handleZoom(evt,'out')"/>
                <use id="reset" xlink:href="#resetDef" x="30" y="36" onmousedown="handleReset()"/>
                <g id="arrowUp" xlink:href="#dirArrow" transform="translate(30 24)" onmousedown="handlePan(0,-1)">
                  <use xlink:href="#rim" fill="#404040">
                        <set attributeName="fill" to="#808080" begin="arrowUp.mouseover" end="arrowUp.mouseout"/>
                  </use>
                  <path fill="none" stroke="white" stroke-width="1.5" d="M0,-3.0v7 M-2.5,-0.5L0,-3.0L2.5,-0.5"/>
                </g>
                <g id="arrowRight" xlink:href="#dirArrow" transform="rotate(90) translate(36 -43)" onmousedown="handlePan(1,0)">
                  <use xlink:href="#rim" fill="#404040">
                        <set attributeName="fill" to="#808080" begin="arrowRight.mouseover" end="arrowRight.mouseout"/>
                  </use>
                  <path fill="none" stroke="white" stroke-width="1.5" d="M0,-3.0v7 M-2.5,-0.5L0,-3.0L2.5,-0.5"/>
                </g>
                <g id="arrowDown" xlink:href="#dirArrow" transform="rotate(180) translate(-30 -48)" onmousedown="handlePan(0,1)">
                  <use xlink:href="#rim" fill="#404040">
                        <set attributeName="fill" to="#808080" begin="arrowDown.mouseover" end="arrowDown.mouseout"/>
                  </use>
                  <path fill="none" stroke="white" stroke-width="1.5" d="M0,-3.0v7 M-2.5,-0.5L0,-3.0L2.5,-0.5"/>
                </g>
                <g id="arrowLeft" xlink:href="#dirArrow" transform="rotate(270) translate(-36 17)" onmousedown="handlePan(-1,0)">
                  <use xlink:href="#rim" fill="#404040">
                        <set attributeName="fill" to="#808080" begin="arrowLeft.mouseover" end="arrowLeft.mouseout"/>
                  </use>
                  <path fill="none" stroke="white" stroke-width="1.5" d="M0,-3.0v7 M-2.5,-0.5L0,-3.0L2.5,-0.5"/>
                </g>
        </g>
        <svg viewBox="0 0 15 15" width="100%" height="30px" preserveAspectRatio="xMaxYMin meet">
         <g id="arrow_out" transform="scale(0.3 0.3)">
          <a xlink:href="libmorse_8cpp_a25fad1f4d176afaa89839cc897891e78_cgraph_org.svg" target="_base">
           <rect id="button" ry="5" rx="5" y="6" x="6" height="38" width="38"
                fill="#f2f5e9" fill-opacity="0.5" stroke="#606060" stroke-width="1.0"/>
           <path id="arrow"
             d="M 11.500037,31.436501 C 11.940474,20.09759 22.043105,11.32322 32.158766,21.979434 L 37.068811,17.246167 C 37.068811,17.246167 37.088388,32 37.088388,32 L 22.160133,31.978069 C 22.160133,31.978069 26.997745,27.140456 26.997745,27.140456 C 18.528582,18.264221 13.291696,25.230495 11.500037,31.436501 z"
             style="fill:#404040;"/>
          </a>
         </g>
        </svg>
</svg>
