<?xml version="1.0" encoding="UTF-8" standalone="no"?>
<!DOCTYPE svg PUBLIC "-//W3C//DTD SVG 1.1//EN"
 "http://www.w3.org/Graphics/SVG/1.1/DTD/svg11.dtd">
<!-- Generated by graphviz version 2.38.0 (20140413.2041)
 -->
<!-- Title: getMorse Pages: 1 -->
<!--zoomable 731 -->
<svg id="main" version="1.1" xmlns="http://www.w3.org/2000/svg" xmlns:xlink="http://www.w3.org/1999/xlink" xml:space="preserve" onload="init(evt)">
<style type="text/css"><![CDATA[
.edge:hover path { stroke: red; }
.edge:hover polygon { stroke: red; fill: red; }
]]></style>
<script type="text/javascript"><![CDATA[
var edges = document.getElementsByTagName('g');
if (edges && edges.length) {
  for (var i=0;i<edges.length;i++) {
    if (edges[i].id.substr(0,4)=='edge') {
      edges[i].setAttribute('class','edge');
    }
  }
}
]]></script>
        <defs>
                <circle id="rim" cx="0" cy="0" r="7"/>
                <circle id="rim2" cx="0" cy="0" r="3.5"/>
                <g id="zoomPlus">
                        <use xlink:href="#rim" fill="#404040">
                                <set attributeName="fill" to="#808080" begin="zoomplus.mouseover" end="zoomplus.mouseout"/>
                        </use>
                        <path d="M-4,0h8M0,-4v8" fill="none" stroke="white" stroke-width="1.5" pointer-events="none"/>
                </g>
                <g id="zoomMin">
                        <use xlink:href="#rim" fill="#404040">
                                <set attributeName="fill" to="#808080" begin="zoomminus.mouseover" end="zoomminus.mouseout"/>
                        </use>
                        <path d="M-4,0h8" fill="none" stroke="white" stroke-width="1.5" pointer-events="none"/>
                </g>
                <g id="dirArrow">
                        <path fill="none" stroke="white" stroke-width="1.5" d="M0,-3.0v7 M-2.5,-0.5L0,-3.0L2.5,-0.5"/>
                </g>
               <g id="resetDef">
                       <use xlink:href="#rim2" fill="#404040">
                               <set attributeName="fill" to="#808080" begin="reset.mouseover" end="reset.mouseout"/>
                       </use>
               </g>
        </defs>

<script type="text/javascript">
var viewWidth = 1121;
var viewHeight = 731;
var sectionId = 'dynsection-3';
</script>
<script xlink:href="svgpan.js"/>
<svg id="graph" class="graph">
<g id="viewport">
<title>getMorse</title>
<polygon fill="white" stroke="none" points="-4,4 -4,-727 1117,-727 1117,4 -4,4"/>
<!-- Node1 -->
<g id="node1" class="node"><title>Node1</title>
<polygon fill="#bfbfbf" stroke="black" points="0,-171.5 0,-190.5 57,-190.5 57,-171.5 0,-171.5"/>
<text text-anchor="middle" x="28.5" y="-178.5" font-family="Helvetica,sans-Serif" font-size="10.00">getMorse</text>
</g>
<!-- Node2 -->
<g id="node2" class="node"><title>Node2</title>
<g id="a_node2"><a xlink:href="teensy3__morse__bsp_8cpp.html#ab306f692c5c9455a0c82782a67ff0147" target="_top" xlink:title="touchPoll">
<polygon fill="white" stroke="black" points="920,-541.5 920,-560.5 977,-560.5 977,-541.5 920,-541.5"/>
<text text-anchor="middle" x="948.5" y="-548.5" font-family="Helvetica,sans-Serif" font-size="10.00">touchPoll</text>
</a>
</g>
</g>
<!-- Node1&#45;&gt;Node2 -->
<g id="edge1" class="edge"><title>Node1&#45;&gt;Node2</title>
<path fill="none" stroke="midnightblue" d="M40.0507,-171.191C67.3073,-146.919 143.215,-86 218.5,-86 218.5,-86 218.5,-86 634,-86 852.262,-86 928.665,-442.568 944.289,-531.226"/>
<polygon fill="midnightblue" stroke="midnightblue" points="940.873,-532.016 946,-541.288 947.774,-530.843 940.873,-532.016"/>
</g>
<!-- Node4 -->
<g id="node4" class="node"><title>Node4</title>
<g id="a_node4"><a xlink:href="settings_8cpp.html#a8575b9b52638114a4f32d1462cf9b7c1" target="_top" xlink:title="Get the transmission frequency (side tone). ">
<polygon fill="white" stroke="black" points="316,-228.5 316,-247.5 370,-247.5 370,-228.5 316,-228.5"/>
<text text-anchor="middle" x="343" y="-235.5" font-family="Helvetica,sans-Serif" font-size="10.00">getTxHz</text>
</a>
</g>
</g>
<!-- Node1&#45;&gt;Node4 -->
<g id="edge3" class="edge"><title>Node1&#45;&gt;Node4</title>
<path fill="none" stroke="midnightblue" d="M51.4644,-190.6C63.526,-195.538 78.866,-201.285 93,-205 167.065,-224.465 256.69,-232.754 305.673,-236.04"/>
<polygon fill="midnightblue" stroke="midnightblue" points="305.574,-239.541 315.777,-236.685 306.02,-232.555 305.574,-239.541"/>
</g>
<!-- Node5 -->
<g id="node5" class="node"><title>Node5</title>
<g id="a_node5"><a xlink:href="settings_8cpp.html#af33969eee39a5fffb3ceb43a77772dc9" target="_top" xlink:title="Set the transmission frequency (side tone). ">
<polygon fill="white" stroke="black" points="93.5,-38.5 93.5,-57.5 147.5,-57.5 147.5,-38.5 93.5,-38.5"/>
<text text-anchor="middle" x="120.5" y="-45.5" font-family="Helvetica,sans-Serif" font-size="10.00">setTxHz</text>
</a>
</g>
</g>
<!-- Node1&#45;&gt;Node5 -->
<g id="edge4" class="edge"><title>Node1&#45;&gt;Node5</title>
<path fill="none" stroke="midnightblue" d="M33.8749,-171.339C43.1069,-151.525 65.9694,-105.346 93,-72 95.1107,-69.3962 97.51,-66.823 99.9823,-64.3834"/>
<polygon fill="midnightblue" stroke="midnightblue" points="102.405,-66.9103 107.402,-57.5681 97.67,-61.7549 102.405,-66.9103"/>
</g>
<!-- Node6 -->
<g id="node6" class="node"><title>Node6</title>
<g id="a_node6"><a xlink:href="libmorse_8cpp.html#acd4b292f5e412ee4f05aed9dafbc072d" target="_top" xlink:title="Convert an ASCII character into Morse code and transmit it. ">
<polygon fill="white" stroke="black" points="95.5,-380.5 95.5,-399.5 145.5,-399.5 145.5,-380.5 95.5,-380.5"/>
<text text-anchor="middle" x="120.5" y="-387.5" font-family="Helvetica,sans-Serif" font-size="10.00">txLetter</text>
</a>
</g>
</g>
<!-- Node1&#45;&gt;Node6 -->
<g id="edge5" class="edge"><title>Node1&#45;&gt;Node6</title>
<path fill="none" stroke="midnightblue" d="M33.601,-190.523C47.4521,-222.689 92.6722,-327.7 111.333,-371.035"/>
<polygon fill="midnightblue" stroke="midnightblue" points="108.205,-372.62 115.375,-380.421 114.634,-369.852 108.205,-372.62"/>
</g>
<!-- Node16 -->
<g id="node16" class="node"><title>Node16</title>
<g id="a_node16"><a xlink:href="libmorse_8cpp.html#ab94e088615119d1faae7df22ce50aedf" target="_top" xlink:title="Transmit a Morse code prosign indicating an error. ">
<polygon fill="white" stroke="black" points="320,-494.5 320,-513.5 366,-513.5 366,-494.5 320,-494.5"/>
<text text-anchor="middle" x="343" y="-501.5" font-family="Helvetica,sans-Serif" font-size="10.00">txError</text>
</a>
</g>
</g>
<!-- Node1&#45;&gt;Node16 -->
<g id="edge42" class="edge"><title>Node1&#45;&gt;Node16</title>
<path fill="none" stroke="midnightblue" d="M30.009,-190.712C33.1287,-238.627 54.1466,-449.77 184,-506 224.661,-523.607 276.909,-518.2 309.937,-511.811"/>
<polygon fill="midnightblue" stroke="midnightblue" points="310.868,-515.192 319.946,-509.73 309.443,-508.339 310.868,-515.192"/>
</g>
<!-- Node29 -->
<g id="node29" class="node"><title>Node29</title>
<g id="a_node29"><a xlink:href="morse__token_8h.html#af9722722b93869c9f37ef10573b31655" target="_top" xlink:title="wordBits">
<polygon fill="white" stroke="black" points="93,-0.5 93,-19.5 148,-19.5 148,-0.5 93,-0.5"/>
<text text-anchor="middle" x="120.5" y="-7.5" font-family="Helvetica,sans-Serif" font-size="10.00">wordBits</text>
</a>
</g>
</g>
<!-- Node1&#45;&gt;Node29 -->
<g id="edge41" class="edge"><title>Node1&#45;&gt;Node29</title>
<path fill="none" stroke="midnightblue" d="M31.6221,-171.145C37.5509,-145.43 56.3116,-75.096 93,-29 93.7932,-28.0034 94.6517,-27.0352 95.5578,-26.0981"/>
<polygon fill="midnightblue" stroke="midnightblue" points="97.8485,-28.7445 103.145,-19.5687 93.2825,-23.4386 97.8485,-28.7445"/>
</g>
<!-- Node30 -->
<g id="node30" class="node"><title>Node30</title>
<g id="a_node30"><a xlink:href="libmorse_8cpp.html#a2ec9b75e50f41e98e97ff42e6fa9ca54" target="_top" xlink:title="Has it been long enough that the word under construction should be considered complete? ">
<polygon fill="white" stroke="black" points="184,-190.5 184,-209.5 255,-209.5 255,-190.5 184,-190.5"/>
<text text-anchor="middle" x="219.5" y="-197.5" font-family="Helvetica,sans-Serif" font-size="10.00">wordExpired</text>
</a>
</g>
</g>
<!-- Node1&#45;&gt;Node30 -->
<g id="edge43" class="edge"><title>Node1&#45;&gt;Node30</title>
<path fill="none" stroke="midnightblue" d="M57.3876,-183.804C87.9481,-186.876 137.419,-191.849 173.49,-195.475"/>
<polygon fill="midnightblue" stroke="midnightblue" points="173.449,-198.989 183.749,-196.506 174.149,-192.024 173.449,-198.989"/>
</g>
<!-- Node31 -->
<g id="node31" class="node"><title>Node31</title>
<g id="a_node31"><a xlink:href="actions_8cpp.html#a40fea7a424d292e239a5e7a8271728ec" target="_top" xlink:title="txTick">
<polygon fill="white" stroke="black" points="197.5,-152.5 197.5,-171.5 241.5,-171.5 241.5,-152.5 197.5,-152.5"/>
<text text-anchor="middle" x="219.5" y="-159.5" font-family="Helvetica,sans-Serif" font-size="10.00">txTick</text>
</a>
</g>
</g>
<!-- Node1&#45;&gt;Node31 -->
<g id="edge45" class="edge"><title>Node1&#45;&gt;Node31</title>
<path fill="none" stroke="midnightblue" d="M57.3876,-178.196C92.0602,-174.711 151.075,-168.778 187.243,-165.142"/>
<polygon fill="midnightblue" stroke="midnightblue" points="187.641,-168.62 197.241,-164.137 186.941,-161.655 187.641,-168.62"/>
</g>
<!-- Node3 -->
<g id="node3" class="node"><title>Node3</title>
<g id="a_node3"><a xlink:href="teensy3__morse__bsp_8cpp.html#af6899cd9b83df54106b259ab81ea5cb2" target="_top" xlink:title="touchMargin">
<polygon fill="white" stroke="black" points="1043,-541.5 1043,-560.5 1113,-560.5 1113,-541.5 1043,-541.5"/>
<text text-anchor="middle" x="1078" y="-548.5" font-family="Helvetica,sans-Serif" font-size="10.00">touchMargin</text>
</a>
</g>
</g>
<!-- Node2&#45;&gt;Node3 -->
<g id="edge2" class="edge"><title>Node2&#45;&gt;Node3</title>
<path fill="none" stroke="midnightblue" d="M977.166,-551C993.281,-551 1013.98,-551 1032.35,-551"/>
<polygon fill="midnightblue" stroke="midnightblue" points="1032.56,-554.5 1042.56,-551 1032.56,-547.5 1032.56,-554.5"/>
</g>
<!-- Node7 -->
<g id="node7" class="node"><title>Node7</title>
<g id="a_node7"><a xlink:href="libmorse_8cpp.html#a9fdfce728595d72b78dc7c834ab99a40" target="_top" xlink:title="Transmit a literal Morse code value. ">
<polygon fill="white" stroke="black" points="194,-342.5 194,-361.5 245,-361.5 245,-342.5 194,-342.5"/>
<text text-anchor="middle" x="219.5" y="-349.5" font-family="Helvetica,sans-Serif" font-size="10.00">txLiteral</text>
</a>
</g>
</g>
<!-- Node6&#45;&gt;Node7 -->
<g id="edge6" class="edge"><title>Node6&#45;&gt;Node7</title>
<path fill="none" stroke="midnightblue" d="M145.977,-380.411C157.695,-375.821 171.915,-370.25 184.649,-365.261"/>
<polygon fill="midnightblue" stroke="midnightblue" points="185.996,-368.492 194.031,-361.586 183.443,-361.975 185.996,-368.492"/>
</g>
<!-- Node6&#45;&gt;Node16 -->
<g id="edge40" class="edge"><title>Node6&#45;&gt;Node16</title>
<path fill="none" stroke="midnightblue" d="M125.092,-399.553C132.733,-418.431 152.518,-460.381 184,-480 222.352,-503.9 275.858,-507.103 309.712,-506.271"/>
<polygon fill="midnightblue" stroke="midnightblue" points="310.109,-509.758 319.969,-505.88 309.843,-502.763 310.109,-509.758"/>
</g>
<!-- Node7&#45;&gt;Node4 -->
<g id="edge14" class="edge"><title>Node7&#45;&gt;Node4</title>
<path fill="none" stroke="midnightblue" d="M225.147,-342.487C234.837,-323.587 258.984,-281.062 291,-257 295.579,-253.559 300.85,-250.681 306.227,-248.295"/>
<polygon fill="midnightblue" stroke="midnightblue" points="307.859,-251.414 315.896,-244.511 305.309,-244.896 307.859,-251.414"/>
</g>
<!-- Node8 -->
<g id="node8" class="node"><title>Node8</title>
<g id="a_node8"><a xlink:href="class_morse_token.html#a48cd72aeb868391449d1f51c1d0bf5cc" target="_top" xlink:title="Treat code == 0 as the error token. ">
<polygon fill="white" stroke="black" points="294.5,-342.5 294.5,-361.5 391.5,-361.5 391.5,-342.5 294.5,-342.5"/>
<text text-anchor="middle" x="343" y="-349.5" font-family="Helvetica,sans-Serif" font-size="10.00">MorseToken::valid</text>
</a>
</g>
</g>
<!-- Node7&#45;&gt;Node8 -->
<g id="edge7" class="edge"><title>Node7&#45;&gt;Node8</title>
<path fill="none" stroke="midnightblue" d="M245.087,-352C256.36,-352 270.244,-352 283.944,-352"/>
<polygon fill="midnightblue" stroke="midnightblue" points="284.34,-355.5 294.34,-352 284.34,-348.5 284.34,-355.5"/>
</g>
<!-- Node9 -->
<g id="node9" class="node"><title>Node9</title>
<g id="a_node9"><a xlink:href="teensy3__morse__bsp_8cpp.html#af66e71e3fac9b6a2c6532bc8a513bfde" target="_top" xlink:title="Output a square wave on pin 10 at the given frequency for the given duration. ">
<polygon fill="white" stroke="black" points="324,-266.5 324,-285.5 362,-285.5 362,-266.5 324,-266.5"/>
<text text-anchor="middle" x="343" y="-273.5" font-family="Helvetica,sans-Serif" font-size="10.00">beep</text>
</a>
</g>
</g>
<!-- Node7&#45;&gt;Node9 -->
<g id="edge8" class="edge"><title>Node7&#45;&gt;Node9</title>
<path fill="none" stroke="midnightblue" d="M231.985,-342.43C245.551,-331.391 269.054,-313.086 291,-300 298.328,-295.631 306.58,-291.454 314.277,-287.845"/>
<polygon fill="midnightblue" stroke="midnightblue" points="315.958,-290.925 323.618,-283.606 313.065,-284.551 315.958,-290.925"/>
</g>
<!-- Node15 -->
<g id="node15" class="node"><title>Node15</title>
<g id="a_node15"><a xlink:href="settings_8cpp.html#a960551e90dfdad18f3c9b1338ccba7db" target="_top" xlink:title="Get the dit duration in microseconds. ">
<polygon fill="white" stroke="black" points="597,-342.5 597,-361.5 669,-361.5 669,-342.5 597,-342.5"/>
<text text-anchor="middle" x="633" y="-349.5" font-family="Helvetica,sans-Serif" font-size="10.00">getDitMicros</text>
</a>
</g>
</g>
<!-- Node7&#45;&gt;Node15 -->
<g id="edge15" class="edge"><title>Node7&#45;&gt;Node15</title>
<path fill="none" stroke="midnightblue" d="M245.298,-343.601C258.664,-339.512 275.543,-335.046 291,-333 346.833,-325.608 507.581,-339.65 586.789,-347.385"/>
<polygon fill="midnightblue" stroke="midnightblue" points="586.653,-350.888 596.948,-348.386 587.339,-343.922 586.653,-350.888"/>
</g>
<!-- Node7&#45;&gt;Node16 -->
<g id="edge16" class="edge"><title>Node7&#45;&gt;Node16</title>
<path fill="none" stroke="midnightblue" d="M227.836,-361.518C240.569,-378.004 267.641,-412.902 291,-442 303.193,-457.189 317.272,-474.271 327.544,-486.653"/>
<polygon fill="midnightblue" stroke="midnightblue" points="324.894,-488.94 333.978,-494.393 330.277,-484.465 324.894,-488.94"/>
</g>
<!-- Node10 -->
<g id="node10" class="node"><title>Node10</title>
<g id="a_node10"><a xlink:href="teensy3__morse__bsp_8cpp.html#a6f674d5b9985ea3a7eeb0df299c2e405" target="_top" xlink:title="pollEarphonePresent">
<polygon fill="white" stroke="black" points="431,-304.5 431,-323.5 538,-323.5 538,-304.5 431,-304.5"/>
<text text-anchor="middle" x="484.5" y="-311.5" font-family="Helvetica,sans-Serif" font-size="10.00">pollEarphonePresent</text>
</a>
</g>
</g>
<!-- Node9&#45;&gt;Node10 -->
<g id="edge9" class="edge"><title>Node9&#45;&gt;Node10</title>
<path fill="none" stroke="midnightblue" d="M362.237,-280.968C381.471,-286.207 412.512,-294.663 438.373,-301.707"/>
<polygon fill="midnightblue" stroke="midnightblue" points="437.789,-305.176 448.357,-304.427 439.629,-298.422 437.789,-305.176"/>
</g>
<!-- Node11 -->
<g id="node11" class="node"><title>Node11</title>
<g id="a_node11"><a xlink:href="teensy3__morse__bsp_8cpp.html#a2d6b4ace33ed5e497dedd03217540c63" target="_top" xlink:title="Set the PWM frequency for the audio output pins. ">
<polygon fill="white" stroke="black" points="443,-228.5 443,-247.5 526,-247.5 526,-228.5 443,-228.5"/>
<text text-anchor="middle" x="484.5" y="-235.5" font-family="Helvetica,sans-Serif" font-size="10.00">pwmFrequency</text>
</a>
</g>
</g>
<!-- Node9&#45;&gt;Node11 -->
<g id="edge10" class="edge"><title>Node9&#45;&gt;Node11</title>
<path fill="none" stroke="midnightblue" d="M362.237,-271.032C381.471,-265.793 412.512,-257.337 438.373,-250.293"/>
<polygon fill="midnightblue" stroke="midnightblue" points="439.629,-253.578 448.357,-247.573 437.789,-246.824 439.629,-253.578"/>
</g>
<!-- Node12 -->
<g id="node12" class="node"><title>Node12</title>
<g id="a_node12"><a xlink:href="teensy3__morse__bsp_8cpp.html#a82911eac3bf13d6f36d10102a4c4d3c4" target="_top" xlink:title="Generate a tone on the audio output pins. ">
<polygon fill="white" stroke="black" points="454,-152.5 454,-171.5 515,-171.5 515,-152.5 454,-152.5"/>
<text text-anchor="middle" x="484.5" y="-159.5" font-family="Helvetica,sans-Serif" font-size="10.00">pwmWrite</text>
</a>
</g>
</g>
<!-- Node9&#45;&gt;Node12 -->
<g id="edge11" class="edge"><title>Node9&#45;&gt;Node12</title>
<path fill="none" stroke="midnightblue" d="M362.438,-271.392C372.589,-268.317 385.099,-263.611 395,-257 397.177,-255.547 442.803,-206.171 467.669,-179.193"/>
<polygon fill="midnightblue" stroke="midnightblue" points="470.446,-181.344 474.648,-171.618 465.298,-176.601 470.446,-181.344"/>
</g>
<!-- Node14 -->
<g id="node14" class="node"><title>Node14</title>
<g id="a_node14"><a xlink:href="teensy3__morse__bsp_8cpp.html#a6c982a7d7805f1dd5426eb98c915cfdd" target="_top" xlink:title="Turn the red LED on (1) or off (0). ">
<polygon fill="white" stroke="black" points="459.5,-266.5 459.5,-285.5 509.5,-285.5 509.5,-266.5 459.5,-266.5"/>
<text text-anchor="middle" x="484.5" y="-273.5" font-family="Helvetica,sans-Serif" font-size="10.00">redLED</text>
</a>
</g>
</g>
<!-- Node9&#45;&gt;Node14 -->
<g id="edge13" class="edge"><title>Node9&#45;&gt;Node14</title>
<path fill="none" stroke="midnightblue" d="M362.237,-276C384.144,-276 421.368,-276 448.809,-276"/>
<polygon fill="midnightblue" stroke="midnightblue" points="449.161,-279.5 459.161,-276 449.161,-272.5 449.161,-279.5"/>
</g>
<!-- Node13 -->
<g id="node13" class="node"><title>Node13</title>
<g id="a_node13"><a xlink:href="teensy3__morse__bsp_8cpp.html#ac70998cee1bf97f00aec4a1b4e5a4f60" target="_top" xlink:title="isEarphonePresent">
<polygon fill="white" stroke="black" points="583.5,-152.5 583.5,-171.5 682.5,-171.5 682.5,-152.5 583.5,-152.5"/>
<text text-anchor="middle" x="633" y="-159.5" font-family="Helvetica,sans-Serif" font-size="10.00">isEarphonePresent</text>
</a>
</g>
</g>
<!-- Node12&#45;&gt;Node13 -->
<g id="edge12" class="edge"><title>Node12&#45;&gt;Node13</title>
<path fill="none" stroke="midnightblue" d="M515.146,-162C531.807,-162 553.199,-162 573.116,-162"/>
<polygon fill="midnightblue" stroke="midnightblue" points="573.364,-165.5 583.364,-162 573.364,-158.5 573.364,-165.5"/>
</g>
<!-- Node17 -->
<g id="node17" class="node"><title>Node17</title>
<g id="a_node17"><a xlink:href="libmorse_8cpp.html#a0ee2308940264ea9ac8e50afc1a4d285" target="_top" xlink:title="txString">
<polygon fill="white" stroke="black" points="459.5,-494.5 459.5,-513.5 509.5,-513.5 509.5,-494.5 459.5,-494.5"/>
<text text-anchor="middle" x="484.5" y="-501.5" font-family="Helvetica,sans-Serif" font-size="10.00">txString</text>
</a>
</g>
</g>
<!-- Node16&#45;&gt;Node17 -->
<g id="edge17" class="edge"><title>Node16&#45;&gt;Node17</title>
<path fill="none" stroke="midnightblue" d="M366.104,-504C388.387,-504 423.097,-504 449.004,-504"/>
<polygon fill="midnightblue" stroke="midnightblue" points="449.155,-507.5 459.155,-504 449.155,-500.5 449.155,-507.5"/>
</g>
<!-- Node17&#45;&gt;Node2 -->
<g id="edge18" class="edge"><title>Node17&#45;&gt;Node2</title>
<path fill="none" stroke="midnightblue" d="M492.469,-513.627C505.928,-531.359 537.419,-568.843 574,-585 687.977,-635.342 732.887,-628.272 854,-599 880.129,-592.685 907.149,-577.742 925.382,-566.193"/>
<polygon fill="midnightblue" stroke="midnightblue" points="927.602,-568.923 934.064,-560.527 923.777,-563.061 927.602,-568.923"/>
</g>
<!-- Node17&#45;&gt;Node6 -->
<g id="edge21" class="edge"><title>Node17&#45;&gt;Node6</title>
<path fill="none" stroke="midnightblue" d="M459.239,-496.36C396.37,-476.561 228.036,-423.55 155.513,-400.711"/>
<polygon fill="midnightblue" stroke="midnightblue" points="156.122,-397.234 145.532,-397.568 154.019,-403.91 156.122,-397.234"/>
</g>
<!-- Node17&#45;&gt;Node7 -->
<g id="edge20" class="edge"><title>Node17&#45;&gt;Node7</title>
<path fill="none" stroke="midnightblue" d="M467.22,-494.363C449.489,-483.884 420.278,-466.669 395,-452 342.274,-421.403 280.305,-386.03 246.223,-366.625"/>
<polygon fill="midnightblue" stroke="midnightblue" points="247.803,-363.497 237.38,-361.593 244.34,-369.581 247.803,-363.497"/>
</g>
<!-- Node17&#45;&gt;Node15 -->
<g id="edge19" class="edge"><title>Node17&#45;&gt;Node15</title>
<path fill="none" stroke="midnightblue" d="M494.664,-494.492C518.918,-469.327 585.028,-400.735 615.819,-368.788"/>
<polygon fill="midnightblue" stroke="midnightblue" points="618.42,-371.134 622.839,-361.505 613.38,-366.276 618.42,-371.134"/>
</g>
<!-- Node18 -->
<g id="node18" class="node"><title>Node18</title>
<g id="a_node18"><a xlink:href="teensy3__morse__bsp_8cpp.html#a8761e874366e227690fba2964e1bc445" target="_top" xlink:title="getInternalTemperatureC">
<polygon fill="white" stroke="black" points="728.5,-570.5 728.5,-589.5 853.5,-589.5 853.5,-570.5 728.5,-570.5"/>
<text text-anchor="middle" x="791" y="-577.5" font-family="Helvetica,sans-Serif" font-size="10.00">getInternalTemperatureC</text>
</a>
</g>
</g>
<!-- Node17&#45;&gt;Node18 -->
<g id="edge22" class="edge"><title>Node17&#45;&gt;Node18</title>
<path fill="none" stroke="midnightblue" d="M496.57,-513.715C512.46,-527.02 543.224,-550.46 574,-561 620.324,-576.865 675.337,-581.514 718.25,-582.248"/>
<polygon fill="midnightblue" stroke="midnightblue" points="718.291,-585.748 728.326,-582.352 718.363,-578.748 718.291,-585.748"/>
</g>
<!-- Node19 -->
<g id="node19" class="node"><title>Node19</title>
<g id="a_node19"><a xlink:href="libmorse_8cpp.html#a47abdd74b66d7180c47d192bab8bdccb" target="_top" xlink:title="Transmit an unsigned integer in Morse code. ">
<polygon fill="white" stroke="black" points="758,-475.5 758,-494.5 824,-494.5 824,-475.5 758,-475.5"/>
<text text-anchor="middle" x="791" y="-482.5" font-family="Helvetica,sans-Serif" font-size="10.00">txUnsigned</text>
</a>
</g>
</g>
<!-- Node17&#45;&gt;Node19 -->
<g id="edge23" class="edge"><title>Node17&#45;&gt;Node19</title>
<path fill="none" stroke="midnightblue" d="M495.924,-494.366C511.509,-480.692 542.441,-456.284 574,-447 624.313,-432.2 640.45,-437.355 692,-447 716.705,-451.622 743.193,-462.27 762.395,-471.122"/>
<polygon fill="midnightblue" stroke="midnightblue" points="760.924,-474.298 771.46,-475.417 763.922,-467.972 760.924,-474.298"/>
</g>
<!-- Node20 -->
<g id="node20" class="node"><title>Node20</title>
<g id="a_node20"><a xlink:href="actions_8cpp.html#aed718ec1bd4cc7adb2f65d40a6784496" target="_top" xlink:title="Transmit the internal temperature in integer in Fahrenheit. ">
<polygon fill="white" stroke="black" points="574,-532.5 574,-551.5 692,-551.5 692,-532.5 574,-532.5"/>
<text text-anchor="middle" x="633" y="-539.5" font-family="Helvetica,sans-Serif" font-size="10.00">txInternalTemperatureF</text>
</a>
</g>
</g>
<!-- Node17&#45;&gt;Node20 -->
<g id="edge26" class="edge"><title>Node17&#45;&gt;Node20</title>
<path fill="none" stroke="midnightblue" d="M509.691,-510.275C530.211,-515.597 560.236,-523.385 585.401,-529.913"/>
<polygon fill="midnightblue" stroke="midnightblue" points="584.574,-533.314 595.132,-532.437 586.331,-526.538 584.574,-533.314"/>
</g>
<!-- Node21 -->
<g id="node21" class="node"><title>Node21</title>
<g id="a_node21"><a xlink:href="actions_8cpp.html#aaabb3ac0c23f35a499bc17efe829f326" target="_top" xlink:title="Transmit the 24&#45;hr time. ">
<polygon fill="white" stroke="black" points="594,-456.5 594,-475.5 672,-475.5 672,-456.5 594,-456.5"/>
<text text-anchor="middle" x="633" y="-463.5" font-family="Helvetica,sans-Serif" font-size="10.00">txTimeHHMM</text>
</a>
</g>
</g>
<!-- Node17&#45;&gt;Node21 -->
<g id="edge29" class="edge"><title>Node17&#45;&gt;Node21</title>
<path fill="none" stroke="midnightblue" d="M504.352,-494.408C524.293,-487.298 556.556,-478.367 583.656,-472.149"/>
<polygon fill="midnightblue" stroke="midnightblue" points="584.749,-475.492 593.753,-469.909 583.232,-468.658 584.749,-475.492"/>
</g>
<!-- Node22 -->
<g id="node22" class="node"><title>Node22</title>
<g id="a_node22"><a xlink:href="actions_8cpp.html#ad02149679fa3cc6a4957d1a318408ffd" target="_top" xlink:title="Transmit the uptime. ">
<polygon fill="white" stroke="black" points="605,-494.5 605,-513.5 661,-513.5 661,-494.5 605,-494.5"/>
<text text-anchor="middle" x="633" y="-501.5" font-family="Helvetica,sans-Serif" font-size="10.00">txUptime</text>
</a>
</g>
</g>
<!-- Node17&#45;&gt;Node22 -->
<g id="edge31" class="edge"><title>Node17&#45;&gt;Node22</title>
<path fill="none" stroke="midnightblue" d="M509.691,-504C532.794,-504 567.945,-504 594.645,-504"/>
<polygon fill="midnightblue" stroke="midnightblue" points="594.782,-507.5 604.782,-504 594.782,-500.5 594.782,-507.5"/>
</g>
<!-- Node24 -->
<g id="node24" class="node"><title>Node24</title>
<g id="a_node24"><a xlink:href="teensy3__morse__bsp_8cpp.html#ae8dd28759e56dbd2ee9bc9ae96d1783c" target="_top" xlink:title="Return the most recent ADC measurement of the input voltage. Perform analog to digital conversion on ...">
<polygon fill="white" stroke="black" points="596,-684.5 596,-703.5 670,-703.5 670,-684.5 596,-684.5"/>
<text text-anchor="middle" x="633" y="-691.5" font-family="Helvetica,sans-Serif" font-size="10.00">readMillivolts</text>
</a>
</g>
</g>
<!-- Node17&#45;&gt;Node24 -->
<g id="edge34" class="edge"><title>Node17&#45;&gt;Node24</title>
<path fill="none" stroke="midnightblue" d="M488.125,-513.69C496.19,-541.738 523.199,-623.923 574,-670 578.344,-673.94 583.424,-677.284 588.739,-680.108"/>
<polygon fill="midnightblue" stroke="midnightblue" points="587.28,-683.289 597.818,-684.385 590.263,-676.957 587.28,-683.289"/>
</g>
<!-- Node28 -->
<g id="node28" class="node"><title>Node28</title>
<g id="a_node28"><a xlink:href="libmorse_8cpp.html#ac3f000c98271c6d0a7710135e18189bc" target="_top" xlink:title="On my hardware there is cross&#45;coupling between the serial port and the touch sensors. Without the code below, long messages to the serial port trigger a touch input. ">
<polygon fill="white" stroke="black" points="758.5,-646.5 758.5,-665.5 823.5,-665.5 823.5,-646.5 758.5,-646.5"/>
<text text-anchor="middle" x="791" y="-653.5" font-family="Helvetica,sans-Serif" font-size="10.00">flushTouch</text>
</a>
</g>
</g>
<!-- Node17&#45;&gt;Node28 -->
<g id="edge38" class="edge"><title>Node17&#45;&gt;Node28</title>
<path fill="none" stroke="midnightblue" d="M488.976,-513.836C498.302,-538.607 526.447,-603.608 574,-632 627.648,-664.031 702.274,-664.665 748.288,-661.118"/>
<polygon fill="midnightblue" stroke="midnightblue" points="748.84,-664.583 758.497,-660.226 748.23,-657.61 748.84,-664.583"/>
</g>
<!-- Node19&#45;&gt;Node2 -->
<g id="edge24" class="edge"><title>Node19&#45;&gt;Node2</title>
<path fill="none" stroke="midnightblue" d="M824.218,-493.75C833.909,-496.681 844.492,-500.185 854,-504 877.548,-513.448 903.23,-526.575 921.709,-536.556"/>
<polygon fill="midnightblue" stroke="midnightblue" points="920.213,-539.727 930.667,-541.452 923.571,-533.584 920.213,-539.727"/>
</g>
<!-- Node19&#45;&gt;Node6 -->
<g id="edge25" class="edge"><title>Node19&#45;&gt;Node6</title>
<path fill="none" stroke="midnightblue" d="M774.641,-475.333C755.833,-463.897 722.686,-445.024 692,-434 603.688,-402.274 579.338,-390 485.5,-390 342,-390 342,-390 342,-390 276.044,-390 198.99,-390 155.652,-390"/>
<polygon fill="midnightblue" stroke="midnightblue" points="155.645,-386.5 145.645,-390 155.645,-393.5 155.645,-386.5"/>
</g>
<!-- Node20&#45;&gt;Node18 -->
<g id="edge27" class="edge"><title>Node20&#45;&gt;Node18</title>
<path fill="none" stroke="midnightblue" d="M673.365,-551.589C693.951,-556.604 719.34,-562.788 741.169,-568.105"/>
<polygon fill="midnightblue" stroke="midnightblue" points="740.373,-571.514 750.918,-570.48 742.03,-564.713 740.373,-571.514"/>
</g>
<!-- Node20&#45;&gt;Node19 -->
<g id="edge28" class="edge"><title>Node20&#45;&gt;Node19</title>
<path fill="none" stroke="midnightblue" d="M666.57,-532.401C674.96,-529.638 683.903,-526.434 692,-523 708.656,-515.937 711.277,-510.903 728,-504 734.362,-501.374 741.222,-498.918 747.979,-496.701"/>
<polygon fill="midnightblue" stroke="midnightblue" points="749.246,-499.972 757.735,-493.633 747.145,-493.295 749.246,-499.972"/>
</g>
<!-- Node21&#45;&gt;Node17 -->
<g id="edge30" class="edge"><title>Node21&#45;&gt;Node17</title>
<path fill="none" stroke="midnightblue" d="M613.357,-475.517C589.875,-483.911 549.07,-494.875 519.87,-500.906"/>
<polygon fill="midnightblue" stroke="midnightblue" points="518.837,-497.542 509.691,-502.891 520.177,-504.413 518.837,-497.542"/>
</g>
<!-- Node22&#45;&gt;Node19 -->
<g id="edge33" class="edge"><title>Node22&#45;&gt;Node19</title>
<path fill="none" stroke="midnightblue" d="M661.173,-500.69C685.014,-497.787 720.076,-493.516 747.605,-490.163"/>
<polygon fill="midnightblue" stroke="midnightblue" points="748.244,-493.612 757.748,-488.928 747.398,-486.663 748.244,-493.612"/>
</g>
<!-- Node23 -->
<g id="node23" class="node"><title>Node23</title>
<g id="a_node23"><a xlink:href="settings_8cpp.html#a7b4efa097b94f9a90c5bbafcdf93fe4f" target="_top" xlink:title="getUptime">
<polygon fill="white" stroke="black" points="760,-513.5 760,-532.5 822,-532.5 822,-513.5 760,-513.5"/>
<text text-anchor="middle" x="791" y="-520.5" font-family="Helvetica,sans-Serif" font-size="10.00">getUptime</text>
</a>
</g>
</g>
<!-- Node22&#45;&gt;Node23 -->
<g id="edge32" class="edge"><title>Node22&#45;&gt;Node23</title>
<path fill="none" stroke="midnightblue" d="M661.173,-507.31C685.633,-510.289 721.905,-514.706 749.735,-518.096"/>
<polygon fill="midnightblue" stroke="midnightblue" points="749.595,-521.605 759.945,-519.339 750.441,-514.656 749.595,-521.605"/>
</g>
<!-- Node25 -->
<g id="node25" class="node"><title>Node25</title>
<g id="a_node25"><a xlink:href="class_voltage_monitor.html#a70902b84f9864c95d5553a0644a64f4f" target="_top" xlink:title="Return the latest voltage reading. ">
<polygon fill="white" stroke="black" points="728,-684.5 728,-703.5 854,-703.5 854,-684.5 728,-684.5"/>
<text text-anchor="middle" x="791" y="-691.5" font-family="Helvetica,sans-Serif" font-size="10.00">VoltageMonitor::getValue</text>
</a>
</g>
</g>
<!-- Node24&#45;&gt;Node25 -->
<g id="edge35" class="edge"><title>Node24&#45;&gt;Node25</title>
<path fill="none" stroke="midnightblue" d="M670.182,-694C684.344,-694 701.117,-694 717.56,-694"/>
<polygon fill="midnightblue" stroke="midnightblue" points="717.728,-697.5 727.728,-694 717.728,-690.5 717.728,-697.5"/>
</g>
<!-- Node26 -->
<g id="node26" class="node"><title>Node26</title>
<g id="a_node26"><a xlink:href="actions_8cpp.html#a2b8c3769e2aa32a2da9e2f3f85ac73dd" target="_top" xlink:title="A sample ADC reading is taken each time through the main loop, and written to a ring buffer...">
<polygon fill="white" stroke="black" points="892.5,-703.5 892.5,-722.5 1004.5,-722.5 1004.5,-703.5 892.5,-703.5"/>
<text text-anchor="middle" x="948.5" y="-710.5" font-family="Helvetica,sans-Serif" font-size="10.00">getVoltagePollInterval</text>
</a>
</g>
</g>
<!-- Node25&#45;&gt;Node26 -->
<g id="edge36" class="edge"><title>Node25&#45;&gt;Node26</title>
<path fill="none" stroke="midnightblue" d="M854.352,-701.619C863.438,-702.729 872.816,-703.875 881.963,-704.992"/>
<polygon fill="midnightblue" stroke="midnightblue" points="881.813,-708.5 892.163,-706.239 882.662,-701.552 881.813,-708.5"/>
</g>
<!-- Node27 -->
<g id="node27" class="node"><title>Node27</title>
<g id="a_node27"><a xlink:href="class_voltage_monitor.html#a75871331808c34b40d04059ee2af0f27" target="_top" xlink:title="Filter and scale raw ADC values to millivolts. ">
<polygon fill="white" stroke="black" points="890,-665.5 890,-684.5 1007,-684.5 1007,-665.5 890,-665.5"/>
<text text-anchor="middle" x="948.5" y="-672.5" font-family="Helvetica,sans-Serif" font-size="10.00">VoltageMonitor::update</text>
</a>
</g>
</g>
<!-- Node25&#45;&gt;Node27 -->
<g id="edge37" class="edge"><title>Node25&#45;&gt;Node27</title>
<path fill="none" stroke="midnightblue" d="M854.352,-686.381C862.702,-685.361 871.298,-684.311 879.735,-683.28"/>
<polygon fill="midnightblue" stroke="midnightblue" points="880.419,-686.723 889.92,-682.035 879.57,-679.774 880.419,-686.723"/>
</g>
<!-- Node28&#45;&gt;Node2 -->
<g id="edge39" class="edge"><title>Node28&#45;&gt;Node2</title>
<path fill="none" stroke="midnightblue" d="M822.939,-646.405C833.182,-642.615 844.406,-637.772 854,-632 884.003,-613.95 913.712,-586.039 931.333,-568.147"/>
<polygon fill="midnightblue" stroke="midnightblue" points="934.098,-570.323 938.537,-560.703 929.068,-565.456 934.098,-570.323"/>
</g>
<!-- Node30&#45;&gt;Node15 -->
<g id="edge44" class="edge"><title>Node30&#45;&gt;Node15</title>
<path fill="none" stroke="midnightblue" d="M255.131,-192.882C316.518,-182.161 446.555,-168.13 538,-219 583.754,-244.452 612.498,-302.668 624.902,-332.934"/>
<polygon fill="midnightblue" stroke="midnightblue" points="621.696,-334.346 628.609,-342.375 628.211,-331.787 621.696,-334.346"/>
</g>
<!-- Node32 -->
<g id="node32" class="node"><title>Node32</title>
<g id="a_node32"><a xlink:href="sound_8cpp.html#a77ffd11f8a990ba2130061186e49535a" target="_top" xlink:title="Play a PWM tone at a given frequency and duration. ">
<polygon fill="white" stroke="black" points="315,-152.5 315,-171.5 371,-171.5 371,-152.5 315,-152.5"/>
<text text-anchor="middle" x="343" y="-159.5" font-family="Helvetica,sans-Serif" font-size="10.00">playTone</text>
</a>
</g>
</g>
<!-- Node31&#45;&gt;Node32 -->
<g id="edge46" class="edge"><title>Node31&#45;&gt;Node32</title>
<path fill="none" stroke="midnightblue" d="M241.664,-162C258.996,-162 283.943,-162 304.626,-162"/>
<polygon fill="midnightblue" stroke="midnightblue" points="304.686,-165.5 314.686,-162 304.686,-158.5 304.686,-165.5"/>
</g>
<!-- Node34 -->
<g id="node34" class="node"><title>Node34</title>
<g id="a_node34"><a xlink:href="settings_8cpp.html#ad02597259b5753e0c98605bce44a9fc8" target="_top" xlink:title="Get the default dit duration in microseconds. ">
<polygon fill="white" stroke="black" points="291,-114.5 291,-133.5 395,-133.5 395,-114.5 291,-114.5"/>
<text text-anchor="middle" x="343" y="-121.5" font-family="Helvetica,sans-Serif" font-size="10.00">getDitMicrosDefault</text>
</a>
</g>
</g>
<!-- Node31&#45;&gt;Node34 -->
<g id="edge50" class="edge"><title>Node31&#45;&gt;Node34</title>
<path fill="none" stroke="midnightblue" d="M241.664,-155.381C258.257,-150.191 281.83,-142.818 301.958,-136.523"/>
<polygon fill="midnightblue" stroke="midnightblue" points="303.017,-139.859 311.517,-133.534 300.928,-133.178 303.017,-139.859"/>
</g>
<!-- Node32&#45;&gt;Node11 -->
<g id="edge47" class="edge"><title>Node32&#45;&gt;Node11</title>
<path fill="none" stroke="midnightblue" d="M361.668,-171.625C385.776,-184.76 429.17,-208.401 457.134,-223.636"/>
<polygon fill="midnightblue" stroke="midnightblue" points="455.52,-226.742 465.976,-228.453 458.869,-220.595 455.52,-226.742"/>
</g>
<!-- Node32&#45;&gt;Node12 -->
<g id="edge48" class="edge"><title>Node32&#45;&gt;Node12</title>
<path fill="none" stroke="midnightblue" d="M371.228,-162C391.856,-162 420.508,-162 443.704,-162"/>
<polygon fill="midnightblue" stroke="midnightblue" points="443.929,-165.5 453.929,-162 443.929,-158.5 443.929,-165.5"/>
</g>
<!-- Node33 -->
<g id="node33" class="node"><title>Node33</title>
<g id="a_node33"><a xlink:href="teensy3__morse__bsp_8cpp.html#a36cda3a6dd77f2141cfc703c55a47ff8" target="_top" xlink:title="getDuty">
<polygon fill="white" stroke="black" points="459,-114.5 459,-133.5 510,-133.5 510,-114.5 459,-114.5"/>
<text text-anchor="middle" x="484.5" y="-121.5" font-family="Helvetica,sans-Serif" font-size="10.00">getDuty</text>
</a>
</g>
</g>
<!-- Node32&#45;&gt;Node33 -->
<g id="edge49" class="edge"><title>Node32&#45;&gt;Node33</title>
<path fill="none" stroke="midnightblue" d="M371.228,-154.583C393.43,-148.535 424.926,-139.956 448.91,-133.422"/>
<polygon fill="midnightblue" stroke="midnightblue" points="449.952,-136.766 458.681,-130.761 448.112,-130.012 449.952,-136.766"/>
</g>
</g>
</svg>
        <g id="navigator" transform="translate(0 0)" fill="#404254">
                <rect fill="#f2f5e9" fill-opacity="0.5" stroke="#606060" stroke-width=".5" x="0" y="0" width="60" height="60"/>
                <use id="zoomplus" xlink:href="#zoomPlus" x="17" y="9" onmousedown="handleZoom(evt,'in')"/>
                <use id="zoomminus" xlink:href="#zoomMin" x="42" y="9" onmousedown="handleZoom(evt,'out')"/>
                <use id="reset" xlink:href="#resetDef" x="30" y="36" onmousedown="handleReset()"/>
                <g id="arrowUp" xlink:href="#dirArrow" transform="translate(30 24)" onmousedown="handlePan(0,-1)">
                  <use xlink:href="#rim" fill="#404040">
                        <set attributeName="fill" to="#808080" begin="arrowUp.mouseover" end="arrowUp.mouseout"/>
                  </use>
                  <path fill="none" stroke="white" stroke-width="1.5" d="M0,-3.0v7 M-2.5,-0.5L0,-3.0L2.5,-0.5"/>
                </g>
                <g id="arrowRight" xlink:href="#dirArrow" transform="rotate(90) translate(36 -43)" onmousedown="handlePan(1,0)">
                  <use xlink:href="#rim" fill="#404040">
                        <set attributeName="fill" to="#808080" begin="arrowRight.mouseover" end="arrowRight.mouseout"/>
                  </use>
                  <path fill="none" stroke="white" stroke-width="1.5" d="M0,-3.0v7 M-2.5,-0.5L0,-3.0L2.5,-0.5"/>
                </g>
                <g id="arrowDown" xlink:href="#dirArrow" transform="rotate(180) translate(-30 -48)" onmousedown="handlePan(0,1)">
                  <use xlink:href="#rim" fill="#404040">
                        <set attributeName="fill" to="#808080" begin="arrowDown.mouseover" end="arrowDown.mouseout"/>
                  </use>
                  <path fill="none" stroke="white" stroke-width="1.5" d="M0,-3.0v7 M-2.5,-0.5L0,-3.0L2.5,-0.5"/>
                </g>
                <g id="arrowLeft" xlink:href="#dirArrow" transform="rotate(270) translate(-36 17)" onmousedown="handlePan(-1,0)">
                  <use xlink:href="#rim" fill="#404040">
                        <set attributeName="fill" to="#808080" begin="arrowLeft.mouseover" end="arrowLeft.mouseout"/>
                  </use>
                  <path fill="none" stroke="white" stroke-width="1.5" d="M0,-3.0v7 M-2.5,-0.5L0,-3.0L2.5,-0.5"/>
                </g>
        </g>
        <svg viewBox="0 0 15 15" width="100%" height="30px" preserveAspectRatio="xMaxYMin meet">
         <g id="arrow_out" transform="scale(0.3 0.3)">
          <a xlink:href="libmorse_8cpp_ac4a29ea9b7bb06c2d9e8c4d74f486b91_cgraph_org.svg" target="_base">
           <rect id="button" ry="5" rx="5" y="6" x="6" height="38" width="38"
                fill="#f2f5e9" fill-opacity="0.5" stroke="#606060" stroke-width="1.0"/>
           <path id="arrow"
             d="M 11.500037,31.436501 C 11.940474,20.09759 22.043105,11.32322 32.158766,21.979434 L 37.068811,17.246167 C 37.068811,17.246167 37.088388,32 37.088388,32 L 22.160133,31.978069 C 22.160133,31.978069 26.997745,27.140456 26.997745,27.140456 C 18.528582,18.264221 13.291696,25.230495 11.500037,31.436501 z"
             style="fill:#404040;"/>
          </a>
         </g>
        </svg>
</svg>
