<?xml version="1.0" encoding="UTF-8" standalone="no"?>
<!DOCTYPE svg PUBLIC "-//W3C//DTD SVG 1.1//EN"
 "http://www.w3.org/Graphics/SVG/1.1/DTD/svg11.dtd">
<!-- Generated by graphviz version 2.38.0 (20140413.2041)
 -->
<!-- Title: txLiteral Pages: 1 -->
<svg width="1213pt" height="626pt"
 viewBox="0.00 0.00 1213.00 626.00" xmlns="http://www.w3.org/2000/svg" xmlns:xlink="http://www.w3.org/1999/xlink">
<g id="graph0" class="graph" transform="scale(1 1) rotate(0) translate(4 622)">
<title>txLiteral</title>
<polygon fill="white" stroke="none" points="-4,4 -4,-622 1209,-622 1209,4 -4,4"/>
<!-- Node1 -->
<g id="node1" class="node"><title>Node1</title>
<polygon fill="#bfbfbf" stroke="black" points="0,-456.5 0,-475.5 51,-475.5 51,-456.5 0,-456.5"/>
<text text-anchor="middle" x="25.5" y="-463.5" font-family="Helvetica,sans-Serif" font-size="10.00">txLiteral</text>
</g>
<!-- Node2 -->
<g id="node2" class="node"><title>Node2</title>
<g id="a_node2"><a xlink:href="class_morse_token.html#a48cd72aeb868391449d1f51c1d0bf5cc" target="_top" xlink:title="Treat code == 0 as the error token. ">
<polygon fill="white" stroke="black" points="830,-570.5 830,-589.5 927,-589.5 927,-570.5 830,-570.5"/>
<text text-anchor="middle" x="878.5" y="-577.5" font-family="Helvetica,sans-Serif" font-size="10.00">MorseToken::valid</text>
</a>
</g>
</g>
<!-- Node1&#45;&gt;Node2 -->
<g id="edge1" class="edge"><title>Node1&#45;&gt;Node2</title>
<path fill="none" stroke="midnightblue" d="M30.4937,-475.595C38.6763,-494.288 58.9643,-536.026 87,-562 126.085,-598.211 139.719,-618 193,-618 193,-618 193,-618 630.5,-618 700.315,-618 779.953,-602.986 829.48,-591.833"/>
<polygon fill="midnightblue" stroke="midnightblue" points="830.309,-595.234 839.275,-589.589 828.746,-588.411 830.309,-595.234"/>
</g>
<!-- Node3 -->
<g id="node3" class="node"><title>Node3</title>
<g id="a_node3"><a xlink:href="teensy3__morse__bsp_8cpp.html#af66e71e3fac9b6a2c6532bc8a513bfde" target="_top" xlink:title="Output a square wave on pin 10 at the given frequency for the given duration. ">
<polygon fill="white" stroke="black" points="859.5,-228.5 859.5,-247.5 897.5,-247.5 897.5,-228.5 859.5,-228.5"/>
<text text-anchor="middle" x="878.5" y="-235.5" font-family="Helvetica,sans-Serif" font-size="10.00">beep</text>
</a>
</g>
</g>
<!-- Node1&#45;&gt;Node3 -->
<g id="edge2" class="edge"><title>Node1&#45;&gt;Node3</title>
<path fill="none" stroke="midnightblue" d="M28.0867,-456.484C38.7218,-394.265 101.996,-48 193,-48 193,-48 193,-48 630.5,-48 742.357,-48 834.648,-171.934 866.014,-219.613"/>
<polygon fill="midnightblue" stroke="midnightblue" points="863.261,-221.802 871.616,-228.317 869.147,-218.014 863.261,-221.802"/>
</g>
<!-- Node9 -->
<g id="node9" class="node"><title>Node9</title>
<g id="a_node9"><a xlink:href="settings_8cpp.html#a8575b9b52638114a4f32d1462cf9b7c1" target="_top" xlink:title="Get the transmission frequency (side tone). ">
<polygon fill="white" stroke="black" points="851.5,-0.5 851.5,-19.5 905.5,-19.5 905.5,-0.5 851.5,-0.5"/>
<text text-anchor="middle" x="878.5" y="-7.5" font-family="Helvetica,sans-Serif" font-size="10.00">getTxHz</text>
</a>
</g>
</g>
<!-- Node1&#45;&gt;Node9 -->
<g id="edge8" class="edge"><title>Node1&#45;&gt;Node9</title>
<path fill="none" stroke="midnightblue" d="M27.1434,-456.306C30.7257,-404.409 49.4182,-159.396 87,-95 117.438,-42.845 132.613,-10 193,-10 193,-10 193,-10 630.5,-10 705.25,-10 792.725,-10 840.938,-10"/>
<polygon fill="midnightblue" stroke="midnightblue" points="841.18,-13.5001 851.18,-10 841.18,-6.5001 841.18,-13.5001"/>
</g>
<!-- Node10 -->
<g id="node10" class="node"><title>Node10</title>
<g id="a_node10"><a xlink:href="settings_8cpp.html#a960551e90dfdad18f3c9b1338ccba7db" target="_top" xlink:title="Get the dit duration in microseconds. ">
<polygon fill="white" stroke="black" points="842.5,-494.5 842.5,-513.5 914.5,-513.5 914.5,-494.5 842.5,-494.5"/>
<text text-anchor="middle" x="878.5" y="-501.5" font-family="Helvetica,sans-Serif" font-size="10.00">getDitMicros</text>
</a>
</g>
</g>
<!-- Node1&#45;&gt;Node10 -->
<g id="edge9" class="edge"><title>Node1&#45;&gt;Node10</title>
<path fill="none" stroke="midnightblue" d="M33.5697,-475.72C54.5214,-503.288 119.432,-580 193,-580 193,-580 193,-580 630.5,-580 713.68,-580 805.926,-540.14 850.481,-518.154"/>
<polygon fill="midnightblue" stroke="midnightblue" points="852.131,-521.242 859.496,-513.625 848.989,-514.986 852.131,-521.242"/>
</g>
<!-- Node11 -->
<g id="node11" class="node"><title>Node11</title>
<g id="a_node11"><a xlink:href="libmorse_8cpp.html#ab94e088615119d1faae7df22ce50aedf" target="_top" xlink:title="Transmit a Morse code prosign indicating an error. ">
<polygon fill="white" stroke="black" points="87,-456.5 87,-475.5 133,-475.5 133,-456.5 87,-456.5"/>
<text text-anchor="middle" x="110" y="-463.5" font-family="Helvetica,sans-Serif" font-size="10.00">txError</text>
</a>
</g>
</g>
<!-- Node1&#45;&gt;Node11 -->
<g id="edge10" class="edge"><title>Node1&#45;&gt;Node11</title>
<path fill="none" stroke="midnightblue" d="M51.2527,-466C59.1953,-466 68.1149,-466 76.5243,-466"/>
<polygon fill="midnightblue" stroke="midnightblue" points="76.7915,-469.5 86.7915,-466 76.7914,-462.5 76.7915,-469.5"/>
</g>
<!-- Node4 -->
<g id="node4" class="node"><title>Node4</title>
<g id="a_node4"><a xlink:href="teensy3__morse__bsp_8cpp.html#a6f674d5b9985ea3a7eeb0df299c2e405" target="_top" xlink:title="pollEarphonePresent">
<polygon fill="white" stroke="black" points="963,-285.5 963,-304.5 1070,-304.5 1070,-285.5 963,-285.5"/>
<text text-anchor="middle" x="1016.5" y="-292.5" font-family="Helvetica,sans-Serif" font-size="10.00">pollEarphonePresent</text>
</a>
</g>
</g>
<!-- Node3&#45;&gt;Node4 -->
<g id="edge3" class="edge"><title>Node3&#45;&gt;Node4</title>
<path fill="none" stroke="midnightblue" d="M897.561,-246.725C914.352,-254.715 940.14,-266.679 963,-276 967.868,-277.985 973.03,-279.981 978.142,-281.896"/>
<polygon fill="midnightblue" stroke="midnightblue" points="977.229,-285.289 987.823,-285.451 979.642,-278.718 977.229,-285.289"/>
</g>
<!-- Node5 -->
<g id="node5" class="node"><title>Node5</title>
<g id="a_node5"><a xlink:href="teensy3__morse__bsp_8cpp.html#a2d6b4ace33ed5e497dedd03217540c63" target="_top" xlink:title="Set the PWM frequency for the audio output pins. ">
<polygon fill="white" stroke="black" points="975,-247.5 975,-266.5 1058,-266.5 1058,-247.5 975,-247.5"/>
<text text-anchor="middle" x="1016.5" y="-254.5" font-family="Helvetica,sans-Serif" font-size="10.00">pwmFrequency</text>
</a>
</g>
</g>
<!-- Node3&#45;&gt;Node5 -->
<g id="edge4" class="edge"><title>Node3&#45;&gt;Node5</title>
<path fill="none" stroke="midnightblue" d="M897.56,-240.523C914.617,-242.906 941.017,-246.594 964.519,-249.878"/>
<polygon fill="midnightblue" stroke="midnightblue" points="964.334,-253.386 974.722,-251.303 965.303,-246.453 964.334,-253.386"/>
</g>
<!-- Node6 -->
<g id="node6" class="node"><title>Node6</title>
<g id="a_node6"><a xlink:href="teensy3__morse__bsp_8cpp.html#a82911eac3bf13d6f36d10102a4c4d3c4" target="_top" xlink:title="Generate a tone on the audio output pins. ">
<polygon fill="white" stroke="black" points="986,-209.5 986,-228.5 1047,-228.5 1047,-209.5 986,-209.5"/>
<text text-anchor="middle" x="1016.5" y="-216.5" font-family="Helvetica,sans-Serif" font-size="10.00">pwmWrite</text>
</a>
</g>
</g>
<!-- Node3&#45;&gt;Node6 -->
<g id="edge5" class="edge"><title>Node3&#45;&gt;Node6</title>
<path fill="none" stroke="midnightblue" d="M897.56,-235.477C917.462,-232.697 950.083,-228.139 975.979,-224.521"/>
<polygon fill="midnightblue" stroke="midnightblue" points="976.471,-227.987 985.89,-223.137 975.502,-221.054 976.471,-227.987"/>
</g>
<!-- Node8 -->
<g id="node8" class="node"><title>Node8</title>
<g id="a_node8"><a xlink:href="teensy3__morse__bsp_8cpp.html#a6c982a7d7805f1dd5426eb98c915cfdd" target="_top" xlink:title="Turn the red LED on (1) or off (0). ">
<polygon fill="white" stroke="black" points="991.5,-171.5 991.5,-190.5 1041.5,-190.5 1041.5,-171.5 991.5,-171.5"/>
<text text-anchor="middle" x="1016.5" y="-178.5" font-family="Helvetica,sans-Serif" font-size="10.00">redLED</text>
</a>
</g>
</g>
<!-- Node3&#45;&gt;Node8 -->
<g id="edge7" class="edge"><title>Node3&#45;&gt;Node8</title>
<path fill="none" stroke="midnightblue" d="M897.561,-229.275C914.352,-221.285 940.14,-209.321 963,-200 969.008,-197.55 975.464,-195.083 981.722,-192.774"/>
<polygon fill="midnightblue" stroke="midnightblue" points="983.092,-196 991.301,-189.302 980.707,-189.419 983.092,-196"/>
</g>
<!-- Node7 -->
<g id="node7" class="node"><title>Node7</title>
<g id="a_node7"><a xlink:href="teensy3__morse__bsp_8cpp.html#ac70998cee1bf97f00aec4a1b4e5a4f60" target="_top" xlink:title="isEarphonePresent">
<polygon fill="white" stroke="black" points="1106,-209.5 1106,-228.5 1205,-228.5 1205,-209.5 1106,-209.5"/>
<text text-anchor="middle" x="1155.5" y="-216.5" font-family="Helvetica,sans-Serif" font-size="10.00">isEarphonePresent</text>
</a>
</g>
</g>
<!-- Node6&#45;&gt;Node7 -->
<g id="edge6" class="edge"><title>Node6&#45;&gt;Node7</title>
<path fill="none" stroke="midnightblue" d="M1047.23,-219C1061.43,-219 1078.96,-219 1095.7,-219"/>
<polygon fill="midnightblue" stroke="midnightblue" points="1095.98,-222.5 1105.98,-219 1095.98,-215.5 1095.98,-222.5"/>
</g>
<!-- Node12 -->
<g id="node12" class="node"><title>Node12</title>
<g id="a_node12"><a xlink:href="libmorse_8cpp.html#a0ee2308940264ea9ac8e50afc1a4d285" target="_top" xlink:title="txString">
<polygon fill="white" stroke="black" points="169,-266.5 169,-285.5 219,-285.5 219,-266.5 169,-266.5"/>
<text text-anchor="middle" x="194" y="-273.5" font-family="Helvetica,sans-Serif" font-size="10.00">txString</text>
</a>
</g>
</g>
<!-- Node11&#45;&gt;Node12 -->
<g id="edge11" class="edge"><title>Node11&#45;&gt;Node12</title>
<path fill="none" stroke="midnightblue" d="M115.179,-456.317C128.089,-426.403 167.502,-335.081 184.76,-295.093"/>
<polygon fill="midnightblue" stroke="midnightblue" points="187.982,-296.46 188.731,-285.892 181.555,-293.686 187.982,-296.46"/>
</g>
<!-- Node12&#45;&gt;Node10 -->
<g id="edge14" class="edge"><title>Node12&#45;&gt;Node10</title>
<path fill="none" stroke="midnightblue" d="M195.591,-285.828C197.839,-314.24 208.292,-397.232 255,-441 327.97,-509.376 371,-504 471,-504 471,-504 471,-504 630.5,-504 700.96,-504 782.727,-504 832.259,-504"/>
<polygon fill="midnightblue" stroke="midnightblue" points="832.323,-507.5 842.323,-504 832.323,-500.5 832.323,-507.5"/>
</g>
<!-- Node13 -->
<g id="node13" class="node"><title>Node13</title>
<g id="a_node13"><a xlink:href="teensy3__morse__bsp_8cpp.html#ab306f692c5c9455a0c82782a67ff0147" target="_top" xlink:title="touchPoll">
<polygon fill="white" stroke="black" points="601,-266.5 601,-285.5 658,-285.5 658,-266.5 601,-266.5"/>
<text text-anchor="middle" x="629.5" y="-273.5" font-family="Helvetica,sans-Serif" font-size="10.00">touchPoll</text>
</a>
</g>
</g>
<!-- Node12&#45;&gt;Node13 -->
<g id="edge12" class="edge"><title>Node12&#45;&gt;Node13</title>
<path fill="none" stroke="midnightblue" d="M219.236,-276C291.126,-276 503.581,-276 590.64,-276"/>
<polygon fill="midnightblue" stroke="midnightblue" points="590.86,-279.5 600.86,-276 590.86,-272.5 590.86,-279.5"/>
</g>
<!-- Node15 -->
<g id="node15" class="node"><title>Node15</title>
<g id="a_node15"><a xlink:href="libmorse_8cpp.html#a9fdfce728595d72b78dc7c834ab99a40" target="_top" xlink:title="Transmit a literal Morse code value. ">
<polygon fill="white" stroke="black" points="733.5,-418.5 733.5,-437.5 784.5,-437.5 784.5,-418.5 733.5,-418.5"/>
<text text-anchor="middle" x="759" y="-425.5" font-family="Helvetica,sans-Serif" font-size="10.00">txLiteral</text>
</a>
</g>
</g>
<!-- Node12&#45;&gt;Node15 -->
<g id="edge15" class="edge"><title>Node12&#45;&gt;Node15</title>
<path fill="none" stroke="midnightblue" d="M196.284,-285.75C200.09,-310.309 213.752,-374.758 255,-403 402.838,-504.222 636.294,-459.413 723.572,-437.501"/>
<polygon fill="midnightblue" stroke="midnightblue" points="724.662,-440.835 733.475,-434.954 722.918,-434.055 724.662,-440.835"/>
</g>
<!-- Node16 -->
<g id="node16" class="node"><title>Node16</title>
<g id="a_node16"><a xlink:href="libmorse_8cpp.html#acd4b292f5e412ee4f05aed9dafbc072d" target="_top" xlink:title="Convert an ASCII character into Morse code and transmit it. ">
<polygon fill="white" stroke="black" points="604.5,-380.5 604.5,-399.5 654.5,-399.5 654.5,-380.5 604.5,-380.5"/>
<text text-anchor="middle" x="629.5" y="-387.5" font-family="Helvetica,sans-Serif" font-size="10.00">txLetter</text>
</a>
</g>
</g>
<!-- Node12&#45;&gt;Node16 -->
<g id="edge21" class="edge"><title>Node12&#45;&gt;Node16</title>
<path fill="none" stroke="midnightblue" d="M197.806,-285.721C204.178,-305.801 221.827,-351.601 255,-371 364.554,-435.065 524.558,-412.375 594.102,-398.062"/>
<polygon fill="midnightblue" stroke="midnightblue" points="595.026,-401.443 604.077,-395.937 593.568,-394.597 595.026,-401.443"/>
</g>
<!-- Node17 -->
<g id="node17" class="node"><title>Node17</title>
<g id="a_node17"><a xlink:href="teensy3__morse__bsp_8cpp.html#a8761e874366e227690fba2964e1bc445" target="_top" xlink:title="getInternalTemperatureC">
<polygon fill="white" stroke="black" points="409.5,-190.5 409.5,-209.5 534.5,-209.5 534.5,-190.5 409.5,-190.5"/>
<text text-anchor="middle" x="472" y="-197.5" font-family="Helvetica,sans-Serif" font-size="10.00">getInternalTemperatureC</text>
</a>
</g>
</g>
<!-- Node12&#45;&gt;Node17 -->
<g id="edge24" class="edge"><title>Node12&#45;&gt;Node17</title>
<path fill="none" stroke="midnightblue" d="M197.635,-266.451C203.78,-246.278 221.174,-199.644 255,-181 281.925,-166.16 362.42,-177.991 417.167,-188.5"/>
<polygon fill="midnightblue" stroke="midnightblue" points="416.585,-191.953 427.071,-190.441 417.931,-185.083 416.585,-191.953"/>
</g>
<!-- Node18 -->
<g id="node18" class="node"><title>Node18</title>
<g id="a_node18"><a xlink:href="libmorse_8cpp.html#a47abdd74b66d7180c47d192bab8bdccb" target="_top" xlink:title="Transmit an unsigned integer in Morse code. ">
<polygon fill="white" stroke="black" points="439,-304.5 439,-323.5 505,-323.5 505,-304.5 439,-304.5"/>
<text text-anchor="middle" x="472" y="-311.5" font-family="Helvetica,sans-Serif" font-size="10.00">txUnsigned</text>
</a>
</g>
</g>
<!-- Node12&#45;&gt;Node18 -->
<g id="edge25" class="edge"><title>Node12&#45;&gt;Node18</title>
<path fill="none" stroke="midnightblue" d="M219.098,-282.311C230.001,-284.988 243.087,-287.956 255,-290 315.076,-300.309 385.346,-307.164 429.021,-310.82"/>
<polygon fill="midnightblue" stroke="midnightblue" points="428.741,-314.308 438.993,-311.637 429.313,-307.332 428.741,-314.308"/>
</g>
<!-- Node19 -->
<g id="node19" class="node"><title>Node19</title>
<g id="a_node19"><a xlink:href="actions_8cpp.html#aed718ec1bd4cc7adb2f65d40a6784496" target="_top" xlink:title="Transmit the internal temperature in integer in Fahrenheit. ">
<polygon fill="white" stroke="black" points="255,-228.5 255,-247.5 373,-247.5 373,-228.5 255,-228.5"/>
<text text-anchor="middle" x="314" y="-235.5" font-family="Helvetica,sans-Serif" font-size="10.00">txInternalTemperatureF</text>
</a>
</g>
</g>
<!-- Node12&#45;&gt;Node19 -->
<g id="edge28" class="edge"><title>Node12&#45;&gt;Node19</title>
<path fill="none" stroke="midnightblue" d="M219.164,-268.218C234.866,-263.162 255.696,-256.454 273.742,-250.642"/>
<polygon fill="midnightblue" stroke="midnightblue" points="274.985,-253.919 283.431,-247.522 272.839,-247.256 274.985,-253.919"/>
</g>
<!-- Node20 -->
<g id="node20" class="node"><title>Node20</title>
<g id="a_node20"><a xlink:href="actions_8cpp.html#aaabb3ac0c23f35a499bc17efe829f326" target="_top" xlink:title="Transmit the 24&#45;hr time. ">
<polygon fill="white" stroke="black" points="275,-190.5 275,-209.5 353,-209.5 353,-190.5 275,-190.5"/>
<text text-anchor="middle" x="314" y="-197.5" font-family="Helvetica,sans-Serif" font-size="10.00">txTimeHHMM</text>
</a>
</g>
</g>
<!-- Node12&#45;&gt;Node20 -->
<g id="edge31" class="edge"><title>Node12&#45;&gt;Node20</title>
<path fill="none" stroke="midnightblue" d="M198.815,-266.417C207.584,-251.234 230.326,-224.729 255,-210 258.238,-208.067 261.698,-206.304 265.253,-204.726"/>
<polygon fill="midnightblue" stroke="midnightblue" points="266.769,-207.891 274.807,-200.988 264.219,-201.372 266.769,-207.891"/>
</g>
<!-- Node21 -->
<g id="node21" class="node"><title>Node21</title>
<g id="a_node21"><a xlink:href="actions_8cpp.html#ad02149679fa3cc6a4957d1a318408ffd" target="_top" xlink:title="Transmit the uptime. ">
<polygon fill="white" stroke="black" points="286,-342.5 286,-361.5 342,-361.5 342,-342.5 286,-342.5"/>
<text text-anchor="middle" x="314" y="-349.5" font-family="Helvetica,sans-Serif" font-size="10.00">txUptime</text>
</a>
</g>
</g>
<!-- Node12&#45;&gt;Node21 -->
<g id="edge33" class="edge"><title>Node12&#45;&gt;Node21</title>
<path fill="none" stroke="midnightblue" d="M204.411,-285.896C215.614,-297.24 235.297,-315.832 255,-328 261.566,-332.055 268.937,-335.702 276.166,-338.858"/>
<polygon fill="midnightblue" stroke="midnightblue" points="275.266,-342.273 285.846,-342.849 277.934,-335.802 275.266,-342.273"/>
</g>
<!-- Node23 -->
<g id="node23" class="node"><title>Node23</title>
<g id="a_node23"><a xlink:href="teensy3__morse__bsp_8cpp.html#ae8dd28759e56dbd2ee9bc9ae96d1783c" target="_top" xlink:title="Return the most recent ADC measurement of the input voltage. Perform analog to digital conversion on ...">
<polygon fill="white" stroke="black" points="277,-76.5 277,-95.5 351,-95.5 351,-76.5 277,-76.5"/>
<text text-anchor="middle" x="314" y="-83.5" font-family="Helvetica,sans-Serif" font-size="10.00">readMillivolts</text>
</a>
</g>
</g>
<!-- Node12&#45;&gt;Node23 -->
<g id="edge36" class="edge"><title>Node12&#45;&gt;Node23</title>
<path fill="none" stroke="midnightblue" d="M195.809,-266.354C198.648,-238.424 210.543,-156.528 255,-110 258.67,-106.159 263.046,-102.911 267.725,-100.168"/>
<polygon fill="midnightblue" stroke="midnightblue" points="269.639,-103.123 276.992,-95.4959 266.487,-96.8727 269.639,-103.123"/>
</g>
<!-- Node27 -->
<g id="node27" class="node"><title>Node27</title>
<g id="a_node27"><a xlink:href="libmorse_8cpp.html#ac3f000c98271c6d0a7710135e18189bc" target="_top" xlink:title="On my hardware there is cross&#45;coupling between the serial port and the touch sensors. Without the code below, long messages to the serial port trigger a touch input. ">
<polygon fill="white" stroke="black" points="439.5,-152.5 439.5,-171.5 504.5,-171.5 504.5,-152.5 439.5,-152.5"/>
<text text-anchor="middle" x="472" y="-159.5" font-family="Helvetica,sans-Serif" font-size="10.00">flushTouch</text>
</a>
</g>
</g>
<!-- Node12&#45;&gt;Node27 -->
<g id="edge40" class="edge"><title>Node12&#45;&gt;Node27</title>
<path fill="none" stroke="midnightblue" d="M197.09,-266.482C202.407,-244.835 218.684,-192.085 255,-170 308.208,-137.643 383.199,-143.875 429.373,-152.262"/>
<polygon fill="midnightblue" stroke="midnightblue" points="428.851,-155.726 439.333,-154.186 430.179,-148.853 428.851,-155.726"/>
</g>
<!-- Node14 -->
<g id="node14" class="node"><title>Node14</title>
<g id="a_node14"><a xlink:href="teensy3__morse__bsp_8cpp.html#af6899cd9b83df54106b259ab81ea5cb2" target="_top" xlink:title="touchMargin">
<polygon fill="white" stroke="black" points="724,-266.5 724,-285.5 794,-285.5 794,-266.5 724,-266.5"/>
<text text-anchor="middle" x="759" y="-273.5" font-family="Helvetica,sans-Serif" font-size="10.00">touchMargin</text>
</a>
</g>
</g>
<!-- Node13&#45;&gt;Node14 -->
<g id="edge13" class="edge"><title>Node13&#45;&gt;Node14</title>
<path fill="none" stroke="midnightblue" d="M658.166,-276C674.281,-276 694.984,-276 713.355,-276"/>
<polygon fill="midnightblue" stroke="midnightblue" points="713.562,-279.5 723.562,-276 713.562,-272.5 713.562,-279.5"/>
</g>
<!-- Node15&#45;&gt;Node2 -->
<g id="edge16" class="edge"><title>Node15&#45;&gt;Node2</title>
<path fill="none" stroke="midnightblue" d="M766.77,-437.579C779.058,-454.875 805.985,-492.366 830,-523 840.64,-536.572 853.141,-551.537 862.648,-562.727"/>
<polygon fill="midnightblue" stroke="midnightblue" points="860.098,-565.13 869.253,-570.462 865.421,-560.584 860.098,-565.13"/>
</g>
<!-- Node15&#45;&gt;Node3 -->
<g id="edge17" class="edge"><title>Node15&#45;&gt;Node3</title>
<path fill="none" stroke="midnightblue" d="M765.988,-418.317C784.527,-388.34 841.203,-296.693 865.85,-256.839"/>
<polygon fill="midnightblue" stroke="midnightblue" points="869.1,-258.238 871.383,-247.892 863.146,-254.556 869.1,-258.238"/>
</g>
<!-- Node15&#45;&gt;Node9 -->
<g id="edge18" class="edge"><title>Node15&#45;&gt;Node9</title>
<path fill="none" stroke="midnightblue" d="M762.675,-418.484C777.654,-365.198 851.196,-103.574 872.005,-29.5477"/>
<polygon fill="midnightblue" stroke="midnightblue" points="875.441,-30.258 874.778,-19.684 868.702,-28.3637 875.441,-30.258"/>
</g>
<!-- Node15&#45;&gt;Node10 -->
<g id="edge19" class="edge"><title>Node15&#45;&gt;Node10</title>
<path fill="none" stroke="midnightblue" d="M774.881,-437.625C794.834,-450.531 830.472,-473.582 854.052,-488.833"/>
<polygon fill="midnightblue" stroke="midnightblue" points="852.442,-491.96 862.739,-494.453 856.244,-486.083 852.442,-491.96"/>
</g>
<!-- Node15&#45;&gt;Node11 -->
<g id="edge20" class="edge"><title>Node15&#45;&gt;Node11</title>
<path fill="none" stroke="midnightblue" d="M744.822,-437.523C705.57,-464.922 585.177,-542 473,-542 313,-542 313,-542 313,-542 244.552,-542 170.933,-503.301 134.376,-481.133"/>
<polygon fill="midnightblue" stroke="midnightblue" points="135.837,-477.921 125.494,-475.625 132.148,-483.87 135.837,-477.921"/>
</g>
<!-- Node16&#45;&gt;Node11 -->
<g id="edge23" class="edge"><title>Node16&#45;&gt;Node11</title>
<path fill="none" stroke="midnightblue" d="M607.82,-399.536C589.188,-407.69 560.837,-419.024 535,-425 391.764,-458.129 215.306,-464.53 143.596,-465.736"/>
<polygon fill="midnightblue" stroke="midnightblue" points="143.348,-462.239 133.4,-465.883 143.449,-469.238 143.348,-462.239"/>
</g>
<!-- Node16&#45;&gt;Node15 -->
<g id="edge22" class="edge"><title>Node16&#45;&gt;Node15</title>
<path fill="none" stroke="midnightblue" d="M654.782,-397.237C674.242,-403.037 701.793,-411.248 723.536,-417.728"/>
<polygon fill="midnightblue" stroke="midnightblue" points="722.791,-421.158 733.374,-420.661 724.791,-414.45 722.791,-421.158"/>
</g>
<!-- Node18&#45;&gt;Node13 -->
<g id="edge26" class="edge"><title>Node18&#45;&gt;Node13</title>
<path fill="none" stroke="midnightblue" d="M505.22,-306.126C530.193,-300.023 564.844,-291.556 591.051,-285.151"/>
<polygon fill="midnightblue" stroke="midnightblue" points="592.116,-288.494 600.999,-282.72 590.454,-281.694 592.116,-288.494"/>
</g>
<!-- Node18&#45;&gt;Node16 -->
<g id="edge27" class="edge"><title>Node18&#45;&gt;Node16</title>
<path fill="none" stroke="midnightblue" d="M505.102,-322.174C514.889,-325.106 525.553,-328.754 535,-333 560.929,-344.654 588.468,-362.141 606.889,-374.671"/>
<polygon fill="midnightblue" stroke="midnightblue" points="604.935,-377.575 615.153,-380.376 608.912,-371.814 604.935,-377.575"/>
</g>
<!-- Node19&#45;&gt;Node17 -->
<g id="edge29" class="edge"><title>Node19&#45;&gt;Node17</title>
<path fill="none" stroke="midnightblue" d="M354.365,-228.411C374.951,-223.396 400.34,-217.212 422.169,-211.895"/>
<polygon fill="midnightblue" stroke="midnightblue" points="423.03,-215.287 431.918,-209.52 421.373,-208.486 423.03,-215.287"/>
</g>
<!-- Node19&#45;&gt;Node18 -->
<g id="edge30" class="edge"><title>Node19&#45;&gt;Node18</title>
<path fill="none" stroke="midnightblue" d="M334.758,-247.625C361.952,-260.874 411.09,-284.813 442.327,-300.031"/>
<polygon fill="midnightblue" stroke="midnightblue" points="440.88,-303.219 451.403,-304.453 443.946,-296.926 440.88,-303.219"/>
</g>
<!-- Node20&#45;&gt;Node12 -->
<g id="edge32" class="edge"><title>Node20&#45;&gt;Node12</title>
<path fill="none" stroke="midnightblue" d="M299.861,-209.518C287.626,-214.325 269.193,-219.527 255,-228 240.705,-236.534 227.058,-249.02 216.401,-259.298"/>
<polygon fill="midnightblue" stroke="midnightblue" points="213.928,-256.821 209.203,-266.304 218.81,-261.837 213.928,-256.821"/>
</g>
<!-- Node21&#45;&gt;Node18 -->
<g id="edge35" class="edge"><title>Node21&#45;&gt;Node18</title>
<path fill="none" stroke="midnightblue" d="M342.173,-345.381C366.119,-339.548 401.386,-330.957 428.968,-324.238"/>
<polygon fill="midnightblue" stroke="midnightblue" points="429.86,-327.624 438.748,-321.856 428.203,-320.823 429.86,-327.624"/>
</g>
<!-- Node22 -->
<g id="node22" class="node"><title>Node22</title>
<g id="a_node22"><a xlink:href="settings_8cpp.html#a7b4efa097b94f9a90c5bbafcdf93fe4f" target="_top" xlink:title="getUptime">
<polygon fill="white" stroke="black" points="441,-342.5 441,-361.5 503,-361.5 503,-342.5 441,-342.5"/>
<text text-anchor="middle" x="472" y="-349.5" font-family="Helvetica,sans-Serif" font-size="10.00">getUptime</text>
</a>
</g>
</g>
<!-- Node21&#45;&gt;Node22 -->
<g id="edge34" class="edge"><title>Node21&#45;&gt;Node22</title>
<path fill="none" stroke="midnightblue" d="M342.173,-352C366.633,-352 402.905,-352 430.735,-352"/>
<polygon fill="midnightblue" stroke="midnightblue" points="430.945,-355.5 440.945,-352 430.945,-348.5 430.945,-355.5"/>
</g>
<!-- Node24 -->
<g id="node24" class="node"><title>Node24</title>
<g id="a_node24"><a xlink:href="class_voltage_monitor.html#a70902b84f9864c95d5553a0644a64f4f" target="_top" xlink:title="Return the latest voltage reading. ">
<polygon fill="white" stroke="black" points="409,-76.5 409,-95.5 535,-95.5 535,-76.5 409,-76.5"/>
<text text-anchor="middle" x="472" y="-83.5" font-family="Helvetica,sans-Serif" font-size="10.00">VoltageMonitor::getValue</text>
</a>
</g>
</g>
<!-- Node23&#45;&gt;Node24 -->
<g id="edge37" class="edge"><title>Node23&#45;&gt;Node24</title>
<path fill="none" stroke="midnightblue" d="M351.182,-86C365.344,-86 382.117,-86 398.56,-86"/>
<polygon fill="midnightblue" stroke="midnightblue" points="398.728,-89.5001 408.728,-86 398.728,-82.5001 398.728,-89.5001"/>
</g>
<!-- Node25 -->
<g id="node25" class="node"><title>Node25</title>
<g id="a_node25"><a xlink:href="actions_8cpp.html#a2b8c3769e2aa32a2da9e2f3f85ac73dd" target="_top" xlink:title="A sample ADC reading is taken each time through the main loop, and written to a ring buffer...">
<polygon fill="white" stroke="black" points="573.5,-114.5 573.5,-133.5 685.5,-133.5 685.5,-114.5 573.5,-114.5"/>
<text text-anchor="middle" x="629.5" y="-121.5" font-family="Helvetica,sans-Serif" font-size="10.00">getVoltagePollInterval</text>
</a>
</g>
</g>
<!-- Node24&#45;&gt;Node25 -->
<g id="edge38" class="edge"><title>Node24&#45;&gt;Node25</title>
<path fill="none" stroke="midnightblue" d="M512.239,-95.589C532.759,-100.604 558.067,-106.788 579.825,-112.105"/>
<polygon fill="midnightblue" stroke="midnightblue" points="578.998,-115.506 589.543,-114.48 580.66,-108.706 578.998,-115.506"/>
</g>
<!-- Node26 -->
<g id="node26" class="node"><title>Node26</title>
<g id="a_node26"><a xlink:href="class_voltage_monitor.html#a75871331808c34b40d04059ee2af0f27" target="_top" xlink:title="Filter and scale raw ADC values to millivolts. ">
<polygon fill="white" stroke="black" points="571,-76.5 571,-95.5 688,-95.5 688,-76.5 571,-76.5"/>
<text text-anchor="middle" x="629.5" y="-83.5" font-family="Helvetica,sans-Serif" font-size="10.00">VoltageMonitor::update</text>
</a>
</g>
</g>
<!-- Node24&#45;&gt;Node26 -->
<g id="edge39" class="edge"><title>Node24&#45;&gt;Node26</title>
<path fill="none" stroke="midnightblue" d="M535.352,-86C543.702,-86 552.298,-86 560.735,-86"/>
<polygon fill="midnightblue" stroke="midnightblue" points="560.92,-89.5001 570.92,-86 560.92,-82.5001 560.92,-89.5001"/>
</g>
<!-- Node27&#45;&gt;Node13 -->
<g id="edge41" class="edge"><title>Node27&#45;&gt;Node13</title>
<path fill="none" stroke="midnightblue" d="M504.555,-168.418C514.731,-171.32 525.76,-175.394 535,-181 568.757,-201.482 599.051,-236.863 615.502,-258.184"/>
<polygon fill="midnightblue" stroke="midnightblue" points="612.862,-260.496 621.675,-266.376 618.453,-256.283 612.862,-260.496"/>
</g>
</g>
</svg>
