<?xml version="1.0" encoding="UTF-8" standalone="no"?>
<!DOCTYPE svg PUBLIC "-//W3C//DTD SVG 1.1//EN"
 "http://www.w3.org/Graphics/SVG/1.1/DTD/svg11.dtd">
<!-- Generated by graphviz version 2.38.0 (20140413.2041)
 -->
<!-- Title: txLetter Pages: 1 -->
<svg width="996pt" height="486pt"
 viewBox="0.00 0.00 996.00 485.94" xmlns="http://www.w3.org/2000/svg" xmlns:xlink="http://www.w3.org/1999/xlink">
<g id="graph0" class="graph" transform="scale(1 1) rotate(0) translate(4 481.939)">
<title>txLetter</title>
<polygon fill="white" stroke="none" points="-4,4 -4,-481.939 992,-481.939 992,4 -4,4"/>
<!-- Node1 -->
<g id="node1" class="node"><title>Node1</title>
<polygon fill="#bfbfbf" stroke="black" points="0,-144.439 0,-163.439 50,-163.439 50,-144.439 0,-144.439"/>
<text text-anchor="middle" x="25" y="-151.439" font-family="Helvetica,sans-Serif" font-size="10.00">txLetter</text>
</g>
<!-- Node2 -->
<g id="node2" class="node"><title>Node2</title>
<g id="a_node2"><a xlink:href="libmorse_8cpp.html#a9fdfce728595d72b78dc7c834ab99a40" target="_top" xlink:title="Transmit a literal Morse code value. ">
<polygon fill="white" stroke="black" points="86,-211.439 86,-230.439 137,-230.439 137,-211.439 86,-211.439"/>
<text text-anchor="middle" x="111.5" y="-218.439" font-family="Helvetica,sans-Serif" font-size="10.00">txLiteral</text>
</a>
</g>
</g>
<!-- Node1&#45;&gt;Node2 -->
<g id="edge1" class="edge"><title>Node1&#45;&gt;Node2</title>
<path fill="none" stroke="midnightblue" d="M38.1068,-163.538C51.7858,-174.384 74.2609,-192.205 90.5443,-205.116"/>
<polygon fill="midnightblue" stroke="midnightblue" points="88.4053,-207.886 98.4157,-211.357 92.7544,-202.401 88.4053,-207.886"/>
</g>
<!-- Node12 -->
<g id="node12" class="node"><title>Node12</title>
<g id="a_node12"><a xlink:href="libmorse_8cpp.html#ab94e088615119d1faae7df22ce50aedf" target="_top" xlink:title="Transmit a Morse code prosign indicating an error. ">
<polygon fill="white" stroke="black" points="198.5,-2.43862 198.5,-21.4386 244.5,-21.4386 244.5,-2.43862 198.5,-2.43862"/>
<text text-anchor="middle" x="221.5" y="-9.43862" font-family="Helvetica,sans-Serif" font-size="10.00">txError</text>
</a>
</g>
</g>
<!-- Node1&#45;&gt;Node12 -->
<g id="edge38" class="edge"><title>Node1&#45;&gt;Node12</title>
<path fill="none" stroke="midnightblue" d="M36.4742,-144.238C59.7907,-122.943 118.246,-71.1984 173,-35.9386 178.404,-32.4588 184.378,-29.0981 190.214,-26.0486"/>
<polygon fill="midnightblue" stroke="midnightblue" points="191.81,-29.1635 199.168,-21.5405 188.662,-22.9111 191.81,-29.1635"/>
</g>
<!-- Node3 -->
<g id="node3" class="node"><title>Node3</title>
<g id="a_node3"><a xlink:href="class_morse_token.html#a48cd72aeb868391449d1f51c1d0bf5cc" target="_top" xlink:title="Treat code == 0 as the error token. ">
<polygon fill="white" stroke="black" points="173,-306.439 173,-325.439 270,-325.439 270,-306.439 173,-306.439"/>
<text text-anchor="middle" x="221.5" y="-313.439" font-family="Helvetica,sans-Serif" font-size="10.00">MorseToken::valid</text>
</a>
</g>
</g>
<!-- Node2&#45;&gt;Node3 -->
<g id="edge2" class="edge"><title>Node2&#45;&gt;Node3</title>
<path fill="none" stroke="midnightblue" d="M117.951,-230.679C127.298,-246.581 147.83,-278.219 173,-296.939 175.338,-298.678 177.858,-300.283 180.473,-301.761"/>
<polygon fill="midnightblue" stroke="midnightblue" points="179.1,-304.986 189.613,-306.3 182.213,-298.717 179.1,-304.986"/>
</g>
<!-- Node4 -->
<g id="node4" class="node"><title>Node4</title>
<g id="a_node4"><a xlink:href="teensy3__morse__bsp_8cpp.html#af66e71e3fac9b6a2c6532bc8a513bfde" target="_top" xlink:title="Output a square wave on pin 10 at the given frequency for the given duration. ">
<polygon fill="white" stroke="black" points="202.5,-268.439 202.5,-287.439 240.5,-287.439 240.5,-268.439 202.5,-268.439"/>
<text text-anchor="middle" x="221.5" y="-275.439" font-family="Helvetica,sans-Serif" font-size="10.00">beep</text>
</a>
</g>
</g>
<!-- Node2&#45;&gt;Node4 -->
<g id="edge3" class="edge"><title>Node2&#45;&gt;Node4</title>
<path fill="none" stroke="midnightblue" d="M126.499,-230.749C138.497,-238.905 156.418,-250.502 173,-258.939 179.13,-262.058 185.898,-265.028 192.356,-267.655"/>
<polygon fill="midnightblue" stroke="midnightblue" points="191.528,-271.089 202.116,-271.471 194.077,-264.569 191.528,-271.089"/>
</g>
<!-- Node10 -->
<g id="node10" class="node"><title>Node10</title>
<g id="a_node10"><a xlink:href="settings_8cpp.html#a8575b9b52638114a4f32d1462cf9b7c1" target="_top" xlink:title="Get the transmission frequency (side tone). ">
<polygon fill="white" stroke="black" points="194.5,-230.439 194.5,-249.439 248.5,-249.439 248.5,-230.439 194.5,-230.439"/>
<text text-anchor="middle" x="221.5" y="-237.439" font-family="Helvetica,sans-Serif" font-size="10.00">getTxHz</text>
</a>
</g>
</g>
<!-- Node2&#45;&gt;Node10 -->
<g id="edge9" class="edge"><title>Node2&#45;&gt;Node10</title>
<path fill="none" stroke="midnightblue" d="M137.007,-225.25C150.862,-227.688 168.454,-230.782 183.913,-233.502"/>
<polygon fill="midnightblue" stroke="midnightblue" points="183.748,-237.027 194.203,-235.312 184.961,-230.133 183.748,-237.027"/>
</g>
<!-- Node11 -->
<g id="node11" class="node"><title>Node11</title>
<g id="a_node11"><a xlink:href="settings_8cpp.html#a960551e90dfdad18f3c9b1338ccba7db" target="_top" xlink:title="Get the dit duration in microseconds. ">
<polygon fill="white" stroke="black" points="472,-420.439 472,-439.439 544,-439.439 544,-420.439 472,-420.439"/>
<text text-anchor="middle" x="508" y="-427.439" font-family="Helvetica,sans-Serif" font-size="10.00">getDitMicros</text>
</a>
</g>
</g>
<!-- Node2&#45;&gt;Node11 -->
<g id="edge10" class="edge"><title>Node2&#45;&gt;Node11</title>
<path fill="none" stroke="midnightblue" d="M115.185,-230.561C121.647,-252.083 140.025,-304.594 173,-334.939 254.436,-409.88 390.828,-426.193 461.483,-429.425"/>
<polygon fill="midnightblue" stroke="midnightblue" points="461.7,-432.935 471.828,-429.825 461.971,-425.941 461.7,-432.935"/>
</g>
<!-- Node2&#45;&gt;Node12 -->
<g id="edge11" class="edge"><title>Node2&#45;&gt;Node12</title>
<path fill="none" stroke="midnightblue" d="M113.111,-211.239C115.467,-181.493 126.33,-90.2899 173,-35.9386 177.345,-30.8784 183.017,-26.7637 188.921,-23.4635"/>
<polygon fill="midnightblue" stroke="midnightblue" points="190.775,-26.4537 198.234,-18.9293 187.711,-20.16 190.775,-26.4537"/>
</g>
<!-- Node5 -->
<g id="node5" class="node"><title>Node5</title>
<g id="a_node5"><a xlink:href="teensy3__morse__bsp_8cpp.html#a6f674d5b9985ea3a7eeb0df299c2e405" target="_top" xlink:title="pollEarphonePresent">
<polygon fill="white" stroke="black" points="306,-230.439 306,-249.439 413,-249.439 413,-230.439 306,-230.439"/>
<text text-anchor="middle" x="359.5" y="-237.439" font-family="Helvetica,sans-Serif" font-size="10.00">pollEarphonePresent</text>
</a>
</g>
</g>
<!-- Node4&#45;&gt;Node5 -->
<g id="edge4" class="edge"><title>Node4&#45;&gt;Node5</title>
<path fill="none" stroke="midnightblue" d="M240.56,-272.893C259.377,-267.635 289.566,-259.2 314.689,-252.18"/>
<polygon fill="midnightblue" stroke="midnightblue" points="315.699,-255.532 324.388,-249.47 313.815,-248.79 315.699,-255.532"/>
</g>
<!-- Node6 -->
<g id="node6" class="node"><title>Node6</title>
<g id="a_node6"><a xlink:href="teensy3__morse__bsp_8cpp.html#a2d6b4ace33ed5e497dedd03217540c63" target="_top" xlink:title="Set the PWM frequency for the audio output pins. ">
<polygon fill="white" stroke="black" points="318,-306.439 318,-325.439 401,-325.439 401,-306.439 318,-306.439"/>
<text text-anchor="middle" x="359.5" y="-313.439" font-family="Helvetica,sans-Serif" font-size="10.00">pwmFrequency</text>
</a>
</g>
</g>
<!-- Node4&#45;&gt;Node6 -->
<g id="edge5" class="edge"><title>Node4&#45;&gt;Node6</title>
<path fill="none" stroke="midnightblue" d="M240.56,-282.985C259.377,-288.243 289.566,-296.678 314.689,-303.697"/>
<polygon fill="midnightblue" stroke="midnightblue" points="313.815,-307.087 324.388,-306.407 315.699,-300.345 313.815,-307.087"/>
</g>
<!-- Node7 -->
<g id="node7" class="node"><title>Node7</title>
<g id="a_node7"><a xlink:href="teensy3__morse__bsp_8cpp.html#a82911eac3bf13d6f36d10102a4c4d3c4" target="_top" xlink:title="Generate a tone on the audio output pins. ">
<polygon fill="white" stroke="black" points="329,-363.439 329,-382.439 390,-382.439 390,-363.439 329,-363.439"/>
<text text-anchor="middle" x="359.5" y="-370.439" font-family="Helvetica,sans-Serif" font-size="10.00">pwmWrite</text>
</a>
</g>
</g>
<!-- Node4&#45;&gt;Node7 -->
<g id="edge6" class="edge"><title>Node4&#45;&gt;Node7</title>
<path fill="none" stroke="midnightblue" d="M240.55,-283.103C249.827,-286.252 261.035,-290.852 270,-296.939 289.247,-310.007 288.502,-319.608 306,-334.939 315.107,-342.918 325.834,-350.903 335.21,-357.48"/>
<polygon fill="midnightblue" stroke="midnightblue" points="333.465,-360.527 343.689,-363.307 337.43,-354.758 333.465,-360.527"/>
</g>
<!-- Node9 -->
<g id="node9" class="node"><title>Node9</title>
<g id="a_node9"><a xlink:href="teensy3__morse__bsp_8cpp.html#a6c982a7d7805f1dd5426eb98c915cfdd" target="_top" xlink:title="Turn the red LED on (1) or off (0). ">
<polygon fill="white" stroke="black" points="334.5,-268.439 334.5,-287.439 384.5,-287.439 384.5,-268.439 334.5,-268.439"/>
<text text-anchor="middle" x="359.5" y="-275.439" font-family="Helvetica,sans-Serif" font-size="10.00">redLED</text>
</a>
</g>
</g>
<!-- Node4&#45;&gt;Node9 -->
<g id="edge8" class="edge"><title>Node4&#45;&gt;Node9</title>
<path fill="none" stroke="midnightblue" d="M240.56,-277.939C261.865,-277.939 297.747,-277.939 324.35,-277.939"/>
<polygon fill="midnightblue" stroke="midnightblue" points="324.398,-281.439 334.398,-277.939 324.398,-274.439 324.398,-281.439"/>
</g>
<!-- Node8 -->
<g id="node8" class="node"><title>Node8</title>
<g id="a_node8"><a xlink:href="teensy3__morse__bsp_8cpp.html#ac70998cee1bf97f00aec4a1b4e5a4f60" target="_top" xlink:title="isEarphonePresent">
<polygon fill="white" stroke="black" points="458.5,-458.439 458.5,-477.439 557.5,-477.439 557.5,-458.439 458.5,-458.439"/>
<text text-anchor="middle" x="508" y="-465.439" font-family="Helvetica,sans-Serif" font-size="10.00">isEarphonePresent</text>
</a>
</g>
</g>
<!-- Node7&#45;&gt;Node8 -->
<g id="edge7" class="edge"><title>Node7&#45;&gt;Node8</title>
<path fill="none" stroke="midnightblue" d="M369.131,-382.474C383.991,-398.365 416.004,-430.349 449,-448.939 452.739,-451.045 456.746,-452.96 460.844,-454.693"/>
<polygon fill="midnightblue" stroke="midnightblue" points="459.894,-458.078 470.484,-458.406 462.41,-451.545 459.894,-458.078"/>
</g>
<!-- Node13 -->
<g id="node13" class="node"><title>Node13</title>
<g id="a_node13"><a xlink:href="libmorse_8cpp.html#a0ee2308940264ea9ac8e50afc1a4d285" target="_top" xlink:title="txString">
<polygon fill="white" stroke="black" points="334.5,-192.439 334.5,-211.439 384.5,-211.439 384.5,-192.439 334.5,-192.439"/>
<text text-anchor="middle" x="359.5" y="-199.439" font-family="Helvetica,sans-Serif" font-size="10.00">txString</text>
</a>
</g>
</g>
<!-- Node12&#45;&gt;Node13 -->
<g id="edge12" class="edge"><title>Node12&#45;&gt;Node13</title>
<path fill="none" stroke="midnightblue" d="M229.431,-21.622C250.979,-51.7259 317.045,-144.023 345.376,-183.603"/>
<polygon fill="midnightblue" stroke="midnightblue" points="342.753,-185.953 351.42,-192.047 348.445,-181.878 342.753,-185.953"/>
</g>
<!-- Node13&#45;&gt;Node2 -->
<g id="edge16" class="edge"><title>Node13&#45;&gt;Node2</title>
<path fill="none" stroke="midnightblue" d="M334.222,-203.814C290.46,-207.194 198.205,-214.319 147.58,-218.229"/>
<polygon fill="midnightblue" stroke="midnightblue" points="147.142,-214.752 137.442,-219.012 147.681,-221.732 147.142,-214.752"/>
</g>
<!-- Node13&#45;&gt;Node11 -->
<g id="edge15" class="edge"><title>Node13&#45;&gt;Node11</title>
<path fill="none" stroke="midnightblue" d="M384.696,-205.295C394.837,-207.92 405.899,-212.599 413,-220.939 468.723,-286.374 392.28,-346.365 449,-410.939 452.715,-415.168 457.386,-418.46 462.456,-421.022"/>
<polygon fill="midnightblue" stroke="midnightblue" points="461.312,-424.336 471.893,-424.889 463.967,-417.859 461.312,-424.336"/>
</g>
<!-- Node14 -->
<g id="node14" class="node"><title>Node14</title>
<g id="a_node14"><a xlink:href="teensy3__morse__bsp_8cpp.html#ab306f692c5c9455a0c82782a67ff0147" target="_top" xlink:title="touchPoll">
<polygon fill="white" stroke="black" points="795,-306.439 795,-325.439 852,-325.439 852,-306.439 795,-306.439"/>
<text text-anchor="middle" x="823.5" y="-313.439" font-family="Helvetica,sans-Serif" font-size="10.00">touchPoll</text>
</a>
</g>
</g>
<!-- Node13&#45;&gt;Node14 -->
<g id="edge13" class="edge"><title>Node13&#45;&gt;Node14</title>
<path fill="none" stroke="midnightblue" d="M384.689,-205.936C394.585,-208.675 405.457,-213.266 413,-220.939 447.587,-256.117 409.71,-296.105 449,-325.939 551.419,-403.707 719.203,-355.028 789.69,-329.108"/>
<polygon fill="midnightblue" stroke="midnightblue" points="791.239,-332.265 799.365,-325.467 788.773,-325.714 791.239,-332.265"/>
</g>
<!-- Node16 -->
<g id="node16" class="node"><title>Node16</title>
<g id="a_node16"><a xlink:href="libmorse_8cpp.html#acd4b292f5e412ee4f05aed9dafbc072d" target="_top" xlink:title="Convert an ASCII character into Morse code and transmit it. ">
<polygon fill="white" stroke="black" points="798.5,-78.4386 798.5,-97.4386 848.5,-97.4386 848.5,-78.4386 798.5,-78.4386"/>
<text text-anchor="middle" x="823.5" y="-85.4386" font-family="Helvetica,sans-Serif" font-size="10.00">txLetter</text>
</a>
</g>
</g>
<!-- Node13&#45;&gt;Node16 -->
<g id="edge17" class="edge"><title>Node13&#45;&gt;Node16</title>
<path fill="none" stroke="midnightblue" d="M384.761,-193.685C402.458,-187.806 427.079,-179.92 449,-173.939 573.001,-140.105 722.524,-108.366 788.453,-94.8234"/>
<polygon fill="midnightblue" stroke="midnightblue" points="789.205,-98.2423 798.3,-92.8087 787.802,-91.3844 789.205,-98.2423"/>
</g>
<!-- Node17 -->
<g id="node17" class="node"><title>Node17</title>
<g id="a_node17"><a xlink:href="teensy3__morse__bsp_8cpp.html#a8761e874366e227690fba2964e1bc445" target="_top" xlink:title="getInternalTemperatureC">
<polygon fill="white" stroke="black" points="603.5,-173.439 603.5,-192.439 728.5,-192.439 728.5,-173.439 603.5,-173.439"/>
<text text-anchor="middle" x="666" y="-180.439" font-family="Helvetica,sans-Serif" font-size="10.00">getInternalTemperatureC</text>
</a>
</g>
</g>
<!-- Node13&#45;&gt;Node17 -->
<g id="edge20" class="edge"><title>Node13&#45;&gt;Node17</title>
<path fill="none" stroke="midnightblue" d="M384.693,-195.297C402.357,-190.804 426.966,-185.277 449,-182.939 496.886,-177.856 551.08,-177.873 593.205,-179.151"/>
<polygon fill="midnightblue" stroke="midnightblue" points="593.257,-182.655 603.368,-179.491 593.491,-175.659 593.257,-182.655"/>
</g>
<!-- Node18 -->
<g id="node18" class="node"><title>Node18</title>
<g id="a_node18"><a xlink:href="libmorse_8cpp.html#a47abdd74b66d7180c47d192bab8bdccb" target="_top" xlink:title="Transmit an unsigned integer in Morse code. ">
<polygon fill="white" stroke="black" points="633,-230.439 633,-249.439 699,-249.439 699,-230.439 633,-230.439"/>
<text text-anchor="middle" x="666" y="-237.439" font-family="Helvetica,sans-Serif" font-size="10.00">txUnsigned</text>
</a>
</g>
</g>
<!-- Node13&#45;&gt;Node18 -->
<g id="edge21" class="edge"><title>Node13&#45;&gt;Node18</title>
<path fill="none" stroke="midnightblue" d="M384.768,-207.997C402.468,-212.208 427.09,-217.636 449,-220.939 508.837,-229.958 578.692,-235.142 622.393,-237.751"/>
<polygon fill="midnightblue" stroke="midnightblue" points="622.463,-241.261 632.649,-238.344 622.868,-234.272 622.463,-241.261"/>
</g>
<!-- Node19 -->
<g id="node19" class="node"><title>Node19</title>
<g id="a_node19"><a xlink:href="actions_8cpp.html#aed718ec1bd4cc7adb2f65d40a6784496" target="_top" xlink:title="Transmit the internal temperature in integer in Fahrenheit. ">
<polygon fill="white" stroke="black" points="449,-192.439 449,-211.439 567,-211.439 567,-192.439 449,-192.439"/>
<text text-anchor="middle" x="508" y="-199.439" font-family="Helvetica,sans-Serif" font-size="10.00">txInternalTemperatureF</text>
</a>
</g>
</g>
<!-- Node13&#45;&gt;Node19 -->
<g id="edge24" class="edge"><title>Node13&#45;&gt;Node19</title>
<path fill="none" stroke="midnightblue" d="M384.691,-201.939C399.571,-201.939 419.448,-201.939 438.847,-201.939"/>
<polygon fill="midnightblue" stroke="midnightblue" points="438.919,-205.439 448.919,-201.939 438.918,-198.439 438.919,-205.439"/>
</g>
<!-- Node20 -->
<g id="node20" class="node"><title>Node20</title>
<g id="a_node20"><a xlink:href="actions_8cpp.html#aaabb3ac0c23f35a499bc17efe829f326" target="_top" xlink:title="Transmit the 24&#45;hr time. ">
<polygon fill="white" stroke="black" points="469,-78.4386 469,-97.4386 547,-97.4386 547,-78.4386 469,-78.4386"/>
<text text-anchor="middle" x="508" y="-85.4386" font-family="Helvetica,sans-Serif" font-size="10.00">txTimeHHMM</text>
</a>
</g>
</g>
<!-- Node13&#45;&gt;Node20 -->
<g id="edge27" class="edge"><title>Node13&#45;&gt;Node20</title>
<path fill="none" stroke="midnightblue" d="M364.513,-192.438C376.068,-172.325 411.022,-128.537 449,-102.939 452.311,-100.707 455.862,-98.6225 459.518,-96.7151"/>
<polygon fill="midnightblue" stroke="midnightblue" points="461.194,-99.794 468.739,-92.3559 458.202,-93.4655 461.194,-99.794"/>
</g>
<!-- Node21 -->
<g id="node21" class="node"><title>Node21</title>
<g id="a_node21"><a xlink:href="actions_8cpp.html#ad02149679fa3cc6a4957d1a318408ffd" target="_top" xlink:title="Transmit the uptime. ">
<polygon fill="white" stroke="black" points="480,-268.439 480,-287.439 536,-287.439 536,-268.439 480,-268.439"/>
<text text-anchor="middle" x="508" y="-275.439" font-family="Helvetica,sans-Serif" font-size="10.00">txUptime</text>
</a>
</g>
</g>
<!-- Node13&#45;&gt;Node21 -->
<g id="edge29" class="edge"><title>Node13&#45;&gt;Node21</title>
<path fill="none" stroke="midnightblue" d="M384.663,-208.468C393.898,-211.522 404.295,-215.666 413,-220.939 431.565,-232.183 430.693,-242.278 449,-253.939 455.509,-258.084 462.854,-261.773 470.076,-264.94"/>
<polygon fill="midnightblue" stroke="midnightblue" points="469.177,-268.355 479.757,-268.929 471.845,-261.883 469.177,-268.355"/>
</g>
<!-- Node23 -->
<g id="node23" class="node"><title>Node23</title>
<g id="a_node23"><a xlink:href="teensy3__morse__bsp_8cpp.html#ae8dd28759e56dbd2ee9bc9ae96d1783c" target="_top" xlink:title="Return the most recent ADC measurement of the input voltage. Perform analog to digital conversion on ...">
<polygon fill="white" stroke="black" points="471,-382.439 471,-401.439 545,-401.439 545,-382.439 471,-382.439"/>
<text text-anchor="middle" x="508" y="-389.439" font-family="Helvetica,sans-Serif" font-size="10.00">readMillivolts</text>
</a>
</g>
</g>
<!-- Node13&#45;&gt;Node23 -->
<g id="edge32" class="edge"><title>Node13&#45;&gt;Node23</title>
<path fill="none" stroke="midnightblue" d="M384.76,-205.544C394.79,-208.216 405.745,-212.862 413,-220.939 457.95,-270.978 405.19,-316.898 449,-367.939 452.593,-372.125 457.033,-375.594 461.845,-378.466"/>
<polygon fill="midnightblue" stroke="midnightblue" points="460.304,-381.609 470.805,-383.016 463.474,-375.367 460.304,-381.609"/>
</g>
<!-- Node27 -->
<g id="node27" class="node"><title>Node27</title>
<g id="a_node27"><a xlink:href="libmorse_8cpp.html#ac3f000c98271c6d0a7710135e18189bc" target="_top" xlink:title="On my hardware there is cross&#45;coupling between the serial port and the touch sensors. Without the code below, long messages to the serial port trigger a touch input. ">
<polygon fill="white" stroke="black" points="633.5,-306.439 633.5,-325.439 698.5,-325.439 698.5,-306.439 633.5,-306.439"/>
<text text-anchor="middle" x="666" y="-313.439" font-family="Helvetica,sans-Serif" font-size="10.00">flushTouch</text>
</a>
</g>
</g>
<!-- Node13&#45;&gt;Node27 -->
<g id="edge36" class="edge"><title>Node13&#45;&gt;Node27</title>
<path fill="none" stroke="midnightblue" d="M384.552,-206.431C394.308,-209.25 405.111,-213.766 413,-220.939 440.655,-246.081 418.324,-275.586 449,-296.939 500.417,-332.728 576.261,-330.016 623.048,-323.735"/>
<polygon fill="midnightblue" stroke="midnightblue" points="623.751,-327.17 633.142,-322.264 622.741,-320.243 623.751,-327.17"/>
</g>
<!-- Node15 -->
<g id="node15" class="node"><title>Node15</title>
<g id="a_node15"><a xlink:href="teensy3__morse__bsp_8cpp.html#af6899cd9b83df54106b259ab81ea5cb2" target="_top" xlink:title="touchMargin">
<polygon fill="white" stroke="black" points="918,-306.439 918,-325.439 988,-325.439 988,-306.439 918,-306.439"/>
<text text-anchor="middle" x="953" y="-313.439" font-family="Helvetica,sans-Serif" font-size="10.00">touchMargin</text>
</a>
</g>
</g>
<!-- Node14&#45;&gt;Node15 -->
<g id="edge14" class="edge"><title>Node14&#45;&gt;Node15</title>
<path fill="none" stroke="midnightblue" d="M852.166,-315.939C868.281,-315.939 888.984,-315.939 907.355,-315.939"/>
<polygon fill="midnightblue" stroke="midnightblue" points="907.562,-319.439 917.562,-315.939 907.562,-312.439 907.562,-319.439"/>
</g>
<!-- Node16&#45;&gt;Node2 -->
<g id="edge18" class="edge"><title>Node16&#45;&gt;Node2</title>
<path fill="none" stroke="midnightblue" d="M798.232,-82.9708C745.726,-72.6704 617.554,-49.9386 509,-49.9386 358.5,-49.9386 358.5,-49.9386 358.5,-49.9386 251.933,-49.9386 158.374,-159.469 125.26,-203.209"/>
<polygon fill="midnightblue" stroke="midnightblue" points="122.439,-201.138 119.292,-211.255 128.061,-205.308 122.439,-201.138"/>
</g>
<!-- Node16&#45;&gt;Node12 -->
<g id="edge19" class="edge"><title>Node16&#45;&gt;Node12</title>
<path fill="none" stroke="midnightblue" d="M809.731,-78.2893C792.475,-65.8723 760.262,-44.8418 729,-35.9386 555.803,13.3873 335.986,-0.793016 254.648,-8.4823"/>
<polygon fill="midnightblue" stroke="midnightblue" points="254.157,-5.01353 244.546,-9.47241 254.84,-11.9801 254.157,-5.01353"/>
</g>
<!-- Node18&#45;&gt;Node14 -->
<g id="edge22" class="edge"><title>Node18&#45;&gt;Node14</title>
<path fill="none" stroke="midnightblue" d="M699.102,-248.113C708.889,-251.044 719.553,-254.692 729,-258.939 754.929,-270.593 782.468,-288.08 800.889,-300.609"/>
<polygon fill="midnightblue" stroke="midnightblue" points="798.935,-303.513 809.153,-306.315 802.912,-297.753 798.935,-303.513"/>
</g>
<!-- Node18&#45;&gt;Node16 -->
<g id="edge23" class="edge"><title>Node18&#45;&gt;Node16</title>
<path fill="none" stroke="midnightblue" d="M686.284,-230.306C699.122,-223.386 715.961,-213.302 729,-201.939 762.73,-172.542 793.99,-130.14 810.427,-106.199"/>
<polygon fill="midnightblue" stroke="midnightblue" points="813.461,-107.96 816.16,-97.7143 807.661,-104.04 813.461,-107.96"/>
</g>
<!-- Node19&#45;&gt;Node17 -->
<g id="edge25" class="edge"><title>Node19&#45;&gt;Node17</title>
<path fill="none" stroke="midnightblue" d="M567.089,-194.864C575.711,-193.814 584.682,-192.721 593.54,-191.642"/>
<polygon fill="midnightblue" stroke="midnightblue" points="593.964,-195.116 603.467,-190.433 593.117,-188.168 593.964,-195.116"/>
</g>
<!-- Node19&#45;&gt;Node18 -->
<g id="edge26" class="edge"><title>Node19&#45;&gt;Node18</title>
<path fill="none" stroke="midnightblue" d="M548.365,-211.528C571.167,-217.082 599.861,-224.072 623.083,-229.728"/>
<polygon fill="midnightblue" stroke="midnightblue" points="622.451,-233.176 632.996,-232.143 624.108,-226.375 622.451,-233.176"/>
</g>
<!-- Node20&#45;&gt;Node13 -->
<g id="edge28" class="edge"><title>Node20&#45;&gt;Node13</title>
<path fill="none" stroke="midnightblue" d="M496.097,-97.5491C483.935,-103.738 464.001,-110.828 449,-120.939 421.896,-139.207 396.333,-166.74 379.716,-184.76"/>
<polygon fill="midnightblue" stroke="midnightblue" points="376.959,-182.585 372.737,-192.303 382.097,-187.339 376.959,-182.585"/>
</g>
<!-- Node21&#45;&gt;Node18 -->
<g id="edge31" class="edge"><title>Node21&#45;&gt;Node18</title>
<path fill="none" stroke="midnightblue" d="M536.173,-271.32C560.119,-265.487 595.386,-256.896 622.968,-250.177"/>
<polygon fill="midnightblue" stroke="midnightblue" points="623.86,-253.562 632.748,-247.795 622.203,-246.761 623.86,-253.562"/>
</g>
<!-- Node22 -->
<g id="node22" class="node"><title>Node22</title>
<g id="a_node22"><a xlink:href="settings_8cpp.html#a7b4efa097b94f9a90c5bbafcdf93fe4f" target="_top" xlink:title="getUptime">
<polygon fill="white" stroke="black" points="635,-268.439 635,-287.439 697,-287.439 697,-268.439 635,-268.439"/>
<text text-anchor="middle" x="666" y="-275.439" font-family="Helvetica,sans-Serif" font-size="10.00">getUptime</text>
</a>
</g>
</g>
<!-- Node21&#45;&gt;Node22 -->
<g id="edge30" class="edge"><title>Node21&#45;&gt;Node22</title>
<path fill="none" stroke="midnightblue" d="M536.173,-277.939C560.633,-277.939 596.905,-277.939 624.735,-277.939"/>
<polygon fill="midnightblue" stroke="midnightblue" points="624.945,-281.439 634.945,-277.939 624.945,-274.439 624.945,-281.439"/>
</g>
<!-- Node24 -->
<g id="node24" class="node"><title>Node24</title>
<g id="a_node24"><a xlink:href="class_voltage_monitor.html#a70902b84f9864c95d5553a0644a64f4f" target="_top" xlink:title="Return the latest voltage reading. ">
<polygon fill="white" stroke="black" points="603,-382.439 603,-401.439 729,-401.439 729,-382.439 603,-382.439"/>
<text text-anchor="middle" x="666" y="-389.439" font-family="Helvetica,sans-Serif" font-size="10.00">VoltageMonitor::getValue</text>
</a>
</g>
</g>
<!-- Node23&#45;&gt;Node24 -->
<g id="edge33" class="edge"><title>Node23&#45;&gt;Node24</title>
<path fill="none" stroke="midnightblue" d="M545.182,-391.939C559.344,-391.939 576.117,-391.939 592.56,-391.939"/>
<polygon fill="midnightblue" stroke="midnightblue" points="592.728,-395.439 602.728,-391.939 592.728,-388.439 592.728,-395.439"/>
</g>
<!-- Node25 -->
<g id="node25" class="node"><title>Node25</title>
<g id="a_node25"><a xlink:href="actions_8cpp.html#a2b8c3769e2aa32a2da9e2f3f85ac73dd" target="_top" xlink:title="A sample ADC reading is taken each time through the main loop, and written to a ring buffer...">
<polygon fill="white" stroke="black" points="767.5,-401.439 767.5,-420.439 879.5,-420.439 879.5,-401.439 767.5,-401.439"/>
<text text-anchor="middle" x="823.5" y="-408.439" font-family="Helvetica,sans-Serif" font-size="10.00">getVoltagePollInterval</text>
</a>
</g>
</g>
<!-- Node24&#45;&gt;Node25 -->
<g id="edge34" class="edge"><title>Node24&#45;&gt;Node25</title>
<path fill="none" stroke="midnightblue" d="M729.352,-399.557C738.438,-400.667 747.816,-401.813 756.963,-402.931"/>
<polygon fill="midnightblue" stroke="midnightblue" points="756.813,-406.438 767.163,-404.177 757.662,-399.49 756.813,-406.438"/>
</g>
<!-- Node26 -->
<g id="node26" class="node"><title>Node26</title>
<g id="a_node26"><a xlink:href="class_voltage_monitor.html#a75871331808c34b40d04059ee2af0f27" target="_top" xlink:title="Filter and scale raw ADC values to millivolts. ">
<polygon fill="white" stroke="black" points="765,-363.439 765,-382.439 882,-382.439 882,-363.439 765,-363.439"/>
<text text-anchor="middle" x="823.5" y="-370.439" font-family="Helvetica,sans-Serif" font-size="10.00">VoltageMonitor::update</text>
</a>
</g>
</g>
<!-- Node24&#45;&gt;Node26 -->
<g id="edge35" class="edge"><title>Node24&#45;&gt;Node26</title>
<path fill="none" stroke="midnightblue" d="M729.352,-384.32C737.702,-383.3 746.298,-382.249 754.735,-381.219"/>
<polygon fill="midnightblue" stroke="midnightblue" points="755.419,-384.661 764.92,-379.974 754.57,-377.713 755.419,-384.661"/>
</g>
<!-- Node27&#45;&gt;Node14 -->
<g id="edge37" class="edge"><title>Node27&#45;&gt;Node14</title>
<path fill="none" stroke="midnightblue" d="M698.843,-315.939C723.677,-315.939 758.247,-315.939 784.522,-315.939"/>
<polygon fill="midnightblue" stroke="midnightblue" points="784.864,-319.439 794.864,-315.939 784.863,-312.439 784.864,-319.439"/>
</g>
</g>
</svg>
