<?xml version="1.0" encoding="UTF-8" standalone="no"?>
<!DOCTYPE svg PUBLIC "-//W3C//DTD SVG 1.1//EN"
 "http://www.w3.org/Graphics/SVG/1.1/DTD/svg11.dtd">
<!-- Generated by graphviz version 2.38.0 (20140413.2041)
 -->
<!-- Title: txError Pages: 1 -->
<svg width="1126pt" height="484pt"
 viewBox="0.00 0.00 1126.00 484.00" xmlns="http://www.w3.org/2000/svg" xmlns:xlink="http://www.w3.org/1999/xlink">
<g id="graph0" class="graph" transform="scale(1 1) rotate(0) translate(4 480)">
<title>txError</title>
<polygon fill="white" stroke="none" points="-4,4 -4,-480 1122,-480 1122,4 -4,4"/>
<!-- Node1 -->
<g id="node1" class="node"><title>Node1</title>
<polygon fill="#bfbfbf" stroke="black" points="0,-38.5 0,-57.5 46,-57.5 46,-38.5 0,-38.5"/>
<text text-anchor="middle" x="23" y="-45.5" font-family="Helvetica,sans-Serif" font-size="10.00">txError</text>
</g>
<!-- Node2 -->
<g id="node2" class="node"><title>Node2</title>
<g id="a_node2"><a xlink:href="libmorse_8cpp.html#a0ee2308940264ea9ac8e50afc1a4d285" target="_top" xlink:title="txString">
<polygon fill="white" stroke="black" points="82,-266.5 82,-285.5 132,-285.5 132,-266.5 82,-266.5"/>
<text text-anchor="middle" x="107" y="-273.5" font-family="Helvetica,sans-Serif" font-size="10.00">txString</text>
</a>
</g>
</g>
<!-- Node1&#45;&gt;Node2 -->
<g id="edge1" class="edge"><title>Node1&#45;&gt;Node2</title>
<path fill="none" stroke="midnightblue" d="M27.419,-57.5066C39.792,-91.9095 82.3851,-210.339 99.1463,-256.943"/>
<polygon fill="midnightblue" stroke="midnightblue" points="95.8886,-258.227 102.566,-266.453 102.476,-255.858 95.8886,-258.227"/>
</g>
<!-- Node3 -->
<g id="node3" class="node"><title>Node3</title>
<g id="a_node3"><a xlink:href="teensy3__morse__bsp_8cpp.html#ab306f692c5c9455a0c82782a67ff0147" target="_top" xlink:title="touchPoll">
<polygon fill="white" stroke="black" points="514,-342.5 514,-361.5 571,-361.5 571,-342.5 514,-342.5"/>
<text text-anchor="middle" x="542.5" y="-349.5" font-family="Helvetica,sans-Serif" font-size="10.00">touchPoll</text>
</a>
</g>
</g>
<!-- Node2&#45;&gt;Node3 -->
<g id="edge2" class="edge"><title>Node2&#45;&gt;Node3</title>
<path fill="none" stroke="midnightblue" d="M115.694,-285.787C126.065,-298.148 145.808,-318.901 168,-328 282.94,-375.13 434.517,-365.251 503.901,-357.227"/>
<polygon fill="midnightblue" stroke="midnightblue" points="504.414,-360.69 513.921,-356.014 503.573,-353.741 504.414,-360.69"/>
</g>
<!-- Node5 -->
<g id="node5" class="node"><title>Node5</title>
<g id="a_node5"><a xlink:href="settings_8cpp.html#a960551e90dfdad18f3c9b1338ccba7db" target="_top" xlink:title="Get the dit duration in microseconds. ">
<polygon fill="white" stroke="black" points="755.5,-237.5 755.5,-256.5 827.5,-256.5 827.5,-237.5 755.5,-237.5"/>
<text text-anchor="middle" x="791.5" y="-244.5" font-family="Helvetica,sans-Serif" font-size="10.00">getDitMicros</text>
</a>
</g>
</g>
<!-- Node2&#45;&gt;Node5 -->
<g id="edge4" class="edge"><title>Node2&#45;&gt;Node5</title>
<path fill="none" stroke="midnightblue" d="M132.213,-281.607C180.047,-292.177 290.165,-314 384,-314 384,-314 384,-314 543.5,-314 624.219,-314 714.763,-280.259 760.537,-260.665"/>
<polygon fill="midnightblue" stroke="midnightblue" points="762.099,-263.802 769.869,-256.599 759.303,-257.385 762.099,-263.802"/>
</g>
<!-- Node6 -->
<g id="node6" class="node"><title>Node6</title>
<g id="a_node6"><a xlink:href="libmorse_8cpp.html#a9fdfce728595d72b78dc7c834ab99a40" target="_top" xlink:title="Transmit a literal Morse code value. ">
<polygon fill="white" stroke="black" points="646.5,-95.5 646.5,-114.5 697.5,-114.5 697.5,-95.5 646.5,-95.5"/>
<text text-anchor="middle" x="672" y="-102.5" font-family="Helvetica,sans-Serif" font-size="10.00">txLiteral</text>
</a>
</g>
</g>
<!-- Node2&#45;&gt;Node6 -->
<g id="edge5" class="edge"><title>Node2&#45;&gt;Node6</title>
<path fill="none" stroke="midnightblue" d="M109.677,-266.237C114.258,-242.863 129.326,-183.652 168,-157 206.477,-130.483 528.874,-112.106 636.315,-106.67"/>
<polygon fill="midnightblue" stroke="midnightblue" points="636.502,-110.165 646.315,-106.17 636.153,-103.174 636.502,-110.165"/>
</g>
<!-- Node15 -->
<g id="node15" class="node"><title>Node15</title>
<g id="a_node15"><a xlink:href="libmorse_8cpp.html#acd4b292f5e412ee4f05aed9dafbc072d" target="_top" xlink:title="Convert an ASCII character into Morse code and transmit it. ">
<polygon fill="white" stroke="black" points="517.5,-76.5 517.5,-95.5 567.5,-95.5 567.5,-76.5 517.5,-76.5"/>
<text text-anchor="middle" x="542.5" y="-83.5" font-family="Helvetica,sans-Serif" font-size="10.00">txLetter</text>
</a>
</g>
</g>
<!-- Node2&#45;&gt;Node15 -->
<g id="edge16" class="edge"><title>Node2&#45;&gt;Node15</title>
<path fill="none" stroke="midnightblue" d="M108.104,-266.431C108.995,-237.251 116.049,-149.009 168,-110 220.827,-70.3332 425.372,-78.5386 507.292,-83.5932"/>
<polygon fill="midnightblue" stroke="midnightblue" points="507.131,-87.0899 517.334,-84.2354 507.578,-80.1042 507.131,-87.0899"/>
</g>
<!-- Node16 -->
<g id="node16" class="node"><title>Node16</title>
<g id="a_node16"><a xlink:href="teensy3__morse__bsp_8cpp.html#a8761e874366e227690fba2964e1bc445" target="_top" xlink:title="getInternalTemperatureC">
<polygon fill="white" stroke="black" points="322.5,-247.5 322.5,-266.5 447.5,-266.5 447.5,-247.5 322.5,-247.5"/>
<text text-anchor="middle" x="385" y="-254.5" font-family="Helvetica,sans-Serif" font-size="10.00">getInternalTemperatureC</text>
</a>
</g>
</g>
<!-- Node2&#45;&gt;Node16 -->
<g id="edge19" class="edge"><title>Node2&#45;&gt;Node16</title>
<path fill="none" stroke="midnightblue" d="M132.01,-274.347C171.745,-271.612 252.691,-266.039 312.162,-261.945"/>
<polygon fill="midnightblue" stroke="midnightblue" points="312.52,-265.429 322.256,-261.251 312.039,-258.446 312.52,-265.429"/>
</g>
<!-- Node17 -->
<g id="node17" class="node"><title>Node17</title>
<g id="a_node17"><a xlink:href="libmorse_8cpp.html#a47abdd74b66d7180c47d192bab8bdccb" target="_top" xlink:title="Transmit an unsigned integer in Morse code. ">
<polygon fill="white" stroke="black" points="352,-171.5 352,-190.5 418,-190.5 418,-171.5 352,-171.5"/>
<text text-anchor="middle" x="385" y="-178.5" font-family="Helvetica,sans-Serif" font-size="10.00">txUnsigned</text>
</a>
</g>
</g>
<!-- Node2&#45;&gt;Node17 -->
<g id="edge20" class="edge"><title>Node2&#45;&gt;Node17</title>
<path fill="none" stroke="midnightblue" d="M110.635,-266.451C116.78,-246.278 134.174,-199.644 168,-181 222.196,-151.129 296.273,-159.768 342.082,-169.682"/>
<polygon fill="midnightblue" stroke="midnightblue" points="341.441,-173.125 351.969,-171.937 342.998,-166.301 341.441,-173.125"/>
</g>
<!-- Node18 -->
<g id="node18" class="node"><title>Node18</title>
<g id="a_node18"><a xlink:href="actions_8cpp.html#aed718ec1bd4cc7adb2f65d40a6784496" target="_top" xlink:title="Transmit the internal temperature in integer in Fahrenheit. ">
<polygon fill="white" stroke="black" points="168,-228.5 168,-247.5 286,-247.5 286,-228.5 168,-228.5"/>
<text text-anchor="middle" x="227" y="-235.5" font-family="Helvetica,sans-Serif" font-size="10.00">txInternalTemperatureF</text>
</a>
</g>
</g>
<!-- Node2&#45;&gt;Node18 -->
<g id="edge23" class="edge"><title>Node2&#45;&gt;Node18</title>
<path fill="none" stroke="midnightblue" d="M132.164,-268.218C147.866,-263.162 168.696,-256.454 186.742,-250.642"/>
<polygon fill="midnightblue" stroke="midnightblue" points="187.985,-253.919 196.431,-247.522 185.839,-247.256 187.985,-253.919"/>
</g>
<!-- Node19 -->
<g id="node19" class="node"><title>Node19</title>
<g id="a_node19"><a xlink:href="actions_8cpp.html#aaabb3ac0c23f35a499bc17efe829f326" target="_top" xlink:title="Transmit the 24&#45;hr time. ">
<polygon fill="white" stroke="black" points="188,-456.5 188,-475.5 266,-475.5 266,-456.5 188,-456.5"/>
<text text-anchor="middle" x="227" y="-463.5" font-family="Helvetica,sans-Serif" font-size="10.00">txTimeHHMM</text>
</a>
</g>
</g>
<!-- Node2&#45;&gt;Node19 -->
<g id="edge26" class="edge"><title>Node2&#45;&gt;Node19</title>
<path fill="none" stroke="midnightblue" d="M108.862,-285.517C111.598,-313.571 122.819,-393.753 168,-438 175.779,-445.618 186.656,-450.181 196.893,-453.497"/>
<polygon fill="midnightblue" stroke="midnightblue" points="196.193,-456.941 206.777,-456.464 198.205,-450.237 196.193,-456.941"/>
</g>
<!-- Node20 -->
<g id="node20" class="node"><title>Node20</title>
<g id="a_node20"><a xlink:href="actions_8cpp.html#ad02149679fa3cc6a4957d1a318408ffd" target="_top" xlink:title="Transmit the uptime. ">
<polygon fill="white" stroke="black" points="199,-190.5 199,-209.5 255,-209.5 255,-190.5 199,-190.5"/>
<text text-anchor="middle" x="227" y="-197.5" font-family="Helvetica,sans-Serif" font-size="10.00">txUptime</text>
</a>
</g>
</g>
<!-- Node2&#45;&gt;Node20 -->
<g id="edge28" class="edge"><title>Node2&#45;&gt;Node20</title>
<path fill="none" stroke="midnightblue" d="M115.917,-266.146C126.53,-253.542 146.534,-231.814 168,-219 174.505,-215.117 181.901,-211.921 189.183,-209.331"/>
<polygon fill="midnightblue" stroke="midnightblue" points="190.512,-212.579 198.947,-206.167 188.355,-205.92 190.512,-212.579"/>
</g>
<!-- Node22 -->
<g id="node22" class="node"><title>Node22</title>
<g id="a_node22"><a xlink:href="teensy3__morse__bsp_8cpp.html#ae8dd28759e56dbd2ee9bc9ae96d1783c" target="_top" xlink:title="Return the most recent ADC measurement of the input voltage. Perform analog to digital conversion on ...">
<polygon fill="white" stroke="black" points="190,-418.5 190,-437.5 264,-437.5 264,-418.5 190,-418.5"/>
<text text-anchor="middle" x="227" y="-425.5" font-family="Helvetica,sans-Serif" font-size="10.00">readMillivolts</text>
</a>
</g>
</g>
<!-- Node2&#45;&gt;Node22 -->
<g id="edge31" class="edge"><title>Node2&#45;&gt;Node22</title>
<path fill="none" stroke="midnightblue" d="M110.017,-285.763C115.353,-309.266 131.97,-369.59 168,-404 172.088,-407.904 176.901,-411.212 181.977,-414.004"/>
<polygon fill="midnightblue" stroke="midnightblue" points="180.77,-417.307 191.299,-418.491 183.806,-411 180.77,-417.307"/>
</g>
<!-- Node26 -->
<g id="node26" class="node"><title>Node26</title>
<g id="a_node26"><a xlink:href="libmorse_8cpp.html#ac3f000c98271c6d0a7710135e18189bc" target="_top" xlink:title="On my hardware there is cross&#45;coupling between the serial port and the touch sensors. Without the code below, long messages to the serial port trigger a touch input. ">
<polygon fill="white" stroke="black" points="352.5,-380.5 352.5,-399.5 417.5,-399.5 417.5,-380.5 352.5,-380.5"/>
<text text-anchor="middle" x="385" y="-387.5" font-family="Helvetica,sans-Serif" font-size="10.00">flushTouch</text>
</a>
</g>
</g>
<!-- Node2&#45;&gt;Node26 -->
<g id="edge35" class="edge"><title>Node2&#45;&gt;Node26</title>
<path fill="none" stroke="midnightblue" d="M111.268,-285.652C118.28,-304.708 136.719,-346.962 168,-366 221.374,-398.484 296.081,-398.985 342.186,-395.287"/>
<polygon fill="midnightblue" stroke="midnightblue" points="342.773,-398.749 352.416,-394.36 342.141,-391.777 342.773,-398.749"/>
</g>
<!-- Node4 -->
<g id="node4" class="node"><title>Node4</title>
<g id="a_node4"><a xlink:href="teensy3__morse__bsp_8cpp.html#af6899cd9b83df54106b259ab81ea5cb2" target="_top" xlink:title="touchMargin">
<polygon fill="white" stroke="black" points="637,-342.5 637,-361.5 707,-361.5 707,-342.5 637,-342.5"/>
<text text-anchor="middle" x="672" y="-349.5" font-family="Helvetica,sans-Serif" font-size="10.00">touchMargin</text>
</a>
</g>
</g>
<!-- Node3&#45;&gt;Node4 -->
<g id="edge3" class="edge"><title>Node3&#45;&gt;Node4</title>
<path fill="none" stroke="midnightblue" d="M571.166,-352C587.281,-352 607.984,-352 626.355,-352"/>
<polygon fill="midnightblue" stroke="midnightblue" points="626.562,-355.5 636.562,-352 626.562,-348.5 626.562,-355.5"/>
</g>
<!-- Node6&#45;&gt;Node1 -->
<g id="edge15" class="edge"><title>Node6&#45;&gt;Node1</title>
<path fill="none" stroke="midnightblue" d="M655.942,-95.4548C642.101,-87.0181 620.79,-74.8641 601,-67 509.131,-30.4929 484.857,-10 386,-10 226,-10 226,-10 226,-10 164.942,-10 95.2638,-26.9758 55.7653,-38.2349"/>
<polygon fill="midnightblue" stroke="midnightblue" points="54.7854,-34.8748 46.1621,-41.0302 56.7418,-41.5958 54.7854,-34.8748"/>
</g>
<!-- Node6&#45;&gt;Node5 -->
<g id="edge14" class="edge"><title>Node6&#45;&gt;Node5</title>
<path fill="none" stroke="midnightblue" d="M681.076,-114.76C700.613,-138.371 750.66,-198.852 775.727,-229.147"/>
<polygon fill="midnightblue" stroke="midnightblue" points="773.296,-231.698 782.367,-237.171 778.689,-227.236 773.296,-231.698"/>
</g>
<!-- Node7 -->
<g id="node7" class="node"><title>Node7</title>
<g id="a_node7"><a xlink:href="class_morse_token.html#a48cd72aeb868391449d1f51c1d0bf5cc" target="_top" xlink:title="Treat code == 0 as the error token. ">
<polygon fill="white" stroke="black" points="743,-95.5 743,-114.5 840,-114.5 840,-95.5 743,-95.5"/>
<text text-anchor="middle" x="791.5" y="-102.5" font-family="Helvetica,sans-Serif" font-size="10.00">MorseToken::valid</text>
</a>
</g>
</g>
<!-- Node6&#45;&gt;Node7 -->
<g id="edge6" class="edge"><title>Node6&#45;&gt;Node7</title>
<path fill="none" stroke="midnightblue" d="M697.632,-105C707.831,-105 720.13,-105 732.391,-105"/>
<polygon fill="midnightblue" stroke="midnightblue" points="732.635,-108.5 742.635,-105 732.635,-101.5 732.635,-108.5"/>
</g>
<!-- Node8 -->
<g id="node8" class="node"><title>Node8</title>
<g id="a_node8"><a xlink:href="teensy3__morse__bsp_8cpp.html#af66e71e3fac9b6a2c6532bc8a513bfde" target="_top" xlink:title="Output a square wave on pin 10 at the given frequency for the given duration. ">
<polygon fill="white" stroke="black" points="772.5,-57.5 772.5,-76.5 810.5,-76.5 810.5,-57.5 772.5,-57.5"/>
<text text-anchor="middle" x="791.5" y="-64.5" font-family="Helvetica,sans-Serif" font-size="10.00">beep</text>
</a>
</g>
</g>
<!-- Node6&#45;&gt;Node8 -->
<g id="edge7" class="edge"><title>Node6&#45;&gt;Node8</title>
<path fill="none" stroke="midnightblue" d="M697.632,-97.034C716.657,-90.8811 742.988,-82.3656 762.755,-75.9729"/>
<polygon fill="midnightblue" stroke="midnightblue" points="763.982,-79.2545 772.42,-72.8471 761.828,-72.5941 763.982,-79.2545"/>
</g>
<!-- Node14 -->
<g id="node14" class="node"><title>Node14</title>
<g id="a_node14"><a xlink:href="settings_8cpp.html#a8575b9b52638114a4f32d1462cf9b7c1" target="_top" xlink:title="Get the transmission frequency (side tone). ">
<polygon fill="white" stroke="black" points="764.5,-133.5 764.5,-152.5 818.5,-152.5 818.5,-133.5 764.5,-133.5"/>
<text text-anchor="middle" x="791.5" y="-140.5" font-family="Helvetica,sans-Serif" font-size="10.00">getTxHz</text>
</a>
</g>
</g>
<!-- Node6&#45;&gt;Node14 -->
<g id="edge13" class="edge"><title>Node6&#45;&gt;Node14</title>
<path fill="none" stroke="midnightblue" d="M697.632,-112.966C714.174,-118.316 736.239,-125.452 754.711,-131.426"/>
<polygon fill="midnightblue" stroke="midnightblue" points="753.677,-134.77 764.269,-134.517 755.831,-128.109 753.677,-134.77"/>
</g>
<!-- Node9 -->
<g id="node9" class="node"><title>Node9</title>
<g id="a_node9"><a xlink:href="teensy3__morse__bsp_8cpp.html#a6f674d5b9985ea3a7eeb0df299c2e405" target="_top" xlink:title="pollEarphonePresent">
<polygon fill="white" stroke="black" points="876,-114.5 876,-133.5 983,-133.5 983,-114.5 876,-114.5"/>
<text text-anchor="middle" x="929.5" y="-121.5" font-family="Helvetica,sans-Serif" font-size="10.00">pollEarphonePresent</text>
</a>
</g>
</g>
<!-- Node8&#45;&gt;Node9 -->
<g id="edge8" class="edge"><title>Node8&#45;&gt;Node9</title>
<path fill="none" stroke="midnightblue" d="M810.734,-73.7768C819.652,-77.2214 830.487,-81.6018 840,-86 856.422,-93.5922 859.454,-97.6819 876,-105 880.527,-107.002 885.336,-108.961 890.136,-110.815"/>
<polygon fill="midnightblue" stroke="midnightblue" points="889.287,-114.234 899.879,-114.453 891.735,-107.676 889.287,-114.234"/>
</g>
<!-- Node10 -->
<g id="node10" class="node"><title>Node10</title>
<g id="a_node10"><a xlink:href="teensy3__morse__bsp_8cpp.html#a2d6b4ace33ed5e497dedd03217540c63" target="_top" xlink:title="Set the PWM frequency for the audio output pins. ">
<polygon fill="white" stroke="black" points="888,-76.5 888,-95.5 971,-95.5 971,-76.5 888,-76.5"/>
<text text-anchor="middle" x="929.5" y="-83.5" font-family="Helvetica,sans-Serif" font-size="10.00">pwmFrequency</text>
</a>
</g>
</g>
<!-- Node8&#45;&gt;Node10 -->
<g id="edge9" class="edge"><title>Node8&#45;&gt;Node10</title>
<path fill="none" stroke="midnightblue" d="M810.56,-69.5231C827.617,-71.906 854.017,-75.5943 877.519,-78.8776"/>
<polygon fill="midnightblue" stroke="midnightblue" points="877.334,-82.3857 887.722,-80.3031 878.303,-75.4531 877.334,-82.3857"/>
</g>
<!-- Node11 -->
<g id="node11" class="node"><title>Node11</title>
<g id="a_node11"><a xlink:href="teensy3__morse__bsp_8cpp.html#a82911eac3bf13d6f36d10102a4c4d3c4" target="_top" xlink:title="Generate a tone on the audio output pins. ">
<polygon fill="white" stroke="black" points="899,-38.5 899,-57.5 960,-57.5 960,-38.5 899,-38.5"/>
<text text-anchor="middle" x="929.5" y="-45.5" font-family="Helvetica,sans-Serif" font-size="10.00">pwmWrite</text>
</a>
</g>
</g>
<!-- Node8&#45;&gt;Node11 -->
<g id="edge10" class="edge"><title>Node8&#45;&gt;Node11</title>
<path fill="none" stroke="midnightblue" d="M810.56,-64.4769C830.462,-61.6965 863.083,-57.1391 888.979,-53.5213"/>
<polygon fill="midnightblue" stroke="midnightblue" points="889.471,-56.9867 898.89,-52.1366 888.502,-50.054 889.471,-56.9867"/>
</g>
<!-- Node13 -->
<g id="node13" class="node"><title>Node13</title>
<g id="a_node13"><a xlink:href="teensy3__morse__bsp_8cpp.html#a6c982a7d7805f1dd5426eb98c915cfdd" target="_top" xlink:title="Turn the red LED on (1) or off (0). ">
<polygon fill="white" stroke="black" points="904.5,-0.5 904.5,-19.5 954.5,-19.5 954.5,-0.5 904.5,-0.5"/>
<text text-anchor="middle" x="929.5" y="-7.5" font-family="Helvetica,sans-Serif" font-size="10.00">redLED</text>
</a>
</g>
</g>
<!-- Node8&#45;&gt;Node13 -->
<g id="edge12" class="edge"><title>Node8&#45;&gt;Node13</title>
<path fill="none" stroke="midnightblue" d="M810.561,-58.2751C827.352,-50.2852 853.14,-38.3208 876,-29 882.008,-26.5503 888.464,-24.0826 894.722,-21.7739"/>
<polygon fill="midnightblue" stroke="midnightblue" points="896.092,-25.0001 904.301,-18.3021 893.707,-18.419 896.092,-25.0001"/>
</g>
<!-- Node12 -->
<g id="node12" class="node"><title>Node12</title>
<g id="a_node12"><a xlink:href="teensy3__morse__bsp_8cpp.html#ac70998cee1bf97f00aec4a1b4e5a4f60" target="_top" xlink:title="isEarphonePresent">
<polygon fill="white" stroke="black" points="1019,-38.5 1019,-57.5 1118,-57.5 1118,-38.5 1019,-38.5"/>
<text text-anchor="middle" x="1068.5" y="-45.5" font-family="Helvetica,sans-Serif" font-size="10.00">isEarphonePresent</text>
</a>
</g>
</g>
<!-- Node11&#45;&gt;Node12 -->
<g id="edge11" class="edge"><title>Node11&#45;&gt;Node12</title>
<path fill="none" stroke="midnightblue" d="M960.227,-48C974.434,-48 991.959,-48 1008.7,-48"/>
<polygon fill="midnightblue" stroke="midnightblue" points="1008.98,-51.5001 1018.98,-48 1008.98,-44.5001 1008.98,-51.5001"/>
</g>
<!-- Node15&#45;&gt;Node1 -->
<g id="edge18" class="edge"><title>Node15&#45;&gt;Node1</title>
<path fill="none" stroke="midnightblue" d="M517.31,-83.1403C498.448,-80.9764 471.584,-78.039 448,-76 301.891,-63.3676 127.022,-53.4699 56.166,-49.6772"/>
<polygon fill="midnightblue" stroke="midnightblue" points="56.2659,-46.1777 46.0942,-49.1419 55.8943,-53.1678 56.2659,-46.1777"/>
</g>
<!-- Node15&#45;&gt;Node6 -->
<g id="edge17" class="edge"><title>Node15&#45;&gt;Node6</title>
<path fill="none" stroke="midnightblue" d="M567.782,-89.6185C587.154,-92.5054 614.544,-96.5869 636.24,-99.8201"/>
<polygon fill="midnightblue" stroke="midnightblue" points="635.968,-103.318 646.374,-101.33 636.999,-96.3945 635.968,-103.318"/>
</g>
<!-- Node17&#45;&gt;Node3 -->
<g id="edge21" class="edge"><title>Node17&#45;&gt;Node3</title>
<path fill="none" stroke="midnightblue" d="M418.045,-186.152C428.369,-188.973 439.362,-193.319 448,-200 493.797,-235.422 522.556,-300.126 534.747,-332.486"/>
<polygon fill="midnightblue" stroke="midnightblue" points="531.546,-333.925 538.248,-342.131 538.126,-331.537 531.546,-333.925"/>
</g>
<!-- Node17&#45;&gt;Node15 -->
<g id="edge22" class="edge"><title>Node17&#45;&gt;Node15</title>
<path fill="none" stroke="midnightblue" d="M401.766,-171.368C428.892,-154.796 484.583,-120.772 516.866,-101.049"/>
<polygon fill="midnightblue" stroke="midnightblue" points="518.984,-103.858 525.692,-95.6574 515.334,-97.8841 518.984,-103.858"/>
</g>
<!-- Node18&#45;&gt;Node16 -->
<g id="edge24" class="edge"><title>Node18&#45;&gt;Node16</title>
<path fill="none" stroke="midnightblue" d="M286.089,-245.075C294.711,-246.125 303.682,-247.218 312.54,-248.296"/>
<polygon fill="midnightblue" stroke="midnightblue" points="312.117,-251.771 322.467,-249.506 312.964,-244.822 312.117,-251.771"/>
</g>
<!-- Node18&#45;&gt;Node17 -->
<g id="edge25" class="edge"><title>Node18&#45;&gt;Node17</title>
<path fill="none" stroke="midnightblue" d="M260.57,-228.401C268.96,-225.638 277.903,-222.434 286,-219 302.656,-211.937 305.277,-206.903 322,-200 328.362,-197.374 335.222,-194.918 341.979,-192.701"/>
<polygon fill="midnightblue" stroke="midnightblue" points="343.246,-195.972 351.735,-189.633 341.145,-189.295 343.246,-195.972"/>
</g>
<!-- Node19&#45;&gt;Node2 -->
<g id="edge27" class="edge"><title>Node19&#45;&gt;Node2</title>
<path fill="none" stroke="midnightblue" d="M187.931,-467.842C180.617,-465.283 173.526,-461.412 168,-456 123.184,-412.111 111.782,-332.865 108.93,-295.704"/>
<polygon fill="midnightblue" stroke="midnightblue" points="112.416,-295.368 108.292,-285.609 105.43,-295.809 112.416,-295.368"/>
</g>
<!-- Node20&#45;&gt;Node17 -->
<g id="edge30" class="edge"><title>Node20&#45;&gt;Node17</title>
<path fill="none" stroke="midnightblue" d="M255.173,-196.69C279.014,-193.787 314.076,-189.516 341.605,-186.163"/>
<polygon fill="midnightblue" stroke="midnightblue" points="342.244,-189.612 351.748,-184.928 341.398,-182.663 342.244,-189.612"/>
</g>
<!-- Node21 -->
<g id="node21" class="node"><title>Node21</title>
<g id="a_node21"><a xlink:href="settings_8cpp.html#a7b4efa097b94f9a90c5bbafcdf93fe4f" target="_top" xlink:title="getUptime">
<polygon fill="white" stroke="black" points="354,-209.5 354,-228.5 416,-228.5 416,-209.5 354,-209.5"/>
<text text-anchor="middle" x="385" y="-216.5" font-family="Helvetica,sans-Serif" font-size="10.00">getUptime</text>
</a>
</g>
</g>
<!-- Node20&#45;&gt;Node21 -->
<g id="edge29" class="edge"><title>Node20&#45;&gt;Node21</title>
<path fill="none" stroke="midnightblue" d="M255.173,-203.31C279.633,-206.289 315.905,-210.706 343.735,-214.096"/>
<polygon fill="midnightblue" stroke="midnightblue" points="343.595,-217.605 353.945,-215.339 344.441,-210.656 343.595,-217.605"/>
</g>
<!-- Node23 -->
<g id="node23" class="node"><title>Node23</title>
<g id="a_node23"><a xlink:href="class_voltage_monitor.html#a70902b84f9864c95d5553a0644a64f4f" target="_top" xlink:title="Return the latest voltage reading. ">
<polygon fill="white" stroke="black" points="322,-418.5 322,-437.5 448,-437.5 448,-418.5 322,-418.5"/>
<text text-anchor="middle" x="385" y="-425.5" font-family="Helvetica,sans-Serif" font-size="10.00">VoltageMonitor::getValue</text>
</a>
</g>
</g>
<!-- Node22&#45;&gt;Node23 -->
<g id="edge32" class="edge"><title>Node22&#45;&gt;Node23</title>
<path fill="none" stroke="midnightblue" d="M264.182,-428C278.344,-428 295.117,-428 311.56,-428"/>
<polygon fill="midnightblue" stroke="midnightblue" points="311.728,-431.5 321.728,-428 311.728,-424.5 311.728,-431.5"/>
</g>
<!-- Node24 -->
<g id="node24" class="node"><title>Node24</title>
<g id="a_node24"><a xlink:href="actions_8cpp.html#a2b8c3769e2aa32a2da9e2f3f85ac73dd" target="_top" xlink:title="A sample ADC reading is taken each time through the main loop, and written to a ring buffer...">
<polygon fill="white" stroke="black" points="486.5,-399.5 486.5,-418.5 598.5,-418.5 598.5,-399.5 486.5,-399.5"/>
<text text-anchor="middle" x="542.5" y="-406.5" font-family="Helvetica,sans-Serif" font-size="10.00">getVoltagePollInterval</text>
</a>
</g>
</g>
<!-- Node23&#45;&gt;Node24 -->
<g id="edge33" class="edge"><title>Node23&#45;&gt;Node24</title>
<path fill="none" stroke="midnightblue" d="M448.352,-420.381C457.438,-419.271 466.816,-418.125 475.963,-417.008"/>
<polygon fill="midnightblue" stroke="midnightblue" points="476.662,-420.448 486.163,-415.761 475.813,-413.5 476.662,-420.448"/>
</g>
<!-- Node25 -->
<g id="node25" class="node"><title>Node25</title>
<g id="a_node25"><a xlink:href="class_voltage_monitor.html#a75871331808c34b40d04059ee2af0f27" target="_top" xlink:title="Filter and scale raw ADC values to millivolts. ">
<polygon fill="white" stroke="black" points="484,-437.5 484,-456.5 601,-456.5 601,-437.5 484,-437.5"/>
<text text-anchor="middle" x="542.5" y="-444.5" font-family="Helvetica,sans-Serif" font-size="10.00">VoltageMonitor::update</text>
</a>
</g>
</g>
<!-- Node23&#45;&gt;Node25 -->
<g id="edge34" class="edge"><title>Node23&#45;&gt;Node25</title>
<path fill="none" stroke="midnightblue" d="M448.352,-435.619C456.702,-436.639 465.298,-437.689 473.735,-438.72"/>
<polygon fill="midnightblue" stroke="midnightblue" points="473.57,-442.226 483.92,-439.965 474.419,-435.277 473.57,-442.226"/>
</g>
<!-- Node26&#45;&gt;Node3 -->
<g id="edge36" class="edge"><title>Node26&#45;&gt;Node3</title>
<path fill="none" stroke="midnightblue" d="M417.843,-382.218C442.788,-376.123 477.554,-367.627 503.872,-361.195"/>
<polygon fill="midnightblue" stroke="midnightblue" points="504.98,-364.528 513.864,-358.754 503.318,-357.728 504.98,-364.528"/>
</g>
</g>
</svg>
