<?xml version="1.0" encoding="UTF-8" standalone="no"?>
<!DOCTYPE svg PUBLIC "-//W3C//DTD SVG 1.1//EN"
 "http://www.w3.org/Graphics/SVG/1.1/DTD/svg11.dtd">
<!-- Generated by graphviz version 2.38.0 (20140413.2041)
 -->
<!-- Title: wordExpired Pages: 1 -->
<svg width="405pt" height="66pt"
 viewBox="0.00 0.00 405.00 66.00" xmlns="http://www.w3.org/2000/svg" xmlns:xlink="http://www.w3.org/1999/xlink">
<g id="graph0" class="graph" transform="scale(1 1) rotate(0) translate(4 62)">
<title>wordExpired</title>
<polygon fill="white" stroke="none" points="-4,4 -4,-62 401,-62 401,4 -4,4"/>
<!-- Node1 -->
<g id="node1" class="node"><title>Node1</title>
<polygon fill="#bfbfbf" stroke="black" points="0,-19.5 0,-38.5 71,-38.5 71,-19.5 0,-19.5"/>
<text text-anchor="middle" x="35.5" y="-26.5" font-family="Helvetica,sans-Serif" font-size="10.00">wordExpired</text>
</g>
<!-- Node2 -->
<g id="node2" class="node"><title>Node2</title>
<g id="a_node2"><a xlink:href="libmorse_8h.html#ac4a29ea9b7bb06c2d9e8c4d74f486b91" target="_top" xlink:title="Accumulate a Morse token. ">
<polygon fill="white" stroke="black" points="107,-19.5 107,-38.5 164,-38.5 164,-19.5 107,-19.5"/>
<text text-anchor="middle" x="135.5" y="-26.5" font-family="Helvetica,sans-Serif" font-size="10.00">getMorse</text>
</a>
</g>
</g>
<!-- Node1&#45;&gt;Node2 -->
<g id="edge1" class="edge"><title>Node1&#45;&gt;Node2</title>
<path fill="none" stroke="midnightblue" d="M81.1273,-29C89.8402,-29 98.739,-29 106.71,-29"/>
<polygon fill="midnightblue" stroke="midnightblue" points="81.0512,-25.5001 71.0511,-29 81.0511,-32.5001 81.0512,-25.5001"/>
</g>
<!-- Node3 -->
<g id="node3" class="node"><title>Node3</title>
<g id="a_node3"><a xlink:href="libmorse_8cpp.html#afa60f07ebee7c34ef41c3dfb64222bb6" target="_top" xlink:title="Score the given pattern against the state of the symbol stack. ">
<polygon fill="white" stroke="black" points="200,-38.5 200,-57.5 269,-57.5 269,-38.5 200,-38.5"/>
<text text-anchor="middle" x="234.5" y="-45.5" font-family="Helvetica,sans-Serif" font-size="10.00">matchScore</text>
</a>
</g>
</g>
<!-- Node2&#45;&gt;Node3 -->
<g id="edge2" class="edge"><title>Node2&#45;&gt;Node3</title>
<path fill="none" stroke="midnightblue" d="M174.034,-36.352C182.481,-38.0066 191.396,-39.7529 199.681,-41.3756"/>
<polygon fill="midnightblue" stroke="midnightblue" points="174.523,-32.8814 164.037,-34.3938 173.178,-39.7509 174.523,-32.8814"/>
</g>
<!-- Node5 -->
<g id="node5" class="node"><title>Node5</title>
<g id="a_node5"><a xlink:href="libmorse_8h.html#a25fad1f4d176afaa89839cc897891e78" target="_top" xlink:title="rxString">
<polygon fill="white" stroke="black" points="209.5,-0.5 209.5,-19.5 259.5,-19.5 259.5,-0.5 209.5,-0.5"/>
<text text-anchor="middle" x="234.5" y="-7.5" font-family="Helvetica,sans-Serif" font-size="10.00">rxString</text>
</a>
</g>
</g>
<!-- Node2&#45;&gt;Node5 -->
<g id="edge4" class="edge"><title>Node2&#45;&gt;Node5</title>
<path fill="none" stroke="midnightblue" d="M174.09,-21.6369C185.882,-19.3273 198.581,-16.8399 209.199,-14.76"/>
<polygon fill="midnightblue" stroke="midnightblue" points="173.178,-18.2491 164.037,-23.6062 174.523,-25.1186 173.178,-18.2491"/>
</g>
<!-- Node4 -->
<g id="node4" class="node"><title>Node4</title>
<g id="a_node4"><a xlink:href="actions_8h.html#a1fec7da4166b9612d2deec3d0262d60f" target="_top" xlink:title="dispatchOnStack">
<polygon fill="white" stroke="black" points="305,-19.5 305,-38.5 397,-38.5 397,-19.5 305,-19.5"/>
<text text-anchor="middle" x="351" y="-26.5" font-family="Helvetica,sans-Serif" font-size="10.00">dispatchOnStack</text>
</a>
</g>
</g>
<!-- Node3&#45;&gt;Node4 -->
<g id="edge3" class="edge"><title>Node3&#45;&gt;Node4</title>
<path fill="none" stroke="midnightblue" d="M279.15,-40.7567C287.488,-39.3732 296.233,-37.922 304.623,-36.5298"/>
<polygon fill="midnightblue" stroke="midnightblue" points="278.527,-37.3123 269.234,-42.4021 279.673,-44.2178 278.527,-37.3123"/>
</g>
<!-- Node5&#45;&gt;Node4 -->
<g id="edge5" class="edge"><title>Node5&#45;&gt;Node4</title>
<path fill="none" stroke="midnightblue" d="M269.591,-15.657C280.625,-17.488 293.039,-19.548 304.752,-21.4915"/>
<polygon fill="midnightblue" stroke="midnightblue" points="269.941,-12.1673 259.503,-13.983 268.795,-19.0729 269.941,-12.1673"/>
</g>
</g>
</svg>
