<?xml version="1.0" encoding="UTF-8" standalone="no"?>
<!DOCTYPE svg PUBLIC "-//W3C//DTD SVG 1.1//EN"
 "http://www.w3.org/Graphics/SVG/1.1/DTD/svg11.dtd">
<!-- Generated by graphviz version 2.38.0 (20140413.2041)
 -->
<!-- Title: keyboardMode Pages: 1 -->
<svg width="321pt" height="28pt"
 viewBox="0.00 0.00 321.00 28.00" xmlns="http://www.w3.org/2000/svg" xmlns:xlink="http://www.w3.org/1999/xlink">
<g id="graph0" class="graph" transform="scale(1 1) rotate(0) translate(4 24)">
<title>keyboardMode</title>
<polygon fill="white" stroke="none" points="-4,4 -4,-24 317,-24 317,4 -4,4"/>
<!-- Node1 -->
<g id="node1" class="node"><title>Node1</title>
<polygon fill="#bfbfbf" stroke="black" points="0,-0.5 0,-19.5 80,-19.5 80,-0.5 0,-0.5"/>
<text text-anchor="middle" x="40" y="-7.5" font-family="Helvetica,sans-Serif" font-size="10.00">keyboardMode</text>
</g>
<!-- Node2 -->
<g id="node2" class="node"><title>Node2</title>
<g id="a_node2"><a xlink:href="libmorse_8cpp.html#afa60f07ebee7c34ef41c3dfb64222bb6" target="_top" xlink:title="Score the given pattern against the state of the symbol stack. ">
<polygon fill="white" stroke="black" points="116,-0.5 116,-19.5 185,-19.5 185,-0.5 116,-0.5"/>
<text text-anchor="middle" x="150.5" y="-7.5" font-family="Helvetica,sans-Serif" font-size="10.00">matchScore</text>
</a>
</g>
</g>
<!-- Node1&#45;&gt;Node2 -->
<g id="edge1" class="edge"><title>Node1&#45;&gt;Node2</title>
<path fill="none" stroke="midnightblue" d="M90.1905,-10C98.8387,-10 107.66,-10 115.765,-10"/>
<polygon fill="midnightblue" stroke="midnightblue" points="90.171,-6.5001 80.171,-10 90.171,-13.5001 90.171,-6.5001"/>
</g>
<!-- Node3 -->
<g id="node3" class="node"><title>Node3</title>
<g id="a_node3"><a xlink:href="actions_8h.html#a1fec7da4166b9612d2deec3d0262d60f" target="_top" xlink:title="dispatchOnStack">
<polygon fill="white" stroke="black" points="221,-0.5 221,-19.5 313,-19.5 313,-0.5 221,-0.5"/>
<text text-anchor="middle" x="267" y="-7.5" font-family="Helvetica,sans-Serif" font-size="10.00">dispatchOnStack</text>
</a>
</g>
</g>
<!-- Node2&#45;&gt;Node3 -->
<g id="edge2" class="edge"><title>Node2&#45;&gt;Node3</title>
<path fill="none" stroke="midnightblue" d="M195.425,-10C203.68,-10 212.326,-10 220.623,-10"/>
<polygon fill="midnightblue" stroke="midnightblue" points="195.235,-6.5001 185.234,-10 195.234,-13.5001 195.235,-6.5001"/>
</g>
</g>
</svg>
