<?xml version="1.0" encoding="UTF-8" standalone="no"?>
<!DOCTYPE svg PUBLIC "-//W3C//DTD SVG 1.1//EN"
 "http://www.w3.org/Graphics/SVG/1.1/DTD/svg11.dtd">
<!-- Generated by graphviz version 2.38.0 (20140413.2041)
 -->
<!-- Title: txError Pages: 1 -->
<!--zoomable 469 -->
<svg id="main" version="1.1" xmlns="http://www.w3.org/2000/svg" xmlns:xlink="http://www.w3.org/1999/xlink" xml:space="preserve" onload="init(evt)">
<style type="text/css"><![CDATA[
.edge:hover path { stroke: red; }
.edge:hover polygon { stroke: red; fill: red; }
]]></style>
<script type="text/javascript"><![CDATA[
var edges = document.getElementsByTagName('g');
if (edges && edges.length) {
  for (var i=0;i<edges.length;i++) {
    if (edges[i].id.substr(0,4)=='edge') {
      edges[i].setAttribute('class','edge');
    }
  }
}
]]></script>
        <defs>
                <circle id="rim" cx="0" cy="0" r="7"/>
                <circle id="rim2" cx="0" cy="0" r="3.5"/>
                <g id="zoomPlus">
                        <use xlink:href="#rim" fill="#404040">
                                <set attributeName="fill" to="#808080" begin="zoomplus.mouseover" end="zoomplus.mouseout"/>
                        </use>
                        <path d="M-4,0h8M0,-4v8" fill="none" stroke="white" stroke-width="1.5" pointer-events="none"/>
                </g>
                <g id="zoomMin">
                        <use xlink:href="#rim" fill="#404040">
                                <set attributeName="fill" to="#808080" begin="zoomminus.mouseover" end="zoomminus.mouseout"/>
                        </use>
                        <path d="M-4,0h8" fill="none" stroke="white" stroke-width="1.5" pointer-events="none"/>
                </g>
                <g id="dirArrow">
                        <path fill="none" stroke="white" stroke-width="1.5" d="M0,-3.0v7 M-2.5,-0.5L0,-3.0L2.5,-0.5"/>
                </g>
               <g id="resetDef">
                       <use xlink:href="#rim2" fill="#404040">
                               <set attributeName="fill" to="#808080" begin="reset.mouseover" end="reset.mouseout"/>
                       </use>
               </g>
        </defs>

<script type="text/javascript">
var viewWidth = 1126;
var viewHeight = 469;
var sectionId = 'dynsection-12';
</script>
<script xlink:href="svgpan.js"/>
<svg id="graph" class="graph">
<g id="viewport">
<title>txError</title>
<polygon fill="white" stroke="none" points="-4,4 -4,-464.808 1122,-464.808 1122,4 -4,4"/>
<!-- Node1 -->
<g id="node1" class="node"><title>Node1</title>
<polygon fill="#bfbfbf" stroke="black" points="0,-209.5 0,-228.5 46,-228.5 46,-209.5 0,-209.5"/>
<text text-anchor="middle" x="23" y="-216.5" font-family="Helvetica,sans-Serif" font-size="10.00">txError</text>
</g>
<!-- Node2 -->
<g id="node2" class="node"><title>Node2</title>
<g id="a_node2"><a xlink:href="libmorse_8cpp.html#a0ee2308940264ea9ac8e50afc1a4d285" target="_top" xlink:title="txString">
<polygon fill="white" stroke="black" points="82,-209.5 82,-228.5 132,-228.5 132,-209.5 82,-209.5"/>
<text text-anchor="middle" x="107" y="-216.5" font-family="Helvetica,sans-Serif" font-size="10.00">txString</text>
</a>
</g>
</g>
<!-- Node1&#45;&gt;Node2 -->
<g id="edge1" class="edge"><title>Node1&#45;&gt;Node2</title>
<path fill="none" stroke="midnightblue" d="M46.4069,-219C54.2281,-219 63.1946,-219 71.7568,-219"/>
<polygon fill="midnightblue" stroke="midnightblue" points="71.8961,-222.5 81.8961,-219 71.8961,-215.5 71.8961,-222.5"/>
</g>
<!-- Node3 -->
<g id="node3" class="node"><title>Node3</title>
<g id="a_node3"><a xlink:href="teensy3__morse__bsp_8cpp.html#ab306f692c5c9455a0c82782a67ff0147" target="_top" xlink:title="touchPoll">
<polygon fill="white" stroke="black" points="514,-399.5 514,-418.5 571,-418.5 571,-399.5 514,-399.5"/>
<text text-anchor="middle" x="542.5" y="-406.5" font-family="Helvetica,sans-Serif" font-size="10.00">touchPoll</text>
</a>
</g>
</g>
<!-- Node2&#45;&gt;Node3 -->
<g id="edge2" class="edge"><title>Node2&#45;&gt;Node3</title>
<path fill="none" stroke="midnightblue" d="M107.512,-228.838C106.48,-261.634 108.059,-367.878 168,-416 268.262,-496.493 437.23,-448.118 508.361,-422.197"/>
<polygon fill="midnightblue" stroke="midnightblue" points="509.981,-425.328 518.126,-418.553 507.533,-418.77 509.981,-425.328"/>
</g>
<!-- Node5 -->
<g id="node5" class="node"><title>Node5</title>
<g id="a_node5"><a xlink:href="settings_8cpp.html#a960551e90dfdad18f3c9b1338ccba7db" target="_top" xlink:title="Get the dit duration in microseconds. ">
<polygon fill="white" stroke="black" points="755.5,-323.5 755.5,-342.5 827.5,-342.5 827.5,-323.5 755.5,-323.5"/>
<text text-anchor="middle" x="791.5" y="-330.5" font-family="Helvetica,sans-Serif" font-size="10.00">getDitMicros</text>
</a>
</g>
</g>
<!-- Node2&#45;&gt;Node5 -->
<g id="edge4" class="edge"><title>Node2&#45;&gt;Node5</title>
<path fill="none" stroke="midnightblue" d="M109.103,-228.782C112.528,-254.08 125.45,-321.792 168,-352 246.581,-407.788 287.629,-371 384,-371 384,-371 384,-371 543.5,-371 614.587,-371 695.858,-355.434 745.157,-344.227"/>
<polygon fill="midnightblue" stroke="midnightblue" points="746.223,-347.573 755.177,-341.909 744.645,-340.753 746.223,-347.573"/>
</g>
<!-- Node6 -->
<g id="node6" class="node"><title>Node6</title>
<g id="a_node6"><a xlink:href="libmorse_8cpp.html#a9fdfce728595d72b78dc7c834ab99a40" target="_top" xlink:title="Transmit a literal Morse code value. ">
<polygon fill="white" stroke="black" points="646.5,-171.5 646.5,-190.5 697.5,-190.5 697.5,-171.5 646.5,-171.5"/>
<text text-anchor="middle" x="672" y="-178.5" font-family="Helvetica,sans-Serif" font-size="10.00">txLiteral</text>
</a>
</g>
</g>
<!-- Node2&#45;&gt;Node6 -->
<g id="edge5" class="edge"><title>Node2&#45;&gt;Node6</title>
<path fill="none" stroke="midnightblue" d="M132.191,-217.367C221.317,-211.352 531.582,-190.41 636.228,-183.347"/>
<polygon fill="midnightblue" stroke="midnightblue" points="636.523,-186.835 646.265,-182.67 636.052,-179.851 636.523,-186.835"/>
</g>
<!-- Node16 -->
<g id="node16" class="node"><title>Node16</title>
<g id="a_node16"><a xlink:href="libmorse_8cpp.html#acd4b292f5e412ee4f05aed9dafbc072d" target="_top" xlink:title="Convert an ASCII character into Morse code and transmit it. ">
<polygon fill="white" stroke="black" points="517.5,-133.5 517.5,-152.5 567.5,-152.5 567.5,-133.5 517.5,-133.5"/>
<text text-anchor="middle" x="542.5" y="-140.5" font-family="Helvetica,sans-Serif" font-size="10.00">txLetter</text>
</a>
</g>
</g>
<!-- Node2&#45;&gt;Node16 -->
<g id="edge17" class="edge"><title>Node2&#45;&gt;Node16</title>
<path fill="none" stroke="midnightblue" d="M115.694,-209.213C126.065,-196.852 145.808,-176.099 168,-167 284.702,-119.148 439.171,-130.066 507.033,-138.14"/>
<polygon fill="midnightblue" stroke="midnightblue" points="506.806,-141.639 517.162,-139.403 507.671,-134.693 506.806,-141.639"/>
</g>
<!-- Node17 -->
<g id="node17" class="node"><title>Node17</title>
<g id="a_node17"><a xlink:href="teensy3__morse__bsp_8cpp.html#a8761e874366e227690fba2964e1bc445" target="_top" xlink:title="getInternalTemperatureC">
<polygon fill="white" stroke="black" points="322.5,-228.5 322.5,-247.5 447.5,-247.5 447.5,-228.5 322.5,-228.5"/>
<text text-anchor="middle" x="385" y="-235.5" font-family="Helvetica,sans-Serif" font-size="10.00">getInternalTemperatureC</text>
</a>
</g>
</g>
<!-- Node2&#45;&gt;Node17 -->
<g id="edge20" class="edge"><title>Node2&#45;&gt;Node17</title>
<path fill="none" stroke="midnightblue" d="M132.01,-220.653C171.745,-223.388 252.691,-228.961 312.162,-233.055"/>
<polygon fill="midnightblue" stroke="midnightblue" points="312.039,-236.554 322.256,-233.749 312.52,-229.571 312.039,-236.554"/>
</g>
<!-- Node18 -->
<g id="node18" class="node"><title>Node18</title>
<g id="a_node18"><a xlink:href="libmorse_8cpp.html#a47abdd74b66d7180c47d192bab8bdccb" target="_top" xlink:title="Transmit an unsigned integer in Morse code. ">
<polygon fill="white" stroke="black" points="352,-285.5 352,-304.5 418,-304.5 418,-285.5 352,-285.5"/>
<text text-anchor="middle" x="385" y="-292.5" font-family="Helvetica,sans-Serif" font-size="10.00">txUnsigned</text>
</a>
</g>
</g>
<!-- Node2&#45;&gt;Node18 -->
<g id="edge21" class="edge"><title>Node2&#45;&gt;Node18</title>
<path fill="none" stroke="midnightblue" d="M114.823,-228.721C124.786,-242.035 144.687,-265.484 168,-276 224.19,-301.346 296.869,-302.041 341.955,-299.251"/>
<polygon fill="midnightblue" stroke="midnightblue" points="342.239,-302.74 351.968,-298.545 341.747,-295.757 342.239,-302.74"/>
</g>
<!-- Node19 -->
<g id="node19" class="node"><title>Node19</title>
<g id="a_node19"><a xlink:href="actions_8cpp.html#aed718ec1bd4cc7adb2f65d40a6784496" target="_top" xlink:title="Transmit the internal temperature in integer in Fahrenheit. ">
<polygon fill="white" stroke="black" points="168,-247.5 168,-266.5 286,-266.5 286,-247.5 168,-247.5"/>
<text text-anchor="middle" x="227" y="-254.5" font-family="Helvetica,sans-Serif" font-size="10.00">txInternalTemperatureF</text>
</a>
</g>
</g>
<!-- Node2&#45;&gt;Node19 -->
<g id="edge24" class="edge"><title>Node2&#45;&gt;Node19</title>
<path fill="none" stroke="midnightblue" d="M132.164,-226.782C147.866,-231.838 168.696,-238.546 186.742,-244.358"/>
<polygon fill="midnightblue" stroke="midnightblue" points="185.839,-247.744 196.431,-247.478 187.985,-241.081 185.839,-247.744"/>
</g>
<!-- Node20 -->
<g id="node20" class="node"><title>Node20</title>
<g id="a_node20"><a xlink:href="actions_8cpp.html#aaabb3ac0c23f35a499bc17efe829f326" target="_top" xlink:title="Transmit the 24&#45;hr time. ">
<polygon fill="white" stroke="black" points="188,-57.5 188,-76.5 266,-76.5 266,-57.5 188,-57.5"/>
<text text-anchor="middle" x="227" y="-64.5" font-family="Helvetica,sans-Serif" font-size="10.00">txTimeHHMM</text>
</a>
</g>
</g>
<!-- Node2&#45;&gt;Node20 -->
<g id="edge27" class="edge"><title>Node2&#45;&gt;Node20</title>
<path fill="none" stroke="midnightblue" d="M109.188,-209.338C113.457,-183.957 129.84,-118.444 168,-82 171.28,-78.8671 175.027,-76.1185 179.003,-73.7508"/>
<polygon fill="midnightblue" stroke="midnightblue" points="180.658,-76.8353 187.977,-69.1743 177.478,-70.5993 180.658,-76.8353"/>
</g>
<!-- Node21 -->
<g id="node21" class="node"><title>Node21</title>
<g id="a_node21"><a xlink:href="actions_8cpp.html#ad02149679fa3cc6a4957d1a318408ffd" target="_top" xlink:title="Transmit the uptime. ">
<polygon fill="white" stroke="black" points="199,-323.5 199,-342.5 255,-342.5 255,-323.5 199,-323.5"/>
<text text-anchor="middle" x="227" y="-330.5" font-family="Helvetica,sans-Serif" font-size="10.00">txUptime</text>
</a>
</g>
</g>
<!-- Node2&#45;&gt;Node21 -->
<g id="edge29" class="edge"><title>Node2&#45;&gt;Node21</title>
<path fill="none" stroke="midnightblue" d="M112.151,-228.772C120.318,-246.934 140.137,-286.117 168,-309 174.277,-314.155 181.815,-318.342 189.348,-321.689"/>
<polygon fill="midnightblue" stroke="midnightblue" points="188.208,-325.003 198.791,-325.488 190.82,-318.508 188.208,-325.003"/>
</g>
<!-- Node23 -->
<g id="node23" class="node"><title>Node23</title>
<g id="a_node23"><a xlink:href="teensy3__morse__bsp_8cpp.html#ae8dd28759e56dbd2ee9bc9ae96d1783c" target="_top" xlink:title="Return the most recent ADC measurement of the input voltage. Perform analog to digital conversion on ...">
<polygon fill="white" stroke="black" points="190,-19.5 190,-38.5 264,-38.5 264,-19.5 190,-19.5"/>
<text text-anchor="middle" x="227" y="-26.5" font-family="Helvetica,sans-Serif" font-size="10.00">readMillivolts</text>
</a>
</g>
</g>
<!-- Node2&#45;&gt;Node23 -->
<g id="edge32" class="edge"><title>Node2&#45;&gt;Node23</title>
<path fill="none" stroke="midnightblue" d="M108.514,-209.312C110.566,-180.496 120.571,-94.4483 168,-48 171.551,-44.5225 175.748,-41.6814 180.235,-39.3603"/>
<polygon fill="midnightblue" stroke="midnightblue" points="181.924,-42.4442 189.738,-35.289 179.168,-36.0098 181.924,-42.4442"/>
</g>
<!-- Node27 -->
<g id="node27" class="node"><title>Node27</title>
<g id="a_node27"><a xlink:href="libmorse_8cpp.html#ac3f000c98271c6d0a7710135e18189bc" target="_top" xlink:title="On my hardware there is cross&#45;coupling between the serial port and the touch sensors. Without the code below, long messages to the serial port trigger a touch input. ">
<polygon fill="white" stroke="black" points="352.5,-399.5 352.5,-418.5 417.5,-418.5 417.5,-399.5 352.5,-399.5"/>
<text text-anchor="middle" x="385" y="-406.5" font-family="Helvetica,sans-Serif" font-size="10.00">flushTouch</text>
</a>
</g>
</g>
<!-- Node2&#45;&gt;Node27 -->
<g id="edge36" class="edge"><title>Node2&#45;&gt;Node27</title>
<path fill="none" stroke="midnightblue" d="M108.202,-228.875C109.384,-258.162 117.211,-344.984 168,-385 217.7,-424.158 294.973,-422.313 342.369,-416.381"/>
<polygon fill="midnightblue" stroke="midnightblue" points="342.863,-419.846 352.297,-415.023 341.915,-412.91 342.863,-419.846"/>
</g>
<!-- Node4 -->
<g id="node4" class="node"><title>Node4</title>
<g id="a_node4"><a xlink:href="teensy3__morse__bsp_8cpp.html#af6899cd9b83df54106b259ab81ea5cb2" target="_top" xlink:title="touchMargin">
<polygon fill="white" stroke="black" points="637,-399.5 637,-418.5 707,-418.5 707,-399.5 637,-399.5"/>
<text text-anchor="middle" x="672" y="-406.5" font-family="Helvetica,sans-Serif" font-size="10.00">touchMargin</text>
</a>
</g>
</g>
<!-- Node3&#45;&gt;Node4 -->
<g id="edge3" class="edge"><title>Node3&#45;&gt;Node4</title>
<path fill="none" stroke="midnightblue" d="M571.166,-409C587.281,-409 607.984,-409 626.355,-409"/>
<polygon fill="midnightblue" stroke="midnightblue" points="626.562,-412.5 636.562,-409 626.562,-405.5 626.562,-412.5"/>
</g>
<!-- Node6&#45;&gt;Node5 -->
<g id="edge14" class="edge"><title>Node6&#45;&gt;Node5</title>
<path fill="none" stroke="midnightblue" d="M680.35,-190.508C699.638,-215.46 751.93,-283.106 776.888,-315.392"/>
<polygon fill="midnightblue" stroke="midnightblue" points="774.268,-317.724 783.153,-323.495 779.806,-313.443 774.268,-317.724"/>
</g>
<!-- Node7 -->
<g id="node7" class="node"><title>Node7</title>
<g id="a_node7"><a xlink:href="class_morse_token.html#a48cd72aeb868391449d1f51c1d0bf5cc" target="_top" xlink:title="Treat code == 0 as the error token. ">
<polygon fill="white" stroke="black" points="743,-152.5 743,-171.5 840,-171.5 840,-152.5 743,-152.5"/>
<text text-anchor="middle" x="791.5" y="-159.5" font-family="Helvetica,sans-Serif" font-size="10.00">MorseToken::valid</text>
</a>
</g>
</g>
<!-- Node6&#45;&gt;Node7 -->
<g id="edge6" class="edge"><title>Node6&#45;&gt;Node7</title>
<path fill="none" stroke="midnightblue" d="M697.632,-177.017C707.933,-175.351 720.376,-173.339 732.759,-171.337"/>
<polygon fill="midnightblue" stroke="midnightblue" points="733.322,-174.791 742.635,-169.74 732.205,-167.881 733.322,-174.791"/>
</g>
<!-- Node8 -->
<g id="node8" class="node"><title>Node8</title>
<g id="a_node8"><a xlink:href="teensy3__morse__bsp_8cpp.html#af66e71e3fac9b6a2c6532bc8a513bfde" target="_top" xlink:title="Output a square wave on pin 10 at the given frequency for the given duration. ">
<polygon fill="white" stroke="black" points="772.5,-228.5 772.5,-247.5 810.5,-247.5 810.5,-228.5 772.5,-228.5"/>
<text text-anchor="middle" x="791.5" y="-235.5" font-family="Helvetica,sans-Serif" font-size="10.00">beep</text>
</a>
</g>
</g>
<!-- Node6&#45;&gt;Node8 -->
<g id="edge7" class="edge"><title>Node6&#45;&gt;Node8</title>
<path fill="none" stroke="midnightblue" d="M689.408,-190.616C703.419,-198.654 724.224,-210.185 743,-219 749.226,-221.923 756.031,-224.816 762.496,-227.43"/>
<polygon fill="midnightblue" stroke="midnightblue" points="761.656,-230.861 772.243,-231.272 764.223,-224.348 761.656,-230.861"/>
</g>
<!-- Node14 -->
<g id="node14" class="node"><title>Node14</title>
<g id="a_node14"><a xlink:href="settings_8cpp.html#a8575b9b52638114a4f32d1462cf9b7c1" target="_top" xlink:title="Get the transmission frequency (side tone). ">
<polygon fill="white" stroke="black" points="764.5,-190.5 764.5,-209.5 818.5,-209.5 818.5,-190.5 764.5,-190.5"/>
<text text-anchor="middle" x="791.5" y="-197.5" font-family="Helvetica,sans-Serif" font-size="10.00">getTxHz</text>
</a>
</g>
</g>
<!-- Node6&#45;&gt;Node14 -->
<g id="edge13" class="edge"><title>Node6&#45;&gt;Node14</title>
<path fill="none" stroke="midnightblue" d="M697.632,-184.983C714.022,-187.633 735.833,-191.16 754.199,-194.13"/>
<polygon fill="midnightblue" stroke="midnightblue" points="753.838,-197.617 764.269,-195.758 754.956,-190.707 753.838,-197.617"/>
</g>
<!-- Node15 -->
<g id="node15" class="node"><title>Node15</title>
<g id="a_node15"><a xlink:href="libmorse_8cpp.html#ab94e088615119d1faae7df22ce50aedf" target="_top" xlink:title="Transmit a Morse code prosign indicating an error. ">
<polygon fill="white" stroke="black" points="768.5,-114.5 768.5,-133.5 814.5,-133.5 814.5,-114.5 768.5,-114.5"/>
<text text-anchor="middle" x="791.5" y="-121.5" font-family="Helvetica,sans-Serif" font-size="10.00">txError</text>
</a>
</g>
</g>
<!-- Node6&#45;&gt;Node15 -->
<g id="edge15" class="edge"><title>Node6&#45;&gt;Node15</title>
<path fill="none" stroke="midnightblue" d="M689.408,-171.384C703.419,-163.346 724.224,-151.815 743,-143 748.025,-140.641 753.427,-138.301 758.724,-136.112"/>
<polygon fill="midnightblue" stroke="midnightblue" points="760.068,-139.344 768.038,-132.363 757.454,-132.85 760.068,-139.344"/>
</g>
<!-- Node9 -->
<g id="node9" class="node"><title>Node9</title>
<g id="a_node9"><a xlink:href="teensy3__morse__bsp_8cpp.html#a6f674d5b9985ea3a7eeb0df299c2e405" target="_top" xlink:title="pollEarphonePresent">
<polygon fill="white" stroke="black" points="876,-285.5 876,-304.5 983,-304.5 983,-285.5 876,-285.5"/>
<text text-anchor="middle" x="929.5" y="-292.5" font-family="Helvetica,sans-Serif" font-size="10.00">pollEarphonePresent</text>
</a>
</g>
</g>
<!-- Node8&#45;&gt;Node9 -->
<g id="edge8" class="edge"><title>Node8&#45;&gt;Node9</title>
<path fill="none" stroke="midnightblue" d="M810.561,-246.725C827.352,-254.715 853.14,-266.679 876,-276 880.868,-277.985 886.03,-279.981 891.142,-281.896"/>
<polygon fill="midnightblue" stroke="midnightblue" points="890.229,-285.289 900.823,-285.451 892.642,-278.718 890.229,-285.289"/>
</g>
<!-- Node10 -->
<g id="node10" class="node"><title>Node10</title>
<g id="a_node10"><a xlink:href="teensy3__morse__bsp_8cpp.html#a2d6b4ace33ed5e497dedd03217540c63" target="_top" xlink:title="Set the PWM frequency for the audio output pins. ">
<polygon fill="white" stroke="black" points="888,-247.5 888,-266.5 971,-266.5 971,-247.5 888,-247.5"/>
<text text-anchor="middle" x="929.5" y="-254.5" font-family="Helvetica,sans-Serif" font-size="10.00">pwmFrequency</text>
</a>
</g>
</g>
<!-- Node8&#45;&gt;Node10 -->
<g id="edge9" class="edge"><title>Node8&#45;&gt;Node10</title>
<path fill="none" stroke="midnightblue" d="M810.56,-240.523C827.617,-242.906 854.017,-246.594 877.519,-249.878"/>
<polygon fill="midnightblue" stroke="midnightblue" points="877.334,-253.386 887.722,-251.303 878.303,-246.453 877.334,-253.386"/>
</g>
<!-- Node11 -->
<g id="node11" class="node"><title>Node11</title>
<g id="a_node11"><a xlink:href="teensy3__morse__bsp_8cpp.html#a82911eac3bf13d6f36d10102a4c4d3c4" target="_top" xlink:title="Generate a tone on the audio output pins. ">
<polygon fill="white" stroke="black" points="899,-209.5 899,-228.5 960,-228.5 960,-209.5 899,-209.5"/>
<text text-anchor="middle" x="929.5" y="-216.5" font-family="Helvetica,sans-Serif" font-size="10.00">pwmWrite</text>
</a>
</g>
</g>
<!-- Node8&#45;&gt;Node11 -->
<g id="edge10" class="edge"><title>Node8&#45;&gt;Node11</title>
<path fill="none" stroke="midnightblue" d="M810.56,-235.477C830.462,-232.697 863.083,-228.139 888.979,-224.521"/>
<polygon fill="midnightblue" stroke="midnightblue" points="889.471,-227.987 898.89,-223.137 888.502,-221.054 889.471,-227.987"/>
</g>
<!-- Node13 -->
<g id="node13" class="node"><title>Node13</title>
<g id="a_node13"><a xlink:href="teensy3__morse__bsp_8cpp.html#a6c982a7d7805f1dd5426eb98c915cfdd" target="_top" xlink:title="Turn the red LED on (1) or off (0). ">
<polygon fill="white" stroke="black" points="904.5,-171.5 904.5,-190.5 954.5,-190.5 954.5,-171.5 904.5,-171.5"/>
<text text-anchor="middle" x="929.5" y="-178.5" font-family="Helvetica,sans-Serif" font-size="10.00">redLED</text>
</a>
</g>
</g>
<!-- Node8&#45;&gt;Node13 -->
<g id="edge12" class="edge"><title>Node8&#45;&gt;Node13</title>
<path fill="none" stroke="midnightblue" d="M810.734,-231.223C819.652,-227.779 830.487,-223.398 840,-219 856.422,-211.408 859.454,-207.318 876,-200 881.992,-197.35 888.48,-194.774 894.784,-192.419"/>
<polygon fill="midnightblue" stroke="midnightblue" points="896.232,-195.617 904.442,-188.92 893.847,-189.036 896.232,-195.617"/>
</g>
<!-- Node12 -->
<g id="node12" class="node"><title>Node12</title>
<g id="a_node12"><a xlink:href="teensy3__morse__bsp_8cpp.html#ac70998cee1bf97f00aec4a1b4e5a4f60" target="_top" xlink:title="isEarphonePresent">
<polygon fill="white" stroke="black" points="1019,-209.5 1019,-228.5 1118,-228.5 1118,-209.5 1019,-209.5"/>
<text text-anchor="middle" x="1068.5" y="-216.5" font-family="Helvetica,sans-Serif" font-size="10.00">isEarphonePresent</text>
</a>
</g>
</g>
<!-- Node11&#45;&gt;Node12 -->
<g id="edge11" class="edge"><title>Node11&#45;&gt;Node12</title>
<path fill="none" stroke="midnightblue" d="M960.227,-219C974.434,-219 991.959,-219 1008.7,-219"/>
<polygon fill="midnightblue" stroke="midnightblue" points="1008.98,-222.5 1018.98,-219 1008.98,-215.5 1008.98,-222.5"/>
</g>
<!-- Node15&#45;&gt;Node2 -->
<g id="edge16" class="edge"><title>Node15&#45;&gt;Node2</title>
<path fill="none" stroke="midnightblue" d="M768.403,-121.156C725.252,-115.855 626.722,-105 543.5,-105 384,-105 384,-105 384,-105 287.139,-105 250.839,-83.8021 168,-134 142.611,-149.385 125.092,-180.05 115.802,-200.034"/>
<polygon fill="midnightblue" stroke="midnightblue" points="112.516,-198.81 111.696,-209.373 118.924,-201.627 112.516,-198.81"/>
</g>
<!-- Node16&#45;&gt;Node6 -->
<g id="edge18" class="edge"><title>Node16&#45;&gt;Node6</title>
<path fill="none" stroke="midnightblue" d="M567.782,-150.237C587.242,-156.037 614.793,-164.248 636.536,-170.728"/>
<polygon fill="midnightblue" stroke="midnightblue" points="635.791,-174.158 646.374,-173.661 637.791,-167.45 635.791,-174.158"/>
</g>
<!-- Node16&#45;&gt;Node15 -->
<g id="edge19" class="edge"><title>Node16&#45;&gt;Node15</title>
<path fill="none" stroke="midnightblue" d="M567.633,-141.144C612.398,-137.7 708.294,-130.324 758.444,-126.466"/>
<polygon fill="midnightblue" stroke="midnightblue" points="758.715,-129.955 768.417,-125.699 758.178,-122.976 758.715,-129.955"/>
</g>
<!-- Node18&#45;&gt;Node3 -->
<g id="edge22" class="edge"><title>Node18&#45;&gt;Node3</title>
<path fill="none" stroke="midnightblue" d="M418.192,-301.601C428.19,-304.491 438.953,-308.511 448,-314 481.757,-334.482 512.051,-369.863 528.502,-391.184"/>
<polygon fill="midnightblue" stroke="midnightblue" points="525.862,-393.496 534.675,-399.376 531.453,-389.283 525.862,-393.496"/>
</g>
<!-- Node18&#45;&gt;Node16 -->
<g id="edge23" class="edge"><title>Node18&#45;&gt;Node16</title>
<path fill="none" stroke="midnightblue" d="M405.284,-285.367C418.122,-278.448 434.961,-268.364 448,-257 481.73,-227.603 512.99,-185.202 529.427,-161.26"/>
<polygon fill="midnightblue" stroke="midnightblue" points="532.461,-163.021 535.16,-152.776 526.661,-159.102 532.461,-163.021"/>
</g>
<!-- Node19&#45;&gt;Node17 -->
<g id="edge25" class="edge"><title>Node19&#45;&gt;Node17</title>
<path fill="none" stroke="midnightblue" d="M286.089,-249.925C294.711,-248.875 303.682,-247.782 312.54,-246.704"/>
<polygon fill="midnightblue" stroke="midnightblue" points="312.964,-250.178 322.467,-245.494 312.117,-243.229 312.964,-250.178"/>
</g>
<!-- Node19&#45;&gt;Node18 -->
<g id="edge26" class="edge"><title>Node19&#45;&gt;Node18</title>
<path fill="none" stroke="midnightblue" d="M267.365,-266.589C290.167,-272.143 318.861,-279.133 342.083,-284.789"/>
<polygon fill="midnightblue" stroke="midnightblue" points="341.451,-288.238 351.996,-287.204 343.108,-281.437 341.451,-288.238"/>
</g>
<!-- Node20&#45;&gt;Node2 -->
<g id="edge28" class="edge"><title>Node20&#45;&gt;Node2</title>
<path fill="none" stroke="midnightblue" d="M212.483,-76.5146C199.627,-81.7533 180.452,-88.1082 168,-100 138.648,-128.032 122.18,-173.263 114.199,-199.347"/>
<polygon fill="midnightblue" stroke="midnightblue" points="110.751,-198.667 111.285,-209.248 117.466,-200.643 110.751,-198.667"/>
</g>
<!-- Node21&#45;&gt;Node18 -->
<g id="edge31" class="edge"><title>Node21&#45;&gt;Node18</title>
<path fill="none" stroke="midnightblue" d="M255.173,-326.381C279.119,-320.548 314.386,-311.957 341.968,-305.238"/>
<polygon fill="midnightblue" stroke="midnightblue" points="342.86,-308.624 351.748,-302.856 341.203,-301.823 342.86,-308.624"/>
</g>
<!-- Node22 -->
<g id="node22" class="node"><title>Node22</title>
<g id="a_node22"><a xlink:href="settings_8cpp.html#a7b4efa097b94f9a90c5bbafcdf93fe4f" target="_top" xlink:title="getUptime">
<polygon fill="white" stroke="black" points="354,-323.5 354,-342.5 416,-342.5 416,-323.5 354,-323.5"/>
<text text-anchor="middle" x="385" y="-330.5" font-family="Helvetica,sans-Serif" font-size="10.00">getUptime</text>
</a>
</g>
</g>
<!-- Node21&#45;&gt;Node22 -->
<g id="edge30" class="edge"><title>Node21&#45;&gt;Node22</title>
<path fill="none" stroke="midnightblue" d="M255.173,-333C279.633,-333 315.905,-333 343.735,-333"/>
<polygon fill="midnightblue" stroke="midnightblue" points="343.945,-336.5 353.945,-333 343.945,-329.5 343.945,-336.5"/>
</g>
<!-- Node24 -->
<g id="node24" class="node"><title>Node24</title>
<g id="a_node24"><a xlink:href="class_voltage_monitor.html#a70902b84f9864c95d5553a0644a64f4f" target="_top" xlink:title="Return the latest voltage reading. ">
<polygon fill="white" stroke="black" points="322,-19.5 322,-38.5 448,-38.5 448,-19.5 322,-19.5"/>
<text text-anchor="middle" x="385" y="-26.5" font-family="Helvetica,sans-Serif" font-size="10.00">VoltageMonitor::getValue</text>
</a>
</g>
</g>
<!-- Node23&#45;&gt;Node24 -->
<g id="edge33" class="edge"><title>Node23&#45;&gt;Node24</title>
<path fill="none" stroke="midnightblue" d="M264.182,-29C278.344,-29 295.117,-29 311.56,-29"/>
<polygon fill="midnightblue" stroke="midnightblue" points="311.728,-32.5001 321.728,-29 311.728,-25.5001 311.728,-32.5001"/>
</g>
<!-- Node25 -->
<g id="node25" class="node"><title>Node25</title>
<g id="a_node25"><a xlink:href="actions_8cpp.html#a2b8c3769e2aa32a2da9e2f3f85ac73dd" target="_top" xlink:title="A sample ADC reading is taken each time through the main loop, and written to a ring buffer...">
<polygon fill="white" stroke="black" points="486.5,-38.5 486.5,-57.5 598.5,-57.5 598.5,-38.5 486.5,-38.5"/>
<text text-anchor="middle" x="542.5" y="-45.5" font-family="Helvetica,sans-Serif" font-size="10.00">getVoltagePollInterval</text>
</a>
</g>
</g>
<!-- Node24&#45;&gt;Node25 -->
<g id="edge34" class="edge"><title>Node24&#45;&gt;Node25</title>
<path fill="none" stroke="midnightblue" d="M448.352,-36.6185C457.438,-37.7287 466.816,-38.8746 475.963,-39.9922"/>
<polygon fill="midnightblue" stroke="midnightblue" points="475.813,-43.4998 486.163,-41.2386 476.662,-36.5515 475.813,-43.4998"/>
</g>
<!-- Node26 -->
<g id="node26" class="node"><title>Node26</title>
<g id="a_node26"><a xlink:href="class_voltage_monitor.html#a75871331808c34b40d04059ee2af0f27" target="_top" xlink:title="Filter and scale raw ADC values to millivolts. ">
<polygon fill="white" stroke="black" points="484,-0.5 484,-19.5 601,-19.5 601,-0.5 484,-0.5"/>
<text text-anchor="middle" x="542.5" y="-7.5" font-family="Helvetica,sans-Serif" font-size="10.00">VoltageMonitor::update</text>
</a>
</g>
</g>
<!-- Node24&#45;&gt;Node26 -->
<g id="edge35" class="edge"><title>Node24&#45;&gt;Node26</title>
<path fill="none" stroke="midnightblue" d="M448.352,-21.3815C456.702,-20.3612 465.298,-19.3108 473.735,-18.2799"/>
<polygon fill="midnightblue" stroke="midnightblue" points="474.419,-21.7226 483.92,-17.0355 473.57,-14.7742 474.419,-21.7226"/>
</g>
<!-- Node27&#45;&gt;Node3 -->
<g id="edge37" class="edge"><title>Node27&#45;&gt;Node3</title>
<path fill="none" stroke="midnightblue" d="M417.843,-409C442.677,-409 477.247,-409 503.522,-409"/>
<polygon fill="midnightblue" stroke="midnightblue" points="503.864,-412.5 513.864,-409 503.863,-405.5 503.864,-412.5"/>
</g>
</g>
</svg>
        <g id="navigator" transform="translate(0 0)" fill="#404254">
                <rect fill="#f2f5e9" fill-opacity="0.5" stroke="#606060" stroke-width=".5" x="0" y="0" width="60" height="60"/>
                <use id="zoomplus" xlink:href="#zoomPlus" x="17" y="9" onmousedown="handleZoom(evt,'in')"/>
                <use id="zoomminus" xlink:href="#zoomMin" x="42" y="9" onmousedown="handleZoom(evt,'out')"/>
                <use id="reset" xlink:href="#resetDef" x="30" y="36" onmousedown="handleReset()"/>
                <g id="arrowUp" xlink:href="#dirArrow" transform="translate(30 24)" onmousedown="handlePan(0,-1)">
                  <use xlink:href="#rim" fill="#404040">
                        <set attributeName="fill" to="#808080" begin="arrowUp.mouseover" end="arrowUp.mouseout"/>
                  </use>
                  <path fill="none" stroke="white" stroke-width="1.5" d="M0,-3.0v7 M-2.5,-0.5L0,-3.0L2.5,-0.5"/>
                </g>
                <g id="arrowRight" xlink:href="#dirArrow" transform="rotate(90) translate(36 -43)" onmousedown="handlePan(1,0)">
                  <use xlink:href="#rim" fill="#404040">
                        <set attributeName="fill" to="#808080" begin="arrowRight.mouseover" end="arrowRight.mouseout"/>
                  </use>
                  <path fill="none" stroke="white" stroke-width="1.5" d="M0,-3.0v7 M-2.5,-0.5L0,-3.0L2.5,-0.5"/>
                </g>
                <g id="arrowDown" xlink:href="#dirArrow" transform="rotate(180) translate(-30 -48)" onmousedown="handlePan(0,1)">
                  <use xlink:href="#rim" fill="#404040">
                        <set attributeName="fill" to="#808080" begin="arrowDown.mouseover" end="arrowDown.mouseout"/>
                  </use>
                  <path fill="none" stroke="white" stroke-width="1.5" d="M0,-3.0v7 M-2.5,-0.5L0,-3.0L2.5,-0.5"/>
                </g>
                <g id="arrowLeft" xlink:href="#dirArrow" transform="rotate(270) translate(-36 17)" onmousedown="handlePan(-1,0)">
                  <use xlink:href="#rim" fill="#404040">
                        <set attributeName="fill" to="#808080" begin="arrowLeft.mouseover" end="arrowLeft.mouseout"/>
                  </use>
                  <path fill="none" stroke="white" stroke-width="1.5" d="M0,-3.0v7 M-2.5,-0.5L0,-3.0L2.5,-0.5"/>
                </g>
        </g>
        <svg viewBox="0 0 15 15" width="100%" height="30px" preserveAspectRatio="xMaxYMin meet">
         <g id="arrow_out" transform="scale(0.3 0.3)">
          <a xlink:href="libmorse_8h_ab94e088615119d1faae7df22ce50aedf_cgraph_org.svg" target="_base">
           <rect id="button" ry="5" rx="5" y="6" x="6" height="38" width="38"
                fill="#f2f5e9" fill-opacity="0.5" stroke="#606060" stroke-width="1.0"/>
           <path id="arrow"
             d="M 11.500037,31.436501 C 11.940474,20.09759 22.043105,11.32322 32.158766,21.979434 L 37.068811,17.246167 C 37.068811,17.246167 37.088388,32 37.088388,32 L 22.160133,31.978069 C 22.160133,31.978069 26.997745,27.140456 26.997745,27.140456 C 18.528582,18.264221 13.291696,25.230495 11.500037,31.436501 z"
             style="fill:#404040;"/>
          </a>
         </g>
        </svg>
</svg>
