<?xml version="1.0" encoding="UTF-8" standalone="no"?>
<!DOCTYPE svg PUBLIC "-//W3C//DTD SVG 1.1//EN"
 "http://www.w3.org/Graphics/SVG/1.1/DTD/svg11.dtd">
<!-- Generated by graphviz version 2.38.0 (20140413.2041)
 -->
<!-- Title: txLetter Pages: 1 -->
<svg width="996pt" height="485pt"
 viewBox="0.00 0.00 996.00 485.23" xmlns="http://www.w3.org/2000/svg" xmlns:xlink="http://www.w3.org/1999/xlink">
<g id="graph0" class="graph" transform="scale(1 1) rotate(0) translate(4 481.229)">
<title>txLetter</title>
<polygon fill="white" stroke="none" points="-4,4 -4,-481.229 992,-481.229 992,4 -4,4"/>
<!-- Node1 -->
<g id="node1" class="node"><title>Node1</title>
<polygon fill="#bfbfbf" stroke="black" points="0,-172.729 0,-191.729 50,-191.729 50,-172.729 0,-172.729"/>
<text text-anchor="middle" x="25" y="-179.729" font-family="Helvetica,sans-Serif" font-size="10.00">txLetter</text>
</g>
<!-- Node2 -->
<g id="node2" class="node"><title>Node2</title>
<g id="a_node2"><a xlink:href="libmorse_8cpp.html#a9fdfce728595d72b78dc7c834ab99a40" target="_top" xlink:title="Transmit a literal Morse code value. ">
<polygon fill="white" stroke="black" points="86,-267.729 86,-286.729 137,-286.729 137,-267.729 86,-267.729"/>
<text text-anchor="middle" x="111.5" y="-274.729" font-family="Helvetica,sans-Serif" font-size="10.00">txLiteral</text>
</a>
</g>
</g>
<!-- Node1&#45;&gt;Node2 -->
<g id="edge1" class="edge"><title>Node1&#45;&gt;Node2</title>
<path fill="none" stroke="midnightblue" d="M34.7247,-192.038C48.9667,-208.049 77.3932,-240.008 95.0926,-259.907"/>
<polygon fill="midnightblue" stroke="midnightblue" points="92.6873,-262.469 101.949,-267.615 97.9177,-257.817 92.6873,-262.469"/>
</g>
<!-- Node12 -->
<g id="node12" class="node"><title>Node12</title>
<g id="a_node12"><a xlink:href="libmorse_8cpp.html#ab94e088615119d1faae7df22ce50aedf" target="_top" xlink:title="Transmit a Morse code prosign indicating an error. ">
<polygon fill="white" stroke="black" points="198.5,-191.729 198.5,-210.729 244.5,-210.729 244.5,-191.729 198.5,-191.729"/>
<text text-anchor="middle" x="221.5" y="-198.729" font-family="Helvetica,sans-Serif" font-size="10.00">txError</text>
</a>
</g>
</g>
<!-- Node1&#45;&gt;Node12 -->
<g id="edge36" class="edge"><title>Node1&#45;&gt;Node12</title>
<path fill="none" stroke="midnightblue" d="M50.2403,-184.597C85.0533,-187.997 149.282,-194.272 188.125,-198.066"/>
<polygon fill="midnightblue" stroke="midnightblue" points="188.069,-201.577 198.361,-199.066 188.749,-194.61 188.069,-201.577"/>
</g>
<!-- Node3 -->
<g id="node3" class="node"><title>Node3</title>
<g id="a_node3"><a xlink:href="class_morse_token.html#a48cd72aeb868391449d1f51c1d0bf5cc" target="_top" xlink:title="Treat code == 0 as the error token. ">
<polygon fill="white" stroke="black" points="173,-343.729 173,-362.729 270,-362.729 270,-343.729 173,-343.729"/>
<text text-anchor="middle" x="221.5" y="-350.729" font-family="Helvetica,sans-Serif" font-size="10.00">MorseToken::valid</text>
</a>
</g>
</g>
<!-- Node2&#45;&gt;Node3 -->
<g id="edge2" class="edge"><title>Node2&#45;&gt;Node3</title>
<path fill="none" stroke="midnightblue" d="M122.173,-286.856C133.643,-297.949 153.652,-316.304 173,-329.229 178.119,-332.648 183.79,-335.913 189.381,-338.873"/>
<polygon fill="midnightblue" stroke="midnightblue" points="188.096,-342.145 198.599,-343.538 191.257,-335.9 188.096,-342.145"/>
</g>
<!-- Node4 -->
<g id="node4" class="node"><title>Node4</title>
<g id="a_node4"><a xlink:href="teensy3__morse__bsp_8cpp.html#af66e71e3fac9b6a2c6532bc8a513bfde" target="_top" xlink:title="Output a square wave on pin 10 at the given frequency for the given duration. ">
<polygon fill="white" stroke="black" points="202.5,-381.729 202.5,-400.729 240.5,-400.729 240.5,-381.729 202.5,-381.729"/>
<text text-anchor="middle" x="221.5" y="-388.729" font-family="Helvetica,sans-Serif" font-size="10.00">beep</text>
</a>
</g>
</g>
<!-- Node2&#45;&gt;Node4 -->
<g id="edge3" class="edge"><title>Node2&#45;&gt;Node4</title>
<path fill="none" stroke="midnightblue" d="M116.288,-286.987C124.11,-305.946 143.795,-348.02 173,-372.229 178.697,-376.951 185.717,-380.612 192.595,-383.402"/>
<polygon fill="midnightblue" stroke="midnightblue" points="191.805,-386.836 202.4,-386.889 194.151,-380.241 191.805,-386.836"/>
</g>
<!-- Node10 -->
<g id="node10" class="node"><title>Node10</title>
<g id="a_node10"><a xlink:href="settings_8cpp.html#a8575b9b52638114a4f32d1462cf9b7c1" target="_top" xlink:title="Get the transmission frequency (side tone). ">
<polygon fill="white" stroke="black" points="194.5,-267.729 194.5,-286.729 248.5,-286.729 248.5,-267.729 194.5,-267.729"/>
<text text-anchor="middle" x="221.5" y="-274.729" font-family="Helvetica,sans-Serif" font-size="10.00">getTxHz</text>
</a>
</g>
</g>
<!-- Node2&#45;&gt;Node10 -->
<g id="edge9" class="edge"><title>Node2&#45;&gt;Node10</title>
<path fill="none" stroke="midnightblue" d="M137.007,-277.229C150.862,-277.229 168.454,-277.229 183.913,-277.229"/>
<polygon fill="midnightblue" stroke="midnightblue" points="184.203,-280.729 194.203,-277.229 184.203,-273.729 184.203,-280.729"/>
</g>
<!-- Node11 -->
<g id="node11" class="node"><title>Node11</title>
<g id="a_node11"><a xlink:href="settings_8cpp.html#a960551e90dfdad18f3c9b1338ccba7db" target="_top" xlink:title="Get the dit duration in microseconds. ">
<polygon fill="white" stroke="black" points="472,-305.729 472,-324.729 544,-324.729 544,-305.729 472,-305.729"/>
<text text-anchor="middle" x="508" y="-312.729" font-family="Helvetica,sans-Serif" font-size="10.00">getDitMicros</text>
</a>
</g>
</g>
<!-- Node2&#45;&gt;Node11 -->
<g id="edge10" class="edge"><title>Node2&#45;&gt;Node11</title>
<path fill="none" stroke="midnightblue" d="M137.171,-286.498C148.008,-290.171 160.978,-294.034 173,-296.229 274.751,-314.803 396.567,-316.73 461.293,-316.182"/>
<polygon fill="midnightblue" stroke="midnightblue" points="461.597,-319.679 471.558,-316.07 461.521,-312.679 461.597,-319.679"/>
</g>
<!-- Node2&#45;&gt;Node12 -->
<g id="edge11" class="edge"><title>Node2&#45;&gt;Node12</title>
<path fill="none" stroke="midnightblue" d="M122.173,-267.601C133.643,-256.509 153.652,-238.153 173,-225.229 178.119,-221.809 183.79,-218.544 189.381,-215.585"/>
<polygon fill="midnightblue" stroke="midnightblue" points="191.257,-218.558 198.599,-210.919 188.096,-212.312 191.257,-218.558"/>
</g>
<!-- Node5 -->
<g id="node5" class="node"><title>Node5</title>
<g id="a_node5"><a xlink:href="teensy3__morse__bsp_8cpp.html#a6f674d5b9985ea3a7eeb0df299c2e405" target="_top" xlink:title="pollEarphonePresent">
<polygon fill="white" stroke="black" points="306,-419.729 306,-438.729 413,-438.729 413,-419.729 306,-419.729"/>
<text text-anchor="middle" x="359.5" y="-426.729" font-family="Helvetica,sans-Serif" font-size="10.00">pollEarphonePresent</text>
</a>
</g>
</g>
<!-- Node4&#45;&gt;Node5 -->
<g id="edge4" class="edge"><title>Node4&#45;&gt;Node5</title>
<path fill="none" stroke="midnightblue" d="M240.56,-396.275C259.377,-401.533 289.566,-409.968 314.689,-416.987"/>
<polygon fill="midnightblue" stroke="midnightblue" points="313.815,-420.377 324.388,-419.697 315.699,-413.635 313.815,-420.377"/>
</g>
<!-- Node6 -->
<g id="node6" class="node"><title>Node6</title>
<g id="a_node6"><a xlink:href="teensy3__morse__bsp_8cpp.html#a2d6b4ace33ed5e497dedd03217540c63" target="_top" xlink:title="Set the PWM frequency for the audio output pins. ">
<polygon fill="white" stroke="black" points="318,-381.729 318,-400.729 401,-400.729 401,-381.729 318,-381.729"/>
<text text-anchor="middle" x="359.5" y="-388.729" font-family="Helvetica,sans-Serif" font-size="10.00">pwmFrequency</text>
</a>
</g>
</g>
<!-- Node4&#45;&gt;Node6 -->
<g id="edge5" class="edge"><title>Node4&#45;&gt;Node6</title>
<path fill="none" stroke="midnightblue" d="M240.56,-391.229C257.617,-391.229 284.017,-391.229 307.519,-391.229"/>
<polygon fill="midnightblue" stroke="midnightblue" points="307.722,-394.729 317.722,-391.229 307.722,-387.729 307.722,-394.729"/>
</g>
<!-- Node7 -->
<g id="node7" class="node"><title>Node7</title>
<g id="a_node7"><a xlink:href="teensy3__morse__bsp_8cpp.html#a82911eac3bf13d6f36d10102a4c4d3c4" target="_top" xlink:title="Generate a tone on the audio output pins. ">
<polygon fill="white" stroke="black" points="329,-343.729 329,-362.729 390,-362.729 390,-343.729 329,-343.729"/>
<text text-anchor="middle" x="359.5" y="-350.729" font-family="Helvetica,sans-Serif" font-size="10.00">pwmWrite</text>
</a>
</g>
</g>
<!-- Node4&#45;&gt;Node7 -->
<g id="edge6" class="edge"><title>Node4&#45;&gt;Node7</title>
<path fill="none" stroke="midnightblue" d="M240.56,-386.183C260.462,-380.622 293.083,-371.507 318.979,-364.271"/>
<polygon fill="midnightblue" stroke="midnightblue" points="320.201,-367.564 328.89,-361.502 318.317,-360.822 320.201,-367.564"/>
</g>
<!-- Node9 -->
<g id="node9" class="node"><title>Node9</title>
<g id="a_node9"><a xlink:href="teensy3__morse__bsp_8cpp.html#a6c982a7d7805f1dd5426eb98c915cfdd" target="_top" xlink:title="Turn the red LED on (1) or off (0). ">
<polygon fill="white" stroke="black" points="334.5,-457.729 334.5,-476.729 384.5,-476.729 384.5,-457.729 334.5,-457.729"/>
<text text-anchor="middle" x="359.5" y="-464.729" font-family="Helvetica,sans-Serif" font-size="10.00">redLED</text>
</a>
</g>
</g>
<!-- Node4&#45;&gt;Node9 -->
<g id="edge8" class="edge"><title>Node4&#45;&gt;Node9</title>
<path fill="none" stroke="midnightblue" d="M234.345,-400.743C250.009,-412.981 278.814,-434.313 306,-448.229 311.889,-451.243 318.369,-454.001 324.707,-456.424"/>
<polygon fill="midnightblue" stroke="midnightblue" points="323.85,-459.836 334.444,-459.946 326.231,-453.253 323.85,-459.836"/>
</g>
<!-- Node8 -->
<g id="node8" class="node"><title>Node8</title>
<g id="a_node8"><a xlink:href="teensy3__morse__bsp_8cpp.html#ac70998cee1bf97f00aec4a1b4e5a4f60" target="_top" xlink:title="isEarphonePresent">
<polygon fill="white" stroke="black" points="458.5,-343.729 458.5,-362.729 557.5,-362.729 557.5,-343.729 458.5,-343.729"/>
<text text-anchor="middle" x="508" y="-350.729" font-family="Helvetica,sans-Serif" font-size="10.00">isEarphonePresent</text>
</a>
</g>
</g>
<!-- Node7&#45;&gt;Node8 -->
<g id="edge7" class="edge"><title>Node7&#45;&gt;Node8</title>
<path fill="none" stroke="midnightblue" d="M390.146,-353.229C406.807,-353.229 428.199,-353.229 448.116,-353.229"/>
<polygon fill="midnightblue" stroke="midnightblue" points="448.364,-356.729 458.364,-353.229 448.364,-349.729 448.364,-356.729"/>
</g>
<!-- Node13 -->
<g id="node13" class="node"><title>Node13</title>
<g id="a_node13"><a xlink:href="libmorse_8cpp.html#a0ee2308940264ea9ac8e50afc1a4d285" target="_top" xlink:title="txString">
<polygon fill="white" stroke="black" points="334.5,-191.729 334.5,-210.729 384.5,-210.729 384.5,-191.729 334.5,-191.729"/>
<text text-anchor="middle" x="359.5" y="-198.729" font-family="Helvetica,sans-Serif" font-size="10.00">txString</text>
</a>
</g>
</g>
<!-- Node12&#45;&gt;Node13 -->
<g id="edge12" class="edge"><title>Node12&#45;&gt;Node13</title>
<path fill="none" stroke="midnightblue" d="M244.653,-201.229C266.124,-201.229 299.008,-201.229 323.923,-201.229"/>
<polygon fill="midnightblue" stroke="midnightblue" points="324.057,-204.729 334.057,-201.229 324.057,-197.729 324.057,-204.729"/>
</g>
<!-- Node13&#45;&gt;Node1 -->
<g id="edge17" class="edge"><title>Node13&#45;&gt;Node1</title>
<path fill="none" stroke="midnightblue" d="M334.307,-194.587C316.643,-190.094 292.034,-184.567 270,-182.229 195.591,-174.331 107.698,-177.332 60.3546,-179.952"/>
<polygon fill="midnightblue" stroke="midnightblue" points="60.1121,-176.46 50.3322,-180.535 60.5186,-183.448 60.1121,-176.46"/>
</g>
<!-- Node13&#45;&gt;Node2 -->
<g id="edge16" class="edge"><title>Node13&#45;&gt;Node2</title>
<path fill="none" stroke="midnightblue" d="M334.473,-208.56C299.094,-219.366 230.913,-240.237 173,-258.229 164.537,-260.858 155.414,-263.712 146.883,-266.39"/>
<polygon fill="midnightblue" stroke="midnightblue" points="145.705,-263.092 137.215,-269.429 147.804,-269.769 145.705,-263.092"/>
</g>
<!-- Node13&#45;&gt;Node11 -->
<g id="edge15" class="edge"><title>Node13&#45;&gt;Node11</title>
<path fill="none" stroke="midnightblue" d="M366.871,-210.808C380.001,-229.828 411.963,-272.558 449,-296.229 453.135,-298.871 457.672,-301.18 462.33,-303.188"/>
<polygon fill="midnightblue" stroke="midnightblue" points="461.383,-306.574 471.973,-306.901 463.898,-300.041 461.383,-306.574"/>
</g>
<!-- Node14 -->
<g id="node14" class="node"><title>Node14</title>
<g id="a_node14"><a xlink:href="teensy3__morse__bsp_8cpp.html#ab306f692c5c9455a0c82782a67ff0147" target="_top" xlink:title="touchPoll">
<polygon fill="white" stroke="black" points="795,-153.729 795,-172.729 852,-172.729 852,-153.729 795,-153.729"/>
<text text-anchor="middle" x="823.5" y="-160.729" font-family="Helvetica,sans-Serif" font-size="10.00">touchPoll</text>
</a>
</g>
</g>
<!-- Node13&#45;&gt;Node14 -->
<g id="edge13" class="edge"><title>Node13&#45;&gt;Node14</title>
<path fill="none" stroke="midnightblue" d="M384.689,-199.239C460.323,-193.018 692.758,-173.9 784.598,-166.346"/>
<polygon fill="midnightblue" stroke="midnightblue" points="785.148,-169.813 794.827,-165.505 784.574,-162.836 785.148,-169.813"/>
</g>
<!-- Node16 -->
<g id="node16" class="node"><title>Node16</title>
<g id="a_node16"><a xlink:href="teensy3__morse__bsp_8cpp.html#a8761e874366e227690fba2964e1bc445" target="_top" xlink:title="getInternalTemperatureC">
<polygon fill="white" stroke="black" points="603.5,-1.72873 603.5,-20.7287 728.5,-20.7287 728.5,-1.72873 603.5,-1.72873"/>
<text text-anchor="middle" x="666" y="-8.72873" font-family="Helvetica,sans-Serif" font-size="10.00">getInternalTemperatureC</text>
</a>
</g>
</g>
<!-- Node13&#45;&gt;Node16 -->
<g id="edge18" class="edge"><title>Node13&#45;&gt;Node16</title>
<path fill="none" stroke="midnightblue" d="M362.227,-191.307C368.072,-161.062 390.132,-69.6843 449,-30.2287 491.154,-1.97509 548.807,1.79136 593.948,-0.974787"/>
<polygon fill="midnightblue" stroke="midnightblue" points="593.734,-4.46843 603.963,-1.70673 594.244,2.51295 593.734,-4.46843"/>
</g>
<!-- Node17 -->
<g id="node17" class="node"><title>Node17</title>
<g id="a_node17"><a xlink:href="libmorse_8cpp.html#a47abdd74b66d7180c47d192bab8bdccb" target="_top" xlink:title="Transmit an unsigned integer in Morse code. ">
<polygon fill="white" stroke="black" points="633,-77.7287 633,-96.7287 699,-96.7287 699,-77.7287 633,-77.7287"/>
<text text-anchor="middle" x="666" y="-84.7287" font-family="Helvetica,sans-Serif" font-size="10.00">txUnsigned</text>
</a>
</g>
</g>
<!-- Node13&#45;&gt;Node17 -->
<g id="edge19" class="edge"><title>Node13&#45;&gt;Node17</title>
<path fill="none" stroke="midnightblue" d="M366.077,-191.522C378.2,-171.467 409.098,-125.714 449,-106.229 504.39,-79.18 577.293,-78.9602 622.644,-82.3145"/>
<polygon fill="midnightblue" stroke="midnightblue" points="622.463,-85.8115 632.719,-83.1524 623.043,-78.8356 622.463,-85.8115"/>
</g>
<!-- Node18 -->
<g id="node18" class="node"><title>Node18</title>
<g id="a_node18"><a xlink:href="actions_8cpp.html#aed718ec1bd4cc7adb2f65d40a6784496" target="_top" xlink:title="Transmit the internal temperature in integer in Fahrenheit. ">
<polygon fill="white" stroke="black" points="449,-39.7287 449,-58.7287 567,-58.7287 567,-39.7287 449,-39.7287"/>
<text text-anchor="middle" x="508" y="-46.7287" font-family="Helvetica,sans-Serif" font-size="10.00">txInternalTemperatureF</text>
</a>
</g>
</g>
<!-- Node13&#45;&gt;Node18 -->
<g id="edge22" class="edge"><title>Node13&#45;&gt;Node18</title>
<path fill="none" stroke="midnightblue" d="M364.822,-191.471C375.681,-167.978 406.324,-107.676 449,-73.2287 453.953,-69.231 459.665,-65.8082 465.531,-62.9061"/>
<polygon fill="midnightblue" stroke="midnightblue" points="467.09,-66.043 474.791,-58.7664 464.233,-59.6525 467.09,-66.043"/>
</g>
<!-- Node19 -->
<g id="node19" class="node"><title>Node19</title>
<g id="a_node19"><a xlink:href="actions_8cpp.html#aaabb3ac0c23f35a499bc17efe829f326" target="_top" xlink:title="Transmit the 24&#45;hr time. ">
<polygon fill="white" stroke="black" points="469,-229.729 469,-248.729 547,-248.729 547,-229.729 469,-229.729"/>
<text text-anchor="middle" x="508" y="-236.729" font-family="Helvetica,sans-Serif" font-size="10.00">txTimeHHMM</text>
</a>
</g>
</g>
<!-- Node13&#45;&gt;Node19 -->
<g id="edge25" class="edge"><title>Node13&#45;&gt;Node19</title>
<path fill="none" stroke="midnightblue" d="M384.691,-202.337C410.49,-207.023 451.315,-217.512 478.616,-226.399"/>
<polygon fill="midnightblue" stroke="midnightblue" points="477.763,-229.806 488.357,-229.711 480.016,-223.178 477.763,-229.806"/>
</g>
<!-- Node20 -->
<g id="node20" class="node"><title>Node20</title>
<g id="a_node20"><a xlink:href="actions_8cpp.html#ad02149679fa3cc6a4957d1a318408ffd" target="_top" xlink:title="Transmit the uptime. ">
<polygon fill="white" stroke="black" points="480,-115.729 480,-134.729 536,-134.729 536,-115.729 480,-115.729"/>
<text text-anchor="middle" x="508" y="-122.729" font-family="Helvetica,sans-Serif" font-size="10.00">txUptime</text>
</a>
</g>
</g>
<!-- Node13&#45;&gt;Node20 -->
<g id="edge27" class="edge"><title>Node13&#45;&gt;Node20</title>
<path fill="none" stroke="midnightblue" d="M375.492,-191.552C392.813,-180.577 422.357,-162.488 449,-149.229 456.491,-145.501 464.706,-141.85 472.536,-138.566"/>
<polygon fill="midnightblue" stroke="midnightblue" points="473.897,-141.791 481.823,-134.76 471.243,-135.313 473.897,-141.791"/>
</g>
<!-- Node22 -->
<g id="node22" class="node"><title>Node22</title>
<g id="a_node22"><a xlink:href="teensy3__morse__bsp_8cpp.html#ae8dd28759e56dbd2ee9bc9ae96d1783c" target="_top" xlink:title="Return the most recent ADC measurement of the input voltage. Perform analog to digital conversion on ...">
<polygon fill="white" stroke="black" points="471,-267.729 471,-286.729 545,-286.729 545,-267.729 471,-267.729"/>
<text text-anchor="middle" x="508" y="-274.729" font-family="Helvetica,sans-Serif" font-size="10.00">readMillivolts</text>
</a>
</g>
</g>
<!-- Node13&#45;&gt;Node22 -->
<g id="edge30" class="edge"><title>Node13&#45;&gt;Node22</title>
<path fill="none" stroke="midnightblue" d="M373.086,-210.819C389.722,-223.138 420.289,-244.558 449,-258.229 453.606,-260.422 458.53,-262.462 463.49,-264.329"/>
<polygon fill="midnightblue" stroke="midnightblue" points="462.405,-267.657 473,-267.701 464.745,-261.06 462.405,-267.657"/>
</g>
<!-- Node26 -->
<g id="node26" class="node"><title>Node26</title>
<g id="a_node26"><a xlink:href="libmorse_8cpp.html#ac3f000c98271c6d0a7710135e18189bc" target="_top" xlink:title="On my hardware there is cross&#45;coupling between the serial port and the touch sensors. Without the code below, long messages to the serial port trigger a touch input. ">
<polygon fill="white" stroke="black" points="633.5,-191.729 633.5,-210.729 698.5,-210.729 698.5,-191.729 633.5,-191.729"/>
<text text-anchor="middle" x="666" y="-198.729" font-family="Helvetica,sans-Serif" font-size="10.00">flushTouch</text>
</a>
</g>
</g>
<!-- Node13&#45;&gt;Node26 -->
<g id="edge34" class="edge"><title>Node13&#45;&gt;Node26</title>
<path fill="none" stroke="midnightblue" d="M384.648,-201.229C436.348,-201.229 558.29,-201.229 622.986,-201.229"/>
<polygon fill="midnightblue" stroke="midnightblue" points="623.237,-204.729 633.237,-201.229 623.237,-197.729 623.237,-204.729"/>
</g>
<!-- Node15 -->
<g id="node15" class="node"><title>Node15</title>
<g id="a_node15"><a xlink:href="teensy3__morse__bsp_8cpp.html#af6899cd9b83df54106b259ab81ea5cb2" target="_top" xlink:title="touchMargin">
<polygon fill="white" stroke="black" points="918,-153.729 918,-172.729 988,-172.729 988,-153.729 918,-153.729"/>
<text text-anchor="middle" x="953" y="-160.729" font-family="Helvetica,sans-Serif" font-size="10.00">touchMargin</text>
</a>
</g>
</g>
<!-- Node14&#45;&gt;Node15 -->
<g id="edge14" class="edge"><title>Node14&#45;&gt;Node15</title>
<path fill="none" stroke="midnightblue" d="M852.166,-163.229C868.281,-163.229 888.984,-163.229 907.355,-163.229"/>
<polygon fill="midnightblue" stroke="midnightblue" points="907.562,-166.729 917.562,-163.229 907.562,-159.729 907.562,-166.729"/>
</g>
<!-- Node17&#45;&gt;Node1 -->
<g id="edge21" class="edge"><title>Node17&#45;&gt;Node1</title>
<path fill="none" stroke="midnightblue" d="M652.545,-77.5484C634.715,-64.284 600.373,-40.8923 567,-30.2287 479.207,-2.17625 452.665,-11.2287 360.5,-11.2287 220.5,-11.2287 220.5,-11.2287 220.5,-11.2287 128.957,-11.2287 59.9981,-119.392 35.6043,-163.67"/>
<polygon fill="midnightblue" stroke="midnightblue" points="32.4861,-162.078 30.8437,-172.545 38.6548,-165.387 32.4861,-162.078"/>
</g>
<!-- Node17&#45;&gt;Node14 -->
<g id="edge20" class="edge"><title>Node17&#45;&gt;Node14</title>
<path fill="none" stroke="midnightblue" d="M699.102,-95.403C708.889,-98.3345 719.553,-101.983 729,-106.229 754.929,-117.883 782.468,-135.37 800.889,-147.899"/>
<polygon fill="midnightblue" stroke="midnightblue" points="798.935,-150.804 809.153,-153.605 802.912,-145.043 798.935,-150.804"/>
</g>
<!-- Node18&#45;&gt;Node16 -->
<g id="edge23" class="edge"><title>Node18&#45;&gt;Node16</title>
<path fill="none" stroke="midnightblue" d="M548.365,-39.6397C568.951,-34.6252 594.34,-28.4407 616.169,-23.1235"/>
<polygon fill="midnightblue" stroke="midnightblue" points="617.03,-26.5161 625.918,-20.7488 615.373,-19.715 617.03,-26.5161"/>
</g>
<!-- Node18&#45;&gt;Node17 -->
<g id="edge24" class="edge"><title>Node18&#45;&gt;Node17</title>
<path fill="none" stroke="midnightblue" d="M548.365,-58.8177C571.167,-64.372 599.861,-71.3616 623.083,-77.0182"/>
<polygon fill="midnightblue" stroke="midnightblue" points="622.451,-80.4666 632.996,-79.4328 624.108,-73.6655 622.451,-80.4666"/>
</g>
<!-- Node19&#45;&gt;Node13 -->
<g id="edge26" class="edge"><title>Node19&#45;&gt;Node13</title>
<path fill="none" stroke="midnightblue" d="M468.753,-235.32C443.819,-229.99 411.811,-221.51 389.083,-214.123"/>
<polygon fill="midnightblue" stroke="midnightblue" points="389.947,-210.72 379.352,-210.821 387.697,-217.349 389.947,-210.72"/>
</g>
<!-- Node20&#45;&gt;Node17 -->
<g id="edge29" class="edge"><title>Node20&#45;&gt;Node17</title>
<path fill="none" stroke="midnightblue" d="M536.173,-118.61C560.119,-112.777 595.386,-104.186 622.968,-97.4672"/>
<polygon fill="midnightblue" stroke="midnightblue" points="623.86,-100.852 632.748,-95.0851 622.203,-94.0513 623.86,-100.852"/>
</g>
<!-- Node21 -->
<g id="node21" class="node"><title>Node21</title>
<g id="a_node21"><a xlink:href="settings_8cpp.html#a7b4efa097b94f9a90c5bbafcdf93fe4f" target="_top" xlink:title="getUptime">
<polygon fill="white" stroke="black" points="635,-115.729 635,-134.729 697,-134.729 697,-115.729 635,-115.729"/>
<text text-anchor="middle" x="666" y="-122.729" font-family="Helvetica,sans-Serif" font-size="10.00">getUptime</text>
</a>
</g>
</g>
<!-- Node20&#45;&gt;Node21 -->
<g id="edge28" class="edge"><title>Node20&#45;&gt;Node21</title>
<path fill="none" stroke="midnightblue" d="M536.173,-125.229C560.633,-125.229 596.905,-125.229 624.735,-125.229"/>
<polygon fill="midnightblue" stroke="midnightblue" points="624.945,-128.729 634.945,-125.229 624.945,-121.729 624.945,-128.729"/>
</g>
<!-- Node23 -->
<g id="node23" class="node"><title>Node23</title>
<g id="a_node23"><a xlink:href="class_voltage_monitor.html#a70902b84f9864c95d5553a0644a64f4f" target="_top" xlink:title="Return the latest voltage reading. ">
<polygon fill="white" stroke="black" points="603,-267.729 603,-286.729 729,-286.729 729,-267.729 603,-267.729"/>
<text text-anchor="middle" x="666" y="-274.729" font-family="Helvetica,sans-Serif" font-size="10.00">VoltageMonitor::getValue</text>
</a>
</g>
</g>
<!-- Node22&#45;&gt;Node23 -->
<g id="edge31" class="edge"><title>Node22&#45;&gt;Node23</title>
<path fill="none" stroke="midnightblue" d="M545.182,-277.229C559.344,-277.229 576.117,-277.229 592.56,-277.229"/>
<polygon fill="midnightblue" stroke="midnightblue" points="592.728,-280.729 602.728,-277.229 592.728,-273.729 592.728,-280.729"/>
</g>
<!-- Node24 -->
<g id="node24" class="node"><title>Node24</title>
<g id="a_node24"><a xlink:href="actions_8cpp.html#a2b8c3769e2aa32a2da9e2f3f85ac73dd" target="_top" xlink:title="A sample ADC reading is taken each time through the main loop, and written to a ring buffer...">
<polygon fill="white" stroke="black" points="767.5,-286.729 767.5,-305.729 879.5,-305.729 879.5,-286.729 767.5,-286.729"/>
<text text-anchor="middle" x="823.5" y="-293.729" font-family="Helvetica,sans-Serif" font-size="10.00">getVoltagePollInterval</text>
</a>
</g>
</g>
<!-- Node23&#45;&gt;Node24 -->
<g id="edge32" class="edge"><title>Node23&#45;&gt;Node24</title>
<path fill="none" stroke="midnightblue" d="M729.352,-284.847C738.438,-285.957 747.816,-287.103 756.963,-288.221"/>
<polygon fill="midnightblue" stroke="midnightblue" points="756.813,-291.729 767.163,-289.467 757.662,-284.78 756.813,-291.729"/>
</g>
<!-- Node25 -->
<g id="node25" class="node"><title>Node25</title>
<g id="a_node25"><a xlink:href="class_voltage_monitor.html#a75871331808c34b40d04059ee2af0f27" target="_top" xlink:title="Filter and scale raw ADC values to millivolts. ">
<polygon fill="white" stroke="black" points="765,-248.729 765,-267.729 882,-267.729 882,-248.729 765,-248.729"/>
<text text-anchor="middle" x="823.5" y="-255.729" font-family="Helvetica,sans-Serif" font-size="10.00">VoltageMonitor::update</text>
</a>
</g>
</g>
<!-- Node23&#45;&gt;Node25 -->
<g id="edge33" class="edge"><title>Node23&#45;&gt;Node25</title>
<path fill="none" stroke="midnightblue" d="M729.352,-269.61C737.702,-268.59 746.298,-267.54 754.735,-266.509"/>
<polygon fill="midnightblue" stroke="midnightblue" points="755.419,-269.951 764.92,-265.264 754.57,-263.003 755.419,-269.951"/>
</g>
<!-- Node26&#45;&gt;Node14 -->
<g id="edge35" class="edge"><title>Node26&#45;&gt;Node14</title>
<path fill="none" stroke="midnightblue" d="M698.843,-193.447C723.788,-187.351 758.554,-178.855 784.872,-172.424"/>
<polygon fill="midnightblue" stroke="midnightblue" points="785.98,-175.756 794.864,-169.982 784.318,-168.956 785.98,-175.756"/>
</g>
</g>
</svg>
