<?xml version="1.0" encoding="UTF-8" standalone="no"?>
<!DOCTYPE svg PUBLIC "-//W3C//DTD SVG 1.1//EN"
 "http://www.w3.org/Graphics/SVG/1.1/DTD/svg11.dtd">
<!-- Generated by graphviz version 2.38.0 (20140413.2041)
 -->
<!-- Title: txUnsigned Pages: 1 -->
<svg width="992pt" height="406pt"
 viewBox="0.00 0.00 992.00 405.71" xmlns="http://www.w3.org/2000/svg" xmlns:xlink="http://www.w3.org/1999/xlink">
<g id="graph0" class="graph" transform="scale(1 1) rotate(0) translate(4 401.714)">
<title>txUnsigned</title>
<polygon fill="white" stroke="none" points="-4,4 -4,-401.714 988,-401.714 988,4 -4,4"/>
<!-- Node1 -->
<g id="node1" class="node"><title>Node1</title>
<polygon fill="#bfbfbf" stroke="black" points="0,-76.5 0,-95.5 66,-95.5 66,-76.5 0,-76.5"/>
<text text-anchor="middle" x="33" y="-83.5" font-family="Helvetica,sans-Serif" font-size="10.00">txUnsigned</text>
</g>
<!-- Node2 -->
<g id="node2" class="node"><title>Node2</title>
<g id="a_node2"><a xlink:href="teensy3__morse__bsp_8cpp.html#ab306f692c5c9455a0c82782a67ff0147" target="_top" xlink:title="touchPoll">
<polygon fill="white" stroke="black" points="739.5,-228.5 739.5,-247.5 796.5,-247.5 796.5,-228.5 739.5,-228.5"/>
<text text-anchor="middle" x="768" y="-235.5" font-family="Helvetica,sans-Serif" font-size="10.00">touchPoll</text>
</a>
</g>
</g>
<!-- Node1&#45;&gt;Node2 -->
<g id="edge1" class="edge"><title>Node1&#45;&gt;Node2</title>
<path fill="none" stroke="midnightblue" d="M34.8955,-95.7703C40.244,-147.805 72.6504,-390 212.5,-390 212.5,-390 212.5,-390 462.5,-390 554.665,-390 588.733,-416.295 669,-371 715.253,-344.899 745.867,-286.973 759.267,-256.917"/>
<polygon fill="midnightblue" stroke="midnightblue" points="762.561,-258.116 763.286,-247.546 756.128,-255.356 762.561,-258.116"/>
</g>
<!-- Node4 -->
<g id="node4" class="node"><title>Node4</title>
<g id="a_node4"><a xlink:href="libmorse_8cpp.html#acd4b292f5e412ee4f05aed9dafbc072d" target="_top" xlink:title="Convert an ASCII character into Morse code and transmit it. ">
<polygon fill="white" stroke="black" points="102,-133.5 102,-152.5 152,-152.5 152,-133.5 102,-133.5"/>
<text text-anchor="middle" x="127" y="-140.5" font-family="Helvetica,sans-Serif" font-size="10.00">txLetter</text>
</a>
</g>
</g>
<!-- Node1&#45;&gt;Node4 -->
<g id="edge3" class="edge"><title>Node1&#45;&gt;Node4</title>
<path fill="none" stroke="midnightblue" d="M49.6065,-95.6693C63.9673,-104.567 85.4816,-117.896 102.023,-128.145"/>
<polygon fill="midnightblue" stroke="midnightblue" points="100.28,-131.182 110.624,-133.474 103.967,-125.232 100.28,-131.182"/>
</g>
<!-- Node3 -->
<g id="node3" class="node"><title>Node3</title>
<g id="a_node3"><a xlink:href="teensy3__morse__bsp_8cpp.html#af6899cd9b83df54106b259ab81ea5cb2" target="_top" xlink:title="touchMargin">
<polygon fill="white" stroke="black" points="890.5,-228.5 890.5,-247.5 960.5,-247.5 960.5,-228.5 890.5,-228.5"/>
<text text-anchor="middle" x="925.5" y="-235.5" font-family="Helvetica,sans-Serif" font-size="10.00">touchMargin</text>
</a>
</g>
</g>
<!-- Node2&#45;&gt;Node3 -->
<g id="edge2" class="edge"><title>Node2&#45;&gt;Node3</title>
<path fill="none" stroke="midnightblue" d="M796.8,-238C819.937,-238 853.306,-238 880.131,-238"/>
<polygon fill="midnightblue" stroke="midnightblue" points="880.429,-241.5 890.429,-238 880.429,-234.5 880.429,-241.5"/>
</g>
<!-- Node5 -->
<g id="node5" class="node"><title>Node5</title>
<g id="a_node5"><a xlink:href="libmorse_8cpp.html#a9fdfce728595d72b78dc7c834ab99a40" target="_top" xlink:title="Transmit a literal Morse code value. ">
<polygon fill="white" stroke="black" points="188,-228.5 188,-247.5 239,-247.5 239,-228.5 188,-228.5"/>
<text text-anchor="middle" x="213.5" y="-235.5" font-family="Helvetica,sans-Serif" font-size="10.00">txLiteral</text>
</a>
</g>
</g>
<!-- Node4&#45;&gt;Node5 -->
<g id="edge4" class="edge"><title>Node4&#45;&gt;Node5</title>
<path fill="none" stroke="midnightblue" d="M136.725,-152.809C150.967,-168.821 179.393,-200.779 197.093,-220.678"/>
<polygon fill="midnightblue" stroke="midnightblue" points="194.687,-223.24 203.949,-228.386 199.918,-218.588 194.687,-223.24"/>
</g>
<!-- Node15 -->
<g id="node15" class="node"><title>Node15</title>
<g id="a_node15"><a xlink:href="libmorse_8cpp.html#ab94e088615119d1faae7df22ce50aedf" target="_top" xlink:title="Transmit a Morse code prosign indicating an error. ">
<polygon fill="white" stroke="black" points="300.5,-152.5 300.5,-171.5 346.5,-171.5 346.5,-152.5 300.5,-152.5"/>
<text text-anchor="middle" x="323.5" y="-159.5" font-family="Helvetica,sans-Serif" font-size="10.00">txError</text>
</a>
</g>
</g>
<!-- Node4&#45;&gt;Node15 -->
<g id="edge36" class="edge"><title>Node4&#45;&gt;Node15</title>
<path fill="none" stroke="midnightblue" d="M152.24,-145.368C187.053,-148.769 251.282,-155.043 290.125,-158.837"/>
<polygon fill="midnightblue" stroke="midnightblue" points="290.069,-162.348 300.361,-159.837 290.749,-155.382 290.069,-162.348"/>
</g>
<!-- Node6 -->
<g id="node6" class="node"><title>Node6</title>
<g id="a_node6"><a xlink:href="class_morse_token.html#a48cd72aeb868391449d1f51c1d0bf5cc" target="_top" xlink:title="Treat code == 0 as the error token. ">
<polygon fill="white" stroke="black" points="275,-228.5 275,-247.5 372,-247.5 372,-228.5 275,-228.5"/>
<text text-anchor="middle" x="323.5" y="-235.5" font-family="Helvetica,sans-Serif" font-size="10.00">MorseToken::valid</text>
</a>
</g>
</g>
<!-- Node5&#45;&gt;Node6 -->
<g id="edge5" class="edge"><title>Node5&#45;&gt;Node6</title>
<path fill="none" stroke="midnightblue" d="M239.007,-238C246.694,-238 255.531,-238 264.516,-238"/>
<polygon fill="midnightblue" stroke="midnightblue" points="264.67,-241.5 274.67,-238 264.67,-234.5 264.67,-241.5"/>
</g>
<!-- Node7 -->
<g id="node7" class="node"><title>Node7</title>
<g id="a_node7"><a xlink:href="teensy3__morse__bsp_8cpp.html#af66e71e3fac9b6a2c6532bc8a513bfde" target="_top" xlink:title="Output a square wave on pin 10 at the given frequency for the given duration. ">
<polygon fill="white" stroke="black" points="304.5,-304.5 304.5,-323.5 342.5,-323.5 342.5,-304.5 304.5,-304.5"/>
<text text-anchor="middle" x="323.5" y="-311.5" font-family="Helvetica,sans-Serif" font-size="10.00">beep</text>
</a>
</g>
</g>
<!-- Node5&#45;&gt;Node7 -->
<g id="edge6" class="edge"><title>Node5&#45;&gt;Node7</title>
<path fill="none" stroke="midnightblue" d="M224.173,-247.628C235.643,-258.72 255.652,-277.075 275,-290 281.194,-294.138 288.198,-298.05 294.888,-301.468"/>
<polygon fill="midnightblue" stroke="midnightblue" points="293.812,-304.838 304.332,-306.091 296.889,-298.551 293.812,-304.838"/>
</g>
<!-- Node13 -->
<g id="node13" class="node"><title>Node13</title>
<g id="a_node13"><a xlink:href="settings_8cpp.html#a8575b9b52638114a4f32d1462cf9b7c1" target="_top" xlink:title="Get the transmission frequency (side tone). ">
<polygon fill="white" stroke="black" points="296.5,-190.5 296.5,-209.5 350.5,-209.5 350.5,-190.5 296.5,-190.5"/>
<text text-anchor="middle" x="323.5" y="-197.5" font-family="Helvetica,sans-Serif" font-size="10.00">getTxHz</text>
</a>
</g>
</g>
<!-- Node5&#45;&gt;Node13 -->
<g id="edge12" class="edge"><title>Node5&#45;&gt;Node13</title>
<path fill="none" stroke="midnightblue" d="M239.007,-229.377C252.995,-224.455 270.793,-218.193 286.359,-212.716"/>
<polygon fill="midnightblue" stroke="midnightblue" points="287.932,-215.873 296.203,-209.253 285.608,-209.27 287.932,-215.873"/>
</g>
<!-- Node14 -->
<g id="node14" class="node"><title>Node14</title>
<g id="a_node14"><a xlink:href="settings_8cpp.html#a960551e90dfdad18f3c9b1338ccba7db" target="_top" xlink:title="Get the dit duration in microseconds. ">
<polygon fill="white" stroke="black" points="574,-342.5 574,-361.5 646,-361.5 646,-342.5 574,-342.5"/>
<text text-anchor="middle" x="610" y="-349.5" font-family="Helvetica,sans-Serif" font-size="10.00">getDitMicros</text>
</a>
</g>
</g>
<!-- Node5&#45;&gt;Node14 -->
<g id="edge13" class="edge"><title>Node5&#45;&gt;Node14</title>
<path fill="none" stroke="midnightblue" d="M217.364,-247.708C223.856,-267.763 241.77,-313.517 275,-333 366.025,-386.367 496.066,-373.558 563.904,-361.621"/>
<polygon fill="midnightblue" stroke="midnightblue" points="564.641,-365.044 573.846,-359.799 563.378,-358.159 564.641,-365.044"/>
</g>
<!-- Node5&#45;&gt;Node15 -->
<g id="edge14" class="edge"><title>Node5&#45;&gt;Node15</title>
<path fill="none" stroke="midnightblue" d="M222.63,-228.36C233.491,-215.987 253.834,-194.509 275,-181 279.866,-177.894 285.324,-175.14 290.759,-172.76"/>
<polygon fill="midnightblue" stroke="midnightblue" points="292.415,-175.867 300.384,-168.885 289.8,-169.373 292.415,-175.867"/>
</g>
<!-- Node8 -->
<g id="node8" class="node"><title>Node8</title>
<g id="a_node8"><a xlink:href="teensy3__morse__bsp_8cpp.html#a6f674d5b9985ea3a7eeb0df299c2e405" target="_top" xlink:title="pollEarphonePresent">
<polygon fill="white" stroke="black" points="408,-190.5 408,-209.5 515,-209.5 515,-190.5 408,-190.5"/>
<text text-anchor="middle" x="461.5" y="-197.5" font-family="Helvetica,sans-Serif" font-size="10.00">pollEarphonePresent</text>
</a>
</g>
</g>
<!-- Node7&#45;&gt;Node8 -->
<g id="edge7" class="edge"><title>Node7&#45;&gt;Node8</title>
<path fill="none" stroke="midnightblue" d="M342.897,-307.895C352.495,-303.979 363.893,-298.095 372,-290 397.035,-265 381.504,-242.446 408,-219 409.906,-217.314 411.972,-215.774 414.147,-214.367"/>
<polygon fill="midnightblue" stroke="midnightblue" points="415.843,-217.43 422.959,-209.581 412.501,-211.278 415.843,-217.43"/>
</g>
<!-- Node9 -->
<g id="node9" class="node"><title>Node9</title>
<g id="a_node9"><a xlink:href="teensy3__morse__bsp_8cpp.html#a2d6b4ace33ed5e497dedd03217540c63" target="_top" xlink:title="Set the PWM frequency for the audio output pins. ">
<polygon fill="white" stroke="black" points="420,-266.5 420,-285.5 503,-285.5 503,-266.5 420,-266.5"/>
<text text-anchor="middle" x="461.5" y="-273.5" font-family="Helvetica,sans-Serif" font-size="10.00">pwmFrequency</text>
</a>
</g>
</g>
<!-- Node7&#45;&gt;Node9 -->
<g id="edge8" class="edge"><title>Node7&#45;&gt;Node9</title>
<path fill="none" stroke="midnightblue" d="M342.56,-308.954C361.377,-303.696 391.566,-295.261 416.689,-288.241"/>
<polygon fill="midnightblue" stroke="midnightblue" points="417.699,-291.593 426.388,-285.531 415.815,-284.852 417.699,-291.593"/>
</g>
<!-- Node10 -->
<g id="node10" class="node"><title>Node10</title>
<g id="a_node10"><a xlink:href="teensy3__morse__bsp_8cpp.html#a82911eac3bf13d6f36d10102a4c4d3c4" target="_top" xlink:title="Generate a tone on the audio output pins. ">
<polygon fill="white" stroke="black" points="431,-304.5 431,-323.5 492,-323.5 492,-304.5 431,-304.5"/>
<text text-anchor="middle" x="461.5" y="-311.5" font-family="Helvetica,sans-Serif" font-size="10.00">pwmWrite</text>
</a>
</g>
</g>
<!-- Node7&#45;&gt;Node10 -->
<g id="edge9" class="edge"><title>Node7&#45;&gt;Node10</title>
<path fill="none" stroke="midnightblue" d="M342.56,-314C362.373,-314 394.795,-314 420.635,-314"/>
<polygon fill="midnightblue" stroke="midnightblue" points="420.89,-317.5 430.89,-314 420.89,-310.5 420.89,-317.5"/>
</g>
<!-- Node12 -->
<g id="node12" class="node"><title>Node12</title>
<g id="a_node12"><a xlink:href="teensy3__morse__bsp_8cpp.html#a6c982a7d7805f1dd5426eb98c915cfdd" target="_top" xlink:title="Turn the red LED on (1) or off (0). ">
<polygon fill="white" stroke="black" points="436.5,-228.5 436.5,-247.5 486.5,-247.5 486.5,-228.5 436.5,-228.5"/>
<text text-anchor="middle" x="461.5" y="-235.5" font-family="Helvetica,sans-Serif" font-size="10.00">redLED</text>
</a>
</g>
</g>
<!-- Node7&#45;&gt;Node12 -->
<g id="edge11" class="edge"><title>Node7&#45;&gt;Node12</title>
<path fill="none" stroke="midnightblue" d="M342.752,-306.215C351.873,-301.973 362.88,-296.305 372,-290 389.854,-277.657 389.435,-268.245 408,-257 413.713,-253.54 420.154,-250.566 426.517,-248.067"/>
<polygon fill="midnightblue" stroke="midnightblue" points="428.115,-251.211 436.337,-244.53 425.743,-244.626 428.115,-251.211"/>
</g>
<!-- Node11 -->
<g id="node11" class="node"><title>Node11</title>
<g id="a_node11"><a xlink:href="teensy3__morse__bsp_8cpp.html#ac70998cee1bf97f00aec4a1b4e5a4f60" target="_top" xlink:title="isEarphonePresent">
<polygon fill="white" stroke="black" points="560.5,-304.5 560.5,-323.5 659.5,-323.5 659.5,-304.5 560.5,-304.5"/>
<text text-anchor="middle" x="610" y="-311.5" font-family="Helvetica,sans-Serif" font-size="10.00">isEarphonePresent</text>
</a>
</g>
</g>
<!-- Node10&#45;&gt;Node11 -->
<g id="edge10" class="edge"><title>Node10&#45;&gt;Node11</title>
<path fill="none" stroke="midnightblue" d="M492.146,-314C508.807,-314 530.199,-314 550.116,-314"/>
<polygon fill="midnightblue" stroke="midnightblue" points="550.364,-317.5 560.364,-314 550.364,-310.5 550.364,-317.5"/>
</g>
<!-- Node16 -->
<g id="node16" class="node"><title>Node16</title>
<g id="a_node16"><a xlink:href="libmorse_8cpp.html#a0ee2308940264ea9ac8e50afc1a4d285" target="_top" xlink:title="txString">
<polygon fill="white" stroke="black" points="436.5,-152.5 436.5,-171.5 486.5,-171.5 486.5,-152.5 436.5,-152.5"/>
<text text-anchor="middle" x="461.5" y="-159.5" font-family="Helvetica,sans-Serif" font-size="10.00">txString</text>
</a>
</g>
</g>
<!-- Node15&#45;&gt;Node16 -->
<g id="edge15" class="edge"><title>Node15&#45;&gt;Node16</title>
<path fill="none" stroke="midnightblue" d="M346.653,-162C368.124,-162 401.008,-162 425.923,-162"/>
<polygon fill="midnightblue" stroke="midnightblue" points="426.057,-165.5 436.057,-162 426.057,-158.5 426.057,-165.5"/>
</g>
<!-- Node16&#45;&gt;Node1 -->
<g id="edge21" class="edge"><title>Node16&#45;&gt;Node1</title>
<path fill="none" stroke="midnightblue" d="M436.414,-152.813C418.802,-146.415 394.211,-138.14 372,-133 267.022,-108.707 140.606,-95.2089 76.199,-89.4292"/>
<polygon fill="midnightblue" stroke="midnightblue" points="76.3016,-85.9248 66.0334,-88.5351 75.6883,-92.8979 76.3016,-85.9248"/>
</g>
<!-- Node16&#45;&gt;Node2 -->
<g id="edge16" class="edge"><title>Node16&#45;&gt;Node2</title>
<path fill="none" stroke="midnightblue" d="M486.598,-168.127C495.926,-171.146 506.405,-175.371 515,-181 534.462,-193.746 530.052,-208.879 551,-219 608.426,-246.745 684.444,-246.089 729.296,-242.471"/>
<polygon fill="midnightblue" stroke="midnightblue" points="729.811,-245.939 739.457,-241.557 729.184,-238.967 729.811,-245.939"/>
</g>
<!-- Node16&#45;&gt;Node4 -->
<g id="edge19" class="edge"><title>Node16&#45;&gt;Node4</title>
<path fill="none" stroke="midnightblue" d="M436.307,-155.358C418.643,-150.865 394.034,-145.339 372,-143 297.591,-135.103 209.698,-138.104 162.355,-140.723"/>
<polygon fill="midnightblue" stroke="midnightblue" points="162.112,-137.231 152.332,-141.306 162.519,-144.219 162.112,-137.231"/>
</g>
<!-- Node16&#45;&gt;Node5 -->
<g id="edge18" class="edge"><title>Node16&#45;&gt;Node5</title>
<path fill="none" stroke="midnightblue" d="M436.448,-166.492C426.692,-169.311 415.889,-173.828 408,-181 380.345,-206.142 403.583,-237.013 372,-257 332.495,-282 276.133,-265.493 242.638,-251.532"/>
<polygon fill="midnightblue" stroke="midnightblue" points="243.99,-248.304 233.425,-247.514 241.192,-254.72 243.99,-248.304"/>
</g>
<!-- Node16&#45;&gt;Node14 -->
<g id="edge17" class="edge"><title>Node16&#45;&gt;Node14</title>
<path fill="none" stroke="midnightblue" d="M486.521,-165.509C496.628,-168.164 507.712,-172.824 515,-181 561.196,-232.823 504.014,-281.891 551,-333 554.765,-337.095 559.425,-340.31 564.455,-342.833"/>
<polygon fill="midnightblue" stroke="midnightblue" points="563.214,-346.107 573.794,-346.668 565.873,-339.632 563.214,-346.107"/>
</g>
<!-- Node17 -->
<g id="node17" class="node"><title>Node17</title>
<g id="a_node17"><a xlink:href="teensy3__morse__bsp_8cpp.html#a8761e874366e227690fba2964e1bc445" target="_top" xlink:title="getInternalTemperatureC">
<polygon fill="white" stroke="black" points="705.5,-57.5 705.5,-76.5 830.5,-76.5 830.5,-57.5 705.5,-57.5"/>
<text text-anchor="middle" x="768" y="-64.5" font-family="Helvetica,sans-Serif" font-size="10.00">getInternalTemperatureC</text>
</a>
</g>
</g>
<!-- Node16&#45;&gt;Node17 -->
<g id="edge20" class="edge"><title>Node16&#45;&gt;Node17</title>
<path fill="none" stroke="midnightblue" d="M473.977,-152.435C490.103,-139.527 520.878,-116.793 551,-105 597.118,-86.9443 652.134,-77.4266 695.1,-72.4318"/>
<polygon fill="midnightblue" stroke="midnightblue" points="695.636,-75.894 705.19,-71.3157 694.866,-68.9364 695.636,-75.894"/>
</g>
<!-- Node18 -->
<g id="node18" class="node"><title>Node18</title>
<g id="a_node18"><a xlink:href="actions_8cpp.html#aed718ec1bd4cc7adb2f65d40a6784496" target="_top" xlink:title="Transmit the internal temperature in integer in Fahrenheit. ">
<polygon fill="white" stroke="black" points="551,-38.5 551,-57.5 669,-57.5 669,-38.5 551,-38.5"/>
<text text-anchor="middle" x="610" y="-45.5" font-family="Helvetica,sans-Serif" font-size="10.00">txInternalTemperatureF</text>
</a>
</g>
</g>
<!-- Node16&#45;&gt;Node18 -->
<g id="edge22" class="edge"><title>Node16&#45;&gt;Node18</title>
<path fill="none" stroke="midnightblue" d="M469.786,-152.347C483.774,-134.383 516.111,-95.5158 551,-72 556.829,-68.0715 563.402,-64.5991 569.975,-61.6023"/>
<polygon fill="midnightblue" stroke="midnightblue" points="571.678,-64.6815 579.518,-57.5542 568.945,-58.2373 571.678,-64.6815"/>
</g>
<!-- Node19 -->
<g id="node19" class="node"><title>Node19</title>
<g id="a_node19"><a xlink:href="actions_8cpp.html#aaabb3ac0c23f35a499bc17efe829f326" target="_top" xlink:title="Transmit the 24&#45;hr time. ">
<polygon fill="white" stroke="black" points="571,-152.5 571,-171.5 649,-171.5 649,-152.5 571,-152.5"/>
<text text-anchor="middle" x="610" y="-159.5" font-family="Helvetica,sans-Serif" font-size="10.00">txTimeHHMM</text>
</a>
</g>
</g>
<!-- Node16&#45;&gt;Node19 -->
<g id="edge25" class="edge"><title>Node16&#45;&gt;Node19</title>
<path fill="none" stroke="midnightblue" d="M486.691,-156.834C506.674,-155.28 535.67,-154.869 560.415,-155.602"/>
<polygon fill="midnightblue" stroke="midnightblue" points="560.598,-159.111 570.721,-155.986 560.858,-152.116 560.598,-159.111"/>
</g>
<!-- Node20 -->
<g id="node20" class="node"><title>Node20</title>
<g id="a_node20"><a xlink:href="actions_8cpp.html#ad02149679fa3cc6a4957d1a318408ffd" target="_top" xlink:title="Transmit the uptime. ">
<polygon fill="white" stroke="black" points="582,-0.5 582,-19.5 638,-19.5 638,-0.5 582,-0.5"/>
<text text-anchor="middle" x="610" y="-7.5" font-family="Helvetica,sans-Serif" font-size="10.00">txUptime</text>
</a>
</g>
</g>
<!-- Node16&#45;&gt;Node20 -->
<g id="edge27" class="edge"><title>Node16&#45;&gt;Node20</title>
<path fill="none" stroke="midnightblue" d="M466.249,-152.365C476.217,-127.998 505.741,-63.4142 551,-29 557.217,-24.273 564.661,-20.693 572.111,-17.9913"/>
<polygon fill="midnightblue" stroke="midnightblue" points="573.328,-21.2774 581.806,-14.923 571.216,-14.6037 573.328,-21.2774"/>
</g>
<!-- Node22 -->
<g id="node22" class="node"><title>Node22</title>
<g id="a_node22"><a xlink:href="teensy3__morse__bsp_8cpp.html#ae8dd28759e56dbd2ee9bc9ae96d1783c" target="_top" xlink:title="Return the most recent ADC measurement of the input voltage. Perform analog to digital conversion on ...">
<polygon fill="white" stroke="black" points="573,-114.5 573,-133.5 647,-133.5 647,-114.5 573,-114.5"/>
<text text-anchor="middle" x="610" y="-121.5" font-family="Helvetica,sans-Serif" font-size="10.00">readMillivolts</text>
</a>
</g>
</g>
<!-- Node16&#45;&gt;Node22 -->
<g id="edge30" class="edge"><title>Node16&#45;&gt;Node22</title>
<path fill="none" stroke="midnightblue" d="M486.691,-155.725C507.426,-150.347 537.867,-142.451 563.191,-135.882"/>
<polygon fill="midnightblue" stroke="midnightblue" points="564.171,-139.244 572.972,-133.345 562.413,-132.468 564.171,-139.244"/>
</g>
<!-- Node26 -->
<g id="node26" class="node"><title>Node26</title>
<g id="a_node26"><a xlink:href="libmorse_8cpp.html#ac3f000c98271c6d0a7710135e18189bc" target="_top" xlink:title="On my hardware there is cross&#45;coupling between the serial port and the touch sensors. Without the code below, long messages to the serial port trigger a touch input. ">
<polygon fill="white" stroke="black" points="577.5,-190.5 577.5,-209.5 642.5,-209.5 642.5,-190.5 577.5,-190.5"/>
<text text-anchor="middle" x="610" y="-197.5" font-family="Helvetica,sans-Serif" font-size="10.00">flushTouch</text>
</a>
</g>
</g>
<!-- Node16&#45;&gt;Node26 -->
<g id="edge34" class="edge"><title>Node16&#45;&gt;Node26</title>
<path fill="none" stroke="midnightblue" d="M486.691,-168.275C508.574,-173.951 541.267,-182.431 567.348,-189.196"/>
<polygon fill="midnightblue" stroke="midnightblue" points="566.786,-192.666 577.344,-191.789 568.543,-185.89 566.786,-192.666"/>
</g>
<!-- Node18&#45;&gt;Node1 -->
<g id="edge24" class="edge"><title>Node18&#45;&gt;Node1</title>
<path fill="none" stroke="midnightblue" d="M550.97,-48C493.477,-48 402.91,-48 324.5,-48 212.5,-48 212.5,-48 212.5,-48 162.9,-48 107.212,-62.2099 71.4303,-73.2508"/>
<polygon fill="midnightblue" stroke="midnightblue" points="69.9194,-70.0577 61.4408,-76.411 72.0308,-76.7317 69.9194,-70.0577"/>
</g>
<!-- Node18&#45;&gt;Node17 -->
<g id="edge23" class="edge"><title>Node18&#45;&gt;Node17</title>
<path fill="none" stroke="midnightblue" d="M669.089,-55.0749C677.711,-56.1251 686.682,-57.2177 695.54,-58.2965"/>
<polygon fill="midnightblue" stroke="midnightblue" points="695.117,-61.7708 705.467,-59.5056 695.964,-54.8222 695.117,-61.7708"/>
</g>
<!-- Node19&#45;&gt;Node16 -->
<g id="edge26" class="edge"><title>Node19&#45;&gt;Node16</title>
<path fill="none" stroke="midnightblue" d="M570.721,-168.014C547.877,-169.054 519.104,-168.992 496.969,-167.827"/>
<polygon fill="midnightblue" stroke="midnightblue" points="496.895,-164.315 486.691,-167.166 496.446,-171.301 496.895,-164.315"/>
</g>
<!-- Node20&#45;&gt;Node1 -->
<g id="edge29" class="edge"><title>Node20&#45;&gt;Node1</title>
<path fill="none" stroke="midnightblue" d="M581.933,-10C531.362,-10 419.086,-10 324.5,-10 212.5,-10 212.5,-10 212.5,-10 151.234,-10 86.9129,-48.37 54.8096,-70.5831"/>
<polygon fill="midnightblue" stroke="midnightblue" points="52.7732,-67.7364 46.6385,-76.3745 56.821,-73.4474 52.7732,-67.7364"/>
</g>
<!-- Node21 -->
<g id="node21" class="node"><title>Node21</title>
<g id="a_node21"><a xlink:href="settings_8cpp.html#a7b4efa097b94f9a90c5bbafcdf93fe4f" target="_top" xlink:title="getUptime">
<polygon fill="white" stroke="black" points="737,-0.5 737,-19.5 799,-19.5 799,-0.5 737,-0.5"/>
<text text-anchor="middle" x="768" y="-7.5" font-family="Helvetica,sans-Serif" font-size="10.00">getUptime</text>
</a>
</g>
</g>
<!-- Node20&#45;&gt;Node21 -->
<g id="edge28" class="edge"><title>Node20&#45;&gt;Node21</title>
<path fill="none" stroke="midnightblue" d="M638.173,-10C662.633,-10 698.905,-10 726.735,-10"/>
<polygon fill="midnightblue" stroke="midnightblue" points="726.945,-13.5001 736.945,-10 726.945,-6.5001 726.945,-13.5001"/>
</g>
<!-- Node23 -->
<g id="node23" class="node"><title>Node23</title>
<g id="a_node23"><a xlink:href="class_voltage_monitor.html#a70902b84f9864c95d5553a0644a64f4f" target="_top" xlink:title="Return the latest voltage reading. ">
<polygon fill="white" stroke="black" points="705,-114.5 705,-133.5 831,-133.5 831,-114.5 705,-114.5"/>
<text text-anchor="middle" x="768" y="-121.5" font-family="Helvetica,sans-Serif" font-size="10.00">VoltageMonitor::getValue</text>
</a>
</g>
</g>
<!-- Node22&#45;&gt;Node23 -->
<g id="edge31" class="edge"><title>Node22&#45;&gt;Node23</title>
<path fill="none" stroke="midnightblue" d="M647.182,-124C661.344,-124 678.117,-124 694.56,-124"/>
<polygon fill="midnightblue" stroke="midnightblue" points="694.728,-127.5 704.728,-124 694.728,-120.5 694.728,-127.5"/>
</g>
<!-- Node24 -->
<g id="node24" class="node"><title>Node24</title>
<g id="a_node24"><a xlink:href="actions_8cpp.html#a2b8c3769e2aa32a2da9e2f3f85ac73dd" target="_top" xlink:title="A sample ADC reading is taken each time through the main loop, and written to a ring buffer...">
<polygon fill="white" stroke="black" points="869.5,-133.5 869.5,-152.5 981.5,-152.5 981.5,-133.5 869.5,-133.5"/>
<text text-anchor="middle" x="925.5" y="-140.5" font-family="Helvetica,sans-Serif" font-size="10.00">getVoltagePollInterval</text>
</a>
</g>
</g>
<!-- Node23&#45;&gt;Node24 -->
<g id="edge32" class="edge"><title>Node23&#45;&gt;Node24</title>
<path fill="none" stroke="midnightblue" d="M831.352,-131.619C840.438,-132.729 849.816,-133.875 858.963,-134.992"/>
<polygon fill="midnightblue" stroke="midnightblue" points="858.813,-138.5 869.163,-136.239 859.662,-131.552 858.813,-138.5"/>
</g>
<!-- Node25 -->
<g id="node25" class="node"><title>Node25</title>
<g id="a_node25"><a xlink:href="class_voltage_monitor.html#a75871331808c34b40d04059ee2af0f27" target="_top" xlink:title="Filter and scale raw ADC values to millivolts. ">
<polygon fill="white" stroke="black" points="867,-95.5 867,-114.5 984,-114.5 984,-95.5 867,-95.5"/>
<text text-anchor="middle" x="925.5" y="-102.5" font-family="Helvetica,sans-Serif" font-size="10.00">VoltageMonitor::update</text>
</a>
</g>
</g>
<!-- Node23&#45;&gt;Node25 -->
<g id="edge33" class="edge"><title>Node23&#45;&gt;Node25</title>
<path fill="none" stroke="midnightblue" d="M831.352,-116.381C839.702,-115.361 848.298,-114.311 856.735,-113.28"/>
<polygon fill="midnightblue" stroke="midnightblue" points="857.419,-116.723 866.92,-112.035 856.57,-109.774 857.419,-116.723"/>
</g>
<!-- Node26&#45;&gt;Node2 -->
<g id="edge35" class="edge"><title>Node26&#45;&gt;Node2</title>
<path fill="none" stroke="midnightblue" d="M642.569,-207.69C667.752,-213.824 703.089,-222.432 729.673,-228.908"/>
<polygon fill="midnightblue" stroke="midnightblue" points="728.85,-232.309 739.394,-231.275 730.506,-225.508 728.85,-232.309"/>
</g>
</g>
</svg>
