<?xml version="1.0" encoding="UTF-8" standalone="no"?>
<!DOCTYPE svg PUBLIC "-//W3C//DTD SVG 1.1//EN"
 "http://www.w3.org/Graphics/SVG/1.1/DTD/svg11.dtd">
<!-- Generated by graphviz version 2.38.0 (20140413.2041)
 -->
<!-- Title: libmorse.cpp Pages: 1 -->
<!--zoomable 308 -->
<svg id="main" version="1.1" xmlns="http://www.w3.org/2000/svg" xmlns:xlink="http://www.w3.org/1999/xlink" xml:space="preserve" onload="init(evt)">
<style type="text/css"><![CDATA[
.edge:hover path { stroke: red; }
.edge:hover polygon { stroke: red; fill: red; }
]]></style>
<script type="text/javascript"><![CDATA[
var edges = document.getElementsByTagName('g');
if (edges && edges.length) {
  for (var i=0;i<edges.length;i++) {
    if (edges[i].id.substr(0,4)=='edge') {
      edges[i].setAttribute('class','edge');
    }
  }
}
]]></script>
        <defs>
                <circle id="rim" cx="0" cy="0" r="7"/>
                <circle id="rim2" cx="0" cy="0" r="3.5"/>
                <g id="zoomPlus">
                        <use xlink:href="#rim" fill="#404040">
                                <set attributeName="fill" to="#808080" begin="zoomplus.mouseover" end="zoomplus.mouseout"/>
                        </use>
                        <path d="M-4,0h8M0,-4v8" fill="none" stroke="white" stroke-width="1.5" pointer-events="none"/>
                </g>
                <g id="zoomMin">
                        <use xlink:href="#rim" fill="#404040">
                                <set attributeName="fill" to="#808080" begin="zoomminus.mouseover" end="zoomminus.mouseout"/>
                        </use>
                        <path d="M-4,0h8" fill="none" stroke="white" stroke-width="1.5" pointer-events="none"/>
                </g>
                <g id="dirArrow">
                        <path fill="none" stroke="white" stroke-width="1.5" d="M0,-3.0v7 M-2.5,-0.5L0,-3.0L2.5,-0.5"/>
                </g>
               <g id="resetDef">
                       <use xlink:href="#rim2" fill="#404040">
                               <set attributeName="fill" to="#808080" begin="reset.mouseover" end="reset.mouseout"/>
                       </use>
               </g>
        </defs>

<script type="text/javascript">
var viewWidth = 829;
var viewHeight = 308;
var sectionId = 'dynsection-0';
</script>
<script xlink:href="svgpan.js"/>
<svg id="graph" class="graph">
<g id="viewport">
<title>libmorse.cpp</title>
<polygon fill="white" stroke="none" points="-4,4 -4,-304 824.5,-304 824.5,4 -4,4"/>
<!-- Node1 -->
<g id="node1" class="node"><title>Node1</title>
<polygon fill="#bfbfbf" stroke="black" points="507,-280.5 507,-299.5 579,-299.5 579,-280.5 507,-280.5"/>
<text text-anchor="middle" x="543" y="-287.5" font-family="Helvetica,sans-Serif" font-size="10.00">libmorse.cpp</text>
</g>
<!-- Node2 -->
<g id="node2" class="node"><title>Node2</title>
<polygon fill="white" stroke="#bfbfbf" points="0,-112.5 0,-131.5 46,-131.5 46,-112.5 0,-112.5"/>
<text text-anchor="middle" x="23" y="-119.5" font-family="Helvetica,sans-Serif" font-size="10.00">cstring</text>
</g>
<!-- Node1&#45;&gt;Node2 -->
<g id="edge1" class="edge"><title>Node1&#45;&gt;Node2</title>
<path fill="none" stroke="midnightblue" d="M506.708,-283.118C464.304,-275.82 392.268,-262.095 332,-244 225.771,-212.106 104.564,-159.752 50.9832,-135.748"/>
<polygon fill="midnightblue" stroke="midnightblue" points="52.3398,-132.52 41.7844,-131.607 49.4664,-138.903 52.3398,-132.52"/>
</g>
<!-- Node3 -->
<g id="node3" class="node"><title>Node3</title>
<polygon fill="white" stroke="#bfbfbf" points="571,-224.5 571,-243.5 611,-243.5 611,-224.5 571,-224.5"/>
<text text-anchor="middle" x="591" y="-231.5" font-family="Helvetica,sans-Serif" font-size="10.00">limits</text>
</g>
<!-- Node1&#45;&gt;Node3 -->
<g id="edge2" class="edge"><title>Node1&#45;&gt;Node3</title>
<path fill="none" stroke="midnightblue" d="M550.926,-280.083C557.846,-272.298 568.065,-260.801 576.452,-251.367"/>
<polygon fill="midnightblue" stroke="midnightblue" points="579.194,-253.55 583.221,-243.751 573.962,-248.9 579.194,-253.55"/>
</g>
<!-- Node4 -->
<g id="node4" class="node"><title>Node4</title>
<polygon fill="white" stroke="#bfbfbf" points="490,-56.5 490,-75.5 548,-75.5 548,-56.5 490,-56.5"/>
<text text-anchor="middle" x="519" y="-63.5" font-family="Helvetica,sans-Serif" font-size="10.00">Arduino.h</text>
</g>
<!-- Node1&#45;&gt;Node4 -->
<g id="edge3" class="edge"><title>Node1&#45;&gt;Node4</title>
<path fill="none" stroke="midnightblue" d="M542.059,-280.297C538.528,-247.633 526.013,-131.866 521.049,-85.9573"/>
<polygon fill="midnightblue" stroke="midnightblue" points="524.515,-85.4496 519.96,-75.8837 517.556,-86.202 524.515,-85.4496"/>
</g>
<!-- Node5 -->
<g id="node5" class="node"><title>Node5</title>
<g id="a_node5"><a xlink:href="libmorse_8h.html" target="_top" xlink:title="Morse code operations. ">
<polygon fill="white" stroke="black" points="211,-168.5 211,-187.5 273,-187.5 273,-168.5 211,-168.5"/>
<text text-anchor="middle" x="242" y="-175.5" font-family="Helvetica,sans-Serif" font-size="10.00">libmorse.h</text>
</a>
</g>
</g>
<!-- Node1&#45;&gt;Node5 -->
<g id="edge4" class="edge"><title>Node1&#45;&gt;Node5</title>
<path fill="none" stroke="midnightblue" d="M506.898,-280.579C474.127,-272.529 424.696,-259.365 383,-244 341.597,-228.743 295.49,-206.42 267.624,-192.306"/>
<polygon fill="midnightblue" stroke="midnightblue" points="269.064,-189.111 258.566,-187.681 265.881,-195.346 269.064,-189.111"/>
</g>
<!-- Node13 -->
<g id="node13" class="node"><title>Node13</title>
<g id="a_node13"><a xlink:href="prosign_8h.html" target="_top" xlink:title="Prosign constants. ">
<polygon fill="white" stroke="black" points="282,-56.5 282,-75.5 338,-75.5 338,-56.5 282,-56.5"/>
<text text-anchor="middle" x="310" y="-63.5" font-family="Helvetica,sans-Serif" font-size="10.00">prosign.h</text>
</a>
</g>
</g>
<!-- Node1&#45;&gt;Node13 -->
<g id="edge25" class="edge"><title>Node1&#45;&gt;Node13</title>
<path fill="none" stroke="midnightblue" d="M540.114,-280.497C529.116,-248.547 489.043,-136.265 461,-112 429.362,-84.6241 381.629,-73.8971 348.326,-69.6969"/>
<polygon fill="midnightblue" stroke="midnightblue" points="348.386,-66.1819 338.06,-68.5497 347.609,-73.1386 348.386,-66.1819"/>
</g>
<!-- Node14 -->
<g id="node14" class="node"><title>Node14</title>
<g id="a_node14"><a xlink:href="settings_8h.html" target="_top" xlink:title="User settings. ">
<polygon fill="white" stroke="black" points="629.5,-224.5 629.5,-243.5 688.5,-243.5 688.5,-224.5 629.5,-224.5"/>
<text text-anchor="middle" x="659" y="-231.5" font-family="Helvetica,sans-Serif" font-size="10.00">settings.h</text>
</a>
</g>
</g>
<!-- Node1&#45;&gt;Node14 -->
<g id="edge19" class="edge"><title>Node1&#45;&gt;Node14</title>
<path fill="none" stroke="midnightblue" d="M561.381,-280.444C580.216,-271.675 609.731,-257.935 631.379,-247.858"/>
<polygon fill="midnightblue" stroke="midnightblue" points="633.117,-250.91 640.705,-243.516 630.162,-244.564 633.117,-250.91"/>
</g>
<!-- Node15 -->
<g id="node15" class="node"><title>Node15</title>
<g id="a_node15"><a xlink:href="stack_8h.html" target="_top" xlink:title="Fixed&#45;sized stack for plain old data. ">
<polygon fill="white" stroke="black" points="706.5,-224.5 706.5,-243.5 755.5,-243.5 755.5,-224.5 706.5,-224.5"/>
<text text-anchor="middle" x="731" y="-231.5" font-family="Helvetica,sans-Serif" font-size="10.00">stack.h</text>
</a>
</g>
</g>
<!-- Node1&#45;&gt;Node15 -->
<g id="edge20" class="edge"><title>Node1&#45;&gt;Node15</title>
<path fill="none" stroke="midnightblue" d="M572.789,-280.444C606.431,-270.78 661.092,-255.08 696.544,-244.897"/>
<polygon fill="midnightblue" stroke="midnightblue" points="697.798,-248.178 706.443,-242.054 695.865,-241.451 697.798,-248.178"/>
</g>
<!-- Node16 -->
<g id="node16" class="node"><title>Node16</title>
<g id="a_node16"><a xlink:href="actions_8h.html" target="_top" xlink:title="Application&#45;specific actions. ">
<polygon fill="white" stroke="black" points="392,-224.5 392,-243.5 448,-243.5 448,-224.5 392,-224.5"/>
<text text-anchor="middle" x="420" y="-231.5" font-family="Helvetica,sans-Serif" font-size="10.00">actions.h</text>
</a>
</g>
</g>
<!-- Node1&#45;&gt;Node16 -->
<g id="edge21" class="edge"><title>Node1&#45;&gt;Node16</title>
<path fill="none" stroke="midnightblue" d="M523.51,-280.444C503.358,-271.596 471.677,-257.687 448.669,-247.586"/>
<polygon fill="midnightblue" stroke="midnightblue" points="449.962,-244.332 439.399,-243.516 447.148,-250.741 449.962,-244.332"/>
</g>
<!-- Node17 -->
<g id="node17" class="node"><title>Node17</title>
<polygon fill="white" stroke="#bfbfbf" points="773.5,-224.5 773.5,-243.5 820.5,-243.5 820.5,-224.5 773.5,-224.5"/>
<text text-anchor="middle" x="797" y="-231.5" font-family="Helvetica,sans-Serif" font-size="10.00">Time.h</text>
</g>
<!-- Node1&#45;&gt;Node17 -->
<g id="edge26" class="edge"><title>Node1&#45;&gt;Node17</title>
<path fill="none" stroke="midnightblue" d="M579.327,-282.493C621.46,-274.757 693.202,-261.008 763.395,-244.263"/>
<polygon fill="midnightblue" stroke="midnightblue" points="764.383,-247.625 773.286,-241.881 762.744,-240.82 764.383,-247.625"/>
</g>
<!-- Node5&#45;&gt;Node2 -->
<g id="edge7" class="edge"><title>Node5&#45;&gt;Node2</title>
<path fill="none" stroke="midnightblue" d="M210.623,-169.263C169.54,-159.133 97.8429,-141.454 55.9808,-131.132"/>
<polygon fill="midnightblue" stroke="midnightblue" points="56.8155,-127.733 46.2683,-128.737 55.1396,-134.53 56.8155,-127.733"/>
</g>
<!-- Node6 -->
<g id="node6" class="node"><title>Node6</title>
<g id="a_node6"><a xlink:href="binconst_8h.html" target="_top" xlink:title="Binary constant generator macro. ">
<polygon fill="white" stroke="black" points="307,-0.5 307,-19.5 369,-19.5 369,-0.5 307,-0.5"/>
<text text-anchor="middle" x="338" y="-7.5" font-family="Helvetica,sans-Serif" font-size="10.00">binconst.h</text>
</a>
</g>
</g>
<!-- Node5&#45;&gt;Node6 -->
<g id="edge5" class="edge"><title>Node5&#45;&gt;Node6</title>
<path fill="none" stroke="midnightblue" d="M256.827,-168.467C281.216,-153.448 328.899,-119.699 347,-76 353.192,-61.0509 349.743,-42.6818 345.445,-29.289"/>
<polygon fill="midnightblue" stroke="midnightblue" points="348.692,-27.9763 341.984,-19.7756 342.114,-30.3696 348.692,-27.9763"/>
</g>
<!-- Node7 -->
<g id="node7" class="node"><title>Node7</title>
<polygon fill="white" stroke="#bfbfbf" points="140.5,-112.5 140.5,-131.5 183.5,-131.5 183.5,-112.5 140.5,-112.5"/>
<text text-anchor="middle" x="162" y="-119.5" font-family="Helvetica,sans-Serif" font-size="10.00">cstdio</text>
</g>
<!-- Node5&#45;&gt;Node7 -->
<g id="edge6" class="edge"><title>Node5&#45;&gt;Node7</title>
<path fill="none" stroke="midnightblue" d="M229.147,-168.324C216.784,-159.979 197.87,-147.212 183.263,-137.352"/>
<polygon fill="midnightblue" stroke="midnightblue" points="185.068,-134.348 174.821,-131.655 181.152,-140.15 185.068,-134.348"/>
</g>
<!-- Node8 -->
<g id="node8" class="node"><title>Node8</title>
<polygon fill="white" stroke="#bfbfbf" points="102,-56.5 102,-75.5 158,-75.5 158,-56.5 102,-56.5"/>
<text text-anchor="middle" x="130" y="-63.5" font-family="Helvetica,sans-Serif" font-size="10.00">cinttypes</text>
</g>
<!-- Node5&#45;&gt;Node8 -->
<g id="edge8" class="edge"><title>Node5&#45;&gt;Node8</title>
<path fill="none" stroke="midnightblue" d="M210.769,-173.665C184.643,-169.052 148.86,-158.077 131,-132 121.842,-118.628 122.644,-99.8035 125.113,-85.8523"/>
<polygon fill="midnightblue" stroke="midnightblue" points="128.571,-86.423 127.293,-75.9056 121.733,-84.9246 128.571,-86.423"/>
</g>
<!-- Node9 -->
<g id="node9" class="node"><title>Node9</title>
<polygon fill="white" stroke="#bfbfbf" points="163.5,-0.5 163.5,-19.5 208.5,-19.5 208.5,-0.5 163.5,-0.5"/>
<text text-anchor="middle" x="186" y="-7.5" font-family="Helvetica,sans-Serif" font-size="10.00">climits</text>
</g>
<!-- Node5&#45;&gt;Node9 -->
<g id="edge9" class="edge"><title>Node5&#45;&gt;Node9</title>
<path fill="none" stroke="midnightblue" d="M210.867,-172.022C184.254,-166.356 146.35,-154.759 121,-132 100.294,-113.41 99.3932,-103.082 93,-76 90.9578,-67.3489 88.2778,-63.5308 93,-56 106.184,-34.9745 132.283,-23.5315 153.485,-17.4546"/>
<polygon fill="midnightblue" stroke="midnightblue" points="154.617,-20.7769 163.422,-14.8839 152.864,-14 154.617,-20.7769"/>
</g>
<!-- Node10 -->
<g id="node10" class="node"><title>Node10</title>
<g id="a_node10"><a xlink:href="teensy3__morse__bsp_8h.html" target="_top" xlink:title="Teensy 3.0 board support package. ">
<polygon fill="white" stroke="black" points="339.5,-112.5 339.5,-131.5 452.5,-131.5 452.5,-112.5 339.5,-112.5"/>
<text text-anchor="middle" x="396" y="-119.5" font-family="Helvetica,sans-Serif" font-size="10.00">teensy3_morse_bsp.h</text>
</a>
</g>
</g>
<!-- Node5&#45;&gt;Node10 -->
<g id="edge10" class="edge"><title>Node5&#45;&gt;Node10</title>
<path fill="none" stroke="midnightblue" d="M266.402,-168.444C292.197,-159.399 333.077,-145.064 362.018,-134.916"/>
<polygon fill="midnightblue" stroke="midnightblue" points="363.434,-138.128 371.712,-131.516 361.118,-131.523 363.434,-138.128"/>
</g>
<!-- Node11 -->
<g id="node11" class="node"><title>Node11</title>
<g id="a_node11"><a xlink:href="morse__token_8h.html" target="_top" xlink:title="Defines the MorseToken class and various helpers. ">
<polygon fill="white" stroke="black" points="201.5,-112.5 201.5,-131.5 282.5,-131.5 282.5,-112.5 201.5,-112.5"/>
<text text-anchor="middle" x="242" y="-119.5" font-family="Helvetica,sans-Serif" font-size="10.00">morse_token.h</text>
</a>
</g>
</g>
<!-- Node5&#45;&gt;Node11 -->
<g id="edge12" class="edge"><title>Node5&#45;&gt;Node11</title>
<path fill="none" stroke="midnightblue" d="M242,-168.083C242,-161.006 242,-150.861 242,-141.986"/>
<polygon fill="midnightblue" stroke="midnightblue" points="245.5,-141.751 242,-131.751 238.5,-141.751 245.5,-141.751"/>
</g>
<!-- Node10&#45;&gt;Node4 -->
<g id="edge11" class="edge"><title>Node10&#45;&gt;Node4</title>
<path fill="none" stroke="midnightblue" d="M415.49,-112.444C435.642,-103.596 467.323,-89.6875 490.331,-79.5865"/>
<polygon fill="midnightblue" stroke="midnightblue" points="491.852,-82.7411 499.601,-75.5164 489.038,-76.3316 491.852,-82.7411"/>
</g>
<!-- Node11&#45;&gt;Node8 -->
<g id="edge13" class="edge"><title>Node11&#45;&gt;Node8</title>
<path fill="none" stroke="midnightblue" d="M224.005,-112.324C205.962,-103.625 177.953,-90.1202 157.197,-80.113"/>
<polygon fill="midnightblue" stroke="midnightblue" points="158.478,-76.8449 147.95,-75.6545 155.438,-83.1502 158.478,-76.8449"/>
</g>
<!-- Node11&#45;&gt;Node9 -->
<g id="edge14" class="edge"><title>Node11&#45;&gt;Node9</title>
<path fill="none" stroke="midnightblue" d="M233.168,-112.477C224.812,-103.958 212.468,-90.1281 205,-76 197.274,-61.3832 192.302,-43.2113 189.391,-29.8006"/>
<polygon fill="midnightblue" stroke="midnightblue" points="192.794,-28.9657 187.415,-19.838 185.927,-30.3279 192.794,-28.9657"/>
</g>
<!-- Node12 -->
<g id="node12" class="node"><title>Node12</title>
<polygon fill="white" stroke="#bfbfbf" points="214.5,-56.5 214.5,-75.5 263.5,-75.5 263.5,-56.5 214.5,-56.5"/>
<text text-anchor="middle" x="239" y="-63.5" font-family="Helvetica,sans-Serif" font-size="10.00">cstddef</text>
</g>
<!-- Node11&#45;&gt;Node12 -->
<g id="edge15" class="edge"><title>Node11&#45;&gt;Node12</title>
<path fill="none" stroke="midnightblue" d="M241.505,-112.083C241.111,-105.006 240.548,-94.8611 240.055,-85.9865"/>
<polygon fill="midnightblue" stroke="midnightblue" points="243.536,-85.5415 239.486,-75.7511 236.546,-85.9299 243.536,-85.5415"/>
</g>
<!-- Node11&#45;&gt;Node13 -->
<g id="edge16" class="edge"><title>Node11&#45;&gt;Node13</title>
<path fill="none" stroke="midnightblue" d="M252.925,-112.324C263.175,-104.185 278.721,-91.8395 291.001,-82.0874"/>
<polygon fill="midnightblue" stroke="midnightblue" points="293.221,-84.7937 298.876,-75.8339 288.868,-79.3119 293.221,-84.7937"/>
</g>
<!-- Node13&#45;&gt;Node6 -->
<g id="edge17" class="edge"><title>Node13&#45;&gt;Node6</title>
<path fill="none" stroke="midnightblue" d="M314.624,-56.083C318.456,-48.6913 324.024,-37.9533 328.765,-28.8111"/>
<polygon fill="midnightblue" stroke="midnightblue" points="331.966,-30.2398 333.462,-19.7511 325.752,-27.0175 331.966,-30.2398"/>
</g>
<!-- Node13&#45;&gt;Node9 -->
<g id="edge18" class="edge"><title>Node13&#45;&gt;Node9</title>
<path fill="none" stroke="midnightblue" d="M290.352,-56.4435C270.035,-47.5961 238.097,-33.6875 214.902,-23.5865"/>
<polygon fill="midnightblue" stroke="midnightblue" points="216.122,-20.3002 205.556,-19.5164 213.327,-26.7181 216.122,-20.3002"/>
</g>
<!-- Node16&#45;&gt;Node4 -->
<g id="edge22" class="edge"><title>Node16&#45;&gt;Node4</title>
<path fill="none" stroke="midnightblue" d="M425.323,-224.075C441.109,-197.606 487.863,-119.209 508.736,-84.2097"/>
<polygon fill="midnightblue" stroke="midnightblue" points="511.774,-85.9495 513.89,-75.5681 505.762,-82.364 511.774,-85.9495"/>
</g>
<!-- Node16&#45;&gt;Node5 -->
<g id="edge23" class="edge"><title>Node16&#45;&gt;Node5</title>
<path fill="none" stroke="midnightblue" d="M391.795,-224.444C361.59,-215.28 313.489,-200.688 279.971,-190.519"/>
<polygon fill="midnightblue" stroke="midnightblue" points="280.658,-187.07 270.073,-187.516 278.626,-193.769 280.658,-187.07"/>
</g>
<!-- Node16&#45;&gt;Node11 -->
<g id="edge24" class="edge"><title>Node16&#45;&gt;Node11</title>
<path fill="none" stroke="midnightblue" d="M406.033,-224.368C375.358,-205.412 301.874,-160.001 264.561,-136.942"/>
<polygon fill="midnightblue" stroke="midnightblue" points="266.249,-133.871 255.902,-131.591 262.569,-139.826 266.249,-133.871"/>
</g>
</g>
</svg>
        <g id="navigator" transform="translate(0 0)" fill="#404254">
                <rect fill="#f2f5e9" fill-opacity="0.5" stroke="#606060" stroke-width=".5" x="0" y="0" width="60" height="60"/>
                <use id="zoomplus" xlink:href="#zoomPlus" x="17" y="9" onmousedown="handleZoom(evt,'in')"/>
                <use id="zoomminus" xlink:href="#zoomMin" x="42" y="9" onmousedown="handleZoom(evt,'out')"/>
                <use id="reset" xlink:href="#resetDef" x="30" y="36" onmousedown="handleReset()"/>
                <g id="arrowUp" xlink:href="#dirArrow" transform="translate(30 24)" onmousedown="handlePan(0,-1)">
                  <use xlink:href="#rim" fill="#404040">
                        <set attributeName="fill" to="#808080" begin="arrowUp.mouseover" end="arrowUp.mouseout"/>
                  </use>
                  <path fill="none" stroke="white" stroke-width="1.5" d="M0,-3.0v7 M-2.5,-0.5L0,-3.0L2.5,-0.5"/>
                </g>
                <g id="arrowRight" xlink:href="#dirArrow" transform="rotate(90) translate(36 -43)" onmousedown="handlePan(1,0)">
                  <use xlink:href="#rim" fill="#404040">
                        <set attributeName="fill" to="#808080" begin="arrowRight.mouseover" end="arrowRight.mouseout"/>
                  </use>
                  <path fill="none" stroke="white" stroke-width="1.5" d="M0,-3.0v7 M-2.5,-0.5L0,-3.0L2.5,-0.5"/>
                </g>
                <g id="arrowDown" xlink:href="#dirArrow" transform="rotate(180) translate(-30 -48)" onmousedown="handlePan(0,1)">
                  <use xlink:href="#rim" fill="#404040">
                        <set attributeName="fill" to="#808080" begin="arrowDown.mouseover" end="arrowDown.mouseout"/>
                  </use>
                  <path fill="none" stroke="white" stroke-width="1.5" d="M0,-3.0v7 M-2.5,-0.5L0,-3.0L2.5,-0.5"/>
                </g>
                <g id="arrowLeft" xlink:href="#dirArrow" transform="rotate(270) translate(-36 17)" onmousedown="handlePan(-1,0)">
                  <use xlink:href="#rim" fill="#404040">
                        <set attributeName="fill" to="#808080" begin="arrowLeft.mouseover" end="arrowLeft.mouseout"/>
                  </use>
                  <path fill="none" stroke="white" stroke-width="1.5" d="M0,-3.0v7 M-2.5,-0.5L0,-3.0L2.5,-0.5"/>
                </g>
        </g>
        <svg viewBox="0 0 15 15" width="100%" height="30px" preserveAspectRatio="xMaxYMin meet">
         <g id="arrow_out" transform="scale(0.3 0.3)">
          <a xlink:href="libmorse_8cpp__incl_org.svg" target="_base">
           <rect id="button" ry="5" rx="5" y="6" x="6" height="38" width="38"
                fill="#f2f5e9" fill-opacity="0.5" stroke="#606060" stroke-width="1.0"/>
           <path id="arrow"
             d="M 11.500037,31.436501 C 11.940474,20.09759 22.043105,11.32322 32.158766,21.979434 L 37.068811,17.246167 C 37.068811,17.246167 37.088388,32 37.088388,32 L 22.160133,31.978069 C 22.160133,31.978069 26.997745,27.140456 26.997745,27.140456 C 18.528582,18.264221 13.291696,25.230495 11.500037,31.436501 z"
             style="fill:#404040;"/>
          </a>
         </g>
        </svg>
</svg>
