<?xml version="1.0" encoding="UTF-8" standalone="no"?>
<!DOCTYPE svg PUBLIC "-//W3C//DTD SVG 1.1//EN"
 "http://www.w3.org/Graphics/SVG/1.1/DTD/svg11.dtd">
<!-- Generated by graphviz version 2.38.0 (20140413.2041)
 -->
<!-- Title: txString Pages: 1 -->
<!--zoomable 721 -->
<svg id="main" version="1.1" xmlns="http://www.w3.org/2000/svg" xmlns:xlink="http://www.w3.org/1999/xlink" xml:space="preserve" onload="init(evt)">
<style type="text/css"><![CDATA[
.edge:hover path { stroke: red; }
.edge:hover polygon { stroke: red; fill: red; }
]]></style>
<script type="text/javascript"><![CDATA[
var edges = document.getElementsByTagName('g');
if (edges && edges.length) {
  for (var i=0;i<edges.length;i++) {
    if (edges[i].id.substr(0,4)=='edge') {
      edges[i].setAttribute('class','edge');
    }
  }
}
]]></script>
        <defs>
                <circle id="rim" cx="0" cy="0" r="7"/>
                <circle id="rim2" cx="0" cy="0" r="3.5"/>
                <g id="zoomPlus">
                        <use xlink:href="#rim" fill="#404040">
                                <set attributeName="fill" to="#808080" begin="zoomplus.mouseover" end="zoomplus.mouseout"/>
                        </use>
                        <path d="M-4,0h8M0,-4v8" fill="none" stroke="white" stroke-width="1.5" pointer-events="none"/>
                </g>
                <g id="zoomMin">
                        <use xlink:href="#rim" fill="#404040">
                                <set attributeName="fill" to="#808080" begin="zoomminus.mouseover" end="zoomminus.mouseout"/>
                        </use>
                        <path d="M-4,0h8" fill="none" stroke="white" stroke-width="1.5" pointer-events="none"/>
                </g>
                <g id="dirArrow">
                        <path fill="none" stroke="white" stroke-width="1.5" d="M0,-3.0v7 M-2.5,-0.5L0,-3.0L2.5,-0.5"/>
                </g>
               <g id="resetDef">
                       <use xlink:href="#rim2" fill="#404040">
                               <set attributeName="fill" to="#808080" begin="reset.mouseover" end="reset.mouseout"/>
                       </use>
               </g>
        </defs>

<script type="text/javascript">
var viewWidth = 996;
var viewHeight = 721;
var sectionId = 'dynsection-18';
</script>
<script xlink:href="svgpan.js"/>
<svg id="graph" class="graph">
<g id="viewport">
<title>txString</title>
<polygon fill="white" stroke="none" points="-4,4 -4,-717.178 992,-717.178 992,4 -4,4"/>
<!-- Node1 -->
<g id="node1" class="node"><title>Node1</title>
<polygon fill="#bfbfbf" stroke="black" points="0,-513.5 0,-532.5 50,-532.5 50,-513.5 0,-513.5"/>
<text text-anchor="middle" x="25" y="-520.5" font-family="Helvetica,sans-Serif" font-size="10.00">txString</text>
</g>
<!-- Node2 -->
<g id="node2" class="node"><title>Node2</title>
<g id="a_node2"><a xlink:href="teensy3__morse__bsp_8cpp.html#ab306f692c5c9455a0c82782a67ff0147" target="_top" xlink:title="touchPoll">
<polygon fill="white" stroke="black" points="795,-598.5 795,-617.5 852,-617.5 852,-598.5 795,-598.5"/>
<text text-anchor="middle" x="823.5" y="-605.5" font-family="Helvetica,sans-Serif" font-size="10.00">touchPoll</text>
</a>
</g>
</g>
<!-- Node1&#45;&gt;Node2 -->
<g id="edge1" class="edge"><title>Node1&#45;&gt;Node2</title>
<path fill="none" stroke="midnightblue" d="M26.9564,-532.774C30.1036,-559.522 42.5678,-634.549 86,-674 132.071,-715.848 158.26,-713 220.5,-713 220.5,-713 220.5,-713 509,-713 621.664,-713 745.861,-651.273 797.674,-622.475"/>
<polygon fill="midnightblue" stroke="midnightblue" points="799.497,-625.465 806.487,-617.503 796.057,-619.368 799.497,-625.465"/>
</g>
<!-- Node4 -->
<g id="node4" class="node"><title>Node4</title>
<g id="a_node4"><a xlink:href="settings_8cpp.html#a960551e90dfdad18f3c9b1338ccba7db" target="_top" xlink:title="Get the dit duration in microseconds. ">
<polygon fill="white" stroke="black" points="472,-247.5 472,-266.5 544,-266.5 544,-247.5 472,-247.5"/>
<text text-anchor="middle" x="508" y="-254.5" font-family="Helvetica,sans-Serif" font-size="10.00">getDitMicros</text>
</a>
</g>
</g>
<!-- Node1&#45;&gt;Node4 -->
<g id="edge3" class="edge"><title>Node1&#45;&gt;Node4</title>
<path fill="none" stroke="midnightblue" d="M27.5267,-513.311C32.4081,-484.295 49.5009,-396.207 86,-333 114.63,-283.42 124.305,-268.111 173,-238 264.853,-181.202 313.793,-157.328 413,-200 434.371,-209.192 429.345,-225.554 449,-238 453.146,-240.625 457.69,-242.923 462.353,-244.925"/>
<polygon fill="midnightblue" stroke="midnightblue" points="461.409,-248.312 472,-248.63 463.919,-241.777 461.409,-248.312"/>
</g>
<!-- Node5 -->
<g id="node5" class="node"><title>Node5</title>
<g id="a_node5"><a xlink:href="libmorse_8cpp.html#a9fdfce728595d72b78dc7c834ab99a40" target="_top" xlink:title="Transmit a literal Morse code value. ">
<polygon fill="white" stroke="black" points="86,-342.5 86,-361.5 137,-361.5 137,-342.5 86,-342.5"/>
<text text-anchor="middle" x="111.5" y="-349.5" font-family="Helvetica,sans-Serif" font-size="10.00">txLiteral</text>
</a>
</g>
</g>
<!-- Node1&#45;&gt;Node5 -->
<g id="edge4" class="edge"><title>Node1&#45;&gt;Node5</title>
<path fill="none" stroke="midnightblue" d="M30.7852,-513.316C44.38,-485.805 83.4037,-406.834 101.314,-370.589"/>
<polygon fill="midnightblue" stroke="midnightblue" points="104.475,-372.093 105.767,-361.577 98.1993,-368.992 104.475,-372.093"/>
</g>
<!-- Node16 -->
<g id="node16" class="node"><title>Node16</title>
<g id="a_node16"><a xlink:href="libmorse_8cpp.html#acd4b292f5e412ee4f05aed9dafbc072d" target="_top" xlink:title="Convert an ASCII character into Morse code and transmit it. ">
<polygon fill="white" stroke="black" points="798.5,-285.5 798.5,-304.5 848.5,-304.5 848.5,-285.5 798.5,-285.5"/>
<text text-anchor="middle" x="823.5" y="-292.5" font-family="Helvetica,sans-Serif" font-size="10.00">txLetter</text>
</a>
</g>
</g>
<!-- Node1&#45;&gt;Node16 -->
<g id="edge40" class="edge"><title>Node1&#45;&gt;Node16</title>
<path fill="none" stroke="midnightblue" d="M25.6003,-513.476C23.378,-447.993 19.1023,-67 220.5,-67 220.5,-67 220.5,-67 509,-67 651.529,-67 772.792,-223.042 810.43,-276.945"/>
<polygon fill="midnightblue" stroke="midnightblue" points="807.749,-279.225 816.291,-285.493 813.523,-275.267 807.749,-279.225"/>
</g>
<!-- Node17 -->
<g id="node17" class="node"><title>Node17</title>
<g id="a_node17"><a xlink:href="teensy3__morse__bsp_8cpp.html#a8761e874366e227690fba2964e1bc445" target="_top" xlink:title="getInternalTemperatureC">
<polygon fill="white" stroke="black" points="603.5,-513.5 603.5,-532.5 728.5,-532.5 728.5,-513.5 603.5,-513.5"/>
<text text-anchor="middle" x="666" y="-520.5" font-family="Helvetica,sans-Serif" font-size="10.00">getInternalTemperatureC</text>
</a>
</g>
</g>
<!-- Node1&#45;&gt;Node17 -->
<g id="edge41" class="edge"><title>Node1&#45;&gt;Node17</title>
<path fill="none" stroke="midnightblue" d="M50.2579,-523C87.0615,-523 159.212,-523 220.5,-523 220.5,-523 220.5,-523 360.5,-523 440.247,-523 531.743,-523 593.45,-523"/>
<polygon fill="midnightblue" stroke="midnightblue" points="593.471,-526.5 603.471,-523 593.471,-519.5 593.471,-526.5"/>
</g>
<!-- Node18 -->
<g id="node18" class="node"><title>Node18</title>
<g id="a_node18"><a xlink:href="libmorse_8cpp.html#a47abdd74b66d7180c47d192bab8bdccb" target="_top" xlink:title="Transmit an unsigned integer in Morse code. ">
<polygon fill="white" stroke="black" points="633,-551.5 633,-570.5 699,-570.5 699,-551.5 633,-551.5"/>
<text text-anchor="middle" x="666" y="-558.5" font-family="Helvetica,sans-Serif" font-size="10.00">txUnsigned</text>
</a>
</g>
</g>
<!-- Node1&#45;&gt;Node18 -->
<g id="edge42" class="edge"><title>Node1&#45;&gt;Node18</title>
<path fill="none" stroke="midnightblue" d="M34.6214,-532.72C60.08,-560.288 138.306,-637 220.5,-637 220.5,-637 220.5,-637 360.5,-637 452.665,-637 484.094,-658.262 567,-618 587.927,-607.837 583.226,-592.257 603,-580 609.043,-576.254 615.878,-573.2 622.747,-570.724"/>
<polygon fill="midnightblue" stroke="midnightblue" points="624.303,-573.9 632.745,-567.498 622.153,-567.238 624.303,-573.9"/>
</g>
<!-- Node19 -->
<g id="node19" class="node"><title>Node19</title>
<g id="a_node19"><a xlink:href="actions_8cpp.html#aed718ec1bd4cc7adb2f65d40a6784496" target="_top" xlink:title="Transmit the internal temperature in integer in Fahrenheit. ">
<polygon fill="white" stroke="black" points="449,-551.5 449,-570.5 567,-570.5 567,-551.5 449,-551.5"/>
<text text-anchor="middle" x="508" y="-558.5" font-family="Helvetica,sans-Serif" font-size="10.00">txInternalTemperatureF</text>
</a>
</g>
</g>
<!-- Node1&#45;&gt;Node19 -->
<g id="edge43" class="edge"><title>Node1&#45;&gt;Node19</title>
<path fill="none" stroke="midnightblue" d="M50.0505,-529.611C60.9442,-532.347 74.0365,-535.276 86,-537 209.468,-554.788 355.088,-559.529 438.672,-560.711"/>
<polygon fill="midnightblue" stroke="midnightblue" points="438.756,-564.212 448.801,-560.841 438.846,-557.213 438.756,-564.212"/>
</g>
<!-- Node20 -->
<g id="node20" class="node"><title>Node20</title>
<g id="a_node20"><a xlink:href="actions_8cpp.html#aaabb3ac0c23f35a499bc17efe829f326" target="_top" xlink:title="Transmit the 24&#45;hr time. ">
<polygon fill="white" stroke="black" points="469,-475.5 469,-494.5 547,-494.5 547,-475.5 469,-475.5"/>
<text text-anchor="middle" x="508" y="-482.5" font-family="Helvetica,sans-Serif" font-size="10.00">txTimeHHMM</text>
</a>
</g>
</g>
<!-- Node1&#45;&gt;Node20 -->
<g id="edge44" class="edge"><title>Node1&#45;&gt;Node20</title>
<path fill="none" stroke="midnightblue" d="M50.0505,-516.389C60.9442,-513.653 74.0365,-510.724 86,-509 220.014,-489.692 380.124,-485.756 458.678,-485.058"/>
<polygon fill="midnightblue" stroke="midnightblue" points="458.783,-488.558 468.756,-484.983 458.73,-481.558 458.783,-488.558"/>
</g>
<!-- Node21 -->
<g id="node21" class="node"><title>Node21</title>
<g id="a_node21"><a xlink:href="actions_8cpp.html#ad02149679fa3cc6a4957d1a318408ffd" target="_top" xlink:title="Transmit the uptime. ">
<polygon fill="white" stroke="black" points="480,-589.5 480,-608.5 536,-608.5 536,-589.5 480,-589.5"/>
<text text-anchor="middle" x="508" y="-596.5" font-family="Helvetica,sans-Serif" font-size="10.00">txUptime</text>
</a>
</g>
</g>
<!-- Node1&#45;&gt;Node21 -->
<g id="edge45" class="edge"><title>Node1&#45;&gt;Node21</title>
<path fill="none" stroke="midnightblue" d="M41.13,-532.784C52.8833,-539.887 69.8488,-549.08 86,-554 222.723,-595.645 394.621,-599.989 469.39,-599.67"/>
<polygon fill="midnightblue" stroke="midnightblue" points="469.728,-603.167 479.701,-599.593 469.675,-596.167 469.728,-603.167"/>
</g>
<!-- Node23 -->
<g id="node23" class="node"><title>Node23</title>
<g id="a_node23"><a xlink:href="teensy3__morse__bsp_8cpp.html#ae8dd28759e56dbd2ee9bc9ae96d1783c" target="_top" xlink:title="Return the most recent ADC measurement of the input voltage. Perform analog to digital conversion on ...">
<polygon fill="white" stroke="black" points="471,-95.5 471,-114.5 545,-114.5 545,-95.5 471,-95.5"/>
<text text-anchor="middle" x="508" y="-102.5" font-family="Helvetica,sans-Serif" font-size="10.00">readMillivolts</text>
</a>
</g>
</g>
<!-- Node1&#45;&gt;Node23 -->
<g id="edge46" class="edge"><title>Node1&#45;&gt;Node23</title>
<path fill="none" stroke="midnightblue" d="M26.1412,-513.178C27.0747,-476.961 34.0733,-348.475 86,-261 112.358,-216.598 127.161,-207.77 173,-184 267.899,-134.79 393.819,-115.754 460.676,-108.769"/>
<polygon fill="midnightblue" stroke="midnightblue" points="461.283,-112.226 470.885,-107.748 460.587,-105.26 461.283,-112.226"/>
</g>
<!-- Node27 -->
<g id="node27" class="node"><title>Node27</title>
<g id="a_node27"><a xlink:href="libmorse_8cpp.html#ac3f000c98271c6d0a7710135e18189bc" target="_top" xlink:title="On my hardware there is cross&#45;coupling between the serial port and the touch sensors. Without the code below, long messages to the serial port trigger a touch input. ">
<polygon fill="white" stroke="black" points="475.5,-665.5 475.5,-684.5 540.5,-684.5 540.5,-665.5 475.5,-665.5"/>
<text text-anchor="middle" x="508" y="-672.5" font-family="Helvetica,sans-Serif" font-size="10.00">flushTouch</text>
</a>
</g>
</g>
<!-- Node1&#45;&gt;Node27 -->
<g id="edge47" class="edge"><title>Node1&#45;&gt;Node27</title>
<path fill="none" stroke="midnightblue" d="M27.2331,-532.86C30.9204,-557.689 44.3257,-622.812 86,-651 146.933,-692.214 371.645,-683.51 465.444,-677.864"/>
<polygon fill="midnightblue" stroke="midnightblue" points="465.662,-681.357 475.426,-677.244 465.228,-674.37 465.662,-681.357"/>
</g>
<!-- Node3 -->
<g id="node3" class="node"><title>Node3</title>
<g id="a_node3"><a xlink:href="teensy3__morse__bsp_8cpp.html#af6899cd9b83df54106b259ab81ea5cb2" target="_top" xlink:title="touchMargin">
<polygon fill="white" stroke="black" points="918,-598.5 918,-617.5 988,-617.5 988,-598.5 918,-598.5"/>
<text text-anchor="middle" x="953" y="-605.5" font-family="Helvetica,sans-Serif" font-size="10.00">touchMargin</text>
</a>
</g>
</g>
<!-- Node2&#45;&gt;Node3 -->
<g id="edge2" class="edge"><title>Node2&#45;&gt;Node3</title>
<path fill="none" stroke="midnightblue" d="M852.166,-608C868.281,-608 888.984,-608 907.355,-608"/>
<polygon fill="midnightblue" stroke="midnightblue" points="907.562,-611.5 917.562,-608 907.562,-604.5 907.562,-611.5"/>
</g>
<!-- Node5&#45;&gt;Node4 -->
<g id="edge13" class="edge"><title>Node5&#45;&gt;Node4</title>
<path fill="none" stroke="midnightblue" d="M137.401,-360.081C192.024,-376.195 324.534,-406.332 413,-352 443.148,-333.484 423.039,-305.037 449,-281 453.303,-277.016 458.36,-273.646 463.663,-270.809"/>
<polygon fill="midnightblue" stroke="midnightblue" points="465.187,-273.96 472.732,-266.522 462.196,-267.631 465.187,-273.96"/>
</g>
<!-- Node6 -->
<g id="node6" class="node"><title>Node6</title>
<g id="a_node6"><a xlink:href="class_morse_token.html#a48cd72aeb868391449d1f51c1d0bf5cc" target="_top" xlink:title="Treat code == 0 as the error token. ">
<polygon fill="white" stroke="black" points="173,-285.5 173,-304.5 270,-304.5 270,-285.5 173,-285.5"/>
<text text-anchor="middle" x="221.5" y="-292.5" font-family="Helvetica,sans-Serif" font-size="10.00">MorseToken::valid</text>
</a>
</g>
</g>
<!-- Node5&#45;&gt;Node6 -->
<g id="edge5" class="edge"><title>Node5&#45;&gt;Node6</title>
<path fill="none" stroke="midnightblue" d="M126.499,-342.19C138.497,-334.033 156.418,-322.437 173,-314 176.74,-312.097 180.718,-310.249 184.718,-308.501"/>
<polygon fill="midnightblue" stroke="midnightblue" points="186.115,-311.71 193.991,-304.624 183.415,-305.252 186.115,-311.71"/>
</g>
<!-- Node7 -->
<g id="node7" class="node"><title>Node7</title>
<g id="a_node7"><a xlink:href="teensy3__morse__bsp_8cpp.html#af66e71e3fac9b6a2c6532bc8a513bfde" target="_top" xlink:title="Output a square wave on pin 10 at the given frequency for the given duration. ">
<polygon fill="white" stroke="black" points="202.5,-323.5 202.5,-342.5 240.5,-342.5 240.5,-323.5 202.5,-323.5"/>
<text text-anchor="middle" x="221.5" y="-330.5" font-family="Helvetica,sans-Serif" font-size="10.00">beep</text>
</a>
</g>
</g>
<!-- Node5&#45;&gt;Node7 -->
<g id="edge6" class="edge"><title>Node5&#45;&gt;Node7</title>
<path fill="none" stroke="midnightblue" d="M137.007,-347.689C153.499,-344.787 175.286,-340.954 192.469,-337.931"/>
<polygon fill="midnightblue" stroke="midnightblue" points="193.242,-341.349 202.484,-336.169 192.029,-334.455 193.242,-341.349"/>
</g>
<!-- Node13 -->
<g id="node13" class="node"><title>Node13</title>
<g id="a_node13"><a xlink:href="settings_8cpp.html#a8575b9b52638114a4f32d1462cf9b7c1" target="_top" xlink:title="Get the transmission frequency (side tone). ">
<polygon fill="white" stroke="black" points="194.5,-247.5 194.5,-266.5 248.5,-266.5 248.5,-247.5 194.5,-247.5"/>
<text text-anchor="middle" x="221.5" y="-254.5" font-family="Helvetica,sans-Serif" font-size="10.00">getTxHz</text>
</a>
</g>
</g>
<!-- Node5&#45;&gt;Node13 -->
<g id="edge12" class="edge"><title>Node5&#45;&gt;Node13</title>
<path fill="none" stroke="midnightblue" d="M117.951,-342.259C127.298,-326.357 147.83,-294.72 173,-276 176.626,-273.303 180.686,-270.928 184.866,-268.853"/>
<polygon fill="midnightblue" stroke="midnightblue" points="186.349,-272.024 194.082,-264.782 183.521,-265.621 186.349,-272.024"/>
</g>
<!-- Node14 -->
<g id="node14" class="node"><title>Node14</title>
<g id="a_node14"><a xlink:href="libmorse_8cpp.html#ab94e088615119d1faae7df22ce50aedf" target="_top" xlink:title="Transmit a Morse code prosign indicating an error. ">
<polygon fill="white" stroke="black" points="198.5,-399.5 198.5,-418.5 244.5,-418.5 244.5,-399.5 198.5,-399.5"/>
<text text-anchor="middle" x="221.5" y="-406.5" font-family="Helvetica,sans-Serif" font-size="10.00">txError</text>
</a>
</g>
</g>
<!-- Node5&#45;&gt;Node14 -->
<g id="edge14" class="edge"><title>Node5&#45;&gt;Node14</title>
<path fill="none" stroke="midnightblue" d="M129.634,-361.533C141.706,-368.203 158.277,-377.267 173,-385 179.012,-388.158 185.488,-391.48 191.665,-394.613"/>
<polygon fill="midnightblue" stroke="midnightblue" points="190.511,-397.951 201.016,-399.329 193.663,-391.701 190.511,-397.951"/>
</g>
<!-- Node8 -->
<g id="node8" class="node"><title>Node8</title>
<g id="a_node8"><a xlink:href="teensy3__morse__bsp_8cpp.html#a6f674d5b9985ea3a7eeb0df299c2e405" target="_top" xlink:title="pollEarphonePresent">
<polygon fill="white" stroke="black" points="306,-209.5 306,-228.5 413,-228.5 413,-209.5 306,-209.5"/>
<text text-anchor="middle" x="359.5" y="-216.5" font-family="Helvetica,sans-Serif" font-size="10.00">pollEarphonePresent</text>
</a>
</g>
</g>
<!-- Node7&#45;&gt;Node8 -->
<g id="edge7" class="edge"><title>Node7&#45;&gt;Node8</title>
<path fill="none" stroke="midnightblue" d="M240.962,-329.071C250.58,-326.237 261.975,-321.543 270,-314 297.233,-288.401 278.345,-263.142 306,-238 307.719,-236.437 309.576,-235 311.531,-233.68"/>
<polygon fill="midnightblue" stroke="midnightblue" points="313.583,-236.543 320.598,-228.603 310.163,-230.435 313.583,-236.543"/>
</g>
<!-- Node9 -->
<g id="node9" class="node"><title>Node9</title>
<g id="a_node9"><a xlink:href="teensy3__morse__bsp_8cpp.html#a2d6b4ace33ed5e497dedd03217540c63" target="_top" xlink:title="Set the PWM frequency for the audio output pins. ">
<polygon fill="white" stroke="black" points="318,-285.5 318,-304.5 401,-304.5 401,-285.5 318,-285.5"/>
<text text-anchor="middle" x="359.5" y="-292.5" font-family="Helvetica,sans-Serif" font-size="10.00">pwmFrequency</text>
</a>
</g>
</g>
<!-- Node7&#45;&gt;Node9 -->
<g id="edge8" class="edge"><title>Node7&#45;&gt;Node9</title>
<path fill="none" stroke="midnightblue" d="M240.56,-327.954C259.377,-322.696 289.566,-314.261 314.689,-307.241"/>
<polygon fill="midnightblue" stroke="midnightblue" points="315.699,-310.593 324.388,-304.531 313.815,-303.852 315.699,-310.593"/>
</g>
<!-- Node10 -->
<g id="node10" class="node"><title>Node10</title>
<g id="a_node10"><a xlink:href="teensy3__morse__bsp_8cpp.html#a82911eac3bf13d6f36d10102a4c4d3c4" target="_top" xlink:title="Generate a tone on the audio output pins. ">
<polygon fill="white" stroke="black" points="329,-323.5 329,-342.5 390,-342.5 390,-323.5 329,-323.5"/>
<text text-anchor="middle" x="359.5" y="-330.5" font-family="Helvetica,sans-Serif" font-size="10.00">pwmWrite</text>
</a>
</g>
</g>
<!-- Node7&#45;&gt;Node10 -->
<g id="edge9" class="edge"><title>Node7&#45;&gt;Node10</title>
<path fill="none" stroke="midnightblue" d="M240.56,-333C260.373,-333 292.795,-333 318.635,-333"/>
<polygon fill="midnightblue" stroke="midnightblue" points="318.89,-336.5 328.89,-333 318.89,-329.5 318.89,-336.5"/>
</g>
<!-- Node12 -->
<g id="node12" class="node"><title>Node12</title>
<g id="a_node12"><a xlink:href="teensy3__morse__bsp_8cpp.html#a6c982a7d7805f1dd5426eb98c915cfdd" target="_top" xlink:title="Turn the red LED on (1) or off (0). ">
<polygon fill="white" stroke="black" points="334.5,-247.5 334.5,-266.5 384.5,-266.5 384.5,-247.5 334.5,-247.5"/>
<text text-anchor="middle" x="359.5" y="-254.5" font-family="Helvetica,sans-Serif" font-size="10.00">redLED</text>
</a>
</g>
</g>
<!-- Node7&#45;&gt;Node12 -->
<g id="edge11" class="edge"><title>Node7&#45;&gt;Node12</title>
<path fill="none" stroke="midnightblue" d="M240.55,-327.836C249.827,-324.687 261.035,-320.087 270,-314 289.247,-300.932 286.538,-288.746 306,-276 311.775,-272.218 318.4,-269.07 324.955,-266.495"/>
<polygon fill="midnightblue" stroke="midnightblue" points="326.158,-269.782 334.402,-263.127 323.807,-263.189 326.158,-269.782"/>
</g>
<!-- Node11 -->
<g id="node11" class="node"><title>Node11</title>
<g id="a_node11"><a xlink:href="teensy3__morse__bsp_8cpp.html#ac70998cee1bf97f00aec4a1b4e5a4f60" target="_top" xlink:title="isEarphonePresent">
<polygon fill="white" stroke="black" points="458.5,-209.5 458.5,-228.5 557.5,-228.5 557.5,-209.5 458.5,-209.5"/>
<text text-anchor="middle" x="508" y="-216.5" font-family="Helvetica,sans-Serif" font-size="10.00">isEarphonePresent</text>
</a>
</g>
</g>
<!-- Node10&#45;&gt;Node11 -->
<g id="edge10" class="edge"><title>Node10&#45;&gt;Node11</title>
<path fill="none" stroke="midnightblue" d="M390.227,-326.701C398.326,-323.868 406.617,-319.803 413,-314 440.655,-288.858 420.962,-262.715 449,-238 450.913,-236.314 452.978,-234.777 455.151,-233.376"/>
<polygon fill="midnightblue" stroke="midnightblue" points="456.828,-236.448 463.966,-228.619 453.504,-230.288 456.828,-236.448"/>
</g>
<!-- Node15 -->
<g id="node15" class="node"><title>Node15</title>
<g id="a_node15"><a xlink:href="libmorse_8cpp.html#a0ee2308940264ea9ac8e50afc1a4d285" target="_top" xlink:title="txString">
<polygon fill="white" stroke="black" points="334.5,-437.5 334.5,-456.5 384.5,-456.5 384.5,-437.5 334.5,-437.5"/>
<text text-anchor="middle" x="359.5" y="-444.5" font-family="Helvetica,sans-Serif" font-size="10.00">txString</text>
</a>
</g>
</g>
<!-- Node14&#45;&gt;Node15 -->
<g id="edge15" class="edge"><title>Node14&#45;&gt;Node15</title>
<path fill="none" stroke="midnightblue" d="M244.653,-415.19C266.219,-421.216 299.301,-430.459 324.257,-437.432"/>
<polygon fill="midnightblue" stroke="midnightblue" points="323.484,-440.85 334.057,-440.17 325.368,-434.108 323.484,-440.85"/>
</g>
<!-- Node15&#45;&gt;Node2 -->
<g id="edge16" class="edge"><title>Node15&#45;&gt;Node2</title>
<path fill="none" stroke="midnightblue" d="M382.929,-437.457C400.532,-430.509 425.849,-421.696 449,-418 500.788,-409.731 516.109,-405.329 567,-418 646.102,-437.695 664.767,-453.81 729,-504 761.958,-529.752 792.898,-567.939 809.612,-590.164"/>
<polygon fill="midnightblue" stroke="midnightblue" points="806.919,-592.408 815.679,-598.368 812.547,-588.246 806.919,-592.408"/>
</g>
<!-- Node15&#45;&gt;Node4 -->
<g id="edge17" class="edge"><title>Node15&#45;&gt;Node4</title>
<path fill="none" stroke="midnightblue" d="M369.703,-437.406C380.739,-425.628 399.442,-404.776 413,-385 431.894,-357.441 429.431,-346.083 449,-319 460.897,-302.535 476.793,-285.83 488.935,-273.915"/>
<polygon fill="midnightblue" stroke="midnightblue" points="491.519,-276.285 496.292,-266.827 486.662,-271.244 491.519,-276.285"/>
</g>
<!-- Node15&#45;&gt;Node5 -->
<g id="edge18" class="edge"><title>Node15&#45;&gt;Node5</title>
<path fill="none" stroke="midnightblue" d="M334.227,-450.209C297.042,-453.929 224.841,-456.339 173,-428 149.402,-415.1 131.727,-388.781 121.753,-370.766"/>
<polygon fill="midnightblue" stroke="midnightblue" points="124.766,-368.975 117.016,-361.751 118.569,-372.231 124.766,-368.975"/>
</g>
<!-- Node15&#45;&gt;Node16 -->
<g id="edge19" class="edge"><title>Node15&#45;&gt;Node16</title>
<path fill="none" stroke="midnightblue" d="M384.646,-439.714C394.304,-435.903 405.008,-430.447 413,-423 437.446,-400.221 421.766,-376.359 449,-357 455.949,-352.06 697.094,-314.383 788.154,-300.294"/>
<polygon fill="midnightblue" stroke="midnightblue" points="788.892,-303.722 798.24,-298.735 787.823,-296.804 788.892,-303.722"/>
</g>
<!-- Node15&#45;&gt;Node17 -->
<g id="edge22" class="edge"><title>Node15&#45;&gt;Node17</title>
<path fill="none" stroke="midnightblue" d="M384.726,-438.895C424.366,-427.026 504.89,-408.807 567,-433 604.269,-447.517 635.954,-483.567 652.56,-505.382"/>
<polygon fill="midnightblue" stroke="midnightblue" points="649.789,-507.522 658.54,-513.494 655.424,-503.368 649.789,-507.522"/>
</g>
<!-- Node15&#45;&gt;Node18 -->
<g id="edge23" class="edge"><title>Node15&#45;&gt;Node18</title>
<path fill="none" stroke="midnightblue" d="M384.727,-442.101C426.163,-435.152 511.526,-427.221 567,-466 597.633,-487.414 574.726,-517.555 603,-542 608.738,-546.961 615.75,-550.626 622.968,-553.335"/>
<polygon fill="midnightblue" stroke="midnightblue" points="622.248,-556.779 632.839,-556.467 624.366,-550.106 622.248,-556.779"/>
</g>
<!-- Node15&#45;&gt;Node19 -->
<g id="edge26" class="edge"><title>Node15&#45;&gt;Node19</title>
<path fill="none" stroke="midnightblue" d="M372.739,-456.523C397.882,-476.089 455.582,-520.989 486.519,-545.063"/>
<polygon fill="midnightblue" stroke="midnightblue" points="484.444,-547.883 494.486,-551.262 488.743,-542.358 484.444,-547.883"/>
</g>
<!-- Node15&#45;&gt;Node20 -->
<g id="edge29" class="edge"><title>Node15&#45;&gt;Node20</title>
<path fill="none" stroke="midnightblue" d="M384.691,-448.109C410.49,-452.794 451.315,-463.283 478.616,-472.17"/>
<polygon fill="midnightblue" stroke="midnightblue" points="477.763,-475.577 488.357,-475.483 480.016,-468.95 477.763,-475.577"/>
</g>
<!-- Node15&#45;&gt;Node21 -->
<g id="edge31" class="edge"><title>Node15&#45;&gt;Node21</title>
<path fill="none" stroke="midnightblue" d="M364.249,-456.635C374.217,-481.002 403.741,-545.586 449,-580 455.217,-584.727 462.661,-588.307 470.111,-591.009"/>
<polygon fill="midnightblue" stroke="midnightblue" points="469.216,-594.396 479.806,-594.077 471.328,-587.723 469.216,-594.396"/>
</g>
<!-- Node15&#45;&gt;Node23 -->
<g id="edge34" class="edge"><title>Node15&#45;&gt;Node23</title>
<path fill="none" stroke="midnightblue" d="M366.942,-437.447C377.903,-420.79 400.232,-385.046 413,-352 438.021,-287.241 422.584,-264.202 449,-200 460.762,-171.412 480.473,-141.456 493.605,-123.006"/>
<polygon fill="midnightblue" stroke="midnightblue" points="496.59,-124.851 499.627,-114.701 490.923,-120.742 496.59,-124.851"/>
</g>
<!-- Node15&#45;&gt;Node27 -->
<g id="edge38" class="edge"><title>Node15&#45;&gt;Node27</title>
<path fill="none" stroke="midnightblue" d="M364.312,-456.881C375.092,-484.135 407.71,-562.058 449,-618 460.172,-633.136 475.427,-647.958 487.489,-658.692"/>
<polygon fill="midnightblue" stroke="midnightblue" points="485.394,-661.509 495.239,-665.424 489.985,-656.224 485.394,-661.509"/>
</g>
<!-- Node16&#45;&gt;Node5 -->
<g id="edge20" class="edge"><title>Node16&#45;&gt;Node5</title>
<path fill="none" stroke="midnightblue" d="M807.863,-285.477C764.299,-258.078 630.909,-181 509,-181 358.5,-181 358.5,-181 358.5,-181 272.251,-181 238.369,-181.734 173,-238 144.977,-262.121 154.863,-280.627 137,-313 133.211,-319.868 128.728,-327.198 124.64,-333.629"/>
<polygon fill="midnightblue" stroke="midnightblue" points="121.556,-331.951 119.059,-342.248 127.432,-335.756 121.556,-331.951"/>
</g>
<!-- Node16&#45;&gt;Node14 -->
<g id="edge21" class="edge"><title>Node16&#45;&gt;Node14</title>
<path fill="none" stroke="midnightblue" d="M798.455,-290.805C735.675,-281.164 563.755,-263.292 449,-333 425.904,-347.03 436.192,-368.13 413,-382 363.657,-411.509 294.551,-413.543 254.561,-411.708"/>
<polygon fill="midnightblue" stroke="midnightblue" points="254.756,-408.213 244.573,-411.14 254.359,-415.202 254.756,-408.213"/>
</g>
<!-- Node18&#45;&gt;Node2 -->
<g id="edge24" class="edge"><title>Node18&#45;&gt;Node2</title>
<path fill="none" stroke="midnightblue" d="M698.468,-570.511C723.571,-578.098 758.794,-588.745 785.293,-596.754"/>
<polygon fill="midnightblue" stroke="midnightblue" points="784.397,-600.14 794.982,-599.683 786.423,-593.439 784.397,-600.14"/>
</g>
<!-- Node18&#45;&gt;Node16 -->
<g id="edge25" class="edge"><title>Node18&#45;&gt;Node16</title>
<path fill="none" stroke="midnightblue" d="M699.18,-556.928C709.755,-554.191 720.869,-549.623 729,-542 796.677,-478.554 815.781,-361.119 820.818,-314.658"/>
<polygon fill="midnightblue" stroke="midnightblue" points="824.303,-314.978 821.796,-304.684 817.337,-314.294 824.303,-314.978"/>
</g>
<!-- Node19&#45;&gt;Node17 -->
<g id="edge27" class="edge"><title>Node19&#45;&gt;Node17</title>
<path fill="none" stroke="midnightblue" d="M548.365,-551.411C568.951,-546.396 594.34,-540.212 616.169,-534.895"/>
<polygon fill="midnightblue" stroke="midnightblue" points="617.03,-538.287 625.918,-532.52 615.373,-531.486 617.03,-538.287"/>
</g>
<!-- Node19&#45;&gt;Node18 -->
<g id="edge28" class="edge"><title>Node19&#45;&gt;Node18</title>
<path fill="none" stroke="midnightblue" d="M567.089,-561C585.454,-561 605.397,-561 622.463,-561"/>
<polygon fill="midnightblue" stroke="midnightblue" points="622.677,-564.5 632.677,-561 622.677,-557.5 622.677,-564.5"/>
</g>
<!-- Node20&#45;&gt;Node15 -->
<g id="edge30" class="edge"><title>Node20&#45;&gt;Node15</title>
<path fill="none" stroke="midnightblue" d="M468.753,-481.091C443.819,-475.761 411.811,-467.281 389.083,-459.894"/>
<polygon fill="midnightblue" stroke="midnightblue" points="389.947,-456.491 379.352,-456.592 387.697,-463.12 389.947,-456.491"/>
</g>
<!-- Node21&#45;&gt;Node18 -->
<g id="edge33" class="edge"><title>Node21&#45;&gt;Node18</title>
<path fill="none" stroke="midnightblue" d="M536.173,-592.381C560.119,-586.548 595.386,-577.957 622.968,-571.238"/>
<polygon fill="midnightblue" stroke="midnightblue" points="623.86,-574.624 632.748,-568.856 622.203,-567.823 623.86,-574.624"/>
</g>
<!-- Node22 -->
<g id="node22" class="node"><title>Node22</title>
<g id="a_node22"><a xlink:href="settings_8cpp.html#a7b4efa097b94f9a90c5bbafcdf93fe4f" target="_top" xlink:title="getUptime">
<polygon fill="white" stroke="black" points="635,-589.5 635,-608.5 697,-608.5 697,-589.5 635,-589.5"/>
<text text-anchor="middle" x="666" y="-596.5" font-family="Helvetica,sans-Serif" font-size="10.00">getUptime</text>
</a>
</g>
</g>
<!-- Node21&#45;&gt;Node22 -->
<g id="edge32" class="edge"><title>Node21&#45;&gt;Node22</title>
<path fill="none" stroke="midnightblue" d="M536.173,-599C560.633,-599 596.905,-599 624.735,-599"/>
<polygon fill="midnightblue" stroke="midnightblue" points="624.945,-602.5 634.945,-599 624.945,-595.5 624.945,-602.5"/>
</g>
<!-- Node24 -->
<g id="node24" class="node"><title>Node24</title>
<g id="a_node24"><a xlink:href="class_voltage_monitor.html#a70902b84f9864c95d5553a0644a64f4f" target="_top" xlink:title="Return the latest voltage reading. ">
<polygon fill="white" stroke="black" points="603,-19.5 603,-38.5 729,-38.5 729,-19.5 603,-19.5"/>
<text text-anchor="middle" x="666" y="-26.5" font-family="Helvetica,sans-Serif" font-size="10.00">VoltageMonitor::getValue</text>
</a>
</g>
</g>
<!-- Node23&#45;&gt;Node24 -->
<g id="edge35" class="edge"><title>Node23&#45;&gt;Node24</title>
<path fill="none" stroke="midnightblue" d="M528.758,-95.3745C555.952,-82.1261 605.09,-58.187 636.327,-42.9687"/>
<polygon fill="midnightblue" stroke="midnightblue" points="637.946,-46.0735 645.403,-38.5473 634.88,-39.7806 637.946,-46.0735"/>
</g>
<!-- Node25 -->
<g id="node25" class="node"><title>Node25</title>
<g id="a_node25"><a xlink:href="actions_8cpp.html#a2b8c3769e2aa32a2da9e2f3f85ac73dd" target="_top" xlink:title="A sample ADC reading is taken each time through the main loop, and written to a ring buffer...">
<polygon fill="white" stroke="black" points="767.5,-38.5 767.5,-57.5 879.5,-57.5 879.5,-38.5 767.5,-38.5"/>
<text text-anchor="middle" x="823.5" y="-45.5" font-family="Helvetica,sans-Serif" font-size="10.00">getVoltagePollInterval</text>
</a>
</g>
</g>
<!-- Node24&#45;&gt;Node25 -->
<g id="edge36" class="edge"><title>Node24&#45;&gt;Node25</title>
<path fill="none" stroke="midnightblue" d="M729.352,-36.6185C738.438,-37.7287 747.816,-38.8746 756.963,-39.9922"/>
<polygon fill="midnightblue" stroke="midnightblue" points="756.813,-43.4998 767.163,-41.2386 757.662,-36.5515 756.813,-43.4998"/>
</g>
<!-- Node26 -->
<g id="node26" class="node"><title>Node26</title>
<g id="a_node26"><a xlink:href="class_voltage_monitor.html#a75871331808c34b40d04059ee2af0f27" target="_top" xlink:title="Filter and scale raw ADC values to millivolts. ">
<polygon fill="white" stroke="black" points="765,-0.5 765,-19.5 882,-19.5 882,-0.5 765,-0.5"/>
<text text-anchor="middle" x="823.5" y="-7.5" font-family="Helvetica,sans-Serif" font-size="10.00">VoltageMonitor::update</text>
</a>
</g>
</g>
<!-- Node24&#45;&gt;Node26 -->
<g id="edge37" class="edge"><title>Node24&#45;&gt;Node26</title>
<path fill="none" stroke="midnightblue" d="M729.352,-21.3815C737.702,-20.3612 746.298,-19.3108 754.735,-18.2799"/>
<polygon fill="midnightblue" stroke="midnightblue" points="755.419,-21.7226 764.92,-17.0355 754.57,-14.7742 755.419,-21.7226"/>
</g>
<!-- Node27&#45;&gt;Node2 -->
<g id="edge39" class="edge"><title>Node27&#45;&gt;Node2</title>
<path fill="none" stroke="midnightblue" d="M540.785,-668.207C599.031,-655.759 722.6,-629.35 784.908,-616.034"/>
<polygon fill="midnightblue" stroke="midnightblue" points="785.675,-619.449 794.723,-613.936 784.212,-612.604 785.675,-619.449"/>
</g>
</g>
</svg>
        <g id="navigator" transform="translate(0 0)" fill="#404254">
                <rect fill="#f2f5e9" fill-opacity="0.5" stroke="#606060" stroke-width=".5" x="0" y="0" width="60" height="60"/>
                <use id="zoomplus" xlink:href="#zoomPlus" x="17" y="9" onmousedown="handleZoom(evt,'in')"/>
                <use id="zoomminus" xlink:href="#zoomMin" x="42" y="9" onmousedown="handleZoom(evt,'out')"/>
                <use id="reset" xlink:href="#resetDef" x="30" y="36" onmousedown="handleReset()"/>
                <g id="arrowUp" xlink:href="#dirArrow" transform="translate(30 24)" onmousedown="handlePan(0,-1)">
                  <use xlink:href="#rim" fill="#404040">
                        <set attributeName="fill" to="#808080" begin="arrowUp.mouseover" end="arrowUp.mouseout"/>
                  </use>
                  <path fill="none" stroke="white" stroke-width="1.5" d="M0,-3.0v7 M-2.5,-0.5L0,-3.0L2.5,-0.5"/>
                </g>
                <g id="arrowRight" xlink:href="#dirArrow" transform="rotate(90) translate(36 -43)" onmousedown="handlePan(1,0)">
                  <use xlink:href="#rim" fill="#404040">
                        <set attributeName="fill" to="#808080" begin="arrowRight.mouseover" end="arrowRight.mouseout"/>
                  </use>
                  <path fill="none" stroke="white" stroke-width="1.5" d="M0,-3.0v7 M-2.5,-0.5L0,-3.0L2.5,-0.5"/>
                </g>
                <g id="arrowDown" xlink:href="#dirArrow" transform="rotate(180) translate(-30 -48)" onmousedown="handlePan(0,1)">
                  <use xlink:href="#rim" fill="#404040">
                        <set attributeName="fill" to="#808080" begin="arrowDown.mouseover" end="arrowDown.mouseout"/>
                  </use>
                  <path fill="none" stroke="white" stroke-width="1.5" d="M0,-3.0v7 M-2.5,-0.5L0,-3.0L2.5,-0.5"/>
                </g>
                <g id="arrowLeft" xlink:href="#dirArrow" transform="rotate(270) translate(-36 17)" onmousedown="handlePan(-1,0)">
                  <use xlink:href="#rim" fill="#404040">
                        <set attributeName="fill" to="#808080" begin="arrowLeft.mouseover" end="arrowLeft.mouseout"/>
                  </use>
                  <path fill="none" stroke="white" stroke-width="1.5" d="M0,-3.0v7 M-2.5,-0.5L0,-3.0L2.5,-0.5"/>
                </g>
        </g>
        <svg viewBox="0 0 15 15" width="100%" height="30px" preserveAspectRatio="xMaxYMin meet">
         <g id="arrow_out" transform="scale(0.3 0.3)">
          <a xlink:href="libmorse_8h_a0ee2308940264ea9ac8e50afc1a4d285_cgraph_org.svg" target="_base">
           <rect id="button" ry="5" rx="5" y="6" x="6" height="38" width="38"
                fill="#f2f5e9" fill-opacity="0.5" stroke="#606060" stroke-width="1.0"/>
           <path id="arrow"
             d="M 11.500037,31.436501 C 11.940474,20.09759 22.043105,11.32322 32.158766,21.979434 L 37.068811,17.246167 C 37.068811,17.246167 37.088388,32 37.088388,32 L 22.160133,31.978069 C 22.160133,31.978069 26.997745,27.140456 26.997745,27.140456 C 18.528582,18.264221 13.291696,25.230495 11.500037,31.436501 z"
             style="fill:#404040;"/>
          </a>
         </g>
        </svg>
</svg>
