<?xml version="1.0" encoding="UTF-8" standalone="no"?>
<!DOCTYPE svg PUBLIC "-//W3C//DTD SVG 1.1//EN"
 "http://www.w3.org/Graphics/SVG/1.1/DTD/svg11.dtd">
<!-- Generated by graphviz version 2.38.0 (20140413.2041)
 -->
<!-- Title: txUnsigned Pages: 1 -->
<!--zoomable 458 -->
<svg id="main" version="1.1" xmlns="http://www.w3.org/2000/svg" xmlns:xlink="http://www.w3.org/1999/xlink" xml:space="preserve" onload="init(evt)">
<style type="text/css"><![CDATA[
.edge:hover path { stroke: red; }
.edge:hover polygon { stroke: red; fill: red; }
]]></style>
<script type="text/javascript"><![CDATA[
var edges = document.getElementsByTagName('g');
if (edges && edges.length) {
  for (var i=0;i<edges.length;i++) {
    if (edges[i].id.substr(0,4)=='edge') {
      edges[i].setAttribute('class','edge');
    }
  }
}
]]></script>
        <defs>
                <circle id="rim" cx="0" cy="0" r="7"/>
                <circle id="rim2" cx="0" cy="0" r="3.5"/>
                <g id="zoomPlus">
                        <use xlink:href="#rim" fill="#404040">
                                <set attributeName="fill" to="#808080" begin="zoomplus.mouseover" end="zoomplus.mouseout"/>
                        </use>
                        <path d="M-4,0h8M0,-4v8" fill="none" stroke="white" stroke-width="1.5" pointer-events="none"/>
                </g>
                <g id="zoomMin">
                        <use xlink:href="#rim" fill="#404040">
                                <set attributeName="fill" to="#808080" begin="zoomminus.mouseover" end="zoomminus.mouseout"/>
                        </use>
                        <path d="M-4,0h8" fill="none" stroke="white" stroke-width="1.5" pointer-events="none"/>
                </g>
                <g id="dirArrow">
                        <path fill="none" stroke="white" stroke-width="1.5" d="M0,-3.0v7 M-2.5,-0.5L0,-3.0L2.5,-0.5"/>
                </g>
               <g id="resetDef">
                       <use xlink:href="#rim2" fill="#404040">
                               <set attributeName="fill" to="#808080" begin="reset.mouseover" end="reset.mouseout"/>
                       </use>
               </g>
        </defs>

<script type="text/javascript">
var viewWidth = 1098;
var viewHeight = 458;
var sectionId = 'dynsection-20';
</script>
<script xlink:href="svgpan.js"/>
<svg id="graph" class="graph">
<g id="viewport">
<title>txUnsigned</title>
<polygon fill="white" stroke="none" points="-4,4 -4,-453.975 1094,-453.975 1094,4 -4,4"/>
<!-- Node1 -->
<g id="node1" class="node"><title>Node1</title>
<polygon fill="#bfbfbf" stroke="black" points="0,-307.475 0,-326.475 66,-326.475 66,-307.475 0,-307.475"/>
<text text-anchor="middle" x="33" y="-314.475" font-family="Helvetica,sans-Serif" font-size="10.00">txUnsigned</text>
</g>
<!-- Node2 -->
<g id="node2" class="node"><title>Node2</title>
<g id="a_node2"><a xlink:href="teensy3__morse__bsp_8cpp.html#ab306f692c5c9455a0c82782a67ff0147" target="_top" xlink:title="touchPoll">
<polygon fill="white" stroke="black" points="897,-250.475 897,-269.475 954,-269.475 954,-250.475 897,-250.475"/>
<text text-anchor="middle" x="925.5" y="-257.475" font-family="Helvetica,sans-Serif" font-size="10.00">touchPoll</text>
</a>
</g>
</g>
<!-- Node1&#45;&gt;Node2 -->
<g id="edge1" class="edge"><title>Node1&#45;&gt;Node2</title>
<path fill="none" stroke="midnightblue" d="M40.1591,-326.54C60.629,-357.036 129.798,-449.975 212.5,-449.975 212.5,-449.975 212.5,-449.975 611,-449.975 743.684,-449.975 868.176,-323.963 909.821,-277.184"/>
<polygon fill="midnightblue" stroke="midnightblue" points="912.455,-279.488 916.41,-269.659 907.189,-274.876 912.455,-279.488"/>
</g>
<!-- Node4 -->
<g id="node4" class="node"><title>Node4</title>
<g id="a_node4"><a xlink:href="libmorse_8cpp.html#acd4b292f5e412ee4f05aed9dafbc072d" target="_top" xlink:title="Convert an ASCII character into Morse code and transmit it. ">
<polygon fill="white" stroke="black" points="102,-174.475 102,-193.475 152,-193.475 152,-174.475 102,-174.475"/>
<text text-anchor="middle" x="127" y="-181.475" font-family="Helvetica,sans-Serif" font-size="10.00">txLetter</text>
</a>
</g>
</g>
<!-- Node1&#45;&gt;Node4 -->
<g id="edge3" class="edge"><title>Node1&#45;&gt;Node4</title>
<path fill="none" stroke="midnightblue" d="M40.6164,-307.41C55.8591,-285.375 93.6543,-230.736 113.451,-202.116"/>
<polygon fill="midnightblue" stroke="midnightblue" points="116.385,-204.028 119.195,-193.813 110.628,-200.046 116.385,-204.028"/>
</g>
<!-- Node3 -->
<g id="node3" class="node"><title>Node3</title>
<g id="a_node3"><a xlink:href="teensy3__morse__bsp_8cpp.html#af6899cd9b83df54106b259ab81ea5cb2" target="_top" xlink:title="touchMargin">
<polygon fill="white" stroke="black" points="1020,-250.475 1020,-269.475 1090,-269.475 1090,-250.475 1020,-250.475"/>
<text text-anchor="middle" x="1055" y="-257.475" font-family="Helvetica,sans-Serif" font-size="10.00">touchMargin</text>
</a>
</g>
</g>
<!-- Node2&#45;&gt;Node3 -->
<g id="edge2" class="edge"><title>Node2&#45;&gt;Node3</title>
<path fill="none" stroke="midnightblue" d="M954.166,-259.975C970.281,-259.975 990.984,-259.975 1009.35,-259.975"/>
<polygon fill="midnightblue" stroke="midnightblue" points="1009.56,-263.475 1019.56,-259.975 1009.56,-256.475 1009.56,-263.475"/>
</g>
<!-- Node5 -->
<g id="node5" class="node"><title>Node5</title>
<g id="a_node5"><a xlink:href="libmorse_8cpp.html#a9fdfce728595d72b78dc7c834ab99a40" target="_top" xlink:title="Transmit a literal Morse code value. ">
<polygon fill="white" stroke="black" points="188,-250.475 188,-269.475 239,-269.475 239,-250.475 188,-250.475"/>
<text text-anchor="middle" x="213.5" y="-257.475" font-family="Helvetica,sans-Serif" font-size="10.00">txLiteral</text>
</a>
</g>
</g>
<!-- Node4&#45;&gt;Node5 -->
<g id="edge4" class="edge"><title>Node4&#45;&gt;Node5</title>
<path fill="none" stroke="midnightblue" d="M138.702,-193.601C152.67,-206.164 177.327,-228.34 194.269,-243.578"/>
<polygon fill="midnightblue" stroke="midnightblue" points="192.109,-246.343 201.885,-250.428 196.79,-241.139 192.109,-246.343"/>
</g>
<!-- Node15 -->
<g id="node15" class="node"><title>Node15</title>
<g id="a_node15"><a xlink:href="libmorse_8cpp.html#ab94e088615119d1faae7df22ce50aedf" target="_top" xlink:title="Transmit a Morse code prosign indicating an error. ">
<polygon fill="white" stroke="black" points="300.5,-174.475 300.5,-193.475 346.5,-193.475 346.5,-174.475 300.5,-174.475"/>
<text text-anchor="middle" x="323.5" y="-181.475" font-family="Helvetica,sans-Serif" font-size="10.00">txError</text>
</a>
</g>
</g>
<!-- Node4&#45;&gt;Node15 -->
<g id="edge38" class="edge"><title>Node4&#45;&gt;Node15</title>
<path fill="none" stroke="midnightblue" d="M152.24,-183.975C187.053,-183.975 251.282,-183.975 290.125,-183.975"/>
<polygon fill="midnightblue" stroke="midnightblue" points="290.362,-187.475 300.361,-183.975 290.361,-180.475 290.362,-187.475"/>
</g>
<!-- Node6 -->
<g id="node6" class="node"><title>Node6</title>
<g id="a_node6"><a xlink:href="class_morse_token.html#a48cd72aeb868391449d1f51c1d0bf5cc" target="_top" xlink:title="Treat code == 0 as the error token. ">
<polygon fill="white" stroke="black" points="275,-364.475 275,-383.475 372,-383.475 372,-364.475 275,-364.475"/>
<text text-anchor="middle" x="323.5" y="-371.475" font-family="Helvetica,sans-Serif" font-size="10.00">MorseToken::valid</text>
</a>
</g>
</g>
<!-- Node5&#45;&gt;Node6 -->
<g id="edge5" class="edge"><title>Node5&#45;&gt;Node6</title>
<path fill="none" stroke="midnightblue" d="M218.288,-269.733C226.11,-288.693 245.795,-330.767 275,-354.975 276.974,-356.612 279.108,-358.121 281.339,-359.511"/>
<polygon fill="midnightblue" stroke="midnightblue" points="279.832,-362.673 290.302,-364.295 283.128,-356.498 279.832,-362.673"/>
</g>
<!-- Node7 -->
<g id="node7" class="node"><title>Node7</title>
<g id="a_node7"><a xlink:href="teensy3__morse__bsp_8cpp.html#af66e71e3fac9b6a2c6532bc8a513bfde" target="_top" xlink:title="Output a square wave on pin 10 at the given frequency for the given duration. ">
<polygon fill="white" stroke="black" points="304.5,-326.475 304.5,-345.475 342.5,-345.475 342.5,-326.475 304.5,-326.475"/>
<text text-anchor="middle" x="323.5" y="-333.475" font-family="Helvetica,sans-Serif" font-size="10.00">beep</text>
</a>
</g>
</g>
<!-- Node5&#45;&gt;Node7 -->
<g id="edge6" class="edge"><title>Node5&#45;&gt;Node7</title>
<path fill="none" stroke="midnightblue" d="M222.63,-269.615C233.491,-281.989 253.834,-303.466 275,-316.975 281.036,-320.828 287.982,-324.138 294.665,-326.866"/>
<polygon fill="midnightblue" stroke="midnightblue" points="293.541,-330.183 304.133,-330.441 296.014,-323.634 293.541,-330.183"/>
</g>
<!-- Node13 -->
<g id="node13" class="node"><title>Node13</title>
<g id="a_node13"><a xlink:href="settings_8cpp.html#a8575b9b52638114a4f32d1462cf9b7c1" target="_top" xlink:title="Get the transmission frequency (side tone). ">
<polygon fill="white" stroke="black" points="296.5,-288.475 296.5,-307.475 350.5,-307.475 350.5,-288.475 296.5,-288.475"/>
<text text-anchor="middle" x="323.5" y="-295.475" font-family="Helvetica,sans-Serif" font-size="10.00">getTxHz</text>
</a>
</g>
</g>
<!-- Node5&#45;&gt;Node13 -->
<g id="edge12" class="edge"><title>Node5&#45;&gt;Node13</title>
<path fill="none" stroke="midnightblue" d="M239.007,-268.598C252.995,-273.52 270.793,-279.782 286.359,-285.259"/>
<polygon fill="midnightblue" stroke="midnightblue" points="285.608,-288.705 296.203,-288.723 287.932,-282.102 285.608,-288.705"/>
</g>
<!-- Node14 -->
<g id="node14" class="node"><title>Node14</title>
<g id="a_node14"><a xlink:href="settings_8cpp.html#a960551e90dfdad18f3c9b1338ccba7db" target="_top" xlink:title="Get the dit duration in microseconds. ">
<polygon fill="white" stroke="black" points="574,-345.475 574,-364.475 646,-364.475 646,-345.475 574,-345.475"/>
<text text-anchor="middle" x="610" y="-352.475" font-family="Helvetica,sans-Serif" font-size="10.00">getDitMicros</text>
</a>
</g>
</g>
<!-- Node5&#45;&gt;Node14 -->
<g id="edge13" class="edge"><title>Node5&#45;&gt;Node14</title>
<path fill="none" stroke="midnightblue" d="M239.334,-256.627C292.18,-250.537 418.802,-241.495 515,-278.975 519.367,-280.677 563.423,-317.021 589.643,-338.824"/>
<polygon fill="midnightblue" stroke="midnightblue" points="587.532,-341.621 597.456,-345.33 592.011,-336.242 587.532,-341.621"/>
</g>
<!-- Node5&#45;&gt;Node15 -->
<g id="edge14" class="edge"><title>Node5&#45;&gt;Node15</title>
<path fill="none" stroke="midnightblue" d="M224.173,-250.348C235.643,-239.255 255.652,-220.9 275,-207.975 280.119,-204.556 285.79,-201.291 291.381,-198.331"/>
<polygon fill="midnightblue" stroke="midnightblue" points="293.257,-201.304 300.599,-193.666 290.096,-195.059 293.257,-201.304"/>
</g>
<!-- Node8 -->
<g id="node8" class="node"><title>Node8</title>
<g id="a_node8"><a xlink:href="teensy3__morse__bsp_8cpp.html#a6f674d5b9985ea3a7eeb0df299c2e405" target="_top" xlink:title="pollEarphonePresent">
<polygon fill="white" stroke="black" points="408,-402.475 408,-421.475 515,-421.475 515,-402.475 408,-402.475"/>
<text text-anchor="middle" x="461.5" y="-409.475" font-family="Helvetica,sans-Serif" font-size="10.00">pollEarphonePresent</text>
</a>
</g>
</g>
<!-- Node7&#45;&gt;Node8 -->
<g id="edge7" class="edge"><title>Node7&#45;&gt;Node8</title>
<path fill="none" stroke="midnightblue" d="M342.55,-341.14C351.827,-344.288 363.035,-348.889 372,-354.975 391.247,-368.043 388.538,-380.229 408,-392.975 410.969,-394.92 414.162,-396.696 417.455,-398.314"/>
<polygon fill="midnightblue" stroke="midnightblue" points="416.331,-401.643 426.895,-402.456 419.144,-395.233 416.331,-401.643"/>
</g>
<!-- Node9 -->
<g id="node9" class="node"><title>Node9</title>
<g id="a_node9"><a xlink:href="teensy3__morse__bsp_8cpp.html#a2d6b4ace33ed5e497dedd03217540c63" target="_top" xlink:title="Set the PWM frequency for the audio output pins. ">
<polygon fill="white" stroke="black" points="420,-364.475 420,-383.475 503,-383.475 503,-364.475 420,-364.475"/>
<text text-anchor="middle" x="461.5" y="-371.475" font-family="Helvetica,sans-Serif" font-size="10.00">pwmFrequency</text>
</a>
</g>
</g>
<!-- Node7&#45;&gt;Node9 -->
<g id="edge8" class="edge"><title>Node7&#45;&gt;Node9</title>
<path fill="none" stroke="midnightblue" d="M342.56,-341.021C361.377,-346.279 391.566,-354.714 416.689,-361.734"/>
<polygon fill="midnightblue" stroke="midnightblue" points="415.815,-365.124 426.388,-364.444 417.699,-358.382 415.815,-365.124"/>
</g>
<!-- Node10 -->
<g id="node10" class="node"><title>Node10</title>
<g id="a_node10"><a xlink:href="teensy3__morse__bsp_8cpp.html#a82911eac3bf13d6f36d10102a4c4d3c4" target="_top" xlink:title="Generate a tone on the audio output pins. ">
<polygon fill="white" stroke="black" points="431,-326.475 431,-345.475 492,-345.475 492,-326.475 431,-326.475"/>
<text text-anchor="middle" x="461.5" y="-333.475" font-family="Helvetica,sans-Serif" font-size="10.00">pwmWrite</text>
</a>
</g>
</g>
<!-- Node7&#45;&gt;Node10 -->
<g id="edge9" class="edge"><title>Node7&#45;&gt;Node10</title>
<path fill="none" stroke="midnightblue" d="M342.56,-335.975C362.373,-335.975 394.795,-335.975 420.635,-335.975"/>
<polygon fill="midnightblue" stroke="midnightblue" points="420.89,-339.475 430.89,-335.975 420.89,-332.475 420.89,-339.475"/>
</g>
<!-- Node12 -->
<g id="node12" class="node"><title>Node12</title>
<g id="a_node12"><a xlink:href="teensy3__morse__bsp_8cpp.html#a6c982a7d7805f1dd5426eb98c915cfdd" target="_top" xlink:title="Turn the red LED on (1) or off (0). ">
<polygon fill="white" stroke="black" points="436.5,-288.475 436.5,-307.475 486.5,-307.475 486.5,-288.475 436.5,-288.475"/>
<text text-anchor="middle" x="461.5" y="-295.475" font-family="Helvetica,sans-Serif" font-size="10.00">redLED</text>
</a>
</g>
</g>
<!-- Node7&#45;&gt;Node12 -->
<g id="edge11" class="edge"><title>Node7&#45;&gt;Node12</title>
<path fill="none" stroke="midnightblue" d="M342.56,-330.929C363.959,-324.95 400.064,-314.862 426.702,-307.419"/>
<polygon fill="midnightblue" stroke="midnightblue" points="427.708,-310.772 436.398,-304.71 425.825,-304.03 427.708,-310.772"/>
</g>
<!-- Node11 -->
<g id="node11" class="node"><title>Node11</title>
<g id="a_node11"><a xlink:href="teensy3__morse__bsp_8cpp.html#ac70998cee1bf97f00aec4a1b4e5a4f60" target="_top" xlink:title="isEarphonePresent">
<polygon fill="white" stroke="black" points="560.5,-383.475 560.5,-402.475 659.5,-402.475 659.5,-383.475 560.5,-383.475"/>
<text text-anchor="middle" x="610" y="-390.475" font-family="Helvetica,sans-Serif" font-size="10.00">isEarphonePresent</text>
</a>
</g>
</g>
<!-- Node10&#45;&gt;Node11 -->
<g id="edge10" class="edge"><title>Node10&#45;&gt;Node11</title>
<path fill="none" stroke="midnightblue" d="M491.121,-345.522C498.95,-348.353 507.376,-351.603 515,-354.975 531.546,-362.293 534.344,-366.912 551,-373.975 556.06,-376.121 561.452,-378.178 566.832,-380.093"/>
<polygon fill="midnightblue" stroke="midnightblue" points="565.835,-383.451 576.43,-383.376 568.101,-376.828 565.835,-383.451"/>
</g>
<!-- Node16 -->
<g id="node16" class="node"><title>Node16</title>
<g id="a_node16"><a xlink:href="libmorse_8cpp.html#a0ee2308940264ea9ac8e50afc1a4d285" target="_top" xlink:title="txString">
<polygon fill="white" stroke="black" points="436.5,-174.475 436.5,-193.475 486.5,-193.475 486.5,-174.475 436.5,-174.475"/>
<text text-anchor="middle" x="461.5" y="-181.475" font-family="Helvetica,sans-Serif" font-size="10.00">txString</text>
</a>
</g>
</g>
<!-- Node15&#45;&gt;Node16 -->
<g id="edge15" class="edge"><title>Node15&#45;&gt;Node16</title>
<path fill="none" stroke="midnightblue" d="M346.653,-183.975C368.124,-183.975 401.008,-183.975 425.923,-183.975"/>
<polygon fill="midnightblue" stroke="midnightblue" points="426.057,-187.475 436.057,-183.975 426.057,-180.475 426.057,-187.475"/>
</g>
<!-- Node16&#45;&gt;Node2 -->
<g id="edge16" class="edge"><title>Node16&#45;&gt;Node2</title>
<path fill="none" stroke="midnightblue" d="M470.654,-193.775C490.481,-217.473 540.364,-276.282 551,-280.975 665.115,-331.334 818.222,-294.314 887.59,-272.678"/>
<polygon fill="midnightblue" stroke="midnightblue" points="888.741,-275.985 897.203,-269.609 886.612,-269.316 888.741,-275.985"/>
</g>
<!-- Node16&#45;&gt;Node4 -->
<g id="edge19" class="edge"><title>Node16&#45;&gt;Node4</title>
<path fill="none" stroke="midnightblue" d="M436.307,-177.333C418.643,-172.84 394.034,-167.314 372,-164.975 297.366,-157.054 209.558,-169.11 162.29,-177.346"/>
<polygon fill="midnightblue" stroke="midnightblue" points="161.51,-173.93 152.284,-179.139 162.744,-180.82 161.51,-173.93"/>
</g>
<!-- Node16&#45;&gt;Node5 -->
<g id="edge18" class="edge"><title>Node16&#45;&gt;Node5</title>
<path fill="none" stroke="midnightblue" d="M436.222,-191.476C392.369,-205.024 299.819,-233.617 249.263,-249.236"/>
<polygon fill="midnightblue" stroke="midnightblue" points="247.963,-245.974 239.442,-252.27 250.029,-252.662 247.963,-245.974"/>
</g>
<!-- Node16&#45;&gt;Node14 -->
<g id="edge17" class="edge"><title>Node16&#45;&gt;Node14</title>
<path fill="none" stroke="midnightblue" d="M472.444,-193.763C483.853,-205.4 502.582,-225.794 515,-245.975 536.501,-280.916 521.87,-302.086 551,-330.975 554.965,-334.908 559.668,-338.228 564.653,-341.023"/>
<polygon fill="midnightblue" stroke="midnightblue" points="563.312,-344.263 573.834,-345.506 566.383,-337.973 563.312,-344.263"/>
</g>
<!-- Node17 -->
<g id="node17" class="node"><title>Node17</title>
<g id="a_node17"><a xlink:href="teensy3__morse__bsp_8cpp.html#a8761e874366e227690fba2964e1bc445" target="_top" xlink:title="getInternalTemperatureC">
<polygon fill="white" stroke="black" points="705.5,-250.475 705.5,-269.475 830.5,-269.475 830.5,-250.475 705.5,-250.475"/>
<text text-anchor="middle" x="768" y="-257.475" font-family="Helvetica,sans-Serif" font-size="10.00">getInternalTemperatureC</text>
</a>
</g>
</g>
<!-- Node16&#45;&gt;Node17 -->
<g id="edge20" class="edge"><title>Node16&#45;&gt;Node17</title>
<path fill="none" stroke="midnightblue" d="M469.704,-193.587C483.316,-210.846 514.727,-246.538 551,-259.975 601.24,-278.587 662.68,-276.425 707.17,-270.879"/>
<polygon fill="midnightblue" stroke="midnightblue" points="707.798,-274.326 717.245,-269.53 706.869,-267.388 707.798,-274.326"/>
</g>
<!-- Node18 -->
<g id="node18" class="node"><title>Node18</title>
<g id="a_node18"><a xlink:href="libmorse_8cpp.html#a47abdd74b66d7180c47d192bab8bdccb" target="_top" xlink:title="Transmit an unsigned integer in Morse code. ">
<polygon fill="white" stroke="black" points="735,-193.475 735,-212.475 801,-212.475 801,-193.475 735,-193.475"/>
<text text-anchor="middle" x="768" y="-200.475" font-family="Helvetica,sans-Serif" font-size="10.00">txUnsigned</text>
</a>
</g>
</g>
<!-- Node16&#45;&gt;Node18 -->
<g id="edge21" class="edge"><title>Node16&#45;&gt;Node18</title>
<path fill="none" stroke="midnightblue" d="M486.648,-185.482C538.215,-188.7 659.662,-196.278 724.485,-200.323"/>
<polygon fill="midnightblue" stroke="midnightblue" points="724.564,-203.834 734.763,-200.964 725,-196.848 724.564,-203.834"/>
</g>
<!-- Node19 -->
<g id="node19" class="node"><title>Node19</title>
<g id="a_node19"><a xlink:href="actions_8cpp.html#aed718ec1bd4cc7adb2f65d40a6784496" target="_top" xlink:title="Transmit the internal temperature in integer in Fahrenheit. ">
<polygon fill="white" stroke="black" points="551,-231.475 551,-250.475 669,-250.475 669,-231.475 551,-231.475"/>
<text text-anchor="middle" x="610" y="-238.475" font-family="Helvetica,sans-Serif" font-size="10.00">txInternalTemperatureF</text>
</a>
</g>
</g>
<!-- Node16&#45;&gt;Node19 -->
<g id="edge24" class="edge"><title>Node16&#45;&gt;Node19</title>
<path fill="none" stroke="midnightblue" d="M486.691,-193.388C510.722,-202.737 547.789,-217.16 574.821,-227.677"/>
<polygon fill="midnightblue" stroke="midnightblue" points="573.694,-230.994 584.283,-231.358 576.233,-224.471 573.694,-230.994"/>
</g>
<!-- Node20 -->
<g id="node20" class="node"><title>Node20</title>
<g id="a_node20"><a xlink:href="actions_8cpp.html#aaabb3ac0c23f35a499bc17efe829f326" target="_top" xlink:title="Transmit the 24&#45;hr time. ">
<polygon fill="white" stroke="black" points="571,-155.475 571,-174.475 649,-174.475 649,-155.475 571,-155.475"/>
<text text-anchor="middle" x="610" y="-162.475" font-family="Helvetica,sans-Serif" font-size="10.00">txTimeHHMM</text>
</a>
</g>
</g>
<!-- Node16&#45;&gt;Node20 -->
<g id="edge27" class="edge"><title>Node16&#45;&gt;Node20</title>
<path fill="none" stroke="midnightblue" d="M486.691,-175.672C506.763,-171.508 535.929,-167.318 560.746,-164.846"/>
<polygon fill="midnightblue" stroke="midnightblue" points="561.085,-168.329 570.721,-163.926 560.442,-161.359 561.085,-168.329"/>
</g>
<!-- Node21 -->
<g id="node21" class="node"><title>Node21</title>
<g id="a_node21"><a xlink:href="actions_8cpp.html#ad02149679fa3cc6a4957d1a318408ffd" target="_top" xlink:title="Transmit the uptime. ">
<polygon fill="white" stroke="black" points="582,-117.475 582,-136.475 638,-136.475 638,-117.475 582,-117.475"/>
<text text-anchor="middle" x="610" y="-124.475" font-family="Helvetica,sans-Serif" font-size="10.00">txUptime</text>
</a>
</g>
</g>
<!-- Node16&#45;&gt;Node21 -->
<g id="edge29" class="edge"><title>Node16&#45;&gt;Node21</title>
<path fill="none" stroke="midnightblue" d="M483.385,-174.383C501.185,-166.359 527.536,-154.836 551,-145.975 557.883,-143.376 565.299,-140.789 572.453,-138.399"/>
<polygon fill="midnightblue" stroke="midnightblue" points="573.559,-141.72 581.971,-135.279 571.378,-135.068 573.559,-141.72"/>
</g>
<!-- Node23 -->
<g id="node23" class="node"><title>Node23</title>
<g id="a_node23"><a xlink:href="teensy3__morse__bsp_8cpp.html#ae8dd28759e56dbd2ee9bc9ae96d1783c" target="_top" xlink:title="Return the most recent ADC measurement of the input voltage. Perform analog to digital conversion on ...">
<polygon fill="white" stroke="black" points="573,-41.4754 573,-60.4754 647,-60.4754 647,-41.4754 573,-41.4754"/>
<text text-anchor="middle" x="610" y="-48.4754" font-family="Helvetica,sans-Serif" font-size="10.00">readMillivolts</text>
</a>
</g>
</g>
<!-- Node16&#45;&gt;Node23 -->
<g id="edge32" class="edge"><title>Node16&#45;&gt;Node23</title>
<path fill="none" stroke="midnightblue" d="M468.111,-174.167C480.525,-153.25 512.305,-103.821 551,-74.9754 556.275,-71.0431 562.288,-67.6308 568.397,-64.7118"/>
<polygon fill="midnightblue" stroke="midnightblue" points="570.22,-67.7352 577.985,-60.527 567.42,-61.3196 570.22,-67.7352"/>
</g>
<!-- Node27 -->
<g id="node27" class="node"><title>Node27</title>
<g id="a_node27"><a xlink:href="libmorse_8cpp.html#ac3f000c98271c6d0a7710135e18189bc" target="_top" xlink:title="On my hardware there is cross&#45;coupling between the serial port and the touch sensors. Without the code below, long messages to the serial port trigger a touch input. ">
<polygon fill="white" stroke="black" points="735.5,-79.4754 735.5,-98.4754 800.5,-98.4754 800.5,-79.4754 735.5,-79.4754"/>
<text text-anchor="middle" x="768" y="-86.4754" font-family="Helvetica,sans-Serif" font-size="10.00">flushTouch</text>
</a>
</g>
</g>
<!-- Node16&#45;&gt;Node27 -->
<g id="edge36" class="edge"><title>Node16&#45;&gt;Node27</title>
<path fill="none" stroke="midnightblue" d="M470.043,-174.404C483.965,-157.541 515.538,-122.912 551,-107.975 607.688,-84.0982 680.01,-82.9611 724.913,-85.2626"/>
<polygon fill="midnightblue" stroke="midnightblue" points="724.971,-88.7721 735.161,-85.8724 725.387,-81.7845 724.971,-88.7721"/>
</g>
<!-- Node18&#45;&gt;Node2 -->
<g id="edge22" class="edge"><title>Node18&#45;&gt;Node2</title>
<path fill="none" stroke="midnightblue" d="M795.027,-212.516C820.704,-221.928 860.155,-236.389 888.762,-246.875"/>
<polygon fill="midnightblue" stroke="midnightblue" points="887.794,-250.248 898.388,-250.404 890.203,-243.676 887.794,-250.248"/>
</g>
<!-- Node18&#45;&gt;Node4 -->
<g id="edge23" class="edge"><title>Node18&#45;&gt;Node4</title>
<path fill="none" stroke="midnightblue" d="M752.943,-193.458C738.901,-183.261 717.637,-165.837 705,-145.975 676.478,-101.146 710.37,-65.3161 669,-31.9754 597.238,25.8582 554.665,-12.9754 462.5,-12.9754 322.5,-12.9754 322.5,-12.9754 322.5,-12.9754 230.957,-12.9754 161.998,-121.138 137.604,-165.416"/>
<polygon fill="midnightblue" stroke="midnightblue" points="134.486,-163.825 132.844,-174.292 140.655,-167.134 134.486,-163.825"/>
</g>
<!-- Node19&#45;&gt;Node17 -->
<g id="edge25" class="edge"><title>Node19&#45;&gt;Node17</title>
<path fill="none" stroke="midnightblue" d="M669.089,-248.05C677.711,-249.1 686.682,-250.193 695.54,-251.272"/>
<polygon fill="midnightblue" stroke="midnightblue" points="695.117,-254.746 705.467,-252.481 695.964,-247.798 695.117,-254.746"/>
</g>
<!-- Node19&#45;&gt;Node18 -->
<g id="edge26" class="edge"><title>Node19&#45;&gt;Node18</title>
<path fill="none" stroke="midnightblue" d="M650.365,-231.386C673.167,-225.832 701.861,-218.842 725.083,-213.186"/>
<polygon fill="midnightblue" stroke="midnightblue" points="726.108,-216.539 734.996,-210.771 724.451,-209.737 726.108,-216.539"/>
</g>
<!-- Node20&#45;&gt;Node16 -->
<g id="edge28" class="edge"><title>Node20&#45;&gt;Node16</title>
<path fill="none" stroke="midnightblue" d="M578.673,-174.5C554.816,-179.06 521.574,-183.446 496.759,-185.348"/>
<polygon fill="midnightblue" stroke="midnightblue" points="496.443,-181.861 486.691,-186.004 496.898,-188.846 496.443,-181.861"/>
</g>
<!-- Node21&#45;&gt;Node18 -->
<g id="edge31" class="edge"><title>Node21&#45;&gt;Node18</title>
<path fill="none" stroke="midnightblue" d="M638.009,-134.528C647.928,-137.637 659.139,-141.552 669,-145.975 695.82,-158.007 724.701,-175.4 744.11,-187.804"/>
<polygon fill="midnightblue" stroke="midnightblue" points="742.276,-190.786 752.573,-193.281 746.079,-184.909 742.276,-190.786"/>
</g>
<!-- Node22 -->
<g id="node22" class="node"><title>Node22</title>
<g id="a_node22"><a xlink:href="settings_8cpp.html#a7b4efa097b94f9a90c5bbafcdf93fe4f" target="_top" xlink:title="getUptime">
<polygon fill="white" stroke="black" points="737,-117.475 737,-136.475 799,-136.475 799,-117.475 737,-117.475"/>
<text text-anchor="middle" x="768" y="-124.475" font-family="Helvetica,sans-Serif" font-size="10.00">getUptime</text>
</a>
</g>
</g>
<!-- Node21&#45;&gt;Node22 -->
<g id="edge30" class="edge"><title>Node21&#45;&gt;Node22</title>
<path fill="none" stroke="midnightblue" d="M638.173,-126.975C662.633,-126.975 698.905,-126.975 726.735,-126.975"/>
<polygon fill="midnightblue" stroke="midnightblue" points="726.945,-130.475 736.945,-126.975 726.945,-123.475 726.945,-130.475"/>
</g>
<!-- Node24 -->
<g id="node24" class="node"><title>Node24</title>
<g id="a_node24"><a xlink:href="class_voltage_monitor.html#a70902b84f9864c95d5553a0644a64f4f" target="_top" xlink:title="Return the latest voltage reading. ">
<polygon fill="white" stroke="black" points="705,-41.4754 705,-60.4754 831,-60.4754 831,-41.4754 705,-41.4754"/>
<text text-anchor="middle" x="768" y="-48.4754" font-family="Helvetica,sans-Serif" font-size="10.00">VoltageMonitor::getValue</text>
</a>
</g>
</g>
<!-- Node23&#45;&gt;Node24 -->
<g id="edge33" class="edge"><title>Node23&#45;&gt;Node24</title>
<path fill="none" stroke="midnightblue" d="M647.182,-50.9754C661.344,-50.9754 678.117,-50.9754 694.56,-50.9754"/>
<polygon fill="midnightblue" stroke="midnightblue" points="694.728,-54.4754 704.728,-50.9754 694.728,-47.4754 694.728,-54.4754"/>
</g>
<!-- Node25 -->
<g id="node25" class="node"><title>Node25</title>
<g id="a_node25"><a xlink:href="actions_8cpp.html#a2b8c3769e2aa32a2da9e2f3f85ac73dd" target="_top" xlink:title="A sample ADC reading is taken each time through the main loop, and written to a ring buffer...">
<polygon fill="white" stroke="black" points="869.5,-60.4754 869.5,-79.4754 981.5,-79.4754 981.5,-60.4754 869.5,-60.4754"/>
<text text-anchor="middle" x="925.5" y="-67.4754" font-family="Helvetica,sans-Serif" font-size="10.00">getVoltagePollInterval</text>
</a>
</g>
</g>
<!-- Node24&#45;&gt;Node25 -->
<g id="edge34" class="edge"><title>Node24&#45;&gt;Node25</title>
<path fill="none" stroke="midnightblue" d="M831.352,-58.5939C840.438,-59.7041 849.816,-60.8499 858.963,-61.9676"/>
<polygon fill="midnightblue" stroke="midnightblue" points="858.813,-65.4752 869.163,-63.214 859.662,-58.5269 858.813,-65.4752"/>
</g>
<!-- Node26 -->
<g id="node26" class="node"><title>Node26</title>
<g id="a_node26"><a xlink:href="class_voltage_monitor.html#a75871331808c34b40d04059ee2af0f27" target="_top" xlink:title="Filter and scale raw ADC values to millivolts. ">
<polygon fill="white" stroke="black" points="867,-22.4754 867,-41.4754 984,-41.4754 984,-22.4754 867,-22.4754"/>
<text text-anchor="middle" x="925.5" y="-29.4754" font-family="Helvetica,sans-Serif" font-size="10.00">VoltageMonitor::update</text>
</a>
</g>
</g>
<!-- Node24&#45;&gt;Node26 -->
<g id="edge35" class="edge"><title>Node24&#45;&gt;Node26</title>
<path fill="none" stroke="midnightblue" d="M831.352,-43.3568C839.702,-42.3366 848.298,-41.2862 856.735,-40.2553"/>
<polygon fill="midnightblue" stroke="midnightblue" points="857.419,-43.6979 866.92,-39.0108 856.57,-36.7496 857.419,-43.6979"/>
</g>
<!-- Node27&#45;&gt;Node2 -->
<g id="edge37" class="edge"><title>Node27&#45;&gt;Node2</title>
<path fill="none" stroke="midnightblue" d="M800.726,-94.0404C811.142,-96.859 822.273,-101.225 831,-107.975 876.797,-143.397 905.556,-208.101 917.747,-240.461"/>
<polygon fill="midnightblue" stroke="midnightblue" points="914.546,-241.9 921.248,-250.106 921.126,-239.512 914.546,-241.9"/>
</g>
</g>
</svg>
        <g id="navigator" transform="translate(0 0)" fill="#404254">
                <rect fill="#f2f5e9" fill-opacity="0.5" stroke="#606060" stroke-width=".5" x="0" y="0" width="60" height="60"/>
                <use id="zoomplus" xlink:href="#zoomPlus" x="17" y="9" onmousedown="handleZoom(evt,'in')"/>
                <use id="zoomminus" xlink:href="#zoomMin" x="42" y="9" onmousedown="handleZoom(evt,'out')"/>
                <use id="reset" xlink:href="#resetDef" x="30" y="36" onmousedown="handleReset()"/>
                <g id="arrowUp" xlink:href="#dirArrow" transform="translate(30 24)" onmousedown="handlePan(0,-1)">
                  <use xlink:href="#rim" fill="#404040">
                        <set attributeName="fill" to="#808080" begin="arrowUp.mouseover" end="arrowUp.mouseout"/>
                  </use>
                  <path fill="none" stroke="white" stroke-width="1.5" d="M0,-3.0v7 M-2.5,-0.5L0,-3.0L2.5,-0.5"/>
                </g>
                <g id="arrowRight" xlink:href="#dirArrow" transform="rotate(90) translate(36 -43)" onmousedown="handlePan(1,0)">
                  <use xlink:href="#rim" fill="#404040">
                        <set attributeName="fill" to="#808080" begin="arrowRight.mouseover" end="arrowRight.mouseout"/>
                  </use>
                  <path fill="none" stroke="white" stroke-width="1.5" d="M0,-3.0v7 M-2.5,-0.5L0,-3.0L2.5,-0.5"/>
                </g>
                <g id="arrowDown" xlink:href="#dirArrow" transform="rotate(180) translate(-30 -48)" onmousedown="handlePan(0,1)">
                  <use xlink:href="#rim" fill="#404040">
                        <set attributeName="fill" to="#808080" begin="arrowDown.mouseover" end="arrowDown.mouseout"/>
                  </use>
                  <path fill="none" stroke="white" stroke-width="1.5" d="M0,-3.0v7 M-2.5,-0.5L0,-3.0L2.5,-0.5"/>
                </g>
                <g id="arrowLeft" xlink:href="#dirArrow" transform="rotate(270) translate(-36 17)" onmousedown="handlePan(-1,0)">
                  <use xlink:href="#rim" fill="#404040">
                        <set attributeName="fill" to="#808080" begin="arrowLeft.mouseover" end="arrowLeft.mouseout"/>
                  </use>
                  <path fill="none" stroke="white" stroke-width="1.5" d="M0,-3.0v7 M-2.5,-0.5L0,-3.0L2.5,-0.5"/>
                </g>
        </g>
        <svg viewBox="0 0 15 15" width="100%" height="30px" preserveAspectRatio="xMaxYMin meet">
         <g id="arrow_out" transform="scale(0.3 0.3)">
          <a xlink:href="libmorse_8h_a47abdd74b66d7180c47d192bab8bdccb_cgraph_org.svg" target="_base">
           <rect id="button" ry="5" rx="5" y="6" x="6" height="38" width="38"
                fill="#f2f5e9" fill-opacity="0.5" stroke="#606060" stroke-width="1.0"/>
           <path id="arrow"
             d="M 11.500037,31.436501 C 11.940474,20.09759 22.043105,11.32322 32.158766,21.979434 L 37.068811,17.246167 C 37.068811,17.246167 37.088388,32 37.088388,32 L 22.160133,31.978069 C 22.160133,31.978069 26.997745,27.140456 26.997745,27.140456 C 18.528582,18.264221 13.291696,25.230495 11.500037,31.436501 z"
             style="fill:#404040;"/>
          </a>
         </g>
        </svg>
</svg>
