<?xml version="1.0" encoding="UTF-8" standalone="no"?>
<!DOCTYPE svg PUBLIC "-//W3C//DTD SVG 1.1//EN"
 "http://www.w3.org/Graphics/SVG/1.1/DTD/svg11.dtd">
<!-- Generated by graphviz version 2.38.0 (20140413.2041)
 -->
<!-- Title: libmorse.h Pages: 1 -->
<svg width="832pt" height="196pt"
 viewBox="0.00 0.00 832.00 196.00" xmlns="http://www.w3.org/2000/svg" xmlns:xlink="http://www.w3.org/1999/xlink">
<g id="graph0" class="graph" transform="scale(1 1) rotate(0) translate(4 192)">
<title>libmorse.h</title>
<polygon fill="white" stroke="none" points="-4,4 -4,-192 828,-192 828,4 -4,4"/>
<!-- Node1 -->
<g id="node1" class="node"><title>Node1</title>
<polygon fill="#bfbfbf" stroke="black" points="649,-168.5 649,-187.5 711,-187.5 711,-168.5 649,-168.5"/>
<text text-anchor="middle" x="680" y="-175.5" font-family="Helvetica,sans-Serif" font-size="10.00">libmorse.h</text>
</g>
<!-- Node2 -->
<g id="node2" class="node"><title>Node2</title>
<g id="a_node2"><a xlink:href="actions_8h.html" target="_top" xlink:title="Application&#45;specific actions. ">
<polygon fill="white" stroke="black" points="372,-112.5 372,-131.5 428,-131.5 428,-112.5 372,-112.5"/>
<text text-anchor="middle" x="400" y="-119.5" font-family="Helvetica,sans-Serif" font-size="10.00">actions.h</text>
</a>
</g>
</g>
<!-- Node1&#45;&gt;Node2 -->
<g id="edge1" class="edge"><title>Node1&#45;&gt;Node2</title>
<path fill="none" stroke="midnightblue" d="M639.111,-169.114C581.523,-158.008 478.009,-138.044 428.237,-128.446"/>
<polygon fill="midnightblue" stroke="midnightblue" points="638.483,-172.558 648.965,-171.015 639.809,-165.684 638.483,-172.558"/>
</g>
<!-- Node5 -->
<g id="node5" class="node"><title>Node5</title>
<g id="a_node5"><a xlink:href="libmorse_8cpp.html" target="_top" xlink:title="Implementation of Morse code operations. ">
<polygon fill="white" stroke="black" points="0,-56.5 0,-75.5 72,-75.5 72,-56.5 0,-56.5"/>
<text text-anchor="middle" x="36" y="-63.5" font-family="Helvetica,sans-Serif" font-size="10.00">libmorse.cpp</text>
</a>
</g>
</g>
<!-- Node1&#45;&gt;Node5 -->
<g id="edge11" class="edge"><title>Node1&#45;&gt;Node5</title>
<path fill="none" stroke="midnightblue" d="M638.936,-171.904C578.393,-164.226 461.683,-148.79 363,-132 237.03,-110.568 206.316,-100.974 81,-76 78.1871,-75.4394 75.2755,-74.8585 72.3484,-74.2741"/>
<polygon fill="midnightblue" stroke="midnightblue" points="638.505,-175.378 648.865,-173.158 639.382,-168.433 638.505,-175.378"/>
</g>
<!-- Node11 -->
<g id="node11" class="node"><title>Node11</title>
<g id="a_node11"><a xlink:href="teensy3__morse__bsp_8cpp.html" target="_top" xlink:title="Implementation of Teensy 3.0 board support package. ">
<polygon fill="white" stroke="black" points="599.5,-0.5 599.5,-19.5 722.5,-19.5 722.5,-0.5 599.5,-0.5"/>
<text text-anchor="middle" x="661" y="-7.5" font-family="Helvetica,sans-Serif" font-size="10.00">teensy3_morse_bsp.cpp</text>
</a>
</g>
</g>
<!-- Node1&#45;&gt;Node11 -->
<g id="edge15" class="edge"><title>Node1&#45;&gt;Node11</title>
<path fill="none" stroke="midnightblue" d="M693.573,-160.241C699.346,-152.181 705.535,-142.091 709,-132 719.993,-99.984 728.217,-86.7207 714,-56 706.497,-39.7873 689.955,-27.2803 677.334,-19.613"/>
<polygon fill="midnightblue" stroke="midnightblue" points="690.66,-158.291 687.399,-168.371 696.234,-162.524 690.66,-158.291"/>
</g>
<!-- Node12 -->
<g id="node12" class="node"><title>Node12</title>
<g id="a_node12"><a xlink:href="pda_8h.html" target="_top" xlink:title="Personal Digital Assistant functions. ">
<polygon fill="white" stroke="black" points="659.5,-112.5 659.5,-131.5 700.5,-131.5 700.5,-112.5 659.5,-112.5"/>
<text text-anchor="middle" x="680" y="-119.5" font-family="Helvetica,sans-Serif" font-size="10.00">pda.h</text>
</a>
</g>
</g>
<!-- Node1&#45;&gt;Node12 -->
<g id="edge12" class="edge"><title>Node1&#45;&gt;Node12</title>
<path fill="none" stroke="midnightblue" d="M680,-157.805C680,-148.91 680,-138.78 680,-131.751"/>
<polygon fill="midnightblue" stroke="midnightblue" points="676.5,-158.083 680,-168.083 683.5,-158.083 676.5,-158.083"/>
</g>
<!-- Node13 -->
<g id="node13" class="node"><title>Node13</title>
<g id="a_node13"><a xlink:href="sound_8cpp.html" target="_top" xlink:title="Implementation of PWM sound effects. ">
<polygon fill="white" stroke="black" points="762,-112.5 762,-131.5 824,-131.5 824,-112.5 762,-112.5"/>
<text text-anchor="middle" x="793" y="-119.5" font-family="Helvetica,sans-Serif" font-size="10.00">sound.cpp</text>
</a>
</g>
</g>
<!-- Node1&#45;&gt;Node13 -->
<g id="edge14" class="edge"><title>Node1&#45;&gt;Node13</title>
<path fill="none" stroke="midnightblue" d="M707.003,-164.096C728.114,-154.007 756.862,-140.27 775.179,-131.516"/>
<polygon fill="midnightblue" stroke="midnightblue" points="705.419,-160.974 697.905,-168.444 708.437,-167.29 705.419,-160.974"/>
</g>
<!-- Node3 -->
<g id="node3" class="node"><title>Node3</title>
<g id="a_node3"><a xlink:href="actions_8cpp.html" target="_top" xlink:title="Implementation of application&#45;specific actions. ">
<polygon fill="white" stroke="black" points="90.5,-56.5 90.5,-75.5 157.5,-75.5 157.5,-56.5 90.5,-56.5"/>
<text text-anchor="middle" x="124" y="-63.5" font-family="Helvetica,sans-Serif" font-size="10.00">actions.cpp</text>
</a>
</g>
</g>
<!-- Node2&#45;&gt;Node3 -->
<g id="edge2" class="edge"><title>Node2&#45;&gt;Node3</title>
<path fill="none" stroke="midnightblue" d="M362.136,-113.875C316.006,-105.15 235.716,-89.826 167,-76 164.009,-75.3982 160.903,-74.7648 157.791,-74.1242"/>
<polygon fill="midnightblue" stroke="midnightblue" points="361.521,-117.32 371.997,-115.737 362.821,-110.442 361.521,-117.32"/>
</g>
<!-- Node4 -->
<g id="node4" class="node"><title>Node4</title>
<g id="a_node4"><a xlink:href="didah_8ino.html" target="_top" xlink:title="Top&#45;level entry points for the Morse code PDA/Application. ">
<polygon fill="white" stroke="black" points="176,-56.5 176,-75.5 232,-75.5 232,-56.5 176,-56.5"/>
<text text-anchor="middle" x="204" y="-63.5" font-family="Helvetica,sans-Serif" font-size="10.00">didah.ino</text>
</a>
</g>
</g>
<!-- Node2&#45;&gt;Node4 -->
<g id="edge3" class="edge"><title>Node2&#45;&gt;Node4</title>
<path fill="none" stroke="midnightblue" d="M362.212,-110.589C324.119,-100.094 266.209,-84.1392 232.03,-74.7225"/>
<polygon fill="midnightblue" stroke="midnightblue" points="361.348,-113.981 371.918,-113.263 363.207,-107.233 361.348,-113.981"/>
</g>
<!-- Node2&#45;&gt;Node5 -->
<g id="edge4" class="edge"><title>Node2&#45;&gt;Node5</title>
<path fill="none" stroke="midnightblue" d="M361.601,-116.305C301.568,-108.802 181.905,-93.1931 81,-76 78.1726,-75.5182 75.2504,-74.994 72.3162,-74.4487"/>
<polygon fill="midnightblue" stroke="midnightblue" points="361.397,-119.806 371.752,-117.567 362.261,-112.86 361.397,-119.806"/>
</g>
<!-- Node6 -->
<g id="node6" class="node"><title>Node6</title>
<g id="a_node6"><a xlink:href="morse__digit_8cpp.html" target="_top" xlink:title="Implementation of decimal digit to Morse code conversion. ">
<polygon fill="white" stroke="black" points="250,-56.5 250,-75.5 336,-75.5 336,-56.5 250,-56.5"/>
<text text-anchor="middle" x="293" y="-63.5" font-family="Helvetica,sans-Serif" font-size="10.00">morse_digit.cpp</text>
</a>
</g>
</g>
<!-- Node2&#45;&gt;Node6 -->
<g id="edge5" class="edge"><title>Node2&#45;&gt;Node6</title>
<path fill="none" stroke="midnightblue" d="M373.698,-107.726C353.885,-97.7271 327.293,-84.3065 310.149,-75.6545"/>
<polygon fill="midnightblue" stroke="midnightblue" points="372.304,-110.943 382.809,-112.324 375.458,-104.694 372.304,-110.943"/>
</g>
<!-- Node7 -->
<g id="node7" class="node"><title>Node7</title>
<g id="a_node7"><a xlink:href="morse__token_8cpp.html" target="_top" xlink:title="Implementation of Morse code operations. ">
<polygon fill="white" stroke="black" points="354,-56.5 354,-75.5 446,-75.5 446,-56.5 354,-56.5"/>
<text text-anchor="middle" x="400" y="-63.5" font-family="Helvetica,sans-Serif" font-size="10.00">morse_token.cpp</text>
</a>
</g>
</g>
<!-- Node2&#45;&gt;Node7 -->
<g id="edge6" class="edge"><title>Node2&#45;&gt;Node7</title>
<path fill="none" stroke="midnightblue" d="M400,-101.805C400,-92.9102 400,-82.7798 400,-75.7511"/>
<polygon fill="midnightblue" stroke="midnightblue" points="396.5,-102.083 400,-112.083 403.5,-102.083 396.5,-102.083"/>
</g>
<!-- Node8 -->
<g id="node8" class="node"><title>Node8</title>
<g id="a_node8"><a xlink:href="pda_8cpp.html" target="_top" xlink:title="Implementation of Personal Digital Assistant functions. ">
<polygon fill="white" stroke="black" points="654.5,-56.5 654.5,-75.5 705.5,-75.5 705.5,-56.5 654.5,-56.5"/>
<text text-anchor="middle" x="680" y="-63.5" font-family="Helvetica,sans-Serif" font-size="10.00">pda.cpp</text>
</a>
</g>
</g>
<!-- Node2&#45;&gt;Node8 -->
<g id="edge7" class="edge"><title>Node2&#45;&gt;Node8</title>
<path fill="none" stroke="midnightblue" d="M438.062,-114.859C486.378,-106.869 572.206,-92.0237 645,-76 648.064,-75.3256 651.266,-74.5713 654.435,-73.7941"/>
<polygon fill="midnightblue" stroke="midnightblue" points="437.352,-111.429 428.052,-116.505 438.488,-118.336 437.352,-111.429"/>
</g>
<!-- Node9 -->
<g id="node9" class="node"><title>Node9</title>
<g id="a_node9"><a xlink:href="stack_8cpp.html" target="_top" xlink:title="Implementation of Stack&#45;related convenience functions. ">
<polygon fill="white" stroke="black" points="464.5,-56.5 464.5,-75.5 523.5,-75.5 523.5,-56.5 464.5,-56.5"/>
<text text-anchor="middle" x="494" y="-63.5" font-family="Helvetica,sans-Serif" font-size="10.00">stack.cpp</text>
</a>
</g>
</g>
<!-- Node2&#45;&gt;Node9 -->
<g id="edge8" class="edge"><title>Node2&#45;&gt;Node9</title>
<path fill="none" stroke="midnightblue" d="M424.062,-107.177C441.359,-97.2407 464.148,-84.1492 478.935,-75.6545"/>
<polygon fill="midnightblue" stroke="midnightblue" points="422.03,-104.308 415.103,-112.324 425.517,-110.378 422.03,-104.308"/>
</g>
<!-- Node10 -->
<g id="node10" class="node"><title>Node10</title>
<g id="a_node10"><a xlink:href="voltage__monitor_8h.html" target="_top" xlink:title="Trivial co&#45;routine to gather and filter ADC samples. ">
<polygon fill="white" stroke="black" points="542,-56.5 542,-75.5 636,-75.5 636,-56.5 542,-56.5"/>
<text text-anchor="middle" x="589" y="-63.5" font-family="Helvetica,sans-Serif" font-size="10.00">voltage_monitor.h</text>
</a>
</g>
</g>
<!-- Node2&#45;&gt;Node10 -->
<g id="edge9" class="edge"><title>Node2&#45;&gt;Node10</title>
<path fill="none" stroke="midnightblue" d="M438.318,-110.052C473.933,-99.8762 526.263,-84.925 558.947,-75.5865"/>
<polygon fill="midnightblue" stroke="midnightblue" points="436.949,-106.803 428.295,-112.916 438.872,-113.534 436.949,-106.803"/>
</g>
<!-- Node10&#45;&gt;Node11 -->
<g id="edge10" class="edge"><title>Node10&#45;&gt;Node11</title>
<path fill="none" stroke="midnightblue" d="M608.866,-50.1008C621.823,-40.3824 638.297,-28.0269 649.221,-19.8339"/>
<polygon fill="midnightblue" stroke="midnightblue" points="606.468,-47.5239 600.568,-56.324 610.668,-53.1239 606.468,-47.5239"/>
</g>
<!-- Node12&#45;&gt;Node8 -->
<g id="edge13" class="edge"><title>Node12&#45;&gt;Node8</title>
<path fill="none" stroke="midnightblue" d="M680,-101.805C680,-92.9102 680,-82.7798 680,-75.7511"/>
<polygon fill="midnightblue" stroke="midnightblue" points="676.5,-102.083 680,-112.083 683.5,-102.083 676.5,-102.083"/>
</g>
</g>
</svg>
