<?xml version="1.0" encoding="UTF-8" standalone="no"?>
<!DOCTYPE svg PUBLIC "-//W3C//DTD SVG 1.1//EN"
 "http://www.w3.org/Graphics/SVG/1.1/DTD/svg11.dtd">
<!-- Generated by graphviz version 2.38.0 (20140413.2041)
 -->
<!-- Title: mac.h Pages: 1 -->
<svg width="148pt" height="84pt"
 viewBox="0.00 0.00 147.50 84.00" xmlns="http://www.w3.org/2000/svg" xmlns:xlink="http://www.w3.org/1999/xlink">
<g id="graph0" class="graph" transform="scale(1 1) rotate(0) translate(4 80)">
<title>mac.h</title>
<polygon fill="white" stroke="none" points="-4,4 -4,-80 143.5,-80 143.5,4 -4,4"/>
<!-- Node1 -->
<g id="node1" class="node"><title>Node1</title>
<polygon fill="#bfbfbf" stroke="black" points="50.5,-56.5 50.5,-75.5 94.5,-75.5 94.5,-56.5 50.5,-56.5"/>
<text text-anchor="middle" x="72.5" y="-63.5" font-family="Helvetica,sans-Serif" font-size="10.00">mac.h</text>
</g>
<!-- Node2 -->
<g id="node2" class="node"><title>Node2</title>
<g id="a_node2"><a xlink:href="actions_8cpp.html" target="_top" xlink:title="Implementation of application&#45;specific actions. ">
<polygon fill="white" stroke="black" points="0,-0.5 0,-19.5 67,-19.5 67,-0.5 0,-0.5"/>
<text text-anchor="middle" x="33.5" y="-7.5" font-family="Helvetica,sans-Serif" font-size="10.00">actions.cpp</text>
</a>
</g>
</g>
<!-- Node1&#45;&gt;Node2 -->
<g id="edge1" class="edge"><title>Node1&#45;&gt;Node2</title>
<path fill="none" stroke="midnightblue" d="M60.1178,-47.8554C53.3646,-38.5048 45.2914,-27.3265 39.8202,-19.7511"/>
<polygon fill="midnightblue" stroke="midnightblue" points="57.3676,-50.0254 66.0599,-56.083 63.0424,-45.927 57.3676,-50.0254"/>
</g>
<!-- Node3 -->
<g id="node3" class="node"><title>Node3</title>
<g id="a_node3"><a xlink:href="mac_8cpp.html" target="_top" xlink:title="Read the mac address. ">
<polygon fill="white" stroke="black" points="85.5,-0.5 85.5,-19.5 139.5,-19.5 139.5,-0.5 85.5,-0.5"/>
<text text-anchor="middle" x="112.5" y="-7.5" font-family="Helvetica,sans-Serif" font-size="10.00">mac.cpp</text>
</a>
</g>
</g>
<!-- Node1&#45;&gt;Node3 -->
<g id="edge2" class="edge"><title>Node1&#45;&gt;Node3</title>
<path fill="none" stroke="midnightblue" d="M85.1997,-47.8554C92.126,-38.5048 100.406,-27.3265 106.018,-19.7511"/>
<polygon fill="midnightblue" stroke="midnightblue" points="82.245,-45.9641 79.1052,-56.083 87.87,-50.1307 82.245,-45.9641"/>
</g>
</g>
</svg>
