<?xml version="1.0" encoding="UTF-8" standalone="no"?>
<!DOCTYPE svg PUBLIC "-//W3C//DTD SVG 1.1//EN"
 "http://www.w3.org/Graphics/SVG/1.1/DTD/svg11.dtd">
<!-- Generated by graphviz version 2.38.0 (20140413.2041)
 -->
<!-- Title: m2i Pages: 1 -->
<!--zoomable 550 -->
<svg id="main" version="1.1" xmlns="http://www.w3.org/2000/svg" xmlns:xlink="http://www.w3.org/1999/xlink" xml:space="preserve" onload="init(evt)">
<style type="text/css"><![CDATA[
.edge:hover path { stroke: red; }
.edge:hover polygon { stroke: red; fill: red; }
]]></style>
<script type="text/javascript"><![CDATA[
var edges = document.getElementsByTagName('g');
if (edges && edges.length) {
  for (var i=0;i<edges.length;i++) {
    if (edges[i].id.substr(0,4)=='edge') {
      edges[i].setAttribute('class','edge');
    }
  }
}
]]></script>
        <defs>
                <circle id="rim" cx="0" cy="0" r="7"/>
                <circle id="rim2" cx="0" cy="0" r="3.5"/>
                <g id="zoomPlus">
                        <use xlink:href="#rim" fill="#404040">
                                <set attributeName="fill" to="#808080" begin="zoomplus.mouseover" end="zoomplus.mouseout"/>
                        </use>
                        <path d="M-4,0h8M0,-4v8" fill="none" stroke="white" stroke-width="1.5" pointer-events="none"/>
                </g>
                <g id="zoomMin">
                        <use xlink:href="#rim" fill="#404040">
                                <set attributeName="fill" to="#808080" begin="zoomminus.mouseover" end="zoomminus.mouseout"/>
                        </use>
                        <path d="M-4,0h8" fill="none" stroke="white" stroke-width="1.5" pointer-events="none"/>
                </g>
                <g id="dirArrow">
                        <path fill="none" stroke="white" stroke-width="1.5" d="M0,-3.0v7 M-2.5,-0.5L0,-3.0L2.5,-0.5"/>
                </g>
               <g id="resetDef">
                       <use xlink:href="#rim2" fill="#404040">
                               <set attributeName="fill" to="#808080" begin="reset.mouseover" end="reset.mouseout"/>
                       </use>
               </g>
        </defs>

<script type="text/javascript">
var viewWidth = 1254;
var viewHeight = 550;
var sectionId = 'dynsection-4';
</script>
<script xlink:href="svgpan.js"/>
<svg id="graph" class="graph">
<g id="viewport">
<title>m2i</title>
<polygon fill="white" stroke="none" points="-4,4 -4,-546 1250,-546 1250,4 -4,4"/>
<!-- Node1 -->
<g id="node1" class="node"><title>Node1</title>
<polygon fill="#bfbfbf" stroke="black" points="0,-275.5 0,-294.5 32,-294.5 32,-275.5 0,-275.5"/>
<text text-anchor="middle" x="16" y="-282.5" font-family="Helvetica,sans-Serif" font-size="10.00">m2i</text>
</g>
<!-- Node2 -->
<g id="node2" class="node"><title>Node2</title>
<g id="a_node2"><a xlink:href="class_morse_token.html#a8c36a957ebc90172eae960757c72d3a4" target="_top" xlink:title="Convert to a single ASCII character. ">
<polygon fill="white" stroke="black" points="68,-389.5 68,-408.5 174,-408.5 174,-389.5 68,-389.5"/>
<text text-anchor="middle" x="121" y="-396.5" font-family="Helvetica,sans-Serif" font-size="10.00">MorseToken::toChar</text>
</a>
</g>
</g>
<!-- Node1&#45;&gt;Node2 -->
<g id="edge1" class="edge"><title>Node1&#45;&gt;Node2</title>
<path fill="none" stroke="midnightblue" d="M25.7817,-294.72C43.265,-314.07 82.6236,-357.632 104.535,-381.884"/>
<polygon fill="midnightblue" stroke="midnightblue" points="101.939,-384.231 111.241,-389.305 107.133,-379.539 101.939,-384.231"/>
</g>
<!-- Node6 -->
<g id="node6" class="node"><title>Node6</title>
<g id="a_node6"><a xlink:href="libmorse_8cpp.html#ab94e088615119d1faae7df22ce50aedf" target="_top" xlink:title="Transmit a Morse code prosign indicating an error. ">
<polygon fill="white" stroke="black" points="98,-161.5 98,-180.5 144,-180.5 144,-161.5 98,-161.5"/>
<text text-anchor="middle" x="121" y="-168.5" font-family="Helvetica,sans-Serif" font-size="10.00">txError</text>
</a>
</g>
</g>
<!-- Node1&#45;&gt;Node6 -->
<g id="edge5" class="edge"><title>Node1&#45;&gt;Node6</title>
<path fill="none" stroke="midnightblue" d="M25.7817,-275.28C43.265,-255.93 82.6236,-212.368 104.535,-188.116"/>
<polygon fill="midnightblue" stroke="midnightblue" points="107.133,-190.461 111.241,-180.695 101.939,-185.769 107.133,-190.461"/>
</g>
<!-- Node3 -->
<g id="node3" class="node"><title>Node3</title>
<g id="a_node3"><a xlink:href="morse__token_8h.html#a98f44690e97cbd7ea9445ca0a560a564" target="_top" xlink:title="Convert a Morse code into ASCII. ">
<polygon fill="white" stroke="black" points="217.5,-484.5 217.5,-503.5 252.5,-503.5 252.5,-484.5 217.5,-484.5"/>
<text text-anchor="middle" x="235" y="-491.5" font-family="Helvetica,sans-Serif" font-size="10.00">m2a</text>
</a>
</g>
</g>
<!-- Node2&#45;&gt;Node3 -->
<g id="edge2" class="edge"><title>Node2&#45;&gt;Node3</title>
<path fill="none" stroke="midnightblue" d="M133.564,-408.809C152.778,-425.106 191.47,-457.926 214.821,-477.732"/>
<polygon fill="midnightblue" stroke="midnightblue" points="212.775,-480.587 222.666,-484.386 217.303,-475.248 212.775,-480.587"/>
</g>
<!-- Node4 -->
<g id="node4" class="node"><title>Node4</title>
<g id="a_node4"><a xlink:href="class_morse_token.html#a48cd72aeb868391449d1f51c1d0bf5cc" target="_top" xlink:title="Treat code == 0 as the error token. ">
<polygon fill="white" stroke="black" points="871,-313.5 871,-332.5 968,-332.5 968,-313.5 871,-313.5"/>
<text text-anchor="middle" x="919.5" y="-320.5" font-family="Helvetica,sans-Serif" font-size="10.00">MorseToken::valid</text>
</a>
</g>
</g>
<!-- Node3&#45;&gt;Node4 -->
<g id="edge3" class="edge"><title>Node3&#45;&gt;Node4</title>
<path fill="none" stroke="midnightblue" d="M252.802,-494C295.877,-494 413.771,-494 512,-494 512,-494 512,-494 671.5,-494 778.359,-494 872.384,-384.469 905.671,-340.73"/>
<polygon fill="midnightblue" stroke="midnightblue" points="908.499,-342.793 911.67,-332.684 902.887,-338.608 908.499,-342.793"/>
</g>
<!-- Node5 -->
<g id="node5" class="node"><title>Node5</title>
<g id="a_node5"><a xlink:href="class_morse_token.html#adc74054417a8636c1d34d43c34628731" target="_top" xlink:title="Treat code == 1 as a space. ">
<polygon fill="white" stroke="black" points="303.5,-522.5 303.5,-541.5 406.5,-541.5 406.5,-522.5 303.5,-522.5"/>
<text text-anchor="middle" x="355" y="-529.5" font-family="Helvetica,sans-Serif" font-size="10.00">MorseToken::pause</text>
</a>
</g>
</g>
<!-- Node3&#45;&gt;Node5 -->
<g id="edge4" class="edge"><title>Node3&#45;&gt;Node5</title>
<path fill="none" stroke="midnightblue" d="M252.656,-499.364C268.67,-504.521 293.481,-512.511 314.545,-519.294"/>
<polygon fill="midnightblue" stroke="midnightblue" points="313.63,-522.676 324.221,-522.41 315.776,-516.013 313.63,-522.676"/>
</g>
<!-- Node7 -->
<g id="node7" class="node"><title>Node7</title>
<g id="a_node7"><a xlink:href="libmorse_8cpp.html#a0ee2308940264ea9ac8e50afc1a4d285" target="_top" xlink:title="txString">
<polygon fill="white" stroke="black" points="210,-256.5 210,-275.5 260,-275.5 260,-256.5 210,-256.5"/>
<text text-anchor="middle" x="235" y="-263.5" font-family="Helvetica,sans-Serif" font-size="10.00">txString</text>
</a>
</g>
</g>
<!-- Node6&#45;&gt;Node7 -->
<g id="edge6" class="edge"><title>Node6&#45;&gt;Node7</title>
<path fill="none" stroke="midnightblue" d="M133.564,-180.809C152.778,-197.106 191.47,-229.926 214.821,-249.732"/>
<polygon fill="midnightblue" stroke="midnightblue" points="212.775,-252.587 222.666,-256.386 217.303,-247.248 212.775,-252.587"/>
</g>
<!-- Node8 -->
<g id="node8" class="node"><title>Node8</title>
<g id="a_node8"><a xlink:href="teensy3__morse__bsp_8cpp.html#ab306f692c5c9455a0c82782a67ff0147" target="_top" xlink:title="touchPoll">
<polygon fill="white" stroke="black" points="642,-332.5 642,-351.5 699,-351.5 699,-332.5 642,-332.5"/>
<text text-anchor="middle" x="670.5" y="-339.5" font-family="Helvetica,sans-Serif" font-size="10.00">touchPoll</text>
</a>
</g>
</g>
<!-- Node7&#45;&gt;Node8 -->
<g id="edge7" class="edge"><title>Node7&#45;&gt;Node8</title>
<path fill="none" stroke="midnightblue" d="M248.538,-275.758C260.153,-284.233 278.263,-296.052 296,-302 413.675,-341.461 562.813,-344.357 631.595,-343.245"/>
<polygon fill="midnightblue" stroke="midnightblue" points="632,-346.737 641.927,-343.037 631.859,-339.739 632,-346.737"/>
</g>
<!-- Node10 -->
<g id="node10" class="node"><title>Node10</title>
<g id="a_node10"><a xlink:href="settings_8cpp.html#a960551e90dfdad18f3c9b1338ccba7db" target="_top" xlink:title="Get the dit duration in microseconds. ">
<polygon fill="white" stroke="black" points="883.5,-47.5 883.5,-66.5 955.5,-66.5 955.5,-47.5 883.5,-47.5"/>
<text text-anchor="middle" x="919.5" y="-54.5" font-family="Helvetica,sans-Serif" font-size="10.00">getDitMicros</text>
</a>
</g>
</g>
<!-- Node7&#45;&gt;Node10 -->
<g id="edge9" class="edge"><title>Node7&#45;&gt;Node10</title>
<path fill="none" stroke="midnightblue" d="M235.819,-256.275C235.804,-224.778 240.324,-124.786 296,-76 369.312,-11.7614 414.526,-38 512,-38 512,-38 512,-38 671.5,-38 742.169,-38 823.876,-45.8274 873.339,-51.4342"/>
<polygon fill="midnightblue" stroke="midnightblue" points="873.054,-54.9244 883.389,-52.5933 873.856,-47.9705 873.054,-54.9244"/>
</g>
<!-- Node11 -->
<g id="node11" class="node"><title>Node11</title>
<g id="a_node11"><a xlink:href="libmorse_8cpp.html#a9fdfce728595d72b78dc7c834ab99a40" target="_top" xlink:title="Transmit a literal Morse code value. ">
<polygon fill="white" stroke="black" points="774.5,-104.5 774.5,-123.5 825.5,-123.5 825.5,-104.5 774.5,-104.5"/>
<text text-anchor="middle" x="800" y="-111.5" font-family="Helvetica,sans-Serif" font-size="10.00">txLiteral</text>
</a>
</g>
</g>
<!-- Node7&#45;&gt;Node11 -->
<g id="edge10" class="edge"><title>Node7&#45;&gt;Node11</title>
<path fill="none" stroke="midnightblue" d="M236.857,-256.17C239.718,-230.088 251.455,-159.078 296,-129 444.349,-28.8306 677.434,-79.3926 764.594,-103.576"/>
<polygon fill="midnightblue" stroke="midnightblue" points="763.671,-106.952 774.247,-106.313 765.581,-100.218 763.671,-106.952"/>
</g>
<!-- Node19 -->
<g id="node19" class="node"><title>Node19</title>
<g id="a_node19"><a xlink:href="libmorse_8cpp.html#acd4b292f5e412ee4f05aed9dafbc072d" target="_top" xlink:title="Convert an ASCII character into Morse code and transmit it. ">
<polygon fill="white" stroke="black" points="645.5,-142.5 645.5,-161.5 695.5,-161.5 695.5,-142.5 645.5,-142.5"/>
<text text-anchor="middle" x="670.5" y="-149.5" font-family="Helvetica,sans-Serif" font-size="10.00">txLetter</text>
</a>
</g>
</g>
<!-- Node7&#45;&gt;Node19 -->
<g id="edge21" class="edge"><title>Node7&#45;&gt;Node19</title>
<path fill="none" stroke="midnightblue" d="M238.806,-256.279C245.178,-236.199 262.827,-190.399 296,-171 405.554,-106.935 565.558,-129.625 635.102,-143.938"/>
<polygon fill="midnightblue" stroke="midnightblue" points="634.568,-147.403 645.077,-146.063 636.026,-140.557 634.568,-147.403"/>
</g>
<!-- Node20 -->
<g id="node20" class="node"><title>Node20</title>
<g id="a_node20"><a xlink:href="teensy3__morse__bsp_8cpp.html#a8761e874366e227690fba2964e1bc445" target="_top" xlink:title="getInternalTemperatureC">
<polygon fill="white" stroke="black" points="450.5,-275.5 450.5,-294.5 575.5,-294.5 575.5,-275.5 450.5,-275.5"/>
<text text-anchor="middle" x="513" y="-282.5" font-family="Helvetica,sans-Serif" font-size="10.00">getInternalTemperatureC</text>
</a>
</g>
</g>
<!-- Node7&#45;&gt;Node20 -->
<g id="edge24" class="edge"><title>Node7&#45;&gt;Node20</title>
<path fill="none" stroke="midnightblue" d="M260.116,-275.498C270.91,-279.26 283.906,-283.131 296,-285 343.59,-292.355 397.785,-292.331 439.984,-290.481"/>
<polygon fill="midnightblue" stroke="midnightblue" points="440.348,-293.967 450.168,-289.989 440.01,-286.976 440.348,-293.967"/>
</g>
<!-- Node21 -->
<g id="node21" class="node"><title>Node21</title>
<g id="a_node21"><a xlink:href="libmorse_8cpp.html#a47abdd74b66d7180c47d192bab8bdccb" target="_top" xlink:title="Transmit an unsigned integer in Morse code. ">
<polygon fill="white" stroke="black" points="480,-218.5 480,-237.5 546,-237.5 546,-218.5 480,-218.5"/>
<text text-anchor="middle" x="513" y="-225.5" font-family="Helvetica,sans-Serif" font-size="10.00">txUnsigned</text>
</a>
</g>
</g>
<!-- Node7&#45;&gt;Node21 -->
<g id="edge25" class="edge"><title>Node7&#45;&gt;Node21</title>
<path fill="none" stroke="midnightblue" d="M260.205,-257.004C271.015,-253.334 284,-249.398 296,-247 355.636,-235.085 426.022,-230.641 469.842,-228.985"/>
<polygon fill="midnightblue" stroke="midnightblue" points="469.976,-232.482 479.849,-228.638 469.734,-225.486 469.976,-232.482"/>
</g>
<!-- Node22 -->
<g id="node22" class="node"><title>Node22</title>
<g id="a_node22"><a xlink:href="actions_8cpp.html#aed718ec1bd4cc7adb2f65d40a6784496" target="_top" xlink:title="Transmit the internal temperature in integer in Fahrenheit. ">
<polygon fill="white" stroke="black" points="296,-256.5 296,-275.5 414,-275.5 414,-256.5 296,-256.5"/>
<text text-anchor="middle" x="355" y="-263.5" font-family="Helvetica,sans-Serif" font-size="10.00">txInternalTemperatureF</text>
</a>
</g>
</g>
<!-- Node7&#45;&gt;Node22 -->
<g id="edge28" class="edge"><title>Node7&#45;&gt;Node22</title>
<path fill="none" stroke="midnightblue" d="M260.164,-266C267.708,-266 276.437,-266 285.471,-266"/>
<polygon fill="midnightblue" stroke="midnightblue" points="285.755,-269.5 295.755,-266 285.755,-262.5 285.755,-269.5"/>
</g>
<!-- Node23 -->
<g id="node23" class="node"><title>Node23</title>
<g id="a_node23"><a xlink:href="actions_8cpp.html#aaabb3ac0c23f35a499bc17efe829f326" target="_top" xlink:title="Transmit the 24&#45;hr time. ">
<polygon fill="white" stroke="black" points="316,-370.5 316,-389.5 394,-389.5 394,-370.5 316,-370.5"/>
<text text-anchor="middle" x="355" y="-377.5" font-family="Helvetica,sans-Serif" font-size="10.00">txTimeHHMM</text>
</a>
</g>
</g>
<!-- Node7&#45;&gt;Node23 -->
<g id="edge31" class="edge"><title>Node7&#45;&gt;Node23</title>
<path fill="none" stroke="midnightblue" d="M242.914,-275.523C252.319,-292.529 270.894,-326.382 296,-347 306.552,-355.666 320.669,-361.598 332.333,-366.452"/>
<polygon fill="midnightblue" stroke="midnightblue" points="331.229,-369.786 341.801,-370.481 333.97,-363.345 331.229,-369.786"/>
</g>
<!-- Node24 -->
<g id="node24" class="node"><title>Node24</title>
<g id="a_node24"><a xlink:href="actions_8cpp.html#ad02149679fa3cc6a4957d1a318408ffd" target="_top" xlink:title="Transmit the uptime. ">
<polygon fill="white" stroke="black" points="327,-180.5 327,-199.5 383,-199.5 383,-180.5 327,-180.5"/>
<text text-anchor="middle" x="355" y="-187.5" font-family="Helvetica,sans-Serif" font-size="10.00">txUptime</text>
</a>
</g>
</g>
<!-- Node7&#45;&gt;Node24 -->
<g id="edge33" class="edge"><title>Node7&#45;&gt;Node24</title>
<path fill="none" stroke="midnightblue" d="M245.411,-256.104C256.614,-244.76 276.297,-226.168 296,-214 302.566,-209.945 309.937,-206.298 317.166,-203.142"/>
<polygon fill="midnightblue" stroke="midnightblue" points="318.934,-206.198 326.846,-199.151 316.266,-199.727 318.934,-206.198"/>
</g>
<!-- Node26 -->
<g id="node26" class="node"><title>Node26</title>
<g id="a_node26"><a xlink:href="teensy3__morse__bsp_8cpp.html#ae8dd28759e56dbd2ee9bc9ae96d1783c" target="_top" xlink:title="Return the most recent ADC measurement of the input voltage. Perform analog to digital conversion on ...">
<polygon fill="white" stroke="black" points="318,-446.5 318,-465.5 392,-465.5 392,-446.5 318,-446.5"/>
<text text-anchor="middle" x="355" y="-453.5" font-family="Helvetica,sans-Serif" font-size="10.00">readMillivolts</text>
</a>
</g>
</g>
<!-- Node7&#45;&gt;Node26 -->
<g id="edge36" class="edge"><title>Node7&#45;&gt;Node26</title>
<path fill="none" stroke="midnightblue" d="M236.809,-275.646C239.648,-303.576 251.543,-385.472 296,-432 299.67,-435.841 304.046,-439.089 308.725,-441.832"/>
<polygon fill="midnightblue" stroke="midnightblue" points="307.487,-445.127 317.992,-446.504 310.639,-438.877 307.487,-445.127"/>
</g>
<!-- Node30 -->
<g id="node30" class="node"><title>Node30</title>
<g id="a_node30"><a xlink:href="libmorse_8cpp.html#ac3f000c98271c6d0a7710135e18189bc" target="_top" xlink:title="On my hardware there is cross&#45;coupling between the serial port and the touch sensors. Without the code below, long messages to the serial port trigger a touch input. ">
<polygon fill="white" stroke="black" points="480.5,-389.5 480.5,-408.5 545.5,-408.5 545.5,-389.5 480.5,-389.5"/>
<text text-anchor="middle" x="513" y="-396.5" font-family="Helvetica,sans-Serif" font-size="10.00">flushTouch</text>
</a>
</g>
</g>
<!-- Node7&#45;&gt;Node30 -->
<g id="edge40" class="edge"><title>Node7&#45;&gt;Node30</title>
<path fill="none" stroke="midnightblue" d="M236.912,-275.626C239.909,-301.15 251.954,-370.55 296,-399 348.971,-433.215 425.553,-422.48 471.87,-411.085"/>
<polygon fill="midnightblue" stroke="midnightblue" points="472.749,-414.473 481.556,-408.583 470.998,-407.695 472.749,-414.473"/>
</g>
<!-- Node9 -->
<g id="node9" class="node"><title>Node9</title>
<g id="a_node9"><a xlink:href="teensy3__morse__bsp_8cpp.html#af6899cd9b83df54106b259ab81ea5cb2" target="_top" xlink:title="touchMargin">
<polygon fill="white" stroke="black" points="765,-332.5 765,-351.5 835,-351.5 835,-332.5 765,-332.5"/>
<text text-anchor="middle" x="800" y="-339.5" font-family="Helvetica,sans-Serif" font-size="10.00">touchMargin</text>
</a>
</g>
</g>
<!-- Node8&#45;&gt;Node9 -->
<g id="edge8" class="edge"><title>Node8&#45;&gt;Node9</title>
<path fill="none" stroke="midnightblue" d="M699.166,-342C715.281,-342 735.984,-342 754.355,-342"/>
<polygon fill="midnightblue" stroke="midnightblue" points="754.562,-345.5 764.562,-342 754.562,-338.5 754.562,-345.5"/>
</g>
<!-- Node11&#45;&gt;Node4 -->
<g id="edge11" class="edge"><title>Node11&#45;&gt;Node4</title>
<path fill="none" stroke="midnightblue" d="M806.354,-123.523C824.514,-155.825 883.975,-261.589 908.145,-304.581"/>
<polygon fill="midnightblue" stroke="midnightblue" points="905.163,-306.419 913.114,-313.421 911.265,-302.989 905.163,-306.419"/>
</g>
<!-- Node11&#45;&gt;Node6 -->
<g id="edge20" class="edge"><title>Node11&#45;&gt;Node6</title>
<path fill="none" stroke="midnightblue" d="M785.822,-104.477C746.57,-77.0778 626.177,-0 514,-0 354,-0 354,-0 354,-0 251.697,-0 164.822,-109.074 133.986,-152.996"/>
<polygon fill="midnightblue" stroke="midnightblue" points="131.047,-151.092 128.271,-161.316 136.817,-155.055 131.047,-151.092"/>
</g>
<!-- Node11&#45;&gt;Node10 -->
<g id="edge19" class="edge"><title>Node11&#45;&gt;Node10</title>
<path fill="none" stroke="midnightblue" d="M817.408,-104.384C831.419,-96.3459 852.224,-84.8146 871,-76 875.09,-74.0797 879.431,-72.1723 883.761,-70.3485"/>
<polygon fill="midnightblue" stroke="midnightblue" points="885.192,-73.5445 893.121,-66.5168 882.54,-67.0663 885.192,-73.5445"/>
</g>
<!-- Node12 -->
<g id="node12" class="node"><title>Node12</title>
<g id="a_node12"><a xlink:href="teensy3__morse__bsp_8cpp.html#af66e71e3fac9b6a2c6532bc8a513bfde" target="_top" xlink:title="Output a square wave on pin 10 at the given frequency for the given duration. ">
<polygon fill="white" stroke="black" points="900.5,-123.5 900.5,-142.5 938.5,-142.5 938.5,-123.5 900.5,-123.5"/>
<text text-anchor="middle" x="919.5" y="-130.5" font-family="Helvetica,sans-Serif" font-size="10.00">beep</text>
</a>
</g>
</g>
<!-- Node11&#45;&gt;Node12 -->
<g id="edge12" class="edge"><title>Node11&#45;&gt;Node12</title>
<path fill="none" stroke="midnightblue" d="M825.632,-117.983C844.57,-121.045 870.746,-125.278 890.483,-128.47"/>
<polygon fill="midnightblue" stroke="midnightblue" points="889.99,-131.935 900.42,-130.076 891.107,-125.025 889.99,-131.935"/>
</g>
<!-- Node18 -->
<g id="node18" class="node"><title>Node18</title>
<g id="a_node18"><a xlink:href="settings_8cpp.html#a8575b9b52638114a4f32d1462cf9b7c1" target="_top" xlink:title="Get the transmission frequency (side tone). ">
<polygon fill="white" stroke="black" points="892.5,-85.5 892.5,-104.5 946.5,-104.5 946.5,-85.5 892.5,-85.5"/>
<text text-anchor="middle" x="919.5" y="-92.5" font-family="Helvetica,sans-Serif" font-size="10.00">getTxHz</text>
</a>
</g>
</g>
<!-- Node11&#45;&gt;Node18 -->
<g id="edge18" class="edge"><title>Node11&#45;&gt;Node18</title>
<path fill="none" stroke="midnightblue" d="M825.632,-110.017C842.022,-107.367 863.833,-103.84 882.199,-100.87"/>
<polygon fill="midnightblue" stroke="midnightblue" points="882.956,-104.293 892.269,-99.2416 881.838,-97.3829 882.956,-104.293"/>
</g>
<!-- Node13 -->
<g id="node13" class="node"><title>Node13</title>
<g id="a_node13"><a xlink:href="teensy3__morse__bsp_8cpp.html#a6f674d5b9985ea3a7eeb0df299c2e405" target="_top" xlink:title="pollEarphonePresent">
<polygon fill="white" stroke="black" points="1004,-180.5 1004,-199.5 1111,-199.5 1111,-180.5 1004,-180.5"/>
<text text-anchor="middle" x="1057.5" y="-187.5" font-family="Helvetica,sans-Serif" font-size="10.00">pollEarphonePresent</text>
</a>
</g>
</g>
<!-- Node12&#45;&gt;Node13 -->
<g id="edge13" class="edge"><title>Node12&#45;&gt;Node13</title>
<path fill="none" stroke="midnightblue" d="M938.561,-141.725C955.352,-149.715 981.14,-161.679 1004,-171 1008.87,-172.985 1014.03,-174.981 1019.14,-176.896"/>
<polygon fill="midnightblue" stroke="midnightblue" points="1018.23,-180.289 1028.82,-180.451 1020.64,-173.718 1018.23,-180.289"/>
</g>
<!-- Node14 -->
<g id="node14" class="node"><title>Node14</title>
<g id="a_node14"><a xlink:href="teensy3__morse__bsp_8cpp.html#a2d6b4ace33ed5e497dedd03217540c63" target="_top" xlink:title="Set the PWM frequency for the audio output pins. ">
<polygon fill="white" stroke="black" points="1016,-142.5 1016,-161.5 1099,-161.5 1099,-142.5 1016,-142.5"/>
<text text-anchor="middle" x="1057.5" y="-149.5" font-family="Helvetica,sans-Serif" font-size="10.00">pwmFrequency</text>
</a>
</g>
</g>
<!-- Node12&#45;&gt;Node14 -->
<g id="edge14" class="edge"><title>Node12&#45;&gt;Node14</title>
<path fill="none" stroke="midnightblue" d="M938.56,-135.523C955.617,-137.906 982.017,-141.594 1005.52,-144.878"/>
<polygon fill="midnightblue" stroke="midnightblue" points="1005.33,-148.386 1015.72,-146.303 1006.3,-141.453 1005.33,-148.386"/>
</g>
<!-- Node15 -->
<g id="node15" class="node"><title>Node15</title>
<g id="a_node15"><a xlink:href="teensy3__morse__bsp_8cpp.html#a82911eac3bf13d6f36d10102a4c4d3c4" target="_top" xlink:title="Generate a tone on the audio output pins. ">
<polygon fill="white" stroke="black" points="1027,-104.5 1027,-123.5 1088,-123.5 1088,-104.5 1027,-104.5"/>
<text text-anchor="middle" x="1057.5" y="-111.5" font-family="Helvetica,sans-Serif" font-size="10.00">pwmWrite</text>
</a>
</g>
</g>
<!-- Node12&#45;&gt;Node15 -->
<g id="edge15" class="edge"><title>Node12&#45;&gt;Node15</title>
<path fill="none" stroke="midnightblue" d="M938.56,-130.477C958.462,-127.697 991.083,-123.139 1016.98,-119.521"/>
<polygon fill="midnightblue" stroke="midnightblue" points="1017.47,-122.987 1026.89,-118.137 1016.5,-116.054 1017.47,-122.987"/>
</g>
<!-- Node17 -->
<g id="node17" class="node"><title>Node17</title>
<g id="a_node17"><a xlink:href="teensy3__morse__bsp_8cpp.html#a6c982a7d7805f1dd5426eb98c915cfdd" target="_top" xlink:title="Turn the red LED on (1) or off (0). ">
<polygon fill="white" stroke="black" points="1032.5,-66.5 1032.5,-85.5 1082.5,-85.5 1082.5,-66.5 1032.5,-66.5"/>
<text text-anchor="middle" x="1057.5" y="-73.5" font-family="Helvetica,sans-Serif" font-size="10.00">redLED</text>
</a>
</g>
</g>
<!-- Node12&#45;&gt;Node17 -->
<g id="edge17" class="edge"><title>Node12&#45;&gt;Node17</title>
<path fill="none" stroke="midnightblue" d="M938.734,-126.223C947.652,-122.779 958.487,-118.398 968,-114 984.422,-106.408 987.454,-102.318 1004,-95 1009.99,-92.3497 1016.48,-89.7744 1022.78,-87.4192"/>
<polygon fill="midnightblue" stroke="midnightblue" points="1024.23,-90.6174 1032.44,-83.9203 1021.85,-84.036 1024.23,-90.6174"/>
</g>
<!-- Node16 -->
<g id="node16" class="node"><title>Node16</title>
<g id="a_node16"><a xlink:href="teensy3__morse__bsp_8cpp.html#ac70998cee1bf97f00aec4a1b4e5a4f60" target="_top" xlink:title="isEarphonePresent">
<polygon fill="white" stroke="black" points="1147,-104.5 1147,-123.5 1246,-123.5 1246,-104.5 1147,-104.5"/>
<text text-anchor="middle" x="1196.5" y="-111.5" font-family="Helvetica,sans-Serif" font-size="10.00">isEarphonePresent</text>
</a>
</g>
</g>
<!-- Node15&#45;&gt;Node16 -->
<g id="edge16" class="edge"><title>Node15&#45;&gt;Node16</title>
<path fill="none" stroke="midnightblue" d="M1088.23,-114C1102.43,-114 1119.96,-114 1136.7,-114"/>
<polygon fill="midnightblue" stroke="midnightblue" points="1136.98,-117.5 1146.98,-114 1136.98,-110.5 1136.98,-117.5"/>
</g>
<!-- Node19&#45;&gt;Node6 -->
<g id="edge23" class="edge"><title>Node19&#45;&gt;Node6</title>
<path fill="none" stroke="midnightblue" d="M645.333,-142.643C626.709,-135.955 600.143,-127.537 576,-124 452.851,-105.956 419.338,-112.291 296,-129 245.766,-135.805 188.901,-150.991 154.253,-161.114"/>
<polygon fill="midnightblue" stroke="midnightblue" points="152.839,-157.882 144.245,-164.078 154.827,-164.594 152.839,-157.882"/>
</g>
<!-- Node19&#45;&gt;Node11 -->
<g id="edge22" class="edge"><title>Node19&#45;&gt;Node11</title>
<path fill="none" stroke="midnightblue" d="M695.782,-144.763C715.242,-138.963 742.793,-130.752 764.536,-124.272"/>
<polygon fill="midnightblue" stroke="midnightblue" points="765.791,-127.55 774.374,-121.339 763.791,-120.842 765.791,-127.55"/>
</g>
<!-- Node21&#45;&gt;Node8 -->
<g id="edge26" class="edge"><title>Node21&#45;&gt;Node8</title>
<path fill="none" stroke="midnightblue" d="M530.964,-237.577C543.648,-244.932 561.267,-255.566 576,-266 603.092,-285.185 632.525,-309.79 650.986,-325.722"/>
<polygon fill="midnightblue" stroke="midnightblue" points="648.805,-328.464 658.648,-332.382 653.397,-323.18 648.805,-328.464"/>
</g>
<!-- Node21&#45;&gt;Node19 -->
<g id="edge27" class="edge"><title>Node21&#45;&gt;Node19</title>
<path fill="none" stroke="midnightblue" d="M546.102,-219.826C555.889,-216.894 566.553,-213.246 576,-209 601.929,-197.346 629.468,-179.859 647.889,-167.329"/>
<polygon fill="midnightblue" stroke="midnightblue" points="649.912,-170.186 656.153,-161.624 645.935,-164.425 649.912,-170.186"/>
</g>
<!-- Node22&#45;&gt;Node20 -->
<g id="edge29" class="edge"><title>Node22&#45;&gt;Node20</title>
<path fill="none" stroke="midnightblue" d="M414.089,-273.075C422.711,-274.125 431.682,-275.218 440.54,-276.296"/>
<polygon fill="midnightblue" stroke="midnightblue" points="440.117,-279.771 450.467,-277.506 440.964,-272.822 440.117,-279.771"/>
</g>
<!-- Node22&#45;&gt;Node21 -->
<g id="edge30" class="edge"><title>Node22&#45;&gt;Node21</title>
<path fill="none" stroke="midnightblue" d="M395.365,-256.411C418.167,-250.857 446.861,-243.867 470.083,-238.211"/>
<polygon fill="midnightblue" stroke="midnightblue" points="471.108,-241.563 479.996,-235.796 469.451,-234.762 471.108,-241.563"/>
</g>
<!-- Node23&#45;&gt;Node7 -->
<g id="edge32" class="edge"><title>Node23&#45;&gt;Node7</title>
<path fill="none" stroke="midnightblue" d="M315.974,-376.885C308.903,-373.829 301.895,-369.841 296,-365 269.816,-343.496 250.737,-307.598 241.754,-285.127"/>
<polygon fill="midnightblue" stroke="midnightblue" points="244.981,-283.759 238.258,-275.571 238.407,-286.165 244.981,-283.759"/>
</g>
<!-- Node24&#45;&gt;Node21 -->
<g id="edge35" class="edge"><title>Node24&#45;&gt;Node21</title>
<path fill="none" stroke="midnightblue" d="M383.173,-196.619C407.119,-202.452 442.386,-211.043 469.968,-217.762"/>
<polygon fill="midnightblue" stroke="midnightblue" points="469.203,-221.177 479.748,-220.144 470.86,-214.376 469.203,-221.177"/>
</g>
<!-- Node25 -->
<g id="node25" class="node"><title>Node25</title>
<g id="a_node25"><a xlink:href="settings_8cpp.html#a7b4efa097b94f9a90c5bbafcdf93fe4f" target="_top" xlink:title="getUptime">
<polygon fill="white" stroke="black" points="482,-180.5 482,-199.5 544,-199.5 544,-180.5 482,-180.5"/>
<text text-anchor="middle" x="513" y="-187.5" font-family="Helvetica,sans-Serif" font-size="10.00">getUptime</text>
</a>
</g>
</g>
<!-- Node24&#45;&gt;Node25 -->
<g id="edge34" class="edge"><title>Node24&#45;&gt;Node25</title>
<path fill="none" stroke="midnightblue" d="M383.173,-190C407.633,-190 443.905,-190 471.735,-190"/>
<polygon fill="midnightblue" stroke="midnightblue" points="471.945,-193.5 481.945,-190 471.945,-186.5 471.945,-193.5"/>
</g>
<!-- Node27 -->
<g id="node27" class="node"><title>Node27</title>
<g id="a_node27"><a xlink:href="class_voltage_monitor.html#a70902b84f9864c95d5553a0644a64f4f" target="_top" xlink:title="Return the latest voltage reading. ">
<polygon fill="white" stroke="black" points="450,-446.5 450,-465.5 576,-465.5 576,-446.5 450,-446.5"/>
<text text-anchor="middle" x="513" y="-453.5" font-family="Helvetica,sans-Serif" font-size="10.00">VoltageMonitor::getValue</text>
</a>
</g>
</g>
<!-- Node26&#45;&gt;Node27 -->
<g id="edge37" class="edge"><title>Node26&#45;&gt;Node27</title>
<path fill="none" stroke="midnightblue" d="M392.182,-456C406.344,-456 423.117,-456 439.56,-456"/>
<polygon fill="midnightblue" stroke="midnightblue" points="439.728,-459.5 449.728,-456 439.728,-452.5 439.728,-459.5"/>
</g>
<!-- Node28 -->
<g id="node28" class="node"><title>Node28</title>
<g id="a_node28"><a xlink:href="actions_8cpp.html#a2b8c3769e2aa32a2da9e2f3f85ac73dd" target="_top" xlink:title="A sample ADC reading is taken each time through the main loop, and written to a ring buffer...">
<polygon fill="white" stroke="black" points="614.5,-446.5 614.5,-465.5 726.5,-465.5 726.5,-446.5 614.5,-446.5"/>
<text text-anchor="middle" x="670.5" y="-453.5" font-family="Helvetica,sans-Serif" font-size="10.00">getVoltagePollInterval</text>
</a>
</g>
</g>
<!-- Node27&#45;&gt;Node28 -->
<g id="edge38" class="edge"><title>Node27&#45;&gt;Node28</title>
<path fill="none" stroke="midnightblue" d="M576.352,-456C585.438,-456 594.816,-456 603.963,-456"/>
<polygon fill="midnightblue" stroke="midnightblue" points="604.163,-459.5 614.163,-456 604.163,-452.5 604.163,-459.5"/>
</g>
<!-- Node29 -->
<g id="node29" class="node"><title>Node29</title>
<g id="a_node29"><a xlink:href="class_voltage_monitor.html#a75871331808c34b40d04059ee2af0f27" target="_top" xlink:title="Filter and scale raw ADC values to millivolts. ">
<polygon fill="white" stroke="black" points="612,-408.5 612,-427.5 729,-427.5 729,-408.5 612,-408.5"/>
<text text-anchor="middle" x="670.5" y="-415.5" font-family="Helvetica,sans-Serif" font-size="10.00">VoltageMonitor::update</text>
</a>
</g>
</g>
<!-- Node27&#45;&gt;Node29 -->
<g id="edge39" class="edge"><title>Node27&#45;&gt;Node29</title>
<path fill="none" stroke="midnightblue" d="M553.239,-446.411C573.759,-441.396 599.067,-435.212 620.825,-429.895"/>
<polygon fill="midnightblue" stroke="midnightblue" points="621.66,-433.294 630.543,-427.52 619.998,-426.494 621.66,-433.294"/>
</g>
<!-- Node30&#45;&gt;Node8 -->
<g id="edge41" class="edge"><title>Node30&#45;&gt;Node8</title>
<path fill="none" stroke="midnightblue" d="M540.027,-389.459C565.704,-380.047 605.155,-365.586 633.762,-355.1"/>
<polygon fill="midnightblue" stroke="midnightblue" points="635.203,-358.3 643.388,-351.572 632.794,-351.727 635.203,-358.3"/>
</g>
</g>
</svg>
        <g id="navigator" transform="translate(0 0)" fill="#404254">
                <rect fill="#f2f5e9" fill-opacity="0.5" stroke="#606060" stroke-width=".5" x="0" y="0" width="60" height="60"/>
                <use id="zoomplus" xlink:href="#zoomPlus" x="17" y="9" onmousedown="handleZoom(evt,'in')"/>
                <use id="zoomminus" xlink:href="#zoomMin" x="42" y="9" onmousedown="handleZoom(evt,'out')"/>
                <use id="reset" xlink:href="#resetDef" x="30" y="36" onmousedown="handleReset()"/>
                <g id="arrowUp" xlink:href="#dirArrow" transform="translate(30 24)" onmousedown="handlePan(0,-1)">
                  <use xlink:href="#rim" fill="#404040">
                        <set attributeName="fill" to="#808080" begin="arrowUp.mouseover" end="arrowUp.mouseout"/>
                  </use>
                  <path fill="none" stroke="white" stroke-width="1.5" d="M0,-3.0v7 M-2.5,-0.5L0,-3.0L2.5,-0.5"/>
                </g>
                <g id="arrowRight" xlink:href="#dirArrow" transform="rotate(90) translate(36 -43)" onmousedown="handlePan(1,0)">
                  <use xlink:href="#rim" fill="#404040">
                        <set attributeName="fill" to="#808080" begin="arrowRight.mouseover" end="arrowRight.mouseout"/>
                  </use>
                  <path fill="none" stroke="white" stroke-width="1.5" d="M0,-3.0v7 M-2.5,-0.5L0,-3.0L2.5,-0.5"/>
                </g>
                <g id="arrowDown" xlink:href="#dirArrow" transform="rotate(180) translate(-30 -48)" onmousedown="handlePan(0,1)">
                  <use xlink:href="#rim" fill="#404040">
                        <set attributeName="fill" to="#808080" begin="arrowDown.mouseover" end="arrowDown.mouseout"/>
                  </use>
                  <path fill="none" stroke="white" stroke-width="1.5" d="M0,-3.0v7 M-2.5,-0.5L0,-3.0L2.5,-0.5"/>
                </g>
                <g id="arrowLeft" xlink:href="#dirArrow" transform="rotate(270) translate(-36 17)" onmousedown="handlePan(-1,0)">
                  <use xlink:href="#rim" fill="#404040">
                        <set attributeName="fill" to="#808080" begin="arrowLeft.mouseover" end="arrowLeft.mouseout"/>
                  </use>
                  <path fill="none" stroke="white" stroke-width="1.5" d="M0,-3.0v7 M-2.5,-0.5L0,-3.0L2.5,-0.5"/>
                </g>
        </g>
        <svg viewBox="0 0 15 15" width="100%" height="30px" preserveAspectRatio="xMaxYMin meet">
         <g id="arrow_out" transform="scale(0.3 0.3)">
          <a xlink:href="morse__token_8cpp_a9ec0688da83c93d634e79b2d7ad7ad64_cgraph_org.svg" target="_base">
           <rect id="button" ry="5" rx="5" y="6" x="6" height="38" width="38"
                fill="#f2f5e9" fill-opacity="0.5" stroke="#606060" stroke-width="1.0"/>
           <path id="arrow"
             d="M 11.500037,31.436501 C 11.940474,20.09759 22.043105,11.32322 32.158766,21.979434 L 37.068811,17.246167 C 37.068811,17.246167 37.088388,32 37.088388,32 L 22.160133,31.978069 C 22.160133,31.978069 26.997745,27.140456 26.997745,27.140456 C 18.528582,18.264221 13.291696,25.230495 11.500037,31.436501 z"
             style="fill:#404040;"/>
          </a>
         </g>
        </svg>
</svg>
