<?xml version="1.0" encoding="UTF-8" standalone="no"?>
<!DOCTYPE svg PUBLIC "-//W3C//DTD SVG 1.1//EN"
 "http://www.w3.org/Graphics/SVG/1.1/DTD/svg11.dtd">
<!-- Generated by graphviz version 2.38.0 (20140413.2041)
 -->
<!-- Title: m2a Pages: 1 -->
<svg width="182pt" height="66pt"
 viewBox="0.00 0.00 182.00 66.00" xmlns="http://www.w3.org/2000/svg" xmlns:xlink="http://www.w3.org/1999/xlink">
<g id="graph0" class="graph" transform="scale(1 1) rotate(0) translate(4 62)">
<title>m2a</title>
<polygon fill="white" stroke="none" points="-4,4 -4,-62 178,-62 178,4 -4,4"/>
<!-- Node1 -->
<g id="node1" class="node"><title>Node1</title>
<polygon fill="#bfbfbf" stroke="black" points="0,-19.5 0,-38.5 35,-38.5 35,-19.5 0,-19.5"/>
<text text-anchor="middle" x="17.5" y="-26.5" font-family="Helvetica,sans-Serif" font-size="10.00">m2a</text>
</g>
<!-- Node2 -->
<g id="node2" class="node"><title>Node2</title>
<g id="a_node2"><a xlink:href="class_morse_token.html#a48cd72aeb868391449d1f51c1d0bf5cc" target="_top" xlink:title="Treat code == 0 as the error token. ">
<polygon fill="white" stroke="black" points="74,-38.5 74,-57.5 171,-57.5 171,-38.5 74,-38.5"/>
<text text-anchor="middle" x="122.5" y="-45.5" font-family="Helvetica,sans-Serif" font-size="10.00">MorseToken::valid</text>
</a>
</g>
</g>
<!-- Node1&#45;&gt;Node2 -->
<g id="edge1" class="edge"><title>Node1&#45;&gt;Node2</title>
<path fill="none" stroke="midnightblue" d="M35.0487,-32.0527C43.0643,-33.5313 53.2186,-35.4044 63.7265,-37.3428"/>
<polygon fill="midnightblue" stroke="midnightblue" points="63.3823,-40.8382 73.8513,-39.2104 64.6521,-33.9544 63.3823,-40.8382"/>
</g>
<!-- Node3 -->
<g id="node3" class="node"><title>Node3</title>
<g id="a_node3"><a xlink:href="class_morse_token.html#adc74054417a8636c1d34d43c34628731" target="_top" xlink:title="Treat code == 1 as a space. ">
<polygon fill="white" stroke="black" points="71,-0.5 71,-19.5 174,-19.5 174,-0.5 71,-0.5"/>
<text text-anchor="middle" x="122.5" y="-7.5" font-family="Helvetica,sans-Serif" font-size="10.00">MorseToken::pause</text>
</a>
</g>
</g>
<!-- Node1&#45;&gt;Node3 -->
<g id="edge2" class="edge"><title>Node1&#45;&gt;Node3</title>
<path fill="none" stroke="midnightblue" d="M35.0487,-25.9473C42.3081,-24.6082 51.3218,-22.9455 60.7636,-21.2038"/>
<polygon fill="midnightblue" stroke="midnightblue" points="61.5034,-24.6265 70.7025,-19.3704 60.2335,-17.7426 61.5034,-24.6265"/>
</g>
</g>
</svg>
