<?xml version="1.0" encoding="UTF-8" standalone="no"?>
<!DOCTYPE svg PUBLIC "-//W3C//DTD SVG 1.1//EN"
 "http://www.w3.org/Graphics/SVG/1.1/DTD/svg11.dtd">
<!-- Generated by graphviz version 2.38.0 (20140413.2041)
 -->
<!-- Title: m2i Pages: 1 -->
<svg width="436pt" height="256pt"
 viewBox="0.00 0.00 436.00 256.00" xmlns="http://www.w3.org/2000/svg" xmlns:xlink="http://www.w3.org/1999/xlink">
<g id="graph0" class="graph" transform="scale(1 1) rotate(0) translate(4 252)">
<title>m2i</title>
<polygon fill="white" stroke="none" points="-4,4 -4,-252 432,-252 432,4 -4,4"/>
<!-- Node1 -->
<g id="node1" class="node"><title>Node1</title>
<polygon fill="#bfbfbf" stroke="black" points="0,-109.5 0,-128.5 32,-128.5 32,-109.5 0,-109.5"/>
<text text-anchor="middle" x="16" y="-116.5" font-family="Helvetica,sans-Serif" font-size="10.00">m2i</text>
</g>
<!-- Node2 -->
<g id="node2" class="node"><title>Node2</title>
<g id="a_node2"><a xlink:href="class_morse_token.html#adbcf2bf93f283c2c69a93dd69d03c38b" target="_top" xlink:title="Convert Morse 0&#45;9 to the corresponding digit. ">
<polygon fill="white" stroke="black" points="81.5,-149.5 81.5,-168.5 173.5,-168.5 173.5,-149.5 81.5,-149.5"/>
<text text-anchor="middle" x="127.5" y="-156.5" font-family="Helvetica,sans-Serif" font-size="10.00">MorseToken::m2i</text>
</a>
</g>
</g>
<!-- Node1&#45;&gt;Node2 -->
<g id="edge1" class="edge"><title>Node1&#45;&gt;Node2</title>
<path fill="none" stroke="midnightblue" d="M41.7022,-128.271C50.0464,-131.384 59.4202,-134.862 68,-138 78.3369,-141.781 89.7236,-145.882 99.6826,-149.449"/>
<polygon fill="midnightblue" stroke="midnightblue" points="42.7498,-124.926 32.1573,-124.701 40.2977,-131.482 42.7498,-124.926"/>
</g>
<!-- Node4 -->
<g id="node4" class="node"><title>Node4</title>
<g id="a_node4"><a xlink:href="pda_8h.html#ac1f9ea31ffc81530ac4a07fa2469f13c" target="_top" xlink:title="txAlfaBravoCharlie">
<polygon fill="white" stroke="black" points="223,-228.5 223,-247.5 321,-247.5 321,-228.5 223,-228.5"/>
<text text-anchor="middle" x="272" y="-235.5" font-family="Helvetica,sans-Serif" font-size="10.00">txAlfaBravoCharlie</text>
</a>
</g>
</g>
<!-- Node1&#45;&gt;Node4 -->
<g id="edge9" class="edge"><title>Node1&#45;&gt;Node4</title>
<path fill="none" stroke="midnightblue" d="M28.7933,-137.585C37.9909,-150.658 51.8843,-167.609 68,-178 115.565,-208.669 179.365,-224.152 222.654,-231.621"/>
<polygon fill="midnightblue" stroke="midnightblue" points="31.442,-135.251 22.9612,-128.901 25.6308,-139.154 31.442,-135.251"/>
</g>
<!-- Node9 -->
<g id="node9" class="node"><title>Node9</title>
<g id="a_node9"><a xlink:href="pda_8h.html#a3c36576745952735f04eaa82b933e6fa" target="_top" xlink:title="Play one of 10 sound effects based on the digit on the stack. ">
<polygon fill="white" stroke="black" points="83,-109.5 83,-128.5 172,-128.5 172,-109.5 83,-109.5"/>
<text text-anchor="middle" x="127.5" y="-116.5" font-family="Helvetica,sans-Serif" font-size="10.00">playSoundEffect</text>
</a>
</g>
</g>
<!-- Node1&#45;&gt;Node9 -->
<g id="edge8" class="edge"><title>Node1&#45;&gt;Node9</title>
<path fill="none" stroke="midnightblue" d="M42.3516,-119C54.3036,-119 68.9127,-119 82.5832,-119"/>
<polygon fill="midnightblue" stroke="midnightblue" points="42.2255,-115.5 32.2255,-119 42.2255,-122.5 42.2255,-115.5"/>
</g>
<!-- Node10 -->
<g id="node10" class="node"><title>Node10</title>
<g id="a_node10"><a xlink:href="pda_8h.html#a59acff867d89a88cb2142895d95b12e8" target="_top" xlink:title="gradeSum">
<polygon fill="white" stroke="black" points="97,-66.5 97,-85.5 158,-85.5 158,-66.5 97,-66.5"/>
<text text-anchor="middle" x="127.5" y="-73.5" font-family="Helvetica,sans-Serif" font-size="10.00">gradeSum</text>
</a>
</g>
</g>
<!-- Node1&#45;&gt;Node10 -->
<g id="edge10" class="edge"><title>Node1&#45;&gt;Node10</title>
<path fill="none" stroke="midnightblue" d="M41.7834,-109.268C59.8429,-102.176 84.189,-92.6153 102.147,-85.5631"/>
<polygon fill="midnightblue" stroke="midnightblue" points="40.2542,-106.108 32.2255,-113.021 42.8129,-112.624 40.2542,-106.108"/>
</g>
<!-- Node13 -->
<g id="node13" class="node"><title>Node13</title>
<g id="a_node13"><a xlink:href="stack_8h.html#a89e98012b4180ef8ce90108ebcfbde1d" target="_top" xlink:title="stackDigitsToUnsigned">
<polygon fill="white" stroke="black" points="68,-19.5 68,-38.5 187,-38.5 187,-19.5 68,-19.5"/>
<text text-anchor="middle" x="127.5" y="-26.5" font-family="Helvetica,sans-Serif" font-size="10.00">stackDigitsToUnsigned</text>
</a>
</g>
</g>
<!-- Node1&#45;&gt;Node13 -->
<g id="edge13" class="edge"><title>Node1&#45;&gt;Node13</title>
<path fill="none" stroke="midnightblue" d="M28.8664,-100.608C38.2344,-87.1949 52.309,-69.2894 68,-57 77.6622,-49.4324 89.7019,-43.233 100.343,-38.6086"/>
<polygon fill="midnightblue" stroke="midnightblue" points="25.8614,-98.8039 23.1708,-109.051 31.6645,-102.718 25.8614,-98.8039"/>
</g>
<!-- Node3 -->
<g id="node3" class="node"><title>Node3</title>
<g id="a_node3"><a xlink:href="actions_8h.html#a142b42f94ccf46a7a9706fe9b63b4501" target="_top" xlink:title="Attempt to control the output volume but adjusting the PWM duty cycle. ">
<polygon fill="white" stroke="black" points="240.5,-190.5 240.5,-209.5 303.5,-209.5 303.5,-190.5 240.5,-190.5"/>
<text text-anchor="middle" x="272" y="-197.5" font-family="Helvetica,sans-Serif" font-size="10.00">setVolume</text>
</a>
</g>
</g>
<!-- Node2&#45;&gt;Node3 -->
<g id="edge2" class="edge"><title>Node2&#45;&gt;Node3</title>
<path fill="none" stroke="midnightblue" d="M171.369,-171.334C193.492,-177.7 219.979,-185.32 240.08,-191.104"/>
<polygon fill="midnightblue" stroke="midnightblue" points="172.128,-167.911 161.551,-168.509 170.193,-174.638 172.128,-167.911"/>
</g>
<!-- Node2&#45;&gt;Node4 -->
<g id="edge3" class="edge"><title>Node2&#45;&gt;Node4</title>
<path fill="none" stroke="midnightblue" d="M150.183,-174.433C168.902,-187.344 196.96,-205.73 223,-219 229.708,-222.418 237.181,-225.639 244.196,-228.424"/>
<polygon fill="midnightblue" stroke="midnightblue" points="151.999,-171.432 141.795,-168.581 147.994,-177.173 151.999,-171.432"/>
</g>
<!-- Node6 -->
<g id="node6" class="node"><title>Node6</title>
<g id="a_node6"><a xlink:href="pda_8cpp.html#a47afc6664036a43243457f6f66cb90f8" target="_top" xlink:title="txAlphaNNN">
<polygon fill="white" stroke="black" points="236,-152.5 236,-171.5 308,-171.5 308,-152.5 236,-152.5"/>
<text text-anchor="middle" x="272" y="-159.5" font-family="Helvetica,sans-Serif" font-size="10.00">txAlphaNNN</text>
</a>
</g>
</g>
<!-- Node2&#45;&gt;Node6 -->
<g id="edge5" class="edge"><title>Node2&#45;&gt;Node6</title>
<path fill="none" stroke="midnightblue" d="M183.686,-160.162C201.161,-160.53 219.996,-160.926 235.684,-161.257"/>
<polygon fill="midnightblue" stroke="midnightblue" points="183.659,-156.661 173.588,-159.949 183.512,-163.659 183.659,-156.661"/>
</g>
<!-- Node7 -->
<g id="node7" class="node"><title>Node7</title>
<g id="a_node7"><a xlink:href="pda_8h.html#aee08a527408a7a8a4b5490d13b767cb2" target="_top" xlink:title="txMetronome">
<polygon fill="white" stroke="black" points="235,-114.5 235,-133.5 309,-133.5 309,-114.5 235,-114.5"/>
<text text-anchor="middle" x="272" y="-121.5" font-family="Helvetica,sans-Serif" font-size="10.00">txMetronome</text>
</a>
</g>
</g>
<!-- Node2&#45;&gt;Node7 -->
<g id="edge6" class="edge"><title>Node2&#45;&gt;Node7</title>
<path fill="none" stroke="midnightblue" d="M177.299,-147.014C196.067,-142.405 217.149,-137.227 234.557,-132.951"/>
<polygon fill="midnightblue" stroke="midnightblue" points="176.315,-143.652 167.439,-149.436 177.985,-150.45 176.315,-143.652"/>
</g>
<!-- Node8 -->
<g id="node8" class="node"><title>Node8</title>
<g id="a_node8"><a xlink:href="pda_8h.html#aba3c77bbaeda68253d8795c44bb0b4ff" target="_top" xlink:title="sumStack">
<polygon fill="white" stroke="black" points="241.5,-76.5 241.5,-95.5 302.5,-95.5 302.5,-76.5 241.5,-76.5"/>
<text text-anchor="middle" x="272" y="-83.5" font-family="Helvetica,sans-Serif" font-size="10.00">sumStack</text>
</a>
</g>
</g>
<!-- Node2&#45;&gt;Node8 -->
<g id="edge7" class="edge"><title>Node2&#45;&gt;Node8</title>
<path fill="none" stroke="midnightblue" d="M171.82,-145.674C177.083,-143.415 182.266,-140.859 187,-138 205.58,-126.779 204.604,-116.519 223,-105 228.849,-101.338 235.522,-98.1594 241.994,-95.5055"/>
<polygon fill="midnightblue" stroke="midnightblue" points="170.353,-142.491 162.341,-149.423 172.928,-149 170.353,-142.491"/>
</g>
<!-- Node5 -->
<g id="node5" class="node"><title>Node5</title>
<g id="a_node5"><a xlink:href="pda_8h.html#a5218392624b017b817b80d6b16ea920d" target="_top" xlink:title="askNextAlfa">
<polygon fill="white" stroke="black" points="357,-228.5 357,-247.5 428,-247.5 428,-228.5 357,-228.5"/>
<text text-anchor="middle" x="392.5" y="-235.5" font-family="Helvetica,sans-Serif" font-size="10.00">askNextAlfa</text>
</a>
</g>
</g>
<!-- Node4&#45;&gt;Node5 -->
<g id="edge4" class="edge"><title>Node4&#45;&gt;Node5</title>
<path fill="none" stroke="midnightblue" d="M331.356,-238C340.058,-238 348.785,-238 356.787,-238"/>
<polygon fill="midnightblue" stroke="midnightblue" points="331.199,-234.5 321.198,-238 331.198,-241.5 331.199,-234.5"/>
</g>
<!-- Node11 -->
<g id="node11" class="node"><title>Node11</title>
<g id="a_node11"><a xlink:href="pda_8h.html#a15825e7325bc5cdbd18cf2c6055baef1" target="_top" xlink:title="gradeRestore">
<polygon fill="white" stroke="black" points="234.5,-38.5 234.5,-57.5 309.5,-57.5 309.5,-38.5 234.5,-38.5"/>
<text text-anchor="middle" x="272" y="-45.5" font-family="Helvetica,sans-Serif" font-size="10.00">gradeRestore</text>
</a>
</g>
</g>
<!-- Node10&#45;&gt;Node11 -->
<g id="edge11" class="edge"><title>Node10&#45;&gt;Node11</title>
<path fill="none" stroke="midnightblue" d="M168.117,-68.2157C188.874,-64.137 214.127,-59.1751 234.418,-55.188"/>
<polygon fill="midnightblue" stroke="midnightblue" points="167.164,-64.8359 158.026,-70.1984 168.513,-71.7046 167.164,-64.8359"/>
</g>
<!-- Node12 -->
<g id="node12" class="node"><title>Node12</title>
<g id="a_node12"><a xlink:href="pda_8h.html#abf2e0c8c523ed9ddee8a9194c9800b99" target="_top" xlink:title="askSum">
<polygon fill="white" stroke="black" points="366,-38.5 366,-57.5 419,-57.5 419,-38.5 366,-38.5"/>
<text text-anchor="middle" x="392.5" y="-45.5" font-family="Helvetica,sans-Serif" font-size="10.00">askSum</text>
</a>
</g>
</g>
<!-- Node11&#45;&gt;Node12 -->
<g id="edge12" class="edge"><title>Node11&#45;&gt;Node12</title>
<path fill="none" stroke="midnightblue" d="M319.623,-48C335.345,-48 352.31,-48 365.808,-48"/>
<polygon fill="midnightblue" stroke="midnightblue" points="319.521,-44.5001 309.521,-48 319.521,-51.5001 319.521,-44.5001"/>
</g>
<!-- Node14 -->
<g id="node14" class="node"><title>Node14</title>
<g id="a_node14"><a xlink:href="actions_8h.html#a1fec7da4166b9612d2deec3d0262d60f" target="_top" xlink:title="dispatchOnStack">
<polygon fill="white" stroke="black" points="226,-0.5 226,-19.5 318,-19.5 318,-0.5 226,-0.5"/>
<text text-anchor="middle" x="272" y="-7.5" font-family="Helvetica,sans-Serif" font-size="10.00">dispatchOnStack</text>
</a>
</g>
</g>
<!-- Node13&#45;&gt;Node14 -->
<g id="edge14" class="edge"><title>Node13&#45;&gt;Node14</title>
<path fill="none" stroke="midnightblue" d="M197.327,-19.8231C207.014,-18.5315 216.761,-17.2318 225.851,-16.0199"/>
<polygon fill="midnightblue" stroke="midnightblue" points="196.733,-16.3713 187.283,-21.1623 197.658,-23.3099 196.733,-16.3713"/>
</g>
</g>
</svg>
