<?xml version="1.0" encoding="UTF-8" standalone="no"?>
<!DOCTYPE svg PUBLIC "-//W3C//DTD SVG 1.1//EN"
 "http://www.w3.org/Graphics/SVG/1.1/DTD/svg11.dtd">
<!-- Generated by graphviz version 2.38.0 (20140413.2041)
 -->
<!-- Title: blinkMorseDigit Pages: 1 -->
<svg width="478pt" height="142pt"
 viewBox="0.00 0.00 478.00 142.00" xmlns="http://www.w3.org/2000/svg" xmlns:xlink="http://www.w3.org/1999/xlink">
<g id="graph0" class="graph" transform="scale(1 1) rotate(0) translate(4 138)">
<title>blinkMorseDigit</title>
<polygon fill="white" stroke="none" points="-4,4 -4,-138 474,-138 474,4 -4,4"/>
<!-- Node1 -->
<g id="node1" class="node"><title>Node1</title>
<polygon fill="#bfbfbf" stroke="black" points="0,-38.5 0,-57.5 84,-57.5 84,-38.5 0,-38.5"/>
<text text-anchor="middle" x="42" y="-45.5" font-family="Helvetica,sans-Serif" font-size="10.00">blinkMorseDigit</text>
</g>
<!-- Node2 -->
<g id="node2" class="node"><title>Node2</title>
<g id="a_node2"><a xlink:href="teensy3__morse__bsp_8cpp.html#af66e71e3fac9b6a2c6532bc8a513bfde" target="_top" xlink:title="Output a square wave on pin 10 at the given frequency for the given duration. ">
<polygon fill="white" stroke="black" points="137,-57.5 137,-76.5 175,-76.5 175,-57.5 137,-57.5"/>
<text text-anchor="middle" x="156" y="-64.5" font-family="Helvetica,sans-Serif" font-size="10.00">beep</text>
</a>
</g>
</g>
<!-- Node1&#45;&gt;Node2 -->
<g id="edge1" class="edge"><title>Node1&#45;&gt;Node2</title>
<path fill="none" stroke="midnightblue" d="M84.0687,-54.967C98.2133,-57.3665 113.729,-59.9986 126.632,-62.1876"/>
<polygon fill="midnightblue" stroke="midnightblue" points="126.325,-65.6854 136.77,-63.9074 127.496,-58.784 126.325,-65.6854"/>
</g>
<!-- Node8 -->
<g id="node8" class="node"><title>Node8</title>
<g id="a_node8"><a xlink:href="settings_8cpp.html#a960551e90dfdad18f3c9b1338ccba7db" target="_top" xlink:title="Get the dit duration in microseconds. ">
<polygon fill="white" stroke="black" points="120,-19.5 120,-38.5 192,-38.5 192,-19.5 120,-19.5"/>
<text text-anchor="middle" x="156" y="-26.5" font-family="Helvetica,sans-Serif" font-size="10.00">getDitMicros</text>
</a>
</g>
</g>
<!-- Node1&#45;&gt;Node8 -->
<g id="edge7" class="edge"><title>Node1&#45;&gt;Node8</title>
<path fill="none" stroke="midnightblue" d="M84.0687,-41.033C92.413,-39.6174 101.234,-38.1209 109.715,-36.6822"/>
<polygon fill="midnightblue" stroke="midnightblue" points="110.562,-40.0886 119.836,-34.9653 109.392,-33.1872 110.562,-40.0886"/>
</g>
<!-- Node3 -->
<g id="node3" class="node"><title>Node3</title>
<g id="a_node3"><a xlink:href="teensy3__morse__bsp_8cpp.html#a6f674d5b9985ea3a7eeb0df299c2e405" target="_top" xlink:title="pollEarphonePresent">
<polygon fill="white" stroke="black" points="228,-114.5 228,-133.5 335,-133.5 335,-114.5 228,-114.5"/>
<text text-anchor="middle" x="281.5" y="-121.5" font-family="Helvetica,sans-Serif" font-size="10.00">pollEarphonePresent</text>
</a>
</g>
</g>
<!-- Node2&#45;&gt;Node3 -->
<g id="edge2" class="edge"><title>Node2&#45;&gt;Node3</title>
<path fill="none" stroke="midnightblue" d="M173.303,-76.5961C187.481,-84.7284 208.718,-96.4047 228,-105 232.521,-107.015 237.327,-108.982 242.124,-110.841"/>
<polygon fill="midnightblue" stroke="midnightblue" points="241.274,-114.259 251.866,-114.482 243.725,-107.702 241.274,-114.259"/>
</g>
<!-- Node4 -->
<g id="node4" class="node"><title>Node4</title>
<g id="a_node4"><a xlink:href="teensy3__morse__bsp_8cpp.html#a2d6b4ace33ed5e497dedd03217540c63" target="_top" xlink:title="Set the PWM frequency for the audio output pins. ">
<polygon fill="white" stroke="black" points="240,-76.5 240,-95.5 323,-95.5 323,-76.5 240,-76.5"/>
<text text-anchor="middle" x="281.5" y="-83.5" font-family="Helvetica,sans-Serif" font-size="10.00">pwmFrequency</text>
</a>
</g>
</g>
<!-- Node2&#45;&gt;Node4 -->
<g id="edge3" class="edge"><title>Node2&#45;&gt;Node4</title>
<path fill="none" stroke="midnightblue" d="M175.223,-69.8035C189.679,-72.0275 210.61,-75.2476 230.007,-78.2318"/>
<polygon fill="midnightblue" stroke="midnightblue" points="229.552,-81.7029 239.968,-79.7643 230.616,-74.7843 229.552,-81.7029"/>
</g>
<!-- Node5 -->
<g id="node5" class="node"><title>Node5</title>
<g id="a_node5"><a xlink:href="teensy3__morse__bsp_8cpp.html#a82911eac3bf13d6f36d10102a4c4d3c4" target="_top" xlink:title="Generate a tone on the audio output pins. ">
<polygon fill="white" stroke="black" points="251,-38.5 251,-57.5 312,-57.5 312,-38.5 251,-38.5"/>
<text text-anchor="middle" x="281.5" y="-45.5" font-family="Helvetica,sans-Serif" font-size="10.00">pwmWrite</text>
</a>
</g>
</g>
<!-- Node2&#45;&gt;Node5 -->
<g id="edge4" class="edge"><title>Node2&#45;&gt;Node5</title>
<path fill="none" stroke="midnightblue" d="M175.223,-64.1965C192.368,-61.5587 218.623,-57.5196 240.623,-54.1349"/>
<polygon fill="midnightblue" stroke="midnightblue" points="241.351,-57.5642 250.703,-52.5842 240.287,-50.6456 241.351,-57.5642"/>
</g>
<!-- Node7 -->
<g id="node7" class="node"><title>Node7</title>
<g id="a_node7"><a xlink:href="teensy3__morse__bsp_8cpp.html#a6c982a7d7805f1dd5426eb98c915cfdd" target="_top" xlink:title="Turn the red LED on (1) or off (0). ">
<polygon fill="white" stroke="black" points="256.5,-0.5 256.5,-19.5 306.5,-19.5 306.5,-0.5 256.5,-0.5"/>
<text text-anchor="middle" x="281.5" y="-7.5" font-family="Helvetica,sans-Serif" font-size="10.00">redLED</text>
</a>
</g>
</g>
<!-- Node2&#45;&gt;Node7 -->
<g id="edge6" class="edge"><title>Node2&#45;&gt;Node7</title>
<path fill="none" stroke="midnightblue" d="M174.736,-57.4255C194.867,-46.5699 225.286,-30.2096 228,-29 233.984,-26.3324 240.469,-23.7489 246.771,-21.391"/>
<polygon fill="midnightblue" stroke="midnightblue" points="248.219,-24.5891 256.429,-17.8919 245.835,-18.0078 248.219,-24.5891"/>
</g>
<!-- Node6 -->
<g id="node6" class="node"><title>Node6</title>
<g id="a_node6"><a xlink:href="teensy3__morse__bsp_8cpp.html#ac70998cee1bf97f00aec4a1b4e5a4f60" target="_top" xlink:title="isEarphonePresent">
<polygon fill="white" stroke="black" points="371,-38.5 371,-57.5 470,-57.5 470,-38.5 371,-38.5"/>
<text text-anchor="middle" x="420.5" y="-45.5" font-family="Helvetica,sans-Serif" font-size="10.00">isEarphonePresent</text>
</a>
</g>
</g>
<!-- Node5&#45;&gt;Node6 -->
<g id="edge5" class="edge"><title>Node5&#45;&gt;Node6</title>
<path fill="none" stroke="midnightblue" d="M312.227,-48C326.434,-48 343.959,-48 360.696,-48"/>
<polygon fill="midnightblue" stroke="midnightblue" points="360.979,-51.5001 370.979,-48 360.979,-44.5001 360.979,-51.5001"/>
</g>
</g>
</svg>
