<?xml version="1.0" encoding="UTF-8" standalone="no"?>
<!DOCTYPE svg PUBLIC "-//W3C//DTD SVG 1.1//EN"
 "http://www.w3.org/Graphics/SVG/1.1/DTD/svg11.dtd">
<!-- Generated by graphviz version 2.38.0 (20140413.2041)
 -->
<!-- Title: bmd104 Pages: 1 -->
<svg width="445pt" height="142pt"
 viewBox="0.00 0.00 445.00 142.00" xmlns="http://www.w3.org/2000/svg" xmlns:xlink="http://www.w3.org/1999/xlink">
<g id="graph0" class="graph" transform="scale(1 1) rotate(0) translate(4 138)">
<title>bmd104</title>
<polygon fill="white" stroke="none" points="-4,4 -4,-138 441,-138 441,4 -4,4"/>
<!-- Node1 -->
<g id="node1" class="node"><title>Node1</title>
<polygon fill="#bfbfbf" stroke="black" points="0,-38.5 0,-57.5 51,-57.5 51,-38.5 0,-38.5"/>
<text text-anchor="middle" x="25.5" y="-45.5" font-family="Helvetica,sans-Serif" font-size="10.00">bmd104</text>
</g>
<!-- Node2 -->
<g id="node2" class="node"><title>Node2</title>
<g id="a_node2"><a xlink:href="teensy3__morse__bsp_8cpp.html#af66e71e3fac9b6a2c6532bc8a513bfde" target="_top" xlink:title="Output a square wave on pin 10 at the given frequency for the given duration. ">
<polygon fill="white" stroke="black" points="104,-57.5 104,-76.5 142,-76.5 142,-57.5 104,-57.5"/>
<text text-anchor="middle" x="123" y="-64.5" font-family="Helvetica,sans-Serif" font-size="10.00">beep</text>
</a>
</g>
</g>
<!-- Node1&#45;&gt;Node2 -->
<g id="edge1" class="edge"><title>Node1&#45;&gt;Node2</title>
<path fill="none" stroke="midnightblue" d="M51.0936,-52.893C64.0888,-55.4784 80.1032,-58.6645 93.6226,-61.3542"/>
<polygon fill="midnightblue" stroke="midnightblue" points="93.334,-64.8653 103.825,-63.384 94.6999,-57.9999 93.334,-64.8653"/>
</g>
<!-- Node8 -->
<g id="node8" class="node"><title>Node8</title>
<g id="a_node8"><a xlink:href="settings_8cpp.html#a960551e90dfdad18f3c9b1338ccba7db" target="_top" xlink:title="Get the dit duration in microseconds. ">
<polygon fill="white" stroke="black" points="87,-19.5 87,-38.5 159,-38.5 159,-19.5 87,-19.5"/>
<text text-anchor="middle" x="123" y="-26.5" font-family="Helvetica,sans-Serif" font-size="10.00">getDitMicros</text>
</a>
</g>
</g>
<!-- Node1&#45;&gt;Node8 -->
<g id="edge7" class="edge"><title>Node1&#45;&gt;Node8</title>
<path fill="none" stroke="midnightblue" d="M51.0936,-43.107C58.9638,-41.5412 67.9413,-39.7551 76.8014,-37.9924"/>
<polygon fill="midnightblue" stroke="midnightblue" points="77.5647,-41.4092 86.6895,-36.0251 76.1987,-34.5438 77.5647,-41.4092"/>
</g>
<!-- Node3 -->
<g id="node3" class="node"><title>Node3</title>
<g id="a_node3"><a xlink:href="teensy3__morse__bsp_8cpp.html#a6f674d5b9985ea3a7eeb0df299c2e405" target="_top" xlink:title="pollEarphonePresent">
<polygon fill="white" stroke="black" points="195,-114.5 195,-133.5 302,-133.5 302,-114.5 195,-114.5"/>
<text text-anchor="middle" x="248.5" y="-121.5" font-family="Helvetica,sans-Serif" font-size="10.00">pollEarphonePresent</text>
</a>
</g>
</g>
<!-- Node2&#45;&gt;Node3 -->
<g id="edge2" class="edge"><title>Node2&#45;&gt;Node3</title>
<path fill="none" stroke="midnightblue" d="M140.303,-76.5961C154.481,-84.7284 175.718,-96.4047 195,-105 199.521,-107.015 204.327,-108.982 209.124,-110.841"/>
<polygon fill="midnightblue" stroke="midnightblue" points="208.274,-114.259 218.866,-114.482 210.725,-107.702 208.274,-114.259"/>
</g>
<!-- Node4 -->
<g id="node4" class="node"><title>Node4</title>
<g id="a_node4"><a xlink:href="teensy3__morse__bsp_8cpp.html#a2d6b4ace33ed5e497dedd03217540c63" target="_top" xlink:title="Set the PWM frequency for the audio output pins. ">
<polygon fill="white" stroke="black" points="207,-76.5 207,-95.5 290,-95.5 290,-76.5 207,-76.5"/>
<text text-anchor="middle" x="248.5" y="-83.5" font-family="Helvetica,sans-Serif" font-size="10.00">pwmFrequency</text>
</a>
</g>
</g>
<!-- Node2&#45;&gt;Node4 -->
<g id="edge3" class="edge"><title>Node2&#45;&gt;Node4</title>
<path fill="none" stroke="midnightblue" d="M142.223,-69.8035C156.679,-72.0275 177.61,-75.2476 197.007,-78.2318"/>
<polygon fill="midnightblue" stroke="midnightblue" points="196.552,-81.7029 206.968,-79.7643 197.616,-74.7843 196.552,-81.7029"/>
</g>
<!-- Node5 -->
<g id="node5" class="node"><title>Node5</title>
<g id="a_node5"><a xlink:href="teensy3__morse__bsp_8cpp.html#a82911eac3bf13d6f36d10102a4c4d3c4" target="_top" xlink:title="Generate a tone on the audio output pins. ">
<polygon fill="white" stroke="black" points="218,-38.5 218,-57.5 279,-57.5 279,-38.5 218,-38.5"/>
<text text-anchor="middle" x="248.5" y="-45.5" font-family="Helvetica,sans-Serif" font-size="10.00">pwmWrite</text>
</a>
</g>
</g>
<!-- Node2&#45;&gt;Node5 -->
<g id="edge4" class="edge"><title>Node2&#45;&gt;Node5</title>
<path fill="none" stroke="midnightblue" d="M142.223,-64.1965C159.368,-61.5587 185.623,-57.5196 207.623,-54.1349"/>
<polygon fill="midnightblue" stroke="midnightblue" points="208.351,-57.5642 217.703,-52.5842 207.287,-50.6456 208.351,-57.5642"/>
</g>
<!-- Node7 -->
<g id="node7" class="node"><title>Node7</title>
<g id="a_node7"><a xlink:href="teensy3__morse__bsp_8cpp.html#a6c982a7d7805f1dd5426eb98c915cfdd" target="_top" xlink:title="Turn the red LED on (1) or off (0). ">
<polygon fill="white" stroke="black" points="223.5,-0.5 223.5,-19.5 273.5,-19.5 273.5,-0.5 223.5,-0.5"/>
<text text-anchor="middle" x="248.5" y="-7.5" font-family="Helvetica,sans-Serif" font-size="10.00">redLED</text>
</a>
</g>
</g>
<!-- Node2&#45;&gt;Node7 -->
<g id="edge6" class="edge"><title>Node2&#45;&gt;Node7</title>
<path fill="none" stroke="midnightblue" d="M141.736,-57.4255C161.867,-46.5699 192.286,-30.2096 195,-29 200.984,-26.3324 207.469,-23.7489 213.771,-21.391"/>
<polygon fill="midnightblue" stroke="midnightblue" points="215.219,-24.5891 223.429,-17.8919 212.835,-18.0078 215.219,-24.5891"/>
</g>
<!-- Node6 -->
<g id="node6" class="node"><title>Node6</title>
<g id="a_node6"><a xlink:href="teensy3__morse__bsp_8cpp.html#ac70998cee1bf97f00aec4a1b4e5a4f60" target="_top" xlink:title="isEarphonePresent">
<polygon fill="white" stroke="black" points="338,-38.5 338,-57.5 437,-57.5 437,-38.5 338,-38.5"/>
<text text-anchor="middle" x="387.5" y="-45.5" font-family="Helvetica,sans-Serif" font-size="10.00">isEarphonePresent</text>
</a>
</g>
</g>
<!-- Node5&#45;&gt;Node6 -->
<g id="edge5" class="edge"><title>Node5&#45;&gt;Node6</title>
<path fill="none" stroke="midnightblue" d="M279.227,-48C293.434,-48 310.959,-48 327.696,-48"/>
<polygon fill="midnightblue" stroke="midnightblue" points="327.979,-51.5001 337.979,-48 327.979,-44.5001 327.979,-51.5001"/>
</g>
</g>
</svg>
