<?xml version="1.0" encoding="UTF-8" standalone="no"?>
<!DOCTYPE svg PUBLIC "-//W3C//DTD SVG 1.1//EN"
 "http://www.w3.org/Graphics/SVG/1.1/DTD/svg11.dtd">
<!-- Generated by graphviz version 2.38.0 (20140413.2041)
 -->
<!-- Title: morse_token.h Pages: 1 -->
<svg width="247pt" height="140pt"
 viewBox="0.00 0.00 247.00 140.00" xmlns="http://www.w3.org/2000/svg" xmlns:xlink="http://www.w3.org/1999/xlink">
<g id="graph0" class="graph" transform="scale(1 1) rotate(0) translate(4 136)">
<title>morse_token.h</title>
<polygon fill="white" stroke="none" points="-4,4 -4,-136 243,-136 243,4 -4,4"/>
<!-- Node1 -->
<g id="node1" class="node"><title>Node1</title>
<polygon fill="#bfbfbf" stroke="black" points="69.5,-112.5 69.5,-131.5 150.5,-131.5 150.5,-112.5 69.5,-112.5"/>
<text text-anchor="middle" x="110" y="-119.5" font-family="Helvetica,sans-Serif" font-size="10.00">morse_token.h</text>
</g>
<!-- Node2 -->
<g id="node2" class="node"><title>Node2</title>
<polygon fill="white" stroke="#bfbfbf" points="0,-56.5 0,-75.5 56,-75.5 56,-56.5 0,-56.5"/>
<text text-anchor="middle" x="28" y="-63.5" font-family="Helvetica,sans-Serif" font-size="10.00">cinttypes</text>
</g>
<!-- Node1&#45;&gt;Node2 -->
<g id="edge1" class="edge"><title>Node1&#45;&gt;Node2</title>
<path fill="none" stroke="midnightblue" d="M96.8253,-112.324C84.1532,-103.979 64.7666,-91.2122 49.7944,-81.3524"/>
<polygon fill="midnightblue" stroke="midnightblue" points="51.4187,-78.2313 41.142,-75.6545 47.5688,-84.0776 51.4187,-78.2313"/>
</g>
<!-- Node3 -->
<g id="node3" class="node"><title>Node3</title>
<polygon fill="white" stroke="#bfbfbf" points="87.5,-0.5 87.5,-19.5 132.5,-19.5 132.5,-0.5 87.5,-0.5"/>
<text text-anchor="middle" x="110" y="-7.5" font-family="Helvetica,sans-Serif" font-size="10.00">climits</text>
</g>
<!-- Node1&#45;&gt;Node3 -->
<g id="edge2" class="edge"><title>Node1&#45;&gt;Node3</title>
<path fill="none" stroke="midnightblue" d="M108.013,-112.184C105.435,-99.6994 101.443,-76.1428 103,-56 103.679,-47.2204 105.092,-37.5626 106.472,-29.4526"/>
<polygon fill="midnightblue" stroke="midnightblue" points="109.922,-30.0446 108.261,-19.5806 103.034,-28.7961 109.922,-30.0446"/>
</g>
<!-- Node4 -->
<g id="node4" class="node"><title>Node4</title>
<polygon fill="white" stroke="#bfbfbf" points="112.5,-56.5 112.5,-75.5 161.5,-75.5 161.5,-56.5 112.5,-56.5"/>
<text text-anchor="middle" x="137" y="-63.5" font-family="Helvetica,sans-Serif" font-size="10.00">cstddef</text>
</g>
<!-- Node1&#45;&gt;Node4 -->
<g id="edge3" class="edge"><title>Node1&#45;&gt;Node4</title>
<path fill="none" stroke="midnightblue" d="M114.459,-112.083C118.154,-104.691 123.523,-93.9533 128.094,-84.8111"/>
<polygon fill="midnightblue" stroke="midnightblue" points="131.283,-86.2606 132.624,-75.7511 125.022,-83.1301 131.283,-86.2606"/>
</g>
<!-- Node5 -->
<g id="node5" class="node"><title>Node5</title>
<g id="a_node5"><a xlink:href="prosign_8h.html" target="_top" xlink:title="Prosign constants. ">
<polygon fill="white" stroke="black" points="180,-56.5 180,-75.5 236,-75.5 236,-56.5 180,-56.5"/>
<text text-anchor="middle" x="208" y="-63.5" font-family="Helvetica,sans-Serif" font-size="10.00">prosign.h</text>
</a>
</g>
</g>
<!-- Node1&#45;&gt;Node5 -->
<g id="edge4" class="edge"><title>Node1&#45;&gt;Node5</title>
<path fill="none" stroke="midnightblue" d="M125.745,-112.324C141.319,-103.743 165.377,-90.486 183.459,-80.5224"/>
<polygon fill="midnightblue" stroke="midnightblue" points="185.224,-83.546 192.294,-75.6545 181.846,-77.4152 185.224,-83.546"/>
</g>
<!-- Node5&#45;&gt;Node3 -->
<g id="edge6" class="edge"><title>Node5&#45;&gt;Node3</title>
<path fill="none" stroke="midnightblue" d="M192.255,-56.324C176.681,-47.7428 152.623,-34.486 134.541,-24.5224"/>
<polygon fill="midnightblue" stroke="midnightblue" points="136.154,-21.4152 125.706,-19.6545 132.776,-27.546 136.154,-21.4152"/>
</g>
<!-- Node6 -->
<g id="node6" class="node"><title>Node6</title>
<g id="a_node6"><a xlink:href="binconst_8h.html" target="_top" xlink:title="Binary constant generator macro. ">
<polygon fill="white" stroke="black" points="177,-0.5 177,-19.5 239,-19.5 239,-0.5 177,-0.5"/>
<text text-anchor="middle" x="208" y="-7.5" font-family="Helvetica,sans-Serif" font-size="10.00">binconst.h</text>
</a>
</g>
</g>
<!-- Node5&#45;&gt;Node6 -->
<g id="edge5" class="edge"><title>Node5&#45;&gt;Node6</title>
<path fill="none" stroke="midnightblue" d="M208,-56.083C208,-49.0059 208,-38.8611 208,-29.9865"/>
<polygon fill="midnightblue" stroke="midnightblue" points="211.5,-29.751 208,-19.7511 204.5,-29.7511 211.5,-29.751"/>
</g>
</g>
</svg>
