<?xml version="1.0" encoding="UTF-8" standalone="no"?>
<!DOCTYPE svg PUBLIC "-//W3C//DTD SVG 1.1//EN"
 "http://www.w3.org/Graphics/SVG/1.1/DTD/svg11.dtd">
<!-- Generated by graphviz version 2.38.0 (20140413.2041)
 -->
<!-- Title: morse_digit.cpp Pages: 1 -->
<!--zoomable 308 -->
<svg id="main" version="1.1" xmlns="http://www.w3.org/2000/svg" xmlns:xlink="http://www.w3.org/1999/xlink" xml:space="preserve" onload="init(evt)">
<style type="text/css"><![CDATA[
.edge:hover path { stroke: red; }
.edge:hover polygon { stroke: red; fill: red; }
]]></style>
<script type="text/javascript"><![CDATA[
var edges = document.getElementsByTagName('g');
if (edges && edges.length) {
  for (var i=0;i<edges.length;i++) {
    if (edges[i].id.substr(0,4)=='edge') {
      edges[i].setAttribute('class','edge');
    }
  }
}
]]></script>
        <defs>
                <circle id="rim" cx="0" cy="0" r="7"/>
                <circle id="rim2" cx="0" cy="0" r="3.5"/>
                <g id="zoomPlus">
                        <use xlink:href="#rim" fill="#404040">
                                <set attributeName="fill" to="#808080" begin="zoomplus.mouseover" end="zoomplus.mouseout"/>
                        </use>
                        <path d="M-4,0h8M0,-4v8" fill="none" stroke="white" stroke-width="1.5" pointer-events="none"/>
                </g>
                <g id="zoomMin">
                        <use xlink:href="#rim" fill="#404040">
                                <set attributeName="fill" to="#808080" begin="zoomminus.mouseover" end="zoomminus.mouseout"/>
                        </use>
                        <path d="M-4,0h8" fill="none" stroke="white" stroke-width="1.5" pointer-events="none"/>
                </g>
                <g id="dirArrow">
                        <path fill="none" stroke="white" stroke-width="1.5" d="M0,-3.0v7 M-2.5,-0.5L0,-3.0L2.5,-0.5"/>
                </g>
               <g id="resetDef">
                       <use xlink:href="#rim2" fill="#404040">
                               <set attributeName="fill" to="#808080" begin="reset.mouseover" end="reset.mouseout"/>
                       </use>
               </g>
        </defs>

<script type="text/javascript">
var viewWidth = 685;
var viewHeight = 308;
var sectionId = 'dynsection-0';
</script>
<script xlink:href="svgpan.js"/>
<svg id="graph" class="graph">
<g id="viewport">
<title>morse_digit.cpp</title>
<polygon fill="white" stroke="none" points="-4,4 -4,-304 681,-304 681,4 -4,4"/>
<!-- Node1 -->
<g id="node1" class="node"><title>Node1</title>
<polygon fill="#bfbfbf" stroke="black" points="482.5,-280.5 482.5,-299.5 568.5,-299.5 568.5,-280.5 482.5,-280.5"/>
<text text-anchor="middle" x="525.5" y="-287.5" font-family="Helvetica,sans-Serif" font-size="10.00">morse_digit.cpp</text>
</g>
<!-- Node2 -->
<g id="node2" class="node"><title>Node2</title>
<g id="a_node2"><a xlink:href="teensy3__morse__bsp_8h.xhtml" target="_top" xlink:title="Teensy 3.0 board support package. ">
<polygon fill="white" stroke="black" points="478,-112.5 478,-131.5 591,-131.5 591,-112.5 478,-112.5"/>
<text text-anchor="middle" x="534.5" y="-119.5" font-family="Helvetica,sans-Serif" font-size="10.00">teensy3_morse_bsp.h</text>
</a>
</g>
</g>
<!-- Node1&#45;&gt;Node2 -->
<g id="edge1" class="edge"><title>Node1&#45;&gt;Node2</title>
<path fill="none" stroke="midnightblue" d="M523.265,-280.449C521.038,-271.453 517.772,-256.844 516.5,-244 512.887,-207.51 522.335,-165.201 528.87,-141.521"/>
<polygon fill="midnightblue" stroke="midnightblue" points="532.274,-142.348 531.692,-131.769 525.55,-140.402 532.274,-142.348"/>
</g>
<!-- Node4 -->
<g id="node4" class="node"><title>Node4</title>
<g id="a_node4"><a xlink:href="settings_8h.xhtml" target="_top" xlink:title="User settings. ">
<polygon fill="white" stroke="black" points="525,-224.5 525,-243.5 584,-243.5 584,-224.5 525,-224.5"/>
<text text-anchor="middle" x="554.5" y="-231.5" font-family="Helvetica,sans-Serif" font-size="10.00">settings.h</text>
</a>
</g>
</g>
<!-- Node1&#45;&gt;Node4 -->
<g id="edge3" class="edge"><title>Node1&#45;&gt;Node4</title>
<path fill="none" stroke="midnightblue" d="M530.289,-280.083C534.258,-272.691 540.025,-261.953 544.935,-252.811"/>
<polygon fill="midnightblue" stroke="midnightblue" points="548.153,-254.217 549.8,-243.751 541.986,-250.905 548.153,-254.217"/>
</g>
<!-- Node5 -->
<g id="node5" class="node"><title>Node5</title>
<g id="a_node5"><a xlink:href="actions_8h.xhtml" target="_top" xlink:title="Application&#45;specific actions. ">
<polygon fill="white" stroke="black" points="371.5,-224.5 371.5,-243.5 427.5,-243.5 427.5,-224.5 371.5,-224.5"/>
<text text-anchor="middle" x="399.5" y="-231.5" font-family="Helvetica,sans-Serif" font-size="10.00">actions.h</text>
</a>
</g>
</g>
<!-- Node1&#45;&gt;Node5 -->
<g id="edge4" class="edge"><title>Node1&#45;&gt;Node5</title>
<path fill="none" stroke="midnightblue" d="M505.535,-280.444C484.891,-271.596 452.437,-257.687 428.868,-247.586"/>
<polygon fill="midnightblue" stroke="midnightblue" points="429.942,-244.239 419.372,-243.516 427.184,-250.673 429.942,-244.239"/>
</g>
<!-- Node15 -->
<g id="node15" class="node"><title>Node15</title>
<g id="a_node15"><a xlink:href="morse__digit_8h.xhtml" target="_top" xlink:title="Three implementations of a function that converts a decimal digit to Morse code. ">
<polygon fill="white" stroke="black" points="602,-224.5 602,-243.5 677,-243.5 677,-224.5 602,-224.5"/>
<text text-anchor="middle" x="639.5" y="-231.5" font-family="Helvetica,sans-Serif" font-size="10.00">morse_digit.h</text>
</a>
</g>
</g>
<!-- Node1&#45;&gt;Node15 -->
<g id="edge21" class="edge"><title>Node1&#45;&gt;Node15</title>
<path fill="none" stroke="midnightblue" d="M543.564,-280.444C562.075,-271.675 591.081,-257.935 612.355,-247.858"/>
<polygon fill="midnightblue" stroke="midnightblue" points="613.982,-250.96 621.521,-243.516 610.985,-244.634 613.982,-250.96"/>
</g>
<!-- Node3 -->
<g id="node3" class="node"><title>Node3</title>
<polygon fill="white" stroke="#bfbfbf" points="488.5,-56.5 488.5,-75.5 546.5,-75.5 546.5,-56.5 488.5,-56.5"/>
<text text-anchor="middle" x="517.5" y="-63.5" font-family="Helvetica,sans-Serif" font-size="10.00">Arduino.h</text>
</g>
<!-- Node2&#45;&gt;Node3 -->
<g id="edge2" class="edge"><title>Node2&#45;&gt;Node3</title>
<path fill="none" stroke="midnightblue" d="M531.693,-112.083C529.415,-104.849 526.129,-94.4087 523.292,-85.3968"/>
<polygon fill="midnightblue" stroke="midnightblue" points="526.596,-84.2385 520.255,-75.7511 519.919,-86.3406 526.596,-84.2385"/>
</g>
<!-- Node5&#45;&gt;Node3 -->
<g id="edge5" class="edge"><title>Node5&#45;&gt;Node3</title>
<path fill="none" stroke="midnightblue" d="M403.461,-224.245C413.056,-203.534 439.017,-150.393 469.5,-112 478.18,-101.068 489.511,-90.3186 498.984,-82.0688"/>
<polygon fill="midnightblue" stroke="midnightblue" points="501.347,-84.6539 506.717,-75.5206 496.823,-79.3118 501.347,-84.6539"/>
</g>
<!-- Node6 -->
<g id="node6" class="node"><title>Node6</title>
<g id="a_node6"><a xlink:href="libmorse_8h.xhtml" target="_top" xlink:title="Morse code operations. ">
<polygon fill="white" stroke="black" points="222.5,-168.5 222.5,-187.5 284.5,-187.5 284.5,-168.5 222.5,-168.5"/>
<text text-anchor="middle" x="253.5" y="-175.5" font-family="Helvetica,sans-Serif" font-size="10.00">libmorse.h</text>
</a>
</g>
</g>
<!-- Node5&#45;&gt;Node6 -->
<g id="edge6" class="edge"><title>Node5&#45;&gt;Node6</title>
<path fill="none" stroke="midnightblue" d="M376.366,-224.444C352.018,-215.438 313.493,-201.189 286.077,-191.049"/>
<polygon fill="midnightblue" stroke="midnightblue" points="287.119,-187.703 276.526,-187.516 284.691,-194.268 287.119,-187.703"/>
</g>
<!-- Node12 -->
<g id="node12" class="node"><title>Node12</title>
<g id="a_node12"><a xlink:href="morse__token_8h.xhtml" target="_top" xlink:title="Defines the MorseToken class and various helpers. ">
<polygon fill="white" stroke="black" points="266,-112.5 266,-131.5 347,-131.5 347,-112.5 266,-112.5"/>
<text text-anchor="middle" x="306.5" y="-119.5" font-family="Helvetica,sans-Serif" font-size="10.00">morse_token.h</text>
</a>
</g>
</g>
<!-- Node5&#45;&gt;Node12 -->
<g id="edge20" class="edge"><title>Node5&#45;&gt;Node12</title>
<path fill="none" stroke="midnightblue" d="M392.202,-224.368C376.719,-206.055 340.36,-163.049 320.334,-139.362"/>
<polygon fill="midnightblue" stroke="midnightblue" points="322.893,-136.968 313.764,-131.591 317.547,-141.488 322.893,-136.968"/>
</g>
<!-- Node6&#45;&gt;Node2 -->
<g id="edge12" class="edge"><title>Node6&#45;&gt;Node2</title>
<path fill="none" stroke="midnightblue" d="M284.646,-171.015C331.691,-161.974 421.545,-144.707 479.701,-133.531"/>
<polygon fill="midnightblue" stroke="midnightblue" points="480.657,-136.911 489.817,-131.587 479.336,-130.037 480.657,-136.911"/>
</g>
<!-- Node7 -->
<g id="node7" class="node"><title>Node7</title>
<g id="a_node7"><a xlink:href="binconst_8h.xhtml" target="_top" xlink:title="Binary constant generator macro. ">
<polygon fill="white" stroke="black" points="161.5,-0.5 161.5,-19.5 223.5,-19.5 223.5,-0.5 161.5,-0.5"/>
<text text-anchor="middle" x="192.5" y="-7.5" font-family="Helvetica,sans-Serif" font-size="10.00">binconst.h</text>
</a>
</g>
</g>
<!-- Node6&#45;&gt;Node7 -->
<g id="edge7" class="edge"><title>Node6&#45;&gt;Node7</title>
<path fill="none" stroke="midnightblue" d="M239.949,-168.453C217.162,-153.173 171.951,-118.735 154.5,-76 147.229,-58.1957 160.867,-39.3872 173.781,-26.6092"/>
<polygon fill="midnightblue" stroke="midnightblue" points="176.152,-29.184 181.138,-19.8358 171.411,-24.0342 176.152,-29.184"/>
</g>
<!-- Node8 -->
<g id="node8" class="node"><title>Node8</title>
<polygon fill="white" stroke="#bfbfbf" points="0,-112.5 0,-131.5 43,-131.5 43,-112.5 0,-112.5"/>
<text text-anchor="middle" x="21.5" y="-119.5" font-family="Helvetica,sans-Serif" font-size="10.00">cstdio</text>
</g>
<!-- Node6&#45;&gt;Node8 -->
<g id="edge8" class="edge"><title>Node6&#45;&gt;Node8</title>
<path fill="none" stroke="midnightblue" d="M222.367,-170.658C184.596,-162.827 118.787,-148.745 52.8578,-131.962"/>
<polygon fill="midnightblue" stroke="midnightblue" points="53.6891,-128.562 43.133,-129.467 51.9492,-135.343 53.6891,-128.562"/>
</g>
<!-- Node9 -->
<g id="node9" class="node"><title>Node9</title>
<polygon fill="white" stroke="#bfbfbf" points="61.5,-112.5 61.5,-131.5 107.5,-131.5 107.5,-112.5 61.5,-112.5"/>
<text text-anchor="middle" x="84.5" y="-119.5" font-family="Helvetica,sans-Serif" font-size="10.00">cstring</text>
</g>
<!-- Node6&#45;&gt;Node9 -->
<g id="edge9" class="edge"><title>Node6&#45;&gt;Node9</title>
<path fill="none" stroke="midnightblue" d="M226.721,-168.444C197.075,-158.971 149.271,-143.696 117.376,-133.505"/>
<polygon fill="midnightblue" stroke="midnightblue" points="118.214,-130.098 107.623,-130.388 116.083,-136.766 118.214,-130.098"/>
</g>
<!-- Node10 -->
<g id="node10" class="node"><title>Node10</title>
<polygon fill="white" stroke="#bfbfbf" points="163.5,-56.5 163.5,-75.5 219.5,-75.5 219.5,-56.5 163.5,-56.5"/>
<text text-anchor="middle" x="191.5" y="-63.5" font-family="Helvetica,sans-Serif" font-size="10.00">cinttypes</text>
</g>
<!-- Node6&#45;&gt;Node10 -->
<g id="edge10" class="edge"><title>Node6&#45;&gt;Node10</title>
<path fill="none" stroke="midnightblue" d="M248.635,-168.368C238.448,-150.296 214.709,-108.176 201.255,-84.3074"/>
<polygon fill="midnightblue" stroke="midnightblue" points="204.302,-82.5844 196.342,-75.5914 198.204,-86.0215 204.302,-82.5844"/>
</g>
<!-- Node11 -->
<g id="node11" class="node"><title>Node11</title>
<polygon fill="white" stroke="#bfbfbf" points="299,-0.5 299,-19.5 344,-19.5 344,-0.5 299,-0.5"/>
<text text-anchor="middle" x="321.5" y="-7.5" font-family="Helvetica,sans-Serif" font-size="10.00">climits</text>
</g>
<!-- Node6&#45;&gt;Node11 -->
<g id="edge11" class="edge"><title>Node6&#45;&gt;Node11</title>
<path fill="none" stroke="midnightblue" d="M284.52,-168.49C323.329,-155.833 387.165,-127.784 407.5,-76 410.749,-67.7262 412.103,-63.6041 407.5,-56 395.907,-36.8501 373.188,-25.4572 354.011,-18.9275"/>
<polygon fill="midnightblue" stroke="midnightblue" points="354.972,-15.5609 344.384,-15.9408 352.898,-22.2466 354.972,-15.5609"/>
</g>
<!-- Node6&#45;&gt;Node12 -->
<g id="edge13" class="edge"><title>Node6&#45;&gt;Node12</title>
<path fill="none" stroke="midnightblue" d="M262.252,-168.083C269.97,-160.22 281.405,-148.569 290.717,-139.081"/>
<polygon fill="midnightblue" stroke="midnightblue" points="293.404,-141.34 297.911,-131.751 288.408,-136.436 293.404,-141.34"/>
</g>
<!-- Node12&#45;&gt;Node10 -->
<g id="edge14" class="edge"><title>Node12&#45;&gt;Node10</title>
<path fill="none" stroke="midnightblue" d="M288.278,-112.444C269.604,-103.675 240.344,-89.9355 218.883,-79.8579"/>
<polygon fill="midnightblue" stroke="midnightblue" points="220.176,-76.5988 209.637,-75.5164 217.201,-82.935 220.176,-76.5988"/>
</g>
<!-- Node12&#45;&gt;Node11 -->
<g id="edge15" class="edge"><title>Node12&#45;&gt;Node11</title>
<path fill="none" stroke="midnightblue" d="M307.677,-112.368C310.098,-94.617 315.682,-53.6664 318.964,-29.5974"/>
<polygon fill="midnightblue" stroke="midnightblue" points="322.445,-29.9726 320.328,-19.5914 315.509,-29.0268 322.445,-29.9726"/>
</g>
<!-- Node13 -->
<g id="node13" class="node"><title>Node13</title>
<polygon fill="white" stroke="#bfbfbf" points="350,-56.5 350,-75.5 399,-75.5 399,-56.5 350,-56.5"/>
<text text-anchor="middle" x="374.5" y="-63.5" font-family="Helvetica,sans-Serif" font-size="10.00">cstddef</text>
</g>
<!-- Node12&#45;&gt;Node13 -->
<g id="edge16" class="edge"><title>Node12&#45;&gt;Node13</title>
<path fill="none" stroke="midnightblue" d="M317.425,-112.324C327.675,-104.185 343.221,-91.8395 355.501,-82.0874"/>
<polygon fill="midnightblue" stroke="midnightblue" points="357.721,-84.7937 363.376,-75.8339 353.368,-79.3119 357.721,-84.7937"/>
</g>
<!-- Node14 -->
<g id="node14" class="node"><title>Node14</title>
<g id="a_node14"><a xlink:href="prosign_8h.xhtml" target="_top" xlink:title="Prosign constants. ">
<polygon fill="white" stroke="black" points="237.5,-56.5 237.5,-75.5 293.5,-75.5 293.5,-56.5 237.5,-56.5"/>
<text text-anchor="middle" x="265.5" y="-63.5" font-family="Helvetica,sans-Serif" font-size="10.00">prosign.h</text>
</a>
</g>
</g>
<!-- Node12&#45;&gt;Node14 -->
<g id="edge17" class="edge"><title>Node12&#45;&gt;Node14</title>
<path fill="none" stroke="midnightblue" d="M299.73,-112.083C293.938,-104.455 285.442,-93.2645 278.362,-83.9408"/>
<polygon fill="midnightblue" stroke="midnightblue" points="280.979,-81.5991 272.144,-75.7511 275.404,-85.8321 280.979,-81.5991"/>
</g>
<!-- Node14&#45;&gt;Node7 -->
<g id="edge18" class="edge"><title>Node14&#45;&gt;Node7</title>
<path fill="none" stroke="midnightblue" d="M253.771,-56.324C242.663,-48.1066 225.758,-35.6017 212.517,-25.8069"/>
<polygon fill="midnightblue" stroke="midnightblue" points="214.563,-22.9671 204.442,-19.8339 210.4,-28.5948 214.563,-22.9671"/>
</g>
<!-- Node14&#45;&gt;Node11 -->
<g id="edge19" class="edge"><title>Node14&#45;&gt;Node11</title>
<path fill="none" stroke="midnightblue" d="M274.497,-56.324C282.694,-48.4196 295.006,-36.5482 304.972,-26.9377"/>
<polygon fill="midnightblue" stroke="midnightblue" points="307.57,-29.2947 312.339,-19.8339 302.711,-24.2558 307.57,-29.2947"/>
</g>
</g>
</svg>
        <g id="navigator" transform="translate(0 0)" fill="#404254">
                <rect fill="#f2f5e9" fill-opacity="0.5" stroke="#606060" stroke-width=".5" x="0" y="0" width="60" height="60"/>
                <use id="zoomplus" xlink:href="#zoomPlus" x="17" y="9" onmousedown="handleZoom(evt,'in')"/>
                <use id="zoomminus" xlink:href="#zoomMin" x="42" y="9" onmousedown="handleZoom(evt,'out')"/>
                <use id="reset" xlink:href="#resetDef" x="30" y="36" onmousedown="handleReset()"/>
                <g id="arrowUp" xlink:href="#dirArrow" transform="translate(30 24)" onmousedown="handlePan(0,-1)">
                  <use xlink:href="#rim" fill="#404040">
                        <set attributeName="fill" to="#808080" begin="arrowUp.mouseover" end="arrowUp.mouseout"/>
                  </use>
                  <path fill="none" stroke="white" stroke-width="1.5" d="M0,-3.0v7 M-2.5,-0.5L0,-3.0L2.5,-0.5"/>
                </g>
                <g id="arrowRight" xlink:href="#dirArrow" transform="rotate(90) translate(36 -43)" onmousedown="handlePan(1,0)">
                  <use xlink:href="#rim" fill="#404040">
                        <set attributeName="fill" to="#808080" begin="arrowRight.mouseover" end="arrowRight.mouseout"/>
                  </use>
                  <path fill="none" stroke="white" stroke-width="1.5" d="M0,-3.0v7 M-2.5,-0.5L0,-3.0L2.5,-0.5"/>
                </g>
                <g id="arrowDown" xlink:href="#dirArrow" transform="rotate(180) translate(-30 -48)" onmousedown="handlePan(0,1)">
                  <use xlink:href="#rim" fill="#404040">
                        <set attributeName="fill" to="#808080" begin="arrowDown.mouseover" end="arrowDown.mouseout"/>
                  </use>
                  <path fill="none" stroke="white" stroke-width="1.5" d="M0,-3.0v7 M-2.5,-0.5L0,-3.0L2.5,-0.5"/>
                </g>
                <g id="arrowLeft" xlink:href="#dirArrow" transform="rotate(270) translate(-36 17)" onmousedown="handlePan(-1,0)">
                  <use xlink:href="#rim" fill="#404040">
                        <set attributeName="fill" to="#808080" begin="arrowLeft.mouseover" end="arrowLeft.mouseout"/>
                  </use>
                  <path fill="none" stroke="white" stroke-width="1.5" d="M0,-3.0v7 M-2.5,-0.5L0,-3.0L2.5,-0.5"/>
                </g>
        </g>
        <svg viewBox="0 0 15 15" width="100%" height="30px" preserveAspectRatio="xMaxYMin meet">
         <g id="arrow_out" transform="scale(0.3 0.3)">
          <a xlink:href="morse__digit_8cpp__incl_org.svg" target="_base">
           <rect id="button" ry="5" rx="5" y="6" x="6" height="38" width="38"
                fill="#f2f5e9" fill-opacity="0.5" stroke="#606060" stroke-width="1.0"/>
           <path id="arrow"
             d="M 11.500037,31.436501 C 11.940474,20.09759 22.043105,11.32322 32.158766,21.979434 L 37.068811,17.246167 C 37.068811,17.246167 37.088388,32 37.088388,32 L 22.160133,31.978069 C 22.160133,31.978069 26.997745,27.140456 26.997745,27.140456 C 18.528582,18.264221 13.291696,25.230495 11.500037,31.436501 z"
             style="fill:#404040;"/>
          </a>
         </g>
        </svg>
</svg>
