<?xml version="1.0" encoding="UTF-8" standalone="no"?>
<!DOCTYPE svg PUBLIC "-//W3C//DTD SVG 1.1//EN"
 "http://www.w3.org/Graphics/SVG/1.1/DTD/svg11.dtd">
<!-- Generated by graphviz version 2.38.0 (20140413.2041)
 -->
<!-- Title: morse_token.h Pages: 1 -->
<svg width="658pt" height="252pt"
 viewBox="0.00 0.00 657.55 252.00" xmlns="http://www.w3.org/2000/svg" xmlns:xlink="http://www.w3.org/1999/xlink">
<g id="graph0" class="graph" transform="scale(1 1) rotate(0) translate(4 248)">
<title>morse_token.h</title>
<polygon fill="white" stroke="none" points="-4,4 -4,-248 653.547,-248 653.547,4 -4,4"/>
<!-- Node1 -->
<g id="node1" class="node"><title>Node1</title>
<polygon fill="#bfbfbf" stroke="black" points="334.5,-224.5 334.5,-243.5 415.5,-243.5 415.5,-224.5 334.5,-224.5"/>
<text text-anchor="middle" x="375" y="-231.5" font-family="Helvetica,sans-Serif" font-size="10.00">morse_token.h</text>
</g>
<!-- Node2 -->
<g id="node2" class="node"><title>Node2</title>
<g id="a_node2"><a xlink:href="libmorse_8h.html" target="_top" xlink:title="Morse code operations. ">
<polygon fill="white" stroke="black" points="470,-168.5 470,-187.5 532,-187.5 532,-168.5 470,-168.5"/>
<text text-anchor="middle" x="501" y="-175.5" font-family="Helvetica,sans-Serif" font-size="10.00">libmorse.h</text>
</a>
</g>
</g>
<!-- Node1&#45;&gt;Node2 -->
<g id="edge1" class="edge"><title>Node1&#45;&gt;Node2</title>
<path fill="none" stroke="midnightblue" d="M404.16,-220.503C427.781,-210.38 460.428,-196.388 481.128,-187.516"/>
<polygon fill="midnightblue" stroke="midnightblue" points="402.778,-217.287 394.965,-224.444 405.535,-223.721 402.778,-217.287"/>
</g>
<!-- Node3 -->
<g id="node3" class="node"><title>Node3</title>
<g id="a_node3"><a xlink:href="actions_8h.html" target="_top" xlink:title="Application&#45;specific actions. ">
<polygon fill="white" stroke="black" points="347,-112.5 347,-131.5 403,-131.5 403,-112.5 347,-112.5"/>
<text text-anchor="middle" x="375" y="-119.5" font-family="Helvetica,sans-Serif" font-size="10.00">actions.h</text>
</a>
</g>
</g>
<!-- Node1&#45;&gt;Node3 -->
<g id="edge16" class="edge"><title>Node1&#45;&gt;Node3</title>
<path fill="none" stroke="midnightblue" d="M375,-214.348C375,-190.254 375,-149.308 375,-131.591"/>
<polygon fill="midnightblue" stroke="midnightblue" points="371.5,-214.368 375,-224.368 378.5,-214.369 371.5,-214.368"/>
</g>
<!-- Node7 -->
<g id="node7" class="node"><title>Node7</title>
<g id="a_node7"><a xlink:href="morse__token_8cpp.html" target="_top" xlink:title="Implementation of Morse code operations. ">
<polygon fill="white" stroke="black" points="0,-56.5 0,-75.5 92,-75.5 92,-56.5 0,-56.5"/>
<text text-anchor="middle" x="46" y="-63.5" font-family="Helvetica,sans-Serif" font-size="10.00">morse_token.cpp</text>
</a>
</g>
</g>
<!-- Node1&#45;&gt;Node7 -->
<g id="edge17" class="edge"><title>Node1&#45;&gt;Node7</title>
<path fill="none" stroke="midnightblue" d="M348.586,-219.673C283.518,-186.842 116.894,-102.77 63.0547,-75.6051"/>
<polygon fill="midnightblue" stroke="midnightblue" points="347.27,-222.929 357.775,-224.309 350.423,-216.679 347.27,-222.929"/>
</g>
<!-- Node2&#45;&gt;Node3 -->
<g id="edge2" class="edge"><title>Node2&#45;&gt;Node3</title>
<path fill="none" stroke="midnightblue" d="M471.84,-164.503C448.219,-154.38 415.572,-140.388 394.872,-131.516"/>
<polygon fill="midnightblue" stroke="midnightblue" points="470.465,-167.721 481.035,-168.444 473.222,-161.287 470.465,-167.721"/>
</g>
<!-- Node5 -->
<g id="node5" class="node"><title>Node5</title>
<g id="a_node5"><a xlink:href="libmorse_8cpp.html" target="_top" xlink:title="Implementation of Morse code operations. ">
<polygon fill="white" stroke="black" points="559,-56.5 559,-75.5 631,-75.5 631,-56.5 559,-56.5"/>
<text text-anchor="middle" x="595" y="-63.5" font-family="Helvetica,sans-Serif" font-size="10.00">libmorse.cpp</text>
</a>
</g>
</g>
<!-- Node2&#45;&gt;Node5 -->
<g id="edge11" class="edge"><title>Node2&#45;&gt;Node5</title>
<path fill="none" stroke="midnightblue" d="M533.605,-164.103C548.459,-156.727 565.116,-146.1 576,-132 589.075,-115.062 593.162,-89.3545 594.433,-75.9078"/>
<polygon fill="midnightblue" stroke="midnightblue" points="531.775,-161.094 524.183,-168.484 534.726,-167.441 531.775,-161.094"/>
</g>
<!-- Node11 -->
<g id="node11" class="node"><title>Node11</title>
<g id="a_node11"><a xlink:href="teensy3__morse__bsp_8cpp.html" target="_top" xlink:title="Implementation of Teensy 3.0 board support package. ">
<polygon fill="white" stroke="black" points="346.5,-0.5 346.5,-19.5 469.5,-19.5 469.5,-0.5 346.5,-0.5"/>
<text text-anchor="middle" x="408" y="-7.5" font-family="Helvetica,sans-Serif" font-size="10.00">teensy3_morse_bsp.cpp</text>
</a>
</g>
</g>
<!-- Node2&#45;&gt;Node11 -->
<g id="edge15" class="edge"><title>Node2&#45;&gt;Node11</title>
<path fill="none" stroke="midnightblue" d="M535.773,-164.802C588.229,-144.553 677.673,-101.683 640,-56 618.791,-30.2817 531.028,-19.0818 469.75,-14.3314"/>
<polygon fill="midnightblue" stroke="midnightblue" points="534.262,-161.631 526.136,-168.43 536.728,-168.182 534.262,-161.631"/>
</g>
<!-- Node12 -->
<g id="node12" class="node"><title>Node12</title>
<g id="a_node12"><a xlink:href="pda_8h.html" target="_top" xlink:title="Personal Digital Assistant functions. ">
<polygon fill="white" stroke="black" points="445.5,-112.5 445.5,-131.5 486.5,-131.5 486.5,-112.5 445.5,-112.5"/>
<text text-anchor="middle" x="466" y="-119.5" font-family="Helvetica,sans-Serif" font-size="10.00">pda.h</text>
</a>
</g>
</g>
<!-- Node2&#45;&gt;Node12 -->
<g id="edge12" class="edge"><title>Node2&#45;&gt;Node12</title>
<path fill="none" stroke="midnightblue" d="M489.7,-159.566C483.678,-150.275 476.531,-139.248 471.672,-131.751"/>
<polygon fill="midnightblue" stroke="midnightblue" points="486.844,-161.595 495.22,-168.083 492.719,-157.788 486.844,-161.595"/>
</g>
<!-- Node13 -->
<g id="node13" class="node"><title>Node13</title>
<g id="a_node13"><a xlink:href="sound_8cpp.html" target="_top" xlink:title="Implementation of PWM sound effects. ">
<polygon fill="white" stroke="black" points="505,-112.5 505,-131.5 567,-131.5 567,-112.5 505,-112.5"/>
<text text-anchor="middle" x="536" y="-119.5" font-family="Helvetica,sans-Serif" font-size="10.00">sound.cpp</text>
</a>
</g>
</g>
<!-- Node2&#45;&gt;Node13 -->
<g id="edge14" class="edge"><title>Node2&#45;&gt;Node13</title>
<path fill="none" stroke="midnightblue" d="M512.3,-159.566C518.322,-150.275 525.469,-139.248 530.328,-131.751"/>
<polygon fill="midnightblue" stroke="midnightblue" points="509.281,-157.788 506.78,-168.083 515.156,-161.595 509.281,-157.788"/>
</g>
<!-- Node4 -->
<g id="node4" class="node"><title>Node4</title>
<g id="a_node4"><a xlink:href="actions_8cpp.html" target="_top" xlink:title="Implementation of application&#45;specific actions. ">
<polygon fill="white" stroke="black" points="222.5,-56.5 222.5,-75.5 289.5,-75.5 289.5,-56.5 222.5,-56.5"/>
<text text-anchor="middle" x="256" y="-63.5" font-family="Helvetica,sans-Serif" font-size="10.00">actions.cpp</text>
</a>
</g>
</g>
<!-- Node3&#45;&gt;Node4 -->
<g id="edge3" class="edge"><title>Node3&#45;&gt;Node4</title>
<path fill="none" stroke="midnightblue" d="M346.863,-108.232C324.604,-98.1312 294.144,-84.3091 274.768,-75.5164"/>
<polygon fill="midnightblue" stroke="midnightblue" points="345.591,-111.498 356.144,-112.444 348.484,-105.124 345.591,-111.498"/>
</g>
<!-- Node3&#45;&gt;Node5 -->
<g id="edge4" class="edge"><title>Node3&#45;&gt;Node5</title>
<path fill="none" stroke="midnightblue" d="M413.038,-111.663C454.476,-101.492 520.194,-85.3615 560.279,-75.5225"/>
<polygon fill="midnightblue" stroke="midnightblue" points="412.188,-108.268 403.311,-114.051 413.857,-115.066 412.188,-108.268"/>
</g>
<!-- Node6 -->
<g id="node6" class="node"><title>Node6</title>
<g id="a_node6"><a xlink:href="morse__digit_8cpp.html" target="_top" xlink:title="Implementation of decimal digit to Morse code conversion. ">
<polygon fill="white" stroke="black" points="308,-56.5 308,-75.5 394,-75.5 394,-56.5 308,-56.5"/>
<text text-anchor="middle" x="351" y="-63.5" font-family="Helvetica,sans-Serif" font-size="10.00">morse_digit.cpp</text>
</a>
</g>
</g>
<!-- Node3&#45;&gt;Node6 -->
<g id="edge5" class="edge"><title>Node3&#45;&gt;Node6</title>
<path fill="none" stroke="midnightblue" d="M366.862,-102.69C362.817,-93.589 358.117,-83.0141 354.889,-75.7511"/>
<polygon fill="midnightblue" stroke="midnightblue" points="363.777,-104.366 371.037,-112.083 370.174,-101.523 363.777,-104.366"/>
</g>
<!-- Node3&#45;&gt;Node7 -->
<g id="edge6" class="edge"><title>Node3&#45;&gt;Node7</title>
<path fill="none" stroke="midnightblue" d="M337.019,-114.766C276.322,-104.804 157.645,-85.3248 92.1521,-74.5751"/>
<polygon fill="midnightblue" stroke="midnightblue" points="336.515,-118.23 346.95,-116.396 337.649,-111.322 336.515,-118.23"/>
</g>
<!-- Node8 -->
<g id="node8" class="node"><title>Node8</title>
<g id="a_node8"><a xlink:href="pda_8cpp.html" target="_top" xlink:title="Implementation of Personal Digital Assistant functions. ">
<polygon fill="white" stroke="black" points="489.5,-56.5 489.5,-75.5 540.5,-75.5 540.5,-56.5 489.5,-56.5"/>
<text text-anchor="middle" x="515" y="-63.5" font-family="Helvetica,sans-Serif" font-size="10.00">pda.cpp</text>
</a>
</g>
</g>
<!-- Node3&#45;&gt;Node8 -->
<g id="edge7" class="edge"><title>Node3&#45;&gt;Node8</title>
<path fill="none" stroke="midnightblue" d="M406.702,-108.772C433,-98.6287 469.716,-84.4669 492.92,-75.5164"/>
<polygon fill="midnightblue" stroke="midnightblue" points="405.254,-105.579 397.183,-112.444 407.773,-112.11 405.254,-105.579"/>
</g>
<!-- Node9 -->
<g id="node9" class="node"><title>Node9</title>
<g id="a_node9"><a xlink:href="stack_8cpp.html" target="_top" xlink:title="Implementation of Stack&#45;related convenience functions. ">
<polygon fill="white" stroke="black" points="412.5,-56.5 412.5,-75.5 471.5,-75.5 471.5,-56.5 412.5,-56.5"/>
<text text-anchor="middle" x="442" y="-63.5" font-family="Helvetica,sans-Serif" font-size="10.00">stack.cpp</text>
</a>
</g>
</g>
<!-- Node3&#45;&gt;Node9 -->
<g id="edge8" class="edge"><title>Node3&#45;&gt;Node9</title>
<path fill="none" stroke="midnightblue" d="M393.835,-105.82C405.838,-96.1452 420.972,-83.9481 431.039,-75.8339"/>
<polygon fill="midnightblue" stroke="midnightblue" points="391.354,-103.324 385.765,-112.324 395.747,-108.774 391.354,-103.324"/>
</g>
<!-- Node10 -->
<g id="node10" class="node"><title>Node10</title>
<g id="a_node10"><a xlink:href="voltage__monitor_8h.html" target="_top" xlink:title="Trivial co&#45;routine to gather and filter ADC samples. ">
<polygon fill="white" stroke="black" points="110,-56.5 110,-75.5 204,-75.5 204,-56.5 110,-56.5"/>
<text text-anchor="middle" x="157" y="-63.5" font-family="Helvetica,sans-Serif" font-size="10.00">voltage_monitor.h</text>
</a>
</g>
</g>
<!-- Node3&#45;&gt;Node10 -->
<g id="edge9" class="edge"><title>Node3&#45;&gt;Node10</title>
<path fill="none" stroke="midnightblue" d="M337.047,-111.599C295.971,-101.424 231.042,-85.3407 191.406,-75.5225"/>
<polygon fill="midnightblue" stroke="midnightblue" points="336.398,-115.044 346.947,-114.051 338.082,-108.249 336.398,-115.044"/>
</g>
<!-- Node10&#45;&gt;Node11 -->
<g id="edge10" class="edge"><title>Node10&#45;&gt;Node11</title>
<path fill="none" stroke="midnightblue" d="M206.821,-54.2815C254.253,-44.0769 324.704,-28.9203 368.414,-19.5164"/>
<polygon fill="midnightblue" stroke="midnightblue" points="205.812,-50.9185 196.772,-56.4435 207.284,-57.7619 205.812,-50.9185"/>
</g>
<!-- Node12&#45;&gt;Node8 -->
<g id="edge13" class="edge"><title>Node12&#45;&gt;Node8</title>
<path fill="none" stroke="midnightblue" d="M481.034,-104.431C489.622,-94.9673 500.043,-83.4827 507.059,-75.7511"/>
<polygon fill="midnightblue" stroke="midnightblue" points="478.219,-102.325 474.091,-112.083 483.403,-107.029 478.219,-102.325"/>
</g>
</g>
</svg>
