<?xml version="1.0" encoding="UTF-8" standalone="no"?>
<!DOCTYPE svg PUBLIC "-//W3C//DTD SVG 1.1//EN"
 "http://www.w3.org/Graphics/SVG/1.1/DTD/svg11.dtd">
<!-- Generated by graphviz version 2.38.0 (20140413.2041)
 -->
<!-- Title: m2a Pages: 1 -->
<!--zoomable 256 -->
<svg id="main" version="1.1" xmlns="http://www.w3.org/2000/svg" xmlns:xlink="http://www.w3.org/1999/xlink" xml:space="preserve" onload="init(evt)">
<style type="text/css"><![CDATA[
.edge:hover path { stroke: red; }
.edge:hover polygon { stroke: red; fill: red; }
]]></style>
<script type="text/javascript"><![CDATA[
var edges = document.getElementsByTagName('g');
if (edges && edges.length) {
  for (var i=0;i<edges.length;i++) {
    if (edges[i].id.substr(0,4)=='edge') {
      edges[i].setAttribute('class','edge');
    }
  }
}
]]></script>
        <defs>
                <circle id="rim" cx="0" cy="0" r="7"/>
                <circle id="rim2" cx="0" cy="0" r="3.5"/>
                <g id="zoomPlus">
                        <use xlink:href="#rim" fill="#404040">
                                <set attributeName="fill" to="#808080" begin="zoomplus.mouseover" end="zoomplus.mouseout"/>
                        </use>
                        <path d="M-4,0h8M0,-4v8" fill="none" stroke="white" stroke-width="1.5" pointer-events="none"/>
                </g>
                <g id="zoomMin">
                        <use xlink:href="#rim" fill="#404040">
                                <set attributeName="fill" to="#808080" begin="zoomminus.mouseover" end="zoomminus.mouseout"/>
                        </use>
                        <path d="M-4,0h8" fill="none" stroke="white" stroke-width="1.5" pointer-events="none"/>
                </g>
                <g id="dirArrow">
                        <path fill="none" stroke="white" stroke-width="1.5" d="M0,-3.0v7 M-2.5,-0.5L0,-3.0L2.5,-0.5"/>
                </g>
               <g id="resetDef">
                       <use xlink:href="#rim2" fill="#404040">
                               <set attributeName="fill" to="#808080" begin="reset.mouseover" end="reset.mouseout"/>
                       </use>
               </g>
        </defs>

<script type="text/javascript">
var viewWidth = 649;
var viewHeight = 256;
var sectionId = 'dynsection-4';
</script>
<script xlink:href="svgpan.js"/>
<svg id="graph" class="graph">
<g id="viewport">
<title>m2a</title>
<polygon fill="white" stroke="none" points="-4,4 -4,-252 645,-252 645,4 -4,4"/>
<!-- Node1 -->
<g id="node1" class="node"><title>Node1</title>
<polygon fill="#bfbfbf" stroke="black" points="0,-109.5 0,-128.5 35,-128.5 35,-109.5 0,-109.5"/>
<text text-anchor="middle" x="17.5" y="-116.5" font-family="Helvetica,sans-Serif" font-size="10.00">m2a</text>
</g>
<!-- Node2 -->
<g id="node2" class="node"><title>Node2</title>
<g id="a_node2"><a xlink:href="class_morse_token.html#a8c36a957ebc90172eae960757c72d3a4" target="_top" xlink:title="Convert to a single ASCII character. ">
<polygon fill="white" stroke="black" points="71,-109.5 71,-128.5 177,-128.5 177,-109.5 71,-109.5"/>
<text text-anchor="middle" x="124" y="-116.5" font-family="Helvetica,sans-Serif" font-size="10.00">MorseToken::toChar</text>
</a>
</g>
</g>
<!-- Node1&#45;&gt;Node2 -->
<g id="edge1" class="edge"><title>Node1&#45;&gt;Node2</title>
<path fill="none" stroke="midnightblue" d="M45.4519,-119C53.1683,-119 61.855,-119 70.5491,-119"/>
<polygon fill="midnightblue" stroke="midnightblue" points="45.2898,-115.5 35.2897,-119 45.2897,-122.5 45.2898,-115.5"/>
</g>
<!-- Node3 -->
<g id="node3" class="node"><title>Node3</title>
<g id="a_node3"><a xlink:href="morse__token_8h.html#a9ec0688da83c93d634e79b2d7ad7ad64" target="_top" xlink:title="Convert Morse 0&#45;9 to the corresponding digit. ">
<polygon fill="white" stroke="black" points="213,-109.5 213,-128.5 245,-128.5 245,-109.5 213,-109.5"/>
<text text-anchor="middle" x="229" y="-116.5" font-family="Helvetica,sans-Serif" font-size="10.00">m2i</text>
</a>
</g>
</g>
<!-- Node2&#45;&gt;Node3 -->
<g id="edge2" class="edge"><title>Node2&#45;&gt;Node3</title>
<path fill="none" stroke="midnightblue" d="M187.369,-119C196.706,-119 205.543,-119 212.576,-119"/>
<polygon fill="midnightblue" stroke="midnightblue" points="187.104,-115.5 177.104,-119 187.103,-122.5 187.104,-115.5"/>
</g>
<!-- Node4 -->
<g id="node4" class="node"><title>Node4</title>
<g id="a_node4"><a xlink:href="class_morse_token.html#adbcf2bf93f283c2c69a93dd69d03c38b" target="_top" xlink:title="Convert Morse 0&#45;9 to the corresponding digit. ">
<polygon fill="white" stroke="black" points="294.5,-149.5 294.5,-168.5 386.5,-168.5 386.5,-149.5 294.5,-149.5"/>
<text text-anchor="middle" x="340.5" y="-156.5" font-family="Helvetica,sans-Serif" font-size="10.00">MorseToken::m2i</text>
</a>
</g>
</g>
<!-- Node3&#45;&gt;Node4 -->
<g id="edge3" class="edge"><title>Node3&#45;&gt;Node4</title>
<path fill="none" stroke="midnightblue" d="M254.702,-128.271C263.046,-131.384 272.42,-134.862 281,-138 291.337,-141.781 302.724,-145.882 312.683,-149.449"/>
<polygon fill="midnightblue" stroke="midnightblue" points="255.75,-124.926 245.157,-124.701 253.298,-131.482 255.75,-124.926"/>
</g>
<!-- Node6 -->
<g id="node6" class="node"><title>Node6</title>
<g id="a_node6"><a xlink:href="pda_8h.html#ac1f9ea31ffc81530ac4a07fa2469f13c" target="_top" xlink:title="txAlfaBravoCharlie">
<polygon fill="white" stroke="black" points="436,-228.5 436,-247.5 534,-247.5 534,-228.5 436,-228.5"/>
<text text-anchor="middle" x="485" y="-235.5" font-family="Helvetica,sans-Serif" font-size="10.00">txAlfaBravoCharlie</text>
</a>
</g>
</g>
<!-- Node3&#45;&gt;Node6 -->
<g id="edge11" class="edge"><title>Node3&#45;&gt;Node6</title>
<path fill="none" stroke="midnightblue" d="M241.793,-137.585C250.991,-150.658 264.884,-167.609 281,-178 328.565,-208.669 392.365,-224.152 435.654,-231.621"/>
<polygon fill="midnightblue" stroke="midnightblue" points="244.442,-135.251 235.961,-128.901 238.631,-139.154 244.442,-135.251"/>
</g>
<!-- Node11 -->
<g id="node11" class="node"><title>Node11</title>
<g id="a_node11"><a xlink:href="pda_8h.html#a3c36576745952735f04eaa82b933e6fa" target="_top" xlink:title="Play one of 10 sound effects based on the digit on the stack. ">
<polygon fill="white" stroke="black" points="296,-109.5 296,-128.5 385,-128.5 385,-109.5 296,-109.5"/>
<text text-anchor="middle" x="340.5" y="-116.5" font-family="Helvetica,sans-Serif" font-size="10.00">playSoundEffect</text>
</a>
</g>
</g>
<!-- Node3&#45;&gt;Node11 -->
<g id="edge10" class="edge"><title>Node3&#45;&gt;Node11</title>
<path fill="none" stroke="midnightblue" d="M255.352,-119C267.304,-119 281.913,-119 295.583,-119"/>
<polygon fill="midnightblue" stroke="midnightblue" points="255.226,-115.5 245.226,-119 255.225,-122.5 255.226,-115.5"/>
</g>
<!-- Node12 -->
<g id="node12" class="node"><title>Node12</title>
<g id="a_node12"><a xlink:href="pda_8h.html#a59acff867d89a88cb2142895d95b12e8" target="_top" xlink:title="gradeSum">
<polygon fill="white" stroke="black" points="310,-66.5 310,-85.5 371,-85.5 371,-66.5 310,-66.5"/>
<text text-anchor="middle" x="340.5" y="-73.5" font-family="Helvetica,sans-Serif" font-size="10.00">gradeSum</text>
</a>
</g>
</g>
<!-- Node3&#45;&gt;Node12 -->
<g id="edge12" class="edge"><title>Node3&#45;&gt;Node12</title>
<path fill="none" stroke="midnightblue" d="M254.783,-109.268C272.843,-102.176 297.189,-92.6153 315.147,-85.5631"/>
<polygon fill="midnightblue" stroke="midnightblue" points="253.254,-106.108 245.226,-113.021 255.813,-112.624 253.254,-106.108"/>
</g>
<!-- Node15 -->
<g id="node15" class="node"><title>Node15</title>
<g id="a_node15"><a xlink:href="stack_8h.html#a89e98012b4180ef8ce90108ebcfbde1d" target="_top" xlink:title="stackDigitsToUnsigned">
<polygon fill="white" stroke="black" points="281,-19.5 281,-38.5 400,-38.5 400,-19.5 281,-19.5"/>
<text text-anchor="middle" x="340.5" y="-26.5" font-family="Helvetica,sans-Serif" font-size="10.00">stackDigitsToUnsigned</text>
</a>
</g>
</g>
<!-- Node3&#45;&gt;Node15 -->
<g id="edge15" class="edge"><title>Node3&#45;&gt;Node15</title>
<path fill="none" stroke="midnightblue" d="M241.866,-100.608C251.234,-87.1949 265.309,-69.2894 281,-57 290.662,-49.4324 302.702,-43.233 313.343,-38.6086"/>
<polygon fill="midnightblue" stroke="midnightblue" points="238.861,-98.8039 236.171,-109.051 244.665,-102.718 238.861,-98.8039"/>
</g>
<!-- Node5 -->
<g id="node5" class="node"><title>Node5</title>
<g id="a_node5"><a xlink:href="actions_8h.html#a142b42f94ccf46a7a9706fe9b63b4501" target="_top" xlink:title="Attempt to control the output volume but adjusting the PWM duty cycle. ">
<polygon fill="white" stroke="black" points="453.5,-190.5 453.5,-209.5 516.5,-209.5 516.5,-190.5 453.5,-190.5"/>
<text text-anchor="middle" x="485" y="-197.5" font-family="Helvetica,sans-Serif" font-size="10.00">setVolume</text>
</a>
</g>
</g>
<!-- Node4&#45;&gt;Node5 -->
<g id="edge4" class="edge"><title>Node4&#45;&gt;Node5</title>
<path fill="none" stroke="midnightblue" d="M384.369,-171.334C406.492,-177.7 432.979,-185.32 453.08,-191.104"/>
<polygon fill="midnightblue" stroke="midnightblue" points="385.128,-167.911 374.551,-168.509 383.193,-174.638 385.128,-167.911"/>
</g>
<!-- Node4&#45;&gt;Node6 -->
<g id="edge5" class="edge"><title>Node4&#45;&gt;Node6</title>
<path fill="none" stroke="midnightblue" d="M363.183,-174.433C381.902,-187.344 409.96,-205.73 436,-219 442.708,-222.418 450.181,-225.639 457.196,-228.424"/>
<polygon fill="midnightblue" stroke="midnightblue" points="364.999,-171.432 354.795,-168.581 360.994,-177.173 364.999,-171.432"/>
</g>
<!-- Node8 -->
<g id="node8" class="node"><title>Node8</title>
<g id="a_node8"><a xlink:href="pda_8cpp.html#a47afc6664036a43243457f6f66cb90f8" target="_top" xlink:title="txAlphaNNN">
<polygon fill="white" stroke="black" points="449,-152.5 449,-171.5 521,-171.5 521,-152.5 449,-152.5"/>
<text text-anchor="middle" x="485" y="-159.5" font-family="Helvetica,sans-Serif" font-size="10.00">txAlphaNNN</text>
</a>
</g>
</g>
<!-- Node4&#45;&gt;Node8 -->
<g id="edge7" class="edge"><title>Node4&#45;&gt;Node8</title>
<path fill="none" stroke="midnightblue" d="M396.686,-160.162C414.161,-160.53 432.996,-160.926 448.684,-161.257"/>
<polygon fill="midnightblue" stroke="midnightblue" points="396.659,-156.661 386.588,-159.949 396.512,-163.659 396.659,-156.661"/>
</g>
<!-- Node9 -->
<g id="node9" class="node"><title>Node9</title>
<g id="a_node9"><a xlink:href="pda_8h.html#aee08a527408a7a8a4b5490d13b767cb2" target="_top" xlink:title="txMetronome">
<polygon fill="white" stroke="black" points="448,-114.5 448,-133.5 522,-133.5 522,-114.5 448,-114.5"/>
<text text-anchor="middle" x="485" y="-121.5" font-family="Helvetica,sans-Serif" font-size="10.00">txMetronome</text>
</a>
</g>
</g>
<!-- Node4&#45;&gt;Node9 -->
<g id="edge8" class="edge"><title>Node4&#45;&gt;Node9</title>
<path fill="none" stroke="midnightblue" d="M390.299,-147.014C409.067,-142.405 430.149,-137.227 447.557,-132.951"/>
<polygon fill="midnightblue" stroke="midnightblue" points="389.315,-143.652 380.439,-149.436 390.985,-150.45 389.315,-143.652"/>
</g>
<!-- Node10 -->
<g id="node10" class="node"><title>Node10</title>
<g id="a_node10"><a xlink:href="pda_8h.html#aba3c77bbaeda68253d8795c44bb0b4ff" target="_top" xlink:title="sumStack">
<polygon fill="white" stroke="black" points="454.5,-76.5 454.5,-95.5 515.5,-95.5 515.5,-76.5 454.5,-76.5"/>
<text text-anchor="middle" x="485" y="-83.5" font-family="Helvetica,sans-Serif" font-size="10.00">sumStack</text>
</a>
</g>
</g>
<!-- Node4&#45;&gt;Node10 -->
<g id="edge9" class="edge"><title>Node4&#45;&gt;Node10</title>
<path fill="none" stroke="midnightblue" d="M384.82,-145.674C390.083,-143.415 395.266,-140.859 400,-138 418.58,-126.779 417.604,-116.519 436,-105 441.849,-101.338 448.522,-98.1594 454.994,-95.5055"/>
<polygon fill="midnightblue" stroke="midnightblue" points="383.353,-142.491 375.341,-149.423 385.928,-149 383.353,-142.491"/>
</g>
<!-- Node7 -->
<g id="node7" class="node"><title>Node7</title>
<g id="a_node7"><a xlink:href="pda_8h.html#a5218392624b017b817b80d6b16ea920d" target="_top" xlink:title="askNextAlfa">
<polygon fill="white" stroke="black" points="570,-228.5 570,-247.5 641,-247.5 641,-228.5 570,-228.5"/>
<text text-anchor="middle" x="605.5" y="-235.5" font-family="Helvetica,sans-Serif" font-size="10.00">askNextAlfa</text>
</a>
</g>
</g>
<!-- Node6&#45;&gt;Node7 -->
<g id="edge6" class="edge"><title>Node6&#45;&gt;Node7</title>
<path fill="none" stroke="midnightblue" d="M544.356,-238C553.058,-238 561.785,-238 569.787,-238"/>
<polygon fill="midnightblue" stroke="midnightblue" points="544.199,-234.5 534.198,-238 544.198,-241.5 544.199,-234.5"/>
</g>
<!-- Node13 -->
<g id="node13" class="node"><title>Node13</title>
<g id="a_node13"><a xlink:href="pda_8h.html#a15825e7325bc5cdbd18cf2c6055baef1" target="_top" xlink:title="gradeRestore">
<polygon fill="white" stroke="black" points="447.5,-38.5 447.5,-57.5 522.5,-57.5 522.5,-38.5 447.5,-38.5"/>
<text text-anchor="middle" x="485" y="-45.5" font-family="Helvetica,sans-Serif" font-size="10.00">gradeRestore</text>
</a>
</g>
</g>
<!-- Node12&#45;&gt;Node13 -->
<g id="edge13" class="edge"><title>Node12&#45;&gt;Node13</title>
<path fill="none" stroke="midnightblue" d="M381.117,-68.2157C401.874,-64.137 427.127,-59.1751 447.418,-55.188"/>
<polygon fill="midnightblue" stroke="midnightblue" points="380.164,-64.8359 371.026,-70.1984 381.513,-71.7046 380.164,-64.8359"/>
</g>
<!-- Node14 -->
<g id="node14" class="node"><title>Node14</title>
<g id="a_node14"><a xlink:href="pda_8h.html#abf2e0c8c523ed9ddee8a9194c9800b99" target="_top" xlink:title="askSum">
<polygon fill="white" stroke="black" points="579,-38.5 579,-57.5 632,-57.5 632,-38.5 579,-38.5"/>
<text text-anchor="middle" x="605.5" y="-45.5" font-family="Helvetica,sans-Serif" font-size="10.00">askSum</text>
</a>
</g>
</g>
<!-- Node13&#45;&gt;Node14 -->
<g id="edge14" class="edge"><title>Node13&#45;&gt;Node14</title>
<path fill="none" stroke="midnightblue" d="M532.623,-48C548.345,-48 565.31,-48 578.808,-48"/>
<polygon fill="midnightblue" stroke="midnightblue" points="532.521,-44.5001 522.521,-48 532.521,-51.5001 532.521,-44.5001"/>
</g>
<!-- Node16 -->
<g id="node16" class="node"><title>Node16</title>
<g id="a_node16"><a xlink:href="actions_8h.html#a1fec7da4166b9612d2deec3d0262d60f" target="_top" xlink:title="dispatchOnStack">
<polygon fill="white" stroke="black" points="439,-0.5 439,-19.5 531,-19.5 531,-0.5 439,-0.5"/>
<text text-anchor="middle" x="485" y="-7.5" font-family="Helvetica,sans-Serif" font-size="10.00">dispatchOnStack</text>
</a>
</g>
</g>
<!-- Node15&#45;&gt;Node16 -->
<g id="edge16" class="edge"><title>Node15&#45;&gt;Node16</title>
<path fill="none" stroke="midnightblue" d="M410.327,-19.8231C420.014,-18.5315 429.761,-17.2318 438.851,-16.0199"/>
<polygon fill="midnightblue" stroke="midnightblue" points="409.733,-16.3713 400.283,-21.1623 410.658,-23.3099 409.733,-16.3713"/>
</g>
</g>
</svg>
        <g id="navigator" transform="translate(0 0)" fill="#404254">
                <rect fill="#f2f5e9" fill-opacity="0.5" stroke="#606060" stroke-width=".5" x="0" y="0" width="60" height="60"/>
                <use id="zoomplus" xlink:href="#zoomPlus" x="17" y="9" onmousedown="handleZoom(evt,'in')"/>
                <use id="zoomminus" xlink:href="#zoomMin" x="42" y="9" onmousedown="handleZoom(evt,'out')"/>
                <use id="reset" xlink:href="#resetDef" x="30" y="36" onmousedown="handleReset()"/>
                <g id="arrowUp" xlink:href="#dirArrow" transform="translate(30 24)" onmousedown="handlePan(0,-1)">
                  <use xlink:href="#rim" fill="#404040">
                        <set attributeName="fill" to="#808080" begin="arrowUp.mouseover" end="arrowUp.mouseout"/>
                  </use>
                  <path fill="none" stroke="white" stroke-width="1.5" d="M0,-3.0v7 M-2.5,-0.5L0,-3.0L2.5,-0.5"/>
                </g>
                <g id="arrowRight" xlink:href="#dirArrow" transform="rotate(90) translate(36 -43)" onmousedown="handlePan(1,0)">
                  <use xlink:href="#rim" fill="#404040">
                        <set attributeName="fill" to="#808080" begin="arrowRight.mouseover" end="arrowRight.mouseout"/>
                  </use>
                  <path fill="none" stroke="white" stroke-width="1.5" d="M0,-3.0v7 M-2.5,-0.5L0,-3.0L2.5,-0.5"/>
                </g>
                <g id="arrowDown" xlink:href="#dirArrow" transform="rotate(180) translate(-30 -48)" onmousedown="handlePan(0,1)">
                  <use xlink:href="#rim" fill="#404040">
                        <set attributeName="fill" to="#808080" begin="arrowDown.mouseover" end="arrowDown.mouseout"/>
                  </use>
                  <path fill="none" stroke="white" stroke-width="1.5" d="M0,-3.0v7 M-2.5,-0.5L0,-3.0L2.5,-0.5"/>
                </g>
                <g id="arrowLeft" xlink:href="#dirArrow" transform="rotate(270) translate(-36 17)" onmousedown="handlePan(-1,0)">
                  <use xlink:href="#rim" fill="#404040">
                        <set attributeName="fill" to="#808080" begin="arrowLeft.mouseover" end="arrowLeft.mouseout"/>
                  </use>
                  <path fill="none" stroke="white" stroke-width="1.5" d="M0,-3.0v7 M-2.5,-0.5L0,-3.0L2.5,-0.5"/>
                </g>
        </g>
        <svg viewBox="0 0 15 15" width="100%" height="30px" preserveAspectRatio="xMaxYMin meet">
         <g id="arrow_out" transform="scale(0.3 0.3)">
          <a xlink:href="morse__token_8h_a98f44690e97cbd7ea9445ca0a560a564_icgraph_org.svg" target="_base">
           <rect id="button" ry="5" rx="5" y="6" x="6" height="38" width="38"
                fill="#f2f5e9" fill-opacity="0.5" stroke="#606060" stroke-width="1.0"/>
           <path id="arrow"
             d="M 11.500037,31.436501 C 11.940474,20.09759 22.043105,11.32322 32.158766,21.979434 L 37.068811,17.246167 C 37.068811,17.246167 37.088388,32 37.088388,32 L 22.160133,31.978069 C 22.160133,31.978069 26.997745,27.140456 26.997745,27.140456 C 18.528582,18.264221 13.291696,25.230495 11.500037,31.436501 z"
             style="fill:#404040;"/>
          </a>
         </g>
        </svg>
</svg>
