<?xml version="1.0" encoding="UTF-8" standalone="no"?>
<!DOCTYPE svg PUBLIC "-//W3C//DTD SVG 1.1//EN"
 "http://www.w3.org/Graphics/SVG/1.1/DTD/svg11.dtd">
<!-- Generated by graphviz version 2.38.0 (20140413.2041)
 -->
<!-- Title: wordBits Pages: 1 -->
<svg width="397pt" height="180pt"
 viewBox="0.00 0.00 397.00 180.00" xmlns="http://www.w3.org/2000/svg" xmlns:xlink="http://www.w3.org/1999/xlink">
<g id="graph0" class="graph" transform="scale(1 1) rotate(0) translate(4 176)">
<title>wordBits</title>
<polygon fill="white" stroke="none" points="-4,4 -4,-176 393,-176 393,4 -4,4"/>
<!-- Node1 -->
<g id="node1" class="node"><title>Node1</title>
<polygon fill="#bfbfbf" stroke="black" points="0,-38.5 0,-57.5 55,-57.5 55,-38.5 0,-38.5"/>
<text text-anchor="middle" x="27.5" y="-45.5" font-family="Helvetica,sans-Serif" font-size="10.00">wordBits</text>
</g>
<!-- Node2 -->
<g id="node2" class="node"><title>Node2</title>
<g id="a_node2"><a xlink:href="actions_8h.html#a4ddb37fc9b26cb5c7a18a1458414f647" target="_top" xlink:title="codeHash">
<polygon fill="white" stroke="black" points="91,-76.5 91,-95.5 152,-95.5 152,-76.5 91,-76.5"/>
<text text-anchor="middle" x="121.5" y="-83.5" font-family="Helvetica,sans-Serif" font-size="10.00">codeHash</text>
</a>
</g>
</g>
<!-- Node1&#45;&gt;Node2 -->
<g id="edge1" class="edge"><title>Node1&#45;&gt;Node2</title>
<path fill="none" stroke="midnightblue" d="M60.9698,-61.4114C72.9564,-66.3624 86.2883,-71.8691 97.2919,-76.4141"/>
<polygon fill="midnightblue" stroke="midnightblue" points="62.2943,-58.1718 51.7155,-57.589 59.6219,-64.6416 62.2943,-58.1718"/>
</g>
<!-- Node8 -->
<g id="node8" class="node"><title>Node8</title>
<g id="a_node8"><a xlink:href="libmorse_8h.html#ac4a29ea9b7bb06c2d9e8c4d74f486b91" target="_top" xlink:title="Accumulate a Morse token. ">
<polygon fill="white" stroke="black" points="93,-38.5 93,-57.5 150,-57.5 150,-38.5 93,-38.5"/>
<text text-anchor="middle" x="121.5" y="-45.5" font-family="Helvetica,sans-Serif" font-size="10.00">getMorse</text>
</a>
</g>
</g>
<!-- Node1&#45;&gt;Node8 -->
<g id="edge7" class="edge"><title>Node1&#45;&gt;Node8</title>
<path fill="none" stroke="midnightblue" d="M65.2515,-48C74.5045,-48 84.2783,-48 92.9904,-48"/>
<polygon fill="midnightblue" stroke="midnightblue" points="65.1102,-44.5001 55.1102,-48 65.1102,-51.5001 65.1102,-44.5001"/>
</g>
<!-- Node12 -->
<g id="node12" class="node"><title>Node12</title>
<g id="a_node12"><a xlink:href="morse__token_8h.html#a4a091b2ca5f9aedfebecc721d9343e30" target="_top" xlink:title="a2p">
<polygon fill="white" stroke="black" points="105.5,-0.5 105.5,-19.5 137.5,-19.5 137.5,-0.5 105.5,-0.5"/>
<text text-anchor="middle" x="121.5" y="-7.5" font-family="Helvetica,sans-Serif" font-size="10.00">a2p</text>
</a>
</g>
</g>
<!-- Node1&#45;&gt;Node12 -->
<g id="edge12" class="edge"><title>Node1&#45;&gt;Node12</title>
<path fill="none" stroke="midnightblue" d="M61.2337,-34.4796C76.2878,-28.2616 93.4148,-21.1874 105.372,-16.2483"/>
<polygon fill="midnightblue" stroke="midnightblue" points="59.6219,-31.3584 51.7155,-38.411 62.2943,-37.8283 59.6219,-31.3584"/>
</g>
<!-- Node3 -->
<g id="node3" class="node"><title>Node3</title>
<g id="a_node3"><a xlink:href="actions_8h.html#a76e8c23475fa40e7d5504df1379711d8" target="_top" xlink:title="Hash a Morse code symbol to a table location and store action there. ">
<polygon fill="white" stroke="black" points="188,-114.5 188,-133.5 261,-133.5 261,-114.5 188,-114.5"/>
<text text-anchor="middle" x="224.5" y="-121.5" font-family="Helvetica,sans-Serif" font-size="10.00">assignAction</text>
</a>
</g>
</g>
<!-- Node2&#45;&gt;Node3 -->
<g id="edge2" class="edge"><title>Node2&#45;&gt;Node3</title>
<path fill="none" stroke="midnightblue" d="M157.366,-99.118C170.725,-104.144 185.702,-109.779 198.022,-114.414"/>
<polygon fill="midnightblue" stroke="midnightblue" points="158.579,-95.8346 147.987,-95.589 156.114,-102.386 158.579,-95.8346"/>
</g>
<!-- Node7 -->
<g id="node7" class="node"><title>Node7</title>
<g id="a_node7"><a xlink:href="actions_8h.html#a9a7251c47cd69137c16e9e7e5cf6179e" target="_top" xlink:title="Invoke an action from the actions table. ">
<polygon fill="white" stroke="black" points="197,-76.5 197,-95.5 252,-95.5 252,-76.5 197,-76.5"/>
<text text-anchor="middle" x="224.5" y="-83.5" font-family="Helvetica,sans-Serif" font-size="10.00">doAction</text>
</a>
</g>
</g>
<!-- Node2&#45;&gt;Node7 -->
<g id="edge6" class="edge"><title>Node2&#45;&gt;Node7</title>
<path fill="none" stroke="midnightblue" d="M162.515,-86C173.995,-86 186.232,-86 196.707,-86"/>
<polygon fill="midnightblue" stroke="midnightblue" points="162.257,-82.5001 152.257,-86 162.257,-89.5001 162.257,-82.5001"/>
</g>
<!-- Node4 -->
<g id="node4" class="node"><title>Node4</title>
<g id="a_node4"><a xlink:href="pda_8h.html#a5218392624b017b817b80d6b16ea920d" target="_top" xlink:title="askNextAlfa">
<polygon fill="white" stroke="black" points="307.5,-152.5 307.5,-171.5 378.5,-171.5 378.5,-152.5 307.5,-152.5"/>
<text text-anchor="middle" x="343" y="-159.5" font-family="Helvetica,sans-Serif" font-size="10.00">askNextAlfa</text>
</a>
</g>
</g>
<!-- Node3&#45;&gt;Node4 -->
<g id="edge3" class="edge"><title>Node3&#45;&gt;Node4</title>
<path fill="none" stroke="midnightblue" d="M264.822,-136.826C280.453,-141.925 298.126,-147.689 312.612,-152.414"/>
<polygon fill="midnightblue" stroke="midnightblue" points="265.49,-133.363 254.898,-133.589 263.32,-140.018 265.49,-133.363"/>
</g>
<!-- Node5 -->
<g id="node5" class="node"><title>Node5</title>
<g id="a_node5"><a xlink:href="pda_8h.html#abf2e0c8c523ed9ddee8a9194c9800b99" target="_top" xlink:title="askSum">
<polygon fill="white" stroke="black" points="316.5,-114.5 316.5,-133.5 369.5,-133.5 369.5,-114.5 316.5,-114.5"/>
<text text-anchor="middle" x="343" y="-121.5" font-family="Helvetica,sans-Serif" font-size="10.00">askSum</text>
</a>
</g>
</g>
<!-- Node3&#45;&gt;Node5 -->
<g id="edge4" class="edge"><title>Node3&#45;&gt;Node5</title>
<path fill="none" stroke="midnightblue" d="M271.397,-124C286.642,-124 303.07,-124 316.24,-124"/>
<polygon fill="midnightblue" stroke="midnightblue" points="271.087,-120.5 261.087,-124 271.087,-127.5 271.087,-120.5"/>
</g>
<!-- Node6 -->
<g id="node6" class="node"><title>Node6</title>
<g id="a_node6"><a xlink:href="pda_8h.html#a1dc125d402fe76077cb4d166ac0fbf7a" target="_top" xlink:title="askNext">
<polygon fill="white" stroke="black" points="316.5,-76.5 316.5,-95.5 369.5,-95.5 369.5,-76.5 316.5,-76.5"/>
<text text-anchor="middle" x="343" y="-83.5" font-family="Helvetica,sans-Serif" font-size="10.00">askNext</text>
</a>
</g>
</g>
<!-- Node3&#45;&gt;Node6 -->
<g id="edge5" class="edge"><title>Node3&#45;&gt;Node6</title>
<path fill="none" stroke="midnightblue" d="M264.573,-111.255C281.573,-105.71 301.026,-99.3648 316.181,-94.4216"/>
<polygon fill="midnightblue" stroke="midnightblue" points="263.32,-107.982 254.898,-114.411 265.49,-114.637 263.32,-107.982"/>
</g>
<!-- Node9 -->
<g id="node9" class="node"><title>Node9</title>
<g id="a_node9"><a xlink:href="libmorse_8cpp.html#afa60f07ebee7c34ef41c3dfb64222bb6" target="_top" xlink:title="Score the given pattern against the state of the symbol stack. ">
<polygon fill="white" stroke="black" points="190,-38.5 190,-57.5 259,-57.5 259,-38.5 190,-38.5"/>
<text text-anchor="middle" x="224.5" y="-45.5" font-family="Helvetica,sans-Serif" font-size="10.00">matchScore</text>
</a>
</g>
</g>
<!-- Node8&#45;&gt;Node9 -->
<g id="edge8" class="edge"><title>Node8&#45;&gt;Node9</title>
<path fill="none" stroke="midnightblue" d="M160.283,-48C169.978,-48 180.343,-48 189.816,-48"/>
<polygon fill="midnightblue" stroke="midnightblue" points="160.099,-44.5001 150.099,-48 160.099,-51.5001 160.099,-44.5001"/>
</g>
<!-- Node11 -->
<g id="node11" class="node"><title>Node11</title>
<g id="a_node11"><a xlink:href="libmorse_8h.html#a25fad1f4d176afaa89839cc897891e78" target="_top" xlink:title="rxString">
<polygon fill="white" stroke="black" points="199.5,-0.5 199.5,-19.5 249.5,-19.5 249.5,-0.5 199.5,-0.5"/>
<text text-anchor="middle" x="224.5" y="-7.5" font-family="Helvetica,sans-Serif" font-size="10.00">rxString</text>
</a>
</g>
</g>
<!-- Node8&#45;&gt;Node11 -->
<g id="edge10" class="edge"><title>Node8&#45;&gt;Node11</title>
<path fill="none" stroke="midnightblue" d="M157.664,-34.7702C171.454,-29.5815 186.931,-23.7586 199.412,-19.0627"/>
<polygon fill="midnightblue" stroke="midnightblue" points="156.114,-31.6137 147.987,-38.411 158.579,-38.1654 156.114,-31.6137"/>
</g>
<!-- Node10 -->
<g id="node10" class="node"><title>Node10</title>
<g id="a_node10"><a xlink:href="actions_8h.html#a1fec7da4166b9612d2deec3d0262d60f" target="_top" xlink:title="dispatchOnStack">
<polygon fill="white" stroke="black" points="297,-19.5 297,-38.5 389,-38.5 389,-19.5 297,-19.5"/>
<text text-anchor="middle" x="343" y="-26.5" font-family="Helvetica,sans-Serif" font-size="10.00">dispatchOnStack</text>
</a>
</g>
</g>
<!-- Node9&#45;&gt;Node10 -->
<g id="edge9" class="edge"><title>Node9&#45;&gt;Node10</title>
<path fill="none" stroke="midnightblue" d="M269.101,-40.8891C278.105,-39.4206 287.61,-37.8705 296.674,-36.3922"/>
<polygon fill="midnightblue" stroke="midnightblue" points="268.503,-37.4403 259.197,-42.5044 269.63,-44.3491 268.503,-37.4403"/>
</g>
<!-- Node11&#45;&gt;Node10 -->
<g id="edge11" class="edge"><title>Node11&#45;&gt;Node10</title>
<path fill="none" stroke="midnightblue" d="M259.762,-15.5879C271.327,-17.4739 284.419,-19.6092 296.703,-21.6125"/>
<polygon fill="midnightblue" stroke="midnightblue" points="260.072,-12.0922 249.639,-13.9368 258.945,-19.0009 260.072,-12.0922"/>
</g>
</g>
</svg>
