<?xml version="1.0" encoding="UTF-8" standalone="no"?>
<!DOCTYPE svg PUBLIC "-//W3C//DTD SVG 1.1//EN"
 "http://www.w3.org/Graphics/SVG/1.1/DTD/svg11.dtd">
<!-- Generated by graphviz version 2.38.0 (20140413.2041)
 -->
<!-- Title: morse_token.h Pages: 1 -->
<svg width="725pt" height="252pt"
 viewBox="0.00 0.00 725.14 252.00" xmlns="http://www.w3.org/2000/svg" xmlns:xlink="http://www.w3.org/1999/xlink">
<g id="graph0" class="graph" transform="scale(1 1) rotate(0) translate(4 248)">
<title>morse_token.h</title>
<polygon fill="white" stroke="none" points="-4,4 -4,-248 721.144,-248 721.144,4 -4,4"/>
<!-- Node1 -->
<g id="node1" class="node"><title>Node1</title>
<polygon fill="#bfbfbf" stroke="black" points="349.5,-224.5 349.5,-243.5 430.5,-243.5 430.5,-224.5 349.5,-224.5"/>
<text text-anchor="middle" x="390" y="-231.5" font-family="Helvetica,sans-Serif" font-size="10.00">morse_token.h</text>
</g>
<!-- Node2 -->
<g id="node2" class="node"><title>Node2</title>
<g id="a_node2"><a xlink:href="libmorse_8h.html" target="_top" xlink:title="Morse code operations. ">
<polygon fill="white" stroke="black" points="544,-168.5 544,-187.5 606,-187.5 606,-168.5 544,-168.5"/>
<text text-anchor="middle" x="575" y="-175.5" font-family="Helvetica,sans-Serif" font-size="10.00">libmorse.h</text>
</a>
</g>
</g>
<!-- Node1&#45;&gt;Node2 -->
<g id="edge1" class="edge"><title>Node1&#45;&gt;Node2</title>
<path fill="none" stroke="midnightblue" d="M429.166,-221.568C464.065,-211.381 514.349,-196.703 545.823,-187.516"/>
<polygon fill="midnightblue" stroke="midnightblue" points="427.933,-218.282 419.314,-224.444 429.894,-225.001 427.933,-218.282"/>
</g>
<!-- Node3 -->
<g id="node3" class="node"><title>Node3</title>
<g id="a_node3"><a xlink:href="actions_8h.html" target="_top" xlink:title="Application&#45;specific actions. ">
<polygon fill="white" stroke="black" points="362,-112.5 362,-131.5 418,-131.5 418,-112.5 362,-112.5"/>
<text text-anchor="middle" x="390" y="-119.5" font-family="Helvetica,sans-Serif" font-size="10.00">actions.h</text>
</a>
</g>
</g>
<!-- Node1&#45;&gt;Node3 -->
<g id="edge17" class="edge"><title>Node1&#45;&gt;Node3</title>
<path fill="none" stroke="midnightblue" d="M390,-214.348C390,-190.254 390,-149.308 390,-131.591"/>
<polygon fill="midnightblue" stroke="midnightblue" points="386.5,-214.368 390,-224.368 393.5,-214.369 386.5,-214.368"/>
</g>
<!-- Node8 -->
<g id="node8" class="node"><title>Node8</title>
<g id="a_node8"><a xlink:href="morse__token_8cpp.html" target="_top" xlink:title="Implementation of Morse code operations. ">
<polygon fill="white" stroke="black" points="0,-56.5 0,-75.5 92,-75.5 92,-56.5 0,-56.5"/>
<text text-anchor="middle" x="46" y="-63.5" font-family="Helvetica,sans-Serif" font-size="10.00">morse_token.cpp</text>
</a>
</g>
</g>
<!-- Node1&#45;&gt;Node8 -->
<g id="edge18" class="edge"><title>Node1&#45;&gt;Node8</title>
<path fill="none" stroke="midnightblue" d="M362.799,-219.874C295.063,-187.187 120.242,-102.826 63.8323,-75.6051"/>
<polygon fill="midnightblue" stroke="midnightblue" points="361.462,-223.115 371.989,-224.309 364.504,-216.811 361.462,-223.115"/>
</g>
<!-- Node2&#45;&gt;Node3 -->
<g id="edge2" class="edge"><title>Node2&#45;&gt;Node3</title>
<path fill="none" stroke="midnightblue" d="M535.743,-165.541C500.509,-155.257 449.647,-140.411 418.267,-131.251"/>
<polygon fill="midnightblue" stroke="midnightblue" points="535.106,-169.001 545.686,-168.444 537.067,-162.282 535.106,-169.001"/>
</g>
<!-- Node6 -->
<g id="node6" class="node"><title>Node6</title>
<g id="a_node6"><a xlink:href="libmorse_8cpp.html" target="_top" xlink:title="Implementation of Morse code operations. ">
<polygon fill="white" stroke="black" points="633,-56.5 633,-75.5 705,-75.5 705,-56.5 633,-56.5"/>
<text text-anchor="middle" x="669" y="-63.5" font-family="Helvetica,sans-Serif" font-size="10.00">libmorse.cpp</text>
</a>
</g>
</g>
<!-- Node2&#45;&gt;Node6 -->
<g id="edge12" class="edge"><title>Node2&#45;&gt;Node6</title>
<path fill="none" stroke="midnightblue" d="M607.605,-164.103C622.459,-156.727 639.116,-146.1 650,-132 663.075,-115.062 667.162,-89.3545 668.433,-75.9078"/>
<polygon fill="midnightblue" stroke="midnightblue" points="605.775,-161.094 598.183,-168.484 608.726,-167.441 605.775,-161.094"/>
</g>
<!-- Node12 -->
<g id="node12" class="node"><title>Node12</title>
<g id="a_node12"><a xlink:href="teensy3__morse__bsp_8cpp.html" target="_top" xlink:title="Implementation of Teensy 3.0 board support package. ">
<polygon fill="white" stroke="black" points="553.5,-0.5 553.5,-19.5 676.5,-19.5 676.5,-0.5 553.5,-0.5"/>
<text text-anchor="middle" x="615" y="-7.5" font-family="Helvetica,sans-Serif" font-size="10.00">teensy3_morse_bsp.cpp</text>
</a>
</g>
</g>
<!-- Node2&#45;&gt;Node12 -->
<g id="edge16" class="edge"><title>Node2&#45;&gt;Node12</title>
<path fill="none" stroke="midnightblue" d="M610.808,-164.652C646.398,-150.007 697.93,-121.652 714,-76 716.951,-67.6154 718.812,-63.4735 714,-56 701.786,-37.031 679.402,-25.9659 659.006,-19.559"/>
<polygon fill="midnightblue" stroke="midnightblue" points="609.257,-161.501 601.235,-168.422 611.822,-168.014 609.257,-161.501"/>
</g>
<!-- Node13 -->
<g id="node13" class="node"><title>Node13</title>
<g id="a_node13"><a xlink:href="pda_8h.html" target="_top" xlink:title="Personal Digital Assistant functions. ">
<polygon fill="white" stroke="black" points="519.5,-112.5 519.5,-131.5 560.5,-131.5 560.5,-112.5 519.5,-112.5"/>
<text text-anchor="middle" x="540" y="-119.5" font-family="Helvetica,sans-Serif" font-size="10.00">pda.h</text>
</a>
</g>
</g>
<!-- Node2&#45;&gt;Node13 -->
<g id="edge13" class="edge"><title>Node2&#45;&gt;Node13</title>
<path fill="none" stroke="midnightblue" d="M563.7,-159.566C557.678,-150.275 550.531,-139.248 545.672,-131.751"/>
<polygon fill="midnightblue" stroke="midnightblue" points="560.844,-161.595 569.22,-168.083 566.719,-157.788 560.844,-161.595"/>
</g>
<!-- Node14 -->
<g id="node14" class="node"><title>Node14</title>
<g id="a_node14"><a xlink:href="sound_8cpp.html" target="_top" xlink:title="Implementation of PWM sound effects. ">
<polygon fill="white" stroke="black" points="579,-112.5 579,-131.5 641,-131.5 641,-112.5 579,-112.5"/>
<text text-anchor="middle" x="610" y="-119.5" font-family="Helvetica,sans-Serif" font-size="10.00">sound.cpp</text>
</a>
</g>
</g>
<!-- Node2&#45;&gt;Node14 -->
<g id="edge15" class="edge"><title>Node2&#45;&gt;Node14</title>
<path fill="none" stroke="midnightblue" d="M586.3,-159.566C592.322,-150.275 599.469,-139.248 604.328,-131.751"/>
<polygon fill="midnightblue" stroke="midnightblue" points="583.281,-157.788 580.78,-168.083 589.156,-161.595 583.281,-157.788"/>
</g>
<!-- Node4 -->
<g id="node4" class="node"><title>Node4</title>
<g id="a_node4"><a xlink:href="actions_8cpp.html" target="_top" xlink:title="Implementation of application&#45;specific actions. ">
<polygon fill="white" stroke="black" points="187.5,-56.5 187.5,-75.5 254.5,-75.5 254.5,-56.5 187.5,-56.5"/>
<text text-anchor="middle" x="221" y="-63.5" font-family="Helvetica,sans-Serif" font-size="10.00">actions.cpp</text>
</a>
</g>
</g>
<!-- Node3&#45;&gt;Node4 -->
<g id="edge3" class="edge"><title>Node3&#45;&gt;Node4</title>
<path fill="none" stroke="midnightblue" d="M353.397,-109.304C321.553,-99.1294 276.158,-84.6246 247.653,-75.5164"/>
<polygon fill="midnightblue" stroke="midnightblue" points="352.631,-112.734 363.221,-112.444 354.761,-106.066 352.631,-112.734"/>
</g>
<!-- Node5 -->
<g id="node5" class="node"><title>Node5</title>
<g id="a_node5"><a xlink:href="didah_8ino.html" target="_top" xlink:title="Top&#45;level entry points for the Morse code PDA/Application. ">
<polygon fill="white" stroke="black" points="273,-56.5 273,-75.5 329,-75.5 329,-56.5 273,-56.5"/>
<text text-anchor="middle" x="301" y="-63.5" font-family="Helvetica,sans-Serif" font-size="10.00">didah.ino</text>
</a>
</g>
</g>
<!-- Node3&#45;&gt;Node5 -->
<g id="edge4" class="edge"><title>Node3&#45;&gt;Node5</title>
<path fill="none" stroke="midnightblue" d="M366.762,-106.901C350.442,-96.9986 329.135,-84.0705 315.264,-75.6545"/>
<polygon fill="midnightblue" stroke="midnightblue" points="365.336,-110.129 375.701,-112.324 368.967,-104.144 365.336,-110.129"/>
</g>
<!-- Node3&#45;&gt;Node6 -->
<g id="edge5" class="edge"><title>Node3&#45;&gt;Node6</title>
<path fill="none" stroke="midnightblue" d="M428.212,-113.649C474.373,-104.763 554.383,-89.3386 623,-76 626.195,-75.3789 629.515,-74.7321 632.842,-74.0829"/>
<polygon fill="midnightblue" stroke="midnightblue" points="427.497,-110.223 418.339,-115.55 428.82,-117.097 427.497,-110.223"/>
</g>
<!-- Node7 -->
<g id="node7" class="node"><title>Node7</title>
<g id="a_node7"><a xlink:href="morse__digit_8cpp.html" target="_top" xlink:title="Implementation of decimal digit to Morse code conversion. ">
<polygon fill="white" stroke="black" points="347,-56.5 347,-75.5 433,-75.5 433,-56.5 347,-56.5"/>
<text text-anchor="middle" x="390" y="-63.5" font-family="Helvetica,sans-Serif" font-size="10.00">morse_digit.cpp</text>
</a>
</g>
</g>
<!-- Node3&#45;&gt;Node7 -->
<g id="edge6" class="edge"><title>Node3&#45;&gt;Node7</title>
<path fill="none" stroke="midnightblue" d="M390,-101.805C390,-92.9102 390,-82.7798 390,-75.7511"/>
<polygon fill="midnightblue" stroke="midnightblue" points="386.5,-102.083 390,-112.083 393.5,-102.083 386.5,-102.083"/>
</g>
<!-- Node3&#45;&gt;Node8 -->
<g id="edge7" class="edge"><title>Node3&#45;&gt;Node8</title>
<path fill="none" stroke="midnightblue" d="M351.62,-115.12C296.248,-106.616 190.739,-90.3286 101,-76 98.1336,-75.5423 95.1837,-75.0683 92.2093,-74.5881"/>
<polygon fill="midnightblue" stroke="midnightblue" points="351.269,-118.607 361.684,-116.665 352.331,-111.688 351.269,-118.607"/>
</g>
<!-- Node9 -->
<g id="node9" class="node"><title>Node9</title>
<g id="a_node9"><a xlink:href="pda_8cpp.html" target="_top" xlink:title="Implementation of Personal Digital Assistant functions. ">
<polygon fill="white" stroke="black" points="563.5,-56.5 563.5,-75.5 614.5,-75.5 614.5,-56.5 563.5,-56.5"/>
<text text-anchor="middle" x="589" y="-63.5" font-family="Helvetica,sans-Serif" font-size="10.00">pda.cpp</text>
</a>
</g>
</g>
<!-- Node3&#45;&gt;Node9 -->
<g id="edge8" class="edge"><title>Node3&#45;&gt;Node9</title>
<path fill="none" stroke="midnightblue" d="M427.935,-110.706C467.63,-99.9345 528.863,-83.3186 563.264,-73.9837"/>
<polygon fill="midnightblue" stroke="midnightblue" points="426.824,-107.381 418.09,-113.378 428.657,-114.137 426.824,-107.381"/>
</g>
<!-- Node10 -->
<g id="node10" class="node"><title>Node10</title>
<g id="a_node10"><a xlink:href="stack_8cpp.html" target="_top" xlink:title="Implementation of Stack&#45;related convenience functions. ">
<polygon fill="white" stroke="black" points="110.5,-56.5 110.5,-75.5 169.5,-75.5 169.5,-56.5 110.5,-56.5"/>
<text text-anchor="middle" x="140" y="-63.5" font-family="Helvetica,sans-Serif" font-size="10.00">stack.cpp</text>
</a>
</g>
</g>
<!-- Node3&#45;&gt;Node10 -->
<g id="edge9" class="edge"><title>Node3&#45;&gt;Node10</title>
<path fill="none" stroke="midnightblue" d="M351.925,-113.198C309.446,-104.428 238.708,-89.6303 178,-76 175.354,-75.4059 172.607,-74.7778 169.855,-74.1407"/>
<polygon fill="midnightblue" stroke="midnightblue" points="351.334,-116.649 361.834,-115.24 352.747,-109.794 351.334,-116.649"/>
</g>
<!-- Node11 -->
<g id="node11" class="node"><title>Node11</title>
<g id="a_node11"><a xlink:href="voltage__monitor_8h.html" target="_top" xlink:title="Trivial co&#45;routine to gather and filter ADC samples. ">
<polygon fill="white" stroke="black" points="451,-56.5 451,-75.5 545,-75.5 545,-56.5 451,-56.5"/>
<text text-anchor="middle" x="498" y="-63.5" font-family="Helvetica,sans-Serif" font-size="10.00">voltage_monitor.h</text>
</a>
</g>
</g>
<!-- Node3&#45;&gt;Node11 -->
<g id="edge10" class="edge"><title>Node3&#45;&gt;Node11</title>
<path fill="none" stroke="midnightblue" d="M416.548,-107.726C436.546,-97.7271 463.387,-84.3065 480.691,-75.6545"/>
<polygon fill="midnightblue" stroke="midnightblue" points="414.731,-104.721 407.352,-112.324 417.862,-110.982 414.731,-104.721"/>
</g>
<!-- Node11&#45;&gt;Node12 -->
<g id="edge11" class="edge"><title>Node11&#45;&gt;Node12</title>
<path fill="none" stroke="midnightblue" d="M525.664,-52.2321C547.549,-42.1312 577.497,-28.3091 596.548,-19.5164"/>
<polygon fill="midnightblue" stroke="midnightblue" points="524.152,-49.075 516.539,-56.4435 527.085,-55.4308 524.152,-49.075"/>
</g>
<!-- Node13&#45;&gt;Node9 -->
<g id="edge14" class="edge"><title>Node13&#45;&gt;Node9</title>
<path fill="none" stroke="midnightblue" d="M555.034,-104.431C563.622,-94.9673 574.043,-83.4827 581.059,-75.7511"/>
<polygon fill="midnightblue" stroke="midnightblue" points="552.219,-102.325 548.091,-112.083 557.403,-107.029 552.219,-102.325"/>
</g>
</g>
</svg>
