<?xml version="1.0" encoding="UTF-8" standalone="no"?>
<!DOCTYPE svg PUBLIC "-//W3C//DTD SVG 1.1//EN"
 "http://www.w3.org/Graphics/SVG/1.1/DTD/svg11.dtd">
<!-- Generated by graphviz version 2.38.0 (20140413.2041)
 -->
<!-- Title: morse_token.cpp Pages: 1 -->
<!--zoomable 308 -->
<svg id="main" version="1.1" xmlns="http://www.w3.org/2000/svg" xmlns:xlink="http://www.w3.org/1999/xlink" xml:space="preserve" onload="init(evt)">
<style type="text/css"><![CDATA[
.edge:hover path { stroke: red; }
.edge:hover polygon { stroke: red; fill: red; }
]]></style>
<script type="text/javascript"><![CDATA[
var edges = document.getElementsByTagName('g');
if (edges && edges.length) {
  for (var i=0;i<edges.length;i++) {
    if (edges[i].id.substr(0,4)=='edge') {
      edges[i].setAttribute('class','edge');
    }
  }
}
]]></script>
        <defs>
                <circle id="rim" cx="0" cy="0" r="7"/>
                <circle id="rim2" cx="0" cy="0" r="3.5"/>
                <g id="zoomPlus">
                        <use xlink:href="#rim" fill="#404040">
                                <set attributeName="fill" to="#808080" begin="zoomplus.mouseover" end="zoomplus.mouseout"/>
                        </use>
                        <path d="M-4,0h8M0,-4v8" fill="none" stroke="white" stroke-width="1.5" pointer-events="none"/>
                </g>
                <g id="zoomMin">
                        <use xlink:href="#rim" fill="#404040">
                                <set attributeName="fill" to="#808080" begin="zoomminus.mouseover" end="zoomminus.mouseout"/>
                        </use>
                        <path d="M-4,0h8" fill="none" stroke="white" stroke-width="1.5" pointer-events="none"/>
                </g>
                <g id="dirArrow">
                        <path fill="none" stroke="white" stroke-width="1.5" d="M0,-3.0v7 M-2.5,-0.5L0,-3.0L2.5,-0.5"/>
                </g>
               <g id="resetDef">
                       <use xlink:href="#rim2" fill="#404040">
                               <set attributeName="fill" to="#808080" begin="reset.mouseover" end="reset.mouseout"/>
                       </use>
               </g>
        </defs>

<script type="text/javascript">
var viewWidth = 559;
var viewHeight = 308;
var sectionId = 'dynsection-0';
</script>
<script xlink:href="svgpan.js"/>
<svg id="graph" class="graph">
<g id="viewport">
<title>morse_token.cpp</title>
<polygon fill="white" stroke="none" points="-4,4 -4,-304 554.936,-304 554.936,4 -4,4"/>
<!-- Node1 -->
<g id="node1" class="node"><title>Node1</title>
<polygon fill="#bfbfbf" stroke="black" points="145.936,-280.5 145.936,-299.5 237.936,-299.5 237.936,-280.5 145.936,-280.5"/>
<text text-anchor="middle" x="191.936" y="-287.5" font-family="Helvetica,sans-Serif" font-size="10.00">morse_token.cpp</text>
</g>
<!-- Node2 -->
<g id="node2" class="node"><title>Node2</title>
<g id="a_node2"><a xlink:href="morse__token_8h.html" target="_top" xlink:title="Defines the MorseToken class and various helpers. ">
<polygon fill="white" stroke="black" points="83.436,-112.5 83.436,-131.5 164.436,-131.5 164.436,-112.5 83.436,-112.5"/>
<text text-anchor="middle" x="123.936" y="-119.5" font-family="Helvetica,sans-Serif" font-size="10.00">morse_token.h</text>
</a>
</g>
</g>
<!-- Node1&#45;&gt;Node2 -->
<g id="edge1" class="edge"><title>Node1&#45;&gt;Node2</title>
<path fill="none" stroke="midnightblue" d="M188.28,-280.075C177.53,-253.832 145.87,-176.545 131.357,-141.117"/>
<polygon fill="midnightblue" stroke="midnightblue" points="134.475,-139.495 127.446,-131.568 127.998,-142.149 134.475,-139.495"/>
</g>
<!-- Node8 -->
<g id="node8" class="node"><title>Node8</title>
<g id="a_node8"><a xlink:href="actions_8h.html" target="_top" xlink:title="Application&#45;specific actions. ">
<polygon fill="white" stroke="black" points="203.936,-224.5 203.936,-243.5 259.936,-243.5 259.936,-224.5 203.936,-224.5"/>
<text text-anchor="middle" x="231.936" y="-231.5" font-family="Helvetica,sans-Serif" font-size="10.00">actions.h</text>
</a>
</g>
</g>
<!-- Node1&#45;&gt;Node8 -->
<g id="edge8" class="edge"><title>Node1&#45;&gt;Node8</title>
<path fill="none" stroke="midnightblue" d="M198.541,-280.083C204.191,-272.455 212.481,-261.264 219.387,-251.941"/>
<polygon fill="midnightblue" stroke="midnightblue" points="222.314,-253.87 225.454,-243.751 216.689,-249.703 222.314,-253.87"/>
</g>
<!-- Node3 -->
<g id="node3" class="node"><title>Node3</title>
<polygon fill="white" stroke="#bfbfbf" points="155.936,-56.5 155.936,-75.5 211.936,-75.5 211.936,-56.5 155.936,-56.5"/>
<text text-anchor="middle" x="183.936" y="-63.5" font-family="Helvetica,sans-Serif" font-size="10.00">cinttypes</text>
</g>
<!-- Node2&#45;&gt;Node3 -->
<g id="edge2" class="edge"><title>Node2&#45;&gt;Node3</title>
<path fill="none" stroke="midnightblue" d="M133.576,-112.324C142.446,-104.341 155.811,-92.3128 166.544,-82.6529"/>
<polygon fill="midnightblue" stroke="midnightblue" points="169.029,-85.1251 174.121,-75.8339 164.346,-79.922 169.029,-85.1251"/>
</g>
<!-- Node4 -->
<g id="node4" class="node"><title>Node4</title>
<polygon fill="white" stroke="#bfbfbf" points="87.436,-0.5 87.436,-19.5 132.436,-19.5 132.436,-0.5 87.436,-0.5"/>
<text text-anchor="middle" x="109.936" y="-7.5" font-family="Helvetica,sans-Serif" font-size="10.00">climits</text>
</g>
<!-- Node2&#45;&gt;Node4 -->
<g id="edge3" class="edge"><title>Node2&#45;&gt;Node4</title>
<path fill="none" stroke="midnightblue" d="M83.3152,-117.273C56.2137,-112.434 22.4515,-101.349 4.93604,-76 -16.1187,-45.5283 39.0608,-26.5822 77.1718,-17.4828"/>
<polygon fill="midnightblue" stroke="midnightblue" points="78.407,-20.7921 87.3909,-15.176 76.8656,-13.9639 78.407,-20.7921"/>
</g>
<!-- Node5 -->
<g id="node5" class="node"><title>Node5</title>
<polygon fill="white" stroke="#bfbfbf" points="14.436,-56.5 14.436,-75.5 63.436,-75.5 63.436,-56.5 14.436,-56.5"/>
<text text-anchor="middle" x="38.936" y="-63.5" font-family="Helvetica,sans-Serif" font-size="10.00">cstddef</text>
</g>
<!-- Node2&#45;&gt;Node5 -->
<g id="edge4" class="edge"><title>Node2&#45;&gt;Node5</title>
<path fill="none" stroke="midnightblue" d="M110.279,-112.324C97.0197,-103.9 76.668,-90.9709 61.0898,-81.0741"/>
<polygon fill="midnightblue" stroke="midnightblue" points="62.8764,-78.0626 52.5589,-75.6545 59.1228,-83.9711 62.8764,-78.0626"/>
</g>
<!-- Node6 -->
<g id="node6" class="node"><title>Node6</title>
<g id="a_node6"><a xlink:href="prosign_8h.html" target="_top" xlink:title="Prosign constants. ">
<polygon fill="white" stroke="black" points="81.936,-56.5 81.936,-75.5 137.936,-75.5 137.936,-56.5 81.936,-56.5"/>
<text text-anchor="middle" x="109.936" y="-63.5" font-family="Helvetica,sans-Serif" font-size="10.00">prosign.h</text>
</a>
</g>
</g>
<!-- Node2&#45;&gt;Node6 -->
<g id="edge5" class="edge"><title>Node2&#45;&gt;Node6</title>
<path fill="none" stroke="midnightblue" d="M121.624,-112.083C119.769,-104.927 117.101,-94.6353 114.782,-85.6911"/>
<polygon fill="midnightblue" stroke="midnightblue" points="118.103,-84.5527 112.205,-75.7511 111.327,-86.3094 118.103,-84.5527"/>
</g>
<!-- Node6&#45;&gt;Node4 -->
<g id="edge7" class="edge"><title>Node6&#45;&gt;Node4</title>
<path fill="none" stroke="midnightblue" d="M109.936,-56.083C109.936,-49.0059 109.936,-38.8611 109.936,-29.9865"/>
<polygon fill="midnightblue" stroke="midnightblue" points="113.436,-29.751 109.936,-19.7511 106.436,-29.7511 113.436,-29.751"/>
</g>
<!-- Node7 -->
<g id="node7" class="node"><title>Node7</title>
<g id="a_node7"><a xlink:href="binconst_8h.html" target="_top" xlink:title="Binary constant generator macro. ">
<polygon fill="white" stroke="black" points="256.936,-0.5 256.936,-19.5 318.936,-19.5 318.936,-0.5 256.936,-0.5"/>
<text text-anchor="middle" x="287.936" y="-7.5" font-family="Helvetica,sans-Serif" font-size="10.00">binconst.h</text>
</a>
</g>
</g>
<!-- Node6&#45;&gt;Node7 -->
<g id="edge6" class="edge"><title>Node6&#45;&gt;Node7</title>
<path fill="none" stroke="midnightblue" d="M138.141,-56.4435C168.346,-47.2801 216.447,-32.6876 249.965,-22.5192"/>
<polygon fill="midnightblue" stroke="midnightblue" points="251.31,-25.7688 259.863,-19.5164 249.278,-19.0703 251.31,-25.7688"/>
</g>
<!-- Node8&#45;&gt;Node2 -->
<g id="edge19" class="edge"><title>Node8&#45;&gt;Node2</title>
<path fill="none" stroke="midnightblue" d="M223.461,-224.368C205.323,-205.894 162.514,-162.293 139.393,-138.744"/>
<polygon fill="midnightblue" stroke="midnightblue" points="141.875,-136.275 132.371,-131.591 136.88,-141.179 141.875,-136.275"/>
</g>
<!-- Node9 -->
<g id="node9" class="node"><title>Node9</title>
<polygon fill="white" stroke="#bfbfbf" points="492.936,-56.5 492.936,-75.5 550.936,-75.5 550.936,-56.5 492.936,-56.5"/>
<text text-anchor="middle" x="521.936" y="-63.5" font-family="Helvetica,sans-Serif" font-size="10.00">Arduino.h</text>
</g>
<!-- Node8&#45;&gt;Node9 -->
<g id="edge9" class="edge"><title>Node8&#45;&gt;Node9</title>
<path fill="none" stroke="midnightblue" d="M260.277,-233.9C324.005,-234.186 478.312,-224.788 545.936,-132 556.514,-117.486 546.591,-97.7937 536.482,-83.8992"/>
<polygon fill="midnightblue" stroke="midnightblue" points="538.968,-81.3998 530.025,-75.7185 533.473,-85.7366 538.968,-81.3998"/>
</g>
<!-- Node10 -->
<g id="node10" class="node"><title>Node10</title>
<g id="a_node10"><a xlink:href="libmorse_8h.html" target="_top" xlink:title="Morse code operations. ">
<polygon fill="white" stroke="black" points="224.936,-168.5 224.936,-187.5 286.936,-187.5 286.936,-168.5 224.936,-168.5"/>
<text text-anchor="middle" x="255.936" y="-175.5" font-family="Helvetica,sans-Serif" font-size="10.00">libmorse.h</text>
</a>
</g>
</g>
<!-- Node8&#45;&gt;Node10 -->
<g id="edge10" class="edge"><title>Node8&#45;&gt;Node10</title>
<path fill="none" stroke="midnightblue" d="M235.899,-224.083C239.149,-216.77 243.855,-206.181 247.89,-197.103"/>
<polygon fill="midnightblue" stroke="midnightblue" points="251.184,-198.311 252.047,-187.751 244.787,-195.468 251.184,-198.311"/>
</g>
<!-- Node10&#45;&gt;Node2 -->
<g id="edge18" class="edge"><title>Node10&#45;&gt;Node2</title>
<path fill="none" stroke="midnightblue" d="M235.02,-168.444C213.2,-159.517 178.786,-145.439 154.044,-135.317"/>
<polygon fill="midnightblue" stroke="midnightblue" points="155.335,-132.063 144.754,-131.516 152.684,-138.542 155.335,-132.063"/>
</g>
<!-- Node10&#45;&gt;Node3 -->
<g id="edge14" class="edge"><title>Node10&#45;&gt;Node3</title>
<path fill="none" stroke="midnightblue" d="M247.173,-168.225C238.77,-159.52 226.05,-145.555 216.936,-132 206.906,-117.083 197.848,-98.7104 191.77,-85.3081"/>
<polygon fill="midnightblue" stroke="midnightblue" points="194.81,-83.5254 187.574,-75.7864 188.404,-86.3486 194.81,-83.5254"/>
</g>
<!-- Node10&#45;&gt;Node4 -->
<g id="edge15" class="edge"><title>Node10&#45;&gt;Node4</title>
<path fill="none" stroke="midnightblue" d="M254.441,-168.336C250.013,-143.552 236.31,-73.055 220.936,-56 200.713,-33.5658 167.705,-22.1026 142.93,-16.383"/>
<polygon fill="midnightblue" stroke="midnightblue" points="143.384,-12.9019 132.878,-14.2681 141.943,-19.752 143.384,-12.9019"/>
</g>
<!-- Node10&#45;&gt;Node7 -->
<g id="edge11" class="edge"><title>Node10&#45;&gt;Node7</title>
<path fill="none" stroke="midnightblue" d="M286.967,-174.897C315.413,-171.132 356.039,-160.712 375.936,-132 403.099,-92.8036 346.041,-47.5945 311.592,-25.1566"/>
<polygon fill="midnightblue" stroke="midnightblue" points="313.297,-22.0938 302.974,-19.7073 309.556,-28.0101 313.297,-22.0938"/>
</g>
<!-- Node11 -->
<g id="node11" class="node"><title>Node11</title>
<polygon fill="white" stroke="#bfbfbf" points="259.436,-112.5 259.436,-131.5 302.436,-131.5 302.436,-112.5 259.436,-112.5"/>
<text text-anchor="middle" x="280.936" y="-119.5" font-family="Helvetica,sans-Serif" font-size="10.00">cstdio</text>
</g>
<!-- Node10&#45;&gt;Node11 -->
<g id="edge12" class="edge"><title>Node10&#45;&gt;Node11</title>
<path fill="none" stroke="midnightblue" d="M260.064,-168.083C263.45,-160.77 268.352,-150.181 272.555,-141.103"/>
<polygon fill="midnightblue" stroke="midnightblue" points="275.859,-142.296 276.885,-131.751 269.507,-139.355 275.859,-142.296"/>
</g>
<!-- Node12 -->
<g id="node12" class="node"><title>Node12</title>
<polygon fill="white" stroke="#bfbfbf" points="320.936,-112.5 320.936,-131.5 366.936,-131.5 366.936,-112.5 320.936,-112.5"/>
<text text-anchor="middle" x="343.936" y="-119.5" font-family="Helvetica,sans-Serif" font-size="10.00">cstring</text>
</g>
<!-- Node10&#45;&gt;Node12 -->
<g id="edge13" class="edge"><title>Node10&#45;&gt;Node12</title>
<path fill="none" stroke="midnightblue" d="M270.075,-168.324C283.802,-159.9 304.872,-146.971 321,-137.074"/>
<polygon fill="midnightblue" stroke="midnightblue" points="323.14,-139.868 329.832,-131.655 319.479,-133.902 323.14,-139.868"/>
</g>
<!-- Node13 -->
<g id="node13" class="node"><title>Node13</title>
<g id="a_node13"><a xlink:href="teensy3__morse__bsp_8h.html" target="_top" xlink:title="Teensy 3.0 board support package. ">
<polygon fill="white" stroke="black" points="423.436,-112.5 423.436,-131.5 536.436,-131.5 536.436,-112.5 423.436,-112.5"/>
<text text-anchor="middle" x="479.936" y="-119.5" font-family="Helvetica,sans-Serif" font-size="10.00">teensy3_morse_bsp.h</text>
</a>
</g>
</g>
<!-- Node10&#45;&gt;Node13 -->
<g id="edge16" class="edge"><title>Node10&#45;&gt;Node13</title>
<path fill="none" stroke="midnightblue" d="M287.082,-169.492C325.447,-160.243 390.914,-144.461 434.791,-133.883"/>
<polygon fill="midnightblue" stroke="midnightblue" points="435.727,-137.258 444.628,-131.512 434.086,-130.453 435.727,-137.258"/>
</g>
<!-- Node13&#45;&gt;Node9 -->
<g id="edge17" class="edge"><title>Node13&#45;&gt;Node9</title>
<path fill="none" stroke="midnightblue" d="M486.871,-112.083C492.865,-104.377 501.688,-93.0333 508.984,-83.6531"/>
<polygon fill="midnightblue" stroke="midnightblue" points="511.753,-85.7934 515.13,-75.7511 506.227,-81.4958 511.753,-85.7934"/>
</g>
</g>
</svg>
        <g id="navigator" transform="translate(0 0)" fill="#404254">
                <rect fill="#f2f5e9" fill-opacity="0.5" stroke="#606060" stroke-width=".5" x="0" y="0" width="60" height="60"/>
                <use id="zoomplus" xlink:href="#zoomPlus" x="17" y="9" onmousedown="handleZoom(evt,'in')"/>
                <use id="zoomminus" xlink:href="#zoomMin" x="42" y="9" onmousedown="handleZoom(evt,'out')"/>
                <use id="reset" xlink:href="#resetDef" x="30" y="36" onmousedown="handleReset()"/>
                <g id="arrowUp" xlink:href="#dirArrow" transform="translate(30 24)" onmousedown="handlePan(0,-1)">
                  <use xlink:href="#rim" fill="#404040">
                        <set attributeName="fill" to="#808080" begin="arrowUp.mouseover" end="arrowUp.mouseout"/>
                  </use>
                  <path fill="none" stroke="white" stroke-width="1.5" d="M0,-3.0v7 M-2.5,-0.5L0,-3.0L2.5,-0.5"/>
                </g>
                <g id="arrowRight" xlink:href="#dirArrow" transform="rotate(90) translate(36 -43)" onmousedown="handlePan(1,0)">
                  <use xlink:href="#rim" fill="#404040">
                        <set attributeName="fill" to="#808080" begin="arrowRight.mouseover" end="arrowRight.mouseout"/>
                  </use>
                  <path fill="none" stroke="white" stroke-width="1.5" d="M0,-3.0v7 M-2.5,-0.5L0,-3.0L2.5,-0.5"/>
                </g>
                <g id="arrowDown" xlink:href="#dirArrow" transform="rotate(180) translate(-30 -48)" onmousedown="handlePan(0,1)">
                  <use xlink:href="#rim" fill="#404040">
                        <set attributeName="fill" to="#808080" begin="arrowDown.mouseover" end="arrowDown.mouseout"/>
                  </use>
                  <path fill="none" stroke="white" stroke-width="1.5" d="M0,-3.0v7 M-2.5,-0.5L0,-3.0L2.5,-0.5"/>
                </g>
                <g id="arrowLeft" xlink:href="#dirArrow" transform="rotate(270) translate(-36 17)" onmousedown="handlePan(-1,0)">
                  <use xlink:href="#rim" fill="#404040">
                        <set attributeName="fill" to="#808080" begin="arrowLeft.mouseover" end="arrowLeft.mouseout"/>
                  </use>
                  <path fill="none" stroke="white" stroke-width="1.5" d="M0,-3.0v7 M-2.5,-0.5L0,-3.0L2.5,-0.5"/>
                </g>
        </g>
        <svg viewBox="0 0 15 15" width="100%" height="30px" preserveAspectRatio="xMaxYMin meet">
         <g id="arrow_out" transform="scale(0.3 0.3)">
          <a xlink:href="morse__token_8cpp__incl_org.svg" target="_base">
           <rect id="button" ry="5" rx="5" y="6" x="6" height="38" width="38"
                fill="#f2f5e9" fill-opacity="0.5" stroke="#606060" stroke-width="1.0"/>
           <path id="arrow"
             d="M 11.500037,31.436501 C 11.940474,20.09759 22.043105,11.32322 32.158766,21.979434 L 37.068811,17.246167 C 37.068811,17.246167 37.088388,32 37.088388,32 L 22.160133,31.978069 C 22.160133,31.978069 26.997745,27.140456 26.997745,27.140456 C 18.528582,18.264221 13.291696,25.230495 11.500037,31.436501 z"
             style="fill:#404040;"/>
          </a>
         </g>
        </svg>
</svg>
