<?xml version="1.0" encoding="UTF-8" standalone="no"?>
<!DOCTYPE svg PUBLIC "-//W3C//DTD SVG 1.1//EN"
 "http://www.w3.org/Graphics/SVG/1.1/DTD/svg11.dtd">
<!-- Generated by graphviz version 2.38.0 (20140413.2041)
 -->
<!-- Title: notes.h Pages: 1 -->
<svg width="144pt" height="84pt"
 viewBox="0.00 0.00 144.00 84.00" xmlns="http://www.w3.org/2000/svg" xmlns:xlink="http://www.w3.org/1999/xlink">
<g id="graph0" class="graph" transform="scale(1 1) rotate(0) translate(4 80)">
<title>notes.h</title>
<polygon fill="white" stroke="none" points="-4,4 -4,-80 140,-80 140,4 -4,4"/>
<!-- Node1 -->
<g id="node1" class="node"><title>Node1</title>
<polygon fill="#bfbfbf" stroke="black" points="47,-56.5 47,-75.5 96,-75.5 96,-56.5 47,-56.5"/>
<text text-anchor="middle" x="71.5" y="-63.5" font-family="Helvetica,sans-Serif" font-size="10.00">notes.h</text>
</g>
<!-- Node2 -->
<g id="node2" class="node"><title>Node2</title>
<g id="a_node2"><a xlink:href="actions_8cpp.html" target="_top" xlink:title="Implementation of application&#45;specific actions. ">
<polygon fill="white" stroke="black" points="0,-0.5 0,-19.5 67,-19.5 67,-0.5 0,-0.5"/>
<text text-anchor="middle" x="33.5" y="-7.5" font-family="Helvetica,sans-Serif" font-size="10.00">actions.cpp</text>
</a>
</g>
</g>
<!-- Node1&#45;&gt;Node2 -->
<g id="edge1" class="edge"><title>Node1&#45;&gt;Node2</title>
<path fill="none" stroke="midnightblue" d="M59.4353,-47.8554C52.8553,-38.5048 44.989,-27.3265 39.6582,-19.7511"/>
<polygon fill="midnightblue" stroke="midnightblue" points="56.6078,-49.9192 65.2251,-56.083 62.3324,-45.8907 56.6078,-49.9192"/>
</g>
<!-- Node3 -->
<g id="node3" class="node"><title>Node3</title>
<g id="a_node3"><a xlink:href="pda_8cpp.html" target="_top" xlink:title="Implementation of Personal Digital Assistant functions. ">
<polygon fill="white" stroke="black" points="85,-0.5 85,-19.5 136,-19.5 136,-0.5 85,-0.5"/>
<text text-anchor="middle" x="110.5" y="-7.5" font-family="Helvetica,sans-Serif" font-size="10.00">pda.cpp</text>
</a>
</g>
</g>
<!-- Node1&#45;&gt;Node3 -->
<g id="edge2" class="edge"><title>Node1&#45;&gt;Node3</title>
<path fill="none" stroke="midnightblue" d="M83.8822,-47.8554C90.6354,-38.5048 98.7086,-27.3265 104.18,-19.7511"/>
<polygon fill="midnightblue" stroke="midnightblue" points="80.9576,-45.927 77.9401,-56.083 86.6324,-50.0254 80.9576,-45.927"/>
</g>
</g>
</svg>
