<?xml version="1.0" encoding="UTF-8" standalone="no"?>
<!DOCTYPE svg PUBLIC "-//W3C//DTD SVG 1.1//EN"
 "http://www.w3.org/Graphics/SVG/1.1/DTD/svg11.dtd">
<!-- Generated by graphviz version 2.38.0 (20140413.2041)
 -->
<!-- Title: askSum Pages: 1 -->
<svg width="1432pt" height="794pt"
 viewBox="0.00 0.00 1432.00 794.38" xmlns="http://www.w3.org/2000/svg" xmlns:xlink="http://www.w3.org/1999/xlink">
<g id="graph0" class="graph" transform="scale(1 1) rotate(0) translate(4 790.38)">
<title>askSum</title>
<polygon fill="white" stroke="none" points="-4,4 -4,-790.38 1428,-790.38 1428,4 -4,4"/>
<!-- Node1 -->
<g id="node1" class="node"><title>Node1</title>
<polygon fill="#bfbfbf" stroke="black" points="0,-95.5 0,-114.5 53,-114.5 53,-95.5 0,-95.5"/>
<text text-anchor="middle" x="26.5" y="-102.5" font-family="Helvetica,sans-Serif" font-size="10.00">askSum</text>
</g>
<!-- Node2 -->
<g id="node2" class="node"><title>Node2</title>
<g id="a_node2"><a xlink:href="pda_8cpp.html#a79dd5e229b0bf72c859eb5449952bc1a" target="_top" xlink:title="getDigitByWeight">
<polygon fill="white" stroke="black" points="89,-461.5 89,-480.5 182,-480.5 182,-461.5 89,-461.5"/>
<text text-anchor="middle" x="135.5" y="-468.5" font-family="Helvetica,sans-Serif" font-size="10.00">getDigitByWeight</text>
</a>
</g>
</g>
<!-- Node1&#45;&gt;Node2 -->
<g id="edge1" class="edge"><title>Node1&#45;&gt;Node2</title>
<path fill="none" stroke="midnightblue" d="M27.4471,-114.734C27.6104,-155.079 32.0538,-312.228 89,-423 95.1718,-435.005 105.271,-446.107 114.388,-454.603"/>
<polygon fill="midnightblue" stroke="midnightblue" points="112.215,-457.354 122.024,-461.356 116.852,-452.11 112.215,-457.354"/>
</g>
<!-- Node4 -->
<g id="node4" class="node"><title>Node4</title>
<g id="a_node4"><a xlink:href="libmorse_8cpp.html#a0ee2308940264ea9ac8e50afc1a4d285" target="_top" xlink:title="txString">
<polygon fill="white" stroke="black" points="366,-494.5 366,-513.5 416,-513.5 416,-494.5 366,-494.5"/>
<text text-anchor="middle" x="391" y="-501.5" font-family="Helvetica,sans-Serif" font-size="10.00">txString</text>
</a>
</g>
</g>
<!-- Node1&#45;&gt;Node4 -->
<g id="edge3" class="edge"><title>Node1&#45;&gt;Node4</title>
<path fill="none" stroke="midnightblue" d="M36.4607,-114.863C84.5563,-167.801 312.219,-418.387 374.32,-486.741"/>
<polygon fill="midnightblue" stroke="midnightblue" points="372.038,-489.434 381.352,-494.482 377.219,-484.727 372.038,-489.434"/>
</g>
<!-- Node30 -->
<g id="node30" class="node"><title>Node30</title>
<g id="a_node30"><a xlink:href="stack_8cpp.html#ae73e1851820a958c7de01c9ed36d1b7c" target="_top" xlink:title="pushSymbolStack">
<polygon fill="white" stroke="black" points="218,-38.5 218,-57.5 314,-57.5 314,-38.5 218,-38.5"/>
<text text-anchor="middle" x="266" y="-45.5" font-family="Helvetica,sans-Serif" font-size="10.00">pushSymbolStack</text>
</a>
</g>
</g>
<!-- Node1&#45;&gt;Node30 -->
<g id="edge40" class="edge"><title>Node1&#45;&gt;Node30</title>
<path fill="none" stroke="midnightblue" d="M39.3911,-95.3866C51.2125,-86.402 70.2429,-73.4353 89,-67 127.232,-53.8831 172.633,-49.229 207.746,-47.8041"/>
<polygon fill="midnightblue" stroke="midnightblue" points="207.948,-51.2995 217.827,-47.4715 207.717,-44.3033 207.948,-51.2995"/>
</g>
<!-- Node32 -->
<g id="node32" class="node"><title>Node32</title>
<g id="a_node32"><a xlink:href="actions_8cpp.html#aa1ebbe304654c025f3f02ea434718884" target="_top" xlink:title="saveActions">
<polygon fill="white" stroke="black" points="100,-76.5 100,-95.5 171,-95.5 171,-76.5 100,-76.5"/>
<text text-anchor="middle" x="135.5" y="-83.5" font-family="Helvetica,sans-Serif" font-size="10.00">saveActions</text>
</a>
</g>
</g>
<!-- Node1&#45;&gt;Node32 -->
<g id="edge42" class="edge"><title>Node1&#45;&gt;Node32</title>
<path fill="none" stroke="midnightblue" d="M53.1292,-100.449C64.1545,-98.4913 77.3708,-96.1444 89.9144,-93.9171"/>
<polygon fill="midnightblue" stroke="midnightblue" points="90.5412,-97.3606 99.7752,-92.1661 89.3172,-90.4684 90.5412,-97.3606"/>
</g>
<!-- Node34 -->
<g id="node34" class="node"><title>Node34</title>
<g id="a_node34"><a xlink:href="actions_8cpp.html#a76e8c23475fa40e7d5504df1379711d8" target="_top" xlink:title="Hash a Morse code symbol to a table location and store action there. ">
<polygon fill="white" stroke="black" points="99,-0.5 99,-19.5 172,-19.5 172,-0.5 99,-0.5"/>
<text text-anchor="middle" x="135.5" y="-7.5" font-family="Helvetica,sans-Serif" font-size="10.00">assignAction</text>
</a>
</g>
</g>
<!-- Node1&#45;&gt;Node34 -->
<g id="edge44" class="edge"><title>Node1&#45;&gt;Node34</title>
<path fill="none" stroke="midnightblue" d="M34.1193,-95.259C44.4791,-80.5569 65.7579,-52.4582 89,-34 93.371,-30.5286 98.3198,-27.3218 103.304,-24.4571"/>
<polygon fill="midnightblue" stroke="midnightblue" points="105.038,-27.4988 112.195,-19.6873 101.729,-21.3303 105.038,-27.4988"/>
</g>
<!-- Node37 -->
<g id="node37" class="node"><title>Node37</title>
<g id="a_node37"><a xlink:href="pda_8cpp.html#a15825e7325bc5cdbd18cf2c6055baef1" target="_top" xlink:title="gradeRestore">
<polygon fill="white" stroke="black" points="98,-114.5 98,-133.5 173,-133.5 173,-114.5 98,-114.5"/>
<text text-anchor="middle" x="135.5" y="-121.5" font-family="Helvetica,sans-Serif" font-size="10.00">gradeRestore</text>
</a>
</g>
</g>
<!-- Node1&#45;&gt;Node37 -->
<g id="edge47" class="edge"><title>Node1&#45;&gt;Node37</title>
<path fill="none" stroke="midnightblue" d="M53.1292,-109.551C63.5623,-111.404 75.9574,-113.605 87.8879,-115.723"/>
<polygon fill="midnightblue" stroke="midnightblue" points="87.2889,-119.171 97.7469,-117.474 88.5128,-112.279 87.2889,-119.171"/>
</g>
<!-- Node3 -->
<g id="node3" class="node"><title>Node3</title>
<g id="a_node3"><a xlink:href="pda_8cpp.html#a1a806231b654cc29df4a12c73249b662" target="_top" xlink:title="digitErrCount">
<polygon fill="white" stroke="black" points="354,-532.5 354,-551.5 428,-551.5 428,-532.5 354,-532.5"/>
<text text-anchor="middle" x="391" y="-539.5" font-family="Helvetica,sans-Serif" font-size="10.00">digitErrCount</text>
</a>
</g>
</g>
<!-- Node2&#45;&gt;Node3 -->
<g id="edge2" class="edge"><title>Node2&#45;&gt;Node3</title>
<path fill="none" stroke="midnightblue" d="M170.425,-480.502C215.738,-493.193 296.087,-515.697 346.008,-529.679"/>
<polygon fill="midnightblue" stroke="midnightblue" points="345.298,-533.114 355.871,-532.441 347.186,-526.374 345.298,-533.114"/>
</g>
<!-- Node5 -->
<g id="node5" class="node"><title>Node5</title>
<g id="a_node5"><a xlink:href="teensy3__morse__bsp_8cpp.html#ab306f692c5c9455a0c82782a67ff0147" target="_top" xlink:title="touchPoll">
<polygon fill="white" stroke="black" points="814,-608.5 814,-627.5 871,-627.5 871,-608.5 814,-608.5"/>
<text text-anchor="middle" x="842.5" y="-615.5" font-family="Helvetica,sans-Serif" font-size="10.00">touchPoll</text>
</a>
</g>
</g>
<!-- Node4&#45;&gt;Node5 -->
<g id="edge4" class="edge"><title>Node4&#45;&gt;Node5</title>
<path fill="none" stroke="midnightblue" d="M416.06,-512.303C421.759,-515.07 427.485,-518.6 432,-523 457.338,-547.693 438.461,-574.527 468,-594 572.706,-663.027 731.834,-641.612 803.805,-626.894"/>
<polygon fill="midnightblue" stroke="midnightblue" points="804.717,-630.279 813.774,-624.783 803.266,-623.43 804.717,-630.279"/>
</g>
<!-- Node7 -->
<g id="node7" class="node"><title>Node7</title>
<g id="a_node7"><a xlink:href="settings_8cpp.html#a960551e90dfdad18f3c9b1338ccba7db" target="_top" xlink:title="Get the dit duration in microseconds. ">
<polygon fill="white" stroke="black" points="1058.5,-646.5 1058.5,-665.5 1130.5,-665.5 1130.5,-646.5 1058.5,-646.5"/>
<text text-anchor="middle" x="1094.5" y="-653.5" font-family="Helvetica,sans-Serif" font-size="10.00">getDitMicros</text>
</a>
</g>
</g>
<!-- Node4&#45;&gt;Node7 -->
<g id="edge6" class="edge"><title>Node4&#45;&gt;Node7</title>
<path fill="none" stroke="midnightblue" d="M416.253,-511.002C422.228,-513.823 428.041,-517.705 432,-523 493.428,-605.165 393.005,-680.999 468,-751 538.45,-816.758 587.629,-770 684,-770 684,-770 684,-770 843.5,-770 936.827,-770 1033.52,-703.417 1073.93,-672.022"/>
<polygon fill="midnightblue" stroke="midnightblue" points="1076.22,-674.671 1081.89,-665.72 1071.88,-669.182 1076.22,-674.671"/>
</g>
<!-- Node8 -->
<g id="node8" class="node"><title>Node8</title>
<g id="a_node8"><a xlink:href="libmorse_8cpp.html#a9fdfce728595d72b78dc7c834ab99a40" target="_top" xlink:title="Transmit a literal Morse code value. ">
<polygon fill="white" stroke="black" points="946.5,-456.5 946.5,-475.5 997.5,-475.5 997.5,-456.5 946.5,-456.5"/>
<text text-anchor="middle" x="972" y="-463.5" font-family="Helvetica,sans-Serif" font-size="10.00">txLiteral</text>
</a>
</g>
</g>
<!-- Node4&#45;&gt;Node8 -->
<g id="edge7" class="edge"><title>Node4&#45;&gt;Node8</title>
<path fill="none" stroke="midnightblue" d="M413.382,-513.648C419.464,-516.529 426.05,-519.78 432,-523 448.492,-531.924 449.966,-539.863 468,-545 587.684,-579.095 625.396,-567.326 748,-546 820.592,-533.373 900.785,-499.245 942.396,-479.889"/>
<polygon fill="midnightblue" stroke="midnightblue" points="944.08,-482.965 951.636,-475.538 941.098,-476.632 944.08,-482.965"/>
</g>
<!-- Node18 -->
<g id="node18" class="node"><title>Node18</title>
<g id="a_node18"><a xlink:href="libmorse_8cpp.html#acd4b292f5e412ee4f05aed9dafbc072d" target="_top" xlink:title="Convert an ASCII character into Morse code and transmit it. ">
<polygon fill="white" stroke="black" points="817.5,-456.5 817.5,-475.5 867.5,-475.5 867.5,-456.5 817.5,-456.5"/>
<text text-anchor="middle" x="842.5" y="-463.5" font-family="Helvetica,sans-Serif" font-size="10.00">txLetter</text>
</a>
</g>
</g>
<!-- Node4&#45;&gt;Node18 -->
<g id="edge19" class="edge"><title>Node4&#45;&gt;Node18</title>
<path fill="none" stroke="midnightblue" d="M416.016,-511.609C430.83,-515.899 450.317,-520.823 468,-523 591.512,-538.205 628.189,-556.641 748,-523 776.313,-515.05 804.548,-495.896 822.462,-481.981"/>
<polygon fill="midnightblue" stroke="midnightblue" points="824.761,-484.623 830.382,-475.642 820.388,-479.158 824.761,-484.623"/>
</g>
<!-- Node19 -->
<g id="node19" class="node"><title>Node19</title>
<g id="a_node19"><a xlink:href="teensy3__morse__bsp_8cpp.html#a8761e874366e227690fba2964e1bc445" target="_top" xlink:title="getInternalTemperatureC">
<polygon fill="white" stroke="black" points="622.5,-399.5 622.5,-418.5 747.5,-418.5 747.5,-399.5 622.5,-399.5"/>
<text text-anchor="middle" x="685" y="-406.5" font-family="Helvetica,sans-Serif" font-size="10.00">getInternalTemperatureC</text>
</a>
</g>
</g>
<!-- Node4&#45;&gt;Node19 -->
<g id="edge22" class="edge"><title>Node4&#45;&gt;Node19</title>
<path fill="none" stroke="midnightblue" d="M396.131,-494.37C405.457,-474.038 430.307,-427.116 468,-409 521.104,-383.477 590.386,-389.283 635.985,-397.576"/>
<polygon fill="midnightblue" stroke="midnightblue" points="635.425,-401.033 645.907,-399.488 636.75,-394.159 635.425,-401.033"/>
</g>
<!-- Node20 -->
<g id="node20" class="node"><title>Node20</title>
<g id="a_node20"><a xlink:href="libmorse_8cpp.html#a47abdd74b66d7180c47d192bab8bdccb" target="_top" xlink:title="Transmit an unsigned integer in Morse code. ">
<polygon fill="white" stroke="black" points="652,-456.5 652,-475.5 718,-475.5 718,-456.5 652,-456.5"/>
<text text-anchor="middle" x="685" y="-463.5" font-family="Helvetica,sans-Serif" font-size="10.00">txUnsigned</text>
</a>
</g>
</g>
<!-- Node4&#45;&gt;Node20 -->
<g id="edge23" class="edge"><title>Node4&#45;&gt;Node20</title>
<path fill="none" stroke="midnightblue" d="M416.097,-496.944C430.94,-492.856 450.429,-487.95 468,-485 527.849,-474.951 597.976,-470.024 641.703,-467.752"/>
<polygon fill="midnightblue" stroke="midnightblue" points="642.146,-471.235 651.96,-467.244 641.799,-464.244 642.146,-471.235"/>
</g>
<!-- Node21 -->
<g id="node21" class="node"><title>Node21</title>
<g id="a_node21"><a xlink:href="actions_8cpp.html#aed718ec1bd4cc7adb2f65d40a6784496" target="_top" xlink:title="Transmit the internal temperature in integer in Fahrenheit. ">
<polygon fill="white" stroke="black" points="468,-418.5 468,-437.5 586,-437.5 586,-418.5 468,-418.5"/>
<text text-anchor="middle" x="527" y="-425.5" font-family="Helvetica,sans-Serif" font-size="10.00">txInternalTemperatureF</text>
</a>
</g>
</g>
<!-- Node4&#45;&gt;Node21 -->
<g id="edge26" class="edge"><title>Node4&#45;&gt;Node21</title>
<path fill="none" stroke="midnightblue" d="M404.394,-494.324C419.031,-483.186 444.38,-464.787 468,-452 475.075,-448.17 482.893,-444.553 490.437,-441.344"/>
<polygon fill="midnightblue" stroke="midnightblue" points="491.848,-444.549 499.77,-437.514 489.19,-438.073 491.848,-444.549"/>
</g>
<!-- Node22 -->
<g id="node22" class="node"><title>Node22</title>
<g id="a_node22"><a xlink:href="actions_8cpp.html#aaabb3ac0c23f35a499bc17efe829f326" target="_top" xlink:title="Transmit the 24&#45;hr time. ">
<polygon fill="white" stroke="black" points="488,-646.5 488,-665.5 566,-665.5 566,-646.5 488,-646.5"/>
<text text-anchor="middle" x="527" y="-653.5" font-family="Helvetica,sans-Serif" font-size="10.00">txTimeHHMM</text>
</a>
</g>
</g>
<!-- Node4&#45;&gt;Node22 -->
<g id="edge29" class="edge"><title>Node4&#45;&gt;Node22</title>
<path fill="none" stroke="midnightblue" d="M416.119,-502.967C421.951,-505.448 427.726,-509.158 432,-514 465.762,-552.249 433.272,-585.626 468,-623 476.836,-632.509 490.005,-638.364 501.563,-642.815"/>
<polygon fill="midnightblue" stroke="midnightblue" points="500.563,-646.178 511.155,-646.42 503.026,-639.626 500.563,-646.178"/>
</g>
<!-- Node23 -->
<g id="node23" class="node"><title>Node23</title>
<g id="a_node23"><a xlink:href="actions_8cpp.html#ad02149679fa3cc6a4957d1a318408ffd" target="_top" xlink:title="Transmit the uptime. ">
<polygon fill="white" stroke="black" points="499,-494.5 499,-513.5 555,-513.5 555,-494.5 499,-494.5"/>
<text text-anchor="middle" x="527" y="-501.5" font-family="Helvetica,sans-Serif" font-size="10.00">txUptime</text>
</a>
</g>
</g>
<!-- Node4&#45;&gt;Node23 -->
<g id="edge31" class="edge"><title>Node4&#45;&gt;Node23</title>
<path fill="none" stroke="midnightblue" d="M416.266,-504C436.411,-504 465.4,-504 488.525,-504"/>
<polygon fill="midnightblue" stroke="midnightblue" points="488.684,-507.5 498.684,-504 488.684,-500.5 488.684,-507.5"/>
</g>
<!-- Node25 -->
<g id="node25" class="node"><title>Node25</title>
<g id="a_node25"><a xlink:href="teensy3__morse__bsp_8cpp.html#ae8dd28759e56dbd2ee9bc9ae96d1783c" target="_top" xlink:title="Return the most recent ADC measurement of the input voltage. Perform analog to digital conversion on ...">
<polygon fill="white" stroke="black" points="490,-722.5 490,-741.5 564,-741.5 564,-722.5 490,-722.5"/>
<text text-anchor="middle" x="527" y="-729.5" font-family="Helvetica,sans-Serif" font-size="10.00">readMillivolts</text>
</a>
</g>
</g>
<!-- Node4&#45;&gt;Node25 -->
<g id="edge34" class="edge"><title>Node4&#45;&gt;Node25</title>
<path fill="none" stroke="midnightblue" d="M416.129,-511.097C422.104,-513.917 427.947,-517.776 432,-523 483.342,-589.185 414.983,-643.148 468,-708 471.535,-712.324 475.979,-715.879 480.826,-718.798"/>
<polygon fill="midnightblue" stroke="midnightblue" points="479.378,-721.988 489.879,-723.398 482.549,-715.748 479.378,-721.988"/>
</g>
<!-- Node29 -->
<g id="node29" class="node"><title>Node29</title>
<g id="a_node29"><a xlink:href="libmorse_8cpp.html#ac3f000c98271c6d0a7710135e18189bc" target="_top" xlink:title="On my hardware there is cross&#45;coupling between the serial port and the touch sensors. Without the code below, long messages to the serial port trigger a touch input. ">
<polygon fill="white" stroke="black" points="652.5,-665.5 652.5,-684.5 717.5,-684.5 717.5,-665.5 652.5,-665.5"/>
<text text-anchor="middle" x="685" y="-672.5" font-family="Helvetica,sans-Serif" font-size="10.00">flushTouch</text>
</a>
</g>
</g>
<!-- Node4&#45;&gt;Node29 -->
<g id="edge38" class="edge"><title>Node4&#45;&gt;Node29</title>
<path fill="none" stroke="midnightblue" d="M416.407,-511.405C422.237,-514.206 427.94,-517.978 432,-523 475.651,-576.985 413.546,-631.936 468,-675 519.107,-715.416 600.341,-700.97 647.264,-687.516"/>
<polygon fill="midnightblue" stroke="midnightblue" points="648.44,-690.817 657.013,-684.592 646.43,-684.112 648.44,-690.817"/>
</g>
<!-- Node6 -->
<g id="node6" class="node"><title>Node6</title>
<g id="a_node6"><a xlink:href="teensy3__morse__bsp_8cpp.html#af6899cd9b83df54106b259ab81ea5cb2" target="_top" xlink:title="touchMargin">
<polygon fill="white" stroke="black" points="937,-608.5 937,-627.5 1007,-627.5 1007,-608.5 937,-608.5"/>
<text text-anchor="middle" x="972" y="-615.5" font-family="Helvetica,sans-Serif" font-size="10.00">touchMargin</text>
</a>
</g>
</g>
<!-- Node5&#45;&gt;Node6 -->
<g id="edge5" class="edge"><title>Node5&#45;&gt;Node6</title>
<path fill="none" stroke="midnightblue" d="M871.166,-618C887.281,-618 907.984,-618 926.355,-618"/>
<polygon fill="midnightblue" stroke="midnightblue" points="926.562,-621.5 936.562,-618 926.562,-614.5 926.562,-621.5"/>
</g>
<!-- Node8&#45;&gt;Node7 -->
<g id="edge16" class="edge"><title>Node8&#45;&gt;Node7</title>
<path fill="none" stroke="midnightblue" d="M979.141,-475.683C998.153,-505.66 1056.28,-597.307 1081.55,-637.161"/>
<polygon fill="midnightblue" stroke="midnightblue" points="1078.92,-639.538 1087.23,-646.108 1084.83,-635.789 1078.92,-639.538"/>
</g>
<!-- Node9 -->
<g id="node9" class="node"><title>Node9</title>
<g id="a_node9"><a xlink:href="class_morse_token.html#a48cd72aeb868391449d1f51c1d0bf5cc" target="_top" xlink:title="Treat code == 0 as the error token. ">
<polygon fill="white" stroke="black" points="1046,-209.5 1046,-228.5 1143,-228.5 1143,-209.5 1046,-209.5"/>
<text text-anchor="middle" x="1094.5" y="-216.5" font-family="Helvetica,sans-Serif" font-size="10.00">MorseToken::valid</text>
</a>
</g>
</g>
<!-- Node8&#45;&gt;Node9 -->
<g id="edge8" class="edge"><title>Node8&#45;&gt;Node9</title>
<path fill="none" stroke="midnightblue" d="M977.234,-456.307C987.858,-432.095 1016.68,-367.105 1043,-314 1056.35,-287.064 1072.87,-256.448 1083.3,-237.425"/>
<polygon fill="midnightblue" stroke="midnightblue" points="1086.4,-239.064 1088.15,-228.615 1080.27,-235.688 1086.4,-239.064"/>
</g>
<!-- Node10 -->
<g id="node10" class="node"><title>Node10</title>
<g id="a_node10"><a xlink:href="teensy3__morse__bsp_8cpp.html#af66e71e3fac9b6a2c6532bc8a513bfde" target="_top" xlink:title="Output a square wave on pin 10 at the given frequency for the given duration. ">
<polygon fill="white" stroke="black" points="1075.5,-475.5 1075.5,-494.5 1113.5,-494.5 1113.5,-475.5 1075.5,-475.5"/>
<text text-anchor="middle" x="1094.5" y="-482.5" font-family="Helvetica,sans-Serif" font-size="10.00">beep</text>
</a>
</g>
</g>
<!-- Node8&#45;&gt;Node10 -->
<g id="edge9" class="edge"><title>Node8&#45;&gt;Node10</title>
<path fill="none" stroke="midnightblue" d="M997.676,-469.891C1017.26,-472.979 1044.66,-477.298 1065.14,-480.529"/>
<polygon fill="midnightblue" stroke="midnightblue" points="1064.72,-484.006 1075.15,-482.106 1065.81,-477.091 1064.72,-484.006"/>
</g>
<!-- Node16 -->
<g id="node16" class="node"><title>Node16</title>
<g id="a_node16"><a xlink:href="settings_8cpp.html#a8575b9b52638114a4f32d1462cf9b7c1" target="_top" xlink:title="Get the transmission frequency (side tone). ">
<polygon fill="white" stroke="black" points="1067.5,-437.5 1067.5,-456.5 1121.5,-456.5 1121.5,-437.5 1067.5,-437.5"/>
<text text-anchor="middle" x="1094.5" y="-444.5" font-family="Helvetica,sans-Serif" font-size="10.00">getTxHz</text>
</a>
</g>
</g>
<!-- Node8&#45;&gt;Node16 -->
<g id="edge15" class="edge"><title>Node8&#45;&gt;Node16</title>
<path fill="none" stroke="midnightblue" d="M997.676,-462.109C1014.84,-459.404 1037.99,-455.752 1057.24,-452.717"/>
<polygon fill="midnightblue" stroke="midnightblue" points="1057.85,-456.164 1067.19,-451.149 1056.76,-449.249 1057.85,-456.164"/>
</g>
<!-- Node17 -->
<g id="node17" class="node"><title>Node17</title>
<g id="a_node17"><a xlink:href="libmorse_8cpp.html#ab94e088615119d1faae7df22ce50aedf" target="_top" xlink:title="Transmit a Morse code prosign indicating an error. ">
<polygon fill="white" stroke="black" points="1071.5,-323.5 1071.5,-342.5 1117.5,-342.5 1117.5,-323.5 1071.5,-323.5"/>
<text text-anchor="middle" x="1094.5" y="-330.5" font-family="Helvetica,sans-Serif" font-size="10.00">txError</text>
</a>
</g>
</g>
<!-- Node8&#45;&gt;Node17 -->
<g id="edge17" class="edge"><title>Node8&#45;&gt;Node17</title>
<path fill="none" stroke="midnightblue" d="M981.666,-456.435C1001.8,-434.209 1051.99,-378.812 1077.73,-350.403"/>
<polygon fill="midnightblue" stroke="midnightblue" points="1080.47,-352.598 1084.59,-342.837 1075.28,-347.898 1080.47,-352.598"/>
</g>
<!-- Node11 -->
<g id="node11" class="node"><title>Node11</title>
<g id="a_node11"><a xlink:href="teensy3__morse__bsp_8cpp.html#a6f674d5b9985ea3a7eeb0df299c2e405" target="_top" xlink:title="pollEarphonePresent">
<polygon fill="white" stroke="black" points="1182,-532.5 1182,-551.5 1289,-551.5 1289,-532.5 1182,-532.5"/>
<text text-anchor="middle" x="1235.5" y="-539.5" font-family="Helvetica,sans-Serif" font-size="10.00">pollEarphonePresent</text>
</a>
</g>
</g>
<!-- Node10&#45;&gt;Node11 -->
<g id="edge10" class="edge"><title>Node10&#45;&gt;Node11</title>
<path fill="none" stroke="midnightblue" d="M1113.58,-493.362C1130.97,-501.309 1158.09,-513.434 1182,-523 1186.94,-524.975 1192.17,-526.975 1197.34,-528.9"/>
<polygon fill="midnightblue" stroke="midnightblue" points="1196.53,-532.33 1207.12,-532.482 1198.93,-525.757 1196.53,-532.33"/>
</g>
<!-- Node12 -->
<g id="node12" class="node"><title>Node12</title>
<g id="a_node12"><a xlink:href="teensy3__morse__bsp_8cpp.html#a2d6b4ace33ed5e497dedd03217540c63" target="_top" xlink:title="Set the PWM frequency for the audio output pins. ">
<polygon fill="white" stroke="black" points="1194,-494.5 1194,-513.5 1277,-513.5 1277,-494.5 1194,-494.5"/>
<text text-anchor="middle" x="1235.5" y="-501.5" font-family="Helvetica,sans-Serif" font-size="10.00">pwmFrequency</text>
</a>
</g>
</g>
<!-- Node10&#45;&gt;Node12 -->
<g id="edge11" class="edge"><title>Node10&#45;&gt;Node12</title>
<path fill="none" stroke="midnightblue" d="M1113.67,-487.484C1131.38,-489.904 1159.13,-493.698 1183.57,-497.039"/>
<polygon fill="midnightblue" stroke="midnightblue" points="1183.43,-500.551 1193.81,-498.438 1184.37,-493.616 1183.43,-500.551"/>
</g>
<!-- Node13 -->
<g id="node13" class="node"><title>Node13</title>
<g id="a_node13"><a xlink:href="teensy3__morse__bsp_8cpp.html#a82911eac3bf13d6f36d10102a4c4d3c4" target="_top" xlink:title="Generate a tone on the audio output pins. ">
<polygon fill="white" stroke="black" points="1205,-456.5 1205,-475.5 1266,-475.5 1266,-456.5 1205,-456.5"/>
<text text-anchor="middle" x="1235.5" y="-463.5" font-family="Helvetica,sans-Serif" font-size="10.00">pwmWrite</text>
</a>
</g>
</g>
<!-- Node10&#45;&gt;Node13 -->
<g id="edge12" class="edge"><title>Node10&#45;&gt;Node13</title>
<path fill="none" stroke="midnightblue" d="M1113.67,-482.516C1134.14,-479.719 1168.01,-475.088 1194.7,-471.44"/>
<polygon fill="midnightblue" stroke="midnightblue" points="1195.46,-474.869 1204.9,-470.046 1194.51,-467.933 1195.46,-474.869"/>
</g>
<!-- Node15 -->
<g id="node15" class="node"><title>Node15</title>
<g id="a_node15"><a xlink:href="teensy3__morse__bsp_8cpp.html#a6c982a7d7805f1dd5426eb98c915cfdd" target="_top" xlink:title="Turn the red LED on (1) or off (0). ">
<polygon fill="white" stroke="black" points="1210.5,-418.5 1210.5,-437.5 1260.5,-437.5 1260.5,-418.5 1210.5,-418.5"/>
<text text-anchor="middle" x="1235.5" y="-425.5" font-family="Helvetica,sans-Serif" font-size="10.00">redLED</text>
</a>
</g>
</g>
<!-- Node10&#45;&gt;Node15 -->
<g id="edge14" class="edge"><title>Node10&#45;&gt;Node15</title>
<path fill="none" stroke="midnightblue" d="M1113.96,-478.686C1123.62,-475.223 1135.58,-470.689 1146,-466 1162.5,-458.578 1165.45,-454.318 1182,-447 1187.99,-444.35 1194.48,-441.774 1200.78,-439.419"/>
<polygon fill="midnightblue" stroke="midnightblue" points="1202.23,-442.617 1210.44,-435.92 1199.85,-436.036 1202.23,-442.617"/>
</g>
<!-- Node14 -->
<g id="node14" class="node"><title>Node14</title>
<g id="a_node14"><a xlink:href="teensy3__morse__bsp_8cpp.html#ac70998cee1bf97f00aec4a1b4e5a4f60" target="_top" xlink:title="isEarphonePresent">
<polygon fill="white" stroke="black" points="1325,-456.5 1325,-475.5 1424,-475.5 1424,-456.5 1325,-456.5"/>
<text text-anchor="middle" x="1374.5" y="-463.5" font-family="Helvetica,sans-Serif" font-size="10.00">isEarphonePresent</text>
</a>
</g>
</g>
<!-- Node13&#45;&gt;Node14 -->
<g id="edge13" class="edge"><title>Node13&#45;&gt;Node14</title>
<path fill="none" stroke="midnightblue" d="M1266.23,-466C1280.43,-466 1297.96,-466 1314.7,-466"/>
<polygon fill="midnightblue" stroke="midnightblue" points="1314.98,-469.5 1324.98,-466 1314.98,-462.5 1314.98,-469.5"/>
</g>
<!-- Node17&#45;&gt;Node4 -->
<g id="edge18" class="edge"><title>Node17&#45;&gt;Node4</title>
<path fill="none" stroke="midnightblue" d="M1071.47,-335.804C1027.97,-341.089 927.944,-352 843.5,-352 684,-352 684,-352 684,-352 586.818,-352 549.429,-332.956 468,-386 431.409,-409.835 408.804,-458.126 398.535,-484.952"/>
<polygon fill="midnightblue" stroke="midnightblue" points="395.23,-483.799 395.094,-494.393 401.807,-486.196 395.23,-483.799"/>
</g>
<!-- Node18&#45;&gt;Node8 -->
<g id="edge20" class="edge"><title>Node18&#45;&gt;Node8</title>
<path fill="none" stroke="midnightblue" d="M867.782,-466C887.154,-466 914.544,-466 936.24,-466"/>
<polygon fill="midnightblue" stroke="midnightblue" points="936.374,-469.5 946.374,-466 936.374,-462.5 936.374,-469.5"/>
</g>
<!-- Node18&#45;&gt;Node17 -->
<g id="edge21" class="edge"><title>Node18&#45;&gt;Node17</title>
<path fill="none" stroke="midnightblue" d="M861.479,-456.435C904.798,-433.389 1015.15,-374.683 1066.48,-347.375"/>
<polygon fill="midnightblue" stroke="midnightblue" points="1068.16,-350.444 1075.35,-342.657 1064.88,-344.264 1068.16,-350.444"/>
</g>
<!-- Node20&#45;&gt;Node5 -->
<g id="edge24" class="edge"><title>Node20&#45;&gt;Node5</title>
<path fill="none" stroke="midnightblue" d="M718.132,-471.55C728.347,-474.394 739.253,-478.653 748,-485 789.709,-515.265 819.484,-570.01 833.131,-598.923"/>
<polygon fill="midnightblue" stroke="midnightblue" points="830.082,-600.673 837.422,-608.314 836.449,-597.764 830.082,-600.673"/>
</g>
<!-- Node20&#45;&gt;Node18 -->
<g id="edge25" class="edge"><title>Node20&#45;&gt;Node18</title>
<path fill="none" stroke="midnightblue" d="M718.22,-466C744.178,-466 780.59,-466 807.109,-466"/>
<polygon fill="midnightblue" stroke="midnightblue" points="807.454,-469.5 817.454,-466 807.454,-462.5 807.454,-469.5"/>
</g>
<!-- Node21&#45;&gt;Node19 -->
<g id="edge27" class="edge"><title>Node21&#45;&gt;Node19</title>
<path fill="none" stroke="midnightblue" d="M586.089,-420.925C594.711,-419.875 603.682,-418.782 612.54,-417.704"/>
<polygon fill="midnightblue" stroke="midnightblue" points="612.964,-421.178 622.467,-416.494 612.117,-414.229 612.964,-421.178"/>
</g>
<!-- Node21&#45;&gt;Node20 -->
<g id="edge28" class="edge"><title>Node21&#45;&gt;Node20</title>
<path fill="none" stroke="midnightblue" d="M567.365,-437.589C590.167,-443.143 618.861,-450.133 642.083,-455.789"/>
<polygon fill="midnightblue" stroke="midnightblue" points="641.451,-459.238 651.996,-458.204 643.108,-452.437 641.451,-459.238"/>
</g>
<!-- Node22&#45;&gt;Node4 -->
<g id="edge30" class="edge"><title>Node22&#45;&gt;Node4</title>
<path fill="none" stroke="midnightblue" d="M487.76,-654.467C480.458,-651.283 473.415,-646.828 468,-641 433.272,-603.626 465.762,-570.249 432,-532 426.683,-525.977 419.042,-521.705 411.86,-518.146"/>
<polygon fill="midnightblue" stroke="midnightblue" points="413.135,-514.874 402.612,-513.638 410.067,-521.166 413.135,-514.874"/>
</g>
<!-- Node23&#45;&gt;Node20 -->
<g id="edge33" class="edge"><title>Node23&#45;&gt;Node20</title>
<path fill="none" stroke="midnightblue" d="M555.173,-497.381C579.119,-491.548 614.386,-482.957 641.968,-476.238"/>
<polygon fill="midnightblue" stroke="midnightblue" points="642.86,-479.624 651.748,-473.856 641.203,-472.823 642.86,-479.624"/>
</g>
<!-- Node24 -->
<g id="node24" class="node"><title>Node24</title>
<g id="a_node24"><a xlink:href="settings_8cpp.html#a7b4efa097b94f9a90c5bbafcdf93fe4f" target="_top" xlink:title="getUptime">
<polygon fill="white" stroke="black" points="654,-494.5 654,-513.5 716,-513.5 716,-494.5 654,-494.5"/>
<text text-anchor="middle" x="685" y="-501.5" font-family="Helvetica,sans-Serif" font-size="10.00">getUptime</text>
</a>
</g>
</g>
<!-- Node23&#45;&gt;Node24 -->
<g id="edge32" class="edge"><title>Node23&#45;&gt;Node24</title>
<path fill="none" stroke="midnightblue" d="M555.173,-504C579.633,-504 615.905,-504 643.735,-504"/>
<polygon fill="midnightblue" stroke="midnightblue" points="643.945,-507.5 653.945,-504 643.945,-500.5 643.945,-507.5"/>
</g>
<!-- Node26 -->
<g id="node26" class="node"><title>Node26</title>
<g id="a_node26"><a xlink:href="class_voltage_monitor.html#a70902b84f9864c95d5553a0644a64f4f" target="_top" xlink:title="Return the latest voltage reading. ">
<polygon fill="white" stroke="black" points="622,-722.5 622,-741.5 748,-741.5 748,-722.5 622,-722.5"/>
<text text-anchor="middle" x="685" y="-729.5" font-family="Helvetica,sans-Serif" font-size="10.00">VoltageMonitor::getValue</text>
</a>
</g>
</g>
<!-- Node25&#45;&gt;Node26 -->
<g id="edge35" class="edge"><title>Node25&#45;&gt;Node26</title>
<path fill="none" stroke="midnightblue" d="M564.182,-732C578.344,-732 595.117,-732 611.56,-732"/>
<polygon fill="midnightblue" stroke="midnightblue" points="611.728,-735.5 621.728,-732 611.728,-728.5 611.728,-735.5"/>
</g>
<!-- Node27 -->
<g id="node27" class="node"><title>Node27</title>
<g id="a_node27"><a xlink:href="actions_8cpp.html#a2b8c3769e2aa32a2da9e2f3f85ac73dd" target="_top" xlink:title="A sample ADC reading is taken each time through the main loop, and written to a ring buffer...">
<polygon fill="white" stroke="black" points="786.5,-722.5 786.5,-741.5 898.5,-741.5 898.5,-722.5 786.5,-722.5"/>
<text text-anchor="middle" x="842.5" y="-729.5" font-family="Helvetica,sans-Serif" font-size="10.00">getVoltagePollInterval</text>
</a>
</g>
</g>
<!-- Node26&#45;&gt;Node27 -->
<g id="edge36" class="edge"><title>Node26&#45;&gt;Node27</title>
<path fill="none" stroke="midnightblue" d="M748.352,-732C757.438,-732 766.816,-732 775.963,-732"/>
<polygon fill="midnightblue" stroke="midnightblue" points="776.163,-735.5 786.163,-732 776.163,-728.5 776.163,-735.5"/>
</g>
<!-- Node28 -->
<g id="node28" class="node"><title>Node28</title>
<g id="a_node28"><a xlink:href="class_voltage_monitor.html#a75871331808c34b40d04059ee2af0f27" target="_top" xlink:title="Filter and scale raw ADC values to millivolts. ">
<polygon fill="white" stroke="black" points="784,-684.5 784,-703.5 901,-703.5 901,-684.5 784,-684.5"/>
<text text-anchor="middle" x="842.5" y="-691.5" font-family="Helvetica,sans-Serif" font-size="10.00">VoltageMonitor::update</text>
</a>
</g>
</g>
<!-- Node26&#45;&gt;Node28 -->
<g id="edge37" class="edge"><title>Node26&#45;&gt;Node28</title>
<path fill="none" stroke="midnightblue" d="M725.239,-722.411C745.759,-717.396 771.067,-711.212 792.825,-705.895"/>
<polygon fill="midnightblue" stroke="midnightblue" points="793.66,-709.294 802.543,-703.52 791.998,-702.494 793.66,-709.294"/>
</g>
<!-- Node29&#45;&gt;Node5 -->
<g id="edge39" class="edge"><title>Node29&#45;&gt;Node5</title>
<path fill="none" stroke="midnightblue" d="M712.027,-665.459C737.704,-656.047 777.155,-641.586 805.762,-631.1"/>
<polygon fill="midnightblue" stroke="midnightblue" points="807.203,-634.3 815.388,-627.572 804.794,-627.727 807.203,-634.3"/>
</g>
<!-- Node31 -->
<g id="node31" class="node"><title>Node31</title>
<g id="a_node31"><a xlink:href="class_stack.html#ab11c0714a1585dcde1475111d994f0bb" target="_top" xlink:title="Push t onto the stack, if there is space for it. ">
<polygon fill="white" stroke="black" points="356.5,-38.5 356.5,-57.5 425.5,-57.5 425.5,-38.5 356.5,-38.5"/>
<text text-anchor="middle" x="391" y="-45.5" font-family="Helvetica,sans-Serif" font-size="10.00">Stack::push</text>
</a>
</g>
</g>
<!-- Node30&#45;&gt;Node31 -->
<g id="edge41" class="edge"><title>Node30&#45;&gt;Node31</title>
<path fill="none" stroke="midnightblue" d="M314.203,-48C324.772,-48 335.937,-48 346.353,-48"/>
<polygon fill="midnightblue" stroke="midnightblue" points="346.471,-51.5001 356.471,-48 346.471,-44.5001 346.471,-51.5001"/>
</g>
<!-- Node33 -->
<g id="node33" class="node"><title>Node33</title>
<g id="a_node33"><a xlink:href="actions_8cpp.html#a9cfd0adeb55456558a4fcddce4901fc0" target="_top" xlink:title="restorePending">
<polygon fill="white" stroke="black" points="350,-76.5 350,-95.5 432,-95.5 432,-76.5 350,-76.5"/>
<text text-anchor="middle" x="391" y="-83.5" font-family="Helvetica,sans-Serif" font-size="10.00">restorePending</text>
</a>
</g>
</g>
<!-- Node32&#45;&gt;Node33 -->
<g id="edge43" class="edge"><title>Node32&#45;&gt;Node33</title>
<path fill="none" stroke="midnightblue" d="M171.217,-86C214.765,-86 289.762,-86 339.621,-86"/>
<polygon fill="midnightblue" stroke="midnightblue" points="339.858,-89.5001 349.858,-86 339.858,-82.5001 339.858,-89.5001"/>
</g>
<!-- Node35 -->
<g id="node35" class="node"><title>Node35</title>
<g id="a_node35"><a xlink:href="actions_8cpp.html#a4ddb37fc9b26cb5c7a18a1458414f647" target="_top" xlink:title="codeHash">
<polygon fill="white" stroke="black" points="235.5,-0.5 235.5,-19.5 296.5,-19.5 296.5,-0.5 235.5,-0.5"/>
<text text-anchor="middle" x="266" y="-7.5" font-family="Helvetica,sans-Serif" font-size="10.00">codeHash</text>
</a>
</g>
</g>
<!-- Node34&#45;&gt;Node35 -->
<g id="edge45" class="edge"><title>Node34&#45;&gt;Node35</title>
<path fill="none" stroke="midnightblue" d="M172.294,-10C188.776,-10 208.388,-10 225.32,-10"/>
<polygon fill="midnightblue" stroke="midnightblue" points="225.464,-13.5001 235.464,-10 225.464,-6.5001 225.464,-13.5001"/>
</g>
<!-- Node36 -->
<g id="node36" class="node"><title>Node36</title>
<g id="a_node36"><a xlink:href="morse__token_8h.html#af9722722b93869c9f37ef10573b31655" target="_top" xlink:title="wordBits">
<polygon fill="white" stroke="black" points="363.5,-0.5 363.5,-19.5 418.5,-19.5 418.5,-0.5 363.5,-0.5"/>
<text text-anchor="middle" x="391" y="-7.5" font-family="Helvetica,sans-Serif" font-size="10.00">wordBits</text>
</a>
</g>
</g>
<!-- Node35&#45;&gt;Node36 -->
<g id="edge46" class="edge"><title>Node35&#45;&gt;Node36</title>
<path fill="none" stroke="midnightblue" d="M296.775,-10C313.773,-10 335.223,-10 353.262,-10"/>
<polygon fill="midnightblue" stroke="midnightblue" points="353.429,-13.5001 363.429,-10 353.429,-6.5001 353.429,-13.5001"/>
</g>
<!-- Node37&#45;&gt;Node30 -->
<g id="edge48" class="edge"><title>Node37&#45;&gt;Node30</title>
<path fill="none" stroke="midnightblue" d="M161.966,-114.452C168.615,-111.667 175.685,-108.439 182,-105 204.409,-92.7967 228.248,-75.9781 244.6,-63.7749"/>
<polygon fill="midnightblue" stroke="midnightblue" points="246.994,-66.3528 252.858,-57.5289 242.771,-60.7699 246.994,-66.3528"/>
</g>
<!-- Node38 -->
<g id="node38" class="node"><title>Node38</title>
<g id="a_node38"><a xlink:href="pda_8cpp.html#a59acff867d89a88cb2142895d95b12e8" target="_top" xlink:title="gradeSum">
<polygon fill="white" stroke="black" points="235.5,-247.5 235.5,-266.5 296.5,-266.5 296.5,-247.5 235.5,-247.5"/>
<text text-anchor="middle" x="266" y="-254.5" font-family="Helvetica,sans-Serif" font-size="10.00">gradeSum</text>
</a>
</g>
</g>
<!-- Node37&#45;&gt;Node38 -->
<g id="edge49" class="edge"><title>Node37&#45;&gt;Node38</title>
<path fill="none" stroke="midnightblue" d="M145.741,-133.565C167.308,-155.887 221.198,-211.664 248.537,-239.961"/>
<polygon fill="midnightblue" stroke="midnightblue" points="246.03,-242.403 255.496,-247.163 251.064,-237.539 246.03,-242.403"/>
</g>
<!-- Node48 -->
<g id="node48" class="node"><title>Node48</title>
<g id="a_node48"><a xlink:href="actions_8cpp.html#af4c12896b2807b2ac63725a650efea6b" target="_top" xlink:title="restoreActions">
<polygon fill="white" stroke="black" points="226,-114.5 226,-133.5 306,-133.5 306,-114.5 226,-114.5"/>
<text text-anchor="middle" x="266" y="-121.5" font-family="Helvetica,sans-Serif" font-size="10.00">restoreActions</text>
</a>
</g>
</g>
<!-- Node37&#45;&gt;Node48 -->
<g id="edge66" class="edge"><title>Node37&#45;&gt;Node48</title>
<path fill="none" stroke="midnightblue" d="M173.323,-124C186.571,-124 201.735,-124 215.865,-124"/>
<polygon fill="midnightblue" stroke="midnightblue" points="215.929,-127.5 225.929,-124 215.929,-120.5 215.929,-127.5"/>
</g>
<!-- Node38&#45;&gt;Node3 -->
<g id="edge61" class="edge"><title>Node38&#45;&gt;Node3</title>
<path fill="none" stroke="midnightblue" d="M267.323,-266.533C269.08,-303.948 280.232,-442.63 350,-523 351.143,-524.317 352.398,-525.55 353.736,-526.703"/>
<polygon fill="midnightblue" stroke="midnightblue" points="351.882,-529.676 362.102,-532.47 355.855,-523.913 351.882,-529.676"/>
</g>
<!-- Node38&#45;&gt;Node4 -->
<g id="edge60" class="edge"><title>Node38&#45;&gt;Node4</title>
<path fill="none" stroke="midnightblue" d="M271.822,-266.683C290.191,-303.571 355.996,-435.715 380.615,-485.154"/>
<polygon fill="midnightblue" stroke="midnightblue" points="377.621,-486.993 385.212,-494.384 383.887,-483.873 377.621,-486.993"/>
</g>
<!-- Node38&#45;&gt;Node17 -->
<g id="edge65" class="edge"><title>Node38&#45;&gt;Node17</title>
<path fill="none" stroke="midnightblue" d="M292.689,-266.541C338.754,-282.767 438.752,-314 526,-314 526,-314 526,-314 843.5,-314 922.007,-314 1013.98,-323.431 1061.48,-329.004"/>
<polygon fill="midnightblue" stroke="midnightblue" points="1061.13,-332.486 1071.47,-330.196 1061.96,-325.536 1061.13,-332.486"/>
</g>
<!-- Node39 -->
<g id="node39" class="node"><title>Node39</title>
<g id="a_node39"><a xlink:href="stack_8cpp.html#aafac4a86d14d59c34565bc295024e511" target="_top" xlink:title="symbolStackSize">
<polygon fill="white" stroke="black" points="480.5,-152.5 480.5,-171.5 573.5,-171.5 573.5,-152.5 480.5,-152.5"/>
<text text-anchor="middle" x="527" y="-159.5" font-family="Helvetica,sans-Serif" font-size="10.00">symbolStackSize</text>
</a>
</g>
</g>
<!-- Node38&#45;&gt;Node39 -->
<g id="edge50" class="edge"><title>Node38&#45;&gt;Node39</title>
<path fill="none" stroke="midnightblue" d="M273.96,-247.499C286.838,-230.747 316.172,-196.288 350,-181 387.597,-164.008 434.162,-159.613 469.95,-159.275"/>
<polygon fill="midnightblue" stroke="midnightblue" points="470.211,-162.775 480.215,-159.285 470.218,-155.775 470.211,-162.775"/>
</g>
<!-- Node41 -->
<g id="node41" class="node"><title>Node41</title>
<g id="a_node41"><a xlink:href="stack_8cpp.html#abefdfbf9131b5ea5926f9ecbecb6b1e6" target="_top" xlink:title="Access the stack using an index where 0 is the top of the stack. ">
<polygon fill="white" stroke="black" points="376.5,-190.5 376.5,-209.5 405.5,-209.5 405.5,-190.5 376.5,-190.5"/>
<text text-anchor="middle" x="391" y="-197.5" font-family="Helvetica,sans-Serif" font-size="10.00">s</text>
</a>
</g>
</g>
<!-- Node38&#45;&gt;Node41 -->
<g id="edge52" class="edge"><title>Node38&#45;&gt;Node41</title>
<path fill="none" stroke="midnightblue" d="M287.587,-247.459C309.51,-237.3 344.127,-221.258 366.949,-210.682"/>
<polygon fill="midnightblue" stroke="midnightblue" points="368.625,-213.763 376.226,-206.383 365.681,-207.412 368.625,-213.763"/>
</g>
<!-- Node42 -->
<g id="node42" class="node"><title>Node42</title>
<g id="a_node42"><a xlink:href="morse__token_8cpp.html#a9ec0688da83c93d634e79b2d7ad7ad64" target="_top" xlink:title="Convert Morse 0&#45;9 to the corresponding digit. ">
<polygon fill="white" stroke="black" points="669,-266.5 669,-285.5 701,-285.5 701,-266.5 669,-266.5"/>
<text text-anchor="middle" x="685" y="-273.5" font-family="Helvetica,sans-Serif" font-size="10.00">m2i</text>
</a>
</g>
</g>
<!-- Node38&#45;&gt;Node42 -->
<g id="edge54" class="edge"><title>Node38&#45;&gt;Node42</title>
<path fill="none" stroke="midnightblue" d="M296.655,-258.351C374.882,-261.915 585.809,-271.526 658.763,-274.85"/>
<polygon fill="midnightblue" stroke="midnightblue" points="658.722,-278.352 668.871,-275.311 659.041,-271.359 658.722,-278.352"/>
</g>
<!-- Node46 -->
<g id="node46" class="node"><title>Node46</title>
<g id="a_node46"><a xlink:href="stack_8cpp.html#a7a8a89da82371dc2324696e7dfacad5e" target="_top" xlink:title="Pop the stack n times or until it is empty. ">
<polygon fill="white" stroke="black" points="371,-228.5 371,-247.5 411,-247.5 411,-228.5 371,-228.5"/>
<text text-anchor="middle" x="391" y="-235.5" font-family="Helvetica,sans-Serif" font-size="10.00">popN</text>
</a>
</g>
</g>
<!-- Node38&#45;&gt;Node46 -->
<g id="edge62" class="edge"><title>Node38&#45;&gt;Node46</title>
<path fill="none" stroke="midnightblue" d="M296.775,-252.401C316.211,-249.398 341.469,-245.497 360.791,-242.512"/>
<polygon fill="midnightblue" stroke="midnightblue" points="361.492,-245.945 370.84,-240.96 360.423,-239.027 361.492,-245.945"/>
</g>
<!-- Node40 -->
<g id="node40" class="node"><title>Node40</title>
<g id="a_node40"><a xlink:href="class_stack.html#afc30a7ee287e14f08802c2d43613f2b4" target="_top" xlink:title="Return the number of elements currently in the stack. ">
<polygon fill="white" stroke="black" points="652,-190.5 652,-209.5 718,-209.5 718,-190.5 652,-190.5"/>
<text text-anchor="middle" x="685" y="-197.5" font-family="Helvetica,sans-Serif" font-size="10.00">Stack::size</text>
</a>
</g>
</g>
<!-- Node39&#45;&gt;Node40 -->
<g id="edge51" class="edge"><title>Node39&#45;&gt;Node40</title>
<path fill="none" stroke="midnightblue" d="M567.365,-171.589C590.167,-177.143 618.861,-184.133 642.083,-189.789"/>
<polygon fill="midnightblue" stroke="midnightblue" points="641.451,-193.238 651.996,-192.204 643.108,-186.437 641.451,-193.238"/>
</g>
<!-- Node41&#45;&gt;Node39 -->
<g id="edge53" class="edge"><title>Node41&#45;&gt;Node39</title>
<path fill="none" stroke="midnightblue" d="M405.836,-196.076C423.802,-190.982 456.002,-181.85 482.55,-174.322"/>
<polygon fill="midnightblue" stroke="midnightblue" points="483.741,-177.622 492.406,-171.527 481.831,-170.888 483.741,-177.622"/>
</g>
<!-- Node42&#45;&gt;Node17 -->
<g id="edge59" class="edge"><title>Node42&#45;&gt;Node17</title>
<path fill="none" stroke="midnightblue" d="M701.269,-275.59C747.793,-274.669 891.641,-274.259 1007,-300 1026.49,-304.348 1047.43,-312.246 1063.83,-319.226"/>
<polygon fill="midnightblue" stroke="midnightblue" points="1062.83,-322.61 1073.39,-323.413 1065.64,-316.197 1062.83,-322.61"/>
</g>
<!-- Node43 -->
<g id="node43" class="node"><title>Node43</title>
<g id="a_node43"><a xlink:href="class_morse_token.html#a8c36a957ebc90172eae960757c72d3a4" target="_top" xlink:title="Convert to a single ASCII character. ">
<polygon fill="white" stroke="black" points="789.5,-190.5 789.5,-209.5 895.5,-209.5 895.5,-190.5 789.5,-190.5"/>
<text text-anchor="middle" x="842.5" y="-197.5" font-family="Helvetica,sans-Serif" font-size="10.00">MorseToken::toChar</text>
</a>
</g>
</g>
<!-- Node42&#45;&gt;Node43 -->
<g id="edge55" class="edge"><title>Node42&#45;&gt;Node43</title>
<path fill="none" stroke="midnightblue" d="M701.193,-268.574C726.998,-255.962 779.793,-230.159 812.753,-214.05"/>
<polygon fill="midnightblue" stroke="midnightblue" points="814.441,-217.12 821.889,-209.585 811.368,-210.831 814.441,-217.12"/>
</g>
<!-- Node44 -->
<g id="node44" class="node"><title>Node44</title>
<g id="a_node44"><a xlink:href="morse__token_8h.html#a98f44690e97cbd7ea9445ca0a560a564" target="_top" xlink:title="Convert a Morse code into ASCII. ">
<polygon fill="white" stroke="black" points="954.5,-76.5 954.5,-95.5 989.5,-95.5 989.5,-76.5 954.5,-76.5"/>
<text text-anchor="middle" x="972" y="-83.5" font-family="Helvetica,sans-Serif" font-size="10.00">m2a</text>
</a>
</g>
</g>
<!-- Node43&#45;&gt;Node44 -->
<g id="edge56" class="edge"><title>Node43&#45;&gt;Node44</title>
<path fill="none" stroke="midnightblue" d="M854.371,-190.28C876.201,-170.762 925.582,-126.609 952.559,-102.488"/>
<polygon fill="midnightblue" stroke="midnightblue" points="955.035,-104.97 960.157,-95.695 950.369,-99.7512 955.035,-104.97"/>
</g>
<!-- Node44&#45;&gt;Node9 -->
<g id="edge57" class="edge"><title>Node44&#45;&gt;Node9</title>
<path fill="none" stroke="midnightblue" d="M988.607,-95.6442C994.649,-99.7196 1001.43,-104.739 1007,-110 1037.24,-138.59 1065.95,-178.059 1081.5,-200.82"/>
<polygon fill="midnightblue" stroke="midnightblue" points="1078.65,-202.865 1087.14,-209.205 1084.46,-198.955 1078.65,-202.865"/>
</g>
<!-- Node45 -->
<g id="node45" class="node"><title>Node45</title>
<g id="a_node45"><a xlink:href="class_morse_token.html#adc74054417a8636c1d34d43c34628731" target="_top" xlink:title="Treat code == 1 as a space. ">
<polygon fill="white" stroke="black" points="1043,-76.5 1043,-95.5 1146,-95.5 1146,-76.5 1043,-76.5"/>
<text text-anchor="middle" x="1094.5" y="-83.5" font-family="Helvetica,sans-Serif" font-size="10.00">MorseToken::pause</text>
</a>
</g>
</g>
<!-- Node44&#45;&gt;Node45 -->
<g id="edge58" class="edge"><title>Node44&#45;&gt;Node45</title>
<path fill="none" stroke="midnightblue" d="M989.755,-86C1001.05,-86 1016.72,-86 1032.46,-86"/>
<polygon fill="midnightblue" stroke="midnightblue" points="1032.77,-89.5001 1042.77,-86 1032.77,-82.5001 1032.77,-89.5001"/>
</g>
<!-- Node46&#45;&gt;Node40 -->
<g id="edge63" class="edge"><title>Node46&#45;&gt;Node40</title>
<path fill="none" stroke="midnightblue" d="M411.072,-236.729C445.928,-234.274 522.204,-228.287 586,-219 604.494,-216.308 624.796,-212.512 642.102,-209.021"/>
<polygon fill="midnightblue" stroke="midnightblue" points="642.815,-212.447 651.909,-207.011 641.409,-205.59 642.815,-212.447"/>
</g>
<!-- Node47 -->
<g id="node47" class="node"><title>Node47</title>
<g id="a_node47"><a xlink:href="class_stack.html#a8b4caa181ab4cc209c270338e919cf8b" target="_top" xlink:title="Discard the top element, if the stack is not empty. ">
<polygon fill="white" stroke="black" points="495,-190.5 495,-209.5 559,-209.5 559,-190.5 495,-190.5"/>
<text text-anchor="middle" x="527" y="-197.5" font-family="Helvetica,sans-Serif" font-size="10.00">Stack::pop</text>
</a>
</g>
</g>
<!-- Node46&#45;&gt;Node47 -->
<g id="edge64" class="edge"><title>Node46&#45;&gt;Node47</title>
<path fill="none" stroke="midnightblue" d="M411.199,-232.556C430.407,-227.108 460.553,-218.559 485.134,-211.589"/>
<polygon fill="midnightblue" stroke="midnightblue" points="486.268,-214.905 494.934,-208.81 484.359,-208.171 486.268,-214.905"/>
</g>
<!-- Node48&#45;&gt;Node17 -->
<g id="edge68" class="edge"><title>Node48&#45;&gt;Node17</title>
<path fill="none" stroke="midnightblue" d="M306.052,-124C356.752,-124 447.985,-124 526,-124 526,-124 526,-124 843.5,-124 961.771,-124 1053.6,-263.386 1083.3,-314.499"/>
<polygon fill="midnightblue" stroke="midnightblue" points="1080.41,-316.511 1088.4,-323.477 1086.5,-313.053 1080.41,-316.511"/>
</g>
<!-- Node48&#45;&gt;Node33 -->
<g id="edge67" class="edge"><title>Node48&#45;&gt;Node33</title>
<path fill="none" stroke="midnightblue" d="M298.038,-114.411C313.479,-109.641 332.348,-103.811 348.966,-98.6771"/>
<polygon fill="midnightblue" stroke="midnightblue" points="350.451,-101.882 358.972,-95.5859 348.384,-95.1937 350.451,-101.882"/>
</g>
</g>
</svg>
