<?xml version="1.0" encoding="UTF-8" standalone="no"?>
<!DOCTYPE svg PUBLIC "-//W3C//DTD SVG 1.1//EN"
 "http://www.w3.org/Graphics/SVG/1.1/DTD/svg11.dtd">
<!-- Generated by graphviz version 2.38.0 (20140413.2041)
 -->
<!-- Title: gradeNext Pages: 1 -->
<!--zoomable 637 -->
<svg id="main" version="1.1" xmlns="http://www.w3.org/2000/svg" xmlns:xlink="http://www.w3.org/1999/xlink" xml:space="preserve" onload="init(evt)">
<style type="text/css"><![CDATA[
.edge:hover path { stroke: red; }
.edge:hover polygon { stroke: red; fill: red; }
]]></style>
<script type="text/javascript"><![CDATA[
var edges = document.getElementsByTagName('g');
if (edges && edges.length) {
  for (var i=0;i<edges.length;i++) {
    if (edges[i].id.substr(0,4)=='edge') {
      edges[i].setAttribute('class','edge');
    }
  }
}
]]></script>
        <defs>
                <circle id="rim" cx="0" cy="0" r="7"/>
                <circle id="rim2" cx="0" cy="0" r="3.5"/>
                <g id="zoomPlus">
                        <use xlink:href="#rim" fill="#404040">
                                <set attributeName="fill" to="#808080" begin="zoomplus.mouseover" end="zoomplus.mouseout"/>
                        </use>
                        <path d="M-4,0h8M0,-4v8" fill="none" stroke="white" stroke-width="1.5" pointer-events="none"/>
                </g>
                <g id="zoomMin">
                        <use xlink:href="#rim" fill="#404040">
                                <set attributeName="fill" to="#808080" begin="zoomminus.mouseover" end="zoomminus.mouseout"/>
                        </use>
                        <path d="M-4,0h8" fill="none" stroke="white" stroke-width="1.5" pointer-events="none"/>
                </g>
                <g id="dirArrow">
                        <path fill="none" stroke="white" stroke-width="1.5" d="M0,-3.0v7 M-2.5,-0.5L0,-3.0L2.5,-0.5"/>
                </g>
               <g id="resetDef">
                       <use xlink:href="#rim2" fill="#404040">
                               <set attributeName="fill" to="#808080" begin="reset.mouseover" end="reset.mouseout"/>
                       </use>
               </g>
        </defs>

<script type="text/javascript">
var viewWidth = 1192;
var viewHeight = 637;
var sectionId = 'dynsection-6';
</script>
<script xlink:href="svgpan.js"/>
<svg id="graph" class="graph">
<g id="viewport">
<title>gradeNext</title>
<polygon fill="white" stroke="none" points="-4,4 -4,-632.6 1188,-632.6 1188,4 -4,4"/>
<!-- Node1 -->
<g id="node1" class="node"><title>Node1</title>
<polygon fill="#bfbfbf" stroke="black" points="0,-95.5 0,-114.5 62,-114.5 62,-95.5 0,-95.5"/>
<text text-anchor="middle" x="31" y="-102.5" font-family="Helvetica,sans-Serif" font-size="10.00">gradeNext</text>
</g>
<!-- Node2 -->
<g id="node2" class="node"><title>Node2</title>
<g id="a_node2"><a xlink:href="stack_8cpp.html#aafac4a86d14d59c34565bc295024e511" target="_top" xlink:title="symbolStackSize">
<polygon fill="white" stroke="black" points="404.5,-57.5 404.5,-76.5 497.5,-76.5 497.5,-57.5 404.5,-57.5"/>
<text text-anchor="middle" x="451" y="-64.5" font-family="Helvetica,sans-Serif" font-size="10.00">symbolStackSize</text>
</a>
</g>
</g>
<!-- Node1&#45;&gt;Node2 -->
<g id="edge1" class="edge"><title>Node1&#45;&gt;Node2</title>
<path fill="none" stroke="midnightblue" d="M62.1524,-97.774C73.3769,-95.1826 86.2428,-92.3283 98,-90 158.135,-78.0912 172.912,-72.1291 234,-67 288.314,-62.4396 350.582,-63.0577 394.263,-64.444"/>
<polygon fill="midnightblue" stroke="midnightblue" points="394.283,-67.9466 404.397,-64.7899 394.522,-60.9507 394.283,-67.9466"/>
</g>
<!-- Node4 -->
<g id="node4" class="node"><title>Node4</title>
<g id="a_node4"><a xlink:href="stack_8cpp.html#abefdfbf9131b5ea5926f9ecbecb6b1e6" target="_top" xlink:title="Access the stack using an index where 0 is the top of the stack. ">
<polygon fill="white" stroke="black" points="278.5,-76.5 278.5,-95.5 307.5,-95.5 307.5,-76.5 278.5,-76.5"/>
<text text-anchor="middle" x="293" y="-83.5" font-family="Helvetica,sans-Serif" font-size="10.00">s</text>
</a>
</g>
</g>
<!-- Node1&#45;&gt;Node4 -->
<g id="edge3" class="edge"><title>Node1&#45;&gt;Node4</title>
<path fill="none" stroke="midnightblue" d="M62.0793,-102.802C114.302,-98.9856 220.697,-91.2106 268.186,-87.7402"/>
<polygon fill="midnightblue" stroke="midnightblue" points="268.695,-91.2125 278.414,-86.9929 268.185,-84.2311 268.695,-91.2125"/>
</g>
<!-- Node5 -->
<g id="node5" class="node"><title>Node5</title>
<g id="a_node5"><a xlink:href="libmorse_8cpp.html#a0ee2308940264ea9ac8e50afc1a4d285" target="_top" xlink:title="txString">
<polygon fill="white" stroke="black" points="123,-361.5 123,-380.5 173,-380.5 173,-361.5 123,-361.5"/>
<text text-anchor="middle" x="148" y="-368.5" font-family="Helvetica,sans-Serif" font-size="10.00">txString</text>
</a>
</g>
</g>
<!-- Node1&#45;&gt;Node5 -->
<g id="edge5" class="edge"><title>Node1&#45;&gt;Node5</title>
<path fill="none" stroke="midnightblue" d="M36.2293,-114.783C53.1375,-153.892 116.055,-299.422 138.761,-351.943"/>
<polygon fill="midnightblue" stroke="midnightblue" points="135.673,-353.619 142.854,-361.409 142.098,-350.841 135.673,-353.619"/>
</g>
<!-- Node18 -->
<g id="node18" class="node"><title>Node18</title>
<g id="a_node18"><a xlink:href="libmorse_8cpp.html#ab94e088615119d1faae7df22ce50aedf" target="_top" xlink:title="Transmit a Morse code prosign indicating an error. ">
<polygon fill="white" stroke="black" points="834.5,-209.5 834.5,-228.5 880.5,-228.5 880.5,-209.5 834.5,-209.5"/>
<text text-anchor="middle" x="857.5" y="-216.5" font-family="Helvetica,sans-Serif" font-size="10.00">txError</text>
</a>
</g>
</g>
<!-- Node1&#45;&gt;Node18 -->
<g id="edge47" class="edge"><title>Node1&#45;&gt;Node18</title>
<path fill="none" stroke="midnightblue" d="M62.3686,-108.663C110.84,-114.185 208.723,-124 292,-124 292,-124 292,-124 609.5,-124 697.461,-124 792.003,-177.133 834.086,-203.927"/>
<polygon fill="midnightblue" stroke="midnightblue" points="832.184,-206.865 842.479,-209.368 835.992,-200.991 832.184,-206.865"/>
</g>
<!-- Node31 -->
<g id="node31" class="node"><title>Node31</title>
<g id="a_node31"><a xlink:href="stack_8cpp.html#ac5ce0328e4b31389fddc82a135016456" target="_top" xlink:title="popSymbolStack">
<polygon fill="white" stroke="black" points="102.5,-0.5 102.5,-19.5 193.5,-19.5 193.5,-0.5 102.5,-0.5"/>
<text text-anchor="middle" x="148" y="-7.5" font-family="Helvetica,sans-Serif" font-size="10.00">popSymbolStack</text>
</a>
</g>
</g>
<!-- Node1&#45;&gt;Node31 -->
<g id="edge42" class="edge"><title>Node1&#45;&gt;Node31</title>
<path fill="none" stroke="midnightblue" d="M39.1915,-95.2091C50.424,-80.4417 73.4076,-52.2591 98,-34 102.872,-30.3825 108.374,-27.0726 113.886,-24.1429"/>
<polygon fill="midnightblue" stroke="midnightblue" points="115.664,-27.1681 123.062,-19.5841 112.549,-20.8992 115.664,-27.1681"/>
</g>
<!-- Node33 -->
<g id="node33" class="node"><title>Node33</title>
<g id="a_node33"><a xlink:href="actions_8cpp.html#a5396567e85aa94852a84b3fff96369b9" target="_top" xlink:title="Transmit the top element of the stack. ">
<polygon fill="white" stroke="black" points="98,-152.5 98,-171.5 198,-171.5 198,-152.5 98,-152.5"/>
<text text-anchor="middle" x="148" y="-159.5" font-family="Helvetica,sans-Serif" font-size="10.00">txSymbolStackTop</text>
</a>
</g>
</g>
<!-- Node1&#45;&gt;Node33 -->
<g id="edge44" class="edge"><title>Node1&#45;&gt;Node33</title>
<path fill="none" stroke="midnightblue" d="M51.0414,-114.572C64.2143,-121.182 82.1552,-130.159 98,-138 104.503,-141.218 111.501,-144.659 118.115,-147.901"/>
<polygon fill="midnightblue" stroke="midnightblue" points="116.909,-151.208 127.43,-152.46 119.987,-144.92 116.909,-151.208"/>
</g>
<!-- Node3 -->
<g id="node3" class="node"><title>Node3</title>
<g id="a_node3"><a xlink:href="class_stack.html#afc30a7ee287e14f08802c2d43613f2b4" target="_top" xlink:title="Return the number of elements currently in the stack. ">
<polygon fill="white" stroke="black" points="575.5,-57.5 575.5,-76.5 641.5,-76.5 641.5,-57.5 575.5,-57.5"/>
<text text-anchor="middle" x="608.5" y="-64.5" font-family="Helvetica,sans-Serif" font-size="10.00">Stack::size</text>
</a>
</g>
</g>
<!-- Node2&#45;&gt;Node3 -->
<g id="edge2" class="edge"><title>Node2&#45;&gt;Node3</title>
<path fill="none" stroke="midnightblue" d="M497.814,-67C519.12,-67 544.298,-67 565.154,-67"/>
<polygon fill="midnightblue" stroke="midnightblue" points="565.316,-70.5001 575.316,-67 565.316,-63.5001 565.316,-70.5001"/>
</g>
<!-- Node4&#45;&gt;Node2 -->
<g id="edge4" class="edge"><title>Node4&#45;&gt;Node2</title>
<path fill="none" stroke="midnightblue" d="M307.571,-84.3471C326.752,-82.011 362.922,-77.6056 394.011,-73.8192"/>
<polygon fill="midnightblue" stroke="midnightblue" points="394.824,-77.2461 404.328,-72.5626 393.978,-70.2974 394.824,-77.2461"/>
</g>
<!-- Node6 -->
<g id="node6" class="node"><title>Node6</title>
<g id="a_node6"><a xlink:href="teensy3__morse__bsp_8cpp.html#ab306f692c5c9455a0c82782a67ff0147" target="_top" xlink:title="touchPoll">
<polygon fill="white" stroke="black" points="580,-570.5 580,-589.5 637,-589.5 637,-570.5 580,-570.5"/>
<text text-anchor="middle" x="608.5" y="-577.5" font-family="Helvetica,sans-Serif" font-size="10.00">touchPoll</text>
</a>
</g>
</g>
<!-- Node5&#45;&gt;Node6 -->
<g id="edge6" class="edge"><title>Node5&#45;&gt;Node6</title>
<path fill="none" stroke="midnightblue" d="M150.355,-380.752C155.179,-411.36 174.532,-505.922 234,-547 287.611,-584.032 485.771,-583.327 569.627,-581.259"/>
<polygon fill="midnightblue" stroke="midnightblue" points="569.836,-584.755 579.739,-580.989 569.649,-577.757 569.836,-584.755"/>
</g>
<!-- Node8 -->
<g id="node8" class="node"><title>Node8</title>
<g id="a_node8"><a xlink:href="settings_8cpp.html#a960551e90dfdad18f3c9b1338ccba7db" target="_top" xlink:title="Get the dit duration in microseconds. ">
<polygon fill="white" stroke="black" points="821.5,-380.5 821.5,-399.5 893.5,-399.5 893.5,-380.5 821.5,-380.5"/>
<text text-anchor="middle" x="857.5" y="-387.5" font-family="Helvetica,sans-Serif" font-size="10.00">getDitMicros</text>
</a>
</g>
</g>
<!-- Node5&#45;&gt;Node8 -->
<g id="edge8" class="edge"><title>Node5&#45;&gt;Node8</title>
<path fill="none" stroke="midnightblue" d="M173.157,-373.562C224.208,-378.749 346.849,-390 450,-390 450,-390 450,-390 609.5,-390 679.96,-390 761.727,-390 811.259,-390"/>
<polygon fill="midnightblue" stroke="midnightblue" points="811.323,-393.5 821.323,-390 811.323,-386.5 811.323,-393.5"/>
</g>
<!-- Node9 -->
<g id="node9" class="node"><title>Node9</title>
<g id="a_node9"><a xlink:href="libmorse_8cpp.html#a9fdfce728595d72b78dc7c834ab99a40" target="_top" xlink:title="Transmit a literal Morse code value. ">
<polygon fill="white" stroke="black" points="712.5,-304.5 712.5,-323.5 763.5,-323.5 763.5,-304.5 712.5,-304.5"/>
<text text-anchor="middle" x="738" y="-311.5" font-family="Helvetica,sans-Serif" font-size="10.00">txLiteral</text>
</a>
</g>
</g>
<!-- Node5&#45;&gt;Node9 -->
<g id="edge9" class="edge"><title>Node5&#45;&gt;Node9</title>
<path fill="none" stroke="midnightblue" d="M173.209,-370.867C247.531,-370.11 478.785,-365.141 667,-333 678.689,-331.004 691.251,-327.905 702.462,-324.785"/>
<polygon fill="midnightblue" stroke="midnightblue" points="703.674,-328.078 712.313,-321.945 701.735,-321.352 703.674,-328.078"/>
</g>
<!-- Node19 -->
<g id="node19" class="node"><title>Node19</title>
<g id="a_node19"><a xlink:href="libmorse_8cpp.html#acd4b292f5e412ee4f05aed9dafbc072d" target="_top" xlink:title="Convert an ASCII character into Morse code and transmit it. ">
<polygon fill="white" stroke="black" points="583.5,-304.5 583.5,-323.5 633.5,-323.5 633.5,-304.5 583.5,-304.5"/>
<text text-anchor="middle" x="608.5" y="-311.5" font-family="Helvetica,sans-Serif" font-size="10.00">txLetter</text>
</a>
</g>
</g>
<!-- Node5&#45;&gt;Node19 -->
<g id="edge21" class="edge"><title>Node5&#45;&gt;Node19</title>
<path fill="none" stroke="midnightblue" d="M155.825,-361.398C168.747,-344.155 198.678,-308.488 234,-295 351.984,-249.946 506.307,-284.327 573.631,-303.442"/>
<polygon fill="midnightblue" stroke="midnightblue" points="572.715,-306.82 583.295,-306.252 574.67,-300.099 572.715,-306.82"/>
</g>
<!-- Node20 -->
<g id="node20" class="node"><title>Node20</title>
<g id="a_node20"><a xlink:href="teensy3__morse__bsp_8cpp.html#a8761e874366e227690fba2964e1bc445" target="_top" xlink:title="getInternalTemperatureC">
<polygon fill="white" stroke="black" points="388.5,-513.5 388.5,-532.5 513.5,-532.5 513.5,-513.5 388.5,-513.5"/>
<text text-anchor="middle" x="451" y="-520.5" font-family="Helvetica,sans-Serif" font-size="10.00">getInternalTemperatureC</text>
</a>
</g>
</g>
<!-- Node5&#45;&gt;Node20 -->
<g id="edge24" class="edge"><title>Node5&#45;&gt;Node20</title>
<path fill="none" stroke="midnightblue" d="M150.942,-380.848C157.12,-409.173 179.232,-490.877 234,-523 287.228,-554.22 361.274,-545.304 407.382,-534.951"/>
<polygon fill="midnightblue" stroke="midnightblue" points="408.418,-538.302 417.343,-532.594 406.806,-531.49 408.418,-538.302"/>
</g>
<!-- Node21 -->
<g id="node21" class="node"><title>Node21</title>
<g id="a_node21"><a xlink:href="libmorse_8cpp.html#a47abdd74b66d7180c47d192bab8bdccb" target="_top" xlink:title="Transmit an unsigned integer in Morse code. ">
<polygon fill="white" stroke="black" points="418,-456.5 418,-475.5 484,-475.5 484,-456.5 418,-456.5"/>
<text text-anchor="middle" x="451" y="-463.5" font-family="Helvetica,sans-Serif" font-size="10.00">txUnsigned</text>
</a>
</g>
</g>
<!-- Node5&#45;&gt;Node21 -->
<g id="edge25" class="edge"><title>Node5&#45;&gt;Node21</title>
<path fill="none" stroke="midnightblue" d="M156.154,-380.57C169.382,-397.43 199.486,-432.054 234,-447 290.406,-471.425 362.729,-472.422 407.719,-469.94"/>
<polygon fill="midnightblue" stroke="midnightblue" points="407.956,-473.432 417.715,-469.306 407.513,-466.446 407.956,-473.432"/>
</g>
<!-- Node22 -->
<g id="node22" class="node"><title>Node22</title>
<g id="a_node22"><a xlink:href="actions_8cpp.html#aed718ec1bd4cc7adb2f65d40a6784496" target="_top" xlink:title="Transmit the internal temperature in integer in Fahrenheit. ">
<polygon fill="white" stroke="black" points="234,-494.5 234,-513.5 352,-513.5 352,-494.5 234,-494.5"/>
<text text-anchor="middle" x="293" y="-501.5" font-family="Helvetica,sans-Serif" font-size="10.00">txInternalTemperatureF</text>
</a>
</g>
</g>
<!-- Node5&#45;&gt;Node22 -->
<g id="edge28" class="edge"><title>Node5&#45;&gt;Node22</title>
<path fill="none" stroke="midnightblue" d="M154.113,-380.504C165.714,-401.259 195.995,-451.084 234,-480 239.179,-483.941 245.098,-487.349 251.13,-490.258"/>
<polygon fill="midnightblue" stroke="midnightblue" points="250.048,-493.606 260.612,-494.425 252.865,-487.198 250.048,-493.606"/>
</g>
<!-- Node23 -->
<g id="node23" class="node"><title>Node23</title>
<g id="a_node23"><a xlink:href="actions_8cpp.html#aaabb3ac0c23f35a499bc17efe829f326" target="_top" xlink:title="Transmit the 24&#45;hr time. ">
<polygon fill="white" stroke="black" points="254,-304.5 254,-323.5 332,-323.5 332,-304.5 254,-304.5"/>
<text text-anchor="middle" x="293" y="-311.5" font-family="Helvetica,sans-Serif" font-size="10.00">txTimeHHMM</text>
</a>
</g>
</g>
<!-- Node5&#45;&gt;Node23 -->
<g id="edge31" class="edge"><title>Node5&#45;&gt;Node23</title>
<path fill="none" stroke="midnightblue" d="M162.453,-361.491C181.068,-351.702 215.638,-337.17 244.388,-326.575"/>
<polygon fill="midnightblue" stroke="midnightblue" points="245.666,-329.834 253.883,-323.145 243.288,-323.251 245.666,-329.834"/>
</g>
<!-- Node24 -->
<g id="node24" class="node"><title>Node24</title>
<g id="a_node24"><a xlink:href="actions_8cpp.html#ad02149679fa3cc6a4957d1a318408ffd" target="_top" xlink:title="Transmit the uptime. ">
<polygon fill="white" stroke="black" points="265,-418.5 265,-437.5 321,-437.5 321,-418.5 265,-418.5"/>
<text text-anchor="middle" x="293" y="-425.5" font-family="Helvetica,sans-Serif" font-size="10.00">txUptime</text>
</a>
</g>
</g>
<!-- Node5&#45;&gt;Node24 -->
<g id="edge33" class="edge"><title>Node5&#45;&gt;Node24</title>
<path fill="none" stroke="midnightblue" d="M172.935,-380.541C196.342,-389.87 232.195,-404.162 258.443,-414.624"/>
<polygon fill="midnightblue" stroke="midnightblue" points="257.402,-417.977 267.987,-418.428 259.994,-411.474 257.402,-417.977"/>
</g>
<!-- Node26 -->
<g id="node26" class="node"><title>Node26</title>
<g id="a_node26"><a xlink:href="teensy3__morse__bsp_8cpp.html#ae8dd28759e56dbd2ee9bc9ae96d1783c" target="_top" xlink:title="Return the most recent ADC measurement of the input voltage. Perform analog to digital conversion on ...">
<polygon fill="white" stroke="black" points="256,-228.5 256,-247.5 330,-247.5 330,-228.5 256,-228.5"/>
<text text-anchor="middle" x="293" y="-235.5" font-family="Helvetica,sans-Serif" font-size="10.00">readMillivolts</text>
</a>
</g>
</g>
<!-- Node5&#45;&gt;Node26 -->
<g id="edge36" class="edge"><title>Node5&#45;&gt;Node26</title>
<path fill="none" stroke="midnightblue" d="M154.113,-361.496C165.714,-340.741 195.995,-290.916 234,-262 239.179,-258.059 245.098,-254.651 251.13,-251.742"/>
<polygon fill="midnightblue" stroke="midnightblue" points="252.865,-254.802 260.612,-247.575 250.048,-248.394 252.865,-254.802"/>
</g>
<!-- Node30 -->
<g id="node30" class="node"><title>Node30</title>
<g id="a_node30"><a xlink:href="libmorse_8cpp.html#ac3f000c98271c6d0a7710135e18189bc" target="_top" xlink:title="On my hardware there is cross&#45;coupling between the serial port and the touch sensors. Without the code below, long messages to the serial port trigger a touch input. ">
<polygon fill="white" stroke="black" points="418.5,-608.5 418.5,-627.5 483.5,-627.5 483.5,-608.5 418.5,-608.5"/>
<text text-anchor="middle" x="451" y="-615.5" font-family="Helvetica,sans-Serif" font-size="10.00">flushTouch</text>
</a>
</g>
</g>
<!-- Node5&#45;&gt;Node30 -->
<g id="edge40" class="edge"><title>Node5&#45;&gt;Node30</title>
<path fill="none" stroke="midnightblue" d="M149.341,-380.628C151.156,-415.878 162.571,-538.719 234,-594 283.933,-632.645 360.883,-631.022 408.192,-625.263"/>
<polygon fill="midnightblue" stroke="midnightblue" points="408.944,-628.693 418.393,-623.901 408.018,-621.755 408.944,-628.693"/>
</g>
<!-- Node7 -->
<g id="node7" class="node"><title>Node7</title>
<g id="a_node7"><a xlink:href="teensy3__morse__bsp_8cpp.html#af6899cd9b83df54106b259ab81ea5cb2" target="_top" xlink:title="touchMargin">
<polygon fill="white" stroke="black" points="703,-570.5 703,-589.5 773,-589.5 773,-570.5 703,-570.5"/>
<text text-anchor="middle" x="738" y="-577.5" font-family="Helvetica,sans-Serif" font-size="10.00">touchMargin</text>
</a>
</g>
</g>
<!-- Node6&#45;&gt;Node7 -->
<g id="edge7" class="edge"><title>Node6&#45;&gt;Node7</title>
<path fill="none" stroke="midnightblue" d="M637.166,-580C653.281,-580 673.984,-580 692.355,-580"/>
<polygon fill="midnightblue" stroke="midnightblue" points="692.562,-583.5 702.562,-580 692.562,-576.5 692.562,-583.5"/>
</g>
<!-- Node9&#45;&gt;Node8 -->
<g id="edge18" class="edge"><title>Node9&#45;&gt;Node8</title>
<path fill="none" stroke="midnightblue" d="M748.711,-323.541C761.606,-335.807 785.498,-357.168 809,-371 812.172,-372.867 815.561,-374.627 819.015,-376.266"/>
<polygon fill="midnightblue" stroke="midnightblue" points="817.639,-379.485 828.201,-380.313 820.461,-373.079 817.639,-379.485"/>
</g>
<!-- Node10 -->
<g id="node10" class="node"><title>Node10</title>
<g id="a_node10"><a xlink:href="class_morse_token.html#a48cd72aeb868391449d1f51c1d0bf5cc" target="_top" xlink:title="Treat code == 0 as the error token. ">
<polygon fill="white" stroke="black" points="809,-266.5 809,-285.5 906,-285.5 906,-266.5 809,-266.5"/>
<text text-anchor="middle" x="857.5" y="-273.5" font-family="Helvetica,sans-Serif" font-size="10.00">MorseToken::valid</text>
</a>
</g>
</g>
<!-- Node9&#45;&gt;Node10 -->
<g id="edge10" class="edge"><title>Node9&#45;&gt;Node10</title>
<path fill="none" stroke="midnightblue" d="M763.632,-306.034C779.189,-301.003 799.632,-294.391 817.376,-288.653"/>
<polygon fill="midnightblue" stroke="midnightblue" points="818.47,-291.978 826.908,-285.57 816.316,-285.317 818.47,-291.978"/>
</g>
<!-- Node11 -->
<g id="node11" class="node"><title>Node11</title>
<g id="a_node11"><a xlink:href="teensy3__morse__bsp_8cpp.html#af66e71e3fac9b6a2c6532bc8a513bfde" target="_top" xlink:title="Output a square wave on pin 10 at the given frequency for the given duration. ">
<polygon fill="white" stroke="black" points="838.5,-342.5 838.5,-361.5 876.5,-361.5 876.5,-342.5 838.5,-342.5"/>
<text text-anchor="middle" x="857.5" y="-349.5" font-family="Helvetica,sans-Serif" font-size="10.00">beep</text>
</a>
</g>
</g>
<!-- Node9&#45;&gt;Node11 -->
<g id="edge11" class="edge"><title>Node9&#45;&gt;Node11</title>
<path fill="none" stroke="midnightblue" d="M763.632,-321.966C782.657,-328.119 808.988,-336.634 828.755,-343.027"/>
<polygon fill="midnightblue" stroke="midnightblue" points="827.828,-346.406 838.42,-346.153 829.982,-339.746 827.828,-346.406"/>
</g>
<!-- Node17 -->
<g id="node17" class="node"><title>Node17</title>
<g id="a_node17"><a xlink:href="settings_8cpp.html#a8575b9b52638114a4f32d1462cf9b7c1" target="_top" xlink:title="Get the transmission frequency (side tone). ">
<polygon fill="white" stroke="black" points="830.5,-304.5 830.5,-323.5 884.5,-323.5 884.5,-304.5 830.5,-304.5"/>
<text text-anchor="middle" x="857.5" y="-311.5" font-family="Helvetica,sans-Serif" font-size="10.00">getTxHz</text>
</a>
</g>
</g>
<!-- Node9&#45;&gt;Node17 -->
<g id="edge17" class="edge"><title>Node9&#45;&gt;Node17</title>
<path fill="none" stroke="midnightblue" d="M763.632,-314C780.022,-314 801.833,-314 820.199,-314"/>
<polygon fill="midnightblue" stroke="midnightblue" points="820.269,-317.5 830.269,-314 820.269,-310.5 820.269,-317.5"/>
</g>
<!-- Node9&#45;&gt;Node18 -->
<g id="edge19" class="edge"><title>Node9&#45;&gt;Node18</title>
<path fill="none" stroke="midnightblue" d="M750.865,-304.287C764.768,-292.917 788.512,-273.537 809,-257 817.999,-249.737 827.99,-241.735 836.478,-234.955"/>
<polygon fill="midnightblue" stroke="midnightblue" points="838.739,-237.628 844.372,-228.655 834.373,-232.157 838.739,-237.628"/>
</g>
<!-- Node12 -->
<g id="node12" class="node"><title>Node12</title>
<g id="a_node12"><a xlink:href="teensy3__morse__bsp_8cpp.html#a6f674d5b9985ea3a7eeb0df299c2e405" target="_top" xlink:title="pollEarphonePresent">
<polygon fill="white" stroke="black" points="942,-399.5 942,-418.5 1049,-418.5 1049,-399.5 942,-399.5"/>
<text text-anchor="middle" x="995.5" y="-406.5" font-family="Helvetica,sans-Serif" font-size="10.00">pollEarphonePresent</text>
</a>
</g>
</g>
<!-- Node11&#45;&gt;Node12 -->
<g id="edge12" class="edge"><title>Node11&#45;&gt;Node12</title>
<path fill="none" stroke="midnightblue" d="M876.734,-358.777C885.652,-362.221 896.487,-366.602 906,-371 922.422,-378.592 925.454,-382.682 942,-390 946.527,-392.002 951.336,-393.961 956.136,-395.815"/>
<polygon fill="midnightblue" stroke="midnightblue" points="955.287,-399.234 965.879,-399.453 957.735,-392.676 955.287,-399.234"/>
</g>
<!-- Node13 -->
<g id="node13" class="node"><title>Node13</title>
<g id="a_node13"><a xlink:href="teensy3__morse__bsp_8cpp.html#a2d6b4ace33ed5e497dedd03217540c63" target="_top" xlink:title="Set the PWM frequency for the audio output pins. ">
<polygon fill="white" stroke="black" points="954,-361.5 954,-380.5 1037,-380.5 1037,-361.5 954,-361.5"/>
<text text-anchor="middle" x="995.5" y="-368.5" font-family="Helvetica,sans-Serif" font-size="10.00">pwmFrequency</text>
</a>
</g>
</g>
<!-- Node11&#45;&gt;Node13 -->
<g id="edge13" class="edge"><title>Node11&#45;&gt;Node13</title>
<path fill="none" stroke="midnightblue" d="M876.56,-354.523C893.617,-356.906 920.017,-360.594 943.519,-363.878"/>
<polygon fill="midnightblue" stroke="midnightblue" points="943.334,-367.386 953.722,-365.303 944.303,-360.453 943.334,-367.386"/>
</g>
<!-- Node14 -->
<g id="node14" class="node"><title>Node14</title>
<g id="a_node14"><a xlink:href="teensy3__morse__bsp_8cpp.html#a82911eac3bf13d6f36d10102a4c4d3c4" target="_top" xlink:title="Generate a tone on the audio output pins. ">
<polygon fill="white" stroke="black" points="965,-323.5 965,-342.5 1026,-342.5 1026,-323.5 965,-323.5"/>
<text text-anchor="middle" x="995.5" y="-330.5" font-family="Helvetica,sans-Serif" font-size="10.00">pwmWrite</text>
</a>
</g>
</g>
<!-- Node11&#45;&gt;Node14 -->
<g id="edge14" class="edge"><title>Node11&#45;&gt;Node14</title>
<path fill="none" stroke="midnightblue" d="M876.56,-349.477C896.462,-346.697 929.083,-342.139 954.979,-338.521"/>
<polygon fill="midnightblue" stroke="midnightblue" points="955.471,-341.987 964.89,-337.137 954.502,-335.054 955.471,-341.987"/>
</g>
<!-- Node16 -->
<g id="node16" class="node"><title>Node16</title>
<g id="a_node16"><a xlink:href="teensy3__morse__bsp_8cpp.html#a6c982a7d7805f1dd5426eb98c915cfdd" target="_top" xlink:title="Turn the red LED on (1) or off (0). ">
<polygon fill="white" stroke="black" points="970.5,-285.5 970.5,-304.5 1020.5,-304.5 1020.5,-285.5 970.5,-285.5"/>
<text text-anchor="middle" x="995.5" y="-292.5" font-family="Helvetica,sans-Serif" font-size="10.00">redLED</text>
</a>
</g>
</g>
<!-- Node11&#45;&gt;Node16 -->
<g id="edge16" class="edge"><title>Node11&#45;&gt;Node16</title>
<path fill="none" stroke="midnightblue" d="M876.734,-345.223C885.652,-341.779 896.487,-337.398 906,-333 922.422,-325.408 925.454,-321.318 942,-314 947.992,-311.35 954.48,-308.774 960.784,-306.419"/>
<polygon fill="midnightblue" stroke="midnightblue" points="962.232,-309.617 970.442,-302.92 959.847,-303.036 962.232,-309.617"/>
</g>
<!-- Node15 -->
<g id="node15" class="node"><title>Node15</title>
<g id="a_node15"><a xlink:href="teensy3__morse__bsp_8cpp.html#ac70998cee1bf97f00aec4a1b4e5a4f60" target="_top" xlink:title="isEarphonePresent">
<polygon fill="white" stroke="black" points="1085,-323.5 1085,-342.5 1184,-342.5 1184,-323.5 1085,-323.5"/>
<text text-anchor="middle" x="1134.5" y="-330.5" font-family="Helvetica,sans-Serif" font-size="10.00">isEarphonePresent</text>
</a>
</g>
</g>
<!-- Node14&#45;&gt;Node15 -->
<g id="edge15" class="edge"><title>Node14&#45;&gt;Node15</title>
<path fill="none" stroke="midnightblue" d="M1026.23,-333C1040.43,-333 1057.96,-333 1074.7,-333"/>
<polygon fill="midnightblue" stroke="midnightblue" points="1074.98,-336.5 1084.98,-333 1074.98,-329.5 1074.98,-336.5"/>
</g>
<!-- Node18&#45;&gt;Node5 -->
<g id="edge20" class="edge"><title>Node18&#45;&gt;Node5</title>
<path fill="none" stroke="midnightblue" d="M834.403,-216.156C791.252,-210.855 692.722,-200 609.5,-200 450,-200 450,-200 450,-200 353.629,-200 314.909,-166.645 234,-219 186.108,-249.99 162.639,-317.863 153.608,-351.42"/>
<polygon fill="midnightblue" stroke="midnightblue" points="150.147,-350.828 151.084,-361.382 156.933,-352.548 150.147,-350.828"/>
</g>
<!-- Node19&#45;&gt;Node9 -->
<g id="edge22" class="edge"><title>Node19&#45;&gt;Node9</title>
<path fill="none" stroke="midnightblue" d="M633.782,-314C653.154,-314 680.544,-314 702.24,-314"/>
<polygon fill="midnightblue" stroke="midnightblue" points="702.374,-317.5 712.374,-314 702.374,-310.5 702.374,-317.5"/>
</g>
<!-- Node19&#45;&gt;Node18 -->
<g id="edge23" class="edge"><title>Node19&#45;&gt;Node18</title>
<path fill="none" stroke="midnightblue" d="M633.675,-306.382C643.994,-303.035 656.137,-298.969 667,-295 723.083,-274.51 787.407,-248.08 824.845,-232.398"/>
<polygon fill="midnightblue" stroke="midnightblue" points="826.349,-235.563 834.213,-228.463 823.638,-229.109 826.349,-235.563"/>
</g>
<!-- Node21&#45;&gt;Node6 -->
<g id="edge26" class="edge"><title>Node21&#45;&gt;Node6</title>
<path fill="none" stroke="midnightblue" d="M468.964,-475.577C481.648,-482.932 499.267,-493.566 514,-504 541.092,-523.185 570.525,-547.79 588.986,-563.722"/>
<polygon fill="midnightblue" stroke="midnightblue" points="586.805,-566.464 596.648,-570.382 591.397,-561.18 586.805,-566.464"/>
</g>
<!-- Node21&#45;&gt;Node19 -->
<g id="edge27" class="edge"><title>Node21&#45;&gt;Node19</title>
<path fill="none" stroke="midnightblue" d="M484.132,-460.45C494.347,-457.606 505.253,-453.347 514,-447 555.709,-416.735 585.484,-361.99 599.131,-333.077"/>
<polygon fill="midnightblue" stroke="midnightblue" points="602.449,-334.236 603.422,-323.686 596.082,-331.327 602.449,-334.236"/>
</g>
<!-- Node22&#45;&gt;Node20 -->
<g id="edge29" class="edge"><title>Node22&#45;&gt;Node20</title>
<path fill="none" stroke="midnightblue" d="M352.089,-511.075C360.711,-512.125 369.682,-513.218 378.54,-514.296"/>
<polygon fill="midnightblue" stroke="midnightblue" points="378.117,-517.771 388.467,-515.506 378.964,-510.822 378.117,-517.771"/>
</g>
<!-- Node22&#45;&gt;Node21 -->
<g id="edge30" class="edge"><title>Node22&#45;&gt;Node21</title>
<path fill="none" stroke="midnightblue" d="M333.365,-494.411C356.167,-488.857 384.861,-481.867 408.083,-476.211"/>
<polygon fill="midnightblue" stroke="midnightblue" points="409.108,-479.563 417.996,-473.796 407.451,-472.762 409.108,-479.563"/>
</g>
<!-- Node23&#45;&gt;Node5 -->
<g id="edge32" class="edge"><title>Node23&#45;&gt;Node5</title>
<path fill="none" stroke="midnightblue" d="M278.43,-323.57C256.732,-334.963 213.571,-352.73 183.068,-363.27"/>
<polygon fill="midnightblue" stroke="midnightblue" points="181.633,-360.059 173.258,-366.548 183.852,-366.698 181.633,-360.059"/>
</g>
<!-- Node24&#45;&gt;Node21 -->
<g id="edge35" class="edge"><title>Node24&#45;&gt;Node21</title>
<path fill="none" stroke="midnightblue" d="M321.173,-434.619C345.119,-440.452 380.386,-449.043 407.968,-455.762"/>
<polygon fill="midnightblue" stroke="midnightblue" points="407.203,-459.177 417.748,-458.144 408.86,-452.376 407.203,-459.177"/>
</g>
<!-- Node25 -->
<g id="node25" class="node"><title>Node25</title>
<g id="a_node25"><a xlink:href="settings_8cpp.html#a7b4efa097b94f9a90c5bbafcdf93fe4f" target="_top" xlink:title="getUptime">
<polygon fill="white" stroke="black" points="420,-418.5 420,-437.5 482,-437.5 482,-418.5 420,-418.5"/>
<text text-anchor="middle" x="451" y="-425.5" font-family="Helvetica,sans-Serif" font-size="10.00">getUptime</text>
</a>
</g>
</g>
<!-- Node24&#45;&gt;Node25 -->
<g id="edge34" class="edge"><title>Node24&#45;&gt;Node25</title>
<path fill="none" stroke="midnightblue" d="M321.173,-428C345.633,-428 381.905,-428 409.735,-428"/>
<polygon fill="midnightblue" stroke="midnightblue" points="409.945,-431.5 419.945,-428 409.945,-424.5 409.945,-431.5"/>
</g>
<!-- Node27 -->
<g id="node27" class="node"><title>Node27</title>
<g id="a_node27"><a xlink:href="class_voltage_monitor.html#a70902b84f9864c95d5553a0644a64f4f" target="_top" xlink:title="Return the latest voltage reading. ">
<polygon fill="white" stroke="black" points="388,-228.5 388,-247.5 514,-247.5 514,-228.5 388,-228.5"/>
<text text-anchor="middle" x="451" y="-235.5" font-family="Helvetica,sans-Serif" font-size="10.00">VoltageMonitor::getValue</text>
</a>
</g>
</g>
<!-- Node26&#45;&gt;Node27 -->
<g id="edge37" class="edge"><title>Node26&#45;&gt;Node27</title>
<path fill="none" stroke="midnightblue" d="M330.182,-238C344.344,-238 361.117,-238 377.56,-238"/>
<polygon fill="midnightblue" stroke="midnightblue" points="377.728,-241.5 387.728,-238 377.728,-234.5 377.728,-241.5"/>
</g>
<!-- Node28 -->
<g id="node28" class="node"><title>Node28</title>
<g id="a_node28"><a xlink:href="actions_8cpp.html#a2b8c3769e2aa32a2da9e2f3f85ac73dd" target="_top" xlink:title="A sample ADC reading is taken each time through the main loop, and written to a ring buffer...">
<polygon fill="white" stroke="black" points="552.5,-266.5 552.5,-285.5 664.5,-285.5 664.5,-266.5 552.5,-266.5"/>
<text text-anchor="middle" x="608.5" y="-273.5" font-family="Helvetica,sans-Serif" font-size="10.00">getVoltagePollInterval</text>
</a>
</g>
</g>
<!-- Node27&#45;&gt;Node28 -->
<g id="edge38" class="edge"><title>Node27&#45;&gt;Node28</title>
<path fill="none" stroke="midnightblue" d="M491.239,-247.589C511.759,-252.604 537.067,-258.788 558.825,-264.105"/>
<polygon fill="midnightblue" stroke="midnightblue" points="557.998,-267.506 568.543,-266.48 559.66,-260.706 557.998,-267.506"/>
</g>
<!-- Node29 -->
<g id="node29" class="node"><title>Node29</title>
<g id="a_node29"><a xlink:href="class_voltage_monitor.html#a75871331808c34b40d04059ee2af0f27" target="_top" xlink:title="Filter and scale raw ADC values to millivolts. ">
<polygon fill="white" stroke="black" points="550,-228.5 550,-247.5 667,-247.5 667,-228.5 550,-228.5"/>
<text text-anchor="middle" x="608.5" y="-235.5" font-family="Helvetica,sans-Serif" font-size="10.00">VoltageMonitor::update</text>
</a>
</g>
</g>
<!-- Node27&#45;&gt;Node29 -->
<g id="edge39" class="edge"><title>Node27&#45;&gt;Node29</title>
<path fill="none" stroke="midnightblue" d="M514.352,-238C522.702,-238 531.298,-238 539.735,-238"/>
<polygon fill="midnightblue" stroke="midnightblue" points="539.92,-241.5 549.92,-238 539.92,-234.5 539.92,-241.5"/>
</g>
<!-- Node30&#45;&gt;Node6 -->
<g id="edge41" class="edge"><title>Node30&#45;&gt;Node6</title>
<path fill="none" stroke="midnightblue" d="M483.843,-610.218C508.788,-604.123 543.554,-595.627 569.872,-589.195"/>
<polygon fill="midnightblue" stroke="midnightblue" points="570.98,-592.528 579.864,-586.754 569.318,-585.728 570.98,-592.528"/>
</g>
<!-- Node32 -->
<g id="node32" class="node"><title>Node32</title>
<g id="a_node32"><a xlink:href="class_stack.html#a8b4caa181ab4cc209c270338e919cf8b" target="_top" xlink:title="Discard the top element, if the stack is not empty. ">
<polygon fill="white" stroke="black" points="261,-0.5 261,-19.5 325,-19.5 325,-0.5 261,-0.5"/>
<text text-anchor="middle" x="293" y="-7.5" font-family="Helvetica,sans-Serif" font-size="10.00">Stack::pop</text>
</a>
</g>
</g>
<!-- Node31&#45;&gt;Node32 -->
<g id="edge43" class="edge"><title>Node31&#45;&gt;Node32</title>
<path fill="none" stroke="midnightblue" d="M193.854,-10C212.067,-10 232.972,-10 250.795,-10"/>
<polygon fill="midnightblue" stroke="midnightblue" points="250.89,-13.5001 260.89,-10 250.89,-6.5001 250.89,-13.5001"/>
</g>
<!-- Node33&#45;&gt;Node4 -->
<g id="edge46" class="edge"><title>Node33&#45;&gt;Node4</title>
<path fill="none" stroke="midnightblue" d="M167.111,-152.375C193.061,-138.583 240.81,-113.206 269.154,-98.1419"/>
<polygon fill="midnightblue" stroke="midnightblue" points="271.115,-101.063 278.303,-93.2797 267.83,-94.8821 271.115,-101.063"/>
</g>
<!-- Node33&#45;&gt;Node9 -->
<g id="edge45" class="edge"><title>Node33&#45;&gt;Node9</title>
<path fill="none" stroke="midnightblue" d="M198.296,-155.036C295.293,-143.857 514.72,-131.267 667,-219 697.326,-236.472 718.35,-272.931 728.982,-295.255"/>
<polygon fill="midnightblue" stroke="midnightblue" points="725.812,-296.739 733.132,-304.398 732.186,-293.846 725.812,-296.739"/>
</g>
</g>
</svg>
        <g id="navigator" transform="translate(0 0)" fill="#404254">
                <rect fill="#f2f5e9" fill-opacity="0.5" stroke="#606060" stroke-width=".5" x="0" y="0" width="60" height="60"/>
                <use id="zoomplus" xlink:href="#zoomPlus" x="17" y="9" onmousedown="handleZoom(evt,'in')"/>
                <use id="zoomminus" xlink:href="#zoomMin" x="42" y="9" onmousedown="handleZoom(evt,'out')"/>
                <use id="reset" xlink:href="#resetDef" x="30" y="36" onmousedown="handleReset()"/>
                <g id="arrowUp" xlink:href="#dirArrow" transform="translate(30 24)" onmousedown="handlePan(0,-1)">
                  <use xlink:href="#rim" fill="#404040">
                        <set attributeName="fill" to="#808080" begin="arrowUp.mouseover" end="arrowUp.mouseout"/>
                  </use>
                  <path fill="none" stroke="white" stroke-width="1.5" d="M0,-3.0v7 M-2.5,-0.5L0,-3.0L2.5,-0.5"/>
                </g>
                <g id="arrowRight" xlink:href="#dirArrow" transform="rotate(90) translate(36 -43)" onmousedown="handlePan(1,0)">
                  <use xlink:href="#rim" fill="#404040">
                        <set attributeName="fill" to="#808080" begin="arrowRight.mouseover" end="arrowRight.mouseout"/>
                  </use>
                  <path fill="none" stroke="white" stroke-width="1.5" d="M0,-3.0v7 M-2.5,-0.5L0,-3.0L2.5,-0.5"/>
                </g>
                <g id="arrowDown" xlink:href="#dirArrow" transform="rotate(180) translate(-30 -48)" onmousedown="handlePan(0,1)">
                  <use xlink:href="#rim" fill="#404040">
                        <set attributeName="fill" to="#808080" begin="arrowDown.mouseover" end="arrowDown.mouseout"/>
                  </use>
                  <path fill="none" stroke="white" stroke-width="1.5" d="M0,-3.0v7 M-2.5,-0.5L0,-3.0L2.5,-0.5"/>
                </g>
                <g id="arrowLeft" xlink:href="#dirArrow" transform="rotate(270) translate(-36 17)" onmousedown="handlePan(-1,0)">
                  <use xlink:href="#rim" fill="#404040">
                        <set attributeName="fill" to="#808080" begin="arrowLeft.mouseover" end="arrowLeft.mouseout"/>
                  </use>
                  <path fill="none" stroke="white" stroke-width="1.5" d="M0,-3.0v7 M-2.5,-0.5L0,-3.0L2.5,-0.5"/>
                </g>
        </g>
        <svg viewBox="0 0 15 15" width="100%" height="30px" preserveAspectRatio="xMaxYMin meet">
         <g id="arrow_out" transform="scale(0.3 0.3)">
          <a xlink:href="pda_8h_a959876507019ccc24303937cc277bb31_cgraph_org.svg" target="_base">
           <rect id="button" ry="5" rx="5" y="6" x="6" height="38" width="38"
                fill="#f2f5e9" fill-opacity="0.5" stroke="#606060" stroke-width="1.0"/>
           <path id="arrow"
             d="M 11.500037,31.436501 C 11.940474,20.09759 22.043105,11.32322 32.158766,21.979434 L 37.068811,17.246167 C 37.068811,17.246167 37.088388,32 37.088388,32 L 22.160133,31.978069 C 22.160133,31.978069 26.997745,27.140456 26.997745,27.140456 C 18.528582,18.264221 13.291696,25.230495 11.500037,31.436501 z"
             style="fill:#404040;"/>
          </a>
         </g>
        </svg>
</svg>
