<?xml version="1.0" encoding="UTF-8" standalone="no"?>
<!DOCTYPE svg PUBLIC "-//W3C//DTD SVG 1.1//EN"
 "http://www.w3.org/Graphics/SVG/1.1/DTD/svg11.dtd">
<!-- Generated by graphviz version 2.38.0 (20140413.2041)
 -->
<!-- Title: playNote Pages: 1 -->
<svg width="1142pt" height="560pt"
 viewBox="0.00 0.00 1142.00 560.00" xmlns="http://www.w3.org/2000/svg" xmlns:xlink="http://www.w3.org/1999/xlink">
<g id="graph0" class="graph" transform="scale(1 1) rotate(0) translate(4 556)">
<title>playNote</title>
<polygon fill="white" stroke="none" points="-4,4 -4,-556 1138,-556 1138,4 -4,4"/>
<!-- Node1 -->
<g id="node1" class="node"><title>Node1</title>
<polygon fill="#bfbfbf" stroke="black" points="0,-437.5 0,-456.5 56,-456.5 56,-437.5 0,-437.5"/>
<text text-anchor="middle" x="28" y="-444.5" font-family="Helvetica,sans-Serif" font-size="10.00">playNote</text>
</g>
<!-- Node2 -->
<g id="node2" class="node"><title>Node2</title>
<g id="a_node2"><a xlink:href="stack_8cpp.html#aafac4a86d14d59c34565bc295024e511" target="_top" xlink:title="symbolStackSize">
<polygon fill="white" stroke="black" points="194,-513.5 194,-532.5 287,-532.5 287,-513.5 194,-513.5"/>
<text text-anchor="middle" x="240.5" y="-520.5" font-family="Helvetica,sans-Serif" font-size="10.00">symbolStackSize</text>
</a>
</g>
</g>
<!-- Node1&#45;&gt;Node2 -->
<g id="edge1" class="edge"><title>Node1&#45;&gt;Node2</title>
<path fill="none" stroke="midnightblue" d="M33.3923,-456.518C41.8864,-473.624 62.3743,-509.077 92,-523 120.713,-536.494 156.181,-536.927 185.141,-533.78"/>
<polygon fill="midnightblue" stroke="midnightblue" points="185.603,-537.25 195.091,-532.534 184.733,-530.304 185.603,-537.25"/>
</g>
<!-- Node4 -->
<g id="node4" class="node"><title>Node4</title>
<g id="a_node4"><a xlink:href="stack_8cpp.html#abefdfbf9131b5ea5926f9ecbecb6b1e6" target="_top" xlink:title="Access the stack using an index where 0 is the top of the stack. ">
<polygon fill="white" stroke="black" points="110.5,-494.5 110.5,-513.5 139.5,-513.5 139.5,-494.5 110.5,-494.5"/>
<text text-anchor="middle" x="125" y="-501.5" font-family="Helvetica,sans-Serif" font-size="10.00">s</text>
</a>
</g>
</g>
<!-- Node1&#45;&gt;Node4 -->
<g id="edge3" class="edge"><title>Node1&#45;&gt;Node4</title>
<path fill="none" stroke="midnightblue" d="M45.1155,-456.669C60.5699,-465.942 84.0471,-480.028 101.374,-490.424"/>
<polygon fill="midnightblue" stroke="midnightblue" points="99.9009,-493.622 110.277,-495.766 103.502,-487.62 99.9009,-493.622"/>
</g>
<!-- Node5 -->
<g id="node5" class="node"><title>Node5</title>
<g id="a_node5"><a xlink:href="sound_8cpp.html#a77ffd11f8a990ba2130061186e49535a" target="_top" xlink:title="Play a PWM tone at a given frequency and duration. ">
<polygon fill="white" stroke="black" points="445.5,-475.5 445.5,-494.5 501.5,-494.5 501.5,-475.5 445.5,-475.5"/>
<text text-anchor="middle" x="473.5" y="-482.5" font-family="Helvetica,sans-Serif" font-size="10.00">playTone</text>
</a>
</g>
</g>
<!-- Node1&#45;&gt;Node5 -->
<g id="edge5" class="edge"><title>Node1&#45;&gt;Node5</title>
<path fill="none" stroke="midnightblue" d="M56.0753,-449.32C132.172,-455.84 348.068,-474.338 435.277,-481.811"/>
<polygon fill="midnightblue" stroke="midnightblue" points="435.236,-485.32 445.498,-482.686 435.833,-478.345 435.236,-485.32"/>
</g>
<!-- Node10 -->
<g id="node10" class="node"><title>Node10</title>
<g id="a_node10"><a xlink:href="settings_8cpp.html#a960551e90dfdad18f3c9b1338ccba7db" target="_top" xlink:title="Get the dit duration in microseconds. ">
<polygon fill="white" stroke="black" points="724,-266.5 724,-285.5 796,-285.5 796,-266.5 724,-266.5"/>
<text text-anchor="middle" x="760" y="-273.5" font-family="Helvetica,sans-Serif" font-size="10.00">getDitMicros</text>
</a>
</g>
</g>
<!-- Node1&#45;&gt;Node10 -->
<g id="edge10" class="edge"><title>Node1&#45;&gt;Node10</title>
<path fill="none" stroke="midnightblue" d="M56.1781,-442.971C96.2156,-437.393 173.451,-428 239.5,-428 239.5,-428 239.5,-428 474.5,-428 559.587,-428 591.478,-451.829 665,-409 710.24,-382.646 739.214,-324.833 751.784,-294.859"/>
<polygon fill="midnightblue" stroke="midnightblue" points="755.058,-296.098 755.545,-285.515 748.564,-293.484 755.058,-296.098"/>
</g>
<!-- Node11 -->
<g id="node11" class="node"><title>Node11</title>
<g id="a_node11"><a xlink:href="libmorse_8cpp.html#a47abdd74b66d7180c47d192bab8bdccb" target="_top" xlink:title="Transmit an unsigned integer in Morse code. ">
<polygon fill="white" stroke="black" points="92,-209.5 92,-228.5 158,-228.5 158,-209.5 92,-209.5"/>
<text text-anchor="middle" x="125" y="-216.5" font-family="Helvetica,sans-Serif" font-size="10.00">txUnsigned</text>
</a>
</g>
</g>
<!-- Node1&#45;&gt;Node11 -->
<g id="edge11" class="edge"><title>Node1&#45;&gt;Node11</title>
<path fill="none" stroke="midnightblue" d="M32.9611,-437.493C47.2956,-403.091 96.6413,-284.661 116.06,-238.057"/>
<polygon fill="midnightblue" stroke="midnightblue" points="119.407,-239.124 120.022,-228.547 112.945,-236.432 119.407,-239.124"/>
</g>
<!-- Node21 -->
<g id="node21" class="node"><title>Node21</title>
<g id="a_node21"><a xlink:href="libmorse_8cpp.html#ab94e088615119d1faae7df22ce50aedf" target="_top" xlink:title="Transmit a Morse code prosign indicating an error. ">
<polygon fill="white" stroke="black" points="450.5,-76.5 450.5,-95.5 496.5,-95.5 496.5,-76.5 450.5,-76.5"/>
<text text-anchor="middle" x="473.5" y="-83.5" font-family="Helvetica,sans-Serif" font-size="10.00">txError</text>
</a>
</g>
</g>
<!-- Node1&#45;&gt;Node21 -->
<g id="edge47" class="edge"><title>Node1&#45;&gt;Node21</title>
<path fill="none" stroke="midnightblue" d="M28.8652,-437.344C28.8573,-401.82 33.1951,-276.482 92,-200 161.311,-109.853 211.745,-113.514 323,-90 362.767,-81.5952 409.801,-81.9737 440.345,-83.5364"/>
<polygon fill="midnightblue" stroke="midnightblue" points="440.235,-87.0358 450.422,-84.126 440.644,-80.0478 440.235,-87.0358"/>
</g>
<!-- Node3 -->
<g id="node3" class="node"><title>Node3</title>
<g id="a_node3"><a xlink:href="class_stack.html#afc30a7ee287e14f08802c2d43613f2b4" target="_top" xlink:title="Return the number of elements currently in the stack. ">
<polygon fill="white" stroke="black" points="323,-513.5 323,-532.5 389,-532.5 389,-513.5 323,-513.5"/>
<text text-anchor="middle" x="356" y="-520.5" font-family="Helvetica,sans-Serif" font-size="10.00">Stack::size</text>
</a>
</g>
</g>
<!-- Node2&#45;&gt;Node3 -->
<g id="edge2" class="edge"><title>Node2&#45;&gt;Node3</title>
<path fill="none" stroke="midnightblue" d="M287.011,-523C295.423,-523 304.179,-523 312.498,-523"/>
<polygon fill="midnightblue" stroke="midnightblue" points="312.744,-526.5 322.744,-523 312.743,-519.5 312.744,-526.5"/>
</g>
<!-- Node4&#45;&gt;Node2 -->
<g id="edge4" class="edge"><title>Node4&#45;&gt;Node2</title>
<path fill="none" stroke="midnightblue" d="M139.917,-506.33C151.045,-508.193 167.426,-510.935 183.702,-513.659"/>
<polygon fill="midnightblue" stroke="midnightblue" points="183.334,-517.146 193.775,-515.346 184.49,-510.242 183.334,-517.146"/>
</g>
<!-- Node6 -->
<g id="node6" class="node"><title>Node6</title>
<g id="a_node6"><a xlink:href="teensy3__morse__bsp_8cpp.html#a2d6b4ace33ed5e497dedd03217540c63" target="_top" xlink:title="Set the PWM frequency for the audio output pins. ">
<polygon fill="white" stroke="black" points="570,-380.5 570,-399.5 653,-399.5 653,-380.5 570,-380.5"/>
<text text-anchor="middle" x="611.5" y="-387.5" font-family="Helvetica,sans-Serif" font-size="10.00">pwmFrequency</text>
</a>
</g>
</g>
<!-- Node5&#45;&gt;Node6 -->
<g id="edge6" class="edge"><title>Node5&#45;&gt;Node6</title>
<path fill="none" stroke="midnightblue" d="M488.289,-475.368C511.81,-458.938 559.886,-425.355 588.224,-405.561"/>
<polygon fill="midnightblue" stroke="midnightblue" points="590.481,-408.253 596.675,-399.657 586.472,-402.515 590.481,-408.253"/>
</g>
<!-- Node7 -->
<g id="node7" class="node"><title>Node7</title>
<g id="a_node7"><a xlink:href="teensy3__morse__bsp_8cpp.html#a82911eac3bf13d6f36d10102a4c4d3c4" target="_top" xlink:title="Generate a tone on the audio output pins. ">
<polygon fill="white" stroke="black" points="581,-494.5 581,-513.5 642,-513.5 642,-494.5 581,-494.5"/>
<text text-anchor="middle" x="611.5" y="-501.5" font-family="Helvetica,sans-Serif" font-size="10.00">pwmWrite</text>
</a>
</g>
</g>
<!-- Node5&#45;&gt;Node7 -->
<g id="edge7" class="edge"><title>Node5&#45;&gt;Node7</title>
<path fill="none" stroke="midnightblue" d="M501.695,-488.799C521.503,-491.567 548.641,-495.358 570.858,-498.462"/>
<polygon fill="midnightblue" stroke="midnightblue" points="570.607,-501.961 580.995,-499.878 571.576,-495.028 570.607,-501.961"/>
</g>
<!-- Node9 -->
<g id="node9" class="node"><title>Node9</title>
<g id="a_node9"><a xlink:href="teensy3__morse__bsp_8cpp.html#a36cda3a6dd77f2141cfc703c55a47ff8" target="_top" xlink:title="getDuty">
<polygon fill="white" stroke="black" points="586,-532.5 586,-551.5 637,-551.5 637,-532.5 586,-532.5"/>
<text text-anchor="middle" x="611.5" y="-539.5" font-family="Helvetica,sans-Serif" font-size="10.00">getDuty</text>
</a>
</g>
</g>
<!-- Node5&#45;&gt;Node9 -->
<g id="edge9" class="edge"><title>Node5&#45;&gt;Node9</title>
<path fill="none" stroke="midnightblue" d="M494.214,-494.51C511.012,-502.484 535.878,-513.98 558,-523 563.89,-525.402 570.211,-527.821 576.354,-530.09"/>
<polygon fill="midnightblue" stroke="midnightblue" points="575.179,-533.387 585.773,-533.51 577.568,-526.807 575.179,-533.387"/>
</g>
<!-- Node8 -->
<g id="node8" class="node"><title>Node8</title>
<g id="a_node8"><a xlink:href="teensy3__morse__bsp_8cpp.html#ac70998cee1bf97f00aec4a1b4e5a4f60" target="_top" xlink:title="isEarphonePresent">
<polygon fill="white" stroke="black" points="710.5,-494.5 710.5,-513.5 809.5,-513.5 809.5,-494.5 710.5,-494.5"/>
<text text-anchor="middle" x="760" y="-501.5" font-family="Helvetica,sans-Serif" font-size="10.00">isEarphonePresent</text>
</a>
</g>
</g>
<!-- Node7&#45;&gt;Node8 -->
<g id="edge8" class="edge"><title>Node7&#45;&gt;Node8</title>
<path fill="none" stroke="midnightblue" d="M642.146,-504C658.807,-504 680.199,-504 700.116,-504"/>
<polygon fill="midnightblue" stroke="midnightblue" points="700.364,-507.5 710.364,-504 700.364,-500.5 700.364,-507.5"/>
</g>
<!-- Node12 -->
<g id="node12" class="node"><title>Node12</title>
<g id="a_node12"><a xlink:href="teensy3__morse__bsp_8cpp.html#ab306f692c5c9455a0c82782a67ff0147" target="_top" xlink:title="touchPoll">
<polygon fill="white" stroke="black" points="889.5,-228.5 889.5,-247.5 946.5,-247.5 946.5,-228.5 889.5,-228.5"/>
<text text-anchor="middle" x="918" y="-235.5" font-family="Helvetica,sans-Serif" font-size="10.00">touchPoll</text>
</a>
</g>
</g>
<!-- Node11&#45;&gt;Node12 -->
<g id="edge12" class="edge"><title>Node11&#45;&gt;Node12</title>
<path fill="none" stroke="midnightblue" d="M137.265,-228.617C193.556,-275.478 450.178,-475.005 665,-409 765.551,-378.105 862.016,-291.951 900.015,-255.087"/>
<polygon fill="midnightblue" stroke="midnightblue" points="902.937,-257.123 907.61,-247.614 898.027,-252.133 902.937,-257.123"/>
</g>
<!-- Node14 -->
<g id="node14" class="node"><title>Node14</title>
<g id="a_node14"><a xlink:href="libmorse_8cpp.html#acd4b292f5e412ee4f05aed9dafbc072d" target="_top" xlink:title="Convert an ASCII character into Morse code and transmit it. ">
<polygon fill="white" stroke="black" points="215.5,-152.5 215.5,-171.5 265.5,-171.5 265.5,-152.5 215.5,-152.5"/>
<text text-anchor="middle" x="240.5" y="-159.5" font-family="Helvetica,sans-Serif" font-size="10.00">txLetter</text>
</a>
</g>
</g>
<!-- Node11&#45;&gt;Node14 -->
<g id="edge14" class="edge"><title>Node11&#45;&gt;Node14</title>
<path fill="none" stroke="midnightblue" d="M144.997,-209.459C163.166,-200.335 190.784,-186.466 211.478,-176.073"/>
<polygon fill="midnightblue" stroke="midnightblue" points="213.075,-179.187 220.441,-171.572 209.934,-172.932 213.075,-179.187"/>
</g>
<!-- Node13 -->
<g id="node13" class="node"><title>Node13</title>
<g id="a_node13"><a xlink:href="teensy3__morse__bsp_8cpp.html#af6899cd9b83df54106b259ab81ea5cb2" target="_top" xlink:title="touchMargin">
<polygon fill="white" stroke="black" points="1040.5,-228.5 1040.5,-247.5 1110.5,-247.5 1110.5,-228.5 1040.5,-228.5"/>
<text text-anchor="middle" x="1075.5" y="-235.5" font-family="Helvetica,sans-Serif" font-size="10.00">touchMargin</text>
</a>
</g>
</g>
<!-- Node12&#45;&gt;Node13 -->
<g id="edge13" class="edge"><title>Node12&#45;&gt;Node13</title>
<path fill="none" stroke="midnightblue" d="M946.8,-238C969.937,-238 1003.31,-238 1030.13,-238"/>
<polygon fill="midnightblue" stroke="midnightblue" points="1030.43,-241.5 1040.43,-238 1030.43,-234.5 1030.43,-241.5"/>
</g>
<!-- Node15 -->
<g id="node15" class="node"><title>Node15</title>
<g id="a_node15"><a xlink:href="libmorse_8cpp.html#a9fdfce728595d72b78dc7c834ab99a40" target="_top" xlink:title="Transmit a literal Morse code value. ">
<polygon fill="white" stroke="black" points="330.5,-190.5 330.5,-209.5 381.5,-209.5 381.5,-190.5 330.5,-190.5"/>
<text text-anchor="middle" x="356" y="-197.5" font-family="Helvetica,sans-Serif" font-size="10.00">txLiteral</text>
</a>
</g>
</g>
<!-- Node14&#45;&gt;Node15 -->
<g id="edge15" class="edge"><title>Node14&#45;&gt;Node15</title>
<path fill="none" stroke="midnightblue" d="M265.57,-170.059C281.454,-175.377 302.519,-182.429 320.215,-188.354"/>
<polygon fill="midnightblue" stroke="midnightblue" points="319.586,-191.834 330.18,-191.69 321.808,-185.196 319.586,-191.834"/>
</g>
<!-- Node14&#45;&gt;Node21 -->
<g id="edge46" class="edge"><title>Node14&#45;&gt;Node21</title>
<path fill="none" stroke="midnightblue" d="M253.088,-152.402C268.183,-140.443 295.861,-120.325 323,-110 361.681,-95.2835 409.328,-89.5909 440.283,-87.3889"/>
<polygon fill="midnightblue" stroke="midnightblue" points="440.734,-90.8676 450.494,-86.7466 440.294,-83.8814 440.734,-90.8676"/>
</g>
<!-- Node15&#45;&gt;Node10 -->
<g id="edge23" class="edge"><title>Node15&#45;&gt;Node10</title>
<path fill="none" stroke="midnightblue" d="M364.992,-209.837C376.59,-223.288 399.508,-246.9 425,-257 522.127,-295.481 647.661,-289.266 713.73,-282.167"/>
<polygon fill="midnightblue" stroke="midnightblue" points="714.266,-285.629 723.81,-281.027 713.48,-278.673 714.266,-285.629"/>
</g>
<!-- Node16 -->
<g id="node16" class="node"><title>Node16</title>
<g id="a_node16"><a xlink:href="class_morse_token.html#a48cd72aeb868391449d1f51c1d0bf5cc" target="_top" xlink:title="Treat code == 0 as the error token. ">
<polygon fill="white" stroke="black" points="425,-228.5 425,-247.5 522,-247.5 522,-228.5 425,-228.5"/>
<text text-anchor="middle" x="473.5" y="-235.5" font-family="Helvetica,sans-Serif" font-size="10.00">MorseToken::valid</text>
</a>
</g>
</g>
<!-- Node15&#45;&gt;Node16 -->
<g id="edge16" class="edge"><title>Node15&#45;&gt;Node16</title>
<path fill="none" stroke="midnightblue" d="M381.778,-208.152C396.849,-213.111 416.426,-219.552 433.535,-225.18"/>
<polygon fill="midnightblue" stroke="midnightblue" points="432.678,-228.583 443.271,-228.383 434.865,-221.933 432.678,-228.583"/>
</g>
<!-- Node17 -->
<g id="node17" class="node"><title>Node17</title>
<g id="a_node17"><a xlink:href="teensy3__morse__bsp_8cpp.html#af66e71e3fac9b6a2c6532bc8a513bfde" target="_top" xlink:title="Output a square wave on pin 10 at the given frequency for the given duration. ">
<polygon fill="white" stroke="black" points="454.5,-342.5 454.5,-361.5 492.5,-361.5 492.5,-342.5 454.5,-342.5"/>
<text text-anchor="middle" x="473.5" y="-349.5" font-family="Helvetica,sans-Serif" font-size="10.00">beep</text>
</a>
</g>
</g>
<!-- Node15&#45;&gt;Node17 -->
<g id="edge17" class="edge"><title>Node15&#45;&gt;Node17</title>
<path fill="none" stroke="midnightblue" d="M359.845,-209.591C367.133,-232.712 388.512,-292.252 425,-328 430.626,-333.512 437.773,-338.015 444.803,-341.569"/>
<polygon fill="midnightblue" stroke="midnightblue" points="443.613,-344.873 454.165,-345.833 446.515,-338.502 443.613,-344.873"/>
</g>
<!-- Node20 -->
<g id="node20" class="node"><title>Node20</title>
<g id="a_node20"><a xlink:href="settings_8cpp.html#a8575b9b52638114a4f32d1462cf9b7c1" target="_top" xlink:title="Get the transmission frequency (side tone). ">
<polygon fill="white" stroke="black" points="446.5,-190.5 446.5,-209.5 500.5,-209.5 500.5,-190.5 446.5,-190.5"/>
<text text-anchor="middle" x="473.5" y="-197.5" font-family="Helvetica,sans-Serif" font-size="10.00">getTxHz</text>
</a>
</g>
</g>
<!-- Node15&#45;&gt;Node20 -->
<g id="edge22" class="edge"><title>Node15&#45;&gt;Node20</title>
<path fill="none" stroke="midnightblue" d="M381.778,-200C397.625,-200 418.454,-200 436.156,-200"/>
<polygon fill="midnightblue" stroke="midnightblue" points="436.157,-203.5 446.157,-200 436.157,-196.5 436.157,-203.5"/>
</g>
<!-- Node15&#45;&gt;Node21 -->
<g id="edge24" class="edge"><title>Node15&#45;&gt;Node21</title>
<path fill="none" stroke="midnightblue" d="M366.847,-190.28C386.538,-170.846 430.972,-126.989 455.478,-102.801"/>
<polygon fill="midnightblue" stroke="midnightblue" points="458.019,-105.211 462.677,-95.695 453.102,-100.229 458.019,-105.211"/>
</g>
<!-- Node17&#45;&gt;Node6 -->
<g id="edge19" class="edge"><title>Node17&#45;&gt;Node6</title>
<path fill="none" stroke="midnightblue" d="M492.56,-357.046C511.377,-362.304 541.566,-370.739 566.689,-377.759"/>
<polygon fill="midnightblue" stroke="midnightblue" points="565.815,-381.148 576.388,-380.469 567.699,-374.407 565.815,-381.148"/>
</g>
<!-- Node17&#45;&gt;Node7 -->
<g id="edge20" class="edge"><title>Node17&#45;&gt;Node7</title>
<path fill="none" stroke="midnightblue" d="M483.007,-361.508C505.428,-386.566 566.376,-454.684 595.114,-486.804"/>
<polygon fill="midnightblue" stroke="midnightblue" points="592.719,-489.377 601.996,-494.495 597.936,-484.709 592.719,-489.377"/>
</g>
<!-- Node18 -->
<g id="node18" class="node"><title>Node18</title>
<g id="a_node18"><a xlink:href="teensy3__morse__bsp_8cpp.html#a6f674d5b9985ea3a7eeb0df299c2e405" target="_top" xlink:title="pollEarphonePresent">
<polygon fill="white" stroke="black" points="558,-304.5 558,-323.5 665,-323.5 665,-304.5 558,-304.5"/>
<text text-anchor="middle" x="611.5" y="-311.5" font-family="Helvetica,sans-Serif" font-size="10.00">pollEarphonePresent</text>
</a>
</g>
</g>
<!-- Node17&#45;&gt;Node18 -->
<g id="edge18" class="edge"><title>Node17&#45;&gt;Node18</title>
<path fill="none" stroke="midnightblue" d="M492.56,-346.954C511.377,-341.696 541.566,-333.261 566.689,-326.241"/>
<polygon fill="midnightblue" stroke="midnightblue" points="567.699,-329.593 576.388,-323.531 565.815,-322.852 567.699,-329.593"/>
</g>
<!-- Node19 -->
<g id="node19" class="node"><title>Node19</title>
<g id="a_node19"><a xlink:href="teensy3__morse__bsp_8cpp.html#a6c982a7d7805f1dd5426eb98c915cfdd" target="_top" xlink:title="Turn the red LED on (1) or off (0). ">
<polygon fill="white" stroke="black" points="586.5,-342.5 586.5,-361.5 636.5,-361.5 636.5,-342.5 586.5,-342.5"/>
<text text-anchor="middle" x="611.5" y="-349.5" font-family="Helvetica,sans-Serif" font-size="10.00">redLED</text>
</a>
</g>
</g>
<!-- Node17&#45;&gt;Node19 -->
<g id="edge21" class="edge"><title>Node17&#45;&gt;Node19</title>
<path fill="none" stroke="midnightblue" d="M492.56,-352C513.865,-352 549.747,-352 576.35,-352"/>
<polygon fill="midnightblue" stroke="midnightblue" points="576.398,-355.5 586.398,-352 576.398,-348.5 576.398,-355.5"/>
</g>
<!-- Node22 -->
<g id="node22" class="node"><title>Node22</title>
<g id="a_node22"><a xlink:href="libmorse_8cpp.html#a0ee2308940264ea9ac8e50afc1a4d285" target="_top" xlink:title="txString">
<polygon fill="white" stroke="black" points="586.5,-152.5 586.5,-171.5 636.5,-171.5 636.5,-152.5 586.5,-152.5"/>
<text text-anchor="middle" x="611.5" y="-159.5" font-family="Helvetica,sans-Serif" font-size="10.00">txString</text>
</a>
</g>
</g>
<!-- Node21&#45;&gt;Node22 -->
<g id="edge25" class="edge"><title>Node21&#45;&gt;Node22</title>
<path fill="none" stroke="midnightblue" d="M494.058,-95.533C502.689,-99.8297 512.916,-105.043 522,-110 543.91,-121.956 568.337,-136.395 585.968,-147.021"/>
<polygon fill="midnightblue" stroke="midnightblue" points="584.637,-150.307 595.005,-152.492 588.263,-144.319 584.637,-150.307"/>
</g>
<!-- Node22&#45;&gt;Node10 -->
<g id="edge27" class="edge"><title>Node22&#45;&gt;Node10</title>
<path fill="none" stroke="midnightblue" d="M619.786,-171.653C633.774,-189.617 666.111,-228.484 701,-252 706.829,-255.929 713.402,-259.401 719.975,-262.398"/>
<polygon fill="midnightblue" stroke="midnightblue" points="718.945,-265.763 729.518,-266.446 721.678,-259.318 718.945,-265.763"/>
</g>
<!-- Node22&#45;&gt;Node11 -->
<g id="edge31" class="edge"><title>Node22&#45;&gt;Node11</title>
<path fill="none" stroke="midnightblue" d="M605.232,-171.677C593.485,-192.102 562.925,-239.193 522,-257 396.447,-311.629 227.866,-258.858 158.196,-232.269"/>
<polygon fill="midnightblue" stroke="midnightblue" points="159.24,-228.92 148.652,-228.552 156.7,-235.442 159.24,-228.92"/>
</g>
<!-- Node22&#45;&gt;Node12 -->
<g id="edge26" class="edge"><title>Node22&#45;&gt;Node12</title>
<path fill="none" stroke="midnightblue" d="M623.57,-171.715C639.46,-185.02 670.224,-208.46 701,-219 760.716,-239.452 834.87,-241.264 878.931,-240.079"/>
<polygon fill="midnightblue" stroke="midnightblue" points="879.314,-243.568 889.191,-239.734 879.079,-236.572 879.314,-243.568"/>
</g>
<!-- Node22&#45;&gt;Node14 -->
<g id="edge29" class="edge"><title>Node22&#45;&gt;Node14</title>
<path fill="none" stroke="midnightblue" d="M586.2,-162C522.372,-162 349.808,-162 275.878,-162"/>
<polygon fill="midnightblue" stroke="midnightblue" points="275.711,-158.5 265.711,-162 275.711,-165.5 275.711,-158.5"/>
</g>
<!-- Node22&#45;&gt;Node15 -->
<g id="edge28" class="edge"><title>Node22&#45;&gt;Node15</title>
<path fill="none" stroke="midnightblue" d="M586.298,-163.161C550.702,-165.165 482.253,-170.151 425,-181 413.957,-183.093 402.1,-186.124 391.43,-189.153"/>
<polygon fill="midnightblue" stroke="midnightblue" points="390.241,-185.854 381.629,-192.025 392.21,-192.571 390.241,-185.854"/>
</g>
<!-- Node23 -->
<g id="node23" class="node"><title>Node23</title>
<g id="a_node23"><a xlink:href="teensy3__morse__bsp_8cpp.html#a8761e874366e227690fba2964e1bc445" target="_top" xlink:title="getInternalTemperatureC">
<polygon fill="white" stroke="black" points="855.5,-57.5 855.5,-76.5 980.5,-76.5 980.5,-57.5 855.5,-57.5"/>
<text text-anchor="middle" x="918" y="-64.5" font-family="Helvetica,sans-Serif" font-size="10.00">getInternalTemperatureC</text>
</a>
</g>
</g>
<!-- Node22&#45;&gt;Node23 -->
<g id="edge30" class="edge"><title>Node22&#45;&gt;Node23</title>
<path fill="none" stroke="midnightblue" d="M623.977,-152.435C640.103,-139.527 670.878,-116.793 701,-105 747.118,-86.9443 802.134,-77.4266 845.1,-72.4318"/>
<polygon fill="midnightblue" stroke="midnightblue" points="845.636,-75.894 855.19,-71.3157 844.866,-68.9364 845.636,-75.894"/>
</g>
<!-- Node24 -->
<g id="node24" class="node"><title>Node24</title>
<g id="a_node24"><a xlink:href="actions_8cpp.html#aed718ec1bd4cc7adb2f65d40a6784496" target="_top" xlink:title="Transmit the internal temperature in integer in Fahrenheit. ">
<polygon fill="white" stroke="black" points="701,-38.5 701,-57.5 819,-57.5 819,-38.5 701,-38.5"/>
<text text-anchor="middle" x="760" y="-45.5" font-family="Helvetica,sans-Serif" font-size="10.00">txInternalTemperatureF</text>
</a>
</g>
</g>
<!-- Node22&#45;&gt;Node24 -->
<g id="edge32" class="edge"><title>Node22&#45;&gt;Node24</title>
<path fill="none" stroke="midnightblue" d="M619.786,-152.347C633.774,-134.383 666.111,-95.5158 701,-72 706.829,-68.0715 713.402,-64.5991 719.975,-61.6023"/>
<polygon fill="midnightblue" stroke="midnightblue" points="721.678,-64.6815 729.518,-57.5542 718.945,-58.2373 721.678,-64.6815"/>
</g>
<!-- Node25 -->
<g id="node25" class="node"><title>Node25</title>
<g id="a_node25"><a xlink:href="actions_8cpp.html#aaabb3ac0c23f35a499bc17efe829f326" target="_top" xlink:title="Transmit the 24&#45;hr time. ">
<polygon fill="white" stroke="black" points="721,-190.5 721,-209.5 799,-209.5 799,-190.5 721,-190.5"/>
<text text-anchor="middle" x="760" y="-197.5" font-family="Helvetica,sans-Serif" font-size="10.00">txTimeHHMM</text>
</a>
</g>
</g>
<!-- Node22&#45;&gt;Node25 -->
<g id="edge35" class="edge"><title>Node22&#45;&gt;Node25</title>
<path fill="none" stroke="midnightblue" d="M636.691,-163.109C662.49,-167.794 703.315,-178.283 730.616,-187.17"/>
<polygon fill="midnightblue" stroke="midnightblue" points="729.763,-190.577 740.357,-190.483 732.016,-183.95 729.763,-190.577"/>
</g>
<!-- Node26 -->
<g id="node26" class="node"><title>Node26</title>
<g id="a_node26"><a xlink:href="actions_8cpp.html#ad02149679fa3cc6a4957d1a318408ffd" target="_top" xlink:title="Transmit the uptime. ">
<polygon fill="white" stroke="black" points="732,-0.5 732,-19.5 788,-19.5 788,-0.5 732,-0.5"/>
<text text-anchor="middle" x="760" y="-7.5" font-family="Helvetica,sans-Serif" font-size="10.00">txUptime</text>
</a>
</g>
</g>
<!-- Node22&#45;&gt;Node26 -->
<g id="edge37" class="edge"><title>Node22&#45;&gt;Node26</title>
<path fill="none" stroke="midnightblue" d="M616.249,-152.365C626.217,-127.998 655.741,-63.4142 701,-29 707.217,-24.273 714.661,-20.693 722.111,-17.9913"/>
<polygon fill="midnightblue" stroke="midnightblue" points="723.328,-21.2774 731.806,-14.923 721.216,-14.6037 723.328,-21.2774"/>
</g>
<!-- Node28 -->
<g id="node28" class="node"><title>Node28</title>
<g id="a_node28"><a xlink:href="teensy3__morse__bsp_8cpp.html#ae8dd28759e56dbd2ee9bc9ae96d1783c" target="_top" xlink:title="Return the most recent ADC measurement of the input voltage. Perform analog to digital conversion on ...">
<polygon fill="white" stroke="black" points="723,-114.5 723,-133.5 797,-133.5 797,-114.5 723,-114.5"/>
<text text-anchor="middle" x="760" y="-121.5" font-family="Helvetica,sans-Serif" font-size="10.00">readMillivolts</text>
</a>
</g>
</g>
<!-- Node22&#45;&gt;Node28 -->
<g id="edge40" class="edge"><title>Node22&#45;&gt;Node28</title>
<path fill="none" stroke="midnightblue" d="M636.691,-155.725C657.426,-150.347 687.867,-142.451 713.191,-135.882"/>
<polygon fill="midnightblue" stroke="midnightblue" points="714.171,-139.244 722.972,-133.345 712.413,-132.468 714.171,-139.244"/>
</g>
<!-- Node32 -->
<g id="node32" class="node"><title>Node32</title>
<g id="a_node32"><a xlink:href="libmorse_8cpp.html#ac3f000c98271c6d0a7710135e18189bc" target="_top" xlink:title="On my hardware there is cross&#45;coupling between the serial port and the touch sensors. Without the code below, long messages to the serial port trigger a touch input. ">
<polygon fill="white" stroke="black" points="727.5,-152.5 727.5,-171.5 792.5,-171.5 792.5,-152.5 727.5,-152.5"/>
<text text-anchor="middle" x="760" y="-159.5" font-family="Helvetica,sans-Serif" font-size="10.00">flushTouch</text>
</a>
</g>
</g>
<!-- Node22&#45;&gt;Node32 -->
<g id="edge44" class="edge"><title>Node22&#45;&gt;Node32</title>
<path fill="none" stroke="midnightblue" d="M636.691,-162C658.477,-162 690.978,-162 717.002,-162"/>
<polygon fill="midnightblue" stroke="midnightblue" points="717.344,-165.5 727.344,-162 717.344,-158.5 717.344,-165.5"/>
</g>
<!-- Node24&#45;&gt;Node11 -->
<g id="edge34" class="edge"><title>Node24&#45;&gt;Node11</title>
<path fill="none" stroke="midnightblue" d="M700.97,-48C643.477,-48 552.91,-48 474.5,-48 355,-48 355,-48 355,-48 271.916,-48 258.237,-90.3073 194,-143 188.079,-147.857 159.096,-180.869 140.932,-201.756"/>
<polygon fill="midnightblue" stroke="midnightblue" points="138.262,-199.493 134.35,-209.339 143.548,-204.082 138.262,-199.493"/>
</g>
<!-- Node24&#45;&gt;Node23 -->
<g id="edge33" class="edge"><title>Node24&#45;&gt;Node23</title>
<path fill="none" stroke="midnightblue" d="M819.089,-55.0749C827.711,-56.1251 836.682,-57.2177 845.54,-58.2965"/>
<polygon fill="midnightblue" stroke="midnightblue" points="845.117,-61.7708 855.467,-59.5056 845.964,-54.8222 845.117,-61.7708"/>
</g>
<!-- Node25&#45;&gt;Node22 -->
<g id="edge36" class="edge"><title>Node25&#45;&gt;Node22</title>
<path fill="none" stroke="midnightblue" d="M720.753,-196.091C695.819,-190.761 663.811,-182.281 641.083,-174.894"/>
<polygon fill="midnightblue" stroke="midnightblue" points="641.947,-171.491 631.352,-171.592 639.697,-178.12 641.947,-171.491"/>
</g>
<!-- Node26&#45;&gt;Node11 -->
<g id="edge39" class="edge"><title>Node26&#45;&gt;Node11</title>
<path fill="none" stroke="midnightblue" d="M731.933,-10C681.362,-10 569.086,-10 474.5,-10 355,-10 355,-10 355,-10 280.204,-10 246.605,-5.82864 194,-59 153.939,-99.4919 185.253,-131.983 158,-182 154.145,-189.075 148.752,-195.988 143.491,-201.887"/>
<polygon fill="midnightblue" stroke="midnightblue" points="140.882,-199.552 136.555,-209.223 145.968,-204.362 140.882,-199.552"/>
</g>
<!-- Node27 -->
<g id="node27" class="node"><title>Node27</title>
<g id="a_node27"><a xlink:href="settings_8cpp.html#a7b4efa097b94f9a90c5bbafcdf93fe4f" target="_top" xlink:title="getUptime">
<polygon fill="white" stroke="black" points="887,-0.5 887,-19.5 949,-19.5 949,-0.5 887,-0.5"/>
<text text-anchor="middle" x="918" y="-7.5" font-family="Helvetica,sans-Serif" font-size="10.00">getUptime</text>
</a>
</g>
</g>
<!-- Node26&#45;&gt;Node27 -->
<g id="edge38" class="edge"><title>Node26&#45;&gt;Node27</title>
<path fill="none" stroke="midnightblue" d="M788.173,-10C812.633,-10 848.905,-10 876.735,-10"/>
<polygon fill="midnightblue" stroke="midnightblue" points="876.945,-13.5001 886.945,-10 876.945,-6.5001 876.945,-13.5001"/>
</g>
<!-- Node29 -->
<g id="node29" class="node"><title>Node29</title>
<g id="a_node29"><a xlink:href="class_voltage_monitor.html#a70902b84f9864c95d5553a0644a64f4f" target="_top" xlink:title="Return the latest voltage reading. ">
<polygon fill="white" stroke="black" points="855,-114.5 855,-133.5 981,-133.5 981,-114.5 855,-114.5"/>
<text text-anchor="middle" x="918" y="-121.5" font-family="Helvetica,sans-Serif" font-size="10.00">VoltageMonitor::getValue</text>
</a>
</g>
</g>
<!-- Node28&#45;&gt;Node29 -->
<g id="edge41" class="edge"><title>Node28&#45;&gt;Node29</title>
<path fill="none" stroke="midnightblue" d="M797.182,-124C811.344,-124 828.117,-124 844.56,-124"/>
<polygon fill="midnightblue" stroke="midnightblue" points="844.728,-127.5 854.728,-124 844.728,-120.5 844.728,-127.5"/>
</g>
<!-- Node30 -->
<g id="node30" class="node"><title>Node30</title>
<g id="a_node30"><a xlink:href="actions_8cpp.html#a2b8c3769e2aa32a2da9e2f3f85ac73dd" target="_top" xlink:title="A sample ADC reading is taken each time through the main loop, and written to a ring buffer...">
<polygon fill="white" stroke="black" points="1019.5,-95.5 1019.5,-114.5 1131.5,-114.5 1131.5,-95.5 1019.5,-95.5"/>
<text text-anchor="middle" x="1075.5" y="-102.5" font-family="Helvetica,sans-Serif" font-size="10.00">getVoltagePollInterval</text>
</a>
</g>
</g>
<!-- Node29&#45;&gt;Node30 -->
<g id="edge42" class="edge"><title>Node29&#45;&gt;Node30</title>
<path fill="none" stroke="midnightblue" d="M981.352,-116.381C990.438,-115.271 999.816,-114.125 1008.96,-113.008"/>
<polygon fill="midnightblue" stroke="midnightblue" points="1009.66,-116.448 1019.16,-111.761 1008.81,-109.5 1009.66,-116.448"/>
</g>
<!-- Node31 -->
<g id="node31" class="node"><title>Node31</title>
<g id="a_node31"><a xlink:href="class_voltage_monitor.html#a75871331808c34b40d04059ee2af0f27" target="_top" xlink:title="Filter and scale raw ADC values to millivolts. ">
<polygon fill="white" stroke="black" points="1017,-133.5 1017,-152.5 1134,-152.5 1134,-133.5 1017,-133.5"/>
<text text-anchor="middle" x="1075.5" y="-140.5" font-family="Helvetica,sans-Serif" font-size="10.00">VoltageMonitor::update</text>
</a>
</g>
</g>
<!-- Node29&#45;&gt;Node31 -->
<g id="edge43" class="edge"><title>Node29&#45;&gt;Node31</title>
<path fill="none" stroke="midnightblue" d="M981.352,-131.619C989.702,-132.639 998.298,-133.689 1006.74,-134.72"/>
<polygon fill="midnightblue" stroke="midnightblue" points="1006.57,-138.226 1016.92,-135.965 1007.42,-131.277 1006.57,-138.226"/>
</g>
<!-- Node32&#45;&gt;Node12 -->
<g id="edge45" class="edge"><title>Node32&#45;&gt;Node12</title>
<path fill="none" stroke="midnightblue" d="M792.762,-171.074C801.412,-173.902 810.686,-177.27 819,-181 845.82,-193.032 874.701,-210.424 894.11,-222.828"/>
<polygon fill="midnightblue" stroke="midnightblue" points="892.276,-225.81 902.573,-228.305 896.079,-219.934 892.276,-225.81"/>
</g>
</g>
</svg>
