<?xml version="1.0" encoding="UTF-8" standalone="no"?>
<!DOCTYPE svg PUBLIC "-//W3C//DTD SVG 1.1//EN"
 "http://www.w3.org/Graphics/SVG/1.1/DTD/svg11.dtd">
<!-- Generated by graphviz version 2.38.0 (20140413.2041)
 -->
<!-- Title: playScale Pages: 1 -->
<svg width="321pt" height="142pt"
 viewBox="0.00 0.00 321.00 142.00" xmlns="http://www.w3.org/2000/svg" xmlns:xlink="http://www.w3.org/1999/xlink">
<g id="graph0" class="graph" transform="scale(1 1) rotate(0) translate(4 138)">
<title>playScale</title>
<polygon fill="white" stroke="none" points="-4,4 -4,-138 317,-138 317,4 -4,4"/>
<!-- Node1 -->
<g id="node1" class="node"><title>Node1</title>
<polygon fill="#bfbfbf" stroke="black" points="0,-57.5 0,-76.5 59,-76.5 59,-57.5 0,-57.5"/>
<text text-anchor="middle" x="29.5" y="-64.5" font-family="Helvetica,sans-Serif" font-size="10.00">playScale</text>
</g>
<!-- Node2 -->
<g id="node2" class="node"><title>Node2</title>
<g id="a_node2"><a xlink:href="teensy3__morse__bsp_8cpp.html#a2d6b4ace33ed5e497dedd03217540c63" target="_top" xlink:title="Set the PWM frequency for the audio output pins. ">
<polygon fill="white" stroke="black" points="95,-114.5 95,-133.5 178,-133.5 178,-114.5 95,-114.5"/>
<text text-anchor="middle" x="136.5" y="-121.5" font-family="Helvetica,sans-Serif" font-size="10.00">pwmFrequency</text>
</a>
</g>
</g>
<!-- Node1&#45;&gt;Node2 -->
<g id="edge1" class="edge"><title>Node1&#45;&gt;Node2</title>
<path fill="none" stroke="midnightblue" d="M45.9084,-76.6298C58.8327,-84.5725 77.8728,-95.9627 95,-105 98.1168,-106.645 101.401,-108.303 104.696,-109.919"/>
<polygon fill="midnightblue" stroke="midnightblue" points="103.345,-113.153 113.876,-114.313 106.367,-106.839 103.345,-113.153"/>
</g>
<!-- Node3 -->
<g id="node3" class="node"><title>Node3</title>
<g id="a_node3"><a xlink:href="teensy3__morse__bsp_8cpp.html#a82911eac3bf13d6f36d10102a4c4d3c4" target="_top" xlink:title="Generate a tone on the audio output pins. ">
<polygon fill="white" stroke="black" points="106,-76.5 106,-95.5 167,-95.5 167,-76.5 106,-76.5"/>
<text text-anchor="middle" x="136.5" y="-83.5" font-family="Helvetica,sans-Serif" font-size="10.00">pwmWrite</text>
</a>
</g>
</g>
<!-- Node1&#45;&gt;Node3 -->
<g id="edge2" class="edge"><title>Node1&#45;&gt;Node3</title>
<path fill="none" stroke="midnightblue" d="M59.1917,-72.1918C70.4818,-74.2348 83.6356,-76.615 95.8104,-78.8181"/>
<polygon fill="midnightblue" stroke="midnightblue" points="95.2812,-82.2791 105.745,-80.6157 96.5277,-75.3909 95.2812,-82.2791"/>
</g>
<!-- Node5 -->
<g id="node5" class="node"><title>Node5</title>
<g id="a_node5"><a xlink:href="teensy3__morse__bsp_8cpp.html#a36cda3a6dd77f2141cfc703c55a47ff8" target="_top" xlink:title="getDuty">
<polygon fill="white" stroke="black" points="111,-38.5 111,-57.5 162,-57.5 162,-38.5 111,-38.5"/>
<text text-anchor="middle" x="136.5" y="-45.5" font-family="Helvetica,sans-Serif" font-size="10.00">getDuty</text>
</a>
</g>
</g>
<!-- Node1&#45;&gt;Node5 -->
<g id="edge4" class="edge"><title>Node1&#45;&gt;Node5</title>
<path fill="none" stroke="midnightblue" d="M59.1917,-61.8082C72.0624,-59.4792 87.3552,-56.7119 100.859,-54.2685"/>
<polygon fill="midnightblue" stroke="midnightblue" points="101.549,-57.7004 110.766,-52.4757 100.303,-50.8123 101.549,-57.7004"/>
</g>
<!-- Node6 -->
<g id="node6" class="node"><title>Node6</title>
<g id="a_node6"><a xlink:href="settings_8cpp.html#a960551e90dfdad18f3c9b1338ccba7db" target="_top" xlink:title="Get the dit duration in microseconds. ">
<polygon fill="white" stroke="black" points="100.5,-0.5 100.5,-19.5 172.5,-19.5 172.5,-0.5 100.5,-0.5"/>
<text text-anchor="middle" x="136.5" y="-7.5" font-family="Helvetica,sans-Serif" font-size="10.00">getDitMicros</text>
</a>
</g>
</g>
<!-- Node1&#45;&gt;Node6 -->
<g id="edge5" class="edge"><title>Node1&#45;&gt;Node6</title>
<path fill="none" stroke="midnightblue" d="M45.9084,-57.3702C58.8327,-49.4275 77.8728,-38.0373 95,-29 98.1168,-27.3554 101.401,-25.6969 104.696,-24.0811"/>
<polygon fill="midnightblue" stroke="midnightblue" points="106.367,-27.1613 113.876,-19.6873 103.345,-20.8471 106.367,-27.1613"/>
</g>
<!-- Node4 -->
<g id="node4" class="node"><title>Node4</title>
<g id="a_node4"><a xlink:href="teensy3__morse__bsp_8cpp.html#ac70998cee1bf97f00aec4a1b4e5a4f60" target="_top" xlink:title="isEarphonePresent">
<polygon fill="white" stroke="black" points="214,-76.5 214,-95.5 313,-95.5 313,-76.5 214,-76.5"/>
<text text-anchor="middle" x="263.5" y="-83.5" font-family="Helvetica,sans-Serif" font-size="10.00">isEarphonePresent</text>
</a>
</g>
</g>
<!-- Node3&#45;&gt;Node4 -->
<g id="edge3" class="edge"><title>Node3&#45;&gt;Node4</title>
<path fill="none" stroke="midnightblue" d="M167.123,-86C178.061,-86 190.876,-86 203.501,-86"/>
<polygon fill="midnightblue" stroke="midnightblue" points="203.545,-89.5001 213.545,-86 203.545,-82.5001 203.545,-89.5001"/>
</g>
</g>
</svg>
