<?xml version="1.0" encoding="UTF-8" standalone="no"?>
<!DOCTYPE svg PUBLIC "-//W3C//DTD SVG 1.1//EN"
 "http://www.w3.org/Graphics/SVG/1.1/DTD/svg11.dtd">
<!-- Generated by graphviz version 2.38.0 (20140413.2041)
 -->
<!-- Title: pda.cpp Pages: 1 -->
<!--zoomable 308 -->
<svg id="main" version="1.1" xmlns="http://www.w3.org/2000/svg" xmlns:xlink="http://www.w3.org/1999/xlink" xml:space="preserve" onload="init(evt)">
<style type="text/css"><![CDATA[
.edge:hover path { stroke: red; }
.edge:hover polygon { stroke: red; fill: red; }
]]></style>
<script type="text/javascript"><![CDATA[
var edges = document.getElementsByTagName('g');
if (edges && edges.length) {
  for (var i=0;i<edges.length;i++) {
    if (edges[i].id.substr(0,4)=='edge') {
      edges[i].setAttribute('class','edge');
    }
  }
}
]]></script>
        <defs>
                <circle id="rim" cx="0" cy="0" r="7"/>
                <circle id="rim2" cx="0" cy="0" r="3.5"/>
                <g id="zoomPlus">
                        <use xlink:href="#rim" fill="#404040">
                                <set attributeName="fill" to="#808080" begin="zoomplus.mouseover" end="zoomplus.mouseout"/>
                        </use>
                        <path d="M-4,0h8M0,-4v8" fill="none" stroke="white" stroke-width="1.5" pointer-events="none"/>
                </g>
                <g id="zoomMin">
                        <use xlink:href="#rim" fill="#404040">
                                <set attributeName="fill" to="#808080" begin="zoomminus.mouseover" end="zoomminus.mouseout"/>
                        </use>
                        <path d="M-4,0h8" fill="none" stroke="white" stroke-width="1.5" pointer-events="none"/>
                </g>
                <g id="dirArrow">
                        <path fill="none" stroke="white" stroke-width="1.5" d="M0,-3.0v7 M-2.5,-0.5L0,-3.0L2.5,-0.5"/>
                </g>
               <g id="resetDef">
                       <use xlink:href="#rim2" fill="#404040">
                               <set attributeName="fill" to="#808080" begin="reset.mouseover" end="reset.mouseout"/>
                       </use>
               </g>
        </defs>

<script type="text/javascript">
var viewWidth = 937;
var viewHeight = 308;
var sectionId = 'dynsection-0';
</script>
<script xlink:href="svgpan.js"/>
<svg id="graph" class="graph">
<g id="viewport">
<title>pda.cpp</title>
<polygon fill="white" stroke="none" points="-4,4 -4,-304 932.731,-304 932.731,4 -4,4"/>
<!-- Node1 -->
<g id="node1" class="node"><title>Node1</title>
<polygon fill="#bfbfbf" stroke="black" points="573.731,-280.5 573.731,-299.5 624.731,-299.5 624.731,-280.5 573.731,-280.5"/>
<text text-anchor="middle" x="599.231" y="-287.5" font-family="Helvetica,sans-Serif" font-size="10.00">pda.cpp</text>
</g>
<!-- Node2 -->
<g id="node2" class="node"><title>Node2</title>
<g id="a_node2"><a xlink:href="pda_8h.html" target="_top" xlink:title="Personal Digital Assistant functions. ">
<polygon fill="white" stroke="black" points="238.731,-224.5 238.731,-243.5 279.731,-243.5 279.731,-224.5 238.731,-224.5"/>
<text text-anchor="middle" x="259.231" y="-231.5" font-family="Helvetica,sans-Serif" font-size="10.00">pda.h</text>
</a>
</g>
</g>
<!-- Node1&#45;&gt;Node2 -->
<g id="edge1" class="edge"><title>Node1&#45;&gt;Node2</title>
<path fill="none" stroke="midnightblue" d="M573.675,-284.941C512.233,-275.183 356.413,-250.435 289.988,-239.885"/>
<polygon fill="midnightblue" stroke="midnightblue" points="290.183,-236.372 279.757,-238.26 289.084,-243.285 290.183,-236.372"/>
</g>
<!-- Node13 -->
<g id="node13" class="node"><title>Node13</title>
<g id="a_node13"><a xlink:href="prosign_8h.html" target="_top" xlink:title="Prosign constants. ">
<polygon fill="white" stroke="black" points="64.2307,-56.5 64.2307,-75.5 120.231,-75.5 120.231,-56.5 64.2307,-56.5"/>
<text text-anchor="middle" x="92.2307" y="-63.5" font-family="Helvetica,sans-Serif" font-size="10.00">prosign.h</text>
</a>
</g>
</g>
<!-- Node1&#45;&gt;Node13 -->
<g id="edge27" class="edge"><title>Node1&#45;&gt;Node13</title>
<path fill="none" stroke="midnightblue" d="M573.467,-288.958C512.317,-288.199 354.19,-282.355 229.231,-244 125.098,-212.037 67.9894,-224.972 11.2307,-132 -2.93038,-108.804 27.6641,-90.3895 55.2206,-79.1673"/>
<polygon fill="midnightblue" stroke="midnightblue" points="56.6828,-82.355 64.7627,-75.5018 54.1726,-75.8206 56.6828,-82.355"/>
</g>
<!-- Node14 -->
<g id="node14" class="node"><title>Node14</title>
<g id="a_node14"><a xlink:href="notes_8h.html" target="_top" xlink:title="Frequency values for equal&#45;tempered musical notes. ">
<polygon fill="white" stroke="black" points="670.731,-224.5 670.731,-243.5 719.731,-243.5 719.731,-224.5 670.731,-224.5"/>
<text text-anchor="middle" x="695.231" y="-231.5" font-family="Helvetica,sans-Serif" font-size="10.00">notes.h</text>
</a>
</g>
</g>
<!-- Node1&#45;&gt;Node14 -->
<g id="edge17" class="edge"><title>Node1&#45;&gt;Node14</title>
<path fill="none" stroke="midnightblue" d="M614.655,-280.324C629.77,-271.822 653.046,-258.729 670.702,-248.797"/>
<polygon fill="midnightblue" stroke="midnightblue" points="672.845,-251.608 679.845,-243.655 669.413,-245.507 672.845,-251.608"/>
</g>
<!-- Node15 -->
<g id="node15" class="node"><title>Node15</title>
<g id="a_node15"><a xlink:href="settings_8h.html" target="_top" xlink:title="User settings. ">
<polygon fill="white" stroke="black" points="737.731,-224.5 737.731,-243.5 796.731,-243.5 796.731,-224.5 737.731,-224.5"/>
<text text-anchor="middle" x="767.231" y="-231.5" font-family="Helvetica,sans-Serif" font-size="10.00">settings.h</text>
</a>
</g>
</g>
<!-- Node1&#45;&gt;Node15 -->
<g id="edge18" class="edge"><title>Node1&#45;&gt;Node15</title>
<path fill="none" stroke="midnightblue" d="M624.746,-280.799C652.991,-271.72 698.748,-257.012 730.767,-246.72"/>
<polygon fill="midnightblue" stroke="midnightblue" points="732.192,-249.939 740.641,-243.547 730.05,-243.275 732.192,-249.939"/>
</g>
<!-- Node16 -->
<g id="node16" class="node"><title>Node16</title>
<g id="a_node16"><a xlink:href="actions_8h.html" target="_top" xlink:title="Application&#45;specific actions. ">
<polygon fill="white" stroke="black" points="333.231,-224.5 333.231,-243.5 389.231,-243.5 389.231,-224.5 333.231,-224.5"/>
<text text-anchor="middle" x="361.231" y="-231.5" font-family="Helvetica,sans-Serif" font-size="10.00">actions.h</text>
</a>
</g>
</g>
<!-- Node1&#45;&gt;Node16 -->
<g id="edge19" class="edge"><title>Node1&#45;&gt;Node16</title>
<path fill="none" stroke="midnightblue" d="M573.307,-283.118C531.241,-273.574 447.919,-254.669 399.175,-243.609"/>
<polygon fill="midnightblue" stroke="midnightblue" points="399.852,-240.174 389.326,-241.374 398.303,-247 399.852,-240.174"/>
</g>
<!-- Node17 -->
<g id="node17" class="node"><title>Node17</title>
<g id="a_node17"><a xlink:href="stack_8h.html" target="_top" xlink:title="Fixed&#45;sized stack for plain old data. ">
<polygon fill="white" stroke="black" points="814.731,-224.5 814.731,-243.5 863.731,-243.5 863.731,-224.5 814.731,-224.5"/>
<text text-anchor="middle" x="839.231" y="-231.5" font-family="Helvetica,sans-Serif" font-size="10.00">stack.h</text>
</a>
</g>
</g>
<!-- Node1&#45;&gt;Node17 -->
<g id="edge23" class="edge"><title>Node1&#45;&gt;Node17</title>
<path fill="none" stroke="midnightblue" d="M624.823,-283.884C662.26,-276.305 734.359,-261.344 804.518,-244.334"/>
<polygon fill="midnightblue" stroke="midnightblue" points="805.516,-247.693 814.401,-241.921 803.856,-240.893 805.516,-247.693"/>
</g>
<!-- Node18 -->
<g id="node18" class="node"><title>Node18</title>
<g id="a_node18"><a xlink:href="sound_8h.html" target="_top" xlink:title="PWM sound effects. ">
<polygon fill="white" stroke="black" points="476.731,-224.5 476.731,-243.5 527.731,-243.5 527.731,-224.5 476.731,-224.5"/>
<text text-anchor="middle" x="502.231" y="-231.5" font-family="Helvetica,sans-Serif" font-size="10.00">sound.h</text>
</a>
</g>
</g>
<!-- Node1&#45;&gt;Node18 -->
<g id="edge24" class="edge"><title>Node1&#45;&gt;Node18</title>
<path fill="none" stroke="midnightblue" d="M583.646,-280.324C568.232,-271.743 544.419,-258.486 526.521,-248.522"/>
<polygon fill="midnightblue" stroke="midnightblue" points="528.217,-245.461 517.777,-243.655 524.812,-251.577 528.217,-245.461"/>
</g>
<!-- Node20 -->
<g id="node20" class="node"><title>Node20</title>
<g id="a_node20"><a xlink:href="EEPROMAnything_8h.html" target="_top" xlink:title="Loads and stores arbitrary structures to non&#45;volatile memory. ">
<polygon fill="white" stroke="black" points="545.731,-224.5 545.731,-243.5 652.731,-243.5 652.731,-224.5 545.731,-224.5"/>
<text text-anchor="middle" x="599.231" y="-231.5" font-family="Helvetica,sans-Serif" font-size="10.00">EEPROMAnything.h</text>
</a>
</g>
</g>
<!-- Node1&#45;&gt;Node20 -->
<g id="edge28" class="edge"><title>Node1&#45;&gt;Node20</title>
<path fill="none" stroke="midnightblue" d="M599.231,-280.083C599.231,-273.006 599.231,-262.861 599.231,-253.986"/>
<polygon fill="midnightblue" stroke="midnightblue" points="602.731,-253.751 599.231,-243.751 595.731,-253.751 602.731,-253.751"/>
</g>
<!-- Node22 -->
<g id="node22" class="node"><title>Node22</title>
<polygon fill="white" stroke="#bfbfbf" points="881.731,-224.5 881.731,-243.5 928.731,-243.5 928.731,-224.5 881.731,-224.5"/>
<text text-anchor="middle" x="905.231" y="-231.5" font-family="Helvetica,sans-Serif" font-size="10.00">Time.h</text>
</g>
<!-- Node1&#45;&gt;Node22 -->
<g id="edge31" class="edge"><title>Node1&#45;&gt;Node22</title>
<path fill="none" stroke="midnightblue" d="M625.101,-285.73C672.306,-279.555 775.705,-265.066 871.68,-244.157"/>
<polygon fill="midnightblue" stroke="midnightblue" points="872.529,-247.554 881.54,-241.98 871.02,-240.719 872.529,-247.554"/>
</g>
<!-- Node3 -->
<g id="node3" class="node"><title>Node3</title>
<g id="a_node3"><a xlink:href="libmorse_8h.html" target="_top" xlink:title="Morse code operations. ">
<polygon fill="white" stroke="black" points="194.231,-168.5 194.231,-187.5 256.231,-187.5 256.231,-168.5 194.231,-168.5"/>
<text text-anchor="middle" x="225.231" y="-175.5" font-family="Helvetica,sans-Serif" font-size="10.00">libmorse.h</text>
</a>
</g>
</g>
<!-- Node2&#45;&gt;Node3 -->
<g id="edge2" class="edge"><title>Node2&#45;&gt;Node3</title>
<path fill="none" stroke="midnightblue" d="M253.616,-224.083C248.863,-216.534 241.913,-205.495 236.079,-196.23"/>
<polygon fill="midnightblue" stroke="midnightblue" points="239.031,-194.349 230.741,-187.751 233.107,-198.078 239.031,-194.349"/>
</g>
<!-- Node4 -->
<g id="node4" class="node"><title>Node4</title>
<g id="a_node4"><a xlink:href="binconst_8h.html" target="_top" xlink:title="Binary constant generator macro. ">
<polygon fill="white" stroke="black" points="7.2307,-0.5 7.2307,-19.5 69.2307,-19.5 69.2307,-0.5 7.2307,-0.5"/>
<text text-anchor="middle" x="38.2307" y="-7.5" font-family="Helvetica,sans-Serif" font-size="10.00">binconst.h</text>
</a>
</g>
</g>
<!-- Node3&#45;&gt;Node4 -->
<g id="edge3" class="edge"><title>Node3&#45;&gt;Node4</title>
<path fill="none" stroke="midnightblue" d="M194.001,-175.122C140.268,-171.169 33.8991,-159.931 11.2307,-132 -13.3043,-101.769 10.3146,-53.8468 26.2859,-28.3286"/>
<polygon fill="midnightblue" stroke="midnightblue" points="29.3668,-30.0126 31.9163,-19.7291 23.5104,-26.1782 29.3668,-30.0126"/>
</g>
<!-- Node5 -->
<g id="node5" class="node"><title>Node5</title>
<polygon fill="white" stroke="#bfbfbf" points="20.7307,-112.5 20.7307,-131.5 63.7307,-131.5 63.7307,-112.5 20.7307,-112.5"/>
<text text-anchor="middle" x="42.2307" y="-119.5" font-family="Helvetica,sans-Serif" font-size="10.00">cstdio</text>
</g>
<!-- Node3&#45;&gt;Node5 -->
<g id="edge4" class="edge"><title>Node3&#45;&gt;Node5</title>
<path fill="none" stroke="midnightblue" d="M196.234,-168.444C162.897,-158.606 108.356,-142.512 73.923,-132.352"/>
<polygon fill="midnightblue" stroke="midnightblue" points="74.5102,-128.876 63.9284,-129.403 72.529,-135.59 74.5102,-128.876"/>
</g>
<!-- Node6 -->
<g id="node6" class="node"><title>Node6</title>
<polygon fill="white" stroke="#bfbfbf" points="82.2307,-112.5 82.2307,-131.5 128.231,-131.5 128.231,-112.5 82.2307,-112.5"/>
<text text-anchor="middle" x="105.231" y="-119.5" font-family="Helvetica,sans-Serif" font-size="10.00">cstring</text>
</g>
<!-- Node3&#45;&gt;Node6 -->
<g id="edge5" class="edge"><title>Node3&#45;&gt;Node6</title>
<path fill="none" stroke="midnightblue" d="M206.216,-168.444C186.643,-159.636 155.923,-145.812 133.502,-135.722"/>
<polygon fill="midnightblue" stroke="midnightblue" points="134.712,-132.428 124.156,-131.516 131.839,-138.812 134.712,-132.428"/>
</g>
<!-- Node7 -->
<g id="node7" class="node"><title>Node7</title>
<polygon fill="white" stroke="#bfbfbf" points="290.231,-56.5 290.231,-75.5 346.231,-75.5 346.231,-56.5 290.231,-56.5"/>
<text text-anchor="middle" x="318.231" y="-63.5" font-family="Helvetica,sans-Serif" font-size="10.00">cinttypes</text>
</g>
<!-- Node3&#45;&gt;Node7 -->
<g id="edge6" class="edge"><title>Node3&#45;&gt;Node7</title>
<path fill="none" stroke="midnightblue" d="M236.036,-168.342C246.442,-159.724 262.315,-145.822 274.231,-132 287.119,-117.051 299.509,-98.2098 307.838,-84.6666"/>
<polygon fill="midnightblue" stroke="midnightblue" points="310.973,-86.2449 313.134,-75.8728 304.977,-82.6332 310.973,-86.2449"/>
</g>
<!-- Node8 -->
<g id="node8" class="node"><title>Node8</title>
<polygon fill="white" stroke="#bfbfbf" points="133.731,-0.5 133.731,-19.5 178.731,-19.5 178.731,-0.5 133.731,-0.5"/>
<text text-anchor="middle" x="156.231" y="-7.5" font-family="Helvetica,sans-Serif" font-size="10.00">climits</text>
</g>
<!-- Node3&#45;&gt;Node8 -->
<g id="edge7" class="edge"><title>Node3&#45;&gt;Node8</title>
<path fill="none" stroke="midnightblue" d="M211.369,-168.48C199.733,-160.543 183.692,-147.605 175.231,-132 157.467,-99.2411 155.12,-54.6303 155.407,-29.7454"/>
<polygon fill="midnightblue" stroke="midnightblue" points="158.912,-29.6253 155.691,-19.532 151.914,-29.4309 158.912,-29.6253"/>
</g>
<!-- Node9 -->
<g id="node9" class="node"><title>Node9</title>
<g id="a_node9"><a xlink:href="teensy3__morse__bsp_8h.html" target="_top" xlink:title="Teensy 3.0 board support package. ">
<polygon fill="white" stroke="black" points="322.731,-112.5 322.731,-131.5 435.731,-131.5 435.731,-112.5 322.731,-112.5"/>
<text text-anchor="middle" x="379.231" y="-119.5" font-family="Helvetica,sans-Serif" font-size="10.00">teensy3_morse_bsp.h</text>
</a>
</g>
</g>
<!-- Node3&#45;&gt;Node9 -->
<g id="edge8" class="edge"><title>Node3&#45;&gt;Node9</title>
<path fill="none" stroke="midnightblue" d="M249.632,-168.444C275.427,-159.399 316.307,-145.064 345.248,-134.916"/>
<polygon fill="midnightblue" stroke="midnightblue" points="346.665,-138.128 354.943,-131.516 344.348,-131.523 346.665,-138.128"/>
</g>
<!-- Node11 -->
<g id="node11" class="node"><title>Node11</title>
<g id="a_node11"><a xlink:href="morse__token_8h.html" target="_top" xlink:title="Defines the MorseToken class and various helpers. ">
<polygon fill="white" stroke="black" points="184.731,-112.5 184.731,-131.5 265.731,-131.5 265.731,-112.5 184.731,-112.5"/>
<text text-anchor="middle" x="225.231" y="-119.5" font-family="Helvetica,sans-Serif" font-size="10.00">morse_token.h</text>
</a>
</g>
</g>
<!-- Node3&#45;&gt;Node11 -->
<g id="edge10" class="edge"><title>Node3&#45;&gt;Node11</title>
<path fill="none" stroke="midnightblue" d="M225.231,-168.083C225.231,-161.006 225.231,-150.861 225.231,-141.986"/>
<polygon fill="midnightblue" stroke="midnightblue" points="228.731,-141.751 225.231,-131.751 221.731,-141.751 228.731,-141.751"/>
</g>
<!-- Node10 -->
<g id="node10" class="node"><title>Node10</title>
<polygon fill="white" stroke="#bfbfbf" points="435.231,-56.5 435.231,-75.5 493.231,-75.5 493.231,-56.5 435.231,-56.5"/>
<text text-anchor="middle" x="464.231" y="-63.5" font-family="Helvetica,sans-Serif" font-size="10.00">Arduino.h</text>
</g>
<!-- Node9&#45;&gt;Node10 -->
<g id="edge9" class="edge"><title>Node9&#45;&gt;Node10</title>
<path fill="none" stroke="midnightblue" d="M392.887,-112.324C406.147,-103.9 426.499,-90.9709 442.077,-81.0741"/>
<polygon fill="midnightblue" stroke="midnightblue" points="444.044,-83.9711 450.608,-75.6545 440.29,-78.0626 444.044,-83.9711"/>
</g>
<!-- Node11&#45;&gt;Node7 -->
<g id="edge11" class="edge"><title>Node11&#45;&gt;Node7</title>
<path fill="none" stroke="midnightblue" d="M240.173,-112.324C254.816,-103.822 277.364,-90.7288 294.468,-80.7975"/>
<polygon fill="midnightblue" stroke="midnightblue" points="296.435,-83.7027 303.326,-75.6545 292.92,-77.6491 296.435,-83.7027"/>
</g>
<!-- Node11&#45;&gt;Node8 -->
<g id="edge12" class="edge"><title>Node11&#45;&gt;Node8</title>
<path fill="none" stroke="midnightblue" d="M219.816,-112.368C208.48,-94.2957 182.06,-52.1764 167.087,-28.3074"/>
<polygon fill="midnightblue" stroke="midnightblue" points="169.899,-26.2029 161.62,-19.5914 163.969,-29.9226 169.899,-26.2029"/>
</g>
<!-- Node12 -->
<g id="node12" class="node"><title>Node12</title>
<polygon fill="white" stroke="#bfbfbf" points="222.731,-56.5 222.731,-75.5 271.731,-75.5 271.731,-56.5 222.731,-56.5"/>
<text text-anchor="middle" x="247.231" y="-63.5" font-family="Helvetica,sans-Serif" font-size="10.00">cstddef</text>
</g>
<!-- Node11&#45;&gt;Node12 -->
<g id="edge13" class="edge"><title>Node11&#45;&gt;Node12</title>
<path fill="none" stroke="midnightblue" d="M228.864,-112.083C231.843,-104.77 236.157,-94.1814 239.855,-85.1034"/>
<polygon fill="midnightblue" stroke="midnightblue" points="243.134,-86.3326 243.665,-75.7511 236.651,-83.6914 243.134,-86.3326"/>
</g>
<!-- Node11&#45;&gt;Node13 -->
<g id="edge14" class="edge"><title>Node11&#45;&gt;Node13</title>
<path fill="none" stroke="midnightblue" d="M204.156,-112.444C182.171,-103.517 147.496,-89.4387 122.567,-79.3168"/>
<polygon fill="midnightblue" stroke="midnightblue" points="123.788,-76.0355 113.206,-75.5164 121.155,-82.5213 123.788,-76.0355"/>
</g>
<!-- Node13&#45;&gt;Node4 -->
<g id="edge15" class="edge"><title>Node13&#45;&gt;Node4</title>
<path fill="none" stroke="midnightblue" d="M83.3137,-56.083C75.4502,-48.2195 63.7995,-36.5688 54.312,-27.0813"/>
<polygon fill="midnightblue" stroke="midnightblue" points="56.5278,-24.3473 46.9818,-19.7511 51.578,-29.2971 56.5278,-24.3473"/>
</g>
<!-- Node13&#45;&gt;Node8 -->
<g id="edge16" class="edge"><title>Node13&#45;&gt;Node8</title>
<path fill="none" stroke="midnightblue" d="M102.513,-56.324C112.067,-48.2631 126.51,-36.0765 138.015,-26.3695"/>
<polygon fill="midnightblue" stroke="midnightblue" points="140.375,-28.9577 145.761,-19.8339 135.861,-23.6076 140.375,-28.9577"/>
</g>
<!-- Node16&#45;&gt;Node3 -->
<g id="edge21" class="edge"><title>Node16&#45;&gt;Node3</title>
<path fill="none" stroke="midnightblue" d="M339.681,-224.444C317.2,-215.517 281.743,-201.439 256.251,-191.317"/>
<polygon fill="midnightblue" stroke="midnightblue" points="257.265,-187.954 246.679,-187.516 254.682,-194.46 257.265,-187.954"/>
</g>
<!-- Node16&#45;&gt;Node10 -->
<g id="edge20" class="edge"><title>Node16&#45;&gt;Node10</title>
<path fill="none" stroke="midnightblue" d="M370.498,-224.467C387.695,-208.14 424.658,-170.655 445.231,-132 452.998,-117.405 457.965,-99.2309 460.865,-85.8138"/>
<polygon fill="midnightblue" stroke="midnightblue" points="464.33,-86.3335 462.83,-75.8453 457.462,-84.9794 464.33,-86.3335"/>
</g>
<!-- Node16&#45;&gt;Node11 -->
<g id="edge22" class="edge"><title>Node16&#45;&gt;Node11</title>
<path fill="none" stroke="midnightblue" d="M350.559,-224.368C327.519,-205.733 272.871,-161.532 243.942,-138.134"/>
<polygon fill="midnightblue" stroke="midnightblue" points="245.829,-135.159 235.853,-131.591 241.427,-140.601 245.829,-135.159"/>
</g>
<!-- Node18&#45;&gt;Node7 -->
<g id="edge26" class="edge"><title>Node18&#45;&gt;Node7</title>
<path fill="none" stroke="midnightblue" d="M500.548,-224.31C495.845,-202.318 480.527,-143.941 445.231,-112 420.547,-89.6622 384.057,-78.2533 356.517,-72.5256"/>
<polygon fill="midnightblue" stroke="midnightblue" points="356.924,-69.0398 346.444,-70.5976 355.608,-75.9151 356.924,-69.0398"/>
</g>
<!-- Node19 -->
<g id="node19" class="node"><title>Node19</title>
<polygon fill="white" stroke="#bfbfbf" points="530.231,-168.5 530.231,-187.5 576.231,-187.5 576.231,-168.5 530.231,-168.5"/>
<text text-anchor="middle" x="553.231" y="-175.5" font-family="Helvetica,sans-Serif" font-size="10.00">cctype</text>
</g>
<!-- Node18&#45;&gt;Node19 -->
<g id="edge25" class="edge"><title>Node18&#45;&gt;Node19</title>
<path fill="none" stroke="midnightblue" d="M510.652,-224.083C518.079,-216.22 529.082,-204.569 538.043,-195.081"/>
<polygon fill="midnightblue" stroke="midnightblue" points="540.644,-197.424 544.966,-187.751 535.555,-192.618 540.644,-197.424"/>
</g>
<!-- Node20&#45;&gt;Node10 -->
<g id="edge30" class="edge"><title>Node20&#45;&gt;Node10</title>
<path fill="none" stroke="midnightblue" d="M599.122,-224.353C598.59,-211.248 596.099,-185.98 585.231,-168 561.449,-128.656 516.767,-97.4526 488.861,-80.65"/>
<polygon fill="midnightblue" stroke="midnightblue" points="490.491,-77.5491 480.094,-75.5129 486.952,-83.5885 490.491,-77.5491"/>
</g>
<!-- Node21 -->
<g id="node21" class="node"><title>Node21</title>
<polygon fill="white" stroke="#bfbfbf" points="632.231,-168.5 632.231,-187.5 700.231,-187.5 700.231,-168.5 632.231,-168.5"/>
<text text-anchor="middle" x="666.231" y="-175.5" font-family="Helvetica,sans-Serif" font-size="10.00">EEPROM.h</text>
</g>
<!-- Node20&#45;&gt;Node21 -->
<g id="edge29" class="edge"><title>Node20&#45;&gt;Node21</title>
<path fill="none" stroke="midnightblue" d="M609.995,-224.324C619.997,-216.263 635.117,-204.077 647.161,-194.369"/>
<polygon fill="midnightblue" stroke="midnightblue" points="649.68,-196.834 655.27,-187.834 645.288,-191.384 649.68,-196.834"/>
</g>
</g>
</svg>
        <g id="navigator" transform="translate(0 0)" fill="#404254">
                <rect fill="#f2f5e9" fill-opacity="0.5" stroke="#606060" stroke-width=".5" x="0" y="0" width="60" height="60"/>
                <use id="zoomplus" xlink:href="#zoomPlus" x="17" y="9" onmousedown="handleZoom(evt,'in')"/>
                <use id="zoomminus" xlink:href="#zoomMin" x="42" y="9" onmousedown="handleZoom(evt,'out')"/>
                <use id="reset" xlink:href="#resetDef" x="30" y="36" onmousedown="handleReset()"/>
                <g id="arrowUp" xlink:href="#dirArrow" transform="translate(30 24)" onmousedown="handlePan(0,-1)">
                  <use xlink:href="#rim" fill="#404040">
                        <set attributeName="fill" to="#808080" begin="arrowUp.mouseover" end="arrowUp.mouseout"/>
                  </use>
                  <path fill="none" stroke="white" stroke-width="1.5" d="M0,-3.0v7 M-2.5,-0.5L0,-3.0L2.5,-0.5"/>
                </g>
                <g id="arrowRight" xlink:href="#dirArrow" transform="rotate(90) translate(36 -43)" onmousedown="handlePan(1,0)">
                  <use xlink:href="#rim" fill="#404040">
                        <set attributeName="fill" to="#808080" begin="arrowRight.mouseover" end="arrowRight.mouseout"/>
                  </use>
                  <path fill="none" stroke="white" stroke-width="1.5" d="M0,-3.0v7 M-2.5,-0.5L0,-3.0L2.5,-0.5"/>
                </g>
                <g id="arrowDown" xlink:href="#dirArrow" transform="rotate(180) translate(-30 -48)" onmousedown="handlePan(0,1)">
                  <use xlink:href="#rim" fill="#404040">
                        <set attributeName="fill" to="#808080" begin="arrowDown.mouseover" end="arrowDown.mouseout"/>
                  </use>
                  <path fill="none" stroke="white" stroke-width="1.5" d="M0,-3.0v7 M-2.5,-0.5L0,-3.0L2.5,-0.5"/>
                </g>
                <g id="arrowLeft" xlink:href="#dirArrow" transform="rotate(270) translate(-36 17)" onmousedown="handlePan(-1,0)">
                  <use xlink:href="#rim" fill="#404040">
                        <set attributeName="fill" to="#808080" begin="arrowLeft.mouseover" end="arrowLeft.mouseout"/>
                  </use>
                  <path fill="none" stroke="white" stroke-width="1.5" d="M0,-3.0v7 M-2.5,-0.5L0,-3.0L2.5,-0.5"/>
                </g>
        </g>
        <svg viewBox="0 0 15 15" width="100%" height="30px" preserveAspectRatio="xMaxYMin meet">
         <g id="arrow_out" transform="scale(0.3 0.3)">
          <a xlink:href="pda_8cpp__incl_org.svg" target="_base">
           <rect id="button" ry="5" rx="5" y="6" x="6" height="38" width="38"
                fill="#f2f5e9" fill-opacity="0.5" stroke="#606060" stroke-width="1.0"/>
           <path id="arrow"
             d="M 11.500037,31.436501 C 11.940474,20.09759 22.043105,11.32322 32.158766,21.979434 L 37.068811,17.246167 C 37.068811,17.246167 37.088388,32 37.088388,32 L 22.160133,31.978069 C 22.160133,31.978069 26.997745,27.140456 26.997745,27.140456 C 18.528582,18.264221 13.291696,25.230495 11.500037,31.436501 z"
             style="fill:#404040;"/>
          </a>
         </g>
        </svg>
</svg>
