<?xml version="1.0" encoding="UTF-8" standalone="no"?>
<!DOCTYPE svg PUBLIC "-//W3C//DTD SVG 1.1//EN"
 "http://www.w3.org/Graphics/SVG/1.1/DTD/svg11.dtd">
<!-- Generated by graphviz version 2.38.0 (20140413.2041)
 -->
<!-- Title: txTimeHHMM Pages: 1 -->
<svg width="1158pt" height="469pt"
 viewBox="0.00 0.00 1158.00 468.81" xmlns="http://www.w3.org/2000/svg" xmlns:xlink="http://www.w3.org/1999/xlink">
<g id="graph0" class="graph" transform="scale(1 1) rotate(0) translate(4 464.808)">
<title>txTimeHHMM</title>
<polygon fill="white" stroke="none" points="-4,4 -4,-464.808 1154,-464.808 1154,4 -4,4"/>
<!-- Node1 -->
<g id="node1" class="node"><title>Node1</title>
<polygon fill="#bfbfbf" stroke="black" points="0,-209.5 0,-228.5 78,-228.5 78,-209.5 0,-209.5"/>
<text text-anchor="middle" x="39" y="-216.5" font-family="Helvetica,sans-Serif" font-size="10.00">txTimeHHMM</text>
</g>
<!-- Node2 -->
<g id="node2" class="node"><title>Node2</title>
<g id="a_node2"><a xlink:href="libmorse_8cpp.html#a0ee2308940264ea9ac8e50afc1a4d285" target="_top" xlink:title="txString">
<polygon fill="white" stroke="black" points="114,-209.5 114,-228.5 164,-228.5 164,-209.5 114,-209.5"/>
<text text-anchor="middle" x="139" y="-216.5" font-family="Helvetica,sans-Serif" font-size="10.00">txString</text>
</a>
</g>
</g>
<!-- Node1&#45;&gt;Node2 -->
<g id="edge1" class="edge"><title>Node1&#45;&gt;Node2</title>
<path fill="none" stroke="midnightblue" d="M78.17,-219C86.6346,-219 95.5531,-219 103.845,-219"/>
<polygon fill="midnightblue" stroke="midnightblue" points="103.932,-222.5 113.932,-219 103.932,-215.5 103.932,-222.5"/>
</g>
<!-- Node3 -->
<g id="node3" class="node"><title>Node3</title>
<g id="a_node3"><a xlink:href="teensy3__morse__bsp_8cpp.html#ab306f692c5c9455a0c82782a67ff0147" target="_top" xlink:title="touchPoll">
<polygon fill="white" stroke="black" points="546,-399.5 546,-418.5 603,-418.5 603,-399.5 546,-399.5"/>
<text text-anchor="middle" x="574.5" y="-406.5" font-family="Helvetica,sans-Serif" font-size="10.00">touchPoll</text>
</a>
</g>
</g>
<!-- Node2&#45;&gt;Node3 -->
<g id="edge2" class="edge"><title>Node2&#45;&gt;Node3</title>
<path fill="none" stroke="midnightblue" d="M139.512,-228.838C138.48,-261.634 140.059,-367.878 200,-416 300.262,-496.493 469.23,-448.118 540.361,-422.197"/>
<polygon fill="midnightblue" stroke="midnightblue" points="541.981,-425.328 550.126,-418.553 539.533,-418.77 541.981,-425.328"/>
</g>
<!-- Node5 -->
<g id="node5" class="node"><title>Node5</title>
<g id="a_node5"><a xlink:href="settings_8cpp.html#a960551e90dfdad18f3c9b1338ccba7db" target="_top" xlink:title="Get the dit duration in microseconds. ">
<polygon fill="white" stroke="black" points="787.5,-323.5 787.5,-342.5 859.5,-342.5 859.5,-323.5 787.5,-323.5"/>
<text text-anchor="middle" x="823.5" y="-330.5" font-family="Helvetica,sans-Serif" font-size="10.00">getDitMicros</text>
</a>
</g>
</g>
<!-- Node2&#45;&gt;Node5 -->
<g id="edge4" class="edge"><title>Node2&#45;&gt;Node5</title>
<path fill="none" stroke="midnightblue" d="M141.103,-228.782C144.528,-254.08 157.45,-321.792 200,-352 278.581,-407.788 319.629,-371 416,-371 416,-371 416,-371 575.5,-371 646.587,-371 727.858,-355.434 777.157,-344.227"/>
<polygon fill="midnightblue" stroke="midnightblue" points="778.223,-347.573 787.177,-341.909 776.645,-340.753 778.223,-347.573"/>
</g>
<!-- Node6 -->
<g id="node6" class="node"><title>Node6</title>
<g id="a_node6"><a xlink:href="libmorse_8cpp.html#a9fdfce728595d72b78dc7c834ab99a40" target="_top" xlink:title="Transmit a literal Morse code value. ">
<polygon fill="white" stroke="black" points="678.5,-171.5 678.5,-190.5 729.5,-190.5 729.5,-171.5 678.5,-171.5"/>
<text text-anchor="middle" x="704" y="-178.5" font-family="Helvetica,sans-Serif" font-size="10.00">txLiteral</text>
</a>
</g>
</g>
<!-- Node2&#45;&gt;Node6 -->
<g id="edge5" class="edge"><title>Node2&#45;&gt;Node6</title>
<path fill="none" stroke="midnightblue" d="M164.191,-217.367C253.317,-211.352 563.582,-190.41 668.228,-183.347"/>
<polygon fill="midnightblue" stroke="midnightblue" points="668.523,-186.835 678.265,-182.67 668.052,-179.851 668.523,-186.835"/>
</g>
<!-- Node16 -->
<g id="node16" class="node"><title>Node16</title>
<g id="a_node16"><a xlink:href="libmorse_8cpp.html#acd4b292f5e412ee4f05aed9dafbc072d" target="_top" xlink:title="Convert an ASCII character into Morse code and transmit it. ">
<polygon fill="white" stroke="black" points="549.5,-133.5 549.5,-152.5 599.5,-152.5 599.5,-133.5 549.5,-133.5"/>
<text text-anchor="middle" x="574.5" y="-140.5" font-family="Helvetica,sans-Serif" font-size="10.00">txLetter</text>
</a>
</g>
</g>
<!-- Node2&#45;&gt;Node16 -->
<g id="edge17" class="edge"><title>Node2&#45;&gt;Node16</title>
<path fill="none" stroke="midnightblue" d="M147.694,-209.213C158.065,-196.852 177.808,-176.099 200,-167 316.702,-119.148 471.171,-130.066 539.033,-138.14"/>
<polygon fill="midnightblue" stroke="midnightblue" points="538.806,-141.639 549.162,-139.403 539.671,-134.693 538.806,-141.639"/>
</g>
<!-- Node17 -->
<g id="node17" class="node"><title>Node17</title>
<g id="a_node17"><a xlink:href="teensy3__morse__bsp_8cpp.html#a8761e874366e227690fba2964e1bc445" target="_top" xlink:title="getInternalTemperatureC">
<polygon fill="white" stroke="black" points="354.5,-228.5 354.5,-247.5 479.5,-247.5 479.5,-228.5 354.5,-228.5"/>
<text text-anchor="middle" x="417" y="-235.5" font-family="Helvetica,sans-Serif" font-size="10.00">getInternalTemperatureC</text>
</a>
</g>
</g>
<!-- Node2&#45;&gt;Node17 -->
<g id="edge20" class="edge"><title>Node2&#45;&gt;Node17</title>
<path fill="none" stroke="midnightblue" d="M164.01,-220.653C203.745,-223.388 284.691,-228.961 344.162,-233.055"/>
<polygon fill="midnightblue" stroke="midnightblue" points="344.039,-236.554 354.256,-233.749 344.52,-229.571 344.039,-236.554"/>
</g>
<!-- Node18 -->
<g id="node18" class="node"><title>Node18</title>
<g id="a_node18"><a xlink:href="libmorse_8cpp.html#a47abdd74b66d7180c47d192bab8bdccb" target="_top" xlink:title="Transmit an unsigned integer in Morse code. ">
<polygon fill="white" stroke="black" points="384,-285.5 384,-304.5 450,-304.5 450,-285.5 384,-285.5"/>
<text text-anchor="middle" x="417" y="-292.5" font-family="Helvetica,sans-Serif" font-size="10.00">txUnsigned</text>
</a>
</g>
</g>
<!-- Node2&#45;&gt;Node18 -->
<g id="edge21" class="edge"><title>Node2&#45;&gt;Node18</title>
<path fill="none" stroke="midnightblue" d="M146.823,-228.721C156.786,-242.035 176.687,-265.484 200,-276 256.19,-301.346 328.869,-302.041 373.955,-299.251"/>
<polygon fill="midnightblue" stroke="midnightblue" points="374.239,-302.74 383.968,-298.545 373.747,-295.757 374.239,-302.74"/>
</g>
<!-- Node19 -->
<g id="node19" class="node"><title>Node19</title>
<g id="a_node19"><a xlink:href="actions_8cpp.html#aed718ec1bd4cc7adb2f65d40a6784496" target="_top" xlink:title="Transmit the internal temperature in integer in Fahrenheit. ">
<polygon fill="white" stroke="black" points="200,-247.5 200,-266.5 318,-266.5 318,-247.5 200,-247.5"/>
<text text-anchor="middle" x="259" y="-254.5" font-family="Helvetica,sans-Serif" font-size="10.00">txInternalTemperatureF</text>
</a>
</g>
</g>
<!-- Node2&#45;&gt;Node19 -->
<g id="edge24" class="edge"><title>Node2&#45;&gt;Node19</title>
<path fill="none" stroke="midnightblue" d="M164.164,-226.782C179.866,-231.838 200.696,-238.546 218.742,-244.358"/>
<polygon fill="midnightblue" stroke="midnightblue" points="217.839,-247.744 228.431,-247.478 219.985,-241.081 217.839,-247.744"/>
</g>
<!-- Node20 -->
<g id="node20" class="node"><title>Node20</title>
<g id="a_node20"><a xlink:href="actions_8cpp.html#aaabb3ac0c23f35a499bc17efe829f326" target="_top" xlink:title="Transmit the 24&#45;hr time. ">
<polygon fill="white" stroke="black" points="220,-57.5 220,-76.5 298,-76.5 298,-57.5 220,-57.5"/>
<text text-anchor="middle" x="259" y="-64.5" font-family="Helvetica,sans-Serif" font-size="10.00">txTimeHHMM</text>
</a>
</g>
</g>
<!-- Node2&#45;&gt;Node20 -->
<g id="edge27" class="edge"><title>Node2&#45;&gt;Node20</title>
<path fill="none" stroke="midnightblue" d="M141.188,-209.338C145.457,-183.957 161.84,-118.444 200,-82 203.28,-78.8671 207.027,-76.1185 211.003,-73.7508"/>
<polygon fill="midnightblue" stroke="midnightblue" points="212.658,-76.8353 219.977,-69.1743 209.478,-70.5993 212.658,-76.8353"/>
</g>
<!-- Node21 -->
<g id="node21" class="node"><title>Node21</title>
<g id="a_node21"><a xlink:href="actions_8cpp.html#ad02149679fa3cc6a4957d1a318408ffd" target="_top" xlink:title="Transmit the uptime. ">
<polygon fill="white" stroke="black" points="231,-323.5 231,-342.5 287,-342.5 287,-323.5 231,-323.5"/>
<text text-anchor="middle" x="259" y="-330.5" font-family="Helvetica,sans-Serif" font-size="10.00">txUptime</text>
</a>
</g>
</g>
<!-- Node2&#45;&gt;Node21 -->
<g id="edge29" class="edge"><title>Node2&#45;&gt;Node21</title>
<path fill="none" stroke="midnightblue" d="M144.151,-228.772C152.318,-246.934 172.137,-286.117 200,-309 206.277,-314.155 213.815,-318.342 221.348,-321.689"/>
<polygon fill="midnightblue" stroke="midnightblue" points="220.208,-325.003 230.791,-325.488 222.82,-318.508 220.208,-325.003"/>
</g>
<!-- Node23 -->
<g id="node23" class="node"><title>Node23</title>
<g id="a_node23"><a xlink:href="teensy3__morse__bsp_8cpp.html#ae8dd28759e56dbd2ee9bc9ae96d1783c" target="_top" xlink:title="Return the most recent ADC measurement of the input voltage. Perform analog to digital conversion on ...">
<polygon fill="white" stroke="black" points="222,-19.5 222,-38.5 296,-38.5 296,-19.5 222,-19.5"/>
<text text-anchor="middle" x="259" y="-26.5" font-family="Helvetica,sans-Serif" font-size="10.00">readMillivolts</text>
</a>
</g>
</g>
<!-- Node2&#45;&gt;Node23 -->
<g id="edge32" class="edge"><title>Node2&#45;&gt;Node23</title>
<path fill="none" stroke="midnightblue" d="M140.514,-209.312C142.566,-180.496 152.571,-94.4483 200,-48 203.551,-44.5225 207.748,-41.6814 212.235,-39.3603"/>
<polygon fill="midnightblue" stroke="midnightblue" points="213.924,-42.4442 221.738,-35.289 211.168,-36.0098 213.924,-42.4442"/>
</g>
<!-- Node27 -->
<g id="node27" class="node"><title>Node27</title>
<g id="a_node27"><a xlink:href="libmorse_8cpp.html#ac3f000c98271c6d0a7710135e18189bc" target="_top" xlink:title="On my hardware there is cross&#45;coupling between the serial port and the touch sensors. Without the code below, long messages to the serial port trigger a touch input. ">
<polygon fill="white" stroke="black" points="384.5,-399.5 384.5,-418.5 449.5,-418.5 449.5,-399.5 384.5,-399.5"/>
<text text-anchor="middle" x="417" y="-406.5" font-family="Helvetica,sans-Serif" font-size="10.00">flushTouch</text>
</a>
</g>
</g>
<!-- Node2&#45;&gt;Node27 -->
<g id="edge36" class="edge"><title>Node2&#45;&gt;Node27</title>
<path fill="none" stroke="midnightblue" d="M140.202,-228.875C141.384,-258.162 149.211,-344.984 200,-385 249.7,-424.158 326.973,-422.313 374.369,-416.381"/>
<polygon fill="midnightblue" stroke="midnightblue" points="374.863,-419.846 384.297,-415.023 373.915,-412.91 374.863,-419.846"/>
</g>
<!-- Node4 -->
<g id="node4" class="node"><title>Node4</title>
<g id="a_node4"><a xlink:href="teensy3__morse__bsp_8cpp.html#af6899cd9b83df54106b259ab81ea5cb2" target="_top" xlink:title="touchMargin">
<polygon fill="white" stroke="black" points="669,-399.5 669,-418.5 739,-418.5 739,-399.5 669,-399.5"/>
<text text-anchor="middle" x="704" y="-406.5" font-family="Helvetica,sans-Serif" font-size="10.00">touchMargin</text>
</a>
</g>
</g>
<!-- Node3&#45;&gt;Node4 -->
<g id="edge3" class="edge"><title>Node3&#45;&gt;Node4</title>
<path fill="none" stroke="midnightblue" d="M603.166,-409C619.281,-409 639.984,-409 658.355,-409"/>
<polygon fill="midnightblue" stroke="midnightblue" points="658.562,-412.5 668.562,-409 658.562,-405.5 658.562,-412.5"/>
</g>
<!-- Node6&#45;&gt;Node5 -->
<g id="edge14" class="edge"><title>Node6&#45;&gt;Node5</title>
<path fill="none" stroke="midnightblue" d="M712.35,-190.508C731.638,-215.46 783.93,-283.106 808.888,-315.392"/>
<polygon fill="midnightblue" stroke="midnightblue" points="806.268,-317.724 815.153,-323.495 811.806,-313.443 806.268,-317.724"/>
</g>
<!-- Node7 -->
<g id="node7" class="node"><title>Node7</title>
<g id="a_node7"><a xlink:href="class_morse_token.html#a48cd72aeb868391449d1f51c1d0bf5cc" target="_top" xlink:title="Treat code == 0 as the error token. ">
<polygon fill="white" stroke="black" points="775,-152.5 775,-171.5 872,-171.5 872,-152.5 775,-152.5"/>
<text text-anchor="middle" x="823.5" y="-159.5" font-family="Helvetica,sans-Serif" font-size="10.00">MorseToken::valid</text>
</a>
</g>
</g>
<!-- Node6&#45;&gt;Node7 -->
<g id="edge6" class="edge"><title>Node6&#45;&gt;Node7</title>
<path fill="none" stroke="midnightblue" d="M729.632,-177.017C739.933,-175.351 752.376,-173.339 764.759,-171.337"/>
<polygon fill="midnightblue" stroke="midnightblue" points="765.322,-174.791 774.635,-169.74 764.205,-167.881 765.322,-174.791"/>
</g>
<!-- Node8 -->
<g id="node8" class="node"><title>Node8</title>
<g id="a_node8"><a xlink:href="teensy3__morse__bsp_8cpp.html#af66e71e3fac9b6a2c6532bc8a513bfde" target="_top" xlink:title="Output a square wave on pin 10 at the given frequency for the given duration. ">
<polygon fill="white" stroke="black" points="804.5,-228.5 804.5,-247.5 842.5,-247.5 842.5,-228.5 804.5,-228.5"/>
<text text-anchor="middle" x="823.5" y="-235.5" font-family="Helvetica,sans-Serif" font-size="10.00">beep</text>
</a>
</g>
</g>
<!-- Node6&#45;&gt;Node8 -->
<g id="edge7" class="edge"><title>Node6&#45;&gt;Node8</title>
<path fill="none" stroke="midnightblue" d="M721.408,-190.616C735.419,-198.654 756.224,-210.185 775,-219 781.226,-221.923 788.031,-224.816 794.496,-227.43"/>
<polygon fill="midnightblue" stroke="midnightblue" points="793.656,-230.861 804.243,-231.272 796.223,-224.348 793.656,-230.861"/>
</g>
<!-- Node14 -->
<g id="node14" class="node"><title>Node14</title>
<g id="a_node14"><a xlink:href="settings_8cpp.html#a8575b9b52638114a4f32d1462cf9b7c1" target="_top" xlink:title="Get the transmission frequency (side tone). ">
<polygon fill="white" stroke="black" points="796.5,-190.5 796.5,-209.5 850.5,-209.5 850.5,-190.5 796.5,-190.5"/>
<text text-anchor="middle" x="823.5" y="-197.5" font-family="Helvetica,sans-Serif" font-size="10.00">getTxHz</text>
</a>
</g>
</g>
<!-- Node6&#45;&gt;Node14 -->
<g id="edge13" class="edge"><title>Node6&#45;&gt;Node14</title>
<path fill="none" stroke="midnightblue" d="M729.632,-184.983C746.022,-187.633 767.833,-191.16 786.199,-194.13"/>
<polygon fill="midnightblue" stroke="midnightblue" points="785.838,-197.617 796.269,-195.758 786.956,-190.707 785.838,-197.617"/>
</g>
<!-- Node15 -->
<g id="node15" class="node"><title>Node15</title>
<g id="a_node15"><a xlink:href="libmorse_8cpp.html#ab94e088615119d1faae7df22ce50aedf" target="_top" xlink:title="Transmit a Morse code prosign indicating an error. ">
<polygon fill="white" stroke="black" points="800.5,-114.5 800.5,-133.5 846.5,-133.5 846.5,-114.5 800.5,-114.5"/>
<text text-anchor="middle" x="823.5" y="-121.5" font-family="Helvetica,sans-Serif" font-size="10.00">txError</text>
</a>
</g>
</g>
<!-- Node6&#45;&gt;Node15 -->
<g id="edge15" class="edge"><title>Node6&#45;&gt;Node15</title>
<path fill="none" stroke="midnightblue" d="M721.408,-171.384C735.419,-163.346 756.224,-151.815 775,-143 780.025,-140.641 785.427,-138.301 790.724,-136.112"/>
<polygon fill="midnightblue" stroke="midnightblue" points="792.068,-139.344 800.038,-132.363 789.454,-132.85 792.068,-139.344"/>
</g>
<!-- Node9 -->
<g id="node9" class="node"><title>Node9</title>
<g id="a_node9"><a xlink:href="teensy3__morse__bsp_8cpp.html#a6f674d5b9985ea3a7eeb0df299c2e405" target="_top" xlink:title="pollEarphonePresent">
<polygon fill="white" stroke="black" points="908,-285.5 908,-304.5 1015,-304.5 1015,-285.5 908,-285.5"/>
<text text-anchor="middle" x="961.5" y="-292.5" font-family="Helvetica,sans-Serif" font-size="10.00">pollEarphonePresent</text>
</a>
</g>
</g>
<!-- Node8&#45;&gt;Node9 -->
<g id="edge8" class="edge"><title>Node8&#45;&gt;Node9</title>
<path fill="none" stroke="midnightblue" d="M842.561,-246.725C859.352,-254.715 885.14,-266.679 908,-276 912.868,-277.985 918.03,-279.981 923.142,-281.896"/>
<polygon fill="midnightblue" stroke="midnightblue" points="922.229,-285.289 932.823,-285.451 924.642,-278.718 922.229,-285.289"/>
</g>
<!-- Node10 -->
<g id="node10" class="node"><title>Node10</title>
<g id="a_node10"><a xlink:href="teensy3__morse__bsp_8cpp.html#a2d6b4ace33ed5e497dedd03217540c63" target="_top" xlink:title="Set the PWM frequency for the audio output pins. ">
<polygon fill="white" stroke="black" points="920,-247.5 920,-266.5 1003,-266.5 1003,-247.5 920,-247.5"/>
<text text-anchor="middle" x="961.5" y="-254.5" font-family="Helvetica,sans-Serif" font-size="10.00">pwmFrequency</text>
</a>
</g>
</g>
<!-- Node8&#45;&gt;Node10 -->
<g id="edge9" class="edge"><title>Node8&#45;&gt;Node10</title>
<path fill="none" stroke="midnightblue" d="M842.56,-240.523C859.617,-242.906 886.017,-246.594 909.519,-249.878"/>
<polygon fill="midnightblue" stroke="midnightblue" points="909.334,-253.386 919.722,-251.303 910.303,-246.453 909.334,-253.386"/>
</g>
<!-- Node11 -->
<g id="node11" class="node"><title>Node11</title>
<g id="a_node11"><a xlink:href="teensy3__morse__bsp_8cpp.html#a82911eac3bf13d6f36d10102a4c4d3c4" target="_top" xlink:title="Generate a tone on the audio output pins. ">
<polygon fill="white" stroke="black" points="931,-209.5 931,-228.5 992,-228.5 992,-209.5 931,-209.5"/>
<text text-anchor="middle" x="961.5" y="-216.5" font-family="Helvetica,sans-Serif" font-size="10.00">pwmWrite</text>
</a>
</g>
</g>
<!-- Node8&#45;&gt;Node11 -->
<g id="edge10" class="edge"><title>Node8&#45;&gt;Node11</title>
<path fill="none" stroke="midnightblue" d="M842.56,-235.477C862.462,-232.697 895.083,-228.139 920.979,-224.521"/>
<polygon fill="midnightblue" stroke="midnightblue" points="921.471,-227.987 930.89,-223.137 920.502,-221.054 921.471,-227.987"/>
</g>
<!-- Node13 -->
<g id="node13" class="node"><title>Node13</title>
<g id="a_node13"><a xlink:href="teensy3__morse__bsp_8cpp.html#a6c982a7d7805f1dd5426eb98c915cfdd" target="_top" xlink:title="Turn the red LED on (1) or off (0). ">
<polygon fill="white" stroke="black" points="936.5,-171.5 936.5,-190.5 986.5,-190.5 986.5,-171.5 936.5,-171.5"/>
<text text-anchor="middle" x="961.5" y="-178.5" font-family="Helvetica,sans-Serif" font-size="10.00">redLED</text>
</a>
</g>
</g>
<!-- Node8&#45;&gt;Node13 -->
<g id="edge12" class="edge"><title>Node8&#45;&gt;Node13</title>
<path fill="none" stroke="midnightblue" d="M842.734,-231.223C851.652,-227.779 862.487,-223.398 872,-219 888.422,-211.408 891.454,-207.318 908,-200 913.992,-197.35 920.48,-194.774 926.784,-192.419"/>
<polygon fill="midnightblue" stroke="midnightblue" points="928.232,-195.617 936.442,-188.92 925.847,-189.036 928.232,-195.617"/>
</g>
<!-- Node12 -->
<g id="node12" class="node"><title>Node12</title>
<g id="a_node12"><a xlink:href="teensy3__morse__bsp_8cpp.html#ac70998cee1bf97f00aec4a1b4e5a4f60" target="_top" xlink:title="isEarphonePresent">
<polygon fill="white" stroke="black" points="1051,-209.5 1051,-228.5 1150,-228.5 1150,-209.5 1051,-209.5"/>
<text text-anchor="middle" x="1100.5" y="-216.5" font-family="Helvetica,sans-Serif" font-size="10.00">isEarphonePresent</text>
</a>
</g>
</g>
<!-- Node11&#45;&gt;Node12 -->
<g id="edge11" class="edge"><title>Node11&#45;&gt;Node12</title>
<path fill="none" stroke="midnightblue" d="M992.227,-219C1006.43,-219 1023.96,-219 1040.7,-219"/>
<polygon fill="midnightblue" stroke="midnightblue" points="1040.98,-222.5 1050.98,-219 1040.98,-215.5 1040.98,-222.5"/>
</g>
<!-- Node15&#45;&gt;Node2 -->
<g id="edge16" class="edge"><title>Node15&#45;&gt;Node2</title>
<path fill="none" stroke="midnightblue" d="M800.403,-121.156C757.252,-115.855 658.722,-105 575.5,-105 416,-105 416,-105 416,-105 319.139,-105 282.839,-83.8021 200,-134 174.611,-149.385 157.092,-180.05 147.802,-200.034"/>
<polygon fill="midnightblue" stroke="midnightblue" points="144.516,-198.81 143.696,-209.373 150.924,-201.627 144.516,-198.81"/>
</g>
<!-- Node16&#45;&gt;Node6 -->
<g id="edge18" class="edge"><title>Node16&#45;&gt;Node6</title>
<path fill="none" stroke="midnightblue" d="M599.782,-150.237C619.242,-156.037 646.793,-164.248 668.536,-170.728"/>
<polygon fill="midnightblue" stroke="midnightblue" points="667.791,-174.158 678.374,-173.661 669.791,-167.45 667.791,-174.158"/>
</g>
<!-- Node16&#45;&gt;Node15 -->
<g id="edge19" class="edge"><title>Node16&#45;&gt;Node15</title>
<path fill="none" stroke="midnightblue" d="M599.633,-141.144C644.398,-137.7 740.294,-130.324 790.444,-126.466"/>
<polygon fill="midnightblue" stroke="midnightblue" points="790.715,-129.955 800.417,-125.699 790.178,-122.976 790.715,-129.955"/>
</g>
<!-- Node18&#45;&gt;Node3 -->
<g id="edge22" class="edge"><title>Node18&#45;&gt;Node3</title>
<path fill="none" stroke="midnightblue" d="M450.192,-301.601C460.19,-304.491 470.953,-308.511 480,-314 513.757,-334.482 544.051,-369.863 560.502,-391.184"/>
<polygon fill="midnightblue" stroke="midnightblue" points="557.862,-393.496 566.675,-399.376 563.453,-389.283 557.862,-393.496"/>
</g>
<!-- Node18&#45;&gt;Node16 -->
<g id="edge23" class="edge"><title>Node18&#45;&gt;Node16</title>
<path fill="none" stroke="midnightblue" d="M437.284,-285.367C450.122,-278.448 466.961,-268.364 480,-257 513.73,-227.603 544.99,-185.202 561.427,-161.26"/>
<polygon fill="midnightblue" stroke="midnightblue" points="564.461,-163.021 567.16,-152.776 558.661,-159.102 564.461,-163.021"/>
</g>
<!-- Node19&#45;&gt;Node17 -->
<g id="edge25" class="edge"><title>Node19&#45;&gt;Node17</title>
<path fill="none" stroke="midnightblue" d="M318.089,-249.925C326.711,-248.875 335.682,-247.782 344.54,-246.704"/>
<polygon fill="midnightblue" stroke="midnightblue" points="344.964,-250.178 354.467,-245.494 344.117,-243.229 344.964,-250.178"/>
</g>
<!-- Node19&#45;&gt;Node18 -->
<g id="edge26" class="edge"><title>Node19&#45;&gt;Node18</title>
<path fill="none" stroke="midnightblue" d="M299.365,-266.589C322.167,-272.143 350.861,-279.133 374.083,-284.789"/>
<polygon fill="midnightblue" stroke="midnightblue" points="373.451,-288.238 383.996,-287.204 375.108,-281.437 373.451,-288.238"/>
</g>
<!-- Node20&#45;&gt;Node2 -->
<g id="edge28" class="edge"><title>Node20&#45;&gt;Node2</title>
<path fill="none" stroke="midnightblue" d="M244.483,-76.5146C231.627,-81.7533 212.452,-88.1082 200,-100 170.648,-128.032 154.18,-173.263 146.199,-199.347"/>
<polygon fill="midnightblue" stroke="midnightblue" points="142.751,-198.667 143.285,-209.248 149.466,-200.643 142.751,-198.667"/>
</g>
<!-- Node21&#45;&gt;Node18 -->
<g id="edge31" class="edge"><title>Node21&#45;&gt;Node18</title>
<path fill="none" stroke="midnightblue" d="M287.173,-326.381C311.119,-320.548 346.386,-311.957 373.968,-305.238"/>
<polygon fill="midnightblue" stroke="midnightblue" points="374.86,-308.624 383.748,-302.856 373.203,-301.823 374.86,-308.624"/>
</g>
<!-- Node22 -->
<g id="node22" class="node"><title>Node22</title>
<g id="a_node22"><a xlink:href="settings_8cpp.html#a7b4efa097b94f9a90c5bbafcdf93fe4f" target="_top" xlink:title="getUptime">
<polygon fill="white" stroke="black" points="386,-323.5 386,-342.5 448,-342.5 448,-323.5 386,-323.5"/>
<text text-anchor="middle" x="417" y="-330.5" font-family="Helvetica,sans-Serif" font-size="10.00">getUptime</text>
</a>
</g>
</g>
<!-- Node21&#45;&gt;Node22 -->
<g id="edge30" class="edge"><title>Node21&#45;&gt;Node22</title>
<path fill="none" stroke="midnightblue" d="M287.173,-333C311.633,-333 347.905,-333 375.735,-333"/>
<polygon fill="midnightblue" stroke="midnightblue" points="375.945,-336.5 385.945,-333 375.945,-329.5 375.945,-336.5"/>
</g>
<!-- Node24 -->
<g id="node24" class="node"><title>Node24</title>
<g id="a_node24"><a xlink:href="class_voltage_monitor.html#a70902b84f9864c95d5553a0644a64f4f" target="_top" xlink:title="Return the latest voltage reading. ">
<polygon fill="white" stroke="black" points="354,-19.5 354,-38.5 480,-38.5 480,-19.5 354,-19.5"/>
<text text-anchor="middle" x="417" y="-26.5" font-family="Helvetica,sans-Serif" font-size="10.00">VoltageMonitor::getValue</text>
</a>
</g>
</g>
<!-- Node23&#45;&gt;Node24 -->
<g id="edge33" class="edge"><title>Node23&#45;&gt;Node24</title>
<path fill="none" stroke="midnightblue" d="M296.182,-29C310.344,-29 327.117,-29 343.56,-29"/>
<polygon fill="midnightblue" stroke="midnightblue" points="343.728,-32.5001 353.728,-29 343.728,-25.5001 343.728,-32.5001"/>
</g>
<!-- Node25 -->
<g id="node25" class="node"><title>Node25</title>
<g id="a_node25"><a xlink:href="actions_8cpp.html#a2b8c3769e2aa32a2da9e2f3f85ac73dd" target="_top" xlink:title="A sample ADC reading is taken each time through the main loop, and written to a ring buffer...">
<polygon fill="white" stroke="black" points="518.5,-38.5 518.5,-57.5 630.5,-57.5 630.5,-38.5 518.5,-38.5"/>
<text text-anchor="middle" x="574.5" y="-45.5" font-family="Helvetica,sans-Serif" font-size="10.00">getVoltagePollInterval</text>
</a>
</g>
</g>
<!-- Node24&#45;&gt;Node25 -->
<g id="edge34" class="edge"><title>Node24&#45;&gt;Node25</title>
<path fill="none" stroke="midnightblue" d="M480.352,-36.6185C489.438,-37.7287 498.816,-38.8746 507.963,-39.9922"/>
<polygon fill="midnightblue" stroke="midnightblue" points="507.813,-43.4998 518.163,-41.2386 508.662,-36.5515 507.813,-43.4998"/>
</g>
<!-- Node26 -->
<g id="node26" class="node"><title>Node26</title>
<g id="a_node26"><a xlink:href="class_voltage_monitor.html#a75871331808c34b40d04059ee2af0f27" target="_top" xlink:title="Filter and scale raw ADC values to millivolts. ">
<polygon fill="white" stroke="black" points="516,-0.5 516,-19.5 633,-19.5 633,-0.5 516,-0.5"/>
<text text-anchor="middle" x="574.5" y="-7.5" font-family="Helvetica,sans-Serif" font-size="10.00">VoltageMonitor::update</text>
</a>
</g>
</g>
<!-- Node24&#45;&gt;Node26 -->
<g id="edge35" class="edge"><title>Node24&#45;&gt;Node26</title>
<path fill="none" stroke="midnightblue" d="M480.352,-21.3815C488.702,-20.3612 497.298,-19.3108 505.735,-18.2799"/>
<polygon fill="midnightblue" stroke="midnightblue" points="506.419,-21.7226 515.92,-17.0355 505.57,-14.7742 506.419,-21.7226"/>
</g>
<!-- Node27&#45;&gt;Node3 -->
<g id="edge37" class="edge"><title>Node27&#45;&gt;Node3</title>
<path fill="none" stroke="midnightblue" d="M449.843,-409C474.677,-409 509.247,-409 535.522,-409"/>
<polygon fill="midnightblue" stroke="midnightblue" points="535.864,-412.5 545.864,-409 535.863,-405.5 535.864,-412.5"/>
</g>
</g>
</svg>
