<?xml version="1.0" encoding="UTF-8" standalone="no"?>
<!DOCTYPE svg PUBLIC "-//W3C//DTD SVG 1.1//EN"
 "http://www.w3.org/Graphics/SVG/1.1/DTD/svg11.dtd">
<!-- Generated by graphviz version 2.38.0 (20140413.2041)
 -->
<!-- Title: txAlphabetSong Pages: 1 -->
<!--zoomable 626 -->
<svg id="main" version="1.1" xmlns="http://www.w3.org/2000/svg" xmlns:xlink="http://www.w3.org/1999/xlink" xml:space="preserve" onload="init(evt)">
<style type="text/css"><![CDATA[
.edge:hover path { stroke: red; }
.edge:hover polygon { stroke: red; fill: red; }
]]></style>
<script type="text/javascript"><![CDATA[
var edges = document.getElementsByTagName('g');
if (edges && edges.length) {
  for (var i=0;i<edges.length;i++) {
    if (edges[i].id.substr(0,4)=='edge') {
      edges[i].setAttribute('class','edge');
    }
  }
}
]]></script>
        <defs>
                <circle id="rim" cx="0" cy="0" r="7"/>
                <circle id="rim2" cx="0" cy="0" r="3.5"/>
                <g id="zoomPlus">
                        <use xlink:href="#rim" fill="#404040">
                                <set attributeName="fill" to="#808080" begin="zoomplus.mouseover" end="zoomplus.mouseout"/>
                        </use>
                        <path d="M-4,0h8M0,-4v8" fill="none" stroke="white" stroke-width="1.5" pointer-events="none"/>
                </g>
                <g id="zoomMin">
                        <use xlink:href="#rim" fill="#404040">
                                <set attributeName="fill" to="#808080" begin="zoomminus.mouseover" end="zoomminus.mouseout"/>
                        </use>
                        <path d="M-4,0h8" fill="none" stroke="white" stroke-width="1.5" pointer-events="none"/>
                </g>
                <g id="dirArrow">
                        <path fill="none" stroke="white" stroke-width="1.5" d="M0,-3.0v7 M-2.5,-0.5L0,-3.0L2.5,-0.5"/>
                </g>
               <g id="resetDef">
                       <use xlink:href="#rim2" fill="#404040">
                               <set attributeName="fill" to="#808080" begin="reset.mouseover" end="reset.mouseout"/>
                       </use>
               </g>
        </defs>

<script type="text/javascript">
var viewWidth = 1212;
var viewHeight = 626;
var sectionId = 'dynsection-23';
</script>
<script xlink:href="svgpan.js"/>
<svg id="graph" class="graph">
<g id="viewport">
<title>txAlphabetSong</title>
<polygon fill="white" stroke="none" points="-4,4 -4,-622 1208,-622 1208,4 -4,4"/>
<!-- Node1 -->
<g id="node1" class="node"><title>Node1</title>
<polygon fill="#bfbfbf" stroke="black" points="0,-285.5 0,-304.5 86,-304.5 86,-285.5 0,-285.5"/>
<text text-anchor="middle" x="43" y="-292.5" font-family="Helvetica,sans-Serif" font-size="10.00">txAlphabetSong</text>
</g>
<!-- Node2 -->
<g id="node2" class="node"><title>Node2</title>
<g id="a_node2"><a xlink:href="settings_8cpp.html#a8575b9b52638114a4f32d1462cf9b7c1" target="_top" xlink:title="Get the transmission frequency (side tone). ">
<polygon fill="white" stroke="black" points="850.5,-551.5 850.5,-570.5 904.5,-570.5 904.5,-551.5 850.5,-551.5"/>
<text text-anchor="middle" x="877.5" y="-558.5" font-family="Helvetica,sans-Serif" font-size="10.00">getTxHz</text>
</a>
</g>
</g>
<!-- Node1&#45;&gt;Node2 -->
<g id="edge1" class="edge"><title>Node1&#45;&gt;Node2</title>
<path fill="none" stroke="midnightblue" d="M44.9731,-304.575C48.7868,-337.654 65.4117,-448.757 122,-516 183.713,-589.332 216.157,-618 312,-618 312,-618 312,-618 629.5,-618 707.359,-618 795.569,-590.777 842.639,-573.958"/>
<polygon fill="midnightblue" stroke="midnightblue" points="843.838,-577.247 852.04,-570.541 841.446,-570.668 843.838,-577.247"/>
</g>
<!-- Node3 -->
<g id="node3" class="node"><title>Node3</title>
<g id="a_node3"><a xlink:href="settings_8cpp.html#a960551e90dfdad18f3c9b1338ccba7db" target="_top" xlink:title="Get the dit duration in microseconds. ">
<polygon fill="white" stroke="black" points="841.5,-456.5 841.5,-475.5 913.5,-475.5 913.5,-456.5 841.5,-456.5"/>
<text text-anchor="middle" x="877.5" y="-463.5" font-family="Helvetica,sans-Serif" font-size="10.00">getDitMicros</text>
</a>
</g>
</g>
<!-- Node1&#45;&gt;Node3 -->
<g id="edge2" class="edge"><title>Node1&#45;&gt;Node3</title>
<path fill="none" stroke="midnightblue" d="M47.48,-304.81C65.9463,-354.925 157.484,-580 312,-580 312,-580 312,-580 629.5,-580 721.901,-580 817.332,-513.417 857.194,-482.022"/>
<polygon fill="midnightblue" stroke="midnightblue" points="859.439,-484.708 865.048,-475.72 855.058,-479.248 859.439,-484.708"/>
</g>
<!-- Node4 -->
<g id="node4" class="node"><title>Node4</title>
<g id="a_node4"><a xlink:href="settings_8cpp.html#af33969eee39a5fffb3ceb43a77772dc9" target="_top" xlink:title="Set the transmission frequency (side tone). ">
<polygon fill="white" stroke="black" points="143,-342.5 143,-361.5 197,-361.5 197,-342.5 143,-342.5"/>
<text text-anchor="middle" x="170" y="-349.5" font-family="Helvetica,sans-Serif" font-size="10.00">setTxHz</text>
</a>
</g>
</g>
<!-- Node1&#45;&gt;Node4 -->
<g id="edge3" class="edge"><title>Node1&#45;&gt;Node4</title>
<path fill="none" stroke="midnightblue" d="M62.742,-304.583C78.4359,-312.498 101.495,-323.874 122,-333 126.184,-334.862 130.608,-336.752 135.003,-338.582"/>
<polygon fill="midnightblue" stroke="midnightblue" points="133.89,-341.908 144.471,-342.457 136.542,-335.43 133.89,-341.908"/>
</g>
<!-- Node5 -->
<g id="node5" class="node"><title>Node5</title>
<g id="a_node5"><a xlink:href="settings_8cpp.html#ab053475f1136a97fda0c5cf8db0ca9e0" target="_top" xlink:title="Set the dit duration in microseconds. ">
<polygon fill="white" stroke="black" points="134,-304.5 134,-323.5 206,-323.5 206,-304.5 134,-304.5"/>
<text text-anchor="middle" x="170" y="-311.5" font-family="Helvetica,sans-Serif" font-size="10.00">setDitMicros</text>
</a>
</g>
</g>
<!-- Node1&#45;&gt;Node5 -->
<g id="edge4" class="edge"><title>Node1&#45;&gt;Node5</title>
<path fill="none" stroke="midnightblue" d="M86.3193,-301.433C98.382,-303.266 111.568,-305.27 123.796,-307.129"/>
<polygon fill="midnightblue" stroke="midnightblue" points="123.383,-310.606 133.796,-308.649 124.435,-303.686 123.383,-310.606"/>
</g>
<!-- Node6 -->
<g id="node6" class="node"><title>Node6</title>
<g id="a_node6"><a xlink:href="libmorse_8cpp.html#a0ee2308940264ea9ac8e50afc1a4d285" target="_top" xlink:title="txString">
<polygon fill="white" stroke="black" points="145,-266.5 145,-285.5 195,-285.5 195,-266.5 145,-266.5"/>
<text text-anchor="middle" x="170" y="-273.5" font-family="Helvetica,sans-Serif" font-size="10.00">txString</text>
</a>
</g>
</g>
<!-- Node1&#45;&gt;Node6 -->
<g id="edge5" class="edge"><title>Node1&#45;&gt;Node6</title>
<path fill="none" stroke="midnightblue" d="M86.3193,-288.567C102.202,-286.153 120.033,-283.443 135.059,-281.159"/>
<polygon fill="midnightblue" stroke="midnightblue" points="135.594,-284.618 144.954,-279.655 134.542,-277.698 135.594,-284.618"/>
</g>
<!-- Node30 -->
<g id="node30" class="node"><title>Node30</title>
<g id="a_node30"><a xlink:href="pda_8cpp.html#ab94891bb187b8950df84d7300cad18c5" target="_top" xlink:title="durationDits">
<polygon fill="white" stroke="black" points="135.5,-228.5 135.5,-247.5 204.5,-247.5 204.5,-228.5 135.5,-228.5"/>
<text text-anchor="middle" x="170" y="-235.5" font-family="Helvetica,sans-Serif" font-size="10.00">durationDits</text>
</a>
</g>
</g>
<!-- Node1&#45;&gt;Node30 -->
<g id="edge42" class="edge"><title>Node1&#45;&gt;Node30</title>
<path fill="none" stroke="midnightblue" d="M62.742,-285.417C78.4359,-277.502 101.495,-266.126 122,-257 126.184,-255.138 130.608,-253.248 135.003,-251.418"/>
<polygon fill="midnightblue" stroke="midnightblue" points="136.542,-254.57 144.471,-247.543 133.89,-248.092 136.542,-254.57"/>
</g>
<!-- Node31 -->
<g id="node31" class="node"><title>Node31</title>
<g id="a_node31"><a xlink:href="sound_8cpp.html#a77ffd11f8a990ba2130061186e49535a" target="_top" xlink:title="Play a PWM tone at a given frequency and duration. ">
<polygon fill="white" stroke="black" points="849.5,-209.5 849.5,-228.5 905.5,-228.5 905.5,-209.5 849.5,-209.5"/>
<text text-anchor="middle" x="877.5" y="-216.5" font-family="Helvetica,sans-Serif" font-size="10.00">playTone</text>
</a>
</g>
</g>
<!-- Node1&#45;&gt;Node31 -->
<g id="edge43" class="edge"><title>Node1&#45;&gt;Node31</title>
<path fill="none" stroke="midnightblue" d="M48.4299,-285.317C70.0562,-239.651 169.315,-48 312,-48 312,-48 312,-48 629.5,-48 736.359,-48 830.384,-157.531 863.671,-201.27"/>
<polygon fill="midnightblue" stroke="midnightblue" points="860.887,-203.392 869.67,-209.316 866.499,-199.207 860.887,-203.392"/>
</g>
<!-- Node33 -->
<g id="node33" class="node"><title>Node33</title>
<g id="a_node33"><a xlink:href="pda_8cpp.html#a885fa10d941a54af56e3594f205166a5" target="_top" xlink:title="alphaBravoCharlie">
<polygon fill="white" stroke="black" points="122,-0.5 122,-19.5 218,-19.5 218,-0.5 122,-0.5"/>
<text text-anchor="middle" x="170" y="-7.5" font-family="Helvetica,sans-Serif" font-size="10.00">alphaBravoCharlie</text>
</a>
</g>
</g>
<!-- Node1&#45;&gt;Node33 -->
<g id="edge47" class="edge"><title>Node1&#45;&gt;Node33</title>
<path fill="none" stroke="midnightblue" d="M44.2528,-285.46C45.7108,-248.624 55.56,-113.76 122,-34 124.915,-30.5 128.471,-27.4542 132.309,-24.8183"/>
<polygon fill="midnightblue" stroke="midnightblue" points="134.182,-27.7773 141.02,-19.6851 130.628,-21.7464 134.182,-27.7773"/>
</g>
<!-- Node6&#45;&gt;Node3 -->
<g id="edge8" class="edge"><title>Node6&#45;&gt;Node3</title>
<path fill="none" stroke="midnightblue" d="M195.037,-281.115C203.308,-283.961 211.99,-288.331 218,-295 256.706,-337.945 211.703,-380.587 254,-420 325.81,-486.912 371.847,-466 470,-466 470,-466 470,-466 629.5,-466 699.96,-466 781.727,-466 831.259,-466"/>
<polygon fill="midnightblue" stroke="midnightblue" points="831.323,-469.5 841.323,-466 831.323,-462.5 831.323,-469.5"/>
</g>
<!-- Node7 -->
<g id="node7" class="node"><title>Node7</title>
<g id="a_node7"><a xlink:href="teensy3__morse__bsp_8cpp.html#ab306f692c5c9455a0c82782a67ff0147" target="_top" xlink:title="touchPoll">
<polygon fill="white" stroke="black" points="600,-342.5 600,-361.5 657,-361.5 657,-342.5 600,-342.5"/>
<text text-anchor="middle" x="628.5" y="-349.5" font-family="Helvetica,sans-Serif" font-size="10.00">touchPoll</text>
</a>
</g>
</g>
<!-- Node6&#45;&gt;Node7 -->
<g id="edge6" class="edge"><title>Node6&#45;&gt;Node7</title>
<path fill="none" stroke="midnightblue" d="M195.209,-282.27C203.117,-285.185 211.523,-289.304 218,-295 242.508,-316.551 226.49,-341.441 254,-359 360.296,-426.846 520.586,-387.593 591.531,-364.79"/>
<polygon fill="midnightblue" stroke="midnightblue" points="592.931,-368.014 601.333,-361.56 590.74,-361.366 592.931,-368.014"/>
</g>
<!-- Node9 -->
<g id="node9" class="node"><title>Node9</title>
<g id="a_node9"><a xlink:href="libmorse_8cpp.html#a9fdfce728595d72b78dc7c834ab99a40" target="_top" xlink:title="Transmit a literal Morse code value. ">
<polygon fill="white" stroke="black" points="732.5,-399.5 732.5,-418.5 783.5,-418.5 783.5,-399.5 732.5,-399.5"/>
<text text-anchor="middle" x="758" y="-406.5" font-family="Helvetica,sans-Serif" font-size="10.00">txLiteral</text>
</a>
</g>
</g>
<!-- Node6&#45;&gt;Node9 -->
<g id="edge9" class="edge"><title>Node6&#45;&gt;Node9</title>
<path fill="none" stroke="midnightblue" d="M195.244,-281.547C203.341,-284.42 211.856,-288.698 218,-295 249.81,-327.628 217.584,-363.608 254,-391 327.6,-446.361 621.023,-422.757 722.365,-412.694"/>
<polygon fill="midnightblue" stroke="midnightblue" points="722.787,-416.169 732.384,-411.68 722.083,-409.205 722.787,-416.169"/>
</g>
<!-- Node18 -->
<g id="node18" class="node"><title>Node18</title>
<g id="a_node18"><a xlink:href="libmorse_8cpp.html#acd4b292f5e412ee4f05aed9dafbc072d" target="_top" xlink:title="Convert an ASCII character into Morse code and transmit it. ">
<polygon fill="white" stroke="black" points="603.5,-266.5 603.5,-285.5 653.5,-285.5 653.5,-266.5 603.5,-266.5"/>
<text text-anchor="middle" x="628.5" y="-273.5" font-family="Helvetica,sans-Serif" font-size="10.00">txLetter</text>
</a>
</g>
</g>
<!-- Node6&#45;&gt;Node18 -->
<g id="edge21" class="edge"><title>Node6&#45;&gt;Node18</title>
<path fill="none" stroke="midnightblue" d="M195.094,-269.598C202.994,-266.672 211.423,-262.58 218,-257 241.424,-237.128 227.213,-213.035 254,-198 269.878,-189.088 509.362,-191.078 534,-200 566.578,-211.797 596.14,-240.143 612.951,-258.686"/>
<polygon fill="midnightblue" stroke="midnightblue" points="610.515,-261.215 619.743,-266.42 615.775,-256.597 610.515,-261.215"/>
</g>
<!-- Node19 -->
<g id="node19" class="node"><title>Node19</title>
<g id="a_node19"><a xlink:href="teensy3__morse__bsp_8cpp.html#a8761e874366e227690fba2964e1bc445" target="_top" xlink:title="getInternalTemperatureC">
<polygon fill="white" stroke="black" points="408.5,-209.5 408.5,-228.5 533.5,-228.5 533.5,-209.5 408.5,-209.5"/>
<text text-anchor="middle" x="471" y="-216.5" font-family="Helvetica,sans-Serif" font-size="10.00">getInternalTemperatureC</text>
</a>
</g>
</g>
<!-- Node6&#45;&gt;Node19 -->
<g id="edge24" class="edge"><title>Node6&#45;&gt;Node19</title>
<path fill="none" stroke="midnightblue" d="M195.43,-268.402C203.011,-265.459 211.164,-261.66 218,-257 237.223,-243.897 232.629,-228.192 254,-219 306.203,-196.546 372.29,-200.675 417.532,-207.784"/>
<polygon fill="midnightblue" stroke="midnightblue" points="416.984,-211.241 427.424,-209.438 418.138,-204.337 416.984,-211.241"/>
</g>
<!-- Node20 -->
<g id="node20" class="node"><title>Node20</title>
<g id="a_node20"><a xlink:href="libmorse_8cpp.html#a47abdd74b66d7180c47d192bab8bdccb" target="_top" xlink:title="Transmit an unsigned integer in Morse code. ">
<polygon fill="white" stroke="black" points="438,-266.5 438,-285.5 504,-285.5 504,-266.5 438,-266.5"/>
<text text-anchor="middle" x="471" y="-273.5" font-family="Helvetica,sans-Serif" font-size="10.00">txUnsigned</text>
</a>
</g>
</g>
<!-- Node6&#45;&gt;Node20 -->
<g id="edge25" class="edge"><title>Node6&#45;&gt;Node20</title>
<path fill="none" stroke="midnightblue" d="M195.215,-276C245.918,-276 363.807,-276 427.444,-276"/>
<polygon fill="midnightblue" stroke="midnightblue" points="427.547,-279.5 437.547,-276 427.547,-272.5 427.547,-279.5"/>
</g>
<!-- Node21 -->
<g id="node21" class="node"><title>Node21</title>
<g id="a_node21"><a xlink:href="actions_8cpp.html#aed718ec1bd4cc7adb2f65d40a6784496" target="_top" xlink:title="Transmit the internal temperature in integer in Fahrenheit. ">
<polygon fill="white" stroke="black" points="254,-228.5 254,-247.5 372,-247.5 372,-228.5 254,-228.5"/>
<text text-anchor="middle" x="313" y="-235.5" font-family="Helvetica,sans-Serif" font-size="10.00">txInternalTemperatureF</text>
</a>
</g>
</g>
<!-- Node6&#45;&gt;Node21 -->
<g id="edge28" class="edge"><title>Node6&#45;&gt;Node21</title>
<path fill="none" stroke="midnightblue" d="M195.239,-269.468C214.874,-264.176 243.081,-256.574 266.852,-250.167"/>
<polygon fill="midnightblue" stroke="midnightblue" points="267.986,-253.487 276.73,-247.505 266.164,-246.728 267.986,-253.487"/>
</g>
<!-- Node22 -->
<g id="node22" class="node"><title>Node22</title>
<g id="a_node22"><a xlink:href="actions_8cpp.html#aaabb3ac0c23f35a499bc17efe829f326" target="_top" xlink:title="Transmit the 24&#45;hr time. ">
<polygon fill="white" stroke="black" points="274,-114.5 274,-133.5 352,-133.5 352,-114.5 274,-114.5"/>
<text text-anchor="middle" x="313" y="-121.5" font-family="Helvetica,sans-Serif" font-size="10.00">txTimeHHMM</text>
</a>
</g>
</g>
<!-- Node6&#45;&gt;Node22 -->
<g id="edge31" class="edge"><title>Node6&#45;&gt;Node22</title>
<path fill="none" stroke="midnightblue" d="M184.71,-266.354C195.163,-262.239 209.215,-257.377 218,-248 252.881,-210.768 219.272,-176.374 254,-139 257.131,-135.631 260.805,-132.72 264.76,-130.249"/>
<polygon fill="midnightblue" stroke="midnightblue" points="266.527,-133.275 273.76,-125.533 263.278,-127.074 266.527,-133.275"/>
</g>
<!-- Node23 -->
<g id="node23" class="node"><title>Node23</title>
<g id="a_node23"><a xlink:href="actions_8cpp.html#ad02149679fa3cc6a4957d1a318408ffd" target="_top" xlink:title="Transmit the uptime. ">
<polygon fill="white" stroke="black" points="285,-304.5 285,-323.5 341,-323.5 341,-304.5 285,-304.5"/>
<text text-anchor="middle" x="313" y="-311.5" font-family="Helvetica,sans-Serif" font-size="10.00">txUptime</text>
</a>
</g>
</g>
<!-- Node6&#45;&gt;Node23 -->
<g id="edge33" class="edge"><title>Node6&#45;&gt;Node23</title>
<path fill="none" stroke="midnightblue" d="M195.239,-282.532C217.107,-288.426 249.608,-297.185 274.771,-303.967"/>
<polygon fill="midnightblue" stroke="midnightblue" points="274.14,-307.422 284.707,-306.644 275.962,-300.663 274.14,-307.422"/>
</g>
<!-- Node25 -->
<g id="node25" class="node"><title>Node25</title>
<g id="a_node25"><a xlink:href="teensy3__morse__bsp_8cpp.html#ae8dd28759e56dbd2ee9bc9ae96d1783c" target="_top" xlink:title="Return the most recent ADC measurement of the input voltage. Perform analog to digital conversion on ...">
<polygon fill="white" stroke="black" points="276,-494.5 276,-513.5 350,-513.5 350,-494.5 276,-494.5"/>
<text text-anchor="middle" x="313" y="-501.5" font-family="Helvetica,sans-Serif" font-size="10.00">readMillivolts</text>
</a>
</g>
</g>
<!-- Node6&#45;&gt;Node25 -->
<g id="edge36" class="edge"><title>Node6&#45;&gt;Node25</title>
<path fill="none" stroke="midnightblue" d="M195.362,-280.834C203.668,-283.65 212.29,-288.073 218,-295 271.281,-359.635 200.983,-415.148 254,-480 257.535,-484.324 261.979,-487.879 266.826,-490.798"/>
<polygon fill="midnightblue" stroke="midnightblue" points="265.378,-493.988 275.879,-495.398 268.549,-487.748 265.378,-493.988"/>
</g>
<!-- Node29 -->
<g id="node29" class="node"><title>Node29</title>
<g id="a_node29"><a xlink:href="libmorse_8cpp.html#ac3f000c98271c6d0a7710135e18189bc" target="_top" xlink:title="On my hardware there is cross&#45;coupling between the serial port and the touch sensors. Without the code below, long messages to the serial port trigger a touch input. ">
<polygon fill="white" stroke="black" points="438.5,-342.5 438.5,-361.5 503.5,-361.5 503.5,-342.5 438.5,-342.5"/>
<text text-anchor="middle" x="471" y="-349.5" font-family="Helvetica,sans-Serif" font-size="10.00">flushTouch</text>
</a>
</g>
</g>
<!-- Node6&#45;&gt;Node29 -->
<g id="edge40" class="edge"><title>Node6&#45;&gt;Node29</title>
<path fill="none" stroke="midnightblue" d="M195.43,-283.598C203.011,-286.541 211.164,-290.34 218,-295 237.223,-308.103 233.052,-322.879 254,-333 309.817,-359.968 383.201,-360.103 428.455,-356.768"/>
<polygon fill="midnightblue" stroke="midnightblue" points="428.82,-360.249 438.497,-355.936 428.242,-353.273 428.82,-360.249"/>
</g>
<!-- Node8 -->
<g id="node8" class="node"><title>Node8</title>
<g id="a_node8"><a xlink:href="teensy3__morse__bsp_8cpp.html#af6899cd9b83df54106b259ab81ea5cb2" target="_top" xlink:title="touchMargin">
<polygon fill="white" stroke="black" points="723,-342.5 723,-361.5 793,-361.5 793,-342.5 723,-342.5"/>
<text text-anchor="middle" x="758" y="-349.5" font-family="Helvetica,sans-Serif" font-size="10.00">touchMargin</text>
</a>
</g>
</g>
<!-- Node7&#45;&gt;Node8 -->
<g id="edge7" class="edge"><title>Node7&#45;&gt;Node8</title>
<path fill="none" stroke="midnightblue" d="M657.166,-352C673.281,-352 693.984,-352 712.355,-352"/>
<polygon fill="midnightblue" stroke="midnightblue" points="712.562,-355.5 722.562,-352 712.562,-348.5 712.562,-355.5"/>
</g>
<!-- Node9&#45;&gt;Node2 -->
<g id="edge17" class="edge"><title>Node9&#45;&gt;Node2</title>
<path fill="none" stroke="midnightblue" d="M766.35,-418.508C785.638,-443.46 837.93,-511.106 862.888,-543.392"/>
<polygon fill="midnightblue" stroke="midnightblue" points="860.268,-545.724 869.153,-551.495 865.806,-541.443 860.268,-545.724"/>
</g>
<!-- Node9&#45;&gt;Node3 -->
<g id="edge18" class="edge"><title>Node9&#45;&gt;Node3</title>
<path fill="none" stroke="midnightblue" d="M778.667,-418.541C797.476,-427.665 826.067,-441.534 847.491,-451.927"/>
<polygon fill="midnightblue" stroke="midnightblue" points="846.244,-455.213 856.769,-456.428 849.299,-448.915 846.244,-455.213"/>
</g>
<!-- Node10 -->
<g id="node10" class="node"><title>Node10</title>
<g id="a_node10"><a xlink:href="class_morse_token.html#a48cd72aeb868391449d1f51c1d0bf5cc" target="_top" xlink:title="Treat code == 0 as the error token. ">
<polygon fill="white" stroke="black" points="829,-399.5 829,-418.5 926,-418.5 926,-399.5 829,-399.5"/>
<text text-anchor="middle" x="877.5" y="-406.5" font-family="Helvetica,sans-Serif" font-size="10.00">MorseToken::valid</text>
</a>
</g>
</g>
<!-- Node9&#45;&gt;Node10 -->
<g id="edge10" class="edge"><title>Node9&#45;&gt;Node10</title>
<path fill="none" stroke="midnightblue" d="M783.632,-409C793.831,-409 806.13,-409 818.391,-409"/>
<polygon fill="midnightblue" stroke="midnightblue" points="818.635,-412.5 828.635,-409 818.635,-405.5 818.635,-412.5"/>
</g>
<!-- Node11 -->
<g id="node11" class="node"><title>Node11</title>
<g id="a_node11"><a xlink:href="teensy3__morse__bsp_8cpp.html#af66e71e3fac9b6a2c6532bc8a513bfde" target="_top" xlink:title="Output a square wave on pin 10 at the given frequency for the given duration. ">
<polygon fill="white" stroke="black" points="858.5,-314.5 858.5,-333.5 896.5,-333.5 896.5,-314.5 858.5,-314.5"/>
<text text-anchor="middle" x="877.5" y="-321.5" font-family="Helvetica,sans-Serif" font-size="10.00">beep</text>
</a>
</g>
</g>
<!-- Node9&#45;&gt;Node11 -->
<g id="edge11" class="edge"><title>Node9&#45;&gt;Node11</title>
<path fill="none" stroke="midnightblue" d="M772.479,-399.249C792.665,-384.647 830.944,-356.955 855.014,-339.543"/>
<polygon fill="midnightblue" stroke="midnightblue" points="857.128,-342.334 863.178,-333.637 853.025,-336.662 857.128,-342.334"/>
</g>
<!-- Node17 -->
<g id="node17" class="node"><title>Node17</title>
<g id="a_node17"><a xlink:href="libmorse_8cpp.html#ab94e088615119d1faae7df22ce50aedf" target="_top" xlink:title="Transmit a Morse code prosign indicating an error. ">
<polygon fill="white" stroke="black" points="854.5,-266.5 854.5,-285.5 900.5,-285.5 900.5,-266.5 854.5,-266.5"/>
<text text-anchor="middle" x="877.5" y="-273.5" font-family="Helvetica,sans-Serif" font-size="10.00">txError</text>
</a>
</g>
</g>
<!-- Node9&#45;&gt;Node17 -->
<g id="edge19" class="edge"><title>Node9&#45;&gt;Node17</title>
<path fill="none" stroke="midnightblue" d="M768.91,-399.214C776.083,-391.838 785.751,-381.27 793,-371 812.268,-343.702 805.956,-329.196 829,-305 834.222,-299.516 840.699,-294.672 847.173,-290.59"/>
<polygon fill="midnightblue" stroke="midnightblue" points="849.009,-293.571 855.881,-285.507 845.48,-287.526 849.009,-293.571"/>
</g>
<!-- Node12 -->
<g id="node12" class="node"><title>Node12</title>
<g id="a_node12"><a xlink:href="teensy3__morse__bsp_8cpp.html#a6f674d5b9985ea3a7eeb0df299c2e405" target="_top" xlink:title="pollEarphonePresent">
<polygon fill="white" stroke="black" points="962,-314.5 962,-333.5 1069,-333.5 1069,-314.5 962,-314.5"/>
<text text-anchor="middle" x="1015.5" y="-321.5" font-family="Helvetica,sans-Serif" font-size="10.00">pollEarphonePresent</text>
</a>
</g>
</g>
<!-- Node11&#45;&gt;Node12 -->
<g id="edge12" class="edge"><title>Node11&#45;&gt;Node12</title>
<path fill="none" stroke="midnightblue" d="M896.56,-324C910.777,-324 931.484,-324 951.594,-324"/>
<polygon fill="midnightblue" stroke="midnightblue" points="951.701,-327.5 961.701,-324 951.701,-320.5 951.701,-327.5"/>
</g>
<!-- Node13 -->
<g id="node13" class="node"><title>Node13</title>
<g id="a_node13"><a xlink:href="teensy3__morse__bsp_8cpp.html#a2d6b4ace33ed5e497dedd03217540c63" target="_top" xlink:title="Set the PWM frequency for the audio output pins. ">
<polygon fill="white" stroke="black" points="974,-238.5 974,-257.5 1057,-257.5 1057,-238.5 974,-238.5"/>
<text text-anchor="middle" x="1015.5" y="-245.5" font-family="Helvetica,sans-Serif" font-size="10.00">pwmFrequency</text>
</a>
</g>
</g>
<!-- Node11&#45;&gt;Node13 -->
<g id="edge13" class="edge"><title>Node11&#45;&gt;Node13</title>
<path fill="none" stroke="midnightblue" d="M895.501,-314.252C904.69,-308.827 916.143,-301.81 926,-295 942.677,-283.478 944.252,-276.791 962,-267 965.676,-264.972 969.611,-263.086 973.612,-261.353"/>
<polygon fill="midnightblue" stroke="midnightblue" points="975.003,-264.566 982.977,-257.589 972.393,-258.071 975.003,-264.566"/>
</g>
<!-- Node14 -->
<g id="node14" class="node"><title>Node14</title>
<g id="a_node14"><a xlink:href="teensy3__morse__bsp_8cpp.html#a82911eac3bf13d6f36d10102a4c4d3c4" target="_top" xlink:title="Generate a tone on the audio output pins. ">
<polygon fill="white" stroke="black" points="985,-276.5 985,-295.5 1046,-295.5 1046,-276.5 985,-276.5"/>
<text text-anchor="middle" x="1015.5" y="-283.5" font-family="Helvetica,sans-Serif" font-size="10.00">pwmWrite</text>
</a>
</g>
</g>
<!-- Node11&#45;&gt;Node14 -->
<g id="edge14" class="edge"><title>Node11&#45;&gt;Node14</title>
<path fill="none" stroke="midnightblue" d="M896.56,-318.954C916.462,-313.393 949.083,-304.278 974.979,-297.043"/>
<polygon fill="midnightblue" stroke="midnightblue" points="976.201,-300.335 984.89,-294.273 974.317,-293.593 976.201,-300.335"/>
</g>
<!-- Node16 -->
<g id="node16" class="node"><title>Node16</title>
<g id="a_node16"><a xlink:href="teensy3__morse__bsp_8cpp.html#a6c982a7d7805f1dd5426eb98c915cfdd" target="_top" xlink:title="Turn the red LED on (1) or off (0). ">
<polygon fill="white" stroke="black" points="990.5,-352.5 990.5,-371.5 1040.5,-371.5 1040.5,-352.5 990.5,-352.5"/>
<text text-anchor="middle" x="1015.5" y="-359.5" font-family="Helvetica,sans-Serif" font-size="10.00">redLED</text>
</a>
</g>
</g>
<!-- Node11&#45;&gt;Node16 -->
<g id="edge16" class="edge"><title>Node11&#45;&gt;Node16</title>
<path fill="none" stroke="midnightblue" d="M896.56,-329.046C917.959,-335.025 954.064,-345.114 980.702,-352.557"/>
<polygon fill="midnightblue" stroke="midnightblue" points="979.825,-355.945 990.398,-355.266 981.708,-349.204 979.825,-355.945"/>
</g>
<!-- Node15 -->
<g id="node15" class="node"><title>Node15</title>
<g id="a_node15"><a xlink:href="teensy3__morse__bsp_8cpp.html#ac70998cee1bf97f00aec4a1b4e5a4f60" target="_top" xlink:title="isEarphonePresent">
<polygon fill="white" stroke="black" points="1105,-276.5 1105,-295.5 1204,-295.5 1204,-276.5 1105,-276.5"/>
<text text-anchor="middle" x="1154.5" y="-283.5" font-family="Helvetica,sans-Serif" font-size="10.00">isEarphonePresent</text>
</a>
</g>
</g>
<!-- Node14&#45;&gt;Node15 -->
<g id="edge15" class="edge"><title>Node14&#45;&gt;Node15</title>
<path fill="none" stroke="midnightblue" d="M1046.23,-286C1060.43,-286 1077.96,-286 1094.7,-286"/>
<polygon fill="midnightblue" stroke="midnightblue" points="1094.98,-289.5 1104.98,-286 1094.98,-282.5 1094.98,-289.5"/>
</g>
<!-- Node17&#45;&gt;Node6 -->
<g id="edge20" class="edge"><title>Node17&#45;&gt;Node6</title>
<path fill="none" stroke="midnightblue" d="M864.331,-266.317C815.621,-227.598 636.973,-86 629.5,-86 470,-86 470,-86 470,-86 373.629,-86 326.896,-41.9642 254,-105 201.487,-150.41 263.232,-204.333 218,-257 214.344,-261.257 209.595,-264.571 204.523,-267.149"/>
<polygon fill="midnightblue" stroke="midnightblue" points="203.09,-263.955 195.212,-271.039 205.788,-270.414 203.09,-263.955"/>
</g>
<!-- Node18&#45;&gt;Node9 -->
<g id="edge22" class="edge"><title>Node18&#45;&gt;Node9</title>
<path fill="none" stroke="midnightblue" d="M639.402,-285.549C650.97,-296.763 670.611,-315.998 687,-333 705.908,-352.615 727.018,-375.705 741.063,-391.243"/>
<polygon fill="midnightblue" stroke="midnightblue" points="738.785,-393.944 748.08,-399.029 743.985,-389.257 738.785,-393.944"/>
</g>
<!-- Node18&#45;&gt;Node17 -->
<g id="edge23" class="edge"><title>Node18&#45;&gt;Node17</title>
<path fill="none" stroke="midnightblue" d="M653.633,-276C698.304,-276 793.893,-276 844.129,-276"/>
<polygon fill="midnightblue" stroke="midnightblue" points="844.417,-279.5 854.417,-276 844.417,-272.5 844.417,-279.5"/>
</g>
<!-- Node20&#45;&gt;Node7 -->
<g id="edge26" class="edge"><title>Node20&#45;&gt;Node7</title>
<path fill="none" stroke="midnightblue" d="M504.102,-284.174C513.889,-287.106 524.553,-290.754 534,-295 559.929,-306.654 587.468,-324.141 605.889,-336.671"/>
<polygon fill="midnightblue" stroke="midnightblue" points="603.935,-339.575 614.153,-342.376 607.912,-333.814 603.935,-339.575"/>
</g>
<!-- Node20&#45;&gt;Node18 -->
<g id="edge27" class="edge"><title>Node20&#45;&gt;Node18</title>
<path fill="none" stroke="midnightblue" d="M504.22,-276C530.178,-276 566.59,-276 593.109,-276"/>
<polygon fill="midnightblue" stroke="midnightblue" points="593.454,-279.5 603.454,-276 593.454,-272.5 593.454,-279.5"/>
</g>
<!-- Node21&#45;&gt;Node19 -->
<g id="edge29" class="edge"><title>Node21&#45;&gt;Node19</title>
<path fill="none" stroke="midnightblue" d="M372.089,-230.925C380.711,-229.875 389.682,-228.782 398.54,-227.704"/>
<polygon fill="midnightblue" stroke="midnightblue" points="398.964,-231.178 408.467,-226.494 398.117,-224.229 398.964,-231.178"/>
</g>
<!-- Node21&#45;&gt;Node20 -->
<g id="edge30" class="edge"><title>Node21&#45;&gt;Node20</title>
<path fill="none" stroke="midnightblue" d="M353.365,-247.589C376.167,-253.143 404.861,-260.133 428.083,-265.789"/>
<polygon fill="midnightblue" stroke="midnightblue" points="427.451,-269.238 437.996,-268.204 429.108,-262.437 427.451,-269.238"/>
</g>
<!-- Node22&#45;&gt;Node6 -->
<g id="edge32" class="edge"><title>Node22&#45;&gt;Node6</title>
<path fill="none" stroke="midnightblue" d="M297.155,-133.58C284.092,-138.518 265.424,-144.706 254,-157 219.272,-194.374 252.881,-228.768 218,-266 214.333,-269.914 209.749,-273.041 204.892,-275.413"/>
<polygon fill="midnightblue" stroke="midnightblue" points="203.473,-272.208 195.385,-279.051 205.975,-278.746 203.473,-272.208"/>
</g>
<!-- Node23&#45;&gt;Node20 -->
<g id="edge35" class="edge"><title>Node23&#45;&gt;Node20</title>
<path fill="none" stroke="midnightblue" d="M341.173,-307.381C365.119,-301.548 400.386,-292.957 427.968,-286.238"/>
<polygon fill="midnightblue" stroke="midnightblue" points="428.86,-289.624 437.748,-283.856 427.203,-282.823 428.86,-289.624"/>
</g>
<!-- Node24 -->
<g id="node24" class="node"><title>Node24</title>
<g id="a_node24"><a xlink:href="settings_8cpp.html#a7b4efa097b94f9a90c5bbafcdf93fe4f" target="_top" xlink:title="getUptime">
<polygon fill="white" stroke="black" points="440,-304.5 440,-323.5 502,-323.5 502,-304.5 440,-304.5"/>
<text text-anchor="middle" x="471" y="-311.5" font-family="Helvetica,sans-Serif" font-size="10.00">getUptime</text>
</a>
</g>
</g>
<!-- Node23&#45;&gt;Node24 -->
<g id="edge34" class="edge"><title>Node23&#45;&gt;Node24</title>
<path fill="none" stroke="midnightblue" d="M341.173,-314C365.633,-314 401.905,-314 429.735,-314"/>
<polygon fill="midnightblue" stroke="midnightblue" points="429.945,-317.5 439.945,-314 429.945,-310.5 429.945,-317.5"/>
</g>
<!-- Node26 -->
<g id="node26" class="node"><title>Node26</title>
<g id="a_node26"><a xlink:href="class_voltage_monitor.html#a70902b84f9864c95d5553a0644a64f4f" target="_top" xlink:title="Return the latest voltage reading. ">
<polygon fill="white" stroke="black" points="408,-494.5 408,-513.5 534,-513.5 534,-494.5 408,-494.5"/>
<text text-anchor="middle" x="471" y="-501.5" font-family="Helvetica,sans-Serif" font-size="10.00">VoltageMonitor::getValue</text>
</a>
</g>
</g>
<!-- Node25&#45;&gt;Node26 -->
<g id="edge37" class="edge"><title>Node25&#45;&gt;Node26</title>
<path fill="none" stroke="midnightblue" d="M350.182,-504C364.344,-504 381.117,-504 397.56,-504"/>
<polygon fill="midnightblue" stroke="midnightblue" points="397.728,-507.5 407.728,-504 397.728,-500.5 397.728,-507.5"/>
</g>
<!-- Node27 -->
<g id="node27" class="node"><title>Node27</title>
<g id="a_node27"><a xlink:href="actions_8cpp.html#a2b8c3769e2aa32a2da9e2f3f85ac73dd" target="_top" xlink:title="A sample ADC reading is taken each time through the main loop, and written to a ring buffer...">
<polygon fill="white" stroke="black" points="572.5,-532.5 572.5,-551.5 684.5,-551.5 684.5,-532.5 572.5,-532.5"/>
<text text-anchor="middle" x="628.5" y="-539.5" font-family="Helvetica,sans-Serif" font-size="10.00">getVoltagePollInterval</text>
</a>
</g>
</g>
<!-- Node26&#45;&gt;Node27 -->
<g id="edge38" class="edge"><title>Node26&#45;&gt;Node27</title>
<path fill="none" stroke="midnightblue" d="M511.239,-513.589C531.759,-518.604 557.067,-524.788 578.825,-530.105"/>
<polygon fill="midnightblue" stroke="midnightblue" points="577.998,-533.506 588.543,-532.48 579.66,-526.706 577.998,-533.506"/>
</g>
<!-- Node28 -->
<g id="node28" class="node"><title>Node28</title>
<g id="a_node28"><a xlink:href="class_voltage_monitor.html#a75871331808c34b40d04059ee2af0f27" target="_top" xlink:title="Filter and scale raw ADC values to millivolts. ">
<polygon fill="white" stroke="black" points="570,-494.5 570,-513.5 687,-513.5 687,-494.5 570,-494.5"/>
<text text-anchor="middle" x="628.5" y="-501.5" font-family="Helvetica,sans-Serif" font-size="10.00">VoltageMonitor::update</text>
</a>
</g>
</g>
<!-- Node26&#45;&gt;Node28 -->
<g id="edge39" class="edge"><title>Node26&#45;&gt;Node28</title>
<path fill="none" stroke="midnightblue" d="M534.352,-504C542.702,-504 551.298,-504 559.735,-504"/>
<polygon fill="midnightblue" stroke="midnightblue" points="559.92,-507.5 569.92,-504 559.92,-500.5 559.92,-507.5"/>
</g>
<!-- Node29&#45;&gt;Node7 -->
<g id="edge41" class="edge"><title>Node29&#45;&gt;Node7</title>
<path fill="none" stroke="midnightblue" d="M503.843,-352C528.677,-352 563.247,-352 589.522,-352"/>
<polygon fill="midnightblue" stroke="midnightblue" points="589.864,-355.5 599.864,-352 589.863,-348.5 589.864,-355.5"/>
</g>
<!-- Node31&#45;&gt;Node13 -->
<g id="edge44" class="edge"><title>Node31&#45;&gt;Node13</title>
<path fill="none" stroke="midnightblue" d="M905.695,-224.799C922.406,-228.362 944.334,-233.038 964.123,-237.258"/>
<polygon fill="midnightblue" stroke="midnightblue" points="963.424,-240.687 973.934,-239.35 964.884,-233.841 963.424,-240.687"/>
</g>
<!-- Node31&#45;&gt;Node14 -->
<g id="edge45" class="edge"><title>Node31&#45;&gt;Node14</title>
<path fill="none" stroke="midnightblue" d="M893.463,-228.67C909.853,-239.004 937.125,-255.457 962,-267 966.385,-269.035 971.055,-270.998 975.731,-272.84"/>
<polygon fill="midnightblue" stroke="midnightblue" points="974.658,-276.177 985.25,-276.436 977.132,-269.628 974.658,-276.177"/>
</g>
<!-- Node32 -->
<g id="node32" class="node"><title>Node32</title>
<g id="a_node32"><a xlink:href="teensy3__morse__bsp_8cpp.html#a36cda3a6dd77f2141cfc703c55a47ff8" target="_top" xlink:title="getDuty">
<polygon fill="white" stroke="black" points="990,-200.5 990,-219.5 1041,-219.5 1041,-200.5 990,-200.5"/>
<text text-anchor="middle" x="1015.5" y="-207.5" font-family="Helvetica,sans-Serif" font-size="10.00">getDuty</text>
</a>
</g>
</g>
<!-- Node31&#45;&gt;Node32 -->
<g id="edge46" class="edge"><title>Node31&#45;&gt;Node32</title>
<path fill="none" stroke="midnightblue" d="M905.695,-217.2C926.937,-215.795 956.609,-213.831 979.602,-212.309"/>
<polygon fill="midnightblue" stroke="midnightblue" points="979.895,-215.798 989.642,-211.645 979.433,-208.813 979.895,-215.798"/>
</g>
</g>
</svg>
        <g id="navigator" transform="translate(0 0)" fill="#404254">
                <rect fill="#f2f5e9" fill-opacity="0.5" stroke="#606060" stroke-width=".5" x="0" y="0" width="60" height="60"/>
                <use id="zoomplus" xlink:href="#zoomPlus" x="17" y="9" onmousedown="handleZoom(evt,'in')"/>
                <use id="zoomminus" xlink:href="#zoomMin" x="42" y="9" onmousedown="handleZoom(evt,'out')"/>
                <use id="reset" xlink:href="#resetDef" x="30" y="36" onmousedown="handleReset()"/>
                <g id="arrowUp" xlink:href="#dirArrow" transform="translate(30 24)" onmousedown="handlePan(0,-1)">
                  <use xlink:href="#rim" fill="#404040">
                        <set attributeName="fill" to="#808080" begin="arrowUp.mouseover" end="arrowUp.mouseout"/>
                  </use>
                  <path fill="none" stroke="white" stroke-width="1.5" d="M0,-3.0v7 M-2.5,-0.5L0,-3.0L2.5,-0.5"/>
                </g>
                <g id="arrowRight" xlink:href="#dirArrow" transform="rotate(90) translate(36 -43)" onmousedown="handlePan(1,0)">
                  <use xlink:href="#rim" fill="#404040">
                        <set attributeName="fill" to="#808080" begin="arrowRight.mouseover" end="arrowRight.mouseout"/>
                  </use>
                  <path fill="none" stroke="white" stroke-width="1.5" d="M0,-3.0v7 M-2.5,-0.5L0,-3.0L2.5,-0.5"/>
                </g>
                <g id="arrowDown" xlink:href="#dirArrow" transform="rotate(180) translate(-30 -48)" onmousedown="handlePan(0,1)">
                  <use xlink:href="#rim" fill="#404040">
                        <set attributeName="fill" to="#808080" begin="arrowDown.mouseover" end="arrowDown.mouseout"/>
                  </use>
                  <path fill="none" stroke="white" stroke-width="1.5" d="M0,-3.0v7 M-2.5,-0.5L0,-3.0L2.5,-0.5"/>
                </g>
                <g id="arrowLeft" xlink:href="#dirArrow" transform="rotate(270) translate(-36 17)" onmousedown="handlePan(-1,0)">
                  <use xlink:href="#rim" fill="#404040">
                        <set attributeName="fill" to="#808080" begin="arrowLeft.mouseover" end="arrowLeft.mouseout"/>
                  </use>
                  <path fill="none" stroke="white" stroke-width="1.5" d="M0,-3.0v7 M-2.5,-0.5L0,-3.0L2.5,-0.5"/>
                </g>
        </g>
        <svg viewBox="0 0 15 15" width="100%" height="30px" preserveAspectRatio="xMaxYMin meet">
         <g id="arrow_out" transform="scale(0.3 0.3)">
          <a xlink:href="pda_8cpp_a59de5fe1fda6ff19ff1d1f5d74085610_cgraph_org.svg" target="_base">
           <rect id="button" ry="5" rx="5" y="6" x="6" height="38" width="38"
                fill="#f2f5e9" fill-opacity="0.5" stroke="#606060" stroke-width="1.0"/>
           <path id="arrow"
             d="M 11.500037,31.436501 C 11.940474,20.09759 22.043105,11.32322 32.158766,21.979434 L 37.068811,17.246167 C 37.068811,17.246167 37.088388,32 37.088388,32 L 22.160133,31.978069 C 22.160133,31.978069 26.997745,27.140456 26.997745,27.140456 C 18.528582,18.264221 13.291696,25.230495 11.500037,31.436501 z"
             style="fill:#404040;"/>
          </a>
         </g>
        </svg>
</svg>
