<?xml version="1.0" encoding="UTF-8" standalone="no"?>
<!DOCTYPE svg PUBLIC "-//W3C//DTD SVG 1.1//EN"
 "http://www.w3.org/Graphics/SVG/1.1/DTD/svg11.dtd">
<!-- Generated by graphviz version 2.38.0 (20140413.2041)
 -->
<!-- Title: txAlfaBravoCharlie Pages: 1 -->
<!--zoomable 604 -->
<svg id="main" version="1.1" xmlns="http://www.w3.org/2000/svg" xmlns:xlink="http://www.w3.org/1999/xlink" xml:space="preserve" onload="init(evt)">
<style type="text/css"><![CDATA[
.edge:hover path { stroke: red; }
.edge:hover polygon { stroke: red; fill: red; }
]]></style>
<script type="text/javascript"><![CDATA[
var edges = document.getElementsByTagName('g');
if (edges && edges.length) {
  for (var i=0;i<edges.length;i++) {
    if (edges[i].id.substr(0,4)=='edge') {
      edges[i].setAttribute('class','edge');
    }
  }
}
]]></script>
        <defs>
                <circle id="rim" cx="0" cy="0" r="7"/>
                <circle id="rim2" cx="0" cy="0" r="3.5"/>
                <g id="zoomPlus">
                        <use xlink:href="#rim" fill="#404040">
                                <set attributeName="fill" to="#808080" begin="zoomplus.mouseover" end="zoomplus.mouseout"/>
                        </use>
                        <path d="M-4,0h8M0,-4v8" fill="none" stroke="white" stroke-width="1.5" pointer-events="none"/>
                </g>
                <g id="zoomMin">
                        <use xlink:href="#rim" fill="#404040">
                                <set attributeName="fill" to="#808080" begin="zoomminus.mouseover" end="zoomminus.mouseout"/>
                        </use>
                        <path d="M-4,0h8" fill="none" stroke="white" stroke-width="1.5" pointer-events="none"/>
                </g>
                <g id="dirArrow">
                        <path fill="none" stroke="white" stroke-width="1.5" d="M0,-3.0v7 M-2.5,-0.5L0,-3.0L2.5,-0.5"/>
                </g>
               <g id="resetDef">
                       <use xlink:href="#rim2" fill="#404040">
                               <set attributeName="fill" to="#808080" begin="reset.mouseover" end="reset.mouseout"/>
                       </use>
               </g>
        </defs>

<script type="text/javascript">
var viewWidth = 1581;
var viewHeight = 604;
var sectionId = 'dynsection-18';
</script>
<script xlink:href="svgpan.js"/>
<svg id="graph" class="graph">
<g id="viewport">
<title>txAlfaBravoCharlie</title>
<polygon fill="white" stroke="none" points="-4,4 -4,-599.939 1577,-599.939 1577,4 -4,4"/>
<!-- Node1 -->
<g id="node1" class="node"><title>Node1</title>
<polygon fill="#bfbfbf" stroke="black" points="0,-443.439 0,-462.439 98,-462.439 98,-443.439 0,-443.439"/>
<text text-anchor="middle" x="49" y="-450.439" font-family="Helvetica,sans-Serif" font-size="10.00">txAlfaBravoCharlie</text>
</g>
<!-- Node2 -->
<g id="node2" class="node"><title>Node2</title>
<g id="a_node2"><a xlink:href="stack_8cpp.html#aafac4a86d14d59c34565bc295024e511" target="_top" xlink:title="symbolStackSize">
<polygon fill="white" stroke="black" points="266,-519.439 266,-538.439 359,-538.439 359,-519.439 266,-519.439"/>
<text text-anchor="middle" x="312.5" y="-526.439" font-family="Helvetica,sans-Serif" font-size="10.00">symbolStackSize</text>
</a>
</g>
</g>
<!-- Node1&#45;&gt;Node2 -->
<g id="edge1" class="edge"><title>Node1&#45;&gt;Node2</title>
<path fill="none" stroke="midnightblue" d="M82.8544,-462.487C129.922,-476.167 216.594,-501.356 268.647,-516.484"/>
<polygon fill="midnightblue" stroke="midnightblue" points="267.995,-519.939 278.574,-519.369 269.948,-513.218 267.995,-519.939"/>
</g>
<!-- Node4 -->
<g id="node4" class="node"><title>Node4</title>
<g id="a_node4"><a xlink:href="stack_8cpp.html#abefdfbf9131b5ea5926f9ecbecb6b1e6" target="_top" xlink:title="Access the stack using an index where 0 is the top of the stack. ">
<polygon fill="white" stroke="black" points="167.5,-538.439 167.5,-557.439 196.5,-557.439 196.5,-538.439 167.5,-538.439"/>
<text text-anchor="middle" x="182" y="-545.439" font-family="Helvetica,sans-Serif" font-size="10.00">s</text>
</a>
</g>
</g>
<!-- Node1&#45;&gt;Node4 -->
<g id="edge3" class="edge"><title>Node1&#45;&gt;Node4</title>
<path fill="none" stroke="midnightblue" d="M59.745,-462.482C74.8146,-476.926 105.063,-504.693 134,-523.939 141.593,-528.989 150.386,-533.74 158.299,-537.661"/>
<polygon fill="midnightblue" stroke="midnightblue" points="156.842,-540.844 167.374,-541.997 159.859,-534.528 156.842,-540.844"/>
</g>
<!-- Node5 -->
<g id="node5" class="node"><title>Node5</title>
<g id="a_node5"><a xlink:href="class_morse_token.html#adbcf2bf93f283c2c69a93dd69d03c38b" target="_top" xlink:title="Convert Morse 0&#45;9 to the corresponding digit. ">
<polygon fill="white" stroke="black" points="136,-424.439 136,-443.439 228,-443.439 228,-424.439 136,-424.439"/>
<text text-anchor="middle" x="182" y="-431.439" font-family="Helvetica,sans-Serif" font-size="10.00">MorseToken::m2i</text>
</a>
</g>
</g>
<!-- Node1&#45;&gt;Node5 -->
<g id="edge5" class="edge"><title>Node1&#45;&gt;Node5</title>
<path fill="none" stroke="midnightblue" d="M98.0357,-445.972C106.949,-444.679 116.328,-443.319 125.443,-441.996"/>
<polygon fill="midnightblue" stroke="midnightblue" points="126.191,-445.425 135.585,-440.526 125.186,-438.497 126.191,-445.425"/>
</g>
<!-- Node11 -->
<g id="node11" class="node"><title>Node11</title>
<g id="a_node11"><a xlink:href="libmorse_8cpp.html#ab94e088615119d1faae7df22ce50aedf" target="_top" xlink:title="Transmit a Morse code prosign indicating an error. ">
<polygon fill="white" stroke="black" points="425,-424.439 425,-443.439 471,-443.439 471,-424.439 425,-424.439"/>
<text text-anchor="middle" x="448" y="-431.439" font-family="Helvetica,sans-Serif" font-size="10.00">txError</text>
</a>
</g>
</g>
<!-- Node1&#45;&gt;Node11 -->
<g id="edge56" class="edge"><title>Node1&#45;&gt;Node11</title>
<path fill="none" stroke="midnightblue" d="M65.7106,-443.368C82.0798,-434.001 108.809,-420.371 134,-414.939 231.752,-393.856 259.565,-404.326 359,-414.939 377.791,-416.944 398.461,-421.293 415.044,-425.325"/>
<polygon fill="midnightblue" stroke="midnightblue" points="414.237,-428.731 424.788,-427.771 415.941,-421.941 414.237,-428.731"/>
</g>
<!-- Node12 -->
<g id="node12" class="node"><title>Node12</title>
<g id="a_node12"><a xlink:href="libmorse_8cpp.html#a0ee2308940264ea9ac8e50afc1a4d285" target="_top" xlink:title="txString">
<polygon fill="white" stroke="black" points="537,-253.439 537,-272.439 587,-272.439 587,-253.439 537,-253.439"/>
<text text-anchor="middle" x="562" y="-260.439" font-family="Helvetica,sans-Serif" font-size="10.00">txString</text>
</a>
</g>
</g>
<!-- Node1&#45;&gt;Node12 -->
<g id="edge55" class="edge"><title>Node1&#45;&gt;Node12</title>
<path fill="none" stroke="midnightblue" d="M62.1721,-443.419C77.9718,-431.437 106.754,-410.864 134,-397.939 272.925,-332.031 452.046,-287.385 526.34,-270.485"/>
<polygon fill="midnightblue" stroke="midnightblue" points="527.536,-273.803 536.524,-268.193 525.999,-266.974 527.536,-273.803"/>
</g>
<!-- Node36 -->
<g id="node36" class="node"><title>Node36</title>
<g id="a_node36"><a xlink:href="stack_8cpp.html#a7a8a89da82371dc2324696e7dfacad5e" target="_top" xlink:title="Pop the stack n times or until it is empty. ">
<polygon fill="white" stroke="black" points="162,-576.439 162,-595.439 202,-595.439 202,-576.439 162,-576.439"/>
<text text-anchor="middle" x="182" y="-583.439" font-family="Helvetica,sans-Serif" font-size="10.00">popN</text>
</a>
</g>
</g>
<!-- Node1&#45;&gt;Node36 -->
<g id="edge48" class="edge"><title>Node1&#45;&gt;Node36</title>
<path fill="none" stroke="midnightblue" d="M54.7239,-462.59C65.7364,-484.17 95.1564,-536.794 134,-566.939 139.384,-571.117 145.812,-574.506 152.159,-577.201"/>
<polygon fill="midnightblue" stroke="midnightblue" points="151.312,-580.623 161.904,-580.878 153.784,-574.073 151.312,-580.623"/>
</g>
<!-- Node38 -->
<g id="node38" class="node"><title>Node38</title>
<g id="a_node38"><a xlink:href="morse__token_8cpp.html#a9ec0688da83c93d634e79b2d7ad7ad64" target="_top" xlink:title="Convert Morse 0&#45;9 to the corresponding digit. ">
<polygon fill="white" stroke="black" points="296.5,-462.439 296.5,-481.439 328.5,-481.439 328.5,-462.439 296.5,-462.439"/>
<text text-anchor="middle" x="312.5" y="-469.439" font-family="Helvetica,sans-Serif" font-size="10.00">m2i</text>
</a>
</g>
</g>
<!-- Node1&#45;&gt;Node38 -->
<g id="edge51" class="edge"><title>Node1&#45;&gt;Node38</title>
<path fill="none" stroke="midnightblue" d="M98.2679,-456.446C153.793,-460.48 242.861,-466.951 286.189,-470.1"/>
<polygon fill="midnightblue" stroke="midnightblue" points="286.184,-473.608 296.412,-470.842 286.692,-466.627 286.184,-473.608"/>
</g>
<!-- Node39 -->
<g id="node39" class="node"><title>Node39</title>
<g id="a_node39"><a xlink:href="pda_8cpp.html#a885fa10d941a54af56e3594f205166a5" target="_top" xlink:title="alphaBravoCharlie">
<polygon fill="white" stroke="black" points="134,-310.439 134,-329.439 230,-329.439 230,-310.439 134,-310.439"/>
<text text-anchor="middle" x="182" y="-317.439" font-family="Helvetica,sans-Serif" font-size="10.00">alphaBravoCharlie</text>
</a>
</g>
</g>
<!-- Node1&#45;&gt;Node39 -->
<g id="edge54" class="edge"><title>Node1&#45;&gt;Node39</title>
<path fill="none" stroke="midnightblue" d="M55.3782,-443.343C67.2627,-422.839 97.6125,-374.165 134,-343.939 138.317,-340.353 143.258,-337.109 148.279,-334.249"/>
<polygon fill="midnightblue" stroke="midnightblue" points="150.054,-337.27 157.282,-329.524 146.801,-331.072 150.054,-337.27"/>
</g>
<!-- Node3 -->
<g id="node3" class="node"><title>Node3</title>
<g id="a_node3"><a xlink:href="class_stack.html#afc30a7ee287e14f08802c2d43613f2b4" target="_top" xlink:title="Return the number of elements currently in the stack. ">
<polygon fill="white" stroke="black" points="415,-538.439 415,-557.439 481,-557.439 481,-538.439 415,-538.439"/>
<text text-anchor="middle" x="448" y="-545.439" font-family="Helvetica,sans-Serif" font-size="10.00">Stack::size</text>
</a>
</g>
</g>
<!-- Node2&#45;&gt;Node3 -->
<g id="edge2" class="edge"><title>Node2&#45;&gt;Node3</title>
<path fill="none" stroke="midnightblue" d="M359.07,-535.424C373.779,-537.518 390.019,-539.829 404.498,-541.89"/>
<polygon fill="midnightblue" stroke="midnightblue" points="404.289,-545.395 414.682,-543.339 405.275,-538.465 404.289,-545.395"/>
</g>
<!-- Node4&#45;&gt;Node2 -->
<g id="edge4" class="edge"><title>Node4&#45;&gt;Node2</title>
<path fill="none" stroke="midnightblue" d="M196.752,-545.905C211.013,-543.797 234.241,-540.362 256.081,-537.133"/>
<polygon fill="midnightblue" stroke="midnightblue" points="256.6,-540.594 265.981,-535.669 255.577,-533.669 256.6,-540.594"/>
</g>
<!-- Node6 -->
<g id="node6" class="node"><title>Node6</title>
<g id="a_node6"><a xlink:href="morse__token_8h.html#a9ec0688da83c93d634e79b2d7ad7ad64" target="_top" xlink:title="Convert Morse 0&#45;9 to the corresponding digit. ">
<polygon fill="white" stroke="black" points="296.5,-424.439 296.5,-443.439 328.5,-443.439 328.5,-424.439 296.5,-424.439"/>
<text text-anchor="middle" x="312.5" y="-431.439" font-family="Helvetica,sans-Serif" font-size="10.00">m2i</text>
</a>
</g>
</g>
<!-- Node5&#45;&gt;Node6 -->
<g id="edge6" class="edge"><title>Node5&#45;&gt;Node6</title>
<path fill="none" stroke="midnightblue" d="M228.304,-433.939C247.678,-433.939 269.577,-433.939 286.042,-433.939"/>
<polygon fill="midnightblue" stroke="midnightblue" points="286.475,-437.439 296.475,-433.939 286.475,-430.439 286.475,-437.439"/>
</g>
<!-- Node7 -->
<g id="node7" class="node"><title>Node7</title>
<g id="a_node7"><a xlink:href="class_morse_token.html#a8c36a957ebc90172eae960757c72d3a4" target="_top" xlink:title="Convert to a single ASCII character. ">
<polygon fill="white" stroke="black" points="395,-462.439 395,-481.439 501,-481.439 501,-462.439 395,-462.439"/>
<text text-anchor="middle" x="448" y="-469.439" font-family="Helvetica,sans-Serif" font-size="10.00">MorseToken::toChar</text>
</a>
</g>
</g>
<!-- Node6&#45;&gt;Node7 -->
<g id="edge7" class="edge"><title>Node6&#45;&gt;Node7</title>
<path fill="none" stroke="midnightblue" d="M328.555,-438.224C346.615,-443.364 377.683,-452.208 403.47,-459.548"/>
<polygon fill="midnightblue" stroke="midnightblue" points="402.841,-463.008 413.417,-462.379 404.758,-456.275 402.841,-463.008"/>
</g>
<!-- Node6&#45;&gt;Node11 -->
<g id="edge11" class="edge"><title>Node6&#45;&gt;Node11</title>
<path fill="none" stroke="midnightblue" d="M328.555,-433.939C349.263,-433.939 387.077,-433.939 414.418,-433.939"/>
<polygon fill="midnightblue" stroke="midnightblue" points="414.688,-437.439 424.688,-433.939 414.688,-430.439 414.688,-437.439"/>
</g>
<!-- Node8 -->
<g id="node8" class="node"><title>Node8</title>
<g id="a_node8"><a xlink:href="morse__token_8h.html#a98f44690e97cbd7ea9445ca0a560a564" target="_top" xlink:title="Convert a Morse code into ASCII. ">
<polygon fill="white" stroke="black" points="544.5,-500.439 544.5,-519.439 579.5,-519.439 579.5,-500.439 544.5,-500.439"/>
<text text-anchor="middle" x="562" y="-507.439" font-family="Helvetica,sans-Serif" font-size="10.00">m2a</text>
</a>
</g>
</g>
<!-- Node7&#45;&gt;Node8 -->
<g id="edge8" class="edge"><title>Node7&#45;&gt;Node8</title>
<path fill="none" stroke="midnightblue" d="M477.262,-481.528C494.922,-487.519 517.506,-495.182 534.768,-501.039"/>
<polygon fill="midnightblue" stroke="midnightblue" points="533.646,-504.354 544.24,-504.252 535.895,-497.725 533.646,-504.354"/>
</g>
<!-- Node9 -->
<g id="node9" class="node"><title>Node9</title>
<g id="a_node9"><a xlink:href="class_morse_token.html#a48cd72aeb868391449d1f51c1d0bf5cc" target="_top" xlink:title="Treat code == 0 as the error token. ">
<polygon fill="white" stroke="black" points="1198,-472.439 1198,-491.439 1295,-491.439 1295,-472.439 1198,-472.439"/>
<text text-anchor="middle" x="1246.5" y="-479.439" font-family="Helvetica,sans-Serif" font-size="10.00">MorseToken::valid</text>
</a>
</g>
</g>
<!-- Node8&#45;&gt;Node9 -->
<g id="edge9" class="edge"><title>Node8&#45;&gt;Node9</title>
<path fill="none" stroke="midnightblue" d="M579.802,-509.939C622.877,-509.939 740.771,-509.939 839,-509.939 839,-509.939 839,-509.939 998.5,-509.939 1063.71,-509.939 1137.98,-500.185 1187.91,-492.191"/>
<polygon fill="midnightblue" stroke="midnightblue" points="1188.56,-495.631 1197.87,-490.568 1187.44,-488.722 1188.56,-495.631"/>
</g>
<!-- Node10 -->
<g id="node10" class="node"><title>Node10</title>
<g id="a_node10"><a xlink:href="class_morse_token.html#adc74054417a8636c1d34d43c34628731" target="_top" xlink:title="Treat code == 1 as a space. ">
<polygon fill="white" stroke="black" points="630.5,-538.439 630.5,-557.439 733.5,-557.439 733.5,-538.439 630.5,-538.439"/>
<text text-anchor="middle" x="682" y="-545.439" font-family="Helvetica,sans-Serif" font-size="10.00">MorseToken::pause</text>
</a>
</g>
</g>
<!-- Node8&#45;&gt;Node10 -->
<g id="edge10" class="edge"><title>Node8&#45;&gt;Node10</title>
<path fill="none" stroke="midnightblue" d="M579.656,-515.302C595.67,-520.46 620.481,-528.45 641.545,-535.233"/>
<polygon fill="midnightblue" stroke="midnightblue" points="640.63,-538.615 651.221,-538.349 642.776,-531.952 640.63,-538.615"/>
</g>
<!-- Node11&#45;&gt;Node12 -->
<g id="edge12" class="edge"><title>Node11&#45;&gt;Node12</title>
<path fill="none" stroke="midnightblue" d="M458.093,-424.32C469.002,-412.518 487.504,-391.642 501,-371.939 521.642,-341.802 541.193,-303.919 552.088,-281.673"/>
<polygon fill="midnightblue" stroke="midnightblue" points="555.256,-283.163 556.458,-272.636 548.954,-280.115 555.256,-283.163"/>
</g>
<!-- Node13 -->
<g id="node13" class="node"><title>Node13</title>
<g id="a_node13"><a xlink:href="teensy3__morse__bsp_8cpp.html#ab306f692c5c9455a0c82782a67ff0147" target="_top" xlink:title="touchPoll">
<polygon fill="white" stroke="black" points="969,-82.4386 969,-101.439 1026,-101.439 1026,-82.4386 969,-82.4386"/>
<text text-anchor="middle" x="997.5" y="-89.4386" font-family="Helvetica,sans-Serif" font-size="10.00">touchPoll</text>
</a>
</g>
</g>
<!-- Node12&#45;&gt;Node13 -->
<g id="edge13" class="edge"><title>Node12&#45;&gt;Node13</title>
<path fill="none" stroke="midnightblue" d="M562.589,-253.008C561.868,-220.908 564.471,-119.507 623,-75.9386 726.71,1.26178 895.172,-51.3708 964.818,-78.5252"/>
<polygon fill="midnightblue" stroke="midnightblue" points="963.772,-81.876 974.357,-82.3282 966.364,-75.3737 963.772,-81.876"/>
</g>
<!-- Node15 -->
<g id="node15" class="node"><title>Node15</title>
<g id="a_node15"><a xlink:href="settings_8cpp.html#a960551e90dfdad18f3c9b1338ccba7db" target="_top" xlink:title="Get the dit duration in microseconds. ">
<polygon fill="white" stroke="black" points="1210.5,-168.439 1210.5,-187.439 1282.5,-187.439 1282.5,-168.439 1210.5,-168.439"/>
<text text-anchor="middle" x="1246.5" y="-175.439" font-family="Helvetica,sans-Serif" font-size="10.00">getDitMicros</text>
</a>
</g>
</g>
<!-- Node12&#45;&gt;Node15 -->
<g id="edge15" class="edge"><title>Node12&#45;&gt;Node15</title>
<path fill="none" stroke="midnightblue" d="M564.035,-253.401C568.55,-213.713 587.879,-62.3453 623,-32.9386 696.833,28.8821 742.703,-15.9386 839,-15.9386 839,-15.9386 839,-15.9386 998.5,-15.9386 1075.46,-15.9386 1099.24,-28.3995 1162,-72.9386 1194.91,-96.2921 1221.52,-136.126 1235.28,-159.439"/>
<polygon fill="midnightblue" stroke="midnightblue" points="1232.36,-161.388 1240.37,-168.322 1238.44,-157.906 1232.36,-161.388"/>
</g>
<!-- Node16 -->
<g id="node16" class="node"><title>Node16</title>
<g id="a_node16"><a xlink:href="libmorse_8cpp.html#a9fdfce728595d72b78dc7c834ab99a40" target="_top" xlink:title="Transmit a literal Morse code value. ">
<polygon fill="white" stroke="black" points="1101.5,-386.439 1101.5,-405.439 1152.5,-405.439 1152.5,-386.439 1101.5,-386.439"/>
<text text-anchor="middle" x="1127" y="-393.439" font-family="Helvetica,sans-Serif" font-size="10.00">txLiteral</text>
</a>
</g>
</g>
<!-- Node12&#45;&gt;Node16 -->
<g id="edge16" class="edge"><title>Node12&#45;&gt;Node16</title>
<path fill="none" stroke="midnightblue" d="M566.352,-272.458C573.512,-291.275 592.207,-333.12 623,-352.939 773.849,-450.025 1005.02,-419.352 1091.65,-403.152"/>
<polygon fill="midnightblue" stroke="midnightblue" points="1092.32,-406.587 1101.48,-401.258 1091,-399.713 1092.32,-406.587"/>
</g>
<!-- Node24 -->
<g id="node24" class="node"><title>Node24</title>
<g id="a_node24"><a xlink:href="libmorse_8cpp.html#acd4b292f5e412ee4f05aed9dafbc072d" target="_top" xlink:title="Convert an ASCII character into Morse code and transmit it. ">
<polygon fill="white" stroke="black" points="972.5,-348.439 972.5,-367.439 1022.5,-367.439 1022.5,-348.439 972.5,-348.439"/>
<text text-anchor="middle" x="997.5" y="-355.439" font-family="Helvetica,sans-Serif" font-size="10.00">txLetter</text>
</a>
</g>
</g>
<!-- Node12&#45;&gt;Node24 -->
<g id="edge27" class="edge"><title>Node12&#45;&gt;Node24</title>
<path fill="none" stroke="midnightblue" d="M569.379,-272.68C579.088,-286.578 599.003,-311.658 623,-322.939 737.693,-376.852 893.825,-369.027 962.133,-362.17"/>
<polygon fill="midnightblue" stroke="midnightblue" points="962.748,-365.624 972.322,-361.087 962.008,-358.664 962.748,-365.624"/>
</g>
<!-- Node25 -->
<g id="node25" class="node"><title>Node25</title>
<g id="a_node25"><a xlink:href="teensy3__morse__bsp_8cpp.html#a8761e874366e227690fba2964e1bc445" target="_top" xlink:title="getInternalTemperatureC">
<polygon fill="white" stroke="black" points="777.5,-168.439 777.5,-187.439 902.5,-187.439 902.5,-168.439 777.5,-168.439"/>
<text text-anchor="middle" x="840" y="-175.439" font-family="Helvetica,sans-Serif" font-size="10.00">getInternalTemperatureC</text>
</a>
</g>
</g>
<!-- Node12&#45;&gt;Node25 -->
<g id="edge30" class="edge"><title>Node12&#45;&gt;Node25</title>
<path fill="none" stroke="midnightblue" d="M567.235,-253.285C575.282,-236.292 594.553,-201.463 623,-186.939 670.393,-162.741 731.542,-162.585 776.674,-167.263"/>
<polygon fill="midnightblue" stroke="midnightblue" points="776.294,-170.742 786.627,-168.399 777.088,-163.788 776.294,-170.742"/>
</g>
<!-- Node26 -->
<g id="node26" class="node"><title>Node26</title>
<g id="a_node26"><a xlink:href="libmorse_8cpp.html#a47abdd74b66d7180c47d192bab8bdccb" target="_top" xlink:title="Transmit an unsigned integer in Morse code. ">
<polygon fill="white" stroke="black" points="807,-225.439 807,-244.439 873,-244.439 873,-225.439 807,-225.439"/>
<text text-anchor="middle" x="840" y="-232.439" font-family="Helvetica,sans-Serif" font-size="10.00">txUnsigned</text>
</a>
</g>
</g>
<!-- Node12&#45;&gt;Node26 -->
<g id="edge31" class="edge"><title>Node12&#45;&gt;Node26</title>
<path fill="none" stroke="midnightblue" d="M573.991,-272.644C585.352,-281.973 604.053,-295.443 623,-300.939 673.369,-315.547 693.974,-324.154 741,-300.939 764.594,-289.291 755.392,-268.953 777,-253.939 783.038,-249.743 790.031,-246.451 797.098,-243.876"/>
<polygon fill="midnightblue" stroke="midnightblue" points="798.25,-247.182 806.699,-240.79 796.108,-240.518 798.25,-247.182"/>
</g>
<!-- Node27 -->
<g id="node27" class="node"><title>Node27</title>
<g id="a_node27"><a xlink:href="actions_8cpp.html#aed718ec1bd4cc7adb2f65d40a6784496" target="_top" xlink:title="Transmit the internal temperature in integer in Fahrenheit. ">
<polygon fill="white" stroke="black" points="623,-196.439 623,-215.439 741,-215.439 741,-196.439 623,-196.439"/>
<text text-anchor="middle" x="682" y="-203.439" font-family="Helvetica,sans-Serif" font-size="10.00">txInternalTemperatureF</text>
</a>
</g>
</g>
<!-- Node12&#45;&gt;Node27 -->
<g id="edge34" class="edge"><title>Node12&#45;&gt;Node27</title>
<path fill="none" stroke="midnightblue" d="M576.268,-253.177C588.074,-244.829 606.048,-232.931 623,-224.939 627.614,-222.763 632.543,-220.734 637.507,-218.873"/>
<polygon fill="midnightblue" stroke="midnightblue" points="638.76,-222.143 647.02,-215.508 636.425,-215.544 638.76,-222.143"/>
</g>
<!-- Node28 -->
<g id="node28" class="node"><title>Node28</title>
<g id="a_node28"><a xlink:href="actions_8cpp.html#aaabb3ac0c23f35a499bc17efe829f326" target="_top" xlink:title="Transmit the 24&#45;hr time. ">
<polygon fill="white" stroke="black" points="643,-272.439 643,-291.439 721,-291.439 721,-272.439 643,-272.439"/>
<text text-anchor="middle" x="682" y="-279.439" font-family="Helvetica,sans-Serif" font-size="10.00">txTimeHHMM</text>
</a>
</g>
</g>
<!-- Node12&#45;&gt;Node28 -->
<g id="edge37" class="edge"><title>Node12&#45;&gt;Node28</title>
<path fill="none" stroke="midnightblue" d="M587.164,-261.259C604.31,-262.695 627.572,-266.232 646.645,-270.21"/>
<polygon fill="midnightblue" stroke="midnightblue" points="645.942,-273.639 656.463,-272.388 647.458,-266.805 645.942,-273.639"/>
</g>
<!-- Node29 -->
<g id="node29" class="node"><title>Node29</title>
<g id="a_node29"><a xlink:href="actions_8cpp.html#ad02149679fa3cc6a4957d1a318408ffd" target="_top" xlink:title="Transmit the uptime. ">
<polygon fill="white" stroke="black" points="654,-234.439 654,-253.439 710,-253.439 710,-234.439 654,-234.439"/>
<text text-anchor="middle" x="682" y="-241.439" font-family="Helvetica,sans-Serif" font-size="10.00">txUptime</text>
</a>
</g>
</g>
<!-- Node12&#45;&gt;Node29 -->
<g id="edge39" class="edge"><title>Node12&#45;&gt;Node29</title>
<path fill="none" stroke="midnightblue" d="M587.164,-259.048C603.548,-256.41 625.518,-252.872 644.079,-249.883"/>
<polygon fill="midnightblue" stroke="midnightblue" points="644.667,-253.334 653.984,-248.289 643.555,-246.423 644.667,-253.334"/>
</g>
<!-- Node31 -->
<g id="node31" class="node"><title>Node31</title>
<g id="a_node31"><a xlink:href="teensy3__morse__bsp_8cpp.html#ae8dd28759e56dbd2ee9bc9ae96d1783c" target="_top" xlink:title="Return the most recent ADC measurement of the input voltage. Perform analog to digital conversion on ...">
<polygon fill="white" stroke="black" points="645,-120.439 645,-139.439 719,-139.439 719,-120.439 645,-120.439"/>
<text text-anchor="middle" x="682" y="-127.439" font-family="Helvetica,sans-Serif" font-size="10.00">readMillivolts</text>
</a>
</g>
</g>
<!-- Node12&#45;&gt;Node31 -->
<g id="edge42" class="edge"><title>Node12&#45;&gt;Node31</title>
<path fill="none" stroke="midnightblue" d="M565.835,-253.397C572.479,-232.568 590.967,-182.604 623,-153.939 627.422,-149.981 632.587,-146.622 637.979,-143.785"/>
<polygon fill="midnightblue" stroke="midnightblue" points="639.596,-146.892 647.176,-139.49 636.634,-140.55 639.596,-146.892"/>
</g>
<!-- Node35 -->
<g id="node35" class="node"><title>Node35</title>
<g id="a_node35"><a xlink:href="libmorse_8cpp.html#ac3f000c98271c6d0a7710135e18189bc" target="_top" xlink:title="On my hardware there is cross&#45;coupling between the serial port and the touch sensors. Without the code below, long messages to the serial port trigger a touch input. ">
<polygon fill="white" stroke="black" points="807.5,-82.4386 807.5,-101.439 872.5,-101.439 872.5,-82.4386 807.5,-82.4386"/>
<text text-anchor="middle" x="840" y="-89.4386" font-family="Helvetica,sans-Serif" font-size="10.00">flushTouch</text>
</a>
</g>
</g>
<!-- Node12&#45;&gt;Node35 -->
<g id="edge46" class="edge"><title>Node12&#45;&gt;Node35</title>
<path fill="none" stroke="midnightblue" d="M563.491,-253.431C565.468,-226.03 575.259,-146.58 623,-110.939 673.34,-73.3572 749.836,-76.6985 796.996,-83.5795"/>
<polygon fill="midnightblue" stroke="midnightblue" points="796.745,-87.0831 807.168,-85.1853 797.837,-80.1688 796.745,-87.0831"/>
</g>
<!-- Node14 -->
<g id="node14" class="node"><title>Node14</title>
<g id="a_node14"><a xlink:href="teensy3__morse__bsp_8cpp.html#af6899cd9b83df54106b259ab81ea5cb2" target="_top" xlink:title="touchMargin">
<polygon fill="white" stroke="black" points="1092,-82.4386 1092,-101.439 1162,-101.439 1162,-82.4386 1092,-82.4386"/>
<text text-anchor="middle" x="1127" y="-89.4386" font-family="Helvetica,sans-Serif" font-size="10.00">touchMargin</text>
</a>
</g>
</g>
<!-- Node13&#45;&gt;Node14 -->
<g id="edge14" class="edge"><title>Node13&#45;&gt;Node14</title>
<path fill="none" stroke="midnightblue" d="M1026.17,-91.9386C1042.28,-91.9386 1062.98,-91.9386 1081.35,-91.9386"/>
<polygon fill="midnightblue" stroke="midnightblue" points="1081.56,-95.4387 1091.56,-91.9386 1081.56,-88.4387 1081.56,-95.4387"/>
</g>
<!-- Node16&#45;&gt;Node9 -->
<g id="edge17" class="edge"><title>Node16&#45;&gt;Node9</title>
<path fill="none" stroke="midnightblue" d="M1141.02,-405.471C1161.14,-420.194 1199.97,-448.616 1224.21,-466.356"/>
<polygon fill="midnightblue" stroke="midnightblue" points="1222.28,-469.282 1232.42,-472.364 1226.42,-463.633 1222.28,-469.282"/>
</g>
<!-- Node16&#45;&gt;Node11 -->
<g id="edge26" class="edge"><title>Node16&#45;&gt;Node11</title>
<path fill="none" stroke="midnightblue" d="M1108.03,-405.528C1094.15,-412.592 1074.29,-421.971 1056,-427.939 963.273,-458.187 938.536,-471.939 841,-471.939 681,-471.939 681,-471.939 681,-471.939 608.83,-471.939 525.673,-453.809 481.138,-442.595"/>
<polygon fill="midnightblue" stroke="midnightblue" points="481.754,-439.139 471.198,-440.044 480.014,-445.92 481.754,-439.139"/>
</g>
<!-- Node16&#45;&gt;Node15 -->
<g id="edge25" class="edge"><title>Node16&#45;&gt;Node15</title>
<path fill="none" stroke="midnightblue" d="M1133.2,-386.29C1151.29,-352.736 1211.64,-240.765 1235.58,-196.334"/>
<polygon fill="midnightblue" stroke="midnightblue" points="1238.7,-197.939 1240.36,-187.476 1232.53,-194.618 1238.7,-197.939"/>
</g>
<!-- Node17 -->
<g id="node17" class="node"><title>Node17</title>
<g id="a_node17"><a xlink:href="teensy3__morse__bsp_8cpp.html#af66e71e3fac9b6a2c6532bc8a513bfde" target="_top" xlink:title="Output a square wave on pin 10 at the given frequency for the given duration. ">
<polygon fill="white" stroke="black" points="1227.5,-405.439 1227.5,-424.439 1265.5,-424.439 1265.5,-405.439 1227.5,-405.439"/>
<text text-anchor="middle" x="1246.5" y="-412.439" font-family="Helvetica,sans-Serif" font-size="10.00">beep</text>
</a>
</g>
</g>
<!-- Node16&#45;&gt;Node17 -->
<g id="edge18" class="edge"><title>Node16&#45;&gt;Node17</title>
<path fill="none" stroke="midnightblue" d="M1152.63,-399.922C1171.57,-402.984 1197.75,-407.217 1217.48,-410.408"/>
<polygon fill="midnightblue" stroke="midnightblue" points="1216.99,-413.874 1227.42,-412.015 1218.11,-406.964 1216.99,-413.874"/>
</g>
<!-- Node23 -->
<g id="node23" class="node"><title>Node23</title>
<g id="a_node23"><a xlink:href="settings_8cpp.html#a8575b9b52638114a4f32d1462cf9b7c1" target="_top" xlink:title="Get the transmission frequency (side tone). ">
<polygon fill="white" stroke="black" points="1219.5,-367.439 1219.5,-386.439 1273.5,-386.439 1273.5,-367.439 1219.5,-367.439"/>
<text text-anchor="middle" x="1246.5" y="-374.439" font-family="Helvetica,sans-Serif" font-size="10.00">getTxHz</text>
</a>
</g>
</g>
<!-- Node16&#45;&gt;Node23 -->
<g id="edge24" class="edge"><title>Node16&#45;&gt;Node23</title>
<path fill="none" stroke="midnightblue" d="M1152.63,-391.956C1169.02,-389.305 1190.83,-385.778 1209.2,-382.808"/>
<polygon fill="midnightblue" stroke="midnightblue" points="1209.96,-386.232 1219.27,-381.18 1208.84,-379.321 1209.96,-386.232"/>
</g>
<!-- Node18 -->
<g id="node18" class="node"><title>Node18</title>
<g id="a_node18"><a xlink:href="teensy3__morse__bsp_8cpp.html#a6f674d5b9985ea3a7eeb0df299c2e405" target="_top" xlink:title="pollEarphonePresent">
<polygon fill="white" stroke="black" points="1331,-462.439 1331,-481.439 1438,-481.439 1438,-462.439 1331,-462.439"/>
<text text-anchor="middle" x="1384.5" y="-469.439" font-family="Helvetica,sans-Serif" font-size="10.00">pollEarphonePresent</text>
</a>
</g>
</g>
<!-- Node17&#45;&gt;Node18 -->
<g id="edge19" class="edge"><title>Node17&#45;&gt;Node18</title>
<path fill="none" stroke="midnightblue" d="M1265.56,-423.664C1282.35,-431.653 1308.14,-443.618 1331,-452.939 1335.87,-454.923 1341.03,-456.92 1346.14,-458.834"/>
<polygon fill="midnightblue" stroke="midnightblue" points="1345.23,-462.228 1355.82,-462.389 1347.64,-455.657 1345.23,-462.228"/>
</g>
<!-- Node19 -->
<g id="node19" class="node"><title>Node19</title>
<g id="a_node19"><a xlink:href="teensy3__morse__bsp_8cpp.html#a2d6b4ace33ed5e497dedd03217540c63" target="_top" xlink:title="Set the PWM frequency for the audio output pins. ">
<polygon fill="white" stroke="black" points="1343,-424.439 1343,-443.439 1426,-443.439 1426,-424.439 1343,-424.439"/>
<text text-anchor="middle" x="1384.5" y="-431.439" font-family="Helvetica,sans-Serif" font-size="10.00">pwmFrequency</text>
</a>
</g>
</g>
<!-- Node17&#45;&gt;Node19 -->
<g id="edge20" class="edge"><title>Node17&#45;&gt;Node19</title>
<path fill="none" stroke="midnightblue" d="M1265.56,-417.462C1282.62,-419.845 1309.02,-423.533 1332.52,-426.816"/>
<polygon fill="midnightblue" stroke="midnightblue" points="1332.33,-430.324 1342.72,-428.242 1333.3,-423.392 1332.33,-430.324"/>
</g>
<!-- Node20 -->
<g id="node20" class="node"><title>Node20</title>
<g id="a_node20"><a xlink:href="teensy3__morse__bsp_8cpp.html#a82911eac3bf13d6f36d10102a4c4d3c4" target="_top" xlink:title="Generate a tone on the audio output pins. ">
<polygon fill="white" stroke="black" points="1354,-386.439 1354,-405.439 1415,-405.439 1415,-386.439 1354,-386.439"/>
<text text-anchor="middle" x="1384.5" y="-393.439" font-family="Helvetica,sans-Serif" font-size="10.00">pwmWrite</text>
</a>
</g>
</g>
<!-- Node17&#45;&gt;Node20 -->
<g id="edge21" class="edge"><title>Node17&#45;&gt;Node20</title>
<path fill="none" stroke="midnightblue" d="M1265.56,-412.416C1285.46,-409.635 1318.08,-405.078 1343.98,-401.46"/>
<polygon fill="midnightblue" stroke="midnightblue" points="1344.47,-404.925 1353.89,-400.075 1343.5,-397.993 1344.47,-404.925"/>
</g>
<!-- Node22 -->
<g id="node22" class="node"><title>Node22</title>
<g id="a_node22"><a xlink:href="teensy3__morse__bsp_8cpp.html#a6c982a7d7805f1dd5426eb98c915cfdd" target="_top" xlink:title="Turn the red LED on (1) or off (0). ">
<polygon fill="white" stroke="black" points="1359.5,-348.439 1359.5,-367.439 1409.5,-367.439 1409.5,-348.439 1359.5,-348.439"/>
<text text-anchor="middle" x="1384.5" y="-355.439" font-family="Helvetica,sans-Serif" font-size="10.00">redLED</text>
</a>
</g>
</g>
<!-- Node17&#45;&gt;Node22 -->
<g id="edge23" class="edge"><title>Node17&#45;&gt;Node22</title>
<path fill="none" stroke="midnightblue" d="M1265.73,-408.162C1274.65,-404.717 1285.49,-400.337 1295,-395.939 1311.42,-388.346 1314.45,-384.257 1331,-376.939 1336.99,-374.288 1343.48,-371.713 1349.78,-369.358"/>
<polygon fill="midnightblue" stroke="midnightblue" points="1351.23,-372.556 1359.44,-365.859 1348.85,-365.975 1351.23,-372.556"/>
</g>
<!-- Node21 -->
<g id="node21" class="node"><title>Node21</title>
<g id="a_node21"><a xlink:href="teensy3__morse__bsp_8cpp.html#ac70998cee1bf97f00aec4a1b4e5a4f60" target="_top" xlink:title="isEarphonePresent">
<polygon fill="white" stroke="black" points="1474,-386.439 1474,-405.439 1573,-405.439 1573,-386.439 1474,-386.439"/>
<text text-anchor="middle" x="1523.5" y="-393.439" font-family="Helvetica,sans-Serif" font-size="10.00">isEarphonePresent</text>
</a>
</g>
</g>
<!-- Node20&#45;&gt;Node21 -->
<g id="edge22" class="edge"><title>Node20&#45;&gt;Node21</title>
<path fill="none" stroke="midnightblue" d="M1415.23,-395.939C1429.43,-395.939 1446.96,-395.939 1463.7,-395.939"/>
<polygon fill="midnightblue" stroke="midnightblue" points="1463.98,-399.439 1473.98,-395.939 1463.98,-392.439 1463.98,-399.439"/>
</g>
<!-- Node24&#45;&gt;Node11 -->
<g id="edge29" class="edge"><title>Node24&#45;&gt;Node11</title>
<path fill="none" stroke="midnightblue" d="M972.396,-363.705C953.58,-368.058 926.736,-373.944 903,-377.939 745.873,-404.381 556.178,-423.773 481.474,-430.924"/>
<polygon fill="midnightblue" stroke="midnightblue" points="480.928,-427.46 471.304,-431.89 481.59,-434.429 480.928,-427.46"/>
</g>
<!-- Node24&#45;&gt;Node16 -->
<g id="edge28" class="edge"><title>Node24&#45;&gt;Node16</title>
<path fill="none" stroke="midnightblue" d="M1022.78,-365.176C1042.24,-370.976 1069.79,-379.187 1091.54,-385.667"/>
<polygon fill="midnightblue" stroke="midnightblue" points="1090.79,-389.097 1101.37,-388.599 1092.79,-382.389 1090.79,-389.097"/>
</g>
<!-- Node26&#45;&gt;Node13 -->
<g id="edge32" class="edge"><title>Node26&#45;&gt;Node13</title>
<path fill="none" stroke="midnightblue" d="M863.811,-225.29C876.74,-218.855 892.4,-209.303 903,-196.939 929.968,-165.48 908.59,-139.084 939,-110.939 944.623,-105.734 951.704,-101.953 958.958,-99.2071"/>
<polygon fill="midnightblue" stroke="midnightblue" points="960.365,-102.432 968.835,-96.067 958.244,-95.7612 960.365,-102.432"/>
</g>
<!-- Node26&#45;&gt;Node24 -->
<g id="edge33" class="edge"><title>Node26&#45;&gt;Node24</title>
<path fill="none" stroke="midnightblue" d="M873.024,-241.205C883.121,-244.086 893.984,-248.186 903,-253.939 938.619,-276.666 969.018,-316.552 984.835,-339.767"/>
<polygon fill="midnightblue" stroke="midnightblue" points="982.07,-341.93 990.517,-348.324 987.901,-338.058 982.07,-341.93"/>
</g>
<!-- Node27&#45;&gt;Node25 -->
<g id="edge35" class="edge"><title>Node27&#45;&gt;Node25</title>
<path fill="none" stroke="midnightblue" d="M736.25,-196.381C749.051,-194.083 762.845,-191.607 776.041,-189.239"/>
<polygon fill="midnightblue" stroke="midnightblue" points="776.766,-192.665 785.99,-187.453 775.529,-185.775 776.766,-192.665"/>
</g>
<!-- Node27&#45;&gt;Node26 -->
<g id="edge36" class="edge"><title>Node27&#45;&gt;Node26</title>
<path fill="none" stroke="midnightblue" d="M734.513,-215.515C754.674,-219.263 777.514,-223.508 796.687,-227.073"/>
<polygon fill="midnightblue" stroke="midnightblue" points="796.161,-230.535 806.632,-228.921 797.44,-223.653 796.161,-230.535"/>
</g>
<!-- Node28&#45;&gt;Node12 -->
<g id="edge38" class="edge"><title>Node28&#45;&gt;Node12</title>
<path fill="none" stroke="midnightblue" d="M642.929,-282.166C628.193,-280.369 611.455,-277.616 597.117,-274.617"/>
<polygon fill="midnightblue" stroke="midnightblue" points="597.686,-271.158 587.164,-272.4 596.164,-277.991 597.686,-271.158"/>
</g>
<!-- Node29&#45;&gt;Node26 -->
<g id="edge41" class="edge"><title>Node29&#45;&gt;Node26</title>
<path fill="none" stroke="midnightblue" d="M710.173,-242.371C734.014,-240.995 769.076,-238.973 796.605,-237.384"/>
<polygon fill="midnightblue" stroke="midnightblue" points="796.966,-240.87 806.748,-236.799 796.563,-233.881 796.966,-240.87"/>
</g>
<!-- Node30 -->
<g id="node30" class="node"><title>Node30</title>
<g id="a_node30"><a xlink:href="settings_8cpp.html#a7b4efa097b94f9a90c5bbafcdf93fe4f" target="_top" xlink:title="getUptime">
<polygon fill="white" stroke="black" points="809,-263.439 809,-282.439 871,-282.439 871,-263.439 809,-263.439"/>
<text text-anchor="middle" x="840" y="-270.439" font-family="Helvetica,sans-Serif" font-size="10.00">getUptime</text>
</a>
</g>
</g>
<!-- Node29&#45;&gt;Node30 -->
<g id="edge40" class="edge"><title>Node29&#45;&gt;Node30</title>
<path fill="none" stroke="midnightblue" d="M710.173,-248.99C734.741,-253.557 771.225,-260.339 799.102,-265.522"/>
<polygon fill="midnightblue" stroke="midnightblue" points="798.473,-268.965 808.945,-267.351 799.753,-262.083 798.473,-268.965"/>
</g>
<!-- Node32 -->
<g id="node32" class="node"><title>Node32</title>
<g id="a_node32"><a xlink:href="class_voltage_monitor.html#a70902b84f9864c95d5553a0644a64f4f" target="_top" xlink:title="Return the latest voltage reading. ">
<polygon fill="white" stroke="black" points="777,-120.439 777,-139.439 903,-139.439 903,-120.439 777,-120.439"/>
<text text-anchor="middle" x="840" y="-127.439" font-family="Helvetica,sans-Serif" font-size="10.00">VoltageMonitor::getValue</text>
</a>
</g>
</g>
<!-- Node31&#45;&gt;Node32 -->
<g id="edge43" class="edge"><title>Node31&#45;&gt;Node32</title>
<path fill="none" stroke="midnightblue" d="M719.182,-129.939C733.344,-129.939 750.117,-129.939 766.56,-129.939"/>
<polygon fill="midnightblue" stroke="midnightblue" points="766.728,-133.439 776.728,-129.939 766.728,-126.439 766.728,-133.439"/>
</g>
<!-- Node33 -->
<g id="node33" class="node"><title>Node33</title>
<g id="a_node33"><a xlink:href="actions_8cpp.html#a2b8c3769e2aa32a2da9e2f3f85ac73dd" target="_top" xlink:title="A sample ADC reading is taken each time through the main loop, and written to a ring buffer...">
<polygon fill="white" stroke="black" points="941.5,-158.439 941.5,-177.439 1053.5,-177.439 1053.5,-158.439 941.5,-158.439"/>
<text text-anchor="middle" x="997.5" y="-165.439" font-family="Helvetica,sans-Serif" font-size="10.00">getVoltagePollInterval</text>
</a>
</g>
</g>
<!-- Node32&#45;&gt;Node33 -->
<g id="edge44" class="edge"><title>Node32&#45;&gt;Node33</title>
<path fill="none" stroke="midnightblue" d="M880.239,-139.528C900.759,-144.542 926.067,-150.727 947.825,-156.044"/>
<polygon fill="midnightblue" stroke="midnightblue" points="946.998,-159.445 957.543,-158.419 948.66,-152.645 946.998,-159.445"/>
</g>
<!-- Node34 -->
<g id="node34" class="node"><title>Node34</title>
<g id="a_node34"><a xlink:href="class_voltage_monitor.html#a75871331808c34b40d04059ee2af0f27" target="_top" xlink:title="Filter and scale raw ADC values to millivolts. ">
<polygon fill="white" stroke="black" points="939,-120.439 939,-139.439 1056,-139.439 1056,-120.439 939,-120.439"/>
<text text-anchor="middle" x="997.5" y="-127.439" font-family="Helvetica,sans-Serif" font-size="10.00">VoltageMonitor::update</text>
</a>
</g>
</g>
<!-- Node32&#45;&gt;Node34 -->
<g id="edge45" class="edge"><title>Node32&#45;&gt;Node34</title>
<path fill="none" stroke="midnightblue" d="M903.352,-129.939C911.702,-129.939 920.298,-129.939 928.735,-129.939"/>
<polygon fill="midnightblue" stroke="midnightblue" points="928.92,-133.439 938.92,-129.939 928.92,-126.439 928.92,-133.439"/>
</g>
<!-- Node35&#45;&gt;Node13 -->
<g id="edge47" class="edge"><title>Node35&#45;&gt;Node13</title>
<path fill="none" stroke="midnightblue" d="M872.843,-91.9386C897.677,-91.9386 932.247,-91.9386 958.522,-91.9386"/>
<polygon fill="midnightblue" stroke="midnightblue" points="958.864,-95.4387 968.864,-91.9386 958.863,-88.4387 958.864,-95.4387"/>
</g>
<!-- Node36&#45;&gt;Node3 -->
<g id="edge49" class="edge"><title>Node36&#45;&gt;Node3</title>
<path fill="none" stroke="midnightblue" d="M202.009,-588.429C234.561,-592.144 302.894,-597.535 359,-585.939 380.933,-581.405 404.127,-571.136 421.194,-562.414"/>
<polygon fill="midnightblue" stroke="midnightblue" points="423.269,-565.277 430.478,-557.513 420.001,-559.086 423.269,-565.277"/>
</g>
<!-- Node37 -->
<g id="node37" class="node"><title>Node37</title>
<g id="a_node37"><a xlink:href="class_stack.html#a8b4caa181ab4cc209c270338e919cf8b" target="_top" xlink:title="Discard the top element, if the stack is not empty. ">
<polygon fill="white" stroke="black" points="280.5,-557.439 280.5,-576.439 344.5,-576.439 344.5,-557.439 280.5,-557.439"/>
<text text-anchor="middle" x="312.5" y="-564.439" font-family="Helvetica,sans-Serif" font-size="10.00">Stack::pop</text>
</a>
</g>
</g>
<!-- Node36&#45;&gt;Node37 -->
<g id="edge50" class="edge"><title>Node36&#45;&gt;Node37</title>
<path fill="none" stroke="midnightblue" d="M202.238,-583.094C220.088,-580.455 247.254,-576.438 270.031,-573.07"/>
<polygon fill="midnightblue" stroke="midnightblue" points="270.758,-576.501 280.139,-571.576 269.734,-569.576 270.758,-576.501"/>
</g>
<!-- Node38&#45;&gt;Node7 -->
<g id="edge52" class="edge"><title>Node38&#45;&gt;Node7</title>
<path fill="none" stroke="midnightblue" d="M328.555,-471.939C342.385,-471.939 363.843,-471.939 384.717,-471.939"/>
<polygon fill="midnightblue" stroke="midnightblue" points="384.881,-475.439 394.881,-471.939 384.881,-468.439 384.881,-475.439"/>
</g>
<!-- Node38&#45;&gt;Node11 -->
<g id="edge53" class="edge"><title>Node38&#45;&gt;Node11</title>
<path fill="none" stroke="midnightblue" d="M328.555,-467.653C349.355,-461.733 387.411,-450.9 414.78,-443.11"/>
<polygon fill="midnightblue" stroke="midnightblue" points="416.028,-446.394 424.688,-440.29 414.112,-439.661 416.028,-446.394"/>
</g>
</g>
</svg>
        <g id="navigator" transform="translate(0 0)" fill="#404254">
                <rect fill="#f2f5e9" fill-opacity="0.5" stroke="#606060" stroke-width=".5" x="0" y="0" width="60" height="60"/>
                <use id="zoomplus" xlink:href="#zoomPlus" x="17" y="9" onmousedown="handleZoom(evt,'in')"/>
                <use id="zoomminus" xlink:href="#zoomMin" x="42" y="9" onmousedown="handleZoom(evt,'out')"/>
                <use id="reset" xlink:href="#resetDef" x="30" y="36" onmousedown="handleReset()"/>
                <g id="arrowUp" xlink:href="#dirArrow" transform="translate(30 24)" onmousedown="handlePan(0,-1)">
                  <use xlink:href="#rim" fill="#404040">
                        <set attributeName="fill" to="#808080" begin="arrowUp.mouseover" end="arrowUp.mouseout"/>
                  </use>
                  <path fill="none" stroke="white" stroke-width="1.5" d="M0,-3.0v7 M-2.5,-0.5L0,-3.0L2.5,-0.5"/>
                </g>
                <g id="arrowRight" xlink:href="#dirArrow" transform="rotate(90) translate(36 -43)" onmousedown="handlePan(1,0)">
                  <use xlink:href="#rim" fill="#404040">
                        <set attributeName="fill" to="#808080" begin="arrowRight.mouseover" end="arrowRight.mouseout"/>
                  </use>
                  <path fill="none" stroke="white" stroke-width="1.5" d="M0,-3.0v7 M-2.5,-0.5L0,-3.0L2.5,-0.5"/>
                </g>
                <g id="arrowDown" xlink:href="#dirArrow" transform="rotate(180) translate(-30 -48)" onmousedown="handlePan(0,1)">
                  <use xlink:href="#rim" fill="#404040">
                        <set attributeName="fill" to="#808080" begin="arrowDown.mouseover" end="arrowDown.mouseout"/>
                  </use>
                  <path fill="none" stroke="white" stroke-width="1.5" d="M0,-3.0v7 M-2.5,-0.5L0,-3.0L2.5,-0.5"/>
                </g>
                <g id="arrowLeft" xlink:href="#dirArrow" transform="rotate(270) translate(-36 17)" onmousedown="handlePan(-1,0)">
                  <use xlink:href="#rim" fill="#404040">
                        <set attributeName="fill" to="#808080" begin="arrowLeft.mouseover" end="arrowLeft.mouseout"/>
                  </use>
                  <path fill="none" stroke="white" stroke-width="1.5" d="M0,-3.0v7 M-2.5,-0.5L0,-3.0L2.5,-0.5"/>
                </g>
        </g>
        <svg viewBox="0 0 15 15" width="100%" height="30px" preserveAspectRatio="xMaxYMin meet">
         <g id="arrow_out" transform="scale(0.3 0.3)">
          <a xlink:href="pda_8h_ac1f9ea31ffc81530ac4a07fa2469f13c_cgraph_org.svg" target="_base">
           <rect id="button" ry="5" rx="5" y="6" x="6" height="38" width="38"
                fill="#f2f5e9" fill-opacity="0.5" stroke="#606060" stroke-width="1.0"/>
           <path id="arrow"
             d="M 11.500037,31.436501 C 11.940474,20.09759 22.043105,11.32322 32.158766,21.979434 L 37.068811,17.246167 C 37.068811,17.246167 37.088388,32 37.088388,32 L 22.160133,31.978069 C 22.160133,31.978069 26.997745,27.140456 26.997745,27.140456 C 18.528582,18.264221 13.291696,25.230495 11.500037,31.436501 z"
             style="fill:#404040;"/>
          </a>
         </g>
        </svg>
</svg>
