<?xml version="1.0" encoding="UTF-8" standalone="no"?>
<!DOCTYPE svg PUBLIC "-//W3C//DTD SVG 1.1//EN"
 "http://www.w3.org/Graphics/SVG/1.1/DTD/svg11.dtd">
<!-- Generated by graphviz version 2.38.0 (20140413.2041)
 -->
<!-- Title: alphaBravoCharlie Pages: 1 -->
<svg width="345pt" height="104pt"
 viewBox="0.00 0.00 345.00 104.00" xmlns="http://www.w3.org/2000/svg" xmlns:xlink="http://www.w3.org/1999/xlink">
<g id="graph0" class="graph" transform="scale(1 1) rotate(0) translate(4 100)">
<title>alphaBravoCharlie</title>
<polygon fill="white" stroke="none" points="-4,4 -4,-100 341,-100 341,4 -4,4"/>
<!-- Node1 -->
<g id="node1" class="node"><title>Node1</title>
<polygon fill="#bfbfbf" stroke="black" points="0,-38.5 0,-57.5 96,-57.5 96,-38.5 0,-38.5"/>
<text text-anchor="middle" x="48" y="-45.5" font-family="Helvetica,sans-Serif" font-size="10.00">alphaBravoCharlie</text>
</g>
<!-- Node2 -->
<g id="node2" class="node"><title>Node2</title>
<g id="a_node2"><a xlink:href="pda_8h.html#a5875d17f5eb7a7cb45b34d772ea743d8" target="_top" xlink:title="txAlphabetSong">
<polygon fill="white" stroke="black" points="138,-76.5 138,-95.5 224,-95.5 224,-76.5 138,-76.5"/>
<text text-anchor="middle" x="181" y="-83.5" font-family="Helvetica,sans-Serif" font-size="10.00">txAlphabetSong</text>
</a>
</g>
</g>
<!-- Node1&#45;&gt;Node2 -->
<g id="edge1" class="edge"><title>Node1&#45;&gt;Node2</title>
<path fill="none" stroke="midnightblue" d="M91.7148,-60.3906C109.655,-65.5945 130.2,-71.5541 146.954,-76.4141"/>
<polygon fill="midnightblue" stroke="midnightblue" points="92.636,-57.0136 82.0568,-57.589 90.6858,-63.7364 92.636,-57.0136"/>
</g>
<!-- Node3 -->
<g id="node3" class="node"><title>Node3</title>
<g id="a_node3"><a xlink:href="pda_8h.html#ac1f9ea31ffc81530ac4a07fa2469f13c" target="_top" xlink:title="txAlfaBravoCharlie">
<polygon fill="white" stroke="black" points="132,-38.5 132,-57.5 230,-57.5 230,-38.5 132,-38.5"/>
<text text-anchor="middle" x="181" y="-45.5" font-family="Helvetica,sans-Serif" font-size="10.00">txAlfaBravoCharlie</text>
</a>
</g>
</g>
<!-- Node1&#45;&gt;Node3 -->
<g id="edge2" class="edge"><title>Node1&#45;&gt;Node3</title>
<path fill="none" stroke="midnightblue" d="M106.503,-48C114.979,-48 123.636,-48 131.895,-48"/>
<polygon fill="midnightblue" stroke="midnightblue" points="106.294,-44.5001 96.294,-48 106.294,-51.5001 106.294,-44.5001"/>
</g>
<!-- Node5 -->
<g id="node5" class="node"><title>Node5</title>
<g id="a_node5"><a xlink:href="pda_8cpp.html#a47afc6664036a43243457f6f66cb90f8" target="_top" xlink:title="txAlphaNNN">
<polygon fill="white" stroke="black" points="145,-0.5 145,-19.5 217,-19.5 217,-0.5 145,-0.5"/>
<text text-anchor="middle" x="181" y="-7.5" font-family="Helvetica,sans-Serif" font-size="10.00">txAlphaNNN</text>
</a>
</g>
</g>
<!-- Node1&#45;&gt;Node5 -->
<g id="edge4" class="edge"><title>Node1&#45;&gt;Node5</title>
<path fill="none" stroke="midnightblue" d="M91.7148,-35.6094C109.655,-30.4055 130.2,-24.4459 146.954,-19.5859"/>
<polygon fill="midnightblue" stroke="midnightblue" points="90.6858,-32.2636 82.0568,-38.411 92.636,-38.9864 90.6858,-32.2636"/>
</g>
<!-- Node4 -->
<g id="node4" class="node"><title>Node4</title>
<g id="a_node4"><a xlink:href="pda_8h.html#a5218392624b017b817b80d6b16ea920d" target="_top" xlink:title="askNextAlfa">
<polygon fill="white" stroke="black" points="266,-38.5 266,-57.5 337,-57.5 337,-38.5 266,-38.5"/>
<text text-anchor="middle" x="301.5" y="-45.5" font-family="Helvetica,sans-Serif" font-size="10.00">askNextAlfa</text>
</a>
</g>
</g>
<!-- Node3&#45;&gt;Node4 -->
<g id="edge3" class="edge"><title>Node3&#45;&gt;Node4</title>
<path fill="none" stroke="midnightblue" d="M240.356,-48C249.058,-48 257.785,-48 265.787,-48"/>
<polygon fill="midnightblue" stroke="midnightblue" points="240.199,-44.5001 230.198,-48 240.198,-51.5001 240.199,-44.5001"/>
</g>
</g>
</svg>
