<?xml version="1.0" encoding="UTF-8" standalone="no"?>
<!DOCTYPE svg PUBLIC "-//W3C//DTD SVG 1.1//EN"
 "http://www.w3.org/Graphics/SVG/1.1/DTD/svg11.dtd">
<!-- Generated by graphviz version 2.38.0 (20140413.2041)
 -->
<!-- Title: guitarTune Pages: 1 -->
<svg width="432pt" height="104pt"
 viewBox="0.00 0.00 432.00 104.00" xmlns="http://www.w3.org/2000/svg" xmlns:xlink="http://www.w3.org/1999/xlink">
<g id="graph0" class="graph" transform="scale(1 1) rotate(0) translate(4 100)">
<title>guitarTune</title>
<polygon fill="white" stroke="none" points="-4,4 -4,-100 428,-100 428,4 -4,4"/>
<!-- Node1 -->
<g id="node1" class="node"><title>Node1</title>
<polygon fill="#bfbfbf" stroke="black" points="0,-57.5 0,-76.5 62,-76.5 62,-57.5 0,-57.5"/>
<text text-anchor="middle" x="31" y="-64.5" font-family="Helvetica,sans-Serif" font-size="10.00">guitarTune</text>
</g>
<!-- Node2 -->
<g id="node2" class="node"><title>Node2</title>
<g id="a_node2"><a xlink:href="settings_8cpp.html#a960551e90dfdad18f3c9b1338ccba7db" target="_top" xlink:title="Get the dit duration in microseconds. ">
<polygon fill="white" stroke="black" points="98,-76.5 98,-95.5 170,-95.5 170,-76.5 98,-76.5"/>
<text text-anchor="middle" x="134" y="-83.5" font-family="Helvetica,sans-Serif" font-size="10.00">getDitMicros</text>
</a>
</g>
</g>
<!-- Node1&#45;&gt;Node2 -->
<g id="edge1" class="edge"><title>Node1&#45;&gt;Node2</title>
<path fill="none" stroke="midnightblue" d="M62.0299,-72.6492C70.138,-74.1745 79.0935,-75.8592 87.8335,-77.5033"/>
<polygon fill="midnightblue" stroke="midnightblue" points="87.4562,-80.9937 97.9309,-79.4028 88.7504,-74.1143 87.4562,-80.9937"/>
</g>
<!-- Node3 -->
<g id="node3" class="node"><title>Node3</title>
<g id="a_node3"><a xlink:href="sound_8cpp.html#a77ffd11f8a990ba2130061186e49535a" target="_top" xlink:title="Play a PWM tone at a given frequency and duration. ">
<polygon fill="white" stroke="black" points="106,-38.5 106,-57.5 162,-57.5 162,-38.5 106,-38.5"/>
<text text-anchor="middle" x="134" y="-45.5" font-family="Helvetica,sans-Serif" font-size="10.00">playTone</text>
</a>
</g>
</g>
<!-- Node1&#45;&gt;Node3 -->
<g id="edge2" class="edge"><title>Node1&#45;&gt;Node3</title>
<path fill="none" stroke="midnightblue" d="M62.0299,-61.3508C72.6256,-59.3576 84.6686,-57.092 95.7866,-55.0005"/>
<polygon fill="midnightblue" stroke="midnightblue" points="96.4885,-58.43 105.669,-53.1415 95.1943,-51.5507 96.4885,-58.43"/>
</g>
<!-- Node4 -->
<g id="node4" class="node"><title>Node4</title>
<g id="a_node4"><a xlink:href="teensy3__morse__bsp_8cpp.html#a2d6b4ace33ed5e497dedd03217540c63" target="_top" xlink:title="Set the PWM frequency for the audio output pins. ">
<polygon fill="white" stroke="black" points="206,-76.5 206,-95.5 289,-95.5 289,-76.5 206,-76.5"/>
<text text-anchor="middle" x="247.5" y="-83.5" font-family="Helvetica,sans-Serif" font-size="10.00">pwmFrequency</text>
</a>
</g>
</g>
<!-- Node3&#45;&gt;Node4 -->
<g id="edge3" class="edge"><title>Node3&#45;&gt;Node4</title>
<path fill="none" stroke="midnightblue" d="M162.276,-57.2958C176.238,-62.0542 193.457,-67.9226 208.68,-73.1107"/>
<polygon fill="midnightblue" stroke="midnightblue" points="207.747,-76.4903 218.341,-76.4033 210.005,-69.8645 207.747,-76.4903"/>
</g>
<!-- Node5 -->
<g id="node5" class="node"><title>Node5</title>
<g id="a_node5"><a xlink:href="teensy3__morse__bsp_8cpp.html#a82911eac3bf13d6f36d10102a4c4d3c4" target="_top" xlink:title="Generate a tone on the audio output pins. ">
<polygon fill="white" stroke="black" points="217,-38.5 217,-57.5 278,-57.5 278,-38.5 217,-38.5"/>
<text text-anchor="middle" x="247.5" y="-45.5" font-family="Helvetica,sans-Serif" font-size="10.00">pwmWrite</text>
</a>
</g>
</g>
<!-- Node3&#45;&gt;Node5 -->
<g id="edge4" class="edge"><title>Node3&#45;&gt;Node5</title>
<path fill="none" stroke="midnightblue" d="M162.276,-48C175.557,-48 191.785,-48 206.439,-48"/>
<polygon fill="midnightblue" stroke="midnightblue" points="206.767,-51.5001 216.767,-48 206.766,-44.5001 206.767,-51.5001"/>
</g>
<!-- Node7 -->
<g id="node7" class="node"><title>Node7</title>
<g id="a_node7"><a xlink:href="teensy3__morse__bsp_8cpp.html#a36cda3a6dd77f2141cfc703c55a47ff8" target="_top" xlink:title="getDuty">
<polygon fill="white" stroke="black" points="222,-0.5 222,-19.5 273,-19.5 273,-0.5 222,-0.5"/>
<text text-anchor="middle" x="247.5" y="-7.5" font-family="Helvetica,sans-Serif" font-size="10.00">getDuty</text>
</a>
</g>
</g>
<!-- Node3&#45;&gt;Node7 -->
<g id="edge6" class="edge"><title>Node3&#45;&gt;Node7</title>
<path fill="none" stroke="midnightblue" d="M162.276,-38.7042C177.332,-33.5729 196.176,-27.1509 212.219,-21.6831"/>
<polygon fill="midnightblue" stroke="midnightblue" points="213.452,-24.9608 221.788,-18.422 211.194,-18.3351 213.452,-24.9608"/>
</g>
<!-- Node6 -->
<g id="node6" class="node"><title>Node6</title>
<g id="a_node6"><a xlink:href="teensy3__morse__bsp_8cpp.html#ac70998cee1bf97f00aec4a1b4e5a4f60" target="_top" xlink:title="isEarphonePresent">
<polygon fill="white" stroke="black" points="325,-38.5 325,-57.5 424,-57.5 424,-38.5 325,-38.5"/>
<text text-anchor="middle" x="374.5" y="-45.5" font-family="Helvetica,sans-Serif" font-size="10.00">isEarphonePresent</text>
</a>
</g>
</g>
<!-- Node5&#45;&gt;Node6 -->
<g id="edge5" class="edge"><title>Node5&#45;&gt;Node6</title>
<path fill="none" stroke="midnightblue" d="M278.123,-48C289.061,-48 301.876,-48 314.501,-48"/>
<polygon fill="midnightblue" stroke="midnightblue" points="314.545,-51.5001 324.545,-48 314.545,-44.5001 314.545,-51.5001"/>
</g>
</g>
</svg>
