<?xml version="1.0" encoding="UTF-8" standalone="no"?>
<!DOCTYPE svg PUBLIC "-//W3C//DTD SVG 1.1//EN"
 "http://www.w3.org/Graphics/SVG/1.1/DTD/svg11.dtd">
<!-- Generated by graphviz version 2.38.0 (20140413.2041)
 -->
<!-- Title: txAlphaNNN Pages: 1 -->
<!--zoomable 566 -->
<svg id="main" version="1.1" xmlns="http://www.w3.org/2000/svg" xmlns:xlink="http://www.w3.org/1999/xlink" xml:space="preserve" onload="init(evt)">
<style type="text/css"><![CDATA[
.edge:hover path { stroke: red; }
.edge:hover polygon { stroke: red; fill: red; }
]]></style>
<script type="text/javascript"><![CDATA[
var edges = document.getElementsByTagName('g');
if (edges && edges.length) {
  for (var i=0;i<edges.length;i++) {
    if (edges[i].id.substr(0,4)=='edge') {
      edges[i].setAttribute('class','edge');
    }
  }
}
]]></script>
        <defs>
                <circle id="rim" cx="0" cy="0" r="7"/>
                <circle id="rim2" cx="0" cy="0" r="3.5"/>
                <g id="zoomPlus">
                        <use xlink:href="#rim" fill="#404040">
                                <set attributeName="fill" to="#808080" begin="zoomplus.mouseover" end="zoomplus.mouseout"/>
                        </use>
                        <path d="M-4,0h8M0,-4v8" fill="none" stroke="white" stroke-width="1.5" pointer-events="none"/>
                </g>
                <g id="zoomMin">
                        <use xlink:href="#rim" fill="#404040">
                                <set attributeName="fill" to="#808080" begin="zoomminus.mouseover" end="zoomminus.mouseout"/>
                        </use>
                        <path d="M-4,0h8" fill="none" stroke="white" stroke-width="1.5" pointer-events="none"/>
                </g>
                <g id="dirArrow">
                        <path fill="none" stroke="white" stroke-width="1.5" d="M0,-3.0v7 M-2.5,-0.5L0,-3.0L2.5,-0.5"/>
                </g>
               <g id="resetDef">
                       <use xlink:href="#rim2" fill="#404040">
                               <set attributeName="fill" to="#808080" begin="reset.mouseover" end="reset.mouseout"/>
                       </use>
               </g>
        </defs>

<script type="text/javascript">
var viewWidth = 1555;
var viewHeight = 566;
var sectionId = 'dynsection-24';
</script>
<script xlink:href="svgpan.js"/>
<svg id="graph" class="graph">
<g id="viewport">
<title>txAlphaNNN</title>
<polygon fill="white" stroke="none" points="-4,4 -4,-561.939 1551,-561.939 1551,4 -4,4"/>
<!-- Node1 -->
<g id="node1" class="node"><title>Node1</title>
<polygon fill="#bfbfbf" stroke="black" points="0,-415.439 0,-434.439 72,-434.439 72,-415.439 0,-415.439"/>
<text text-anchor="middle" x="36" y="-422.439" font-family="Helvetica,sans-Serif" font-size="10.00">txAlphaNNN</text>
</g>
<!-- Node2 -->
<g id="node2" class="node"><title>Node2</title>
<g id="a_node2"><a xlink:href="stack_8cpp.html#aafac4a86d14d59c34565bc295024e511" target="_top" xlink:title="symbolStackSize">
<polygon fill="white" stroke="black" points="240,-519.439 240,-538.439 333,-538.439 333,-519.439 240,-519.439"/>
<text text-anchor="middle" x="286.5" y="-526.439" font-family="Helvetica,sans-Serif" font-size="10.00">symbolStackSize</text>
</a>
</g>
</g>
<!-- Node1&#45;&gt;Node2 -->
<g id="edge1" class="edge"><title>Node1&#45;&gt;Node2</title>
<path fill="none" stroke="midnightblue" d="M46.1918,-434.485C58.9204,-447.159 83.1665,-469.397 108,-481.939 146.495,-501.379 193.872,-513.398 229.994,-520.41"/>
<polygon fill="midnightblue" stroke="midnightblue" points="229.394,-523.859 239.868,-522.257 230.682,-516.978 229.394,-523.859"/>
</g>
<!-- Node4 -->
<g id="node4" class="node"><title>Node4</title>
<g id="a_node4"><a xlink:href="stack_8cpp.html#abefdfbf9131b5ea5926f9ecbecb6b1e6" target="_top" xlink:title="Access the stack using an index where 0 is the top of the stack. ">
<polygon fill="white" stroke="black" points="141.5,-529.439 141.5,-548.439 170.5,-548.439 170.5,-529.439 141.5,-529.439"/>
<text text-anchor="middle" x="156" y="-536.439" font-family="Helvetica,sans-Serif" font-size="10.00">s</text>
</a>
</g>
</g>
<!-- Node1&#45;&gt;Node4 -->
<g id="edge3" class="edge"><title>Node1&#45;&gt;Node4</title>
<path fill="none" stroke="midnightblue" d="M42.5566,-434.454C53.2969,-452.189 78.4688,-490.689 108,-514.939 115.148,-520.808 123.968,-525.781 132.029,-529.651"/>
<polygon fill="midnightblue" stroke="midnightblue" points="130.764,-532.92 141.322,-533.811 133.625,-526.531 130.764,-532.92"/>
</g>
<!-- Node5 -->
<g id="node5" class="node"><title>Node5</title>
<g id="a_node5"><a xlink:href="class_morse_token.html#adbcf2bf93f283c2c69a93dd69d03c38b" target="_top" xlink:title="Convert Morse 0&#45;9 to the corresponding digit. ">
<polygon fill="white" stroke="black" points="110,-453.439 110,-472.439 202,-472.439 202,-453.439 110,-453.439"/>
<text text-anchor="middle" x="156" y="-460.439" font-family="Helvetica,sans-Serif" font-size="10.00">MorseToken::m2i</text>
</a>
</g>
</g>
<!-- Node1&#45;&gt;Node5 -->
<g id="edge5" class="edge"><title>Node1&#45;&gt;Node5</title>
<path fill="none" stroke="midnightblue" d="M66.7764,-434.528C81.5898,-439.298 99.6914,-445.127 115.634,-450.261"/>
<polygon fill="midnightblue" stroke="midnightblue" points="114.642,-453.619 125.233,-453.353 116.787,-446.956 114.642,-453.619"/>
</g>
<!-- Node11 -->
<g id="node11" class="node"><title>Node11</title>
<g id="a_node11"><a xlink:href="libmorse_8cpp.html#ab94e088615119d1faae7df22ce50aedf" target="_top" xlink:title="Transmit a Morse code prosign indicating an error. ">
<polygon fill="white" stroke="black" points="399,-424.439 399,-443.439 445,-443.439 445,-424.439 399,-424.439"/>
<text text-anchor="middle" x="422" y="-431.439" font-family="Helvetica,sans-Serif" font-size="10.00">txError</text>
</a>
</g>
</g>
<!-- Node1&#45;&gt;Node11 -->
<g id="edge52" class="edge"><title>Node1&#45;&gt;Node11</title>
<path fill="none" stroke="midnightblue" d="M72.0954,-425.761C146.06,-427.495 317.016,-431.501 388.576,-433.179"/>
<polygon fill="midnightblue" stroke="midnightblue" points="388.705,-436.683 398.785,-433.418 388.87,-429.684 388.705,-436.683"/>
</g>
<!-- Node12 -->
<g id="node12" class="node"><title>Node12</title>
<g id="a_node12"><a xlink:href="libmorse_8cpp.html#a0ee2308940264ea9ac8e50afc1a4d285" target="_top" xlink:title="txString">
<polygon fill="white" stroke="black" points="511,-253.439 511,-272.439 561,-272.439 561,-253.439 511,-253.439"/>
<text text-anchor="middle" x="536" y="-260.439" font-family="Helvetica,sans-Serif" font-size="10.00">txString</text>
</a>
</g>
</g>
<!-- Node1&#45;&gt;Node12 -->
<g id="edge51" class="edge"><title>Node1&#45;&gt;Node12</title>
<path fill="none" stroke="midnightblue" d="M72.031,-421.508C128.314,-415.267 241.807,-399.665 333,-367.939 401.138,-344.233 474.804,-300.952 511.474,-278.062"/>
<polygon fill="midnightblue" stroke="midnightblue" points="513.379,-280.998 519.974,-272.706 509.648,-275.076 513.379,-280.998"/>
</g>
<!-- Node36 -->
<g id="node36" class="node"><title>Node36</title>
<g id="a_node36"><a xlink:href="stack_8cpp.html#ac5ce0328e4b31389fddc82a135016456" target="_top" xlink:title="popSymbolStack">
<polygon fill="white" stroke="black" points="110.5,-339.439 110.5,-358.439 201.5,-358.439 201.5,-339.439 110.5,-339.439"/>
<text text-anchor="middle" x="156" y="-346.439" font-family="Helvetica,sans-Serif" font-size="10.00">popSymbolStack</text>
</a>
</g>
</g>
<!-- Node1&#45;&gt;Node36 -->
<g id="edge48" class="edge"><title>Node1&#45;&gt;Node36</title>
<path fill="none" stroke="midnightblue" d="M48.9004,-415.306C62.6807,-404.373 86.2758,-386.322 108,-372.939 113.529,-369.533 119.599,-366.173 125.486,-363.095"/>
<polygon fill="midnightblue" stroke="midnightblue" points="127.154,-366.174 134.484,-358.524 123.984,-359.933 127.154,-366.174"/>
</g>
<!-- Node38 -->
<g id="node38" class="node"><title>Node38</title>
<g id="a_node38"><a xlink:href="pda_8cpp.html#a885fa10d941a54af56e3594f205166a5" target="_top" xlink:title="alphaBravoCharlie">
<polygon fill="white" stroke="black" points="108,-301.439 108,-320.439 204,-320.439 204,-301.439 108,-301.439"/>
<text text-anchor="middle" x="156" y="-308.439" font-family="Helvetica,sans-Serif" font-size="10.00">alphaBravoCharlie</text>
</a>
</g>
</g>
<!-- Node1&#45;&gt;Node38 -->
<g id="edge50" class="edge"><title>Node1&#45;&gt;Node38</title>
<path fill="none" stroke="midnightblue" d="M41.9088,-415.212C51.9005,-396.306 76.3599,-354.321 108,-329.939 110.287,-328.176 112.761,-326.553 115.334,-325.063"/>
<polygon fill="midnightblue" stroke="midnightblue" points="117.008,-328.138 124.349,-320.498 113.846,-321.893 117.008,-328.138"/>
</g>
<!-- Node3 -->
<g id="node3" class="node"><title>Node3</title>
<g id="a_node3"><a xlink:href="class_stack.html#afc30a7ee287e14f08802c2d43613f2b4" target="_top" xlink:title="Return the number of elements currently in the stack. ">
<polygon fill="white" stroke="black" points="389,-519.439 389,-538.439 455,-538.439 455,-519.439 389,-519.439"/>
<text text-anchor="middle" x="422" y="-526.439" font-family="Helvetica,sans-Serif" font-size="10.00">Stack::size</text>
</a>
</g>
</g>
<!-- Node2&#45;&gt;Node3 -->
<g id="edge2" class="edge"><title>Node2&#45;&gt;Node3</title>
<path fill="none" stroke="midnightblue" d="M333.07,-528.939C347.779,-528.939 364.019,-528.939 378.498,-528.939"/>
<polygon fill="midnightblue" stroke="midnightblue" points="378.682,-532.439 388.682,-528.939 378.682,-525.439 378.682,-532.439"/>
</g>
<!-- Node4&#45;&gt;Node2 -->
<g id="edge4" class="edge"><title>Node4&#45;&gt;Node2</title>
<path fill="none" stroke="midnightblue" d="M170.752,-537.868C184.949,-536.764 208.032,-534.967 229.786,-533.274"/>
<polygon fill="midnightblue" stroke="midnightblue" points="230.283,-536.746 239.981,-532.481 229.74,-529.767 230.283,-536.746"/>
</g>
<!-- Node6 -->
<g id="node6" class="node"><title>Node6</title>
<g id="a_node6"><a xlink:href="morse__token_8h.html#a9ec0688da83c93d634e79b2d7ad7ad64" target="_top" xlink:title="Convert Morse 0&#45;9 to the corresponding digit. ">
<polygon fill="white" stroke="black" points="270.5,-453.439 270.5,-472.439 302.5,-472.439 302.5,-453.439 270.5,-453.439"/>
<text text-anchor="middle" x="286.5" y="-460.439" font-family="Helvetica,sans-Serif" font-size="10.00">m2i</text>
</a>
</g>
</g>
<!-- Node5&#45;&gt;Node6 -->
<g id="edge6" class="edge"><title>Node5&#45;&gt;Node6</title>
<path fill="none" stroke="midnightblue" d="M202.304,-462.939C221.678,-462.939 243.577,-462.939 260.042,-462.939"/>
<polygon fill="midnightblue" stroke="midnightblue" points="260.475,-466.439 270.475,-462.939 260.475,-459.439 260.475,-466.439"/>
</g>
<!-- Node7 -->
<g id="node7" class="node"><title>Node7</title>
<g id="a_node7"><a xlink:href="class_morse_token.html#a8c36a957ebc90172eae960757c72d3a4" target="_top" xlink:title="Convert to a single ASCII character. ">
<polygon fill="white" stroke="black" points="369,-462.439 369,-481.439 475,-481.439 475,-462.439 369,-462.439"/>
<text text-anchor="middle" x="422" y="-469.439" font-family="Helvetica,sans-Serif" font-size="10.00">MorseToken::toChar</text>
</a>
</g>
</g>
<!-- Node6&#45;&gt;Node7 -->
<g id="edge7" class="edge"><title>Node6&#45;&gt;Node7</title>
<path fill="none" stroke="midnightblue" d="M302.555,-463.953C316.385,-464.886 337.843,-466.332 358.717,-467.74"/>
<polygon fill="midnightblue" stroke="midnightblue" points="358.668,-471.244 368.881,-468.425 359.139,-464.26 358.668,-471.244"/>
</g>
<!-- Node6&#45;&gt;Node11 -->
<g id="edge11" class="edge"><title>Node6&#45;&gt;Node11</title>
<path fill="none" stroke="midnightblue" d="M302.555,-459.668C323.355,-455.15 361.411,-446.883 388.78,-440.938"/>
<polygon fill="midnightblue" stroke="midnightblue" points="389.659,-444.328 398.688,-438.785 388.173,-437.488 389.659,-444.328"/>
</g>
<!-- Node8 -->
<g id="node8" class="node"><title>Node8</title>
<g id="a_node8"><a xlink:href="morse__token_8h.html#a98f44690e97cbd7ea9445ca0a560a564" target="_top" xlink:title="Convert a Morse code into ASCII. ">
<polygon fill="white" stroke="black" points="518.5,-500.439 518.5,-519.439 553.5,-519.439 553.5,-500.439 518.5,-500.439"/>
<text text-anchor="middle" x="536" y="-507.439" font-family="Helvetica,sans-Serif" font-size="10.00">m2a</text>
</a>
</g>
</g>
<!-- Node7&#45;&gt;Node8 -->
<g id="edge8" class="edge"><title>Node7&#45;&gt;Node8</title>
<path fill="none" stroke="midnightblue" d="M451.262,-481.528C468.922,-487.519 491.506,-495.182 508.768,-501.039"/>
<polygon fill="midnightblue" stroke="midnightblue" points="507.646,-504.354 518.24,-504.252 509.895,-497.725 507.646,-504.354"/>
</g>
<!-- Node9 -->
<g id="node9" class="node"><title>Node9</title>
<g id="a_node9"><a xlink:href="class_morse_token.html#a48cd72aeb868391449d1f51c1d0bf5cc" target="_top" xlink:title="Treat code == 0 as the error token. ">
<polygon fill="white" stroke="black" points="1172,-481.439 1172,-500.439 1269,-500.439 1269,-481.439 1172,-481.439"/>
<text text-anchor="middle" x="1220.5" y="-488.439" font-family="Helvetica,sans-Serif" font-size="10.00">MorseToken::valid</text>
</a>
</g>
</g>
<!-- Node8&#45;&gt;Node9 -->
<g id="edge9" class="edge"><title>Node8&#45;&gt;Node9</title>
<path fill="none" stroke="midnightblue" d="M553.802,-509.939C596.877,-509.939 714.771,-509.939 813,-509.939 813,-509.939 813,-509.939 972.5,-509.939 1037.48,-509.939 1111.8,-503.32 1161.79,-497.896"/>
<polygon fill="midnightblue" stroke="midnightblue" points="1162.22,-501.371 1171.77,-496.794 1161.45,-494.413 1162.22,-501.371"/>
</g>
<!-- Node10 -->
<g id="node10" class="node"><title>Node10</title>
<g id="a_node10"><a xlink:href="class_morse_token.html#adc74054417a8636c1d34d43c34628731" target="_top" xlink:title="Treat code == 1 as a space. ">
<polygon fill="white" stroke="black" points="604.5,-538.439 604.5,-557.439 707.5,-557.439 707.5,-538.439 604.5,-538.439"/>
<text text-anchor="middle" x="656" y="-545.439" font-family="Helvetica,sans-Serif" font-size="10.00">MorseToken::pause</text>
</a>
</g>
</g>
<!-- Node8&#45;&gt;Node10 -->
<g id="edge10" class="edge"><title>Node8&#45;&gt;Node10</title>
<path fill="none" stroke="midnightblue" d="M553.656,-515.302C569.67,-520.46 594.481,-528.45 615.545,-535.233"/>
<polygon fill="midnightblue" stroke="midnightblue" points="614.63,-538.615 625.221,-538.349 616.776,-531.952 614.63,-538.615"/>
</g>
<!-- Node11&#45;&gt;Node12 -->
<g id="edge12" class="edge"><title>Node11&#45;&gt;Node12</title>
<path fill="none" stroke="midnightblue" d="M443.856,-424.426C454.312,-418.81 466.52,-410.85 475,-400.939 505.587,-365.188 522.833,-311.442 530.37,-282.712"/>
<polygon fill="midnightblue" stroke="midnightblue" points="533.845,-283.244 532.868,-272.694 527.053,-281.551 533.845,-283.244"/>
</g>
<!-- Node13 -->
<g id="node13" class="node"><title>Node13</title>
<g id="a_node13"><a xlink:href="teensy3__morse__bsp_8cpp.html#ab306f692c5c9455a0c82782a67ff0147" target="_top" xlink:title="touchPoll">
<polygon fill="white" stroke="black" points="943,-82.4386 943,-101.439 1000,-101.439 1000,-82.4386 943,-82.4386"/>
<text text-anchor="middle" x="971.5" y="-89.4386" font-family="Helvetica,sans-Serif" font-size="10.00">touchPoll</text>
</a>
</g>
</g>
<!-- Node12&#45;&gt;Node13 -->
<g id="edge13" class="edge"><title>Node12&#45;&gt;Node13</title>
<path fill="none" stroke="midnightblue" d="M536.589,-253.008C535.868,-220.908 538.471,-119.507 597,-75.9386 700.71,1.26178 869.172,-51.3708 938.818,-78.5252"/>
<polygon fill="midnightblue" stroke="midnightblue" points="937.772,-81.876 948.357,-82.3282 940.364,-75.3737 937.772,-81.876"/>
</g>
<!-- Node15 -->
<g id="node15" class="node"><title>Node15</title>
<g id="a_node15"><a xlink:href="settings_8cpp.html#a960551e90dfdad18f3c9b1338ccba7db" target="_top" xlink:title="Get the dit duration in microseconds. ">
<polygon fill="white" stroke="black" points="1184.5,-158.439 1184.5,-177.439 1256.5,-177.439 1256.5,-158.439 1184.5,-158.439"/>
<text text-anchor="middle" x="1220.5" y="-165.439" font-family="Helvetica,sans-Serif" font-size="10.00">getDitMicros</text>
</a>
</g>
</g>
<!-- Node12&#45;&gt;Node15 -->
<g id="edge15" class="edge"><title>Node12&#45;&gt;Node15</title>
<path fill="none" stroke="midnightblue" d="M538.035,-253.401C542.55,-213.713 561.879,-62.3453 597,-32.9386 670.833,28.8821 716.703,-15.9386 813,-15.9386 813,-15.9386 813,-15.9386 972.5,-15.9386 1049.46,-15.9386 1072.17,-29.9577 1136,-72.9386 1166.94,-93.7706 1193.58,-128.783 1208.01,-149.986"/>
<polygon fill="midnightblue" stroke="midnightblue" points="1205.14,-151.998 1213.59,-158.401 1210.98,-148.132 1205.14,-151.998"/>
</g>
<!-- Node16 -->
<g id="node16" class="node"><title>Node16</title>
<g id="a_node16"><a xlink:href="libmorse_8cpp.html#a9fdfce728595d72b78dc7c834ab99a40" target="_top" xlink:title="Transmit a literal Morse code value. ">
<polygon fill="white" stroke="black" points="1075.5,-386.439 1075.5,-405.439 1126.5,-405.439 1126.5,-386.439 1075.5,-386.439"/>
<text text-anchor="middle" x="1101" y="-393.439" font-family="Helvetica,sans-Serif" font-size="10.00">txLiteral</text>
</a>
</g>
</g>
<!-- Node12&#45;&gt;Node16 -->
<g id="edge16" class="edge"><title>Node12&#45;&gt;Node16</title>
<path fill="none" stroke="midnightblue" d="M540.32,-272.561C547.424,-291.584 566.021,-333.889 597,-353.939 747.576,-451.392 978.914,-419.86 1065.62,-403.301"/>
<polygon fill="midnightblue" stroke="midnightblue" points="1066.32,-406.73 1075.46,-401.366 1064.97,-399.861 1066.32,-406.73"/>
</g>
<!-- Node24 -->
<g id="node24" class="node"><title>Node24</title>
<g id="a_node24"><a xlink:href="libmorse_8cpp.html#acd4b292f5e412ee4f05aed9dafbc072d" target="_top" xlink:title="Convert an ASCII character into Morse code and transmit it. ">
<polygon fill="white" stroke="black" points="946.5,-348.439 946.5,-367.439 996.5,-367.439 996.5,-348.439 946.5,-348.439"/>
<text text-anchor="middle" x="971.5" y="-355.439" font-family="Helvetica,sans-Serif" font-size="10.00">txLetter</text>
</a>
</g>
</g>
<!-- Node12&#45;&gt;Node24 -->
<g id="edge27" class="edge"><title>Node12&#45;&gt;Node24</title>
<path fill="none" stroke="midnightblue" d="M543.379,-272.68C553.088,-286.578 573.003,-311.658 597,-322.939 711.693,-376.852 867.825,-369.027 936.133,-362.17"/>
<polygon fill="midnightblue" stroke="midnightblue" points="936.748,-365.624 946.322,-361.087 936.008,-358.664 936.748,-365.624"/>
</g>
<!-- Node25 -->
<g id="node25" class="node"><title>Node25</title>
<g id="a_node25"><a xlink:href="teensy3__morse__bsp_8cpp.html#a8761e874366e227690fba2964e1bc445" target="_top" xlink:title="getInternalTemperatureC">
<polygon fill="white" stroke="black" points="751.5,-168.439 751.5,-187.439 876.5,-187.439 876.5,-168.439 751.5,-168.439"/>
<text text-anchor="middle" x="814" y="-175.439" font-family="Helvetica,sans-Serif" font-size="10.00">getInternalTemperatureC</text>
</a>
</g>
</g>
<!-- Node12&#45;&gt;Node25 -->
<g id="edge30" class="edge"><title>Node12&#45;&gt;Node25</title>
<path fill="none" stroke="midnightblue" d="M541.235,-253.285C549.282,-236.292 568.553,-201.463 597,-186.939 644.393,-162.741 705.542,-162.585 750.674,-167.263"/>
<polygon fill="midnightblue" stroke="midnightblue" points="750.294,-170.742 760.627,-168.399 751.088,-163.788 750.294,-170.742"/>
</g>
<!-- Node26 -->
<g id="node26" class="node"><title>Node26</title>
<g id="a_node26"><a xlink:href="libmorse_8cpp.html#a47abdd74b66d7180c47d192bab8bdccb" target="_top" xlink:title="Transmit an unsigned integer in Morse code. ">
<polygon fill="white" stroke="black" points="781,-225.439 781,-244.439 847,-244.439 847,-225.439 781,-225.439"/>
<text text-anchor="middle" x="814" y="-232.439" font-family="Helvetica,sans-Serif" font-size="10.00">txUnsigned</text>
</a>
</g>
</g>
<!-- Node12&#45;&gt;Node26 -->
<g id="edge31" class="edge"><title>Node12&#45;&gt;Node26</title>
<path fill="none" stroke="midnightblue" d="M547.991,-272.644C559.352,-281.973 578.053,-295.443 597,-300.939 647.369,-315.547 667.974,-324.154 715,-300.939 738.594,-289.291 729.392,-268.953 751,-253.939 757.038,-249.743 764.031,-246.451 771.098,-243.876"/>
<polygon fill="midnightblue" stroke="midnightblue" points="772.25,-247.182 780.699,-240.79 770.108,-240.518 772.25,-247.182"/>
</g>
<!-- Node27 -->
<g id="node27" class="node"><title>Node27</title>
<g id="a_node27"><a xlink:href="actions_8cpp.html#aed718ec1bd4cc7adb2f65d40a6784496" target="_top" xlink:title="Transmit the internal temperature in integer in Fahrenheit. ">
<polygon fill="white" stroke="black" points="597,-196.439 597,-215.439 715,-215.439 715,-196.439 597,-196.439"/>
<text text-anchor="middle" x="656" y="-203.439" font-family="Helvetica,sans-Serif" font-size="10.00">txInternalTemperatureF</text>
</a>
</g>
</g>
<!-- Node12&#45;&gt;Node27 -->
<g id="edge34" class="edge"><title>Node12&#45;&gt;Node27</title>
<path fill="none" stroke="midnightblue" d="M550.268,-253.177C562.074,-244.829 580.048,-232.931 597,-224.939 601.614,-222.763 606.543,-220.734 611.507,-218.873"/>
<polygon fill="midnightblue" stroke="midnightblue" points="612.76,-222.143 621.02,-215.508 610.425,-215.544 612.76,-222.143"/>
</g>
<!-- Node28 -->
<g id="node28" class="node"><title>Node28</title>
<g id="a_node28"><a xlink:href="actions_8cpp.html#aaabb3ac0c23f35a499bc17efe829f326" target="_top" xlink:title="Transmit the 24&#45;hr time. ">
<polygon fill="white" stroke="black" points="617,-272.439 617,-291.439 695,-291.439 695,-272.439 617,-272.439"/>
<text text-anchor="middle" x="656" y="-279.439" font-family="Helvetica,sans-Serif" font-size="10.00">txTimeHHMM</text>
</a>
</g>
</g>
<!-- Node12&#45;&gt;Node28 -->
<g id="edge37" class="edge"><title>Node12&#45;&gt;Node28</title>
<path fill="none" stroke="midnightblue" d="M561.164,-261.259C578.31,-262.695 601.572,-266.232 620.645,-270.21"/>
<polygon fill="midnightblue" stroke="midnightblue" points="619.942,-273.639 630.463,-272.388 621.458,-266.805 619.942,-273.639"/>
</g>
<!-- Node29 -->
<g id="node29" class="node"><title>Node29</title>
<g id="a_node29"><a xlink:href="actions_8cpp.html#ad02149679fa3cc6a4957d1a318408ffd" target="_top" xlink:title="Transmit the uptime. ">
<polygon fill="white" stroke="black" points="628,-234.439 628,-253.439 684,-253.439 684,-234.439 628,-234.439"/>
<text text-anchor="middle" x="656" y="-241.439" font-family="Helvetica,sans-Serif" font-size="10.00">txUptime</text>
</a>
</g>
</g>
<!-- Node12&#45;&gt;Node29 -->
<g id="edge39" class="edge"><title>Node12&#45;&gt;Node29</title>
<path fill="none" stroke="midnightblue" d="M561.164,-259.048C577.548,-256.41 599.518,-252.872 618.079,-249.883"/>
<polygon fill="midnightblue" stroke="midnightblue" points="618.667,-253.334 627.984,-248.289 617.555,-246.423 618.667,-253.334"/>
</g>
<!-- Node31 -->
<g id="node31" class="node"><title>Node31</title>
<g id="a_node31"><a xlink:href="teensy3__morse__bsp_8cpp.html#ae8dd28759e56dbd2ee9bc9ae96d1783c" target="_top" xlink:title="Return the most recent ADC measurement of the input voltage. Perform analog to digital conversion on ...">
<polygon fill="white" stroke="black" points="619,-120.439 619,-139.439 693,-139.439 693,-120.439 619,-120.439"/>
<text text-anchor="middle" x="656" y="-127.439" font-family="Helvetica,sans-Serif" font-size="10.00">readMillivolts</text>
</a>
</g>
</g>
<!-- Node12&#45;&gt;Node31 -->
<g id="edge42" class="edge"><title>Node12&#45;&gt;Node31</title>
<path fill="none" stroke="midnightblue" d="M539.835,-253.397C546.479,-232.568 564.967,-182.604 597,-153.939 601.422,-149.981 606.587,-146.622 611.979,-143.785"/>
<polygon fill="midnightblue" stroke="midnightblue" points="613.596,-146.892 621.176,-139.49 610.634,-140.55 613.596,-146.892"/>
</g>
<!-- Node35 -->
<g id="node35" class="node"><title>Node35</title>
<g id="a_node35"><a xlink:href="libmorse_8cpp.html#ac3f000c98271c6d0a7710135e18189bc" target="_top" xlink:title="On my hardware there is cross&#45;coupling between the serial port and the touch sensors. Without the code below, long messages to the serial port trigger a touch input. ">
<polygon fill="white" stroke="black" points="781.5,-82.4386 781.5,-101.439 846.5,-101.439 846.5,-82.4386 781.5,-82.4386"/>
<text text-anchor="middle" x="814" y="-89.4386" font-family="Helvetica,sans-Serif" font-size="10.00">flushTouch</text>
</a>
</g>
</g>
<!-- Node12&#45;&gt;Node35 -->
<g id="edge46" class="edge"><title>Node12&#45;&gt;Node35</title>
<path fill="none" stroke="midnightblue" d="M537.491,-253.431C539.468,-226.03 549.259,-146.58 597,-110.939 647.34,-73.3572 723.836,-76.6985 770.996,-83.5795"/>
<polygon fill="midnightblue" stroke="midnightblue" points="770.745,-87.0831 781.168,-85.1853 771.837,-80.1688 770.745,-87.0831"/>
</g>
<!-- Node14 -->
<g id="node14" class="node"><title>Node14</title>
<g id="a_node14"><a xlink:href="teensy3__morse__bsp_8cpp.html#af6899cd9b83df54106b259ab81ea5cb2" target="_top" xlink:title="touchMargin">
<polygon fill="white" stroke="black" points="1066,-82.4386 1066,-101.439 1136,-101.439 1136,-82.4386 1066,-82.4386"/>
<text text-anchor="middle" x="1101" y="-89.4386" font-family="Helvetica,sans-Serif" font-size="10.00">touchMargin</text>
</a>
</g>
</g>
<!-- Node13&#45;&gt;Node14 -->
<g id="edge14" class="edge"><title>Node13&#45;&gt;Node14</title>
<path fill="none" stroke="midnightblue" d="M1000.17,-91.9386C1016.28,-91.9386 1036.98,-91.9386 1055.35,-91.9386"/>
<polygon fill="midnightblue" stroke="midnightblue" points="1055.56,-95.4387 1065.56,-91.9386 1055.56,-88.4387 1055.56,-95.4387"/>
</g>
<!-- Node16&#45;&gt;Node9 -->
<g id="edge17" class="edge"><title>Node16&#45;&gt;Node9</title>
<path fill="none" stroke="midnightblue" d="M1114.13,-405.747C1134.38,-422.117 1175.24,-455.153 1199.7,-474.931"/>
<polygon fill="midnightblue" stroke="midnightblue" points="1197.63,-477.759 1207.61,-481.325 1202.03,-472.316 1197.63,-477.759"/>
</g>
<!-- Node16&#45;&gt;Node11 -->
<g id="edge26" class="edge"><title>Node16&#45;&gt;Node11</title>
<path fill="none" stroke="midnightblue" d="M1083.54,-405.448C1069.67,-413.087 1049.09,-423.558 1030,-429.939 937.659,-460.8 912.362,-471.939 815,-471.939 655,-471.939 655,-471.939 655,-471.939 582.83,-471.939 499.673,-453.809 455.138,-442.595"/>
<polygon fill="midnightblue" stroke="midnightblue" points="455.754,-439.139 445.198,-440.044 454.014,-445.92 455.754,-439.139"/>
</g>
<!-- Node16&#45;&gt;Node15 -->
<g id="edge25" class="edge"><title>Node16&#45;&gt;Node15</title>
<path fill="none" stroke="midnightblue" d="M1106.9,-386.432C1124.7,-351.884 1186.18,-232.601 1209.98,-186.41"/>
<polygon fill="midnightblue" stroke="midnightblue" points="1213.11,-187.978 1214.58,-177.486 1206.89,-184.771 1213.11,-187.978"/>
</g>
<!-- Node17 -->
<g id="node17" class="node"><title>Node17</title>
<g id="a_node17"><a xlink:href="teensy3__morse__bsp_8cpp.html#af66e71e3fac9b6a2c6532bc8a513bfde" target="_top" xlink:title="Output a square wave on pin 10 at the given frequency for the given duration. ">
<polygon fill="white" stroke="black" points="1201.5,-405.439 1201.5,-424.439 1239.5,-424.439 1239.5,-405.439 1201.5,-405.439"/>
<text text-anchor="middle" x="1220.5" y="-412.439" font-family="Helvetica,sans-Serif" font-size="10.00">beep</text>
</a>
</g>
</g>
<!-- Node16&#45;&gt;Node17 -->
<g id="edge18" class="edge"><title>Node16&#45;&gt;Node17</title>
<path fill="none" stroke="midnightblue" d="M1126.63,-399.922C1145.57,-402.984 1171.75,-407.217 1191.48,-410.408"/>
<polygon fill="midnightblue" stroke="midnightblue" points="1190.99,-413.874 1201.42,-412.015 1192.11,-406.964 1190.99,-413.874"/>
</g>
<!-- Node23 -->
<g id="node23" class="node"><title>Node23</title>
<g id="a_node23"><a xlink:href="settings_8cpp.html#a8575b9b52638114a4f32d1462cf9b7c1" target="_top" xlink:title="Get the transmission frequency (side tone). ">
<polygon fill="white" stroke="black" points="1193.5,-367.439 1193.5,-386.439 1247.5,-386.439 1247.5,-367.439 1193.5,-367.439"/>
<text text-anchor="middle" x="1220.5" y="-374.439" font-family="Helvetica,sans-Serif" font-size="10.00">getTxHz</text>
</a>
</g>
</g>
<!-- Node16&#45;&gt;Node23 -->
<g id="edge24" class="edge"><title>Node16&#45;&gt;Node23</title>
<path fill="none" stroke="midnightblue" d="M1126.63,-391.956C1143.02,-389.305 1164.83,-385.778 1183.2,-382.808"/>
<polygon fill="midnightblue" stroke="midnightblue" points="1183.96,-386.232 1193.27,-381.18 1182.84,-379.321 1183.96,-386.232"/>
</g>
<!-- Node18 -->
<g id="node18" class="node"><title>Node18</title>
<g id="a_node18"><a xlink:href="teensy3__morse__bsp_8cpp.html#a6f674d5b9985ea3a7eeb0df299c2e405" target="_top" xlink:title="pollEarphonePresent">
<polygon fill="white" stroke="black" points="1305,-462.439 1305,-481.439 1412,-481.439 1412,-462.439 1305,-462.439"/>
<text text-anchor="middle" x="1358.5" y="-469.439" font-family="Helvetica,sans-Serif" font-size="10.00">pollEarphonePresent</text>
</a>
</g>
</g>
<!-- Node17&#45;&gt;Node18 -->
<g id="edge19" class="edge"><title>Node17&#45;&gt;Node18</title>
<path fill="none" stroke="midnightblue" d="M1239.56,-423.664C1256.35,-431.653 1282.14,-443.618 1305,-452.939 1309.87,-454.923 1315.03,-456.92 1320.14,-458.834"/>
<polygon fill="midnightblue" stroke="midnightblue" points="1319.23,-462.228 1329.82,-462.389 1321.64,-455.657 1319.23,-462.228"/>
</g>
<!-- Node19 -->
<g id="node19" class="node"><title>Node19</title>
<g id="a_node19"><a xlink:href="teensy3__morse__bsp_8cpp.html#a2d6b4ace33ed5e497dedd03217540c63" target="_top" xlink:title="Set the PWM frequency for the audio output pins. ">
<polygon fill="white" stroke="black" points="1317,-424.439 1317,-443.439 1400,-443.439 1400,-424.439 1317,-424.439"/>
<text text-anchor="middle" x="1358.5" y="-431.439" font-family="Helvetica,sans-Serif" font-size="10.00">pwmFrequency</text>
</a>
</g>
</g>
<!-- Node17&#45;&gt;Node19 -->
<g id="edge20" class="edge"><title>Node17&#45;&gt;Node19</title>
<path fill="none" stroke="midnightblue" d="M1239.56,-417.462C1256.62,-419.845 1283.02,-423.533 1306.52,-426.816"/>
<polygon fill="midnightblue" stroke="midnightblue" points="1306.33,-430.324 1316.72,-428.242 1307.3,-423.392 1306.33,-430.324"/>
</g>
<!-- Node20 -->
<g id="node20" class="node"><title>Node20</title>
<g id="a_node20"><a xlink:href="teensy3__morse__bsp_8cpp.html#a82911eac3bf13d6f36d10102a4c4d3c4" target="_top" xlink:title="Generate a tone on the audio output pins. ">
<polygon fill="white" stroke="black" points="1328,-386.439 1328,-405.439 1389,-405.439 1389,-386.439 1328,-386.439"/>
<text text-anchor="middle" x="1358.5" y="-393.439" font-family="Helvetica,sans-Serif" font-size="10.00">pwmWrite</text>
</a>
</g>
</g>
<!-- Node17&#45;&gt;Node20 -->
<g id="edge21" class="edge"><title>Node17&#45;&gt;Node20</title>
<path fill="none" stroke="midnightblue" d="M1239.56,-412.416C1259.46,-409.635 1292.08,-405.078 1317.98,-401.46"/>
<polygon fill="midnightblue" stroke="midnightblue" points="1318.47,-404.925 1327.89,-400.075 1317.5,-397.993 1318.47,-404.925"/>
</g>
<!-- Node22 -->
<g id="node22" class="node"><title>Node22</title>
<g id="a_node22"><a xlink:href="teensy3__morse__bsp_8cpp.html#a6c982a7d7805f1dd5426eb98c915cfdd" target="_top" xlink:title="Turn the red LED on (1) or off (0). ">
<polygon fill="white" stroke="black" points="1333.5,-348.439 1333.5,-367.439 1383.5,-367.439 1383.5,-348.439 1333.5,-348.439"/>
<text text-anchor="middle" x="1358.5" y="-355.439" font-family="Helvetica,sans-Serif" font-size="10.00">redLED</text>
</a>
</g>
</g>
<!-- Node17&#45;&gt;Node22 -->
<g id="edge23" class="edge"><title>Node17&#45;&gt;Node22</title>
<path fill="none" stroke="midnightblue" d="M1239.73,-408.162C1248.65,-404.717 1259.49,-400.337 1269,-395.939 1285.42,-388.346 1288.45,-384.257 1305,-376.939 1310.99,-374.288 1317.48,-371.713 1323.78,-369.358"/>
<polygon fill="midnightblue" stroke="midnightblue" points="1325.23,-372.556 1333.44,-365.859 1322.85,-365.975 1325.23,-372.556"/>
</g>
<!-- Node21 -->
<g id="node21" class="node"><title>Node21</title>
<g id="a_node21"><a xlink:href="teensy3__morse__bsp_8cpp.html#ac70998cee1bf97f00aec4a1b4e5a4f60" target="_top" xlink:title="isEarphonePresent">
<polygon fill="white" stroke="black" points="1448,-386.439 1448,-405.439 1547,-405.439 1547,-386.439 1448,-386.439"/>
<text text-anchor="middle" x="1497.5" y="-393.439" font-family="Helvetica,sans-Serif" font-size="10.00">isEarphonePresent</text>
</a>
</g>
</g>
<!-- Node20&#45;&gt;Node21 -->
<g id="edge22" class="edge"><title>Node20&#45;&gt;Node21</title>
<path fill="none" stroke="midnightblue" d="M1389.23,-395.939C1403.43,-395.939 1420.96,-395.939 1437.7,-395.939"/>
<polygon fill="midnightblue" stroke="midnightblue" points="1437.98,-399.439 1447.98,-395.939 1437.98,-392.439 1437.98,-399.439"/>
</g>
<!-- Node24&#45;&gt;Node11 -->
<g id="edge29" class="edge"><title>Node24&#45;&gt;Node11</title>
<path fill="none" stroke="midnightblue" d="M946.417,-364.047C927.612,-368.647 900.773,-374.84 877,-378.939 720.023,-406.005 530.243,-424.429 455.495,-431.132"/>
<polygon fill="midnightblue" stroke="midnightblue" points="454.97,-427.664 445.319,-432.035 455.589,-434.637 454.97,-427.664"/>
</g>
<!-- Node24&#45;&gt;Node16 -->
<g id="edge28" class="edge"><title>Node24&#45;&gt;Node16</title>
<path fill="none" stroke="midnightblue" d="M996.782,-365.176C1016.24,-370.976 1043.79,-379.187 1065.54,-385.667"/>
<polygon fill="midnightblue" stroke="midnightblue" points="1064.79,-389.097 1075.37,-388.599 1066.79,-382.389 1064.79,-389.097"/>
</g>
<!-- Node26&#45;&gt;Node13 -->
<g id="edge32" class="edge"><title>Node26&#45;&gt;Node13</title>
<path fill="none" stroke="midnightblue" d="M837.811,-225.29C850.74,-218.855 866.4,-209.303 877,-196.939 903.968,-165.48 882.59,-139.084 913,-110.939 918.623,-105.734 925.704,-101.953 932.958,-99.2071"/>
<polygon fill="midnightblue" stroke="midnightblue" points="934.365,-102.432 942.835,-96.067 932.244,-95.7612 934.365,-102.432"/>
</g>
<!-- Node26&#45;&gt;Node24 -->
<g id="edge33" class="edge"><title>Node26&#45;&gt;Node24</title>
<path fill="none" stroke="midnightblue" d="M847.024,-241.205C857.121,-244.086 867.984,-248.186 877,-253.939 912.619,-276.666 943.018,-316.552 958.835,-339.767"/>
<polygon fill="midnightblue" stroke="midnightblue" points="956.07,-341.93 964.517,-348.324 961.901,-338.058 956.07,-341.93"/>
</g>
<!-- Node27&#45;&gt;Node25 -->
<g id="edge35" class="edge"><title>Node27&#45;&gt;Node25</title>
<path fill="none" stroke="midnightblue" d="M710.25,-196.381C723.051,-194.083 736.845,-191.607 750.041,-189.239"/>
<polygon fill="midnightblue" stroke="midnightblue" points="750.766,-192.665 759.99,-187.453 749.529,-185.775 750.766,-192.665"/>
</g>
<!-- Node27&#45;&gt;Node26 -->
<g id="edge36" class="edge"><title>Node27&#45;&gt;Node26</title>
<path fill="none" stroke="midnightblue" d="M708.513,-215.515C728.674,-219.263 751.514,-223.508 770.687,-227.073"/>
<polygon fill="midnightblue" stroke="midnightblue" points="770.161,-230.535 780.632,-228.921 771.44,-223.653 770.161,-230.535"/>
</g>
<!-- Node28&#45;&gt;Node12 -->
<g id="edge38" class="edge"><title>Node28&#45;&gt;Node12</title>
<path fill="none" stroke="midnightblue" d="M616.929,-282.166C602.193,-280.369 585.455,-277.616 571.117,-274.617"/>
<polygon fill="midnightblue" stroke="midnightblue" points="571.686,-271.158 561.164,-272.4 570.164,-277.991 571.686,-271.158"/>
</g>
<!-- Node29&#45;&gt;Node26 -->
<g id="edge41" class="edge"><title>Node29&#45;&gt;Node26</title>
<path fill="none" stroke="midnightblue" d="M684.173,-242.371C708.014,-240.995 743.076,-238.973 770.605,-237.384"/>
<polygon fill="midnightblue" stroke="midnightblue" points="770.966,-240.87 780.748,-236.799 770.563,-233.881 770.966,-240.87"/>
</g>
<!-- Node30 -->
<g id="node30" class="node"><title>Node30</title>
<g id="a_node30"><a xlink:href="settings_8cpp.html#a7b4efa097b94f9a90c5bbafcdf93fe4f" target="_top" xlink:title="getUptime">
<polygon fill="white" stroke="black" points="783,-263.439 783,-282.439 845,-282.439 845,-263.439 783,-263.439"/>
<text text-anchor="middle" x="814" y="-270.439" font-family="Helvetica,sans-Serif" font-size="10.00">getUptime</text>
</a>
</g>
</g>
<!-- Node29&#45;&gt;Node30 -->
<g id="edge40" class="edge"><title>Node29&#45;&gt;Node30</title>
<path fill="none" stroke="midnightblue" d="M684.173,-248.99C708.741,-253.557 745.225,-260.339 773.102,-265.522"/>
<polygon fill="midnightblue" stroke="midnightblue" points="772.473,-268.965 782.945,-267.351 773.753,-262.083 772.473,-268.965"/>
</g>
<!-- Node32 -->
<g id="node32" class="node"><title>Node32</title>
<g id="a_node32"><a xlink:href="class_voltage_monitor.html#a70902b84f9864c95d5553a0644a64f4f" target="_top" xlink:title="Return the latest voltage reading. ">
<polygon fill="white" stroke="black" points="751,-120.439 751,-139.439 877,-139.439 877,-120.439 751,-120.439"/>
<text text-anchor="middle" x="814" y="-127.439" font-family="Helvetica,sans-Serif" font-size="10.00">VoltageMonitor::getValue</text>
</a>
</g>
</g>
<!-- Node31&#45;&gt;Node32 -->
<g id="edge43" class="edge"><title>Node31&#45;&gt;Node32</title>
<path fill="none" stroke="midnightblue" d="M693.182,-129.939C707.344,-129.939 724.117,-129.939 740.56,-129.939"/>
<polygon fill="midnightblue" stroke="midnightblue" points="740.728,-133.439 750.728,-129.939 740.728,-126.439 740.728,-133.439"/>
</g>
<!-- Node33 -->
<g id="node33" class="node"><title>Node33</title>
<g id="a_node33"><a xlink:href="actions_8cpp.html#a2b8c3769e2aa32a2da9e2f3f85ac73dd" target="_top" xlink:title="A sample ADC reading is taken each time through the main loop, and written to a ring buffer...">
<polygon fill="white" stroke="black" points="915.5,-158.439 915.5,-177.439 1027.5,-177.439 1027.5,-158.439 915.5,-158.439"/>
<text text-anchor="middle" x="971.5" y="-165.439" font-family="Helvetica,sans-Serif" font-size="10.00">getVoltagePollInterval</text>
</a>
</g>
</g>
<!-- Node32&#45;&gt;Node33 -->
<g id="edge44" class="edge"><title>Node32&#45;&gt;Node33</title>
<path fill="none" stroke="midnightblue" d="M854.239,-139.528C874.759,-144.542 900.067,-150.727 921.825,-156.044"/>
<polygon fill="midnightblue" stroke="midnightblue" points="920.998,-159.445 931.543,-158.419 922.66,-152.645 920.998,-159.445"/>
</g>
<!-- Node34 -->
<g id="node34" class="node"><title>Node34</title>
<g id="a_node34"><a xlink:href="class_voltage_monitor.html#a75871331808c34b40d04059ee2af0f27" target="_top" xlink:title="Filter and scale raw ADC values to millivolts. ">
<polygon fill="white" stroke="black" points="913,-120.439 913,-139.439 1030,-139.439 1030,-120.439 913,-120.439"/>
<text text-anchor="middle" x="971.5" y="-127.439" font-family="Helvetica,sans-Serif" font-size="10.00">VoltageMonitor::update</text>
</a>
</g>
</g>
<!-- Node32&#45;&gt;Node34 -->
<g id="edge45" class="edge"><title>Node32&#45;&gt;Node34</title>
<path fill="none" stroke="midnightblue" d="M877.352,-129.939C885.702,-129.939 894.298,-129.939 902.735,-129.939"/>
<polygon fill="midnightblue" stroke="midnightblue" points="902.92,-133.439 912.92,-129.939 902.92,-126.439 902.92,-133.439"/>
</g>
<!-- Node35&#45;&gt;Node13 -->
<g id="edge47" class="edge"><title>Node35&#45;&gt;Node13</title>
<path fill="none" stroke="midnightblue" d="M846.843,-91.9386C871.677,-91.9386 906.247,-91.9386 932.522,-91.9386"/>
<polygon fill="midnightblue" stroke="midnightblue" points="932.864,-95.4387 942.864,-91.9386 932.863,-88.4387 932.864,-95.4387"/>
</g>
<!-- Node37 -->
<g id="node37" class="node"><title>Node37</title>
<g id="a_node37"><a xlink:href="class_stack.html#a8b4caa181ab4cc209c270338e919cf8b" target="_top" xlink:title="Discard the top element, if the stack is not empty. ">
<polygon fill="white" stroke="black" points="254.5,-339.439 254.5,-358.439 318.5,-358.439 318.5,-339.439 254.5,-339.439"/>
<text text-anchor="middle" x="286.5" y="-346.439" font-family="Helvetica,sans-Serif" font-size="10.00">Stack::pop</text>
</a>
</g>
</g>
<!-- Node36&#45;&gt;Node37 -->
<g id="edge49" class="edge"><title>Node36&#45;&gt;Node37</title>
<path fill="none" stroke="midnightblue" d="M201.582,-348.939C215.446,-348.939 230.661,-348.939 244.284,-348.939"/>
<polygon fill="midnightblue" stroke="midnightblue" points="244.343,-352.439 254.342,-348.939 244.342,-345.439 244.343,-352.439"/>
</g>
</g>
</svg>
        <g id="navigator" transform="translate(0 0)" fill="#404254">
                <rect fill="#f2f5e9" fill-opacity="0.5" stroke="#606060" stroke-width=".5" x="0" y="0" width="60" height="60"/>
                <use id="zoomplus" xlink:href="#zoomPlus" x="17" y="9" onmousedown="handleZoom(evt,'in')"/>
                <use id="zoomminus" xlink:href="#zoomMin" x="42" y="9" onmousedown="handleZoom(evt,'out')"/>
                <use id="reset" xlink:href="#resetDef" x="30" y="36" onmousedown="handleReset()"/>
                <g id="arrowUp" xlink:href="#dirArrow" transform="translate(30 24)" onmousedown="handlePan(0,-1)">
                  <use xlink:href="#rim" fill="#404040">
                        <set attributeName="fill" to="#808080" begin="arrowUp.mouseover" end="arrowUp.mouseout"/>
                  </use>
                  <path fill="none" stroke="white" stroke-width="1.5" d="M0,-3.0v7 M-2.5,-0.5L0,-3.0L2.5,-0.5"/>
                </g>
                <g id="arrowRight" xlink:href="#dirArrow" transform="rotate(90) translate(36 -43)" onmousedown="handlePan(1,0)">
                  <use xlink:href="#rim" fill="#404040">
                        <set attributeName="fill" to="#808080" begin="arrowRight.mouseover" end="arrowRight.mouseout"/>
                  </use>
                  <path fill="none" stroke="white" stroke-width="1.5" d="M0,-3.0v7 M-2.5,-0.5L0,-3.0L2.5,-0.5"/>
                </g>
                <g id="arrowDown" xlink:href="#dirArrow" transform="rotate(180) translate(-30 -48)" onmousedown="handlePan(0,1)">
                  <use xlink:href="#rim" fill="#404040">
                        <set attributeName="fill" to="#808080" begin="arrowDown.mouseover" end="arrowDown.mouseout"/>
                  </use>
                  <path fill="none" stroke="white" stroke-width="1.5" d="M0,-3.0v7 M-2.5,-0.5L0,-3.0L2.5,-0.5"/>
                </g>
                <g id="arrowLeft" xlink:href="#dirArrow" transform="rotate(270) translate(-36 17)" onmousedown="handlePan(-1,0)">
                  <use xlink:href="#rim" fill="#404040">
                        <set attributeName="fill" to="#808080" begin="arrowLeft.mouseover" end="arrowLeft.mouseout"/>
                  </use>
                  <path fill="none" stroke="white" stroke-width="1.5" d="M0,-3.0v7 M-2.5,-0.5L0,-3.0L2.5,-0.5"/>
                </g>
        </g>
        <svg viewBox="0 0 15 15" width="100%" height="30px" preserveAspectRatio="xMaxYMin meet">
         <g id="arrow_out" transform="scale(0.3 0.3)">
          <a xlink:href="pda_8cpp_a47afc6664036a43243457f6f66cb90f8_cgraph_org.svg" target="_base">
           <rect id="button" ry="5" rx="5" y="6" x="6" height="38" width="38"
                fill="#f2f5e9" fill-opacity="0.5" stroke="#606060" stroke-width="1.0"/>
           <path id="arrow"
             d="M 11.500037,31.436501 C 11.940474,20.09759 22.043105,11.32322 32.158766,21.979434 L 37.068811,17.246167 C 37.068811,17.246167 37.088388,32 37.088388,32 L 22.160133,31.978069 C 22.160133,31.978069 26.997745,27.140456 26.997745,27.140456 C 18.528582,18.264221 13.291696,25.230495 11.500037,31.436501 z"
             style="fill:#404040;"/>
          </a>
         </g>
        </svg>
</svg>
