<?xml version="1.0" encoding="UTF-8" standalone="no"?>
<!DOCTYPE svg PUBLIC "-//W3C//DTD SVG 1.1//EN"
 "http://www.w3.org/Graphics/SVG/1.1/DTD/svg11.dtd">
<!-- Generated by graphviz version 2.38.0 (20140413.2041)
 -->
<!-- Title: txMetronome Pages: 1 -->
<!--zoomable 712 -->
<svg id="main" version="1.1" xmlns="http://www.w3.org/2000/svg" xmlns:xlink="http://www.w3.org/1999/xlink" xml:space="preserve" onload="init(evt)">
<style type="text/css"><![CDATA[
.edge:hover path { stroke: red; }
.edge:hover polygon { stroke: red; fill: red; }
]]></style>
<script type="text/javascript"><![CDATA[
var edges = document.getElementsByTagName('g');
if (edges && edges.length) {
  for (var i=0;i<edges.length;i++) {
    if (edges[i].id.substr(0,4)=='edge') {
      edges[i].setAttribute('class','edge');
    }
  }
}
]]></script>
        <defs>
                <circle id="rim" cx="0" cy="0" r="7"/>
                <circle id="rim2" cx="0" cy="0" r="3.5"/>
                <g id="zoomPlus">
                        <use xlink:href="#rim" fill="#404040">
                                <set attributeName="fill" to="#808080" begin="zoomplus.mouseover" end="zoomplus.mouseout"/>
                        </use>
                        <path d="M-4,0h8M0,-4v8" fill="none" stroke="white" stroke-width="1.5" pointer-events="none"/>
                </g>
                <g id="zoomMin">
                        <use xlink:href="#rim" fill="#404040">
                                <set attributeName="fill" to="#808080" begin="zoomminus.mouseover" end="zoomminus.mouseout"/>
                        </use>
                        <path d="M-4,0h8" fill="none" stroke="white" stroke-width="1.5" pointer-events="none"/>
                </g>
                <g id="dirArrow">
                        <path fill="none" stroke="white" stroke-width="1.5" d="M0,-3.0v7 M-2.5,-0.5L0,-3.0L2.5,-0.5"/>
                </g>
               <g id="resetDef">
                       <use xlink:href="#rim2" fill="#404040">
                               <set attributeName="fill" to="#808080" begin="reset.mouseover" end="reset.mouseout"/>
                       </use>
               </g>
        </defs>

<script type="text/javascript">
var viewWidth = 1560;
var viewHeight = 712;
var sectionId = 'dynsection-25';
</script>
<script xlink:href="svgpan.js"/>
<svg id="graph" class="graph">
<g id="viewport">
<title>txMetronome</title>
<polygon fill="white" stroke="none" points="-4,4 -4,-708 1556,-708 1556,4 -4,4"/>
<!-- Node1 -->
<g id="node1" class="node"><title>Node1</title>
<polygon fill="#bfbfbf" stroke="black" points="0,-570.5 0,-589.5 74,-589.5 74,-570.5 0,-570.5"/>
<text text-anchor="middle" x="37" y="-577.5" font-family="Helvetica,sans-Serif" font-size="10.00">txMetronome</text>
</g>
<!-- Node2 -->
<g id="node2" class="node"><title>Node2</title>
<g id="a_node2"><a xlink:href="stack_8cpp.html#aafac4a86d14d59c34565bc295024e511" target="_top" xlink:title="symbolStackSize">
<polygon fill="white" stroke="black" points="238,-608.5 238,-627.5 331,-627.5 331,-608.5 238,-608.5"/>
<text text-anchor="middle" x="284.5" y="-615.5" font-family="Helvetica,sans-Serif" font-size="10.00">symbolStackSize</text>
</a>
</g>
</g>
<!-- Node1&#45;&gt;Node2 -->
<g id="edge1" class="edge"><title>Node1&#45;&gt;Node2</title>
<path fill="none" stroke="midnightblue" d="M70.0255,-589.545C82.4194,-592.95 96.7808,-596.546 110,-599 149.014,-606.242 193.514,-611.047 227.678,-614.013"/>
<polygon fill="midnightblue" stroke="midnightblue" points="227.673,-617.525 237.931,-614.875 228.26,-610.549 227.673,-617.525"/>
</g>
<!-- Node4 -->
<g id="node4" class="node"><title>Node4</title>
<g id="a_node4"><a xlink:href="stack_8cpp.html#abefdfbf9131b5ea5926f9ecbecb6b1e6" target="_top" xlink:title="Access the stack using an index where 0 is the top of the stack. ">
<polygon fill="white" stroke="black" points="141.5,-646.5 141.5,-665.5 170.5,-665.5 170.5,-646.5 141.5,-646.5"/>
<text text-anchor="middle" x="156" y="-653.5" font-family="Helvetica,sans-Serif" font-size="10.00">s</text>
</a>
</g>
</g>
<!-- Node1&#45;&gt;Node4 -->
<g id="edge3" class="edge"><title>Node1&#45;&gt;Node4</title>
<path fill="none" stroke="midnightblue" d="M50.1341,-589.543C64.1691,-600.395 88.1521,-618.372 110,-632 117.024,-636.382 124.92,-640.764 132.114,-644.562"/>
<polygon fill="midnightblue" stroke="midnightblue" points="130.85,-647.848 141.341,-649.325 134.06,-641.628 130.85,-647.848"/>
</g>
<!-- Node5 -->
<g id="node5" class="node"><title>Node5</title>
<g id="a_node5"><a xlink:href="class_morse_token.html#adbcf2bf93f283c2c69a93dd69d03c38b" target="_top" xlink:title="Convert Morse 0&#45;9 to the corresponding digit. ">
<polygon fill="white" stroke="black" points="110,-570.5 110,-589.5 202,-589.5 202,-570.5 110,-570.5"/>
<text text-anchor="middle" x="156" y="-577.5" font-family="Helvetica,sans-Serif" font-size="10.00">MorseToken::m2i</text>
</a>
</g>
</g>
<!-- Node1&#45;&gt;Node5 -->
<g id="edge5" class="edge"><title>Node1&#45;&gt;Node5</title>
<path fill="none" stroke="midnightblue" d="M74.0585,-580C82.1661,-580 90.9515,-580 99.644,-580"/>
<polygon fill="midnightblue" stroke="midnightblue" points="99.7595,-583.5 109.76,-580 99.7595,-576.5 99.7595,-583.5"/>
</g>
<!-- Node11 -->
<g id="node11" class="node"><title>Node11</title>
<g id="a_node11"><a xlink:href="libmorse_8cpp.html#ab94e088615119d1faae7df22ce50aedf" target="_top" xlink:title="Transmit a Morse code prosign indicating an error. ">
<polygon fill="white" stroke="black" points="397,-285.5 397,-304.5 443,-304.5 443,-285.5 397,-285.5"/>
<text text-anchor="middle" x="420" y="-292.5" font-family="Helvetica,sans-Serif" font-size="10.00">txError</text>
</a>
</g>
</g>
<!-- Node1&#45;&gt;Node11 -->
<g id="edge51" class="edge"><title>Node1&#45;&gt;Node11</title>
<path fill="none" stroke="midnightblue" d="M51.1149,-570.19C107.331,-528.138 328.235,-362.895 397.861,-310.812"/>
<polygon fill="midnightblue" stroke="midnightblue" points="400.029,-313.562 405.94,-304.769 395.836,-307.956 400.029,-313.562"/>
</g>
<!-- Node13 -->
<g id="node13" class="node"><title>Node13</title>
<g id="a_node13"><a xlink:href="teensy3__morse__bsp_8cpp.html#ab306f692c5c9455a0c82782a67ff0147" target="_top" xlink:title="touchPoll">
<polygon fill="white" stroke="black" points="941,-437.5 941,-456.5 998,-456.5 998,-437.5 941,-437.5"/>
<text text-anchor="middle" x="969.5" y="-444.5" font-family="Helvetica,sans-Serif" font-size="10.00">touchPoll</text>
</a>
</g>
</g>
<!-- Node1&#45;&gt;Node13 -->
<g id="edge52" class="edge"><title>Node1&#45;&gt;Node13</title>
<path fill="none" stroke="midnightblue" d="M70.0255,-570.455C82.4194,-567.05 96.7808,-563.454 110,-561 186.269,-546.842 205.928,-542 283.5,-542 283.5,-542 283.5,-542 655,-542 765.022,-542 887.791,-487.747 941.21,-461.239"/>
<polygon fill="midnightblue" stroke="midnightblue" points="943.001,-464.256 950.358,-456.632 939.853,-458.004 943.001,-464.256"/>
</g>
<!-- Node36 -->
<g id="node36" class="node"><title>Node36</title>
<g id="a_node36"><a xlink:href="stack_8cpp.html#a7a8a89da82371dc2324696e7dfacad5e" target="_top" xlink:title="Pop the stack n times or until it is empty. ">
<polygon fill="white" stroke="black" points="136,-684.5 136,-703.5 176,-703.5 176,-684.5 136,-684.5"/>
<text text-anchor="middle" x="156" y="-691.5" font-family="Helvetica,sans-Serif" font-size="10.00">popN</text>
</a>
</g>
</g>
<!-- Node1&#45;&gt;Node36 -->
<g id="edge48" class="edge"><title>Node1&#45;&gt;Node36</title>
<path fill="none" stroke="midnightblue" d="M43.0467,-589.681C53.2998,-608.507 78.3055,-650.357 110,-675 114.889,-678.802 120.651,-681.98 126.39,-684.582"/>
<polygon fill="midnightblue" stroke="midnightblue" points="125.286,-687.911 135.868,-688.425 127.916,-681.424 125.286,-687.911"/>
</g>
<!-- Node38 -->
<g id="node38" class="node"><title>Node38</title>
<g id="a_node38"><a xlink:href="actions_8cpp.html#a40fea7a424d292e239a5e7a8271728ec" target="_top" xlink:title="txTick">
<polygon fill="white" stroke="black" points="1077,-0.5 1077,-19.5 1121,-19.5 1121,-0.5 1077,-0.5"/>
<text text-anchor="middle" x="1099" y="-7.5" font-family="Helvetica,sans-Serif" font-size="10.00">txTick</text>
</a>
</g>
</g>
<!-- Node1&#45;&gt;Node38 -->
<g id="edge53" class="edge"><title>Node1&#45;&gt;Node38</title>
<path fill="none" stroke="midnightblue" d="M37.6051,-570.107C35.1294,-494.417 29.2178,-10 283.5,-10 283.5,-10 283.5,-10 813,-10 905.156,-10 1014.07,-10 1066.58,-10"/>
<polygon fill="midnightblue" stroke="midnightblue" points="1066.91,-13.5001 1076.91,-10 1066.91,-6.5001 1066.91,-13.5001"/>
</g>
<!-- Node3 -->
<g id="node3" class="node"><title>Node3</title>
<g id="a_node3"><a xlink:href="class_stack.html#afc30a7ee287e14f08802c2d43613f2b4" target="_top" xlink:title="Return the number of elements currently in the stack. ">
<polygon fill="white" stroke="black" points="387,-646.5 387,-665.5 453,-665.5 453,-646.5 387,-646.5"/>
<text text-anchor="middle" x="420" y="-653.5" font-family="Helvetica,sans-Serif" font-size="10.00">Stack::size</text>
</a>
</g>
</g>
<!-- Node2&#45;&gt;Node3 -->
<g id="edge2" class="edge"><title>Node2&#45;&gt;Node3</title>
<path fill="none" stroke="midnightblue" d="M319.188,-627.589C336.735,-632.584 358.361,-638.739 376.991,-644.042"/>
<polygon fill="midnightblue" stroke="midnightblue" points="376.128,-647.436 386.705,-646.807 378.045,-640.703 376.128,-647.436"/>
</g>
<!-- Node4&#45;&gt;Node2 -->
<g id="edge4" class="edge"><title>Node4&#45;&gt;Node2</title>
<path fill="none" stroke="midnightblue" d="M170.538,-651.933C187.456,-646.851 217.192,-637.919 241.909,-630.494"/>
<polygon fill="midnightblue" stroke="midnightblue" points="243.223,-633.754 251.793,-627.525 241.209,-627.05 243.223,-633.754"/>
</g>
<!-- Node6 -->
<g id="node6" class="node"><title>Node6</title>
<g id="a_node6"><a xlink:href="morse__token_8h.html#a9ec0688da83c93d634e79b2d7ad7ad64" target="_top" xlink:title="Convert Morse 0&#45;9 to the corresponding digit. ">
<polygon fill="white" stroke="black" points="268.5,-570.5 268.5,-589.5 300.5,-589.5 300.5,-570.5 268.5,-570.5"/>
<text text-anchor="middle" x="284.5" y="-577.5" font-family="Helvetica,sans-Serif" font-size="10.00">m2i</text>
</a>
</g>
</g>
<!-- Node5&#45;&gt;Node6 -->
<g id="edge6" class="edge"><title>Node5&#45;&gt;Node6</title>
<path fill="none" stroke="midnightblue" d="M202.312,-580C221.09,-580 242.168,-580 258.14,-580"/>
<polygon fill="midnightblue" stroke="midnightblue" points="258.291,-583.5 268.291,-580 258.291,-576.5 258.291,-583.5"/>
</g>
<!-- Node7 -->
<g id="node7" class="node"><title>Node7</title>
<g id="a_node7"><a xlink:href="class_morse_token.html#a8c36a957ebc90172eae960757c72d3a4" target="_top" xlink:title="Convert to a single ASCII character. ">
<polygon fill="white" stroke="black" points="367,-570.5 367,-589.5 473,-589.5 473,-570.5 367,-570.5"/>
<text text-anchor="middle" x="420" y="-577.5" font-family="Helvetica,sans-Serif" font-size="10.00">MorseToken::toChar</text>
</a>
</g>
</g>
<!-- Node6&#45;&gt;Node7 -->
<g id="edge7" class="edge"><title>Node6&#45;&gt;Node7</title>
<path fill="none" stroke="midnightblue" d="M300.555,-580C314.385,-580 335.843,-580 356.717,-580"/>
<polygon fill="midnightblue" stroke="midnightblue" points="356.881,-583.5 366.881,-580 356.881,-576.5 356.881,-583.5"/>
</g>
<!-- Node6&#45;&gt;Node11 -->
<g id="edge11" class="edge"><title>Node6&#45;&gt;Node11</title>
<path fill="none" stroke="midnightblue" d="M290.095,-570.19C309.392,-528.995 384.068,-369.575 410.038,-314.133"/>
<polygon fill="midnightblue" stroke="midnightblue" points="413.352,-315.31 414.424,-304.769 407.012,-312.34 413.352,-315.31"/>
</g>
<!-- Node8 -->
<g id="node8" class="node"><title>Node8</title>
<g id="a_node8"><a xlink:href="morse__token_8h.html#a98f44690e97cbd7ea9445ca0a560a564" target="_top" xlink:title="Convert a Morse code into ASCII. ">
<polygon fill="white" stroke="black" points="516.5,-570.5 516.5,-589.5 551.5,-589.5 551.5,-570.5 516.5,-570.5"/>
<text text-anchor="middle" x="534" y="-577.5" font-family="Helvetica,sans-Serif" font-size="10.00">m2a</text>
</a>
</g>
</g>
<!-- Node7&#45;&gt;Node8 -->
<g id="edge8" class="edge"><title>Node7&#45;&gt;Node8</title>
<path fill="none" stroke="midnightblue" d="M473.065,-580C484.56,-580 496.277,-580 506.266,-580"/>
<polygon fill="midnightblue" stroke="midnightblue" points="506.335,-583.5 516.335,-580 506.334,-576.5 506.335,-583.5"/>
</g>
<!-- Node9 -->
<g id="node9" class="node"><title>Node9</title>
<g id="a_node9"><a xlink:href="class_morse_token.html#a48cd72aeb868391449d1f51c1d0bf5cc" target="_top" xlink:title="Treat code == 0 as the error token. ">
<polygon fill="white" stroke="black" points="1173.5,-465.5 1173.5,-484.5 1270.5,-484.5 1270.5,-465.5 1173.5,-465.5"/>
<text text-anchor="middle" x="1222" y="-472.5" font-family="Helvetica,sans-Serif" font-size="10.00">MorseToken::valid</text>
</a>
</g>
</g>
<!-- Node8&#45;&gt;Node9 -->
<g id="edge9" class="edge"><title>Node8&#45;&gt;Node9</title>
<path fill="none" stroke="midnightblue" d="M551.554,-586.322C563.461,-590.601 579.999,-596.003 595,-599 689.503,-617.882 714.629,-618 811,-618 811,-618 811,-618 970.5,-618 1071.02,-618 1167.91,-530.088 1205.06,-492.123"/>
<polygon fill="midnightblue" stroke="midnightblue" points="1207.67,-494.467 1212.07,-484.829 1202.62,-489.619 1207.67,-494.467"/>
</g>
<!-- Node10 -->
<g id="node10" class="node"><title>Node10</title>
<g id="a_node10"><a xlink:href="class_morse_token.html#adc74054417a8636c1d34d43c34628731" target="_top" xlink:title="Treat code == 1 as a space. ">
<polygon fill="white" stroke="black" points="602.5,-570.5 602.5,-589.5 705.5,-589.5 705.5,-570.5 602.5,-570.5"/>
<text text-anchor="middle" x="654" y="-577.5" font-family="Helvetica,sans-Serif" font-size="10.00">MorseToken::pause</text>
</a>
</g>
</g>
<!-- Node8&#45;&gt;Node10 -->
<g id="edge10" class="edge"><title>Node8&#45;&gt;Node10</title>
<path fill="none" stroke="midnightblue" d="M551.656,-580C562.444,-580 577.224,-580 592.161,-580"/>
<polygon fill="midnightblue" stroke="midnightblue" points="592.481,-583.5 602.481,-580 592.481,-576.5 592.481,-583.5"/>
</g>
<!-- Node12 -->
<g id="node12" class="node"><title>Node12</title>
<g id="a_node12"><a xlink:href="libmorse_8cpp.html#a0ee2308940264ea9ac8e50afc1a4d285" target="_top" xlink:title="txString">
<polygon fill="white" stroke="black" points="509,-285.5 509,-304.5 559,-304.5 559,-285.5 509,-285.5"/>
<text text-anchor="middle" x="534" y="-292.5" font-family="Helvetica,sans-Serif" font-size="10.00">txString</text>
</a>
</g>
</g>
<!-- Node11&#45;&gt;Node12 -->
<g id="edge12" class="edge"><title>Node11&#45;&gt;Node12</title>
<path fill="none" stroke="midnightblue" d="M443.128,-295C459.008,-295 480.711,-295 498.81,-295"/>
<polygon fill="midnightblue" stroke="midnightblue" points="498.98,-298.5 508.98,-295 498.98,-291.5 498.98,-298.5"/>
</g>
<!-- Node12&#45;&gt;Node13 -->
<g id="edge13" class="edge"><title>Node12&#45;&gt;Node13</title>
<path fill="none" stroke="midnightblue" d="M537.126,-304.581C542.521,-326.408 558.949,-379.804 595,-404 649.248,-440.409 847.049,-446.17 930.718,-446.951"/>
<polygon fill="midnightblue" stroke="midnightblue" points="930.781,-450.452 940.807,-447.026 930.833,-443.452 930.781,-450.452"/>
</g>
<!-- Node15 -->
<g id="node15" class="node"><title>Node15</title>
<g id="a_node15"><a xlink:href="settings_8cpp.html#a960551e90dfdad18f3c9b1338ccba7db" target="_top" xlink:title="Get the dit duration in microseconds. ">
<polygon fill="white" stroke="black" points="1186,-285.5 1186,-304.5 1258,-304.5 1258,-285.5 1186,-285.5"/>
<text text-anchor="middle" x="1222" y="-292.5" font-family="Helvetica,sans-Serif" font-size="10.00">getDitMicros</text>
</a>
</g>
</g>
<!-- Node12&#45;&gt;Node15 -->
<g id="edge15" class="edge"><title>Node12&#45;&gt;Node15</title>
<path fill="none" stroke="midnightblue" d="M541.39,-304.878C551.113,-319.003 571.044,-344.629 595,-357 681.287,-401.56 713.886,-390 811,-390 811,-390 811,-390 970.5,-390 1059.55,-390 1155.51,-336.867 1198.24,-310.073"/>
<polygon fill="midnightblue" stroke="midnightblue" points="1200.22,-312.963 1206.76,-304.632 1196.45,-307.063 1200.22,-312.963"/>
</g>
<!-- Node16 -->
<g id="node16" class="node"><title>Node16</title>
<g id="a_node16"><a xlink:href="libmorse_8cpp.html#a9fdfce728595d72b78dc7c834ab99a40" target="_top" xlink:title="Transmit a literal Morse code value. ">
<polygon fill="white" stroke="black" points="1073.5,-152.5 1073.5,-171.5 1124.5,-171.5 1124.5,-152.5 1073.5,-152.5"/>
<text text-anchor="middle" x="1099" y="-159.5" font-family="Helvetica,sans-Serif" font-size="10.00">txLiteral</text>
</a>
</g>
</g>
<!-- Node12&#45;&gt;Node16 -->
<g id="edge16" class="edge"><title>Node12&#45;&gt;Node16</title>
<path fill="none" stroke="midnightblue" d="M538.015,-285.252C544.675,-265.57 562.671,-221.317 595,-202 674.087,-154.744 962.773,-158.139 1063.25,-160.853"/>
<polygon fill="midnightblue" stroke="midnightblue" points="1063.36,-164.358 1073.46,-161.145 1063.56,-157.361 1063.36,-164.358"/>
</g>
<!-- Node24 -->
<g id="node24" class="node"><title>Node24</title>
<g id="a_node24"><a xlink:href="libmorse_8cpp.html#acd4b292f5e412ee4f05aed9dafbc072d" target="_top" xlink:title="Convert an ASCII character into Morse code and transmit it. ">
<polygon fill="white" stroke="black" points="944.5,-114.5 944.5,-133.5 994.5,-133.5 994.5,-114.5 944.5,-114.5"/>
<text text-anchor="middle" x="969.5" y="-121.5" font-family="Helvetica,sans-Serif" font-size="10.00">txLetter</text>
</a>
</g>
</g>
<!-- Node12&#45;&gt;Node24 -->
<g id="edge27" class="edge"><title>Node12&#45;&gt;Node24</title>
<path fill="none" stroke="midnightblue" d="M535.596,-285.357C537.838,-258.333 548.237,-181.648 595,-148 648.568,-109.455 852.283,-116.969 934.143,-121.716"/>
<polygon fill="midnightblue" stroke="midnightblue" points="934.215,-125.227 944.407,-122.334 934.636,-118.239 934.215,-125.227"/>
</g>
<!-- Node25 -->
<g id="node25" class="node"><title>Node25</title>
<g id="a_node25"><a xlink:href="teensy3__morse__bsp_8cpp.html#a8761e874366e227690fba2964e1bc445" target="_top" xlink:title="getInternalTemperatureC">
<polygon fill="white" stroke="black" points="749.5,-342.5 749.5,-361.5 874.5,-361.5 874.5,-342.5 749.5,-342.5"/>
<text text-anchor="middle" x="812" y="-349.5" font-family="Helvetica,sans-Serif" font-size="10.00">getInternalTemperatureC</text>
</a>
</g>
</g>
<!-- Node12&#45;&gt;Node25 -->
<g id="edge30" class="edge"><title>Node12&#45;&gt;Node25</title>
<path fill="none" stroke="midnightblue" d="M546.533,-304.698C558.016,-313.746 576.546,-326.758 595,-333 641.384,-348.689 696.396,-353.34 739.293,-354.119"/>
<polygon fill="midnightblue" stroke="midnightblue" points="739.326,-357.62 749.366,-354.236 739.407,-350.62 739.326,-357.62"/>
</g>
<!-- Node26 -->
<g id="node26" class="node"><title>Node26</title>
<g id="a_node26"><a xlink:href="libmorse_8cpp.html#a47abdd74b66d7180c47d192bab8bdccb" target="_top" xlink:title="Transmit an unsigned integer in Morse code. ">
<polygon fill="white" stroke="black" points="779,-247.5 779,-266.5 845,-266.5 845,-247.5 779,-247.5"/>
<text text-anchor="middle" x="812" y="-254.5" font-family="Helvetica,sans-Serif" font-size="10.00">txUnsigned</text>
</a>
</g>
</g>
<!-- Node12&#45;&gt;Node26 -->
<g id="edge31" class="edge"><title>Node12&#45;&gt;Node26</title>
<path fill="none" stroke="midnightblue" d="M539.052,-285.497C546.928,-268.416 566.106,-233.002 595,-219 658.418,-188.268 743.039,-221.836 785.056,-242.792"/>
<polygon fill="midnightblue" stroke="midnightblue" points="783.575,-245.966 794.069,-247.423 786.774,-239.74 783.575,-245.966"/>
</g>
<!-- Node27 -->
<g id="node27" class="node"><title>Node27</title>
<g id="a_node27"><a xlink:href="actions_8cpp.html#aed718ec1bd4cc7adb2f65d40a6784496" target="_top" xlink:title="Transmit the internal temperature in integer in Fahrenheit. ">
<polygon fill="white" stroke="black" points="595,-304.5 595,-323.5 713,-323.5 713,-304.5 595,-304.5"/>
<text text-anchor="middle" x="654" y="-311.5" font-family="Helvetica,sans-Serif" font-size="10.00">txInternalTemperatureF</text>
</a>
</g>
</g>
<!-- Node12&#45;&gt;Node27 -->
<g id="edge34" class="edge"><title>Node12&#45;&gt;Node27</title>
<path fill="none" stroke="midnightblue" d="M559.164,-298.891C566.789,-300.119 575.624,-301.541 584.763,-303.013"/>
<polygon fill="midnightblue" stroke="midnightblue" points="584.326,-306.487 594.755,-304.622 585.438,-299.576 584.326,-306.487"/>
</g>
<!-- Node28 -->
<g id="node28" class="node"><title>Node28</title>
<g id="a_node28"><a xlink:href="actions_8cpp.html#aaabb3ac0c23f35a499bc17efe829f326" target="_top" xlink:title="Transmit the 24&#45;hr time. ">
<polygon fill="white" stroke="black" points="615,-228.5 615,-247.5 693,-247.5 693,-228.5 615,-228.5"/>
<text text-anchor="middle" x="654" y="-235.5" font-family="Helvetica,sans-Serif" font-size="10.00">txTimeHHMM</text>
</a>
</g>
</g>
<!-- Node12&#45;&gt;Node28 -->
<g id="edge37" class="edge"><title>Node12&#45;&gt;Node28</title>
<path fill="none" stroke="midnightblue" d="M540.682,-285.397C551.023,-274.083 573.81,-257.991 595,-248 598.31,-246.44 601.782,-244.955 605.312,-243.575"/>
<polygon fill="midnightblue" stroke="midnightblue" points="606.497,-246.868 614.722,-240.19 604.128,-240.281 606.497,-246.868"/>
</g>
<!-- Node29 -->
<g id="node29" class="node"><title>Node29</title>
<g id="a_node29"><a xlink:href="actions_8cpp.html#ad02149679fa3cc6a4957d1a318408ffd" target="_top" xlink:title="Transmit the uptime. ">
<polygon fill="white" stroke="black" points="626,-266.5 626,-285.5 682,-285.5 682,-266.5 626,-266.5"/>
<text text-anchor="middle" x="654" y="-273.5" font-family="Helvetica,sans-Serif" font-size="10.00">txUptime</text>
</a>
</g>
</g>
<!-- Node12&#45;&gt;Node29 -->
<g id="edge39" class="edge"><title>Node12&#45;&gt;Node29</title>
<path fill="none" stroke="midnightblue" d="M559.164,-291.109C575.548,-288.471 597.518,-284.934 616.079,-281.945"/>
<polygon fill="midnightblue" stroke="midnightblue" points="616.667,-285.395 625.984,-280.35 615.555,-278.484 616.667,-285.395"/>
</g>
<!-- Node31 -->
<g id="node31" class="node"><title>Node31</title>
<g id="a_node31"><a xlink:href="teensy3__morse__bsp_8cpp.html#ae8dd28759e56dbd2ee9bc9ae96d1783c" target="_top" xlink:title="Return the most recent ADC measurement of the input voltage. Perform analog to digital conversion on ...">
<polygon fill="white" stroke="black" points="617,-494.5 617,-513.5 691,-513.5 691,-494.5 617,-494.5"/>
<text text-anchor="middle" x="654" y="-501.5" font-family="Helvetica,sans-Serif" font-size="10.00">readMillivolts</text>
</a>
</g>
</g>
<!-- Node12&#45;&gt;Node31 -->
<g id="edge42" class="edge"><title>Node12&#45;&gt;Node31</title>
<path fill="none" stroke="midnightblue" d="M535.402,-304.858C537.151,-335.058 546.415,-427.431 595,-480 598.606,-483.901 602.942,-487.187 607.599,-489.951"/>
<polygon fill="midnightblue" stroke="midnightblue" points="606.342,-493.238 616.843,-494.645 609.511,-486.996 606.342,-493.238"/>
</g>
<!-- Node35 -->
<g id="node35" class="node"><title>Node35</title>
<g id="a_node35"><a xlink:href="libmorse_8cpp.html#ac3f000c98271c6d0a7710135e18189bc" target="_top" xlink:title="On my hardware there is cross&#45;coupling between the serial port and the touch sensors. Without the code below, long messages to the serial port trigger a touch input. ">
<polygon fill="white" stroke="black" points="779.5,-456.5 779.5,-475.5 844.5,-475.5 844.5,-456.5 779.5,-456.5"/>
<text text-anchor="middle" x="812" y="-463.5" font-family="Helvetica,sans-Serif" font-size="10.00">flushTouch</text>
</a>
</g>
</g>
<!-- Node12&#45;&gt;Node35 -->
<g id="edge46" class="edge"><title>Node12&#45;&gt;Node35</title>
<path fill="none" stroke="midnightblue" d="M535.676,-304.534C538.13,-331.271 549.032,-407.274 595,-442 645.241,-479.953 721.767,-478.624 768.959,-473.098"/>
<polygon fill="midnightblue" stroke="midnightblue" points="769.668,-476.536 779.14,-471.788 768.775,-469.593 769.668,-476.536"/>
</g>
<!-- Node14 -->
<g id="node14" class="node"><title>Node14</title>
<g id="a_node14"><a xlink:href="teensy3__morse__bsp_8cpp.html#af6899cd9b83df54106b259ab81ea5cb2" target="_top" xlink:title="touchMargin">
<polygon fill="white" stroke="black" points="1064,-437.5 1064,-456.5 1134,-456.5 1134,-437.5 1064,-437.5"/>
<text text-anchor="middle" x="1099" y="-444.5" font-family="Helvetica,sans-Serif" font-size="10.00">touchMargin</text>
</a>
</g>
</g>
<!-- Node13&#45;&gt;Node14 -->
<g id="edge14" class="edge"><title>Node13&#45;&gt;Node14</title>
<path fill="none" stroke="midnightblue" d="M998.166,-447C1014.28,-447 1034.98,-447 1053.35,-447"/>
<polygon fill="midnightblue" stroke="midnightblue" points="1053.56,-450.5 1063.56,-447 1053.56,-443.5 1053.56,-450.5"/>
</g>
<!-- Node16&#45;&gt;Node9 -->
<g id="edge17" class="edge"><title>Node16&#45;&gt;Node9</title>
<path fill="none" stroke="midnightblue" d="M1103.75,-171.711C1120.73,-215.618 1190.47,-396.027 1213.55,-455.721"/>
<polygon fill="midnightblue" stroke="midnightblue" points="1210.42,-457.337 1217.29,-465.403 1216.95,-454.813 1210.42,-457.337"/>
</g>
<!-- Node16&#45;&gt;Node11 -->
<g id="edge26" class="edge"><title>Node16&#45;&gt;Node11</title>
<path fill="none" stroke="midnightblue" d="M1088.96,-152.449C1076.45,-139.768 1052.58,-117.523 1028,-105 939.92,-60.117 911.857,-48 813,-48 653,-48 653,-48 653,-48 528.108,-48 450.814,-217.849 428.059,-275.854"/>
<polygon fill="midnightblue" stroke="midnightblue" points="424.743,-274.727 424.445,-285.317 431.282,-277.224 424.743,-274.727"/>
</g>
<!-- Node16&#45;&gt;Node15 -->
<g id="edge25" class="edge"><title>Node16&#45;&gt;Node15</title>
<path fill="none" stroke="midnightblue" d="M1108.7,-171.565C1128.92,-193.791 1179.32,-249.188 1205.17,-277.597"/>
<polygon fill="midnightblue" stroke="midnightblue" points="1202.73,-280.121 1212.05,-285.163 1207.91,-275.411 1202.73,-280.121"/>
</g>
<!-- Node17 -->
<g id="node17" class="node"><title>Node17</title>
<g id="a_node17"><a xlink:href="teensy3__morse__bsp_8cpp.html#af66e71e3fac9b6a2c6532bc8a513bfde" target="_top" xlink:title="Output a square wave on pin 10 at the given frequency for the given duration. ">
<polygon fill="white" stroke="black" points="1203,-114.5 1203,-133.5 1241,-133.5 1241,-114.5 1203,-114.5"/>
<text text-anchor="middle" x="1222" y="-121.5" font-family="Helvetica,sans-Serif" font-size="10.00">beep</text>
</a>
</g>
</g>
<!-- Node16&#45;&gt;Node17 -->
<g id="edge18" class="edge"><title>Node16&#45;&gt;Node17</title>
<path fill="none" stroke="midnightblue" d="M1124.78,-154.218C1144.65,-147.977 1172.54,-139.22 1193.18,-132.738"/>
<polygon fill="midnightblue" stroke="midnightblue" points="1194.45,-136.007 1202.94,-129.671 1192.35,-129.328 1194.45,-136.007"/>
</g>
<!-- Node23 -->
<g id="node23" class="node"><title>Node23</title>
<g id="a_node23"><a xlink:href="settings_8cpp.html#a8575b9b52638114a4f32d1462cf9b7c1" target="_top" xlink:title="Get the transmission frequency (side tone). ">
<polygon fill="white" stroke="black" points="1195,-152.5 1195,-171.5 1249,-171.5 1249,-152.5 1195,-152.5"/>
<text text-anchor="middle" x="1222" y="-159.5" font-family="Helvetica,sans-Serif" font-size="10.00">getTxHz</text>
</a>
</g>
</g>
<!-- Node16&#45;&gt;Node23 -->
<g id="edge24" class="edge"><title>Node16&#45;&gt;Node23</title>
<path fill="none" stroke="midnightblue" d="M1124.78,-162C1141.93,-162 1165.05,-162 1184.33,-162"/>
<polygon fill="midnightblue" stroke="midnightblue" points="1184.58,-165.5 1194.58,-162 1184.58,-158.5 1184.58,-165.5"/>
</g>
<!-- Node18 -->
<g id="node18" class="node"><title>Node18</title>
<g id="a_node18"><a xlink:href="teensy3__morse__bsp_8cpp.html#a6f674d5b9985ea3a7eeb0df299c2e405" target="_top" xlink:title="pollEarphonePresent">
<polygon fill="white" stroke="black" points="1310,-114.5 1310,-133.5 1417,-133.5 1417,-114.5 1310,-114.5"/>
<text text-anchor="middle" x="1363.5" y="-121.5" font-family="Helvetica,sans-Serif" font-size="10.00">pollEarphonePresent</text>
</a>
</g>
</g>
<!-- Node17&#45;&gt;Node18 -->
<g id="edge19" class="edge"><title>Node17&#45;&gt;Node18</title>
<path fill="none" stroke="midnightblue" d="M1241.24,-124C1256.28,-124 1278.56,-124 1299.92,-124"/>
<polygon fill="midnightblue" stroke="midnightblue" points="1299.97,-127.5 1309.97,-124 1299.97,-120.5 1299.97,-127.5"/>
</g>
<!-- Node19 -->
<g id="node19" class="node"><title>Node19</title>
<g id="a_node19"><a xlink:href="teensy3__morse__bsp_8cpp.html#a2d6b4ace33ed5e497dedd03217540c63" target="_top" xlink:title="Set the PWM frequency for the audio output pins. ">
<polygon fill="white" stroke="black" points="1322,-76.5 1322,-95.5 1405,-95.5 1405,-76.5 1322,-76.5"/>
<text text-anchor="middle" x="1363.5" y="-83.5" font-family="Helvetica,sans-Serif" font-size="10.00">pwmFrequency</text>
</a>
</g>
</g>
<!-- Node17&#45;&gt;Node19 -->
<g id="edge20" class="edge"><title>Node17&#45;&gt;Node19</title>
<path fill="none" stroke="midnightblue" d="M1241.24,-119.032C1260.47,-113.793 1291.51,-105.337 1317.37,-98.2928"/>
<polygon fill="midnightblue" stroke="midnightblue" points="1318.63,-101.578 1327.36,-95.5729 1316.79,-94.8243 1318.63,-101.578"/>
</g>
<!-- Node20 -->
<g id="node20" class="node"><title>Node20</title>
<g id="a_node20"><a xlink:href="teensy3__morse__bsp_8cpp.html#a82911eac3bf13d6f36d10102a4c4d3c4" target="_top" xlink:title="Generate a tone on the audio output pins. ">
<polygon fill="white" stroke="black" points="1333,-38.5 1333,-57.5 1394,-57.5 1394,-38.5 1333,-38.5"/>
<text text-anchor="middle" x="1363.5" y="-45.5" font-family="Helvetica,sans-Serif" font-size="10.00">pwmWrite</text>
</a>
</g>
</g>
<!-- Node17&#45;&gt;Node20 -->
<g id="edge21" class="edge"><title>Node17&#45;&gt;Node20</title>
<path fill="none" stroke="midnightblue" d="M1235.69,-114.316C1252.15,-102.089 1282.06,-80.9698 1310,-67 1314.27,-64.8638 1318.85,-62.846 1323.45,-60.9801"/>
<polygon fill="midnightblue" stroke="midnightblue" points="1324.76,-64.2263 1332.84,-57.3743 1322.25,-57.6915 1324.76,-64.2263"/>
</g>
<!-- Node22 -->
<g id="node22" class="node"><title>Node22</title>
<g id="a_node22"><a xlink:href="teensy3__morse__bsp_8cpp.html#a6c982a7d7805f1dd5426eb98c915cfdd" target="_top" xlink:title="Turn the red LED on (1) or off (0). ">
<polygon fill="white" stroke="black" points="1338.5,-152.5 1338.5,-171.5 1388.5,-171.5 1388.5,-152.5 1338.5,-152.5"/>
<text text-anchor="middle" x="1363.5" y="-159.5" font-family="Helvetica,sans-Serif" font-size="10.00">redLED</text>
</a>
</g>
</g>
<!-- Node17&#45;&gt;Node22 -->
<g id="edge23" class="edge"><title>Node17&#45;&gt;Node22</title>
<path fill="none" stroke="midnightblue" d="M1241.24,-128.968C1263.24,-134.962 1300.7,-145.165 1328.17,-152.649"/>
<polygon fill="midnightblue" stroke="midnightblue" points="1327.59,-156.119 1338.16,-155.37 1329.43,-149.365 1327.59,-156.119"/>
</g>
<!-- Node21 -->
<g id="node21" class="node"><title>Node21</title>
<g id="a_node21"><a xlink:href="teensy3__morse__bsp_8cpp.html#ac70998cee1bf97f00aec4a1b4e5a4f60" target="_top" xlink:title="isEarphonePresent">
<polygon fill="white" stroke="black" points="1453,-38.5 1453,-57.5 1552,-57.5 1552,-38.5 1453,-38.5"/>
<text text-anchor="middle" x="1502.5" y="-45.5" font-family="Helvetica,sans-Serif" font-size="10.00">isEarphonePresent</text>
</a>
</g>
</g>
<!-- Node20&#45;&gt;Node21 -->
<g id="edge22" class="edge"><title>Node20&#45;&gt;Node21</title>
<path fill="none" stroke="midnightblue" d="M1394.23,-48C1408.43,-48 1425.96,-48 1442.7,-48"/>
<polygon fill="midnightblue" stroke="midnightblue" points="1442.98,-51.5001 1452.98,-48 1442.98,-44.5001 1442.98,-51.5001"/>
</g>
<!-- Node24&#45;&gt;Node11 -->
<g id="edge29" class="edge"><title>Node24&#45;&gt;Node11</title>
<path fill="none" stroke="midnightblue" d="M944.458,-116.871C883.103,-100.036 716.966,-63.0594 595,-116 516.57,-150.043 455.687,-237.92 431.885,-276.441"/>
<polygon fill="midnightblue" stroke="midnightblue" points="428.823,-274.74 426.644,-285.109 434.813,-278.362 428.823,-274.74"/>
</g>
<!-- Node24&#45;&gt;Node16 -->
<g id="edge28" class="edge"><title>Node24&#45;&gt;Node16</title>
<path fill="none" stroke="midnightblue" d="M994.782,-131.237C1014.24,-137.037 1041.79,-145.248 1063.54,-151.728"/>
<polygon fill="midnightblue" stroke="midnightblue" points="1062.79,-155.158 1073.37,-154.661 1064.79,-148.45 1062.79,-155.158"/>
</g>
<!-- Node26&#45;&gt;Node13 -->
<g id="edge32" class="edge"><title>Node26&#45;&gt;Node13</title>
<path fill="none" stroke="midnightblue" d="M845.246,-261.899C855.584,-264.702 866.536,-269.1 875,-276 925.15,-316.879 952.548,-392.095 963.202,-427.545"/>
<polygon fill="midnightblue" stroke="midnightblue" points="959.848,-428.546 965.978,-437.188 966.575,-426.61 959.848,-428.546"/>
</g>
<!-- Node26&#45;&gt;Node24 -->
<g id="edge33" class="edge"><title>Node26&#45;&gt;Node24</title>
<path fill="none" stroke="midnightblue" d="M824.183,-247.435C850.393,-225.018 916.053,-168.859 949.001,-140.678"/>
<polygon fill="midnightblue" stroke="midnightblue" points="951.674,-142.997 956.999,-133.837 947.124,-137.677 951.674,-142.997"/>
</g>
<!-- Node27&#45;&gt;Node25 -->
<g id="edge35" class="edge"><title>Node27&#45;&gt;Node25</title>
<path fill="none" stroke="midnightblue" d="M694.365,-323.589C714.951,-328.604 740.34,-334.788 762.169,-340.105"/>
<polygon fill="midnightblue" stroke="midnightblue" points="761.373,-343.514 771.918,-342.48 763.03,-336.713 761.373,-343.514"/>
</g>
<!-- Node27&#45;&gt;Node26 -->
<g id="edge36" class="edge"><title>Node27&#45;&gt;Node26</title>
<path fill="none" stroke="midnightblue" d="M687.57,-304.401C695.96,-301.638 704.903,-298.434 713,-295 729.656,-287.937 732.277,-282.903 749,-276 755.362,-273.374 762.222,-270.918 768.979,-268.701"/>
<polygon fill="midnightblue" stroke="midnightblue" points="770.246,-271.972 778.735,-265.633 768.145,-265.295 770.246,-271.972"/>
</g>
<!-- Node28&#45;&gt;Node12 -->
<g id="edge38" class="edge"><title>Node28&#45;&gt;Node12</title>
<path fill="none" stroke="midnightblue" d="M641.563,-247.562C629.628,-253.016 610.526,-258.68 595,-266 585.812,-270.332 576.324,-275.811 567.681,-280.95"/>
<polygon fill="midnightblue" stroke="midnightblue" points="565.816,-277.987 559.027,-286.121 569.406,-283.996 565.816,-277.987"/>
</g>
<!-- Node29&#45;&gt;Node26 -->
<g id="edge41" class="edge"><title>Node29&#45;&gt;Node26</title>
<path fill="none" stroke="midnightblue" d="M682.173,-272.69C706.014,-269.787 741.076,-265.516 768.605,-262.163"/>
<polygon fill="midnightblue" stroke="midnightblue" points="769.244,-265.612 778.748,-260.928 768.398,-258.663 769.244,-265.612"/>
</g>
<!-- Node30 -->
<g id="node30" class="node"><title>Node30</title>
<g id="a_node30"><a xlink:href="settings_8cpp.html#a7b4efa097b94f9a90c5bbafcdf93fe4f" target="_top" xlink:title="getUptime">
<polygon fill="white" stroke="black" points="781,-285.5 781,-304.5 843,-304.5 843,-285.5 781,-285.5"/>
<text text-anchor="middle" x="812" y="-292.5" font-family="Helvetica,sans-Serif" font-size="10.00">getUptime</text>
</a>
</g>
</g>
<!-- Node29&#45;&gt;Node30 -->
<g id="edge40" class="edge"><title>Node29&#45;&gt;Node30</title>
<path fill="none" stroke="midnightblue" d="M682.173,-279.31C706.633,-282.289 742.905,-286.706 770.735,-290.096"/>
<polygon fill="midnightblue" stroke="midnightblue" points="770.595,-293.605 780.945,-291.339 771.441,-286.656 770.595,-293.605"/>
</g>
<!-- Node32 -->
<g id="node32" class="node"><title>Node32</title>
<g id="a_node32"><a xlink:href="class_voltage_monitor.html#a70902b84f9864c95d5553a0644a64f4f" target="_top" xlink:title="Return the latest voltage reading. ">
<polygon fill="white" stroke="black" points="749,-570.5 749,-589.5 875,-589.5 875,-570.5 749,-570.5"/>
<text text-anchor="middle" x="812" y="-577.5" font-family="Helvetica,sans-Serif" font-size="10.00">VoltageMonitor::getValue</text>
</a>
</g>
</g>
<!-- Node31&#45;&gt;Node32 -->
<g id="edge43" class="edge"><title>Node31&#45;&gt;Node32</title>
<path fill="none" stroke="midnightblue" d="M674.758,-513.625C701.952,-526.874 751.09,-550.813 782.327,-566.031"/>
<polygon fill="midnightblue" stroke="midnightblue" points="780.88,-569.219 791.403,-570.453 783.946,-562.926 780.88,-569.219"/>
</g>
<!-- Node33 -->
<g id="node33" class="node"><title>Node33</title>
<g id="a_node33"><a xlink:href="actions_8cpp.html#a2b8c3769e2aa32a2da9e2f3f85ac73dd" target="_top" xlink:title="A sample ADC reading is taken each time through the main loop, and written to a ring buffer...">
<polygon fill="white" stroke="black" points="913.5,-532.5 913.5,-551.5 1025.5,-551.5 1025.5,-532.5 913.5,-532.5"/>
<text text-anchor="middle" x="969.5" y="-539.5" font-family="Helvetica,sans-Serif" font-size="10.00">getVoltagePollInterval</text>
</a>
</g>
</g>
<!-- Node32&#45;&gt;Node33 -->
<g id="edge44" class="edge"><title>Node32&#45;&gt;Node33</title>
<path fill="none" stroke="midnightblue" d="M852.239,-570.411C872.759,-565.396 898.067,-559.212 919.825,-553.895"/>
<polygon fill="midnightblue" stroke="midnightblue" points="920.66,-557.294 929.543,-551.52 918.998,-550.494 920.66,-557.294"/>
</g>
<!-- Node34 -->
<g id="node34" class="node"><title>Node34</title>
<g id="a_node34"><a xlink:href="class_voltage_monitor.html#a75871331808c34b40d04059ee2af0f27" target="_top" xlink:title="Filter and scale raw ADC values to millivolts. ">
<polygon fill="white" stroke="black" points="911,-570.5 911,-589.5 1028,-589.5 1028,-570.5 911,-570.5"/>
<text text-anchor="middle" x="969.5" y="-577.5" font-family="Helvetica,sans-Serif" font-size="10.00">VoltageMonitor::update</text>
</a>
</g>
</g>
<!-- Node32&#45;&gt;Node34 -->
<g id="edge45" class="edge"><title>Node32&#45;&gt;Node34</title>
<path fill="none" stroke="midnightblue" d="M875.352,-580C883.702,-580 892.298,-580 900.735,-580"/>
<polygon fill="midnightblue" stroke="midnightblue" points="900.92,-583.5 910.92,-580 900.92,-576.5 900.92,-583.5"/>
</g>
<!-- Node35&#45;&gt;Node13 -->
<g id="edge47" class="edge"><title>Node35&#45;&gt;Node13</title>
<path fill="none" stroke="midnightblue" d="M844.843,-462.109C869.788,-459.061 904.554,-454.813 930.872,-451.598"/>
<polygon fill="midnightblue" stroke="midnightblue" points="931.362,-455.064 940.864,-450.377 930.513,-448.116 931.362,-455.064"/>
</g>
<!-- Node36&#45;&gt;Node3 -->
<g id="edge49" class="edge"><title>Node36&#45;&gt;Node3</title>
<path fill="none" stroke="midnightblue" d="M176.14,-692.564C208.277,-690.008 275.057,-684.069 331,-675 346.022,-672.565 362.347,-669.234 376.811,-666.04"/>
<polygon fill="midnightblue" stroke="midnightblue" points="377.981,-669.364 386.969,-663.754 376.444,-662.535 377.981,-669.364"/>
</g>
<!-- Node37 -->
<g id="node37" class="node"><title>Node37</title>
<g id="a_node37"><a xlink:href="class_stack.html#a8b4caa181ab4cc209c270338e919cf8b" target="_top" xlink:title="Discard the top element, if the stack is not empty. ">
<polygon fill="white" stroke="black" points="252.5,-646.5 252.5,-665.5 316.5,-665.5 316.5,-646.5 252.5,-646.5"/>
<text text-anchor="middle" x="284.5" y="-653.5" font-family="Helvetica,sans-Serif" font-size="10.00">Stack::pop</text>
</a>
</g>
</g>
<!-- Node36&#45;&gt;Node37 -->
<g id="edge50" class="edge"><title>Node36&#45;&gt;Node37</title>
<path fill="none" stroke="midnightblue" d="M176.213,-688.229C193.793,-682.947 220.385,-674.959 242.696,-668.257"/>
<polygon fill="midnightblue" stroke="midnightblue" points="243.706,-671.609 252.276,-665.38 241.692,-664.905 243.706,-671.609"/>
</g>
<!-- Node39 -->
<g id="node39" class="node"><title>Node39</title>
<g id="a_node39"><a xlink:href="sound_8cpp.html#a77ffd11f8a990ba2130061186e49535a" target="_top" xlink:title="Play a PWM tone at a given frequency and duration. ">
<polygon fill="white" stroke="black" points="1194,-38.5 1194,-57.5 1250,-57.5 1250,-38.5 1194,-38.5"/>
<text text-anchor="middle" x="1222" y="-45.5" font-family="Helvetica,sans-Serif" font-size="10.00">playTone</text>
</a>
</g>
</g>
<!-- Node38&#45;&gt;Node39 -->
<g id="edge54" class="edge"><title>Node38&#45;&gt;Node39</title>
<path fill="none" stroke="midnightblue" d="M1121.08,-16.6191C1138.42,-22.0647 1163.41,-29.9137 1184.06,-36.3994"/>
<polygon fill="midnightblue" stroke="midnightblue" points="1183.21,-39.8002 1193.8,-39.4573 1185.31,-33.1218 1183.21,-39.8002"/>
</g>
<!-- Node41 -->
<g id="node41" class="node"><title>Node41</title>
<g id="a_node41"><a xlink:href="settings_8cpp.html#ad02597259b5753e0c98605bce44a9fc8" target="_top" xlink:title="Get the default dit duration in microseconds. ">
<polygon fill="white" stroke="black" points="1170,-0.5 1170,-19.5 1274,-19.5 1274,-0.5 1170,-0.5"/>
<text text-anchor="middle" x="1222" y="-7.5" font-family="Helvetica,sans-Serif" font-size="10.00">getDitMicrosDefault</text>
</a>
</g>
</g>
<!-- Node38&#45;&gt;Node41 -->
<g id="edge58" class="edge"><title>Node38&#45;&gt;Node41</title>
<path fill="none" stroke="midnightblue" d="M1121.08,-10C1131.97,-10 1145.89,-10 1159.86,-10"/>
<polygon fill="midnightblue" stroke="midnightblue" points="1159.99,-13.5001 1169.99,-10 1159.99,-6.5001 1159.99,-13.5001"/>
</g>
<!-- Node39&#45;&gt;Node19 -->
<g id="edge55" class="edge"><title>Node39&#45;&gt;Node19</title>
<path fill="none" stroke="midnightblue" d="M1250.23,-55.417C1269.34,-60.624 1295.35,-67.708 1317.52,-73.7469"/>
<polygon fill="midnightblue" stroke="midnightblue" points="1316.83,-77.1861 1327.4,-76.4374 1318.67,-70.4322 1316.83,-77.1861"/>
</g>
<!-- Node39&#45;&gt;Node20 -->
<g id="edge56" class="edge"><title>Node39&#45;&gt;Node20</title>
<path fill="none" stroke="midnightblue" d="M1250.23,-48C1270.86,-48 1299.51,-48 1322.7,-48"/>
<polygon fill="midnightblue" stroke="midnightblue" points="1322.93,-51.5001 1332.93,-48 1322.93,-44.5001 1322.93,-51.5001"/>
</g>
<!-- Node40 -->
<g id="node40" class="node"><title>Node40</title>
<g id="a_node40"><a xlink:href="teensy3__morse__bsp_8cpp.html#a36cda3a6dd77f2141cfc703c55a47ff8" target="_top" xlink:title="getDuty">
<polygon fill="white" stroke="black" points="1338,-0.5 1338,-19.5 1389,-19.5 1389,-0.5 1338,-0.5"/>
<text text-anchor="middle" x="1363.5" y="-7.5" font-family="Helvetica,sans-Serif" font-size="10.00">getDuty</text>
</a>
</g>
</g>
<!-- Node39&#45;&gt;Node40 -->
<g id="edge57" class="edge"><title>Node39&#45;&gt;Node40</title>
<path fill="none" stroke="midnightblue" d="M1250.23,-40.583C1272.43,-34.5353 1303.93,-25.9557 1327.91,-19.4222"/>
<polygon fill="midnightblue" stroke="midnightblue" points="1328.95,-22.7661 1337.68,-16.7608 1327.11,-16.0122 1328.95,-22.7661"/>
</g>
</g>
</svg>
        <g id="navigator" transform="translate(0 0)" fill="#404254">
                <rect fill="#f2f5e9" fill-opacity="0.5" stroke="#606060" stroke-width=".5" x="0" y="0" width="60" height="60"/>
                <use id="zoomplus" xlink:href="#zoomPlus" x="17" y="9" onmousedown="handleZoom(evt,'in')"/>
                <use id="zoomminus" xlink:href="#zoomMin" x="42" y="9" onmousedown="handleZoom(evt,'out')"/>
                <use id="reset" xlink:href="#resetDef" x="30" y="36" onmousedown="handleReset()"/>
                <g id="arrowUp" xlink:href="#dirArrow" transform="translate(30 24)" onmousedown="handlePan(0,-1)">
                  <use xlink:href="#rim" fill="#404040">
                        <set attributeName="fill" to="#808080" begin="arrowUp.mouseover" end="arrowUp.mouseout"/>
                  </use>
                  <path fill="none" stroke="white" stroke-width="1.5" d="M0,-3.0v7 M-2.5,-0.5L0,-3.0L2.5,-0.5"/>
                </g>
                <g id="arrowRight" xlink:href="#dirArrow" transform="rotate(90) translate(36 -43)" onmousedown="handlePan(1,0)">
                  <use xlink:href="#rim" fill="#404040">
                        <set attributeName="fill" to="#808080" begin="arrowRight.mouseover" end="arrowRight.mouseout"/>
                  </use>
                  <path fill="none" stroke="white" stroke-width="1.5" d="M0,-3.0v7 M-2.5,-0.5L0,-3.0L2.5,-0.5"/>
                </g>
                <g id="arrowDown" xlink:href="#dirArrow" transform="rotate(180) translate(-30 -48)" onmousedown="handlePan(0,1)">
                  <use xlink:href="#rim" fill="#404040">
                        <set attributeName="fill" to="#808080" begin="arrowDown.mouseover" end="arrowDown.mouseout"/>
                  </use>
                  <path fill="none" stroke="white" stroke-width="1.5" d="M0,-3.0v7 M-2.5,-0.5L0,-3.0L2.5,-0.5"/>
                </g>
                <g id="arrowLeft" xlink:href="#dirArrow" transform="rotate(270) translate(-36 17)" onmousedown="handlePan(-1,0)">
                  <use xlink:href="#rim" fill="#404040">
                        <set attributeName="fill" to="#808080" begin="arrowLeft.mouseover" end="arrowLeft.mouseout"/>
                  </use>
                  <path fill="none" stroke="white" stroke-width="1.5" d="M0,-3.0v7 M-2.5,-0.5L0,-3.0L2.5,-0.5"/>
                </g>
        </g>
        <svg viewBox="0 0 15 15" width="100%" height="30px" preserveAspectRatio="xMaxYMin meet">
         <g id="arrow_out" transform="scale(0.3 0.3)">
          <a xlink:href="pda_8cpp_aee08a527408a7a8a4b5490d13b767cb2_cgraph_org.svg" target="_base">
           <rect id="button" ry="5" rx="5" y="6" x="6" height="38" width="38"
                fill="#f2f5e9" fill-opacity="0.5" stroke="#606060" stroke-width="1.0"/>
           <path id="arrow"
             d="M 11.500037,31.436501 C 11.940474,20.09759 22.043105,11.32322 32.158766,21.979434 L 37.068811,17.246167 C 37.068811,17.246167 37.088388,32 37.088388,32 L 22.160133,31.978069 C 22.160133,31.978069 26.997745,27.140456 26.997745,27.140456 C 18.528582,18.264221 13.291696,25.230495 11.500037,31.436501 z"
             style="fill:#404040;"/>
          </a>
         </g>
        </svg>
</svg>
