<?xml version="1.0" encoding="UTF-8" standalone="no"?>
<!DOCTYPE svg PUBLIC "-//W3C//DTD SVG 1.1//EN"
 "http://www.w3.org/Graphics/SVG/1.1/DTD/svg11.dtd">
<!-- Generated by graphviz version 2.38.0 (20140413.2041)
 -->
<!-- Title: digitErrCount Pages: 1 -->
<svg width="397pt" height="66pt"
 viewBox="0.00 0.00 397.00 66.00" xmlns="http://www.w3.org/2000/svg" xmlns:xlink="http://www.w3.org/1999/xlink">
<g id="graph0" class="graph" transform="scale(1 1) rotate(0) translate(4 62)">
<title>digitErrCount</title>
<polygon fill="white" stroke="none" points="-4,4 -4,-62 393,-62 393,4 -4,4"/>
<!-- Node1 -->
<g id="node1" class="node"><title>Node1</title>
<polygon fill="#bfbfbf" stroke="black" points="0,-19.5 0,-38.5 74,-38.5 74,-19.5 0,-19.5"/>
<text text-anchor="middle" x="37" y="-26.5" font-family="Helvetica,sans-Serif" font-size="10.00">digitErrCount</text>
</g>
<!-- Node2 -->
<g id="node2" class="node"><title>Node2</title>
<g id="a_node2"><a xlink:href="pda_8cpp.html#a79dd5e229b0bf72c859eb5449952bc1a" target="_top" xlink:title="getDigitByWeight">
<polygon fill="white" stroke="black" points="207,-38.5 207,-57.5 300,-57.5 300,-38.5 207,-38.5"/>
<text text-anchor="middle" x="253.5" y="-45.5" font-family="Helvetica,sans-Serif" font-size="10.00">getDigitByWeight</text>
</a>
</g>
</g>
<!-- Node1&#45;&gt;Node2 -->
<g id="edge1" class="edge"><title>Node1&#45;&gt;Node2</title>
<path fill="none" stroke="midnightblue" d="M84.7004,-33.1366C120.974,-36.3496 170.99,-40.78 206.965,-43.9666"/>
<polygon fill="midnightblue" stroke="midnightblue" points="84.6568,-29.6192 74.387,-32.2231 84.0392,-36.5919 84.6568,-29.6192"/>
</g>
<!-- Node4 -->
<g id="node4" class="node"><title>Node4</title>
<g id="a_node4"><a xlink:href="pda_8h.html#a59acff867d89a88cb2142895d95b12e8" target="_top" xlink:title="gradeSum">
<polygon fill="white" stroke="black" points="110,-0.5 110,-19.5 171,-19.5 171,-0.5 110,-0.5"/>
<text text-anchor="middle" x="140.5" y="-7.5" font-family="Helvetica,sans-Serif" font-size="10.00">gradeSum</text>
</a>
</g>
</g>
<!-- Node1&#45;&gt;Node4 -->
<g id="edge3" class="edge"><title>Node1&#45;&gt;Node4</title>
<path fill="none" stroke="midnightblue" d="M84.184,-20.3547C92.9237,-18.7187 101.845,-17.0486 109.901,-15.5407"/>
<polygon fill="midnightblue" stroke="midnightblue" points="83.2562,-16.9675 74.0709,-22.2478 84.5442,-23.848 83.2562,-16.9675"/>
</g>
<!-- Node3 -->
<g id="node3" class="node"><title>Node3</title>
<g id="a_node3"><a xlink:href="pda_8h.html#abf2e0c8c523ed9ddee8a9194c9800b99" target="_top" xlink:title="askSum">
<polygon fill="white" stroke="black" points="336,-19.5 336,-38.5 389,-38.5 389,-19.5 336,-19.5"/>
<text text-anchor="middle" x="362.5" y="-26.5" font-family="Helvetica,sans-Serif" font-size="10.00">askSum</text>
</a>
</g>
</g>
<!-- Node2&#45;&gt;Node3 -->
<g id="edge2" class="edge"><title>Node2&#45;&gt;Node3</title>
<path fill="none" stroke="midnightblue" d="M310.23,-38.1041C319.14,-36.5219 327.967,-34.9545 335.721,-33.5776"/>
<polygon fill="midnightblue" stroke="midnightblue" points="309.422,-34.6927 300.188,-39.8872 310.646,-41.5848 309.422,-34.6927"/>
</g>
<!-- Node5 -->
<g id="node5" class="node"><title>Node5</title>
<g id="a_node5"><a xlink:href="pda_8h.html#a15825e7325bc5cdbd18cf2c6055baef1" target="_top" xlink:title="gradeRestore">
<polygon fill="white" stroke="black" points="216,-0.5 216,-19.5 291,-19.5 291,-0.5 216,-0.5"/>
<text text-anchor="middle" x="253.5" y="-7.5" font-family="Helvetica,sans-Serif" font-size="10.00">gradeRestore</text>
</a>
</g>
</g>
<!-- Node4&#45;&gt;Node5 -->
<g id="edge4" class="edge"><title>Node4&#45;&gt;Node5</title>
<path fill="none" stroke="midnightblue" d="M181.295,-10C192.592,-10 204.835,-10 215.931,-10"/>
<polygon fill="midnightblue" stroke="midnightblue" points="181.246,-6.5001 171.246,-10 181.246,-13.5001 181.246,-6.5001"/>
</g>
<!-- Node5&#45;&gt;Node3 -->
<g id="edge5" class="edge"><title>Node5&#45;&gt;Node3</title>
<path fill="none" stroke="midnightblue" d="M300.94,-18.2464C312.945,-20.3782 325.433,-22.5956 335.928,-24.4592"/>
<polygon fill="midnightblue" stroke="midnightblue" points="301.482,-14.7879 291.024,-16.4856 300.258,-21.6801 301.482,-14.7879"/>
</g>
</g>
</svg>
