<?xml version="1.0" encoding="UTF-8" standalone="no"?>
<!DOCTYPE svg PUBLIC "-//W3C//DTD SVG 1.1//EN"
 "http://www.w3.org/Graphics/SVG/1.1/DTD/svg11.dtd">
<!-- Generated by graphviz version 2.38.0 (20140413.2041)
 -->
<!-- Title: gradeSum Pages: 1 -->
<svg width="1409pt" height="602pt"
 viewBox="0.00 0.00 1409.00 602.30" xmlns="http://www.w3.org/2000/svg" xmlns:xlink="http://www.w3.org/1999/xlink">
<g id="graph0" class="graph" transform="scale(1 1) rotate(0) translate(4 598.302)">
<title>gradeSum</title>
<polygon fill="white" stroke="none" points="-4,4 -4,-598.302 1405,-598.302 1405,4 -4,4"/>
<!-- Node1 -->
<g id="node1" class="node"><title>Node1</title>
<polygon fill="#bfbfbf" stroke="black" points="0,-460.802 0,-479.802 61,-479.802 61,-460.802 0,-460.802"/>
<text text-anchor="middle" x="30.5" y="-467.802" font-family="Helvetica,sans-Serif" font-size="10.00">gradeSum</text>
</g>
<!-- Node2 -->
<g id="node2" class="node"><title>Node2</title>
<g id="a_node2"><a xlink:href="stack_8cpp.html#aafac4a86d14d59c34565bc295024e511" target="_top" xlink:title="symbolStackSize">
<polygon fill="white" stroke="black" points="213.5,-574.802 213.5,-593.802 306.5,-593.802 306.5,-574.802 213.5,-574.802"/>
<text text-anchor="middle" x="260" y="-581.802" font-family="Helvetica,sans-Serif" font-size="10.00">symbolStackSize</text>
</a>
</g>
</g>
<!-- Node1&#45;&gt;Node2 -->
<g id="edge1" class="edge"><title>Node1&#45;&gt;Node2</title>
<path fill="none" stroke="midnightblue" d="M40.3786,-480.039C52.2191,-492.516 74.3322,-514.105 97,-527.302 132.143,-547.762 175.823,-562.601 208.968,-572"/>
<polygon fill="midnightblue" stroke="midnightblue" points="208.324,-575.453 218.895,-574.743 210.188,-568.706 208.324,-575.453"/>
</g>
<!-- Node4 -->
<g id="node4" class="node"><title>Node4</title>
<g id="a_node4"><a xlink:href="stack_8cpp.html#abefdfbf9131b5ea5926f9ecbecb6b1e6" target="_top" xlink:title="Access the stack using an index where 0 is the top of the stack. ">
<polygon fill="white" stroke="black" points="119.5,-574.802 119.5,-593.802 148.5,-593.802 148.5,-574.802 119.5,-574.802"/>
<text text-anchor="middle" x="134" y="-581.802" font-family="Helvetica,sans-Serif" font-size="10.00">s</text>
</a>
</g>
</g>
<!-- Node1&#45;&gt;Node4 -->
<g id="edge3" class="edge"><title>Node1&#45;&gt;Node4</title>
<path fill="none" stroke="midnightblue" d="M36.8732,-479.82C47.0156,-497.225 70.3692,-534.745 97,-560.302 101.029,-564.169 105.754,-567.814 110.431,-571.04"/>
<polygon fill="midnightblue" stroke="midnightblue" points="108.869,-574.197 119.17,-576.675 112.662,-568.314 108.869,-574.197"/>
</g>
<!-- Node5 -->
<g id="node5" class="node"><title>Node5</title>
<g id="a_node5"><a xlink:href="morse__token_8cpp.html#a9ec0688da83c93d634e79b2d7ad7ad64" target="_top" xlink:title="Convert Morse 0&#45;9 to the corresponding digit. ">
<polygon fill="white" stroke="black" points="118,-460.802 118,-479.802 150,-479.802 150,-460.802 118,-460.802"/>
<text text-anchor="middle" x="134" y="-467.802" font-family="Helvetica,sans-Serif" font-size="10.00">m2i</text>
</a>
</g>
</g>
<!-- Node1&#45;&gt;Node5 -->
<g id="edge5" class="edge"><title>Node1&#45;&gt;Node5</title>
<path fill="none" stroke="midnightblue" d="M61.1309,-470.302C75.9586,-470.302 93.7139,-470.302 107.867,-470.302"/>
<polygon fill="midnightblue" stroke="midnightblue" points="107.879,-473.803 117.879,-470.302 107.879,-466.803 107.879,-473.803"/>
</g>
<!-- Node10 -->
<g id="node10" class="node"><title>Node10</title>
<g id="a_node10"><a xlink:href="libmorse_8cpp.html#ab94e088615119d1faae7df22ce50aedf" target="_top" xlink:title="Transmit a Morse code prosign indicating an error. ">
<polygon fill="white" stroke="black" points="237,-422.802 237,-441.802 283,-441.802 283,-422.802 237,-422.802"/>
<text text-anchor="middle" x="260" y="-429.802" font-family="Helvetica,sans-Serif" font-size="10.00">txError</text>
</a>
</g>
</g>
<!-- Node1&#45;&gt;Node10 -->
<g id="edge52" class="edge"><title>Node1&#45;&gt;Node10</title>
<path fill="none" stroke="midnightblue" d="M60.588,-460.743C71.8573,-457.337 84.9304,-453.743 97,-451.302 141.388,-442.326 193.537,-437.15 226.429,-434.529"/>
<polygon fill="midnightblue" stroke="midnightblue" points="227.102,-437.988 236.807,-433.737 226.569,-431.008 227.102,-437.988"/>
</g>
<!-- Node11 -->
<g id="node11" class="node"><title>Node11</title>
<g id="a_node11"><a xlink:href="libmorse_8cpp.html#a0ee2308940264ea9ac8e50afc1a4d285" target="_top" xlink:title="txString">
<polygon fill="white" stroke="black" points="357,-251.802 357,-270.802 407,-270.802 407,-251.802 357,-251.802"/>
<text text-anchor="middle" x="382" y="-258.802" font-family="Helvetica,sans-Serif" font-size="10.00">txString</text>
</a>
</g>
</g>
<!-- Node1&#45;&gt;Node11 -->
<g id="edge47" class="edge"><title>Node1&#45;&gt;Node11</title>
<path fill="none" stroke="midnightblue" d="M47.4255,-460.779C103.033,-427.526 288.838,-316.415 356.277,-276.087"/>
<polygon fill="midnightblue" stroke="midnightblue" points="358.195,-279.018 364.981,-270.882 354.602,-273.01 358.195,-279.018"/>
</g>
<!-- Node35 -->
<g id="node35" class="node"><title>Node35</title>
<g id="a_node35"><a xlink:href="pda_8cpp.html#a1a806231b654cc29df4a12c73249b662" target="_top" xlink:title="digitErrCount">
<polygon fill="white" stroke="black" points="97,-346.802 97,-365.802 171,-365.802 171,-346.802 97,-346.802"/>
<text text-anchor="middle" x="134" y="-353.802" font-family="Helvetica,sans-Serif" font-size="10.00">digitErrCount</text>
</a>
</g>
</g>
<!-- Node1&#45;&gt;Node35 -->
<g id="edge48" class="edge"><title>Node1&#45;&gt;Node35</title>
<path fill="none" stroke="midnightblue" d="M36.8732,-460.785C47.0156,-443.38 70.3692,-405.86 97,-380.302 100.17,-377.26 103.772,-374.354 107.442,-371.683"/>
<polygon fill="midnightblue" stroke="midnightblue" points="109.639,-374.421 115.958,-365.917 105.715,-368.625 109.639,-374.421"/>
</g>
<!-- Node36 -->
<g id="node36" class="node"><title>Node36</title>
<g id="a_node36"><a xlink:href="stack_8cpp.html#a7a8a89da82371dc2324696e7dfacad5e" target="_top" xlink:title="Pop the stack n times or until it is empty. ">
<polygon fill="white" stroke="black" points="114,-498.802 114,-517.802 154,-517.802 154,-498.802 114,-498.802"/>
<text text-anchor="middle" x="134" y="-505.802" font-family="Helvetica,sans-Serif" font-size="10.00">popN</text>
</a>
</g>
</g>
<!-- Node1&#45;&gt;Node36 -->
<g id="edge49" class="edge"><title>Node1&#45;&gt;Node36</title>
<path fill="none" stroke="midnightblue" d="M57.1127,-479.891C71.4276,-485.251 89.3122,-491.946 104.123,-497.491"/>
<polygon fill="midnightblue" stroke="midnightblue" points="103.212,-500.887 113.804,-501.116 105.666,-494.332 103.212,-500.887"/>
</g>
<!-- Node3 -->
<g id="node3" class="node"><title>Node3</title>
<g id="a_node3"><a xlink:href="class_stack.html#afc30a7ee287e14f08802c2d43613f2b4" target="_top" xlink:title="Return the number of elements currently in the stack. ">
<polygon fill="white" stroke="black" points="349,-555.802 349,-574.802 415,-574.802 415,-555.802 349,-555.802"/>
<text text-anchor="middle" x="382" y="-562.802" font-family="Helvetica,sans-Serif" font-size="10.00">Stack::size</text>
</a>
</g>
</g>
<!-- Node2&#45;&gt;Node3 -->
<g id="edge2" class="edge"><title>Node2&#45;&gt;Node3</title>
<path fill="none" stroke="midnightblue" d="M306.709,-577.065C317.24,-575.398 328.395,-573.632 338.771,-571.989"/>
<polygon fill="midnightblue" stroke="midnightblue" points="339.505,-575.416 348.835,-570.395 338.41,-568.502 339.505,-575.416"/>
</g>
<!-- Node4&#45;&gt;Node2 -->
<g id="edge4" class="edge"><title>Node4&#45;&gt;Node2</title>
<path fill="none" stroke="midnightblue" d="M148.744,-584.302C162.068,-584.302 183.173,-584.302 203.367,-584.302"/>
<polygon fill="midnightblue" stroke="midnightblue" points="203.483,-587.803 213.483,-584.302 203.483,-580.803 203.483,-587.803"/>
</g>
<!-- Node6 -->
<g id="node6" class="node"><title>Node6</title>
<g id="a_node6"><a xlink:href="class_morse_token.html#a8c36a957ebc90172eae960757c72d3a4" target="_top" xlink:title="Convert to a single ASCII character. ">
<polygon fill="white" stroke="black" points="207,-460.802 207,-479.802 313,-479.802 313,-460.802 207,-460.802"/>
<text text-anchor="middle" x="260" y="-467.802" font-family="Helvetica,sans-Serif" font-size="10.00">MorseToken::toChar</text>
</a>
</g>
</g>
<!-- Node5&#45;&gt;Node6 -->
<g id="edge6" class="edge"><title>Node5&#45;&gt;Node6</title>
<path fill="none" stroke="midnightblue" d="M150.205,-470.302C162.044,-470.302 179.326,-470.302 196.645,-470.302"/>
<polygon fill="midnightblue" stroke="midnightblue" points="196.806,-473.803 206.806,-470.302 196.806,-466.803 196.806,-473.803"/>
</g>
<!-- Node5&#45;&gt;Node10 -->
<g id="edge10" class="edge"><title>Node5&#45;&gt;Node10</title>
<path fill="none" stroke="midnightblue" d="M150.205,-465.643C169.303,-459.79 202.564,-449.597 227.296,-442.018"/>
<polygon fill="midnightblue" stroke="midnightblue" points="228.439,-445.329 236.974,-439.052 226.388,-438.636 228.439,-445.329"/>
</g>
<!-- Node7 -->
<g id="node7" class="node"><title>Node7</title>
<g id="a_node7"><a xlink:href="morse__token_8h.html#a98f44690e97cbd7ea9445ca0a560a564" target="_top" xlink:title="Convert a Morse code into ASCII. ">
<polygon fill="white" stroke="black" points="364.5,-498.802 364.5,-517.802 399.5,-517.802 399.5,-498.802 364.5,-498.802"/>
<text text-anchor="middle" x="382" y="-505.802" font-family="Helvetica,sans-Serif" font-size="10.00">m2a</text>
</a>
</g>
</g>
<!-- Node6&#45;&gt;Node7 -->
<g id="edge7" class="edge"><title>Node6&#45;&gt;Node7</title>
<path fill="none" stroke="midnightblue" d="M291.281,-479.891C310.848,-486.088 336.056,-494.07 354.767,-499.995"/>
<polygon fill="midnightblue" stroke="midnightblue" points="353.827,-503.369 364.417,-503.051 355.94,-496.695 353.827,-503.369"/>
</g>
<!-- Node8 -->
<g id="node8" class="node"><title>Node8</title>
<g id="a_node8"><a xlink:href="class_morse_token.html#a48cd72aeb868391449d1f51c1d0bf5cc" target="_top" xlink:title="Treat code == 0 as the error token. ">
<polygon fill="white" stroke="black" points="1026,-470.802 1026,-489.802 1123,-489.802 1123,-470.802 1026,-470.802"/>
<text text-anchor="middle" x="1074.5" y="-477.802" font-family="Helvetica,sans-Serif" font-size="10.00">MorseToken::valid</text>
</a>
</g>
</g>
<!-- Node7&#45;&gt;Node8 -->
<g id="edge8" class="edge"><title>Node7&#45;&gt;Node8</title>
<path fill="none" stroke="midnightblue" d="M399.646,-508.302C443.428,-508.302 565.431,-508.302 667,-508.302 667,-508.302 667,-508.302 826.5,-508.302 891.706,-508.302 965.981,-498.549 1015.91,-490.555"/>
<polygon fill="midnightblue" stroke="midnightblue" points="1016.56,-493.995 1025.87,-488.932 1015.44,-487.086 1016.56,-493.995"/>
</g>
<!-- Node9 -->
<g id="node9" class="node"><title>Node9</title>
<g id="a_node9"><a xlink:href="class_morse_token.html#adc74054417a8636c1d34d43c34628731" target="_top" xlink:title="Treat code == 1 as a space. ">
<polygon fill="white" stroke="black" points="458.5,-536.802 458.5,-555.802 561.5,-555.802 561.5,-536.802 458.5,-536.802"/>
<text text-anchor="middle" x="510" y="-543.802" font-family="Helvetica,sans-Serif" font-size="10.00">MorseToken::pause</text>
</a>
</g>
</g>
<!-- Node7&#45;&gt;Node9 -->
<g id="edge9" class="edge"><title>Node7&#45;&gt;Node9</title>
<path fill="none" stroke="midnightblue" d="M399.732,-513.349C417.011,-518.56 444.64,-526.892 467.792,-533.875"/>
<polygon fill="midnightblue" stroke="midnightblue" points="466.811,-537.235 477.396,-536.771 468.833,-530.533 466.811,-537.235"/>
</g>
<!-- Node10&#45;&gt;Node11 -->
<g id="edge11" class="edge"><title>Node10&#45;&gt;Node11</title>
<path fill="none" stroke="midnightblue" d="M283.065,-426.032C293.202,-422.245 304.771,-416.525 313,-408.302 349.672,-371.662 368.792,-311.558 376.62,-280.787"/>
<polygon fill="midnightblue" stroke="midnightblue" points="380.069,-281.417 379.005,-270.876 373.263,-279.779 380.069,-281.417"/>
</g>
<!-- Node12 -->
<g id="node12" class="node"><title>Node12</title>
<g id="a_node12"><a xlink:href="teensy3__morse__bsp_8cpp.html#ab306f692c5c9455a0c82782a67ff0147" target="_top" xlink:title="touchPoll">
<polygon fill="white" stroke="black" points="797,-80.8025 797,-99.8025 854,-99.8025 854,-80.8025 797,-80.8025"/>
<text text-anchor="middle" x="825.5" y="-87.8025" font-family="Helvetica,sans-Serif" font-size="10.00">touchPoll</text>
</a>
</g>
</g>
<!-- Node11&#45;&gt;Node12 -->
<g id="edge12" class="edge"><title>Node11&#45;&gt;Node12</title>
<path fill="none" stroke="midnightblue" d="M383.066,-251.393C383.877,-219.367 391.251,-118.241 451,-75.3025 555.727,-0.0403293 722.933,-50.6656 792.507,-77.0849"/>
<polygon fill="midnightblue" stroke="midnightblue" points="791.455,-80.4312 802.044,-80.7893 793.99,-73.9061 791.455,-80.4312"/>
</g>
<!-- Node14 -->
<g id="node14" class="node"><title>Node14</title>
<g id="a_node14"><a xlink:href="settings_8cpp.html#a960551e90dfdad18f3c9b1338ccba7db" target="_top" xlink:title="Get the dit duration in microseconds. ">
<polygon fill="white" stroke="black" points="1038.5,-166.802 1038.5,-185.802 1110.5,-185.802 1110.5,-166.802 1038.5,-166.802"/>
<text text-anchor="middle" x="1074.5" y="-173.802" font-family="Helvetica,sans-Serif" font-size="10.00">getDitMicros</text>
</a>
</g>
</g>
<!-- Node11&#45;&gt;Node14 -->
<g id="edge14" class="edge"><title>Node11&#45;&gt;Node14</title>
<path fill="none" stroke="midnightblue" d="M382.438,-251.486C380.976,-215.538 381.228,-90.2275 451,-33.3025 525.671,27.6196 570.629,-14.3025 667,-14.3025 667,-14.3025 667,-14.3025 826.5,-14.3025 903.456,-14.3025 927.243,-26.7635 990,-71.3025 1022.91,-94.656 1049.52,-134.49 1063.28,-157.802"/>
<polygon fill="midnightblue" stroke="midnightblue" points="1060.36,-159.752 1068.37,-166.686 1066.44,-156.269 1060.36,-159.752"/>
</g>
<!-- Node15 -->
<g id="node15" class="node"><title>Node15</title>
<g id="a_node15"><a xlink:href="libmorse_8cpp.html#a9fdfce728595d72b78dc7c834ab99a40" target="_top" xlink:title="Transmit a literal Morse code value. ">
<polygon fill="white" stroke="black" points="929.5,-384.802 929.5,-403.802 980.5,-403.802 980.5,-384.802 929.5,-384.802"/>
<text text-anchor="middle" x="955" y="-391.802" font-family="Helvetica,sans-Serif" font-size="10.00">txLiteral</text>
</a>
</g>
</g>
<!-- Node11&#45;&gt;Node15 -->
<g id="edge15" class="edge"><title>Node11&#45;&gt;Node15</title>
<path fill="none" stroke="midnightblue" d="M387.328,-271.042C396.244,-289.852 418.576,-331.021 451,-350.302 604.697,-441.7 832.833,-415.377 919.185,-400.909"/>
<polygon fill="midnightblue" stroke="midnightblue" points="919.977,-404.324 929.234,-399.17 918.784,-397.426 919.977,-404.324"/>
</g>
<!-- Node23 -->
<g id="node23" class="node"><title>Node23</title>
<g id="a_node23"><a xlink:href="libmorse_8cpp.html#acd4b292f5e412ee4f05aed9dafbc072d" target="_top" xlink:title="Convert an ASCII character into Morse code and transmit it. ">
<polygon fill="white" stroke="black" points="800.5,-346.802 800.5,-365.802 850.5,-365.802 850.5,-346.802 800.5,-346.802"/>
<text text-anchor="middle" x="825.5" y="-353.802" font-family="Helvetica,sans-Serif" font-size="10.00">txLetter</text>
</a>
</g>
</g>
<!-- Node11&#45;&gt;Node23 -->
<g id="edge26" class="edge"><title>Node11&#45;&gt;Node23</title>
<path fill="none" stroke="midnightblue" d="M390.585,-270.881C402.031,-284.546 425.146,-309.208 451,-320.302 567.207,-370.171 721.931,-365.111 789.946,-359.751"/>
<polygon fill="midnightblue" stroke="midnightblue" points="790.427,-363.223 800.098,-358.896 789.84,-356.248 790.427,-363.223"/>
</g>
<!-- Node24 -->
<g id="node24" class="node"><title>Node24</title>
<g id="a_node24"><a xlink:href="teensy3__morse__bsp_8cpp.html#a8761e874366e227690fba2964e1bc445" target="_top" xlink:title="getInternalTemperatureC">
<polygon fill="white" stroke="black" points="605.5,-166.802 605.5,-185.802 730.5,-185.802 730.5,-166.802 605.5,-166.802"/>
<text text-anchor="middle" x="668" y="-173.802" font-family="Helvetica,sans-Serif" font-size="10.00">getInternalTemperatureC</text>
</a>
</g>
</g>
<!-- Node11&#45;&gt;Node24 -->
<g id="edge29" class="edge"><title>Node11&#45;&gt;Node24</title>
<path fill="none" stroke="midnightblue" d="M388.164,-251.617C397.859,-234.574 420.583,-199.669 451,-185.302 496.653,-163.739 553.97,-162.353 598.086,-165.892"/>
<polygon fill="midnightblue" stroke="midnightblue" points="597.869,-169.387 608.144,-166.802 598.5,-162.415 597.869,-169.387"/>
</g>
<!-- Node25 -->
<g id="node25" class="node"><title>Node25</title>
<g id="a_node25"><a xlink:href="libmorse_8cpp.html#a47abdd74b66d7180c47d192bab8bdccb" target="_top" xlink:title="Transmit an unsigned integer in Morse code. ">
<polygon fill="white" stroke="black" points="635,-223.802 635,-242.802 701,-242.802 701,-223.802 635,-223.802"/>
<text text-anchor="middle" x="668" y="-230.802" font-family="Helvetica,sans-Serif" font-size="10.00">txUnsigned</text>
</a>
</g>
</g>
<!-- Node11&#45;&gt;Node25 -->
<g id="edge30" class="edge"><title>Node11&#45;&gt;Node25</title>
<path fill="none" stroke="midnightblue" d="M395.682,-271.025C408.733,-280.368 430.06,-293.849 451,-299.302 501.751,-312.521 521.974,-322.518 569,-299.302 592.594,-287.655 583.392,-267.317 605,-252.302 611.038,-248.107 618.031,-244.815 625.098,-242.24"/>
<polygon fill="midnightblue" stroke="midnightblue" points="626.25,-245.546 634.699,-239.153 624.108,-238.882 626.25,-245.546"/>
</g>
<!-- Node26 -->
<g id="node26" class="node"><title>Node26</title>
<g id="a_node26"><a xlink:href="actions_8cpp.html#aed718ec1bd4cc7adb2f65d40a6784496" target="_top" xlink:title="Transmit the internal temperature in integer in Fahrenheit. ">
<polygon fill="white" stroke="black" points="451,-194.802 451,-213.802 569,-213.802 569,-194.802 451,-194.802"/>
<text text-anchor="middle" x="510" y="-201.802" font-family="Helvetica,sans-Serif" font-size="10.00">txInternalTemperatureF</text>
</a>
</g>
</g>
<!-- Node11&#45;&gt;Node26 -->
<g id="edge33" class="edge"><title>Node11&#45;&gt;Node26</title>
<path fill="none" stroke="midnightblue" d="M398.228,-251.669C411.73,-243.404 432.173,-231.554 451,-223.302 455.974,-221.123 461.28,-219.054 466.588,-217.139"/>
<polygon fill="midnightblue" stroke="midnightblue" points="467.757,-220.439 476.069,-213.869 465.474,-213.821 467.757,-220.439"/>
</g>
<!-- Node27 -->
<g id="node27" class="node"><title>Node27</title>
<g id="a_node27"><a xlink:href="actions_8cpp.html#aaabb3ac0c23f35a499bc17efe829f326" target="_top" xlink:title="Transmit the 24&#45;hr time. ">
<polygon fill="white" stroke="black" points="471,-270.802 471,-289.802 549,-289.802 549,-270.802 471,-270.802"/>
<text text-anchor="middle" x="510" y="-277.802" font-family="Helvetica,sans-Serif" font-size="10.00">txTimeHHMM</text>
</a>
</g>
</g>
<!-- Node11&#45;&gt;Node27 -->
<g id="edge36" class="edge"><title>Node11&#45;&gt;Node27</title>
<path fill="none" stroke="midnightblue" d="M407.294,-259.508C425.854,-260.872 451.73,-264.534 472.737,-268.657"/>
<polygon fill="midnightblue" stroke="midnightblue" points="472.102,-272.099 482.605,-270.709 473.528,-265.246 472.102,-272.099"/>
</g>
<!-- Node28 -->
<g id="node28" class="node"><title>Node28</title>
<g id="a_node28"><a xlink:href="actions_8cpp.html#ad02149679fa3cc6a4957d1a318408ffd" target="_top" xlink:title="Transmit the uptime. ">
<polygon fill="white" stroke="black" points="482,-232.802 482,-251.802 538,-251.802 538,-232.802 482,-232.802"/>
<text text-anchor="middle" x="510" y="-239.802" font-family="Helvetica,sans-Serif" font-size="10.00">txUptime</text>
</a>
</g>
</g>
<!-- Node11&#45;&gt;Node28 -->
<g id="edge38" class="edge"><title>Node11&#45;&gt;Node28</title>
<path fill="none" stroke="midnightblue" d="M407.294,-257.639C425.525,-254.89 450.815,-251.076 471.616,-247.94"/>
<polygon fill="midnightblue" stroke="midnightblue" points="472.352,-251.368 481.718,-246.416 471.308,-244.447 472.352,-251.368"/>
</g>
<!-- Node30 -->
<g id="node30" class="node"><title>Node30</title>
<g id="a_node30"><a xlink:href="teensy3__morse__bsp_8cpp.html#ae8dd28759e56dbd2ee9bc9ae96d1783c" target="_top" xlink:title="Return the most recent ADC measurement of the input voltage. Perform analog to digital conversion on ...">
<polygon fill="white" stroke="black" points="473,-118.802 473,-137.802 547,-137.802 547,-118.802 473,-118.802"/>
<text text-anchor="middle" x="510" y="-125.802" font-family="Helvetica,sans-Serif" font-size="10.00">readMillivolts</text>
</a>
</g>
</g>
<!-- Node11&#45;&gt;Node30 -->
<g id="edge41" class="edge"><title>Node11&#45;&gt;Node30</title>
<path fill="none" stroke="midnightblue" d="M386.575,-251.764C394.827,-230.941 417.129,-180.987 451,-152.302 455.635,-148.377 461.001,-145.024 466.56,-142.179"/>
<polygon fill="midnightblue" stroke="midnightblue" points="468.364,-145.202 476.002,-137.86 465.452,-138.837 468.364,-145.202"/>
</g>
<!-- Node34 -->
<g id="node34" class="node"><title>Node34</title>
<g id="a_node34"><a xlink:href="libmorse_8cpp.html#ac3f000c98271c6d0a7710135e18189bc" target="_top" xlink:title="On my hardware there is cross&#45;coupling between the serial port and the touch sensors. Without the code below, long messages to the serial port trigger a touch input. ">
<polygon fill="white" stroke="black" points="635.5,-80.8025 635.5,-99.8025 700.5,-99.8025 700.5,-80.8025 635.5,-80.8025"/>
<text text-anchor="middle" x="668" y="-87.8025" font-family="Helvetica,sans-Serif" font-size="10.00">flushTouch</text>
</a>
</g>
</g>
<!-- Node11&#45;&gt;Node34 -->
<g id="edge45" class="edge"><title>Node11&#45;&gt;Node34</title>
<path fill="none" stroke="midnightblue" d="M384.008,-251.755C387.472,-224.243 401.552,-144.524 451,-109.302 502.168,-72.8556 578.412,-75.8523 625.297,-82.3558"/>
<polygon fill="midnightblue" stroke="midnightblue" points="624.998,-85.8502 635.407,-83.8761 626.038,-78.928 624.998,-85.8502"/>
</g>
<!-- Node13 -->
<g id="node13" class="node"><title>Node13</title>
<g id="a_node13"><a xlink:href="teensy3__morse__bsp_8cpp.html#af6899cd9b83df54106b259ab81ea5cb2" target="_top" xlink:title="touchMargin">
<polygon fill="white" stroke="black" points="920,-80.8025 920,-99.8025 990,-99.8025 990,-80.8025 920,-80.8025"/>
<text text-anchor="middle" x="955" y="-87.8025" font-family="Helvetica,sans-Serif" font-size="10.00">touchMargin</text>
</a>
</g>
</g>
<!-- Node12&#45;&gt;Node13 -->
<g id="edge13" class="edge"><title>Node12&#45;&gt;Node13</title>
<path fill="none" stroke="midnightblue" d="M854.166,-90.3025C870.281,-90.3025 890.984,-90.3025 909.355,-90.3025"/>
<polygon fill="midnightblue" stroke="midnightblue" points="909.562,-93.8026 919.562,-90.3025 909.562,-86.8026 909.562,-93.8026"/>
</g>
<!-- Node15&#45;&gt;Node8 -->
<g id="edge16" class="edge"><title>Node15&#45;&gt;Node8</title>
<path fill="none" stroke="midnightblue" d="M969.023,-403.835C989.139,-418.557 1027.97,-446.98 1052.21,-464.72"/>
<polygon fill="midnightblue" stroke="midnightblue" points="1050.28,-467.646 1060.42,-470.728 1054.42,-461.997 1050.28,-467.646"/>
</g>
<!-- Node15&#45;&gt;Node10 -->
<g id="edge25" class="edge"><title>Node15&#45;&gt;Node10</title>
<path fill="none" stroke="midnightblue" d="M934.476,-403.884C920.646,-410.368 901.514,-418.734 884,-424.302 790.875,-453.911 766.718,-470.302 669,-470.302 509,-470.302 509,-470.302 509,-470.302 430.641,-470.302 339.946,-451.538 292.947,-440.381"/>
<polygon fill="midnightblue" stroke="midnightblue" points="293.599,-436.938 283.057,-437.991 291.955,-443.742 293.599,-436.938"/>
</g>
<!-- Node15&#45;&gt;Node14 -->
<g id="edge24" class="edge"><title>Node15&#45;&gt;Node14</title>
<path fill="none" stroke="midnightblue" d="M961.2,-384.654C979.286,-351.1 1039.64,-239.129 1063.58,-194.698"/>
<polygon fill="midnightblue" stroke="midnightblue" points="1066.7,-196.303 1068.36,-185.84 1060.53,-192.982 1066.7,-196.303"/>
</g>
<!-- Node16 -->
<g id="node16" class="node"><title>Node16</title>
<g id="a_node16"><a xlink:href="teensy3__morse__bsp_8cpp.html#af66e71e3fac9b6a2c6532bc8a513bfde" target="_top" xlink:title="Output a square wave on pin 10 at the given frequency for the given duration. ">
<polygon fill="white" stroke="black" points="1055.5,-403.802 1055.5,-422.802 1093.5,-422.802 1093.5,-403.802 1055.5,-403.802"/>
<text text-anchor="middle" x="1074.5" y="-410.802" font-family="Helvetica,sans-Serif" font-size="10.00">beep</text>
</a>
</g>
</g>
<!-- Node15&#45;&gt;Node16 -->
<g id="edge17" class="edge"><title>Node15&#45;&gt;Node16</title>
<path fill="none" stroke="midnightblue" d="M980.632,-398.285C999.57,-401.348 1025.75,-405.581 1045.48,-408.772"/>
<polygon fill="midnightblue" stroke="midnightblue" points="1044.99,-412.238 1055.42,-410.379 1046.11,-405.327 1044.99,-412.238"/>
</g>
<!-- Node22 -->
<g id="node22" class="node"><title>Node22</title>
<g id="a_node22"><a xlink:href="settings_8cpp.html#a8575b9b52638114a4f32d1462cf9b7c1" target="_top" xlink:title="Get the transmission frequency (side tone). ">
<polygon fill="white" stroke="black" points="1047.5,-365.802 1047.5,-384.802 1101.5,-384.802 1101.5,-365.802 1047.5,-365.802"/>
<text text-anchor="middle" x="1074.5" y="-372.802" font-family="Helvetica,sans-Serif" font-size="10.00">getTxHz</text>
</a>
</g>
</g>
<!-- Node15&#45;&gt;Node22 -->
<g id="edge23" class="edge"><title>Node15&#45;&gt;Node22</title>
<path fill="none" stroke="midnightblue" d="M980.632,-390.319C997.022,-387.669 1018.83,-384.142 1037.2,-381.172"/>
<polygon fill="midnightblue" stroke="midnightblue" points="1037.96,-384.596 1047.27,-379.544 1036.84,-377.685 1037.96,-384.596"/>
</g>
<!-- Node17 -->
<g id="node17" class="node"><title>Node17</title>
<g id="a_node17"><a xlink:href="teensy3__morse__bsp_8cpp.html#a6f674d5b9985ea3a7eeb0df299c2e405" target="_top" xlink:title="pollEarphonePresent">
<polygon fill="white" stroke="black" points="1159,-460.802 1159,-479.802 1266,-479.802 1266,-460.802 1159,-460.802"/>
<text text-anchor="middle" x="1212.5" y="-467.802" font-family="Helvetica,sans-Serif" font-size="10.00">pollEarphonePresent</text>
</a>
</g>
</g>
<!-- Node16&#45;&gt;Node17 -->
<g id="edge18" class="edge"><title>Node16&#45;&gt;Node17</title>
<path fill="none" stroke="midnightblue" d="M1093.56,-422.027C1110.35,-430.017 1136.14,-441.982 1159,-451.302 1163.87,-453.287 1169.03,-455.284 1174.14,-457.198"/>
<polygon fill="midnightblue" stroke="midnightblue" points="1173.23,-460.591 1183.82,-460.753 1175.64,-454.02 1173.23,-460.591"/>
</g>
<!-- Node18 -->
<g id="node18" class="node"><title>Node18</title>
<g id="a_node18"><a xlink:href="teensy3__morse__bsp_8cpp.html#a2d6b4ace33ed5e497dedd03217540c63" target="_top" xlink:title="Set the PWM frequency for the audio output pins. ">
<polygon fill="white" stroke="black" points="1171,-422.802 1171,-441.802 1254,-441.802 1254,-422.802 1171,-422.802"/>
<text text-anchor="middle" x="1212.5" y="-429.802" font-family="Helvetica,sans-Serif" font-size="10.00">pwmFrequency</text>
</a>
</g>
</g>
<!-- Node16&#45;&gt;Node18 -->
<g id="edge19" class="edge"><title>Node16&#45;&gt;Node18</title>
<path fill="none" stroke="midnightblue" d="M1093.56,-415.826C1110.62,-418.208 1137.02,-421.897 1160.52,-425.18"/>
<polygon fill="midnightblue" stroke="midnightblue" points="1160.33,-428.688 1170.72,-426.606 1161.3,-421.756 1160.33,-428.688"/>
</g>
<!-- Node19 -->
<g id="node19" class="node"><title>Node19</title>
<g id="a_node19"><a xlink:href="teensy3__morse__bsp_8cpp.html#a82911eac3bf13d6f36d10102a4c4d3c4" target="_top" xlink:title="Generate a tone on the audio output pins. ">
<polygon fill="white" stroke="black" points="1182,-384.802 1182,-403.802 1243,-403.802 1243,-384.802 1182,-384.802"/>
<text text-anchor="middle" x="1212.5" y="-391.802" font-family="Helvetica,sans-Serif" font-size="10.00">pwmWrite</text>
</a>
</g>
</g>
<!-- Node16&#45;&gt;Node19 -->
<g id="edge20" class="edge"><title>Node16&#45;&gt;Node19</title>
<path fill="none" stroke="midnightblue" d="M1093.56,-410.779C1113.46,-407.999 1146.08,-403.442 1171.98,-399.824"/>
<polygon fill="midnightblue" stroke="midnightblue" points="1172.47,-403.289 1181.89,-398.439 1171.5,-396.356 1172.47,-403.289"/>
</g>
<!-- Node21 -->
<g id="node21" class="node"><title>Node21</title>
<g id="a_node21"><a xlink:href="teensy3__morse__bsp_8cpp.html#a6c982a7d7805f1dd5426eb98c915cfdd" target="_top" xlink:title="Turn the red LED on (1) or off (0). ">
<polygon fill="white" stroke="black" points="1187.5,-346.802 1187.5,-365.802 1237.5,-365.802 1237.5,-346.802 1187.5,-346.802"/>
<text text-anchor="middle" x="1212.5" y="-353.802" font-family="Helvetica,sans-Serif" font-size="10.00">redLED</text>
</a>
</g>
</g>
<!-- Node16&#45;&gt;Node21 -->
<g id="edge22" class="edge"><title>Node16&#45;&gt;Node21</title>
<path fill="none" stroke="midnightblue" d="M1093.73,-406.526C1102.65,-403.081 1113.49,-398.701 1123,-394.302 1139.42,-386.71 1142.45,-382.621 1159,-375.302 1164.99,-372.652 1171.48,-370.077 1177.78,-367.722"/>
<polygon fill="midnightblue" stroke="midnightblue" points="1179.23,-370.92 1187.44,-364.223 1176.85,-364.338 1179.23,-370.92"/>
</g>
<!-- Node20 -->
<g id="node20" class="node"><title>Node20</title>
<g id="a_node20"><a xlink:href="teensy3__morse__bsp_8cpp.html#ac70998cee1bf97f00aec4a1b4e5a4f60" target="_top" xlink:title="isEarphonePresent">
<polygon fill="white" stroke="black" points="1302,-384.802 1302,-403.802 1401,-403.802 1401,-384.802 1302,-384.802"/>
<text text-anchor="middle" x="1351.5" y="-391.802" font-family="Helvetica,sans-Serif" font-size="10.00">isEarphonePresent</text>
</a>
</g>
</g>
<!-- Node19&#45;&gt;Node20 -->
<g id="edge21" class="edge"><title>Node19&#45;&gt;Node20</title>
<path fill="none" stroke="midnightblue" d="M1243.23,-394.302C1257.43,-394.302 1274.96,-394.302 1291.7,-394.302"/>
<polygon fill="midnightblue" stroke="midnightblue" points="1291.98,-397.803 1301.98,-394.302 1291.98,-390.803 1291.98,-397.803"/>
</g>
<!-- Node23&#45;&gt;Node10 -->
<g id="edge28" class="edge"><title>Node23&#45;&gt;Node10</title>
<path fill="none" stroke="midnightblue" d="M800.363,-361.413C781.528,-365.288 754.677,-370.567 731,-374.302 567.289,-400.132 369.972,-421.247 293.487,-429.056"/>
<polygon fill="midnightblue" stroke="midnightblue" points="292.693,-425.619 283.098,-430.111 293.4,-432.583 292.693,-425.619"/>
</g>
<!-- Node23&#45;&gt;Node15 -->
<g id="edge27" class="edge"><title>Node23&#45;&gt;Node15</title>
<path fill="none" stroke="midnightblue" d="M850.782,-363.539C870.242,-369.339 897.793,-377.551 919.536,-384.031"/>
<polygon fill="midnightblue" stroke="midnightblue" points="918.791,-387.461 929.374,-386.963 920.791,-380.753 918.791,-387.461"/>
</g>
<!-- Node25&#45;&gt;Node12 -->
<g id="edge31" class="edge"><title>Node25&#45;&gt;Node12</title>
<path fill="none" stroke="midnightblue" d="M691.811,-223.654C704.74,-217.219 720.4,-207.667 731,-195.302 757.968,-163.844 736.59,-137.448 767,-109.302 772.623,-104.098 779.704,-100.317 786.958,-97.571"/>
<polygon fill="midnightblue" stroke="midnightblue" points="788.365,-100.796 796.835,-94.4309 786.244,-94.1251 788.365,-100.796"/>
</g>
<!-- Node25&#45;&gt;Node23 -->
<g id="edge32" class="edge"><title>Node25&#45;&gt;Node23</title>
<path fill="none" stroke="midnightblue" d="M701.024,-239.569C711.121,-242.45 721.984,-246.55 731,-252.302 766.619,-275.03 797.018,-314.916 812.835,-338.131"/>
<polygon fill="midnightblue" stroke="midnightblue" points="810.07,-340.294 818.517,-346.688 815.901,-336.422 810.07,-340.294"/>
</g>
<!-- Node26&#45;&gt;Node24 -->
<g id="edge34" class="edge"><title>Node26&#45;&gt;Node24</title>
<path fill="none" stroke="midnightblue" d="M564.25,-194.745C577.051,-192.447 590.845,-189.971 604.041,-187.603"/>
<polygon fill="midnightblue" stroke="midnightblue" points="604.766,-191.029 613.99,-185.817 603.529,-184.139 604.766,-191.029"/>
</g>
<!-- Node26&#45;&gt;Node25 -->
<g id="edge35" class="edge"><title>Node26&#45;&gt;Node25</title>
<path fill="none" stroke="midnightblue" d="M562.513,-213.879C582.674,-217.626 605.514,-221.872 624.687,-225.437"/>
<polygon fill="midnightblue" stroke="midnightblue" points="624.161,-228.899 634.632,-227.285 625.44,-222.017 624.161,-228.899"/>
</g>
<!-- Node27&#45;&gt;Node11 -->
<g id="edge37" class="edge"><title>Node27&#45;&gt;Node11</title>
<path fill="none" stroke="midnightblue" d="M470.897,-280.815C453.786,-278.946 433.755,-275.865 417.141,-272.527"/>
<polygon fill="midnightblue" stroke="midnightblue" points="417.805,-269.09 407.294,-270.424 416.342,-275.936 417.805,-269.09"/>
</g>
<!-- Node28&#45;&gt;Node25 -->
<g id="edge40" class="edge"><title>Node28&#45;&gt;Node25</title>
<path fill="none" stroke="midnightblue" d="M538.173,-240.735C562.014,-239.359 597.076,-237.337 624.605,-235.748"/>
<polygon fill="midnightblue" stroke="midnightblue" points="624.966,-239.233 634.748,-235.163 624.563,-232.245 624.966,-239.233"/>
</g>
<!-- Node29 -->
<g id="node29" class="node"><title>Node29</title>
<g id="a_node29"><a xlink:href="settings_8cpp.html#a7b4efa097b94f9a90c5bbafcdf93fe4f" target="_top" xlink:title="getUptime">
<polygon fill="white" stroke="black" points="637,-261.802 637,-280.802 699,-280.802 699,-261.802 637,-261.802"/>
<text text-anchor="middle" x="668" y="-268.802" font-family="Helvetica,sans-Serif" font-size="10.00">getUptime</text>
</a>
</g>
</g>
<!-- Node28&#45;&gt;Node29 -->
<g id="edge39" class="edge"><title>Node28&#45;&gt;Node29</title>
<path fill="none" stroke="midnightblue" d="M538.173,-247.354C562.741,-251.921 599.225,-258.703 627.102,-263.886"/>
<polygon fill="midnightblue" stroke="midnightblue" points="626.473,-267.329 636.945,-265.715 627.753,-260.446 626.473,-267.329"/>
</g>
<!-- Node31 -->
<g id="node31" class="node"><title>Node31</title>
<g id="a_node31"><a xlink:href="class_voltage_monitor.html#a70902b84f9864c95d5553a0644a64f4f" target="_top" xlink:title="Return the latest voltage reading. ">
<polygon fill="white" stroke="black" points="605,-118.802 605,-137.802 731,-137.802 731,-118.802 605,-118.802"/>
<text text-anchor="middle" x="668" y="-125.802" font-family="Helvetica,sans-Serif" font-size="10.00">VoltageMonitor::getValue</text>
</a>
</g>
</g>
<!-- Node30&#45;&gt;Node31 -->
<g id="edge42" class="edge"><title>Node30&#45;&gt;Node31</title>
<path fill="none" stroke="midnightblue" d="M547.182,-128.302C561.344,-128.302 578.117,-128.302 594.56,-128.302"/>
<polygon fill="midnightblue" stroke="midnightblue" points="594.728,-131.803 604.728,-128.302 594.728,-124.803 594.728,-131.803"/>
</g>
<!-- Node32 -->
<g id="node32" class="node"><title>Node32</title>
<g id="a_node32"><a xlink:href="actions_8cpp.html#a2b8c3769e2aa32a2da9e2f3f85ac73dd" target="_top" xlink:title="A sample ADC reading is taken each time through the main loop, and written to a ring buffer...">
<polygon fill="white" stroke="black" points="769.5,-156.802 769.5,-175.802 881.5,-175.802 881.5,-156.802 769.5,-156.802"/>
<text text-anchor="middle" x="825.5" y="-163.802" font-family="Helvetica,sans-Serif" font-size="10.00">getVoltagePollInterval</text>
</a>
</g>
</g>
<!-- Node31&#45;&gt;Node32 -->
<g id="edge43" class="edge"><title>Node31&#45;&gt;Node32</title>
<path fill="none" stroke="midnightblue" d="M708.239,-137.891C728.759,-142.906 754.067,-149.091 775.825,-154.408"/>
<polygon fill="midnightblue" stroke="midnightblue" points="774.998,-157.808 785.543,-156.782 776.66,-151.009 774.998,-157.808"/>
</g>
<!-- Node33 -->
<g id="node33" class="node"><title>Node33</title>
<g id="a_node33"><a xlink:href="class_voltage_monitor.html#a75871331808c34b40d04059ee2af0f27" target="_top" xlink:title="Filter and scale raw ADC values to millivolts. ">
<polygon fill="white" stroke="black" points="767,-118.802 767,-137.802 884,-137.802 884,-118.802 767,-118.802"/>
<text text-anchor="middle" x="825.5" y="-125.802" font-family="Helvetica,sans-Serif" font-size="10.00">VoltageMonitor::update</text>
</a>
</g>
</g>
<!-- Node31&#45;&gt;Node33 -->
<g id="edge44" class="edge"><title>Node31&#45;&gt;Node33</title>
<path fill="none" stroke="midnightblue" d="M731.352,-128.302C739.702,-128.302 748.298,-128.302 756.735,-128.302"/>
<polygon fill="midnightblue" stroke="midnightblue" points="756.92,-131.803 766.92,-128.302 756.92,-124.803 756.92,-131.803"/>
</g>
<!-- Node34&#45;&gt;Node12 -->
<g id="edge46" class="edge"><title>Node34&#45;&gt;Node12</title>
<path fill="none" stroke="midnightblue" d="M700.843,-90.3025C725.677,-90.3025 760.247,-90.3025 786.522,-90.3025"/>
<polygon fill="midnightblue" stroke="midnightblue" points="786.864,-93.8026 796.864,-90.3025 786.863,-86.8026 786.864,-93.8026"/>
</g>
<!-- Node36&#45;&gt;Node3 -->
<g id="edge50" class="edge"><title>Node36&#45;&gt;Node3</title>
<path fill="none" stroke="midnightblue" d="M154.196,-513.608C168.668,-517.55 189.028,-522.971 207,-527.302 251.869,-538.117 303.569,-549.239 338.88,-556.633"/>
<polygon fill="midnightblue" stroke="midnightblue" points="338.332,-560.094 348.836,-558.71 339.761,-553.242 338.332,-560.094"/>
</g>
<!-- Node37 -->
<g id="node37" class="node"><title>Node37</title>
<g id="a_node37"><a xlink:href="class_stack.html#a8b4caa181ab4cc209c270338e919cf8b" target="_top" xlink:title="Discard the top element, if the stack is not empty. ">
<polygon fill="white" stroke="black" points="228,-498.802 228,-517.802 292,-517.802 292,-498.802 228,-498.802"/>
<text text-anchor="middle" x="260" y="-505.802" font-family="Helvetica,sans-Serif" font-size="10.00">Stack::pop</text>
</a>
</g>
</g>
<!-- Node36&#45;&gt;Node37 -->
<g id="edge51" class="edge"><title>Node36&#45;&gt;Node37</title>
<path fill="none" stroke="midnightblue" d="M154.103,-508.302C170.917,-508.302 195.987,-508.302 217.402,-508.302"/>
<polygon fill="midnightblue" stroke="midnightblue" points="217.569,-511.803 227.569,-508.302 217.569,-504.803 217.569,-511.803"/>
</g>
</g>
</svg>
