<?xml version="1.0" encoding="UTF-8" standalone="no"?>
<!DOCTYPE svg PUBLIC "-//W3C//DTD SVG 1.1//EN"
 "http://www.w3.org/Graphics/SVG/1.1/DTD/svg11.dtd">
<!-- Generated by graphviz version 2.38.0 (20140413.2041)
 -->
<!-- Title: pda.h Pages: 1 -->
<svg width="472pt" height="252pt"
 viewBox="0.00 0.00 471.83 252.00" xmlns="http://www.w3.org/2000/svg" xmlns:xlink="http://www.w3.org/1999/xlink">
<g id="graph0" class="graph" transform="scale(1 1) rotate(0) translate(4 248)">
<title>pda.h</title>
<polygon fill="white" stroke="none" points="-4,4 -4,-248 467.826,-248 467.826,4 -4,4"/>
<!-- Node1 -->
<g id="node1" class="node"><title>Node1</title>
<polygon fill="#bfbfbf" stroke="black" points="180.826,-224.5 180.826,-243.5 221.826,-243.5 221.826,-224.5 180.826,-224.5"/>
<text text-anchor="middle" x="201.326" y="-231.5" font-family="Helvetica,sans-Serif" font-size="10.00">pda.h</text>
</g>
<!-- Node2 -->
<g id="node2" class="node"><title>Node2</title>
<g id="a_node2"><a xlink:href="libmorse_8h.html" target="_top" xlink:title="Morse code operations. ">
<polygon fill="white" stroke="black" points="170.326,-168.5 170.326,-187.5 232.326,-187.5 232.326,-168.5 170.326,-168.5"/>
<text text-anchor="middle" x="201.326" y="-175.5" font-family="Helvetica,sans-Serif" font-size="10.00">libmorse.h</text>
</a>
</g>
</g>
<!-- Node1&#45;&gt;Node2 -->
<g id="edge1" class="edge"><title>Node1&#45;&gt;Node2</title>
<path fill="none" stroke="midnightblue" d="M201.326,-224.083C201.326,-217.006 201.326,-206.861 201.326,-197.986"/>
<polygon fill="midnightblue" stroke="midnightblue" points="204.827,-197.751 201.326,-187.751 197.827,-197.751 204.827,-197.751"/>
</g>
<!-- Node3 -->
<g id="node3" class="node"><title>Node3</title>
<g id="a_node3"><a xlink:href="binconst_8h.html" target="_top" xlink:title="Binary constant generator macro. ">
<polygon fill="white" stroke="black" points="123.326,-0.5 123.326,-19.5 185.326,-19.5 185.326,-0.5 123.326,-0.5"/>
<text text-anchor="middle" x="154.326" y="-7.5" font-family="Helvetica,sans-Serif" font-size="10.00">binconst.h</text>
</a>
</g>
</g>
<!-- Node2&#45;&gt;Node3 -->
<g id="edge2" class="edge"><title>Node2&#45;&gt;Node3</title>
<path fill="none" stroke="midnightblue" d="M170.151,-174.303C121.003,-169.333 29.0527,-156.884 9.32645,-132 -28.2554,-84.5915 63.6657,-42.6641 117.931,-22.9454"/>
<polygon fill="midnightblue" stroke="midnightblue" points="119.329,-26.1636 127.586,-19.5256 116.991,-19.5653 119.329,-26.1636"/>
</g>
<!-- Node4 -->
<g id="node4" class="node"><title>Node4</title>
<polygon fill="white" stroke="#bfbfbf" points="18.8265,-112.5 18.8265,-131.5 61.8265,-131.5 61.8265,-112.5 18.8265,-112.5"/>
<text text-anchor="middle" x="40.3265" y="-119.5" font-family="Helvetica,sans-Serif" font-size="10.00">cstdio</text>
</g>
<!-- Node2&#45;&gt;Node4 -->
<g id="edge3" class="edge"><title>Node2&#45;&gt;Node4</title>
<path fill="none" stroke="midnightblue" d="M175.816,-168.444C147.615,-158.985 102.169,-143.742 71.784,-133.551"/>
<polygon fill="midnightblue" stroke="midnightblue" points="72.6976,-130.166 62.1037,-130.304 70.4716,-136.803 72.6976,-130.166"/>
</g>
<!-- Node5 -->
<g id="node5" class="node"><title>Node5</title>
<polygon fill="white" stroke="#bfbfbf" points="80.3265,-112.5 80.3265,-131.5 126.326,-131.5 126.326,-112.5 80.3265,-112.5"/>
<text text-anchor="middle" x="103.326" y="-119.5" font-family="Helvetica,sans-Serif" font-size="10.00">cstring</text>
</g>
<!-- Node2&#45;&gt;Node5 -->
<g id="edge4" class="edge"><title>Node2&#45;&gt;Node5</title>
<path fill="none" stroke="midnightblue" d="M185.581,-168.324C170.008,-159.743 145.949,-146.486 127.867,-136.522"/>
<polygon fill="midnightblue" stroke="midnightblue" points="129.48,-133.415 119.033,-131.655 126.102,-139.546 129.48,-133.415"/>
</g>
<!-- Node6 -->
<g id="node6" class="node"><title>Node6</title>
<polygon fill="white" stroke="#bfbfbf" points="215.326,-56.5 215.326,-75.5 271.326,-75.5 271.326,-56.5 215.326,-56.5"/>
<text text-anchor="middle" x="243.326" y="-63.5" font-family="Helvetica,sans-Serif" font-size="10.00">cinttypes</text>
</g>
<!-- Node2&#45;&gt;Node6 -->
<g id="edge5" class="edge"><title>Node2&#45;&gt;Node6</title>
<path fill="none" stroke="midnightblue" d="M223.135,-168.447C238.271,-161.221 257.281,-149.264 266.326,-132 274.451,-116.493 265.786,-97.4898 256.864,-84.0462"/>
<polygon fill="midnightblue" stroke="midnightblue" points="259.548,-81.7855 250.848,-75.7385 253.878,-85.8909 259.548,-81.7855"/>
</g>
<!-- Node7 -->
<g id="node7" class="node"><title>Node7</title>
<polygon fill="white" stroke="#bfbfbf" points="418.826,-0.5 418.826,-19.5 463.826,-19.5 463.826,-0.5 418.826,-0.5"/>
<text text-anchor="middle" x="441.326" y="-7.5" font-family="Helvetica,sans-Serif" font-size="10.00">climits</text>
</g>
<!-- Node2&#45;&gt;Node7 -->
<g id="edge6" class="edge"><title>Node2&#45;&gt;Node7</title>
<path fill="none" stroke="midnightblue" d="M232.351,-177.134C274.793,-175.861 351.684,-168.211 404.326,-132 428.904,-115.094 432.741,-104.569 441.326,-76 445.848,-60.9543 445.452,-43.0496 444.149,-29.8453"/>
<polygon fill="midnightblue" stroke="midnightblue" points="447.587,-29.1293 442.872,-19.6414 440.641,-29.9986 447.587,-29.1293"/>
</g>
<!-- Node8 -->
<g id="node8" class="node"><title>Node8</title>
<g id="a_node8"><a xlink:href="teensy3__morse__bsp_8h.html" target="_top" xlink:title="Teensy 3.0 board support package. ">
<polygon fill="white" stroke="black" points="144.826,-112.5 144.826,-131.5 257.826,-131.5 257.826,-112.5 144.826,-112.5"/>
<text text-anchor="middle" x="201.326" y="-119.5" font-family="Helvetica,sans-Serif" font-size="10.00">teensy3_morse_bsp.h</text>
</a>
</g>
</g>
<!-- Node2&#45;&gt;Node8 -->
<g id="edge7" class="edge"><title>Node2&#45;&gt;Node8</title>
<path fill="none" stroke="midnightblue" d="M201.326,-168.083C201.326,-161.006 201.326,-150.861 201.326,-141.986"/>
<polygon fill="midnightblue" stroke="midnightblue" points="204.827,-141.751 201.326,-131.751 197.827,-141.751 204.827,-141.751"/>
</g>
<!-- Node10 -->
<g id="node10" class="node"><title>Node10</title>
<g id="a_node10"><a xlink:href="morse__token_8h.html" target="_top" xlink:title="Defines the MorseToken class and various helpers. ">
<polygon fill="white" stroke="black" points="314.826,-112.5 314.826,-131.5 395.826,-131.5 395.826,-112.5 314.826,-112.5"/>
<text text-anchor="middle" x="355.326" y="-119.5" font-family="Helvetica,sans-Serif" font-size="10.00">morse_token.h</text>
</a>
</g>
</g>
<!-- Node2&#45;&gt;Node10 -->
<g id="edge9" class="edge"><title>Node2&#45;&gt;Node10</title>
<path fill="none" stroke="midnightblue" d="M225.728,-168.444C251.523,-159.399 292.403,-145.064 321.344,-134.916"/>
<polygon fill="midnightblue" stroke="midnightblue" points="322.76,-138.128 331.039,-131.516 320.444,-131.523 322.76,-138.128"/>
</g>
<!-- Node9 -->
<g id="node9" class="node"><title>Node9</title>
<polygon fill="white" stroke="#bfbfbf" points="139.326,-56.5 139.326,-75.5 197.326,-75.5 197.326,-56.5 139.326,-56.5"/>
<text text-anchor="middle" x="168.326" y="-63.5" font-family="Helvetica,sans-Serif" font-size="10.00">Arduino.h</text>
</g>
<!-- Node8&#45;&gt;Node9 -->
<g id="edge8" class="edge"><title>Node8&#45;&gt;Node9</title>
<path fill="none" stroke="midnightblue" d="M195.877,-112.083C191.312,-104.613 184.658,-93.7244 179.033,-84.5199"/>
<polygon fill="midnightblue" stroke="midnightblue" points="181.875,-82.4588 173.674,-75.7511 175.902,-86.109 181.875,-82.4588"/>
</g>
<!-- Node10&#45;&gt;Node6 -->
<g id="edge10" class="edge"><title>Node10&#45;&gt;Node6</title>
<path fill="none" stroke="midnightblue" d="M337.332,-112.324C319.289,-103.625 291.28,-90.1202 270.524,-80.113"/>
<polygon fill="midnightblue" stroke="midnightblue" points="271.804,-76.8449 261.277,-75.6545 268.764,-83.1502 271.804,-76.8449"/>
</g>
<!-- Node10&#45;&gt;Node7 -->
<g id="edge11" class="edge"><title>Node10&#45;&gt;Node7</title>
<path fill="none" stroke="midnightblue" d="M374.452,-112.396C389.261,-104.809 409.227,-92.4072 421.326,-76 431.291,-62.489 436.356,-43.9346 438.89,-30.1073"/>
<polygon fill="midnightblue" stroke="midnightblue" points="442.412,-30.235 440.476,-19.8186 435.494,-29.1687 442.412,-30.235"/>
</g>
<!-- Node11 -->
<g id="node11" class="node"><title>Node11</title>
<polygon fill="white" stroke="#bfbfbf" points="363.826,-56.5 363.826,-75.5 412.826,-75.5 412.826,-56.5 363.826,-56.5"/>
<text text-anchor="middle" x="388.326" y="-63.5" font-family="Helvetica,sans-Serif" font-size="10.00">cstddef</text>
</g>
<!-- Node10&#45;&gt;Node11 -->
<g id="edge12" class="edge"><title>Node10&#45;&gt;Node11</title>
<path fill="none" stroke="midnightblue" d="M360.776,-112.083C365.341,-104.613 371.995,-93.7244 377.62,-84.5199"/>
<polygon fill="midnightblue" stroke="midnightblue" points="380.751,-86.109 382.979,-75.7511 374.778,-82.4588 380.751,-86.109"/>
</g>
<!-- Node12 -->
<g id="node12" class="node"><title>Node12</title>
<g id="a_node12"><a xlink:href="prosign_8h.html" target="_top" xlink:title="Prosign constants. ">
<polygon fill="white" stroke="black" points="289.326,-56.5 289.326,-75.5 345.326,-75.5 345.326,-56.5 289.326,-56.5"/>
<text text-anchor="middle" x="317.326" y="-63.5" font-family="Helvetica,sans-Serif" font-size="10.00">prosign.h</text>
</a>
</g>
</g>
<!-- Node10&#45;&gt;Node12 -->
<g id="edge13" class="edge"><title>Node10&#45;&gt;Node12</title>
<path fill="none" stroke="midnightblue" d="M349.052,-112.083C343.684,-104.455 335.809,-93.2645 329.248,-83.9408"/>
<polygon fill="midnightblue" stroke="midnightblue" points="332.102,-81.9149 323.485,-75.7511 326.377,-85.9434 332.102,-81.9149"/>
</g>
<!-- Node12&#45;&gt;Node3 -->
<g id="edge14" class="edge"><title>Node12&#45;&gt;Node3</title>
<path fill="none" stroke="midnightblue" d="M291.499,-56.4435C264.077,-47.3591 220.549,-32.9388 189.894,-22.7831"/>
<polygon fill="midnightblue" stroke="midnightblue" points="190.627,-19.3389 180.033,-19.5164 188.425,-25.9837 190.627,-19.3389"/>
</g>
<!-- Node12&#45;&gt;Node7 -->
<g id="edge15" class="edge"><title>Node12&#45;&gt;Node7</title>
<path fill="none" stroke="midnightblue" d="M336.975,-56.4435C357.291,-47.5961 389.229,-33.6875 412.424,-23.5865"/>
<polygon fill="midnightblue" stroke="midnightblue" points="413.999,-26.7181 421.77,-19.5164 411.204,-20.3002 413.999,-26.7181"/>
</g>
</g>
</svg>
