<?xml version="1.0" encoding="UTF-8" standalone="no"?>
<!DOCTYPE svg PUBLIC "-//W3C//DTD SVG 1.1//EN"
 "http://www.w3.org/Graphics/SVG/1.1/DTD/svg11.dtd">
<!-- Generated by graphviz version 2.38.0 (20140413.2041)
 -->
<!-- Title: askNext Pages: 1 -->
<!--zoomable 817 -->
<svg id="main" version="1.1" xmlns="http://www.w3.org/2000/svg" xmlns:xlink="http://www.w3.org/1999/xlink" xml:space="preserve" onload="init(evt)">
<style type="text/css"><![CDATA[
.edge:hover path { stroke: red; }
.edge:hover polygon { stroke: red; fill: red; }
]]></style>
<script type="text/javascript"><![CDATA[
var edges = document.getElementsByTagName('g');
if (edges && edges.length) {
  for (var i=0;i<edges.length;i++) {
    if (edges[i].id.substr(0,4)=='edge') {
      edges[i].setAttribute('class','edge');
    }
  }
}
]]></script>
        <defs>
                <circle id="rim" cx="0" cy="0" r="7"/>
                <circle id="rim2" cx="0" cy="0" r="3.5"/>
                <g id="zoomPlus">
                        <use xlink:href="#rim" fill="#404040">
                                <set attributeName="fill" to="#808080" begin="zoomplus.mouseover" end="zoomplus.mouseout"/>
                        </use>
                        <path d="M-4,0h8M0,-4v8" fill="none" stroke="white" stroke-width="1.5" pointer-events="none"/>
                </g>
                <g id="zoomMin">
                        <use xlink:href="#rim" fill="#404040">
                                <set attributeName="fill" to="#808080" begin="zoomminus.mouseover" end="zoomminus.mouseout"/>
                        </use>
                        <path d="M-4,0h8" fill="none" stroke="white" stroke-width="1.5" pointer-events="none"/>
                </g>
                <g id="dirArrow">
                        <path fill="none" stroke="white" stroke-width="1.5" d="M0,-3.0v7 M-2.5,-0.5L0,-3.0L2.5,-0.5"/>
                </g>
               <g id="resetDef">
                       <use xlink:href="#rim2" fill="#404040">
                               <set attributeName="fill" to="#808080" begin="reset.mouseover" end="reset.mouseout"/>
                       </use>
               </g>
        </defs>

<script type="text/javascript">
var viewWidth = 1308;
var viewHeight = 817;
var sectionId = 'dynsection-2';
</script>
<script xlink:href="svgpan.js"/>
<svg id="graph" class="graph">
<g id="viewport">
<title>askNext</title>
<polygon fill="white" stroke="none" points="-4,4 -4,-812.535 1304,-812.535 1304,4 -4,4"/>
<!-- Node1 -->
<g id="node1" class="node"><title>Node1</title>
<polygon fill="#bfbfbf" stroke="black" points="0,-95.5 0,-114.5 53,-114.5 53,-95.5 0,-95.5"/>
<text text-anchor="middle" x="26.5" y="-102.5" font-family="Helvetica,sans-Serif" font-size="10.00">askNext</text>
</g>
<!-- Node2 -->
<g id="node2" class="node"><title>Node2</title>
<g id="a_node2"><a xlink:href="libmorse_8cpp.html#a0ee2308940264ea9ac8e50afc1a4d285" target="_top" xlink:title="txString">
<polygon fill="white" stroke="black" points="239,-532.5 239,-551.5 289,-551.5 289,-532.5 239,-532.5"/>
<text text-anchor="middle" x="264" y="-539.5" font-family="Helvetica,sans-Serif" font-size="10.00">txString</text>
</a>
</g>
</g>
<!-- Node1&#45;&gt;Node2 -->
<g id="edge1" class="edge"><title>Node1&#45;&gt;Node2</title>
<path fill="none" stroke="midnightblue" d="M30.8499,-114.846C39.3403,-139.405 62.8915,-205.127 89,-257 141.933,-362.169 220.394,-479.847 250.561,-523.992"/>
<polygon fill="midnightblue" stroke="midnightblue" points="247.848,-526.223 256.392,-532.487 253.619,-522.262 247.848,-526.223"/>
</g>
<!-- Node28 -->
<g id="node28" class="node"><title>Node28</title>
<g id="a_node28"><a xlink:href="stack_8cpp.html#ae73e1851820a958c7de01c9ed36d1b7c" target="_top" xlink:title="pushSymbolStack">
<polygon fill="white" stroke="black" points="216,-38.5 216,-57.5 312,-57.5 312,-38.5 216,-38.5"/>
<text text-anchor="middle" x="264" y="-45.5" font-family="Helvetica,sans-Serif" font-size="10.00">pushSymbolStack</text>
</a>
</g>
</g>
<!-- Node1&#45;&gt;Node28 -->
<g id="edge38" class="edge"><title>Node1&#45;&gt;Node28</title>
<path fill="none" stroke="midnightblue" d="M39.3928,-95.3916C51.2155,-86.4108 70.2469,-73.4468 89,-67 126.502,-54.1078 170.985,-49.4223 205.587,-47.9266"/>
<polygon fill="midnightblue" stroke="midnightblue" points="206.119,-51.4101 215.99,-47.5593 205.872,-44.4144 206.119,-51.4101"/>
</g>
<!-- Node30 -->
<g id="node30" class="node"><title>Node30</title>
<g id="a_node30"><a xlink:href="actions_8cpp.html#a76e8c23475fa40e7d5504df1379711d8" target="_top" xlink:title="Hash a Morse code symbol to a table location and store action there. ">
<polygon fill="white" stroke="black" points="97,-0.5 97,-19.5 170,-19.5 170,-0.5 97,-0.5"/>
<text text-anchor="middle" x="133.5" y="-7.5" font-family="Helvetica,sans-Serif" font-size="10.00">assignAction</text>
</a>
</g>
</g>
<!-- Node1&#45;&gt;Node30 -->
<g id="edge40" class="edge"><title>Node1&#45;&gt;Node30</title>
<path fill="none" stroke="midnightblue" d="M34.163,-95.3136C44.5799,-80.6826 65.9323,-52.6757 89,-34 93.1668,-30.6266 97.8745,-27.4765 102.615,-24.6401"/>
<polygon fill="midnightblue" stroke="midnightblue" points="104.617,-27.5308 111.637,-19.596 101.201,-21.4208 104.617,-27.5308"/>
</g>
<!-- Node33 -->
<g id="node33" class="node"><title>Node33</title>
<g id="a_node33"><a xlink:href="pda_8cpp.html#a959876507019ccc24303937cc277bb31" target="_top" xlink:title="gradeNext">
<polygon fill="white" stroke="black" points="102.5,-228.5 102.5,-247.5 164.5,-247.5 164.5,-228.5 102.5,-228.5"/>
<text text-anchor="middle" x="133.5" y="-235.5" font-family="Helvetica,sans-Serif" font-size="10.00">gradeNext</text>
</a>
</g>
</g>
<!-- Node1&#45;&gt;Node33 -->
<g id="edge43" class="edge"><title>Node1&#45;&gt;Node33</title>
<path fill="none" stroke="midnightblue" d="M35.0513,-114.565C52.5232,-136.696 95.9576,-191.713 118.471,-220.229"/>
<polygon fill="midnightblue" stroke="midnightblue" points="115.79,-222.483 124.734,-228.163 121.284,-218.145 115.79,-222.483"/>
</g>
<!-- Node40 -->
<g id="node40" class="node"><title>Node40</title>
<g id="a_node40"><a xlink:href="actions_8cpp.html#aa1ebbe304654c025f3f02ea434718884" target="_top" xlink:title="saveActions">
<polygon fill="white" stroke="black" points="98,-114.5 98,-133.5 169,-133.5 169,-114.5 98,-114.5"/>
<text text-anchor="middle" x="133.5" y="-121.5" font-family="Helvetica,sans-Serif" font-size="10.00">saveActions</text>
</a>
</g>
</g>
<!-- Node1&#45;&gt;Node40 -->
<g id="edge55" class="edge"><title>Node1&#45;&gt;Node40</title>
<path fill="none" stroke="midnightblue" d="M53.1859,-109.648C63.6105,-111.534 75.9632,-113.77 87.7784,-115.908"/>
<polygon fill="midnightblue" stroke="midnightblue" points="87.4977,-119.413 97.9611,-117.75 88.7442,-112.525 87.4977,-119.413"/>
</g>
<!-- Node42 -->
<g id="node42" class="node"><title>Node42</title>
<g id="a_node42"><a xlink:href="actions_8cpp.html#ad07e1d9a717a212364090e192e951ea5" target="_top" xlink:title="push1RestoreAll">
<polygon fill="white" stroke="black" points="89,-76.5 89,-95.5 178,-95.5 178,-76.5 89,-76.5"/>
<text text-anchor="middle" x="133.5" y="-83.5" font-family="Helvetica,sans-Serif" font-size="10.00">push1RestoreAll</text>
</a>
</g>
</g>
<!-- Node1&#45;&gt;Node42 -->
<g id="edge57" class="edge"><title>Node1&#45;&gt;Node42</title>
<path fill="none" stroke="midnightblue" d="M53.1859,-100.352C60.9496,-98.9472 69.7827,-97.3489 78.6667,-95.7413"/>
<polygon fill="midnightblue" stroke="midnightblue" points="79.4475,-99.1569 88.6644,-93.9322 78.201,-92.2688 79.4475,-99.1569"/>
</g>
<!-- Node3 -->
<g id="node3" class="node"><title>Node3</title>
<g id="a_node3"><a xlink:href="teensy3__morse__bsp_8cpp.html#ab306f692c5c9455a0c82782a67ff0147" target="_top" xlink:title="touchPoll">
<polygon fill="white" stroke="black" points="696,-418.5 696,-437.5 753,-437.5 753,-418.5 696,-418.5"/>
<text text-anchor="middle" x="724.5" y="-425.5" font-family="Helvetica,sans-Serif" font-size="10.00">touchPoll</text>
</a>
</g>
</g>
<!-- Node2&#45;&gt;Node3 -->
<g id="edge2" class="edge"><title>Node2&#45;&gt;Node3</title>
<path fill="none" stroke="midnightblue" d="M268.195,-532.236C276.815,-507.672 303.12,-443.393 350,-417 459.375,-355.423 616.774,-393.209 687.126,-415.336"/>
<polygon fill="midnightblue" stroke="midnightblue" points="686.266,-418.736 696.858,-418.473 688.414,-412.074 686.266,-418.736"/>
</g>
<!-- Node5 -->
<g id="node5" class="node"><title>Node5</title>
<g id="a_node5"><a xlink:href="settings_8cpp.html#a960551e90dfdad18f3c9b1338ccba7db" target="_top" xlink:title="Get the dit duration in microseconds. ">
<polygon fill="white" stroke="black" points="937.5,-684.5 937.5,-703.5 1009.5,-703.5 1009.5,-684.5 937.5,-684.5"/>
<text text-anchor="middle" x="973.5" y="-691.5" font-family="Helvetica,sans-Serif" font-size="10.00">getDitMicros</text>
</a>
</g>
</g>
<!-- Node2&#45;&gt;Node5 -->
<g id="edge4" class="edge"><title>Node2&#45;&gt;Node5</title>
<path fill="none" stroke="midnightblue" d="M265.923,-551.621C269.631,-584.75 286.461,-695.13 350,-751 424.561,-816.562 466.714,-808 566,-808 566,-808 566,-808 725.5,-808 817.901,-808 913.332,-741.417 953.194,-710.022"/>
<polygon fill="midnightblue" stroke="midnightblue" points="955.439,-712.708 961.048,-703.72 951.058,-707.248 955.439,-712.708"/>
</g>
<!-- Node6 -->
<g id="node6" class="node"><title>Node6</title>
<g id="a_node6"><a xlink:href="libmorse_8cpp.html#a9fdfce728595d72b78dc7c834ab99a40" target="_top" xlink:title="Transmit a literal Morse code value. ">
<polygon fill="white" stroke="black" points="828.5,-494.5 828.5,-513.5 879.5,-513.5 879.5,-494.5 828.5,-494.5"/>
<text text-anchor="middle" x="854" y="-501.5" font-family="Helvetica,sans-Serif" font-size="10.00">txLiteral</text>
</a>
</g>
</g>
<!-- Node2&#45;&gt;Node6 -->
<g id="edge5" class="edge"><title>Node2&#45;&gt;Node6</title>
<path fill="none" stroke="midnightblue" d="M268.473,-551.563C277.569,-574.983 304.572,-634.969 350,-658 396.777,-681.714 416.502,-667.918 468,-658 610.253,-630.605 766.759,-551.121 827.211,-518.367"/>
<polygon fill="midnightblue" stroke="midnightblue" points="828.973,-521.392 836.071,-513.526 825.617,-515.249 828.973,-521.392"/>
</g>
<!-- Node16 -->
<g id="node16" class="node"><title>Node16</title>
<g id="a_node16"><a xlink:href="libmorse_8cpp.html#acd4b292f5e412ee4f05aed9dafbc072d" target="_top" xlink:title="Convert an ASCII character into Morse code and transmit it. ">
<polygon fill="white" stroke="black" points="699.5,-494.5 699.5,-513.5 749.5,-513.5 749.5,-494.5 699.5,-494.5"/>
<text text-anchor="middle" x="724.5" y="-501.5" font-family="Helvetica,sans-Serif" font-size="10.00">txLetter</text>
</a>
</g>
</g>
<!-- Node2&#45;&gt;Node16 -->
<g id="edge17" class="edge"><title>Node2&#45;&gt;Node16</title>
<path fill="none" stroke="midnightblue" d="M289.071,-548.474C348.365,-563.311 505.679,-595.907 630,-561 658.313,-553.05 686.548,-533.896 704.462,-519.981"/>
<polygon fill="midnightblue" stroke="midnightblue" points="706.761,-522.623 712.382,-513.642 702.388,-517.158 706.761,-522.623"/>
</g>
<!-- Node17 -->
<g id="node17" class="node"><title>Node17</title>
<g id="a_node17"><a xlink:href="teensy3__morse__bsp_8cpp.html#a8761e874366e227690fba2964e1bc445" target="_top" xlink:title="getInternalTemperatureC">
<polygon fill="white" stroke="black" points="504.5,-532.5 504.5,-551.5 629.5,-551.5 629.5,-532.5 504.5,-532.5"/>
<text text-anchor="middle" x="567" y="-539.5" font-family="Helvetica,sans-Serif" font-size="10.00">getInternalTemperatureC</text>
</a>
</g>
</g>
<!-- Node2&#45;&gt;Node17 -->
<g id="edge20" class="edge"><title>Node2&#45;&gt;Node17</title>
<path fill="none" stroke="midnightblue" d="M269.952,-551.665C281.026,-572.066 309.997,-619.114 350,-637 397.877,-658.406 419.393,-656.692 468,-637 506.219,-621.516 537.763,-583.184 554.046,-560.222"/>
<polygon fill="midnightblue" stroke="midnightblue" points="557.116,-561.933 559.884,-551.707 551.343,-557.975 557.116,-561.933"/>
</g>
<!-- Node18 -->
<g id="node18" class="node"><title>Node18</title>
<g id="a_node18"><a xlink:href="libmorse_8cpp.html#a47abdd74b66d7180c47d192bab8bdccb" target="_top" xlink:title="Transmit an unsigned integer in Morse code. ">
<polygon fill="white" stroke="black" points="534,-494.5 534,-513.5 600,-513.5 600,-494.5 534,-494.5"/>
<text text-anchor="middle" x="567" y="-501.5" font-family="Helvetica,sans-Serif" font-size="10.00">txUnsigned</text>
</a>
</g>
</g>
<!-- Node2&#45;&gt;Node18 -->
<g id="edge21" class="edge"><title>Node2&#45;&gt;Node18</title>
<path fill="none" stroke="midnightblue" d="M289.02,-535.74C305.955,-531.545 329.23,-526.22 350,-523 409.798,-513.728 479.664,-508.609 523.377,-506.083"/>
<polygon fill="midnightblue" stroke="midnightblue" points="523.847,-509.562 533.636,-505.51 523.456,-502.573 523.847,-509.562"/>
</g>
<!-- Node19 -->
<g id="node19" class="node"><title>Node19</title>
<g id="a_node19"><a xlink:href="actions_8cpp.html#aed718ec1bd4cc7adb2f65d40a6784496" target="_top" xlink:title="Transmit the internal temperature in integer in Fahrenheit. ">
<polygon fill="white" stroke="black" points="350,-532.5 350,-551.5 468,-551.5 468,-532.5 350,-532.5"/>
<text text-anchor="middle" x="409" y="-539.5" font-family="Helvetica,sans-Serif" font-size="10.00">txInternalTemperatureF</text>
</a>
</g>
</g>
<!-- Node2&#45;&gt;Node19 -->
<g id="edge24" class="edge"><title>Node2&#45;&gt;Node19</title>
<path fill="none" stroke="midnightblue" d="M289.258,-542C303.31,-542 321.768,-542 339.931,-542"/>
<polygon fill="midnightblue" stroke="midnightblue" points="339.96,-545.5 349.96,-542 339.96,-538.5 339.96,-545.5"/>
</g>
<!-- Node20 -->
<g id="node20" class="node"><title>Node20</title>
<g id="a_node20"><a xlink:href="actions_8cpp.html#aaabb3ac0c23f35a499bc17efe829f326" target="_top" xlink:title="Transmit the 24&#45;hr time. ">
<polygon fill="white" stroke="black" points="370,-608.5 370,-627.5 448,-627.5 448,-608.5 370,-608.5"/>
<text text-anchor="middle" x="409" y="-615.5" font-family="Helvetica,sans-Serif" font-size="10.00">txTimeHHMM</text>
</a>
</g>
</g>
<!-- Node2&#45;&gt;Node20 -->
<g id="edge27" class="edge"><title>Node2&#45;&gt;Node20</title>
<path fill="none" stroke="midnightblue" d="M289.332,-550.675C306.019,-560.115 328.877,-574.252 350,-585 362.921,-591.574 378.075,-597.797 389.653,-603.521"/>
<polygon fill="midnightblue" stroke="midnightblue" points="388.295,-606.765 398.76,-608.419 391.611,-600.6 388.295,-606.765"/>
</g>
<!-- Node21 -->
<g id="node21" class="node"><title>Node21</title>
<g id="a_node21"><a xlink:href="actions_8cpp.html#ad02149679fa3cc6a4957d1a318408ffd" target="_top" xlink:title="Transmit the uptime. ">
<polygon fill="white" stroke="black" points="381,-456.5 381,-475.5 437,-475.5 437,-456.5 381,-456.5"/>
<text text-anchor="middle" x="409" y="-463.5" font-family="Helvetica,sans-Serif" font-size="10.00">txUptime</text>
</a>
</g>
</g>
<!-- Node2&#45;&gt;Node21 -->
<g id="edge29" class="edge"><title>Node2&#45;&gt;Node21</title>
<path fill="none" stroke="midnightblue" d="M279.044,-532.463C295.586,-521.456 324.097,-503.18 350,-490 357.307,-486.282 365.329,-482.676 373.014,-479.438"/>
<polygon fill="midnightblue" stroke="midnightblue" points="374.565,-482.585 382.489,-475.553 371.909,-476.109 374.565,-482.585"/>
</g>
<!-- Node23 -->
<g id="node23" class="node"><title>Node23</title>
<g id="a_node23"><a xlink:href="teensy3__morse__bsp_8cpp.html#ae8dd28759e56dbd2ee9bc9ae96d1783c" target="_top" xlink:title="Return the most recent ADC measurement of the input voltage. Perform analog to digital conversion on ...">
<polygon fill="white" stroke="black" points="372,-722.5 372,-741.5 446,-741.5 446,-722.5 372,-722.5"/>
<text text-anchor="middle" x="409" y="-729.5" font-family="Helvetica,sans-Serif" font-size="10.00">readMillivolts</text>
</a>
</g>
</g>
<!-- Node2&#45;&gt;Node23 -->
<g id="edge32" class="edge"><title>Node2&#45;&gt;Node23</title>
<path fill="none" stroke="midnightblue" d="M267.405,-551.688C274.84,-579.731 300.016,-661.905 350,-708 354.311,-711.976 359.372,-715.34 364.678,-718.175"/>
<polygon fill="midnightblue" stroke="midnightblue" points="363.212,-721.353 373.749,-722.46 366.202,-715.024 363.212,-721.353"/>
</g>
<!-- Node27 -->
<g id="node27" class="node"><title>Node27</title>
<g id="a_node27"><a xlink:href="libmorse_8cpp.html#ac3f000c98271c6d0a7710135e18189bc" target="_top" xlink:title="On my hardware there is cross&#45;coupling between the serial port and the touch sensors. Without the code below, long messages to the serial port trigger a touch input. ">
<polygon fill="white" stroke="black" points="534.5,-418.5 534.5,-437.5 599.5,-437.5 599.5,-418.5 534.5,-418.5"/>
<text text-anchor="middle" x="567" y="-425.5" font-family="Helvetica,sans-Serif" font-size="10.00">flushTouch</text>
</a>
</g>
</g>
<!-- Node2&#45;&gt;Node27 -->
<g id="edge36" class="edge"><title>Node2&#45;&gt;Node27</title>
<path fill="none" stroke="midnightblue" d="M270.252,-532.299C281.696,-512.256 311.017,-466.524 350,-447 405.428,-419.24 478.923,-419.332 524.307,-422.93"/>
<polygon fill="midnightblue" stroke="midnightblue" points="524.109,-426.426 534.379,-423.823 524.727,-419.453 524.109,-426.426"/>
</g>
<!-- Node4 -->
<g id="node4" class="node"><title>Node4</title>
<g id="a_node4"><a xlink:href="teensy3__morse__bsp_8cpp.html#af6899cd9b83df54106b259ab81ea5cb2" target="_top" xlink:title="touchMargin">
<polygon fill="white" stroke="black" points="819,-418.5 819,-437.5 889,-437.5 889,-418.5 819,-418.5"/>
<text text-anchor="middle" x="854" y="-425.5" font-family="Helvetica,sans-Serif" font-size="10.00">touchMargin</text>
</a>
</g>
</g>
<!-- Node3&#45;&gt;Node4 -->
<g id="edge3" class="edge"><title>Node3&#45;&gt;Node4</title>
<path fill="none" stroke="midnightblue" d="M753.166,-428C769.281,-428 789.984,-428 808.355,-428"/>
<polygon fill="midnightblue" stroke="midnightblue" points="808.562,-431.5 818.562,-428 808.562,-424.5 808.562,-431.5"/>
</g>
<!-- Node6&#45;&gt;Node5 -->
<g id="edge14" class="edge"><title>Node6&#45;&gt;Node5</title>
<path fill="none" stroke="midnightblue" d="M860.988,-513.683C879.527,-543.66 936.203,-635.307 960.85,-675.161"/>
<polygon fill="midnightblue" stroke="midnightblue" points="958.146,-677.444 966.383,-684.108 964.1,-673.762 958.146,-677.444"/>
</g>
<!-- Node7 -->
<g id="node7" class="node"><title>Node7</title>
<g id="a_node7"><a xlink:href="class_morse_token.html#a48cd72aeb868391449d1f51c1d0bf5cc" target="_top" xlink:title="Treat code == 0 as the error token. ">
<polygon fill="white" stroke="black" points="925,-494.5 925,-513.5 1022,-513.5 1022,-494.5 925,-494.5"/>
<text text-anchor="middle" x="973.5" y="-501.5" font-family="Helvetica,sans-Serif" font-size="10.00">MorseToken::valid</text>
</a>
</g>
</g>
<!-- Node6&#45;&gt;Node7 -->
<g id="edge6" class="edge"><title>Node6&#45;&gt;Node7</title>
<path fill="none" stroke="midnightblue" d="M879.632,-504C889.831,-504 902.13,-504 914.391,-504"/>
<polygon fill="midnightblue" stroke="midnightblue" points="914.635,-507.5 924.635,-504 914.635,-500.5 914.635,-507.5"/>
</g>
<!-- Node8 -->
<g id="node8" class="node"><title>Node8</title>
<g id="a_node8"><a xlink:href="teensy3__morse__bsp_8cpp.html#af66e71e3fac9b6a2c6532bc8a513bfde" target="_top" xlink:title="Output a square wave on pin 10 at the given frequency for the given duration. ">
<polygon fill="white" stroke="black" points="954.5,-456.5 954.5,-475.5 992.5,-475.5 992.5,-456.5 954.5,-456.5"/>
<text text-anchor="middle" x="973.5" y="-463.5" font-family="Helvetica,sans-Serif" font-size="10.00">beep</text>
</a>
</g>
</g>
<!-- Node6&#45;&gt;Node8 -->
<g id="edge7" class="edge"><title>Node6&#45;&gt;Node8</title>
<path fill="none" stroke="midnightblue" d="M879.632,-496.034C898.657,-489.881 924.988,-481.366 944.755,-474.973"/>
<polygon fill="midnightblue" stroke="midnightblue" points="945.982,-478.254 954.42,-471.847 943.828,-471.594 945.982,-478.254"/>
</g>
<!-- Node14 -->
<g id="node14" class="node"><title>Node14</title>
<g id="a_node14"><a xlink:href="settings_8cpp.html#a8575b9b52638114a4f32d1462cf9b7c1" target="_top" xlink:title="Get the transmission frequency (side tone). ">
<polygon fill="white" stroke="black" points="946.5,-532.5 946.5,-551.5 1000.5,-551.5 1000.5,-532.5 946.5,-532.5"/>
<text text-anchor="middle" x="973.5" y="-539.5" font-family="Helvetica,sans-Serif" font-size="10.00">getTxHz</text>
</a>
</g>
</g>
<!-- Node6&#45;&gt;Node14 -->
<g id="edge13" class="edge"><title>Node6&#45;&gt;Node14</title>
<path fill="none" stroke="midnightblue" d="M879.632,-511.966C896.174,-517.316 918.239,-524.452 936.711,-530.426"/>
<polygon fill="midnightblue" stroke="midnightblue" points="935.677,-533.77 946.269,-533.517 937.831,-527.109 935.677,-533.77"/>
</g>
<!-- Node15 -->
<g id="node15" class="node"><title>Node15</title>
<g id="a_node15"><a xlink:href="libmorse_8cpp.html#ab94e088615119d1faae7df22ce50aedf" target="_top" xlink:title="Transmit a Morse code prosign indicating an error. ">
<polygon fill="white" stroke="black" points="950.5,-342.5 950.5,-361.5 996.5,-361.5 996.5,-342.5 950.5,-342.5"/>
<text text-anchor="middle" x="973.5" y="-349.5" font-family="Helvetica,sans-Serif" font-size="10.00">txError</text>
</a>
</g>
</g>
<!-- Node6&#45;&gt;Node15 -->
<g id="edge15" class="edge"><title>Node6&#45;&gt;Node15</title>
<path fill="none" stroke="midnightblue" d="M871.21,-494.386C877.196,-490.385 883.785,-485.41 889,-480 921.838,-445.936 949.444,-397.218 963.173,-370.792"/>
<polygon fill="midnightblue" stroke="midnightblue" points="966.469,-372.032 967.887,-361.533 960.231,-368.857 966.469,-372.032"/>
</g>
<!-- Node9 -->
<g id="node9" class="node"><title>Node9</title>
<g id="a_node9"><a xlink:href="teensy3__morse__bsp_8cpp.html#a6f674d5b9985ea3a7eeb0df299c2e405" target="_top" xlink:title="pollEarphonePresent">
<polygon fill="white" stroke="black" points="1058,-513.5 1058,-532.5 1165,-532.5 1165,-513.5 1058,-513.5"/>
<text text-anchor="middle" x="1111.5" y="-520.5" font-family="Helvetica,sans-Serif" font-size="10.00">pollEarphonePresent</text>
</a>
</g>
</g>
<!-- Node8&#45;&gt;Node9 -->
<g id="edge8" class="edge"><title>Node8&#45;&gt;Node9</title>
<path fill="none" stroke="midnightblue" d="M992.734,-472.777C1001.65,-476.221 1012.49,-480.602 1022,-485 1038.42,-492.592 1041.45,-496.682 1058,-504 1062.53,-506.002 1067.34,-507.961 1072.14,-509.815"/>
<polygon fill="midnightblue" stroke="midnightblue" points="1071.29,-513.234 1081.88,-513.453 1073.74,-506.676 1071.29,-513.234"/>
</g>
<!-- Node10 -->
<g id="node10" class="node"><title>Node10</title>
<g id="a_node10"><a xlink:href="teensy3__morse__bsp_8cpp.html#a2d6b4ace33ed5e497dedd03217540c63" target="_top" xlink:title="Set the PWM frequency for the audio output pins. ">
<polygon fill="white" stroke="black" points="1070,-475.5 1070,-494.5 1153,-494.5 1153,-475.5 1070,-475.5"/>
<text text-anchor="middle" x="1111.5" y="-482.5" font-family="Helvetica,sans-Serif" font-size="10.00">pwmFrequency</text>
</a>
</g>
</g>
<!-- Node8&#45;&gt;Node10 -->
<g id="edge9" class="edge"><title>Node8&#45;&gt;Node10</title>
<path fill="none" stroke="midnightblue" d="M992.56,-468.523C1009.62,-470.906 1036.02,-474.594 1059.52,-477.878"/>
<polygon fill="midnightblue" stroke="midnightblue" points="1059.33,-481.386 1069.72,-479.303 1060.3,-474.453 1059.33,-481.386"/>
</g>
<!-- Node11 -->
<g id="node11" class="node"><title>Node11</title>
<g id="a_node11"><a xlink:href="teensy3__morse__bsp_8cpp.html#a82911eac3bf13d6f36d10102a4c4d3c4" target="_top" xlink:title="Generate a tone on the audio output pins. ">
<polygon fill="white" stroke="black" points="1081,-437.5 1081,-456.5 1142,-456.5 1142,-437.5 1081,-437.5"/>
<text text-anchor="middle" x="1111.5" y="-444.5" font-family="Helvetica,sans-Serif" font-size="10.00">pwmWrite</text>
</a>
</g>
</g>
<!-- Node8&#45;&gt;Node11 -->
<g id="edge10" class="edge"><title>Node8&#45;&gt;Node11</title>
<path fill="none" stroke="midnightblue" d="M992.56,-463.477C1012.46,-460.697 1045.08,-456.139 1070.98,-452.521"/>
<polygon fill="midnightblue" stroke="midnightblue" points="1071.47,-455.987 1080.89,-451.137 1070.5,-449.054 1071.47,-455.987"/>
</g>
<!-- Node13 -->
<g id="node13" class="node"><title>Node13</title>
<g id="a_node13"><a xlink:href="teensy3__morse__bsp_8cpp.html#a6c982a7d7805f1dd5426eb98c915cfdd" target="_top" xlink:title="Turn the red LED on (1) or off (0). ">
<polygon fill="white" stroke="black" points="1086.5,-399.5 1086.5,-418.5 1136.5,-418.5 1136.5,-399.5 1086.5,-399.5"/>
<text text-anchor="middle" x="1111.5" y="-406.5" font-family="Helvetica,sans-Serif" font-size="10.00">redLED</text>
</a>
</g>
</g>
<!-- Node8&#45;&gt;Node13 -->
<g id="edge12" class="edge"><title>Node8&#45;&gt;Node13</title>
<path fill="none" stroke="midnightblue" d="M992.561,-457.275C1009.35,-449.285 1035.14,-437.321 1058,-428 1064.01,-425.55 1070.46,-423.083 1076.72,-420.774"/>
<polygon fill="midnightblue" stroke="midnightblue" points="1078.09,-424 1086.3,-417.302 1075.71,-417.419 1078.09,-424"/>
</g>
<!-- Node12 -->
<g id="node12" class="node"><title>Node12</title>
<g id="a_node12"><a xlink:href="teensy3__morse__bsp_8cpp.html#ac70998cee1bf97f00aec4a1b4e5a4f60" target="_top" xlink:title="isEarphonePresent">
<polygon fill="white" stroke="black" points="1201,-437.5 1201,-456.5 1300,-456.5 1300,-437.5 1201,-437.5"/>
<text text-anchor="middle" x="1250.5" y="-444.5" font-family="Helvetica,sans-Serif" font-size="10.00">isEarphonePresent</text>
</a>
</g>
</g>
<!-- Node11&#45;&gt;Node12 -->
<g id="edge11" class="edge"><title>Node11&#45;&gt;Node12</title>
<path fill="none" stroke="midnightblue" d="M1142.23,-447C1156.43,-447 1173.96,-447 1190.7,-447"/>
<polygon fill="midnightblue" stroke="midnightblue" points="1190.98,-450.5 1200.98,-447 1190.98,-443.5 1190.98,-450.5"/>
</g>
<!-- Node15&#45;&gt;Node2 -->
<g id="edge16" class="edge"><title>Node15&#45;&gt;Node2</title>
<path fill="none" stroke="midnightblue" d="M950.359,-352C907.133,-352 808.477,-352 725.5,-352 566,-352 566,-352 566,-352 469.197,-352 429.441,-324.683 350,-380 300.374,-414.556 277.548,-487.319 269.108,-522.343"/>
<polygon fill="midnightblue" stroke="midnightblue" points="265.65,-521.767 266.858,-532.293 272.478,-523.311 265.65,-521.767"/>
</g>
<!-- Node16&#45;&gt;Node6 -->
<g id="edge18" class="edge"><title>Node16&#45;&gt;Node6</title>
<path fill="none" stroke="midnightblue" d="M749.782,-504C769.154,-504 796.544,-504 818.24,-504"/>
<polygon fill="midnightblue" stroke="midnightblue" points="818.374,-507.5 828.374,-504 818.374,-500.5 818.374,-507.5"/>
</g>
<!-- Node16&#45;&gt;Node15 -->
<g id="edge19" class="edge"><title>Node16&#45;&gt;Node15</title>
<path fill="none" stroke="midnightblue" d="M749.707,-499.615C783.254,-492.679 844.74,-476.801 889,-447 919.94,-426.168 946.583,-391.156 961.01,-369.953"/>
<polygon fill="midnightblue" stroke="midnightblue" points="963.98,-371.807 966.586,-361.538 958.145,-367.94 963.98,-371.807"/>
</g>
<!-- Node18&#45;&gt;Node3 -->
<g id="edge22" class="edge"><title>Node18&#45;&gt;Node3</title>
<path fill="none" stroke="midnightblue" d="M600.102,-495.826C609.889,-492.894 620.553,-489.246 630,-485 655.929,-473.346 683.468,-455.859 701.889,-443.329"/>
<polygon fill="midnightblue" stroke="midnightblue" points="703.912,-446.186 710.153,-437.624 699.935,-440.425 703.912,-446.186"/>
</g>
<!-- Node18&#45;&gt;Node16 -->
<g id="edge23" class="edge"><title>Node18&#45;&gt;Node16</title>
<path fill="none" stroke="midnightblue" d="M600.22,-504C626.178,-504 662.59,-504 689.109,-504"/>
<polygon fill="midnightblue" stroke="midnightblue" points="689.454,-507.5 699.454,-504 689.454,-500.5 689.454,-507.5"/>
</g>
<!-- Node19&#45;&gt;Node17 -->
<g id="edge25" class="edge"><title>Node19&#45;&gt;Node17</title>
<path fill="none" stroke="midnightblue" d="M468.089,-542C476.619,-542 485.489,-542 494.254,-542"/>
<polygon fill="midnightblue" stroke="midnightblue" points="494.467,-545.5 504.467,-542 494.467,-538.5 494.467,-545.5"/>
</g>
<!-- Node19&#45;&gt;Node18 -->
<g id="edge26" class="edge"><title>Node19&#45;&gt;Node18</title>
<path fill="none" stroke="midnightblue" d="M449.365,-532.411C472.167,-526.857 500.861,-519.867 524.083,-514.211"/>
<polygon fill="midnightblue" stroke="midnightblue" points="525.108,-517.563 533.996,-511.796 523.451,-510.762 525.108,-517.563"/>
</g>
<!-- Node20&#45;&gt;Node2 -->
<g id="edge28" class="edge"><title>Node20&#45;&gt;Node2</title>
<path fill="none" stroke="midnightblue" d="M369.861,-612.073C363.159,-609.341 356.313,-606.212 350,-603 324.266,-589.906 295.957,-571.782 279.369,-558.259"/>
<polygon fill="midnightblue" stroke="midnightblue" points="281.666,-555.618 271.839,-551.657 277.051,-560.881 281.666,-555.618"/>
</g>
<!-- Node21&#45;&gt;Node18 -->
<g id="edge31" class="edge"><title>Node21&#45;&gt;Node18</title>
<path fill="none" stroke="midnightblue" d="M437.173,-472.619C461.119,-478.452 496.386,-487.043 523.968,-493.762"/>
<polygon fill="midnightblue" stroke="midnightblue" points="523.203,-497.177 533.748,-496.144 524.86,-490.376 523.203,-497.177"/>
</g>
<!-- Node22 -->
<g id="node22" class="node"><title>Node22</title>
<g id="a_node22"><a xlink:href="settings_8cpp.html#a7b4efa097b94f9a90c5bbafcdf93fe4f" target="_top" xlink:title="getUptime">
<polygon fill="white" stroke="black" points="536,-456.5 536,-475.5 598,-475.5 598,-456.5 536,-456.5"/>
<text text-anchor="middle" x="567" y="-463.5" font-family="Helvetica,sans-Serif" font-size="10.00">getUptime</text>
</a>
</g>
</g>
<!-- Node21&#45;&gt;Node22 -->
<g id="edge30" class="edge"><title>Node21&#45;&gt;Node22</title>
<path fill="none" stroke="midnightblue" d="M437.173,-466C461.633,-466 497.905,-466 525.735,-466"/>
<polygon fill="midnightblue" stroke="midnightblue" points="525.945,-469.5 535.945,-466 525.945,-462.5 525.945,-469.5"/>
</g>
<!-- Node24 -->
<g id="node24" class="node"><title>Node24</title>
<g id="a_node24"><a xlink:href="class_voltage_monitor.html#a70902b84f9864c95d5553a0644a64f4f" target="_top" xlink:title="Return the latest voltage reading. ">
<polygon fill="white" stroke="black" points="504,-722.5 504,-741.5 630,-741.5 630,-722.5 504,-722.5"/>
<text text-anchor="middle" x="567" y="-729.5" font-family="Helvetica,sans-Serif" font-size="10.00">VoltageMonitor::getValue</text>
</a>
</g>
</g>
<!-- Node23&#45;&gt;Node24 -->
<g id="edge33" class="edge"><title>Node23&#45;&gt;Node24</title>
<path fill="none" stroke="midnightblue" d="M446.182,-732C460.344,-732 477.117,-732 493.56,-732"/>
<polygon fill="midnightblue" stroke="midnightblue" points="493.728,-735.5 503.728,-732 493.728,-728.5 493.728,-735.5"/>
</g>
<!-- Node25 -->
<g id="node25" class="node"><title>Node25</title>
<g id="a_node25"><a xlink:href="actions_8cpp.html#a2b8c3769e2aa32a2da9e2f3f85ac73dd" target="_top" xlink:title="A sample ADC reading is taken each time through the main loop, and written to a ring buffer...">
<polygon fill="white" stroke="black" points="668.5,-722.5 668.5,-741.5 780.5,-741.5 780.5,-722.5 668.5,-722.5"/>
<text text-anchor="middle" x="724.5" y="-729.5" font-family="Helvetica,sans-Serif" font-size="10.00">getVoltagePollInterval</text>
</a>
</g>
</g>
<!-- Node24&#45;&gt;Node25 -->
<g id="edge34" class="edge"><title>Node24&#45;&gt;Node25</title>
<path fill="none" stroke="midnightblue" d="M630.352,-732C639.438,-732 648.816,-732 657.963,-732"/>
<polygon fill="midnightblue" stroke="midnightblue" points="658.163,-735.5 668.163,-732 658.163,-728.5 658.163,-735.5"/>
</g>
<!-- Node26 -->
<g id="node26" class="node"><title>Node26</title>
<g id="a_node26"><a xlink:href="class_voltage_monitor.html#a75871331808c34b40d04059ee2af0f27" target="_top" xlink:title="Filter and scale raw ADC values to millivolts. ">
<polygon fill="white" stroke="black" points="666,-760.5 666,-779.5 783,-779.5 783,-760.5 666,-760.5"/>
<text text-anchor="middle" x="724.5" y="-767.5" font-family="Helvetica,sans-Serif" font-size="10.00">VoltageMonitor::update</text>
</a>
</g>
</g>
<!-- Node24&#45;&gt;Node26 -->
<g id="edge35" class="edge"><title>Node24&#45;&gt;Node26</title>
<path fill="none" stroke="midnightblue" d="M607.239,-741.589C627.759,-746.604 653.067,-752.788 674.825,-758.105"/>
<polygon fill="midnightblue" stroke="midnightblue" points="673.998,-761.506 684.543,-760.48 675.66,-754.706 673.998,-761.506"/>
</g>
<!-- Node27&#45;&gt;Node3 -->
<g id="edge37" class="edge"><title>Node27&#45;&gt;Node3</title>
<path fill="none" stroke="midnightblue" d="M599.843,-428C624.677,-428 659.247,-428 685.522,-428"/>
<polygon fill="midnightblue" stroke="midnightblue" points="685.864,-431.5 695.864,-428 685.863,-424.5 685.864,-431.5"/>
</g>
<!-- Node29 -->
<g id="node29" class="node"><title>Node29</title>
<g id="a_node29"><a xlink:href="class_stack.html#ab11c0714a1585dcde1475111d994f0bb" target="_top" xlink:title="Push t onto the stack, if there is space for it. ">
<polygon fill="white" stroke="black" points="374.5,-38.5 374.5,-57.5 443.5,-57.5 443.5,-38.5 374.5,-38.5"/>
<text text-anchor="middle" x="409" y="-45.5" font-family="Helvetica,sans-Serif" font-size="10.00">Stack::push</text>
</a>
</g>
</g>
<!-- Node28&#45;&gt;Node29 -->
<g id="edge39" class="edge"><title>Node28&#45;&gt;Node29</title>
<path fill="none" stroke="midnightblue" d="M312.22,-48C328.904,-48 347.589,-48 363.995,-48"/>
<polygon fill="midnightblue" stroke="midnightblue" points="364.404,-51.5001 374.404,-48 364.404,-44.5001 364.404,-51.5001"/>
</g>
<!-- Node31 -->
<g id="node31" class="node"><title>Node31</title>
<g id="a_node31"><a xlink:href="actions_8cpp.html#a4ddb37fc9b26cb5c7a18a1458414f647" target="_top" xlink:title="codeHash">
<polygon fill="white" stroke="black" points="233.5,-0.5 233.5,-19.5 294.5,-19.5 294.5,-0.5 233.5,-0.5"/>
<text text-anchor="middle" x="264" y="-7.5" font-family="Helvetica,sans-Serif" font-size="10.00">codeHash</text>
</a>
</g>
</g>
<!-- Node30&#45;&gt;Node31 -->
<g id="edge41" class="edge"><title>Node30&#45;&gt;Node31</title>
<path fill="none" stroke="midnightblue" d="M170.294,-10C186.776,-10 206.388,-10 223.32,-10"/>
<polygon fill="midnightblue" stroke="midnightblue" points="223.464,-13.5001 233.464,-10 223.464,-6.5001 223.464,-13.5001"/>
</g>
<!-- Node32 -->
<g id="node32" class="node"><title>Node32</title>
<g id="a_node32"><a xlink:href="morse__token_8h.html#af9722722b93869c9f37ef10573b31655" target="_top" xlink:title="wordBits">
<polygon fill="white" stroke="black" points="381.5,-0.5 381.5,-19.5 436.5,-19.5 436.5,-0.5 381.5,-0.5"/>
<text text-anchor="middle" x="409" y="-7.5" font-family="Helvetica,sans-Serif" font-size="10.00">wordBits</text>
</a>
</g>
</g>
<!-- Node31&#45;&gt;Node32 -->
<g id="edge42" class="edge"><title>Node31&#45;&gt;Node32</title>
<path fill="none" stroke="midnightblue" d="M294.63,-10C316.864,-10 347.438,-10 371.233,-10"/>
<polygon fill="midnightblue" stroke="midnightblue" points="371.302,-13.5001 381.302,-10 371.302,-6.5001 371.302,-13.5001"/>
</g>
<!-- Node33&#45;&gt;Node2 -->
<g id="edge48" class="edge"><title>Node33&#45;&gt;Node2</title>
<path fill="none" stroke="midnightblue" d="M138.63,-247.77C156.869,-290.919 230.382,-464.833 254.955,-522.968"/>
<polygon fill="midnightblue" stroke="midnightblue" points="251.832,-524.569 258.95,-532.418 258.28,-521.844 251.832,-524.569"/>
</g>
<!-- Node33&#45;&gt;Node15 -->
<g id="edge54" class="edge"><title>Node33&#45;&gt;Node15</title>
<path fill="none" stroke="midnightblue" d="M164.664,-244.97C214.859,-255.94 318.834,-276 408,-276 408,-276 408,-276 725.5,-276 808.68,-276 900.926,-315.86 945.481,-337.846"/>
<polygon fill="midnightblue" stroke="midnightblue" points="943.989,-341.014 954.496,-342.375 947.131,-334.758 943.989,-341.014"/>
</g>
<!-- Node34 -->
<g id="node34" class="node"><title>Node34</title>
<g id="a_node34"><a xlink:href="stack_8cpp.html#aafac4a86d14d59c34565bc295024e511" target="_top" xlink:title="symbolStackSize">
<polygon fill="white" stroke="black" points="520.5,-209.5 520.5,-228.5 613.5,-228.5 613.5,-209.5 520.5,-209.5"/>
<text text-anchor="middle" x="567" y="-216.5" font-family="Helvetica,sans-Serif" font-size="10.00">symbolStackSize</text>
</a>
</g>
</g>
<!-- Node33&#45;&gt;Node34 -->
<g id="edge44" class="edge"><title>Node33&#45;&gt;Node34</title>
<path fill="none" stroke="midnightblue" d="M164.78,-234.484C206.43,-229.841 283.774,-221.914 350,-219 404.453,-216.604 466.702,-216.929 510.341,-217.657"/>
<polygon fill="midnightblue" stroke="midnightblue" points="510.403,-221.159 520.464,-217.839 510.529,-214.16 510.403,-221.159"/>
</g>
<!-- Node36 -->
<g id="node36" class="node"><title>Node36</title>
<g id="a_node36"><a xlink:href="stack_8cpp.html#abefdfbf9131b5ea5926f9ecbecb6b1e6" target="_top" xlink:title="Access the stack using an index where 0 is the top of the stack. ">
<polygon fill="white" stroke="black" points="394.5,-228.5 394.5,-247.5 423.5,-247.5 423.5,-228.5 394.5,-228.5"/>
<text text-anchor="middle" x="409" y="-235.5" font-family="Helvetica,sans-Serif" font-size="10.00">s</text>
</a>
</g>
</g>
<!-- Node33&#45;&gt;Node36 -->
<g id="edge46" class="edge"><title>Node33&#45;&gt;Node36</title>
<path fill="none" stroke="midnightblue" d="M164.552,-238C219.38,-238 334.568,-238 384.303,-238"/>
<polygon fill="midnightblue" stroke="midnightblue" points="384.41,-241.5 394.41,-238 384.41,-234.5 384.41,-241.5"/>
</g>
<!-- Node37 -->
<g id="node37" class="node"><title>Node37</title>
<g id="a_node37"><a xlink:href="stack_8cpp.html#ac5ce0328e4b31389fddc82a135016456" target="_top" xlink:title="popSymbolStack">
<polygon fill="white" stroke="black" points="218.5,-152.5 218.5,-171.5 309.5,-171.5 309.5,-152.5 218.5,-152.5"/>
<text text-anchor="middle" x="264" y="-159.5" font-family="Helvetica,sans-Serif" font-size="10.00">popSymbolStack</text>
</a>
</g>
</g>
<!-- Node33&#45;&gt;Node37 -->
<g id="edge49" class="edge"><title>Node33&#45;&gt;Node37</title>
<path fill="none" stroke="midnightblue" d="M147.965,-228.454C163.524,-217.6 190.062,-199.622 214,-186 219.835,-182.68 226.195,-179.358 232.342,-176.291"/>
<polygon fill="midnightblue" stroke="midnightblue" points="234.267,-179.246 241.72,-171.716 231.198,-172.955 234.267,-179.246"/>
</g>
<!-- Node39 -->
<g id="node39" class="node"><title>Node39</title>
<g id="a_node39"><a xlink:href="actions_8cpp.html#a5396567e85aa94852a84b3fff96369b9" target="_top" xlink:title="Transmit the top element of the stack. ">
<polygon fill="white" stroke="black" points="214,-304.5 214,-323.5 314,-323.5 314,-304.5 214,-304.5"/>
<text text-anchor="middle" x="264" y="-311.5" font-family="Helvetica,sans-Serif" font-size="10.00">txSymbolStackTop</text>
</a>
</g>
</g>
<!-- Node33&#45;&gt;Node39 -->
<g id="edge51" class="edge"><title>Node33&#45;&gt;Node39</title>
<path fill="none" stroke="midnightblue" d="M147.965,-247.546C163.524,-258.4 190.062,-276.378 214,-290 219.835,-293.32 226.195,-296.642 232.342,-299.709"/>
<polygon fill="midnightblue" stroke="midnightblue" points="231.198,-303.045 241.72,-304.284 234.267,-296.754 231.198,-303.045"/>
</g>
<!-- Node35 -->
<g id="node35" class="node"><title>Node35</title>
<g id="a_node35"><a xlink:href="class_stack.html#afc30a7ee287e14f08802c2d43613f2b4" target="_top" xlink:title="Return the number of elements currently in the stack. ">
<polygon fill="white" stroke="black" points="691.5,-209.5 691.5,-228.5 757.5,-228.5 757.5,-209.5 691.5,-209.5"/>
<text text-anchor="middle" x="724.5" y="-216.5" font-family="Helvetica,sans-Serif" font-size="10.00">Stack::size</text>
</a>
</g>
</g>
<!-- Node34&#45;&gt;Node35 -->
<g id="edge45" class="edge"><title>Node34&#45;&gt;Node35</title>
<path fill="none" stroke="midnightblue" d="M613.814,-219C635.12,-219 660.298,-219 681.154,-219"/>
<polygon fill="midnightblue" stroke="midnightblue" points="681.316,-222.5 691.316,-219 681.316,-215.5 681.316,-222.5"/>
</g>
<!-- Node36&#45;&gt;Node34 -->
<g id="edge47" class="edge"><title>Node36&#45;&gt;Node34</title>
<path fill="none" stroke="midnightblue" d="M423.571,-236.347C442.752,-234.011 478.922,-229.606 510.011,-225.819"/>
<polygon fill="midnightblue" stroke="midnightblue" points="510.824,-229.246 520.328,-224.563 509.978,-222.297 510.824,-229.246"/>
</g>
<!-- Node38 -->
<g id="node38" class="node"><title>Node38</title>
<g id="a_node38"><a xlink:href="class_stack.html#a8b4caa181ab4cc209c270338e919cf8b" target="_top" xlink:title="Discard the top element, if the stack is not empty. ">
<polygon fill="white" stroke="black" points="377,-152.5 377,-171.5 441,-171.5 441,-152.5 377,-152.5"/>
<text text-anchor="middle" x="409" y="-159.5" font-family="Helvetica,sans-Serif" font-size="10.00">Stack::pop</text>
</a>
</g>
</g>
<!-- Node37&#45;&gt;Node38 -->
<g id="edge50" class="edge"><title>Node37&#45;&gt;Node38</title>
<path fill="none" stroke="midnightblue" d="M309.854,-162C328.067,-162 348.972,-162 366.795,-162"/>
<polygon fill="midnightblue" stroke="midnightblue" points="366.89,-165.5 376.89,-162 366.89,-158.5 366.89,-165.5"/>
</g>
<!-- Node39&#45;&gt;Node6 -->
<g id="edge52" class="edge"><title>Node39&#45;&gt;Node6</title>
<path fill="none" stroke="midnightblue" d="M314.169,-310.987C411.889,-307.417 633.935,-311.608 783,-409 798.284,-418.986 826.216,-461.115 841.776,-485.79"/>
<polygon fill="midnightblue" stroke="midnightblue" points="838.817,-487.659 847.082,-494.289 844.755,-483.952 838.817,-487.659"/>
</g>
<!-- Node39&#45;&gt;Node36 -->
<g id="edge53" class="edge"><title>Node39&#45;&gt;Node36</title>
<path fill="none" stroke="midnightblue" d="M283.111,-304.375C309.061,-290.583 356.81,-265.206 385.154,-250.142"/>
<polygon fill="midnightblue" stroke="midnightblue" points="387.115,-253.063 394.303,-245.28 383.83,-246.882 387.115,-253.063"/>
</g>
<!-- Node41 -->
<g id="node41" class="node"><title>Node41</title>
<g id="a_node41"><a xlink:href="actions_8cpp.html#a9cfd0adeb55456558a4fcddce4901fc0" target="_top" xlink:title="restorePending">
<polygon fill="white" stroke="black" points="368,-114.5 368,-133.5 450,-133.5 450,-114.5 368,-114.5"/>
<text text-anchor="middle" x="409" y="-121.5" font-family="Helvetica,sans-Serif" font-size="10.00">restorePending</text>
</a>
</g>
</g>
<!-- Node40&#45;&gt;Node41 -->
<g id="edge56" class="edge"><title>Node40&#45;&gt;Node41</title>
<path fill="none" stroke="midnightblue" d="M169.139,-124C216.807,-124 302.934,-124 357.701,-124"/>
<polygon fill="midnightblue" stroke="midnightblue" points="357.881,-127.5 367.881,-124 357.881,-120.5 357.881,-127.5"/>
</g>
<!-- Node42&#45;&gt;Node28 -->
<g id="edge58" class="edge"><title>Node42&#45;&gt;Node28</title>
<path fill="none" stroke="midnightblue" d="M166.926,-76.411C183.21,-71.5956 203.142,-65.7012 220.622,-60.532"/>
<polygon fill="midnightblue" stroke="midnightblue" points="221.987,-63.7781 230.584,-57.5859 220.002,-57.0655 221.987,-63.7781"/>
</g>
<!-- Node43 -->
<g id="node43" class="node"><title>Node43</title>
<g id="a_node43"><a xlink:href="actions_8cpp.html#af4c12896b2807b2ac63725a650efea6b" target="_top" xlink:title="restoreActions">
<polygon fill="white" stroke="black" points="224,-76.5 224,-95.5 304,-95.5 304,-76.5 224,-76.5"/>
<text text-anchor="middle" x="264" y="-83.5" font-family="Helvetica,sans-Serif" font-size="10.00">restoreActions</text>
</a>
</g>
</g>
<!-- Node42&#45;&gt;Node43 -->
<g id="edge59" class="edge"><title>Node42&#45;&gt;Node43</title>
<path fill="none" stroke="midnightblue" d="M178.004,-86C189.492,-86 201.972,-86 213.74,-86"/>
<polygon fill="midnightblue" stroke="midnightblue" points="213.857,-89.5001 223.857,-86 213.857,-82.5001 213.857,-89.5001"/>
</g>
<!-- Node43&#45;&gt;Node15 -->
<g id="edge61" class="edge"><title>Node43&#45;&gt;Node15</title>
<path fill="none" stroke="midnightblue" d="M304.443,-86C361.955,-86 472.199,-86 566,-86 566,-86 566,-86 725.5,-86 860.155,-86 942.101,-271.307 965.519,-332.588"/>
<polygon fill="midnightblue" stroke="midnightblue" points="962.334,-334.066 969.103,-342.217 968.895,-331.625 962.334,-334.066"/>
</g>
<!-- Node43&#45;&gt;Node41 -->
<g id="edge60" class="edge"><title>Node43&#45;&gt;Node41</title>
<path fill="none" stroke="midnightblue" d="M301.085,-95.589C319.63,-100.517 342.426,-106.575 362.199,-111.829"/>
<polygon fill="midnightblue" stroke="midnightblue" points="361.363,-115.228 371.927,-114.414 363.161,-108.463 361.363,-115.228"/>
</g>
</g>
</svg>
        <g id="navigator" transform="translate(0 0)" fill="#404254">
                <rect fill="#f2f5e9" fill-opacity="0.5" stroke="#606060" stroke-width=".5" x="0" y="0" width="60" height="60"/>
                <use id="zoomplus" xlink:href="#zoomPlus" x="17" y="9" onmousedown="handleZoom(evt,'in')"/>
                <use id="zoomminus" xlink:href="#zoomMin" x="42" y="9" onmousedown="handleZoom(evt,'out')"/>
                <use id="reset" xlink:href="#resetDef" x="30" y="36" onmousedown="handleReset()"/>
                <g id="arrowUp" xlink:href="#dirArrow" transform="translate(30 24)" onmousedown="handlePan(0,-1)">
                  <use xlink:href="#rim" fill="#404040">
                        <set attributeName="fill" to="#808080" begin="arrowUp.mouseover" end="arrowUp.mouseout"/>
                  </use>
                  <path fill="none" stroke="white" stroke-width="1.5" d="M0,-3.0v7 M-2.5,-0.5L0,-3.0L2.5,-0.5"/>
                </g>
                <g id="arrowRight" xlink:href="#dirArrow" transform="rotate(90) translate(36 -43)" onmousedown="handlePan(1,0)">
                  <use xlink:href="#rim" fill="#404040">
                        <set attributeName="fill" to="#808080" begin="arrowRight.mouseover" end="arrowRight.mouseout"/>
                  </use>
                  <path fill="none" stroke="white" stroke-width="1.5" d="M0,-3.0v7 M-2.5,-0.5L0,-3.0L2.5,-0.5"/>
                </g>
                <g id="arrowDown" xlink:href="#dirArrow" transform="rotate(180) translate(-30 -48)" onmousedown="handlePan(0,1)">
                  <use xlink:href="#rim" fill="#404040">
                        <set attributeName="fill" to="#808080" begin="arrowDown.mouseover" end="arrowDown.mouseout"/>
                  </use>
                  <path fill="none" stroke="white" stroke-width="1.5" d="M0,-3.0v7 M-2.5,-0.5L0,-3.0L2.5,-0.5"/>
                </g>
                <g id="arrowLeft" xlink:href="#dirArrow" transform="rotate(270) translate(-36 17)" onmousedown="handlePan(-1,0)">
                  <use xlink:href="#rim" fill="#404040">
                        <set attributeName="fill" to="#808080" begin="arrowLeft.mouseover" end="arrowLeft.mouseout"/>
                  </use>
                  <path fill="none" stroke="white" stroke-width="1.5" d="M0,-3.0v7 M-2.5,-0.5L0,-3.0L2.5,-0.5"/>
                </g>
        </g>
        <svg viewBox="0 0 15 15" width="100%" height="30px" preserveAspectRatio="xMaxYMin meet">
         <g id="arrow_out" transform="scale(0.3 0.3)">
          <a xlink:href="pda_8cpp_a1dc125d402fe76077cb4d166ac0fbf7a_cgraph_org.svg" target="_base">
           <rect id="button" ry="5" rx="5" y="6" x="6" height="38" width="38"
                fill="#f2f5e9" fill-opacity="0.5" stroke="#606060" stroke-width="1.0"/>
           <path id="arrow"
             d="M 11.500037,31.436501 C 11.940474,20.09759 22.043105,11.32322 32.158766,21.979434 L 37.068811,17.246167 C 37.068811,17.246167 37.088388,32 37.088388,32 L 22.160133,31.978069 C 22.160133,31.978069 26.997745,27.140456 26.997745,27.140456 C 18.528582,18.264221 13.291696,25.230495 11.500037,31.436501 z"
             style="fill:#404040;"/>
          </a>
         </g>
        </svg>
</svg>
