<?xml version="1.0" encoding="UTF-8" standalone="no"?>
<!DOCTYPE svg PUBLIC "-//W3C//DTD SVG 1.1//EN"
 "http://www.w3.org/Graphics/SVG/1.1/DTD/svg11.dtd">
<!-- Generated by graphviz version 2.38.0 (20140413.2041)
 -->
<!-- Title: playSoundEffect Pages: 1 -->
<!--zoomable 930 -->
<svg id="main" version="1.1" xmlns="http://www.w3.org/2000/svg" xmlns:xlink="http://www.w3.org/1999/xlink" xml:space="preserve" onload="init(evt)">
<style type="text/css"><![CDATA[
.edge:hover path { stroke: red; }
.edge:hover polygon { stroke: red; fill: red; }
]]></style>
<script type="text/javascript"><![CDATA[
var edges = document.getElementsByTagName('g');
if (edges && edges.length) {
  for (var i=0;i<edges.length;i++) {
    if (edges[i].id.substr(0,4)=='edge') {
      edges[i].setAttribute('class','edge');
    }
  }
}
]]></script>
        <defs>
                <circle id="rim" cx="0" cy="0" r="7"/>
                <circle id="rim2" cx="0" cy="0" r="3.5"/>
                <g id="zoomPlus">
                        <use xlink:href="#rim" fill="#404040">
                                <set attributeName="fill" to="#808080" begin="zoomplus.mouseover" end="zoomplus.mouseout"/>
                        </use>
                        <path d="M-4,0h8M0,-4v8" fill="none" stroke="white" stroke-width="1.5" pointer-events="none"/>
                </g>
                <g id="zoomMin">
                        <use xlink:href="#rim" fill="#404040">
                                <set attributeName="fill" to="#808080" begin="zoomminus.mouseover" end="zoomminus.mouseout"/>
                        </use>
                        <path d="M-4,0h8" fill="none" stroke="white" stroke-width="1.5" pointer-events="none"/>
                </g>
                <g id="dirArrow">
                        <path fill="none" stroke="white" stroke-width="1.5" d="M0,-3.0v7 M-2.5,-0.5L0,-3.0L2.5,-0.5"/>
                </g>
               <g id="resetDef">
                       <use xlink:href="#rim2" fill="#404040">
                               <set attributeName="fill" to="#808080" begin="reset.mouseover" end="reset.mouseout"/>
                       </use>
               </g>
        </defs>

<script type="text/javascript">
var viewWidth = 1467;
var viewHeight = 930;
var sectionId = 'dynsection-15';
</script>
<script xlink:href="svgpan.js"/>
<svg id="graph" class="graph">
<g id="viewport">
<title>playSoundEffect</title>
<polygon fill="white" stroke="none" points="-4,4 -4,-926 1463,-926 1463,4 -4,4"/>
<!-- Node1 -->
<g id="node1" class="node"><title>Node1</title>
<polygon fill="#bfbfbf" stroke="black" points="0,-228.5 0,-247.5 89,-247.5 89,-228.5 0,-228.5"/>
<text text-anchor="middle" x="44.5" y="-235.5" font-family="Helvetica,sans-Serif" font-size="10.00">playSoundEffect</text>
</g>
<!-- Node2 -->
<g id="node2" class="node"><title>Node2</title>
<g id="a_node2"><a xlink:href="teensy3__morse__bsp_8cpp.html#a2d6b4ace33ed5e497dedd03217540c63" target="_top" xlink:title="Set the PWM frequency for the audio output pins. ">
<polygon fill="white" stroke="black" points="1229,-304.5 1229,-323.5 1312,-323.5 1312,-304.5 1229,-304.5"/>
<text text-anchor="middle" x="1270.5" y="-311.5" font-family="Helvetica,sans-Serif" font-size="10.00">pwmFrequency</text>
</a>
</g>
</g>
<!-- Node1&#45;&gt;Node2 -->
<g id="edge1" class="edge"><title>Node1&#45;&gt;Node2</title>
<path fill="none" stroke="midnightblue" d="M55.2652,-247.682C69.3267,-260.948 96.7115,-284.341 125,-295 205.243,-325.234 231.25,-314 317,-314 317,-314 317,-314 1014,-314 1084.96,-314 1167.01,-314 1218.58,-314"/>
<polygon fill="midnightblue" stroke="midnightblue" points="1218.79,-317.5 1228.79,-314 1218.79,-310.5 1218.79,-317.5"/>
</g>
<!-- Node3 -->
<g id="node3" class="node"><title>Node3</title>
<g id="a_node3"><a xlink:href="teensy3__morse__bsp_8cpp.html#a82911eac3bf13d6f36d10102a4c4d3c4" target="_top" xlink:title="Generate a tone on the audio output pins. ">
<polygon fill="white" stroke="black" points="1240,-209.5 1240,-228.5 1301,-228.5 1301,-209.5 1240,-209.5"/>
<text text-anchor="middle" x="1270.5" y="-216.5" font-family="Helvetica,sans-Serif" font-size="10.00">pwmWrite</text>
</a>
</g>
</g>
<!-- Node1&#45;&gt;Node3 -->
<g id="edge2" class="edge"><title>Node1&#45;&gt;Node3</title>
<path fill="none" stroke="midnightblue" d="M51.8252,-228.363C63.816,-210.956 91.6613,-174.462 125,-157 201.701,-116.827 230.415,-124 317,-124 317,-124 317,-124 569,-124 822.877,-124 1123.85,-186.03 1230.04,-209.843"/>
<polygon fill="midnightblue" stroke="midnightblue" points="1229.47,-213.302 1239.99,-212.091 1231.01,-206.474 1229.47,-213.302"/>
</g>
<!-- Node5 -->
<g id="node5" class="node"><title>Node5</title>
<g id="a_node5"><a xlink:href="teensy3__morse__bsp_8cpp.html#a36cda3a6dd77f2141cfc703c55a47ff8" target="_top" xlink:title="getDuty">
<polygon fill="white" stroke="black" points="292.5,-190.5 292.5,-209.5 343.5,-209.5 343.5,-190.5 292.5,-190.5"/>
<text text-anchor="middle" x="318" y="-197.5" font-family="Helvetica,sans-Serif" font-size="10.00">getDuty</text>
</a>
</g>
</g>
<!-- Node1&#45;&gt;Node5 -->
<g id="edge4" class="edge"><title>Node1&#45;&gt;Node5</title>
<path fill="none" stroke="midnightblue" d="M89.0538,-234.841C126.345,-231.814 181.398,-226.58 229,-219 246.727,-216.177 266.258,-212.063 282.409,-208.385"/>
<polygon fill="midnightblue" stroke="midnightblue" points="283.53,-211.718 292.48,-206.048 281.948,-204.899 283.53,-211.718"/>
</g>
<!-- Node6 -->
<g id="node6" class="node"><title>Node6</title>
<g id="a_node6"><a xlink:href="settings_8cpp.html#a960551e90dfdad18f3c9b1338ccba7db" target="_top" xlink:title="Get the dit duration in microseconds. ">
<polygon fill="white" stroke="black" points="1096.5,-722.5 1096.5,-741.5 1168.5,-741.5 1168.5,-722.5 1096.5,-722.5"/>
<text text-anchor="middle" x="1132.5" y="-729.5" font-family="Helvetica,sans-Serif" font-size="10.00">getDitMicros</text>
</a>
</g>
</g>
<!-- Node1&#45;&gt;Node6 -->
<g id="edge5" class="edge"><title>Node1&#45;&gt;Node6</title>
<path fill="none" stroke="midnightblue" d="M47.0831,-247.669C60.9571,-330.806 164.962,-922 317,-922 317,-922 317,-922 884.5,-922 996.357,-922 1088.65,-798.066 1120.01,-750.387"/>
<polygon fill="midnightblue" stroke="midnightblue" points="1123.15,-751.986 1125.62,-741.683 1117.26,-748.198 1123.15,-751.986"/>
</g>
<!-- Node7 -->
<g id="node7" class="node"><title>Node7</title>
<g id="a_node7"><a xlink:href="stack_8cpp.html#aafac4a86d14d59c34565bc295024e511" target="_top" xlink:title="symbolStackSize">
<polygon fill="white" stroke="black" points="271.5,-57.5 271.5,-76.5 364.5,-76.5 364.5,-57.5 271.5,-57.5"/>
<text text-anchor="middle" x="318" y="-64.5" font-family="Helvetica,sans-Serif" font-size="10.00">symbolStackSize</text>
</a>
</g>
</g>
<!-- Node1&#45;&gt;Node7 -->
<g id="edge6" class="edge"><title>Node1&#45;&gt;Node7</title>
<path fill="none" stroke="midnightblue" d="M46.4993,-228.321C50.2137,-197.977 66.2083,-104.502 125,-67 170.304,-38.1017 234.687,-45.599 276.155,-55.1134"/>
<polygon fill="midnightblue" stroke="midnightblue" points="275.378,-58.5263 285.922,-57.4887 277.032,-51.7246 275.378,-58.5263"/>
</g>
<!-- Node9 -->
<g id="node9" class="node"><title>Node9</title>
<g id="a_node9"><a xlink:href="stack_8cpp.html#abefdfbf9131b5ea5926f9ecbecb6b1e6" target="_top" xlink:title="Access the stack using an index where 0 is the top of the stack. ">
<polygon fill="white" stroke="black" points="162.5,-76.5 162.5,-95.5 191.5,-95.5 191.5,-76.5 162.5,-76.5"/>
<text text-anchor="middle" x="177" y="-83.5" font-family="Helvetica,sans-Serif" font-size="10.00">s</text>
</a>
</g>
</g>
<!-- Node1&#45;&gt;Node9 -->
<g id="edge8" class="edge"><title>Node1&#45;&gt;Node9</title>
<path fill="none" stroke="midnightblue" d="M49.2116,-228.353C58.5876,-205.107 85.3373,-145.311 125,-110 132.944,-102.928 143.335,-97.5347 152.664,-93.6697"/>
<polygon fill="midnightblue" stroke="midnightblue" points="154.084,-96.8748 162.203,-90.0685 151.612,-90.3259 154.084,-96.8748"/>
</g>
<!-- Node10 -->
<g id="node10" class="node"><title>Node10</title>
<g id="a_node10"><a xlink:href="morse__token_8cpp.html#a9ec0688da83c93d634e79b2d7ad7ad64" target="_top" xlink:title="Convert Morse 0&#45;9 to the corresponding digit. ">
<polygon fill="white" stroke="black" points="161,-361.5 161,-380.5 193,-380.5 193,-361.5 161,-361.5"/>
<text text-anchor="middle" x="177" y="-368.5" font-family="Helvetica,sans-Serif" font-size="10.00">m2i</text>
</a>
</g>
</g>
<!-- Node1&#45;&gt;Node10 -->
<g id="edge10" class="edge"><title>Node1&#45;&gt;Node10</title>
<path fill="none" stroke="midnightblue" d="M53.1952,-247.608C66.9168,-264.53 96.8191,-300.461 125,-328 134.61,-337.391 145.984,-347.101 155.549,-354.913"/>
<polygon fill="midnightblue" stroke="midnightblue" points="153.416,-357.689 163.4,-361.233 157.805,-352.236 153.416,-357.689"/>
</g>
<!-- Node15 -->
<g id="node15" class="node"><title>Node15</title>
<g id="a_node15"><a xlink:href="libmorse_8cpp.html#ab94e088615119d1faae7df22ce50aedf" target="_top" xlink:title="Transmit a Morse code prosign indicating an error. ">
<polygon fill="white" stroke="black" points="295,-418.5 295,-437.5 341,-437.5 341,-418.5 295,-418.5"/>
<text text-anchor="middle" x="318" y="-425.5" font-family="Helvetica,sans-Serif" font-size="10.00">txError</text>
</a>
</g>
</g>
<!-- Node1&#45;&gt;Node15 -->
<g id="edge61" class="edge"><title>Node1&#45;&gt;Node15</title>
<path fill="none" stroke="midnightblue" d="M47.5149,-247.72C53.7099,-275.001 75.1566,-352.723 125,-390 172.311,-425.383 243.921,-430.233 285,-429.702"/>
<polygon fill="midnightblue" stroke="midnightblue" points="285.087,-433.201 294.998,-429.458 284.916,-426.203 285.087,-433.201"/>
</g>
<!-- Node16 -->
<g id="node16" class="node"><title>Node16</title>
<g id="a_node16"><a xlink:href="libmorse_8cpp.html#a0ee2308940264ea9ac8e50afc1a4d285" target="_top" xlink:title="txString">
<polygon fill="white" stroke="black" points="415,-665.5 415,-684.5 465,-684.5 465,-665.5 415,-665.5"/>
<text text-anchor="middle" x="440" y="-672.5" font-family="Helvetica,sans-Serif" font-size="10.00">txString</text>
</a>
</g>
</g>
<!-- Node1&#45;&gt;Node16 -->
<g id="edge60" class="edge"><title>Node1&#45;&gt;Node16</title>
<path fill="none" stroke="midnightblue" d="M47.8856,-247.64C55.3665,-276.456 80.5521,-363.557 125,-422 209.905,-533.639 354.231,-625.495 412.971,-660.156"/>
<polygon fill="midnightblue" stroke="midnightblue" points="411.56,-663.385 421.96,-665.407 415.09,-657.341 411.56,-663.385"/>
</g>
<!-- Node36 -->
<g id="node36" class="node"><title>Node36</title>
<g id="a_node36"><a xlink:href="settings_8cpp.html#ad02597259b5753e0c98605bce44a9fc8" target="_top" xlink:title="Get the default dit duration in microseconds. ">
<polygon fill="white" stroke="black" points="125,-0.5 125,-19.5 229,-19.5 229,-0.5 125,-0.5"/>
<text text-anchor="middle" x="177" y="-7.5" font-family="Helvetica,sans-Serif" font-size="10.00">getDitMicrosDefault</text>
</a>
</g>
</g>
<!-- Node1&#45;&gt;Node36 -->
<g id="edge51" class="edge"><title>Node1&#45;&gt;Node36</title>
<path fill="none" stroke="midnightblue" d="M46.734,-228.129C51.2276,-196.06 69.4771,-93.4473 125,-34 128.5,-30.2522 132.705,-27.033 137.179,-24.2832"/>
<polygon fill="midnightblue" stroke="midnightblue" points="138.837,-27.3654 145.999,-19.5579 135.531,-21.1951 138.837,-27.3654"/>
</g>
<!-- Node37 -->
<g id="node37" class="node"><title>Node37</title>
<g id="a_node37"><a xlink:href="teensy3__morse__bsp_8cpp.html#ad27c6a4654c91038ad6d6dbf03b00ddb" target="_top" xlink:title="Perform digital writes to all the output pins. ">
<polygon fill="white" stroke="black" points="295.5,-152.5 295.5,-171.5 340.5,-171.5 340.5,-152.5 295.5,-152.5"/>
<text text-anchor="middle" x="318" y="-159.5" font-family="Helvetica,sans-Serif" font-size="10.00">dWrite</text>
</a>
</g>
</g>
<!-- Node1&#45;&gt;Node37 -->
<g id="edge52" class="edge"><title>Node1&#45;&gt;Node37</title>
<path fill="none" stroke="midnightblue" d="M55.2652,-228.318C69.3267,-215.052 96.7115,-191.659 125,-181 178.578,-160.813 246.205,-159.113 285.234,-160.212"/>
<polygon fill="midnightblue" stroke="midnightblue" points="285.328,-163.718 295.449,-160.584 285.583,-156.722 285.328,-163.718"/>
</g>
<!-- Node38 -->
<g id="node38" class="node"><title>Node38</title>
<g id="a_node38"><a xlink:href="sound_8cpp.html#aacbb0b497e350fa72c032bd39322328d" target="_top" xlink:title="Shuffling cash like a bill counter. ">
<polygon fill="white" stroke="black" points="138.5,-190.5 138.5,-209.5 215.5,-209.5 215.5,-190.5 138.5,-190.5"/>
<text text-anchor="middle" x="177" y="-197.5" font-family="Helvetica,sans-Serif" font-size="10.00">shufflingCash</text>
</a>
</g>
</g>
<!-- Node1&#45;&gt;Node38 -->
<g id="edge54" class="edge"><title>Node1&#45;&gt;Node38</title>
<path fill="none" stroke="midnightblue" d="M78.4307,-228.411C95.1224,-223.551 115.589,-217.591 133.46,-212.387"/>
<polygon fill="midnightblue" stroke="midnightblue" points="134.457,-215.742 143.08,-209.586 132.5,-209.021 134.457,-215.742"/>
</g>
<!-- Node39 -->
<g id="node39" class="node"><title>Node39</title>
<g id="a_node39"><a xlink:href="sound_8cpp.html#a77ffd11f8a990ba2130061186e49535a" target="_top" xlink:title="Play a PWM tone at a given frequency and duration. ">
<polygon fill="white" stroke="black" points="149,-266.5 149,-285.5 205,-285.5 205,-266.5 149,-266.5"/>
<text text-anchor="middle" x="177" y="-273.5" font-family="Helvetica,sans-Serif" font-size="10.00">playTone</text>
</a>
</g>
</g>
<!-- Node1&#45;&gt;Node39 -->
<g id="edge56" class="edge"><title>Node1&#45;&gt;Node39</title>
<path fill="none" stroke="midnightblue" d="M78.4307,-247.589C96.8638,-252.957 119.901,-259.665 138.96,-265.215"/>
<polygon fill="midnightblue" stroke="midnightblue" points="138.222,-268.645 148.802,-268.08 140.179,-261.924 138.222,-268.645"/>
</g>
<!-- Node4 -->
<g id="node4" class="node"><title>Node4</title>
<g id="a_node4"><a xlink:href="teensy3__morse__bsp_8cpp.html#ac70998cee1bf97f00aec4a1b4e5a4f60" target="_top" xlink:title="isEarphonePresent">
<polygon fill="white" stroke="black" points="1360,-180.5 1360,-199.5 1459,-199.5 1459,-180.5 1360,-180.5"/>
<text text-anchor="middle" x="1409.5" y="-187.5" font-family="Helvetica,sans-Serif" font-size="10.00">isEarphonePresent</text>
</a>
</g>
</g>
<!-- Node3&#45;&gt;Node4 -->
<g id="edge3" class="edge"><title>Node3&#45;&gt;Node4</title>
<path fill="none" stroke="midnightblue" d="M1301.23,-212.707C1316.42,-209.491 1335.42,-205.47 1353.18,-201.71"/>
<polygon fill="midnightblue" stroke="midnightblue" points="1354.4,-205.029 1363.46,-199.534 1352.95,-198.181 1354.4,-205.029"/>
</g>
<!-- Node8 -->
<g id="node8" class="node"><title>Node8</title>
<g id="a_node8"><a xlink:href="class_stack.html#afc30a7ee287e14f08802c2d43613f2b4" target="_top" xlink:title="Return the number of elements currently in the stack. ">
<polygon fill="white" stroke="black" points="407,-57.5 407,-76.5 473,-76.5 473,-57.5 407,-57.5"/>
<text text-anchor="middle" x="440" y="-64.5" font-family="Helvetica,sans-Serif" font-size="10.00">Stack::size</text>
</a>
</g>
</g>
<!-- Node7&#45;&gt;Node8 -->
<g id="edge7" class="edge"><title>Node7&#45;&gt;Node8</title>
<path fill="none" stroke="midnightblue" d="M364.709,-67C375.24,-67 386.395,-67 396.771,-67"/>
<polygon fill="midnightblue" stroke="midnightblue" points="396.835,-70.5001 406.835,-67 396.835,-63.5001 396.835,-70.5001"/>
</g>
<!-- Node9&#45;&gt;Node7 -->
<g id="edge9" class="edge"><title>Node9&#45;&gt;Node7</title>
<path fill="none" stroke="midnightblue" d="M191.581,-84.1436C207.804,-81.9261 235.959,-78.0776 261.488,-74.588"/>
<polygon fill="midnightblue" stroke="midnightblue" points="262.047,-78.0442 271.481,-73.222 261.099,-71.1087 262.047,-78.0442"/>
</g>
<!-- Node11 -->
<g id="node11" class="node"><title>Node11</title>
<g id="a_node11"><a xlink:href="class_morse_token.html#a8c36a957ebc90172eae960757c72d3a4" target="_top" xlink:title="Convert to a single ASCII character. ">
<polygon fill="white" stroke="black" points="265,-361.5 265,-380.5 371,-380.5 371,-361.5 265,-361.5"/>
<text text-anchor="middle" x="318" y="-368.5" font-family="Helvetica,sans-Serif" font-size="10.00">MorseToken::toChar</text>
</a>
</g>
</g>
<!-- Node10&#45;&gt;Node11 -->
<g id="edge11" class="edge"><title>Node10&#45;&gt;Node11</title>
<path fill="none" stroke="midnightblue" d="M193.14,-371C208.095,-371 231.979,-371 254.801,-371"/>
<polygon fill="midnightblue" stroke="midnightblue" points="254.831,-374.5 264.831,-371 254.831,-367.5 254.831,-374.5"/>
</g>
<!-- Node10&#45;&gt;Node15 -->
<g id="edge15" class="edge"><title>Node10&#45;&gt;Node15</title>
<path fill="none" stroke="midnightblue" d="M193.14,-377.209C215.139,-386.23 256.458,-403.174 285.298,-415"/>
<polygon fill="midnightblue" stroke="midnightblue" points="283.974,-418.24 294.554,-418.795 286.629,-411.763 283.974,-418.24"/>
</g>
<!-- Node12 -->
<g id="node12" class="node"><title>Node12</title>
<g id="a_node12"><a xlink:href="morse__token_8h.html#a98f44690e97cbd7ea9445ca0a560a564" target="_top" xlink:title="Convert a Morse code into ASCII. ">
<polygon fill="white" stroke="black" points="422.5,-361.5 422.5,-380.5 457.5,-380.5 457.5,-361.5 422.5,-361.5"/>
<text text-anchor="middle" x="440" y="-368.5" font-family="Helvetica,sans-Serif" font-size="10.00">m2a</text>
</a>
</g>
</g>
<!-- Node11&#45;&gt;Node12 -->
<g id="edge12" class="edge"><title>Node11&#45;&gt;Node12</title>
<path fill="none" stroke="midnightblue" d="M371.285,-371C385.405,-371 400.104,-371 412.185,-371"/>
<polygon fill="midnightblue" stroke="midnightblue" points="412.452,-374.5 422.452,-371 412.452,-367.5 412.452,-374.5"/>
</g>
<!-- Node13 -->
<g id="node13" class="node"><title>Node13</title>
<g id="a_node13"><a xlink:href="class_morse_token.html#a48cd72aeb868391449d1f51c1d0bf5cc" target="_top" xlink:title="Treat code == 0 as the error token. ">
<polygon fill="white" stroke="black" points="1084,-380.5 1084,-399.5 1181,-399.5 1181,-380.5 1084,-380.5"/>
<text text-anchor="middle" x="1132.5" y="-387.5" font-family="Helvetica,sans-Serif" font-size="10.00">MorseToken::valid</text>
</a>
</g>
</g>
<!-- Node12&#45;&gt;Node13 -->
<g id="edge13" class="edge"><title>Node12&#45;&gt;Node13</title>
<path fill="none" stroke="midnightblue" d="M457.62,-372.891C501.34,-377.697 623.204,-390 725,-390 725,-390 725,-390 884.5,-390 949.155,-390 1023.33,-390 1073.38,-390"/>
<polygon fill="midnightblue" stroke="midnightblue" points="1073.69,-393.5 1083.69,-390 1073.69,-386.5 1073.69,-393.5"/>
</g>
<!-- Node14 -->
<g id="node14" class="node"><title>Node14</title>
<g id="a_node14"><a xlink:href="class_morse_token.html#adc74054417a8636c1d34d43c34628731" target="_top" xlink:title="Treat code == 1 as a space. ">
<polygon fill="white" stroke="black" points="516.5,-342.5 516.5,-361.5 619.5,-361.5 619.5,-342.5 516.5,-342.5"/>
<text text-anchor="middle" x="568" y="-349.5" font-family="Helvetica,sans-Serif" font-size="10.00">MorseToken::pause</text>
</a>
</g>
</g>
<!-- Node12&#45;&gt;Node14 -->
<g id="edge14" class="edge"><title>Node12&#45;&gt;Node14</title>
<path fill="none" stroke="midnightblue" d="M457.732,-368.477C470.384,-366.569 488.585,-363.825 506.513,-361.121"/>
<polygon fill="midnightblue" stroke="midnightblue" points="507.043,-364.581 516.409,-359.629 505.999,-357.659 507.043,-364.581"/>
</g>
<!-- Node15&#45;&gt;Node16 -->
<g id="edge16" class="edge"><title>Node15&#45;&gt;Node16</title>
<path fill="none" stroke="midnightblue" d="M323.704,-437.683C341.626,-474.571 405.825,-606.715 429.844,-656.154"/>
<polygon fill="midnightblue" stroke="midnightblue" points="426.81,-657.919 434.328,-665.384 433.107,-654.86 426.81,-657.919"/>
</g>
<!-- Node16&#45;&gt;Node6 -->
<g id="edge19" class="edge"><title>Node16&#45;&gt;Node6</title>
<path fill="none" stroke="midnightblue" d="M465.361,-683.288C514.067,-699.097 627.188,-732 725,-732 725,-732 725,-732 884.5,-732 954.96,-732 1036.73,-732 1086.26,-732"/>
<polygon fill="midnightblue" stroke="midnightblue" points="1086.32,-735.5 1096.32,-732 1086.32,-728.5 1086.32,-735.5"/>
</g>
<!-- Node17 -->
<g id="node17" class="node"><title>Node17</title>
<g id="a_node17"><a xlink:href="teensy3__morse__bsp_8cpp.html#ab306f692c5c9455a0c82782a67ff0147" target="_top" xlink:title="touchPoll">
<polygon fill="white" stroke="black" points="855,-798.5 855,-817.5 912,-817.5 912,-798.5 855,-798.5"/>
<text text-anchor="middle" x="883.5" y="-805.5" font-family="Helvetica,sans-Serif" font-size="10.00">touchPoll</text>
</a>
</g>
</g>
<!-- Node16&#45;&gt;Node17 -->
<g id="edge17" class="edge"><title>Node16&#45;&gt;Node17</title>
<path fill="none" stroke="midnightblue" d="M442.308,-684.746C446.447,-711.316 461.901,-785.155 509,-817 612.158,-886.747 665.101,-839.461 789,-827 807.562,-825.133 827.888,-821.231 844.834,-817.447"/>
<polygon fill="midnightblue" stroke="midnightblue" points="845.945,-820.782 854.902,-815.124 844.371,-813.962 845.945,-820.782"/>
</g>
<!-- Node19 -->
<g id="node19" class="node"><title>Node19</title>
<g id="a_node19"><a xlink:href="libmorse_8cpp.html#a9fdfce728595d72b78dc7c834ab99a40" target="_top" xlink:title="Transmit a literal Morse code value. ">
<polygon fill="white" stroke="black" points="987.5,-456.5 987.5,-475.5 1038.5,-475.5 1038.5,-456.5 987.5,-456.5"/>
<text text-anchor="middle" x="1013" y="-463.5" font-family="Helvetica,sans-Serif" font-size="10.00">txLiteral</text>
</a>
</g>
</g>
<!-- Node16&#45;&gt;Node19 -->
<g id="edge20" class="edge"><title>Node16&#45;&gt;Node19</title>
<path fill="none" stroke="midnightblue" d="M443.609,-665.338C450.255,-642.773 470.111,-586.586 509,-561 590.078,-507.657 849.696,-533.987 942,-504 958.776,-498.55 976.214,-489.096 989.489,-480.982"/>
<polygon fill="midnightblue" stroke="midnightblue" points="991.363,-483.938 997.955,-475.644 987.629,-478.017 991.363,-483.938"/>
</g>
<!-- Node24 -->
<g id="node24" class="node"><title>Node24</title>
<g id="a_node24"><a xlink:href="libmorse_8cpp.html#acd4b292f5e412ee4f05aed9dafbc072d" target="_top" xlink:title="Convert an ASCII character into Morse code and transmit it. ">
<polygon fill="white" stroke="black" points="858.5,-475.5 858.5,-494.5 908.5,-494.5 908.5,-475.5 858.5,-475.5"/>
<text text-anchor="middle" x="883.5" y="-482.5" font-family="Helvetica,sans-Serif" font-size="10.00">txLetter</text>
</a>
</g>
</g>
<!-- Node16&#45;&gt;Node24 -->
<g id="edge30" class="edge"><title>Node16&#45;&gt;Node24</title>
<path fill="none" stroke="midnightblue" d="M442.219,-665.437C446.19,-638.623 461.378,-562.437 509,-528 562.72,-489.154 766.346,-484.882 848.162,-484.774"/>
<polygon fill="midnightblue" stroke="midnightblue" points="848.418,-488.274 858.421,-484.782 848.424,-481.274 848.418,-488.274"/>
</g>
<!-- Node25 -->
<g id="node25" class="node"><title>Node25</title>
<g id="a_node25"><a xlink:href="teensy3__morse__bsp_8cpp.html#a8761e874366e227690fba2964e1bc445" target="_top" xlink:title="getInternalTemperatureC">
<polygon fill="white" stroke="black" points="663.5,-665.5 663.5,-684.5 788.5,-684.5 788.5,-665.5 663.5,-665.5"/>
<text text-anchor="middle" x="726" y="-672.5" font-family="Helvetica,sans-Serif" font-size="10.00">getInternalTemperatureC</text>
</a>
</g>
</g>
<!-- Node16&#45;&gt;Node25 -->
<g id="edge33" class="edge"><title>Node16&#45;&gt;Node25</title>
<path fill="none" stroke="midnightblue" d="M465.214,-675C506.383,-675 591.544,-675 653.163,-675"/>
<polygon fill="midnightblue" stroke="midnightblue" points="653.223,-678.5 663.223,-675 653.223,-671.5 653.223,-678.5"/>
</g>
<!-- Node26 -->
<g id="node26" class="node"><title>Node26</title>
<g id="a_node26"><a xlink:href="libmorse_8cpp.html#a47abdd74b66d7180c47d192bab8bdccb" target="_top" xlink:title="Transmit an unsigned integer in Morse code. ">
<polygon fill="white" stroke="black" points="693,-608.5 693,-627.5 759,-627.5 759,-608.5 693,-608.5"/>
<text text-anchor="middle" x="726" y="-615.5" font-family="Helvetica,sans-Serif" font-size="10.00">txUnsigned</text>
</a>
</g>
</g>
<!-- Node16&#45;&gt;Node26 -->
<g id="edge34" class="edge"><title>Node16&#45;&gt;Node26</title>
<path fill="none" stroke="midnightblue" d="M454.038,-665.493C467.195,-656.454 488.449,-643.327 509,-637 567.289,-619.054 638.311,-616.213 682.604,-616.546"/>
<polygon fill="midnightblue" stroke="midnightblue" points="682.675,-620.047 692.721,-616.681 682.769,-613.048 682.675,-620.047"/>
</g>
<!-- Node27 -->
<g id="node27" class="node"><title>Node27</title>
<g id="a_node27"><a xlink:href="actions_8cpp.html#aed718ec1bd4cc7adb2f65d40a6784496" target="_top" xlink:title="Transmit the internal temperature in integer in Fahrenheit. ">
<polygon fill="white" stroke="black" points="509,-646.5 509,-665.5 627,-665.5 627,-646.5 509,-646.5"/>
<text text-anchor="middle" x="568" y="-653.5" font-family="Helvetica,sans-Serif" font-size="10.00">txInternalTemperatureF</text>
</a>
</g>
</g>
<!-- Node16&#45;&gt;Node27 -->
<g id="edge37" class="edge"><title>Node16&#45;&gt;Node27</title>
<path fill="none" stroke="midnightblue" d="M465.294,-671.337C475.015,-669.871 486.744,-668.102 498.729,-666.295"/>
<polygon fill="midnightblue" stroke="midnightblue" points="499.451,-669.726 508.818,-664.774 498.408,-662.804 499.451,-669.726"/>
</g>
<!-- Node28 -->
<g id="node28" class="node"><title>Node28</title>
<g id="a_node28"><a xlink:href="actions_8cpp.html#aaabb3ac0c23f35a499bc17efe829f326" target="_top" xlink:title="Transmit the 24&#45;hr time. ">
<polygon fill="white" stroke="black" points="529,-760.5 529,-779.5 607,-779.5 607,-760.5 529,-760.5"/>
<text text-anchor="middle" x="568" y="-767.5" font-family="Helvetica,sans-Serif" font-size="10.00">txTimeHHMM</text>
</a>
</g>
</g>
<!-- Node16&#45;&gt;Node28 -->
<g id="edge40" class="edge"><title>Node16&#45;&gt;Node28</title>
<path fill="none" stroke="midnightblue" d="M453.478,-684.673C466.053,-698.302 486.738,-721.781 509,-737 520.55,-744.896 535.104,-750.909 546.743,-756.076"/>
<polygon fill="midnightblue" stroke="midnightblue" points="545.53,-759.372 556.072,-760.426 548.488,-753.028 545.53,-759.372"/>
</g>
<!-- Node29 -->
<g id="node29" class="node"><title>Node29</title>
<g id="a_node29"><a xlink:href="actions_8cpp.html#ad02149679fa3cc6a4957d1a318408ffd" target="_top" xlink:title="Transmit the uptime. ">
<polygon fill="white" stroke="black" points="540,-570.5 540,-589.5 596,-589.5 596,-570.5 540,-570.5"/>
<text text-anchor="middle" x="568" y="-577.5" font-family="Helvetica,sans-Serif" font-size="10.00">txUptime</text>
</a>
</g>
</g>
<!-- Node16&#45;&gt;Node29 -->
<g id="edge42" class="edge"><title>Node16&#45;&gt;Node29</title>
<path fill="none" stroke="midnightblue" d="M448.333,-665.027C459.805,-650.021 483.356,-621.531 509,-604 515.578,-599.503 523.131,-595.616 530.565,-592.359"/>
<polygon fill="midnightblue" stroke="midnightblue" points="531.902,-595.594 539.834,-588.571 529.254,-589.114 531.902,-595.594"/>
</g>
<!-- Node31 -->
<g id="node31" class="node"><title>Node31</title>
<g id="a_node31"><a xlink:href="teensy3__morse__bsp_8cpp.html#ae8dd28759e56dbd2ee9bc9ae96d1783c" target="_top" xlink:title="Return the most recent ADC measurement of the input voltage. Perform analog to digital conversion on ...">
<polygon fill="white" stroke="black" points="531,-874.5 531,-893.5 605,-893.5 605,-874.5 531,-874.5"/>
<text text-anchor="middle" x="568" y="-881.5" font-family="Helvetica,sans-Serif" font-size="10.00">readMillivolts</text>
</a>
</g>
</g>
<!-- Node16&#45;&gt;Node31 -->
<g id="edge45" class="edge"><title>Node16&#45;&gt;Node31</title>
<path fill="none" stroke="midnightblue" d="M441.882,-684.88C445.09,-715.145 458.742,-807.685 509,-860 512.68,-863.831 517.062,-867.073 521.745,-869.812"/>
<polygon fill="midnightblue" stroke="midnightblue" points="520.511,-873.109 531.016,-874.481 523.659,-866.857 520.511,-873.109"/>
</g>
<!-- Node35 -->
<g id="node35" class="node"><title>Node35</title>
<g id="a_node35"><a xlink:href="libmorse_8cpp.html#ac3f000c98271c6d0a7710135e18189bc" target="_top" xlink:title="On my hardware there is cross&#45;coupling between the serial port and the touch sensors. Without the code below, long messages to the serial port trigger a touch input. ">
<polygon fill="white" stroke="black" points="693.5,-798.5 693.5,-817.5 758.5,-817.5 758.5,-798.5 693.5,-798.5"/>
<text text-anchor="middle" x="726" y="-805.5" font-family="Helvetica,sans-Serif" font-size="10.00">flushTouch</text>
</a>
</g>
</g>
<!-- Node16&#45;&gt;Node35 -->
<g id="edge49" class="edge"><title>Node16&#45;&gt;Node35</title>
<path fill="none" stroke="midnightblue" d="M443.537,-684.775C450.026,-707.584 469.568,-764.259 509,-789 561.918,-822.202 636.995,-820.343 683.266,-814.926"/>
<polygon fill="midnightblue" stroke="midnightblue" points="683.772,-818.39 693.248,-813.65 682.884,-811.446 683.772,-818.39"/>
</g>
<!-- Node18 -->
<g id="node18" class="node"><title>Node18</title>
<g id="a_node18"><a xlink:href="teensy3__morse__bsp_8cpp.html#af6899cd9b83df54106b259ab81ea5cb2" target="_top" xlink:title="touchMargin">
<polygon fill="white" stroke="black" points="978,-798.5 978,-817.5 1048,-817.5 1048,-798.5 978,-798.5"/>
<text text-anchor="middle" x="1013" y="-805.5" font-family="Helvetica,sans-Serif" font-size="10.00">touchMargin</text>
</a>
</g>
</g>
<!-- Node17&#45;&gt;Node18 -->
<g id="edge18" class="edge"><title>Node17&#45;&gt;Node18</title>
<path fill="none" stroke="midnightblue" d="M912.166,-808C928.281,-808 948.984,-808 967.355,-808"/>
<polygon fill="midnightblue" stroke="midnightblue" points="967.562,-811.5 977.562,-808 967.562,-804.5 967.562,-811.5"/>
</g>
<!-- Node19&#45;&gt;Node6 -->
<g id="edge28" class="edge"><title>Node19&#45;&gt;Node6</title>
<path fill="none" stroke="midnightblue" d="M1018.32,-475.783C1035.6,-514.892 1099.88,-660.422 1123.08,-712.943"/>
<polygon fill="midnightblue" stroke="midnightblue" points="1120.02,-714.676 1127.26,-722.409 1126.42,-711.847 1120.02,-714.676"/>
</g>
<!-- Node19&#45;&gt;Node13 -->
<g id="edge21" class="edge"><title>Node19&#45;&gt;Node13</title>
<path fill="none" stroke="midnightblue" d="M1023.71,-456.459C1036.61,-444.193 1060.5,-422.832 1084,-409 1087.17,-407.133 1090.56,-405.373 1094.02,-403.734"/>
<polygon fill="midnightblue" stroke="midnightblue" points="1095.46,-406.921 1103.2,-399.687 1092.64,-400.515 1095.46,-406.921"/>
</g>
<!-- Node19&#45;&gt;Node15 -->
<g id="edge29" class="edge"><title>Node19&#45;&gt;Node15</title>
<path fill="none" stroke="midnightblue" d="M987.368,-460.474C938.163,-449.935 824.089,-428 727,-428 567,-428 567,-428 567,-428 489.708,-428 398.866,-428 351.485,-428"/>
<polygon fill="midnightblue" stroke="midnightblue" points="351.231,-424.5 341.231,-428 351.231,-431.5 351.231,-424.5"/>
</g>
<!-- Node20 -->
<g id="node20" class="node"><title>Node20</title>
<g id="a_node20"><a xlink:href="teensy3__morse__bsp_8cpp.html#af66e71e3fac9b6a2c6532bc8a513bfde" target="_top" xlink:title="Output a square wave on pin 10 at the given frequency for the given duration. ">
<polygon fill="white" stroke="black" points="1113.5,-456.5 1113.5,-475.5 1151.5,-475.5 1151.5,-456.5 1113.5,-456.5"/>
<text text-anchor="middle" x="1132.5" y="-463.5" font-family="Helvetica,sans-Serif" font-size="10.00">beep</text>
</a>
</g>
</g>
<!-- Node19&#45;&gt;Node20 -->
<g id="edge22" class="edge"><title>Node19&#45;&gt;Node20</title>
<path fill="none" stroke="midnightblue" d="M1038.63,-466C1057.48,-466 1083.51,-466 1103.21,-466"/>
<polygon fill="midnightblue" stroke="midnightblue" points="1103.42,-469.5 1113.42,-466 1103.42,-462.5 1103.42,-469.5"/>
</g>
<!-- Node23 -->
<g id="node23" class="node"><title>Node23</title>
<g id="a_node23"><a xlink:href="settings_8cpp.html#a8575b9b52638114a4f32d1462cf9b7c1" target="_top" xlink:title="Get the transmission frequency (side tone). ">
<polygon fill="white" stroke="black" points="1105.5,-418.5 1105.5,-437.5 1159.5,-437.5 1159.5,-418.5 1105.5,-418.5"/>
<text text-anchor="middle" x="1132.5" y="-425.5" font-family="Helvetica,sans-Serif" font-size="10.00">getTxHz</text>
</a>
</g>
</g>
<!-- Node19&#45;&gt;Node23 -->
<g id="edge27" class="edge"><title>Node19&#45;&gt;Node23</title>
<path fill="none" stroke="midnightblue" d="M1038.63,-458.034C1055.17,-452.684 1077.24,-445.548 1095.71,-439.574"/>
<polygon fill="midnightblue" stroke="midnightblue" points="1096.83,-442.891 1105.27,-436.483 1094.68,-436.23 1096.83,-442.891"/>
</g>
<!-- Node20&#45;&gt;Node2 -->
<g id="edge24" class="edge"><title>Node20&#45;&gt;Node2</title>
<path fill="none" stroke="midnightblue" d="M1151.54,-461.593C1161.04,-458.618 1172.45,-453.943 1181,-447 1220.12,-415.233 1248.29,-361.565 1261.35,-333.084"/>
<polygon fill="midnightblue" stroke="midnightblue" points="1264.6,-334.378 1265.47,-323.818 1258.2,-331.534 1264.6,-334.378"/>
</g>
<!-- Node20&#45;&gt;Node3 -->
<g id="edge25" class="edge"><title>Node20&#45;&gt;Node3</title>
<path fill="none" stroke="midnightblue" d="M1151.68,-462.958C1161.7,-460.361 1173.58,-455.611 1181,-447 1226.33,-394.416 1188.78,-358.432 1217,-295 1226.7,-273.198 1242.86,-251.065 1254.69,-236.351"/>
<polygon fill="midnightblue" stroke="midnightblue" points="1257.42,-238.546 1261.08,-228.603 1252.02,-234.093 1257.42,-238.546"/>
</g>
<!-- Node21 -->
<g id="node21" class="node"><title>Node21</title>
<g id="a_node21"><a xlink:href="teensy3__morse__bsp_8cpp.html#a6f674d5b9985ea3a7eeb0df299c2e405" target="_top" xlink:title="pollEarphonePresent">
<polygon fill="white" stroke="black" points="1217,-475.5 1217,-494.5 1324,-494.5 1324,-475.5 1217,-475.5"/>
<text text-anchor="middle" x="1270.5" y="-482.5" font-family="Helvetica,sans-Serif" font-size="10.00">pollEarphonePresent</text>
</a>
</g>
</g>
<!-- Node20&#45;&gt;Node21 -->
<g id="edge23" class="edge"><title>Node20&#45;&gt;Node21</title>
<path fill="none" stroke="midnightblue" d="M1151.56,-468.523C1165.78,-470.509 1186.48,-473.402 1206.59,-476.212"/>
<polygon fill="midnightblue" stroke="midnightblue" points="1206.31,-479.706 1216.7,-477.624 1207.28,-472.774 1206.31,-479.706"/>
</g>
<!-- Node22 -->
<g id="node22" class="node"><title>Node22</title>
<g id="a_node22"><a xlink:href="teensy3__morse__bsp_8cpp.html#a6c982a7d7805f1dd5426eb98c915cfdd" target="_top" xlink:title="Turn the red LED on (1) or off (0). ">
<polygon fill="white" stroke="black" points="1245.5,-437.5 1245.5,-456.5 1295.5,-456.5 1295.5,-437.5 1245.5,-437.5"/>
<text text-anchor="middle" x="1270.5" y="-444.5" font-family="Helvetica,sans-Serif" font-size="10.00">redLED</text>
</a>
</g>
</g>
<!-- Node20&#45;&gt;Node22 -->
<g id="edge26" class="edge"><title>Node20&#45;&gt;Node22</title>
<path fill="none" stroke="midnightblue" d="M1151.56,-463.477C1172.86,-460.5 1208.75,-455.488 1235.35,-451.771"/>
<polygon fill="midnightblue" stroke="midnightblue" points="1235.98,-455.217 1245.4,-450.367 1235.01,-448.285 1235.98,-455.217"/>
</g>
<!-- Node24&#45;&gt;Node15 -->
<g id="edge32" class="edge"><title>Node24&#45;&gt;Node15</title>
<path fill="none" stroke="midnightblue" d="M858.441,-483.402C788.547,-478.635 579.525,-463.499 407,-442 388.489,-439.693 367.891,-436.453 351.28,-433.671"/>
<polygon fill="midnightblue" stroke="midnightblue" points="351.447,-430.149 341.002,-431.923 350.274,-437.05 351.447,-430.149"/>
</g>
<!-- Node24&#45;&gt;Node19 -->
<g id="edge31" class="edge"><title>Node24&#45;&gt;Node19</title>
<path fill="none" stroke="midnightblue" d="M908.782,-481.382C928.154,-478.495 955.544,-474.413 977.24,-471.18"/>
<polygon fill="midnightblue" stroke="midnightblue" points="977.999,-474.605 987.374,-469.67 976.968,-467.682 977.999,-474.605"/>
</g>
<!-- Node26&#45;&gt;Node17 -->
<g id="edge35" class="edge"><title>Node26&#45;&gt;Node17</title>
<path fill="none" stroke="midnightblue" d="M747.665,-627.521C760.602,-634.196 777.028,-644.047 789,-656 829.776,-696.71 860.652,-758.49 874.493,-789.242"/>
<polygon fill="midnightblue" stroke="midnightblue" points="871.293,-790.661 878.523,-798.406 877.701,-787.843 871.293,-790.661"/>
</g>
<!-- Node26&#45;&gt;Node24 -->
<g id="edge36" class="edge"><title>Node26&#45;&gt;Node24</title>
<path fill="none" stroke="midnightblue" d="M759.182,-611.975C769.288,-609.108 780.117,-604.956 789,-599 826.726,-573.706 857.075,-528.706 872.148,-503.47"/>
<polygon fill="midnightblue" stroke="midnightblue" points="875.329,-504.963 877.325,-494.558 869.276,-501.447 875.329,-504.963"/>
</g>
<!-- Node27&#45;&gt;Node25 -->
<g id="edge38" class="edge"><title>Node27&#45;&gt;Node25</title>
<path fill="none" stroke="midnightblue" d="M627.089,-663.075C635.711,-664.125 644.682,-665.218 653.54,-666.296"/>
<polygon fill="midnightblue" stroke="midnightblue" points="653.117,-669.771 663.467,-667.506 653.964,-662.822 653.117,-669.771"/>
</g>
<!-- Node27&#45;&gt;Node26 -->
<g id="edge39" class="edge"><title>Node27&#45;&gt;Node26</title>
<path fill="none" stroke="midnightblue" d="M608.365,-646.411C631.167,-640.857 659.861,-633.867 683.083,-628.211"/>
<polygon fill="midnightblue" stroke="midnightblue" points="684.108,-631.563 692.996,-625.796 682.451,-624.762 684.108,-631.563"/>
</g>
<!-- Node28&#45;&gt;Node16 -->
<g id="edge41" class="edge"><title>Node28&#45;&gt;Node16</title>
<path fill="none" stroke="midnightblue" d="M528.695,-765.648C521.873,-762.728 515.027,-759.121 509,-755 484.523,-738.267 461.953,-711.549 449.973,-693.291"/>
<polygon fill="midnightblue" stroke="midnightblue" points="452.892,-691.354 444.719,-684.612 446.903,-694.979 452.892,-691.354"/>
</g>
<!-- Node29&#45;&gt;Node26 -->
<g id="edge44" class="edge"><title>Node29&#45;&gt;Node26</title>
<path fill="none" stroke="midnightblue" d="M596.173,-586.619C620.119,-592.452 655.386,-601.043 682.968,-607.762"/>
<polygon fill="midnightblue" stroke="midnightblue" points="682.203,-611.177 692.748,-610.144 683.86,-604.376 682.203,-611.177"/>
</g>
<!-- Node30 -->
<g id="node30" class="node"><title>Node30</title>
<g id="a_node30"><a xlink:href="settings_8cpp.html#a7b4efa097b94f9a90c5bbafcdf93fe4f" target="_top" xlink:title="getUptime">
<polygon fill="white" stroke="black" points="695,-570.5 695,-589.5 757,-589.5 757,-570.5 695,-570.5"/>
<text text-anchor="middle" x="726" y="-577.5" font-family="Helvetica,sans-Serif" font-size="10.00">getUptime</text>
</a>
</g>
</g>
<!-- Node29&#45;&gt;Node30 -->
<g id="edge43" class="edge"><title>Node29&#45;&gt;Node30</title>
<path fill="none" stroke="midnightblue" d="M596.173,-580C620.633,-580 656.905,-580 684.735,-580"/>
<polygon fill="midnightblue" stroke="midnightblue" points="684.945,-583.5 694.945,-580 684.945,-576.5 684.945,-583.5"/>
</g>
<!-- Node32 -->
<g id="node32" class="node"><title>Node32</title>
<g id="a_node32"><a xlink:href="class_voltage_monitor.html#a70902b84f9864c95d5553a0644a64f4f" target="_top" xlink:title="Return the latest voltage reading. ">
<polygon fill="white" stroke="black" points="663,-874.5 663,-893.5 789,-893.5 789,-874.5 663,-874.5"/>
<text text-anchor="middle" x="726" y="-881.5" font-family="Helvetica,sans-Serif" font-size="10.00">VoltageMonitor::getValue</text>
</a>
</g>
</g>
<!-- Node31&#45;&gt;Node32 -->
<g id="edge46" class="edge"><title>Node31&#45;&gt;Node32</title>
<path fill="none" stroke="midnightblue" d="M605.182,-884C619.344,-884 636.117,-884 652.56,-884"/>
<polygon fill="midnightblue" stroke="midnightblue" points="652.728,-887.5 662.728,-884 652.728,-880.5 652.728,-887.5"/>
</g>
<!-- Node33 -->
<g id="node33" class="node"><title>Node33</title>
<g id="a_node33"><a xlink:href="actions_8cpp.html#a2b8c3769e2aa32a2da9e2f3f85ac73dd" target="_top" xlink:title="A sample ADC reading is taken each time through the main loop, and written to a ring buffer...">
<polygon fill="white" stroke="black" points="827.5,-836.5 827.5,-855.5 939.5,-855.5 939.5,-836.5 827.5,-836.5"/>
<text text-anchor="middle" x="883.5" y="-843.5" font-family="Helvetica,sans-Serif" font-size="10.00">getVoltagePollInterval</text>
</a>
</g>
</g>
<!-- Node32&#45;&gt;Node33 -->
<g id="edge47" class="edge"><title>Node32&#45;&gt;Node33</title>
<path fill="none" stroke="midnightblue" d="M766.239,-874.411C786.759,-869.396 812.067,-863.212 833.825,-857.895"/>
<polygon fill="midnightblue" stroke="midnightblue" points="834.66,-861.294 843.543,-855.52 832.998,-854.494 834.66,-861.294"/>
</g>
<!-- Node34 -->
<g id="node34" class="node"><title>Node34</title>
<g id="a_node34"><a xlink:href="class_voltage_monitor.html#a75871331808c34b40d04059ee2af0f27" target="_top" xlink:title="Filter and scale raw ADC values to millivolts. ">
<polygon fill="white" stroke="black" points="825,-874.5 825,-893.5 942,-893.5 942,-874.5 825,-874.5"/>
<text text-anchor="middle" x="883.5" y="-881.5" font-family="Helvetica,sans-Serif" font-size="10.00">VoltageMonitor::update</text>
</a>
</g>
</g>
<!-- Node32&#45;&gt;Node34 -->
<g id="edge48" class="edge"><title>Node32&#45;&gt;Node34</title>
<path fill="none" stroke="midnightblue" d="M789.352,-884C797.702,-884 806.298,-884 814.735,-884"/>
<polygon fill="midnightblue" stroke="midnightblue" points="814.92,-887.5 824.92,-884 814.92,-880.5 814.92,-887.5"/>
</g>
<!-- Node35&#45;&gt;Node17 -->
<g id="edge50" class="edge"><title>Node35&#45;&gt;Node17</title>
<path fill="none" stroke="midnightblue" d="M758.843,-808C783.677,-808 818.247,-808 844.522,-808"/>
<polygon fill="midnightblue" stroke="midnightblue" points="844.864,-811.5 854.864,-808 844.863,-804.5 844.864,-811.5"/>
</g>
<!-- Node37&#45;&gt;Node4 -->
<g id="edge53" class="edge"><title>Node37&#45;&gt;Node4</title>
<path fill="none" stroke="midnightblue" d="M340.562,-162C383.608,-162 483.257,-162 567,-162 567,-162 567,-162 1133.5,-162 1208.5,-162 1294.41,-172.434 1349.96,-180.563"/>
<polygon fill="midnightblue" stroke="midnightblue" points="1349.56,-184.043 1359.97,-182.051 1350.59,-177.119 1349.56,-184.043"/>
</g>
<!-- Node38&#45;&gt;Node37 -->
<g id="edge55" class="edge"><title>Node38&#45;&gt;Node37</title>
<path fill="none" stroke="midnightblue" d="M213.076,-190.411C235.432,-184.299 264.146,-176.449 285.724,-170.55"/>
<polygon fill="midnightblue" stroke="midnightblue" points="286.663,-173.922 295.386,-167.909 284.817,-167.17 286.663,-173.922"/>
</g>
<!-- Node39&#45;&gt;Node2 -->
<g id="edge57" class="edge"><title>Node39&#45;&gt;Node2</title>
<path fill="none" stroke="midnightblue" d="M205.053,-276C252.449,-276 353.586,-276 439,-276 439,-276 439,-276 1014,-276 1086.31,-276 1168.9,-291.077 1220.13,-302.237"/>
<polygon fill="midnightblue" stroke="midnightblue" points="1219.42,-305.665 1229.94,-304.411 1220.93,-298.831 1219.42,-305.665"/>
</g>
<!-- Node39&#45;&gt;Node3 -->
<g id="edge58" class="edge"><title>Node39&#45;&gt;Node3</title>
<path fill="none" stroke="midnightblue" d="M205.241,-269.381C252.508,-258.494 352.914,-238 439,-238 439,-238 439,-238 1014,-238 1090.41,-238 1179.32,-229.445 1229.55,-223.816"/>
<polygon fill="midnightblue" stroke="midnightblue" points="1230.12,-227.273 1239.66,-222.663 1229.33,-220.318 1230.12,-227.273"/>
</g>
<!-- Node39&#45;&gt;Node5 -->
<g id="edge59" class="edge"><title>Node39&#45;&gt;Node5</title>
<path fill="none" stroke="midnightblue" d="M201.159,-266.41C210.09,-262.378 220.243,-257.374 229,-252 246.276,-241.398 247.685,-234.538 265,-224 270.992,-220.353 277.63,-216.894 284.104,-213.795"/>
<polygon fill="midnightblue" stroke="midnightblue" points="285.751,-216.89 293.376,-209.534 282.828,-210.53 285.751,-216.89"/>
</g>
</g>
</svg>
        <g id="navigator" transform="translate(0 0)" fill="#404254">
                <rect fill="#f2f5e9" fill-opacity="0.5" stroke="#606060" stroke-width=".5" x="0" y="0" width="60" height="60"/>
                <use id="zoomplus" xlink:href="#zoomPlus" x="17" y="9" onmousedown="handleZoom(evt,'in')"/>
                <use id="zoomminus" xlink:href="#zoomMin" x="42" y="9" onmousedown="handleZoom(evt,'out')"/>
                <use id="reset" xlink:href="#resetDef" x="30" y="36" onmousedown="handleReset()"/>
                <g id="arrowUp" xlink:href="#dirArrow" transform="translate(30 24)" onmousedown="handlePan(0,-1)">
                  <use xlink:href="#rim" fill="#404040">
                        <set attributeName="fill" to="#808080" begin="arrowUp.mouseover" end="arrowUp.mouseout"/>
                  </use>
                  <path fill="none" stroke="white" stroke-width="1.5" d="M0,-3.0v7 M-2.5,-0.5L0,-3.0L2.5,-0.5"/>
                </g>
                <g id="arrowRight" xlink:href="#dirArrow" transform="rotate(90) translate(36 -43)" onmousedown="handlePan(1,0)">
                  <use xlink:href="#rim" fill="#404040">
                        <set attributeName="fill" to="#808080" begin="arrowRight.mouseover" end="arrowRight.mouseout"/>
                  </use>
                  <path fill="none" stroke="white" stroke-width="1.5" d="M0,-3.0v7 M-2.5,-0.5L0,-3.0L2.5,-0.5"/>
                </g>
                <g id="arrowDown" xlink:href="#dirArrow" transform="rotate(180) translate(-30 -48)" onmousedown="handlePan(0,1)">
                  <use xlink:href="#rim" fill="#404040">
                        <set attributeName="fill" to="#808080" begin="arrowDown.mouseover" end="arrowDown.mouseout"/>
                  </use>
                  <path fill="none" stroke="white" stroke-width="1.5" d="M0,-3.0v7 M-2.5,-0.5L0,-3.0L2.5,-0.5"/>
                </g>
                <g id="arrowLeft" xlink:href="#dirArrow" transform="rotate(270) translate(-36 17)" onmousedown="handlePan(-1,0)">
                  <use xlink:href="#rim" fill="#404040">
                        <set attributeName="fill" to="#808080" begin="arrowLeft.mouseover" end="arrowLeft.mouseout"/>
                  </use>
                  <path fill="none" stroke="white" stroke-width="1.5" d="M0,-3.0v7 M-2.5,-0.5L0,-3.0L2.5,-0.5"/>
                </g>
        </g>
        <svg viewBox="0 0 15 15" width="100%" height="30px" preserveAspectRatio="xMaxYMin meet">
         <g id="arrow_out" transform="scale(0.3 0.3)">
          <a xlink:href="pda_8h_a3c36576745952735f04eaa82b933e6fa_cgraph_org.svg" target="_base">
           <rect id="button" ry="5" rx="5" y="6" x="6" height="38" width="38"
                fill="#f2f5e9" fill-opacity="0.5" stroke="#606060" stroke-width="1.0"/>
           <path id="arrow"
             d="M 11.500037,31.436501 C 11.940474,20.09759 22.043105,11.32322 32.158766,21.979434 L 37.068811,17.246167 C 37.068811,17.246167 37.088388,32 37.088388,32 L 22.160133,31.978069 C 22.160133,31.978069 26.997745,27.140456 26.997745,27.140456 C 18.528582,18.264221 13.291696,25.230495 11.500037,31.436501 z"
             style="fill:#404040;"/>
          </a>
         </g>
        </svg>
</svg>
