<?xml version="1.0" encoding="UTF-8" standalone="no"?>
<!DOCTYPE svg PUBLIC "-//W3C//DTD SVG 1.1//EN"
 "http://www.w3.org/Graphics/SVG/1.1/DTD/svg11.dtd">
<!-- Generated by graphviz version 2.38.0 (20140413.2041)
 -->
<!-- Title: sumStack Pages: 1 -->
<!--zoomable 595 -->
<svg id="main" version="1.1" xmlns="http://www.w3.org/2000/svg" xmlns:xlink="http://www.w3.org/1999/xlink" xml:space="preserve" onload="init(evt)">
<style type="text/css"><![CDATA[
.edge:hover path { stroke: red; }
.edge:hover polygon { stroke: red; fill: red; }
]]></style>
<script type="text/javascript"><![CDATA[
var edges = document.getElementsByTagName('g');
if (edges && edges.length) {
  for (var i=0;i<edges.length;i++) {
    if (edges[i].id.substr(0,4)=='edge') {
      edges[i].setAttribute('class','edge');
    }
  }
}
]]></script>
        <defs>
                <circle id="rim" cx="0" cy="0" r="7"/>
                <circle id="rim2" cx="0" cy="0" r="3.5"/>
                <g id="zoomPlus">
                        <use xlink:href="#rim" fill="#404040">
                                <set attributeName="fill" to="#808080" begin="zoomplus.mouseover" end="zoomplus.mouseout"/>
                        </use>
                        <path d="M-4,0h8M0,-4v8" fill="none" stroke="white" stroke-width="1.5" pointer-events="none"/>
                </g>
                <g id="zoomMin">
                        <use xlink:href="#rim" fill="#404040">
                                <set attributeName="fill" to="#808080" begin="zoomminus.mouseover" end="zoomminus.mouseout"/>
                        </use>
                        <path d="M-4,0h8" fill="none" stroke="white" stroke-width="1.5" pointer-events="none"/>
                </g>
                <g id="dirArrow">
                        <path fill="none" stroke="white" stroke-width="1.5" d="M0,-3.0v7 M-2.5,-0.5L0,-3.0L2.5,-0.5"/>
                </g>
               <g id="resetDef">
                       <use xlink:href="#rim2" fill="#404040">
                               <set attributeName="fill" to="#808080" begin="reset.mouseover" end="reset.mouseout"/>
                       </use>
               </g>
        </defs>

<script type="text/javascript">
var viewWidth = 1540;
var viewHeight = 595;
var sectionId = 'dynsection-20';
</script>
<script xlink:href="svgpan.js"/>
<svg id="graph" class="graph">
<g id="viewport">
<title>sumStack</title>
<polygon fill="white" stroke="none" points="-4,4 -4,-590.583 1536,-590.583 1536,4 -4,4"/>
<!-- Node1 -->
<g id="node1" class="node"><title>Node1</title>
<polygon fill="#bfbfbf" stroke="black" points="0,-444.083 0,-463.083 61,-463.083 61,-444.083 0,-444.083"/>
<text text-anchor="middle" x="30.5" y="-451.083" font-family="Helvetica,sans-Serif" font-size="10.00">sumStack</text>
</g>
<!-- Node2 -->
<g id="node2" class="node"><title>Node2</title>
<g id="a_node2"><a xlink:href="stack_8cpp.html#aafac4a86d14d59c34565bc295024e511" target="_top" xlink:title="symbolStackSize">
<polygon fill="white" stroke="black" points="225,-501.083 225,-520.083 318,-520.083 318,-501.083 225,-501.083"/>
<text text-anchor="middle" x="271.5" y="-508.083" font-family="Helvetica,sans-Serif" font-size="10.00">symbolStackSize</text>
</a>
</g>
</g>
<!-- Node1&#45;&gt;Node2 -->
<g id="edge1" class="edge"><title>Node1&#45;&gt;Node2</title>
<path fill="none" stroke="midnightblue" d="M44.2712,-463.176C56.9407,-472.145 77.2657,-485.101 97,-491.583 134.96,-504.053 179.845,-508.718 214.451,-510.31"/>
<polygon fill="midnightblue" stroke="midnightblue" points="214.714,-513.822 224.842,-510.71 214.984,-506.827 214.714,-513.822"/>
</g>
<!-- Node4 -->
<g id="node4" class="node"><title>Node4</title>
<g id="a_node4"><a xlink:href="stack_8cpp.html#abefdfbf9131b5ea5926f9ecbecb6b1e6" target="_top" xlink:title="Access the stack using an index where 0 is the top of the stack. ">
<polygon fill="white" stroke="black" points="128.5,-463.083 128.5,-482.083 157.5,-482.083 157.5,-463.083 128.5,-463.083"/>
<text text-anchor="middle" x="143" y="-470.083" font-family="Helvetica,sans-Serif" font-size="10.00">s</text>
</a>
</g>
</g>
<!-- Node1&#45;&gt;Node4 -->
<g id="edge3" class="edge"><title>Node1&#45;&gt;Node4</title>
<path fill="none" stroke="midnightblue" d="M61.112,-458.675C79.0469,-461.759 101.613,-465.639 118.351,-468.517"/>
<polygon fill="midnightblue" stroke="midnightblue" points="117.952,-472 128.4,-470.245 119.138,-465.101 117.952,-472"/>
</g>
<!-- Node5 -->
<g id="node5" class="node"><title>Node5</title>
<g id="a_node5"><a xlink:href="class_morse_token.html#adbcf2bf93f283c2c69a93dd69d03c38b" target="_top" xlink:title="Convert Morse 0&#45;9 to the corresponding digit. ">
<polygon fill="white" stroke="black" points="97,-387.083 97,-406.083 189,-406.083 189,-387.083 97,-387.083"/>
<text text-anchor="middle" x="143" y="-394.083" font-family="Helvetica,sans-Serif" font-size="10.00">MorseToken::m2i</text>
</a>
</g>
</g>
<!-- Node1&#45;&gt;Node5 -->
<g id="edge5" class="edge"><title>Node1&#45;&gt;Node5</title>
<path fill="none" stroke="midnightblue" d="M50.2448,-443.914C67.8926,-434.811 94.5348,-421.068 114.571,-410.732"/>
<polygon fill="midnightblue" stroke="midnightblue" points="116.249,-413.805 123.532,-406.11 113.04,-407.584 116.249,-413.805"/>
</g>
<!-- Node26 -->
<g id="node26" class="node"><title>Node26</title>
<g id="a_node26"><a xlink:href="libmorse_8cpp.html#a47abdd74b66d7180c47d192bab8bdccb" target="_top" xlink:title="Transmit an unsigned integer in Morse code. ">
<polygon fill="white" stroke="black" points="766,-368.083 766,-387.083 832,-387.083 832,-368.083 766,-368.083"/>
<text text-anchor="middle" x="799" y="-375.083" font-family="Helvetica,sans-Serif" font-size="10.00">txUnsigned</text>
</a>
</g>
</g>
<!-- Node1&#45;&gt;Node26 -->
<g id="edge48" class="edge"><title>Node1&#45;&gt;Node26</title>
<path fill="none" stroke="midnightblue" d="M61.2476,-449.693C106.394,-444.134 194.953,-434.583 270.5,-434.583 270.5,-434.583 270.5,-434.583 522,-434.583 609.104,-434.583 708.536,-407.018 761.025,-390.226"/>
<polygon fill="midnightblue" stroke="midnightblue" points="762.144,-393.543 770.573,-387.124 759.981,-386.885 762.144,-393.543"/>
</g>
<!-- Node3 -->
<g id="node3" class="node"><title>Node3</title>
<g id="a_node3"><a xlink:href="class_stack.html#afc30a7ee287e14f08802c2d43613f2b4" target="_top" xlink:title="Return the number of elements currently in the stack. ">
<polygon fill="white" stroke="black" points="374,-501.083 374,-520.083 440,-520.083 440,-501.083 374,-501.083"/>
<text text-anchor="middle" x="407" y="-508.083" font-family="Helvetica,sans-Serif" font-size="10.00">Stack::size</text>
</a>
</g>
</g>
<!-- Node2&#45;&gt;Node3 -->
<g id="edge2" class="edge"><title>Node2&#45;&gt;Node3</title>
<path fill="none" stroke="midnightblue" d="M318.07,-510.583C332.779,-510.583 349.019,-510.583 363.498,-510.583"/>
<polygon fill="midnightblue" stroke="midnightblue" points="363.682,-514.083 373.682,-510.583 363.682,-507.083 363.682,-514.083"/>
</g>
<!-- Node4&#45;&gt;Node2 -->
<g id="edge4" class="edge"><title>Node4&#45;&gt;Node2</title>
<path fill="none" stroke="midnightblue" d="M157.538,-476.65C174.456,-481.732 204.192,-490.665 228.909,-498.09"/>
<polygon fill="midnightblue" stroke="midnightblue" points="228.209,-501.534 238.793,-501.059 230.223,-494.83 228.209,-501.534"/>
</g>
<!-- Node6 -->
<g id="node6" class="node"><title>Node6</title>
<g id="a_node6"><a xlink:href="morse__token_8h.html#a9ec0688da83c93d634e79b2d7ad7ad64" target="_top" xlink:title="Convert Morse 0&#45;9 to the corresponding digit. ">
<polygon fill="white" stroke="black" points="255.5,-387.083 255.5,-406.083 287.5,-406.083 287.5,-387.083 255.5,-387.083"/>
<text text-anchor="middle" x="271.5" y="-394.083" font-family="Helvetica,sans-Serif" font-size="10.00">m2i</text>
</a>
</g>
</g>
<!-- Node5&#45;&gt;Node6 -->
<g id="edge6" class="edge"><title>Node5&#45;&gt;Node6</title>
<path fill="none" stroke="midnightblue" d="M189.312,-396.583C208.09,-396.583 229.168,-396.583 245.14,-396.583"/>
<polygon fill="midnightblue" stroke="midnightblue" points="245.291,-400.083 255.291,-396.583 245.291,-393.083 245.291,-400.083"/>
</g>
<!-- Node7 -->
<g id="node7" class="node"><title>Node7</title>
<g id="a_node7"><a xlink:href="class_morse_token.html#a8c36a957ebc90172eae960757c72d3a4" target="_top" xlink:title="Convert to a single ASCII character. ">
<polygon fill="white" stroke="black" points="354,-463.083 354,-482.083 460,-482.083 460,-463.083 354,-463.083"/>
<text text-anchor="middle" x="407" y="-470.083" font-family="Helvetica,sans-Serif" font-size="10.00">MorseToken::toChar</text>
</a>
</g>
</g>
<!-- Node6&#45;&gt;Node7 -->
<g id="edge7" class="edge"><title>Node6&#45;&gt;Node7</title>
<path fill="none" stroke="midnightblue" d="M287.555,-405.154C310.002,-417.933 352.547,-442.153 380.067,-457.82"/>
<polygon fill="midnightblue" stroke="midnightblue" points="378.695,-461.067 389.118,-462.972 382.159,-454.983 378.695,-461.067"/>
</g>
<!-- Node11 -->
<g id="node11" class="node"><title>Node11</title>
<g id="a_node11"><a xlink:href="libmorse_8cpp.html#ab94e088615119d1faae7df22ce50aedf" target="_top" xlink:title="Transmit a Morse code prosign indicating an error. ">
<polygon fill="white" stroke="black" points="384,-178.083 384,-197.083 430,-197.083 430,-178.083 384,-178.083"/>
<text text-anchor="middle" x="407" y="-185.083" font-family="Helvetica,sans-Serif" font-size="10.00">txError</text>
</a>
</g>
</g>
<!-- Node6&#45;&gt;Node11 -->
<g id="edge11" class="edge"><title>Node6&#45;&gt;Node11</title>
<path fill="none" stroke="midnightblue" d="M278.583,-387.06C299.259,-354.691 367.058,-248.548 394.408,-205.731"/>
<polygon fill="midnightblue" stroke="midnightblue" points="397.448,-207.474 399.881,-197.163 391.548,-203.706 397.448,-207.474"/>
</g>
<!-- Node8 -->
<g id="node8" class="node"><title>Node8</title>
<g id="a_node8"><a xlink:href="morse__token_8h.html#a98f44690e97cbd7ea9445ca0a560a564" target="_top" xlink:title="Convert a Morse code into ASCII. ">
<polygon fill="white" stroke="black" points="503.5,-539.083 503.5,-558.083 538.5,-558.083 538.5,-539.083 503.5,-539.083"/>
<text text-anchor="middle" x="521" y="-546.083" font-family="Helvetica,sans-Serif" font-size="10.00">m2a</text>
</a>
</g>
</g>
<!-- Node7&#45;&gt;Node8 -->
<g id="edge8" class="edge"><title>Node7&#45;&gt;Node8</title>
<path fill="none" stroke="midnightblue" d="M440.585,-482.161C447.246,-484.752 454.037,-487.886 460,-491.583 477.429,-502.39 494.075,-518.866 505.393,-531.329"/>
<polygon fill="midnightblue" stroke="midnightblue" points="502.777,-533.654 512.016,-538.84 508.027,-529.025 502.777,-533.654"/>
</g>
<!-- Node9 -->
<g id="node9" class="node"><title>Node9</title>
<g id="a_node9"><a xlink:href="class_morse_token.html#a48cd72aeb868391449d1f51c1d0bf5cc" target="_top" xlink:title="Treat code == 0 as the error token. ">
<polygon fill="white" stroke="black" points="1157,-359.083 1157,-378.083 1254,-378.083 1254,-359.083 1157,-359.083"/>
<text text-anchor="middle" x="1205.5" y="-366.083" font-family="Helvetica,sans-Serif" font-size="10.00">MorseToken::valid</text>
</a>
</g>
</g>
<!-- Node8&#45;&gt;Node9 -->
<g id="edge9" class="edge"><title>Node8&#45;&gt;Node9</title>
<path fill="none" stroke="midnightblue" d="M538.554,-554.905C550.461,-559.185 566.999,-564.586 582,-567.583 676.503,-586.465 701.629,-586.583 798,-586.583 798,-586.583 798,-586.583 957.5,-586.583 1077.59,-586.583 1166.85,-439.933 1195.06,-387.194"/>
<polygon fill="midnightblue" stroke="midnightblue" points="1198.22,-388.715 1199.75,-378.232 1192.01,-385.471 1198.22,-388.715"/>
</g>
<!-- Node10 -->
<g id="node10" class="node"><title>Node10</title>
<g id="a_node10"><a xlink:href="class_morse_token.html#adc74054417a8636c1d34d43c34628731" target="_top" xlink:title="Treat code == 1 as a space. ">
<polygon fill="white" stroke="black" points="589.5,-539.083 589.5,-558.083 692.5,-558.083 692.5,-539.083 589.5,-539.083"/>
<text text-anchor="middle" x="641" y="-546.083" font-family="Helvetica,sans-Serif" font-size="10.00">MorseToken::pause</text>
</a>
</g>
</g>
<!-- Node8&#45;&gt;Node10 -->
<g id="edge10" class="edge"><title>Node8&#45;&gt;Node10</title>
<path fill="none" stroke="midnightblue" d="M538.656,-548.583C549.444,-548.583 564.224,-548.583 579.161,-548.583"/>
<polygon fill="midnightblue" stroke="midnightblue" points="579.481,-552.083 589.481,-548.583 579.481,-545.083 579.481,-552.083"/>
</g>
<!-- Node12 -->
<g id="node12" class="node"><title>Node12</title>
<g id="a_node12"><a xlink:href="libmorse_8cpp.html#a0ee2308940264ea9ac8e50afc1a4d285" target="_top" xlink:title="txString">
<polygon fill="white" stroke="black" points="496,-273.083 496,-292.083 546,-292.083 546,-273.083 496,-273.083"/>
<text text-anchor="middle" x="521" y="-280.083" font-family="Helvetica,sans-Serif" font-size="10.00">txString</text>
</a>
</g>
</g>
<!-- Node11&#45;&gt;Node12 -->
<g id="edge12" class="edge"><title>Node11&#45;&gt;Node12</title>
<path fill="none" stroke="midnightblue" d="M419.564,-197.392C438.778,-213.69 477.47,-246.509 500.821,-266.316"/>
<polygon fill="midnightblue" stroke="midnightblue" points="498.775,-269.17 508.666,-272.969 503.303,-263.832 498.775,-269.17"/>
</g>
<!-- Node13 -->
<g id="node13" class="node"><title>Node13</title>
<g id="a_node13"><a xlink:href="teensy3__morse__bsp_8cpp.html#ab306f692c5c9455a0c82782a67ff0147" target="_top" xlink:title="touchPoll">
<polygon fill="white" stroke="black" points="928,-463.083 928,-482.083 985,-482.083 985,-463.083 928,-463.083"/>
<text text-anchor="middle" x="956.5" y="-470.083" font-family="Helvetica,sans-Serif" font-size="10.00">touchPoll</text>
</a>
</g>
</g>
<!-- Node12&#45;&gt;Node13 -->
<g id="edge13" class="edge"><title>Node12&#45;&gt;Node13</title>
<path fill="none" stroke="midnightblue" d="M522.78,-292.463C525.507,-320.255 537.059,-399.866 582,-442.583 674.092,-530.119 843.07,-501.548 918.009,-483.082"/>
<polygon fill="midnightblue" stroke="midnightblue" points="919.112,-486.413 927.942,-480.557 917.388,-479.629 919.112,-486.413"/>
</g>
<!-- Node15 -->
<g id="node15" class="node"><title>Node15</title>
<g id="a_node15"><a xlink:href="settings_8cpp.html#a960551e90dfdad18f3c9b1338ccba7db" target="_top" xlink:title="Get the dit duration in microseconds. ">
<polygon fill="white" stroke="black" points="1169.5,-17.0833 1169.5,-36.0833 1241.5,-36.0833 1241.5,-17.0833 1169.5,-17.0833"/>
<text text-anchor="middle" x="1205.5" y="-24.0833" font-family="Helvetica,sans-Serif" font-size="10.00">getDitMicros</text>
</a>
</g>
</g>
<!-- Node12&#45;&gt;Node15 -->
<g id="edge15" class="edge"><title>Node12&#45;&gt;Node15</title>
<path fill="none" stroke="midnightblue" d="M523.959,-272.651C530.848,-238.774 555.001,-128.642 582,-106.583 754.243,34.1412 1047.59,1.31016 1159.4,-17.7726"/>
<polygon fill="midnightblue" stroke="midnightblue" points="1158.88,-21.2342 1169.33,-19.5139 1160.08,-14.3394 1158.88,-21.2342"/>
</g>
<!-- Node16 -->
<g id="node16" class="node"><title>Node16</title>
<g id="a_node16"><a xlink:href="libmorse_8cpp.html#a9fdfce728595d72b78dc7c834ab99a40" target="_top" xlink:title="Transmit a literal Morse code value. ">
<polygon fill="white" stroke="black" points="1060.5,-83.0833 1060.5,-102.083 1111.5,-102.083 1111.5,-83.0833 1060.5,-83.0833"/>
<text text-anchor="middle" x="1086" y="-90.0833" font-family="Helvetica,sans-Serif" font-size="10.00">txLiteral</text>
</a>
</g>
</g>
<!-- Node12&#45;&gt;Node16 -->
<g id="edge16" class="edge"><title>Node12&#45;&gt;Node16</title>
<path fill="none" stroke="midnightblue" d="M523.444,-272.808C527.626,-248.111 542.098,-182.816 582,-149.583 653.174,-90.3047 948.166,-90.0008 1050.14,-91.7422"/>
<polygon fill="midnightblue" stroke="midnightblue" points="1050.16,-95.2431 1060.22,-91.9323 1050.29,-88.2444 1050.16,-95.2431"/>
</g>
<!-- Node24 -->
<g id="node24" class="node"><title>Node24</title>
<g id="a_node24"><a xlink:href="libmorse_8cpp.html#acd4b292f5e412ee4f05aed9dafbc072d" target="_top" xlink:title="Convert an ASCII character into Morse code and transmit it. ">
<polygon fill="white" stroke="black" points="931.5,-197.083 931.5,-216.083 981.5,-216.083 981.5,-197.083 931.5,-197.083"/>
<text text-anchor="middle" x="956.5" y="-204.083" font-family="Helvetica,sans-Serif" font-size="10.00">txLetter</text>
</a>
</g>
</g>
<!-- Node12&#45;&gt;Node24 -->
<g id="edge27" class="edge"><title>Node12&#45;&gt;Node24</title>
<path fill="none" stroke="midnightblue" d="M537.679,-272.877C549.439,-266.069 566.168,-257.361 582,-252.583 702.868,-216.107 854.082,-208.488 920.958,-206.945"/>
<polygon fill="midnightblue" stroke="midnightblue" points="921.394,-210.437 931.323,-206.74 921.255,-203.438 921.394,-210.437"/>
</g>
<!-- Node25 -->
<g id="node25" class="node"><title>Node25</title>
<g id="a_node25"><a xlink:href="teensy3__morse__bsp_8cpp.html#a8761e874366e227690fba2964e1bc445" target="_top" xlink:title="getInternalTemperatureC">
<polygon fill="white" stroke="black" points="736.5,-254.083 736.5,-273.083 861.5,-273.083 861.5,-254.083 736.5,-254.083"/>
<text text-anchor="middle" x="799" y="-261.083" font-family="Helvetica,sans-Serif" font-size="10.00">getInternalTemperatureC</text>
</a>
</g>
</g>
<!-- Node12&#45;&gt;Node25 -->
<g id="edge30" class="edge"><title>Node12&#45;&gt;Node25</title>
<path fill="none" stroke="midnightblue" d="M546.116,-273.086C556.91,-269.323 569.906,-265.452 582,-263.583 629.59,-256.228 683.785,-256.252 725.984,-258.103"/>
<polygon fill="midnightblue" stroke="midnightblue" points="726.01,-261.608 736.168,-258.594 726.348,-254.616 726.01,-261.608"/>
</g>
<!-- Node12&#45;&gt;Node26 -->
<g id="edge31" class="edge"><title>Node12&#45;&gt;Node26</title>
<path fill="none" stroke="midnightblue" d="M524.635,-292.132C530.78,-312.306 548.174,-358.939 582,-377.583 636.196,-407.454 710.273,-398.815 756.082,-388.902"/>
<polygon fill="midnightblue" stroke="midnightblue" points="756.998,-392.283 765.969,-386.647 755.441,-385.458 756.998,-392.283"/>
</g>
<!-- Node27 -->
<g id="node27" class="node"><title>Node27</title>
<g id="a_node27"><a xlink:href="actions_8cpp.html#aed718ec1bd4cc7adb2f65d40a6784496" target="_top" xlink:title="Transmit the internal temperature in integer in Fahrenheit. ">
<polygon fill="white" stroke="black" points="582,-273.083 582,-292.083 700,-292.083 700,-273.083 582,-273.083"/>
<text text-anchor="middle" x="641" y="-280.083" font-family="Helvetica,sans-Serif" font-size="10.00">txInternalTemperatureF</text>
</a>
</g>
</g>
<!-- Node12&#45;&gt;Node27 -->
<g id="edge34" class="edge"><title>Node12&#45;&gt;Node27</title>
<path fill="none" stroke="midnightblue" d="M546.164,-282.583C553.708,-282.583 562.437,-282.583 571.471,-282.583"/>
<polygon fill="midnightblue" stroke="midnightblue" points="571.755,-286.083 581.755,-282.583 571.755,-279.083 571.755,-286.083"/>
</g>
<!-- Node28 -->
<g id="node28" class="node"><title>Node28</title>
<g id="a_node28"><a xlink:href="actions_8cpp.html#aaabb3ac0c23f35a499bc17efe829f326" target="_top" xlink:title="Transmit the 24&#45;hr time. ">
<polygon fill="white" stroke="black" points="602,-349.083 602,-368.083 680,-368.083 680,-349.083 602,-349.083"/>
<text text-anchor="middle" x="641" y="-356.083" font-family="Helvetica,sans-Serif" font-size="10.00">txTimeHHMM</text>
</a>
</g>
</g>
<!-- Node12&#45;&gt;Node28 -->
<g id="edge37" class="edge"><title>Node12&#45;&gt;Node28</title>
<path fill="none" stroke="midnightblue" d="M536.203,-292.28C547.471,-303.269 564.235,-319.979 582,-330.583 592.867,-337.07 606.219,-341.64 617.371,-345.583"/>
<polygon fill="midnightblue" stroke="midnightblue" points="616.267,-348.906 626.861,-349.066 618.679,-342.335 616.267,-348.906"/>
</g>
<!-- Node29 -->
<g id="node29" class="node"><title>Node29</title>
<g id="a_node29"><a xlink:href="actions_8cpp.html#ad02149679fa3cc6a4957d1a318408ffd" target="_top" xlink:title="Transmit the uptime. ">
<polygon fill="white" stroke="black" points="613,-311.083 613,-330.083 669,-330.083 669,-311.083 613,-311.083"/>
<text text-anchor="middle" x="641" y="-318.083" font-family="Helvetica,sans-Serif" font-size="10.00">txUptime</text>
</a>
</g>
</g>
<!-- Node12&#45;&gt;Node29 -->
<g id="edge39" class="edge"><title>Node12&#45;&gt;Node29</title>
<path fill="none" stroke="midnightblue" d="M546.164,-290.365C562.624,-295.666 584.721,-302.782 603.337,-308.777"/>
<polygon fill="midnightblue" stroke="midnightblue" points="602.392,-312.149 612.984,-311.883 604.538,-305.486 602.392,-312.149"/>
</g>
<!-- Node31 -->
<g id="node31" class="node"><title>Node31</title>
<g id="a_node31"><a xlink:href="teensy3__morse__bsp_8cpp.html#ae8dd28759e56dbd2ee9bc9ae96d1783c" target="_top" xlink:title="Return the most recent ADC measurement of the input voltage. Perform analog to digital conversion on ...">
<polygon fill="white" stroke="black" points="604,-159.083 604,-178.083 678,-178.083 678,-159.083 604,-159.083"/>
<text text-anchor="middle" x="641" y="-166.083" font-family="Helvetica,sans-Serif" font-size="10.00">readMillivolts</text>
</a>
</g>
</g>
<!-- Node12&#45;&gt;Node31 -->
<g id="edge42" class="edge"><title>Node12&#45;&gt;Node31</title>
<path fill="none" stroke="midnightblue" d="M526.151,-272.811C534.318,-254.65 554.137,-215.466 582,-192.583 586.863,-188.589 592.484,-185.176 598.273,-182.284"/>
<polygon fill="midnightblue" stroke="midnightblue" points="599.744,-185.461 607.424,-178.162 596.868,-179.078 599.744,-185.461"/>
</g>
<!-- Node35 -->
<g id="node35" class="node"><title>Node35</title>
<g id="a_node35"><a xlink:href="libmorse_8cpp.html#ac3f000c98271c6d0a7710135e18189bc" target="_top" xlink:title="On my hardware there is cross&#45;coupling between the serial port and the touch sensors. Without the code below, long messages to the serial port trigger a touch input. ">
<polygon fill="white" stroke="black" points="766.5,-463.083 766.5,-482.083 831.5,-482.083 831.5,-463.083 766.5,-463.083"/>
<text text-anchor="middle" x="799" y="-470.083" font-family="Helvetica,sans-Serif" font-size="10.00">flushTouch</text>
</a>
</g>
</g>
<!-- Node12&#45;&gt;Node35 -->
<g id="edge46" class="edge"><title>Node12&#45;&gt;Node35</title>
<path fill="none" stroke="midnightblue" d="M524.154,-292.164C529.699,-314.629 546.577,-371.094 582,-401.583 632.066,-444.676 708.975,-461.769 756.24,-468.44"/>
<polygon fill="midnightblue" stroke="midnightblue" points="756.059,-471.947 766.431,-469.782 756.973,-465.006 756.059,-471.947"/>
</g>
<!-- Node14 -->
<g id="node14" class="node"><title>Node14</title>
<g id="a_node14"><a xlink:href="teensy3__morse__bsp_8cpp.html#af6899cd9b83df54106b259ab81ea5cb2" target="_top" xlink:title="touchMargin">
<polygon fill="white" stroke="black" points="1051,-463.083 1051,-482.083 1121,-482.083 1121,-463.083 1051,-463.083"/>
<text text-anchor="middle" x="1086" y="-470.083" font-family="Helvetica,sans-Serif" font-size="10.00">touchMargin</text>
</a>
</g>
</g>
<!-- Node13&#45;&gt;Node14 -->
<g id="edge14" class="edge"><title>Node13&#45;&gt;Node14</title>
<path fill="none" stroke="midnightblue" d="M985.166,-472.583C1001.28,-472.583 1021.98,-472.583 1040.35,-472.583"/>
<polygon fill="midnightblue" stroke="midnightblue" points="1040.56,-476.083 1050.56,-472.583 1040.56,-469.083 1040.56,-476.083"/>
</g>
<!-- Node16&#45;&gt;Node9 -->
<g id="edge17" class="edge"><title>Node16&#45;&gt;Node9</title>
<path fill="none" stroke="midnightblue" d="M1091.04,-102.084C1107.96,-141.806 1173.19,-295.036 1196.31,-349.355"/>
<polygon fill="midnightblue" stroke="midnightblue" points="1193.21,-351.007 1200.35,-358.837 1199.65,-348.265 1193.21,-351.007"/>
</g>
<!-- Node16&#45;&gt;Node11 -->
<g id="edge26" class="edge"><title>Node16&#45;&gt;Node11</title>
<path fill="none" stroke="midnightblue" d="M1060.41,-89.9583C1047.01,-88.6577 1030.11,-87.2298 1015,-86.5833 963.048,-84.3609 949.998,-86.1019 898,-86.5833 825.991,-87.25 807.37,-79.9835 736,-89.5833 626.924,-104.255 600.351,-115.602 496,-150.583 476.165,-157.233 454.496,-166.32 437.623,-173.825"/>
<polygon fill="midnightblue" stroke="midnightblue" points="435.972,-170.73 428.293,-178.03 438.848,-177.112 435.972,-170.73"/>
</g>
<!-- Node16&#45;&gt;Node15 -->
<g id="edge25" class="edge"><title>Node16&#45;&gt;Node15</title>
<path fill="none" stroke="midnightblue" d="M1104.09,-82.9864C1123.67,-71.9885 1155.96,-53.8457 1178.63,-41.1135"/>
<polygon fill="midnightblue" stroke="midnightblue" points="1180.39,-44.1408 1187.39,-36.1919 1176.96,-38.0377 1180.39,-44.1408"/>
</g>
<!-- Node17 -->
<g id="node17" class="node"><title>Node17</title>
<g id="a_node17"><a xlink:href="teensy3__morse__bsp_8cpp.html#af66e71e3fac9b6a2c6532bc8a513bfde" target="_top" xlink:title="Output a square wave on pin 10 at the given frequency for the given duration. ">
<polygon fill="white" stroke="black" points="1186.5,-102.083 1186.5,-121.083 1224.5,-121.083 1224.5,-102.083 1186.5,-102.083"/>
<text text-anchor="middle" x="1205.5" y="-109.083" font-family="Helvetica,sans-Serif" font-size="10.00">beep</text>
</a>
</g>
</g>
<!-- Node16&#45;&gt;Node17 -->
<g id="edge18" class="edge"><title>Node16&#45;&gt;Node17</title>
<path fill="none" stroke="midnightblue" d="M1111.63,-96.5664C1130.57,-99.6287 1156.75,-103.861 1176.48,-107.053"/>
<polygon fill="midnightblue" stroke="midnightblue" points="1175.99,-110.519 1186.42,-108.66 1177.11,-103.608 1175.99,-110.519"/>
</g>
<!-- Node23 -->
<g id="node23" class="node"><title>Node23</title>
<g id="a_node23"><a xlink:href="settings_8cpp.html#a8575b9b52638114a4f32d1462cf9b7c1" target="_top" xlink:title="Get the transmission frequency (side tone). ">
<polygon fill="white" stroke="black" points="1178.5,-64.0833 1178.5,-83.0833 1232.5,-83.0833 1232.5,-64.0833 1178.5,-64.0833"/>
<text text-anchor="middle" x="1205.5" y="-71.0833" font-family="Helvetica,sans-Serif" font-size="10.00">getTxHz</text>
</a>
</g>
</g>
<!-- Node16&#45;&gt;Node23 -->
<g id="edge24" class="edge"><title>Node16&#45;&gt;Node23</title>
<path fill="none" stroke="midnightblue" d="M1111.63,-88.6003C1128.02,-85.95 1149.83,-82.4231 1168.2,-79.4532"/>
<polygon fill="midnightblue" stroke="midnightblue" points="1168.96,-82.8764 1178.27,-77.8249 1167.84,-75.9662 1168.96,-82.8764"/>
</g>
<!-- Node18 -->
<g id="node18" class="node"><title>Node18</title>
<g id="a_node18"><a xlink:href="teensy3__morse__bsp_8cpp.html#a6f674d5b9985ea3a7eeb0df299c2e405" target="_top" xlink:title="pollEarphonePresent">
<polygon fill="white" stroke="black" points="1290,-159.083 1290,-178.083 1397,-178.083 1397,-159.083 1290,-159.083"/>
<text text-anchor="middle" x="1343.5" y="-166.083" font-family="Helvetica,sans-Serif" font-size="10.00">pollEarphonePresent</text>
</a>
</g>
</g>
<!-- Node17&#45;&gt;Node18 -->
<g id="edge19" class="edge"><title>Node17&#45;&gt;Node18</title>
<path fill="none" stroke="midnightblue" d="M1224.56,-120.308C1241.35,-128.298 1267.14,-140.263 1290,-149.583 1294.87,-151.568 1300.03,-153.565 1305.14,-155.479"/>
<polygon fill="midnightblue" stroke="midnightblue" points="1304.23,-158.872 1314.82,-159.034 1306.64,-152.301 1304.23,-158.872"/>
</g>
<!-- Node19 -->
<g id="node19" class="node"><title>Node19</title>
<g id="a_node19"><a xlink:href="teensy3__morse__bsp_8cpp.html#a2d6b4ace33ed5e497dedd03217540c63" target="_top" xlink:title="Set the PWM frequency for the audio output pins. ">
<polygon fill="white" stroke="black" points="1302,-121.083 1302,-140.083 1385,-140.083 1385,-121.083 1302,-121.083"/>
<text text-anchor="middle" x="1343.5" y="-128.083" font-family="Helvetica,sans-Serif" font-size="10.00">pwmFrequency</text>
</a>
</g>
</g>
<!-- Node17&#45;&gt;Node19 -->
<g id="edge20" class="edge"><title>Node17&#45;&gt;Node19</title>
<path fill="none" stroke="midnightblue" d="M1224.56,-114.106C1241.62,-116.489 1268.02,-120.178 1291.52,-123.461"/>
<polygon fill="midnightblue" stroke="midnightblue" points="1291.33,-126.969 1301.72,-124.886 1292.3,-120.036 1291.33,-126.969"/>
</g>
<!-- Node20 -->
<g id="node20" class="node"><title>Node20</title>
<g id="a_node20"><a xlink:href="teensy3__morse__bsp_8cpp.html#a82911eac3bf13d6f36d10102a4c4d3c4" target="_top" xlink:title="Generate a tone on the audio output pins. ">
<polygon fill="white" stroke="black" points="1313,-83.0833 1313,-102.083 1374,-102.083 1374,-83.0833 1313,-83.0833"/>
<text text-anchor="middle" x="1343.5" y="-90.0833" font-family="Helvetica,sans-Serif" font-size="10.00">pwmWrite</text>
</a>
</g>
</g>
<!-- Node17&#45;&gt;Node20 -->
<g id="edge21" class="edge"><title>Node17&#45;&gt;Node20</title>
<path fill="none" stroke="midnightblue" d="M1224.56,-109.06C1244.46,-106.28 1277.08,-101.722 1302.98,-98.1047"/>
<polygon fill="midnightblue" stroke="midnightblue" points="1303.47,-101.57 1312.89,-96.72 1302.5,-94.6373 1303.47,-101.57"/>
</g>
<!-- Node22 -->
<g id="node22" class="node"><title>Node22</title>
<g id="a_node22"><a xlink:href="teensy3__morse__bsp_8cpp.html#a6c982a7d7805f1dd5426eb98c915cfdd" target="_top" xlink:title="Turn the red LED on (1) or off (0). ">
<polygon fill="white" stroke="black" points="1318.5,-45.0833 1318.5,-64.0833 1368.5,-64.0833 1368.5,-45.0833 1318.5,-45.0833"/>
<text text-anchor="middle" x="1343.5" y="-52.0833" font-family="Helvetica,sans-Serif" font-size="10.00">redLED</text>
</a>
</g>
</g>
<!-- Node17&#45;&gt;Node22 -->
<g id="edge23" class="edge"><title>Node17&#45;&gt;Node22</title>
<path fill="none" stroke="midnightblue" d="M1224.73,-104.806C1233.65,-101.362 1244.49,-96.9815 1254,-92.5833 1270.42,-84.9911 1273.45,-80.9014 1290,-73.5833 1295.99,-70.9331 1302.48,-68.3577 1308.78,-66.0025"/>
<polygon fill="midnightblue" stroke="midnightblue" points="1310.23,-69.2007 1318.44,-62.5036 1307.85,-62.6193 1310.23,-69.2007"/>
</g>
<!-- Node21 -->
<g id="node21" class="node"><title>Node21</title>
<g id="a_node21"><a xlink:href="teensy3__morse__bsp_8cpp.html#ac70998cee1bf97f00aec4a1b4e5a4f60" target="_top" xlink:title="isEarphonePresent">
<polygon fill="white" stroke="black" points="1433,-83.0833 1433,-102.083 1532,-102.083 1532,-83.0833 1433,-83.0833"/>
<text text-anchor="middle" x="1482.5" y="-90.0833" font-family="Helvetica,sans-Serif" font-size="10.00">isEarphonePresent</text>
</a>
</g>
</g>
<!-- Node20&#45;&gt;Node21 -->
<g id="edge22" class="edge"><title>Node20&#45;&gt;Node21</title>
<path fill="none" stroke="midnightblue" d="M1374.23,-92.5833C1388.43,-92.5833 1405.96,-92.5833 1422.7,-92.5833"/>
<polygon fill="midnightblue" stroke="midnightblue" points="1422.98,-96.0834 1432.98,-92.5833 1422.98,-89.0834 1422.98,-96.0834"/>
</g>
<!-- Node24&#45;&gt;Node11 -->
<g id="edge29" class="edge"><title>Node24&#45;&gt;Node11</title>
<path fill="none" stroke="midnightblue" d="M931.49,-199.367C886.564,-186.283 786.509,-159.116 700,-149.583 647.871,-143.839 634.142,-143.956 582,-149.583 531.852,-154.995 474.964,-168.94 440.287,-178.345"/>
<polygon fill="midnightblue" stroke="midnightblue" points="438.982,-175.074 430.27,-181.104 440.84,-181.823 438.982,-175.074"/>
</g>
<!-- Node24&#45;&gt;Node16 -->
<g id="edge28" class="edge"><title>Node24&#45;&gt;Node16</title>
<path fill="none" stroke="midnightblue" d="M981.707,-202.101C992.615,-199.237 1005.21,-194.682 1015,-187.583 1042.92,-167.336 1064.39,-132.638 1075.82,-111.25"/>
<polygon fill="midnightblue" stroke="midnightblue" points="1079.01,-112.692 1080.48,-102.2 1072.79,-109.487 1079.01,-112.692"/>
</g>
<!-- Node26&#45;&gt;Node13 -->
<g id="edge32" class="edge"><title>Node26&#45;&gt;Node13</title>
<path fill="none" stroke="midnightblue" d="M815.766,-387.215C842.892,-403.788 898.583,-437.811 930.866,-457.534"/>
<polygon fill="midnightblue" stroke="midnightblue" points="929.334,-460.699 939.692,-462.926 932.984,-454.726 929.334,-460.699"/>
</g>
<!-- Node26&#45;&gt;Node24 -->
<g id="edge33" class="edge"><title>Node26&#45;&gt;Node24</title>
<path fill="none" stroke="midnightblue" d="M820.133,-367.96C833.013,-361.179 849.576,-351.25 862,-339.583 899.2,-304.652 930.491,-252.724 945.665,-225.229"/>
<polygon fill="midnightblue" stroke="midnightblue" points="948.826,-226.742 950.508,-216.282 942.67,-223.41 948.826,-226.742"/>
</g>
<!-- Node27&#45;&gt;Node25 -->
<g id="edge35" class="edge"><title>Node27&#45;&gt;Node25</title>
<path fill="none" stroke="midnightblue" d="M700.089,-275.508C708.711,-274.458 717.682,-273.366 726.54,-272.287"/>
<polygon fill="midnightblue" stroke="midnightblue" points="726.964,-275.761 736.467,-271.078 726.117,-268.812 726.964,-275.761"/>
</g>
<!-- Node27&#45;&gt;Node26 -->
<g id="edge36" class="edge"><title>Node27&#45;&gt;Node26</title>
<path fill="none" stroke="midnightblue" d="M680.353,-292.15C687.171,-294.674 694.002,-297.785 700,-301.583 719.655,-314.03 717.927,-324.934 736,-339.583 746.65,-348.216 759.422,-356.363 770.598,-362.882"/>
<polygon fill="midnightblue" stroke="midnightblue" points="769.104,-366.059 779.529,-367.951 772.559,-359.971 769.104,-366.059"/>
</g>
<!-- Node28&#45;&gt;Node12 -->
<g id="edge38" class="edge"><title>Node28&#45;&gt;Node12</title>
<path fill="none" stroke="midnightblue" d="M601.807,-357.595C594.974,-355.258 588.096,-352.222 582,-348.583 561.567,-336.386 542.459,-316.113 531.514,-300.881"/>
<polygon fill="midnightblue" stroke="midnightblue" points="534.217,-298.621 525.815,-292.167 528.359,-302.452 534.217,-298.621"/>
</g>
<!-- Node29&#45;&gt;Node26 -->
<g id="edge41" class="edge"><title>Node29&#45;&gt;Node26</title>
<path fill="none" stroke="midnightblue" d="M669.248,-329.178C678.989,-332.338 690.022,-336.017 700,-339.583 721.803,-347.375 746.068,-356.778 764.998,-364.281"/>
<polygon fill="midnightblue" stroke="midnightblue" points="763.784,-367.565 774.369,-368.013 766.373,-361.062 763.784,-367.565"/>
</g>
<!-- Node30 -->
<g id="node30" class="node"><title>Node30</title>
<g id="a_node30"><a xlink:href="settings_8cpp.html#a7b4efa097b94f9a90c5bbafcdf93fe4f" target="_top" xlink:title="getUptime">
<polygon fill="white" stroke="black" points="768,-311.083 768,-330.083 830,-330.083 830,-311.083 768,-311.083"/>
<text text-anchor="middle" x="799" y="-318.083" font-family="Helvetica,sans-Serif" font-size="10.00">getUptime</text>
</a>
</g>
</g>
<!-- Node29&#45;&gt;Node30 -->
<g id="edge40" class="edge"><title>Node29&#45;&gt;Node30</title>
<path fill="none" stroke="midnightblue" d="M669.173,-320.583C693.633,-320.583 729.905,-320.583 757.735,-320.583"/>
<polygon fill="midnightblue" stroke="midnightblue" points="757.945,-324.083 767.945,-320.583 757.945,-317.083 757.945,-324.083"/>
</g>
<!-- Node32 -->
<g id="node32" class="node"><title>Node32</title>
<g id="a_node32"><a xlink:href="class_voltage_monitor.html#a70902b84f9864c95d5553a0644a64f4f" target="_top" xlink:title="Return the latest voltage reading. ">
<polygon fill="white" stroke="black" points="736,-121.083 736,-140.083 862,-140.083 862,-121.083 736,-121.083"/>
<text text-anchor="middle" x="799" y="-128.083" font-family="Helvetica,sans-Serif" font-size="10.00">VoltageMonitor::getValue</text>
</a>
</g>
</g>
<!-- Node31&#45;&gt;Node32 -->
<g id="edge43" class="edge"><title>Node31&#45;&gt;Node32</title>
<path fill="none" stroke="midnightblue" d="M678.182,-159.77C699.194,-154.651 725.955,-148.133 748.854,-142.555"/>
<polygon fill="midnightblue" stroke="midnightblue" points="749.848,-145.915 758.735,-140.148 748.191,-139.114 749.848,-145.915"/>
</g>
<!-- Node33 -->
<g id="node33" class="node"><title>Node33</title>
<g id="a_node33"><a xlink:href="actions_8cpp.html#a2b8c3769e2aa32a2da9e2f3f85ac73dd" target="_top" xlink:title="A sample ADC reading is taken each time through the main loop, and written to a ring buffer...">
<polygon fill="white" stroke="black" points="900.5,-159.083 900.5,-178.083 1012.5,-178.083 1012.5,-159.083 900.5,-159.083"/>
<text text-anchor="middle" x="956.5" y="-166.083" font-family="Helvetica,sans-Serif" font-size="10.00">getVoltagePollInterval</text>
</a>
</g>
</g>
<!-- Node32&#45;&gt;Node33 -->
<g id="edge44" class="edge"><title>Node32&#45;&gt;Node33</title>
<path fill="none" stroke="midnightblue" d="M839.239,-140.172C859.759,-145.187 885.067,-151.371 906.825,-156.689"/>
<polygon fill="midnightblue" stroke="midnightblue" points="905.998,-160.089 916.543,-159.063 907.66,-153.289 905.998,-160.089"/>
</g>
<!-- Node34 -->
<g id="node34" class="node"><title>Node34</title>
<g id="a_node34"><a xlink:href="class_voltage_monitor.html#a75871331808c34b40d04059ee2af0f27" target="_top" xlink:title="Filter and scale raw ADC values to millivolts. ">
<polygon fill="white" stroke="black" points="898,-121.083 898,-140.083 1015,-140.083 1015,-121.083 898,-121.083"/>
<text text-anchor="middle" x="956.5" y="-128.083" font-family="Helvetica,sans-Serif" font-size="10.00">VoltageMonitor::update</text>
</a>
</g>
</g>
<!-- Node32&#45;&gt;Node34 -->
<g id="edge45" class="edge"><title>Node32&#45;&gt;Node34</title>
<path fill="none" stroke="midnightblue" d="M862.352,-130.583C870.702,-130.583 879.298,-130.583 887.735,-130.583"/>
<polygon fill="midnightblue" stroke="midnightblue" points="887.92,-134.083 897.92,-130.583 887.92,-127.083 887.92,-134.083"/>
</g>
<!-- Node35&#45;&gt;Node13 -->
<g id="edge47" class="edge"><title>Node35&#45;&gt;Node13</title>
<path fill="none" stroke="midnightblue" d="M831.843,-472.583C856.677,-472.583 891.247,-472.583 917.522,-472.583"/>
<polygon fill="midnightblue" stroke="midnightblue" points="917.864,-476.083 927.864,-472.583 917.863,-469.083 917.864,-476.083"/>
</g>
</g>
</svg>
        <g id="navigator" transform="translate(0 0)" fill="#404254">
                <rect fill="#f2f5e9" fill-opacity="0.5" stroke="#606060" stroke-width=".5" x="0" y="0" width="60" height="60"/>
                <use id="zoomplus" xlink:href="#zoomPlus" x="17" y="9" onmousedown="handleZoom(evt,'in')"/>
                <use id="zoomminus" xlink:href="#zoomMin" x="42" y="9" onmousedown="handleZoom(evt,'out')"/>
                <use id="reset" xlink:href="#resetDef" x="30" y="36" onmousedown="handleReset()"/>
                <g id="arrowUp" xlink:href="#dirArrow" transform="translate(30 24)" onmousedown="handlePan(0,-1)">
                  <use xlink:href="#rim" fill="#404040">
                        <set attributeName="fill" to="#808080" begin="arrowUp.mouseover" end="arrowUp.mouseout"/>
                  </use>
                  <path fill="none" stroke="white" stroke-width="1.5" d="M0,-3.0v7 M-2.5,-0.5L0,-3.0L2.5,-0.5"/>
                </g>
                <g id="arrowRight" xlink:href="#dirArrow" transform="rotate(90) translate(36 -43)" onmousedown="handlePan(1,0)">
                  <use xlink:href="#rim" fill="#404040">
                        <set attributeName="fill" to="#808080" begin="arrowRight.mouseover" end="arrowRight.mouseout"/>
                  </use>
                  <path fill="none" stroke="white" stroke-width="1.5" d="M0,-3.0v7 M-2.5,-0.5L0,-3.0L2.5,-0.5"/>
                </g>
                <g id="arrowDown" xlink:href="#dirArrow" transform="rotate(180) translate(-30 -48)" onmousedown="handlePan(0,1)">
                  <use xlink:href="#rim" fill="#404040">
                        <set attributeName="fill" to="#808080" begin="arrowDown.mouseover" end="arrowDown.mouseout"/>
                  </use>
                  <path fill="none" stroke="white" stroke-width="1.5" d="M0,-3.0v7 M-2.5,-0.5L0,-3.0L2.5,-0.5"/>
                </g>
                <g id="arrowLeft" xlink:href="#dirArrow" transform="rotate(270) translate(-36 17)" onmousedown="handlePan(-1,0)">
                  <use xlink:href="#rim" fill="#404040">
                        <set attributeName="fill" to="#808080" begin="arrowLeft.mouseover" end="arrowLeft.mouseout"/>
                  </use>
                  <path fill="none" stroke="white" stroke-width="1.5" d="M0,-3.0v7 M-2.5,-0.5L0,-3.0L2.5,-0.5"/>
                </g>
        </g>
        <svg viewBox="0 0 15 15" width="100%" height="30px" preserveAspectRatio="xMaxYMin meet">
         <g id="arrow_out" transform="scale(0.3 0.3)">
          <a xlink:href="pda_8cpp_aba3c77bbaeda68253d8795c44bb0b4ff_cgraph_org.svg" target="_base">
           <rect id="button" ry="5" rx="5" y="6" x="6" height="38" width="38"
                fill="#f2f5e9" fill-opacity="0.5" stroke="#606060" stroke-width="1.0"/>
           <path id="arrow"
             d="M 11.500037,31.436501 C 11.940474,20.09759 22.043105,11.32322 32.158766,21.979434 L 37.068811,17.246167 C 37.068811,17.246167 37.088388,32 37.088388,32 L 22.160133,31.978069 C 22.160133,31.978069 26.997745,27.140456 26.997745,27.140456 C 18.528582,18.264221 13.291696,25.230495 11.500037,31.436501 z"
             style="fill:#404040;"/>
          </a>
         </g>
        </svg>
</svg>
