<?xml version="1.0" encoding="UTF-8" standalone="no"?>
<!DOCTYPE svg PUBLIC "-//W3C//DTD SVG 1.1//EN"
 "http://www.w3.org/Graphics/SVG/1.1/DTD/svg11.dtd">
<!-- Generated by graphviz version 2.38.0 (20140413.2041)
 -->
<!-- Title: gradeRestore Pages: 1 -->
<!--zoomable 551 -->
<svg id="main" version="1.1" xmlns="http://www.w3.org/2000/svg" xmlns:xlink="http://www.w3.org/1999/xlink" xml:space="preserve" onload="init(evt)">
<style type="text/css"><![CDATA[
.edge:hover path { stroke: red; }
.edge:hover polygon { stroke: red; fill: red; }
]]></style>
<script type="text/javascript"><![CDATA[
var edges = document.getElementsByTagName('g');
if (edges && edges.length) {
  for (var i=0;i<edges.length;i++) {
    if (edges[i].id.substr(0,4)=='edge') {
      edges[i].setAttribute('class','edge');
    }
  }
}
]]></script>
        <defs>
                <circle id="rim" cx="0" cy="0" r="7"/>
                <circle id="rim2" cx="0" cy="0" r="3.5"/>
                <g id="zoomPlus">
                        <use xlink:href="#rim" fill="#404040">
                                <set attributeName="fill" to="#808080" begin="zoomplus.mouseover" end="zoomplus.mouseout"/>
                        </use>
                        <path d="M-4,0h8M0,-4v8" fill="none" stroke="white" stroke-width="1.5" pointer-events="none"/>
                </g>
                <g id="zoomMin">
                        <use xlink:href="#rim" fill="#404040">
                                <set attributeName="fill" to="#808080" begin="zoomminus.mouseover" end="zoomminus.mouseout"/>
                        </use>
                        <path d="M-4,0h8" fill="none" stroke="white" stroke-width="1.5" pointer-events="none"/>
                </g>
                <g id="dirArrow">
                        <path fill="none" stroke="white" stroke-width="1.5" d="M0,-3.0v7 M-2.5,-0.5L0,-3.0L2.5,-0.5"/>
                </g>
               <g id="resetDef">
                       <use xlink:href="#rim2" fill="#404040">
                               <set attributeName="fill" to="#808080" begin="reset.mouseover" end="reset.mouseout"/>
                       </use>
               </g>
        </defs>

<script type="text/javascript">
var viewWidth = 1563;
var viewHeight = 551;
var sectionId = 'dynsection-11';
</script>
<script xlink:href="svgpan.js"/>
<svg id="graph" class="graph">
<g id="viewport">
<title>gradeRestore</title>
<polygon fill="white" stroke="none" points="-4,4 -4,-546.913 1559,-546.913 1559,4 -4,4"/>
<!-- Node1 -->
<g id="node1" class="node"><title>Node1</title>
<polygon fill="#bfbfbf" stroke="black" points="0,-341.5 0,-360.5 75,-360.5 75,-341.5 0,-341.5"/>
<text text-anchor="middle" x="37.5" y="-348.5" font-family="Helvetica,sans-Serif" font-size="10.00">gradeRestore</text>
</g>
<!-- Node2 -->
<g id="node2" class="node"><title>Node2</title>
<g id="a_node2"><a xlink:href="stack_8cpp.html#ae73e1851820a958c7de01c9ed36d1b7c" target="_top" xlink:title="pushSymbolStack">
<polygon fill="white" stroke="black" points="111,-436.5 111,-455.5 207,-455.5 207,-436.5 111,-436.5"/>
<text text-anchor="middle" x="159" y="-443.5" font-family="Helvetica,sans-Serif" font-size="10.00">pushSymbolStack</text>
</a>
</g>
</g>
<!-- Node1&#45;&gt;Node2 -->
<g id="edge1" class="edge"><title>Node1&#45;&gt;Node2</title>
<path fill="none" stroke="midnightblue" d="M50.8385,-360.809C71.4291,-377.178 112.985,-410.214 137.864,-429.992"/>
<polygon fill="midnightblue" stroke="midnightblue" points="135.901,-432.903 145.907,-436.386 140.257,-427.423 135.901,-432.903"/>
</g>
<!-- Node4 -->
<g id="node4" class="node"><title>Node4</title>
<g id="a_node4"><a xlink:href="pda_8cpp.html#a59acff867d89a88cb2142895d95b12e8" target="_top" xlink:title="gradeSum">
<polygon fill="white" stroke="black" points="128.5,-341.5 128.5,-360.5 189.5,-360.5 189.5,-341.5 128.5,-341.5"/>
<text text-anchor="middle" x="159" y="-348.5" font-family="Helvetica,sans-Serif" font-size="10.00">gradeSum</text>
</a>
</g>
</g>
<!-- Node1&#45;&gt;Node4 -->
<g id="edge3" class="edge"><title>Node1&#45;&gt;Node4</title>
<path fill="none" stroke="midnightblue" d="M75.0033,-351C88.5679,-351 104.026,-351 117.896,-351"/>
<polygon fill="midnightblue" stroke="midnightblue" points="118.134,-354.5 128.134,-351 118.134,-347.5 118.134,-354.5"/>
</g>
<!-- Node41 -->
<g id="node41" class="node"><title>Node41</title>
<g id="a_node41"><a xlink:href="actions_8cpp.html#af4c12896b2807b2ac63725a650efea6b" target="_top" xlink:title="restoreActions">
<polygon fill="white" stroke="black" points="119,-189.5 119,-208.5 199,-208.5 199,-189.5 119,-189.5"/>
<text text-anchor="middle" x="159" y="-196.5" font-family="Helvetica,sans-Serif" font-size="10.00">restoreActions</text>
</a>
</g>
</g>
<!-- Node1&#45;&gt;Node41 -->
<g id="edge56" class="edge"><title>Node1&#45;&gt;Node41</title>
<path fill="none" stroke="midnightblue" d="M45.9753,-341.492C65.5916,-316.54 118.774,-248.894 144.157,-216.608"/>
<polygon fill="midnightblue" stroke="midnightblue" points="147.099,-218.529 150.528,-208.505 141.596,-214.203 147.099,-218.529"/>
</g>
<!-- Node3 -->
<g id="node3" class="node"><title>Node3</title>
<g id="a_node3"><a xlink:href="class_stack.html#ab11c0714a1585dcde1475111d994f0bb" target="_top" xlink:title="Push t onto the stack, if there is space for it. ">
<polygon fill="white" stroke="black" points="249.5,-493.5 249.5,-512.5 318.5,-512.5 318.5,-493.5 249.5,-493.5"/>
<text text-anchor="middle" x="284" y="-500.5" font-family="Helvetica,sans-Serif" font-size="10.00">Stack::push</text>
</a>
</g>
</g>
<!-- Node2&#45;&gt;Node3 -->
<g id="edge2" class="edge"><title>Node2&#45;&gt;Node3</title>
<path fill="none" stroke="midnightblue" d="M180.587,-455.541C200.454,-464.747 230.746,-478.785 253.237,-489.207"/>
<polygon fill="midnightblue" stroke="midnightblue" points="251.801,-492.399 262.345,-493.428 254.744,-486.048 251.801,-492.399"/>
</g>
<!-- Node5 -->
<g id="node5" class="node"><title>Node5</title>
<g id="a_node5"><a xlink:href="stack_8cpp.html#aafac4a86d14d59c34565bc295024e511" target="_top" xlink:title="symbolStackSize">
<polygon fill="white" stroke="black" points="367.5,-417.5 367.5,-436.5 460.5,-436.5 460.5,-417.5 367.5,-417.5"/>
<text text-anchor="middle" x="414" y="-424.5" font-family="Helvetica,sans-Serif" font-size="10.00">symbolStackSize</text>
</a>
</g>
</g>
<!-- Node4&#45;&gt;Node5 -->
<g id="edge4" class="edge"><title>Node4&#45;&gt;Node5</title>
<path fill="none" stroke="midnightblue" d="M170.3,-360.626C185.104,-373.825 213.842,-397.14 243,-408 279.444,-421.574 323.087,-426.232 357.028,-427.545"/>
<polygon fill="midnightblue" stroke="midnightblue" points="357.13,-431.049 367.231,-427.851 357.34,-424.053 357.13,-431.049"/>
</g>
<!-- Node7 -->
<g id="node7" class="node"><title>Node7</title>
<g id="a_node7"><a xlink:href="stack_8cpp.html#abefdfbf9131b5ea5926f9ecbecb6b1e6" target="_top" xlink:title="Access the stack using an index where 0 is the top of the stack. ">
<polygon fill="white" stroke="black" points="269.5,-379.5 269.5,-398.5 298.5,-398.5 298.5,-379.5 269.5,-379.5"/>
<text text-anchor="middle" x="284" y="-386.5" font-family="Helvetica,sans-Serif" font-size="10.00">s</text>
</a>
</g>
</g>
<!-- Node4&#45;&gt;Node7 -->
<g id="edge6" class="edge"><title>Node4&#45;&gt;Node7</title>
<path fill="none" stroke="midnightblue" d="M189.775,-360.199C211.23,-366.827 239.778,-375.647 259.606,-381.773"/>
<polygon fill="midnightblue" stroke="midnightblue" points="258.772,-385.178 269.359,-384.786 260.838,-378.49 258.772,-385.178"/>
</g>
<!-- Node8 -->
<g id="node8" class="node"><title>Node8</title>
<g id="a_node8"><a xlink:href="morse__token_8cpp.html#a9ec0688da83c93d634e79b2d7ad7ad64" target="_top" xlink:title="Convert Morse 0&#45;9 to the corresponding digit. ">
<polygon fill="white" stroke="black" points="268,-303.5 268,-322.5 300,-322.5 300,-303.5 268,-303.5"/>
<text text-anchor="middle" x="284" y="-310.5" font-family="Helvetica,sans-Serif" font-size="10.00">m2i</text>
</a>
</g>
</g>
<!-- Node4&#45;&gt;Node8 -->
<g id="edge8" class="edge"><title>Node4&#45;&gt;Node8</title>
<path fill="none" stroke="midnightblue" d="M189.775,-341.801C210.627,-335.359 238.18,-326.847 257.915,-320.75"/>
<polygon fill="midnightblue" stroke="midnightblue" points="259.192,-324.019 267.713,-317.723 257.126,-317.331 259.192,-324.019"/>
</g>
<!-- Node13 -->
<g id="node13" class="node"><title>Node13</title>
<g id="a_node13"><a xlink:href="libmorse_8cpp.html#ab94e088615119d1faae7df22ce50aedf" target="_top" xlink:title="Transmit a Morse code prosign indicating an error. ">
<polygon fill="white" stroke="black" points="391,-208.5 391,-227.5 437,-227.5 437,-208.5 391,-208.5"/>
<text text-anchor="middle" x="414" y="-215.5" font-family="Helvetica,sans-Serif" font-size="10.00">txError</text>
</a>
</g>
</g>
<!-- Node4&#45;&gt;Node13 -->
<g id="edge55" class="edge"><title>Node4&#45;&gt;Node13</title>
<path fill="none" stroke="midnightblue" d="M172.474,-341.367C188.323,-329.382 216.776,-308.706 243,-294 255.807,-286.818 336.049,-251.556 381.566,-231.684"/>
<polygon fill="midnightblue" stroke="midnightblue" points="383.218,-234.782 390.985,-227.576 380.419,-228.366 383.218,-234.782"/>
</g>
<!-- Node14 -->
<g id="node14" class="node"><title>Node14</title>
<g id="a_node14"><a xlink:href="libmorse_8cpp.html#a0ee2308940264ea9ac8e50afc1a4d285" target="_top" xlink:title="txString">
<polygon fill="white" stroke="black" points="511,-275.5 511,-294.5 561,-294.5 561,-275.5 511,-275.5"/>
<text text-anchor="middle" x="536" y="-282.5" font-family="Helvetica,sans-Serif" font-size="10.00">txString</text>
</a>
</g>
</g>
<!-- Node4&#45;&gt;Node14 -->
<g id="edge50" class="edge"><title>Node4&#45;&gt;Node14</title>
<path fill="none" stroke="midnightblue" d="M189.802,-354.321C245.869,-359.459 370.113,-365.543 467,-332 485.912,-325.453 504.398,-312.092 517.31,-301.283"/>
<polygon fill="midnightblue" stroke="midnightblue" points="519.692,-303.851 524.939,-294.646 515.097,-298.569 519.692,-303.851"/>
</g>
<!-- Node38 -->
<g id="node38" class="node"><title>Node38</title>
<g id="a_node38"><a xlink:href="pda_8cpp.html#a1a806231b654cc29df4a12c73249b662" target="_top" xlink:title="digitErrCount">
<polygon fill="white" stroke="black" points="247,-227.5 247,-246.5 321,-246.5 321,-227.5 247,-227.5"/>
<text text-anchor="middle" x="284" y="-234.5" font-family="Helvetica,sans-Serif" font-size="10.00">digitErrCount</text>
</a>
</g>
</g>
<!-- Node4&#45;&gt;Node38 -->
<g id="edge51" class="edge"><title>Node4&#45;&gt;Node38</title>
<path fill="none" stroke="midnightblue" d="M167.246,-341.496C180.808,-324.112 211.513,-286.626 243,-261 246.879,-257.843 251.213,-254.813 255.559,-252.032"/>
<polygon fill="midnightblue" stroke="midnightblue" points="257.606,-254.884 264.35,-246.713 253.982,-248.895 257.606,-254.884"/>
</g>
<!-- Node39 -->
<g id="node39" class="node"><title>Node39</title>
<g id="a_node39"><a xlink:href="stack_8cpp.html#a7a8a89da82371dc2324696e7dfacad5e" target="_top" xlink:title="Pop the stack n times or until it is empty. ">
<polygon fill="white" stroke="black" points="264,-455.5 264,-474.5 304,-474.5 304,-455.5 264,-455.5"/>
<text text-anchor="middle" x="284" y="-462.5" font-family="Helvetica,sans-Serif" font-size="10.00">popN</text>
</a>
</g>
</g>
<!-- Node4&#45;&gt;Node39 -->
<g id="edge52" class="edge"><title>Node4&#45;&gt;Node39</title>
<path fill="none" stroke="midnightblue" d="M167.246,-360.504C180.808,-377.888 211.513,-415.374 243,-441 246.879,-444.157 251.213,-447.187 255.559,-449.968"/>
<polygon fill="midnightblue" stroke="midnightblue" points="253.982,-453.105 264.35,-455.287 257.606,-447.116 253.982,-453.105"/>
</g>
<!-- Node6 -->
<g id="node6" class="node"><title>Node6</title>
<g id="a_node6"><a xlink:href="class_stack.html#afc30a7ee287e14f08802c2d43613f2b4" target="_top" xlink:title="Return the number of elements currently in the stack. ">
<polygon fill="white" stroke="black" points="503,-455.5 503,-474.5 569,-474.5 569,-455.5 503,-455.5"/>
<text text-anchor="middle" x="536" y="-462.5" font-family="Helvetica,sans-Serif" font-size="10.00">Stack::size</text>
</a>
</g>
</g>
<!-- Node5&#45;&gt;Node6 -->
<g id="edge5" class="edge"><title>Node5&#45;&gt;Node6</title>
<path fill="none" stroke="midnightblue" d="M445.281,-436.589C460.346,-441.359 478.754,-447.189 494.967,-452.323"/>
<polygon fill="midnightblue" stroke="midnightblue" points="494.139,-455.732 504.729,-455.414 496.252,-449.058 494.139,-455.732"/>
</g>
<!-- Node7&#45;&gt;Node5 -->
<g id="edge7" class="edge"><title>Node7&#45;&gt;Node5</title>
<path fill="none" stroke="midnightblue" d="M298.698,-393.067C315.893,-398.171 346.173,-407.161 371.249,-414.605"/>
<polygon fill="midnightblue" stroke="midnightblue" points="370.334,-417.985 380.917,-417.475 372.327,-411.274 370.334,-417.985"/>
</g>
<!-- Node9 -->
<g id="node9" class="node"><title>Node9</title>
<g id="a_node9"><a xlink:href="class_morse_token.html#a8c36a957ebc90172eae960757c72d3a4" target="_top" xlink:title="Convert to a single ASCII character. ">
<polygon fill="white" stroke="black" points="361,-303.5 361,-322.5 467,-322.5 467,-303.5 361,-303.5"/>
<text text-anchor="middle" x="414" y="-310.5" font-family="Helvetica,sans-Serif" font-size="10.00">MorseToken::toChar</text>
</a>
</g>
</g>
<!-- Node8&#45;&gt;Node9 -->
<g id="edge9" class="edge"><title>Node8&#45;&gt;Node9</title>
<path fill="none" stroke="midnightblue" d="M300.186,-313C312.872,-313 331.859,-313 350.655,-313"/>
<polygon fill="midnightblue" stroke="midnightblue" points="350.733,-316.5 360.733,-313 350.733,-309.5 350.733,-316.5"/>
</g>
<!-- Node8&#45;&gt;Node13 -->
<g id="edge13" class="edge"><title>Node8&#45;&gt;Node13</title>
<path fill="none" stroke="midnightblue" d="M300.127,-304.588C307.745,-300.186 317.033,-294.564 325,-289 349.895,-271.613 376.835,-249.315 394.259,-234.389"/>
<polygon fill="midnightblue" stroke="midnightblue" points="396.715,-236.892 401.997,-227.708 392.141,-231.594 396.715,-236.892"/>
</g>
<!-- Node10 -->
<g id="node10" class="node"><title>Node10</title>
<g id="a_node10"><a xlink:href="morse__token_8h.html#a98f44690e97cbd7ea9445ca0a560a564" target="_top" xlink:title="Convert a Morse code into ASCII. ">
<polygon fill="white" stroke="black" points="518.5,-417.5 518.5,-436.5 553.5,-436.5 553.5,-417.5 518.5,-417.5"/>
<text text-anchor="middle" x="536" y="-424.5" font-family="Helvetica,sans-Serif" font-size="10.00">m2a</text>
</a>
</g>
</g>
<!-- Node9&#45;&gt;Node10 -->
<g id="edge10" class="edge"><title>Node9&#45;&gt;Node10</title>
<path fill="none" stroke="midnightblue" d="M425.231,-322.72C445.689,-342.154 491.854,-386.011 517.315,-410.199"/>
<polygon fill="midnightblue" stroke="midnightblue" points="515.134,-412.955 524.795,-417.305 519.955,-407.88 515.134,-412.955"/>
</g>
<!-- Node11 -->
<g id="node11" class="node"><title>Node11</title>
<g id="a_node11"><a xlink:href="class_morse_token.html#a48cd72aeb868391449d1f51c1d0bf5cc" target="_top" xlink:title="Treat code == 0 as the error token. ">
<polygon fill="white" stroke="black" points="1180,-475.5 1180,-494.5 1277,-494.5 1277,-475.5 1180,-475.5"/>
<text text-anchor="middle" x="1228.5" y="-482.5" font-family="Helvetica,sans-Serif" font-size="10.00">MorseToken::valid</text>
</a>
</g>
</g>
<!-- Node10&#45;&gt;Node11 -->
<g id="edge11" class="edge"><title>Node10&#45;&gt;Node11</title>
<path fill="none" stroke="midnightblue" d="M553.516,-434.554C558.903,-437.572 564.619,-441.428 569,-446 592.387,-470.409 576.775,-494.397 605,-513 685.465,-566.034 724.629,-532 821,-532 821,-532 821,-532 980.5,-532 1054.67,-532 1139.19,-511.295 1187.65,-497.37"/>
<polygon fill="midnightblue" stroke="midnightblue" points="1188.81,-500.677 1197.43,-494.511 1186.85,-493.958 1188.81,-500.677"/>
</g>
<!-- Node12 -->
<g id="node12" class="node"><title>Node12</title>
<g id="a_node12"><a xlink:href="class_morse_token.html#adc74054417a8636c1d34d43c34628731" target="_top" xlink:title="Treat code == 1 as a space. ">
<polygon fill="white" stroke="black" points="612.5,-484.5 612.5,-503.5 715.5,-503.5 715.5,-484.5 612.5,-484.5"/>
<text text-anchor="middle" x="664" y="-491.5" font-family="Helvetica,sans-Serif" font-size="10.00">MorseToken::pause</text>
</a>
</g>
</g>
<!-- Node10&#45;&gt;Node12 -->
<g id="edge12" class="edge"><title>Node10&#45;&gt;Node12</title>
<path fill="none" stroke="midnightblue" d="M553.379,-436.503C558.422,-439.488 563.97,-442.833 569,-446 585.273,-456.246 588.035,-460.947 605,-470 612.098,-473.788 619.926,-477.387 627.472,-480.591"/>
<polygon fill="midnightblue" stroke="midnightblue" points="626.224,-483.862 636.804,-484.423 628.883,-477.387 626.224,-483.862"/>
</g>
<!-- Node13&#45;&gt;Node14 -->
<g id="edge14" class="edge"><title>Node13&#45;&gt;Node14</title>
<path fill="none" stroke="midnightblue" d="M432.193,-227.599C452.243,-238.794 485.599,-257.418 508.86,-270.405"/>
<polygon fill="midnightblue" stroke="midnightblue" points="507.401,-273.599 517.839,-275.418 510.814,-267.487 507.401,-273.599"/>
</g>
<!-- Node15 -->
<g id="node15" class="node"><title>Node15</title>
<g id="a_node15"><a xlink:href="teensy3__morse__bsp_8cpp.html#ab306f692c5c9455a0c82782a67ff0147" target="_top" xlink:title="touchPoll">
<polygon fill="white" stroke="black" points="951,-294.5 951,-313.5 1008,-313.5 1008,-294.5 951,-294.5"/>
<text text-anchor="middle" x="979.5" y="-301.5" font-family="Helvetica,sans-Serif" font-size="10.00">touchPoll</text>
</a>
</g>
</g>
<!-- Node14&#45;&gt;Node15 -->
<g id="edge15" class="edge"><title>Node14&#45;&gt;Node15</title>
<path fill="none" stroke="midnightblue" d="M561.05,-286.035C633.848,-289.168 852.23,-298.566 940.682,-302.372"/>
<polygon fill="midnightblue" stroke="midnightblue" points="940.665,-305.875 950.806,-302.808 940.966,-298.881 940.665,-305.875"/>
</g>
<!-- Node17 -->
<g id="node17" class="node"><title>Node17</title>
<g id="a_node17"><a xlink:href="settings_8cpp.html#a960551e90dfdad18f3c9b1338ccba7db" target="_top" xlink:title="Get the dit duration in microseconds. ">
<polygon fill="white" stroke="black" points="1192.5,-370.5 1192.5,-389.5 1264.5,-389.5 1264.5,-370.5 1192.5,-370.5"/>
<text text-anchor="middle" x="1228.5" y="-377.5" font-family="Helvetica,sans-Serif" font-size="10.00">getDitMicros</text>
</a>
</g>
</g>
<!-- Node14&#45;&gt;Node17 -->
<g id="edge17" class="edge"><title>Node14&#45;&gt;Node17</title>
<path fill="none" stroke="midnightblue" d="M538.008,-294.548C541.472,-322.059 555.552,-401.778 605,-437 683.494,-492.911 724.629,-456 821,-456 821,-456 821,-456 980.5,-456 1063.68,-456 1155.93,-416.14 1200.48,-394.154"/>
<polygon fill="midnightblue" stroke="midnightblue" points="1202.13,-397.242 1209.5,-389.625 1198.99,-390.986 1202.13,-397.242"/>
</g>
<!-- Node18 -->
<g id="node18" class="node"><title>Node18</title>
<g id="a_node18"><a xlink:href="libmorse_8cpp.html#a9fdfce728595d72b78dc7c834ab99a40" target="_top" xlink:title="Transmit a literal Morse code value. ">
<polygon fill="white" stroke="black" points="1083.5,-256.5 1083.5,-275.5 1134.5,-275.5 1134.5,-256.5 1083.5,-256.5"/>
<text text-anchor="middle" x="1109" y="-263.5" font-family="Helvetica,sans-Serif" font-size="10.00">txLiteral</text>
</a>
</g>
</g>
<!-- Node14&#45;&gt;Node18 -->
<g id="edge18" class="edge"><title>Node14&#45;&gt;Node18</title>
<path fill="none" stroke="midnightblue" d="M561.17,-284.196C651.16,-281.201 967.031,-270.691 1073.02,-267.164"/>
<polygon fill="midnightblue" stroke="midnightblue" points="1073.3,-270.657 1083.18,-266.826 1073.07,-263.66 1073.3,-270.657"/>
</g>
<!-- Node26 -->
<g id="node26" class="node"><title>Node26</title>
<g id="a_node26"><a xlink:href="libmorse_8cpp.html#acd4b292f5e412ee4f05aed9dafbc072d" target="_top" xlink:title="Convert an ASCII character into Morse code and transmit it. ">
<polygon fill="white" stroke="black" points="954.5,-123.5 954.5,-142.5 1004.5,-142.5 1004.5,-123.5 954.5,-123.5"/>
<text text-anchor="middle" x="979.5" y="-130.5" font-family="Helvetica,sans-Serif" font-size="10.00">txLetter</text>
</a>
</g>
</g>
<!-- Node14&#45;&gt;Node26 -->
<g id="edge29" class="edge"><title>Node14&#45;&gt;Node26</title>
<path fill="none" stroke="midnightblue" d="M537.162,-275.389C538.268,-244.339 546.441,-146.396 605,-106 712.368,-31.9331 880.854,-90.5458 948.711,-119.364"/>
<polygon fill="midnightblue" stroke="midnightblue" points="947.407,-122.613 957.974,-123.38 950.191,-116.191 947.407,-122.613"/>
</g>
<!-- Node27 -->
<g id="node27" class="node"><title>Node27</title>
<g id="a_node27"><a xlink:href="teensy3__morse__bsp_8cpp.html#a8761e874366e227690fba2964e1bc445" target="_top" xlink:title="getInternalTemperatureC">
<polygon fill="white" stroke="black" points="759.5,-123.5 759.5,-142.5 884.5,-142.5 884.5,-123.5 759.5,-123.5"/>
<text text-anchor="middle" x="822" y="-130.5" font-family="Helvetica,sans-Serif" font-size="10.00">getInternalTemperatureC</text>
</a>
</g>
</g>
<!-- Node14&#45;&gt;Node27 -->
<g id="edge32" class="edge"><title>Node14&#45;&gt;Node27</title>
<path fill="none" stroke="midnightblue" d="M537.863,-275.239C540.934,-247.149 554.055,-166.019 605,-133 657.953,-98.6791 734.618,-109.478 780.944,-120.909"/>
<polygon fill="midnightblue" stroke="midnightblue" points="780.352,-124.371 790.911,-123.494 782.11,-117.596 780.352,-124.371"/>
</g>
<!-- Node28 -->
<g id="node28" class="node"><title>Node28</title>
<g id="a_node28"><a xlink:href="libmorse_8cpp.html#a47abdd74b66d7180c47d192bab8bdccb" target="_top" xlink:title="Transmit an unsigned integer in Morse code. ">
<polygon fill="white" stroke="black" points="789,-180.5 789,-199.5 855,-199.5 855,-180.5 789,-180.5"/>
<text text-anchor="middle" x="822" y="-187.5" font-family="Helvetica,sans-Serif" font-size="10.00">txUnsigned</text>
</a>
</g>
</g>
<!-- Node14&#45;&gt;Node28 -->
<g id="edge33" class="edge"><title>Node14&#45;&gt;Node28</title>
<path fill="none" stroke="midnightblue" d="M542.231,-275.454C552.034,-258.631 574.922,-224.064 605,-209 660.115,-181.396 733.095,-181.331 778.537,-184.87"/>
<polygon fill="midnightblue" stroke="midnightblue" points="778.367,-188.368 788.633,-185.751 778.975,-181.394 778.367,-188.368"/>
</g>
<!-- Node29 -->
<g id="node29" class="node"><title>Node29</title>
<g id="a_node29"><a xlink:href="actions_8cpp.html#aed718ec1bd4cc7adb2f65d40a6784496" target="_top" xlink:title="Transmit the internal temperature in integer in Fahrenheit. ">
<polygon fill="white" stroke="black" points="605,-142.5 605,-161.5 723,-161.5 723,-142.5 605,-142.5"/>
<text text-anchor="middle" x="664" y="-149.5" font-family="Helvetica,sans-Serif" font-size="10.00">txInternalTemperatureF</text>
</a>
</g>
</g>
<!-- Node14&#45;&gt;Node29 -->
<g id="edge36" class="edge"><title>Node14&#45;&gt;Node29</title>
<path fill="none" stroke="midnightblue" d="M540.575,-275.461C548.827,-254.638 571.129,-204.685 605,-176 609.635,-172.075 615.001,-168.721 620.56,-165.876"/>
<polygon fill="midnightblue" stroke="midnightblue" points="622.364,-168.9 630.002,-161.558 619.452,-162.534 622.364,-168.9"/>
</g>
<!-- Node30 -->
<g id="node30" class="node"><title>Node30</title>
<g id="a_node30"><a xlink:href="actions_8cpp.html#aaabb3ac0c23f35a499bc17efe829f326" target="_top" xlink:title="Transmit the 24&#45;hr time. ">
<polygon fill="white" stroke="black" points="625,-370.5 625,-389.5 703,-389.5 703,-370.5 625,-370.5"/>
<text text-anchor="middle" x="664" y="-377.5" font-family="Helvetica,sans-Serif" font-size="10.00">txTimeHHMM</text>
</a>
</g>
</g>
<!-- Node14&#45;&gt;Node30 -->
<g id="edge39" class="edge"><title>Node14&#45;&gt;Node30</title>
<path fill="none" stroke="midnightblue" d="M549.478,-294.673C562.053,-308.302 582.738,-331.781 605,-347 616.55,-354.896 631.104,-360.909 642.743,-366.076"/>
<polygon fill="midnightblue" stroke="midnightblue" points="641.53,-369.372 652.072,-370.426 644.488,-363.028 641.53,-369.372"/>
</g>
<!-- Node31 -->
<g id="node31" class="node"><title>Node31</title>
<g id="a_node31"><a xlink:href="actions_8cpp.html#ad02149679fa3cc6a4957d1a318408ffd" target="_top" xlink:title="Transmit the uptime. ">
<polygon fill="white" stroke="black" points="636,-218.5 636,-237.5 692,-237.5 692,-218.5 636,-218.5"/>
<text text-anchor="middle" x="664" y="-225.5" font-family="Helvetica,sans-Serif" font-size="10.00">txUptime</text>
</a>
</g>
</g>
<!-- Node14&#45;&gt;Node31 -->
<g id="edge41" class="edge"><title>Node14&#45;&gt;Node31</title>
<path fill="none" stroke="midnightblue" d="M555.91,-275.449C569.475,-268.69 588.241,-259.526 605,-252 612.845,-248.477 621.365,-244.846 629.398,-241.507"/>
<polygon fill="midnightblue" stroke="midnightblue" points="630.961,-244.649 638.877,-237.607 628.297,-238.175 630.961,-244.649"/>
</g>
<!-- Node33 -->
<g id="node33" class="node"><title>Node33</title>
<g id="a_node33"><a xlink:href="teensy3__morse__bsp_8cpp.html#ae8dd28759e56dbd2ee9bc9ae96d1783c" target="_top" xlink:title="Return the most recent ADC measurement of the input voltage. Perform analog to digital conversion on ...">
<polygon fill="white" stroke="black" points="627,-408.5 627,-427.5 701,-427.5 701,-408.5 627,-408.5"/>
<text text-anchor="middle" x="664" y="-415.5" font-family="Helvetica,sans-Serif" font-size="10.00">readMillivolts</text>
</a>
</g>
</g>
<!-- Node14&#45;&gt;Node33 -->
<g id="edge44" class="edge"><title>Node14&#45;&gt;Node33</title>
<path fill="none" stroke="midnightblue" d="M540.059,-294.518C547.538,-316.288 568.83,-370.063 605,-399 608.783,-402.026 613.064,-404.578 617.546,-406.727"/>
<polygon fill="midnightblue" stroke="midnightblue" points="616.35,-410.02 626.929,-410.599 619.02,-403.549 616.35,-410.02"/>
</g>
<!-- Node37 -->
<g id="node37" class="node"><title>Node37</title>
<g id="a_node37"><a xlink:href="libmorse_8cpp.html#ac3f000c98271c6d0a7710135e18189bc" target="_top" xlink:title="On my hardware there is cross&#45;coupling between the serial port and the touch sensors. Without the code below, long messages to the serial port trigger a touch input. ">
<polygon fill="white" stroke="black" points="789.5,-332.5 789.5,-351.5 854.5,-351.5 854.5,-332.5 789.5,-332.5"/>
<text text-anchor="middle" x="822" y="-339.5" font-family="Helvetica,sans-Serif" font-size="10.00">flushTouch</text>
</a>
</g>
</g>
<!-- Node14&#45;&gt;Node37 -->
<g id="edge48" class="edge"><title>Node14&#45;&gt;Node37</title>
<path fill="none" stroke="midnightblue" d="M552.863,-294.632C566.262,-302.285 586.216,-312.573 605,-318 663.895,-335.014 735.037,-340.099 779.159,-341.543"/>
<polygon fill="midnightblue" stroke="midnightblue" points="779.135,-345.044 789.229,-341.825 779.331,-338.047 779.135,-345.044"/>
</g>
<!-- Node16 -->
<g id="node16" class="node"><title>Node16</title>
<g id="a_node16"><a xlink:href="teensy3__morse__bsp_8cpp.html#af6899cd9b83df54106b259ab81ea5cb2" target="_top" xlink:title="touchMargin">
<polygon fill="white" stroke="black" points="1074,-294.5 1074,-313.5 1144,-313.5 1144,-294.5 1074,-294.5"/>
<text text-anchor="middle" x="1109" y="-301.5" font-family="Helvetica,sans-Serif" font-size="10.00">touchMargin</text>
</a>
</g>
</g>
<!-- Node15&#45;&gt;Node16 -->
<g id="edge16" class="edge"><title>Node15&#45;&gt;Node16</title>
<path fill="none" stroke="midnightblue" d="M1008.17,-304C1024.28,-304 1044.98,-304 1063.35,-304"/>
<polygon fill="midnightblue" stroke="midnightblue" points="1063.56,-307.5 1073.56,-304 1063.56,-300.5 1063.56,-307.5"/>
</g>
<!-- Node18&#45;&gt;Node11 -->
<g id="edge19" class="edge"><title>Node18&#45;&gt;Node11</title>
<path fill="none" stroke="midnightblue" d="M1133.03,-275.703C1137.11,-278.246 1141.01,-281.33 1144,-285 1177.56,-326.196 1159.05,-350.171 1180,-399 1190.34,-423.11 1205.4,-449.294 1215.78,-466.356"/>
<polygon fill="midnightblue" stroke="midnightblue" points="1213.05,-468.591 1221.28,-475.263 1219,-464.915 1213.05,-468.591"/>
</g>
<!-- Node18&#45;&gt;Node13 -->
<g id="edge28" class="edge"><title>Node18&#45;&gt;Node13</title>
<path fill="none" stroke="midnightblue" d="M1105.83,-256.228C1099.58,-230.109 1079.32,-157.698 1038,-114 963.691,-35.4114 931.157,-0 823,-0 663,-0 663,-0 663,-0 583.495,-0 562.065,-26.7803 503,-80 464.458,-114.728 436.131,-170.114 423.053,-199.027"/>
<polygon fill="midnightblue" stroke="midnightblue" points="419.755,-197.831 418.934,-208.394 426.163,-200.649 419.755,-197.831"/>
</g>
<!-- Node18&#45;&gt;Node17 -->
<g id="edge27" class="edge"><title>Node18&#45;&gt;Node17</title>
<path fill="none" stroke="midnightblue" d="M1129.79,-275.571C1134.65,-278.313 1139.69,-281.515 1144,-285 1172.71,-308.203 1199.73,-341.902 1214.89,-362.304"/>
<polygon fill="midnightblue" stroke="midnightblue" points="1212.08,-364.399 1220.81,-370.411 1217.74,-360.271 1212.08,-364.399"/>
</g>
<!-- Node19 -->
<g id="node19" class="node"><title>Node19</title>
<g id="a_node19"><a xlink:href="teensy3__morse__bsp_8cpp.html#af66e71e3fac9b6a2c6532bc8a513bfde" target="_top" xlink:title="Output a square wave on pin 10 at the given frequency for the given duration. ">
<polygon fill="white" stroke="black" points="1209.5,-275.5 1209.5,-294.5 1247.5,-294.5 1247.5,-275.5 1209.5,-275.5"/>
<text text-anchor="middle" x="1228.5" y="-282.5" font-family="Helvetica,sans-Serif" font-size="10.00">beep</text>
</a>
</g>
</g>
<!-- Node18&#45;&gt;Node19 -->
<g id="edge20" class="edge"><title>Node18&#45;&gt;Node19</title>
<path fill="none" stroke="midnightblue" d="M1134.63,-269.983C1153.57,-273.045 1179.75,-277.278 1199.48,-280.47"/>
<polygon fill="midnightblue" stroke="midnightblue" points="1198.99,-283.935 1209.42,-282.076 1200.11,-277.025 1198.99,-283.935"/>
</g>
<!-- Node25 -->
<g id="node25" class="node"><title>Node25</title>
<g id="a_node25"><a xlink:href="settings_8cpp.html#a8575b9b52638114a4f32d1462cf9b7c1" target="_top" xlink:title="Get the transmission frequency (side tone). ">
<polygon fill="white" stroke="black" points="1201.5,-237.5 1201.5,-256.5 1255.5,-256.5 1255.5,-237.5 1201.5,-237.5"/>
<text text-anchor="middle" x="1228.5" y="-244.5" font-family="Helvetica,sans-Serif" font-size="10.00">getTxHz</text>
</a>
</g>
</g>
<!-- Node18&#45;&gt;Node25 -->
<g id="edge26" class="edge"><title>Node18&#45;&gt;Node25</title>
<path fill="none" stroke="midnightblue" d="M1134.63,-262.017C1151.02,-259.367 1172.83,-255.84 1191.2,-252.87"/>
<polygon fill="midnightblue" stroke="midnightblue" points="1191.96,-256.293 1201.27,-251.242 1190.84,-249.383 1191.96,-256.293"/>
</g>
<!-- Node20 -->
<g id="node20" class="node"><title>Node20</title>
<g id="a_node20"><a xlink:href="teensy3__morse__bsp_8cpp.html#a6f674d5b9985ea3a7eeb0df299c2e405" target="_top" xlink:title="pollEarphonePresent">
<polygon fill="white" stroke="black" points="1313,-332.5 1313,-351.5 1420,-351.5 1420,-332.5 1313,-332.5"/>
<text text-anchor="middle" x="1366.5" y="-339.5" font-family="Helvetica,sans-Serif" font-size="10.00">pollEarphonePresent</text>
</a>
</g>
</g>
<!-- Node19&#45;&gt;Node20 -->
<g id="edge21" class="edge"><title>Node19&#45;&gt;Node20</title>
<path fill="none" stroke="midnightblue" d="M1247.56,-293.725C1264.35,-301.715 1290.14,-313.679 1313,-323 1317.87,-324.985 1323.03,-326.981 1328.14,-328.896"/>
<polygon fill="midnightblue" stroke="midnightblue" points="1327.23,-332.289 1337.82,-332.451 1329.64,-325.718 1327.23,-332.289"/>
</g>
<!-- Node21 -->
<g id="node21" class="node"><title>Node21</title>
<g id="a_node21"><a xlink:href="teensy3__morse__bsp_8cpp.html#a2d6b4ace33ed5e497dedd03217540c63" target="_top" xlink:title="Set the PWM frequency for the audio output pins. ">
<polygon fill="white" stroke="black" points="1325,-294.5 1325,-313.5 1408,-313.5 1408,-294.5 1325,-294.5"/>
<text text-anchor="middle" x="1366.5" y="-301.5" font-family="Helvetica,sans-Serif" font-size="10.00">pwmFrequency</text>
</a>
</g>
</g>
<!-- Node19&#45;&gt;Node21 -->
<g id="edge22" class="edge"><title>Node19&#45;&gt;Node21</title>
<path fill="none" stroke="midnightblue" d="M1247.56,-287.523C1264.62,-289.906 1291.02,-293.594 1314.52,-296.878"/>
<polygon fill="midnightblue" stroke="midnightblue" points="1314.33,-300.386 1324.72,-298.303 1315.3,-293.453 1314.33,-300.386"/>
</g>
<!-- Node22 -->
<g id="node22" class="node"><title>Node22</title>
<g id="a_node22"><a xlink:href="teensy3__morse__bsp_8cpp.html#a82911eac3bf13d6f36d10102a4c4d3c4" target="_top" xlink:title="Generate a tone on the audio output pins. ">
<polygon fill="white" stroke="black" points="1336,-256.5 1336,-275.5 1397,-275.5 1397,-256.5 1336,-256.5"/>
<text text-anchor="middle" x="1366.5" y="-263.5" font-family="Helvetica,sans-Serif" font-size="10.00">pwmWrite</text>
</a>
</g>
</g>
<!-- Node19&#45;&gt;Node22 -->
<g id="edge23" class="edge"><title>Node19&#45;&gt;Node22</title>
<path fill="none" stroke="midnightblue" d="M1247.56,-282.477C1267.46,-279.697 1300.08,-275.139 1325.98,-271.521"/>
<polygon fill="midnightblue" stroke="midnightblue" points="1326.47,-274.987 1335.89,-270.137 1325.5,-268.054 1326.47,-274.987"/>
</g>
<!-- Node24 -->
<g id="node24" class="node"><title>Node24</title>
<g id="a_node24"><a xlink:href="teensy3__morse__bsp_8cpp.html#a6c982a7d7805f1dd5426eb98c915cfdd" target="_top" xlink:title="Turn the red LED on (1) or off (0). ">
<polygon fill="white" stroke="black" points="1341.5,-218.5 1341.5,-237.5 1391.5,-237.5 1391.5,-218.5 1341.5,-218.5"/>
<text text-anchor="middle" x="1366.5" y="-225.5" font-family="Helvetica,sans-Serif" font-size="10.00">redLED</text>
</a>
</g>
</g>
<!-- Node19&#45;&gt;Node24 -->
<g id="edge25" class="edge"><title>Node19&#45;&gt;Node24</title>
<path fill="none" stroke="midnightblue" d="M1247.73,-278.223C1256.65,-274.779 1267.49,-270.398 1277,-266 1293.42,-258.408 1296.45,-254.318 1313,-247 1318.99,-244.35 1325.48,-241.774 1331.78,-239.419"/>
<polygon fill="midnightblue" stroke="midnightblue" points="1333.23,-242.617 1341.44,-235.92 1330.85,-236.036 1333.23,-242.617"/>
</g>
<!-- Node23 -->
<g id="node23" class="node"><title>Node23</title>
<g id="a_node23"><a xlink:href="teensy3__morse__bsp_8cpp.html#ac70998cee1bf97f00aec4a1b4e5a4f60" target="_top" xlink:title="isEarphonePresent">
<polygon fill="white" stroke="black" points="1456,-256.5 1456,-275.5 1555,-275.5 1555,-256.5 1456,-256.5"/>
<text text-anchor="middle" x="1505.5" y="-263.5" font-family="Helvetica,sans-Serif" font-size="10.00">isEarphonePresent</text>
</a>
</g>
</g>
<!-- Node22&#45;&gt;Node23 -->
<g id="edge24" class="edge"><title>Node22&#45;&gt;Node23</title>
<path fill="none" stroke="midnightblue" d="M1397.23,-266C1411.43,-266 1428.96,-266 1445.7,-266"/>
<polygon fill="midnightblue" stroke="midnightblue" points="1445.98,-269.5 1455.98,-266 1445.98,-262.5 1445.98,-269.5"/>
</g>
<!-- Node26&#45;&gt;Node13 -->
<g id="edge31" class="edge"><title>Node26&#45;&gt;Node13</title>
<path fill="none" stroke="midnightblue" d="M969.252,-123.402C953.622,-107.955 920.225,-78.1801 885,-67 766.386,-29.3535 722.495,-25.997 605,-67 527.946,-93.8899 458.725,-166.53 429.594,-200.298"/>
<polygon fill="midnightblue" stroke="midnightblue" points="426.559,-198.465 422.768,-208.358 431.901,-202.989 426.559,-198.465"/>
</g>
<!-- Node26&#45;&gt;Node18 -->
<g id="edge30" class="edge"><title>Node26&#45;&gt;Node18</title>
<path fill="none" stroke="midnightblue" d="M989.669,-142.565C1010.98,-164.791 1064.08,-220.188 1091.32,-248.597"/>
<polygon fill="midnightblue" stroke="midnightblue" points="1089.12,-251.366 1098.57,-256.163 1094.18,-246.522 1089.12,-251.366"/>
</g>
<!-- Node28&#45;&gt;Node15 -->
<g id="edge34" class="edge"><title>Node28&#45;&gt;Node15</title>
<path fill="none" stroke="midnightblue" d="M855.192,-196.601C865.19,-199.491 875.953,-203.511 885,-209 918.757,-229.482 949.051,-264.863 965.502,-286.184"/>
<polygon fill="midnightblue" stroke="midnightblue" points="962.862,-288.496 971.675,-294.376 968.453,-284.283 962.862,-288.496"/>
</g>
<!-- Node28&#45;&gt;Node26 -->
<g id="edge35" class="edge"><title>Node28&#45;&gt;Node26</title>
<path fill="none" stroke="midnightblue" d="M849.027,-180.459C875.323,-170.821 916.064,-155.886 944.811,-145.349"/>
<polygon fill="midnightblue" stroke="midnightblue" points="946.25,-148.549 954.435,-141.821 943.841,-141.977 946.25,-148.549"/>
</g>
<!-- Node29&#45;&gt;Node27 -->
<g id="edge37" class="edge"><title>Node29&#45;&gt;Node27</title>
<path fill="none" stroke="midnightblue" d="M723.089,-144.925C731.711,-143.875 740.682,-142.782 749.54,-141.704"/>
<polygon fill="midnightblue" stroke="midnightblue" points="749.964,-145.178 759.467,-140.494 749.117,-138.229 749.964,-145.178"/>
</g>
<!-- Node29&#45;&gt;Node28 -->
<g id="edge38" class="edge"><title>Node29&#45;&gt;Node28</title>
<path fill="none" stroke="midnightblue" d="M704.365,-161.589C727.167,-167.143 755.861,-174.133 779.083,-179.789"/>
<polygon fill="midnightblue" stroke="midnightblue" points="778.451,-183.238 788.996,-182.204 780.108,-176.437 778.451,-183.238"/>
</g>
<!-- Node30&#45;&gt;Node14 -->
<g id="edge40" class="edge"><title>Node30&#45;&gt;Node14</title>
<path fill="none" stroke="midnightblue" d="M624.695,-375.648C617.873,-372.728 611.027,-369.121 605,-365 580.523,-348.267 557.953,-321.549 545.973,-303.291"/>
<polygon fill="midnightblue" stroke="midnightblue" points="548.892,-301.354 540.719,-294.612 542.903,-304.979 548.892,-301.354"/>
</g>
<!-- Node31&#45;&gt;Node28 -->
<g id="edge43" class="edge"><title>Node31&#45;&gt;Node28</title>
<path fill="none" stroke="midnightblue" d="M692.173,-221.381C716.119,-215.548 751.386,-206.957 778.968,-200.238"/>
<polygon fill="midnightblue" stroke="midnightblue" points="779.86,-203.624 788.748,-197.856 778.203,-196.823 779.86,-203.624"/>
</g>
<!-- Node32 -->
<g id="node32" class="node"><title>Node32</title>
<g id="a_node32"><a xlink:href="settings_8cpp.html#a7b4efa097b94f9a90c5bbafcdf93fe4f" target="_top" xlink:title="getUptime">
<polygon fill="white" stroke="black" points="791,-218.5 791,-237.5 853,-237.5 853,-218.5 791,-218.5"/>
<text text-anchor="middle" x="822" y="-225.5" font-family="Helvetica,sans-Serif" font-size="10.00">getUptime</text>
</a>
</g>
</g>
<!-- Node31&#45;&gt;Node32 -->
<g id="edge42" class="edge"><title>Node31&#45;&gt;Node32</title>
<path fill="none" stroke="midnightblue" d="M692.173,-228C716.633,-228 752.905,-228 780.735,-228"/>
<polygon fill="midnightblue" stroke="midnightblue" points="780.945,-231.5 790.945,-228 780.945,-224.5 780.945,-231.5"/>
</g>
<!-- Node34 -->
<g id="node34" class="node"><title>Node34</title>
<g id="a_node34"><a xlink:href="class_voltage_monitor.html#a70902b84f9864c95d5553a0644a64f4f" target="_top" xlink:title="Return the latest voltage reading. ">
<polygon fill="white" stroke="black" points="759,-408.5 759,-427.5 885,-427.5 885,-408.5 759,-408.5"/>
<text text-anchor="middle" x="822" y="-415.5" font-family="Helvetica,sans-Serif" font-size="10.00">VoltageMonitor::getValue</text>
</a>
</g>
</g>
<!-- Node33&#45;&gt;Node34 -->
<g id="edge45" class="edge"><title>Node33&#45;&gt;Node34</title>
<path fill="none" stroke="midnightblue" d="M701.182,-418C715.344,-418 732.117,-418 748.56,-418"/>
<polygon fill="midnightblue" stroke="midnightblue" points="748.728,-421.5 758.728,-418 748.728,-414.5 748.728,-421.5"/>
</g>
<!-- Node35 -->
<g id="node35" class="node"><title>Node35</title>
<g id="a_node35"><a xlink:href="actions_8cpp.html#a2b8c3769e2aa32a2da9e2f3f85ac73dd" target="_top" xlink:title="A sample ADC reading is taken each time through the main loop, and written to a ring buffer...">
<polygon fill="white" stroke="black" points="923.5,-408.5 923.5,-427.5 1035.5,-427.5 1035.5,-408.5 923.5,-408.5"/>
<text text-anchor="middle" x="979.5" y="-415.5" font-family="Helvetica,sans-Serif" font-size="10.00">getVoltagePollInterval</text>
</a>
</g>
</g>
<!-- Node34&#45;&gt;Node35 -->
<g id="edge46" class="edge"><title>Node34&#45;&gt;Node35</title>
<path fill="none" stroke="midnightblue" d="M885.352,-418C894.438,-418 903.816,-418 912.963,-418"/>
<polygon fill="midnightblue" stroke="midnightblue" points="913.163,-421.5 923.163,-418 913.163,-414.5 913.163,-421.5"/>
</g>
<!-- Node36 -->
<g id="node36" class="node"><title>Node36</title>
<g id="a_node36"><a xlink:href="class_voltage_monitor.html#a75871331808c34b40d04059ee2af0f27" target="_top" xlink:title="Filter and scale raw ADC values to millivolts. ">
<polygon fill="white" stroke="black" points="921,-370.5 921,-389.5 1038,-389.5 1038,-370.5 921,-370.5"/>
<text text-anchor="middle" x="979.5" y="-377.5" font-family="Helvetica,sans-Serif" font-size="10.00">VoltageMonitor::update</text>
</a>
</g>
</g>
<!-- Node34&#45;&gt;Node36 -->
<g id="edge47" class="edge"><title>Node34&#45;&gt;Node36</title>
<path fill="none" stroke="midnightblue" d="M862.239,-408.411C882.759,-403.396 908.067,-397.212 929.825,-391.895"/>
<polygon fill="midnightblue" stroke="midnightblue" points="930.66,-395.294 939.543,-389.52 928.998,-388.494 930.66,-395.294"/>
</g>
<!-- Node37&#45;&gt;Node15 -->
<g id="edge49" class="edge"><title>Node37&#45;&gt;Node15</title>
<path fill="none" stroke="midnightblue" d="M854.843,-334.218C879.788,-328.123 914.554,-319.627 940.872,-313.195"/>
<polygon fill="midnightblue" stroke="midnightblue" points="941.98,-316.528 950.864,-310.754 940.318,-309.728 941.98,-316.528"/>
</g>
<!-- Node39&#45;&gt;Node6 -->
<g id="edge53" class="edge"><title>Node39&#45;&gt;Node6</title>
<path fill="none" stroke="midnightblue" d="M304.202,-465C344.268,-465 437.599,-465 492.519,-465"/>
<polygon fill="midnightblue" stroke="midnightblue" points="492.634,-468.5 502.634,-465 492.634,-461.5 492.634,-468.5"/>
</g>
<!-- Node40 -->
<g id="node40" class="node"><title>Node40</title>
<g id="a_node40"><a xlink:href="class_stack.html#a8b4caa181ab4cc209c270338e919cf8b" target="_top" xlink:title="Discard the top element, if the stack is not empty. ">
<polygon fill="white" stroke="black" points="382,-493.5 382,-512.5 446,-512.5 446,-493.5 382,-493.5"/>
<text text-anchor="middle" x="414" y="-500.5" font-family="Helvetica,sans-Serif" font-size="10.00">Stack::pop</text>
</a>
</g>
</g>
<!-- Node39&#45;&gt;Node40 -->
<g id="edge54" class="edge"><title>Node39&#45;&gt;Node40</title>
<path fill="none" stroke="midnightblue" d="M304.163,-470.689C322.024,-475.991 349.248,-484.074 371.999,-490.828"/>
<polygon fill="midnightblue" stroke="midnightblue" points="371.178,-494.235 381.761,-493.726 373.17,-487.524 371.178,-494.235"/>
</g>
<!-- Node41&#45;&gt;Node13 -->
<g id="edge58" class="edge"><title>Node41&#45;&gt;Node13</title>
<path fill="none" stroke="midnightblue" d="M191.59,-189.452C224.998,-180.728 279.113,-170.516 325,-180 346.933,-184.533 370.127,-194.803 387.194,-203.524"/>
<polygon fill="midnightblue" stroke="midnightblue" points="386.001,-206.852 396.478,-208.425 389.269,-200.662 386.001,-206.852"/>
</g>
<!-- Node42 -->
<g id="node42" class="node"><title>Node42</title>
<g id="a_node42"><a xlink:href="actions_8cpp.html#a9cfd0adeb55456558a4fcddce4901fc0" target="_top" xlink:title="restorePending">
<polygon fill="white" stroke="black" points="243,-189.5 243,-208.5 325,-208.5 325,-189.5 243,-189.5"/>
<text text-anchor="middle" x="284" y="-196.5" font-family="Helvetica,sans-Serif" font-size="10.00">restorePending</text>
</a>
</g>
</g>
<!-- Node41&#45;&gt;Node42 -->
<g id="edge57" class="edge"><title>Node41&#45;&gt;Node42</title>
<path fill="none" stroke="midnightblue" d="M199.256,-199C209.914,-199 221.602,-199 232.776,-199"/>
<polygon fill="midnightblue" stroke="midnightblue" points="232.849,-202.5 242.849,-199 232.849,-195.5 232.849,-202.5"/>
</g>
</g>
</svg>
        <g id="navigator" transform="translate(0 0)" fill="#404254">
                <rect fill="#f2f5e9" fill-opacity="0.5" stroke="#606060" stroke-width=".5" x="0" y="0" width="60" height="60"/>
                <use id="zoomplus" xlink:href="#zoomPlus" x="17" y="9" onmousedown="handleZoom(evt,'in')"/>
                <use id="zoomminus" xlink:href="#zoomMin" x="42" y="9" onmousedown="handleZoom(evt,'out')"/>
                <use id="reset" xlink:href="#resetDef" x="30" y="36" onmousedown="handleReset()"/>
                <g id="arrowUp" xlink:href="#dirArrow" transform="translate(30 24)" onmousedown="handlePan(0,-1)">
                  <use xlink:href="#rim" fill="#404040">
                        <set attributeName="fill" to="#808080" begin="arrowUp.mouseover" end="arrowUp.mouseout"/>
                  </use>
                  <path fill="none" stroke="white" stroke-width="1.5" d="M0,-3.0v7 M-2.5,-0.5L0,-3.0L2.5,-0.5"/>
                </g>
                <g id="arrowRight" xlink:href="#dirArrow" transform="rotate(90) translate(36 -43)" onmousedown="handlePan(1,0)">
                  <use xlink:href="#rim" fill="#404040">
                        <set attributeName="fill" to="#808080" begin="arrowRight.mouseover" end="arrowRight.mouseout"/>
                  </use>
                  <path fill="none" stroke="white" stroke-width="1.5" d="M0,-3.0v7 M-2.5,-0.5L0,-3.0L2.5,-0.5"/>
                </g>
                <g id="arrowDown" xlink:href="#dirArrow" transform="rotate(180) translate(-30 -48)" onmousedown="handlePan(0,1)">
                  <use xlink:href="#rim" fill="#404040">
                        <set attributeName="fill" to="#808080" begin="arrowDown.mouseover" end="arrowDown.mouseout"/>
                  </use>
                  <path fill="none" stroke="white" stroke-width="1.5" d="M0,-3.0v7 M-2.5,-0.5L0,-3.0L2.5,-0.5"/>
                </g>
                <g id="arrowLeft" xlink:href="#dirArrow" transform="rotate(270) translate(-36 17)" onmousedown="handlePan(-1,0)">
                  <use xlink:href="#rim" fill="#404040">
                        <set attributeName="fill" to="#808080" begin="arrowLeft.mouseover" end="arrowLeft.mouseout"/>
                  </use>
                  <path fill="none" stroke="white" stroke-width="1.5" d="M0,-3.0v7 M-2.5,-0.5L0,-3.0L2.5,-0.5"/>
                </g>
        </g>
        <svg viewBox="0 0 15 15" width="100%" height="30px" preserveAspectRatio="xMaxYMin meet">
         <g id="arrow_out" transform="scale(0.3 0.3)">
          <a xlink:href="pda_8cpp_a15825e7325bc5cdbd18cf2c6055baef1_cgraph_org.svg" target="_base">
           <rect id="button" ry="5" rx="5" y="6" x="6" height="38" width="38"
                fill="#f2f5e9" fill-opacity="0.5" stroke="#606060" stroke-width="1.0"/>
           <path id="arrow"
             d="M 11.500037,31.436501 C 11.940474,20.09759 22.043105,11.32322 32.158766,21.979434 L 37.068811,17.246167 C 37.068811,17.246167 37.088388,32 37.088388,32 L 22.160133,31.978069 C 22.160133,31.978069 26.997745,27.140456 26.997745,27.140456 C 18.528582,18.264221 13.291696,25.230495 11.500037,31.436501 z"
             style="fill:#404040;"/>
          </a>
         </g>
        </svg>
</svg>
