<?xml version="1.0" encoding="UTF-8" standalone="no"?>
<!DOCTYPE svg PUBLIC "-//W3C//DTD SVG 1.1//EN"
 "http://www.w3.org/Graphics/SVG/1.1/DTD/svg11.dtd">
<!-- Generated by graphviz version 2.38.0 (20140413.2041)
 -->
<!-- Title: prosign.h Pages: 1 -->
<svg width="657pt" height="308pt"
 viewBox="0.00 0.00 657.45 308.00" xmlns="http://www.w3.org/2000/svg" xmlns:xlink="http://www.w3.org/1999/xlink">
<g id="graph0" class="graph" transform="scale(1 1) rotate(0) translate(4 304)">
<title>prosign.h</title>
<polygon fill="white" stroke="none" points="-4,4 -4,-304 653.455,-304 653.455,4 -4,4"/>
<!-- Node1 -->
<g id="node1" class="node"><title>Node1</title>
<polygon fill="#bfbfbf" stroke="black" points="334.5,-280.5 334.5,-299.5 390.5,-299.5 390.5,-280.5 334.5,-280.5"/>
<text text-anchor="middle" x="362.5" y="-287.5" font-family="Helvetica,sans-Serif" font-size="10.00">prosign.h</text>
</g>
<!-- Node2 -->
<g id="node2" class="node"><title>Node2</title>
<g id="a_node2"><a xlink:href="morse__token_8h.xhtml" target="_top" xlink:title="Defines the MorseToken class and various helpers. ">
<polygon fill="white" stroke="black" points="288,-224.5 288,-243.5 369,-243.5 369,-224.5 288,-224.5"/>
<text text-anchor="middle" x="328.5" y="-231.5" font-family="Helvetica,sans-Serif" font-size="10.00">morse_token.h</text>
</a>
</g>
</g>
<!-- Node1&#45;&gt;Node2 -->
<g id="edge1" class="edge"><title>Node1&#45;&gt;Node2</title>
<path fill="none" stroke="midnightblue" d="M351.523,-271.566C345.673,-262.275 338.73,-251.248 334.01,-243.751"/>
<polygon fill="midnightblue" stroke="midnightblue" points="348.596,-273.486 356.886,-280.083 354.519,-269.756 348.596,-273.486"/>
</g>
<!-- Node5 -->
<g id="node5" class="node"><title>Node5</title>
<g id="a_node5"><a xlink:href="actions_8cpp.xhtml" target="_top" xlink:title="Implementation of application&#45;specific actions. ">
<polygon fill="white" stroke="black" points="0,-56.5 0,-75.5 67,-75.5 67,-56.5 0,-56.5"/>
<text text-anchor="middle" x="33.5" y="-63.5" font-family="Helvetica,sans-Serif" font-size="10.00">actions.cpp</text>
</a>
</g>
</g>
<!-- Node1&#45;&gt;Node5 -->
<g id="edge19" class="edge"><title>Node1&#45;&gt;Node5</title>
<path fill="none" stroke="midnightblue" d="M335.531,-275.718C318.797,-267.193 297.028,-255.583 278.5,-244 184.172,-185.029 78.0561,-102.344 44.3651,-75.6627"/>
<polygon fill="midnightblue" stroke="midnightblue" points="334.234,-278.983 344.74,-280.357 337.384,-272.732 334.234,-278.983"/>
</g>
<!-- Node6 -->
<g id="node6" class="node"><title>Node6</title>
<g id="a_node6"><a xlink:href="libmorse_8cpp.xhtml" target="_top" xlink:title="Implementation of Morse code operations. ">
<polygon fill="white" stroke="black" points="559.5,-56.5 559.5,-75.5 631.5,-75.5 631.5,-56.5 559.5,-56.5"/>
<text text-anchor="middle" x="595.5" y="-63.5" font-family="Helvetica,sans-Serif" font-size="10.00">libmorse.cpp</text>
</a>
</g>
</g>
<!-- Node1&#45;&gt;Node6 -->
<g id="edge20" class="edge"><title>Node1&#45;&gt;Node6</title>
<path fill="none" stroke="midnightblue" d="M394.229,-276.549C443.6,-255.281 537.399,-206.862 578.5,-132 588.604,-113.596 592.904,-88.9374 594.566,-75.9186"/>
<polygon fill="midnightblue" stroke="midnightblue" points="392.837,-273.337 384.976,-280.44 395.551,-279.79 392.837,-273.337"/>
</g>
<!-- Node9 -->
<g id="node9" class="node"><title>Node9</title>
<g id="a_node9"><a xlink:href="pda_8cpp.xhtml" target="_top" xlink:title="Implementation of Personal Digital Assistant functions. ">
<polygon fill="white" stroke="black" points="490,-56.5 490,-75.5 541,-75.5 541,-56.5 490,-56.5"/>
<text text-anchor="middle" x="515.5" y="-63.5" font-family="Helvetica,sans-Serif" font-size="10.00">pda.cpp</text>
</a>
</g>
</g>
<!-- Node1&#45;&gt;Node9 -->
<g id="edge21" class="edge"><title>Node1&#45;&gt;Node9</title>
<path fill="none" stroke="midnightblue" d="M368.727,-270.795C371.481,-262.623 374.719,-252.849 377.5,-244 395.842,-185.641 376.36,-158.163 416.5,-112 426.72,-100.246 464.893,-84.9499 490.739,-75.5603"/>
<polygon fill="midnightblue" stroke="midnightblue" points="365.366,-269.807 365.464,-280.402 371.994,-272.059 365.366,-269.807"/>
</g>
<!-- Node3 -->
<g id="node3" class="node"><title>Node3</title>
<g id="a_node3"><a xlink:href="libmorse_8h.xhtml" target="_top" xlink:title="Morse code operations. ">
<polygon fill="white" stroke="black" points="455.5,-168.5 455.5,-187.5 517.5,-187.5 517.5,-168.5 455.5,-168.5"/>
<text text-anchor="middle" x="486.5" y="-175.5" font-family="Helvetica,sans-Serif" font-size="10.00">libmorse.h</text>
</a>
</g>
</g>
<!-- Node2&#45;&gt;Node3 -->
<g id="edge2" class="edge"><title>Node2&#45;&gt;Node3</title>
<path fill="none" stroke="midnightblue" d="M363.108,-221.172C392.859,-211.004 435.047,-196.585 461.582,-187.516"/>
<polygon fill="midnightblue" stroke="midnightblue" points="361.866,-217.898 353.536,-224.444 364.13,-224.521 361.866,-217.898"/>
</g>
<!-- Node4 -->
<g id="node4" class="node"><title>Node4</title>
<g id="a_node4"><a xlink:href="actions_8h.xhtml" target="_top" xlink:title="Application&#45;specific actions. ">
<polygon fill="white" stroke="black" points="300.5,-112.5 300.5,-131.5 356.5,-131.5 356.5,-112.5 300.5,-112.5"/>
<text text-anchor="middle" x="328.5" y="-119.5" font-family="Helvetica,sans-Serif" font-size="10.00">actions.h</text>
</a>
</g>
</g>
<!-- Node2&#45;&gt;Node4 -->
<g id="edge17" class="edge"><title>Node2&#45;&gt;Node4</title>
<path fill="none" stroke="midnightblue" d="M328.5,-214.348C328.5,-190.254 328.5,-149.308 328.5,-131.591"/>
<polygon fill="midnightblue" stroke="midnightblue" points="325,-214.368 328.5,-224.368 332,-214.369 325,-214.368"/>
</g>
<!-- Node8 -->
<g id="node8" class="node"><title>Node8</title>
<g id="a_node8"><a xlink:href="morse__token_8cpp.xhtml" target="_top" xlink:title="Implementation of Morse code operations. ">
<polygon fill="white" stroke="black" points="85.5,-56.5 85.5,-75.5 177.5,-75.5 177.5,-56.5 85.5,-56.5"/>
<text text-anchor="middle" x="131.5" y="-63.5" font-family="Helvetica,sans-Serif" font-size="10.00">morse_token.cpp</text>
</a>
</g>
</g>
<!-- Node2&#45;&gt;Node8 -->
<g id="edge18" class="edge"><title>Node2&#45;&gt;Node8</title>
<path fill="none" stroke="midnightblue" d="M310.462,-217.801C270.057,-183.754 173.354,-102.268 141.712,-75.6051"/>
<polygon fill="midnightblue" stroke="midnightblue" points="308.283,-220.542 318.186,-224.309 312.794,-215.189 308.283,-220.542"/>
</g>
<!-- Node3&#45;&gt;Node4 -->
<g id="edge3" class="edge"><title>Node3&#45;&gt;Node4</title>
<path fill="none" stroke="midnightblue" d="M451.892,-165.172C422.141,-155.004 379.953,-140.585 353.418,-131.516"/>
<polygon fill="midnightblue" stroke="midnightblue" points="450.87,-168.521 461.464,-168.444 453.134,-161.898 450.87,-168.521"/>
</g>
<!-- Node3&#45;&gt;Node6 -->
<g id="edge12" class="edge"><title>Node3&#45;&gt;Node6</title>
<path fill="none" stroke="midnightblue" d="M513.64,-163.453C527.572,-155.589 544.162,-144.726 556.5,-132 573.172,-114.804 585.851,-89.2055 591.787,-75.8432"/>
<polygon fill="midnightblue" stroke="midnightblue" points="511.629,-160.562 504.504,-168.404 514.964,-166.717 511.629,-160.562"/>
</g>
<!-- Node12 -->
<g id="node12" class="node"><title>Node12</title>
<g id="a_node12"><a xlink:href="teensy3__morse__bsp_8cpp.xhtml" target="_top" xlink:title="Implementation of Teensy 3.0 board support package. ">
<polygon fill="white" stroke="black" points="428,-0.5 428,-19.5 551,-19.5 551,-0.5 428,-0.5"/>
<text text-anchor="middle" x="489.5" y="-7.5" font-family="Helvetica,sans-Serif" font-size="10.00">teensy3_morse_bsp.cpp</text>
</a>
</g>
</g>
<!-- Node3&#45;&gt;Node12 -->
<g id="edge16" class="edge"><title>Node3&#45;&gt;Node12</title>
<path fill="none" stroke="midnightblue" d="M525.986,-165.268C583.003,-146.288 677.691,-105.89 640.5,-56 619.982,-28.4759 583.292,-17.1235 551.216,-12.7018"/>
<polygon fill="midnightblue" stroke="midnightblue" points="524.594,-162.039 516.16,-168.452 526.752,-168.698 524.594,-162.039"/>
</g>
<!-- Node13 -->
<g id="node13" class="node"><title>Node13</title>
<g id="a_node13"><a xlink:href="pda_8h.xhtml" target="_top" xlink:title="Personal Digital Assistant functions. ">
<polygon fill="white" stroke="black" points="426,-112.5 426,-131.5 467,-131.5 467,-112.5 426,-112.5"/>
<text text-anchor="middle" x="446.5" y="-119.5" font-family="Helvetica,sans-Serif" font-size="10.00">pda.h</text>
</a>
</g>
</g>
<!-- Node3&#45;&gt;Node13 -->
<g id="edge13" class="edge"><title>Node3&#45;&gt;Node13</title>
<path fill="none" stroke="midnightblue" d="M473.8,-159.855C466.874,-150.505 458.594,-139.327 452.982,-131.751"/>
<polygon fill="midnightblue" stroke="midnightblue" points="471.13,-162.131 479.895,-168.083 476.755,-157.964 471.13,-162.131"/>
</g>
<!-- Node14 -->
<g id="node14" class="node"><title>Node14</title>
<g id="a_node14"><a xlink:href="sound_8cpp.xhtml" target="_top" xlink:title="Implementation of PWM sound effects. ">
<polygon fill="white" stroke="black" points="485.5,-112.5 485.5,-131.5 547.5,-131.5 547.5,-112.5 485.5,-112.5"/>
<text text-anchor="middle" x="516.5" y="-119.5" font-family="Helvetica,sans-Serif" font-size="10.00">sound.cpp</text>
</a>
</g>
</g>
<!-- Node3&#45;&gt;Node14 -->
<g id="edge15" class="edge"><title>Node3&#45;&gt;Node14</title>
<path fill="none" stroke="midnightblue" d="M496.347,-159.275C501.475,-150.045 507.516,-139.17 511.638,-131.751"/>
<polygon fill="midnightblue" stroke="midnightblue" points="493.251,-157.642 491.454,-168.083 499.37,-161.041 493.251,-157.642"/>
</g>
<!-- Node4&#45;&gt;Node5 -->
<g id="edge4" class="edge"><title>Node4&#45;&gt;Node5</title>
<path fill="none" stroke="midnightblue" d="M290.565,-114.586C241.191,-106.156 152.262,-90.6897 76.5,-76 73.505,-75.4193 70.3961,-74.8003 67.282,-74.1692"/>
<polygon fill="midnightblue" stroke="midnightblue" points="290.036,-118.046 300.482,-116.276 291.212,-111.146 290.036,-118.046"/>
</g>
<!-- Node4&#45;&gt;Node6 -->
<g id="edge5" class="edge"><title>Node4&#45;&gt;Node6</title>
<path fill="none" stroke="midnightblue" d="M366.608,-113.293C418.029,-102.893 508.979,-84.4986 559.365,-74.3081"/>
<polygon fill="midnightblue" stroke="midnightblue" points="365.677,-109.91 356.569,-115.323 367.064,-116.771 365.677,-109.91"/>
</g>
<!-- Node7 -->
<g id="node7" class="node"><title>Node7</title>
<g id="a_node7"><a xlink:href="morse__digit_8cpp.xhtml" target="_top" xlink:title="Implementation of decimal digit to Morse code conversion. ">
<polygon fill="white" stroke="black" points="385.5,-56.5 385.5,-75.5 471.5,-75.5 471.5,-56.5 385.5,-56.5"/>
<text text-anchor="middle" x="428.5" y="-63.5" font-family="Helvetica,sans-Serif" font-size="10.00">morse_digit.cpp</text>
</a>
</g>
</g>
<!-- Node4&#45;&gt;Node7 -->
<g id="edge6" class="edge"><title>Node4&#45;&gt;Node7</title>
<path fill="none" stroke="midnightblue" d="M353.588,-107.453C372.049,-97.4835 396.597,-84.2279 412.473,-75.6545"/>
<polygon fill="midnightblue" stroke="midnightblue" points="351.703,-104.493 344.567,-112.324 355.029,-110.652 351.703,-104.493"/>
</g>
<!-- Node4&#45;&gt;Node8 -->
<g id="edge7" class="edge"><title>Node4&#45;&gt;Node8</title>
<path fill="none" stroke="midnightblue" d="M290.305,-110.53C253.084,-100.328 197.187,-85.0056 162.598,-75.5243"/>
<polygon fill="midnightblue" stroke="midnightblue" points="289.705,-113.995 300.275,-113.263 291.556,-107.244 289.705,-113.995"/>
</g>
<!-- Node4&#45;&gt;Node9 -->
<g id="edge8" class="edge"><title>Node4&#45;&gt;Node9</title>
<path fill="none" stroke="midnightblue" d="M366.764,-109.95C403.521,-99.3361 458.032,-83.5949 489.845,-74.4085"/>
<polygon fill="midnightblue" stroke="midnightblue" points="365.538,-106.662 356.901,-112.799 367.48,-113.387 365.538,-106.662"/>
</g>
<!-- Node10 -->
<g id="node10" class="node"><title>Node10</title>
<g id="a_node10"><a xlink:href="stack_8cpp.xhtml" target="_top" xlink:title="Implementation of Stack&#45;related convenience functions. ">
<polygon fill="white" stroke="black" points="196,-56.5 196,-75.5 255,-75.5 255,-56.5 196,-56.5"/>
<text text-anchor="middle" x="225.5" y="-63.5" font-family="Helvetica,sans-Serif" font-size="10.00">stack.cpp</text>
</a>
</g>
</g>
<!-- Node4&#45;&gt;Node10 -->
<g id="edge9" class="edge"><title>Node4&#45;&gt;Node10</title>
<path fill="none" stroke="midnightblue" d="M302.921,-107.59C283.877,-97.6052 258.436,-84.2672 242.008,-75.6545"/>
<polygon fill="midnightblue" stroke="midnightblue" points="301.469,-110.78 311.951,-112.324 304.72,-104.581 301.469,-110.78"/>
</g>
<!-- Node11 -->
<g id="node11" class="node"><title>Node11</title>
<g id="a_node11"><a xlink:href="voltage__monitor_8h.xhtml" target="_top" xlink:title="Trivial co&#45;routine to gather and filter ADC samples. ">
<polygon fill="white" stroke="black" points="273.5,-56.5 273.5,-75.5 367.5,-75.5 367.5,-56.5 273.5,-56.5"/>
<text text-anchor="middle" x="320.5" y="-63.5" font-family="Helvetica,sans-Serif" font-size="10.00">voltage_monitor.h</text>
</a>
</g>
</g>
<!-- Node4&#45;&gt;Node11 -->
<g id="edge10" class="edge"><title>Node4&#45;&gt;Node11</title>
<path fill="none" stroke="midnightblue" d="M325.7,-102.101C324.372,-93.1357 322.849,-82.8579 321.796,-75.7511"/>
<polygon fill="midnightblue" stroke="midnightblue" points="322.251,-102.704 327.179,-112.083 329.176,-101.678 322.251,-102.704"/>
</g>
<!-- Node11&#45;&gt;Node12 -->
<g id="edge11" class="edge"><title>Node11&#45;&gt;Node12</title>
<path fill="none" stroke="midnightblue" d="M357.103,-53.3044C388.947,-43.1294 434.342,-28.6246 462.847,-19.5164"/>
<polygon fill="midnightblue" stroke="midnightblue" points="355.739,-50.0659 347.279,-56.4435 357.869,-56.7337 355.739,-50.0659"/>
</g>
<!-- Node13&#45;&gt;Node9 -->
<g id="edge14" class="edge"><title>Node13&#45;&gt;Node9</title>
<path fill="none" stroke="midnightblue" d="M465.538,-106.101C477.956,-96.3824 493.743,-84.0269 504.212,-75.8339"/>
<polygon fill="midnightblue" stroke="midnightblue" points="463.304,-103.405 457.586,-112.324 467.618,-108.917 463.304,-103.405"/>
</g>
</g>
</svg>
