<?xml version="1.0" encoding="UTF-8" standalone="no"?>
<!DOCTYPE svg PUBLIC "-//W3C//DTD SVG 1.1//EN"
 "http://www.w3.org/Graphics/SVG/1.1/DTD/svg11.dtd">
<!-- Generated by graphviz version 2.38.0 (20140413.2041)
 -->
<!-- Title: getLowVoltageThreshold Pages: 1 -->
<svg width="357pt" height="85pt"
 viewBox="0.00 0.00 357.00 85.00" xmlns="http://www.w3.org/2000/svg" xmlns:xlink="http://www.w3.org/1999/xlink">
<g id="graph0" class="graph" transform="scale(1 1) rotate(0) translate(4 81)">
<title>getLowVoltageThreshold</title>
<polygon fill="white" stroke="none" points="-4,4 -4,-81 353,-81 353,4 -4,4"/>
<!-- Node1 -->
<g id="node1" class="node"><title>Node1</title>
<polygon fill="#bfbfbf" stroke="black" points="0,-19.5 0,-38.5 124,-38.5 124,-19.5 0,-19.5"/>
<text text-anchor="middle" x="62" y="-26.5" font-family="Helvetica,sans-Serif" font-size="10.00">getLowVoltageThreshold</text>
</g>
<!-- Node2 -->
<g id="node2" class="node"><title>Node2</title>
<g id="a_node2"><a xlink:href="actions_8h.html#a7cb54685ddb3c45facf6daadcc4a5f4b" target="_top" xlink:title="Report the current settings and sensor values via the serial port. ">
<polygon fill="white" stroke="black" points="165,-38.5 165,-57.5 216,-57.5 216,-38.5 165,-38.5"/>
<text text-anchor="middle" x="190.5" y="-45.5" font-family="Helvetica,sans-Serif" font-size="10.00">printLog</text>
</a>
</g>
</g>
<!-- Node1&#45;&gt;Node2 -->
<g id="edge1" class="edge"><title>Node1&#45;&gt;Node2</title>
<path fill="none" stroke="midnightblue" d="M134.142,-39.6854C145.101,-41.3313 155.738,-42.929 164.71,-44.2767"/>
<polygon fill="midnightblue" stroke="midnightblue" points="134.436,-36.1903 124.027,-38.1661 133.396,-43.1127 134.436,-36.1903"/>
</g>
<!-- Node5 -->
<g id="node5" class="node"><title>Node5</title>
<g id="a_node5"><a xlink:href="actions_8h.html#a395ec10538b43bf0543c55595fe2df68" target="_top" xlink:title="Transmit the current settings and sensor values. ">
<polygon fill="white" stroke="black" points="160,-0.5 160,-19.5 221,-19.5 221,-0.5 160,-0.5"/>
<text text-anchor="middle" x="190.5" y="-7.5" font-family="Helvetica,sans-Serif" font-size="10.00">txSettings</text>
</a>
</g>
</g>
<!-- Node1&#45;&gt;Node5 -->
<g id="edge4" class="edge"><title>Node1&#45;&gt;Node5</title>
<path fill="none" stroke="midnightblue" d="M133.983,-18.3385C143.114,-16.9671 152.026,-15.6285 159.944,-14.4393"/>
<polygon fill="midnightblue" stroke="midnightblue" points="133.396,-14.8873 124.027,-19.8339 134.436,-21.8097 133.396,-14.8873"/>
</g>
<!-- Node3 -->
<g id="node3" class="node"><title>Node3</title>
<g id="a_node3"><a xlink:href="actions_8h.html#a1fec7da4166b9612d2deec3d0262d60f" target="_top" xlink:title="dispatchOnStack">
<polygon fill="white" stroke="black" points="257,-57.5 257,-76.5 349,-76.5 349,-57.5 257,-57.5"/>
<text text-anchor="middle" x="303" y="-64.5" font-family="Helvetica,sans-Serif" font-size="10.00">dispatchOnStack</text>
</a>
</g>
</g>
<!-- Node2&#45;&gt;Node3 -->
<g id="edge2" class="edge"><title>Node2&#45;&gt;Node3</title>
<path fill="none" stroke="midnightblue" d="M226.076,-53.9451C235.761,-55.6105 246.437,-57.4462 256.647,-59.2017"/>
<polygon fill="midnightblue" stroke="midnightblue" points="226.472,-50.462 216.024,-52.2167 225.286,-57.3608 226.472,-50.462"/>
</g>
<!-- Node4 -->
<g id="node4" class="node"><title>Node4</title>
<g id="a_node4"><a xlink:href="actions_8h.html#a9c9466bf6676f35ff08e8dc33518e483" target="_top" xlink:title="Respond to commands from the serial port. ">
<polygon fill="white" stroke="black" points="265.5,-19.5 265.5,-38.5 340.5,-38.5 340.5,-19.5 265.5,-19.5"/>
<text text-anchor="middle" x="303" y="-26.5" font-family="Helvetica,sans-Serif" font-size="10.00">readEvalPrint</text>
</a>
</g>
</g>
<!-- Node2&#45;&gt;Node4 -->
<g id="edge3" class="edge"><title>Node2&#45;&gt;Node4</title>
<path fill="none" stroke="midnightblue" d="M226.062,-42.0571C238.557,-39.9087 252.702,-37.4766 265.368,-35.2987"/>
<polygon fill="midnightblue" stroke="midnightblue" points="225.286,-38.6392 216.024,-43.7833 226.472,-45.538 225.286,-38.6392"/>
</g>
</g>
</svg>
