<?xml version="1.0" encoding="UTF-8" standalone="no"?>
<!DOCTYPE svg PUBLIC "-//W3C//DTD SVG 1.1//EN"
 "http://www.w3.org/Graphics/SVG/1.1/DTD/svg11.dtd">
<!-- Generated by graphviz version 2.38.0 (20140413.2041)
 -->
<!-- Title: getAnnouncementInterval Pages: 1 -->
<svg width="400pt" height="104pt"
 viewBox="0.00 0.00 400.00 104.00" xmlns="http://www.w3.org/2000/svg" xmlns:xlink="http://www.w3.org/1999/xlink">
<g id="graph0" class="graph" transform="scale(1 1) rotate(0) translate(4 100)">
<title>getAnnouncementInterval</title>
<polygon fill="white" stroke="none" points="-4,4 -4,-100 396,-100 396,4 -4,4"/>
<!-- Node1 -->
<g id="node1" class="node"><title>Node1</title>
<polygon fill="#bfbfbf" stroke="black" points="0,-38.5 0,-57.5 128,-57.5 128,-38.5 0,-38.5"/>
<text text-anchor="middle" x="64" y="-45.5" font-family="Helvetica,sans-Serif" font-size="10.00">getAnnouncementInterval</text>
</g>
<!-- Node2 -->
<g id="node2" class="node"><title>Node2</title>
<g id="a_node2"><a xlink:href="actions_8h.html#a7da0aacad52707defcc8db8be6a21b8c" target="_top" xlink:title="Get the announcement interval for the current alarm state. ">
<polygon fill="white" stroke="black" points="164,-76.5 164,-95.5 264,-95.5 264,-76.5 164,-76.5"/>
<text text-anchor="middle" x="214" y="-83.5" font-family="Helvetica,sans-Serif" font-size="10.00">getIntervalForState</text>
</a>
</g>
</g>
<!-- Node1&#45;&gt;Node2 -->
<g id="edge1" class="edge"><title>Node1&#45;&gt;Node2</title>
<path fill="none" stroke="midnightblue" d="M112.173,-60.1121C132.786,-65.4044 156.609,-71.5213 175.922,-76.4799"/>
<polygon fill="midnightblue" stroke="midnightblue" points="112.903,-56.6859 102.347,-57.589 111.162,-63.466 112.903,-56.6859"/>
</g>
<!-- Node3 -->
<g id="node3" class="node"><title>Node3</title>
<g id="a_node3"><a xlink:href="actions_8h.html#a7cb54685ddb3c45facf6daadcc4a5f4b" target="_top" xlink:title="Report the current settings and sensor values via the serial port. ">
<polygon fill="white" stroke="black" points="188.5,-38.5 188.5,-57.5 239.5,-57.5 239.5,-38.5 188.5,-38.5"/>
<text text-anchor="middle" x="214" y="-45.5" font-family="Helvetica,sans-Serif" font-size="10.00">printLog</text>
</a>
</g>
</g>
<!-- Node1&#45;&gt;Node3 -->
<g id="edge2" class="edge"><title>Node1&#45;&gt;Node3</title>
<path fill="none" stroke="midnightblue" d="M138.199,-48C156.269,-48 174.403,-48 188.289,-48"/>
<polygon fill="midnightblue" stroke="midnightblue" points="138.195,-44.5001 128.195,-48 138.195,-51.5001 138.195,-44.5001"/>
</g>
<!-- Node6 -->
<g id="node6" class="node"><title>Node6</title>
<g id="a_node6"><a xlink:href="actions_8h.html#a395ec10538b43bf0543c55595fe2df68" target="_top" xlink:title="Transmit the current settings and sensor values. ">
<polygon fill="white" stroke="black" points="183.5,-0.5 183.5,-19.5 244.5,-19.5 244.5,-0.5 183.5,-0.5"/>
<text text-anchor="middle" x="214" y="-7.5" font-family="Helvetica,sans-Serif" font-size="10.00">txSettings</text>
</a>
</g>
</g>
<!-- Node1&#45;&gt;Node6 -->
<g id="edge5" class="edge"><title>Node1&#45;&gt;Node6</title>
<path fill="none" stroke="midnightblue" d="M112.041,-35.9219C135.326,-29.9432 162.737,-22.9053 183.117,-17.6727"/>
<polygon fill="midnightblue" stroke="midnightblue" points="111.162,-32.534 102.347,-38.411 112.903,-39.3141 111.162,-32.534"/>
</g>
<!-- Node4 -->
<g id="node4" class="node"><title>Node4</title>
<g id="a_node4"><a xlink:href="actions_8h.html#a1fec7da4166b9612d2deec3d0262d60f" target="_top" xlink:title="dispatchOnStack">
<polygon fill="white" stroke="black" points="300,-57.5 300,-76.5 392,-76.5 392,-57.5 300,-57.5"/>
<text text-anchor="middle" x="346" y="-64.5" font-family="Helvetica,sans-Serif" font-size="10.00">dispatchOnStack</text>
</a>
</g>
</g>
<!-- Node3&#45;&gt;Node4 -->
<g id="edge3" class="edge"><title>Node3&#45;&gt;Node4</title>
<path fill="none" stroke="midnightblue" d="M249.865,-53.0957C265.212,-55.3387 283.438,-58.0025 299.81,-60.3953"/>
<polygon fill="midnightblue" stroke="midnightblue" points="250.159,-49.6015 239.758,-51.6185 249.147,-56.5279 250.159,-49.6015"/>
</g>
<!-- Node5 -->
<g id="node5" class="node"><title>Node5</title>
<g id="a_node5"><a xlink:href="actions_8h.html#a9c9466bf6676f35ff08e8dc33518e483" target="_top" xlink:title="Respond to commands from the serial port. ">
<polygon fill="white" stroke="black" points="308.5,-19.5 308.5,-38.5 383.5,-38.5 383.5,-19.5 308.5,-19.5"/>
<text text-anchor="middle" x="346" y="-26.5" font-family="Helvetica,sans-Serif" font-size="10.00">readEvalPrint</text>
</a>
</g>
</g>
<!-- Node3&#45;&gt;Node5 -->
<g id="edge4" class="edge"><title>Node3&#45;&gt;Node5</title>
<path fill="none" stroke="midnightblue" d="M249.871,-42.9035C267.927,-40.2645 289.967,-37.0433 308.284,-34.3662"/>
<polygon fill="midnightblue" stroke="midnightblue" points="249.147,-39.4721 239.758,-44.3815 250.159,-46.3985 249.147,-39.4721"/>
</g>
</g>
</svg>
