<?xml version="1.0" encoding="UTF-8" standalone="no"?>
<!DOCTYPE svg PUBLIC "-//W3C//DTD SVG 1.1//EN"
 "http://www.w3.org/Graphics/SVG/1.1/DTD/svg11.dtd">
<!-- Generated by graphviz version 2.38.0 (20140413.2041)
 -->
<!-- Title: getAlarmLowFormat Pages: 1 -->
<svg width="374pt" height="104pt"
 viewBox="0.00 0.00 374.00 104.00" xmlns="http://www.w3.org/2000/svg" xmlns:xlink="http://www.w3.org/1999/xlink">
<g id="graph0" class="graph" transform="scale(1 1) rotate(0) translate(4 100)">
<title>getAlarmLowFormat</title>
<polygon fill="white" stroke="none" points="-4,4 -4,-100 370,-100 370,4 -4,4"/>
<!-- Node1 -->
<g id="node1" class="node"><title>Node1</title>
<polygon fill="#bfbfbf" stroke="black" points="0,-38.5 0,-57.5 104,-57.5 104,-38.5 0,-38.5"/>
<text text-anchor="middle" x="52" y="-45.5" font-family="Helvetica,sans-Serif" font-size="10.00">getAlarmLowFormat</text>
</g>
<!-- Node2 -->
<g id="node2" class="node"><title>Node2</title>
<g id="a_node2"><a xlink:href="actions_8h.html#ae3b76158e4805ae5426e51c42f6f265a" target="_top" xlink:title="Get the alarm format for the current alarm state. ">
<polygon fill="white" stroke="black" points="140,-76.5 140,-95.5 238,-95.5 238,-76.5 140,-76.5"/>
<text text-anchor="middle" x="189" y="-83.5" font-family="Helvetica,sans-Serif" font-size="10.00">getFormatForState</text>
</a>
</g>
</g>
<!-- Node1&#45;&gt;Node2 -->
<g id="edge1" class="edge"><title>Node1&#45;&gt;Node2</title>
<path fill="none" stroke="midnightblue" d="M96.7625,-60.3183C115.311,-65.5393 136.599,-71.5316 153.945,-76.4141"/>
<polygon fill="midnightblue" stroke="midnightblue" points="97.6405,-56.9295 87.0662,-57.589 95.7438,-63.6677 97.6405,-56.9295"/>
</g>
<!-- Node3 -->
<g id="node3" class="node"><title>Node3</title>
<g id="a_node3"><a xlink:href="actions_8h.html#a7cb54685ddb3c45facf6daadcc4a5f4b" target="_top" xlink:title="Report the current settings and sensor values via the serial port. ">
<polygon fill="white" stroke="black" points="163.5,-38.5 163.5,-57.5 214.5,-57.5 214.5,-38.5 163.5,-38.5"/>
<text text-anchor="middle" x="189" y="-45.5" font-family="Helvetica,sans-Serif" font-size="10.00">printLog</text>
</a>
</g>
</g>
<!-- Node1&#45;&gt;Node3 -->
<g id="edge2" class="edge"><title>Node1&#45;&gt;Node3</title>
<path fill="none" stroke="midnightblue" d="M114.17,-48C131.548,-48 149.492,-48 163.337,-48"/>
<polygon fill="midnightblue" stroke="midnightblue" points="114.038,-44.5001 104.038,-48 114.038,-51.5001 114.038,-44.5001"/>
</g>
<!-- Node6 -->
<g id="node6" class="node"><title>Node6</title>
<g id="a_node6"><a xlink:href="actions_8h.html#a395ec10538b43bf0543c55595fe2df68" target="_top" xlink:title="Transmit the current settings and sensor values. ">
<polygon fill="white" stroke="black" points="158.5,-0.5 158.5,-19.5 219.5,-19.5 219.5,-0.5 158.5,-0.5"/>
<text text-anchor="middle" x="189" y="-7.5" font-family="Helvetica,sans-Serif" font-size="10.00">txSettings</text>
</a>
</g>
</g>
<!-- Node1&#45;&gt;Node6 -->
<g id="edge5" class="edge"><title>Node1&#45;&gt;Node6</title>
<path fill="none" stroke="midnightblue" d="M96.9015,-35.6425C116.921,-30.0073 140.11,-23.4803 158.081,-18.4216"/>
<polygon fill="midnightblue" stroke="midnightblue" points="95.7438,-32.3323 87.0662,-38.411 97.6405,-39.0705 95.7438,-32.3323"/>
</g>
<!-- Node4 -->
<g id="node4" class="node"><title>Node4</title>
<g id="a_node4"><a xlink:href="actions_8h.html#a1fec7da4166b9612d2deec3d0262d60f" target="_top" xlink:title="dispatchOnStack">
<polygon fill="white" stroke="black" points="274,-57.5 274,-76.5 366,-76.5 366,-57.5 274,-57.5"/>
<text text-anchor="middle" x="320" y="-64.5" font-family="Helvetica,sans-Serif" font-size="10.00">dispatchOnStack</text>
</a>
</g>
</g>
<!-- Node3&#45;&gt;Node4 -->
<g id="edge3" class="edge"><title>Node3&#45;&gt;Node4</title>
<path fill="none" stroke="midnightblue" d="M224.551,-53.0889C239.708,-55.3214 257.702,-57.9716 273.897,-60.3569"/>
<polygon fill="midnightblue" stroke="midnightblue" points="224.971,-49.6131 214.568,-51.6185 223.951,-56.5384 224.971,-49.6131"/>
</g>
<!-- Node5 -->
<g id="node5" class="node"><title>Node5</title>
<g id="a_node5"><a xlink:href="actions_8h.html#a9c9466bf6676f35ff08e8dc33518e483" target="_top" xlink:title="Respond to commands from the serial port. ">
<polygon fill="white" stroke="black" points="282.5,-19.5 282.5,-38.5 357.5,-38.5 357.5,-19.5 282.5,-19.5"/>
<text text-anchor="middle" x="320" y="-26.5" font-family="Helvetica,sans-Serif" font-size="10.00">readEvalPrint</text>
</a>
</g>
</g>
<!-- Node3&#45;&gt;Node5 -->
<g id="edge4" class="edge"><title>Node3&#45;&gt;Node5</title>
<path fill="none" stroke="midnightblue" d="M224.563,-42.9094C242.406,-40.2813 264.178,-37.0746 282.318,-34.4027"/>
<polygon fill="midnightblue" stroke="midnightblue" points="223.951,-39.4616 214.568,-44.3815 224.971,-46.3869 223.951,-39.4616"/>
</g>
</g>
</svg>
