<?xml version="1.0" encoding="UTF-8" standalone="no"?>
<!DOCTYPE svg PUBLIC "-//W3C//DTD SVG 1.1//EN"
 "http://www.w3.org/Graphics/SVG/1.1/DTD/svg11.dtd">
<!-- Generated by graphviz version 2.38.0 (20140413.2041)
 -->
<!-- Title: getAlarmInterval Pages: 1 -->
<svg width="360pt" height="104pt"
 viewBox="0.00 0.00 360.00 104.00" xmlns="http://www.w3.org/2000/svg" xmlns:xlink="http://www.w3.org/1999/xlink">
<g id="graph0" class="graph" transform="scale(1 1) rotate(0) translate(4 100)">
<title>getAlarmInterval</title>
<polygon fill="white" stroke="none" points="-4,4 -4,-100 356,-100 356,4 -4,4"/>
<!-- Node1 -->
<g id="node1" class="node"><title>Node1</title>
<polygon fill="#bfbfbf" stroke="black" points="0,-38.5 0,-57.5 88,-57.5 88,-38.5 0,-38.5"/>
<text text-anchor="middle" x="44" y="-45.5" font-family="Helvetica,sans-Serif" font-size="10.00">getAlarmInterval</text>
</g>
<!-- Node2 -->
<g id="node2" class="node"><title>Node2</title>
<g id="a_node2"><a xlink:href="actions_8h.html#a7da0aacad52707defcc8db8be6a21b8c" target="_top" xlink:title="Get the announcement interval for the current alarm state. ">
<polygon fill="white" stroke="black" points="124,-76.5 124,-95.5 224,-95.5 224,-76.5 124,-76.5"/>
<text text-anchor="middle" x="174" y="-83.5" font-family="Helvetica,sans-Serif" font-size="10.00">getIntervalForState</text>
</a>
</g>
</g>
<!-- Node1&#45;&gt;Node2 -->
<g id="edge1" class="edge"><title>Node1&#45;&gt;Node2</title>
<path fill="none" stroke="midnightblue" d="M87.2242,-60.5353C104.637,-65.7048 124.492,-71.5991 140.711,-76.4141"/>
<polygon fill="midnightblue" stroke="midnightblue" points="87.8824,-57.0798 77.2998,-57.589 85.8902,-63.7903 87.8824,-57.0798"/>
</g>
<!-- Node3 -->
<g id="node3" class="node"><title>Node3</title>
<g id="a_node3"><a xlink:href="actions_8h.html#a7cb54685ddb3c45facf6daadcc4a5f4b" target="_top" xlink:title="Report the current settings and sensor values via the serial port. ">
<polygon fill="white" stroke="black" points="148.5,-38.5 148.5,-57.5 199.5,-57.5 199.5,-38.5 148.5,-38.5"/>
<text text-anchor="middle" x="174" y="-45.5" font-family="Helvetica,sans-Serif" font-size="10.00">printLog</text>
</a>
</g>
</g>
<!-- Node1&#45;&gt;Node3 -->
<g id="edge2" class="edge"><title>Node1&#45;&gt;Node3</title>
<path fill="none" stroke="midnightblue" d="M98.3912,-48C115.749,-48 134.178,-48 148.377,-48"/>
<polygon fill="midnightblue" stroke="midnightblue" points="98.335,-44.5001 88.335,-48 98.3349,-51.5001 98.335,-44.5001"/>
</g>
<!-- Node6 -->
<g id="node6" class="node"><title>Node6</title>
<g id="a_node6"><a xlink:href="actions_8h.html#a395ec10538b43bf0543c55595fe2df68" target="_top" xlink:title="Transmit the current settings and sensor values. ">
<polygon fill="white" stroke="black" points="143.5,-0.5 143.5,-19.5 204.5,-19.5 204.5,-0.5 143.5,-0.5"/>
<text text-anchor="middle" x="174" y="-7.5" font-family="Helvetica,sans-Serif" font-size="10.00">txSettings</text>
</a>
</g>
</g>
<!-- Node1&#45;&gt;Node6 -->
<g id="edge5" class="edge"><title>Node1&#45;&gt;Node6</title>
<path fill="none" stroke="midnightblue" d="M86.9281,-35.5526C105.364,-30.0794 126.585,-23.7794 143.343,-18.8045"/>
<polygon fill="midnightblue" stroke="midnightblue" points="85.8902,-32.2097 77.2998,-38.411 87.8824,-38.9202 85.8902,-32.2097"/>
</g>
<!-- Node4 -->
<g id="node4" class="node"><title>Node4</title>
<g id="a_node4"><a xlink:href="actions_8h.html#a1fec7da4166b9612d2deec3d0262d60f" target="_top" xlink:title="dispatchOnStack">
<polygon fill="white" stroke="black" points="260,-57.5 260,-76.5 352,-76.5 352,-57.5 260,-57.5"/>
<text text-anchor="middle" x="306" y="-64.5" font-family="Helvetica,sans-Serif" font-size="10.00">dispatchOnStack</text>
</a>
</g>
</g>
<!-- Node3&#45;&gt;Node4 -->
<g id="edge3" class="edge"><title>Node3&#45;&gt;Node4</title>
<path fill="none" stroke="midnightblue" d="M209.865,-53.0957C225.212,-55.3387 243.438,-58.0025 259.81,-60.3953"/>
<polygon fill="midnightblue" stroke="midnightblue" points="210.159,-49.6015 199.758,-51.6185 209.147,-56.5279 210.159,-49.6015"/>
</g>
<!-- Node5 -->
<g id="node5" class="node"><title>Node5</title>
<g id="a_node5"><a xlink:href="actions_8h.html#a9c9466bf6676f35ff08e8dc33518e483" target="_top" xlink:title="Respond to commands from the serial port. ">
<polygon fill="white" stroke="black" points="268.5,-19.5 268.5,-38.5 343.5,-38.5 343.5,-19.5 268.5,-19.5"/>
<text text-anchor="middle" x="306" y="-26.5" font-family="Helvetica,sans-Serif" font-size="10.00">readEvalPrint</text>
</a>
</g>
</g>
<!-- Node3&#45;&gt;Node5 -->
<g id="edge4" class="edge"><title>Node3&#45;&gt;Node5</title>
<path fill="none" stroke="midnightblue" d="M209.871,-42.9035C227.927,-40.2645 249.967,-37.0433 268.284,-34.3662"/>
<polygon fill="midnightblue" stroke="midnightblue" points="209.147,-39.4721 199.758,-44.3815 210.159,-46.3985 209.147,-39.4721"/>
</g>
</g>
</svg>
