<?xml version="1.0" encoding="UTF-8" standalone="no"?>
<!DOCTYPE svg PUBLIC "-//W3C//DTD SVG 1.1//EN"
 "http://www.w3.org/Graphics/SVG/1.1/DTD/svg11.dtd">
<!-- Generated by graphviz version 2.38.0 (20140413.2041)
 -->
<!-- Title: timeIsSet Pages: 1 -->
<svg width="403pt" height="104pt"
 viewBox="0.00 0.00 403.00 104.00" xmlns="http://www.w3.org/2000/svg" xmlns:xlink="http://www.w3.org/1999/xlink">
<g id="graph0" class="graph" transform="scale(1 1) rotate(0) translate(4 100)">
<title>timeIsSet</title>
<polygon fill="white" stroke="none" points="-4,4 -4,-100 399,-100 399,4 -4,4"/>
<!-- Node1 -->
<g id="node1" class="node"><title>Node1</title>
<polygon fill="#bfbfbf" stroke="black" points="0,-38.5 0,-57.5 59,-57.5 59,-38.5 0,-38.5"/>
<text text-anchor="middle" x="29.5" y="-45.5" font-family="Helvetica,sans-Serif" font-size="10.00">timeIsSet</text>
</g>
<!-- Node2 -->
<g id="node2" class="node"><title>Node2</title>
<g id="a_node2"><a xlink:href="settings_8h.html#ac7142ee2baa705d2dd402769467d5a4e" target="_top" xlink:title="Save the settings to non&#45;volatile memory. ">
<polygon fill="white" stroke="black" points="95,-76.5 95,-95.5 169,-95.5 169,-76.5 95,-76.5"/>
<text text-anchor="middle" x="132" y="-83.5" font-family="Helvetica,sans-Serif" font-size="10.00">saveSettings</text>
</a>
</g>
</g>
<!-- Node1&#45;&gt;Node2 -->
<g id="edge1" class="edge"><title>Node1&#45;&gt;Node2</title>
<path fill="none" stroke="midnightblue" d="M65.5813,-61.2646C78.7751,-66.2533 93.5085,-71.8241 105.648,-76.4141"/>
<polygon fill="midnightblue" stroke="midnightblue" points="66.452,-57.852 55.8604,-57.589 63.9762,-64.3996 66.452,-57.852"/>
</g>
<!-- Node4 -->
<g id="node4" class="node"><title>Node4</title>
<g id="a_node4"><a xlink:href="settings_8h.html#af63c25c773ddd97f32d6d0d364eda35a" target="_top" xlink:title="isTimeSet">
<polygon fill="white" stroke="black" points="101.5,-0.5 101.5,-19.5 162.5,-19.5 162.5,-0.5 101.5,-0.5"/>
<text text-anchor="middle" x="132" y="-7.5" font-family="Helvetica,sans-Serif" font-size="10.00">isTimeSet</text>
</a>
</g>
</g>
<!-- Node1&#45;&gt;Node4 -->
<g id="edge3" class="edge"><title>Node1&#45;&gt;Node4</title>
<path fill="none" stroke="midnightblue" d="M65.5813,-34.7354C78.7751,-29.7467 93.5085,-24.1759 105.648,-19.5859"/>
<polygon fill="midnightblue" stroke="midnightblue" points="63.9762,-31.6004 55.8604,-38.411 66.452,-38.148 63.9762,-31.6004"/>
</g>
<!-- Node7 -->
<g id="node7" class="node"><title>Node7</title>
<g id="a_node7"><a xlink:href="settings_8h.html#a7442eecd404f9921a3e26ad92875a759" target="_top" xlink:title="setUptime">
<polygon fill="white" stroke="black" points="205,-38.5 205,-57.5 267,-57.5 267,-38.5 205,-38.5"/>
<text text-anchor="middle" x="236" y="-45.5" font-family="Helvetica,sans-Serif" font-size="10.00">setUptime</text>
</a>
</g>
</g>
<!-- Node1&#45;&gt;Node7 -->
<g id="edge7" class="edge"><title>Node1&#45;&gt;Node7</title>
<path fill="none" stroke="midnightblue" d="M69.4104,-48C108.851,-48 169.035,-48 204.951,-48"/>
<polygon fill="midnightblue" stroke="midnightblue" points="69.3662,-44.5001 59.3661,-48 69.3661,-51.5001 69.3662,-44.5001"/>
</g>
<!-- Node3 -->
<g id="node3" class="node"><title>Node3</title>
<g id="a_node3"><a xlink:href="actions_8h.html#a9c9466bf6676f35ff08e8dc33518e483" target="_top" xlink:title="Respond to commands from the serial port. ">
<polygon fill="white" stroke="black" points="311.5,-38.5 311.5,-57.5 386.5,-57.5 386.5,-38.5 311.5,-38.5"/>
<text text-anchor="middle" x="349" y="-45.5" font-family="Helvetica,sans-Serif" font-size="10.00">readEvalPrint</text>
</a>
</g>
</g>
<!-- Node2&#45;&gt;Node3 -->
<g id="edge2" class="edge"><title>Node2&#45;&gt;Node3</title>
<path fill="none" stroke="midnightblue" d="M179.183,-80.4886C205.091,-77.1374 237.949,-72.4555 267,-67 281.622,-64.2542 297.59,-60.6421 311.454,-57.3054"/>
<polygon fill="midnightblue" stroke="midnightblue" points="178.737,-77.0171 169.258,-81.7515 179.62,-83.9611 178.737,-77.0171"/>
</g>
<!-- Node5 -->
<g id="node5" class="node"><title>Node5</title>
<g id="a_node5"><a xlink:href="actions_8h.html#a7cb54685ddb3c45facf6daadcc4a5f4b" target="_top" xlink:title="Report the current settings and sensor values via the serial port. ">
<polygon fill="white" stroke="black" points="210.5,-0.5 210.5,-19.5 261.5,-19.5 261.5,-0.5 210.5,-0.5"/>
<text text-anchor="middle" x="236" y="-7.5" font-family="Helvetica,sans-Serif" font-size="10.00">printLog</text>
</a>
</g>
</g>
<!-- Node4&#45;&gt;Node5 -->
<g id="edge4" class="edge"><title>Node4&#45;&gt;Node5</title>
<path fill="none" stroke="midnightblue" d="M172.838,-10C185.499,-10 199.125,-10 210.384,-10"/>
<polygon fill="midnightblue" stroke="midnightblue" points="172.503,-6.5001 162.503,-10 172.503,-13.5001 172.503,-6.5001"/>
</g>
<!-- Node5&#45;&gt;Node3 -->
<g id="edge6" class="edge"><title>Node5&#45;&gt;Node3</title>
<path fill="none" stroke="midnightblue" d="M271.432,-21.7874C287.007,-27.1194 305.181,-33.3413 319.914,-38.3849"/>
<polygon fill="midnightblue" stroke="midnightblue" points="272.229,-18.361 261.634,-18.4334 269.962,-24.9837 272.229,-18.361"/>
</g>
<!-- Node6 -->
<g id="node6" class="node"><title>Node6</title>
<g id="a_node6"><a xlink:href="actions_8h.html#a1fec7da4166b9612d2deec3d0262d60f" target="_top" xlink:title="dispatchOnStack">
<polygon fill="white" stroke="black" points="303,-0.5 303,-19.5 395,-19.5 395,-0.5 303,-0.5"/>
<text text-anchor="middle" x="349" y="-7.5" font-family="Helvetica,sans-Serif" font-size="10.00">dispatchOnStack</text>
</a>
</g>
</g>
<!-- Node5&#45;&gt;Node6 -->
<g id="edge5" class="edge"><title>Node5&#45;&gt;Node6</title>
<path fill="none" stroke="midnightblue" d="M271.844,-10C281.685,-10 292.536,-10 302.887,-10"/>
<polygon fill="midnightblue" stroke="midnightblue" points="271.635,-6.5001 261.634,-10 271.634,-13.5001 271.635,-6.5001"/>
</g>
<!-- Node7&#45;&gt;Node3 -->
<g id="edge9" class="edge"><title>Node7&#45;&gt;Node3</title>
<path fill="none" stroke="midnightblue" d="M277.323,-48C288.396,-48 300.342,-48 311.205,-48"/>
<polygon fill="midnightblue" stroke="midnightblue" points="277.038,-44.5001 267.038,-48 277.038,-51.5001 277.038,-44.5001"/>
</g>
<!-- Node7&#45;&gt;Node6 -->
<g id="edge8" class="edge"><title>Node7&#45;&gt;Node6</title>
<path fill="none" stroke="midnightblue" d="M274.891,-35.0282C289.68,-29.9656 306.329,-24.2659 319.999,-19.5859"/>
<polygon fill="midnightblue" stroke="midnightblue" points="273.337,-31.8607 265.01,-38.411 275.605,-38.4834 273.337,-31.8607"/>
</g>
</g>
</svg>
