<?xml version="1.0" encoding="UTF-8" standalone="no"?>
<!DOCTYPE svg PUBLIC "-//W3C//DTD SVG 1.1//EN"
 "http://www.w3.org/Graphics/SVG/1.1/DTD/svg11.dtd">
<!-- Generated by graphviz version 2.38.0 (20140413.2041)
 -->
<!-- Title: getHighVoltageThreshold Pages: 1 -->
<svg width="349pt" height="66pt"
 viewBox="0.00 0.00 349.00 66.00" xmlns="http://www.w3.org/2000/svg" xmlns:xlink="http://www.w3.org/1999/xlink">
<g id="graph0" class="graph" transform="scale(1 1) rotate(0) translate(4 62)">
<title>getHighVoltageThreshold</title>
<polygon fill="white" stroke="none" points="-4,4 -4,-62 345,-62 345,4 -4,4"/>
<!-- Node1 -->
<g id="node1" class="node"><title>Node1</title>
<polygon fill="#bfbfbf" stroke="black" points="0,-19.5 0,-38.5 126,-38.5 126,-19.5 0,-19.5"/>
<text text-anchor="middle" x="63" y="-26.5" font-family="Helvetica,sans-Serif" font-size="10.00">getHighVoltageThreshold</text>
</g>
<!-- Node2 -->
<g id="node2" class="node"><title>Node2</title>
<g id="a_node2"><a xlink:href="actions_8h.html#a7cb54685ddb3c45facf6daadcc4a5f4b" target="_top" xlink:title="Report the current settings and sensor values via the serial port. ">
<polygon fill="white" stroke="black" points="162,-19.5 162,-38.5 213,-38.5 213,-19.5 162,-19.5"/>
<text text-anchor="middle" x="187.5" y="-26.5" font-family="Helvetica,sans-Serif" font-size="10.00">printLog</text>
</a>
</g>
</g>
<!-- Node1&#45;&gt;Node2 -->
<g id="edge1" class="edge"><title>Node1&#45;&gt;Node2</title>
<path fill="none" stroke="midnightblue" d="M136.353,-29C145.506,-29 154.316,-29 161.93,-29"/>
<polygon fill="midnightblue" stroke="midnightblue" points="136.327,-25.5001 126.327,-29 136.327,-32.5001 136.327,-25.5001"/>
</g>
<!-- Node3 -->
<g id="node3" class="node"><title>Node3</title>
<g id="a_node3"><a xlink:href="actions_8h.html#a1fec7da4166b9612d2deec3d0262d60f" target="_top" xlink:title="dispatchOnStack">
<polygon fill="white" stroke="black" points="249,-38.5 249,-57.5 341,-57.5 341,-38.5 249,-38.5"/>
<text text-anchor="middle" x="295" y="-45.5" font-family="Helvetica,sans-Serif" font-size="10.00">dispatchOnStack</text>
</a>
</g>
</g>
<!-- Node2&#45;&gt;Node3 -->
<g id="edge2" class="edge"><title>Node2&#45;&gt;Node3</title>
<path fill="none" stroke="midnightblue" d="M223.165,-35.243C231.338,-36.7149 240.17,-38.3055 248.734,-39.8478"/>
<polygon fill="midnightblue" stroke="midnightblue" points="223.697,-31.7826 213.235,-33.4547 222.456,-38.6718 223.697,-31.7826"/>
</g>
<!-- Node4 -->
<g id="node4" class="node"><title>Node4</title>
<g id="a_node4"><a xlink:href="actions_8h.html#a9c9466bf6676f35ff08e8dc33518e483" target="_top" xlink:title="Respond to commands from the serial port. ">
<polygon fill="white" stroke="black" points="257.5,-0.5 257.5,-19.5 332.5,-19.5 332.5,-0.5 257.5,-0.5"/>
<text text-anchor="middle" x="295" y="-7.5" font-family="Helvetica,sans-Serif" font-size="10.00">readEvalPrint</text>
</a>
</g>
</g>
<!-- Node2&#45;&gt;Node4 -->
<g id="edge3" class="edge"><title>Node2&#45;&gt;Node4</title>
<path fill="none" stroke="midnightblue" d="M223.297,-22.7333C234.241,-20.7623 246.356,-18.5804 257.42,-16.5878"/>
<polygon fill="midnightblue" stroke="midnightblue" points="222.456,-19.3282 213.235,-24.5453 223.697,-26.2174 222.456,-19.3282"/>
</g>
</g>
</svg>
