<?xml version="1.0" encoding="UTF-8" standalone="no"?>
<!DOCTYPE svg PUBLIC "-//W3C//DTD SVG 1.1//EN"
 "http://www.w3.org/Graphics/SVG/1.1/DTD/svg11.dtd">
<!-- Generated by graphviz version 2.38.0 (20140413.2041)
 -->
<!-- Title: saveSettings Pages: 1 -->
<svg width="243pt" height="66pt"
 viewBox="0.00 0.00 243.00 66.00" xmlns="http://www.w3.org/2000/svg" xmlns:xlink="http://www.w3.org/1999/xlink">
<g id="graph0" class="graph" transform="scale(1 1) rotate(0) translate(4 62)">
<title>saveSettings</title>
<polygon fill="white" stroke="none" points="-4,4 -4,-62 239,-62 239,4 -4,4"/>
<!-- Node1 -->
<g id="node1" class="node"><title>Node1</title>
<polygon fill="#bfbfbf" stroke="black" points="0,-19.5 0,-38.5 74,-38.5 74,-19.5 0,-19.5"/>
<text text-anchor="middle" x="37" y="-26.5" font-family="Helvetica,sans-Serif" font-size="10.00">saveSettings</text>
</g>
<!-- Node2 -->
<g id="node2" class="node"><title>Node2</title>
<g id="a_node2"><a xlink:href="_e_e_p_r_o_m_anything_8h.html#a396fbd5a2d6b5b3f3dac10fec0bdd780" target="_top" xlink:title="Dump a raw value starting at EEPROM (or Flash) location ee. ">
<polygon fill="white" stroke="black" points="110,-38.5 110,-57.5 235,-57.5 235,-38.5 110,-38.5"/>
<text text-anchor="middle" x="172.5" y="-45.5" font-family="Helvetica,sans-Serif" font-size="10.00">EEPROM_writeAnything</text>
</a>
</g>
</g>
<!-- Node1&#45;&gt;Node2 -->
<g id="edge1" class="edge"><title>Node1&#45;&gt;Node2</title>
<path fill="none" stroke="midnightblue" d="M74.127,-34.1417C82.1501,-35.2835 90.9266,-36.5326 99.8206,-37.7984"/>
<polygon fill="midnightblue" stroke="midnightblue" points="99.4847,-41.2858 109.878,-39.2298 100.471,-34.3557 99.4847,-41.2858"/>
</g>
<!-- Node3 -->
<g id="node3" class="node"><title>Node3</title>
<g id="a_node3"><a xlink:href="settings_8cpp.html#a696d9ef198af47b248ab05065cb25087" target="_top" xlink:title="timeIsSet">
<polygon fill="white" stroke="black" points="143,-0.5 143,-19.5 202,-19.5 202,-0.5 143,-0.5"/>
<text text-anchor="middle" x="172.5" y="-7.5" font-family="Helvetica,sans-Serif" font-size="10.00">timeIsSet</text>
</a>
</g>
</g>
<!-- Node1&#45;&gt;Node3 -->
<g id="edge2" class="edge"><title>Node1&#45;&gt;Node3</title>
<path fill="none" stroke="midnightblue" d="M74.127,-23.8583C92.2858,-21.2739 114.305,-18.1401 132.808,-15.5068"/>
<polygon fill="midnightblue" stroke="midnightblue" points="133.551,-18.9363 142.958,-14.0621 132.565,-12.0062 133.551,-18.9363"/>
</g>
</g>
</svg>
