<?xml version="1.0" encoding="UTF-8" standalone="no"?>
<!DOCTYPE svg PUBLIC "-//W3C//DTD SVG 1.1//EN"
 "http://www.w3.org/Graphics/SVG/1.1/DTD/svg11.dtd">
<!-- Generated by graphviz version 2.38.0 (20140413.2041)
 -->
<!-- Title: setDitMicros Pages: 1 -->
<svg width="330pt" height="159pt"
 viewBox="0.00 0.00 330.00 159.05" xmlns="http://www.w3.org/2000/svg" xmlns:xlink="http://www.w3.org/1999/xlink">
<g id="graph0" class="graph" transform="scale(1 1) rotate(0) translate(4 155.052)">
<title>setDitMicros</title>
<polygon fill="white" stroke="none" points="-4,4 -4,-155.052 326,-155.052 326,4 -4,4"/>
<!-- Node1 -->
<g id="node1" class="node"><title>Node1</title>
<polygon fill="#bfbfbf" stroke="black" points="0,-76.5 0,-95.5 72,-95.5 72,-76.5 0,-76.5"/>
<text text-anchor="middle" x="36" y="-83.5" font-family="Helvetica,sans-Serif" font-size="10.00">setDitMicros</text>
</g>
<!-- Node2 -->
<g id="node2" class="node"><title>Node2</title>
<g id="a_node2"><a xlink:href="actions_8h.html#a1fec7da4166b9612d2deec3d0262d60f" target="_top" xlink:title="dispatchOnStack">
<polygon fill="white" stroke="black" points="230,-114.5 230,-133.5 322,-133.5 322,-114.5 230,-114.5"/>
<text text-anchor="middle" x="276" y="-121.5" font-family="Helvetica,sans-Serif" font-size="10.00">dispatchOnStack</text>
</a>
</g>
</g>
<!-- Node1&#45;&gt;Node2 -->
<g id="edge1" class="edge"><title>Node1&#45;&gt;Node2</title>
<path fill="none" stroke="midnightblue" d="M51.81,-103.049C64.9727,-116.801 85.5627,-135.108 108,-143 156.172,-159.944 216.523,-144.844 249.891,-133.592"/>
<polygon fill="midnightblue" stroke="midnightblue" points="54.3027,-100.589 44.9604,-95.592 49.1473,-105.324 54.3027,-100.589"/>
</g>
<!-- Node3 -->
<g id="node3" class="node"><title>Node3</title>
<g id="a_node3"><a xlink:href="actions_8h.html#a68d867ac633d6976afcbf1180e2123a5" target="_top" xlink:title="Increase the unit time by 5000 microseconds. ">
<polygon fill="white" stroke="black" points="120,-114.5 120,-133.5 182,-133.5 182,-114.5 120,-114.5"/>
<text text-anchor="middle" x="151" y="-121.5" font-family="Helvetica,sans-Serif" font-size="10.00">slowDown</text>
</a>
</g>
</g>
<!-- Node1&#45;&gt;Node3 -->
<g id="edge2" class="edge"><title>Node1&#45;&gt;Node3</title>
<path fill="none" stroke="midnightblue" d="M75.1402,-98.8259C90.3025,-103.925 107.444,-109.689 121.494,-114.414"/>
<polygon fill="midnightblue" stroke="midnightblue" points="76.1087,-95.4591 65.5147,-95.589 73.8775,-102.094 76.1087,-95.4591"/>
</g>
<!-- Node4 -->
<g id="node4" class="node"><title>Node4</title>
<g id="a_node4"><a xlink:href="actions_8h.html#a40eae45b6e35fc4fdff30b28d2aca4fe" target="_top" xlink:title="Decrease the unit time by 5000 microseconds. ">
<polygon fill="white" stroke="black" points="123,-76.5 123,-95.5 179,-95.5 179,-76.5 123,-76.5"/>
<text text-anchor="middle" x="151" y="-83.5" font-family="Helvetica,sans-Serif" font-size="10.00">speedUp</text>
</a>
</g>
</g>
<!-- Node1&#45;&gt;Node4 -->
<g id="edge4" class="edge"><title>Node1&#45;&gt;Node4</title>
<path fill="none" stroke="midnightblue" d="M82.3728,-86C96.0663,-86 110.668,-86 122.785,-86"/>
<polygon fill="midnightblue" stroke="midnightblue" points="82.1345,-82.5001 72.1345,-86 82.1345,-89.5001 82.1345,-82.5001"/>
</g>
<!-- Node5 -->
<g id="node5" class="node"><title>Node5</title>
<g id="a_node5"><a xlink:href="actions_8h.html#a9c9466bf6676f35ff08e8dc33518e483" target="_top" xlink:title="Respond to commands from the serial port. ">
<polygon fill="white" stroke="black" points="113.5,-38.5 113.5,-57.5 188.5,-57.5 188.5,-38.5 113.5,-38.5"/>
<text text-anchor="middle" x="151" y="-45.5" font-family="Helvetica,sans-Serif" font-size="10.00">readEvalPrint</text>
</a>
</g>
</g>
<!-- Node1&#45;&gt;Node5 -->
<g id="edge6" class="edge"><title>Node1&#45;&gt;Node5</title>
<path fill="none" stroke="midnightblue" d="M75.1402,-73.1741C90.3025,-68.0753 107.444,-62.3109 121.494,-57.5859"/>
<polygon fill="midnightblue" stroke="midnightblue" points="73.8775,-69.9061 65.5147,-76.411 76.1087,-76.5409 73.8775,-69.9061"/>
</g>
<!-- Node6 -->
<g id="node6" class="node"><title>Node6</title>
<g id="a_node6"><a xlink:href="pda_8h.html#a5875d17f5eb7a7cb45b34d772ea743d8" target="_top" xlink:title="txAlphabetSong">
<polygon fill="white" stroke="black" points="108,-0.5 108,-19.5 194,-19.5 194,-0.5 108,-0.5"/>
<text text-anchor="middle" x="151" y="-7.5" font-family="Helvetica,sans-Serif" font-size="10.00">txAlphabetSong</text>
</a>
</g>
</g>
<!-- Node1&#45;&gt;Node6 -->
<g id="edge7" class="edge"><title>Node1&#45;&gt;Node6</title>
<path fill="none" stroke="midnightblue" d="M55.192,-69.2563C68.9969,-57.098 88.8127,-40.7809 108,-29 113.593,-25.5662 119.912,-22.3828 125.918,-19.6417"/>
<polygon fill="midnightblue" stroke="midnightblue" points="52.5429,-66.9305 47.4326,-76.2114 57.2152,-72.1431 52.5429,-66.9305"/>
</g>
<!-- Node3&#45;&gt;Node2 -->
<g id="edge3" class="edge"><title>Node3&#45;&gt;Node2</title>
<path fill="none" stroke="midnightblue" d="M192.281,-124C204.301,-124 217.554,-124 229.864,-124"/>
<polygon fill="midnightblue" stroke="midnightblue" points="192.089,-120.5 182.089,-124 192.089,-127.5 192.089,-120.5"/>
</g>
<!-- Node4&#45;&gt;Node2 -->
<g id="edge5" class="edge"><title>Node4&#45;&gt;Node2</title>
<path fill="none" stroke="midnightblue" d="M189.171,-97.4837C206.644,-102.882 227.241,-109.245 243.877,-114.385"/>
<polygon fill="midnightblue" stroke="midnightblue" points="189.885,-94.0412 179.298,-94.4334 187.819,-100.729 189.885,-94.0412"/>
</g>
</g>
</svg>
