<?xml version="1.0" encoding="UTF-8" standalone="no"?>
<!DOCTYPE svg PUBLIC "-//W3C//DTD SVG 1.1//EN"
 "http://www.w3.org/Graphics/SVG/1.1/DTD/svg11.dtd">
<!-- Generated by graphviz version 2.38.0 (20140413.2041)
 -->
<!-- Title: setTxHz Pages: 1 -->
<svg width="417pt" height="125pt"
 viewBox="0.00 0.00 417.00 124.53" xmlns="http://www.w3.org/2000/svg" xmlns:xlink="http://www.w3.org/1999/xlink">
<g id="graph0" class="graph" transform="scale(1 1) rotate(0) translate(4 120.533)">
<title>setTxHz</title>
<polygon fill="white" stroke="none" points="-4,4 -4,-120.533 413,-120.533 413,4 -4,4"/>
<!-- Node1 -->
<g id="node1" class="node"><title>Node1</title>
<polygon fill="#bfbfbf" stroke="black" points="0,-57.5 0,-76.5 54,-76.5 54,-57.5 0,-57.5"/>
<text text-anchor="middle" x="27" y="-64.5" font-family="Helvetica,sans-Serif" font-size="10.00">setTxHz</text>
</g>
<!-- Node2 -->
<g id="node2" class="node"><title>Node2</title>
<g id="a_node2"><a xlink:href="actions_8h.html#a1fec7da4166b9612d2deec3d0262d60f" target="_top" xlink:title="dispatchOnStack">
<polygon fill="white" stroke="black" points="317,-76.5 317,-95.5 409,-95.5 409,-76.5 317,-76.5"/>
<text text-anchor="middle" x="363" y="-83.5" font-family="Helvetica,sans-Serif" font-size="10.00">dispatchOnStack</text>
</a>
</g>
</g>
<!-- Node1&#45;&gt;Node2 -->
<g id="edge1" class="edge"><title>Node1&#45;&gt;Node2</title>
<path fill="none" stroke="midnightblue" d="M47.4716,-82.8083C59.0683,-91.1872 74.5079,-100.63 90,-105 173.146,-128.453 275.978,-108.811 328.172,-95.5991"/>
<polygon fill="midnightblue" stroke="midnightblue" points="49.5012,-79.9549 39.4155,-76.71 45.2763,-85.5362 49.5012,-79.9549"/>
</g>
<!-- Node3 -->
<g id="node3" class="node"><title>Node3</title>
<g id="a_node3"><a xlink:href="actions_8h.html#a9c9466bf6676f35ff08e8dc33518e483" target="_top" xlink:title="Respond to commands from the serial port. ">
<polygon fill="white" stroke="black" points="95.5,-76.5 95.5,-95.5 170.5,-95.5 170.5,-76.5 95.5,-76.5"/>
<text text-anchor="middle" x="133" y="-83.5" font-family="Helvetica,sans-Serif" font-size="10.00">readEvalPrint</text>
</a>
</g>
</g>
<!-- Node1&#45;&gt;Node3 -->
<g id="edge2" class="edge"><title>Node1&#45;&gt;Node3</title>
<path fill="none" stroke="midnightblue" d="M64.2815,-73.6284C74.2787,-75.4548 85.1313,-77.4375 95.1597,-79.2696"/>
<polygon fill="midnightblue" stroke="midnightblue" points="64.7098,-70.1487 54.2436,-71.7945 63.4517,-77.0348 64.7098,-70.1487"/>
</g>
<!-- Node4 -->
<g id="node4" class="node"><title>Node4</title>
<g id="a_node4"><a xlink:href="libmorse_8h.html#ac4a29ea9b7bb06c2d9e8c4d74f486b91" target="_top" xlink:title="Accumulate a Morse token. ">
<polygon fill="white" stroke="black" points="104.5,-38.5 104.5,-57.5 161.5,-57.5 161.5,-38.5 104.5,-38.5"/>
<text text-anchor="middle" x="133" y="-45.5" font-family="Helvetica,sans-Serif" font-size="10.00">getMorse</text>
</a>
</g>
</g>
<!-- Node1&#45;&gt;Node4 -->
<g id="edge3" class="edge"><title>Node1&#45;&gt;Node4</title>
<path fill="none" stroke="midnightblue" d="M64.3735,-60.3548C77.4854,-57.9594 92.0587,-55.297 104.309,-53.0589"/>
<polygon fill="midnightblue" stroke="midnightblue" points="63.4517,-56.9652 54.2436,-62.2055 64.7098,-63.8513 63.4517,-56.9652"/>
</g>
<!-- Node7 -->
<g id="node7" class="node"><title>Node7</title>
<g id="a_node7"><a xlink:href="pda_8h.html#a5875d17f5eb7a7cb45b34d772ea743d8" target="_top" xlink:title="txAlphabetSong">
<polygon fill="white" stroke="black" points="90,-0.5 90,-19.5 176,-19.5 176,-0.5 90,-0.5"/>
<text text-anchor="middle" x="133" y="-7.5" font-family="Helvetica,sans-Serif" font-size="10.00">txAlphabetSong</text>
</a>
</g>
</g>
<!-- Node1&#45;&gt;Node7 -->
<g id="edge8" class="edge"><title>Node1&#45;&gt;Node7</title>
<path fill="none" stroke="midnightblue" d="M51.0456,-51.9258C62.5495,-44.6472 76.797,-35.9973 90,-29 96.2228,-25.702 103.13,-22.4263 109.516,-19.5472"/>
<polygon fill="midnightblue" stroke="midnightblue" points="49.0137,-49.0708 42.4803,-57.4113 52.7889,-54.9655 49.0137,-49.0708"/>
</g>
<!-- Node5 -->
<g id="node5" class="node"><title>Node5</title>
<g id="a_node5"><a xlink:href="libmorse_8cpp.html#afa60f07ebee7c34ef41c3dfb64222bb6" target="_top" xlink:title="Score the given pattern against the state of the symbol stack. ">
<polygon fill="white" stroke="black" points="212,-76.5 212,-95.5 281,-95.5 281,-76.5 212,-76.5"/>
<text text-anchor="middle" x="246.5" y="-83.5" font-family="Helvetica,sans-Serif" font-size="10.00">matchScore</text>
</a>
</g>
</g>
<!-- Node4&#45;&gt;Node5 -->
<g id="edge4" class="edge"><title>Node4&#45;&gt;Node5</title>
<path fill="none" stroke="midnightblue" d="M171.146,-60.6595C186.265,-65.8122 203.446,-71.6676 217.481,-76.4509"/>
<polygon fill="midnightblue" stroke="midnightblue" points="172.156,-57.3063 161.562,-57.3933 169.898,-63.9321 172.156,-57.3063"/>
</g>
<!-- Node6 -->
<g id="node6" class="node"><title>Node6</title>
<g id="a_node6"><a xlink:href="libmorse_8h.html#a25fad1f4d176afaa89839cc897891e78" target="_top" xlink:title="rxString">
<polygon fill="white" stroke="black" points="221.5,-38.5 221.5,-57.5 271.5,-57.5 271.5,-38.5 221.5,-38.5"/>
<text text-anchor="middle" x="246.5" y="-45.5" font-family="Helvetica,sans-Serif" font-size="10.00">rxString</text>
</a>
</g>
</g>
<!-- Node4&#45;&gt;Node6 -->
<g id="edge6" class="edge"><title>Node4&#45;&gt;Node6</title>
<path fill="none" stroke="midnightblue" d="M171.9,-48C188.237,-48 206.859,-48 221.285,-48"/>
<polygon fill="midnightblue" stroke="midnightblue" points="171.562,-44.5001 161.562,-48 171.562,-51.5001 171.562,-44.5001"/>
</g>
<!-- Node5&#45;&gt;Node2 -->
<g id="edge5" class="edge"><title>Node5&#45;&gt;Node2</title>
<path fill="none" stroke="midnightblue" d="M291.425,-86C299.68,-86 308.326,-86 316.623,-86"/>
<polygon fill="midnightblue" stroke="midnightblue" points="291.235,-82.5001 281.234,-86 291.234,-89.5001 291.235,-82.5001"/>
</g>
<!-- Node6&#45;&gt;Node2 -->
<g id="edge7" class="edge"><title>Node6&#45;&gt;Node2</title>
<path fill="none" stroke="midnightblue" d="M281.298,-59.2167C297.78,-64.6868 317.397,-71.1974 333.163,-76.4298"/>
<polygon fill="midnightblue" stroke="midnightblue" points="282.096,-55.7941 271.503,-55.966 279.891,-62.4378 282.096,-55.7941"/>
</g>
</g>
</svg>
