<?xml version="1.0" encoding="UTF-8" standalone="no"?>
<!DOCTYPE svg PUBLIC "-//W3C//DTD SVG 1.1//EN"
 "http://www.w3.org/Graphics/SVG/1.1/DTD/svg11.dtd">
<!-- Generated by graphviz version 2.38.0 (20140413.2041)
 -->
<!-- Title: getDitMicrosDefault Pages: 1 -->
<svg width="580pt" height="180pt"
 viewBox="0.00 0.00 580.00 180.00" xmlns="http://www.w3.org/2000/svg" xmlns:xlink="http://www.w3.org/1999/xlink">
<g id="graph0" class="graph" transform="scale(1 1) rotate(0) translate(4 176)">
<title>getDitMicrosDefault</title>
<polygon fill="white" stroke="none" points="-4,4 -4,-176 576,-176 576,4 -4,4"/>
<!-- Node1 -->
<g id="node1" class="node"><title>Node1</title>
<polygon fill="#bfbfbf" stroke="black" points="0,-76.5 0,-95.5 104,-95.5 104,-76.5 0,-76.5"/>
<text text-anchor="middle" x="52" y="-83.5" font-family="Helvetica,sans-Serif" font-size="10.00">getDitMicrosDefault</text>
</g>
<!-- Node2 -->
<g id="node2" class="node"><title>Node2</title>
<g id="a_node2"><a xlink:href="actions_8h.html#aa39383c189ec39df4fe9337c5edc98c2" target="_top" xlink:title="getPressure">
<polygon fill="white" stroke="black" points="150,-152.5 150,-171.5 219,-171.5 219,-152.5 150,-152.5"/>
<text text-anchor="middle" x="184.5" y="-159.5" font-family="Helvetica,sans-Serif" font-size="10.00">getPressure</text>
</a>
</g>
</g>
<!-- Node1&#45;&gt;Node2 -->
<g id="edge1" class="edge"><title>Node1&#45;&gt;Node2</title>
<path fill="none" stroke="midnightblue" d="M77.5346,-100.972C94.8902,-111.488 118.758,-125.797 140,-138 148.376,-142.812 157.75,-148.007 165.644,-152.329"/>
<polygon fill="midnightblue" stroke="midnightblue" points="78.9845,-97.7579 68.6206,-95.558 75.3506,-103.741 78.9845,-97.7579"/>
</g>
<!-- Node3 -->
<g id="node3" class="node"><title>Node3</title>
<g id="a_node3"><a xlink:href="actions_8h.html#a84cfecc2ad5d97d5db65575c3a6109b3" target="_top" xlink:title="txTick">
<polygon fill="white" stroke="black" points="162.5,-76.5 162.5,-95.5 206.5,-95.5 206.5,-76.5 162.5,-76.5"/>
<text text-anchor="middle" x="184.5" y="-83.5" font-family="Helvetica,sans-Serif" font-size="10.00">txTick</text>
</a>
</g>
</g>
<!-- Node1&#45;&gt;Node3 -->
<g id="edge2" class="edge"><title>Node1&#45;&gt;Node3</title>
<path fill="none" stroke="midnightblue" d="M114.3,-86C131.586,-86 149.243,-86 162.395,-86"/>
<polygon fill="midnightblue" stroke="midnightblue" points="114.203,-82.5001 104.203,-86 114.202,-89.5001 114.203,-82.5001"/>
</g>
<!-- Node9 -->
<g id="node9" class="node"><title>Node9</title>
<g id="a_node9"><a xlink:href="actions_8h.html#aa0a40d808c3c5af59aa2e847188d1309" target="_top" xlink:title="Play a brief pair high&#45;pitched chirps. ">
<polygon fill="white" stroke="black" points="158.5,-38.5 158.5,-57.5 210.5,-57.5 210.5,-38.5 158.5,-38.5"/>
<text text-anchor="middle" x="184.5" y="-45.5" font-family="Helvetica,sans-Serif" font-size="10.00">txTiTick</text>
</a>
</g>
</g>
<!-- Node1&#45;&gt;Node9 -->
<g id="edge9" class="edge"><title>Node1&#45;&gt;Node9</title>
<path fill="none" stroke="midnightblue" d="M95.7869,-73.541C116.517,-67.5048 140.691,-60.4653 158.406,-55.3071"/>
<polygon fill="midnightblue" stroke="midnightblue" points="94.5534,-70.2547 85.9307,-76.411 96.5104,-76.9756 94.5534,-70.2547"/>
</g>
<!-- Node10 -->
<g id="node10" class="node"><title>Node10</title>
<g id="a_node10"><a xlink:href="actions_8h.html#a65c96858d186454308e53fe7bb3abd07" target="_top" xlink:title="txTock">
<polygon fill="white" stroke="black" points="278.5,-114.5 278.5,-133.5 325.5,-133.5 325.5,-114.5 278.5,-114.5"/>
<text text-anchor="middle" x="302" y="-121.5" font-family="Helvetica,sans-Serif" font-size="10.00">txTock</text>
</a>
</g>
</g>
<!-- Node1&#45;&gt;Node10 -->
<g id="edge10" class="edge"><title>Node1&#45;&gt;Node10</title>
<path fill="none" stroke="midnightblue" d="M102.669,-97.7221C114.834,-100.351 127.85,-102.961 140,-105 188.992,-113.22 246.959,-119.137 278.238,-122.019"/>
<polygon fill="midnightblue" stroke="midnightblue" points="103.207,-94.2567 92.6879,-95.5218 101.7,-101.093 103.207,-94.2567"/>
</g>
<!-- Node11 -->
<g id="node11" class="node"><title>Node11</title>
<g id="a_node11"><a xlink:href="pda_8h.html#a3c36576745952735f04eaa82b933e6fa" target="_top" xlink:title="Play one of 10 sound effects based on the digit on the stack. ">
<polygon fill="white" stroke="black" points="140,-0.5 140,-19.5 229,-19.5 229,-0.5 140,-0.5"/>
<text text-anchor="middle" x="184.5" y="-7.5" font-family="Helvetica,sans-Serif" font-size="10.00">playSoundEffect</text>
</a>
</g>
</g>
<!-- Node1&#45;&gt;Node11 -->
<g id="edge13" class="edge"><title>Node1&#45;&gt;Node11</title>
<path fill="none" stroke="midnightblue" d="M74.3754,-70.5368C91.6149,-58.4278 116.738,-41.5848 140,-29 146.234,-25.6277 153.188,-22.3769 159.676,-19.5466"/>
<polygon fill="midnightblue" stroke="midnightblue" points="72.2586,-67.7472 66.1304,-76.3899 76.3107,-73.4552 72.2586,-67.7472"/>
</g>
<!-- Node4 -->
<g id="node4" class="node"><title>Node4</title>
<g id="a_node4"><a xlink:href="libmorse_8h.html#ac4a29ea9b7bb06c2d9e8c4d74f486b91" target="_top" xlink:title="Accumulate a Morse token. ">
<polygon fill="white" stroke="black" points="273.5,-38.5 273.5,-57.5 330.5,-57.5 330.5,-38.5 273.5,-38.5"/>
<text text-anchor="middle" x="302" y="-45.5" font-family="Helvetica,sans-Serif" font-size="10.00">getMorse</text>
</a>
</g>
</g>
<!-- Node3&#45;&gt;Node4 -->
<g id="edge3" class="edge"><title>Node3&#45;&gt;Node4</title>
<path fill="none" stroke="midnightblue" d="M216.552,-75.7837C234.274,-69.9532 256.296,-62.7077 273.408,-57.0778"/>
<polygon fill="midnightblue" stroke="midnightblue" points="215.09,-72.5802 206.684,-79.0302 217.277,-79.2296 215.09,-72.5802"/>
</g>
<!-- Node8 -->
<g id="node8" class="node"><title>Node8</title>
<g id="a_node8"><a xlink:href="pda_8h.html#aee08a527408a7a8a4b5490d13b767cb2" target="_top" xlink:title="txMetronome">
<polygon fill="white" stroke="black" points="265,-76.5 265,-95.5 339,-95.5 339,-76.5 265,-76.5"/>
<text text-anchor="middle" x="302" y="-83.5" font-family="Helvetica,sans-Serif" font-size="10.00">txMetronome</text>
</a>
</g>
</g>
<!-- Node3&#45;&gt;Node8 -->
<g id="edge8" class="edge"><title>Node3&#45;&gt;Node8</title>
<path fill="none" stroke="midnightblue" d="M216.901,-86C231.756,-86 249.572,-86 264.975,-86"/>
<polygon fill="midnightblue" stroke="midnightblue" points="216.685,-82.5001 206.684,-86 216.684,-89.5001 216.685,-82.5001"/>
</g>
<!-- Node5 -->
<g id="node5" class="node"><title>Node5</title>
<g id="a_node5"><a xlink:href="libmorse_8cpp.html#afa60f07ebee7c34ef41c3dfb64222bb6" target="_top" xlink:title="Score the given pattern against the state of the symbol stack. ">
<polygon fill="white" stroke="black" points="375,-95.5 375,-114.5 444,-114.5 444,-95.5 375,-95.5"/>
<text text-anchor="middle" x="409.5" y="-102.5" font-family="Helvetica,sans-Serif" font-size="10.00">matchScore</text>
</a>
</g>
</g>
<!-- Node4&#45;&gt;Node5 -->
<g id="edge4" class="edge"><title>Node4&#45;&gt;Node5</title>
<path fill="none" stroke="midnightblue" d="M330.43,-62.4232C333.326,-63.9623 336.226,-65.5096 339,-67 356.808,-76.567 377.081,-87.6765 391.116,-95.4026"/>
<polygon fill="midnightblue" stroke="midnightblue" points="331.818,-59.1977 321.342,-57.6137 328.543,-65.3848 331.818,-59.1977"/>
</g>
<!-- Node7 -->
<g id="node7" class="node"><title>Node7</title>
<g id="a_node7"><a xlink:href="libmorse_8h.html#a25fad1f4d176afaa89839cc897891e78" target="_top" xlink:title="rxString">
<polygon fill="white" stroke="black" points="384.5,-57.5 384.5,-76.5 434.5,-76.5 434.5,-57.5 384.5,-57.5"/>
<text text-anchor="middle" x="409.5" y="-64.5" font-family="Helvetica,sans-Serif" font-size="10.00">rxString</text>
</a>
</g>
</g>
<!-- Node4&#45;&gt;Node7 -->
<g id="edge6" class="edge"><title>Node4&#45;&gt;Node7</title>
<path fill="none" stroke="midnightblue" d="M340.873,-54.8207C355.305,-57.4199 371.355,-60.3105 384.197,-62.6231"/>
<polygon fill="midnightblue" stroke="midnightblue" points="341.181,-51.32 330.719,-52.992 339.94,-58.2091 341.181,-51.32"/>
</g>
<!-- Node6 -->
<g id="node6" class="node"><title>Node6</title>
<g id="a_node6"><a xlink:href="actions_8h.html#a1fec7da4166b9612d2deec3d0262d60f" target="_top" xlink:title="dispatchOnStack">
<polygon fill="white" stroke="black" points="480,-76.5 480,-95.5 572,-95.5 572,-76.5 480,-76.5"/>
<text text-anchor="middle" x="526" y="-83.5" font-family="Helvetica,sans-Serif" font-size="10.00">dispatchOnStack</text>
</a>
</g>
</g>
<!-- Node5&#45;&gt;Node6 -->
<g id="edge5" class="edge"><title>Node5&#45;&gt;Node6</title>
<path fill="none" stroke="midnightblue" d="M454.15,-97.7567C462.488,-96.3732 471.233,-94.922 479.623,-93.5298"/>
<polygon fill="midnightblue" stroke="midnightblue" points="453.527,-94.3123 444.234,-99.4021 454.673,-101.218 453.527,-94.3123"/>
</g>
<!-- Node7&#45;&gt;Node6 -->
<g id="edge7" class="edge"><title>Node7&#45;&gt;Node6</title>
<path fill="none" stroke="midnightblue" d="M444.591,-72.657C455.625,-74.488 468.039,-76.548 479.752,-78.4915"/>
<polygon fill="midnightblue" stroke="midnightblue" points="444.941,-69.1673 434.503,-70.983 443.795,-76.0729 444.941,-69.1673"/>
</g>
<!-- Node10&#45;&gt;Node5 -->
<g id="edge11" class="edge"><title>Node10&#45;&gt;Node5</title>
<path fill="none" stroke="midnightblue" d="M335.571,-118.134C347.984,-115.899 362.151,-113.347 374.677,-111.091"/>
<polygon fill="midnightblue" stroke="midnightblue" points="334.854,-114.707 325.632,-119.924 336.094,-121.596 334.854,-114.707"/>
</g>
<!-- Node10&#45;&gt;Node7 -->
<g id="edge12" class="edge"><title>Node10&#45;&gt;Node7</title>
<path fill="none" stroke="midnightblue" d="M330.43,-109.577C333.326,-108.038 336.226,-106.49 339,-105 356.808,-95.433 377.081,-84.3235 391.116,-76.5974"/>
<polygon fill="midnightblue" stroke="midnightblue" points="328.543,-106.615 321.342,-114.386 331.818,-112.802 328.543,-106.615"/>
</g>
</g>
</svg>
