<?xml version="1.0" encoding="UTF-8" standalone="no"?>
<!DOCTYPE svg PUBLIC "-//W3C//DTD SVG 1.1//EN"
 "http://www.w3.org/Graphics/SVG/1.1/DTD/svg11.dtd">
<!-- Generated by graphviz version 2.38.0 (20140413.2041)
 -->
<!-- Title: getAnnouncementFormat Pages: 1 -->
<svg width="396pt" height="104pt"
 viewBox="0.00 0.00 396.00 104.00" xmlns="http://www.w3.org/2000/svg" xmlns:xlink="http://www.w3.org/1999/xlink">
<g id="graph0" class="graph" transform="scale(1 1) rotate(0) translate(4 100)">
<title>getAnnouncementFormat</title>
<polygon fill="white" stroke="none" points="-4,4 -4,-100 392,-100 392,4 -4,4"/>
<!-- Node1 -->
<g id="node1" class="node"><title>Node1</title>
<polygon fill="#bfbfbf" stroke="black" points="0,-38.5 0,-57.5 126,-57.5 126,-38.5 0,-38.5"/>
<text text-anchor="middle" x="63" y="-45.5" font-family="Helvetica,sans-Serif" font-size="10.00">getAnnouncementFormat</text>
</g>
<!-- Node2 -->
<g id="node2" class="node"><title>Node2</title>
<g id="a_node2"><a xlink:href="actions_8h.html#ae3b76158e4805ae5426e51c42f6f265a" target="_top" xlink:title="Get the alarm format for the current alarm state. ">
<polygon fill="white" stroke="black" points="162,-76.5 162,-95.5 260,-95.5 260,-76.5 162,-76.5"/>
<text text-anchor="middle" x="211" y="-83.5" font-family="Helvetica,sans-Serif" font-size="10.00">getFormatForState</text>
</a>
</g>
</g>
<!-- Node1&#45;&gt;Node2 -->
<g id="edge1" class="edge"><title>Node1&#45;&gt;Node2</title>
<path fill="none" stroke="midnightblue" d="M110.536,-60.1121C130.87,-65.4044 154.371,-71.5213 173.423,-76.4799"/>
<polygon fill="midnightblue" stroke="midnightblue" points="111.401,-56.7207 100.842,-57.589 109.638,-63.4951 111.401,-56.7207"/>
</g>
<!-- Node3 -->
<g id="node3" class="node"><title>Node3</title>
<g id="a_node3"><a xlink:href="actions_8h.html#a7cb54685ddb3c45facf6daadcc4a5f4b" target="_top" xlink:title="Report the current settings and sensor values via the serial port. ">
<polygon fill="white" stroke="black" points="185.5,-38.5 185.5,-57.5 236.5,-57.5 236.5,-38.5 185.5,-38.5"/>
<text text-anchor="middle" x="211" y="-45.5" font-family="Helvetica,sans-Serif" font-size="10.00">printLog</text>
</a>
</g>
</g>
<!-- Node1&#45;&gt;Node3 -->
<g id="edge2" class="edge"><title>Node1&#45;&gt;Node3</title>
<path fill="none" stroke="midnightblue" d="M136.628,-48C154.159,-48 171.718,-48 185.261,-48"/>
<polygon fill="midnightblue" stroke="midnightblue" points="136.341,-44.5001 126.341,-48 136.341,-51.5001 136.341,-44.5001"/>
</g>
<!-- Node6 -->
<g id="node6" class="node"><title>Node6</title>
<g id="a_node6"><a xlink:href="actions_8h.html#a395ec10538b43bf0543c55595fe2df68" target="_top" xlink:title="Transmit the current settings and sensor values. ">
<polygon fill="white" stroke="black" points="180.5,-0.5 180.5,-19.5 241.5,-19.5 241.5,-0.5 180.5,-0.5"/>
<text text-anchor="middle" x="211" y="-7.5" font-family="Helvetica,sans-Serif" font-size="10.00">txSettings</text>
</a>
</g>
</g>
<!-- Node1&#45;&gt;Node6 -->
<g id="edge5" class="edge"><title>Node1&#45;&gt;Node6</title>
<path fill="none" stroke="midnightblue" d="M110.644,-35.8599C133.383,-29.9415 160.063,-22.9973 180.047,-17.7959"/>
<polygon fill="midnightblue" stroke="midnightblue" points="109.638,-32.5049 100.842,-38.411 111.401,-39.2793 109.638,-32.5049"/>
</g>
<!-- Node4 -->
<g id="node4" class="node"><title>Node4</title>
<g id="a_node4"><a xlink:href="actions_8h.html#a1fec7da4166b9612d2deec3d0262d60f" target="_top" xlink:title="dispatchOnStack">
<polygon fill="white" stroke="black" points="296,-57.5 296,-76.5 388,-76.5 388,-57.5 296,-57.5"/>
<text text-anchor="middle" x="342" y="-64.5" font-family="Helvetica,sans-Serif" font-size="10.00">dispatchOnStack</text>
</a>
</g>
</g>
<!-- Node3&#45;&gt;Node4 -->
<g id="edge3" class="edge"><title>Node3&#45;&gt;Node4</title>
<path fill="none" stroke="midnightblue" d="M246.551,-53.0889C261.708,-55.3214 279.702,-57.9716 295.897,-60.3569"/>
<polygon fill="midnightblue" stroke="midnightblue" points="246.971,-49.6131 236.568,-51.6185 245.951,-56.5384 246.971,-49.6131"/>
</g>
<!-- Node5 -->
<g id="node5" class="node"><title>Node5</title>
<g id="a_node5"><a xlink:href="actions_8h.html#a9c9466bf6676f35ff08e8dc33518e483" target="_top" xlink:title="Respond to commands from the serial port. ">
<polygon fill="white" stroke="black" points="304.5,-19.5 304.5,-38.5 379.5,-38.5 379.5,-19.5 304.5,-19.5"/>
<text text-anchor="middle" x="342" y="-26.5" font-family="Helvetica,sans-Serif" font-size="10.00">readEvalPrint</text>
</a>
</g>
</g>
<!-- Node3&#45;&gt;Node5 -->
<g id="edge4" class="edge"><title>Node3&#45;&gt;Node5</title>
<path fill="none" stroke="midnightblue" d="M246.563,-42.9094C264.406,-40.2813 286.178,-37.0746 304.318,-34.4027"/>
<polygon fill="midnightblue" stroke="midnightblue" points="245.951,-39.4616 236.568,-44.3815 246.971,-46.3869 245.951,-39.4616"/>
</g>
</g>
</svg>
