<?xml version="1.0" encoding="UTF-8" standalone="no"?>
<!DOCTYPE svg PUBLIC "-//W3C//DTD SVG 1.1//EN"
 "http://www.w3.org/Graphics/SVG/1.1/DTD/svg11.dtd">
<!-- Generated by graphviz version 2.38.0 (20140413.2041)
 -->
<!-- Title: getAlarmHighFormat Pages: 1 -->
<svg width="377pt" height="85pt"
 viewBox="0.00 0.00 377.00 85.00" xmlns="http://www.w3.org/2000/svg" xmlns:xlink="http://www.w3.org/1999/xlink">
<g id="graph0" class="graph" transform="scale(1 1) rotate(0) translate(4 81)">
<title>getAlarmHighFormat</title>
<polygon fill="white" stroke="none" points="-4,4 -4,-81 373,-81 373,4 -4,4"/>
<!-- Node1 -->
<g id="node1" class="node"><title>Node1</title>
<polygon fill="#bfbfbf" stroke="black" points="0,-38.5 0,-57.5 107,-57.5 107,-38.5 0,-38.5"/>
<text text-anchor="middle" x="53.5" y="-45.5" font-family="Helvetica,sans-Serif" font-size="10.00">getAlarmHighFormat</text>
</g>
<!-- Node2 -->
<g id="node2" class="node"><title>Node2</title>
<g id="a_node2"><a xlink:href="actions_8h.html#ae3b76158e4805ae5426e51c42f6f265a" target="_top" xlink:title="Get the alarm format for the current alarm state. ">
<polygon fill="white" stroke="black" points="143,-57.5 143,-76.5 241,-76.5 241,-57.5 143,-57.5"/>
<text text-anchor="middle" x="192" y="-64.5" font-family="Helvetica,sans-Serif" font-size="10.00">getFormatForState</text>
</a>
</g>
</g>
<!-- Node1&#45;&gt;Node2 -->
<g id="edge1" class="edge"><title>Node1&#45;&gt;Node2</title>
<path fill="none" stroke="midnightblue" d="M117.268,-56.737C125.855,-57.9322 134.559,-59.1437 142.83,-60.295"/>
<polygon fill="midnightblue" stroke="midnightblue" points="117.662,-53.2581 107.274,-55.3459 116.696,-60.1912 117.662,-53.2581"/>
</g>
<!-- Node3 -->
<g id="node3" class="node"><title>Node3</title>
<g id="a_node3"><a xlink:href="actions_8h.html#a7cb54685ddb3c45facf6daadcc4a5f4b" target="_top" xlink:title="Report the current settings and sensor values via the serial port. ">
<polygon fill="white" stroke="black" points="166.5,-19.5 166.5,-38.5 217.5,-38.5 217.5,-19.5 166.5,-19.5"/>
<text text-anchor="middle" x="192" y="-26.5" font-family="Helvetica,sans-Serif" font-size="10.00">printLog</text>
</a>
</g>
</g>
<!-- Node1&#45;&gt;Node3 -->
<g id="edge2" class="edge"><title>Node1&#45;&gt;Node3</title>
<path fill="none" stroke="midnightblue" d="M117.365,-39.2495C134.652,-36.8433 152.403,-34.3725 166.144,-32.4599"/>
<polygon fill="midnightblue" stroke="midnightblue" points="116.696,-35.8088 107.274,-40.6541 117.662,-42.7419 116.696,-35.8088"/>
</g>
<!-- Node4 -->
<g id="node4" class="node"><title>Node4</title>
<g id="a_node4"><a xlink:href="actions_8h.html#a1fec7da4166b9612d2deec3d0262d60f" target="_top" xlink:title="dispatchOnStack">
<polygon fill="white" stroke="black" points="277,-38.5 277,-57.5 369,-57.5 369,-38.5 277,-38.5"/>
<text text-anchor="middle" x="323" y="-45.5" font-family="Helvetica,sans-Serif" font-size="10.00">dispatchOnStack</text>
</a>
</g>
</g>
<!-- Node3&#45;&gt;Node4 -->
<g id="edge3" class="edge"><title>Node3&#45;&gt;Node4</title>
<path fill="none" stroke="midnightblue" d="M227.551,-34.0889C242.708,-36.3214 260.702,-38.9716 276.897,-41.3569"/>
<polygon fill="midnightblue" stroke="midnightblue" points="227.971,-30.6131 217.568,-32.6185 226.951,-37.5384 227.971,-30.6131"/>
</g>
<!-- Node5 -->
<g id="node5" class="node"><title>Node5</title>
<g id="a_node5"><a xlink:href="actions_8h.html#a9c9466bf6676f35ff08e8dc33518e483" target="_top" xlink:title="Respond to commands from the serial port. ">
<polygon fill="white" stroke="black" points="285.5,-0.5 285.5,-19.5 360.5,-19.5 360.5,-0.5 285.5,-0.5"/>
<text text-anchor="middle" x="323" y="-7.5" font-family="Helvetica,sans-Serif" font-size="10.00">readEvalPrint</text>
</a>
</g>
</g>
<!-- Node3&#45;&gt;Node5 -->
<g id="edge4" class="edge"><title>Node3&#45;&gt;Node5</title>
<path fill="none" stroke="midnightblue" d="M227.563,-23.9094C245.406,-21.2813 267.178,-18.0746 285.318,-15.4027"/>
<polygon fill="midnightblue" stroke="midnightblue" points="226.951,-20.4616 217.568,-25.3815 227.971,-27.3869 226.951,-20.4616"/>
</g>
</g>
</svg>
