<?xml version="1.0" encoding="UTF-8" standalone="no"?>
<!DOCTYPE svg PUBLIC "-//W3C//DTD SVG 1.1//EN"
 "http://www.w3.org/Graphics/SVG/1.1/DTD/svg11.dtd">
<!-- Generated by graphviz version 2.38.0 (20140413.2041)
 -->
<!-- Title: getLowVoltageThresholdDefault Pages: 1 -->
<svg width="291pt" height="66pt"
 viewBox="0.00 0.00 291.00 66.00" xmlns="http://www.w3.org/2000/svg" xmlns:xlink="http://www.w3.org/1999/xlink">
<g id="graph0" class="graph" transform="scale(1 1) rotate(0) translate(4 62)">
<title>getLowVoltageThresholdDefault</title>
<polygon fill="white" stroke="none" points="-4,4 -4,-62 287,-62 287,4 -4,4"/>
<!-- Node1 -->
<g id="node1" class="node"><title>Node1</title>
<polygon fill="#bfbfbf" stroke="black" points="0,-19.5 0,-38.5 155,-38.5 155,-19.5 0,-19.5"/>
<text text-anchor="middle" x="77.5" y="-26.5" font-family="Helvetica,sans-Serif" font-size="10.00">getLowVoltageThresholdDefault</text>
</g>
<!-- Node2 -->
<g id="node2" class="node"><title>Node2</title>
<g id="a_node2"><a xlink:href="actions_8h.html#a1fec7da4166b9612d2deec3d0262d60f" target="_top" xlink:title="dispatchOnStack">
<polygon fill="white" stroke="black" points="191,-38.5 191,-57.5 283,-57.5 283,-38.5 191,-38.5"/>
<text text-anchor="middle" x="237" y="-45.5" font-family="Helvetica,sans-Serif" font-size="10.00">dispatchOnStack</text>
</a>
</g>
</g>
<!-- Node1&#45;&gt;Node2 -->
<g id="edge1" class="edge"><title>Node1&#45;&gt;Node2</title>
<path fill="none" stroke="midnightblue" d="M165.386,-39.4815C174.197,-40.5444 182.871,-41.5907 190.959,-42.5665"/>
<polygon fill="midnightblue" stroke="midnightblue" points="165.752,-36.0003 155.404,-38.2774 164.913,-42.9499 165.752,-36.0003"/>
</g>
<!-- Node3 -->
<g id="node3" class="node"><title>Node3</title>
<g id="a_node3"><a xlink:href="actions_8h.html#a9c9466bf6676f35ff08e8dc33518e483" target="_top" xlink:title="Respond to commands from the serial port. ">
<polygon fill="white" stroke="black" points="199.5,-0.5 199.5,-19.5 274.5,-19.5 274.5,-0.5 199.5,-0.5"/>
<text text-anchor="middle" x="237" y="-7.5" font-family="Helvetica,sans-Serif" font-size="10.00">readEvalPrint</text>
</a>
</g>
</g>
<!-- Node1&#45;&gt;Node3 -->
<g id="edge2" class="edge"><title>Node1&#45;&gt;Node3</title>
<path fill="none" stroke="midnightblue" d="M165.437,-18.5123C177.34,-17.0765 188.99,-15.6711 199.284,-14.4292"/>
<polygon fill="midnightblue" stroke="midnightblue" points="164.913,-15.0501 155.404,-19.7226 165.752,-21.9997 164.913,-15.0501"/>
</g>
</g>
</svg>
