<?xml version="1.0" encoding="UTF-8" standalone="no"?>
<!DOCTYPE svg PUBLIC "-//W3C//DTD SVG 1.1//EN"
 "http://www.w3.org/Graphics/SVG/1.1/DTD/svg11.dtd">
<!-- Generated by graphviz version 2.38.0 (20140413.2041)
 -->
<!-- Title: sound.h Pages: 1 -->
<svg width="225pt" height="84pt"
 viewBox="0.00 0.00 224.50 84.00" xmlns="http://www.w3.org/2000/svg" xmlns:xlink="http://www.w3.org/1999/xlink">
<g id="graph0" class="graph" transform="scale(1 1) rotate(0) translate(4 80)">
<title>sound.h</title>
<polygon fill="white" stroke="none" points="-4,4 -4,-80 220.5,-80 220.5,4 -4,4"/>
<!-- Node1 -->
<g id="node1" class="node"><title>Node1</title>
<polygon fill="#bfbfbf" stroke="black" points="85,-56.5 85,-75.5 136,-75.5 136,-56.5 85,-56.5"/>
<text text-anchor="middle" x="110.5" y="-63.5" font-family="Helvetica,sans-Serif" font-size="10.00">sound.h</text>
</g>
<!-- Node2 -->
<g id="node2" class="node"><title>Node2</title>
<g id="a_node2"><a xlink:href="actions_8cpp.xhtml" target="_top" xlink:title="Implementation of application&#45;specific actions. ">
<polygon fill="white" stroke="black" points="0,-0.5 0,-19.5 67,-19.5 67,-0.5 0,-0.5"/>
<text text-anchor="middle" x="33.5" y="-7.5" font-family="Helvetica,sans-Serif" font-size="10.00">actions.cpp</text>
</a>
</g>
</g>
<!-- Node1&#45;&gt;Node2 -->
<g id="edge1" class="edge"><title>Node1&#45;&gt;Node2</title>
<path fill="none" stroke="midnightblue" d="M89.599,-50.3422C75.5889,-40.5169 57.617,-27.9132 45.8407,-19.6545"/>
<polygon fill="midnightblue" stroke="midnightblue" points="87.9317,-53.4477 98.1286,-56.324 91.9509,-47.7166 87.9317,-53.4477"/>
</g>
<!-- Node3 -->
<g id="node3" class="node"><title>Node3</title>
<g id="a_node3"><a xlink:href="pda_8cpp.xhtml" target="_top" xlink:title="Implementation of Personal Digital Assistant functions. ">
<polygon fill="white" stroke="black" points="85,-0.5 85,-19.5 136,-19.5 136,-0.5 85,-0.5"/>
<text text-anchor="middle" x="110.5" y="-7.5" font-family="Helvetica,sans-Serif" font-size="10.00">pda.cpp</text>
</a>
</g>
</g>
<!-- Node1&#45;&gt;Node3 -->
<g id="edge2" class="edge"><title>Node1&#45;&gt;Node3</title>
<path fill="none" stroke="midnightblue" d="M110.5,-45.8045C110.5,-36.9102 110.5,-26.7798 110.5,-19.7511"/>
<polygon fill="midnightblue" stroke="midnightblue" points="107,-46.083 110.5,-56.083 114,-46.083 107,-46.083"/>
</g>
<!-- Node4 -->
<g id="node4" class="node"><title>Node4</title>
<g id="a_node4"><a xlink:href="sound_8cpp.xhtml" target="_top" xlink:title="Implementation of PWM sound effects. ">
<polygon fill="white" stroke="black" points="154.5,-0.5 154.5,-19.5 216.5,-19.5 216.5,-0.5 154.5,-0.5"/>
<text text-anchor="middle" x="185.5" y="-7.5" font-family="Helvetica,sans-Serif" font-size="10.00">sound.cpp</text>
</a>
</g>
</g>
<!-- Node1&#45;&gt;Node4 -->
<g id="edge3" class="edge"><title>Node1&#45;&gt;Node4</title>
<path fill="none" stroke="midnightblue" d="M130.805,-50.3804C144.361,-40.6204 161.742,-28.1057 173.231,-19.8339"/>
<polygon fill="midnightblue" stroke="midnightblue" points="128.62,-47.6405 122.55,-56.324 132.71,-53.3213 128.62,-47.6405"/>
</g>
</g>
</svg>
