<?xml version="1.0" encoding="UTF-8" standalone="no"?>
<!DOCTYPE svg PUBLIC "-//W3C//DTD SVG 1.1//EN"
 "http://www.w3.org/Graphics/SVG/1.1/DTD/svg11.dtd">
<!-- Generated by graphviz version 2.38.0 (20140413.2041)
 -->
<!-- Title: playTone Pages: 1 -->
<svg width="532pt" height="256pt"
 viewBox="0.00 0.00 532.00 256.00" xmlns="http://www.w3.org/2000/svg" xmlns:xlink="http://www.w3.org/1999/xlink">
<g id="graph0" class="graph" transform="scale(1 1) rotate(0) translate(4 252)">
<title>playTone</title>
<polygon fill="white" stroke="none" points="-4,4 -4,-252 528,-252 528,4 -4,4"/>
<!-- Node1 -->
<g id="node1" class="node"><title>Node1</title>
<polygon fill="#bfbfbf" stroke="black" points="0,-114.5 0,-133.5 56,-133.5 56,-114.5 0,-114.5"/>
<text text-anchor="middle" x="28" y="-121.5" font-family="Helvetica,sans-Serif" font-size="10.00">playTone</text>
</g>
<!-- Node2 -->
<g id="node2" class="node"><title>Node2</title>
<g id="a_node2"><a xlink:href="actions_8h.html#a84cfecc2ad5d97d5db65575c3a6109b3" target="_top" xlink:title="txTick">
<polygon fill="white" stroke="black" points="114.5,-190.5 114.5,-209.5 158.5,-209.5 158.5,-190.5 114.5,-190.5"/>
<text text-anchor="middle" x="136.5" y="-197.5" font-family="Helvetica,sans-Serif" font-size="10.00">txTick</text>
</a>
</g>
</g>
<!-- Node1&#45;&gt;Node2 -->
<g id="edge1" class="edge"><title>Node1&#45;&gt;Node2</title>
<path fill="none" stroke="midnightblue" d="M44.7001,-140.891C56.7675,-153.171 74.3167,-169.575 92,-181 98.922,-185.472 107.074,-189.35 114.438,-192.415"/>
<polygon fill="midnightblue" stroke="midnightblue" points="47.0656,-138.301 37.6154,-133.511 42.0159,-143.149 47.0656,-138.301"/>
</g>
<!-- Node8 -->
<g id="node8" class="node"><title>Node8</title>
<g id="a_node8"><a xlink:href="actions_8h.html#aa0a40d808c3c5af59aa2e847188d1309" target="_top" xlink:title="Play a brief pair high&#45;pitched chirps. ">
<polygon fill="white" stroke="black" points="110.5,-152.5 110.5,-171.5 162.5,-171.5 162.5,-152.5 110.5,-152.5"/>
<text text-anchor="middle" x="136.5" y="-159.5" font-family="Helvetica,sans-Serif" font-size="10.00">txTiTick</text>
</a>
</g>
</g>
<!-- Node1&#45;&gt;Node8 -->
<g id="edge8" class="edge"><title>Node1&#45;&gt;Node8</title>
<path fill="none" stroke="midnightblue" d="M65.3051,-136.954C80.1727,-142.259 97.0076,-148.266 110.463,-153.067"/>
<polygon fill="midnightblue" stroke="midnightblue" points="66.4691,-133.653 55.8744,-133.589 64.1167,-140.246 66.4691,-133.653"/>
</g>
<!-- Node9 -->
<g id="node9" class="node"><title>Node9</title>
<g id="a_node9"><a xlink:href="actions_8h.html#a65c96858d186454308e53fe7bb3abd07" target="_top" xlink:title="txTock">
<polygon fill="white" stroke="black" points="230.5,-228.5 230.5,-247.5 277.5,-247.5 277.5,-228.5 230.5,-228.5"/>
<text text-anchor="middle" x="254" y="-235.5" font-family="Helvetica,sans-Serif" font-size="10.00">txTock</text>
</a>
</g>
</g>
<!-- Node1&#45;&gt;Node9 -->
<g id="edge9" class="edge"><title>Node1&#45;&gt;Node9</title>
<path fill="none" stroke="midnightblue" d="M35.8393,-142.967C44.9494,-165.238 63.3308,-201.37 92,-219 135.155,-245.538 197.219,-244.15 230.266,-240.987"/>
<polygon fill="midnightblue" stroke="midnightblue" points="39.0729,-141.625 32.2046,-133.558 32.5431,-144.147 39.0729,-141.625"/>
</g>
<!-- Node10 -->
<g id="node10" class="node"><title>Node10</title>
<g id="a_node10"><a xlink:href="pda_8h.html#a3c36576745952735f04eaa82b933e6fa" target="_top" xlink:title="Play one of 10 sound effects based on the digit on the stack. ">
<polygon fill="white" stroke="black" points="92,-114.5 92,-133.5 181,-133.5 181,-114.5 92,-114.5"/>
<text text-anchor="middle" x="136.5" y="-121.5" font-family="Helvetica,sans-Serif" font-size="10.00">playSoundEffect</text>
</a>
</g>
</g>
<!-- Node1&#45;&gt;Node10 -->
<g id="edge12" class="edge"><title>Node1&#45;&gt;Node10</title>
<path fill="none" stroke="midnightblue" d="M66.2496,-124C74.5161,-124 83.3497,-124 91.8463,-124"/>
<polygon fill="midnightblue" stroke="midnightblue" points="66.15,-120.5 56.15,-124 66.15,-127.5 66.15,-120.5"/>
</g>
<!-- Node11 -->
<g id="node11" class="node"><title>Node11</title>
<g id="a_node11"><a xlink:href="pda_8h.html#a35d0b57846aa0f585f9409957bc1957e" target="_top" xlink:title="playNote">
<polygon fill="white" stroke="black" points="108.5,-76.5 108.5,-95.5 164.5,-95.5 164.5,-76.5 108.5,-76.5"/>
<text text-anchor="middle" x="136.5" y="-83.5" font-family="Helvetica,sans-Serif" font-size="10.00">playNote</text>
</a>
</g>
</g>
<!-- Node1&#45;&gt;Node11 -->
<g id="edge13" class="edge"><title>Node1&#45;&gt;Node11</title>
<path fill="none" stroke="midnightblue" d="M65.3551,-111.028C79.5439,-105.966 95.5179,-100.266 108.634,-95.5859"/>
<polygon fill="midnightblue" stroke="midnightblue" points="64.1167,-107.754 55.8744,-114.411 66.4691,-114.347 64.1167,-107.754"/>
</g>
<!-- Node12 -->
<g id="node12" class="node"><title>Node12</title>
<g id="a_node12"><a xlink:href="pda_8h.html#a5875d17f5eb7a7cb45b34d772ea743d8" target="_top" xlink:title="txAlphabetSong">
<polygon fill="white" stroke="black" points="93.5,-38.5 93.5,-57.5 179.5,-57.5 179.5,-38.5 93.5,-38.5"/>
<text text-anchor="middle" x="136.5" y="-45.5" font-family="Helvetica,sans-Serif" font-size="10.00">txAlphabetSong</text>
</a>
</g>
</g>
<!-- Node1&#45;&gt;Node12 -->
<g id="edge14" class="edge"><title>Node1&#45;&gt;Node12</title>
<path fill="none" stroke="midnightblue" d="M44.7001,-107.109C56.7675,-94.8294 74.3167,-78.425 92,-67 97.5376,-63.4222 103.862,-60.2251 109.941,-57.5201"/>
<polygon fill="midnightblue" stroke="midnightblue" points="42.0159,-104.851 37.6154,-114.489 47.0656,-109.699 42.0159,-104.851"/>
</g>
<!-- Node13 -->
<g id="node13" class="node"><title>Node13</title>
<g id="a_node13"><a xlink:href="pda_8h.html#aab9e42a6b6df607546b8d0951e5c5b99" target="_top" xlink:title="guitarTune">
<polygon fill="white" stroke="black" points="105.5,-0.5 105.5,-19.5 167.5,-19.5 167.5,-0.5 105.5,-0.5"/>
<text text-anchor="middle" x="136.5" y="-7.5" font-family="Helvetica,sans-Serif" font-size="10.00">guitarTune</text>
</a>
</g>
</g>
<!-- Node1&#45;&gt;Node13 -->
<g id="edge15" class="edge"><title>Node1&#45;&gt;Node13</title>
<path fill="none" stroke="midnightblue" d="M37.4237,-105.137C47.6567,-84.091 66.7334,-50.2178 92,-29 96.4177,-25.2902 101.672,-22.1886 106.975,-19.64"/>
<polygon fill="midnightblue" stroke="midnightblue" points="34.1917,-103.786 33.1223,-114.327 40.5316,-106.754 34.1917,-103.786"/>
</g>
<!-- Node3 -->
<g id="node3" class="node"><title>Node3</title>
<g id="a_node3"><a xlink:href="libmorse_8h.html#ac4a29ea9b7bb06c2d9e8c4d74f486b91" target="_top" xlink:title="Accumulate a Morse token. ">
<polygon fill="white" stroke="black" points="225.5,-152.5 225.5,-171.5 282.5,-171.5 282.5,-152.5 225.5,-152.5"/>
<text text-anchor="middle" x="254" y="-159.5" font-family="Helvetica,sans-Serif" font-size="10.00">getMorse</text>
</a>
</g>
</g>
<!-- Node2&#45;&gt;Node3 -->
<g id="edge2" class="edge"><title>Node2&#45;&gt;Node3</title>
<path fill="none" stroke="midnightblue" d="M168.552,-189.784C186.274,-183.953 208.296,-176.708 225.408,-171.078"/>
<polygon fill="midnightblue" stroke="midnightblue" points="167.09,-186.58 158.684,-193.03 169.277,-193.23 167.09,-186.58"/>
</g>
<!-- Node7 -->
<g id="node7" class="node"><title>Node7</title>
<g id="a_node7"><a xlink:href="pda_8h.html#aee08a527408a7a8a4b5490d13b767cb2" target="_top" xlink:title="txMetronome">
<polygon fill="white" stroke="black" points="217,-190.5 217,-209.5 291,-209.5 291,-190.5 217,-190.5"/>
<text text-anchor="middle" x="254" y="-197.5" font-family="Helvetica,sans-Serif" font-size="10.00">txMetronome</text>
</a>
</g>
</g>
<!-- Node2&#45;&gt;Node7 -->
<g id="edge7" class="edge"><title>Node2&#45;&gt;Node7</title>
<path fill="none" stroke="midnightblue" d="M168.901,-200C183.756,-200 201.572,-200 216.975,-200"/>
<polygon fill="midnightblue" stroke="midnightblue" points="168.685,-196.5 158.684,-200 168.684,-203.5 168.685,-196.5"/>
</g>
<!-- Node4 -->
<g id="node4" class="node"><title>Node4</title>
<g id="a_node4"><a xlink:href="libmorse_8cpp.html#afa60f07ebee7c34ef41c3dfb64222bb6" target="_top" xlink:title="Score the given pattern against the state of the symbol stack. ">
<polygon fill="white" stroke="black" points="327,-209.5 327,-228.5 396,-228.5 396,-209.5 327,-209.5"/>
<text text-anchor="middle" x="361.5" y="-216.5" font-family="Helvetica,sans-Serif" font-size="10.00">matchScore</text>
</a>
</g>
</g>
<!-- Node3&#45;&gt;Node4 -->
<g id="edge3" class="edge"><title>Node3&#45;&gt;Node4</title>
<path fill="none" stroke="midnightblue" d="M282.43,-176.423C285.326,-177.962 288.226,-179.51 291,-181 308.808,-190.567 329.081,-201.677 343.116,-209.403"/>
<polygon fill="midnightblue" stroke="midnightblue" points="283.818,-173.198 273.342,-171.614 280.543,-179.385 283.818,-173.198"/>
</g>
<!-- Node6 -->
<g id="node6" class="node"><title>Node6</title>
<g id="a_node6"><a xlink:href="libmorse_8h.html#a25fad1f4d176afaa89839cc897891e78" target="_top" xlink:title="rxString">
<polygon fill="white" stroke="black" points="336.5,-171.5 336.5,-190.5 386.5,-190.5 386.5,-171.5 336.5,-171.5"/>
<text text-anchor="middle" x="361.5" y="-178.5" font-family="Helvetica,sans-Serif" font-size="10.00">rxString</text>
</a>
</g>
</g>
<!-- Node3&#45;&gt;Node6 -->
<g id="edge5" class="edge"><title>Node3&#45;&gt;Node6</title>
<path fill="none" stroke="midnightblue" d="M292.873,-168.821C307.305,-171.42 323.355,-174.31 336.197,-176.623"/>
<polygon fill="midnightblue" stroke="midnightblue" points="293.181,-165.32 282.719,-166.992 291.94,-172.209 293.181,-165.32"/>
</g>
<!-- Node5 -->
<g id="node5" class="node"><title>Node5</title>
<g id="a_node5"><a xlink:href="actions_8h.html#a1fec7da4166b9612d2deec3d0262d60f" target="_top" xlink:title="dispatchOnStack">
<polygon fill="white" stroke="black" points="432,-190.5 432,-209.5 524,-209.5 524,-190.5 432,-190.5"/>
<text text-anchor="middle" x="478" y="-197.5" font-family="Helvetica,sans-Serif" font-size="10.00">dispatchOnStack</text>
</a>
</g>
</g>
<!-- Node4&#45;&gt;Node5 -->
<g id="edge4" class="edge"><title>Node4&#45;&gt;Node5</title>
<path fill="none" stroke="midnightblue" d="M406.15,-211.757C414.488,-210.373 423.233,-208.922 431.623,-207.53"/>
<polygon fill="midnightblue" stroke="midnightblue" points="405.527,-208.312 396.234,-213.402 406.673,-215.218 405.527,-208.312"/>
</g>
<!-- Node6&#45;&gt;Node5 -->
<g id="edge6" class="edge"><title>Node6&#45;&gt;Node5</title>
<path fill="none" stroke="midnightblue" d="M396.591,-186.657C407.625,-188.488 420.039,-190.548 431.752,-192.492"/>
<polygon fill="midnightblue" stroke="midnightblue" points="396.941,-183.167 386.503,-184.983 395.795,-190.073 396.941,-183.167"/>
</g>
<!-- Node9&#45;&gt;Node4 -->
<g id="edge10" class="edge"><title>Node9&#45;&gt;Node4</title>
<path fill="none" stroke="midnightblue" d="M287.571,-232.134C299.984,-229.899 314.151,-227.347 326.677,-225.091"/>
<polygon fill="midnightblue" stroke="midnightblue" points="286.854,-228.707 277.632,-233.924 288.094,-235.596 286.854,-228.707"/>
</g>
<!-- Node9&#45;&gt;Node6 -->
<g id="edge11" class="edge"><title>Node9&#45;&gt;Node6</title>
<path fill="none" stroke="midnightblue" d="M282.43,-223.577C285.326,-222.038 288.226,-220.49 291,-219 308.808,-209.433 329.081,-198.323 343.116,-190.597"/>
<polygon fill="midnightblue" stroke="midnightblue" points="280.543,-220.615 273.342,-228.386 283.818,-226.802 280.543,-220.615"/>
</g>
</g>
</svg>
