<?xml version="1.0" encoding="UTF-8" standalone="no"?>
<!DOCTYPE svg PUBLIC "-//W3C//DTD SVG 1.1//EN"
 "http://www.w3.org/Graphics/SVG/1.1/DTD/svg11.dtd">
<!-- Generated by graphviz version 2.38.0 (20140413.2041)
 -->
<!-- Title: phonographHiss Pages: 1 -->
<svg width="311pt" height="28pt"
 viewBox="0.00 0.00 311.00 28.00" xmlns="http://www.w3.org/2000/svg" xmlns:xlink="http://www.w3.org/1999/xlink">
<g id="graph0" class="graph" transform="scale(1 1) rotate(0) translate(4 24)">
<title>phonographHiss</title>
<polygon fill="white" stroke="none" points="-4,4 -4,-24 307,-24 307,4 -4,4"/>
<!-- Node1 -->
<g id="node1" class="node"><title>Node1</title>
<polygon fill="#bfbfbf" stroke="black" points="0,-0.5 0,-19.5 87,-19.5 87,-0.5 0,-0.5"/>
<text text-anchor="middle" x="43.5" y="-7.5" font-family="Helvetica,sans-Serif" font-size="10.00">phonographHiss</text>
</g>
<!-- Node2 -->
<g id="node2" class="node"><title>Node2</title>
<g id="a_node2"><a xlink:href="teensy3__morse__bsp_8cpp.html#ad27c6a4654c91038ad6d6dbf03b00ddb" target="_top" xlink:title="Perform digital writes to all the output pins. ">
<polygon fill="white" stroke="black" points="123,-0.5 123,-19.5 168,-19.5 168,-0.5 123,-0.5"/>
<text text-anchor="middle" x="145.5" y="-7.5" font-family="Helvetica,sans-Serif" font-size="10.00">dWrite</text>
</a>
</g>
</g>
<!-- Node1&#45;&gt;Node2 -->
<g id="edge1" class="edge"><title>Node1&#45;&gt;Node2</title>
<path fill="none" stroke="midnightblue" d="M87.1991,-10C95.7624,-10 104.618,-10 112.731,-10"/>
<polygon fill="midnightblue" stroke="midnightblue" points="112.882,-13.5001 122.882,-10 112.882,-6.5001 112.882,-13.5001"/>
</g>
<!-- Node3 -->
<g id="node3" class="node"><title>Node3</title>
<g id="a_node3"><a xlink:href="teensy3__morse__bsp_8cpp.html#ac70998cee1bf97f00aec4a1b4e5a4f60" target="_top" xlink:title="isEarphonePresent">
<polygon fill="white" stroke="black" points="204,-0.5 204,-19.5 303,-19.5 303,-0.5 204,-0.5"/>
<text text-anchor="middle" x="253.5" y="-7.5" font-family="Helvetica,sans-Serif" font-size="10.00">isEarphonePresent</text>
</a>
</g>
</g>
<!-- Node2&#45;&gt;Node3 -->
<g id="edge2" class="edge"><title>Node2&#45;&gt;Node3</title>
<path fill="none" stroke="midnightblue" d="M168.206,-10C175.688,-10 184.465,-10 193.478,-10"/>
<polygon fill="midnightblue" stroke="midnightblue" points="193.697,-13.5001 203.697,-10 193.697,-6.5001 193.697,-13.5001"/>
</g>
</g>
</svg>
