<?xml version="1.0" encoding="UTF-8" standalone="no"?>
<!DOCTYPE svg PUBLIC "-//W3C//DTD SVG 1.1//EN"
 "http://www.w3.org/Graphics/SVG/1.1/DTD/svg11.dtd">
<!-- Generated by graphviz version 2.38.0 (20140413.2041)
 -->
<!-- Title: sound.cpp Pages: 1 -->
<!--zoomable 252 -->
<svg id="main" version="1.1" xmlns="http://www.w3.org/2000/svg" xmlns:xlink="http://www.w3.org/1999/xlink" xml:space="preserve" onload="init(evt)">
<style type="text/css"><![CDATA[
.edge:hover path { stroke: red; }
.edge:hover polygon { stroke: red; fill: red; }
]]></style>
<script type="text/javascript"><![CDATA[
var edges = document.getElementsByTagName('g');
if (edges && edges.length) {
  for (var i=0;i<edges.length;i++) {
    if (edges[i].id.substr(0,4)=='edge') {
      edges[i].setAttribute('class','edge');
    }
  }
}
]]></script>
        <defs>
                <circle id="rim" cx="0" cy="0" r="7"/>
                <circle id="rim2" cx="0" cy="0" r="3.5"/>
                <g id="zoomPlus">
                        <use xlink:href="#rim" fill="#404040">
                                <set attributeName="fill" to="#808080" begin="zoomplus.mouseover" end="zoomplus.mouseout"/>
                        </use>
                        <path d="M-4,0h8M0,-4v8" fill="none" stroke="white" stroke-width="1.5" pointer-events="none"/>
                </g>
                <g id="zoomMin">
                        <use xlink:href="#rim" fill="#404040">
                                <set attributeName="fill" to="#808080" begin="zoomminus.mouseover" end="zoomminus.mouseout"/>
                        </use>
                        <path d="M-4,0h8" fill="none" stroke="white" stroke-width="1.5" pointer-events="none"/>
                </g>
                <g id="dirArrow">
                        <path fill="none" stroke="white" stroke-width="1.5" d="M0,-3.0v7 M-2.5,-0.5L0,-3.0L2.5,-0.5"/>
                </g>
               <g id="resetDef">
                       <use xlink:href="#rim2" fill="#404040">
                               <set attributeName="fill" to="#808080" begin="reset.mouseover" end="reset.mouseout"/>
                       </use>
               </g>
        </defs>

<script type="text/javascript">
var viewWidth = 563;
var viewHeight = 252;
var sectionId = 'dynsection-0';
</script>
<script xlink:href="svgpan.js"/>
<svg id="graph" class="graph">
<g id="viewport">
<title>sound.cpp</title>
<polygon fill="white" stroke="none" points="-4,4 -4,-248 558.5,-248 558.5,4 -4,4"/>
<!-- Node1 -->
<g id="node1" class="node"><title>Node1</title>
<polygon fill="#bfbfbf" stroke="black" points="379.5,-224.5 379.5,-243.5 441.5,-243.5 441.5,-224.5 379.5,-224.5"/>
<text text-anchor="middle" x="410.5" y="-231.5" font-family="Helvetica,sans-Serif" font-size="10.00">sound.cpp</text>
</g>
<!-- Node2 -->
<g id="node2" class="node"><title>Node2</title>
<g id="a_node2"><a xlink:href="libmorse_8h.xhtml" target="_top" xlink:title="Morse code operations. ">
<polygon fill="white" stroke="black" points="284.5,-168.5 284.5,-187.5 346.5,-187.5 346.5,-168.5 284.5,-168.5"/>
<text text-anchor="middle" x="315.5" y="-175.5" font-family="Helvetica,sans-Serif" font-size="10.00">libmorse.h</text>
</a>
</g>
</g>
<!-- Node1&#45;&gt;Node2 -->
<g id="edge1" class="edge"><title>Node1&#45;&gt;Node2</title>
<path fill="none" stroke="midnightblue" d="M395.237,-224.324C380.279,-215.822 357.245,-202.729 339.773,-192.797"/>
<polygon fill="midnightblue" stroke="midnightblue" points="341.149,-189.553 330.726,-187.655 337.69,-195.639 341.149,-189.553"/>
</g>
<!-- Node13 -->
<g id="node13" class="node"><title>Node13</title>
<g id="a_node13"><a xlink:href="sound_8h.xhtml" target="_top" xlink:title="PWM sound effects. ">
<polygon fill="white" stroke="black" points="455,-168.5 455,-187.5 506,-187.5 506,-168.5 455,-168.5"/>
<text text-anchor="middle" x="480.5" y="-175.5" font-family="Helvetica,sans-Serif" font-size="10.00">sound.h</text>
</a>
</g>
</g>
<!-- Node1&#45;&gt;Node13 -->
<g id="edge16" class="edge"><title>Node1&#45;&gt;Node13</title>
<path fill="none" stroke="midnightblue" d="M421.747,-224.324C432.297,-216.185 448.301,-203.839 460.942,-194.087"/>
<polygon fill="midnightblue" stroke="midnightblue" points="463.269,-196.713 469.049,-187.834 458.993,-191.171 463.269,-196.713"/>
</g>
<!-- Node3 -->
<g id="node3" class="node"><title>Node3</title>
<g id="a_node3"><a xlink:href="binconst_8h.xhtml" target="_top" xlink:title="Binary constant generator macro. ">
<polygon fill="white" stroke="black" points="341.5,-0.5 341.5,-19.5 403.5,-19.5 403.5,-0.5 341.5,-0.5"/>
<text text-anchor="middle" x="372.5" y="-7.5" font-family="Helvetica,sans-Serif" font-size="10.00">binconst.h</text>
</a>
</g>
</g>
<!-- Node2&#45;&gt;Node3 -->
<g id="edge2" class="edge"><title>Node2&#45;&gt;Node3</title>
<path fill="none" stroke="midnightblue" d="M346.515,-173.379C371.969,-168.591 406.486,-157.521 423.5,-132 432.563,-118.405 426.792,-81.1166 414.5,-56 409.018,-44.798 399.805,-34.4575 391.403,-26.521"/>
<polygon fill="midnightblue" stroke="midnightblue" points="393.539,-23.7366 383.744,-19.6988 388.883,-28.9637 393.539,-23.7366"/>
</g>
<!-- Node4 -->
<g id="node4" class="node"><title>Node4</title>
<polygon fill="white" stroke="#bfbfbf" points="269,-112.5 269,-131.5 312,-131.5 312,-112.5 269,-112.5"/>
<text text-anchor="middle" x="290.5" y="-119.5" font-family="Helvetica,sans-Serif" font-size="10.00">cstdio</text>
</g>
<!-- Node2&#45;&gt;Node4 -->
<g id="edge3" class="edge"><title>Node2&#45;&gt;Node4</title>
<path fill="none" stroke="midnightblue" d="M311.372,-168.083C307.986,-160.77 303.084,-150.181 298.881,-141.103"/>
<polygon fill="midnightblue" stroke="midnightblue" points="301.929,-139.355 294.551,-131.751 295.577,-142.296 301.929,-139.355"/>
</g>
<!-- Node5 -->
<g id="node5" class="node"><title>Node5</title>
<polygon fill="white" stroke="#bfbfbf" points="368.5,-112.5 368.5,-131.5 414.5,-131.5 414.5,-112.5 368.5,-112.5"/>
<text text-anchor="middle" x="391.5" y="-119.5" font-family="Helvetica,sans-Serif" font-size="10.00">cstring</text>
</g>
<!-- Node2&#45;&gt;Node5 -->
<g id="edge4" class="edge"><title>Node2&#45;&gt;Node5</title>
<path fill="none" stroke="midnightblue" d="M327.711,-168.324C339.276,-160.107 356.875,-147.602 370.661,-137.807"/>
<polygon fill="midnightblue" stroke="midnightblue" points="372.943,-140.479 379.067,-131.834 368.888,-134.773 372.943,-140.479"/>
</g>
<!-- Node6 -->
<g id="node6" class="node"><title>Node6</title>
<polygon fill="white" stroke="#bfbfbf" points="349.5,-56.5 349.5,-75.5 405.5,-75.5 405.5,-56.5 349.5,-56.5"/>
<text text-anchor="middle" x="377.5" y="-63.5" font-family="Helvetica,sans-Serif" font-size="10.00">cinttypes</text>
</g>
<!-- Node2&#45;&gt;Node6 -->
<g id="edge5" class="edge"><title>Node2&#45;&gt;Node6</title>
<path fill="none" stroke="midnightblue" d="M320.365,-168.368C330.552,-150.296 354.291,-108.176 367.745,-84.3074"/>
<polygon fill="midnightblue" stroke="midnightblue" points="370.796,-86.0215 372.658,-75.5914 364.698,-82.5844 370.796,-86.0215"/>
</g>
<!-- Node7 -->
<g id="node7" class="node"><title>Node7</title>
<polygon fill="white" stroke="#bfbfbf" points="157,-0.5 157,-19.5 202,-19.5 202,-0.5 157,-0.5"/>
<text text-anchor="middle" x="179.5" y="-7.5" font-family="Helvetica,sans-Serif" font-size="10.00">climits</text>
</g>
<!-- Node2&#45;&gt;Node7 -->
<g id="edge6" class="edge"><title>Node2&#45;&gt;Node7</title>
<path fill="none" stroke="midnightblue" d="M284.236,-172.397C243.401,-165.672 175.349,-151.774 160.5,-132 137.504,-101.378 156.266,-53.9575 169.414,-28.5288"/>
<polygon fill="midnightblue" stroke="midnightblue" points="172.537,-30.1122 174.242,-19.6556 166.388,-26.7664 172.537,-30.1122"/>
</g>
<!-- Node8 -->
<g id="node8" class="node"><title>Node8</title>
<g id="a_node8"><a xlink:href="teensy3__morse__bsp_8h.xhtml" target="_top" xlink:title="Teensy 3.0 board support package. ">
<polygon fill="white" stroke="black" points="0,-112.5 0,-131.5 113,-131.5 113,-112.5 0,-112.5"/>
<text text-anchor="middle" x="56.5" y="-119.5" font-family="Helvetica,sans-Serif" font-size="10.00">teensy3_morse_bsp.h</text>
</a>
</g>
</g>
<!-- Node2&#45;&gt;Node8 -->
<g id="edge7" class="edge"><title>Node2&#45;&gt;Node8</title>
<path fill="none" stroke="midnightblue" d="M284.259,-170.486C240.399,-161.342 160.06,-144.592 107.474,-133.628"/>
<polygon fill="midnightblue" stroke="midnightblue" points="108.174,-130.199 97.6701,-131.584 106.745,-137.051 108.174,-130.199"/>
</g>
<!-- Node10 -->
<g id="node10" class="node"><title>Node10</title>
<g id="a_node10"><a xlink:href="morse__token_8h.xhtml" target="_top" xlink:title="Defines the MorseToken class and various helpers. ">
<polygon fill="white" stroke="black" points="170,-112.5 170,-131.5 251,-131.5 251,-112.5 170,-112.5"/>
<text text-anchor="middle" x="210.5" y="-119.5" font-family="Helvetica,sans-Serif" font-size="10.00">morse_token.h</text>
</a>
</g>
</g>
<!-- Node2&#45;&gt;Node10 -->
<g id="edge9" class="edge"><title>Node2&#45;&gt;Node10</title>
<path fill="none" stroke="midnightblue" d="M298.63,-168.324C281.791,-159.664 255.693,-146.242 236.262,-136.249"/>
<polygon fill="midnightblue" stroke="midnightblue" points="237.822,-133.116 227.328,-131.655 234.62,-139.341 237.822,-133.116"/>
</g>
<!-- Node9 -->
<g id="node9" class="node"><title>Node9</title>
<polygon fill="white" stroke="#bfbfbf" points="27.5,-56.5 27.5,-75.5 85.5,-75.5 85.5,-56.5 27.5,-56.5"/>
<text text-anchor="middle" x="56.5" y="-63.5" font-family="Helvetica,sans-Serif" font-size="10.00">Arduino.h</text>
</g>
<!-- Node8&#45;&gt;Node9 -->
<g id="edge8" class="edge"><title>Node8&#45;&gt;Node9</title>
<path fill="none" stroke="midnightblue" d="M56.5,-112.083C56.5,-105.006 56.5,-94.8611 56.5,-85.9865"/>
<polygon fill="midnightblue" stroke="midnightblue" points="60.0001,-85.751 56.5,-75.7511 53.0001,-85.7511 60.0001,-85.751"/>
</g>
<!-- Node10&#45;&gt;Node6 -->
<g id="edge10" class="edge"><title>Node10&#45;&gt;Node6</title>
<path fill="none" stroke="midnightblue" d="M236.962,-112.444C265.178,-103.32 310.04,-88.8133 341.468,-78.6509"/>
<polygon fill="midnightblue" stroke="midnightblue" points="342.724,-81.9234 351.162,-75.5164 340.57,-75.263 342.724,-81.9234"/>
</g>
<!-- Node10&#45;&gt;Node7 -->
<g id="edge11" class="edge"><title>Node10&#45;&gt;Node7</title>
<path fill="none" stroke="midnightblue" d="M208.067,-112.368C203.042,-94.5366 191.42,-53.2953 184.649,-29.2717"/>
<polygon fill="midnightblue" stroke="midnightblue" points="188.003,-28.2671 181.921,-19.5914 181.265,-30.1659 188.003,-28.2671"/>
</g>
<!-- Node11 -->
<g id="node11" class="node"><title>Node11</title>
<polygon fill="white" stroke="#bfbfbf" points="208,-56.5 208,-75.5 257,-75.5 257,-56.5 208,-56.5"/>
<text text-anchor="middle" x="232.5" y="-63.5" font-family="Helvetica,sans-Serif" font-size="10.00">cstddef</text>
</g>
<!-- Node10&#45;&gt;Node11 -->
<g id="edge12" class="edge"><title>Node10&#45;&gt;Node11</title>
<path fill="none" stroke="midnightblue" d="M214.133,-112.083C217.112,-104.77 221.426,-94.1814 225.125,-85.1034"/>
<polygon fill="midnightblue" stroke="midnightblue" points="228.403,-86.3326 228.935,-75.7511 221.92,-83.6914 228.403,-86.3326"/>
</g>
<!-- Node12 -->
<g id="node12" class="node"><title>Node12</title>
<g id="a_node12"><a xlink:href="prosign_8h.xhtml" target="_top" xlink:title="Prosign constants. ">
<polygon fill="white" stroke="black" points="275.5,-56.5 275.5,-75.5 331.5,-75.5 331.5,-56.5 275.5,-56.5"/>
<text text-anchor="middle" x="303.5" y="-63.5" font-family="Helvetica,sans-Serif" font-size="10.00">prosign.h</text>
</a>
</g>
</g>
<!-- Node10&#45;&gt;Node12 -->
<g id="edge13" class="edge"><title>Node10&#45;&gt;Node12</title>
<path fill="none" stroke="midnightblue" d="M225.442,-112.324C240.085,-103.822 262.634,-90.7288 279.738,-80.7975"/>
<polygon fill="midnightblue" stroke="midnightblue" points="281.705,-83.7027 288.595,-75.6545 278.19,-77.6491 281.705,-83.7027"/>
</g>
<!-- Node12&#45;&gt;Node3 -->
<g id="edge14" class="edge"><title>Node12&#45;&gt;Node3</title>
<path fill="none" stroke="midnightblue" d="M314.586,-56.324C324.986,-48.1849 340.761,-35.8395 353.222,-26.0874"/>
<polygon fill="midnightblue" stroke="midnightblue" points="355.494,-28.7533 361.212,-19.8339 351.18,-23.2407 355.494,-28.7533"/>
</g>
<!-- Node12&#45;&gt;Node7 -->
<g id="edge15" class="edge"><title>Node12&#45;&gt;Node7</title>
<path fill="none" stroke="midnightblue" d="M283.852,-56.4435C263.535,-47.5961 231.597,-33.6875 208.402,-23.5865"/>
<polygon fill="midnightblue" stroke="midnightblue" points="209.622,-20.3002 199.056,-19.5164 206.827,-26.7181 209.622,-20.3002"/>
</g>
<!-- Node13&#45;&gt;Node6 -->
<g id="edge18" class="edge"><title>Node13&#45;&gt;Node6</title>
<path fill="none" stroke="midnightblue" d="M473.323,-168.402C462.709,-155.782 442.076,-131.617 423.5,-112 414.09,-102.063 403.153,-91.3318 394.304,-82.8421"/>
<polygon fill="midnightblue" stroke="midnightblue" points="396.525,-80.1238 386.87,-75.7626 391.698,-85.1932 396.525,-80.1238"/>
</g>
<!-- Node14 -->
<g id="node14" class="node"><title>Node14</title>
<polygon fill="white" stroke="#bfbfbf" points="508.5,-112.5 508.5,-131.5 554.5,-131.5 554.5,-112.5 508.5,-112.5"/>
<text text-anchor="middle" x="531.5" y="-119.5" font-family="Helvetica,sans-Serif" font-size="10.00">cctype</text>
</g>
<!-- Node13&#45;&gt;Node14 -->
<g id="edge17" class="edge"><title>Node13&#45;&gt;Node14</title>
<path fill="none" stroke="midnightblue" d="M488.922,-168.083C496.348,-160.22 507.352,-148.569 516.312,-139.081"/>
<polygon fill="midnightblue" stroke="midnightblue" points="518.913,-141.424 523.235,-131.751 513.824,-136.618 518.913,-141.424"/>
</g>
</g>
</svg>
        <g id="navigator" transform="translate(0 0)" fill="#404254">
                <rect fill="#f2f5e9" fill-opacity="0.5" stroke="#606060" stroke-width=".5" x="0" y="0" width="60" height="60"/>
                <use id="zoomplus" xlink:href="#zoomPlus" x="17" y="9" onmousedown="handleZoom(evt,'in')"/>
                <use id="zoomminus" xlink:href="#zoomMin" x="42" y="9" onmousedown="handleZoom(evt,'out')"/>
                <use id="reset" xlink:href="#resetDef" x="30" y="36" onmousedown="handleReset()"/>
                <g id="arrowUp" xlink:href="#dirArrow" transform="translate(30 24)" onmousedown="handlePan(0,-1)">
                  <use xlink:href="#rim" fill="#404040">
                        <set attributeName="fill" to="#808080" begin="arrowUp.mouseover" end="arrowUp.mouseout"/>
                  </use>
                  <path fill="none" stroke="white" stroke-width="1.5" d="M0,-3.0v7 M-2.5,-0.5L0,-3.0L2.5,-0.5"/>
                </g>
                <g id="arrowRight" xlink:href="#dirArrow" transform="rotate(90) translate(36 -43)" onmousedown="handlePan(1,0)">
                  <use xlink:href="#rim" fill="#404040">
                        <set attributeName="fill" to="#808080" begin="arrowRight.mouseover" end="arrowRight.mouseout"/>
                  </use>
                  <path fill="none" stroke="white" stroke-width="1.5" d="M0,-3.0v7 M-2.5,-0.5L0,-3.0L2.5,-0.5"/>
                </g>
                <g id="arrowDown" xlink:href="#dirArrow" transform="rotate(180) translate(-30 -48)" onmousedown="handlePan(0,1)">
                  <use xlink:href="#rim" fill="#404040">
                        <set attributeName="fill" to="#808080" begin="arrowDown.mouseover" end="arrowDown.mouseout"/>
                  </use>
                  <path fill="none" stroke="white" stroke-width="1.5" d="M0,-3.0v7 M-2.5,-0.5L0,-3.0L2.5,-0.5"/>
                </g>
                <g id="arrowLeft" xlink:href="#dirArrow" transform="rotate(270) translate(-36 17)" onmousedown="handlePan(-1,0)">
                  <use xlink:href="#rim" fill="#404040">
                        <set attributeName="fill" to="#808080" begin="arrowLeft.mouseover" end="arrowLeft.mouseout"/>
                  </use>
                  <path fill="none" stroke="white" stroke-width="1.5" d="M0,-3.0v7 M-2.5,-0.5L0,-3.0L2.5,-0.5"/>
                </g>
        </g>
        <svg viewBox="0 0 15 15" width="100%" height="30px" preserveAspectRatio="xMaxYMin meet">
         <g id="arrow_out" transform="scale(0.3 0.3)">
          <a xlink:href="sound_8cpp__incl_org.svg" target="_base">
           <rect id="button" ry="5" rx="5" y="6" x="6" height="38" width="38"
                fill="#f2f5e9" fill-opacity="0.5" stroke="#606060" stroke-width="1.0"/>
           <path id="arrow"
             d="M 11.500037,31.436501 C 11.940474,20.09759 22.043105,11.32322 32.158766,21.979434 L 37.068811,17.246167 C 37.068811,17.246167 37.088388,32 37.088388,32 L 22.160133,31.978069 C 22.160133,31.978069 26.997745,27.140456 26.997745,27.140456 C 18.528582,18.264221 13.291696,25.230495 11.500037,31.436501 z"
             style="fill:#404040;"/>
          </a>
         </g>
        </svg>
</svg>
