<?xml version="1.0" encoding="UTF-8" standalone="no"?>
<!DOCTYPE svg PUBLIC "-//W3C//DTD SVG 1.1//EN"
 "http://www.w3.org/Graphics/SVG/1.1/DTD/svg11.dtd">
<!-- Generated by graphviz version 2.38.0 (20140413.2041)
 -->
<!-- Title: stack.h Pages: 1 -->
<svg width="312pt" height="84pt"
 viewBox="0.00 0.00 312.00 84.00" xmlns="http://www.w3.org/2000/svg" xmlns:xlink="http://www.w3.org/1999/xlink">
<g id="graph0" class="graph" transform="scale(1 1) rotate(0) translate(4 80)">
<title>stack.h</title>
<polygon fill="white" stroke="none" points="-4,4 -4,-80 308,-80 308,4 -4,4"/>
<!-- Node1 -->
<g id="node1" class="node"><title>Node1</title>
<polygon fill="#bfbfbf" stroke="black" points="137,-56.5 137,-75.5 186,-75.5 186,-56.5 137,-56.5"/>
<text text-anchor="middle" x="161.5" y="-63.5" font-family="Helvetica,sans-Serif" font-size="10.00">stack.h</text>
</g>
<!-- Node2 -->
<g id="node2" class="node"><title>Node2</title>
<g id="a_node2"><a xlink:href="actions_8cpp.xhtml" target="_top" xlink:title="Implementation of application&#45;specific actions. ">
<polygon fill="white" stroke="black" points="0,-0.5 0,-19.5 67,-19.5 67,-0.5 0,-0.5"/>
<text text-anchor="middle" x="33.5" y="-7.5" font-family="Helvetica,sans-Serif" font-size="10.00">actions.cpp</text>
</a>
</g>
</g>
<!-- Node1&#45;&gt;Node2 -->
<g id="edge1" class="edge"><title>Node1&#45;&gt;Node2</title>
<path fill="none" stroke="midnightblue" d="M131.877,-52.503C107.881,-42.3795 74.716,-28.388 53.6871,-19.5164"/>
<polygon fill="midnightblue" stroke="midnightblue" points="130.644,-55.7813 141.218,-56.4435 133.365,-49.3317 130.644,-55.7813"/>
</g>
<!-- Node3 -->
<g id="node3" class="node"><title>Node3</title>
<g id="a_node3"><a xlink:href="libmorse_8cpp.xhtml" target="_top" xlink:title="Implementation of Morse code operations. ">
<polygon fill="white" stroke="black" points="85.5,-0.5 85.5,-19.5 157.5,-19.5 157.5,-0.5 85.5,-0.5"/>
<text text-anchor="middle" x="121.5" y="-7.5" font-family="Helvetica,sans-Serif" font-size="10.00">libmorse.cpp</text>
</a>
</g>
</g>
<!-- Node1&#45;&gt;Node3 -->
<g id="edge2" class="edge"><title>Node1&#45;&gt;Node3</title>
<path fill="none" stroke="midnightblue" d="M148.8,-47.8554C141.874,-38.5048 133.594,-27.3265 127.982,-19.7511"/>
<polygon fill="midnightblue" stroke="midnightblue" points="146.13,-50.1307 154.895,-56.083 151.755,-45.9641 146.13,-50.1307"/>
</g>
<!-- Node4 -->
<g id="node4" class="node"><title>Node4</title>
<g id="a_node4"><a xlink:href="pda_8cpp.xhtml" target="_top" xlink:title="Implementation of Personal Digital Assistant functions. ">
<polygon fill="white" stroke="black" points="176,-0.5 176,-19.5 227,-19.5 227,-0.5 176,-0.5"/>
<text text-anchor="middle" x="201.5" y="-7.5" font-family="Helvetica,sans-Serif" font-size="10.00">pda.cpp</text>
</a>
</g>
</g>
<!-- Node1&#45;&gt;Node4 -->
<g id="edge3" class="edge"><title>Node1&#45;&gt;Node4</title>
<path fill="none" stroke="midnightblue" d="M174.2,-47.8554C181.126,-38.5048 189.406,-27.3265 195.018,-19.7511"/>
<polygon fill="midnightblue" stroke="midnightblue" points="171.245,-45.9641 168.105,-56.083 176.87,-50.1307 171.245,-45.9641"/>
</g>
<!-- Node5 -->
<g id="node5" class="node"><title>Node5</title>
<g id="a_node5"><a xlink:href="stack_8cpp.xhtml" target="_top" xlink:title="Implementation of Stack&#45;related convenience functions. ">
<polygon fill="white" stroke="black" points="245,-0.5 245,-19.5 304,-19.5 304,-0.5 245,-0.5"/>
<text text-anchor="middle" x="274.5" y="-7.5" font-family="Helvetica,sans-Serif" font-size="10.00">stack.cpp</text>
</a>
</g>
</g>
<!-- Node1&#45;&gt;Node5 -->
<g id="edge4" class="edge"><title>Node1&#45;&gt;Node5</title>
<path fill="none" stroke="midnightblue" d="M188.503,-52.096C209.614,-42.0073 238.362,-28.2697 256.679,-19.5164"/>
<polygon fill="midnightblue" stroke="midnightblue" points="186.919,-48.9738 179.405,-56.4435 189.937,-55.2897 186.919,-48.9738"/>
</g>
</g>
</svg>
