<?xml version="1.0" encoding="UTF-8" standalone="no"?>
<!DOCTYPE svg PUBLIC "-//W3C//DTD SVG 1.1//EN"
 "http://www.w3.org/Graphics/SVG/1.1/DTD/svg11.dtd">
<!-- Generated by graphviz version 2.38.0 (20140413.2041)
 -->
<!-- Title: symbolStackSize Pages: 1 -->
<svg width="556pt" height="522pt"
 viewBox="0.00 0.00 556.00 522.00" xmlns="http://www.w3.org/2000/svg" xmlns:xlink="http://www.w3.org/1999/xlink">
<g id="graph0" class="graph" transform="scale(1 1) rotate(0) translate(4 518)">
<title>symbolStackSize</title>
<polygon fill="white" stroke="none" points="-4,4 -4,-518 552,-518 552,4 -4,4"/>
<!-- Node1 -->
<g id="node1" class="node"><title>Node1</title>
<polygon fill="#bfbfbf" stroke="black" points="0,-266.5 0,-285.5 93,-285.5 93,-266.5 0,-266.5"/>
<text text-anchor="middle" x="46.5" y="-273.5" font-family="Helvetica,sans-Serif" font-size="10.00">symbolStackSize</text>
</g>
<!-- Node2 -->
<g id="node2" class="node"><title>Node2</title>
<g id="a_node2"><a xlink:href="actions_8h.html#a6436621df3b98909e885083436d6b9e2" target="_top" xlink:title="List the contents of the symbol stack. ">
<polygon fill="white" stroke="black" points="204,-494.5 204,-513.5 303,-513.5 303,-494.5 204,-494.5"/>
<text text-anchor="middle" x="253.5" y="-501.5" font-family="Helvetica,sans-Serif" font-size="10.00">txListSymbolStack</text>
</a>
</g>
</g>
<!-- Node1&#45;&gt;Node2 -->
<g id="edge1" class="edge"><title>Node1&#45;&gt;Node2</title>
<path fill="none" stroke="midnightblue" d="M54.5785,-294.993C71.4233,-337.261 118.238,-438.982 194,-485 200.206,-488.77 207.243,-491.877 214.231,-494.409"/>
<polygon fill="midnightblue" stroke="midnightblue" points="57.8158,-293.661 50.9422,-285.598 51.2877,-296.188 57.8158,-293.661"/>
</g>
<!-- Node4 -->
<g id="node4" class="node"><title>Node4</title>
<g id="a_node4"><a xlink:href="actions_8h.html#a142b42f94ccf46a7a9706fe9b63b4501" target="_top" xlink:title="Attempt to control the output volume but adjusting the PWM duty cycle. ">
<polygon fill="white" stroke="black" points="222,-456.5 222,-475.5 285,-475.5 285,-456.5 222,-456.5"/>
<text text-anchor="middle" x="253.5" y="-463.5" font-family="Helvetica,sans-Serif" font-size="10.00">setVolume</text>
</a>
</g>
</g>
<!-- Node1&#45;&gt;Node4 -->
<g id="edge3" class="edge"><title>Node1&#45;&gt;Node4</title>
<path fill="none" stroke="midnightblue" d="M57.6134,-294.707C78.1257,-330.682 128.308,-409.274 194,-447 202.519,-451.892 212.471,-455.722 221.725,-458.621"/>
<polygon fill="midnightblue" stroke="midnightblue" points="60.5523,-292.791 52.6264,-285.76 54.4379,-296.199 60.5523,-292.791"/>
</g>
<!-- Node5 -->
<g id="node5" class="node"><title>Node5</title>
<g id="a_node5"><a xlink:href="libmorse_8cpp.html#afa60f07ebee7c34ef41c3dfb64222bb6" target="_top" xlink:title="Score the given pattern against the state of the symbol stack. ">
<polygon fill="white" stroke="black" points="219,-418.5 219,-437.5 288,-437.5 288,-418.5 219,-418.5"/>
<text text-anchor="middle" x="253.5" y="-425.5" font-family="Helvetica,sans-Serif" font-size="10.00">matchScore</text>
</a>
</g>
</g>
<!-- Node1&#45;&gt;Node5 -->
<g id="edge4" class="edge"><title>Node1&#45;&gt;Node5</title>
<path fill="none" stroke="midnightblue" d="M61.84,-293.695C86.0274,-322.343 137.823,-378.718 194,-409 201.708,-413.155 210.48,-416.597 218.844,-419.358"/>
<polygon fill="midnightblue" stroke="midnightblue" points="64.3269,-291.211 55.2456,-285.754 58.9416,-295.683 64.3269,-291.211"/>
</g>
<!-- Node6 -->
<g id="node6" class="node"><title>Node6</title>
<g id="a_node6"><a xlink:href="pda_8h.html#a3c36576745952735f04eaa82b933e6fa" target="_top" xlink:title="Play one of 10 sound effects based on the digit on the stack. ">
<polygon fill="white" stroke="black" points="209,-380.5 209,-399.5 298,-399.5 298,-380.5 209,-380.5"/>
<text text-anchor="middle" x="253.5" y="-387.5" font-family="Helvetica,sans-Serif" font-size="10.00">playSoundEffect</text>
</a>
</g>
</g>
<!-- Node1&#45;&gt;Node6 -->
<g id="edge6" class="edge"><title>Node1&#45;&gt;Node6</title>
<path fill="none" stroke="midnightblue" d="M67.7669,-291.731C95.1133,-312.334 145.953,-348.475 194,-371 201.638,-374.581 210.133,-377.761 218.229,-380.447"/>
<polygon fill="midnightblue" stroke="midnightblue" points="69.8235,-288.898 59.747,-285.625 65.583,-294.468 69.8235,-288.898"/>
</g>
<!-- Node7 -->
<g id="node7" class="node"><title>Node7</title>
<g id="a_node7"><a xlink:href="pda_8h.html#a35d0b57846aa0f585f9409957bc1957e" target="_top" xlink:title="playNote">
<polygon fill="white" stroke="black" points="225.5,-342.5 225.5,-361.5 281.5,-361.5 281.5,-342.5 225.5,-342.5"/>
<text text-anchor="middle" x="253.5" y="-349.5" font-family="Helvetica,sans-Serif" font-size="10.00">playNote</text>
</a>
</g>
</g>
<!-- Node1&#45;&gt;Node7 -->
<g id="edge7" class="edge"><title>Node1&#45;&gt;Node7</title>
<path fill="none" stroke="midnightblue" d="M77.8604,-289.717C93.0927,-296.425 111.897,-304.445 129,-311 157.479,-321.915 165.051,-323.4 194,-333 204.237,-336.395 215.502,-340.068 225.391,-343.272"/>
<polygon fill="midnightblue" stroke="midnightblue" points="78.9803,-286.385 68.4202,-285.527 76.1403,-292.783 78.9803,-286.385"/>
</g>
<!-- Node8 -->
<g id="node8" class="node"><title>Node8</title>
<g id="a_node8"><a xlink:href="pda_8h.html#ac1f9ea31ffc81530ac4a07fa2469f13c" target="_top" xlink:title="txAlfaBravoCharlie">
<polygon fill="white" stroke="black" points="204.5,-38.5 204.5,-57.5 302.5,-57.5 302.5,-38.5 204.5,-38.5"/>
<text text-anchor="middle" x="253.5" y="-45.5" font-family="Helvetica,sans-Serif" font-size="10.00">txAlfaBravoCharlie</text>
</a>
</g>
</g>
<!-- Node1&#45;&gt;Node8 -->
<g id="edge8" class="edge"><title>Node1&#45;&gt;Node8</title>
<path fill="none" stroke="midnightblue" d="M49.2363,-256.395C53.9817,-215.306 70.9891,-120.008 129,-72 149.866,-54.7322 179.493,-48.5618 204.499,-46.7894"/>
<polygon fill="midnightblue" stroke="midnightblue" points="45.7425,-256.156 48.1991,-266.462 52.7056,-256.873 45.7425,-256.156"/>
</g>
<!-- Node10 -->
<g id="node10" class="node"><title>Node10</title>
<g id="a_node10"><a xlink:href="pda_8cpp.html#a47afc6664036a43243457f6f66cb90f8" target="_top" xlink:title="txAlphaNNN">
<polygon fill="white" stroke="black" points="217.5,-190.5 217.5,-209.5 289.5,-209.5 289.5,-190.5 217.5,-190.5"/>
<text text-anchor="middle" x="253.5" y="-197.5" font-family="Helvetica,sans-Serif" font-size="10.00">txAlphaNNN</text>
</a>
</g>
</g>
<!-- Node1&#45;&gt;Node10 -->
<g id="edge10" class="edge"><title>Node1&#45;&gt;Node10</title>
<path fill="none" stroke="midnightblue" d="M83.0544,-262.819C124.048,-247.621 190.434,-223.01 226.747,-209.547"/>
<polygon fill="midnightblue" stroke="midnightblue" points="81.6231,-259.617 73.4634,-266.375 84.0564,-266.18 81.6231,-259.617"/>
</g>
<!-- Node11 -->
<g id="node11" class="node"><title>Node11</title>
<g id="a_node11"><a xlink:href="pda_8h.html#aee08a527408a7a8a4b5490d13b767cb2" target="_top" xlink:title="txMetronome">
<polygon fill="white" stroke="black" points="216.5,-152.5 216.5,-171.5 290.5,-171.5 290.5,-152.5 216.5,-152.5"/>
<text text-anchor="middle" x="253.5" y="-159.5" font-family="Helvetica,sans-Serif" font-size="10.00">txMetronome</text>
</a>
</g>
</g>
<!-- Node1&#45;&gt;Node11 -->
<g id="edge11" class="edge"><title>Node1&#45;&gt;Node11</title>
<path fill="none" stroke="midnightblue" d="M67.8096,-260.359C95.2033,-239.856 146.095,-203.826 194,-181 201.519,-177.417 209.887,-174.254 217.889,-171.587"/>
<polygon fill="midnightblue" stroke="midnightblue" points="65.6408,-257.611 59.7747,-266.434 69.8624,-263.195 65.6408,-257.611"/>
</g>
<!-- Node12 -->
<g id="node12" class="node"><title>Node12</title>
<g id="a_node12"><a xlink:href="pda_8h.html#aba3c77bbaeda68253d8795c44bb0b4ff" target="_top" xlink:title="sumStack">
<polygon fill="white" stroke="black" points="223,-114.5 223,-133.5 284,-133.5 284,-114.5 223,-114.5"/>
<text text-anchor="middle" x="253.5" y="-121.5" font-family="Helvetica,sans-Serif" font-size="10.00">sumStack</text>
</a>
</g>
</g>
<!-- Node1&#45;&gt;Node12 -->
<g id="edge12" class="edge"><title>Node1&#45;&gt;Node12</title>
<path fill="none" stroke="midnightblue" d="M61.9037,-258.422C86.1822,-229.941 138.105,-173.8 194,-143 202.885,-138.104 213.232,-134.225 222.732,-131.283"/>
<polygon fill="midnightblue" stroke="midnightblue" points="59.0285,-256.404 55.2827,-266.314 64.3912,-260.903 59.0285,-256.404"/>
</g>
<!-- Node13 -->
<g id="node13" class="node"><title>Node13</title>
<g id="a_node13"><a xlink:href="pda_8h.html#a59acff867d89a88cb2142895d95b12e8" target="_top" xlink:title="gradeSum">
<polygon fill="white" stroke="black" points="223,-0.5 223,-19.5 284,-19.5 284,-0.5 223,-0.5"/>
<text text-anchor="middle" x="253.5" y="-7.5" font-family="Helvetica,sans-Serif" font-size="10.00">gradeSum</text>
</a>
</g>
</g>
<!-- Node1&#45;&gt;Node13 -->
<g id="edge13" class="edge"><title>Node1&#45;&gt;Node13</title>
<path fill="none" stroke="midnightblue" d="M49.226,-256.253C54.005,-213.391 71.1593,-111.033 129,-53 154.243,-27.6735 195.171,-17.2344 222.93,-12.9506"/>
<polygon fill="midnightblue" stroke="midnightblue" points="45.7176,-256.162 48.2018,-266.461 52.6826,-256.861 45.7176,-256.162"/>
</g>
<!-- Node16 -->
<g id="node16" class="node"><title>Node16</title>
<g id="a_node16"><a xlink:href="pda_8h.html#a959876507019ccc24303937cc277bb31" target="_top" xlink:title="gradeNext">
<polygon fill="white" stroke="black" points="364,-209.5 364,-228.5 426,-228.5 426,-209.5 364,-209.5"/>
<text text-anchor="middle" x="395" y="-216.5" font-family="Helvetica,sans-Serif" font-size="10.00">gradeNext</text>
</a>
</g>
</g>
<!-- Node1&#45;&gt;Node16 -->
<g id="edge16" class="edge"><title>Node1&#45;&gt;Node16</title>
<path fill="none" stroke="midnightblue" d="M55.9272,-256.934C74.2928,-218.279 122.126,-132.05 194,-105 243.499,-86.3706 266.003,-80.7404 313,-105 356.795,-127.607 382.067,-186.044 390.654,-209.271"/>
<polygon fill="midnightblue" stroke="midnightblue" points="52.7186,-255.535 51.7135,-266.082 59.0765,-258.463 52.7186,-255.535"/>
</g>
<!-- Node18 -->
<g id="node18" class="node"><title>Node18</title>
<g id="a_node18"><a xlink:href="stack_8h.html#abefdfbf9131b5ea5926f9ecbecb6b1e6" target="_top" xlink:title="Access the stack using an index where 0 is the top of the stack. ">
<polygon fill="white" stroke="black" points="129,-266.5 129,-285.5 158,-285.5 158,-266.5 129,-266.5"/>
<text text-anchor="middle" x="143.5" y="-273.5" font-family="Helvetica,sans-Serif" font-size="10.00">s</text>
</a>
</g>
</g>
<!-- Node1&#45;&gt;Node18 -->
<g id="edge19" class="edge"><title>Node1&#45;&gt;Node18</title>
<path fill="none" stroke="midnightblue" d="M103.342,-276C112.73,-276 121.668,-276 128.629,-276"/>
<polygon fill="midnightblue" stroke="midnightblue" points="103.052,-272.5 93.0522,-276 103.052,-279.5 103.052,-272.5"/>
</g>
<!-- Node20 -->
<g id="node20" class="node"><title>Node20</title>
<g id="a_node20"><a xlink:href="stack_8h.html#a89e98012b4180ef8ce90108ebcfbde1d" target="_top" xlink:title="stackDigitsToUnsigned">
<polygon fill="white" stroke="black" points="194,-304.5 194,-323.5 313,-323.5 313,-304.5 194,-304.5"/>
<text text-anchor="middle" x="253.5" y="-311.5" font-family="Helvetica,sans-Serif" font-size="10.00">stackDigitsToUnsigned</text>
</a>
</g>
</g>
<!-- Node1&#45;&gt;Node20 -->
<g id="edge36" class="edge"><title>Node1&#45;&gt;Node20</title>
<path fill="none" stroke="midnightblue" d="M95.7242,-287.884C106.633,-290.394 118.188,-292.911 129,-295 150.086,-299.074 173.333,-302.838 193.916,-305.923"/>
<polygon fill="midnightblue" stroke="midnightblue" points="96.461,-284.462 85.9269,-285.595 94.8681,-291.279 96.461,-284.462"/>
</g>
<!-- Node3 -->
<g id="node3" class="node"><title>Node3</title>
<g id="a_node3"><a xlink:href="actions_8h.html#a1fec7da4166b9612d2deec3d0262d60f" target="_top" xlink:title="dispatchOnStack">
<polygon fill="white" stroke="black" points="349,-361.5 349,-380.5 441,-380.5 441,-361.5 349,-361.5"/>
<text text-anchor="middle" x="395" y="-368.5" font-family="Helvetica,sans-Serif" font-size="10.00">dispatchOnStack</text>
</a>
</g>
</g>
<!-- Node2&#45;&gt;Node3 -->
<g id="edge2" class="edge"><title>Node2&#45;&gt;Node3</title>
<path fill="none" stroke="midnightblue" d="M304.597,-490.233C307.545,-488.666 310.375,-486.928 313,-485 352.33,-456.11 379.834,-402.309 389.836,-380.524"/>
<polygon fill="midnightblue" stroke="midnightblue" points="303.097,-487.07 295.48,-494.435 306.027,-493.427 303.097,-487.07"/>
</g>
<!-- Node5&#45;&gt;Node3 -->
<g id="edge5" class="edge"><title>Node5&#45;&gt;Node3</title>
<path fill="none" stroke="midnightblue" d="M295.928,-415.256C301.703,-413.274 307.529,-411.162 313,-409 334.813,-400.38 359.075,-388.708 375.307,-380.584"/>
<polygon fill="midnightblue" stroke="midnightblue" points="294.71,-411.973 286.331,-418.457 296.925,-418.614 294.71,-411.973"/>
</g>
<!-- Node9 -->
<g id="node9" class="node"><title>Node9</title>
<g id="a_node9"><a xlink:href="pda_8h.html#a5218392624b017b817b80d6b16ea920d" target="_top" xlink:title="askNextAlfa">
<polygon fill="white" stroke="black" points="477,-95.5 477,-114.5 548,-114.5 548,-95.5 477,-95.5"/>
<text text-anchor="middle" x="512.5" y="-102.5" font-family="Helvetica,sans-Serif" font-size="10.00">askNextAlfa</text>
</a>
</g>
</g>
<!-- Node8&#45;&gt;Node9 -->
<g id="edge9" class="edge"><title>Node8&#45;&gt;Node9</title>
<path fill="none" stroke="midnightblue" d="M307.305,-59.7117C357.96,-70.9463 433.001,-87.5896 476.606,-97.2608"/>
<polygon fill="midnightblue" stroke="midnightblue" points="308.037,-56.2889 297.516,-57.5405 306.521,-63.1228 308.037,-56.2889"/>
</g>
<!-- Node14 -->
<g id="node14" class="node"><title>Node14</title>
<g id="a_node14"><a xlink:href="pda_8h.html#a15825e7325bc5cdbd18cf2c6055baef1" target="_top" xlink:title="gradeRestore">
<polygon fill="white" stroke="black" points="357.5,-0.5 357.5,-19.5 432.5,-19.5 432.5,-0.5 357.5,-0.5"/>
<text text-anchor="middle" x="395" y="-7.5" font-family="Helvetica,sans-Serif" font-size="10.00">gradeRestore</text>
</a>
</g>
</g>
<!-- Node13&#45;&gt;Node14 -->
<g id="edge14" class="edge"><title>Node13&#45;&gt;Node14</title>
<path fill="none" stroke="midnightblue" d="M294.326,-10C314.124,-10 337.892,-10 357.251,-10"/>
<polygon fill="midnightblue" stroke="midnightblue" points="294.084,-6.5001 284.084,-10 294.084,-13.5001 294.084,-6.5001"/>
</g>
<!-- Node15 -->
<g id="node15" class="node"><title>Node15</title>
<g id="a_node15"><a xlink:href="pda_8h.html#abf2e0c8c523ed9ddee8a9194c9800b99" target="_top" xlink:title="askSum">
<polygon fill="white" stroke="black" points="486,-0.5 486,-19.5 539,-19.5 539,-0.5 486,-0.5"/>
<text text-anchor="middle" x="512.5" y="-7.5" font-family="Helvetica,sans-Serif" font-size="10.00">askSum</text>
</a>
</g>
</g>
<!-- Node14&#45;&gt;Node15 -->
<g id="edge15" class="edge"><title>Node14&#45;&gt;Node15</title>
<path fill="none" stroke="midnightblue" d="M442.547,-10C457.299,-10 473.067,-10 485.795,-10"/>
<polygon fill="midnightblue" stroke="midnightblue" points="442.545,-6.5001 432.545,-10 442.545,-13.5001 442.545,-6.5001"/>
</g>
<!-- Node16&#45;&gt;Node9 -->
<g id="edge17" class="edge"><title>Node16&#45;&gt;Node9</title>
<path fill="none" stroke="midnightblue" d="M413.053,-202.168C437.576,-177.964 482.008,-134.109 501.677,-114.695"/>
<polygon fill="midnightblue" stroke="midnightblue" points="410.506,-199.765 405.847,-209.28 415.423,-204.747 410.506,-199.765"/>
</g>
<!-- Node17 -->
<g id="node17" class="node"><title>Node17</title>
<g id="a_node17"><a xlink:href="pda_8h.html#a1dc125d402fe76077cb4d166ac0fbf7a" target="_top" xlink:title="askNext">
<polygon fill="white" stroke="black" points="486,-209.5 486,-228.5 539,-228.5 539,-209.5 486,-209.5"/>
<text text-anchor="middle" x="512.5" y="-216.5" font-family="Helvetica,sans-Serif" font-size="10.00">askNext</text>
</a>
</g>
</g>
<!-- Node16&#45;&gt;Node17 -->
<g id="edge18" class="edge"><title>Node16&#45;&gt;Node17</title>
<path fill="none" stroke="midnightblue" d="M436.484,-219C452.916,-219 471.401,-219 485.91,-219"/>
<polygon fill="midnightblue" stroke="midnightblue" points="436.045,-215.5 426.045,-219 436.045,-222.5 436.045,-215.5"/>
</g>
<!-- Node18&#45;&gt;Node2 -->
<g id="edge23" class="edge"><title>Node18&#45;&gt;Node2</title>
<path fill="none" stroke="midnightblue" d="M146.706,-295.738C152.288,-342.307 168.378,-457.2 194,-485 197.546,-488.848 201.878,-491.918 206.565,-494.369"/>
<polygon fill="midnightblue" stroke="midnightblue" points="150.171,-295.229 145.54,-285.699 143.218,-296.036 150.171,-295.229"/>
</g>
<!-- Node18&#45;&gt;Node4 -->
<g id="edge24" class="edge"><title>Node18&#45;&gt;Node4</title>
<path fill="none" stroke="midnightblue" d="M144.537,-296.065C145.705,-331.387 153.245,-404.908 194,-447 201.354,-454.595 211.769,-459.157 221.777,-461.896"/>
<polygon fill="midnightblue" stroke="midnightblue" points="148.029,-295.585 144.346,-285.651 141.03,-295.713 148.029,-295.585"/>
</g>
<!-- Node18&#45;&gt;Node5 -->
<g id="edge25" class="edge"><title>Node18&#45;&gt;Node5</title>
<path fill="none" stroke="midnightblue" d="M146.469,-295.623C150.396,-324.446 161.812,-378.144 194,-409 200.784,-415.503 209.816,-419.78 218.75,-422.593"/>
<polygon fill="midnightblue" stroke="midnightblue" points="149.93,-295.086 145.27,-285.571 142.979,-295.915 149.93,-295.086"/>
</g>
<!-- Node18&#45;&gt;Node6 -->
<g id="edge26" class="edge"><title>Node18&#45;&gt;Node6</title>
<path fill="none" stroke="midnightblue" d="M149.714,-295.259C156.48,-316.699 170.316,-350.961 194,-371 198.565,-374.863 203.932,-377.945 209.532,-380.402"/>
<polygon fill="midnightblue" stroke="midnightblue" points="153.058,-294.226 146.876,-285.621 146.343,-296.203 153.058,-294.226"/>
</g>
<!-- Node18&#45;&gt;Node7 -->
<g id="edge27" class="edge"><title>Node18&#45;&gt;Node7</title>
<path fill="none" stroke="midnightblue" d="M156.353,-294.26C165.328,-306.769 178.699,-322.868 194,-333 203.349,-339.19 214.87,-343.499 225.209,-346.428"/>
<polygon fill="midnightblue" stroke="midnightblue" points="159.175,-292.186 150.63,-285.923 153.404,-296.148 159.175,-292.186"/>
</g>
<!-- Node18&#45;&gt;Node8 -->
<g id="edge28" class="edge"><title>Node18&#45;&gt;Node8</title>
<path fill="none" stroke="midnightblue" d="M146.876,-256.209C151.573,-222.932 164.289,-154.557 194,-105 205.666,-85.541 225.601,-68.1401 238.912,-57.8259"/>
<polygon fill="midnightblue" stroke="midnightblue" points="143.366,-256.056 145.534,-266.427 150.306,-256.968 143.366,-256.056"/>
</g>
<!-- Node18&#45;&gt;Node10 -->
<g id="edge29" class="edge"><title>Node18&#45;&gt;Node10</title>
<path fill="none" stroke="midnightblue" d="M158.088,-258.284C167.269,-247.26 180.198,-233.436 194,-224 202.609,-218.114 212.885,-213.292 222.405,-209.554"/>
<polygon fill="midnightblue" stroke="midnightblue" points="155.114,-256.397 151.583,-266.386 160.573,-260.779 155.114,-256.397"/>
</g>
<!-- Node18&#45;&gt;Node11 -->
<g id="edge30" class="edge"><title>Node18&#45;&gt;Node11</title>
<path fill="none" stroke="midnightblue" d="M149.714,-256.741C156.48,-235.301 170.316,-201.039 194,-181 200.358,-175.62 208.273,-171.754 216.205,-168.98"/>
<polygon fill="midnightblue" stroke="midnightblue" points="146.343,-255.797 146.876,-266.379 153.058,-257.774 146.343,-255.797"/>
</g>
<!-- Node18&#45;&gt;Node12 -->
<g id="edge31" class="edge"><title>Node18&#45;&gt;Node12</title>
<path fill="none" stroke="midnightblue" d="M146.469,-256.377C150.396,-227.554 161.812,-173.856 194,-143 201.863,-135.463 212.747,-130.915 222.997,-128.172"/>
<polygon fill="midnightblue" stroke="midnightblue" points="142.979,-256.085 145.27,-266.429 149.93,-256.914 142.979,-256.085"/>
</g>
<!-- Node18&#45;&gt;Node13 -->
<g id="edge32" class="edge"><title>Node18&#45;&gt;Node13</title>
<path fill="none" stroke="midnightblue" d="M145.921,-256.253C150.077,-203.833 163.864,-62.8602 194,-29 201.383,-20.7042 212.423,-16.013 222.929,-13.3668"/>
<polygon fill="midnightblue" stroke="midnightblue" points="142.427,-256.049 145.159,-266.285 149.407,-256.579 142.427,-256.049"/>
</g>
<!-- Node18&#45;&gt;Node16 -->
<g id="edge33" class="edge"><title>Node18&#45;&gt;Node16</title>
<path fill="none" stroke="midnightblue" d="M167.495,-266.192C175.745,-262.936 185.188,-259.507 194,-257 253.151,-240.175 324.289,-228.666 363.792,-223.02"/>
<polygon fill="midnightblue" stroke="midnightblue" points="166.083,-262.988 158.145,-270.004 168.726,-269.47 166.083,-262.988"/>
</g>
<!-- Node19 -->
<g id="node19" class="node"><title>Node19</title>
<g id="a_node19"><a xlink:href="actions_8h.html#a5396567e85aa94852a84b3fff96369b9" target="_top" xlink:title="Transmit the top element of the stack. ">
<polygon fill="white" stroke="black" points="203.5,-266.5 203.5,-285.5 303.5,-285.5 303.5,-266.5 203.5,-266.5"/>
<text text-anchor="middle" x="253.5" y="-273.5" font-family="Helvetica,sans-Serif" font-size="10.00">txSymbolStackTop</text>
</a>
</g>
</g>
<!-- Node18&#45;&gt;Node19 -->
<g id="edge20" class="edge"><title>Node18&#45;&gt;Node19</title>
<path fill="none" stroke="midnightblue" d="M168.391,-276C178.686,-276 191.128,-276 203.248,-276"/>
<polygon fill="midnightblue" stroke="midnightblue" points="168.178,-272.5 158.178,-276 168.178,-279.5 168.178,-272.5"/>
</g>
<!-- Node18&#45;&gt;Node20 -->
<g id="edge34" class="edge"><title>Node18&#45;&gt;Node20</title>
<path fill="none" stroke="midnightblue" d="M167.692,-285.19C175.96,-288.39 185.363,-291.942 194,-295 203.06,-298.207 212.98,-301.508 222.035,-304.44"/>
<polygon fill="midnightblue" stroke="midnightblue" points="168.885,-281.899 158.297,-281.519 166.337,-288.419 168.885,-281.899"/>
</g>
<!-- Node19&#45;&gt;Node3 -->
<g id="edge21" class="edge"><title>Node19&#45;&gt;Node3</title>
<path fill="none" stroke="midnightblue" d="M301.997,-289.412C305.814,-291.091 309.531,-292.95 313,-295 344.043,-313.348 372.955,-345.443 386.284,-361.411"/>
<polygon fill="midnightblue" stroke="midnightblue" points="302.974,-286.034 292.388,-285.602 300.393,-292.542 302.974,-286.034"/>
</g>
<!-- Node19&#45;&gt;Node16 -->
<g id="edge22" class="edge"><title>Node19&#45;&gt;Node16</title>
<path fill="none" stroke="midnightblue" d="M287.15,-262.659C312.735,-252.205 347.714,-237.913 370.575,-228.572"/>
<polygon fill="midnightblue" stroke="midnightblue" points="285.782,-259.437 277.849,-266.459 288.43,-265.917 285.782,-259.437"/>
</g>
<!-- Node20&#45;&gt;Node3 -->
<g id="edge35" class="edge"><title>Node20&#45;&gt;Node3</title>
<path fill="none" stroke="midnightblue" d="M295.928,-326.744C301.703,-328.726 307.529,-330.838 313,-333 334.813,-341.62 359.075,-353.292 375.307,-361.416"/>
<polygon fill="midnightblue" stroke="midnightblue" points="296.925,-323.386 286.331,-323.543 294.71,-330.027 296.925,-323.386"/>
</g>
</g>
</svg>
