<?xml version="1.0" encoding="UTF-8" standalone="no"?>
<!DOCTYPE svg PUBLIC "-//W3C//DTD SVG 1.1//EN"
 "http://www.w3.org/Graphics/SVG/1.1/DTD/svg11.dtd">
<!-- Generated by graphviz version 2.38.0 (20140413.2041)
 -->
<!-- Title: popN Pages: 1 -->
<svg width="150pt" height="66pt"
 viewBox="0.00 0.00 150.00 66.00" xmlns="http://www.w3.org/2000/svg" xmlns:xlink="http://www.w3.org/1999/xlink">
<g id="graph0" class="graph" transform="scale(1 1) rotate(0) translate(4 62)">
<title>popN</title>
<polygon fill="white" stroke="none" points="-4,4 -4,-62 146,-62 146,4 -4,4"/>
<!-- Node1 -->
<g id="node1" class="node"><title>Node1</title>
<polygon fill="#bfbfbf" stroke="black" points="0,-19.5 0,-38.5 40,-38.5 40,-19.5 0,-19.5"/>
<text text-anchor="middle" x="20" y="-26.5" font-family="Helvetica,sans-Serif" font-size="10.00">popN</text>
</g>
<!-- Node2 -->
<g id="node2" class="node"><title>Node2</title>
<g id="a_node2"><a xlink:href="class_stack.html#afc30a7ee287e14f08802c2d43613f2b4" target="_top" xlink:title="Return the number of elements currently in the stack. ">
<polygon fill="white" stroke="black" points="76,-38.5 76,-57.5 142,-57.5 142,-38.5 76,-38.5"/>
<text text-anchor="middle" x="109" y="-45.5" font-family="Helvetica,sans-Serif" font-size="10.00">Stack::size</text>
</a>
</g>
</g>
<!-- Node1&#45;&gt;Node2 -->
<g id="edge1" class="edge"><title>Node1&#45;&gt;Node2</title>
<path fill="none" stroke="midnightblue" d="M40.3081,-33.2167C47.8735,-34.8689 56.8703,-36.8337 65.7944,-38.7827"/>
<polygon fill="midnightblue" stroke="midnightblue" points="65.2424,-42.2446 75.7589,-40.9588 66.736,-35.4057 65.2424,-42.2446"/>
</g>
<!-- Node3 -->
<g id="node3" class="node"><title>Node3</title>
<g id="a_node3"><a xlink:href="class_stack.html#a8b4caa181ab4cc209c270338e919cf8b" target="_top" xlink:title="Discard the top element, if the stack is not empty. ">
<polygon fill="white" stroke="black" points="77,-0.5 77,-19.5 141,-19.5 141,-0.5 77,-0.5"/>
<text text-anchor="middle" x="109" y="-7.5" font-family="Helvetica,sans-Serif" font-size="10.00">Stack::pop</text>
</a>
</g>
</g>
<!-- Node1&#45;&gt;Node3 -->
<g id="edge2" class="edge"><title>Node1&#45;&gt;Node3</title>
<path fill="none" stroke="midnightblue" d="M40.3081,-24.7833C48.1754,-23.0651 57.5907,-21.0089 66.8624,-18.9841"/>
<polygon fill="midnightblue" stroke="midnightblue" points="67.7639,-22.3698 76.7869,-16.8167 66.2703,-15.531 67.7639,-22.3698"/>
</g>
</g>
</svg>
