<?xml version="1.0" encoding="UTF-8" standalone="no"?>
<!DOCTYPE svg PUBLIC "-//W3C//DTD SVG 1.1//EN"
 "http://www.w3.org/Graphics/SVG/1.1/DTD/svg11.dtd">
<!-- Generated by graphviz version 2.38.0 (20140413.2041)
 -->
<!-- Title: stack.h Pages: 1 -->
<svg width="386pt" height="84pt"
 viewBox="0.00 0.00 386.00 84.00" xmlns="http://www.w3.org/2000/svg" xmlns:xlink="http://www.w3.org/1999/xlink">
<g id="graph0" class="graph" transform="scale(1 1) rotate(0) translate(4 80)">
<title>stack.h</title>
<polygon fill="white" stroke="none" points="-4,4 -4,-80 382,-80 382,4 -4,4"/>
<!-- Node1 -->
<g id="node1" class="node"><title>Node1</title>
<polygon fill="#bfbfbf" stroke="black" points="171,-56.5 171,-75.5 220,-75.5 220,-56.5 171,-56.5"/>
<text text-anchor="middle" x="195.5" y="-63.5" font-family="Helvetica,sans-Serif" font-size="10.00">stack.h</text>
</g>
<!-- Node2 -->
<g id="node2" class="node"><title>Node2</title>
<g id="a_node2"><a xlink:href="actions_8cpp.html" target="_top" xlink:title="Implementation of application&#45;specific actions. ">
<polygon fill="white" stroke="black" points="0,-0.5 0,-19.5 67,-19.5 67,-0.5 0,-0.5"/>
<text text-anchor="middle" x="33.5" y="-7.5" font-family="Helvetica,sans-Serif" font-size="10.00">actions.cpp</text>
</a>
</g>
</g>
<!-- Node1&#45;&gt;Node2 -->
<g id="edge1" class="edge"><title>Node1&#45;&gt;Node2</title>
<path fill="none" stroke="midnightblue" d="M161.1,-53.5335C130.578,-43.3593 86.676,-28.7253 59.14,-19.5467"/>
<polygon fill="midnightblue" stroke="midnightblue" points="160.302,-56.9566 170.896,-56.7986 162.516,-50.3158 160.302,-56.9566"/>
</g>
<!-- Node3 -->
<g id="node3" class="node"><title>Node3</title>
<g id="a_node3"><a xlink:href="didah_8ino.html" target="_top" xlink:title="Top&#45;level entry points for the Morse code PDA/Application. ">
<polygon fill="white" stroke="black" points="85.5,-0.5 85.5,-19.5 141.5,-19.5 141.5,-0.5 85.5,-0.5"/>
<text text-anchor="middle" x="113.5" y="-7.5" font-family="Helvetica,sans-Serif" font-size="10.00">didah.ino</text>
</a>
</g>
</g>
<!-- Node1&#45;&gt;Node3 -->
<g id="edge2" class="edge"><title>Node1&#45;&gt;Node3</title>
<path fill="none" stroke="midnightblue" d="M173.667,-50.6221C158.687,-40.7574 139.303,-27.9919 126.642,-19.6545"/>
<polygon fill="midnightblue" stroke="midnightblue" points="172.049,-53.7471 182.325,-56.324 175.899,-47.9009 172.049,-53.7471"/>
</g>
<!-- Node4 -->
<g id="node4" class="node"><title>Node4</title>
<g id="a_node4"><a xlink:href="libmorse_8cpp.html" target="_top" xlink:title="Implementation of Morse code operations. ">
<polygon fill="white" stroke="black" points="159.5,-0.5 159.5,-19.5 231.5,-19.5 231.5,-0.5 159.5,-0.5"/>
<text text-anchor="middle" x="195.5" y="-7.5" font-family="Helvetica,sans-Serif" font-size="10.00">libmorse.cpp</text>
</a>
</g>
</g>
<!-- Node1&#45;&gt;Node4 -->
<g id="edge3" class="edge"><title>Node1&#45;&gt;Node4</title>
<path fill="none" stroke="midnightblue" d="M195.5,-45.8045C195.5,-36.9102 195.5,-26.7798 195.5,-19.7511"/>
<polygon fill="midnightblue" stroke="midnightblue" points="192,-46.083 195.5,-56.083 199,-46.083 192,-46.083"/>
</g>
<!-- Node5 -->
<g id="node5" class="node"><title>Node5</title>
<g id="a_node5"><a xlink:href="pda_8cpp.html" target="_top" xlink:title="Implementation of Personal Digital Assistant functions. ">
<polygon fill="white" stroke="black" points="250,-0.5 250,-19.5 301,-19.5 301,-0.5 250,-0.5"/>
<text text-anchor="middle" x="275.5" y="-7.5" font-family="Helvetica,sans-Serif" font-size="10.00">pda.cpp</text>
</a>
</g>
</g>
<!-- Node1&#45;&gt;Node5 -->
<g id="edge4" class="edge"><title>Node1&#45;&gt;Node5</title>
<path fill="none" stroke="midnightblue" d="M216.801,-50.6221C231.415,-40.7574 250.327,-27.9919 262.679,-19.6545"/>
<polygon fill="midnightblue" stroke="midnightblue" points="214.684,-47.8282 208.353,-56.324 218.6,-53.6302 214.684,-47.8282"/>
</g>
<!-- Node6 -->
<g id="node6" class="node"><title>Node6</title>
<g id="a_node6"><a xlink:href="stack_8cpp.html" target="_top" xlink:title="Implementation of Stack&#45;related convenience functions. ">
<polygon fill="white" stroke="black" points="319,-0.5 319,-19.5 378,-19.5 378,-0.5 319,-0.5"/>
<text text-anchor="middle" x="348.5" y="-7.5" font-family="Helvetica,sans-Serif" font-size="10.00">stack.cpp</text>
</a>
</g>
</g>
<!-- Node1&#45;&gt;Node6 -->
<g id="edge5" class="edge"><title>Node1&#45;&gt;Node6</title>
<path fill="none" stroke="midnightblue" d="M229.389,-53.0392C258.177,-42.8786 298.787,-28.5457 324.37,-19.5164"/>
<polygon fill="midnightblue" stroke="midnightblue" points="228.008,-49.8148 219.743,-56.4435 230.338,-56.4157 228.008,-49.8148"/>
</g>
</g>
</svg>
