<?xml version="1.0" encoding="UTF-8" standalone="no"?>
<!DOCTYPE svg PUBLIC "-//W3C//DTD SVG 1.1//EN"
 "http://www.w3.org/Graphics/SVG/1.1/DTD/svg11.dtd">
<!-- Generated by graphviz version 2.38.0 (20140413.2041)
 -->
<!-- Title: stackDigitsToUnsigned Pages: 1 -->
<!--zoomable 608 -->
<svg id="main" version="1.1" xmlns="http://www.w3.org/2000/svg" xmlns:xlink="http://www.w3.org/1999/xlink" xml:space="preserve" onload="init(evt)">
<style type="text/css"><![CDATA[
.edge:hover path { stroke: red; }
.edge:hover polygon { stroke: red; fill: red; }
]]></style>
<script type="text/javascript"><![CDATA[
var edges = document.getElementsByTagName('g');
if (edges && edges.length) {
  for (var i=0;i<edges.length;i++) {
    if (edges[i].id.substr(0,4)=='edge') {
      edges[i].setAttribute('class','edge');
    }
  }
}
]]></script>
        <defs>
                <circle id="rim" cx="0" cy="0" r="7"/>
                <circle id="rim2" cx="0" cy="0" r="3.5"/>
                <g id="zoomPlus">
                        <use xlink:href="#rim" fill="#404040">
                                <set attributeName="fill" to="#808080" begin="zoomplus.mouseover" end="zoomplus.mouseout"/>
                        </use>
                        <path d="M-4,0h8M0,-4v8" fill="none" stroke="white" stroke-width="1.5" pointer-events="none"/>
                </g>
                <g id="zoomMin">
                        <use xlink:href="#rim" fill="#404040">
                                <set attributeName="fill" to="#808080" begin="zoomminus.mouseover" end="zoomminus.mouseout"/>
                        </use>
                        <path d="M-4,0h8" fill="none" stroke="white" stroke-width="1.5" pointer-events="none"/>
                </g>
                <g id="dirArrow">
                        <path fill="none" stroke="white" stroke-width="1.5" d="M0,-3.0v7 M-2.5,-0.5L0,-3.0L2.5,-0.5"/>
                </g>
               <g id="resetDef">
                       <use xlink:href="#rim2" fill="#404040">
                               <set attributeName="fill" to="#808080" begin="reset.mouseover" end="reset.mouseout"/>
                       </use>
               </g>
        </defs>

<script type="text/javascript">
var viewWidth = 1433;
var viewHeight = 608;
var sectionId = 'dynsection-13';
</script>
<script xlink:href="svgpan.js"/>
<svg id="graph" class="graph">
<g id="viewport">
<title>stackDigitsToUnsigned</title>
<polygon fill="white" stroke="none" points="-4,4 -4,-603.911 1429,-603.911 1429,4 -4,4"/>
<!-- Node1 -->
<g id="node1" class="node"><title>Node1</title>
<polygon fill="#bfbfbf" stroke="black" points="0,-523.411 0,-542.411 119,-542.411 119,-523.411 0,-523.411"/>
<text text-anchor="middle" x="59.5" y="-530.411" font-family="Helvetica,sans-Serif" font-size="10.00">stackDigitsToUnsigned</text>
</g>
<!-- Node2 -->
<g id="node2" class="node"><title>Node2</title>
<g id="a_node2"><a xlink:href="stack_8cpp.html#aafac4a86d14d59c34565bc295024e511" target="_top" xlink:title="symbolStackSize">
<polygon fill="white" stroke="black" points="237.5,-580.411 237.5,-599.411 330.5,-599.411 330.5,-580.411 237.5,-580.411"/>
<text text-anchor="middle" x="284" y="-587.411" font-family="Helvetica,sans-Serif" font-size="10.00">symbolStackSize</text>
</a>
</g>
</g>
<!-- Node1&#45;&gt;Node2 -->
<g id="edge1" class="edge"><title>Node1&#45;&gt;Node2</title>
<path fill="none" stroke="midnightblue" d="M80.306,-542.47C99.1088,-551.158 128.376,-563.69 155,-570.911 178.315,-577.234 204.628,-581.598 227.306,-584.532"/>
<polygon fill="midnightblue" stroke="midnightblue" points="227.093,-588.032 237.446,-585.782 227.949,-581.085 227.093,-588.032"/>
</g>
<!-- Node4 -->
<g id="node4" class="node"><title>Node4</title>
<g id="a_node4"><a xlink:href="stack_8cpp.html#abefdfbf9131b5ea5926f9ecbecb6b1e6" target="_top" xlink:title="Access the stack using an index where 0 is the top of the stack. ">
<polygon fill="white" stroke="black" points="160.5,-542.411 160.5,-561.411 189.5,-561.411 189.5,-542.411 160.5,-542.411"/>
<text text-anchor="middle" x="175" y="-549.411" font-family="Helvetica,sans-Serif" font-size="10.00">s</text>
</a>
</g>
</g>
<!-- Node1&#45;&gt;Node4 -->
<g id="edge3" class="edge"><title>Node1&#45;&gt;Node4</title>
<path fill="none" stroke="midnightblue" d="M117.583,-542.466C129.134,-544.4 140.666,-546.33 150.266,-547.938"/>
<polygon fill="midnightblue" stroke="midnightblue" points="149.741,-551.398 160.182,-549.597 150.897,-544.494 149.741,-551.398"/>
</g>
<!-- Node5 -->
<g id="node5" class="node"><title>Node5</title>
<g id="a_node5"><a xlink:href="morse__token_8cpp.html#a9ec0688da83c93d634e79b2d7ad7ad64" target="_top" xlink:title="Convert Morse 0&#45;9 to the corresponding digit. ">
<polygon fill="white" stroke="black" points="159,-466.411 159,-485.411 191,-485.411 191,-466.411 159,-466.411"/>
<text text-anchor="middle" x="175" y="-473.411" font-family="Helvetica,sans-Serif" font-size="10.00">m2i</text>
</a>
</g>
</g>
<!-- Node1&#45;&gt;Node5 -->
<g id="edge5" class="edge"><title>Node1&#45;&gt;Node5</title>
<path fill="none" stroke="midnightblue" d="M79.4973,-523.37C98.8701,-513.641 128.985,-498.517 149.996,-487.965"/>
<polygon fill="midnightblue" stroke="midnightblue" points="151.573,-491.09 158.938,-483.475 148.431,-484.835 151.573,-491.09"/>
</g>
<!-- Node35 -->
<g id="node35" class="node"><title>Node35</title>
<g id="a_node35"><a xlink:href="stack_8cpp.html#a7a8a89da82371dc2324696e7dfacad5e" target="_top" xlink:title="Pop the stack n times or until it is empty. ">
<polygon fill="white" stroke="black" points="155,-504.411 155,-523.411 195,-523.411 195,-504.411 155,-504.411"/>
<text text-anchor="middle" x="175" y="-511.411" font-family="Helvetica,sans-Serif" font-size="10.00">popN</text>
</a>
</g>
</g>
<!-- Node1&#45;&gt;Node35 -->
<g id="edge47" class="edge"><title>Node1&#45;&gt;Node35</title>
<path fill="none" stroke="midnightblue" d="M117.583,-523.355C127.053,-521.769 136.512,-520.186 144.902,-518.782"/>
<polygon fill="midnightblue" stroke="midnightblue" points="145.596,-522.214 154.881,-517.111 144.44,-515.31 145.596,-522.214"/>
</g>
<!-- Node3 -->
<g id="node3" class="node"><title>Node3</title>
<g id="a_node3"><a xlink:href="class_stack.html#afc30a7ee287e14f08802c2d43613f2b4" target="_top" xlink:title="Return the number of elements currently in the stack. ">
<polygon fill="white" stroke="black" points="373,-561.411 373,-580.411 439,-580.411 439,-561.411 373,-561.411"/>
<text text-anchor="middle" x="406" y="-568.411" font-family="Helvetica,sans-Serif" font-size="10.00">Stack::size</text>
</a>
</g>
</g>
<!-- Node2&#45;&gt;Node3 -->
<g id="edge2" class="edge"><title>Node2&#45;&gt;Node3</title>
<path fill="none" stroke="midnightblue" d="M330.709,-582.673C341.24,-581.006 352.395,-579.24 362.771,-577.597"/>
<polygon fill="midnightblue" stroke="midnightblue" points="363.505,-581.024 372.835,-576.003 362.41,-574.11 363.505,-581.024"/>
</g>
<!-- Node4&#45;&gt;Node2 -->
<g id="edge4" class="edge"><title>Node4&#45;&gt;Node2</title>
<path fill="none" stroke="midnightblue" d="M189.552,-556.723C203.791,-561.78 226.803,-569.953 246.427,-576.922"/>
<polygon fill="midnightblue" stroke="midnightblue" points="245.431,-580.282 256.025,-580.331 247.773,-573.686 245.431,-580.282"/>
</g>
<!-- Node6 -->
<g id="node6" class="node"><title>Node6</title>
<g id="a_node6"><a xlink:href="class_morse_token.html#a8c36a957ebc90172eae960757c72d3a4" target="_top" xlink:title="Convert to a single ASCII character. ">
<polygon fill="white" stroke="black" points="231,-466.411 231,-485.411 337,-485.411 337,-466.411 231,-466.411"/>
<text text-anchor="middle" x="284" y="-473.411" font-family="Helvetica,sans-Serif" font-size="10.00">MorseToken::toChar</text>
</a>
</g>
</g>
<!-- Node5&#45;&gt;Node6 -->
<g id="edge6" class="edge"><title>Node5&#45;&gt;Node6</title>
<path fill="none" stroke="midnightblue" d="M191.33,-475.911C199.383,-475.911 209.842,-475.911 220.801,-475.911"/>
<polygon fill="midnightblue" stroke="midnightblue" points="220.952,-479.411 230.952,-475.911 220.952,-472.411 220.952,-479.411"/>
</g>
<!-- Node10 -->
<g id="node10" class="node"><title>Node10</title>
<g id="a_node10"><a xlink:href="libmorse_8cpp.html#ab94e088615119d1faae7df22ce50aedf" target="_top" xlink:title="Transmit a Morse code prosign indicating an error. ">
<polygon fill="white" stroke="black" points="261,-143.411 261,-162.411 307,-162.411 307,-143.411 261,-143.411"/>
<text text-anchor="middle" x="284" y="-150.411" font-family="Helvetica,sans-Serif" font-size="10.00">txError</text>
</a>
</g>
</g>
<!-- Node5&#45;&gt;Node10 -->
<g id="edge10" class="edge"><title>Node5&#45;&gt;Node10</title>
<path fill="none" stroke="midnightblue" d="M179.202,-466.244C194.062,-421.387 256.426,-233.128 276.644,-172.098"/>
<polygon fill="midnightblue" stroke="midnightblue" points="279.988,-173.133 279.81,-162.54 273.343,-170.932 279.988,-173.133"/>
</g>
<!-- Node7 -->
<g id="node7" class="node"><title>Node7</title>
<g id="a_node7"><a xlink:href="morse__token_8h.html#a98f44690e97cbd7ea9445ca0a560a564" target="_top" xlink:title="Convert a Morse code into ASCII. ">
<polygon fill="white" stroke="black" points="388.5,-485.411 388.5,-504.411 423.5,-504.411 423.5,-485.411 388.5,-485.411"/>
<text text-anchor="middle" x="406" y="-492.411" font-family="Helvetica,sans-Serif" font-size="10.00">m2a</text>
</a>
</g>
</g>
<!-- Node6&#45;&gt;Node7 -->
<g id="edge7" class="edge"><title>Node6&#45;&gt;Node7</title>
<path fill="none" stroke="midnightblue" d="M337.285,-484.189C351.549,-486.447 366.404,-488.8 378.554,-490.723"/>
<polygon fill="midnightblue" stroke="midnightblue" points="378.028,-494.183 388.452,-492.29 379.123,-487.27 378.028,-494.183"/>
</g>
<!-- Node8 -->
<g id="node8" class="node"><title>Node8</title>
<g id="a_node8"><a xlink:href="class_morse_token.html#a48cd72aeb868391449d1f51c1d0bf5cc" target="_top" xlink:title="Treat code == 0 as the error token. ">
<polygon fill="white" stroke="black" points="1050,-485.411 1050,-504.411 1147,-504.411 1147,-485.411 1050,-485.411"/>
<text text-anchor="middle" x="1098.5" y="-492.411" font-family="Helvetica,sans-Serif" font-size="10.00">MorseToken::valid</text>
</a>
</g>
</g>
<!-- Node7&#45;&gt;Node8 -->
<g id="edge8" class="edge"><title>Node7&#45;&gt;Node8</title>
<path fill="none" stroke="midnightblue" d="M423.646,-494.911C467.428,-494.911 589.431,-494.911 691,-494.911 691,-494.911 691,-494.911 850.5,-494.911 915.155,-494.911 989.331,-494.911 1039.38,-494.911"/>
<polygon fill="midnightblue" stroke="midnightblue" points="1039.69,-498.411 1049.69,-494.911 1039.69,-491.411 1039.69,-498.411"/>
</g>
<!-- Node9 -->
<g id="node9" class="node"><title>Node9</title>
<g id="a_node9"><a xlink:href="class_morse_token.html#adc74054417a8636c1d34d43c34628731" target="_top" xlink:title="Treat code == 1 as a space. ">
<polygon fill="white" stroke="black" points="482.5,-523.411 482.5,-542.411 585.5,-542.411 585.5,-523.411 482.5,-523.411"/>
<text text-anchor="middle" x="534" y="-530.411" font-family="Helvetica,sans-Serif" font-size="10.00">MorseToken::pause</text>
</a>
</g>
</g>
<!-- Node7&#45;&gt;Node9 -->
<g id="edge9" class="edge"><title>Node7&#45;&gt;Node9</title>
<path fill="none" stroke="midnightblue" d="M423.732,-499.957C441.011,-505.168 468.64,-513.5 491.792,-520.483"/>
<polygon fill="midnightblue" stroke="midnightblue" points="490.811,-523.843 501.396,-523.379 492.833,-517.141 490.811,-523.843"/>
</g>
<!-- Node11 -->
<g id="node11" class="node"><title>Node11</title>
<g id="a_node11"><a xlink:href="libmorse_8cpp.html#a0ee2308940264ea9ac8e50afc1a4d285" target="_top" xlink:title="txString">
<polygon fill="white" stroke="black" points="381,-257.411 381,-276.411 431,-276.411 431,-257.411 381,-257.411"/>
<text text-anchor="middle" x="406" y="-264.411" font-family="Helvetica,sans-Serif" font-size="10.00">txString</text>
</a>
</g>
</g>
<!-- Node10&#45;&gt;Node11 -->
<g id="edge11" class="edge"><title>Node10&#45;&gt;Node11</title>
<path fill="none" stroke="midnightblue" d="M295.231,-162.63C315.689,-182.065 361.854,-225.922 387.315,-250.109"/>
<polygon fill="midnightblue" stroke="midnightblue" points="385.134,-252.866 394.795,-257.216 389.955,-247.791 385.134,-252.866"/>
</g>
<!-- Node12 -->
<g id="node12" class="node"><title>Node12</title>
<g id="a_node12"><a xlink:href="teensy3__morse__bsp_8cpp.html#ab306f692c5c9455a0c82782a67ff0147" target="_top" xlink:title="touchPoll">
<polygon fill="white" stroke="black" points="821,-371.411 821,-390.411 878,-390.411 878,-371.411 821,-371.411"/>
<text text-anchor="middle" x="849.5" y="-378.411" font-family="Helvetica,sans-Serif" font-size="10.00">touchPoll</text>
</a>
</g>
</g>
<!-- Node11&#45;&gt;Node12 -->
<g id="edge12" class="edge"><title>Node11&#45;&gt;Node12</title>
<path fill="none" stroke="midnightblue" d="M409.112,-276.679C414.866,-300.649 433.269,-362.35 475,-388.911 581.388,-456.624 741.63,-416.863 812.547,-393.824"/>
<polygon fill="midnightblue" stroke="midnightblue" points="813.964,-397.041 822.345,-390.56 811.752,-390.4 813.964,-397.041"/>
</g>
<!-- Node14 -->
<g id="node14" class="node"><title>Node14</title>
<g id="a_node14"><a xlink:href="settings_8cpp.html#a960551e90dfdad18f3c9b1338ccba7db" target="_top" xlink:title="Get the dit duration in microseconds. ">
<polygon fill="white" stroke="black" points="1062.5,-400.411 1062.5,-419.411 1134.5,-419.411 1134.5,-400.411 1062.5,-400.411"/>
<text text-anchor="middle" x="1098.5" y="-407.411" font-family="Helvetica,sans-Serif" font-size="10.00">getDitMicros</text>
</a>
</g>
</g>
<!-- Node11&#45;&gt;Node14 -->
<g id="edge14" class="edge"><title>Node11&#45;&gt;Node14</title>
<path fill="none" stroke="midnightblue" d="M408.155,-276.79C411.959,-304.514 426.747,-383.456 475,-420.911 551.881,-480.587 593.676,-456.911 691,-456.911 691,-456.911 691,-456.911 850.5,-456.911 924.67,-456.911 1009.19,-436.205 1057.65,-422.28"/>
<polygon fill="midnightblue" stroke="midnightblue" points="1058.81,-425.588 1067.43,-419.422 1056.85,-418.869 1058.81,-425.588"/>
</g>
<!-- Node15 -->
<g id="node15" class="node"><title>Node15</title>
<g id="a_node15"><a xlink:href="libmorse_8cpp.html#a9fdfce728595d72b78dc7c834ab99a40" target="_top" xlink:title="Transmit a literal Morse code value. ">
<polygon fill="white" stroke="black" points="953.5,-295.411 953.5,-314.411 1004.5,-314.411 1004.5,-295.411 953.5,-295.411"/>
<text text-anchor="middle" x="979" y="-302.411" font-family="Helvetica,sans-Serif" font-size="10.00">txLiteral</text>
</a>
</g>
</g>
<!-- Node11&#45;&gt;Node15 -->
<g id="edge15" class="edge"><title>Node11&#45;&gt;Node15</title>
<path fill="none" stroke="midnightblue" d="M431.221,-269.193C444.199,-270.379 460.465,-271.807 475,-272.911 650.773,-286.254 861.393,-298.413 943.165,-302.989"/>
<polygon fill="midnightblue" stroke="midnightblue" points="943.206,-306.496 953.385,-303.559 943.596,-299.507 943.206,-306.496"/>
</g>
<!-- Node23 -->
<g id="node23" class="node"><title>Node23</title>
<g id="a_node23"><a xlink:href="libmorse_8cpp.html#acd4b292f5e412ee4f05aed9dafbc072d" target="_top" xlink:title="Convert an ASCII character into Morse code and transmit it. ">
<polygon fill="white" stroke="black" points="824.5,-67.4105 824.5,-86.4105 874.5,-86.4105 874.5,-67.4105 824.5,-67.4105"/>
<text text-anchor="middle" x="849.5" y="-74.4105" font-family="Helvetica,sans-Serif" font-size="10.00">txLetter</text>
</a>
</g>
</g>
<!-- Node11&#45;&gt;Node23 -->
<g id="edge26" class="edge"><title>Node11&#45;&gt;Node23</title>
<path fill="none" stroke="midnightblue" d="M407.456,-256.988C409.438,-226.739 419.937,-135.351 475,-95.9105 528.61,-57.5109 732.301,-68.0872 814.148,-74.0935"/>
<polygon fill="midnightblue" stroke="midnightblue" points="814.175,-77.6055 824.411,-74.87 814.704,-70.6254 814.175,-77.6055"/>
</g>
<!-- Node24 -->
<g id="node24" class="node"><title>Node24</title>
<g id="a_node24"><a xlink:href="teensy3__morse__bsp_8cpp.html#a8761e874366e227690fba2964e1bc445" target="_top" xlink:title="getInternalTemperatureC">
<polygon fill="white" stroke="black" points="629.5,-238.411 629.5,-257.411 754.5,-257.411 754.5,-238.411 629.5,-238.411"/>
<text text-anchor="middle" x="692" y="-245.411" font-family="Helvetica,sans-Serif" font-size="10.00">getInternalTemperatureC</text>
</a>
</g>
</g>
<!-- Node11&#45;&gt;Node24 -->
<g id="edge29" class="edge"><title>Node11&#45;&gt;Node24</title>
<path fill="none" stroke="midnightblue" d="M431.214,-265.291C472.383,-262.536 557.544,-256.839 619.163,-252.717"/>
<polygon fill="midnightblue" stroke="midnightblue" points="619.479,-256.203 629.223,-252.044 619.012,-249.219 619.479,-256.203"/>
</g>
<!-- Node25 -->
<g id="node25" class="node"><title>Node25</title>
<g id="a_node25"><a xlink:href="libmorse_8cpp.html#a47abdd74b66d7180c47d192bab8bdccb" target="_top" xlink:title="Transmit an unsigned integer in Morse code. ">
<polygon fill="white" stroke="black" points="659,-181.411 659,-200.411 725,-200.411 725,-181.411 659,-181.411"/>
<text text-anchor="middle" x="692" y="-188.411" font-family="Helvetica,sans-Serif" font-size="10.00">txUnsigned</text>
</a>
</g>
</g>
<!-- Node11&#45;&gt;Node25 -->
<g id="edge30" class="edge"><title>Node11&#45;&gt;Node25</title>
<path fill="none" stroke="midnightblue" d="M415.036,-257.183C426.687,-243.862 449.667,-220.403 475,-209.911 531.669,-186.439 603.703,-185.148 648.586,-187.312"/>
<polygon fill="midnightblue" stroke="midnightblue" points="648.654,-190.821 658.836,-187.89 649.048,-183.833 648.654,-190.821"/>
</g>
<!-- Node26 -->
<g id="node26" class="node"><title>Node26</title>
<g id="a_node26"><a xlink:href="actions_8cpp.html#aed718ec1bd4cc7adb2f65d40a6784496" target="_top" xlink:title="Transmit the internal temperature in integer in Fahrenheit. ">
<polygon fill="white" stroke="black" points="475,-219.411 475,-238.411 593,-238.411 593,-219.411 475,-219.411"/>
<text text-anchor="middle" x="534" y="-226.411" font-family="Helvetica,sans-Serif" font-size="10.00">txInternalTemperatureF</text>
</a>
</g>
</g>
<!-- Node11&#45;&gt;Node26 -->
<g id="edge33" class="edge"><title>Node11&#45;&gt;Node26</title>
<path fill="none" stroke="midnightblue" d="M431.294,-259.584C448.301,-254.455 471.452,-247.473 491.37,-241.466"/>
<polygon fill="midnightblue" stroke="midnightblue" points="492.58,-244.756 501.144,-238.518 490.559,-238.055 492.58,-244.756"/>
</g>
<!-- Node27 -->
<g id="node27" class="node"><title>Node27</title>
<g id="a_node27"><a xlink:href="actions_8cpp.html#aaabb3ac0c23f35a499bc17efe829f326" target="_top" xlink:title="Transmit the 24&#45;hr time. ">
<polygon fill="white" stroke="black" points="495,-333.411 495,-352.411 573,-352.411 573,-333.411 495,-333.411"/>
<text text-anchor="middle" x="534" y="-340.411" font-family="Helvetica,sans-Serif" font-size="10.00">txTimeHHMM</text>
</a>
</g>
</g>
<!-- Node11&#45;&gt;Node27 -->
<g id="edge36" class="edge"><title>Node11&#45;&gt;Node27</title>
<path fill="none" stroke="midnightblue" d="M426.854,-276.602C439.921,-286.189 457.743,-299.971 475,-309.911 487.416,-317.062 502.378,-323.199 513.996,-328.696"/>
<polygon fill="midnightblue" stroke="midnightblue" points="512.696,-331.961 523.196,-333.371 515.867,-325.72 512.696,-331.961"/>
</g>
<!-- Node28 -->
<g id="node28" class="node"><title>Node28</title>
<g id="a_node28"><a xlink:href="actions_8cpp.html#ad02149679fa3cc6a4957d1a318408ffd" target="_top" xlink:title="Transmit the uptime. ">
<polygon fill="white" stroke="black" points="506,-143.411 506,-162.411 562,-162.411 562,-143.411 506,-143.411"/>
<text text-anchor="middle" x="534" y="-150.411" font-family="Helvetica,sans-Serif" font-size="10.00">txUptime</text>
</a>
</g>
</g>
<!-- Node11&#45;&gt;Node28 -->
<g id="edge38" class="edge"><title>Node11&#45;&gt;Node28</title>
<path fill="none" stroke="midnightblue" d="M412.047,-257.16C421.876,-239.033 445.251,-199.906 475,-176.911 481.365,-171.99 488.883,-167.912 496.359,-164.599"/>
<polygon fill="midnightblue" stroke="midnightblue" points="497.764,-167.806 505.717,-160.806 495.134,-161.319 497.764,-167.806"/>
</g>
<!-- Node30 -->
<g id="node30" class="node"><title>Node30</title>
<g id="a_node30"><a xlink:href="teensy3__morse__bsp_8cpp.html#ae8dd28759e56dbd2ee9bc9ae96d1783c" target="_top" xlink:title="Return the most recent ADC measurement of the input voltage. Perform analog to digital conversion on ...">
<polygon fill="white" stroke="black" points="497,-105.411 497,-124.411 571,-124.411 571,-105.411 497,-105.411"/>
<text text-anchor="middle" x="534" y="-112.411" font-family="Helvetica,sans-Serif" font-size="10.00">readMillivolts</text>
</a>
</g>
</g>
<!-- Node11&#45;&gt;Node30 -->
<g id="edge41" class="edge"><title>Node11&#45;&gt;Node30</title>
<path fill="none" stroke="midnightblue" d="M409.21,-257.291C415.295,-232.962 434.592,-168.458 475,-133.911 478.73,-130.722 483.008,-128.065 487.515,-125.852"/>
<polygon fill="midnightblue" stroke="midnightblue" points="489.1,-128.983 496.983,-121.904 486.406,-122.522 489.1,-128.983"/>
</g>
<!-- Node34 -->
<g id="node34" class="node"><title>Node34</title>
<g id="a_node34"><a xlink:href="libmorse_8cpp.html#ac3f000c98271c6d0a7710135e18189bc" target="_top" xlink:title="On my hardware there is cross&#45;coupling between the serial port and the touch sensors. Without the code below, long messages to the serial port trigger a touch input. ">
<polygon fill="white" stroke="black" points="659.5,-371.411 659.5,-390.411 724.5,-390.411 724.5,-371.411 659.5,-371.411"/>
<text text-anchor="middle" x="692" y="-378.411" font-family="Helvetica,sans-Serif" font-size="10.00">flushTouch</text>
</a>
</g>
</g>
<!-- Node11&#45;&gt;Node34 -->
<g id="edge45" class="edge"><title>Node11&#45;&gt;Node34</title>
<path fill="none" stroke="midnightblue" d="M410.641,-276.566C418.736,-296.524 440.298,-342.104 475,-361.911 528.99,-392.726 603.206,-391.692 649.087,-387.075"/>
<polygon fill="midnightblue" stroke="midnightblue" points="649.718,-390.527 659.27,-385.945 648.945,-383.57 649.718,-390.527"/>
</g>
<!-- Node13 -->
<g id="node13" class="node"><title>Node13</title>
<g id="a_node13"><a xlink:href="teensy3__morse__bsp_8cpp.html#af6899cd9b83df54106b259ab81ea5cb2" target="_top" xlink:title="touchMargin">
<polygon fill="white" stroke="black" points="944,-371.411 944,-390.411 1014,-390.411 1014,-371.411 944,-371.411"/>
<text text-anchor="middle" x="979" y="-378.411" font-family="Helvetica,sans-Serif" font-size="10.00">touchMargin</text>
</a>
</g>
</g>
<!-- Node12&#45;&gt;Node13 -->
<g id="edge13" class="edge"><title>Node12&#45;&gt;Node13</title>
<path fill="none" stroke="midnightblue" d="M878.166,-380.911C894.281,-380.911 914.984,-380.911 933.355,-380.911"/>
<polygon fill="midnightblue" stroke="midnightblue" points="933.562,-384.411 943.562,-380.911 933.562,-377.411 933.562,-384.411"/>
</g>
<!-- Node15&#45;&gt;Node8 -->
<g id="edge16" class="edge"><title>Node15&#45;&gt;Node8</title>
<path fill="none" stroke="midnightblue" d="M985.908,-314.515C992.797,-325.783 1004.46,-345.068 1014,-361.911 1030.66,-391.323 1032.09,-400.242 1050,-428.911 1060.58,-445.837 1073.96,-464.197 1083.82,-477.244"/>
<polygon fill="midnightblue" stroke="midnightblue" points="1081.16,-479.524 1090.01,-485.346 1086.72,-475.275 1081.16,-479.524"/>
</g>
<!-- Node15&#45;&gt;Node10 -->
<g id="edge25" class="edge"><title>Node15&#45;&gt;Node10</title>
<path fill="none" stroke="midnightblue" d="M978.398,-295.211C979.348,-258.453 977.605,-126.342 908,-57.9105 837.506,11.3948 791.857,-0.910547 693,-0.910547 533,-0.910547 533,-0.910547 533,-0.910547 430.694,-0.910547 334.998,-96.1022 299.521,-135.823"/>
<polygon fill="midnightblue" stroke="midnightblue" points="296.838,-133.573 292.884,-143.402 302.105,-138.185 296.838,-133.573"/>
</g>
<!-- Node15&#45;&gt;Node14 -->
<g id="edge24" class="edge"><title>Node15&#45;&gt;Node14</title>
<path fill="none" stroke="midnightblue" d="M990.844,-314.6C1010.95,-332.572 1054.24,-371.252 1079.04,-393.415"/>
<polygon fill="midnightblue" stroke="midnightblue" points="1076.89,-396.19 1086.68,-400.244 1081.56,-390.971 1076.89,-396.19"/>
</g>
<!-- Node16 -->
<g id="node16" class="node"><title>Node16</title>
<g id="a_node16"><a xlink:href="teensy3__morse__bsp_8cpp.html#af66e71e3fac9b6a2c6532bc8a513bfde" target="_top" xlink:title="Output a square wave on pin 10 at the given frequency for the given duration. ">
<polygon fill="white" stroke="black" points="1079.5,-314.411 1079.5,-333.411 1117.5,-333.411 1117.5,-314.411 1079.5,-314.411"/>
<text text-anchor="middle" x="1098.5" y="-321.411" font-family="Helvetica,sans-Serif" font-size="10.00">beep</text>
</a>
</g>
</g>
<!-- Node15&#45;&gt;Node16 -->
<g id="edge17" class="edge"><title>Node15&#45;&gt;Node16</title>
<path fill="none" stroke="midnightblue" d="M1004.63,-308.894C1023.57,-311.956 1049.75,-316.189 1069.48,-319.38"/>
<polygon fill="midnightblue" stroke="midnightblue" points="1068.99,-322.846 1079.42,-320.987 1070.11,-315.936 1068.99,-322.846"/>
</g>
<!-- Node22 -->
<g id="node22" class="node"><title>Node22</title>
<g id="a_node22"><a xlink:href="settings_8cpp.html#a8575b9b52638114a4f32d1462cf9b7c1" target="_top" xlink:title="Get the transmission frequency (side tone). ">
<polygon fill="white" stroke="black" points="1071.5,-276.411 1071.5,-295.411 1125.5,-295.411 1125.5,-276.411 1071.5,-276.411"/>
<text text-anchor="middle" x="1098.5" y="-283.411" font-family="Helvetica,sans-Serif" font-size="10.00">getTxHz</text>
</a>
</g>
</g>
<!-- Node15&#45;&gt;Node22 -->
<g id="edge23" class="edge"><title>Node15&#45;&gt;Node22</title>
<path fill="none" stroke="midnightblue" d="M1004.63,-300.928C1021.02,-298.277 1042.83,-294.75 1061.2,-291.78"/>
<polygon fill="midnightblue" stroke="midnightblue" points="1061.96,-295.204 1071.27,-290.152 1060.84,-288.293 1061.96,-295.204"/>
</g>
<!-- Node17 -->
<g id="node17" class="node"><title>Node17</title>
<g id="a_node17"><a xlink:href="teensy3__morse__bsp_8cpp.html#a6f674d5b9985ea3a7eeb0df299c2e405" target="_top" xlink:title="pollEarphonePresent">
<polygon fill="white" stroke="black" points="1183,-371.411 1183,-390.411 1290,-390.411 1290,-371.411 1183,-371.411"/>
<text text-anchor="middle" x="1236.5" y="-378.411" font-family="Helvetica,sans-Serif" font-size="10.00">pollEarphonePresent</text>
</a>
</g>
</g>
<!-- Node16&#45;&gt;Node17 -->
<g id="edge18" class="edge"><title>Node16&#45;&gt;Node17</title>
<path fill="none" stroke="midnightblue" d="M1117.56,-332.635C1134.35,-340.625 1160.14,-352.59 1183,-361.911 1187.87,-363.895 1193.03,-365.892 1198.14,-367.806"/>
<polygon fill="midnightblue" stroke="midnightblue" points="1197.23,-371.199 1207.82,-371.361 1199.64,-364.629 1197.23,-371.199"/>
</g>
<!-- Node18 -->
<g id="node18" class="node"><title>Node18</title>
<g id="a_node18"><a xlink:href="teensy3__morse__bsp_8cpp.html#a2d6b4ace33ed5e497dedd03217540c63" target="_top" xlink:title="Set the PWM frequency for the audio output pins. ">
<polygon fill="white" stroke="black" points="1195,-333.411 1195,-352.411 1278,-352.411 1278,-333.411 1195,-333.411"/>
<text text-anchor="middle" x="1236.5" y="-340.411" font-family="Helvetica,sans-Serif" font-size="10.00">pwmFrequency</text>
</a>
</g>
</g>
<!-- Node16&#45;&gt;Node18 -->
<g id="edge19" class="edge"><title>Node16&#45;&gt;Node18</title>
<path fill="none" stroke="midnightblue" d="M1117.56,-326.434C1134.62,-328.817 1161.02,-332.505 1184.52,-335.788"/>
<polygon fill="midnightblue" stroke="midnightblue" points="1184.33,-339.296 1194.72,-337.214 1185.3,-332.364 1184.33,-339.296"/>
</g>
<!-- Node19 -->
<g id="node19" class="node"><title>Node19</title>
<g id="a_node19"><a xlink:href="teensy3__morse__bsp_8cpp.html#a82911eac3bf13d6f36d10102a4c4d3c4" target="_top" xlink:title="Generate a tone on the audio output pins. ">
<polygon fill="white" stroke="black" points="1206,-295.411 1206,-314.411 1267,-314.411 1267,-295.411 1206,-295.411"/>
<text text-anchor="middle" x="1236.5" y="-302.411" font-family="Helvetica,sans-Serif" font-size="10.00">pwmWrite</text>
</a>
</g>
</g>
<!-- Node16&#45;&gt;Node19 -->
<g id="edge20" class="edge"><title>Node16&#45;&gt;Node19</title>
<path fill="none" stroke="midnightblue" d="M1117.56,-321.387C1137.46,-318.607 1170.08,-314.05 1195.98,-310.432"/>
<polygon fill="midnightblue" stroke="midnightblue" points="1196.47,-313.897 1205.89,-309.047 1195.5,-306.965 1196.47,-313.897"/>
</g>
<!-- Node21 -->
<g id="node21" class="node"><title>Node21</title>
<g id="a_node21"><a xlink:href="teensy3__morse__bsp_8cpp.html#a6c982a7d7805f1dd5426eb98c915cfdd" target="_top" xlink:title="Turn the red LED on (1) or off (0). ">
<polygon fill="white" stroke="black" points="1211.5,-257.411 1211.5,-276.411 1261.5,-276.411 1261.5,-257.411 1211.5,-257.411"/>
<text text-anchor="middle" x="1236.5" y="-264.411" font-family="Helvetica,sans-Serif" font-size="10.00">redLED</text>
</a>
</g>
</g>
<!-- Node16&#45;&gt;Node21 -->
<g id="edge22" class="edge"><title>Node16&#45;&gt;Node21</title>
<path fill="none" stroke="midnightblue" d="M1117.73,-317.134C1126.65,-313.689 1137.49,-309.309 1147,-304.911 1163.42,-297.318 1166.45,-293.229 1183,-285.911 1188.99,-283.26 1195.48,-280.685 1201.78,-278.33"/>
<polygon fill="midnightblue" stroke="midnightblue" points="1203.23,-281.528 1211.44,-274.831 1200.85,-274.947 1203.23,-281.528"/>
</g>
<!-- Node20 -->
<g id="node20" class="node"><title>Node20</title>
<g id="a_node20"><a xlink:href="teensy3__morse__bsp_8cpp.html#ac70998cee1bf97f00aec4a1b4e5a4f60" target="_top" xlink:title="isEarphonePresent">
<polygon fill="white" stroke="black" points="1326,-295.411 1326,-314.411 1425,-314.411 1425,-295.411 1326,-295.411"/>
<text text-anchor="middle" x="1375.5" y="-302.411" font-family="Helvetica,sans-Serif" font-size="10.00">isEarphonePresent</text>
</a>
</g>
</g>
<!-- Node19&#45;&gt;Node20 -->
<g id="edge21" class="edge"><title>Node19&#45;&gt;Node20</title>
<path fill="none" stroke="midnightblue" d="M1267.23,-304.911C1281.43,-304.911 1298.96,-304.911 1315.7,-304.911"/>
<polygon fill="midnightblue" stroke="midnightblue" points="1315.98,-308.411 1325.98,-304.911 1315.98,-301.411 1315.98,-308.411"/>
</g>
<!-- Node23&#45;&gt;Node10 -->
<g id="edge28" class="edge"><title>Node23&#45;&gt;Node10</title>
<path fill="none" stroke="midnightblue" d="M824.075,-72.2027C763.864,-61.4662 603.851,-38.2304 475,-66.9105 412.004,-80.9324 344.624,-117.119 309.503,-137.809"/>
<polygon fill="midnightblue" stroke="midnightblue" points="307.27,-135.066 300.483,-143.202 310.862,-141.074 307.27,-135.066"/>
</g>
<!-- Node23&#45;&gt;Node15 -->
<g id="edge27" class="edge"><title>Node23&#45;&gt;Node15</title>
<path fill="none" stroke="midnightblue" d="M874.661,-79.8254C886.088,-82.3555 899.135,-87.0818 908,-95.9105 961.283,-148.978 974.011,-243.736 977.049,-284.902"/>
<polygon fill="midnightblue" stroke="midnightblue" points="973.563,-285.248 977.674,-295.013 980.55,-284.816 973.563,-285.248"/>
</g>
<!-- Node25&#45;&gt;Node12 -->
<g id="edge31" class="edge"><title>Node25&#45;&gt;Node12</title>
<path fill="none" stroke="midnightblue" d="M713.665,-200.432C726.602,-207.107 743.028,-216.958 755,-228.911 795.776,-269.62 826.652,-331.401 840.493,-362.152"/>
<polygon fill="midnightblue" stroke="midnightblue" points="837.293,-363.572 844.523,-371.316 843.701,-360.753 837.293,-363.572"/>
</g>
<!-- Node25&#45;&gt;Node23 -->
<g id="edge32" class="edge"><title>Node25&#45;&gt;Node23</title>
<path fill="none" stroke="midnightblue" d="M725.161,-186.378C735.612,-183.602 746.654,-179.126 755,-171.911 783.274,-147.466 762.994,-120.662 791,-95.9105 797.681,-90.0057 806.247,-85.9279 814.715,-83.1148"/>
<polygon fill="midnightblue" stroke="midnightblue" points="815.816,-86.4409 824.492,-80.3596 813.917,-79.7033 815.816,-86.4409"/>
</g>
<!-- Node26&#45;&gt;Node24 -->
<g id="edge34" class="edge"><title>Node26&#45;&gt;Node24</title>
<path fill="none" stroke="midnightblue" d="M593.089,-235.985C601.711,-237.036 610.682,-238.128 619.54,-239.207"/>
<polygon fill="midnightblue" stroke="midnightblue" points="619.117,-242.681 629.467,-240.416 619.964,-235.733 619.117,-242.681"/>
</g>
<!-- Node26&#45;&gt;Node25 -->
<g id="edge35" class="edge"><title>Node26&#45;&gt;Node25</title>
<path fill="none" stroke="midnightblue" d="M574.365,-219.322C597.167,-213.767 625.861,-206.778 649.083,-201.121"/>
<polygon fill="midnightblue" stroke="midnightblue" points="650.108,-204.474 658.996,-198.706 648.451,-197.673 650.108,-204.474"/>
</g>
<!-- Node27&#45;&gt;Node11 -->
<g id="edge37" class="edge"><title>Node27&#45;&gt;Node11</title>
<path fill="none" stroke="midnightblue" d="M494.877,-337.652C488.106,-334.835 481.232,-331.5 475,-327.911 454.097,-315.87 432.365,-298.194 419.257,-284.575"/>
<polygon fill="midnightblue" stroke="midnightblue" points="421.543,-281.876 412.295,-276.706 416.3,-286.515 421.543,-281.876"/>
</g>
<!-- Node28&#45;&gt;Node25 -->
<g id="edge40" class="edge"><title>Node28&#45;&gt;Node25</title>
<path fill="none" stroke="midnightblue" d="M562.173,-159.53C586.119,-165.363 621.386,-173.953 648.968,-180.672"/>
<polygon fill="midnightblue" stroke="midnightblue" points="648.203,-184.088 658.748,-183.054 649.86,-177.287 648.203,-184.088"/>
</g>
<!-- Node29 -->
<g id="node29" class="node"><title>Node29</title>
<g id="a_node29"><a xlink:href="settings_8cpp.html#a7b4efa097b94f9a90c5bbafcdf93fe4f" target="_top" xlink:title="getUptime">
<polygon fill="white" stroke="black" points="661,-143.411 661,-162.411 723,-162.411 723,-143.411 661,-143.411"/>
<text text-anchor="middle" x="692" y="-150.411" font-family="Helvetica,sans-Serif" font-size="10.00">getUptime</text>
</a>
</g>
</g>
<!-- Node28&#45;&gt;Node29 -->
<g id="edge39" class="edge"><title>Node28&#45;&gt;Node29</title>
<path fill="none" stroke="midnightblue" d="M562.173,-152.911C586.633,-152.911 622.905,-152.911 650.735,-152.911"/>
<polygon fill="midnightblue" stroke="midnightblue" points="650.945,-156.411 660.945,-152.911 650.945,-149.411 650.945,-156.411"/>
</g>
<!-- Node31 -->
<g id="node31" class="node"><title>Node31</title>
<g id="a_node31"><a xlink:href="class_voltage_monitor.html#a70902b84f9864c95d5553a0644a64f4f" target="_top" xlink:title="Return the latest voltage reading. ">
<polygon fill="white" stroke="black" points="629,-105.411 629,-124.411 755,-124.411 755,-105.411 629,-105.411"/>
<text text-anchor="middle" x="692" y="-112.411" font-family="Helvetica,sans-Serif" font-size="10.00">VoltageMonitor::getValue</text>
</a>
</g>
</g>
<!-- Node30&#45;&gt;Node31 -->
<g id="edge42" class="edge"><title>Node30&#45;&gt;Node31</title>
<path fill="none" stroke="midnightblue" d="M571.182,-114.911C585.344,-114.911 602.117,-114.911 618.56,-114.911"/>
<polygon fill="midnightblue" stroke="midnightblue" points="618.728,-118.411 628.728,-114.911 618.728,-111.411 618.728,-118.411"/>
</g>
<!-- Node32 -->
<g id="node32" class="node"><title>Node32</title>
<g id="a_node32"><a xlink:href="actions_8cpp.html#a2b8c3769e2aa32a2da9e2f3f85ac73dd" target="_top" xlink:title="A sample ADC reading is taken each time through the main loop, and written to a ring buffer...">
<polygon fill="white" stroke="black" points="793.5,-105.411 793.5,-124.411 905.5,-124.411 905.5,-105.411 793.5,-105.411"/>
<text text-anchor="middle" x="849.5" y="-112.411" font-family="Helvetica,sans-Serif" font-size="10.00">getVoltagePollInterval</text>
</a>
</g>
</g>
<!-- Node31&#45;&gt;Node32 -->
<g id="edge43" class="edge"><title>Node31&#45;&gt;Node32</title>
<path fill="none" stroke="midnightblue" d="M755.352,-114.911C764.438,-114.911 773.816,-114.911 782.963,-114.911"/>
<polygon fill="midnightblue" stroke="midnightblue" points="783.163,-118.411 793.163,-114.911 783.163,-111.411 783.163,-118.411"/>
</g>
<!-- Node33 -->
<g id="node33" class="node"><title>Node33</title>
<g id="a_node33"><a xlink:href="class_voltage_monitor.html#a75871331808c34b40d04059ee2af0f27" target="_top" xlink:title="Filter and scale raw ADC values to millivolts. ">
<polygon fill="white" stroke="black" points="791,-143.411 791,-162.411 908,-162.411 908,-143.411 791,-143.411"/>
<text text-anchor="middle" x="849.5" y="-150.411" font-family="Helvetica,sans-Serif" font-size="10.00">VoltageMonitor::update</text>
</a>
</g>
</g>
<!-- Node31&#45;&gt;Node33 -->
<g id="edge44" class="edge"><title>Node31&#45;&gt;Node33</title>
<path fill="none" stroke="midnightblue" d="M732.239,-124.5C752.759,-129.514 778.067,-135.699 799.825,-141.016"/>
<polygon fill="midnightblue" stroke="midnightblue" points="798.998,-144.416 809.543,-143.39 800.66,-137.617 798.998,-144.416"/>
</g>
<!-- Node34&#45;&gt;Node12 -->
<g id="edge46" class="edge"><title>Node34&#45;&gt;Node12</title>
<path fill="none" stroke="midnightblue" d="M724.843,-380.911C749.677,-380.911 784.247,-380.911 810.522,-380.911"/>
<polygon fill="midnightblue" stroke="midnightblue" points="810.864,-384.411 820.864,-380.911 810.863,-377.411 810.864,-384.411"/>
</g>
<!-- Node35&#45;&gt;Node3 -->
<g id="edge48" class="edge"><title>Node35&#45;&gt;Node3</title>
<path fill="none" stroke="midnightblue" d="M195.352,-513.784C226.117,-514.111 287.737,-516.938 337,-532.911 353.356,-538.214 370.238,-547.622 383.09,-555.75"/>
<polygon fill="midnightblue" stroke="midnightblue" points="381.386,-558.818 391.67,-561.365 385.219,-552.961 381.386,-558.818"/>
</g>
<!-- Node36 -->
<g id="node36" class="node"><title>Node36</title>
<g id="a_node36"><a xlink:href="class_stack.html#a8b4caa181ab4cc209c270338e919cf8b" target="_top" xlink:title="Discard the top element, if the stack is not empty. ">
<polygon fill="white" stroke="black" points="252,-542.411 252,-561.411 316,-561.411 316,-542.411 252,-542.411"/>
<text text-anchor="middle" x="284" y="-549.411" font-family="Helvetica,sans-Serif" font-size="10.00">Stack::pop</text>
</a>
</g>
</g>
<!-- Node35&#45;&gt;Node36 -->
<g id="edge49" class="edge"><title>Node35&#45;&gt;Node36</title>
<path fill="none" stroke="midnightblue" d="M195.129,-520.704C209.3,-525.737 229.049,-532.75 246.236,-538.854"/>
<polygon fill="midnightblue" stroke="midnightblue" points="245.402,-542.272 255.997,-542.321 247.745,-535.676 245.402,-542.272"/>
</g>
</g>
</svg>
        <g id="navigator" transform="translate(0 0)" fill="#404254">
                <rect fill="#f2f5e9" fill-opacity="0.5" stroke="#606060" stroke-width=".5" x="0" y="0" width="60" height="60"/>
                <use id="zoomplus" xlink:href="#zoomPlus" x="17" y="9" onmousedown="handleZoom(evt,'in')"/>
                <use id="zoomminus" xlink:href="#zoomMin" x="42" y="9" onmousedown="handleZoom(evt,'out')"/>
                <use id="reset" xlink:href="#resetDef" x="30" y="36" onmousedown="handleReset()"/>
                <g id="arrowUp" xlink:href="#dirArrow" transform="translate(30 24)" onmousedown="handlePan(0,-1)">
                  <use xlink:href="#rim" fill="#404040">
                        <set attributeName="fill" to="#808080" begin="arrowUp.mouseover" end="arrowUp.mouseout"/>
                  </use>
                  <path fill="none" stroke="white" stroke-width="1.5" d="M0,-3.0v7 M-2.5,-0.5L0,-3.0L2.5,-0.5"/>
                </g>
                <g id="arrowRight" xlink:href="#dirArrow" transform="rotate(90) translate(36 -43)" onmousedown="handlePan(1,0)">
                  <use xlink:href="#rim" fill="#404040">
                        <set attributeName="fill" to="#808080" begin="arrowRight.mouseover" end="arrowRight.mouseout"/>
                  </use>
                  <path fill="none" stroke="white" stroke-width="1.5" d="M0,-3.0v7 M-2.5,-0.5L0,-3.0L2.5,-0.5"/>
                </g>
                <g id="arrowDown" xlink:href="#dirArrow" transform="rotate(180) translate(-30 -48)" onmousedown="handlePan(0,1)">
                  <use xlink:href="#rim" fill="#404040">
                        <set attributeName="fill" to="#808080" begin="arrowDown.mouseover" end="arrowDown.mouseout"/>
                  </use>
                  <path fill="none" stroke="white" stroke-width="1.5" d="M0,-3.0v7 M-2.5,-0.5L0,-3.0L2.5,-0.5"/>
                </g>
                <g id="arrowLeft" xlink:href="#dirArrow" transform="rotate(270) translate(-36 17)" onmousedown="handlePan(-1,0)">
                  <use xlink:href="#rim" fill="#404040">
                        <set attributeName="fill" to="#808080" begin="arrowLeft.mouseover" end="arrowLeft.mouseout"/>
                  </use>
                  <path fill="none" stroke="white" stroke-width="1.5" d="M0,-3.0v7 M-2.5,-0.5L0,-3.0L2.5,-0.5"/>
                </g>
        </g>
        <svg viewBox="0 0 15 15" width="100%" height="30px" preserveAspectRatio="xMaxYMin meet">
         <g id="arrow_out" transform="scale(0.3 0.3)">
          <a xlink:href="stack_8h_a89e98012b4180ef8ce90108ebcfbde1d_cgraph_org.svg" target="_base">
           <rect id="button" ry="5" rx="5" y="6" x="6" height="38" width="38"
                fill="#f2f5e9" fill-opacity="0.5" stroke="#606060" stroke-width="1.0"/>
           <path id="arrow"
             d="M 11.500037,31.436501 C 11.940474,20.09759 22.043105,11.32322 32.158766,21.979434 L 37.068811,17.246167 C 37.068811,17.246167 37.088388,32 37.088388,32 L 22.160133,31.978069 C 22.160133,31.978069 26.997745,27.140456 26.997745,27.140456 C 18.528582,18.264221 13.291696,25.230495 11.500037,31.436501 z"
             style="fill:#404040;"/>
          </a>
         </g>
        </svg>
</svg>
