<?xml version="1.0" encoding="UTF-8" standalone="no"?>
<!DOCTYPE svg PUBLIC "-//W3C//DTD SVG 1.1//EN"
 "http://www.w3.org/Graphics/SVG/1.1/DTD/svg11.dtd">
<!-- Generated by graphviz version 2.38.0 (20140413.2041)
 -->
<!-- Title: exchangeStack Pages: 1 -->
<svg width="1290pt" height="484pt"
 viewBox="0.00 0.00 1290.00 484.00" xmlns="http://www.w3.org/2000/svg" xmlns:xlink="http://www.w3.org/1999/xlink">
<g id="graph0" class="graph" transform="scale(1 1) rotate(0) translate(4 480)">
<title>exchangeStack</title>
<polygon fill="white" stroke="none" points="-4,4 -4,-480 1286,-480 1286,4 -4,4"/>
<!-- Node1 -->
<g id="node1" class="node"><title>Node1</title>
<polygon fill="#bfbfbf" stroke="black" points="0,-76.5 0,-95.5 84,-95.5 84,-76.5 0,-76.5"/>
<text text-anchor="middle" x="42" y="-83.5" font-family="Helvetica,sans-Serif" font-size="10.00">exchangeStack</text>
</g>
<!-- Node2 -->
<g id="node2" class="node"><title>Node2</title>
<g id="a_node2"><a xlink:href="class_stack.html#afc30a7ee287e14f08802c2d43613f2b4" target="_top" xlink:title="Return the number of elements currently in the stack. ">
<polygon fill="white" stroke="black" points="132,-114.5 132,-133.5 198,-133.5 198,-114.5 132,-114.5"/>
<text text-anchor="middle" x="165" y="-121.5" font-family="Helvetica,sans-Serif" font-size="10.00">Stack::size</text>
</a>
</g>
</g>
<!-- Node1&#45;&gt;Node2 -->
<g id="edge1" class="edge"><title>Node1&#45;&gt;Node2</title>
<path fill="none" stroke="midnightblue" d="M73.5334,-95.589C88.7234,-100.359 107.285,-106.189 123.633,-111.323"/>
<polygon fill="midnightblue" stroke="midnightblue" points="122.887,-114.757 133.476,-114.414 124.984,-108.079 122.887,-114.757"/>
</g>
<!-- Node3 -->
<g id="node3" class="node"><title>Node3</title>
<g id="a_node3"><a xlink:href="class_stack.html#a4e24fb83350d8b3bb46ac5ff6771f394" target="_top" xlink:title="Swap the top two elements of the stack. ">
<polygon fill="white" stroke="black" points="120,-76.5 120,-95.5 210,-95.5 210,-76.5 120,-76.5"/>
<text text-anchor="middle" x="165" y="-83.5" font-family="Helvetica,sans-Serif" font-size="10.00">Stack::exchange</text>
</a>
</g>
</g>
<!-- Node1&#45;&gt;Node3 -->
<g id="edge2" class="edge"><title>Node1&#45;&gt;Node3</title>
<path fill="none" stroke="midnightblue" d="M84.3029,-86C92.4799,-86 101.179,-86 109.711,-86"/>
<polygon fill="midnightblue" stroke="midnightblue" points="109.99,-89.5001 119.99,-86 109.99,-82.5001 109.99,-89.5001"/>
</g>
<!-- Node4 -->
<g id="node4" class="node"><title>Node4</title>
<g id="a_node4"><a xlink:href="libmorse_8cpp.html#ab94e088615119d1faae7df22ce50aedf" target="_top" xlink:title="Transmit a Morse code prosign indicating an error. ">
<polygon fill="white" stroke="black" points="142,-38.5 142,-57.5 188,-57.5 188,-38.5 142,-38.5"/>
<text text-anchor="middle" x="165" y="-45.5" font-family="Helvetica,sans-Serif" font-size="10.00">txError</text>
</a>
</g>
</g>
<!-- Node1&#45;&gt;Node4 -->
<g id="edge3" class="edge"><title>Node1&#45;&gt;Node4</title>
<path fill="none" stroke="midnightblue" d="M73.5334,-76.411C91.491,-70.7714 114.161,-63.6519 132.315,-57.9507"/>
<polygon fill="midnightblue" stroke="midnightblue" points="133.385,-61.2832 141.877,-54.9477 131.288,-54.6048 133.385,-61.2832"/>
</g>
<!-- Node5 -->
<g id="node5" class="node"><title>Node5</title>
<g id="a_node5"><a xlink:href="libmorse_8cpp.html#a0ee2308940264ea9ac8e50afc1a4d285" target="_top" xlink:title="txString">
<polygon fill="white" stroke="black" points="246,-266.5 246,-285.5 296,-285.5 296,-266.5 246,-266.5"/>
<text text-anchor="middle" x="271" y="-273.5" font-family="Helvetica,sans-Serif" font-size="10.00">txString</text>
</a>
</g>
</g>
<!-- Node4&#45;&gt;Node5 -->
<g id="edge4" class="edge"><title>Node4&#45;&gt;Node5</title>
<path fill="none" stroke="midnightblue" d="M188.071,-53.2682C195.952,-56.1479 204.285,-60.502 210,-67 258.89,-122.589 268.086,-215.654 269.712,-256.16"/>
<polygon fill="midnightblue" stroke="midnightblue" points="266.218,-256.428 270.001,-266.324 273.216,-256.229 266.218,-256.428"/>
</g>
<!-- Node6 -->
<g id="node6" class="node"><title>Node6</title>
<g id="a_node6"><a xlink:href="teensy3__morse__bsp_8cpp.html#ab306f692c5c9455a0c82782a67ff0147" target="_top" xlink:title="touchPoll">
<polygon fill="white" stroke="black" points="678,-342.5 678,-361.5 735,-361.5 735,-342.5 678,-342.5"/>
<text text-anchor="middle" x="706.5" y="-349.5" font-family="Helvetica,sans-Serif" font-size="10.00">touchPoll</text>
</a>
</g>
</g>
<!-- Node5&#45;&gt;Node6 -->
<g id="edge5" class="edge"><title>Node5&#45;&gt;Node6</title>
<path fill="none" stroke="midnightblue" d="M279.694,-285.787C290.065,-298.148 309.808,-318.901 332,-328 446.94,-375.13 598.517,-365.251 667.901,-357.227"/>
<polygon fill="midnightblue" stroke="midnightblue" points="668.414,-360.69 677.921,-356.014 667.573,-353.741 668.414,-360.69"/>
</g>
<!-- Node8 -->
<g id="node8" class="node"><title>Node8</title>
<g id="a_node8"><a xlink:href="settings_8cpp.html#a960551e90dfdad18f3c9b1338ccba7db" target="_top" xlink:title="Get the dit duration in microseconds. ">
<polygon fill="white" stroke="black" points="919.5,-237.5 919.5,-256.5 991.5,-256.5 991.5,-237.5 919.5,-237.5"/>
<text text-anchor="middle" x="955.5" y="-244.5" font-family="Helvetica,sans-Serif" font-size="10.00">getDitMicros</text>
</a>
</g>
</g>
<!-- Node5&#45;&gt;Node8 -->
<g id="edge7" class="edge"><title>Node5&#45;&gt;Node8</title>
<path fill="none" stroke="midnightblue" d="M296.213,-281.607C344.047,-292.177 454.165,-314 548,-314 548,-314 548,-314 707.5,-314 788.219,-314 878.763,-280.259 924.537,-260.665"/>
<polygon fill="midnightblue" stroke="midnightblue" points="926.099,-263.802 933.869,-256.599 923.303,-257.385 926.099,-263.802"/>
</g>
<!-- Node9 -->
<g id="node9" class="node"><title>Node9</title>
<g id="a_node9"><a xlink:href="libmorse_8cpp.html#a9fdfce728595d72b78dc7c834ab99a40" target="_top" xlink:title="Transmit a literal Morse code value. ">
<polygon fill="white" stroke="black" points="810.5,-95.5 810.5,-114.5 861.5,-114.5 861.5,-95.5 810.5,-95.5"/>
<text text-anchor="middle" x="836" y="-102.5" font-family="Helvetica,sans-Serif" font-size="10.00">txLiteral</text>
</a>
</g>
</g>
<!-- Node5&#45;&gt;Node9 -->
<g id="edge8" class="edge"><title>Node5&#45;&gt;Node9</title>
<path fill="none" stroke="midnightblue" d="M273.677,-266.237C278.258,-242.863 293.326,-183.652 332,-157 370.477,-130.483 692.874,-112.106 800.315,-106.67"/>
<polygon fill="midnightblue" stroke="midnightblue" points="800.502,-110.165 810.315,-106.17 800.153,-103.174 800.502,-110.165"/>
</g>
<!-- Node18 -->
<g id="node18" class="node"><title>Node18</title>
<g id="a_node18"><a xlink:href="libmorse_8cpp.html#acd4b292f5e412ee4f05aed9dafbc072d" target="_top" xlink:title="Convert an ASCII character into Morse code and transmit it. ">
<polygon fill="white" stroke="black" points="681.5,-76.5 681.5,-95.5 731.5,-95.5 731.5,-76.5 681.5,-76.5"/>
<text text-anchor="middle" x="706.5" y="-83.5" font-family="Helvetica,sans-Serif" font-size="10.00">txLetter</text>
</a>
</g>
</g>
<!-- Node5&#45;&gt;Node18 -->
<g id="edge19" class="edge"><title>Node5&#45;&gt;Node18</title>
<path fill="none" stroke="midnightblue" d="M272.104,-266.431C272.995,-237.251 280.049,-149.009 332,-110 384.827,-70.3332 589.372,-78.5386 671.292,-83.5932"/>
<polygon fill="midnightblue" stroke="midnightblue" points="671.131,-87.0899 681.334,-84.2354 671.578,-80.1042 671.131,-87.0899"/>
</g>
<!-- Node19 -->
<g id="node19" class="node"><title>Node19</title>
<g id="a_node19"><a xlink:href="teensy3__morse__bsp_8cpp.html#a8761e874366e227690fba2964e1bc445" target="_top" xlink:title="getInternalTemperatureC">
<polygon fill="white" stroke="black" points="486.5,-247.5 486.5,-266.5 611.5,-266.5 611.5,-247.5 486.5,-247.5"/>
<text text-anchor="middle" x="549" y="-254.5" font-family="Helvetica,sans-Serif" font-size="10.00">getInternalTemperatureC</text>
</a>
</g>
</g>
<!-- Node5&#45;&gt;Node19 -->
<g id="edge22" class="edge"><title>Node5&#45;&gt;Node19</title>
<path fill="none" stroke="midnightblue" d="M296.01,-274.347C335.745,-271.612 416.691,-266.039 476.162,-261.945"/>
<polygon fill="midnightblue" stroke="midnightblue" points="476.52,-265.429 486.256,-261.251 476.039,-258.446 476.52,-265.429"/>
</g>
<!-- Node20 -->
<g id="node20" class="node"><title>Node20</title>
<g id="a_node20"><a xlink:href="libmorse_8cpp.html#a47abdd74b66d7180c47d192bab8bdccb" target="_top" xlink:title="Transmit an unsigned integer in Morse code. ">
<polygon fill="white" stroke="black" points="516,-171.5 516,-190.5 582,-190.5 582,-171.5 516,-171.5"/>
<text text-anchor="middle" x="549" y="-178.5" font-family="Helvetica,sans-Serif" font-size="10.00">txUnsigned</text>
</a>
</g>
</g>
<!-- Node5&#45;&gt;Node20 -->
<g id="edge23" class="edge"><title>Node5&#45;&gt;Node20</title>
<path fill="none" stroke="midnightblue" d="M274.635,-266.451C280.78,-246.278 298.174,-199.644 332,-181 386.196,-151.129 460.273,-159.768 506.082,-169.682"/>
<polygon fill="midnightblue" stroke="midnightblue" points="505.441,-173.125 515.969,-171.937 506.998,-166.301 505.441,-173.125"/>
</g>
<!-- Node21 -->
<g id="node21" class="node"><title>Node21</title>
<g id="a_node21"><a xlink:href="actions_8cpp.html#aed718ec1bd4cc7adb2f65d40a6784496" target="_top" xlink:title="Transmit the internal temperature in integer in Fahrenheit. ">
<polygon fill="white" stroke="black" points="332,-228.5 332,-247.5 450,-247.5 450,-228.5 332,-228.5"/>
<text text-anchor="middle" x="391" y="-235.5" font-family="Helvetica,sans-Serif" font-size="10.00">txInternalTemperatureF</text>
</a>
</g>
</g>
<!-- Node5&#45;&gt;Node21 -->
<g id="edge26" class="edge"><title>Node5&#45;&gt;Node21</title>
<path fill="none" stroke="midnightblue" d="M296.164,-268.218C311.866,-263.162 332.696,-256.454 350.742,-250.642"/>
<polygon fill="midnightblue" stroke="midnightblue" points="351.985,-253.919 360.431,-247.522 349.839,-247.256 351.985,-253.919"/>
</g>
<!-- Node22 -->
<g id="node22" class="node"><title>Node22</title>
<g id="a_node22"><a xlink:href="actions_8cpp.html#aaabb3ac0c23f35a499bc17efe829f326" target="_top" xlink:title="Transmit the 24&#45;hr time. ">
<polygon fill="white" stroke="black" points="352,-456.5 352,-475.5 430,-475.5 430,-456.5 352,-456.5"/>
<text text-anchor="middle" x="391" y="-463.5" font-family="Helvetica,sans-Serif" font-size="10.00">txTimeHHMM</text>
</a>
</g>
</g>
<!-- Node5&#45;&gt;Node22 -->
<g id="edge29" class="edge"><title>Node5&#45;&gt;Node22</title>
<path fill="none" stroke="midnightblue" d="M272.862,-285.517C275.598,-313.571 286.819,-393.753 332,-438 339.779,-445.618 350.656,-450.181 360.893,-453.497"/>
<polygon fill="midnightblue" stroke="midnightblue" points="360.193,-456.941 370.777,-456.464 362.205,-450.237 360.193,-456.941"/>
</g>
<!-- Node23 -->
<g id="node23" class="node"><title>Node23</title>
<g id="a_node23"><a xlink:href="actions_8cpp.html#ad02149679fa3cc6a4957d1a318408ffd" target="_top" xlink:title="Transmit the uptime. ">
<polygon fill="white" stroke="black" points="363,-190.5 363,-209.5 419,-209.5 419,-190.5 363,-190.5"/>
<text text-anchor="middle" x="391" y="-197.5" font-family="Helvetica,sans-Serif" font-size="10.00">txUptime</text>
</a>
</g>
</g>
<!-- Node5&#45;&gt;Node23 -->
<g id="edge31" class="edge"><title>Node5&#45;&gt;Node23</title>
<path fill="none" stroke="midnightblue" d="M279.917,-266.146C290.53,-253.542 310.534,-231.814 332,-219 338.505,-215.117 345.901,-211.921 353.183,-209.331"/>
<polygon fill="midnightblue" stroke="midnightblue" points="354.512,-212.579 362.947,-206.167 352.355,-205.92 354.512,-212.579"/>
</g>
<!-- Node25 -->
<g id="node25" class="node"><title>Node25</title>
<g id="a_node25"><a xlink:href="teensy3__morse__bsp_8cpp.html#ae8dd28759e56dbd2ee9bc9ae96d1783c" target="_top" xlink:title="Return the most recent ADC measurement of the input voltage. Perform analog to digital conversion on ...">
<polygon fill="white" stroke="black" points="354,-418.5 354,-437.5 428,-437.5 428,-418.5 354,-418.5"/>
<text text-anchor="middle" x="391" y="-425.5" font-family="Helvetica,sans-Serif" font-size="10.00">readMillivolts</text>
</a>
</g>
</g>
<!-- Node5&#45;&gt;Node25 -->
<g id="edge34" class="edge"><title>Node5&#45;&gt;Node25</title>
<path fill="none" stroke="midnightblue" d="M274.017,-285.763C279.353,-309.266 295.97,-369.59 332,-404 336.088,-407.904 340.901,-411.212 345.977,-414.004"/>
<polygon fill="midnightblue" stroke="midnightblue" points="344.77,-417.307 355.299,-418.491 347.806,-411 344.77,-417.307"/>
</g>
<!-- Node29 -->
<g id="node29" class="node"><title>Node29</title>
<g id="a_node29"><a xlink:href="libmorse_8cpp.html#ac3f000c98271c6d0a7710135e18189bc" target="_top" xlink:title="On my hardware there is cross&#45;coupling between the serial port and the touch sensors. Without the code below, long messages to the serial port trigger a touch input. ">
<polygon fill="white" stroke="black" points="516.5,-380.5 516.5,-399.5 581.5,-399.5 581.5,-380.5 516.5,-380.5"/>
<text text-anchor="middle" x="549" y="-387.5" font-family="Helvetica,sans-Serif" font-size="10.00">flushTouch</text>
</a>
</g>
</g>
<!-- Node5&#45;&gt;Node29 -->
<g id="edge38" class="edge"><title>Node5&#45;&gt;Node29</title>
<path fill="none" stroke="midnightblue" d="M275.268,-285.652C282.28,-304.708 300.719,-346.962 332,-366 385.374,-398.484 460.081,-398.985 506.186,-395.287"/>
<polygon fill="midnightblue" stroke="midnightblue" points="506.773,-398.749 516.416,-394.36 506.141,-391.777 506.773,-398.749"/>
</g>
<!-- Node7 -->
<g id="node7" class="node"><title>Node7</title>
<g id="a_node7"><a xlink:href="teensy3__morse__bsp_8cpp.html#af6899cd9b83df54106b259ab81ea5cb2" target="_top" xlink:title="touchMargin">
<polygon fill="white" stroke="black" points="801,-342.5 801,-361.5 871,-361.5 871,-342.5 801,-342.5"/>
<text text-anchor="middle" x="836" y="-349.5" font-family="Helvetica,sans-Serif" font-size="10.00">touchMargin</text>
</a>
</g>
</g>
<!-- Node6&#45;&gt;Node7 -->
<g id="edge6" class="edge"><title>Node6&#45;&gt;Node7</title>
<path fill="none" stroke="midnightblue" d="M735.166,-352C751.281,-352 771.984,-352 790.355,-352"/>
<polygon fill="midnightblue" stroke="midnightblue" points="790.562,-355.5 800.562,-352 790.562,-348.5 790.562,-355.5"/>
</g>
<!-- Node9&#45;&gt;Node4 -->
<g id="edge18" class="edge"><title>Node9&#45;&gt;Node4</title>
<path fill="none" stroke="midnightblue" d="M819.942,-95.4548C806.101,-87.0181 784.79,-74.8641 765,-67 673.131,-30.4929 648.857,-10 550,-10 390,-10 390,-10 390,-10 320.764,-10 241.165,-27.8646 197.963,-39.0959"/>
<polygon fill="midnightblue" stroke="midnightblue" points="196.814,-35.7794 188.045,-41.7251 198.608,-42.5457 196.814,-35.7794"/>
</g>
<!-- Node9&#45;&gt;Node8 -->
<g id="edge17" class="edge"><title>Node9&#45;&gt;Node8</title>
<path fill="none" stroke="midnightblue" d="M845.076,-114.76C864.613,-138.371 914.66,-198.852 939.727,-229.147"/>
<polygon fill="midnightblue" stroke="midnightblue" points="937.296,-231.698 946.367,-237.171 942.689,-227.236 937.296,-231.698"/>
</g>
<!-- Node10 -->
<g id="node10" class="node"><title>Node10</title>
<g id="a_node10"><a xlink:href="class_morse_token.html#a48cd72aeb868391449d1f51c1d0bf5cc" target="_top" xlink:title="Treat code == 0 as the error token. ">
<polygon fill="white" stroke="black" points="907,-95.5 907,-114.5 1004,-114.5 1004,-95.5 907,-95.5"/>
<text text-anchor="middle" x="955.5" y="-102.5" font-family="Helvetica,sans-Serif" font-size="10.00">MorseToken::valid</text>
</a>
</g>
</g>
<!-- Node9&#45;&gt;Node10 -->
<g id="edge9" class="edge"><title>Node9&#45;&gt;Node10</title>
<path fill="none" stroke="midnightblue" d="M861.632,-105C871.831,-105 884.13,-105 896.391,-105"/>
<polygon fill="midnightblue" stroke="midnightblue" points="896.635,-108.5 906.635,-105 896.635,-101.5 896.635,-108.5"/>
</g>
<!-- Node11 -->
<g id="node11" class="node"><title>Node11</title>
<g id="a_node11"><a xlink:href="teensy3__morse__bsp_8cpp.html#af66e71e3fac9b6a2c6532bc8a513bfde" target="_top" xlink:title="Output a square wave on pin 10 at the given frequency for the given duration. ">
<polygon fill="white" stroke="black" points="936.5,-57.5 936.5,-76.5 974.5,-76.5 974.5,-57.5 936.5,-57.5"/>
<text text-anchor="middle" x="955.5" y="-64.5" font-family="Helvetica,sans-Serif" font-size="10.00">beep</text>
</a>
</g>
</g>
<!-- Node9&#45;&gt;Node11 -->
<g id="edge10" class="edge"><title>Node9&#45;&gt;Node11</title>
<path fill="none" stroke="midnightblue" d="M861.632,-97.034C880.657,-90.8811 906.988,-82.3656 926.755,-75.9729"/>
<polygon fill="midnightblue" stroke="midnightblue" points="927.982,-79.2545 936.42,-72.8471 925.828,-72.5941 927.982,-79.2545"/>
</g>
<!-- Node17 -->
<g id="node17" class="node"><title>Node17</title>
<g id="a_node17"><a xlink:href="settings_8cpp.html#a8575b9b52638114a4f32d1462cf9b7c1" target="_top" xlink:title="Get the transmission frequency (side tone). ">
<polygon fill="white" stroke="black" points="928.5,-133.5 928.5,-152.5 982.5,-152.5 982.5,-133.5 928.5,-133.5"/>
<text text-anchor="middle" x="955.5" y="-140.5" font-family="Helvetica,sans-Serif" font-size="10.00">getTxHz</text>
</a>
</g>
</g>
<!-- Node9&#45;&gt;Node17 -->
<g id="edge16" class="edge"><title>Node9&#45;&gt;Node17</title>
<path fill="none" stroke="midnightblue" d="M861.632,-112.966C878.174,-118.316 900.239,-125.452 918.711,-131.426"/>
<polygon fill="midnightblue" stroke="midnightblue" points="917.677,-134.77 928.269,-134.517 919.831,-128.109 917.677,-134.77"/>
</g>
<!-- Node12 -->
<g id="node12" class="node"><title>Node12</title>
<g id="a_node12"><a xlink:href="teensy3__morse__bsp_8cpp.html#a6f674d5b9985ea3a7eeb0df299c2e405" target="_top" xlink:title="pollEarphonePresent">
<polygon fill="white" stroke="black" points="1040,-114.5 1040,-133.5 1147,-133.5 1147,-114.5 1040,-114.5"/>
<text text-anchor="middle" x="1093.5" y="-121.5" font-family="Helvetica,sans-Serif" font-size="10.00">pollEarphonePresent</text>
</a>
</g>
</g>
<!-- Node11&#45;&gt;Node12 -->
<g id="edge11" class="edge"><title>Node11&#45;&gt;Node12</title>
<path fill="none" stroke="midnightblue" d="M974.734,-73.7768C983.652,-77.2214 994.487,-81.6018 1004,-86 1020.42,-93.5922 1023.45,-97.6819 1040,-105 1044.53,-107.002 1049.34,-108.961 1054.14,-110.815"/>
<polygon fill="midnightblue" stroke="midnightblue" points="1053.29,-114.234 1063.88,-114.453 1055.74,-107.676 1053.29,-114.234"/>
</g>
<!-- Node13 -->
<g id="node13" class="node"><title>Node13</title>
<g id="a_node13"><a xlink:href="teensy3__morse__bsp_8cpp.html#a2d6b4ace33ed5e497dedd03217540c63" target="_top" xlink:title="Set the PWM frequency for the audio output pins. ">
<polygon fill="white" stroke="black" points="1052,-76.5 1052,-95.5 1135,-95.5 1135,-76.5 1052,-76.5"/>
<text text-anchor="middle" x="1093.5" y="-83.5" font-family="Helvetica,sans-Serif" font-size="10.00">pwmFrequency</text>
</a>
</g>
</g>
<!-- Node11&#45;&gt;Node13 -->
<g id="edge12" class="edge"><title>Node11&#45;&gt;Node13</title>
<path fill="none" stroke="midnightblue" d="M974.56,-69.5231C991.617,-71.906 1018.02,-75.5943 1041.52,-78.8776"/>
<polygon fill="midnightblue" stroke="midnightblue" points="1041.33,-82.3857 1051.72,-80.3031 1042.3,-75.4531 1041.33,-82.3857"/>
</g>
<!-- Node14 -->
<g id="node14" class="node"><title>Node14</title>
<g id="a_node14"><a xlink:href="teensy3__morse__bsp_8cpp.html#a82911eac3bf13d6f36d10102a4c4d3c4" target="_top" xlink:title="Generate a tone on the audio output pins. ">
<polygon fill="white" stroke="black" points="1063,-38.5 1063,-57.5 1124,-57.5 1124,-38.5 1063,-38.5"/>
<text text-anchor="middle" x="1093.5" y="-45.5" font-family="Helvetica,sans-Serif" font-size="10.00">pwmWrite</text>
</a>
</g>
</g>
<!-- Node11&#45;&gt;Node14 -->
<g id="edge13" class="edge"><title>Node11&#45;&gt;Node14</title>
<path fill="none" stroke="midnightblue" d="M974.56,-64.4769C994.462,-61.6965 1027.08,-57.1391 1052.98,-53.5213"/>
<polygon fill="midnightblue" stroke="midnightblue" points="1053.47,-56.9867 1062.89,-52.1366 1052.5,-50.054 1053.47,-56.9867"/>
</g>
<!-- Node16 -->
<g id="node16" class="node"><title>Node16</title>
<g id="a_node16"><a xlink:href="teensy3__morse__bsp_8cpp.html#a6c982a7d7805f1dd5426eb98c915cfdd" target="_top" xlink:title="Turn the red LED on (1) or off (0). ">
<polygon fill="white" stroke="black" points="1068.5,-0.5 1068.5,-19.5 1118.5,-19.5 1118.5,-0.5 1068.5,-0.5"/>
<text text-anchor="middle" x="1093.5" y="-7.5" font-family="Helvetica,sans-Serif" font-size="10.00">redLED</text>
</a>
</g>
</g>
<!-- Node11&#45;&gt;Node16 -->
<g id="edge15" class="edge"><title>Node11&#45;&gt;Node16</title>
<path fill="none" stroke="midnightblue" d="M974.561,-58.2751C991.352,-50.2852 1017.14,-38.3208 1040,-29 1046.01,-26.5503 1052.46,-24.0826 1058.72,-21.7739"/>
<polygon fill="midnightblue" stroke="midnightblue" points="1060.09,-25.0001 1068.3,-18.3021 1057.71,-18.419 1060.09,-25.0001"/>
</g>
<!-- Node15 -->
<g id="node15" class="node"><title>Node15</title>
<g id="a_node15"><a xlink:href="teensy3__morse__bsp_8cpp.html#ac70998cee1bf97f00aec4a1b4e5a4f60" target="_top" xlink:title="isEarphonePresent">
<polygon fill="white" stroke="black" points="1183,-38.5 1183,-57.5 1282,-57.5 1282,-38.5 1183,-38.5"/>
<text text-anchor="middle" x="1232.5" y="-45.5" font-family="Helvetica,sans-Serif" font-size="10.00">isEarphonePresent</text>
</a>
</g>
</g>
<!-- Node14&#45;&gt;Node15 -->
<g id="edge14" class="edge"><title>Node14&#45;&gt;Node15</title>
<path fill="none" stroke="midnightblue" d="M1124.23,-48C1138.43,-48 1155.96,-48 1172.7,-48"/>
<polygon fill="midnightblue" stroke="midnightblue" points="1172.98,-51.5001 1182.98,-48 1172.98,-44.5001 1172.98,-51.5001"/>
</g>
<!-- Node18&#45;&gt;Node4 -->
<g id="edge21" class="edge"><title>Node18&#45;&gt;Node4</title>
<path fill="none" stroke="midnightblue" d="M681.312,-83.1187C662.451,-80.9432 635.587,-78.0008 612,-76 457.268,-62.8749 271.852,-53.1572 198.321,-49.5422"/>
<polygon fill="midnightblue" stroke="midnightblue" points="198.46,-46.0449 188.301,-49.0534 198.118,-53.0366 198.46,-46.0449"/>
</g>
<!-- Node18&#45;&gt;Node9 -->
<g id="edge20" class="edge"><title>Node18&#45;&gt;Node9</title>
<path fill="none" stroke="midnightblue" d="M731.782,-89.6185C751.154,-92.5054 778.544,-96.5869 800.24,-99.8201"/>
<polygon fill="midnightblue" stroke="midnightblue" points="799.968,-103.318 810.374,-101.33 800.999,-96.3945 799.968,-103.318"/>
</g>
<!-- Node20&#45;&gt;Node6 -->
<g id="edge24" class="edge"><title>Node20&#45;&gt;Node6</title>
<path fill="none" stroke="midnightblue" d="M582.045,-186.152C592.369,-188.973 603.362,-193.319 612,-200 657.797,-235.422 686.556,-300.126 698.747,-332.486"/>
<polygon fill="midnightblue" stroke="midnightblue" points="695.546,-333.925 702.248,-342.131 702.126,-331.537 695.546,-333.925"/>
</g>
<!-- Node20&#45;&gt;Node18 -->
<g id="edge25" class="edge"><title>Node20&#45;&gt;Node18</title>
<path fill="none" stroke="midnightblue" d="M565.766,-171.368C592.892,-154.796 648.583,-120.772 680.866,-101.049"/>
<polygon fill="midnightblue" stroke="midnightblue" points="682.984,-103.858 689.692,-95.6574 679.334,-97.8841 682.984,-103.858"/>
</g>
<!-- Node21&#45;&gt;Node19 -->
<g id="edge27" class="edge"><title>Node21&#45;&gt;Node19</title>
<path fill="none" stroke="midnightblue" d="M450.089,-245.075C458.711,-246.125 467.682,-247.218 476.54,-248.296"/>
<polygon fill="midnightblue" stroke="midnightblue" points="476.117,-251.771 486.467,-249.506 476.964,-244.822 476.117,-251.771"/>
</g>
<!-- Node21&#45;&gt;Node20 -->
<g id="edge28" class="edge"><title>Node21&#45;&gt;Node20</title>
<path fill="none" stroke="midnightblue" d="M424.57,-228.401C432.96,-225.638 441.903,-222.434 450,-219 466.656,-211.937 469.277,-206.903 486,-200 492.362,-197.374 499.222,-194.918 505.979,-192.701"/>
<polygon fill="midnightblue" stroke="midnightblue" points="507.246,-195.972 515.735,-189.633 505.145,-189.295 507.246,-195.972"/>
</g>
<!-- Node22&#45;&gt;Node5 -->
<g id="edge30" class="edge"><title>Node22&#45;&gt;Node5</title>
<path fill="none" stroke="midnightblue" d="M351.931,-467.842C344.617,-465.283 337.526,-461.412 332,-456 287.184,-412.111 275.782,-332.865 272.93,-295.704"/>
<polygon fill="midnightblue" stroke="midnightblue" points="276.416,-295.368 272.292,-285.609 269.43,-295.809 276.416,-295.368"/>
</g>
<!-- Node23&#45;&gt;Node20 -->
<g id="edge33" class="edge"><title>Node23&#45;&gt;Node20</title>
<path fill="none" stroke="midnightblue" d="M419.173,-196.69C443.014,-193.787 478.076,-189.516 505.605,-186.163"/>
<polygon fill="midnightblue" stroke="midnightblue" points="506.244,-189.612 515.748,-184.928 505.398,-182.663 506.244,-189.612"/>
</g>
<!-- Node24 -->
<g id="node24" class="node"><title>Node24</title>
<g id="a_node24"><a xlink:href="settings_8cpp.html#a7b4efa097b94f9a90c5bbafcdf93fe4f" target="_top" xlink:title="getUptime">
<polygon fill="white" stroke="black" points="518,-209.5 518,-228.5 580,-228.5 580,-209.5 518,-209.5"/>
<text text-anchor="middle" x="549" y="-216.5" font-family="Helvetica,sans-Serif" font-size="10.00">getUptime</text>
</a>
</g>
</g>
<!-- Node23&#45;&gt;Node24 -->
<g id="edge32" class="edge"><title>Node23&#45;&gt;Node24</title>
<path fill="none" stroke="midnightblue" d="M419.173,-203.31C443.633,-206.289 479.905,-210.706 507.735,-214.096"/>
<polygon fill="midnightblue" stroke="midnightblue" points="507.595,-217.605 517.945,-215.339 508.441,-210.656 507.595,-217.605"/>
</g>
<!-- Node26 -->
<g id="node26" class="node"><title>Node26</title>
<g id="a_node26"><a xlink:href="class_voltage_monitor.html#a70902b84f9864c95d5553a0644a64f4f" target="_top" xlink:title="Return the latest voltage reading. ">
<polygon fill="white" stroke="black" points="486,-418.5 486,-437.5 612,-437.5 612,-418.5 486,-418.5"/>
<text text-anchor="middle" x="549" y="-425.5" font-family="Helvetica,sans-Serif" font-size="10.00">VoltageMonitor::getValue</text>
</a>
</g>
</g>
<!-- Node25&#45;&gt;Node26 -->
<g id="edge35" class="edge"><title>Node25&#45;&gt;Node26</title>
<path fill="none" stroke="midnightblue" d="M428.182,-428C442.344,-428 459.117,-428 475.56,-428"/>
<polygon fill="midnightblue" stroke="midnightblue" points="475.728,-431.5 485.728,-428 475.728,-424.5 475.728,-431.5"/>
</g>
<!-- Node27 -->
<g id="node27" class="node"><title>Node27</title>
<g id="a_node27"><a xlink:href="actions_8cpp.html#a2b8c3769e2aa32a2da9e2f3f85ac73dd" target="_top" xlink:title="A sample ADC reading is taken each time through the main loop, and written to a ring buffer...">
<polygon fill="white" stroke="black" points="650.5,-399.5 650.5,-418.5 762.5,-418.5 762.5,-399.5 650.5,-399.5"/>
<text text-anchor="middle" x="706.5" y="-406.5" font-family="Helvetica,sans-Serif" font-size="10.00">getVoltagePollInterval</text>
</a>
</g>
</g>
<!-- Node26&#45;&gt;Node27 -->
<g id="edge36" class="edge"><title>Node26&#45;&gt;Node27</title>
<path fill="none" stroke="midnightblue" d="M612.352,-420.381C621.438,-419.271 630.816,-418.125 639.963,-417.008"/>
<polygon fill="midnightblue" stroke="midnightblue" points="640.662,-420.448 650.163,-415.761 639.813,-413.5 640.662,-420.448"/>
</g>
<!-- Node28 -->
<g id="node28" class="node"><title>Node28</title>
<g id="a_node28"><a xlink:href="class_voltage_monitor.html#a75871331808c34b40d04059ee2af0f27" target="_top" xlink:title="Filter and scale raw ADC values to millivolts. ">
<polygon fill="white" stroke="black" points="648,-437.5 648,-456.5 765,-456.5 765,-437.5 648,-437.5"/>
<text text-anchor="middle" x="706.5" y="-444.5" font-family="Helvetica,sans-Serif" font-size="10.00">VoltageMonitor::update</text>
</a>
</g>
</g>
<!-- Node26&#45;&gt;Node28 -->
<g id="edge37" class="edge"><title>Node26&#45;&gt;Node28</title>
<path fill="none" stroke="midnightblue" d="M612.352,-435.619C620.702,-436.639 629.298,-437.689 637.735,-438.72"/>
<polygon fill="midnightblue" stroke="midnightblue" points="637.57,-442.226 647.92,-439.965 638.419,-435.277 637.57,-442.226"/>
</g>
<!-- Node29&#45;&gt;Node6 -->
<g id="edge39" class="edge"><title>Node29&#45;&gt;Node6</title>
<path fill="none" stroke="midnightblue" d="M581.843,-382.218C606.788,-376.123 641.554,-367.627 667.872,-361.195"/>
<polygon fill="midnightblue" stroke="midnightblue" points="668.98,-364.528 677.864,-358.754 667.318,-357.728 668.98,-364.528"/>
</g>
</g>
</svg>
