<?xml version="1.0" encoding="UTF-8" standalone="no"?>
<!DOCTYPE svg PUBLIC "-//W3C//DTD SVG 1.1//EN"
 "http://www.w3.org/Graphics/SVG/1.1/DTD/svg11.dtd">
<!-- Generated by graphviz version 2.38.0 (20140413.2041)
 -->
<!-- Title: s Pages: 1 -->
<svg width="268pt" height="28pt"
 viewBox="0.00 0.00 268.00 28.00" xmlns="http://www.w3.org/2000/svg" xmlns:xlink="http://www.w3.org/1999/xlink">
<g id="graph0" class="graph" transform="scale(1 1) rotate(0) translate(4 24)">
<title>s</title>
<polygon fill="white" stroke="none" points="-4,4 -4,-24 264,-24 264,4 -4,4"/>
<!-- Node1 -->
<g id="node1" class="node"><title>Node1</title>
<polygon fill="#bfbfbf" stroke="black" points="0,-0.5 0,-19.5 29,-19.5 29,-0.5 0,-0.5"/>
<text text-anchor="middle" x="14.5" y="-7.5" font-family="Helvetica,sans-Serif" font-size="10.00">s</text>
</g>
<!-- Node2 -->
<g id="node2" class="node"><title>Node2</title>
<g id="a_node2"><a xlink:href="stack_8cpp.html#aafac4a86d14d59c34565bc295024e511" target="_top" xlink:title="symbolStackSize">
<polygon fill="white" stroke="black" points="65,-0.5 65,-19.5 158,-19.5 158,-0.5 65,-0.5"/>
<text text-anchor="middle" x="111.5" y="-7.5" font-family="Helvetica,sans-Serif" font-size="10.00">symbolStackSize</text>
</a>
</g>
</g>
<!-- Node1&#45;&gt;Node2 -->
<g id="edge1" class="edge"><title>Node1&#45;&gt;Node2</title>
<path fill="none" stroke="midnightblue" d="M29.1112,-10C36.1176,-10 45.1765,-10 54.6947,-10"/>
<polygon fill="midnightblue" stroke="midnightblue" points="54.7131,-13.5001 64.7131,-10 54.713,-6.5001 54.7131,-13.5001"/>
</g>
<!-- Node3 -->
<g id="node3" class="node"><title>Node3</title>
<g id="a_node3"><a xlink:href="class_stack.html#afc30a7ee287e14f08802c2d43613f2b4" target="_top" xlink:title="Return the number of elements currently in the stack. ">
<polygon fill="white" stroke="black" points="194,-0.5 194,-19.5 260,-19.5 260,-0.5 194,-0.5"/>
<text text-anchor="middle" x="227" y="-7.5" font-family="Helvetica,sans-Serif" font-size="10.00">Stack::size</text>
</a>
</g>
</g>
<!-- Node2&#45;&gt;Node3 -->
<g id="edge2" class="edge"><title>Node2&#45;&gt;Node3</title>
<path fill="none" stroke="midnightblue" d="M158.011,-10C166.423,-10 175.179,-10 183.498,-10"/>
<polygon fill="midnightblue" stroke="midnightblue" points="183.744,-13.5001 193.744,-10 183.743,-6.5001 183.744,-13.5001"/>
</g>
</g>
</svg>
