<?xml version="1.0" encoding="UTF-8" standalone="no"?>
<!DOCTYPE svg PUBLIC "-//W3C//DTD SVG 1.1//EN"
 "http://www.w3.org/Graphics/SVG/1.1/DTD/svg11.dtd">
<!-- Generated by graphviz version 2.38.0 (20140413.2041)
 -->
<!-- Title: pushSymbolStack Pages: 1 -->
<svg width="339pt" height="191pt"
 viewBox="0.00 0.00 339.00 190.67" xmlns="http://www.w3.org/2000/svg" xmlns:xlink="http://www.w3.org/1999/xlink">
<g id="graph0" class="graph" transform="scale(1 1) rotate(0) translate(4 186.675)">
<title>pushSymbolStack</title>
<polygon fill="white" stroke="none" points="-4,4 -4,-186.675 335,-186.675 335,4 -4,4"/>
<!-- Node1 -->
<g id="node1" class="node"><title>Node1</title>
<polygon fill="#bfbfbf" stroke="black" points="0,-78.1746 0,-97.1746 96,-97.1746 96,-78.1746 0,-78.1746"/>
<text text-anchor="middle" x="48" y="-85.1746" font-family="Helvetica,sans-Serif" font-size="10.00">pushSymbolStack</text>
</g>
<!-- Node2 -->
<g id="node2" class="node"><title>Node2</title>
<g id="a_node2"><a xlink:href="actions_8h.html#ad07e1d9a717a212364090e192e951ea5" target="_top" xlink:title="push1RestoreAll">
<polygon fill="white" stroke="black" points="133.5,-135.175 133.5,-154.175 222.5,-154.175 222.5,-135.175 133.5,-135.175"/>
<text text-anchor="middle" x="178" y="-142.175" font-family="Helvetica,sans-Serif" font-size="10.00">push1RestoreAll</text>
</a>
</g>
</g>
<!-- Node1&#45;&gt;Node2 -->
<g id="edge1" class="edge"><title>Node1&#45;&gt;Node2</title>
<path fill="none" stroke="midnightblue" d="M79.581,-101.293C102.999,-111.721 134.714,-125.844 155.506,-135.103"/>
<polygon fill="midnightblue" stroke="midnightblue" points="80.9833,-98.0859 70.4243,-97.2152 78.1357,-104.481 80.9833,-98.0859"/>
</g>
<!-- Node3 -->
<g id="node3" class="node"><title>Node3</title>
<g id="a_node3"><a xlink:href="pda_8h.html#a5218392624b017b817b80d6b16ea920d" target="_top" xlink:title="askNextAlfa">
<polygon fill="white" stroke="black" points="260,-163.175 260,-182.175 331,-182.175 331,-163.175 260,-163.175"/>
<text text-anchor="middle" x="295.5" y="-170.175" font-family="Helvetica,sans-Serif" font-size="10.00">askNextAlfa</text>
</a>
</g>
</g>
<!-- Node1&#45;&gt;Node3 -->
<g id="edge5" class="edge"><title>Node1&#45;&gt;Node3</title>
<path fill="none" stroke="midnightblue" d="M62.205,-105.491C76.9355,-123.793 102.596,-151.3 132,-163.675 173.277,-181.047 225.734,-180.357 259.703,-177.312"/>
<polygon fill="midnightblue" stroke="midnightblue" points="64.7818,-103.103 55.8831,-97.3531 59.2537,-107.397 64.7818,-103.103"/>
</g>
<!-- Node4 -->
<g id="node4" class="node"><title>Node4</title>
<g id="a_node4"><a xlink:href="pda_8h.html#a1dc125d402fe76077cb4d166ac0fbf7a" target="_top" xlink:title="askNext">
<polygon fill="white" stroke="black" points="269,-106.175 269,-125.175 322,-125.175 322,-106.175 269,-106.175"/>
<text text-anchor="middle" x="295.5" y="-113.175" font-family="Helvetica,sans-Serif" font-size="10.00">askNext</text>
</a>
</g>
</g>
<!-- Node1&#45;&gt;Node4 -->
<g id="edge9" class="edge"><title>Node1&#45;&gt;Node4</title>
<path fill="none" stroke="midnightblue" d="M106.001,-94.1757C157.316,-100.028 230.379,-108.361 268.728,-112.735"/>
<polygon fill="midnightblue" stroke="midnightblue" points="106.377,-90.696 96.0444,-93.0402 105.583,-97.6509 106.377,-90.696"/>
</g>
<!-- Node5 -->
<g id="node5" class="node"><title>Node5</title>
<g id="a_node5"><a xlink:href="actions_8h.html#a1fec7da4166b9612d2deec3d0262d60f" target="_top" xlink:title="dispatchOnStack">
<polygon fill="white" stroke="black" points="132,-59.1746 132,-78.1746 224,-78.1746 224,-59.1746 132,-59.1746"/>
<text text-anchor="middle" x="178" y="-66.1746" font-family="Helvetica,sans-Serif" font-size="10.00">dispatchOnStack</text>
</a>
</g>
</g>
<!-- Node1&#45;&gt;Node5 -->
<g id="edge4" class="edge"><title>Node1&#45;&gt;Node5</title>
<path fill="none" stroke="midnightblue" d="M106.459,-79.1456C114.883,-77.8951 123.46,-76.622 131.598,-75.4141"/>
<polygon fill="midnightblue" stroke="midnightblue" points="105.676,-75.7233 96.2988,-80.6537 106.704,-82.6474 105.676,-75.7233"/>
</g>
<!-- Node6 -->
<g id="node6" class="node"><title>Node6</title>
<g id="a_node6"><a xlink:href="pda_8h.html#a15825e7325bc5cdbd18cf2c6055baef1" target="_top" xlink:title="gradeRestore">
<polygon fill="white" stroke="black" points="140.5,-21.1746 140.5,-40.1746 215.5,-40.1746 215.5,-21.1746 140.5,-21.1746"/>
<text text-anchor="middle" x="178" y="-28.1746" font-family="Helvetica,sans-Serif" font-size="10.00">gradeRestore</text>
</a>
</g>
</g>
<!-- Node1&#45;&gt;Node6 -->
<g id="edge6" class="edge"><title>Node1&#45;&gt;Node6</title>
<path fill="none" stroke="midnightblue" d="M78.6512,-73.8397C94.4407,-66.5383 114.22,-57.496 132,-49.6746 139.141,-46.5331 146.962,-43.1956 154.051,-40.2089"/>
<polygon fill="midnightblue" stroke="midnightblue" points="76.989,-70.7524 69.3892,-78.1344 79.9337,-77.1029 76.989,-70.7524"/>
</g>
<!-- Node7 -->
<g id="node7" class="node"><title>Node7</title>
<g id="a_node7"><a xlink:href="pda_8h.html#abf2e0c8c523ed9ddee8a9194c9800b99" target="_top" xlink:title="askSum">
<polygon fill="white" stroke="black" points="269,-2.17464 269,-21.1746 322,-21.1746 322,-2.17464 269,-2.17464"/>
<text text-anchor="middle" x="295.5" y="-9.17464" font-family="Helvetica,sans-Serif" font-size="10.00">askSum</text>
</a>
</g>
</g>
<!-- Node1&#45;&gt;Node7 -->
<g id="edge8" class="edge"><title>Node1&#45;&gt;Node7</title>
<path fill="none" stroke="midnightblue" d="M61.6466,-70.0811C76.1933,-51.5107 101.973,-23.3453 132,-11.6746 177.623,6.0575 236.045,-0.245725 268.962,-6.14992"/>
<polygon fill="midnightblue" stroke="midnightblue" points="58.8407,-67.9889 55.6082,-78.0786 64.4272,-72.2069 58.8407,-67.9889"/>
</g>
<!-- Node2&#45;&gt;Node3 -->
<g id="edge2" class="edge"><title>Node2&#45;&gt;Node3</title>
<path fill="none" stroke="midnightblue" d="M228.42,-156.655C239.016,-159.224 249.994,-161.885 259.887,-164.284"/>
<polygon fill="midnightblue" stroke="midnightblue" points="228.969,-153.187 218.426,-154.232 227.319,-159.99 228.969,-153.187"/>
</g>
<!-- Node2&#45;&gt;Node4 -->
<g id="edge3" class="edge"><title>Node2&#45;&gt;Node4</title>
<path fill="none" stroke="midnightblue" d="M226.899,-132.648C241.256,-129.043 256.45,-125.228 268.789,-122.13"/>
<polygon fill="midnightblue" stroke="midnightblue" points="225.986,-129.269 217.139,-135.099 227.69,-136.058 225.986,-129.269"/>
</g>
<!-- Node6&#45;&gt;Node7 -->
<g id="edge7" class="edge"><title>Node6&#45;&gt;Node7</title>
<path fill="none" stroke="midnightblue" d="M225.547,-23.0176C240.299,-20.5907 256.067,-17.997 268.795,-15.9032"/>
<polygon fill="midnightblue" stroke="midnightblue" points="224.844,-19.5861 215.545,-24.6629 225.98,-26.4932 224.844,-19.5861"/>
</g>
</g>
</svg>
