<?xml version="1.0" encoding="UTF-8" standalone="no"?>
<!DOCTYPE svg PUBLIC "-//W3C//DTD SVG 1.1//EN"
 "http://www.w3.org/Graphics/SVG/1.1/DTD/svg11.dtd">
<!-- Generated by graphviz version 2.38.0 (20140413.2041)
 -->
<!-- Title: popN Pages: 1 -->
<svg width="420pt" height="218pt"
 viewBox="0.00 0.00 420.00 218.00" xmlns="http://www.w3.org/2000/svg" xmlns:xlink="http://www.w3.org/1999/xlink">
<g id="graph0" class="graph" transform="scale(1 1) rotate(0) translate(4 214)">
<title>popN</title>
<polygon fill="white" stroke="none" points="-4,4 -4,-214 416,-214 416,4 -4,4"/>
<!-- Node1 -->
<g id="node1" class="node"><title>Node1</title>
<polygon fill="#bfbfbf" stroke="black" points="0,-95.5 0,-114.5 40,-114.5 40,-95.5 0,-95.5"/>
<text text-anchor="middle" x="20" y="-102.5" font-family="Helvetica,sans-Serif" font-size="10.00">popN</text>
</g>
<!-- Node2 -->
<g id="node2" class="node"><title>Node2</title>
<g id="a_node2"><a xlink:href="actions_8h.html#a1fec7da4166b9612d2deec3d0262d60f" target="_top" xlink:title="dispatchOnStack">
<polygon fill="white" stroke="black" points="231,-76.5 231,-95.5 323,-95.5 323,-76.5 231,-76.5"/>
<text text-anchor="middle" x="277" y="-83.5" font-family="Helvetica,sans-Serif" font-size="10.00">dispatchOnStack</text>
</a>
</g>
</g>
<!-- Node1&#45;&gt;Node2 -->
<g id="edge1" class="edge"><title>Node1&#45;&gt;Node2</title>
<path fill="none" stroke="midnightblue" d="M38.5868,-88.7251C48.7127,-80.4803 62.1503,-71.3191 76,-67 134.936,-48.6205 207.983,-64.7392 247.454,-76.4378"/>
<polygon fill="midnightblue" stroke="midnightblue" points="36.2278,-86.1374 30.9235,-95.3089 40.7895,-91.447 36.2278,-86.1374"/>
</g>
<!-- Node3 -->
<g id="node3" class="node"><title>Node3</title>
<g id="a_node3"><a xlink:href="actions_8h.html#a142b42f94ccf46a7a9706fe9b63b4501" target="_top" xlink:title="Attempt to control the output volume but adjusting the PWM duty cycle. ">
<polygon fill="white" stroke="black" points="104,-152.5 104,-171.5 167,-171.5 167,-152.5 104,-152.5"/>
<text text-anchor="middle" x="135.5" y="-159.5" font-family="Helvetica,sans-Serif" font-size="10.00">setVolume</text>
</a>
</g>
</g>
<!-- Node1&#45;&gt;Node3 -->
<g id="edge2" class="edge"><title>Node1&#45;&gt;Node3</title>
<path fill="none" stroke="midnightblue" d="M40.7314,-120.719C50.842,-128.22 63.6089,-136.871 76,-143 84.7103,-147.308 94.62,-150.954 103.776,-153.865"/>
<polygon fill="midnightblue" stroke="midnightblue" points="42.6788,-117.803 32.6063,-114.517 38.4313,-123.367 42.6788,-117.803"/>
</g>
<!-- Node4 -->
<g id="node4" class="node"><title>Node4</title>
<g id="a_node4"><a xlink:href="pda_8h.html#ac1f9ea31ffc81530ac4a07fa2469f13c" target="_top" xlink:title="txAlfaBravoCharlie">
<polygon fill="white" stroke="black" points="86.5,-190.5 86.5,-209.5 184.5,-209.5 184.5,-190.5 86.5,-190.5"/>
<text text-anchor="middle" x="135.5" y="-197.5" font-family="Helvetica,sans-Serif" font-size="10.00">txAlfaBravoCharlie</text>
</a>
</g>
</g>
<!-- Node1&#45;&gt;Node4 -->
<g id="edge3" class="edge"><title>Node1&#45;&gt;Node4</title>
<path fill="none" stroke="midnightblue" d="M30.1597,-123.78C39.4623,-140.994 55.4155,-166.017 76,-181 81.2665,-184.833 87.3447,-187.919 93.5487,-190.395"/>
<polygon fill="midnightblue" stroke="midnightblue" points="33.1613,-121.964 25.4662,-114.681 26.9402,-125.173 33.1613,-121.964"/>
</g>
<!-- Node6 -->
<g id="node6" class="node"><title>Node6</title>
<g id="a_node6"><a xlink:href="pda_8h.html#aee08a527408a7a8a4b5490d13b767cb2" target="_top" xlink:title="txMetronome">
<polygon fill="white" stroke="black" points="98.5,-76.5 98.5,-95.5 172.5,-95.5 172.5,-76.5 98.5,-76.5"/>
<text text-anchor="middle" x="135.5" y="-83.5" font-family="Helvetica,sans-Serif" font-size="10.00">txMetronome</text>
</a>
</g>
</g>
<!-- Node1&#45;&gt;Node6 -->
<g id="edge5" class="edge"><title>Node1&#45;&gt;Node6</title>
<path fill="none" stroke="midnightblue" d="M50.2435,-100.105C64.8499,-97.6595 82.6629,-94.6776 98.1415,-92.0864"/>
<polygon fill="midnightblue" stroke="midnightblue" points="49.5386,-96.6738 40.2537,-101.777 50.6944,-103.578 49.5386,-96.6738"/>
</g>
<!-- Node7 -->
<g id="node7" class="node"><title>Node7</title>
<g id="a_node7"><a xlink:href="pda_8h.html#a59acff867d89a88cb2142895d95b12e8" target="_top" xlink:title="gradeSum">
<polygon fill="white" stroke="black" points="105,-0.5 105,-19.5 166,-19.5 166,-0.5 105,-0.5"/>
<text text-anchor="middle" x="135.5" y="-7.5" font-family="Helvetica,sans-Serif" font-size="10.00">gradeSum</text>
</a>
</g>
</g>
<!-- Node1&#45;&gt;Node7 -->
<g id="edge6" class="edge"><title>Node1&#45;&gt;Node7</title>
<path fill="none" stroke="midnightblue" d="M31.4462,-86.5903C41.2085,-70.8021 57.0935,-48.388 76,-34 84.5611,-27.4849 95.1405,-22.4409 104.938,-18.6963"/>
<polygon fill="midnightblue" stroke="midnightblue" points="28.2903,-85.0495 26.1868,-95.4335 34.3067,-88.6278 28.2903,-85.0495"/>
</g>
<!-- Node10 -->
<g id="node10" class="node"><title>Node10</title>
<g id="a_node10"><a xlink:href="stack_8h.html#a89e98012b4180ef8ce90108ebcfbde1d" target="_top" xlink:title="stackDigitsToUnsigned">
<polygon fill="white" stroke="black" points="76,-114.5 76,-133.5 195,-133.5 195,-114.5 76,-114.5"/>
<text text-anchor="middle" x="135.5" y="-121.5" font-family="Helvetica,sans-Serif" font-size="10.00">stackDigitsToUnsigned</text>
</a>
</g>
</g>
<!-- Node1&#45;&gt;Node10 -->
<g id="edge9" class="edge"><title>Node1&#45;&gt;Node10</title>
<path fill="none" stroke="midnightblue" d="M50.2129,-109.89C58.5827,-111.291 68.0074,-112.869 77.4435,-114.449"/>
<polygon fill="midnightblue" stroke="midnightblue" points="50.6944,-106.422 40.2537,-108.223 49.5386,-113.326 50.6944,-106.422"/>
</g>
<!-- Node5 -->
<g id="node5" class="node"><title>Node5</title>
<g id="a_node5"><a xlink:href="pda_8h.html#a5218392624b017b817b80d6b16ea920d" target="_top" xlink:title="askNextAlfa">
<polygon fill="white" stroke="black" points="241.5,-190.5 241.5,-209.5 312.5,-209.5 312.5,-190.5 241.5,-190.5"/>
<text text-anchor="middle" x="277" y="-197.5" font-family="Helvetica,sans-Serif" font-size="10.00">askNextAlfa</text>
</a>
</g>
</g>
<!-- Node4&#45;&gt;Node5 -->
<g id="edge4" class="edge"><title>Node4&#45;&gt;Node5</title>
<path fill="none" stroke="midnightblue" d="M194.721,-200C210.494,-200 227.076,-200 241.119,-200"/>
<polygon fill="midnightblue" stroke="midnightblue" points="194.508,-196.5 184.508,-200 194.508,-203.5 194.508,-196.5"/>
</g>
<!-- Node8 -->
<g id="node8" class="node"><title>Node8</title>
<g id="a_node8"><a xlink:href="pda_8h.html#a15825e7325bc5cdbd18cf2c6055baef1" target="_top" xlink:title="gradeRestore">
<polygon fill="white" stroke="black" points="239.5,-0.5 239.5,-19.5 314.5,-19.5 314.5,-0.5 239.5,-0.5"/>
<text text-anchor="middle" x="277" y="-7.5" font-family="Helvetica,sans-Serif" font-size="10.00">gradeRestore</text>
</a>
</g>
</g>
<!-- Node7&#45;&gt;Node8 -->
<g id="edge7" class="edge"><title>Node7&#45;&gt;Node8</title>
<path fill="none" stroke="midnightblue" d="M176.326,-10C196.124,-10 219.892,-10 239.251,-10"/>
<polygon fill="midnightblue" stroke="midnightblue" points="176.084,-6.5001 166.084,-10 176.084,-13.5001 176.084,-6.5001"/>
</g>
<!-- Node9 -->
<g id="node9" class="node"><title>Node9</title>
<g id="a_node9"><a xlink:href="pda_8h.html#abf2e0c8c523ed9ddee8a9194c9800b99" target="_top" xlink:title="askSum">
<polygon fill="white" stroke="black" points="359,-0.5 359,-19.5 412,-19.5 412,-0.5 359,-0.5"/>
<text text-anchor="middle" x="385.5" y="-7.5" font-family="Helvetica,sans-Serif" font-size="10.00">askSum</text>
</a>
</g>
</g>
<!-- Node8&#45;&gt;Node9 -->
<g id="edge8" class="edge"><title>Node8&#45;&gt;Node9</title>
<path fill="none" stroke="midnightblue" d="M324.773,-10C336.482,-10 348.615,-10 358.861,-10"/>
<polygon fill="midnightblue" stroke="midnightblue" points="324.651,-6.5001 314.651,-10 324.651,-13.5001 324.651,-6.5001"/>
</g>
<!-- Node10&#45;&gt;Node2 -->
<g id="edge10" class="edge"><title>Node10&#45;&gt;Node2</title>
<path fill="none" stroke="midnightblue" d="M181.456,-111.754C200.685,-106.516 222.803,-100.491 240.81,-95.5859"/>
<polygon fill="midnightblue" stroke="midnightblue" points="180.43,-108.406 171.702,-114.411 182.27,-115.16 180.43,-108.406"/>
</g>
</g>
</svg>
