<?xml version="1.0" encoding="UTF-8" standalone="no"?>
<!DOCTYPE svg PUBLIC "-//W3C//DTD SVG 1.1//EN"
 "http://www.w3.org/Graphics/SVG/1.1/DTD/svg11.dtd">
<!-- Generated by graphviz version 2.38.0 (20140413.2041)
 -->
<!-- Title: s Pages: 1 -->
<!--zoomable 476 -->
<svg id="main" version="1.1" xmlns="http://www.w3.org/2000/svg" xmlns:xlink="http://www.w3.org/1999/xlink" xml:space="preserve" onload="init(evt)">
<style type="text/css"><![CDATA[
.edge:hover path { stroke: red; }
.edge:hover polygon { stroke: red; fill: red; }
]]></style>
<script type="text/javascript"><![CDATA[
var edges = document.getElementsByTagName('g');
if (edges && edges.length) {
  for (var i=0;i<edges.length;i++) {
    if (edges[i].id.substr(0,4)=='edge') {
      edges[i].setAttribute('class','edge');
    }
  }
}
]]></script>
        <defs>
                <circle id="rim" cx="0" cy="0" r="7"/>
                <circle id="rim2" cx="0" cy="0" r="3.5"/>
                <g id="zoomPlus">
                        <use xlink:href="#rim" fill="#404040">
                                <set attributeName="fill" to="#808080" begin="zoomplus.mouseover" end="zoomplus.mouseout"/>
                        </use>
                        <path d="M-4,0h8M0,-4v8" fill="none" stroke="white" stroke-width="1.5" pointer-events="none"/>
                </g>
                <g id="zoomMin">
                        <use xlink:href="#rim" fill="#404040">
                                <set attributeName="fill" to="#808080" begin="zoomminus.mouseover" end="zoomminus.mouseout"/>
                        </use>
                        <path d="M-4,0h8" fill="none" stroke="white" stroke-width="1.5" pointer-events="none"/>
                </g>
                <g id="dirArrow">
                        <path fill="none" stroke="white" stroke-width="1.5" d="M0,-3.0v7 M-2.5,-0.5L0,-3.0L2.5,-0.5"/>
                </g>
               <g id="resetDef">
                       <use xlink:href="#rim2" fill="#404040">
                               <set attributeName="fill" to="#808080" begin="reset.mouseover" end="reset.mouseout"/>
                       </use>
               </g>
        </defs>

<script type="text/javascript">
var viewWidth = 433;
var viewHeight = 476;
var sectionId = 'dynsection-12';
</script>
<script xlink:href="svgpan.js"/>
<svg id="graph" class="graph">
<g id="viewport">
<title>s</title>
<polygon fill="white" stroke="none" points="-4,4 -4,-472.024 429,-472.024 429,4 -4,4"/>
<!-- Node1 -->
<g id="node1" class="node"><title>Node1</title>
<polygon fill="#bfbfbf" stroke="black" points="0,-228.5 0,-247.5 29,-247.5 29,-228.5 0,-228.5"/>
<text text-anchor="middle" x="14.5" y="-235.5" font-family="Helvetica,sans-Serif" font-size="10.00">s</text>
</g>
<!-- Node2 -->
<g id="node2" class="node"><title>Node2</title>
<g id="a_node2"><a xlink:href="actions_8h.html#a5396567e85aa94852a84b3fff96369b9" target="_top" xlink:title="Transmit the top element of the stack. ">
<polygon fill="white" stroke="black" points="74.5,-418.5 74.5,-437.5 174.5,-437.5 174.5,-418.5 74.5,-418.5"/>
<text text-anchor="middle" x="124.5" y="-425.5" font-family="Helvetica,sans-Serif" font-size="10.00">txSymbolStackTop</text>
</a>
</g>
</g>
<!-- Node1&#45;&gt;Node2 -->
<g id="edge1" class="edge"><title>Node1&#45;&gt;Node2</title>
<path fill="none" stroke="midnightblue" d="M15.5367,-258.065C16.7054,-293.387 24.2449,-366.908 65,-409 68.7883,-412.913 73.389,-416.02 78.3279,-418.489"/>
<polygon fill="midnightblue" stroke="midnightblue" points="19.0286,-257.585 15.3458,-247.651 12.0298,-257.713 19.0286,-257.585"/>
</g>
<!-- Node4 -->
<g id="node4" class="node"><title>Node4</title>
<g id="a_node4"><a xlink:href="pda_8h.html#a959876507019ccc24303937cc277bb31" target="_top" xlink:title="gradeNext">
<polygon fill="white" stroke="black" points="238,-418.5 238,-437.5 300,-437.5 300,-418.5 238,-418.5"/>
<text text-anchor="middle" x="269" y="-425.5" font-family="Helvetica,sans-Serif" font-size="10.00">gradeNext</text>
</a>
</g>
</g>
<!-- Node1&#45;&gt;Node4 -->
<g id="edge21" class="edge"><title>Node1&#45;&gt;Node4</title>
<path fill="none" stroke="midnightblue" d="M17.1535,-257.976C21.5496,-305.579 35.2779,-423.495 65,-447 119.557,-490.145 209.963,-455.861 249.041,-437.594"/>
<polygon fill="midnightblue" stroke="midnightblue" points="20.6149,-257.382 16.2527,-247.727 13.6418,-257.995 20.6149,-257.382"/>
</g>
<!-- Node7 -->
<g id="node7" class="node"><title>Node7</title>
<g id="a_node7"><a xlink:href="actions_8h.html#a6436621df3b98909e885083436d6b9e2" target="_top" xlink:title="List the contents of the symbol stack. ">
<polygon fill="white" stroke="black" points="75,-304.5 75,-323.5 174,-323.5 174,-304.5 75,-304.5"/>
<text text-anchor="middle" x="124.5" y="-311.5" font-family="Helvetica,sans-Serif" font-size="10.00">txListSymbolStack</text>
</a>
</g>
</g>
<!-- Node1&#45;&gt;Node7 -->
<g id="edge6" class="edge"><title>Node1&#45;&gt;Node7</title>
<path fill="none" stroke="midnightblue" d="M27.353,-256.26C36.3281,-268.769 49.6991,-284.868 65,-295 70.7873,-298.832 77.4071,-301.943 84.0637,-304.452"/>
<polygon fill="midnightblue" stroke="midnightblue" points="30.1749,-254.186 21.6299,-247.923 24.4038,-258.148 30.1749,-254.186"/>
</g>
<!-- Node8 -->
<g id="node8" class="node"><title>Node8</title>
<g id="a_node8"><a xlink:href="actions_8h.html#a142b42f94ccf46a7a9706fe9b63b4501" target="_top" xlink:title="Attempt to control the output volume but adjusting the PWM duty cycle. ">
<polygon fill="white" stroke="black" points="93,-342.5 93,-361.5 156,-361.5 156,-342.5 93,-342.5"/>
<text text-anchor="middle" x="124.5" y="-349.5" font-family="Helvetica,sans-Serif" font-size="10.00">setVolume</text>
</a>
</g>
</g>
<!-- Node1&#45;&gt;Node8 -->
<g id="edge8" class="edge"><title>Node1&#45;&gt;Node8</title>
<path fill="none" stroke="midnightblue" d="M20.7138,-257.259C27.48,-278.699 41.3165,-312.961 65,-333 72.9074,-339.691 83.2213,-344.039 92.9827,-346.859"/>
<polygon fill="midnightblue" stroke="midnightblue" points="24.0581,-256.226 17.8765,-247.621 17.343,-258.203 24.0581,-256.226"/>
</g>
<!-- Node9 -->
<g id="node9" class="node"><title>Node9</title>
<g id="a_node9"><a xlink:href="libmorse_8cpp.html#afa60f07ebee7c34ef41c3dfb64222bb6" target="_top" xlink:title="Score the given pattern against the state of the symbol stack. ">
<polygon fill="white" stroke="black" points="90,-190.5 90,-209.5 159,-209.5 159,-190.5 90,-190.5"/>
<text text-anchor="middle" x="124.5" y="-197.5" font-family="Helvetica,sans-Serif" font-size="10.00">matchScore</text>
</a>
</g>
</g>
<!-- Node1&#45;&gt;Node9 -->
<g id="edge9" class="edge"><title>Node1&#45;&gt;Node9</title>
<path fill="none" stroke="midnightblue" d="M38.6917,-228.81C46.96,-225.61 56.3634,-222.058 65,-219 74.0596,-215.793 83.9796,-212.492 93.0352,-209.56"/>
<polygon fill="midnightblue" stroke="midnightblue" points="37.3368,-225.581 29.2968,-232.481 39.8848,-232.101 37.3368,-225.581"/>
</g>
<!-- Node10 -->
<g id="node10" class="node"><title>Node10</title>
<g id="a_node10"><a xlink:href="pda_8h.html#a3c36576745952735f04eaa82b933e6fa" target="_top" xlink:title="Play one of 10 sound effects based on the digit on the stack. ">
<polygon fill="white" stroke="black" points="80,-266.5 80,-285.5 169,-285.5 169,-266.5 80,-266.5"/>
<text text-anchor="middle" x="124.5" y="-273.5" font-family="Helvetica,sans-Serif" font-size="10.00">playSoundEffect</text>
</a>
</g>
</g>
<!-- Node1&#45;&gt;Node10 -->
<g id="edge11" class="edge"><title>Node1&#45;&gt;Node10</title>
<path fill="none" stroke="midnightblue" d="M38.6917,-247.19C46.96,-250.39 56.3634,-253.942 65,-257 74.0596,-260.207 83.9796,-263.508 93.0352,-266.44"/>
<polygon fill="midnightblue" stroke="midnightblue" points="39.8848,-243.899 29.2968,-243.519 37.3368,-250.419 39.8848,-243.899"/>
</g>
<!-- Node11 -->
<g id="node11" class="node"><title>Node11</title>
<g id="a_node11"><a xlink:href="pda_8h.html#a35d0b57846aa0f585f9409957bc1957e" target="_top" xlink:title="playNote">
<polygon fill="white" stroke="black" points="96.5,-228.5 96.5,-247.5 152.5,-247.5 152.5,-228.5 96.5,-228.5"/>
<text text-anchor="middle" x="124.5" y="-235.5" font-family="Helvetica,sans-Serif" font-size="10.00">playNote</text>
</a>
</g>
</g>
<!-- Node1&#45;&gt;Node11 -->
<g id="edge12" class="edge"><title>Node1&#45;&gt;Node11</title>
<path fill="none" stroke="midnightblue" d="M39.2933,-238C56.1229,-238 78.7234,-238 96.2732,-238"/>
<polygon fill="midnightblue" stroke="midnightblue" points="39.1783,-234.5 29.1783,-238 39.1782,-241.5 39.1783,-234.5"/>
</g>
<!-- Node12 -->
<g id="node12" class="node"><title>Node12</title>
<g id="a_node12"><a xlink:href="pda_8h.html#ac1f9ea31ffc81530ac4a07fa2469f13c" target="_top" xlink:title="txAlfaBravoCharlie">
<polygon fill="white" stroke="black" points="220,-123.5 220,-142.5 318,-142.5 318,-123.5 220,-123.5"/>
<text text-anchor="middle" x="269" y="-130.5" font-family="Helvetica,sans-Serif" font-size="10.00">txAlfaBravoCharlie</text>
</a>
</g>
</g>
<!-- Node1&#45;&gt;Node12 -->
<g id="edge13" class="edge"><title>Node1&#45;&gt;Node12</title>
<path fill="none" stroke="midnightblue" d="M18.257,-218.126C24.398,-177.099 40.6103,-85.3309 65,-67 107.279,-35.2239 134.016,-49.7125 184,-67 216.601,-78.2756 246.172,-108.007 259.906,-123.424"/>
<polygon fill="midnightblue" stroke="midnightblue" points="14.7604,-217.851 16.7935,-228.249 21.6884,-218.853 14.7604,-217.851"/>
</g>
<!-- Node13 -->
<g id="node13" class="node"><title>Node13</title>
<g id="a_node13"><a xlink:href="pda_8cpp.html#a47afc6664036a43243457f6f66cb90f8" target="_top" xlink:title="txAlphaNNN">
<polygon fill="white" stroke="black" points="88.5,-152.5 88.5,-171.5 160.5,-171.5 160.5,-152.5 88.5,-152.5"/>
<text text-anchor="middle" x="124.5" y="-159.5" font-family="Helvetica,sans-Serif" font-size="10.00">txAlphaNNN</text>
</a>
</g>
</g>
<!-- Node1&#45;&gt;Node13 -->
<g id="edge15" class="edge"><title>Node1&#45;&gt;Node13</title>
<path fill="none" stroke="midnightblue" d="M27.353,-219.74C36.3281,-207.231 49.6991,-191.132 65,-181 72.0338,-176.343 80.2974,-172.75 88.3619,-170.009"/>
<polygon fill="midnightblue" stroke="midnightblue" points="24.4038,-217.852 21.6299,-228.077 30.1749,-221.814 24.4038,-217.852"/>
</g>
<!-- Node14 -->
<g id="node14" class="node"><title>Node14</title>
<g id="a_node14"><a xlink:href="pda_8h.html#aee08a527408a7a8a4b5490d13b767cb2" target="_top" xlink:title="txMetronome">
<polygon fill="white" stroke="black" points="87.5,-114.5 87.5,-133.5 161.5,-133.5 161.5,-114.5 87.5,-114.5"/>
<text text-anchor="middle" x="124.5" y="-121.5" font-family="Helvetica,sans-Serif" font-size="10.00">txMetronome</text>
</a>
</g>
</g>
<!-- Node1&#45;&gt;Node14 -->
<g id="edge16" class="edge"><title>Node1&#45;&gt;Node14</title>
<path fill="none" stroke="midnightblue" d="M20.7138,-218.741C27.48,-197.301 41.3165,-163.039 65,-143 71.3585,-137.62 79.2731,-133.754 87.2053,-130.98"/>
<polygon fill="midnightblue" stroke="midnightblue" points="17.343,-217.797 17.8765,-228.379 24.0581,-219.774 17.343,-217.797"/>
</g>
<!-- Node15 -->
<g id="node15" class="node"><title>Node15</title>
<g id="a_node15"><a xlink:href="pda_8h.html#aba3c77bbaeda68253d8795c44bb0b4ff" target="_top" xlink:title="sumStack">
<polygon fill="white" stroke="black" points="94,-76.5 94,-95.5 155,-95.5 155,-76.5 94,-76.5"/>
<text text-anchor="middle" x="124.5" y="-83.5" font-family="Helvetica,sans-Serif" font-size="10.00">sumStack</text>
</a>
</g>
</g>
<!-- Node1&#45;&gt;Node15 -->
<g id="edge17" class="edge"><title>Node1&#45;&gt;Node15</title>
<path fill="none" stroke="midnightblue" d="M17.4688,-218.377C21.3958,-189.554 32.8122,-135.856 65,-105 72.8629,-97.4626 83.747,-92.9153 93.9966,-90.1719"/>
<polygon fill="midnightblue" stroke="midnightblue" points="13.9789,-218.085 16.2698,-228.429 20.9296,-218.914 13.9789,-218.085"/>
</g>
<!-- Node16 -->
<g id="node16" class="node"><title>Node16</title>
<g id="a_node16"><a xlink:href="pda_8h.html#a59acff867d89a88cb2142895d95b12e8" target="_top" xlink:title="gradeSum">
<polygon fill="white" stroke="black" points="94,-0.5 94,-19.5 155,-19.5 155,-0.5 94,-0.5"/>
<text text-anchor="middle" x="124.5" y="-7.5" font-family="Helvetica,sans-Serif" font-size="10.00">gradeSum</text>
</a>
</g>
</g>
<!-- Node1&#45;&gt;Node16 -->
<g id="edge18" class="edge"><title>Node1&#45;&gt;Node16</title>
<path fill="none" stroke="midnightblue" d="M14.7053,-218.071C14.2006,-178.23 18.6437,-87.958 65,-34 72.4398,-25.3401 83.4896,-19.7555 93.9883,-16.1766"/>
<polygon fill="midnightblue" stroke="midnightblue" points="11.2073,-218.196 14.956,-228.106 18.2051,-218.021 11.2073,-218.196"/>
</g>
<!-- Node19 -->
<g id="node19" class="node"><title>Node19</title>
<g id="a_node19"><a xlink:href="stack_8h.html#a89e98012b4180ef8ce90108ebcfbde1d" target="_top" xlink:title="stackDigitsToUnsigned">
<polygon fill="white" stroke="black" points="65,-380.5 65,-399.5 184,-399.5 184,-380.5 65,-380.5"/>
<text text-anchor="middle" x="124.5" y="-387.5" font-family="Helvetica,sans-Serif" font-size="10.00">stackDigitsToUnsigned</text>
</a>
</g>
</g>
<!-- Node1&#45;&gt;Node19 -->
<g id="edge22" class="edge"><title>Node1&#45;&gt;Node19</title>
<path fill="none" stroke="midnightblue" d="M17.4688,-257.623C21.3958,-286.446 32.8122,-340.144 65,-371 69.0856,-374.916 73.9869,-378.026 79.1911,-380.494"/>
<polygon fill="midnightblue" stroke="midnightblue" points="20.9296,-257.086 16.2698,-247.571 13.9789,-257.915 20.9296,-257.086"/>
</g>
<!-- Node3 -->
<g id="node3" class="node"><title>Node3</title>
<g id="a_node3"><a xlink:href="actions_8h.html#a1fec7da4166b9612d2deec3d0262d60f" target="_top" xlink:title="dispatchOnStack">
<polygon fill="white" stroke="black" points="223,-342.5 223,-361.5 315,-361.5 315,-342.5 223,-342.5"/>
<text text-anchor="middle" x="269" y="-349.5" font-family="Helvetica,sans-Serif" font-size="10.00">dispatchOnStack</text>
</a>
</g>
</g>
<!-- Node2&#45;&gt;Node3 -->
<g id="edge2" class="edge"><title>Node2&#45;&gt;Node3</title>
<path fill="none" stroke="midnightblue" d="M170.193,-414.945C174.93,-413.131 179.615,-411.146 184,-409 211.544,-395.52 240.451,-374.032 256.144,-361.649"/>
<polygon fill="midnightblue" stroke="midnightblue" points="168.71,-411.759 160.474,-418.424 171.069,-418.349 168.71,-411.759"/>
</g>
<!-- Node2&#45;&gt;Node4 -->
<g id="edge3" class="edge"><title>Node2&#45;&gt;Node4</title>
<path fill="none" stroke="midnightblue" d="M184.607,-428C202.99,-428 222.485,-428 238,-428"/>
<polygon fill="midnightblue" stroke="midnightblue" points="184.54,-424.5 174.54,-428 184.54,-431.5 184.54,-424.5"/>
</g>
<!-- Node5 -->
<g id="node5" class="node"><title>Node5</title>
<g id="a_node5"><a xlink:href="pda_8h.html#a5218392624b017b817b80d6b16ea920d" target="_top" xlink:title="askNextAlfa">
<polygon fill="white" stroke="black" points="354,-294.5 354,-313.5 425,-313.5 425,-294.5 354,-294.5"/>
<text text-anchor="middle" x="389.5" y="-301.5" font-family="Helvetica,sans-Serif" font-size="10.00">askNextAlfa</text>
</a>
</g>
</g>
<!-- Node4&#45;&gt;Node5 -->
<g id="edge4" class="edge"><title>Node4&#45;&gt;Node5</title>
<path fill="none" stroke="midnightblue" d="M286.358,-410.883C311.596,-384.473 359.209,-334.65 379.245,-313.685"/>
<polygon fill="midnightblue" stroke="midnightblue" points="283.677,-408.622 279.298,-418.27 288.738,-413.458 283.677,-408.622"/>
</g>
<!-- Node6 -->
<g id="node6" class="node"><title>Node6</title>
<g id="a_node6"><a xlink:href="pda_8h.html#a1dc125d402fe76077cb4d166ac0fbf7a" target="_top" xlink:title="askNext">
<polygon fill="white" stroke="black" points="363,-418.5 363,-437.5 416,-437.5 416,-418.5 363,-418.5"/>
<text text-anchor="middle" x="389.5" y="-425.5" font-family="Helvetica,sans-Serif" font-size="10.00">askNext</text>
</a>
</g>
</g>
<!-- Node4&#45;&gt;Node6 -->
<g id="edge5" class="edge"><title>Node4&#45;&gt;Node6</title>
<path fill="none" stroke="midnightblue" d="M310.605,-428C327.888,-428 347.528,-428 362.763,-428"/>
<polygon fill="midnightblue" stroke="midnightblue" points="310.209,-424.5 300.209,-428 310.209,-431.5 310.209,-424.5"/>
</g>
<!-- Node7&#45;&gt;Node3 -->
<g id="edge7" class="edge"><title>Node7&#45;&gt;Node3</title>
<path fill="none" stroke="midnightblue" d="M171.153,-326.174C190.858,-331.429 213.575,-337.487 232.053,-342.414"/>
<polygon fill="midnightblue" stroke="midnightblue" points="172.023,-322.784 161.459,-323.589 170.219,-329.548 172.023,-322.784"/>
</g>
<!-- Node9&#45;&gt;Node3 -->
<g id="edge10" class="edge"><title>Node9&#45;&gt;Node3</title>
<path fill="none" stroke="midnightblue" d="M168.455,-210.068C174,-212.453 179.355,-215.389 184,-219 228.202,-253.359 255.477,-317.976 264.59,-342.359"/>
<polygon fill="midnightblue" stroke="midnightblue" points="169.63,-206.77 159.038,-206.552 167.182,-213.328 169.63,-206.77"/>
</g>
<!-- Node12&#45;&gt;Node5 -->
<g id="edge14" class="edge"><title>Node12&#45;&gt;Node5</title>
<path fill="none" stroke="midnightblue" d="M282.658,-151.266C307.704,-187.409 362.809,-266.927 381.863,-294.423"/>
<polygon fill="midnightblue" stroke="midnightblue" points="285.283,-148.909 276.711,-142.684 279.53,-152.897 285.283,-148.909"/>
</g>
<!-- Node17 -->
<g id="node17" class="node"><title>Node17</title>
<g id="a_node17"><a xlink:href="pda_8h.html#a15825e7325bc5cdbd18cf2c6055baef1" target="_top" xlink:title="gradeRestore">
<polygon fill="white" stroke="black" points="231.5,-0.5 231.5,-19.5 306.5,-19.5 306.5,-0.5 231.5,-0.5"/>
<text text-anchor="middle" x="269" y="-7.5" font-family="Helvetica,sans-Serif" font-size="10.00">gradeRestore</text>
</a>
</g>
</g>
<!-- Node16&#45;&gt;Node17 -->
<g id="edge19" class="edge"><title>Node16&#45;&gt;Node17</title>
<path fill="none" stroke="midnightblue" d="M165.117,-10C185.874,-10 211.127,-10 231.418,-10"/>
<polygon fill="midnightblue" stroke="midnightblue" points="165.026,-6.5001 155.026,-10 165.026,-13.5001 165.026,-6.5001"/>
</g>
<!-- Node18 -->
<g id="node18" class="node"><title>Node18</title>
<g id="a_node18"><a xlink:href="pda_8h.html#abf2e0c8c523ed9ddee8a9194c9800b99" target="_top" xlink:title="askSum">
<polygon fill="white" stroke="black" points="363,-0.5 363,-19.5 416,-19.5 416,-0.5 363,-0.5"/>
<text text-anchor="middle" x="389.5" y="-7.5" font-family="Helvetica,sans-Serif" font-size="10.00">askSum</text>
</a>
</g>
</g>
<!-- Node17&#45;&gt;Node18 -->
<g id="edge20" class="edge"><title>Node17&#45;&gt;Node18</title>
<path fill="none" stroke="midnightblue" d="M316.623,-10C332.345,-10 349.31,-10 362.808,-10"/>
<polygon fill="midnightblue" stroke="midnightblue" points="316.521,-6.5001 306.521,-10 316.521,-13.5001 316.521,-6.5001"/>
</g>
<!-- Node19&#45;&gt;Node3 -->
<g id="edge23" class="edge"><title>Node19&#45;&gt;Node3</title>
<path fill="none" stroke="midnightblue" d="M171.153,-377.826C190.858,-372.571 213.575,-366.513 232.053,-361.586"/>
<polygon fill="midnightblue" stroke="midnightblue" points="170.219,-374.452 161.459,-380.411 172.023,-381.216 170.219,-374.452"/>
</g>
</g>
</svg>
        <g id="navigator" transform="translate(0 0)" fill="#404254">
                <rect fill="#f2f5e9" fill-opacity="0.5" stroke="#606060" stroke-width=".5" x="0" y="0" width="60" height="60"/>
                <use id="zoomplus" xlink:href="#zoomPlus" x="17" y="9" onmousedown="handleZoom(evt,'in')"/>
                <use id="zoomminus" xlink:href="#zoomMin" x="42" y="9" onmousedown="handleZoom(evt,'out')"/>
                <use id="reset" xlink:href="#resetDef" x="30" y="36" onmousedown="handleReset()"/>
                <g id="arrowUp" xlink:href="#dirArrow" transform="translate(30 24)" onmousedown="handlePan(0,-1)">
                  <use xlink:href="#rim" fill="#404040">
                        <set attributeName="fill" to="#808080" begin="arrowUp.mouseover" end="arrowUp.mouseout"/>
                  </use>
                  <path fill="none" stroke="white" stroke-width="1.5" d="M0,-3.0v7 M-2.5,-0.5L0,-3.0L2.5,-0.5"/>
                </g>
                <g id="arrowRight" xlink:href="#dirArrow" transform="rotate(90) translate(36 -43)" onmousedown="handlePan(1,0)">
                  <use xlink:href="#rim" fill="#404040">
                        <set attributeName="fill" to="#808080" begin="arrowRight.mouseover" end="arrowRight.mouseout"/>
                  </use>
                  <path fill="none" stroke="white" stroke-width="1.5" d="M0,-3.0v7 M-2.5,-0.5L0,-3.0L2.5,-0.5"/>
                </g>
                <g id="arrowDown" xlink:href="#dirArrow" transform="rotate(180) translate(-30 -48)" onmousedown="handlePan(0,1)">
                  <use xlink:href="#rim" fill="#404040">
                        <set attributeName="fill" to="#808080" begin="arrowDown.mouseover" end="arrowDown.mouseout"/>
                  </use>
                  <path fill="none" stroke="white" stroke-width="1.5" d="M0,-3.0v7 M-2.5,-0.5L0,-3.0L2.5,-0.5"/>
                </g>
                <g id="arrowLeft" xlink:href="#dirArrow" transform="rotate(270) translate(-36 17)" onmousedown="handlePan(-1,0)">
                  <use xlink:href="#rim" fill="#404040">
                        <set attributeName="fill" to="#808080" begin="arrowLeft.mouseover" end="arrowLeft.mouseout"/>
                  </use>
                  <path fill="none" stroke="white" stroke-width="1.5" d="M0,-3.0v7 M-2.5,-0.5L0,-3.0L2.5,-0.5"/>
                </g>
        </g>
        <svg viewBox="0 0 15 15" width="100%" height="30px" preserveAspectRatio="xMaxYMin meet">
         <g id="arrow_out" transform="scale(0.3 0.3)">
          <a xlink:href="stack_8cpp_abefdfbf9131b5ea5926f9ecbecb6b1e6_icgraph_org.svg" target="_base">
           <rect id="button" ry="5" rx="5" y="6" x="6" height="38" width="38"
                fill="#f2f5e9" fill-opacity="0.5" stroke="#606060" stroke-width="1.0"/>
           <path id="arrow"
             d="M 11.500037,31.436501 C 11.940474,20.09759 22.043105,11.32322 32.158766,21.979434 L 37.068811,17.246167 C 37.068811,17.246167 37.088388,32 37.088388,32 L 22.160133,31.978069 C 22.160133,31.978069 26.997745,27.140456 26.997745,27.140456 C 18.528582,18.264221 13.291696,25.230495 11.500037,31.436501 z"
             style="fill:#404040;"/>
          </a>
         </g>
        </svg>
</svg>
