<?xml version="1.0" encoding="UTF-8" standalone="no"?>
<!DOCTYPE svg PUBLIC "-//W3C//DTD SVG 1.1//EN"
 "http://www.w3.org/Graphics/SVG/1.1/DTD/svg11.dtd">
<!-- Generated by graphviz version 2.38.0 (20140413.2041)
 -->
<!-- Title: greenLED Pages: 1 -->
<svg width="193pt" height="66pt"
 viewBox="0.00 0.00 193.00 66.00" xmlns="http://www.w3.org/2000/svg" xmlns:xlink="http://www.w3.org/1999/xlink">
<g id="graph0" class="graph" transform="scale(1 1) rotate(0) translate(4 62)">
<title>greenLED</title>
<polygon fill="white" stroke="none" points="-4,4 -4,-62 189,-62 189,4 -4,4"/>
<!-- Node1 -->
<g id="node1" class="node"><title>Node1</title>
<polygon fill="#bfbfbf" stroke="black" points="0,-19.5 0,-38.5 60,-38.5 60,-19.5 0,-19.5"/>
<text text-anchor="middle" x="30" y="-26.5" font-family="Helvetica,sans-Serif" font-size="10.00">greenLED</text>
</g>
<!-- Node2 -->
<g id="node2" class="node"><title>Node2</title>
<g id="a_node2"><a xlink:href="teensy3__morse__bsp_8h.html#a15bba6162d5a787569acccbf85402f71" target="_top" xlink:title="Initialize the input and output ports used by appliance or PDA hardware. ">
<polygon fill="white" stroke="black" points="114,-38.5 114,-57.5 167,-57.5 167,-38.5 114,-38.5"/>
<text text-anchor="middle" x="140.5" y="-45.5" font-family="Helvetica,sans-Serif" font-size="10.00">initPorts</text>
</a>
</g>
</g>
<!-- Node1&#45;&gt;Node2 -->
<g id="edge1" class="edge"><title>Node1&#45;&gt;Node2</title>
<path fill="none" stroke="midnightblue" d="M70.2622,-35.8754C84.7145,-38.4062 100.707,-41.2067 113.677,-43.4781"/>
<polygon fill="midnightblue" stroke="midnightblue" points="70.5299,-32.3691 60.076,-34.0917 69.3224,-39.2642 70.5299,-32.3691"/>
</g>
<!-- Node3 -->
<g id="node3" class="node"><title>Node3</title>
<g id="a_node3"><a xlink:href="teensy3__morse__bsp_8h.html#a1602f82bf26915dd2e462be2a99fc776" target="_top" xlink:title="Change the state of the green LED. ">
<polygon fill="white" stroke="black" points="96,-0.5 96,-19.5 185,-19.5 185,-0.5 96,-0.5"/>
<text text-anchor="middle" x="140.5" y="-7.5" font-family="Helvetica,sans-Serif" font-size="10.00">toggleGreenLED</text>
</a>
</g>
</g>
<!-- Node1&#45;&gt;Node3 -->
<g id="edge2" class="edge"><title>Node1&#45;&gt;Node3</title>
<path fill="none" stroke="midnightblue" d="M69.9269,-22.1833C78.2654,-20.7231 87.1299,-19.1708 95.6401,-17.6805"/>
<polygon fill="midnightblue" stroke="midnightblue" points="69.3224,-18.7358 60.076,-23.9083 70.5299,-25.6309 69.3224,-18.7358"/>
</g>
</g>
</svg>
