<?xml version="1.0" encoding="UTF-8" standalone="no"?>
<!DOCTYPE svg PUBLIC "-//W3C//DTD SVG 1.1//EN"
 "http://www.w3.org/Graphics/SVG/1.1/DTD/svg11.dtd">
<!-- Generated by graphviz version 2.38.0 (20140413.2041)
 -->
<!-- Title: teensy3_morse_bsp.h Pages: 1 -->
<svg width="761pt" height="252pt"
 viewBox="0.00 0.00 760.66 252.00" xmlns="http://www.w3.org/2000/svg" xmlns:xlink="http://www.w3.org/1999/xlink">
<g id="graph0" class="graph" transform="scale(1 1) rotate(0) translate(4 248)">
<title>teensy3_morse_bsp.h</title>
<polygon fill="white" stroke="none" points="-4,4 -4,-248 756.66,-248 756.66,4 -4,4"/>
<!-- Node1 -->
<g id="node1" class="node"><title>Node1</title>
<polygon fill="#bfbfbf" stroke="black" points="575.182,-224.5 575.182,-243.5 688.182,-243.5 688.182,-224.5 575.182,-224.5"/>
<text text-anchor="middle" x="631.682" y="-231.5" font-family="Helvetica,sans-Serif" font-size="10.00">teensy3_morse_bsp.h</text>
</g>
<!-- Node2 -->
<g id="node2" class="node"><title>Node2</title>
<g id="a_node2"><a xlink:href="libmorse_8h.html" target="_top" xlink:title="Morse code operations. ">
<polygon fill="white" stroke="black" points="108.682,-168.5 108.682,-187.5 170.682,-187.5 170.682,-168.5 108.682,-168.5"/>
<text text-anchor="middle" x="139.682" y="-175.5" font-family="Helvetica,sans-Serif" font-size="10.00">libmorse.h</text>
</a>
</g>
</g>
<!-- Node1&#45;&gt;Node2 -->
<g id="edge1" class="edge"><title>Node1&#45;&gt;Node2</title>
<path fill="none" stroke="midnightblue" d="M564.654,-225.643C456.892,-213.816 249.268,-191.028 170.768,-182.412"/>
<polygon fill="midnightblue" stroke="midnightblue" points="564.441,-229.141 574.763,-226.753 565.204,-222.183 564.441,-229.141"/>
</g>
<!-- Node4 -->
<g id="node4" class="node"><title>Node4</title>
<g id="a_node4"><a xlink:href="actions_8cpp.html" target="_top" xlink:title="Implementation of application&#45;specific actions. ">
<polygon fill="white" stroke="black" points="558.182,-56.5 558.182,-75.5 625.182,-75.5 625.182,-56.5 558.182,-56.5"/>
<text text-anchor="middle" x="591.682" y="-63.5" font-family="Helvetica,sans-Serif" font-size="10.00">actions.cpp</text>
</a>
</g>
</g>
<!-- Node1&#45;&gt;Node4 -->
<g id="edge17" class="edge"><title>Node1&#45;&gt;Node4</title>
<path fill="none" stroke="midnightblue" d="M627.087,-213.93C618.41,-177.92 599.931,-101.231 593.747,-75.5681"/>
<polygon fill="midnightblue" stroke="midnightblue" points="623.786,-215.173 629.532,-224.075 630.592,-213.533 623.786,-215.173"/>
</g>
<!-- Node7 -->
<g id="node7" class="node"><title>Node7</title>
<g id="a_node7"><a xlink:href="morse__digit_8cpp.html" target="_top" xlink:title="Implementation of decimal digit to Morse code conversion. ">
<polygon fill="white" stroke="black" points="643.682,-56.5 643.682,-75.5 729.682,-75.5 729.682,-56.5 643.682,-56.5"/>
<text text-anchor="middle" x="686.682" y="-63.5" font-family="Helvetica,sans-Serif" font-size="10.00">morse_digit.cpp</text>
</a>
</g>
</g>
<!-- Node1&#45;&gt;Node7 -->
<g id="edge18" class="edge"><title>Node1&#45;&gt;Node7</title>
<path fill="none" stroke="midnightblue" d="M637.847,-214.395C649.711,-178.585 675.304,-101.342 683.843,-75.5681"/>
<polygon fill="midnightblue" stroke="midnightblue" points="634.462,-213.482 634.639,-224.075 641.107,-215.683 634.462,-213.482"/>
</g>
<!-- Node12 -->
<g id="node12" class="node"><title>Node12</title>
<g id="a_node12"><a xlink:href="teensy3__morse__bsp_8cpp.html" target="_top" xlink:title="Implementation of Teensy 3.0 board support package. ">
<polygon fill="white" stroke="black" points="247.182,-0.5 247.182,-19.5 370.182,-19.5 370.182,-0.5 247.182,-0.5"/>
<text text-anchor="middle" x="308.682" y="-7.5" font-family="Helvetica,sans-Serif" font-size="10.00">teensy3_morse_bsp.cpp</text>
</a>
</g>
</g>
<!-- Node1&#45;&gt;Node12 -->
<g id="edge19" class="edge"><title>Node1&#45;&gt;Node12</title>
<path fill="none" stroke="midnightblue" d="M652.474,-218.385C695.503,-186.444 786.461,-109.039 738.682,-56 714.505,-29.1609 483.552,-17.2408 370.465,-12.9786"/>
<polygon fill="midnightblue" stroke="midnightblue" points="650.35,-215.601 644.324,-224.316 654.469,-221.261 650.35,-215.601"/>
</g>
<!-- Node3 -->
<g id="node3" class="node"><title>Node3</title>
<g id="a_node3"><a xlink:href="actions_8h.html" target="_top" xlink:title="Application&#45;specific actions. ">
<polygon fill="white" stroke="black" points="280.682,-112.5 280.682,-131.5 336.682,-131.5 336.682,-112.5 280.682,-112.5"/>
<text text-anchor="middle" x="308.682" y="-119.5" font-family="Helvetica,sans-Serif" font-size="10.00">actions.h</text>
</a>
</g>
</g>
<!-- Node2&#45;&gt;Node3 -->
<g id="edge2" class="edge"><title>Node2&#45;&gt;Node3</title>
<path fill="none" stroke="midnightblue" d="M176.285,-165.304C208.129,-155.129 253.524,-140.625 282.029,-131.516"/>
<polygon fill="midnightblue" stroke="midnightblue" points="174.921,-162.066 166.461,-168.444 177.052,-168.734 174.921,-162.066"/>
</g>
<!-- Node6 -->
<g id="node6" class="node"><title>Node6</title>
<g id="a_node6"><a xlink:href="libmorse_8cpp.html" target="_top" xlink:title="Implementation of Morse code operations. ">
<polygon fill="white" stroke="black" points="24.6822,-56.5 24.6822,-75.5 96.6822,-75.5 96.6822,-56.5 24.6822,-56.5"/>
<text text-anchor="middle" x="60.6822" y="-63.5" font-family="Helvetica,sans-Serif" font-size="10.00">libmorse.cpp</text>
</a>
</g>
</g>
<!-- Node2&#45;&gt;Node6 -->
<g id="edge12" class="edge"><title>Node2&#45;&gt;Node6</title>
<path fill="none" stroke="midnightblue" d="M128.559,-159.911C119.839,-146.678 107.28,-127.971 95.6822,-112 86.3775,-99.1862 75.0318,-84.8115 67.831,-75.8324"/>
<polygon fill="midnightblue" stroke="midnightblue" points="125.754,-162.016 134.162,-168.463 131.609,-158.18 125.754,-162.016"/>
</g>
<!-- Node2&#45;&gt;Node12 -->
<g id="edge16" class="edge"><title>Node2&#45;&gt;Node12</title>
<path fill="none" stroke="midnightblue" d="M98.4143,-173.94C70.0336,-169.434 34.2377,-158.473 15.6822,-132 -3.70498,-104.34 -6.31484,-81.6333 15.6822,-56 44.8823,-21.9729 170.079,-13.4192 247.062,-11.4261"/>
<polygon fill="midnightblue" stroke="midnightblue" points="98.1057,-177.43 108.489,-175.325 99.059,-170.495 98.1057,-177.43"/>
</g>
<!-- Node13 -->
<g id="node13" class="node"><title>Node13</title>
<g id="a_node13"><a xlink:href="pda_8h.html" target="_top" xlink:title="Personal Digital Assistant functions. ">
<polygon fill="white" stroke="black" points="143.182,-112.5 143.182,-131.5 184.182,-131.5 184.182,-112.5 143.182,-112.5"/>
<text text-anchor="middle" x="163.682" y="-119.5" font-family="Helvetica,sans-Serif" font-size="10.00">pda.h</text>
</a>
</g>
</g>
<!-- Node2&#45;&gt;Node13 -->
<g id="edge13" class="edge"><title>Node2&#45;&gt;Node13</title>
<path fill="none" stroke="midnightblue" d="M147.82,-158.69C151.865,-149.589 156.565,-139.014 159.793,-131.751"/>
<polygon fill="midnightblue" stroke="midnightblue" points="144.508,-157.523 143.645,-168.083 150.905,-160.366 144.508,-157.523"/>
</g>
<!-- Node14 -->
<g id="node14" class="node"><title>Node14</title>
<g id="a_node14"><a xlink:href="sound_8cpp.html" target="_top" xlink:title="Implementation of PWM sound effects. ">
<polygon fill="white" stroke="black" points="24.6822,-112.5 24.6822,-131.5 86.6822,-131.5 86.6822,-112.5 24.6822,-112.5"/>
<text text-anchor="middle" x="55.6822" y="-119.5" font-family="Helvetica,sans-Serif" font-size="10.00">sound.cpp</text>
</a>
</g>
</g>
<!-- Node2&#45;&gt;Node14 -->
<g id="edge15" class="edge"><title>Node2&#45;&gt;Node14</title>
<path fill="none" stroke="midnightblue" d="M117.75,-162.901C102.347,-152.999 82.2364,-140.071 69.1448,-131.655"/>
<polygon fill="midnightblue" stroke="midnightblue" points="115.882,-165.86 126.186,-168.324 119.667,-159.972 115.882,-165.86"/>
</g>
<!-- Node3&#45;&gt;Node4 -->
<g id="edge3" class="edge"><title>Node3&#45;&gt;Node4</title>
<path fill="none" stroke="midnightblue" d="M346.919,-114.086C394.319,-105.457 477.55,-90.1111 548.682,-76 551.675,-75.4064 554.782,-74.7785 557.895,-74.1416"/>
<polygon fill="midnightblue" stroke="midnightblue" points="346.013,-110.693 336.8,-115.925 347.265,-117.581 346.013,-110.693"/>
</g>
<!-- Node5 -->
<g id="node5" class="node"><title>Node5</title>
<g id="a_node5"><a xlink:href="didah_8ino.html" target="_top" xlink:title="Top&#45;level entry points for the Morse code PDA/Application. ">
<polygon fill="white" stroke="black" points="373.682,-56.5 373.682,-75.5 429.682,-75.5 429.682,-56.5 373.682,-56.5"/>
<text text-anchor="middle" x="401.682" y="-63.5" font-family="Helvetica,sans-Serif" font-size="10.00">didah.ino</text>
</a>
</g>
</g>
<!-- Node3&#45;&gt;Node5 -->
<g id="edge4" class="edge"><title>Node3&#45;&gt;Node5</title>
<path fill="none" stroke="midnightblue" d="M332.488,-107.177C349.601,-97.2407 372.147,-84.1492 386.777,-75.6545"/>
<polygon fill="midnightblue" stroke="midnightblue" points="330.515,-104.276 323.624,-112.324 334.03,-110.329 330.515,-104.276"/>
</g>
<!-- Node3&#45;&gt;Node6 -->
<g id="edge5" class="edge"><title>Node3&#45;&gt;Node6</title>
<path fill="none" stroke="midnightblue" d="M270.366,-112.657C223.028,-102.349 143.091,-84.9439 96.7933,-74.8629"/>
<polygon fill="midnightblue" stroke="midnightblue" points="269.718,-116.098 280.233,-114.806 271.207,-109.258 269.718,-116.098"/>
</g>
<!-- Node3&#45;&gt;Node7 -->
<g id="edge6" class="edge"><title>Node3&#45;&gt;Node7</title>
<path fill="none" stroke="midnightblue" d="M347.024,-116.14C408.022,-108.31 530.882,-92.1421 634.682,-76 637.579,-75.5495 640.564,-75.071 643.571,-74.5785"/>
<polygon fill="midnightblue" stroke="midnightblue" points="346.549,-112.672 337.074,-117.413 347.437,-119.615 346.549,-112.672"/>
</g>
<!-- Node8 -->
<g id="node8" class="node"><title>Node8</title>
<g id="a_node8"><a xlink:href="morse__token_8cpp.html" target="_top" xlink:title="Implementation of Morse code operations. ">
<polygon fill="white" stroke="black" points="447.682,-56.5 447.682,-75.5 539.682,-75.5 539.682,-56.5 447.682,-56.5"/>
<text text-anchor="middle" x="493.682" y="-63.5" font-family="Helvetica,sans-Serif" font-size="10.00">morse_token.cpp</text>
</a>
</g>
</g>
<!-- Node3&#45;&gt;Node8 -->
<g id="edge7" class="edge"><title>Node3&#45;&gt;Node8</title>
<path fill="none" stroke="midnightblue" d="M346.61,-109.929C381.511,-99.7419 432.546,-84.845 464.402,-75.5467"/>
<polygon fill="midnightblue" stroke="midnightblue" points="345.398,-106.637 336.78,-112.799 347.36,-113.356 345.398,-106.637"/>
</g>
<!-- Node9 -->
<g id="node9" class="node"><title>Node9</title>
<g id="a_node9"><a xlink:href="pda_8cpp.html" target="_top" xlink:title="Implementation of Personal Digital Assistant functions. ">
<polygon fill="white" stroke="black" points="115.182,-56.5 115.182,-75.5 166.182,-75.5 166.182,-56.5 115.182,-56.5"/>
<text text-anchor="middle" x="140.682" y="-63.5" font-family="Helvetica,sans-Serif" font-size="10.00">pda.cpp</text>
</a>
</g>
</g>
<!-- Node3&#45;&gt;Node9 -->
<g id="edge8" class="edge"><title>Node3&#45;&gt;Node9</title>
<path fill="none" stroke="midnightblue" d="M272.205,-109.275C240.244,-99.0021 194.604,-84.3319 166.351,-75.2508"/>
<polygon fill="midnightblue" stroke="midnightblue" points="271.471,-112.715 282.062,-112.444 273.613,-106.051 271.471,-112.715"/>
</g>
<!-- Node10 -->
<g id="node10" class="node"><title>Node10</title>
<g id="a_node10"><a xlink:href="stack_8cpp.html" target="_top" xlink:title="Implementation of Stack&#45;related convenience functions. ">
<polygon fill="white" stroke="black" points="184.182,-56.5 184.182,-75.5 243.182,-75.5 243.182,-56.5 184.182,-56.5"/>
<text text-anchor="middle" x="213.682" y="-63.5" font-family="Helvetica,sans-Serif" font-size="10.00">stack.cpp</text>
</a>
</g>
</g>
<!-- Node3&#45;&gt;Node10 -->
<g id="edge9" class="edge"><title>Node3&#45;&gt;Node10</title>
<path fill="none" stroke="midnightblue" d="M284.365,-107.177C266.883,-97.2407 243.852,-84.1492 228.908,-75.6545"/>
<polygon fill="midnightblue" stroke="midnightblue" points="282.996,-110.425 293.419,-112.324 286.455,-104.339 282.996,-110.425"/>
</g>
<!-- Node11 -->
<g id="node11" class="node"><title>Node11</title>
<g id="a_node11"><a xlink:href="voltage__monitor_8h.html" target="_top" xlink:title="Trivial co&#45;routine to gather and filter ADC samples. ">
<polygon fill="white" stroke="black" points="261.682,-56.5 261.682,-75.5 355.682,-75.5 355.682,-56.5 261.682,-56.5"/>
<text text-anchor="middle" x="308.682" y="-63.5" font-family="Helvetica,sans-Serif" font-size="10.00">voltage_monitor.h</text>
</a>
</g>
</g>
<!-- Node3&#45;&gt;Node11 -->
<g id="edge10" class="edge"><title>Node3&#45;&gt;Node11</title>
<path fill="none" stroke="midnightblue" d="M308.682,-101.805C308.682,-92.9102 308.682,-82.7798 308.682,-75.7511"/>
<polygon fill="midnightblue" stroke="midnightblue" points="305.182,-102.083 308.682,-112.083 312.182,-102.083 305.182,-102.083"/>
</g>
<!-- Node11&#45;&gt;Node12 -->
<g id="edge11" class="edge"><title>Node11&#45;&gt;Node12</title>
<path fill="none" stroke="midnightblue" d="M308.682,-45.8045C308.682,-36.9102 308.682,-26.7798 308.682,-19.7511"/>
<polygon fill="midnightblue" stroke="midnightblue" points="305.182,-46.083 308.682,-56.083 312.182,-46.083 305.182,-46.083"/>
</g>
<!-- Node13&#45;&gt;Node9 -->
<g id="edge14" class="edge"><title>Node13&#45;&gt;Node9</title>
<path fill="none" stroke="midnightblue" d="M155.883,-102.69C152.007,-93.589 147.503,-83.0141 144.41,-75.7511"/>
<polygon fill="midnightblue" stroke="midnightblue" points="152.745,-104.254 159.884,-112.083 159.186,-101.511 152.745,-104.254"/>
</g>
</g>
</svg>
