<?xml version="1.0" encoding="UTF-8" standalone="no"?>
<!DOCTYPE svg PUBLIC "-//W3C//DTD SVG 1.1//EN"
 "http://www.w3.org/Graphics/SVG/1.1/DTD/svg11.dtd">
<!-- Generated by graphviz version 2.38.0 (20140413.2041)
 -->
<!-- Title: dWrite Pages: 1 -->
<svg width="301pt" height="180pt"
 viewBox="0.00 0.00 301.00 180.00" xmlns="http://www.w3.org/2000/svg" xmlns:xlink="http://www.w3.org/1999/xlink">
<g id="graph0" class="graph" transform="scale(1 1) rotate(0) translate(4 176)">
<title>dWrite</title>
<polygon fill="white" stroke="none" points="-4,4 -4,-176 297,-176 297,4 -4,4"/>
<!-- Node1 -->
<g id="node1" class="node"><title>Node1</title>
<polygon fill="#bfbfbf" stroke="black" points="0,-76.5 0,-95.5 45,-95.5 45,-76.5 0,-76.5"/>
<text text-anchor="middle" x="22.5" y="-83.5" font-family="Helvetica,sans-Serif" font-size="10.00">dWrite</text>
</g>
<!-- Node2 -->
<g id="node2" class="node"><title>Node2</title>
<g id="a_node2"><a xlink:href="pda_8h.html#a9a438441140a853c36d2ba4381569742" target="_top" xlink:title="pressureTone">
<polygon fill="white" stroke="black" points="86.5,-152.5 86.5,-171.5 162.5,-171.5 162.5,-152.5 86.5,-152.5"/>
<text text-anchor="middle" x="124.5" y="-159.5" font-family="Helvetica,sans-Serif" font-size="10.00">pressureTone</text>
</a>
</g>
</g>
<!-- Node1&#45;&gt;Node2 -->
<g id="edge1" class="edge"><title>Node1&#45;&gt;Node2</title>
<path fill="none" stroke="midnightblue" d="M39.9695,-102.703C51.0345,-113.456 66.2404,-127.359 81,-138 88.286,-143.253 96.8249,-148.27 104.33,-152.347"/>
<polygon fill="midnightblue" stroke="midnightblue" points="42.2808,-100.066 32.71,-95.5216 37.3579,-105.043 42.2808,-100.066"/>
</g>
<!-- Node3 -->
<g id="node3" class="node"><title>Node3</title>
<g id="a_node3"><a xlink:href="pda_8h.html#a3c36576745952735f04eaa82b933e6fa" target="_top" xlink:title="Play one of 10 sound effects based on the digit on the stack. ">
<polygon fill="white" stroke="black" points="204,-57.5 204,-76.5 293,-76.5 293,-57.5 204,-57.5"/>
<text text-anchor="middle" x="248.5" y="-64.5" font-family="Helvetica,sans-Serif" font-size="10.00">playSoundEffect</text>
</a>
</g>
</g>
<!-- Node1&#45;&gt;Node3 -->
<g id="edge2" class="edge"><title>Node1&#45;&gt;Node3</title>
<path fill="none" stroke="midnightblue" d="M54.6543,-98.2959C63.0723,-101.063 72.2711,-103.595 81,-105 119.175,-111.144 130.29,-113.549 168,-105 192.02,-99.5545 217.271,-85.9285 232.705,-76.5654"/>
<polygon fill="midnightblue" stroke="midnightblue" points="55.8006,-94.989 45.2058,-94.9929 53.4906,-101.597 55.8006,-94.989"/>
</g>
<!-- Node4 -->
<g id="node4" class="node"><title>Node4</title>
<g id="a_node4"><a xlink:href="sound_8h.html#a8956d9a82a1e90fa47db46909e3b7044" target="_top" xlink:title="Play a hiss like an old phonograph record. ">
<polygon fill="white" stroke="black" points="81,-76.5 81,-95.5 168,-95.5 168,-76.5 81,-76.5"/>
<text text-anchor="middle" x="124.5" y="-83.5" font-family="Helvetica,sans-Serif" font-size="10.00">phonographHiss</text>
</a>
</g>
</g>
<!-- Node1&#45;&gt;Node4 -->
<g id="edge3" class="edge"><title>Node1&#45;&gt;Node4</title>
<path fill="none" stroke="midnightblue" d="M55.3533,-86C63.4673,-86 72.3188,-86 80.8757,-86"/>
<polygon fill="midnightblue" stroke="midnightblue" points="55.1985,-82.5001 45.1985,-86 55.1985,-89.5001 55.1985,-82.5001"/>
</g>
<!-- Node5 -->
<g id="node5" class="node"><title>Node5</title>
<g id="a_node5"><a xlink:href="sound_8h.html#ab24f5fc3bbaf480541fe1c14d1af1e56" target="_top" xlink:title="Play a whooping sound like a toy ray gun. ">
<polygon fill="white" stroke="black" points="100.5,-38.5 100.5,-57.5 148.5,-57.5 148.5,-38.5 100.5,-38.5"/>
<text text-anchor="middle" x="124.5" y="-45.5" font-family="Helvetica,sans-Serif" font-size="10.00">rayGun</text>
</a>
</g>
</g>
<!-- Node1&#45;&gt;Node5 -->
<g id="edge4" class="edge"><title>Node1&#45;&gt;Node5</title>
<path fill="none" stroke="midnightblue" d="M54.9302,-74.0565C69.6781,-68.4523 86.9382,-61.8935 100.452,-56.7582"/>
<polygon fill="midnightblue" stroke="midnightblue" points="53.3031,-70.9306 45.1985,-77.7546 55.7896,-77.4741 53.3031,-70.9306"/>
</g>
<!-- Node6 -->
<g id="node6" class="node"><title>Node6</title>
<g id="a_node6"><a xlink:href="sound_8h.html#aacbb0b497e350fa72c032bd39322328d" target="_top" xlink:title="Shuffling cash like a bill counter. ">
<polygon fill="white" stroke="black" points="86,-0.5 86,-19.5 163,-19.5 163,-0.5 86,-0.5"/>
<text text-anchor="middle" x="124.5" y="-7.5" font-family="Helvetica,sans-Serif" font-size="10.00">shufflingCash</text>
</a>
</g>
</g>
<!-- Node1&#45;&gt;Node6 -->
<g id="edge5" class="edge"><title>Node1&#45;&gt;Node6</title>
<path fill="none" stroke="midnightblue" d="M37.9005,-68.7065C48.7837,-56.4424 64.6069,-40.2324 81,-29 86.2005,-25.4367 92.1774,-22.2809 97.9748,-19.6151"/>
<polygon fill="midnightblue" stroke="midnightblue" points="35.0948,-66.6006 31.2089,-76.4571 40.3932,-71.1751 35.0948,-66.6006"/>
</g>
<!-- Node6&#45;&gt;Node3 -->
<g id="edge6" class="edge"><title>Node6&#45;&gt;Node3</title>
<path fill="none" stroke="midnightblue" d="M156.573,-23.7814C160.427,-25.5235 164.309,-27.2932 168,-29 188.55,-38.5029 211.91,-49.7187 227.963,-57.4908"/>
<polygon fill="midnightblue" stroke="midnightblue" points="157.725,-20.4624 147.169,-19.5596 154.858,-26.8484 157.725,-20.4624"/>
</g>
</g>
</svg>
