<?xml version="1.0" encoding="UTF-8" standalone="no"?>
<!DOCTYPE svg PUBLIC "-//W3C//DTD SVG 1.1//EN"
 "http://www.w3.org/Graphics/SVG/1.1/DTD/svg11.dtd">
<!-- Generated by graphviz version 2.38.0 (20140413.2041)
 -->
<!-- Title: getRawVoltage Pages: 1 -->
<svg width="283pt" height="28pt"
 viewBox="0.00 0.00 283.00 28.00" xmlns="http://www.w3.org/2000/svg" xmlns:xlink="http://www.w3.org/1999/xlink">
<g id="graph0" class="graph" transform="scale(1 1) rotate(0) translate(4 24)">
<title>getRawVoltage</title>
<polygon fill="white" stroke="none" points="-4,4 -4,-24 279,-24 279,4 -4,4"/>
<!-- Node1 -->
<g id="node1" class="node"><title>Node1</title>
<polygon fill="#bfbfbf" stroke="black" points="0,-0.5 0,-19.5 83,-19.5 83,-0.5 0,-0.5"/>
<text text-anchor="middle" x="41.5" y="-7.5" font-family="Helvetica,sans-Serif" font-size="10.00">getRawVoltage</text>
</g>
<!-- Node2 -->
<g id="node2" class="node"><title>Node2</title>
<g id="a_node2"><a xlink:href="actions_8h.html#a4dda4125d9a3fc8abbc9b2803e4497c4" target="_top" xlink:title="Get the raw analog input. ">
<polygon fill="white" stroke="black" points="119,-0.5 119,-19.5 164,-19.5 164,-0.5 119,-0.5"/>
<text text-anchor="middle" x="141.5" y="-7.5" font-family="Helvetica,sans-Serif" font-size="10.00">txRaw</text>
</a>
</g>
</g>
<!-- Node1&#45;&gt;Node2 -->
<g id="edge1" class="edge"><title>Node1&#45;&gt;Node2</title>
<path fill="none" stroke="midnightblue" d="M93.3118,-10C102.286,-10 111.179,-10 118.785,-10"/>
<polygon fill="midnightblue" stroke="midnightblue" points="93.2095,-6.5001 83.2094,-10 93.2094,-13.5001 93.2095,-6.5001"/>
</g>
<!-- Node3 -->
<g id="node3" class="node"><title>Node3</title>
<g id="a_node3"><a xlink:href="actions_8h.html#a9c9466bf6676f35ff08e8dc33518e483" target="_top" xlink:title="Respond to commands from the serial port. ">
<polygon fill="white" stroke="black" points="200,-0.5 200,-19.5 275,-19.5 275,-0.5 200,-0.5"/>
<text text-anchor="middle" x="237.5" y="-7.5" font-family="Helvetica,sans-Serif" font-size="10.00">readEvalPrint</text>
</a>
</g>
</g>
<!-- Node2&#45;&gt;Node3 -->
<g id="edge2" class="edge"><title>Node2&#45;&gt;Node3</title>
<path fill="none" stroke="midnightblue" d="M174.491,-10C182.606,-10 191.388,-10 199.72,-10"/>
<polygon fill="midnightblue" stroke="midnightblue" points="174.302,-6.5001 164.302,-10 174.302,-13.5001 174.302,-6.5001"/>
</g>
</g>
</svg>
