<?xml version="1.0" encoding="UTF-8" standalone="no"?>
<!DOCTYPE svg PUBLIC "-//W3C//DTD SVG 1.1//EN"
 "http://www.w3.org/Graphics/SVG/1.1/DTD/svg11.dtd">
<!-- Generated by graphviz version 2.38.0 (20140413.2041)
 -->
<!-- Title: teensy3_morse_bsp.h Pages: 1 -->
<!--zoomable 252 -->
<svg id="main" version="1.1" xmlns="http://www.w3.org/2000/svg" xmlns:xlink="http://www.w3.org/1999/xlink" xml:space="preserve" onload="init(evt)">
<style type="text/css"><![CDATA[
.edge:hover path { stroke: red; }
.edge:hover polygon { stroke: red; fill: red; }
]]></style>
<script type="text/javascript"><![CDATA[
var edges = document.getElementsByTagName('g');
if (edges && edges.length) {
  for (var i=0;i<edges.length;i++) {
    if (edges[i].id.substr(0,4)=='edge') {
      edges[i].setAttribute('class','edge');
    }
  }
}
]]></script>
        <defs>
                <circle id="rim" cx="0" cy="0" r="7"/>
                <circle id="rim2" cx="0" cy="0" r="3.5"/>
                <g id="zoomPlus">
                        <use xlink:href="#rim" fill="#404040">
                                <set attributeName="fill" to="#808080" begin="zoomplus.mouseover" end="zoomplus.mouseout"/>
                        </use>
                        <path d="M-4,0h8M0,-4v8" fill="none" stroke="white" stroke-width="1.5" pointer-events="none"/>
                </g>
                <g id="zoomMin">
                        <use xlink:href="#rim" fill="#404040">
                                <set attributeName="fill" to="#808080" begin="zoomminus.mouseover" end="zoomminus.mouseout"/>
                        </use>
                        <path d="M-4,0h8" fill="none" stroke="white" stroke-width="1.5" pointer-events="none"/>
                </g>
                <g id="dirArrow">
                        <path fill="none" stroke="white" stroke-width="1.5" d="M0,-3.0v7 M-2.5,-0.5L0,-3.0L2.5,-0.5"/>
                </g>
               <g id="resetDef">
                       <use xlink:href="#rim2" fill="#404040">
                               <set attributeName="fill" to="#808080" begin="reset.mouseover" end="reset.mouseout"/>
                       </use>
               </g>
        </defs>

<script type="text/javascript">
var viewWidth = 687;
var viewHeight = 252;
var sectionId = 'dynsection-1';
</script>
<script xlink:href="svgpan.js"/>
<svg id="graph" class="graph">
<g id="viewport">
<title>teensy3_morse_bsp.h</title>
<polygon fill="white" stroke="none" points="-4,4 -4,-248 682.973,-248 682.973,4 -4,4"/>
<!-- Node1 -->
<g id="node1" class="node"><title>Node1</title>
<polygon fill="#bfbfbf" stroke="black" points="502.413,-224.5 502.413,-243.5 615.413,-243.5 615.413,-224.5 502.413,-224.5"/>
<text text-anchor="middle" x="558.913" y="-231.5" font-family="Helvetica,sans-Serif" font-size="10.00">teensy3_morse_bsp.h</text>
</g>
<!-- Node2 -->
<g id="node2" class="node"><title>Node2</title>
<g id="a_node2"><a xlink:href="libmorse_8h.html" target="_top" xlink:title="Morse code operations. ">
<polygon fill="white" stroke="black" points="108.913,-168.5 108.913,-187.5 170.913,-187.5 170.913,-168.5 108.913,-168.5"/>
<text text-anchor="middle" x="139.913" y="-175.5" font-family="Helvetica,sans-Serif" font-size="10.00">libmorse.h</text>
</a>
</g>
</g>
<!-- Node1&#45;&gt;Node2 -->
<g id="edge1" class="edge"><title>Node1&#45;&gt;Node2</title>
<path fill="none" stroke="midnightblue" d="M492.382,-224.426C400.56,-212.592 238.674,-191.728 171.007,-183.007"/>
<polygon fill="midnightblue" stroke="midnightblue" points="492.039,-227.91 502.404,-225.717 492.934,-220.968 492.039,-227.91"/>
</g>
<!-- Node4 -->
<g id="node4" class="node"><title>Node4</title>
<g id="a_node4"><a xlink:href="actions_8cpp.html" target="_top" xlink:title="Implementation of application&#45;specific actions. ">
<polygon fill="white" stroke="black" points="485.413,-56.5 485.413,-75.5 552.413,-75.5 552.413,-56.5 485.413,-56.5"/>
<text text-anchor="middle" x="518.913" y="-63.5" font-family="Helvetica,sans-Serif" font-size="10.00">actions.cpp</text>
</a>
</g>
</g>
<!-- Node1&#45;&gt;Node4 -->
<g id="edge16" class="edge"><title>Node1&#45;&gt;Node4</title>
<path fill="none" stroke="midnightblue" d="M554.317,-213.93C545.64,-177.92 527.161,-101.231 520.977,-75.5681"/>
<polygon fill="midnightblue" stroke="midnightblue" points="551.017,-215.173 556.762,-224.075 557.822,-213.533 551.017,-215.173"/>
</g>
<!-- Node6 -->
<g id="node6" class="node"><title>Node6</title>
<g id="a_node6"><a xlink:href="morse__digit_8cpp.html" target="_top" xlink:title="Implementation of decimal digit to Morse code conversion. ">
<polygon fill="white" stroke="black" points="570.913,-56.5 570.913,-75.5 656.913,-75.5 656.913,-56.5 570.913,-56.5"/>
<text text-anchor="middle" x="613.913" y="-63.5" font-family="Helvetica,sans-Serif" font-size="10.00">morse_digit.cpp</text>
</a>
</g>
</g>
<!-- Node1&#45;&gt;Node6 -->
<g id="edge17" class="edge"><title>Node1&#45;&gt;Node6</title>
<path fill="none" stroke="midnightblue" d="M565.077,-214.395C576.942,-178.585 602.534,-101.342 611.074,-75.5681"/>
<polygon fill="midnightblue" stroke="midnightblue" points="561.692,-213.482 561.87,-224.075 568.337,-215.683 561.692,-213.482"/>
</g>
<!-- Node11 -->
<g id="node11" class="node"><title>Node11</title>
<g id="a_node11"><a xlink:href="teensy3__morse__bsp_8cpp.html" target="_top" xlink:title="Implementation of Teensy 3.0 board support package. ">
<polygon fill="white" stroke="black" points="358.413,-0.5 358.413,-19.5 481.413,-19.5 481.413,-0.5 358.413,-0.5"/>
<text text-anchor="middle" x="419.913" y="-7.5" font-family="Helvetica,sans-Serif" font-size="10.00">teensy3_morse_bsp.cpp</text>
</a>
</g>
</g>
<!-- Node1&#45;&gt;Node11 -->
<g id="edge18" class="edge"><title>Node1&#45;&gt;Node11</title>
<path fill="none" stroke="midnightblue" d="M579.661,-218.456C622.184,-186.926 711.528,-110.717 665.913,-56 642.872,-28.3625 546.543,-17.6492 481.486,-13.5303"/>
<polygon fill="midnightblue" stroke="midnightblue" points="577.398,-215.773 571.363,-224.482 581.511,-221.437 577.398,-215.773"/>
</g>
<!-- Node3 -->
<g id="node3" class="node"><title>Node3</title>
<g id="a_node3"><a xlink:href="actions_8h.html" target="_top" xlink:title="Application&#45;specific actions. ">
<polygon fill="white" stroke="black" points="249.913,-112.5 249.913,-131.5 305.913,-131.5 305.913,-112.5 249.913,-112.5"/>
<text text-anchor="middle" x="277.913" y="-119.5" font-family="Helvetica,sans-Serif" font-size="10.00">actions.h</text>
</a>
</g>
</g>
<!-- Node2&#45;&gt;Node3 -->
<g id="edge2" class="edge"><title>Node2&#45;&gt;Node3</title>
<path fill="none" stroke="midnightblue" d="M171.162,-164.772C197.084,-154.629 233.275,-140.467 256.148,-131.516"/>
<polygon fill="midnightblue" stroke="midnightblue" points="169.816,-161.54 161.779,-168.444 172.367,-168.059 169.816,-161.54"/>
</g>
<!-- Node5 -->
<g id="node5" class="node"><title>Node5</title>
<g id="a_node5"><a xlink:href="libmorse_8cpp.html" target="_top" xlink:title="Implementation of Morse code operations. ">
<polygon fill="white" stroke="black" points="24.9126,-56.5 24.9126,-75.5 96.9126,-75.5 96.9126,-56.5 24.9126,-56.5"/>
<text text-anchor="middle" x="60.9126" y="-63.5" font-family="Helvetica,sans-Serif" font-size="10.00">libmorse.cpp</text>
</a>
</g>
</g>
<!-- Node2&#45;&gt;Node5 -->
<g id="edge11" class="edge"><title>Node2&#45;&gt;Node5</title>
<path fill="none" stroke="midnightblue" d="M128.79,-159.911C120.069,-146.678 107.51,-127.971 95.9126,-112 86.6079,-99.1862 75.2622,-84.8115 68.0614,-75.8324"/>
<polygon fill="midnightblue" stroke="midnightblue" points="125.984,-162.016 134.392,-168.463 131.84,-158.18 125.984,-162.016"/>
</g>
<!-- Node2&#45;&gt;Node11 -->
<g id="edge15" class="edge"><title>Node2&#45;&gt;Node11</title>
<path fill="none" stroke="midnightblue" d="M98.6447,-173.94C70.264,-169.434 34.4681,-158.473 15.9126,-132 -3.47456,-104.34 -6.61109,-81.1718 15.9126,-56 38.2952,-30.9859 250.536,-18.2978 358.082,-13.4303"/>
<polygon fill="midnightblue" stroke="midnightblue" points="98.3361,-177.43 108.72,-175.325 99.2894,-170.495 98.3361,-177.43"/>
</g>
<!-- Node12 -->
<g id="node12" class="node"><title>Node12</title>
<g id="a_node12"><a xlink:href="pda_8h.html" target="_top" xlink:title="Personal Digital Assistant functions. ">
<polygon fill="white" stroke="black" points="143.413,-112.5 143.413,-131.5 184.413,-131.5 184.413,-112.5 143.413,-112.5"/>
<text text-anchor="middle" x="163.913" y="-119.5" font-family="Helvetica,sans-Serif" font-size="10.00">pda.h</text>
</a>
</g>
</g>
<!-- Node2&#45;&gt;Node12 -->
<g id="edge12" class="edge"><title>Node2&#45;&gt;Node12</title>
<path fill="none" stroke="midnightblue" d="M148.051,-158.69C152.095,-149.589 156.795,-139.014 160.023,-131.751"/>
<polygon fill="midnightblue" stroke="midnightblue" points="144.739,-157.523 143.876,-168.083 151.136,-160.366 144.739,-157.523"/>
</g>
<!-- Node13 -->
<g id="node13" class="node"><title>Node13</title>
<g id="a_node13"><a xlink:href="sound_8cpp.html" target="_top" xlink:title="Implementation of PWM sound effects. ">
<polygon fill="white" stroke="black" points="24.9126,-112.5 24.9126,-131.5 86.9126,-131.5 86.9126,-112.5 24.9126,-112.5"/>
<text text-anchor="middle" x="55.9126" y="-119.5" font-family="Helvetica,sans-Serif" font-size="10.00">sound.cpp</text>
</a>
</g>
</g>
<!-- Node2&#45;&gt;Node13 -->
<g id="edge14" class="edge"><title>Node2&#45;&gt;Node13</title>
<path fill="none" stroke="midnightblue" d="M117.98,-162.901C102.577,-152.999 82.4668,-140.071 69.3752,-131.655"/>
<polygon fill="midnightblue" stroke="midnightblue" points="116.112,-165.86 126.417,-168.324 119.897,-159.972 116.112,-165.86"/>
</g>
<!-- Node3&#45;&gt;Node4 -->
<g id="edge3" class="edge"><title>Node3&#45;&gt;Node4</title>
<path fill="none" stroke="midnightblue" d="M316.03,-112.459C362.61,-102.022 440.698,-84.5253 485.186,-74.5571"/>
<polygon fill="midnightblue" stroke="midnightblue" points="315.023,-109.098 306.03,-114.7 316.553,-115.929 315.023,-109.098"/>
</g>
<!-- Node3&#45;&gt;Node5 -->
<g id="edge4" class="edge"><title>Node3&#45;&gt;Node5</title>
<path fill="none" stroke="midnightblue" d="M239.693,-111.489C198.858,-101.327 134.708,-85.3638 95.3756,-75.576"/>
<polygon fill="midnightblue" stroke="midnightblue" points="238.994,-114.922 249.544,-113.94 240.685,-108.129 238.994,-114.922"/>
</g>
<!-- Node3&#45;&gt;Node6 -->
<g id="edge5" class="edge"><title>Node3&#45;&gt;Node6</title>
<path fill="none" stroke="midnightblue" d="M316.071,-115.13C370.616,-106.7 474.006,-90.571 561.913,-76 564.805,-75.5206 567.787,-75.0204 570.79,-74.5121"/>
<polygon fill="midnightblue" stroke="midnightblue" points="315.5,-111.677 306.151,-116.662 316.568,-118.595 315.5,-111.677"/>
</g>
<!-- Node7 -->
<g id="node7" class="node"><title>Node7</title>
<g id="a_node7"><a xlink:href="morse__token_8cpp.html" target="_top" xlink:title="Implementation of Morse code operations. ">
<polygon fill="white" stroke="black" points="184.913,-56.5 184.913,-75.5 276.913,-75.5 276.913,-56.5 184.913,-56.5"/>
<text text-anchor="middle" x="230.913" y="-63.5" font-family="Helvetica,sans-Serif" font-size="10.00">morse_token.cpp</text>
</a>
</g>
</g>
<!-- Node3&#45;&gt;Node7 -->
<g id="edge6" class="edge"><title>Node3&#45;&gt;Node7</title>
<path fill="none" stroke="midnightblue" d="M263.492,-104.431C255.255,-94.9673 245.259,-83.4827 238.529,-75.7511"/>
<polygon fill="midnightblue" stroke="midnightblue" points="260.946,-106.838 270.152,-112.083 266.226,-102.242 260.946,-106.838"/>
</g>
<!-- Node8 -->
<g id="node8" class="node"><title>Node8</title>
<g id="a_node8"><a xlink:href="pda_8cpp.html" target="_top" xlink:title="Implementation of Personal Digital Assistant functions. ">
<polygon fill="white" stroke="black" points="115.413,-56.5 115.413,-75.5 166.413,-75.5 166.413,-56.5 115.413,-56.5"/>
<text text-anchor="middle" x="140.913" y="-63.5" font-family="Helvetica,sans-Serif" font-size="10.00">pda.cpp</text>
</a>
</g>
</g>
<!-- Node3&#45;&gt;Node8 -->
<g id="edge7" class="edge"><title>Node3&#45;&gt;Node8</title>
<path fill="none" stroke="midnightblue" d="M246.89,-108.772C221.156,-98.6287 185.227,-84.4669 162.519,-75.5164"/>
<polygon fill="midnightblue" stroke="midnightblue" points="245.618,-112.033 256.205,-112.444 248.185,-105.52 245.618,-112.033"/>
</g>
<!-- Node9 -->
<g id="node9" class="node"><title>Node9</title>
<g id="a_node9"><a xlink:href="stack_8cpp.html" target="_top" xlink:title="Implementation of Stack&#45;related convenience functions. ">
<polygon fill="white" stroke="black" points="295.413,-56.5 295.413,-75.5 354.413,-75.5 354.413,-56.5 295.413,-56.5"/>
<text text-anchor="middle" x="324.913" y="-63.5" font-family="Helvetica,sans-Serif" font-size="10.00">stack.cpp</text>
</a>
</g>
</g>
<!-- Node3&#45;&gt;Node9 -->
<g id="edge8" class="edge"><title>Node3&#45;&gt;Node9</title>
<path fill="none" stroke="midnightblue" d="M292.333,-104.431C300.571,-94.9673 310.567,-83.4827 317.296,-75.7511"/>
<polygon fill="midnightblue" stroke="midnightblue" points="289.599,-102.242 285.674,-112.083 294.879,-106.838 289.599,-102.242"/>
</g>
<!-- Node10 -->
<g id="node10" class="node"><title>Node10</title>
<g id="a_node10"><a xlink:href="voltage__monitor_8h.html" target="_top" xlink:title="Trivial co&#45;routine to gather and filter ADC samples. ">
<polygon fill="white" stroke="black" points="372.913,-56.5 372.913,-75.5 466.913,-75.5 466.913,-56.5 372.913,-56.5"/>
<text text-anchor="middle" x="419.913" y="-63.5" font-family="Helvetica,sans-Serif" font-size="10.00">voltage_monitor.h</text>
</a>
</g>
</g>
<!-- Node3&#45;&gt;Node10 -->
<g id="edge9" class="edge"><title>Node3&#45;&gt;Node10</title>
<path fill="none" stroke="midnightblue" d="M310.068,-108.772C336.741,-98.6287 373.981,-84.4669 397.518,-75.5164"/>
<polygon fill="midnightblue" stroke="midnightblue" points="308.516,-105.618 300.413,-112.444 311.004,-112.16 308.516,-105.618"/>
</g>
<!-- Node10&#45;&gt;Node11 -->
<g id="edge10" class="edge"><title>Node10&#45;&gt;Node11</title>
<path fill="none" stroke="midnightblue" d="M419.913,-45.8045C419.913,-36.9102 419.913,-26.7798 419.913,-19.7511"/>
<polygon fill="midnightblue" stroke="midnightblue" points="416.413,-46.083 419.913,-56.083 423.413,-46.083 416.413,-46.083"/>
</g>
<!-- Node12&#45;&gt;Node8 -->
<g id="edge13" class="edge"><title>Node12&#45;&gt;Node8</title>
<path fill="none" stroke="midnightblue" d="M156.114,-102.69C152.238,-93.589 147.733,-83.0141 144.64,-75.7511"/>
<polygon fill="midnightblue" stroke="midnightblue" points="152.976,-104.254 160.115,-112.083 159.416,-101.511 152.976,-104.254"/>
</g>
</g>
</svg>
        <g id="navigator" transform="translate(0 0)" fill="#404254">
                <rect fill="#f2f5e9" fill-opacity="0.5" stroke="#606060" stroke-width=".5" x="0" y="0" width="60" height="60"/>
                <use id="zoomplus" xlink:href="#zoomPlus" x="17" y="9" onmousedown="handleZoom(evt,'in')"/>
                <use id="zoomminus" xlink:href="#zoomMin" x="42" y="9" onmousedown="handleZoom(evt,'out')"/>
                <use id="reset" xlink:href="#resetDef" x="30" y="36" onmousedown="handleReset()"/>
                <g id="arrowUp" xlink:href="#dirArrow" transform="translate(30 24)" onmousedown="handlePan(0,-1)">
                  <use xlink:href="#rim" fill="#404040">
                        <set attributeName="fill" to="#808080" begin="arrowUp.mouseover" end="arrowUp.mouseout"/>
                  </use>
                  <path fill="none" stroke="white" stroke-width="1.5" d="M0,-3.0v7 M-2.5,-0.5L0,-3.0L2.5,-0.5"/>
                </g>
                <g id="arrowRight" xlink:href="#dirArrow" transform="rotate(90) translate(36 -43)" onmousedown="handlePan(1,0)">
                  <use xlink:href="#rim" fill="#404040">
                        <set attributeName="fill" to="#808080" begin="arrowRight.mouseover" end="arrowRight.mouseout"/>
                  </use>
                  <path fill="none" stroke="white" stroke-width="1.5" d="M0,-3.0v7 M-2.5,-0.5L0,-3.0L2.5,-0.5"/>
                </g>
                <g id="arrowDown" xlink:href="#dirArrow" transform="rotate(180) translate(-30 -48)" onmousedown="handlePan(0,1)">
                  <use xlink:href="#rim" fill="#404040">
                        <set attributeName="fill" to="#808080" begin="arrowDown.mouseover" end="arrowDown.mouseout"/>
                  </use>
                  <path fill="none" stroke="white" stroke-width="1.5" d="M0,-3.0v7 M-2.5,-0.5L0,-3.0L2.5,-0.5"/>
                </g>
                <g id="arrowLeft" xlink:href="#dirArrow" transform="rotate(270) translate(-36 17)" onmousedown="handlePan(-1,0)">
                  <use xlink:href="#rim" fill="#404040">
                        <set attributeName="fill" to="#808080" begin="arrowLeft.mouseover" end="arrowLeft.mouseout"/>
                  </use>
                  <path fill="none" stroke="white" stroke-width="1.5" d="M0,-3.0v7 M-2.5,-0.5L0,-3.0L2.5,-0.5"/>
                </g>
        </g>
        <svg viewBox="0 0 15 15" width="100%" height="30px" preserveAspectRatio="xMaxYMin meet">
         <g id="arrow_out" transform="scale(0.3 0.3)">
          <a xlink:href="teensy3__morse__bsp_8h__dep__incl_org.svg" target="_base">
           <rect id="button" ry="5" rx="5" y="6" x="6" height="38" width="38"
                fill="#f2f5e9" fill-opacity="0.5" stroke="#606060" stroke-width="1.0"/>
           <path id="arrow"
             d="M 11.500037,31.436501 C 11.940474,20.09759 22.043105,11.32322 32.158766,21.979434 L 37.068811,17.246167 C 37.068811,17.246167 37.088388,32 37.088388,32 L 22.160133,31.978069 C 22.160133,31.978069 26.997745,27.140456 26.997745,27.140456 C 18.528582,18.264221 13.291696,25.230495 11.500037,31.436501 z"
             style="fill:#404040;"/>
          </a>
         </g>
        </svg>
</svg>
