<?xml version="1.0" encoding="UTF-8" standalone="no"?>
<!DOCTYPE svg PUBLIC "-//W3C//DTD SVG 1.1//EN"
 "http://www.w3.org/Graphics/SVG/1.1/DTD/svg11.dtd">
<!-- Generated by graphviz version 2.38.0 (20140413.2041)
 -->
<!-- Title: getDuty Pages: 1 -->
<svg width="632pt" height="313pt"
 viewBox="0.00 0.00 632.00 313.00" xmlns="http://www.w3.org/2000/svg" xmlns:xlink="http://www.w3.org/1999/xlink">
<g id="graph0" class="graph" transform="scale(1 1) rotate(0) translate(4 309)">
<title>getDuty</title>
<polygon fill="white" stroke="none" points="-4,4 -4,-309 628,-309 628,4 -4,4"/>
<!-- Node1 -->
<g id="node1" class="node"><title>Node1</title>
<polygon fill="#bfbfbf" stroke="black" points="0,-228.5 0,-247.5 51,-247.5 51,-228.5 0,-228.5"/>
<text text-anchor="middle" x="25.5" y="-235.5" font-family="Helvetica,sans-Serif" font-size="10.00">getDuty</text>
</g>
<!-- Node2 -->
<g id="node2" class="node"><title>Node2</title>
<g id="a_node2"><a xlink:href="actions_8h.html#aa39383c189ec39df4fe9337c5edc98c2" target="_top" xlink:title="getPressure">
<polygon fill="white" stroke="black" points="87,-285.5 87,-304.5 156,-304.5 156,-285.5 87,-285.5"/>
<text text-anchor="middle" x="121.5" y="-292.5" font-family="Helvetica,sans-Serif" font-size="10.00">getPressure</text>
</a>
</g>
</g>
<!-- Node1&#45;&gt;Node2 -->
<g id="edge1" class="edge"><title>Node1&#45;&gt;Node2</title>
<path fill="none" stroke="midnightblue" d="M50.0167,-253.114C61.155,-260.184 74.6872,-268.647 87,-276 92.2812,-279.154 98.0931,-282.495 103.372,-285.481"/>
<polygon fill="midnightblue" stroke="midnightblue" points="51.6163,-249.983 41.3028,-247.557 47.8528,-255.885 51.6163,-249.983"/>
</g>
<!-- Node3 -->
<g id="node3" class="node"><title>Node3</title>
<g id="a_node3"><a xlink:href="pda_8h.html#a1918f8793e7469842e1d30275f6adc62" target="_top" xlink:title="Play a chromatic scale. ">
<polygon fill="white" stroke="black" points="92,-247.5 92,-266.5 151,-266.5 151,-247.5 92,-247.5"/>
<text text-anchor="middle" x="121.5" y="-254.5" font-family="Helvetica,sans-Serif" font-size="10.00">playScale</text>
</a>
</g>
</g>
<!-- Node1&#45;&gt;Node3 -->
<g id="edge2" class="edge"><title>Node1&#45;&gt;Node3</title>
<path fill="none" stroke="midnightblue" d="M61.0173,-244.977C71.1959,-247.034 82.2166,-249.262 91.974,-251.234"/>
<polygon fill="midnightblue" stroke="midnightblue" points="61.6926,-241.543 51.1974,-242.992 60.3057,-248.404 61.6926,-241.543"/>
</g>
<!-- Node4 -->
<g id="node4" class="node"><title>Node4</title>
<g id="a_node4"><a xlink:href="pda_8h.html#a3c36576745952735f04eaa82b933e6fa" target="_top" xlink:title="Play one of 10 sound effects based on the digit on the stack. ">
<polygon fill="white" stroke="black" points="192,-228.5 192,-247.5 281,-247.5 281,-228.5 192,-228.5"/>
<text text-anchor="middle" x="236.5" y="-235.5" font-family="Helvetica,sans-Serif" font-size="10.00">playSoundEffect</text>
</a>
</g>
</g>
<!-- Node1&#45;&gt;Node4 -->
<g id="edge3" class="edge"><title>Node1&#45;&gt;Node4</title>
<path fill="none" stroke="midnightblue" d="M61.7435,-238C97.5847,-238 153.196,-238 191.814,-238"/>
<polygon fill="midnightblue" stroke="midnightblue" points="61.2958,-234.5 51.2958,-238 61.2957,-241.5 61.2958,-234.5"/>
</g>
<!-- Node5 -->
<g id="node5" class="node"><title>Node5</title>
<g id="a_node5"><a xlink:href="sound_8h.html#a77ffd11f8a990ba2130061186e49535a" target="_top" xlink:title="Play a PWM tone at a given frequency and duration. ">
<polygon fill="white" stroke="black" points="93.5,-133.5 93.5,-152.5 149.5,-152.5 149.5,-133.5 93.5,-133.5"/>
<text text-anchor="middle" x="121.5" y="-140.5" font-family="Helvetica,sans-Serif" font-size="10.00">playTone</text>
</a>
</g>
</g>
<!-- Node1&#45;&gt;Node5 -->
<g id="edge4" class="edge"><title>Node1&#45;&gt;Node5</title>
<path fill="none" stroke="midnightblue" d="M43.3537,-220.967C63.1011,-201.01 95.1327,-168.637 110.987,-152.614"/>
<polygon fill="midnightblue" stroke="midnightblue" points="40.7512,-218.621 36.2056,-228.191 45.7271,-223.544 40.7512,-218.621"/>
</g>
<!-- Node5&#45;&gt;Node4 -->
<g id="edge16" class="edge"><title>Node5&#45;&gt;Node4</title>
<path fill="none" stroke="midnightblue" d="M135.414,-161C148.218,-177.804 169.178,-202.675 192,-219 197.094,-222.644 202.997,-225.799 208.781,-228.434"/>
<polygon fill="midnightblue" stroke="midnightblue" points="137.95,-158.544 129.18,-152.6 132.329,-162.716 137.95,-158.544"/>
</g>
<!-- Node6 -->
<g id="node6" class="node"><title>Node6</title>
<g id="a_node6"><a xlink:href="actions_8h.html#a84cfecc2ad5d97d5db65575c3a6109b3" target="_top" xlink:title="txTick">
<polygon fill="white" stroke="black" points="214.5,-38.5 214.5,-57.5 258.5,-57.5 258.5,-38.5 214.5,-38.5"/>
<text text-anchor="middle" x="236.5" y="-45.5" font-family="Helvetica,sans-Serif" font-size="10.00">txTick</text>
</a>
</g>
</g>
<!-- Node5&#45;&gt;Node6 -->
<g id="edge5" class="edge"><title>Node5&#45;&gt;Node6</title>
<path fill="none" stroke="midnightblue" d="M136.851,-125.694C150.118,-110.378 170.915,-88.0327 192,-72 199.14,-66.5705 207.658,-61.5915 215.256,-57.5931"/>
<polygon fill="midnightblue" stroke="midnightblue" points="134.113,-123.51 130.3,-133.395 139.445,-128.046 134.113,-123.51"/>
</g>
<!-- Node12 -->
<g id="node12" class="node"><title>Node12</title>
<g id="a_node12"><a xlink:href="actions_8h.html#aa0a40d808c3c5af59aa2e847188d1309" target="_top" xlink:title="Play a brief pair high&#45;pitched chirps. ">
<polygon fill="white" stroke="black" points="210.5,-0.5 210.5,-19.5 262.5,-19.5 262.5,-0.5 210.5,-0.5"/>
<text text-anchor="middle" x="236.5" y="-7.5" font-family="Helvetica,sans-Serif" font-size="10.00">txTiTick</text>
</a>
</g>
</g>
<!-- Node5&#45;&gt;Node12 -->
<g id="edge12" class="edge"><title>Node5&#45;&gt;Node12</title>
<path fill="none" stroke="midnightblue" d="M129.792,-123.995C140.183,-99.1513 161.438,-55.6731 192,-29 197.34,-24.3398 204.001,-20.6664 210.493,-17.8428"/>
<polygon fill="midnightblue" stroke="midnightblue" points="126.494,-122.814 126.008,-133.397 132.988,-125.427 126.494,-122.814"/>
</g>
<!-- Node13 -->
<g id="node13" class="node"><title>Node13</title>
<g id="a_node13"><a xlink:href="actions_8h.html#a65c96858d186454308e53fe7bb3abd07" target="_top" xlink:title="txTock">
<polygon fill="white" stroke="black" points="330.5,-76.5 330.5,-95.5 377.5,-95.5 377.5,-76.5 330.5,-76.5"/>
<text text-anchor="middle" x="354" y="-83.5" font-family="Helvetica,sans-Serif" font-size="10.00">txTock</text>
</a>
</g>
</g>
<!-- Node5&#45;&gt;Node13 -->
<g id="edge13" class="edge"><title>Node5&#45;&gt;Node13</title>
<path fill="none" stroke="midnightblue" d="M144.939,-127.849C158.089,-119.724 175.344,-110.316 192,-105 239.593,-89.8117 298.588,-86.5511 330.294,-85.9796"/>
<polygon fill="midnightblue" stroke="midnightblue" points="142.698,-125.127 136.157,-133.461 146.468,-131.026 142.698,-125.127"/>
</g>
<!-- Node14 -->
<g id="node14" class="node"><title>Node14</title>
<g id="a_node14"><a xlink:href="pda_8h.html#a35d0b57846aa0f585f9409957bc1957e" target="_top" xlink:title="playNote">
<polygon fill="white" stroke="black" points="208.5,-190.5 208.5,-209.5 264.5,-209.5 264.5,-190.5 208.5,-190.5"/>
<text text-anchor="middle" x="236.5" y="-197.5" font-family="Helvetica,sans-Serif" font-size="10.00">playNote</text>
</a>
</g>
</g>
<!-- Node5&#45;&gt;Node14 -->
<g id="edge17" class="edge"><title>Node5&#45;&gt;Node14</title>
<path fill="none" stroke="midnightblue" d="M147.993,-157.644C161.015,-164.943 177.197,-173.738 192,-181 198.511,-184.194 205.686,-187.437 212.299,-190.319"/>
<polygon fill="midnightblue" stroke="midnightblue" points="149.562,-154.51 139.134,-152.636 146.117,-160.604 149.562,-154.51"/>
</g>
<!-- Node15 -->
<g id="node15" class="node"><title>Node15</title>
<g id="a_node15"><a xlink:href="pda_8h.html#a5875d17f5eb7a7cb45b34d772ea743d8" target="_top" xlink:title="txAlphabetSong">
<polygon fill="white" stroke="black" points="193.5,-152.5 193.5,-171.5 279.5,-171.5 279.5,-152.5 193.5,-152.5"/>
<text text-anchor="middle" x="236.5" y="-159.5" font-family="Helvetica,sans-Serif" font-size="10.00">txAlphabetSong</text>
</a>
</g>
</g>
<!-- Node5&#45;&gt;Node15 -->
<g id="edge18" class="edge"><title>Node5&#45;&gt;Node15</title>
<path fill="none" stroke="midnightblue" d="M159.506,-149.222C170.28,-151.034 182.133,-153.027 193.207,-154.889"/>
<polygon fill="midnightblue" stroke="midnightblue" points="160.008,-145.758 149.566,-147.551 158.848,-152.661 160.008,-145.758"/>
</g>
<!-- Node16 -->
<g id="node16" class="node"><title>Node16</title>
<g id="a_node16"><a xlink:href="pda_8h.html#aab9e42a6b6df607546b8d0951e5c5b99" target="_top" xlink:title="guitarTune">
<polygon fill="white" stroke="black" points="205.5,-114.5 205.5,-133.5 267.5,-133.5 267.5,-114.5 205.5,-114.5"/>
<text text-anchor="middle" x="236.5" y="-121.5" font-family="Helvetica,sans-Serif" font-size="10.00">guitarTune</text>
</a>
</g>
</g>
<!-- Node5&#45;&gt;Node16 -->
<g id="edge19" class="edge"><title>Node5&#45;&gt;Node16</title>
<path fill="none" stroke="midnightblue" d="M159.492,-136.78C174.394,-134.275 191.358,-131.422 205.474,-129.049"/>
<polygon fill="midnightblue" stroke="midnightblue" points="158.848,-133.339 149.566,-138.449 160.008,-140.242 158.848,-133.339"/>
</g>
<!-- Node7 -->
<g id="node7" class="node"><title>Node7</title>
<g id="a_node7"><a xlink:href="libmorse_8h.html#ac4a29ea9b7bb06c2d9e8c4d74f486b91" target="_top" xlink:title="Accumulate a Morse token. ">
<polygon fill="white" stroke="black" points="325.5,-0.5 325.5,-19.5 382.5,-19.5 382.5,-0.5 325.5,-0.5"/>
<text text-anchor="middle" x="354" y="-7.5" font-family="Helvetica,sans-Serif" font-size="10.00">getMorse</text>
</a>
</g>
</g>
<!-- Node6&#45;&gt;Node7 -->
<g id="edge6" class="edge"><title>Node6&#45;&gt;Node7</title>
<path fill="none" stroke="midnightblue" d="M268.552,-37.7837C286.274,-31.9532 308.296,-24.7077 325.408,-19.0778"/>
<polygon fill="midnightblue" stroke="midnightblue" points="267.09,-34.5802 258.684,-41.0302 269.277,-41.2296 267.09,-34.5802"/>
</g>
<!-- Node11 -->
<g id="node11" class="node"><title>Node11</title>
<g id="a_node11"><a xlink:href="pda_8h.html#aee08a527408a7a8a4b5490d13b767cb2" target="_top" xlink:title="txMetronome">
<polygon fill="white" stroke="black" points="317,-38.5 317,-57.5 391,-57.5 391,-38.5 317,-38.5"/>
<text text-anchor="middle" x="354" y="-45.5" font-family="Helvetica,sans-Serif" font-size="10.00">txMetronome</text>
</a>
</g>
</g>
<!-- Node6&#45;&gt;Node11 -->
<g id="edge11" class="edge"><title>Node6&#45;&gt;Node11</title>
<path fill="none" stroke="midnightblue" d="M268.901,-48C283.756,-48 301.572,-48 316.975,-48"/>
<polygon fill="midnightblue" stroke="midnightblue" points="268.685,-44.5001 258.684,-48 268.684,-51.5001 268.685,-44.5001"/>
</g>
<!-- Node8 -->
<g id="node8" class="node"><title>Node8</title>
<g id="a_node8"><a xlink:href="libmorse_8cpp.html#afa60f07ebee7c34ef41c3dfb64222bb6" target="_top" xlink:title="Score the given pattern against the state of the symbol stack. ">
<polygon fill="white" stroke="black" points="427,-57.5 427,-76.5 496,-76.5 496,-57.5 427,-57.5"/>
<text text-anchor="middle" x="461.5" y="-64.5" font-family="Helvetica,sans-Serif" font-size="10.00">matchScore</text>
</a>
</g>
</g>
<!-- Node7&#45;&gt;Node8 -->
<g id="edge7" class="edge"><title>Node7&#45;&gt;Node8</title>
<path fill="none" stroke="midnightblue" d="M382.43,-24.4232C385.326,-25.9623 388.226,-27.5096 391,-29 408.808,-38.567 429.081,-49.6765 443.116,-57.4026"/>
<polygon fill="midnightblue" stroke="midnightblue" points="383.818,-21.1977 373.342,-19.6137 380.543,-27.3848 383.818,-21.1977"/>
</g>
<!-- Node10 -->
<g id="node10" class="node"><title>Node10</title>
<g id="a_node10"><a xlink:href="libmorse_8h.html#a25fad1f4d176afaa89839cc897891e78" target="_top" xlink:title="rxString">
<polygon fill="white" stroke="black" points="436.5,-19.5 436.5,-38.5 486.5,-38.5 486.5,-19.5 436.5,-19.5"/>
<text text-anchor="middle" x="461.5" y="-26.5" font-family="Helvetica,sans-Serif" font-size="10.00">rxString</text>
</a>
</g>
</g>
<!-- Node7&#45;&gt;Node10 -->
<g id="edge9" class="edge"><title>Node7&#45;&gt;Node10</title>
<path fill="none" stroke="midnightblue" d="M392.873,-16.8207C407.305,-19.4199 423.355,-22.3105 436.197,-24.6231"/>
<polygon fill="midnightblue" stroke="midnightblue" points="393.181,-13.32 382.719,-14.992 391.94,-20.2091 393.181,-13.32"/>
</g>
<!-- Node9 -->
<g id="node9" class="node"><title>Node9</title>
<g id="a_node9"><a xlink:href="actions_8h.html#a1fec7da4166b9612d2deec3d0262d60f" target="_top" xlink:title="dispatchOnStack">
<polygon fill="white" stroke="black" points="532,-38.5 532,-57.5 624,-57.5 624,-38.5 532,-38.5"/>
<text text-anchor="middle" x="578" y="-45.5" font-family="Helvetica,sans-Serif" font-size="10.00">dispatchOnStack</text>
</a>
</g>
</g>
<!-- Node8&#45;&gt;Node9 -->
<g id="edge8" class="edge"><title>Node8&#45;&gt;Node9</title>
<path fill="none" stroke="midnightblue" d="M506.15,-59.7567C514.488,-58.3732 523.233,-56.922 531.623,-55.5298"/>
<polygon fill="midnightblue" stroke="midnightblue" points="505.527,-56.3123 496.234,-61.4021 506.673,-63.2178 505.527,-56.3123"/>
</g>
<!-- Node10&#45;&gt;Node9 -->
<g id="edge10" class="edge"><title>Node10&#45;&gt;Node9</title>
<path fill="none" stroke="midnightblue" d="M496.591,-34.657C507.625,-36.488 520.039,-38.548 531.752,-40.4915"/>
<polygon fill="midnightblue" stroke="midnightblue" points="496.941,-31.1673 486.503,-32.983 495.795,-38.0729 496.941,-31.1673"/>
</g>
<!-- Node13&#45;&gt;Node8 -->
<g id="edge14" class="edge"><title>Node13&#45;&gt;Node8</title>
<path fill="none" stroke="midnightblue" d="M387.571,-80.1341C399.984,-77.8987 414.151,-75.3472 426.677,-73.0913"/>
<polygon fill="midnightblue" stroke="midnightblue" points="386.854,-76.7069 377.632,-81.924 388.094,-83.5961 386.854,-76.7069"/>
</g>
<!-- Node13&#45;&gt;Node10 -->
<g id="edge15" class="edge"><title>Node13&#45;&gt;Node10</title>
<path fill="none" stroke="midnightblue" d="M382.43,-71.5768C385.326,-70.0377 388.226,-68.4904 391,-67 408.808,-57.433 429.081,-46.3235 443.116,-38.5974"/>
<polygon fill="midnightblue" stroke="midnightblue" points="380.543,-68.6152 373.342,-76.3863 383.818,-74.8023 380.543,-68.6152"/>
</g>
</g>
</svg>
