<?xml version="1.0" encoding="UTF-8" standalone="no"?>
<!DOCTYPE svg PUBLIC "-//W3C//DTD SVG 1.1//EN"
 "http://www.w3.org/Graphics/SVG/1.1/DTD/svg11.dtd">
<!-- Generated by graphviz version 2.38.0 (20140413.2041)
 -->
<!-- Title: activityLight Pages: 1 -->
<svg width="318pt" height="104pt"
 viewBox="0.00 0.00 318.00 104.00" xmlns="http://www.w3.org/2000/svg" xmlns:xlink="http://www.w3.org/1999/xlink">
<g id="graph0" class="graph" transform="scale(1 1) rotate(0) translate(4 100)">
<title>activityLight</title>
<polygon fill="white" stroke="none" points="-4,4 -4,-100 314,-100 314,4 -4,4"/>
<!-- Node1 -->
<g id="node1" class="node"><title>Node1</title>
<polygon fill="#bfbfbf" stroke="black" points="0,-38.5 0,-57.5 69,-57.5 69,-38.5 0,-38.5"/>
<text text-anchor="middle" x="34.5" y="-45.5" font-family="Helvetica,sans-Serif" font-size="10.00">activityLight</text>
</g>
<!-- Node2 -->
<g id="node2" class="node"><title>Node2</title>
<g id="a_node2"><a xlink:href="teensy3__morse__bsp_8h.html#ae162e602c712201806b935cb21ce8284" target="_top" xlink:title="Turn the green LED on (1) or off (0). ">
<polygon fill="white" stroke="black" points="115,-76.5 115,-95.5 175,-95.5 175,-76.5 115,-76.5"/>
<text text-anchor="middle" x="145" y="-83.5" font-family="Helvetica,sans-Serif" font-size="10.00">greenLED</text>
</a>
</g>
</g>
<!-- Node1&#45;&gt;Node2 -->
<g id="edge1" class="edge"><title>Node1&#45;&gt;Node2</title>
<path fill="none" stroke="midnightblue" d="M72.5379,-60.9718C86.9931,-66.0344 103.267,-71.7341 116.63,-76.4141"/>
<polygon fill="midnightblue" stroke="midnightblue" points="73.474,-57.5912 62.8791,-57.589 71.1601,-64.1978 73.474,-57.5912"/>
</g>
<!-- Node4 -->
<g id="node4" class="node"><title>Node4</title>
<g id="a_node4"><a xlink:href="teensy3__morse__bsp_8h.html#a1602f82bf26915dd2e462be2a99fc776" target="_top" xlink:title="Change the state of the green LED. ">
<polygon fill="white" stroke="black" points="221,-38.5 221,-57.5 310,-57.5 310,-38.5 221,-38.5"/>
<text text-anchor="middle" x="265.5" y="-45.5" font-family="Helvetica,sans-Serif" font-size="10.00">toggleGreenLED</text>
</a>
</g>
</g>
<!-- Node1&#45;&gt;Node4 -->
<g id="edge4" class="edge"><title>Node1&#45;&gt;Node4</title>
<path fill="none" stroke="midnightblue" d="M79.4372,-48C120.086,-48 180.181,-48 220.765,-48"/>
<polygon fill="midnightblue" stroke="midnightblue" points="79.2898,-44.5001 69.2897,-48 79.2897,-51.5001 79.2898,-44.5001"/>
</g>
<!-- Node5 -->
<g id="node5" class="node"><title>Node5</title>
<g id="a_node5"><a xlink:href="teensy3__morse__bsp_8h.html#a96d5d27859362b51477fd56bcc67fe7c" target="_top" xlink:title="Change the state of the red LED. ">
<polygon fill="white" stroke="black" points="105,-0.5 105,-19.5 185,-19.5 185,-0.5 105,-0.5"/>
<text text-anchor="middle" x="145" y="-7.5" font-family="Helvetica,sans-Serif" font-size="10.00">toggleRedLED</text>
</a>
</g>
</g>
<!-- Node1&#45;&gt;Node5 -->
<g id="edge5" class="edge"><title>Node1&#45;&gt;Node5</title>
<path fill="none" stroke="midnightblue" d="M72.5379,-35.0282C86.9931,-29.9656 103.267,-24.2659 116.63,-19.5859"/>
<polygon fill="midnightblue" stroke="midnightblue" points="71.1601,-31.8022 62.8791,-38.411 73.474,-38.4088 71.1601,-31.8022"/>
</g>
<!-- Node3 -->
<g id="node3" class="node"><title>Node3</title>
<g id="a_node3"><a xlink:href="teensy3__morse__bsp_8h.html#a15bba6162d5a787569acccbf85402f71" target="_top" xlink:title="Initialize the input and output ports used by appliance or PDA hardware. ">
<polygon fill="white" stroke="black" points="239,-76.5 239,-95.5 292,-95.5 292,-76.5 239,-76.5"/>
<text text-anchor="middle" x="265.5" y="-83.5" font-family="Helvetica,sans-Serif" font-size="10.00">initPorts</text>
</a>
</g>
</g>
<!-- Node2&#45;&gt;Node3 -->
<g id="edge2" class="edge"><title>Node2&#45;&gt;Node3</title>
<path fill="none" stroke="midnightblue" d="M185.784,-86C203.264,-86 223.287,-86 238.764,-86"/>
<polygon fill="midnightblue" stroke="midnightblue" points="185.292,-82.5001 175.292,-86 185.292,-89.5001 185.292,-82.5001"/>
</g>
<!-- Node2&#45;&gt;Node4 -->
<g id="edge3" class="edge"><title>Node2&#45;&gt;Node4</title>
<path fill="none" stroke="midnightblue" d="M185.019,-73.4875C201.198,-68.2994 219.664,-62.3779 234.722,-57.5491"/>
<polygon fill="midnightblue" stroke="midnightblue" points="183.746,-70.2203 175.292,-76.6067 185.883,-76.8859 183.746,-70.2203"/>
</g>
</g>
</svg>
