<?xml version="1.0" encoding="UTF-8" standalone="no"?>
<!DOCTYPE svg PUBLIC "-//W3C//DTD SVG 1.1//EN"
 "http://www.w3.org/Graphics/SVG/1.1/DTD/svg11.dtd">
<!-- Generated by graphviz version 2.38.0 (20140413.2041)
 -->
<!-- Title: teensy3_morse_bsp.cpp Pages: 1 -->
<!--zoomable 364 -->
<svg id="main" version="1.1" xmlns="http://www.w3.org/2000/svg" xmlns:xlink="http://www.w3.org/1999/xlink" xml:space="preserve" onload="init(evt)">
<style type="text/css"><![CDATA[
.edge:hover path { stroke: red; }
.edge:hover polygon { stroke: red; fill: red; }
]]></style>
<script type="text/javascript"><![CDATA[
var edges = document.getElementsByTagName('g');
if (edges && edges.length) {
  for (var i=0;i<edges.length;i++) {
    if (edges[i].id.substr(0,4)=='edge') {
      edges[i].setAttribute('class','edge');
    }
  }
}
]]></script>
        <defs>
                <circle id="rim" cx="0" cy="0" r="7"/>
                <circle id="rim2" cx="0" cy="0" r="3.5"/>
                <g id="zoomPlus">
                        <use xlink:href="#rim" fill="#404040">
                                <set attributeName="fill" to="#808080" begin="zoomplus.mouseover" end="zoomplus.mouseout"/>
                        </use>
                        <path d="M-4,0h8M0,-4v8" fill="none" stroke="white" stroke-width="1.5" pointer-events="none"/>
                </g>
                <g id="zoomMin">
                        <use xlink:href="#rim" fill="#404040">
                                <set attributeName="fill" to="#808080" begin="zoomminus.mouseover" end="zoomminus.mouseout"/>
                        </use>
                        <path d="M-4,0h8" fill="none" stroke="white" stroke-width="1.5" pointer-events="none"/>
                </g>
                <g id="dirArrow">
                        <path fill="none" stroke="white" stroke-width="1.5" d="M0,-3.0v7 M-2.5,-0.5L0,-3.0L2.5,-0.5"/>
                </g>
               <g id="resetDef">
                       <use xlink:href="#rim2" fill="#404040">
                               <set attributeName="fill" to="#808080" begin="reset.mouseover" end="reset.mouseout"/>
                       </use>
               </g>
        </defs>

<script type="text/javascript">
var viewWidth = 540;
var viewHeight = 364;
var sectionId = 'dynsection-0';
</script>
<script xlink:href="svgpan.js"/>
<svg id="graph" class="graph">
<g id="viewport">
<title>teensy3_morse_bsp.cpp</title>
<polygon fill="white" stroke="none" points="-4,4 -4,-360 535.585,-360 535.585,4 -4,4"/>
<!-- Node1 -->
<g id="node1" class="node"><title>Node1</title>
<polygon fill="#bfbfbf" stroke="black" points="80.5,-336.5 80.5,-355.5 203.5,-355.5 203.5,-336.5 80.5,-336.5"/>
<text text-anchor="middle" x="142" y="-343.5" font-family="Helvetica,sans-Serif" font-size="10.00">teensy3_morse_bsp.cpp</text>
</g>
<!-- Node2 -->
<g id="node2" class="node"><title>Node2</title>
<polygon fill="white" stroke="#bfbfbf" points="268.5,-0.5 268.5,-19.5 313.5,-19.5 313.5,-0.5 268.5,-0.5"/>
<text text-anchor="middle" x="291" y="-7.5" font-family="Helvetica,sans-Serif" font-size="10.00">climits</text>
</g>
<!-- Node1&#45;&gt;Node2 -->
<g id="edge1" class="edge"><title>Node1&#45;&gt;Node2</title>
<path fill="none" stroke="midnightblue" d="M111.537,-336.398C69.8132,-322.535 0,-290.976 0,-235 0,-235 0,-235 0,-121 0,-82.8683 22.9927,-75.093 56,-56 120.686,-18.5829 210.505,-11.5315 258.192,-10.6458"/>
<polygon fill="midnightblue" stroke="midnightblue" points="258.297,-14.145 268.26,-10.5402 258.223,-7.14542 258.297,-14.145"/>
</g>
<!-- Node3 -->
<g id="node3" class="node"><title>Node3</title>
<g id="a_node3"><a xlink:href="teensy3__morse__bsp_8h.html" target="_top" xlink:title="Teensy 3.0 board support package. ">
<polygon fill="white" stroke="black" points="75.5,-112.5 75.5,-131.5 188.5,-131.5 188.5,-112.5 75.5,-112.5"/>
<text text-anchor="middle" x="132" y="-119.5" font-family="Helvetica,sans-Serif" font-size="10.00">teensy3_morse_bsp.h</text>
</a>
</g>
</g>
<!-- Node1&#45;&gt;Node3 -->
<g id="edge2" class="edge"><title>Node1&#45;&gt;Node3</title>
<path fill="none" stroke="midnightblue" d="M108.201,-336.388C89.6068,-329.735 68.1103,-318.453 57,-300 23.3564,-244.121 84.7933,-170.402 115.745,-138.649"/>
<polygon fill="midnightblue" stroke="midnightblue" points="118.282,-141.062 122.881,-131.517 113.333,-136.111 118.282,-141.062"/>
</g>
<!-- Node5 -->
<g id="node5" class="node"><title>Node5</title>
<polygon fill="white" stroke="#bfbfbf" points="66.5,-280.5 66.5,-299.5 141.5,-299.5 141.5,-280.5 66.5,-280.5"/>
<text text-anchor="middle" x="104" y="-287.5" font-family="Helvetica,sans-Serif" font-size="10.00">mk20dx128.h</text>
</g>
<!-- Node1&#45;&gt;Node5 -->
<g id="edge4" class="edge"><title>Node1&#45;&gt;Node5</title>
<path fill="none" stroke="midnightblue" d="M135.725,-336.083C130.358,-328.455 122.482,-317.264 115.921,-307.941"/>
<polygon fill="midnightblue" stroke="midnightblue" points="118.775,-305.915 110.158,-299.751 113.051,-309.943 118.775,-305.915"/>
</g>
<!-- Node6 -->
<g id="node6" class="node"><title>Node6</title>
<g id="a_node6"><a xlink:href="cpu_8h.html" target="_top" xlink:title="Macros for identifying the CPU. ">
<polygon fill="white" stroke="black" points="159.5,-280.5 159.5,-299.5 200.5,-299.5 200.5,-280.5 159.5,-280.5"/>
<text text-anchor="middle" x="180" y="-287.5" font-family="Helvetica,sans-Serif" font-size="10.00">cpu.h</text>
</a>
</g>
</g>
<!-- Node1&#45;&gt;Node6 -->
<g id="edge5" class="edge"><title>Node1&#45;&gt;Node6</title>
<path fill="none" stroke="midnightblue" d="M148.275,-336.083C153.642,-328.455 161.518,-317.264 168.079,-307.941"/>
<polygon fill="midnightblue" stroke="midnightblue" points="170.949,-309.943 173.842,-299.751 165.225,-305.915 170.949,-309.943"/>
</g>
<!-- Node7 -->
<g id="node7" class="node"><title>Node7</title>
<g id="a_node7"><a xlink:href="libmorse_8h.html" target="_top" xlink:title="Morse code operations. ">
<polygon fill="white" stroke="black" points="254,-168.5 254,-187.5 316,-187.5 316,-168.5 254,-168.5"/>
<text text-anchor="middle" x="285" y="-175.5" font-family="Helvetica,sans-Serif" font-size="10.00">libmorse.h</text>
</a>
</g>
</g>
<!-- Node1&#45;&gt;Node7 -->
<g id="edge6" class="edge"><title>Node1&#45;&gt;Node7</title>
<path fill="none" stroke="midnightblue" d="M159.473,-336.479C174.158,-328.627 194.942,-315.812 209,-300 234.226,-271.627 227.158,-255.733 248,-224 254.663,-213.855 263.209,-203.334 270.409,-195.017"/>
<polygon fill="midnightblue" stroke="midnightblue" points="273.029,-197.338 277.041,-187.532 267.79,-192.696 273.029,-197.338"/>
</g>
<!-- Node15 -->
<g id="node15" class="node"><title>Node15</title>
<g id="a_node15"><a xlink:href="voltage__monitor_8h.html" target="_top" xlink:title="Trivial co&#45;routine to gather and filter ADC samples. ">
<polygon fill="white" stroke="black" points="304,-280.5 304,-299.5 398,-299.5 398,-280.5 304,-280.5"/>
<text text-anchor="middle" x="351" y="-287.5" font-family="Helvetica,sans-Serif" font-size="10.00">voltage_monitor.h</text>
</a>
</g>
</g>
<!-- Node1&#45;&gt;Node15 -->
<g id="edge20" class="edge"><title>Node1&#45;&gt;Node15</title>
<path fill="none" stroke="midnightblue" d="M175.117,-336.444C211.118,-327.142 268.77,-312.246 308.186,-302.062"/>
<polygon fill="midnightblue" stroke="midnightblue" points="309.232,-305.407 318.038,-299.516 307.481,-298.629 309.232,-305.407"/>
</g>
<!-- Node4 -->
<g id="node4" class="node"><title>Node4</title>
<polygon fill="white" stroke="#bfbfbf" points="65,-56.5 65,-75.5 123,-75.5 123,-56.5 65,-56.5"/>
<text text-anchor="middle" x="94" y="-63.5" font-family="Helvetica,sans-Serif" font-size="10.00">Arduino.h</text>
</g>
<!-- Node3&#45;&gt;Node4 -->
<g id="edge3" class="edge"><title>Node3&#45;&gt;Node4</title>
<path fill="none" stroke="midnightblue" d="M125.725,-112.083C120.358,-104.455 112.482,-93.2645 105.921,-83.9408"/>
<polygon fill="midnightblue" stroke="midnightblue" points="108.775,-81.9149 100.158,-75.7511 103.051,-85.9434 108.775,-81.9149"/>
</g>
<!-- Node7&#45;&gt;Node2 -->
<g id="edge11" class="edge"><title>Node7&#45;&gt;Node2</title>
<path fill="none" stroke="midnightblue" d="M270.339,-168.402C258.594,-160.585 242.969,-147.862 236,-132 232.425,-123.862 233.807,-120.614 236,-112 244.171,-79.9084 264.841,-47.0047 278.384,-27.8119"/>
<polygon fill="midnightblue" stroke="midnightblue" points="281.335,-29.7047 284.374,-19.555 275.669,-25.5942 281.335,-29.7047"/>
</g>
<!-- Node7&#45;&gt;Node3 -->
<g id="edge12" class="edge"><title>Node7&#45;&gt;Node3</title>
<path fill="none" stroke="midnightblue" d="M260.757,-168.444C235.129,-159.399 194.515,-145.064 165.762,-134.916"/>
<polygon fill="midnightblue" stroke="midnightblue" points="166.725,-131.544 156.13,-131.516 164.395,-138.145 166.725,-131.544"/>
</g>
<!-- Node8 -->
<g id="node8" class="node"><title>Node8</title>
<g id="a_node8"><a xlink:href="binconst_8h.html" target="_top" xlink:title="Binary constant generator macro. ">
<polygon fill="white" stroke="black" points="453,-0.5 453,-19.5 515,-19.5 515,-0.5 453,-0.5"/>
<text text-anchor="middle" x="484" y="-7.5" font-family="Helvetica,sans-Serif" font-size="10.00">binconst.h</text>
</a>
</g>
</g>
<!-- Node7&#45;&gt;Node8 -->
<g id="edge7" class="edge"><title>Node7&#45;&gt;Node8</title>
<path fill="none" stroke="midnightblue" d="M316.329,-173.819C368.662,-167.959 470.904,-154.004 499,-132 527.221,-109.898 539.145,-89.3489 526,-56 521.486,-44.5479 512.531,-34.291 504.045,-26.4724"/>
<polygon fill="midnightblue" stroke="midnightblue" points="506.085,-23.6113 496.214,-19.7638 501.531,-28.9275 506.085,-23.6113"/>
</g>
<!-- Node9 -->
<g id="node9" class="node"><title>Node9</title>
<polygon fill="white" stroke="#bfbfbf" points="245.5,-112.5 245.5,-131.5 288.5,-131.5 288.5,-112.5 245.5,-112.5"/>
<text text-anchor="middle" x="267" y="-119.5" font-family="Helvetica,sans-Serif" font-size="10.00">cstdio</text>
</g>
<!-- Node7&#45;&gt;Node9 -->
<g id="edge8" class="edge"><title>Node7&#45;&gt;Node9</title>
<path fill="none" stroke="midnightblue" d="M282.028,-168.083C279.616,-160.849 276.136,-150.409 273.132,-141.397"/>
<polygon fill="midnightblue" stroke="midnightblue" points="276.4,-140.131 269.917,-131.751 269.759,-142.345 276.4,-140.131"/>
</g>
<!-- Node10 -->
<g id="node10" class="node"><title>Node10</title>
<polygon fill="white" stroke="#bfbfbf" points="307,-112.5 307,-131.5 353,-131.5 353,-112.5 307,-112.5"/>
<text text-anchor="middle" x="330" y="-119.5" font-family="Helvetica,sans-Serif" font-size="10.00">cstring</text>
</g>
<!-- Node7&#45;&gt;Node10 -->
<g id="edge9" class="edge"><title>Node7&#45;&gt;Node10</title>
<path fill="none" stroke="midnightblue" d="M292.431,-168.083C298.853,-160.377 308.306,-149.033 316.122,-139.653"/>
<polygon fill="midnightblue" stroke="midnightblue" points="318.994,-141.674 322.707,-131.751 313.617,-137.193 318.994,-141.674"/>
</g>
<!-- Node11 -->
<g id="node11" class="node"><title>Node11</title>
<polygon fill="white" stroke="#bfbfbf" points="282,-56.5 282,-75.5 338,-75.5 338,-56.5 282,-56.5"/>
<text text-anchor="middle" x="310" y="-63.5" font-family="Helvetica,sans-Serif" font-size="10.00">cinttypes</text>
</g>
<!-- Node7&#45;&gt;Node11 -->
<g id="edge10" class="edge"><title>Node7&#45;&gt;Node11</title>
<path fill="none" stroke="midnightblue" d="M313.372,-168.495C330.752,-161.653 351.596,-150.13 362,-132 372.879,-113.042 352.751,-93.7958 334.458,-81.22"/>
<polygon fill="midnightblue" stroke="midnightblue" points="336.069,-78.0942 325.769,-75.6126 332.274,-83.9758 336.069,-78.0942"/>
</g>
<!-- Node12 -->
<g id="node12" class="node"><title>Node12</title>
<g id="a_node12"><a xlink:href="morse__token_8h.html" target="_top" xlink:title="Defines the MorseToken class and various helpers. ">
<polygon fill="white" stroke="black" points="409.5,-112.5 409.5,-131.5 490.5,-131.5 490.5,-112.5 409.5,-112.5"/>
<text text-anchor="middle" x="450" y="-119.5" font-family="Helvetica,sans-Serif" font-size="10.00">morse_token.h</text>
</a>
</g>
</g>
<!-- Node7&#45;&gt;Node12 -->
<g id="edge13" class="edge"><title>Node7&#45;&gt;Node12</title>
<path fill="none" stroke="midnightblue" d="M311.145,-168.444C339.023,-159.32 383.348,-144.813 414.4,-134.651"/>
<polygon fill="midnightblue" stroke="midnightblue" points="415.562,-137.953 423.978,-131.516 413.385,-131.3 415.562,-137.953"/>
</g>
<!-- Node12&#45;&gt;Node2 -->
<g id="edge15" class="edge"><title>Node12&#45;&gt;Node2</title>
<path fill="none" stroke="midnightblue" d="M437.524,-112.368C410.355,-93.5728 345.592,-48.7684 312.007,-25.5334"/>
<polygon fill="midnightblue" stroke="midnightblue" points="313.634,-22.4025 303.419,-19.5914 309.651,-28.1592 313.634,-22.4025"/>
</g>
<!-- Node12&#45;&gt;Node11 -->
<g id="edge14" class="edge"><title>Node12&#45;&gt;Node11</title>
<path fill="none" stroke="midnightblue" d="M427.817,-112.444C404.572,-103.478 367.851,-89.314 341.585,-79.1827"/>
<polygon fill="midnightblue" stroke="midnightblue" points="342.669,-75.8497 332.08,-75.5164 340.15,-82.3807 342.669,-75.8497"/>
</g>
<!-- Node13 -->
<g id="node13" class="node"><title>Node13</title>
<polygon fill="white" stroke="#bfbfbf" points="468.5,-56.5 468.5,-75.5 517.5,-75.5 517.5,-56.5 468.5,-56.5"/>
<text text-anchor="middle" x="493" y="-63.5" font-family="Helvetica,sans-Serif" font-size="10.00">cstddef</text>
</g>
<!-- Node12&#45;&gt;Node13 -->
<g id="edge16" class="edge"><title>Node12&#45;&gt;Node13</title>
<path fill="none" stroke="midnightblue" d="M457.101,-112.083C463.237,-104.377 472.27,-93.0333 479.739,-83.6531"/>
<polygon fill="midnightblue" stroke="midnightblue" points="482.54,-85.7542 486.032,-75.7511 477.064,-81.3936 482.54,-85.7542"/>
</g>
<!-- Node14 -->
<g id="node14" class="node"><title>Node14</title>
<g id="a_node14"><a xlink:href="prosign_8h.html" target="_top" xlink:title="Prosign constants. ">
<polygon fill="white" stroke="black" points="394,-56.5 394,-75.5 450,-75.5 450,-56.5 394,-56.5"/>
<text text-anchor="middle" x="422" y="-63.5" font-family="Helvetica,sans-Serif" font-size="10.00">prosign.h</text>
</a>
</g>
</g>
<!-- Node12&#45;&gt;Node14 -->
<g id="edge17" class="edge"><title>Node12&#45;&gt;Node14</title>
<path fill="none" stroke="midnightblue" d="M445.376,-112.083C441.544,-104.691 435.976,-93.9533 431.235,-84.8111"/>
<polygon fill="midnightblue" stroke="midnightblue" points="434.248,-83.0175 426.538,-75.7511 428.034,-86.2398 434.248,-83.0175"/>
</g>
<!-- Node14&#45;&gt;Node2 -->
<g id="edge19" class="edge"><title>Node14&#45;&gt;Node2</title>
<path fill="none" stroke="midnightblue" d="M401.243,-56.4435C379.684,-47.5566 345.737,-33.5632 321.206,-23.4514"/>
<polygon fill="midnightblue" stroke="midnightblue" points="322.239,-20.0917 311.66,-19.5164 319.572,-26.5634 322.239,-20.0917"/>
</g>
<!-- Node14&#45;&gt;Node8 -->
<g id="edge18" class="edge"><title>Node14&#45;&gt;Node8</title>
<path fill="none" stroke="midnightblue" d="M431.961,-56.324C441.127,-48.3414 454.937,-36.3128 466.028,-26.6529"/>
<polygon fill="midnightblue" stroke="midnightblue" points="468.615,-29.041 473.857,-19.8339 464.018,-23.7624 468.615,-29.041"/>
</g>
<!-- Node16 -->
<g id="node16" class="node"><title>Node16</title>
<polygon fill="white" stroke="#bfbfbf" points="454.5,-224.5 454.5,-243.5 499.5,-243.5 499.5,-224.5 454.5,-224.5"/>
<text text-anchor="middle" x="477" y="-231.5" font-family="Helvetica,sans-Serif" font-size="10.00">cstdlib</text>
</g>
<!-- Node15&#45;&gt;Node16 -->
<g id="edge21" class="edge"><title>Node15&#45;&gt;Node16</title>
<path fill="none" stroke="midnightblue" d="M370.965,-280.444C391.609,-271.596 424.063,-257.687 447.632,-247.586"/>
<polygon fill="midnightblue" stroke="midnightblue" points="449.316,-250.673 457.128,-243.516 446.558,-244.239 449.316,-250.673"/>
</g>
<!-- Node17 -->
<g id="node17" class="node"><title>Node17</title>
<polygon fill="white" stroke="#bfbfbf" points="331,-224.5 331,-243.5 371,-243.5 371,-224.5 331,-224.5"/>
<text text-anchor="middle" x="351" y="-231.5" font-family="Helvetica,sans-Serif" font-size="10.00">limits</text>
</g>
<!-- Node15&#45;&gt;Node17 -->
<g id="edge22" class="edge"><title>Node15&#45;&gt;Node17</title>
<path fill="none" stroke="midnightblue" d="M351,-280.083C351,-273.006 351,-262.861 351,-253.986"/>
<polygon fill="midnightblue" stroke="midnightblue" points="354.5,-253.751 351,-243.751 347.5,-253.751 354.5,-253.751"/>
</g>
<!-- Node18 -->
<g id="node18" class="node"><title>Node18</title>
<polygon fill="white" stroke="#bfbfbf" points="389.5,-224.5 389.5,-243.5 436.5,-243.5 436.5,-224.5 389.5,-224.5"/>
<text text-anchor="middle" x="413" y="-231.5" font-family="Helvetica,sans-Serif" font-size="10.00">Time.h</text>
</g>
<!-- Node15&#45;&gt;Node18 -->
<g id="edge23" class="edge"><title>Node15&#45;&gt;Node18</title>
<path fill="none" stroke="midnightblue" d="M360.961,-280.324C370.127,-272.341 383.937,-260.313 395.028,-250.653"/>
<polygon fill="midnightblue" stroke="midnightblue" points="397.615,-253.041 402.857,-243.834 393.018,-247.762 397.615,-253.041"/>
</g>
<!-- Node19 -->
<g id="node19" class="node"><title>Node19</title>
<g id="a_node19"><a xlink:href="actions_8h.html" target="_top" xlink:title="Application&#45;specific actions. ">
<polygon fill="white" stroke="black" points="257,-224.5 257,-243.5 313,-243.5 313,-224.5 257,-224.5"/>
<text text-anchor="middle" x="285" y="-231.5" font-family="Helvetica,sans-Serif" font-size="10.00">actions.h</text>
</a>
</g>
</g>
<!-- Node15&#45;&gt;Node19 -->
<g id="edge24" class="edge"><title>Node15&#45;&gt;Node19</title>
<path fill="none" stroke="midnightblue" d="M340.396,-280.324C330.544,-272.263 315.649,-260.077 303.785,-250.369"/>
<polygon fill="midnightblue" stroke="midnightblue" points="305.753,-247.457 295.797,-243.834 301.32,-252.875 305.753,-247.457"/>
</g>
<!-- Node19&#45;&gt;Node4 -->
<g id="edge25" class="edge"><title>Node19&#45;&gt;Node4</title>
<path fill="none" stroke="midnightblue" d="M256.616,-229.563C207.697,-221.938 108.659,-198.651 66,-132 56.1265,-116.574 67.2444,-97.0741 78.2558,-83.4751"/>
<polygon fill="midnightblue" stroke="midnightblue" points="80.9657,-85.693 84.9095,-75.8595 75.6943,-81.0873 80.9657,-85.693"/>
</g>
<!-- Node19&#45;&gt;Node7 -->
<g id="edge26" class="edge"><title>Node19&#45;&gt;Node7</title>
<path fill="none" stroke="midnightblue" d="M285,-224.083C285,-217.006 285,-206.861 285,-197.986"/>
<polygon fill="midnightblue" stroke="midnightblue" points="288.5,-197.751 285,-187.751 281.5,-197.751 288.5,-197.751"/>
</g>
<!-- Node19&#45;&gt;Node12 -->
<g id="edge27" class="edge"><title>Node19&#45;&gt;Node12</title>
<path fill="none" stroke="midnightblue" d="M297.947,-224.368C326.261,-205.492 393.923,-160.385 428.645,-137.237"/>
<polygon fill="midnightblue" stroke="midnightblue" points="430.734,-140.051 437.113,-131.591 426.851,-134.226 430.734,-140.051"/>
</g>
</g>
</svg>
        <g id="navigator" transform="translate(0 0)" fill="#404254">
                <rect fill="#f2f5e9" fill-opacity="0.5" stroke="#606060" stroke-width=".5" x="0" y="0" width="60" height="60"/>
                <use id="zoomplus" xlink:href="#zoomPlus" x="17" y="9" onmousedown="handleZoom(evt,'in')"/>
                <use id="zoomminus" xlink:href="#zoomMin" x="42" y="9" onmousedown="handleZoom(evt,'out')"/>
                <use id="reset" xlink:href="#resetDef" x="30" y="36" onmousedown="handleReset()"/>
                <g id="arrowUp" xlink:href="#dirArrow" transform="translate(30 24)" onmousedown="handlePan(0,-1)">
                  <use xlink:href="#rim" fill="#404040">
                        <set attributeName="fill" to="#808080" begin="arrowUp.mouseover" end="arrowUp.mouseout"/>
                  </use>
                  <path fill="none" stroke="white" stroke-width="1.5" d="M0,-3.0v7 M-2.5,-0.5L0,-3.0L2.5,-0.5"/>
                </g>
                <g id="arrowRight" xlink:href="#dirArrow" transform="rotate(90) translate(36 -43)" onmousedown="handlePan(1,0)">
                  <use xlink:href="#rim" fill="#404040">
                        <set attributeName="fill" to="#808080" begin="arrowRight.mouseover" end="arrowRight.mouseout"/>
                  </use>
                  <path fill="none" stroke="white" stroke-width="1.5" d="M0,-3.0v7 M-2.5,-0.5L0,-3.0L2.5,-0.5"/>
                </g>
                <g id="arrowDown" xlink:href="#dirArrow" transform="rotate(180) translate(-30 -48)" onmousedown="handlePan(0,1)">
                  <use xlink:href="#rim" fill="#404040">
                        <set attributeName="fill" to="#808080" begin="arrowDown.mouseover" end="arrowDown.mouseout"/>
                  </use>
                  <path fill="none" stroke="white" stroke-width="1.5" d="M0,-3.0v7 M-2.5,-0.5L0,-3.0L2.5,-0.5"/>
                </g>
                <g id="arrowLeft" xlink:href="#dirArrow" transform="rotate(270) translate(-36 17)" onmousedown="handlePan(-1,0)">
                  <use xlink:href="#rim" fill="#404040">
                        <set attributeName="fill" to="#808080" begin="arrowLeft.mouseover" end="arrowLeft.mouseout"/>
                  </use>
                  <path fill="none" stroke="white" stroke-width="1.5" d="M0,-3.0v7 M-2.5,-0.5L0,-3.0L2.5,-0.5"/>
                </g>
        </g>
        <svg viewBox="0 0 15 15" width="100%" height="30px" preserveAspectRatio="xMaxYMin meet">
         <g id="arrow_out" transform="scale(0.3 0.3)">
          <a xlink:href="teensy3__morse__bsp_8cpp__incl_org.svg" target="_base">
           <rect id="button" ry="5" rx="5" y="6" x="6" height="38" width="38"
                fill="#f2f5e9" fill-opacity="0.5" stroke="#606060" stroke-width="1.0"/>
           <path id="arrow"
             d="M 11.500037,31.436501 C 11.940474,20.09759 22.043105,11.32322 32.158766,21.979434 L 37.068811,17.246167 C 37.068811,17.246167 37.088388,32 37.088388,32 L 22.160133,31.978069 C 22.160133,31.978069 26.997745,27.140456 26.997745,27.140456 C 18.528582,18.264221 13.291696,25.230495 11.500037,31.436501 z"
             style="fill:#404040;"/>
          </a>
         </g>
        </svg>
</svg>
