<?xml version="1.0" encoding="UTF-8" standalone="no"?>
<!DOCTYPE svg PUBLIC "-//W3C//DTD SVG 1.1//EN"
 "http://www.w3.org/Graphics/SVG/1.1/DTD/svg11.dtd">
<!-- Generated by graphviz version 2.38.0 (20140413.2041)
 -->
<!-- Title: initPorts Pages: 1 -->
<svg width="417pt" height="66pt"
 viewBox="0.00 0.00 417.00 66.00" xmlns="http://www.w3.org/2000/svg" xmlns:xlink="http://www.w3.org/1999/xlink">
<g id="graph0" class="graph" transform="scale(1 1) rotate(0) translate(4 62)">
<title>initPorts</title>
<polygon fill="white" stroke="none" points="-4,4 -4,-62 413,-62 413,4 -4,4"/>
<!-- Node1 -->
<g id="node1" class="node"><title>Node1</title>
<polygon fill="#bfbfbf" stroke="black" points="0,-19.5 0,-38.5 53,-38.5 53,-19.5 0,-19.5"/>
<text text-anchor="middle" x="26.5" y="-26.5" font-family="Helvetica,sans-Serif" font-size="10.00">initPorts</text>
</g>
<!-- Node2 -->
<g id="node2" class="node"><title>Node2</title>
<g id="a_node2"><a xlink:href="teensy3__morse__bsp_8cpp.html#ae162e602c712201806b935cb21ce8284" target="_top" xlink:title="Turn the green LED on (1) or off (0). ">
<polygon fill="white" stroke="black" points="99,-38.5 99,-57.5 159,-57.5 159,-38.5 99,-38.5"/>
<text text-anchor="middle" x="129" y="-45.5" font-family="Helvetica,sans-Serif" font-size="10.00">greenLED</text>
</a>
</g>
</g>
<!-- Node1&#45;&gt;Node2 -->
<g id="edge1" class="edge"><title>Node1&#45;&gt;Node2</title>
<path fill="none" stroke="midnightblue" d="M53.1204,-33.8437C64.0246,-35.9051 76.9844,-38.3553 89.032,-40.6329"/>
<polygon fill="midnightblue" stroke="midnightblue" points="88.396,-44.0746 98.8722,-42.4933 89.6965,-37.1964 88.396,-44.0746"/>
</g>
<!-- Node4 -->
<g id="node4" class="node"><title>Node4</title>
<g id="a_node4"><a xlink:href="teensy3__morse__bsp_8cpp.html#a9c9c90d823df58733140d0fa559e0d3f" target="_top" xlink:title="Establish a baseline for a touch sensor when no touch is present. ">
<polygon fill="white" stroke="black" points="89,-0.5 89,-19.5 169,-19.5 169,-0.5 89,-0.5"/>
<text text-anchor="middle" x="129" y="-7.5" font-family="Helvetica,sans-Serif" font-size="10.00">calibrateTouch</text>
</a>
</g>
</g>
<!-- Node1&#45;&gt;Node4 -->
<g id="edge3" class="edge"><title>Node1&#45;&gt;Node4</title>
<path fill="none" stroke="midnightblue" d="M53.1204,-24.1563C60.9796,-22.6705 69.9067,-20.9828 78.7904,-19.3033"/>
<polygon fill="midnightblue" stroke="midnightblue" points="79.5669,-22.7186 88.7427,-17.4218 78.2665,-15.8404 79.5669,-22.7186"/>
</g>
<!-- Node3 -->
<g id="node3" class="node"><title>Node3</title>
<g id="a_node3"><a xlink:href="teensy3__morse__bsp_8cpp.html#ab28974f7e8f855ec7ba4805642afaaba" target="_top" xlink:title="activityLight">
<polygon fill="white" stroke="black" points="205,-38.5 205,-57.5 274,-57.5 274,-38.5 205,-38.5"/>
<text text-anchor="middle" x="239.5" y="-45.5" font-family="Helvetica,sans-Serif" font-size="10.00">activityLight</text>
</a>
</g>
</g>
<!-- Node2&#45;&gt;Node3 -->
<g id="edge2" class="edge"><title>Node2&#45;&gt;Node3</title>
<path fill="none" stroke="midnightblue" d="M159.076,-48C169.951,-48 182.561,-48 194.485,-48"/>
<polygon fill="midnightblue" stroke="midnightblue" points="194.728,-51.5001 204.728,-48 194.728,-44.5001 194.728,-51.5001"/>
</g>
<!-- Node5 -->
<g id="node5" class="node"><title>Node5</title>
<g id="a_node5"><a xlink:href="teensy3__morse__bsp_8cpp.html#a82911eac3bf13d6f36d10102a4c4d3c4" target="_top" xlink:title="Generate a tone on the audio output pins. ">
<polygon fill="white" stroke="black" points="209,-0.5 209,-19.5 270,-19.5 270,-0.5 209,-0.5"/>
<text text-anchor="middle" x="239.5" y="-7.5" font-family="Helvetica,sans-Serif" font-size="10.00">pwmWrite</text>
</a>
</g>
</g>
<!-- Node4&#45;&gt;Node5 -->
<g id="edge4" class="edge"><title>Node4&#45;&gt;Node5</title>
<path fill="none" stroke="midnightblue" d="M169.171,-10C178.8,-10 189.117,-10 198.771,-10"/>
<polygon fill="midnightblue" stroke="midnightblue" points="198.924,-13.5001 208.924,-10 198.924,-6.5001 198.924,-13.5001"/>
</g>
<!-- Node6 -->
<g id="node6" class="node"><title>Node6</title>
<g id="a_node6"><a xlink:href="teensy3__morse__bsp_8cpp.html#ac70998cee1bf97f00aec4a1b4e5a4f60" target="_top" xlink:title="isEarphonePresent">
<polygon fill="white" stroke="black" points="310,-0.5 310,-19.5 409,-19.5 409,-0.5 310,-0.5"/>
<text text-anchor="middle" x="359.5" y="-7.5" font-family="Helvetica,sans-Serif" font-size="10.00">isEarphonePresent</text>
</a>
</g>
</g>
<!-- Node5&#45;&gt;Node6 -->
<g id="edge5" class="edge"><title>Node5&#45;&gt;Node6</title>
<path fill="none" stroke="midnightblue" d="M270.276,-10C279.289,-10 289.518,-10 299.738,-10"/>
<polygon fill="midnightblue" stroke="midnightblue" points="299.909,-13.5001 309.909,-10 299.909,-6.5001 299.909,-13.5001"/>
</g>
</g>
</svg>
