<?xml version="1.0" encoding="UTF-8" standalone="no"?>
<!DOCTYPE svg PUBLIC "-//W3C//DTD SVG 1.1//EN"
 "http://www.w3.org/Graphics/SVG/1.1/DTD/svg11.dtd">
<!-- Generated by graphviz version 2.38.0 (20140413.2041)
 -->
<!-- Title: toggleGreenLED Pages: 1 -->
<svg width="298pt" height="47pt"
 viewBox="0.00 0.00 298.00 47.00" xmlns="http://www.w3.org/2000/svg" xmlns:xlink="http://www.w3.org/1999/xlink">
<g id="graph0" class="graph" transform="scale(1 1) rotate(0) translate(4 43)">
<title>toggleGreenLED</title>
<polygon fill="white" stroke="none" points="-4,4 -4,-43 294,-43 294,4 -4,4"/>
<!-- Node1 -->
<g id="node1" class="node"><title>Node1</title>
<polygon fill="#bfbfbf" stroke="black" points="0,-19.5 0,-38.5 89,-38.5 89,-19.5 0,-19.5"/>
<text text-anchor="middle" x="44.5" y="-26.5" font-family="Helvetica,sans-Serif" font-size="10.00">toggleGreenLED</text>
</g>
<!-- Node2 -->
<g id="node2" class="node"><title>Node2</title>
<g id="a_node2"><a xlink:href="teensy3__morse__bsp_8cpp.html#ab28974f7e8f855ec7ba4805642afaaba" target="_top" xlink:title="activityLight">
<polygon fill="white" stroke="black" points="221,-19.5 221,-38.5 290,-38.5 290,-19.5 221,-19.5"/>
<text text-anchor="middle" x="255.5" y="-26.5" font-family="Helvetica,sans-Serif" font-size="10.00">activityLight</text>
</a>
</g>
</g>
<!-- Node1&#45;&gt;Node2 -->
<g id="edge1" class="edge"><title>Node1&#45;&gt;Node2</title>
<path fill="none" stroke="midnightblue" d="M89.0588,-29C124.773,-29 175.084,-29 210.829,-29"/>
<polygon fill="midnightblue" stroke="midnightblue" points="210.96,-32.5001 220.96,-29 210.96,-25.5001 210.96,-32.5001"/>
</g>
<!-- Node3 -->
<g id="node3" class="node"><title>Node3</title>
<g id="a_node3"><a xlink:href="teensy3__morse__bsp_8cpp.html#ae162e602c712201806b935cb21ce8284" target="_top" xlink:title="Turn the green LED on (1) or off (0). ">
<polygon fill="white" stroke="black" points="125,-0.5 125,-19.5 185,-19.5 185,-0.5 125,-0.5"/>
<text text-anchor="middle" x="155" y="-7.5" font-family="Helvetica,sans-Serif" font-size="10.00">greenLED</text>
</a>
</g>
</g>
<!-- Node1&#45;&gt;Node3 -->
<g id="edge2" class="edge"><title>Node1&#45;&gt;Node3</title>
<path fill="none" stroke="midnightblue" d="M89.0059,-21.3815C97.5564,-19.8841 106.478,-18.3219 114.874,-16.8516"/>
<polygon fill="midnightblue" stroke="midnightblue" points="115.548,-20.2868 124.795,-15.1143 114.341,-13.3917 115.548,-20.2868"/>
</g>
<!-- Node3&#45;&gt;Node2 -->
<g id="edge3" class="edge"><title>Node3&#45;&gt;Node2</title>
<path fill="none" stroke="midnightblue" d="M185.02,-15.5979C193.096,-17.1557 202.051,-18.8829 210.771,-20.565"/>
<polygon fill="midnightblue" stroke="midnightblue" points="210.352,-24.0487 220.834,-22.5061 211.678,-17.1754 210.352,-24.0487"/>
</g>
</g>
</svg>
